<?xml version="1.0" encoding="utf-8" standalone="no"?>
<!DOCTYPE svg PUBLIC "-//W3C//DTD SVG 1.1//EN"
  "http://www.w3.org/Graphics/SVG/1.1/DTD/svg11.dtd">
<svg xmlns:xlink="http://www.w3.org/1999/xlink" width="460.8pt" height="345.6pt" viewBox="0 0 460.8 345.6" xmlns="http://www.w3.org/2000/svg" version="1.1">
 <metadata>
  <rdf:RDF xmlns:dc="http://purl.org/dc/elements/1.1/" xmlns:cc="http://creativecommons.org/ns#" xmlns:rdf="http://www.w3.org/1999/02/22-rdf-syntax-ns#">
   <cc:Work>
    <dc:type rdf:resource="http://purl.org/dc/dcmitype/StillImage"/>
    <dc:date>2025-02-21T00:25:56.936935</dc:date>
    <dc:format>image/svg+xml</dc:format>
    <dc:creator>
     <cc:Agent>
      <dc:title>Matplotlib v3.8.4, https://matplotlib.org/</dc:title>
     </cc:Agent>
    </dc:creator>
   </cc:Work>
  </rdf:RDF>
 </metadata>
 <defs>
  <style type="text/css">*{stroke-linejoin: round; stroke-linecap: butt}</style>
 </defs>
 <g id="figure_1">
  <g id="patch_1">
   <path d="M 0 345.6 
L 460.8 345.6 
L 460.8 0 
L 0 0 
z
" style="fill: #ffffff"/>
  </g>
  <g id="axes_1">
   <g id="patch_2">
    <path d="M 57.6 307.584 
L 414.72 307.584 
L 414.72 41.472 
L 57.6 41.472 
z
" style="fill: #ffffff"/>
   </g>
   <g id="matplotlib.axis_1">
    <g id="xtick_1">
     <g id="line2d_1">
      <defs>
       <path id="mc2d526752a" d="M 0 0 
L 0 3.5 
" style="stroke: #000000; stroke-width: 0.8"/>
      </defs>
      <g>
       <use xlink:href="#mc2d526752a" x="57.6" y="307.584" style="stroke: #000000; stroke-width: 0.8"/>
      </g>
     </g>
     <g id="text_1">
      <!-- $\mathdefault{10^{4}}$ -->
      <g transform="translate(48.8 322.182437) scale(0.1 -0.1)">
       <defs>
        <path id="DejaVuSans-31" d="M 794 531 
L 1825 531 
L 1825 4091 
L 703 3866 
L 703 4441 
L 1819 4666 
L 2450 4666 
L 2450 531 
L 3481 531 
L 3481 0 
L 794 0 
L 794 531 
z
" transform="scale(0.015625)"/>
        <path id="DejaVuSans-30" d="M 2034 4250 
Q 1547 4250 1301 3770 
Q 1056 3291 1056 2328 
Q 1056 1369 1301 889 
Q 1547 409 2034 409 
Q 2525 409 2770 889 
Q 3016 1369 3016 2328 
Q 3016 3291 2770 3770 
Q 2525 4250 2034 4250 
z
M 2034 4750 
Q 2819 4750 3233 4129 
Q 3647 3509 3647 2328 
Q 3647 1150 3233 529 
Q 2819 -91 2034 -91 
Q 1250 -91 836 529 
Q 422 1150 422 2328 
Q 422 3509 836 4129 
Q 1250 4750 2034 4750 
z
" transform="scale(0.015625)"/>
        <path id="DejaVuSans-34" d="M 2419 4116 
L 825 1625 
L 2419 1625 
L 2419 4116 
z
M 2253 4666 
L 3047 4666 
L 3047 1625 
L 3713 1625 
L 3713 1100 
L 3047 1100 
L 3047 0 
L 2419 0 
L 2419 1100 
L 313 1100 
L 313 1709 
L 2253 4666 
z
" transform="scale(0.015625)"/>
       </defs>
       <use xlink:href="#DejaVuSans-31" transform="translate(0 0.684375)"/>
       <use xlink:href="#DejaVuSans-30" transform="translate(63.623047 0.684375)"/>
       <use xlink:href="#DejaVuSans-34" transform="translate(128.203125 38.965625) scale(0.7)"/>
      </g>
     </g>
    </g>
    <g id="xtick_2">
     <g id="line2d_2">
      <defs>
       <path id="m89154f6455" d="M 0 0 
L 0 2 
" style="stroke: #000000; stroke-width: 0.6"/>
      </defs>
      <g>
       <use xlink:href="#m89154f6455" x="211.403212" y="307.584" style="stroke: #000000; stroke-width: 0.6"/>
      </g>
     </g>
     <g id="text_2">
      <!-- $\mathdefault{2\times10^{4}}$ -->
      <g transform="translate(193.303212 320.582437) scale(0.1 -0.1)">
       <defs>
        <path id="DejaVuSans-32" d="M 1228 531 
L 3431 531 
L 3431 0 
L 469 0 
L 469 531 
Q 828 903 1448 1529 
Q 2069 2156 2228 2338 
Q 2531 2678 2651 2914 
Q 2772 3150 2772 3378 
Q 2772 3750 2511 3984 
Q 2250 4219 1831 4219 
Q 1534 4219 1204 4116 
Q 875 4013 500 3803 
L 500 4441 
Q 881 4594 1212 4672 
Q 1544 4750 1819 4750 
Q 2544 4750 2975 4387 
Q 3406 4025 3406 3419 
Q 3406 3131 3298 2873 
Q 3191 2616 2906 2266 
Q 2828 2175 2409 1742 
Q 1991 1309 1228 531 
z
" transform="scale(0.015625)"/>
        <path id="DejaVuSans-d7" d="M 4488 3438 
L 3059 2003 
L 4488 575 
L 4116 197 
L 2681 1631 
L 1247 197 
L 878 575 
L 2303 2003 
L 878 3438 
L 1247 3816 
L 2681 2381 
L 4116 3816 
L 4488 3438 
z
" transform="scale(0.015625)"/>
       </defs>
       <use xlink:href="#DejaVuSans-32" transform="translate(0 0.684375)"/>
       <use xlink:href="#DejaVuSans-d7" transform="translate(83.105469 0.684375)"/>
       <use xlink:href="#DejaVuSans-31" transform="translate(186.376953 0.684375)"/>
       <use xlink:href="#DejaVuSans-30" transform="translate(250 0.684375)"/>
       <use xlink:href="#DejaVuSans-34" transform="translate(314.580078 38.965625) scale(0.7)"/>
      </g>
     </g>
    </g>
    <g id="xtick_3">
     <g id="line2d_3">
      <g>
       <use xlink:href="#m89154f6455" x="301.372324" y="307.584" style="stroke: #000000; stroke-width: 0.6"/>
      </g>
     </g>
     <g id="text_3">
      <!-- $\mathdefault{3\times10^{4}}$ -->
      <g transform="translate(283.272324 320.582437) scale(0.1 -0.1)">
       <defs>
        <path id="DejaVuSans-33" d="M 2597 2516 
Q 3050 2419 3304 2112 
Q 3559 1806 3559 1356 
Q 3559 666 3084 287 
Q 2609 -91 1734 -91 
Q 1441 -91 1130 -33 
Q 819 25 488 141 
L 488 750 
Q 750 597 1062 519 
Q 1375 441 1716 441 
Q 2309 441 2620 675 
Q 2931 909 2931 1356 
Q 2931 1769 2642 2001 
Q 2353 2234 1838 2234 
L 1294 2234 
L 1294 2753 
L 1863 2753 
Q 2328 2753 2575 2939 
Q 2822 3125 2822 3475 
Q 2822 3834 2567 4026 
Q 2313 4219 1838 4219 
Q 1578 4219 1281 4162 
Q 984 4106 628 3988 
L 628 4550 
Q 988 4650 1302 4700 
Q 1616 4750 1894 4750 
Q 2613 4750 3031 4423 
Q 3450 4097 3450 3541 
Q 3450 3153 3228 2886 
Q 3006 2619 2597 2516 
z
" transform="scale(0.015625)"/>
       </defs>
       <use xlink:href="#DejaVuSans-33" transform="translate(0 0.684375)"/>
       <use xlink:href="#DejaVuSans-d7" transform="translate(83.105469 0.684375)"/>
       <use xlink:href="#DejaVuSans-31" transform="translate(186.376953 0.684375)"/>
       <use xlink:href="#DejaVuSans-30" transform="translate(250 0.684375)"/>
       <use xlink:href="#DejaVuSans-34" transform="translate(314.580078 38.965625) scale(0.7)"/>
      </g>
     </g>
    </g>
    <g id="xtick_4">
     <g id="line2d_4">
      <g>
       <use xlink:href="#m89154f6455" x="365.206425" y="307.584" style="stroke: #000000; stroke-width: 0.6"/>
      </g>
     </g>
     <g id="text_4">
      <!-- $\mathdefault{4\times10^{4}}$ -->
      <g transform="translate(347.106425 320.582437) scale(0.1 -0.1)">
       <use xlink:href="#DejaVuSans-34" transform="translate(0 0.684375)"/>
       <use xlink:href="#DejaVuSans-d7" transform="translate(83.105469 0.684375)"/>
       <use xlink:href="#DejaVuSans-31" transform="translate(186.376953 0.684375)"/>
       <use xlink:href="#DejaVuSans-30" transform="translate(250 0.684375)"/>
       <use xlink:href="#DejaVuSans-34" transform="translate(314.580078 38.965625) scale(0.7)"/>
      </g>
     </g>
    </g>
    <g id="xtick_5">
     <g id="line2d_5">
      <g>
       <use xlink:href="#m89154f6455" x="414.72" y="307.584" style="stroke: #000000; stroke-width: 0.6"/>
      </g>
     </g>
    </g>
    <g id="text_5">
     <!-- iter# -->
     <g transform="translate(223.488906 335.860562) scale(0.1 -0.1)">
      <defs>
       <path id="DejaVuSans-69" d="M 603 3500 
L 1178 3500 
L 1178 0 
L 603 0 
L 603 3500 
z
M 603 4863 
L 1178 4863 
L 1178 4134 
L 603 4134 
L 603 4863 
z
" transform="scale(0.015625)"/>
       <path id="DejaVuSans-74" d="M 1172 4494 
L 1172 3500 
L 2356 3500 
L 2356 3053 
L 1172 3053 
L 1172 1153 
Q 1172 725 1289 603 
Q 1406 481 1766 481 
L 2356 481 
L 2356 0 
L 1766 0 
Q 1100 0 847 248 
Q 594 497 594 1153 
L 594 3053 
L 172 3053 
L 172 3500 
L 594 3500 
L 594 4494 
L 1172 4494 
z
" transform="scale(0.015625)"/>
       <path id="DejaVuSans-65" d="M 3597 1894 
L 3597 1613 
L 953 1613 
Q 991 1019 1311 708 
Q 1631 397 2203 397 
Q 2534 397 2845 478 
Q 3156 559 3463 722 
L 3463 178 
Q 3153 47 2828 -22 
Q 2503 -91 2169 -91 
Q 1331 -91 842 396 
Q 353 884 353 1716 
Q 353 2575 817 3079 
Q 1281 3584 2069 3584 
Q 2775 3584 3186 3129 
Q 3597 2675 3597 1894 
z
M 3022 2063 
Q 3016 2534 2758 2815 
Q 2500 3097 2075 3097 
Q 1594 3097 1305 2825 
Q 1016 2553 972 2059 
L 3022 2063 
z
" transform="scale(0.015625)"/>
       <path id="DejaVuSans-72" d="M 2631 2963 
Q 2534 3019 2420 3045 
Q 2306 3072 2169 3072 
Q 1681 3072 1420 2755 
Q 1159 2438 1159 1844 
L 1159 0 
L 581 0 
L 581 3500 
L 1159 3500 
L 1159 2956 
Q 1341 3275 1631 3429 
Q 1922 3584 2338 3584 
Q 2397 3584 2469 3576 
Q 2541 3569 2628 3553 
L 2631 2963 
z
" transform="scale(0.015625)"/>
       <path id="DejaVuSans-23" d="M 3272 2816 
L 2363 2816 
L 2100 1772 
L 3016 1772 
L 3272 2816 
z
M 2803 4594 
L 2478 3297 
L 3391 3297 
L 3719 4594 
L 4219 4594 
L 3897 3297 
L 4872 3297 
L 4872 2816 
L 3775 2816 
L 3519 1772 
L 4513 1772 
L 4513 1294 
L 3397 1294 
L 3072 0 
L 2572 0 
L 2894 1294 
L 1978 1294 
L 1656 0 
L 1153 0 
L 1478 1294 
L 494 1294 
L 494 1772 
L 1594 1772 
L 1856 2816 
L 850 2816 
L 850 3297 
L 1978 3297 
L 2297 4594 
L 2803 4594 
z
" transform="scale(0.015625)"/>
      </defs>
      <use xlink:href="#DejaVuSans-69"/>
      <use xlink:href="#DejaVuSans-74" x="27.783203"/>
      <use xlink:href="#DejaVuSans-65" x="66.992188"/>
      <use xlink:href="#DejaVuSans-72" x="128.515625"/>
      <use xlink:href="#DejaVuSans-23" x="169.628906"/>
     </g>
    </g>
   </g>
   <g id="matplotlib.axis_2">
    <g id="ytick_1">
     <g id="line2d_6">
      <defs>
       <path id="m17d150da42" d="M 0 0 
L -3.5 0 
" style="stroke: #000000; stroke-width: 0.8"/>
      </defs>
      <g>
       <use xlink:href="#m17d150da42" x="57.6" y="245.254111" style="stroke: #000000; stroke-width: 0.8"/>
      </g>
     </g>
     <g id="text_6">
      <!-- $\mathdefault{10^{-2}}$ -->
      <g transform="translate(27.1 249.05333) scale(0.1 -0.1)">
       <defs>
        <path id="DejaVuSans-2212" d="M 678 2272 
L 4684 2272 
L 4684 1741 
L 678 1741 
L 678 2272 
z
" transform="scale(0.015625)"/>
       </defs>
       <use xlink:href="#DejaVuSans-31" transform="translate(0 0.765625)"/>
       <use xlink:href="#DejaVuSans-30" transform="translate(63.623047 0.765625)"/>
       <use xlink:href="#DejaVuSans-2212" transform="translate(128.203125 39.046875) scale(0.7)"/>
       <use xlink:href="#DejaVuSans-32" transform="translate(186.855469 39.046875) scale(0.7)"/>
      </g>
     </g>
    </g>
    <g id="ytick_2">
     <g id="line2d_7">
      <g>
       <use xlink:href="#m17d150da42" x="57.6" y="88.622741" style="stroke: #000000; stroke-width: 0.8"/>
      </g>
     </g>
     <g id="text_7">
      <!-- $\mathdefault{10^{-1}}$ -->
      <g transform="translate(27.1 92.421959) scale(0.1 -0.1)">
       <use xlink:href="#DejaVuSans-31" transform="translate(0 0.684375)"/>
       <use xlink:href="#DejaVuSans-30" transform="translate(63.623047 0.684375)"/>
       <use xlink:href="#DejaVuSans-2212" transform="translate(128.203125 38.965625) scale(0.7)"/>
       <use xlink:href="#DejaVuSans-31" transform="translate(186.855469 38.965625) scale(0.7)"/>
      </g>
     </g>
    </g>
    <g id="ytick_3">
     <g id="line2d_8">
      <defs>
       <path id="m8be7250205" d="M 0 0 
L -2 0 
" style="stroke: #000000; stroke-width: 0.6"/>
      </defs>
      <g>
       <use xlink:href="#m8be7250205" x="57.6" y="307.584" style="stroke: #000000; stroke-width: 0.6"/>
      </g>
     </g>
    </g>
    <g id="ytick_4">
     <g id="line2d_9">
      <g>
       <use xlink:href="#m8be7250205" x="57.6" y="292.404852" style="stroke: #000000; stroke-width: 0.6"/>
      </g>
     </g>
    </g>
    <g id="ytick_5">
     <g id="line2d_10">
      <g>
       <use xlink:href="#m8be7250205" x="57.6" y="280.002585" style="stroke: #000000; stroke-width: 0.6"/>
      </g>
     </g>
    </g>
    <g id="ytick_6">
     <g id="line2d_11">
      <g>
       <use xlink:href="#m8be7250205" x="57.6" y="269.516617" style="stroke: #000000; stroke-width: 0.6"/>
      </g>
     </g>
    </g>
    <g id="ytick_7">
     <g id="line2d_12">
      <g>
       <use xlink:href="#m8be7250205" x="57.6" y="260.433259" style="stroke: #000000; stroke-width: 0.6"/>
      </g>
     </g>
    </g>
    <g id="ytick_8">
     <g id="line2d_13">
      <g>
       <use xlink:href="#m8be7250205" x="57.6" y="252.42117" style="stroke: #000000; stroke-width: 0.6"/>
      </g>
     </g>
    </g>
    <g id="ytick_9">
     <g id="line2d_14">
      <g>
       <use xlink:href="#m8be7250205" x="57.6" y="198.10337" style="stroke: #000000; stroke-width: 0.6"/>
      </g>
     </g>
    </g>
    <g id="ytick_10">
     <g id="line2d_15">
      <g>
       <use xlink:href="#m8be7250205" x="57.6" y="170.521955" style="stroke: #000000; stroke-width: 0.6"/>
      </g>
     </g>
    </g>
    <g id="ytick_11">
     <g id="line2d_16">
      <g>
       <use xlink:href="#m8be7250205" x="57.6" y="150.95263" style="stroke: #000000; stroke-width: 0.6"/>
      </g>
     </g>
    </g>
    <g id="ytick_12">
     <g id="line2d_17">
      <g>
       <use xlink:href="#m8be7250205" x="57.6" y="135.773481" style="stroke: #000000; stroke-width: 0.6"/>
      </g>
     </g>
    </g>
    <g id="ytick_13">
     <g id="line2d_18">
      <g>
       <use xlink:href="#m8be7250205" x="57.6" y="123.371214" style="stroke: #000000; stroke-width: 0.6"/>
      </g>
     </g>
    </g>
    <g id="ytick_14">
     <g id="line2d_19">
      <g>
       <use xlink:href="#m8be7250205" x="57.6" y="112.885247" style="stroke: #000000; stroke-width: 0.6"/>
      </g>
     </g>
    </g>
    <g id="ytick_15">
     <g id="line2d_20">
      <g>
       <use xlink:href="#m8be7250205" x="57.6" y="103.801889" style="stroke: #000000; stroke-width: 0.6"/>
      </g>
     </g>
    </g>
    <g id="ytick_16">
     <g id="line2d_21">
      <g>
       <use xlink:href="#m8be7250205" x="57.6" y="95.789799" style="stroke: #000000; stroke-width: 0.6"/>
      </g>
     </g>
    </g>
    <g id="ytick_17">
     <g id="line2d_22">
      <g>
       <use xlink:href="#m8be7250205" x="57.6" y="41.472" style="stroke: #000000; stroke-width: 0.6"/>
      </g>
     </g>
    </g>
    <g id="text_8">
     <!-- loss -->
     <g transform="translate(21.020313 184.185812) rotate(-90) scale(0.1 -0.1)">
      <defs>
       <path id="DejaVuSans-6c" d="M 603 4863 
L 1178 4863 
L 1178 0 
L 603 0 
L 603 4863 
z
" transform="scale(0.015625)"/>
       <path id="DejaVuSans-6f" d="M 1959 3097 
Q 1497 3097 1228 2736 
Q 959 2375 959 1747 
Q 959 1119 1226 758 
Q 1494 397 1959 397 
Q 2419 397 2687 759 
Q 2956 1122 2956 1747 
Q 2956 2369 2687 2733 
Q 2419 3097 1959 3097 
z
M 1959 3584 
Q 2709 3584 3137 3096 
Q 3566 2609 3566 1747 
Q 3566 888 3137 398 
Q 2709 -91 1959 -91 
Q 1206 -91 779 398 
Q 353 888 353 1747 
Q 353 2609 779 3096 
Q 1206 3584 1959 3584 
z
" transform="scale(0.015625)"/>
       <path id="DejaVuSans-73" d="M 2834 3397 
L 2834 2853 
Q 2591 2978 2328 3040 
Q 2066 3103 1784 3103 
Q 1356 3103 1142 2972 
Q 928 2841 928 2578 
Q 928 2378 1081 2264 
Q 1234 2150 1697 2047 
L 1894 2003 
Q 2506 1872 2764 1633 
Q 3022 1394 3022 966 
Q 3022 478 2636 193 
Q 2250 -91 1575 -91 
Q 1294 -91 989 -36 
Q 684 19 347 128 
L 347 722 
Q 666 556 975 473 
Q 1284 391 1588 391 
Q 1994 391 2212 530 
Q 2431 669 2431 922 
Q 2431 1156 2273 1281 
Q 2116 1406 1581 1522 
L 1381 1569 
Q 847 1681 609 1914 
Q 372 2147 372 2553 
Q 372 3047 722 3315 
Q 1072 3584 1716 3584 
Q 2034 3584 2315 3537 
Q 2597 3491 2834 3397 
z
" transform="scale(0.015625)"/>
      </defs>
      <use xlink:href="#DejaVuSans-6c"/>
      <use xlink:href="#DejaVuSans-6f" x="27.783203"/>
      <use xlink:href="#DejaVuSans-73" x="88.964844"/>
      <use xlink:href="#DejaVuSans-73" x="141.064453"/>
     </g>
    </g>
   </g>
   <g id="line2d_23">
    <path d="M -1 126.692821 
L 0.525711 125.142145 
L 2.354808 126.753591 
L 4.168951 130.934406 
L 5.968382 119.612531 
L 7.753338 120.020694 
L 9.52405 124.466481 
L 11.280743 123.204891 
L 13.023638 123.248606 
L 14.752949 121.382606 
L 15.210041 123.384444 
L 16.922461 128.339486 
L 18.621767 128.532165 
L 20.308159 133.502122 
L 21.98183 137.447261 
L 23.642971 140.780001 
L 25.291769 133.374679 
L 26.928406 134.881003 
L 28.55306 133.735174 
L 30.165904 128.731537 
L 31.76711 130.553194 
L 33.356844 135.292862 
L 34.935269 138.677511 
L 36.502545 139.989583 
L 38.058829 143.036081 
L 39.604274 143.344349 
L 41.139029 148.248835 
L 42.663242 145.940589 
L 44.177055 146.478834 
L 45.680611 145.376341 
L 47.174048 141.730005 
L 48.6575 144.132898 
L 50.1311 142.714871 
L 51.594978 139.030641 
L 54.494077 136.777847 
L 55.929544 140.289516 
L 57.355785 142.27439 
L 58.772918 140.244813 
L 60.181056 138.97066 
L 61.580315 140.650332 
L 62.970806 144.244208 
L 64.352637 146.236253 
L 64.718244 150.9946 
L 66.089269 153.066754 
L 67.451875 156.312118 
L 68.806164 159.858615 
L 70.152237 151.906428 
L 71.490194 145.113295 
L 72.820132 149.304152 
L 74.142146 151.061253 
L 75.45633 154.08717 
L 76.762777 144.548967 
L 78.061576 143.858165 
L 79.352818 145.484823 
L 80.636588 147.621807 
L 81.912974 151.058546 
L 83.18206 142.822567 
L 84.443929 146.72382 
L 85.698662 151.662449 
L 86.94634 151.890615 
L 88.187042 155.386821 
L 89.420844 151.053401 
L 90.647825 143.927176 
L 91.868057 146.755447 
L 93.081616 148.873906 
L 94.288574 141.861891 
L 95.489003 146.235708 
L 96.682972 140.60549 
L 97.87055 145.274791 
L 99.051807 148.364402 
L 102.558307 158.798996 
L 103.714934 160.68601 
L 104.865563 158.033828 
L 105.170199 162.408225 
L 106.313326 166.03693 
L 107.450594 170.269433 
L 108.582062 172.462778 
L 109.707791 172.051228 
L 110.827837 175.002249 
L 111.942257 175.05976 
L 113.051109 156.082412 
L 114.154447 160.633781 
L 115.252325 165.673656 
L 116.344799 166.054182 
L 117.43192 168.47264 
L 118.51374 169.245655 
L 119.590312 166.596041 
L 121.727912 173.063194 
L 122.789039 171.908942 
L 124.896189 180.04146 
L 125.942307 178.366378 
L 126.983517 179.876556 
L 128.019864 177.636668 
L 129.051393 173.037395 
L 130.078148 172.521166 
L 131.100175 168.244079 
L 133.130213 172.128774 
L 134.138309 168.24591 
L 135.141847 169.995776 
L 136.140866 172.468372 
L 137.135407 176.45568 
L 138.125511 178.237452 
L 139.111216 175.737531 
L 140.352504 181.455275 
L 141.328387 182.759205 
L 142.299998 177.873216 
L 143.267372 178.236393 
L 144.230547 171.681526 
L 145.189559 174.079436 
L 146.144445 172.411535 
L 147.095238 175.432962 
L 148.041975 179.611812 
L 148.98469 182.073157 
L 149.923416 177.754866 
L 150.858188 180.295893 
L 151.789039 183.217124 
L 152.716 188.043318 
L 153.639106 184.045677 
L 154.558387 185.428429 
L 155.473875 189.396993 
L 156.385601 190.293494 
L 157.293597 165.164531 
L 158.197892 160.846958 
L 159.098517 162.595654 
L 159.995501 163.612394 
L 160.888874 163.131857 
L 162.6649 169.853685 
L 163.547611 171.214366 
L 164.426824 165.092846 
L 166.174868 174.419283 
L 167.043752 170.411733 
L 167.909248 174.018198 
L 168.771381 178.781375 
L 168.999823 183.343903 
L 169.857737 185.727081 
L 170.712346 184.832528 
L 171.563677 185.548332 
L 172.411754 182.058668 
L 173.256602 181.485739 
L 174.098246 183.744123 
L 174.936709 185.100774 
L 176.60419 192.510578 
L 177.433254 194.345824 
L 178.259233 194.610807 
L 179.082148 186.408949 
L 179.902023 187.347249 
L 180.718879 189.839458 
L 181.532739 182.272231 
L 183.151559 190.528237 
L 183.956561 195.479525 
L 184.758654 195.393962 
L 185.557857 193.880078 
L 186.354193 196.384411 
L 187.14768 190.719179 
L 187.938341 191.733649 
L 188.726193 187.465049 
L 189.511259 186.351568 
L 190.293556 189.886367 
L 193.395454 206.820693 
L 194.1642 200.978717 
L 194.930292 196.25223 
L 195.133342 197.068798 
L 195.8961 193.897156 
L 196.656246 198.891025 
L 198.16877 206.25469 
L 198.921184 205.418982 
L 199.671054 206.708787 
L 200.418399 203.573621 
L 201.163235 203.387332 
L 201.905579 193.769222 
L 202.645448 189.044625 
L 203.382858 193.669306 
L 204.117826 193.86883 
L 204.850367 197.085945 
L 205.580498 193.279317 
L 206.308234 195.524381 
L 207.033592 199.688429 
L 207.756586 195.905455 
L 208.477231 197.474219 
L 209.195544 194.699894 
L 209.911539 189.725787 
L 210.625231 190.7226 
L 211.336635 184.080229 
L 212.045765 181.596467 
L 212.752637 182.443934 
L 214.159659 190.985699 
L 214.859839 193.763533 
L 215.557816 190.089984 
L 216.253605 192.743745 
L 217.638671 199.788032 
L 218.327975 203.801092 
L 218.510712 201.778382 
L 219.197316 206.682462 
L 219.881803 210.477901 
L 220.564185 213.08431 
L 221.244474 214.285928 
L 221.922684 209.239579 
L 222.598828 198.370284 
L 223.272917 202.100457 
L 223.944965 202.068199 
L 224.614984 206.85907 
L 225.282985 204.498606 
L 225.948982 198.004731 
L 226.612985 201.188869 
L 227.275008 194.432599 
L 227.935061 197.594828 
L 228.593156 199.857772 
L 229.249306 204.782594 
L 229.903521 207.440019 
L 230.555812 205.483496 
L 231.854671 213.443741 
L 232.501261 216.33418 
L 233.145971 214.364629 
L 233.788814 211.202078 
L 234.4298 212.387553 
L 235.706243 216.359427 
L 236.341722 214.223773 
L 236.975386 210.819036 
L 237.607246 213.442533 
L 238.237311 213.282328 
L 238.865592 210.439894 
L 239.4921 211.654667 
L 239.658219 214.839881 
L 240.282495 207.331914 
L 241.525804 215.537798 
L 242.144855 213.703586 
L 242.762184 216.55936 
L 243.377801 218.810848 
L 243.991714 210.252848 
L 244.603934 212.488374 
L 245.823328 221.048938 
L 246.430521 221.0377 
L 247.036058 223.631164 
L 247.639946 225.467832 
L 248.242196 224.619348 
L 248.842815 221.700962 
L 249.441813 224.361826 
L 250.039198 225.621221 
L 250.634979 228.390248 
L 251.229165 221.912532 
L 251.821764 221.117359 
L 252.412785 225.134246 
L 253.002235 221.86742 
L 254.176459 228.0135 
L 254.761249 226.050264 
L 255.344502 224.926903 
L 255.926226 211.769827 
L 256.506428 212.325883 
L 257.085118 210.894426 
L 257.662302 215.716033 
L 258.237989 217.724794 
L 258.812186 216.460774 
L 258.964458 218.071499 
L 259.53678 221.328598 
L 260.10763 217.25722 
L 260.677016 221.487623 
L 261.244944 222.798161 
L 261.811422 219.604882 
L 262.376457 220.125574 
L 262.940058 207.806538 
L 263.50223 209.599277 
L 264.062982 210.487451 
L 264.62232 205.705412 
L 265.180252 207.152815 
L 265.736785 211.538584 
L 266.291925 213.191329 
L 266.84568 208.496024 
L 267.398056 198.241927 
L 267.94906 201.324461 
L 268.4987 206.17567 
L 269.046982 207.869701 
L 269.593912 211.170119 
L 270.139497 216.101643 
L 270.683744 219.045267 
L 271.22666 208.878167 
L 271.76825 208.780029 
L 272.308521 208.330408 
L 272.847481 204.475387 
L 273.385134 209.375533 
L 273.921488 207.308827 
L 274.456548 208.907212 
L 276.583981 226.081071 
L 276.724536 222.351963 
L 277.779984 229.882133 
L 278.305832 232.833383 
L 278.830436 231.971272 
L 279.875938 222.240345 
L 280.396848 226.899186 
L 281.95228 219.560083 
L 283.496884 231.667594 
L 284.009372 228.592786 
L 284.520679 232.241167 
L 285.03081 234.522714 
L 285.539771 239.221743 
L 286.047568 242.589175 
L 287.059688 235.449288 
L 287.564022 238.507937 
L 288.067212 236.907576 
L 288.569264 220.633112 
L 289.070183 221.449925 
L 290.06864 228.260965 
L 290.566189 218.881017 
L 291.062624 217.641694 
L 291.557952 209.195392 
L 292.052176 212.962051 
L 292.545302 215.512057 
L 293.037334 219.028688 
L 293.167847 223.310752 
L 293.658503 226.365292 
L 294.148075 230.659378 
L 294.63657 228.444024 
L 295.123992 229.85218 
L 295.610346 230.404693 
L 296.579867 236.42129 
L 297.063043 238.437004 
L 297.54517 237.800752 
L 298.026251 231.877373 
L 298.506291 235.170829 
L 298.985296 239.882839 
L 299.463268 239.394405 
L 300.416135 231.260283 
L 300.891038 229.826862 
L 301.364928 231.044588 
L 301.837807 230.735692 
L 302.309681 224.904059 
L 302.780553 228.241048 
L 303.250428 223.318501 
L 304.187204 230.143942 
L 304.654113 233.118727 
L 305.120042 234.456556 
L 305.584994 238.729435 
L 306.048974 240.76797 
L 306.511986 241.57658 
L 307.435121 248.634002 
L 307.895253 247.862483 
L 308.476242 249.480182 
L 308.934222 252.662603 
L 309.391258 252.54775 
L 309.847355 254.682893 
L 310.302517 258.210287 
L 310.756746 257.73706 
L 311.210048 258.49098 
L 311.662426 260.041644 
L 312.564423 246.108599 
L 313.014051 244.836393 
L 314.357493 256.843034 
L 314.803505 256.732654 
L 315.248623 258.446289 
L 315.69285 256.350885 
L 316.136189 259.866353 
L 316.578644 261.697984 
L 317.020218 261.853268 
L 317.460916 257.021026 
L 317.90074 255.470755 
L 318.339694 256.479804 
L 318.777781 253.372476 
L 319.215005 254.231457 
L 319.651369 255.585856 
L 320.521532 259.804934 
L 320.955337 263.148035 
L 321.388295 261.926943 
L 321.82041 264.774964 
L 322.251686 247.000387 
L 322.682125 247.639583 
L 322.79632 250.085764 
L 323.225704 253.447519 
L 323.65426 255.028136 
L 324.081989 258.387444 
L 324.508895 254.517599 
L 324.934981 240.736488 
L 325.360251 241.357368 
L 325.784708 245.274563 
L 326.208354 246.941501 
L 326.631192 251.203906 
L 327.47446 255.725345 
L 327.894895 255.578362 
L 328.314535 251.432054 
L 328.733383 244.890273 
L 329.151442 245.359951 
L 329.568714 246.971592 
L 330.400913 255.643868 
L 330.815844 252.874023 
L 331.230002 256.449158 
L 331.643387 255.551988 
L 332.056004 257.482726 
L 332.467855 259.981741 
L 332.878943 261.122875 
L 333.289271 260.517652 
L 333.698842 258.30134 
L 334.107657 259.63903 
L 334.923036 255.977266 
L 335.329605 258.085705 
L 335.73543 256.352 
L 336.140514 260.627326 
L 336.247991 264.279116 
L 336.652141 267.325483 
L 337.055557 261.757776 
L 337.45824 265.604023 
L 337.860194 267.428018 
L 338.261421 271.204367 
L 339.061706 273.558623 
L 339.460768 274.396952 
L 339.859114 276.7548 
L 340.653667 261.607799 
L 341.445385 268.677381 
L 341.840188 269.390419 
L 342.627691 275.882167 
L 343.020397 279.850553 
L 343.412409 279.791897 
L 344.194362 266.071992 
L 344.584308 260.667266 
L 344.973569 263.517514 
L 345.362149 256.858238 
L 346.137273 254.116391 
L 346.909699 247.814551 
L 347.294906 239.859966 
L 347.679445 241.633512 
L 348.063319 245.623198 
L 348.44653 246.817468 
L 348.82908 249.134977 
L 348.930585 251.388587 
L 350.832639 266.120695 
L 351.966095 277.334102 
L 352.34263 271.00484 
L 352.718528 268.711334 
L 353.09379 269.533273 
L 353.842415 275.679772 
L 354.215782 274.514698 
L 354.960638 280.524038 
L 355.33213 279.047475 
L 355.703002 281.107018 
L 356.073254 284.487922 
L 356.44289 279.645139 
L 356.811911 269.290355 
L 357.180319 271.429083 
L 357.548117 265.776432 
L 358.281888 272.163184 
L 358.647866 271.47321 
L 359.013241 272.138703 
L 359.378016 274.585869 
L 359.742192 272.588356 
L 360.105771 273.034308 
L 360.468755 271.179757 
L 360.831146 274.802513 
L 360.927307 277.720008 
L 361.650007 279.907723 
L 362.010476 281.995181 
L 362.37036 285.489619 
L 362.729662 287.310243 
L 363.088382 291.232034 
L 363.446524 284.107196 
L 364.161078 287.481099 
L 364.517494 286.27105 
L 364.873338 278.41826 
L 365.228613 276.979253 
L 365.583319 280.223448 
L 365.93746 278.732638 
L 366.291036 273.579465 
L 366.64405 271.53058 
L 366.996503 274.188892 
L 367.348397 265.327036 
L 367.699734 267.465979 
L 368.050515 268.334791 
L 368.400743 270.239618 
L 368.750419 267.917046 
L 369.099545 271.706401 
L 369.448122 265.732934 
L 369.796152 263.233985 
L 370.143638 264.369871 
L 370.49058 261.415759 
L 371.528163 274.08113 
L 372.2172 281.598181 
L 372.308552 279.407579 
L 372.652128 276.794654 
L 372.995173 279.336183 
L 373.337688 279.932015 
L 373.679676 283.25652 
L 374.021137 277.23605 
L 374.362074 273.414888 
L 375.04238 278.836391 
L 375.381752 282.244984 
L 375.720606 274.383543 
L 376.058944 274.809248 
L 376.396766 277.295619 
L 376.734075 269.010884 
L 377.407158 275.678739 
L 377.742935 277.01933 
L 378.41297 283.107025 
L 378.747229 284.370804 
L 379.080987 286.599042 
L 379.414243 285.547049 
L 379.746999 287.533567 
L 380.079257 285.119172 
L 380.411018 280.491681 
L 380.742284 282.712981 
L 381.073056 286.591853 
L 382.062424 294.102774 
L 382.391235 297.963106 
L 382.71956 292.727467 
L 383.0474 290.533283 
L 383.134401 279.644704 
L 383.461628 275.800686 
L 383.788374 268.440876 
L 384.11464 271.568564 
L 384.440427 272.955127 
L 384.765735 270.582029 
L 385.090568 273.449883 
L 385.414926 275.158349 
L 385.73881 274.811622 
L 386.062223 272.949246 
L 387.029641 280.854774 
L 387.351179 272.511738 
L 387.672251 276.092822 
L 387.99286 274.663153 
L 388.313006 277.954168 
L 388.63269 280.008242 
L 388.951915 283.230201 
L 389.270681 282.94505 
L 389.58899 267.815044 
L 390.224242 266.481138 
L 390.541187 270.296664 
L 390.857679 271.514744 
L 391.173721 271.160924 
L 391.489314 264.447226 
L 391.804458 265.395895 
L 392.433408 271.521563 
L 392.747215 272.225887 
L 393.373501 278.623311 
L 393.456547 282.402106 
L 393.768912 286.667964 
L 394.080837 285.943113 
L 394.392325 281.429789 
L 395.013991 288.000929 
L 395.324173 289.493096 
L 395.633921 290.119555 
L 396.560581 298.08425 
L 396.868609 301.970369 
L 397.17621 300.53647 
L 397.483386 296.034076 
L 397.790137 296.975359 
L 398.096464 300.772198 
L 398.40237 303.005916 
L 398.707854 300.07633 
L 399.012918 298.454688 
L 399.317563 298.731442 
L 399.62179 301.409291 
L 399.925601 301.877312 
L 400.228997 277.035154 
L 400.531978 280.566507 
L 400.834546 271.956327 
L 401.136702 276.497792 
L 402.04071 284.632373 
L 402.341229 288.341856 
L 402.641341 283.375077 
L 403.319786 289.590311 
L 403.61858 285.184193 
L 403.916971 285.136147 
L 404.214961 283.013992 
L 404.809744 289.11584 
L 405.106539 293.325547 
L 405.402937 294.264205 
L 405.69894 296.780575 
L 405.994549 295.260905 
L 406.584587 298.200639 
L 406.879019 297.647476 
L 407.17306 293.137578 
L 407.466713 291.263375 
L 408.052855 297.643486 
L 408.345346 297.071559 
L 408.637452 295.83544 
L 408.929174 297.94068 
L 409.220513 297.685991 
L 409.51147 293.084909 
L 409.802047 292.541882 
L 410.092243 293.72344 
L 410.38206 293.250193 
L 410.671499 294.994607 
L 410.960561 293.183082 
L 411.249246 294.331273 
L 411.825494 298.531094 
L 412.113057 300.695629 
L 412.400249 296.165671 
L 412.763193 276.792559 
L 413.335527 284.252058 
L 413.621141 281.937404 
L 413.621141 281.937404 
" clip-path="url(#pd7570e2abe)" style="fill: none; stroke: #1f77b4; stroke-opacity: 0.4; stroke-linecap: square"/>
   </g>
   <g id="line2d_24">
    <path d="M -1 168.245689 
L 0.525711 170.579753 
L 2.354808 173.152846 
L 4.168951 176.450387 
L 7.753338 174.696634 
L 9.52405 167.528793 
L 11.280743 165.566296 
L 13.023638 168.004878 
L 14.752949 168.248841 
L 15.210041 169.401486 
L 16.922461 167.658994 
L 18.621767 157.812519 
L 20.308159 161.305401 
L 21.98183 164.489118 
L 23.642971 160.657578 
L 25.291769 159.612025 
L 26.928406 160.444441 
L 28.55306 161.055567 
L 30.165904 163.647279 
L 31.76711 163.672914 
L 33.356844 162.266946 
L 34.935269 162.943741 
L 36.502545 163.957004 
L 38.058829 166.505847 
L 39.604274 162.671541 
L 41.139029 166.443372 
L 42.663242 169.310931 
L 44.177055 167.738484 
L 45.680611 170.61408 
L 47.174048 173.990028 
L 48.6575 173.647061 
L 50.1311 171.149252 
L 51.594978 165.157692 
L 53.049262 169.169732 
L 54.494077 172.051597 
L 55.929544 167.934015 
L 57.355785 171.854893 
L 58.772918 173.51237 
L 60.181056 172.481986 
L 61.580315 175.062839 
L 62.970806 170.815407 
L 64.352637 173.109459 
L 64.718244 175.628424 
L 66.089269 178.888796 
L 67.451875 170.922014 
L 68.806164 169.9642 
L 70.152237 171.380555 
L 71.490194 175.284054 
L 72.820132 171.523661 
L 74.142146 174.805744 
L 75.45633 176.181302 
L 76.762777 179.840748 
L 78.061576 176.501323 
L 79.352818 180.179025 
L 80.636588 183.337856 
L 81.912974 182.958765 
L 83.18206 184.247859 
L 84.443929 187.688085 
L 85.698662 190.425 
L 86.94634 180.374639 
L 88.187042 176.126284 
L 89.420844 173.975647 
L 90.647825 174.529484 
L 91.868057 168.409809 
L 93.081616 170.823051 
L 94.288574 168.132365 
L 95.489003 172.068913 
L 96.682972 173.441885 
L 97.87055 171.449407 
L 99.051807 173.821119 
L 100.226808 175.480221 
L 101.39562 171.460004 
L 103.714934 178.175915 
L 104.865563 179.120168 
L 105.170199 179.95786 
L 106.313326 178.576774 
L 107.450594 182.450461 
L 108.582062 184.106888 
L 109.707791 180.573118 
L 110.827837 183.843316 
L 111.942257 182.53007 
L 113.051109 184.95046 
L 114.154447 186.831766 
L 115.252325 188.327713 
L 117.43192 185.883609 
L 118.51374 179.807148 
L 119.590312 176.129506 
L 120.661686 179.131292 
L 121.727912 179.414859 
L 122.789039 181.528392 
L 123.845115 184.788009 
L 124.896189 187.565613 
L 125.942307 188.067537 
L 126.983517 190.668919 
L 129.051393 197.077294 
L 130.078148 192.639525 
L 131.100175 195.300289 
L 132.117515 198.411611 
L 133.130213 193.086726 
L 134.138309 195.531744 
L 135.141847 196.529963 
L 136.140866 198.005207 
L 137.135407 188.812921 
L 138.125511 184.580004 
L 139.111216 187.95093 
L 139.37231 190.284692 
L 140.352504 192.473938 
L 141.328387 190.786439 
L 142.299998 190.33054 
L 143.267372 185.039195 
L 144.230547 184.875381 
L 145.189559 186.571756 
L 146.144445 190.05194 
L 147.095238 192.747643 
L 148.041975 194.978762 
L 148.98469 185.281376 
L 149.923416 188.081479 
L 150.858188 182.169464 
L 151.789039 184.550193 
L 152.716 186.367446 
L 153.639106 189.926258 
L 154.558387 192.148298 
L 155.473875 194.914594 
L 156.385601 195.71171 
L 157.293597 197.142775 
L 158.197892 200.25186 
L 159.098517 197.229946 
L 161.778664 201.793664 
L 162.6649 197.529319 
L 163.547611 200.708786 
L 164.426824 203.081585 
L 165.302567 198.225523 
L 166.174868 198.646646 
L 167.043752 196.994025 
L 167.909248 200.150765 
L 168.771381 202.583406 
L 168.999823 197.699303 
L 169.857737 197.525881 
L 170.712346 198.959433 
L 171.563677 185.227918 
L 172.411754 187.181678 
L 173.256602 190.245282 
L 174.098246 189.693163 
L 174.936709 193.201662 
L 175.772016 194.716722 
L 176.60419 192.320053 
L 177.433254 195.831098 
L 178.259233 198.336231 
L 179.902023 202.681362 
L 180.718879 204.901179 
L 181.532739 199.789549 
L 183.151559 205.397464 
L 183.956561 208.151604 
L 184.758654 208.079425 
L 185.557857 202.982769 
L 186.354193 202.022086 
L 187.14768 195.461552 
L 187.938341 192.387581 
L 188.726193 185.179913 
L 189.511259 185.575872 
L 190.293556 180.653578 
L 191.073105 182.365679 
L 191.849925 186.428542 
L 192.624035 188.301779 
L 193.395454 192.045008 
L 194.1642 193.975566 
L 194.930292 190.888022 
L 195.133342 193.606668 
L 195.8961 192.022941 
L 196.656246 195.623085 
L 197.413797 194.362266 
L 198.16877 196.545206 
L 198.921184 191.375424 
L 199.671054 192.56511 
L 200.418399 195.089392 
L 201.163235 198.898207 
L 201.905579 197.905651 
L 202.645448 198.135365 
L 203.382858 201.435538 
L 204.117826 201.695126 
L 204.850367 197.549145 
L 206.308234 203.744033 
L 207.033592 203.353273 
L 207.756586 205.944327 
L 208.477231 193.355813 
L 209.195544 196.345311 
L 209.911539 199.983403 
L 210.625231 199.651141 
L 211.336635 203.252196 
L 212.045765 198.215628 
L 212.752637 194.85533 
L 214.159659 202.015581 
L 214.859839 205.245895 
L 215.557816 196.682097 
L 216.253605 200.184052 
L 216.947218 201.92887 
L 217.638671 205.465393 
L 218.327975 207.94585 
L 218.510712 200.73041 
L 219.197316 203.166283 
L 219.881803 206.272379 
L 220.564185 206.796864 
L 221.244474 207.7435 
L 221.922684 210.299626 
L 222.598828 207.124779 
L 223.944965 214.168227 
L 224.614984 212.40631 
L 225.948982 215.785206 
L 226.612985 218.592278 
L 227.275008 212.617228 
L 227.935061 215.40085 
L 228.593156 217.16265 
L 229.249306 213.037933 
L 229.903521 212.118968 
L 230.555812 214.565396 
L 231.206192 211.408192 
L 231.854671 211.617056 
L 232.501261 214.323028 
L 233.145971 216.050747 
L 234.4298 212.701339 
L 235.06894 213.682324 
L 236.341722 216.595239 
L 236.975386 218.0885 
L 237.607246 220.703566 
L 238.237311 222.40235 
L 239.4921 223.457768 
L 239.658219 220.313424 
L 240.282495 219.640754 
L 240.90502 221.083783 
L 241.525804 218.334303 
L 242.144855 221.217723 
L 242.762184 216.031131 
L 243.377801 217.941363 
L 243.991714 219.178502 
L 244.603934 213.387839 
L 245.214468 211.011998 
L 245.823328 210.588624 
L 247.639946 218.252551 
L 248.242196 213.831528 
L 248.842815 216.411081 
L 249.441813 208.710052 
L 250.039198 207.643719 
L 250.634979 209.169983 
L 251.821764 213.488756 
L 252.412785 213.877783 
L 253.002235 217.276018 
L 255.344502 225.421714 
L 255.926226 224.856889 
L 257.085118 228.638417 
L 257.662302 224.977801 
L 258.237989 226.794671 
L 258.812186 229.586465 
L 258.964458 231.123387 
L 259.53678 229.545233 
L 260.10763 230.645682 
L 260.677016 227.95669 
L 261.244944 222.604249 
L 261.811422 223.532364 
L 262.940058 224.337274 
L 263.50223 226.075459 
L 264.062982 228.3088 
L 265.180252 234.261052 
L 265.736785 236.017942 
L 266.291925 235.917531 
L 266.84568 226.952223 
L 267.398056 229.264661 
L 267.94906 230.608031 
L 268.4987 229.007846 
L 269.046982 231.039438 
L 269.593912 230.682131 
L 270.139497 231.642417 
L 270.683744 231.684996 
L 271.22666 232.586647 
L 271.76825 229.252143 
L 272.847481 233.196334 
L 273.385134 232.993194 
L 273.921488 235.041521 
L 274.456548 232.535205 
L 274.990322 233.811962 
L 275.522814 226.062136 
L 276.583981 231.31638 
L 276.724536 233.887836 
L 277.252888 230.563894 
L 277.779984 228.842972 
L 278.305832 230.144479 
L 278.830436 231.093473 
L 279.875938 235.607567 
L 280.396848 231.125551 
L 280.916538 232.377029 
L 281.435013 231.013675 
L 283.496884 239.099644 
L 284.009372 238.818631 
L 284.520679 240.467967 
L 285.03081 241.374768 
L 285.539771 237.352738 
L 286.554205 242.17096 
L 287.059688 232.311919 
L 287.564022 233.796177 
L 288.067212 235.876695 
L 288.569264 237.40004 
L 289.070183 230.227803 
L 289.569973 232.958834 
L 290.06864 230.544053 
L 290.566189 233.082819 
L 291.062624 232.707379 
L 291.557952 234.214777 
L 292.052176 232.259447 
L 292.545302 233.127786 
L 293.037334 234.247245 
L 293.167847 236.86343 
L 293.658503 237.864758 
L 294.148075 240.359898 
L 294.63657 241.417725 
L 295.123992 243.109237 
L 295.610346 242.056085 
L 296.095636 229.755729 
L 296.579867 225.801795 
L 297.063043 228.343282 
L 297.54517 223.836833 
L 298.506291 229.369806 
L 298.985296 231.900137 
L 299.463268 232.548111 
L 299.940213 233.776299 
L 300.416135 229.60507 
L 300.891038 232.407547 
L 301.364928 232.556922 
L 301.837807 231.815358 
L 302.309681 220.26924 
L 303.250428 226.754969 
L 303.71931 228.306731 
L 304.187204 230.460596 
L 304.654113 223.971202 
L 305.120042 226.928419 
L 305.584994 228.352753 
L 306.048974 225.445578 
L 306.511986 227.299726 
L 306.974034 230.445144 
L 307.435121 231.445316 
L 307.895253 228.369978 
L 308.354432 230.966705 
L 308.476242 232.86348 
L 308.934222 232.803985 
L 309.391258 234.547523 
L 309.847355 235.846739 
L 310.302517 239.070742 
L 310.756746 238.960835 
L 311.210048 240.563917 
L 311.662426 238.972772 
L 312.113883 241.128118 
L 312.564423 236.134026 
L 313.014051 234.084161 
L 313.910582 239.545425 
L 314.803505 232.558665 
L 315.248623 232.69052 
L 316.136189 236.597868 
L 316.578644 239.744958 
L 317.020218 241.632921 
L 317.460916 244.05467 
L 317.90074 231.896561 
L 318.339694 234.624716 
L 318.777781 233.35723 
L 319.215005 235.702746 
L 319.651369 233.954414 
L 320.086877 234.642721 
L 320.955337 228.810839 
L 321.82041 234.856807 
L 322.251686 234.392547 
L 322.682125 235.926477 
L 322.79632 238.194212 
L 323.225704 241.289748 
L 323.65426 243.331184 
L 324.081989 242.044311 
L 324.508895 245.20338 
L 324.934981 236.30729 
L 325.360251 235.268083 
L 325.784708 235.902816 
L 326.208354 238.305899 
L 326.631192 238.377676 
L 328.733383 249.361097 
L 329.151442 250.794821 
L 329.568714 253.189359 
L 329.985204 252.553816 
L 330.400913 252.132132 
L 330.815844 252.424494 
L 331.230002 253.029112 
L 331.643387 253.292261 
L 332.056004 250.327882 
L 332.467855 252.808057 
L 333.289271 244.200888 
L 333.698842 244.400008 
L 334.107657 246.625795 
L 334.515721 246.832988 
L 334.923036 245.701522 
L 335.329605 245.029776 
L 335.73543 247.270466 
L 336.140514 246.752227 
L 336.247991 247.314496 
L 336.652141 246.874615 
L 337.055557 248.682022 
L 337.45824 247.87091 
L 337.860194 248.005025 
L 338.261421 250.028991 
L 338.661924 251.278808 
L 339.061706 254.071141 
L 339.460768 251.713798 
L 339.859114 252.764335 
L 340.653667 256.300907 
L 341.04988 250.066011 
L 341.840188 247.170499 
L 342.627691 251.621296 
L 343.020397 250.357759 
L 344.194362 256.678222 
L 344.584308 242.529482 
L 344.973569 243.442553 
L 345.362149 245.458748 
L 346.137273 242.386225 
L 346.523822 243.514659 
L 346.909699 243.434027 
L 347.679445 246.998516 
L 348.063319 247.999921 
L 348.82908 252.74669 
L 349.312302 247.865044 
L 350.073773 253.05082 
L 350.45353 249.493607 
L 351.211101 255.144575 
L 351.588919 257.096543 
L 351.966095 256.57017 
L 352.34263 258.301303 
L 352.718528 256.836762 
L 353.09379 253.502525 
L 353.468418 252.304824 
L 353.842415 254.920224 
L 354.588523 256.441343 
L 354.960638 255.883991 
L 355.33213 257.92092 
L 355.703002 254.354668 
L 356.073254 254.479612 
L 356.44289 253.482771 
L 356.811911 256.199338 
L 357.180319 254.589053 
L 357.548117 254.28065 
L 357.915306 254.901584 
L 358.281888 253.112791 
L 359.013241 256.985143 
L 359.378016 257.678822 
L 359.742192 259.573725 
L 360.105771 260.200882 
L 360.468755 262.52107 
L 360.831146 262.21974 
L 360.927307 262.999376 
L 361.288951 264.432626 
L 361.650007 258.783638 
L 362.010476 260.456058 
L 362.37036 261.364401 
L 362.729662 258.962135 
L 363.088382 260.155528 
L 363.446524 259.602725 
L 363.804089 259.313479 
L 364.517494 264.112597 
L 364.873338 265.021382 
L 365.228613 265.536413 
L 365.583319 267.342585 
L 365.93746 264.76944 
L 366.64405 267.403393 
L 366.996503 264.707437 
L 367.348397 258.363251 
L 367.699734 257.184665 
L 368.050515 259.427157 
L 368.400743 260.90781 
L 368.750419 258.504641 
L 369.099545 260.008303 
L 369.448122 258.08045 
L 369.796152 259.012853 
L 370.143638 259.11503 
L 370.49058 261.778862 
L 370.83698 260.23411 
L 371.872949 266.951295 
L 372.2172 262.008255 
L 372.308552 264.154274 
L 372.652128 263.924263 
L 373.337688 268.002631 
L 373.679676 260.513121 
L 374.021137 261.777589 
L 374.362074 261.836527 
L 374.702488 262.238792 
L 375.04238 262.40442 
L 375.381752 261.690286 
L 375.720606 262.807024 
L 376.396766 257.020563 
L 376.734075 256.436554 
L 377.070871 256.6602 
L 377.407158 255.262809 
L 378.41297 261.81817 
L 378.747229 263.816155 
L 379.080987 261.835335 
L 379.414243 262.389927 
L 380.079257 266.824506 
L 380.411018 263.193206 
L 380.742284 264.603669 
L 381.073056 264.085317 
L 381.403335 261.651909 
L 381.733124 263.593626 
L 382.062424 263.457552 
L 382.391235 262.935671 
L 382.71956 257.979675 
L 383.0474 256.165088 
L 383.134401 253.741461 
L 383.461628 253.955496 
L 383.788374 256.755189 
L 384.11464 257.172608 
L 384.440427 259.452964 
L 384.765735 259.900707 
L 385.73881 265.058266 
L 386.062223 263.36476 
L 386.385164 263.507888 
L 386.707637 264.881655 
L 387.672251 270.402822 
L 387.99286 269.021333 
L 388.63269 272.458229 
L 388.951915 270.338487 
L 389.270681 262.062609 
L 389.58899 263.771451 
L 389.906843 264.188664 
L 390.224242 262.069761 
L 390.541187 264.267597 
L 390.857679 265.399392 
L 391.173721 264.927699 
L 391.489314 264.750715 
L 392.119156 268.872334 
L 392.433408 267.429783 
L 392.747215 269.747659 
L 393.373501 268.938507 
L 393.456547 268.420021 
L 393.768912 267.373661 
L 394.080837 267.3832 
L 394.703376 271.559591 
L 395.013991 272.122908 
L 395.324173 269.741384 
L 395.633921 270.472894 
L 395.943238 268.807888 
L 396.252124 260.463394 
L 397.17621 264.870868 
L 397.790137 268.687045 
L 398.096464 267.402759 
L 398.40237 267.643911 
L 398.707854 269.753732 
L 399.012918 270.701002 
L 399.317563 270.63478 
L 399.62179 271.429774 
L 399.925601 271.513074 
L 400.228997 271.309089 
L 400.531978 271.565853 
L 400.834546 272.164299 
L 401.136702 271.437838 
L 401.438447 271.817057 
L 402.04071 273.520672 
L 402.341229 274.481012 
L 402.641341 274.896686 
L 402.941049 275.642365 
L 403.240352 275.501198 
L 403.319786 276.664401 
L 403.61858 276.549727 
L 403.916971 277.177062 
L 404.214961 278.579619 
L 404.512552 272.463659 
L 404.809744 269.41172 
L 405.402937 273.477561 
L 405.69894 272.491938 
L 405.994549 274.31741 
L 406.289764 273.660104 
L 407.759977 279.413638 
L 408.052855 276.50091 
L 408.345346 278.26779 
L 408.637452 277.896098 
L 408.929174 278.569062 
L 409.220513 277.08398 
L 409.51147 277.155758 
L 409.802047 276.969323 
L 410.092243 277.070386 
L 410.38206 278.712323 
L 410.671499 279.279398 
L 411.537557 283.307604 
L 411.825494 278.712616 
L 412.113057 279.259142 
L 412.400249 280.425134 
L 412.763193 277.831495 
L 413.049544 279.088905 
L 413.621141 282.216859 
L 413.621141 282.216859 
" clip-path="url(#pd7570e2abe)" style="fill: none; stroke: #ff7f0e; stroke-opacity: 0.4; stroke-linecap: square"/>
   </g>
   <g id="line2d_25">
    <path d="M -1 169.481473 
L 0.525711 168.13458 
L 2.354808 161.268406 
L 4.168951 164.677348 
L 5.968382 165.650738 
L 7.753338 169.336956 
L 9.52405 171.767194 
L 11.280743 165.115534 
L 13.023638 168.632896 
L 14.752949 164.299816 
L 15.210041 163.532985 
L 16.922461 167.510515 
L 18.621767 165.044328 
L 21.98183 172.903189 
L 23.642971 175.906728 
L 25.291769 170.552948 
L 26.928406 166.586146 
L 28.55306 168.705775 
L 30.165904 172.609512 
L 31.76711 174.862117 
L 33.356844 171.822964 
L 34.935269 170.770764 
L 36.502545 167.963547 
L 38.058829 170.75088 
L 39.604274 172.814618 
L 41.139029 173.733416 
L 42.663242 175.142269 
L 44.177055 176.287898 
L 45.680611 180.033174 
L 47.174048 177.475012 
L 48.6575 181.07813 
L 50.1311 183.761459 
L 51.594978 185.782509 
L 53.049262 183.733193 
L 54.494077 186.740553 
L 55.929544 185.892714 
L 57.355785 188.339289 
L 58.772918 189.606424 
L 60.181056 185.304279 
L 61.580315 175.610173 
L 62.970806 174.874299 
L 64.352637 178.495044 
L 64.718244 174.322853 
L 66.089269 176.363329 
L 67.451875 174.86571 
L 68.806164 177.470158 
L 70.152237 177.965944 
L 71.490194 179.218965 
L 72.820132 181.714637 
L 74.142146 183.141043 
L 75.45633 181.628479 
L 78.061576 188.407693 
L 79.352818 186.516492 
L 81.912974 192.610634 
L 83.18206 194.8708 
L 84.443929 194.582818 
L 85.698662 196.65596 
L 86.94634 182.479028 
L 88.187042 184.063997 
L 89.420844 180.418645 
L 90.647825 180.109116 
L 91.868057 182.993292 
L 93.081616 179.494654 
L 94.288574 177.867307 
L 95.489003 170.130443 
L 97.87055 178.243203 
L 99.051807 170.374584 
L 100.226808 171.577104 
L 101.39562 174.299884 
L 102.558307 174.453785 
L 104.865563 180.441508 
L 105.170199 180.21589 
L 106.313326 179.749289 
L 107.450594 181.305397 
L 108.582062 184.000459 
L 109.707791 186.169871 
L 110.827837 186.428765 
L 113.051109 192.889928 
L 114.154447 182.284449 
L 115.252325 183.444989 
L 116.344799 180.171244 
L 117.43192 175.700012 
L 118.51374 178.768889 
L 119.590312 174.961185 
L 120.661686 173.034689 
L 121.727912 169.497266 
L 122.789039 172.542138 
L 123.845115 174.772552 
L 124.896189 172.665206 
L 125.942307 176.321333 
L 126.983517 178.981506 
L 129.051393 186.755629 
L 130.078148 185.914382 
L 131.100175 180.695278 
L 132.117515 184.077172 
L 133.130213 188.22592 
L 134.138309 189.225748 
L 135.141847 188.085161 
L 136.140866 190.910434 
L 138.125511 169.174472 
L 139.111216 171.896175 
L 139.37231 171.00148 
L 140.352504 171.872523 
L 141.328387 175.95052 
L 142.299998 178.854665 
L 144.230547 186.843299 
L 145.189559 184.905805 
L 146.144445 185.646896 
L 147.095238 189.148384 
L 148.041975 191.710245 
L 148.98469 183.745784 
L 149.923416 186.790034 
L 150.858188 188.703978 
L 151.789039 188.785265 
L 152.716 186.981481 
L 153.639106 185.962453 
L 154.558387 187.393041 
L 155.473875 184.213806 
L 156.385601 185.973483 
L 157.293597 184.309132 
L 158.197892 183.445678 
L 159.098517 186.974171 
L 159.995501 187.962515 
L 160.888874 192.130038 
L 161.778664 191.116762 
L 162.6649 194.702374 
L 163.547611 195.581972 
L 165.302567 201.200648 
L 166.174868 198.304766 
L 167.909248 205.696358 
L 168.771381 205.474762 
L 168.999823 208.698094 
L 169.857737 211.27602 
L 170.712346 214.448092 
L 171.563677 208.989611 
L 172.411754 210.235552 
L 173.256602 213.033401 
L 174.098246 212.173596 
L 174.936709 206.755439 
L 175.772016 206.236274 
L 176.60419 209.099599 
L 177.433254 210.873205 
L 178.259233 212.284012 
L 179.082148 210.458031 
L 182.343625 220.79228 
L 183.151559 221.930949 
L 183.956561 220.232952 
L 184.758654 220.937409 
L 185.557857 221.053906 
L 186.354193 224.002926 
L 187.14768 224.360807 
L 187.938341 222.03466 
L 188.726193 223.766476 
L 189.511259 224.768219 
L 190.293556 220.996311 
L 191.073105 223.161759 
L 191.849925 224.066686 
L 192.624035 217.694599 
L 193.395454 218.822858 
L 194.1642 222.155807 
L 194.930292 219.410189 
L 195.133342 219.659917 
L 195.8961 218.734174 
L 196.656246 212.982411 
L 197.413797 215.347885 
L 198.16877 218.799844 
L 198.921184 220.032897 
L 199.671054 219.4274 
L 200.418399 215.550178 
L 201.163235 210.160294 
L 201.905579 206.535851 
L 202.645448 210.555647 
L 203.382858 210.733929 
L 204.117826 196.177424 
L 204.850367 195.576474 
L 205.580498 199.699631 
L 206.308234 197.208348 
L 207.033592 198.112509 
L 208.477231 205.752517 
L 209.195544 199.623623 
L 209.911539 203.861643 
L 210.625231 200.26552 
L 212.045765 207.743824 
L 212.752637 208.111048 
L 213.457263 208.250413 
L 214.159659 205.372378 
L 216.253605 214.630651 
L 216.947218 216.465539 
L 217.638671 219.270532 
L 218.327975 218.220849 
L 218.510712 216.056951 
L 219.197316 217.46567 
L 219.881803 217.939255 
L 220.564185 213.713872 
L 221.244474 214.751663 
L 221.922684 218.497738 
L 222.598828 220.889419 
L 223.272917 222.331066 
L 223.944965 221.551745 
L 224.614984 221.750891 
L 225.282985 225.517707 
L 226.612985 230.413448 
L 227.275008 231.698913 
L 227.935061 234.173359 
L 228.593156 225.969989 
L 229.249306 225.37201 
L 229.903521 222.854669 
L 230.555812 222.853707 
L 231.854671 228.647443 
L 233.145971 232.083611 
L 233.788814 234.826952 
L 234.4298 234.786191 
L 235.06894 235.272793 
L 235.706243 237.000471 
L 236.341722 239.31172 
L 236.975386 240.705492 
L 237.607246 239.481973 
L 238.865592 235.176145 
L 239.4921 235.705438 
L 239.658219 223.945275 
L 240.282495 227.361061 
L 240.90502 223.513583 
L 241.525804 226.433279 
L 242.144855 226.027894 
L 242.762184 229.611253 
L 243.377801 230.817565 
L 243.991714 227.146301 
L 244.603934 229.785402 
L 245.214468 230.390202 
L 245.823328 223.329341 
L 246.430521 224.42032 
L 247.639946 231.194573 
L 248.242196 232.931865 
L 248.842815 231.498827 
L 249.441813 231.315499 
L 250.039198 233.916525 
L 250.634979 216.802307 
L 251.229165 218.907199 
L 252.412785 225.717139 
L 253.002235 225.394593 
L 253.590124 228.55734 
L 254.176459 227.229614 
L 254.761249 229.558257 
L 255.344502 229.14226 
L 255.926226 231.661509 
L 256.506428 228.232828 
L 257.662302 218.050437 
L 258.237989 222.146593 
L 259.53678 229.407011 
L 260.10763 233.023863 
L 261.244944 229.847554 
L 261.811422 230.663918 
L 262.376457 229.803724 
L 262.940058 231.1328 
L 263.50223 231.879766 
L 264.062982 234.488441 
L 264.62232 234.733928 
L 265.180252 236.987863 
L 265.736785 238.680971 
L 266.291925 241.281127 
L 266.84568 241.423687 
L 267.398056 243.508205 
L 267.94906 239.093513 
L 268.4987 237.662379 
L 269.046982 239.599211 
L 269.593912 234.515159 
L 270.683744 239.124909 
L 271.22666 242.477146 
L 271.76825 242.086633 
L 272.308521 243.194965 
L 272.847481 236.211519 
L 273.921488 238.018867 
L 274.456548 236.214588 
L 274.990322 232.06873 
L 275.522814 233.95747 
L 276.054032 233.471714 
L 276.724536 236.591194 
L 278.305832 247.066705 
L 279.353803 251.372486 
L 279.875938 252.564086 
L 280.396848 250.061721 
L 280.916538 251.188633 
L 281.435013 249.326149 
L 282.98321 254.023162 
L 284.520679 260.039501 
L 285.03081 257.366239 
L 286.047568 262.499918 
L 287.059688 255.218611 
L 288.569264 262.623805 
L 289.070183 263.039769 
L 289.569973 264.408099 
L 290.06864 261.491435 
L 290.566189 254.172807 
L 291.062624 256.552388 
L 291.557952 251.247725 
L 292.052176 252.418307 
L 292.545302 250.325714 
L 293.037334 250.589495 
L 293.167847 240.796666 
L 293.658503 243.979791 
L 294.148075 244.430499 
L 294.63657 247.4262 
L 295.123992 247.10303 
L 295.610346 250.546518 
L 296.095636 251.131435 
L 296.579867 251.891791 
L 297.063043 244.81615 
L 297.54517 247.044753 
L 298.026251 250.234927 
L 298.506291 251.991601 
L 299.463268 256.89907 
L 299.940213 258.645484 
L 300.416135 261.104446 
L 300.891038 260.327161 
L 301.364928 263.043536 
L 302.309681 267.140498 
L 302.780553 268.432902 
L 303.250428 254.401934 
L 303.71931 256.185531 
L 304.187204 259.384 
L 305.120042 263.743067 
L 305.584994 264.328529 
L 306.048974 264.402449 
L 306.511986 258.426835 
L 307.895253 265.165852 
L 308.354432 261.874497 
L 308.476242 259.993485 
L 309.391258 265.290154 
L 309.847355 265.368821 
L 310.756746 255.321403 
L 311.210048 257.305459 
L 311.662426 257.686988 
L 312.113883 254.476632 
L 312.564423 252.157538 
L 313.014051 255.694973 
L 313.462769 257.621602 
L 313.910582 260.354408 
L 314.357493 259.331645 
L 315.69285 266.381605 
L 316.136189 268.16526 
L 316.578644 270.631669 
L 317.020218 270.2339 
L 317.460916 267.602344 
L 317.90074 269.740227 
L 318.339694 271.032013 
L 318.777781 271.669416 
L 319.215005 274.454095 
L 319.651369 275.26079 
L 320.086877 274.270942 
L 320.521532 276.148464 
L 320.955337 276.675582 
L 321.388295 270.445515 
L 321.82041 268.604806 
L 322.79632 272.380717 
L 323.225704 272.635511 
L 323.65426 263.764147 
L 324.081989 265.146578 
L 324.508895 267.510905 
L 324.934981 268.767894 
L 325.360251 268.405427 
L 325.784708 266.032664 
L 326.208354 262.844661 
L 327.053227 268.909139 
L 327.47446 270.954005 
L 327.894895 269.091031 
L 328.314535 268.636399 
L 328.733383 269.476953 
L 329.151442 272.371002 
L 329.568714 274.375242 
L 329.985204 270.859422 
L 330.400913 270.45903 
L 330.815844 273.117065 
L 331.230002 269.930637 
L 331.643387 270.904115 
L 332.056004 271.333186 
L 332.467855 271.431002 
L 333.289271 275.762743 
L 333.698842 276.824424 
L 334.107657 279.236668 
L 334.515721 280.694913 
L 334.923036 282.628013 
L 335.73543 275.02201 
L 336.140514 271.291279 
L 336.247991 273.67129 
L 336.652141 274.144273 
L 337.45824 277.724157 
L 337.860194 274.580383 
L 338.261421 266.907322 
L 338.661924 266.192619 
L 339.460768 271.882652 
L 339.859114 273.922682 
L 340.256746 277.048315 
L 340.653667 263.054047 
L 342.627691 274.655079 
L 343.020397 274.419768 
L 343.412409 277.198447 
L 343.80373 276.664218 
L 344.194362 277.225126 
L 344.584308 277.016528 
L 344.973569 274.831375 
L 345.362149 276.824147 
L 345.750049 275.371885 
L 346.137273 276.228535 
L 346.523822 271.100305 
L 346.909699 272.983924 
L 347.294906 269.738359 
L 347.679445 269.326969 
L 348.063319 269.60929 
L 348.44653 271.503507 
L 348.82908 269.472598 
L 348.930585 270.909896 
L 349.312302 272.02498 
L 349.693364 274.191791 
L 350.073773 277.091924 
L 350.45353 277.167315 
L 350.832639 279.997877 
L 351.211101 281.156094 
L 351.588919 279.603511 
L 351.966095 280.082468 
L 352.34263 282.178985 
L 352.718528 280.955891 
L 353.468418 284.382715 
L 353.842415 284.086365 
L 354.588523 274.805951 
L 354.960638 274.627461 
L 355.33213 266.88944 
L 355.703002 268.799559 
L 356.44289 274.874952 
L 356.811911 275.433432 
L 357.180319 269.552626 
L 357.548117 271.196808 
L 357.915306 271.24035 
L 358.281888 270.808764 
L 358.647866 268.83741 
L 359.013241 271.049283 
L 359.378016 272.477547 
L 359.742192 267.445414 
L 360.105771 265.241473 
L 360.468755 268.92258 
L 360.831146 271.431872 
L 360.927307 270.732474 
L 361.288951 272.987201 
L 361.650007 269.322868 
L 362.010476 271.6579 
L 362.37036 272.911905 
L 362.729662 275.318913 
L 363.088382 276.206118 
L 363.446524 276.636315 
L 364.161078 282.852077 
L 364.517494 284.566207 
L 364.873338 284.426486 
L 365.228613 286.25476 
L 365.583319 279.765223 
L 365.93746 280.039149 
L 366.291036 281.017078 
L 366.64405 281.557568 
L 366.996503 283.651975 
L 367.348397 284.769144 
L 367.699734 286.746227 
L 368.050515 285.55712 
L 368.400743 287.779205 
L 369.099545 277.728661 
L 369.448122 279.503463 
L 369.796152 279.211083 
L 370.143638 280.139939 
L 370.83698 284.915925 
L 371.182841 285.378145 
L 371.528163 277.724677 
L 372.2172 282.385578 
L 372.308552 281.519721 
L 373.337688 289.601146 
L 374.021137 294.243509 
L 374.362074 293.561034 
L 374.702488 293.810636 
L 375.04238 295.003711 
L 375.720606 299.373856 
L 376.058944 298.233799 
L 376.396766 299.386985 
L 376.734075 301.236772 
L 377.070871 302.045681 
L 377.407158 303.529026 
L 377.742935 304.302066 
L 378.078205 302.352319 
L 378.41297 303.980903 
L 378.747229 304.277549 
L 379.080987 305.211756 
L 379.414243 303.965628 
L 379.746999 305.126316 
L 380.079257 306.885247 
L 380.742284 308.192288 
L 381.073056 295.357955 
L 381.403335 295.5905 
L 382.391235 298.371812 
L 382.71956 300.256998 
L 383.0474 300.689181 
L 383.134401 299.643306 
L 383.461628 298.923455 
L 383.788374 299.190686 
L 384.11464 298.409922 
L 384.440427 299.632598 
L 384.765735 297.631196 
L 385.090568 299.734701 
L 385.414926 296.757655 
L 385.73881 296.128659 
L 386.062223 295.831421 
L 386.385164 295.728798 
L 387.029641 299.534771 
L 387.351179 299.420096 
L 387.99286 302.108291 
L 388.313006 302.177093 
L 388.63269 298.701693 
L 388.951915 300.277381 
L 389.270681 299.63384 
L 390.224242 300.693955 
L 390.541187 301.902471 
L 390.857679 293.632801 
L 392.119156 301.368893 
L 392.433408 300.862923 
L 392.747215 298.033583 
L 393.060579 299.627838 
L 393.456547 302.816999 
L 393.768912 303.796515 
L 394.392325 307.998493 
L 394.703376 309.19898 
L 395.013991 308.725341 
L 395.324173 307.456866 
L 395.943238 302.753454 
L 396.252124 303.676313 
L 396.560581 299.224155 
L 397.17621 301.529804 
L 397.483386 302.060782 
L 397.790137 303.504963 
L 398.096464 303.702291 
L 398.40237 305.337255 
L 398.707854 300.732821 
L 399.012918 302.121887 
L 399.317563 304.460909 
L 399.62179 304.581591 
L 399.925601 301.725138 
L 400.228997 301.835256 
L 400.531978 297.462126 
L 400.834546 297.707262 
L 401.136702 295.32398 
L 402.04071 301.34528 
L 402.341229 297.324915 
L 402.641341 298.532329 
L 402.941049 289.273779 
L 403.319786 291.016268 
L 404.214961 298.456447 
L 404.512552 300.13383 
L 404.809744 300.40971 
L 405.106539 298.91206 
L 405.402937 299.790932 
L 406.584587 307.552084 
L 406.879019 308.432143 
L 407.17306 305.541591 
L 407.466713 305.582266 
L 408.052855 303.484306 
L 408.345346 302.84385 
L 408.637452 301.716891 
L 408.929174 303.533569 
L 409.220513 302.795132 
L 409.51147 294.711694 
L 410.671499 304.430377 
L 410.960561 304.487736 
L 411.249246 300.657685 
L 411.537557 302.99339 
L 411.825494 302.875343 
L 412.113057 303.438671 
L 412.400249 304.968293 
L 412.687069 304.816088 
L 412.763193 306.914606 
L 413.049544 308.645001 
L 413.335527 302.511087 
L 413.621141 301.33303 
L 413.621141 301.33303 
" clip-path="url(#pd7570e2abe)" style="fill: none; stroke: #2ca02c; stroke-opacity: 0.4; stroke-linecap: square"/>
   </g>
   <g id="patch_3">
    <path d="M 57.6 307.584 
L 57.6 41.472 
" style="fill: none; stroke: #000000; stroke-width: 0.8; stroke-linejoin: miter; stroke-linecap: square"/>
   </g>
   <g id="patch_4">
    <path d="M 414.72 307.584 
L 414.72 41.472 
" style="fill: none; stroke: #000000; stroke-width: 0.8; stroke-linejoin: miter; stroke-linecap: square"/>
   </g>
   <g id="patch_5">
    <path d="M 57.6 307.584 
L 414.72 307.584 
" style="fill: none; stroke: #000000; stroke-width: 0.8; stroke-linejoin: miter; stroke-linecap: square"/>
   </g>
   <g id="patch_6">
    <path d="M 57.6 41.472 
L 414.72 41.472 
" style="fill: none; stroke: #000000; stroke-width: 0.8; stroke-linejoin: miter; stroke-linecap: square"/>
   </g>
   <g id="text_9">
    <!-- 2025-02-21-00:25:56 -->
    <g transform="translate(172.178438 35.472) scale(0.12 -0.12)">
     <defs>
      <path id="DejaVuSans-35" d="M 691 4666 
L 3169 4666 
L 3169 4134 
L 1269 4134 
L 1269 2991 
Q 1406 3038 1543 3061 
Q 1681 3084 1819 3084 
Q 2600 3084 3056 2656 
Q 3513 2228 3513 1497 
Q 3513 744 3044 326 
Q 2575 -91 1722 -91 
Q 1428 -91 1123 -41 
Q 819 9 494 109 
L 494 744 
Q 775 591 1075 516 
Q 1375 441 1709 441 
Q 2250 441 2565 725 
Q 2881 1009 2881 1497 
Q 2881 1984 2565 2268 
Q 2250 2553 1709 2553 
Q 1456 2553 1204 2497 
Q 953 2441 691 2322 
L 691 4666 
z
" transform="scale(0.015625)"/>
      <path id="DejaVuSans-2d" d="M 313 2009 
L 1997 2009 
L 1997 1497 
L 313 1497 
L 313 2009 
z
" transform="scale(0.015625)"/>
      <path id="DejaVuSans-3a" d="M 750 794 
L 1409 794 
L 1409 0 
L 750 0 
L 750 794 
z
M 750 3309 
L 1409 3309 
L 1409 2516 
L 750 2516 
L 750 3309 
z
" transform="scale(0.015625)"/>
      <path id="DejaVuSans-36" d="M 2113 2584 
Q 1688 2584 1439 2293 
Q 1191 2003 1191 1497 
Q 1191 994 1439 701 
Q 1688 409 2113 409 
Q 2538 409 2786 701 
Q 3034 994 3034 1497 
Q 3034 2003 2786 2293 
Q 2538 2584 2113 2584 
z
M 3366 4563 
L 3366 3988 
Q 3128 4100 2886 4159 
Q 2644 4219 2406 4219 
Q 1781 4219 1451 3797 
Q 1122 3375 1075 2522 
Q 1259 2794 1537 2939 
Q 1816 3084 2150 3084 
Q 2853 3084 3261 2657 
Q 3669 2231 3669 1497 
Q 3669 778 3244 343 
Q 2819 -91 2113 -91 
Q 1303 -91 875 529 
Q 447 1150 447 2328 
Q 447 3434 972 4092 
Q 1497 4750 2381 4750 
Q 2619 4750 2861 4703 
Q 3103 4656 3366 4563 
z
" transform="scale(0.015625)"/>
     </defs>
     <use xlink:href="#DejaVuSans-32"/>
     <use xlink:href="#DejaVuSans-30" x="63.623047"/>
     <use xlink:href="#DejaVuSans-32" x="127.246094"/>
     <use xlink:href="#DejaVuSans-35" x="190.869141"/>
     <use xlink:href="#DejaVuSans-2d" x="254.492188"/>
     <use xlink:href="#DejaVuSans-30" x="290.576172"/>
     <use xlink:href="#DejaVuSans-32" x="354.199219"/>
     <use xlink:href="#DejaVuSans-2d" x="417.822266"/>
     <use xlink:href="#DejaVuSans-32" x="453.90625"/>
     <use xlink:href="#DejaVuSans-31" x="517.529297"/>
     <use xlink:href="#DejaVuSans-2d" x="581.152344"/>
     <use xlink:href="#DejaVuSans-30" x="617.236328"/>
     <use xlink:href="#DejaVuSans-30" x="680.859375"/>
     <use xlink:href="#DejaVuSans-3a" x="744.482422"/>
     <use xlink:href="#DejaVuSans-32" x="778.173828"/>
     <use xlink:href="#DejaVuSans-35" x="841.796875"/>
     <use xlink:href="#DejaVuSans-3a" x="905.419922"/>
     <use xlink:href="#DejaVuSans-35" x="939.111328"/>
     <use xlink:href="#DejaVuSans-36" x="1002.734375"/>
    </g>
   </g>
   <g id="legend_1">
    <g id="patch_7">
     <path d="M 281.596563 94.34075 
L 407.72 94.34075 
Q 409.72 94.34075 409.72 92.34075 
L 409.72 48.472 
Q 409.72 46.472 407.72 46.472 
L 281.596563 46.472 
Q 279.596563 46.472 279.596563 48.472 
L 279.596563 92.34075 
Q 279.596563 94.34075 281.596563 94.34075 
z
" style="fill: #ffffff; opacity: 0.8; stroke: #cccccc; stroke-linejoin: miter"/>
    </g>
    <g id="line2d_26">
     <path d="M 283.596563 54.570438 
L 293.596563 54.570438 
L 303.596563 54.570438 
" style="fill: none; stroke: #1f77b4; stroke-opacity: 0.4; stroke-linecap: square"/>
    </g>
    <g id="text_10">
     <!-- SchNet eval_loss -->
     <g transform="translate(311.596563 58.070438) scale(0.1 -0.1)">
      <defs>
       <path id="DejaVuSans-53" d="M 3425 4513 
L 3425 3897 
Q 3066 4069 2747 4153 
Q 2428 4238 2131 4238 
Q 1616 4238 1336 4038 
Q 1056 3838 1056 3469 
Q 1056 3159 1242 3001 
Q 1428 2844 1947 2747 
L 2328 2669 
Q 3034 2534 3370 2195 
Q 3706 1856 3706 1288 
Q 3706 609 3251 259 
Q 2797 -91 1919 -91 
Q 1588 -91 1214 -16 
Q 841 59 441 206 
L 441 856 
Q 825 641 1194 531 
Q 1563 422 1919 422 
Q 2459 422 2753 634 
Q 3047 847 3047 1241 
Q 3047 1584 2836 1778 
Q 2625 1972 2144 2069 
L 1759 2144 
Q 1053 2284 737 2584 
Q 422 2884 422 3419 
Q 422 4038 858 4394 
Q 1294 4750 2059 4750 
Q 2388 4750 2728 4690 
Q 3069 4631 3425 4513 
z
" transform="scale(0.015625)"/>
       <path id="DejaVuSans-63" d="M 3122 3366 
L 3122 2828 
Q 2878 2963 2633 3030 
Q 2388 3097 2138 3097 
Q 1578 3097 1268 2742 
Q 959 2388 959 1747 
Q 959 1106 1268 751 
Q 1578 397 2138 397 
Q 2388 397 2633 464 
Q 2878 531 3122 666 
L 3122 134 
Q 2881 22 2623 -34 
Q 2366 -91 2075 -91 
Q 1284 -91 818 406 
Q 353 903 353 1747 
Q 353 2603 823 3093 
Q 1294 3584 2113 3584 
Q 2378 3584 2631 3529 
Q 2884 3475 3122 3366 
z
" transform="scale(0.015625)"/>
       <path id="DejaVuSans-68" d="M 3513 2113 
L 3513 0 
L 2938 0 
L 2938 2094 
Q 2938 2591 2744 2837 
Q 2550 3084 2163 3084 
Q 1697 3084 1428 2787 
Q 1159 2491 1159 1978 
L 1159 0 
L 581 0 
L 581 4863 
L 1159 4863 
L 1159 2956 
Q 1366 3272 1645 3428 
Q 1925 3584 2291 3584 
Q 2894 3584 3203 3211 
Q 3513 2838 3513 2113 
z
" transform="scale(0.015625)"/>
       <path id="DejaVuSans-4e" d="M 628 4666 
L 1478 4666 
L 3547 763 
L 3547 4666 
L 4159 4666 
L 4159 0 
L 3309 0 
L 1241 3903 
L 1241 0 
L 628 0 
L 628 4666 
z
" transform="scale(0.015625)"/>
       <path id="DejaVuSans-20" transform="scale(0.015625)"/>
       <path id="DejaVuSans-76" d="M 191 3500 
L 800 3500 
L 1894 563 
L 2988 3500 
L 3597 3500 
L 2284 0 
L 1503 0 
L 191 3500 
z
" transform="scale(0.015625)"/>
       <path id="DejaVuSans-61" d="M 2194 1759 
Q 1497 1759 1228 1600 
Q 959 1441 959 1056 
Q 959 750 1161 570 
Q 1363 391 1709 391 
Q 2188 391 2477 730 
Q 2766 1069 2766 1631 
L 2766 1759 
L 2194 1759 
z
M 3341 1997 
L 3341 0 
L 2766 0 
L 2766 531 
Q 2569 213 2275 61 
Q 1981 -91 1556 -91 
Q 1019 -91 701 211 
Q 384 513 384 1019 
Q 384 1609 779 1909 
Q 1175 2209 1959 2209 
L 2766 2209 
L 2766 2266 
Q 2766 2663 2505 2880 
Q 2244 3097 1772 3097 
Q 1472 3097 1187 3025 
Q 903 2953 641 2809 
L 641 3341 
Q 956 3463 1253 3523 
Q 1550 3584 1831 3584 
Q 2591 3584 2966 3190 
Q 3341 2797 3341 1997 
z
" transform="scale(0.015625)"/>
       <path id="DejaVuSans-5f" d="M 3263 -1063 
L 3263 -1509 
L -63 -1509 
L -63 -1063 
L 3263 -1063 
z
" transform="scale(0.015625)"/>
      </defs>
      <use xlink:href="#DejaVuSans-53"/>
      <use xlink:href="#DejaVuSans-63" x="63.476562"/>
      <use xlink:href="#DejaVuSans-68" x="118.457031"/>
      <use xlink:href="#DejaVuSans-4e" x="181.835938"/>
      <use xlink:href="#DejaVuSans-65" x="256.640625"/>
      <use xlink:href="#DejaVuSans-74" x="318.164062"/>
      <use xlink:href="#DejaVuSans-20" x="357.373047"/>
      <use xlink:href="#DejaVuSans-65" x="389.160156"/>
      <use xlink:href="#DejaVuSans-76" x="450.683594"/>
      <use xlink:href="#DejaVuSans-61" x="509.863281"/>
      <use xlink:href="#DejaVuSans-6c" x="571.142578"/>
      <use xlink:href="#DejaVuSans-5f" x="598.925781"/>
      <use xlink:href="#DejaVuSans-6c" x="648.925781"/>
      <use xlink:href="#DejaVuSans-6f" x="676.708984"/>
      <use xlink:href="#DejaVuSans-73" x="737.890625"/>
      <use xlink:href="#DejaVuSans-73" x="789.990234"/>
     </g>
    </g>
    <g id="line2d_27">
     <path d="M 283.596563 69.526688 
L 293.596563 69.526688 
L 303.596563 69.526688 
" style="fill: none; stroke: #ff7f0e; stroke-opacity: 0.4; stroke-linecap: square"/>
    </g>
    <g id="text_11">
     <!-- M220 eval_loss -->
     <g transform="translate(311.596563 73.026688) scale(0.1 -0.1)">
      <defs>
       <path id="DejaVuSans-4d" d="M 628 4666 
L 1569 4666 
L 2759 1491 
L 3956 4666 
L 4897 4666 
L 4897 0 
L 4281 0 
L 4281 4097 
L 3078 897 
L 2444 897 
L 1241 4097 
L 1241 0 
L 628 0 
L 628 4666 
z
" transform="scale(0.015625)"/>
      </defs>
      <use xlink:href="#DejaVuSans-4d"/>
      <use xlink:href="#DejaVuSans-32" x="86.279297"/>
      <use xlink:href="#DejaVuSans-32" x="149.902344"/>
      <use xlink:href="#DejaVuSans-30" x="213.525391"/>
      <use xlink:href="#DejaVuSans-20" x="277.148438"/>
      <use xlink:href="#DejaVuSans-65" x="308.935547"/>
      <use xlink:href="#DejaVuSans-76" x="370.458984"/>
      <use xlink:href="#DejaVuSans-61" x="429.638672"/>
      <use xlink:href="#DejaVuSans-6c" x="490.917969"/>
      <use xlink:href="#DejaVuSans-5f" x="518.701172"/>
      <use xlink:href="#DejaVuSans-6c" x="568.701172"/>
      <use xlink:href="#DejaVuSans-6f" x="596.484375"/>
      <use xlink:href="#DejaVuSans-73" x="657.666016"/>
      <use xlink:href="#DejaVuSans-73" x="709.765625"/>
     </g>
    </g>
    <g id="line2d_28">
     <path d="M 283.596563 84.482938 
L 293.596563 84.482938 
L 303.596563 84.482938 
" style="fill: none; stroke: #2ca02c; stroke-opacity: 0.4; stroke-linecap: square"/>
    </g>
    <g id="text_12">
     <!-- MoGIN14 eval_loss -->
     <g transform="translate(311.596563 87.982938) scale(0.1 -0.1)">
      <defs>
       <path id="DejaVuSans-47" d="M 3809 666 
L 3809 1919 
L 2778 1919 
L 2778 2438 
L 4434 2438 
L 4434 434 
Q 4069 175 3628 42 
Q 3188 -91 2688 -91 
Q 1594 -91 976 548 
Q 359 1188 359 2328 
Q 359 3472 976 4111 
Q 1594 4750 2688 4750 
Q 3144 4750 3555 4637 
Q 3966 4525 4313 4306 
L 4313 3634 
Q 3963 3931 3569 4081 
Q 3175 4231 2741 4231 
Q 1884 4231 1454 3753 
Q 1025 3275 1025 2328 
Q 1025 1384 1454 906 
Q 1884 428 2741 428 
Q 3075 428 3337 486 
Q 3600 544 3809 666 
z
" transform="scale(0.015625)"/>
       <path id="DejaVuSans-49" d="M 628 4666 
L 1259 4666 
L 1259 0 
L 628 0 
L 628 4666 
z
" transform="scale(0.015625)"/>
      </defs>
      <use xlink:href="#DejaVuSans-4d"/>
      <use xlink:href="#DejaVuSans-6f" x="86.279297"/>
      <use xlink:href="#DejaVuSans-47" x="147.460938"/>
      <use xlink:href="#DejaVuSans-49" x="224.951172"/>
      <use xlink:href="#DejaVuSans-4e" x="254.443359"/>
      <use xlink:href="#DejaVuSans-31" x="329.248047"/>
      <use xlink:href="#DejaVuSans-34" x="392.871094"/>
      <use xlink:href="#DejaVuSans-20" x="456.494141"/>
      <use xlink:href="#DejaVuSans-65" x="488.28125"/>
      <use xlink:href="#DejaVuSans-76" x="549.804688"/>
      <use xlink:href="#DejaVuSans-61" x="608.984375"/>
      <use xlink:href="#DejaVuSans-6c" x="670.263672"/>
      <use xlink:href="#DejaVuSans-5f" x="698.046875"/>
      <use xlink:href="#DejaVuSans-6c" x="748.046875"/>
      <use xlink:href="#DejaVuSans-6f" x="775.830078"/>
      <use xlink:href="#DejaVuSans-73" x="837.011719"/>
      <use xlink:href="#DejaVuSans-73" x="889.111328"/>
     </g>
    </g>
   </g>
  </g>
 </g>
 <defs>
  <clipPath id="pd7570e2abe">
   <rect x="57.6" y="41.472" width="357.12" height="266.112"/>
  </clipPath>
 </defs>
</svg>
