<?xml version="1.0" encoding="utf-8" standalone="no"?>
<!DOCTYPE svg PUBLIC "-//W3C//DTD SVG 1.1//EN"
  "http://www.w3.org/Graphics/SVG/1.1/DTD/svg11.dtd">
<svg xmlns:xlink="http://www.w3.org/1999/xlink" width="460.8pt" height="345.6pt" viewBox="0 0 460.8 345.6" xmlns="http://www.w3.org/2000/svg" version="1.1">
 <metadata>
  <rdf:RDF xmlns:dc="http://purl.org/dc/elements/1.1/" xmlns:cc="http://creativecommons.org/ns#" xmlns:rdf="http://www.w3.org/1999/02/22-rdf-syntax-ns#">
   <cc:Work>
    <dc:type rdf:resource="http://purl.org/dc/dcmitype/StillImage"/>
    <dc:date>2025-02-19T00:10:05.299685</dc:date>
    <dc:format>image/svg+xml</dc:format>
    <dc:creator>
     <cc:Agent>
      <dc:title>Matplotlib v3.8.4, https://matplotlib.org/</dc:title>
     </cc:Agent>
    </dc:creator>
   </cc:Work>
  </rdf:RDF>
 </metadata>
 <defs>
  <style type="text/css">*{stroke-linejoin: round; stroke-linecap: butt}</style>
 </defs>
 <g id="figure_1">
  <g id="patch_1">
   <path d="M 0 345.6 
L 460.8 345.6 
L 460.8 0 
L 0 0 
z
" style="fill: #ffffff"/>
  </g>
  <g id="axes_1">
   <g id="patch_2">
    <path d="M 57.6 307.584 
L 414.72 307.584 
L 414.72 41.472 
L 57.6 41.472 
z
" style="fill: #ffffff"/>
   </g>
   <g id="matplotlib.axis_1">
    <g id="xtick_1">
     <g id="line2d_1">
      <defs>
       <path id="md9bdd02fa9" d="M 0 0 
L 0 3.5 
" style="stroke: #000000; stroke-width: 0.8"/>
      </defs>
      <g>
       <use xlink:href="#md9bdd02fa9" x="73.820177" y="307.584" style="stroke: #000000; stroke-width: 0.8"/>
      </g>
     </g>
     <g id="text_1">
      <!-- 0 -->
      <g transform="translate(70.638927 322.182437) scale(0.1 -0.1)">
       <defs>
        <path id="DejaVuSans-30" d="M 2034 4250 
Q 1547 4250 1301 3770 
Q 1056 3291 1056 2328 
Q 1056 1369 1301 889 
Q 1547 409 2034 409 
Q 2525 409 2770 889 
Q 3016 1369 3016 2328 
Q 3016 3291 2770 3770 
Q 2525 4250 2034 4250 
z
M 2034 4750 
Q 2819 4750 3233 4129 
Q 3647 3509 3647 2328 
Q 3647 1150 3233 529 
Q 2819 -91 2034 -91 
Q 1250 -91 836 529 
Q 422 1150 422 2328 
Q 422 3509 836 4129 
Q 1250 4750 2034 4750 
z
" transform="scale(0.015625)"/>
       </defs>
       <use xlink:href="#DejaVuSans-30"/>
      </g>
     </g>
    </g>
    <g id="xtick_2">
     <g id="line2d_2">
      <g>
       <use xlink:href="#md9bdd02fa9" x="136.572331" y="307.584" style="stroke: #000000; stroke-width: 0.8"/>
      </g>
     </g>
     <g id="text_2">
      <!-- 5000 -->
      <g transform="translate(123.847331 322.182437) scale(0.1 -0.1)">
       <defs>
        <path id="DejaVuSans-35" d="M 691 4666 
L 3169 4666 
L 3169 4134 
L 1269 4134 
L 1269 2991 
Q 1406 3038 1543 3061 
Q 1681 3084 1819 3084 
Q 2600 3084 3056 2656 
Q 3513 2228 3513 1497 
Q 3513 744 3044 326 
Q 2575 -91 1722 -91 
Q 1428 -91 1123 -41 
Q 819 9 494 109 
L 494 744 
Q 775 591 1075 516 
Q 1375 441 1709 441 
Q 2250 441 2565 725 
Q 2881 1009 2881 1497 
Q 2881 1984 2565 2268 
Q 2250 2553 1709 2553 
Q 1456 2553 1204 2497 
Q 953 2441 691 2322 
L 691 4666 
z
" transform="scale(0.015625)"/>
       </defs>
       <use xlink:href="#DejaVuSans-35"/>
       <use xlink:href="#DejaVuSans-30" x="63.623047"/>
       <use xlink:href="#DejaVuSans-30" x="127.246094"/>
       <use xlink:href="#DejaVuSans-30" x="190.869141"/>
      </g>
     </g>
    </g>
    <g id="xtick_3">
     <g id="line2d_3">
      <g>
       <use xlink:href="#md9bdd02fa9" x="199.324485" y="307.584" style="stroke: #000000; stroke-width: 0.8"/>
      </g>
     </g>
     <g id="text_3">
      <!-- 10000 -->
      <g transform="translate(183.418235 322.182437) scale(0.1 -0.1)">
       <defs>
        <path id="DejaVuSans-31" d="M 794 531 
L 1825 531 
L 1825 4091 
L 703 3866 
L 703 4441 
L 1819 4666 
L 2450 4666 
L 2450 531 
L 3481 531 
L 3481 0 
L 794 0 
L 794 531 
z
" transform="scale(0.015625)"/>
       </defs>
       <use xlink:href="#DejaVuSans-31"/>
       <use xlink:href="#DejaVuSans-30" x="63.623047"/>
       <use xlink:href="#DejaVuSans-30" x="127.246094"/>
       <use xlink:href="#DejaVuSans-30" x="190.869141"/>
       <use xlink:href="#DejaVuSans-30" x="254.492188"/>
      </g>
     </g>
    </g>
    <g id="xtick_4">
     <g id="line2d_4">
      <g>
       <use xlink:href="#md9bdd02fa9" x="262.07664" y="307.584" style="stroke: #000000; stroke-width: 0.8"/>
      </g>
     </g>
     <g id="text_4">
      <!-- 15000 -->
      <g transform="translate(246.17039 322.182437) scale(0.1 -0.1)">
       <use xlink:href="#DejaVuSans-31"/>
       <use xlink:href="#DejaVuSans-35" x="63.623047"/>
       <use xlink:href="#DejaVuSans-30" x="127.246094"/>
       <use xlink:href="#DejaVuSans-30" x="190.869141"/>
       <use xlink:href="#DejaVuSans-30" x="254.492188"/>
      </g>
     </g>
    </g>
    <g id="xtick_5">
     <g id="line2d_5">
      <g>
       <use xlink:href="#md9bdd02fa9" x="324.828794" y="307.584" style="stroke: #000000; stroke-width: 0.8"/>
      </g>
     </g>
     <g id="text_5">
      <!-- 20000 -->
      <g transform="translate(308.922544 322.182437) scale(0.1 -0.1)">
       <defs>
        <path id="DejaVuSans-32" d="M 1228 531 
L 3431 531 
L 3431 0 
L 469 0 
L 469 531 
Q 828 903 1448 1529 
Q 2069 2156 2228 2338 
Q 2531 2678 2651 2914 
Q 2772 3150 2772 3378 
Q 2772 3750 2511 3984 
Q 2250 4219 1831 4219 
Q 1534 4219 1204 4116 
Q 875 4013 500 3803 
L 500 4441 
Q 881 4594 1212 4672 
Q 1544 4750 1819 4750 
Q 2544 4750 2975 4387 
Q 3406 4025 3406 3419 
Q 3406 3131 3298 2873 
Q 3191 2616 2906 2266 
Q 2828 2175 2409 1742 
Q 1991 1309 1228 531 
z
" transform="scale(0.015625)"/>
       </defs>
       <use xlink:href="#DejaVuSans-32"/>
       <use xlink:href="#DejaVuSans-30" x="63.623047"/>
       <use xlink:href="#DejaVuSans-30" x="127.246094"/>
       <use xlink:href="#DejaVuSans-30" x="190.869141"/>
       <use xlink:href="#DejaVuSans-30" x="254.492188"/>
      </g>
     </g>
    </g>
    <g id="xtick_6">
     <g id="line2d_6">
      <g>
       <use xlink:href="#md9bdd02fa9" x="387.580948" y="307.584" style="stroke: #000000; stroke-width: 0.8"/>
      </g>
     </g>
     <g id="text_6">
      <!-- 25000 -->
      <g transform="translate(371.674698 322.182437) scale(0.1 -0.1)">
       <use xlink:href="#DejaVuSans-32"/>
       <use xlink:href="#DejaVuSans-35" x="63.623047"/>
       <use xlink:href="#DejaVuSans-30" x="127.246094"/>
       <use xlink:href="#DejaVuSans-30" x="190.869141"/>
       <use xlink:href="#DejaVuSans-30" x="254.492188"/>
      </g>
     </g>
    </g>
    <g id="text_7">
     <!-- iter# -->
     <g transform="translate(223.488906 335.860562) scale(0.1 -0.1)">
      <defs>
       <path id="DejaVuSans-69" d="M 603 3500 
L 1178 3500 
L 1178 0 
L 603 0 
L 603 3500 
z
M 603 4863 
L 1178 4863 
L 1178 4134 
L 603 4134 
L 603 4863 
z
" transform="scale(0.015625)"/>
       <path id="DejaVuSans-74" d="M 1172 4494 
L 1172 3500 
L 2356 3500 
L 2356 3053 
L 1172 3053 
L 1172 1153 
Q 1172 725 1289 603 
Q 1406 481 1766 481 
L 2356 481 
L 2356 0 
L 1766 0 
Q 1100 0 847 248 
Q 594 497 594 1153 
L 594 3053 
L 172 3053 
L 172 3500 
L 594 3500 
L 594 4494 
L 1172 4494 
z
" transform="scale(0.015625)"/>
       <path id="DejaVuSans-65" d="M 3597 1894 
L 3597 1613 
L 953 1613 
Q 991 1019 1311 708 
Q 1631 397 2203 397 
Q 2534 397 2845 478 
Q 3156 559 3463 722 
L 3463 178 
Q 3153 47 2828 -22 
Q 2503 -91 2169 -91 
Q 1331 -91 842 396 
Q 353 884 353 1716 
Q 353 2575 817 3079 
Q 1281 3584 2069 3584 
Q 2775 3584 3186 3129 
Q 3597 2675 3597 1894 
z
M 3022 2063 
Q 3016 2534 2758 2815 
Q 2500 3097 2075 3097 
Q 1594 3097 1305 2825 
Q 1016 2553 972 2059 
L 3022 2063 
z
" transform="scale(0.015625)"/>
       <path id="DejaVuSans-72" d="M 2631 2963 
Q 2534 3019 2420 3045 
Q 2306 3072 2169 3072 
Q 1681 3072 1420 2755 
Q 1159 2438 1159 1844 
L 1159 0 
L 581 0 
L 581 3500 
L 1159 3500 
L 1159 2956 
Q 1341 3275 1631 3429 
Q 1922 3584 2338 3584 
Q 2397 3584 2469 3576 
Q 2541 3569 2628 3553 
L 2631 2963 
z
" transform="scale(0.015625)"/>
       <path id="DejaVuSans-23" d="M 3272 2816 
L 2363 2816 
L 2100 1772 
L 3016 1772 
L 3272 2816 
z
M 2803 4594 
L 2478 3297 
L 3391 3297 
L 3719 4594 
L 4219 4594 
L 3897 3297 
L 4872 3297 
L 4872 2816 
L 3775 2816 
L 3519 1772 
L 4513 1772 
L 4513 1294 
L 3397 1294 
L 3072 0 
L 2572 0 
L 2894 1294 
L 1978 1294 
L 1656 0 
L 1153 0 
L 1478 1294 
L 494 1294 
L 494 1772 
L 1594 1772 
L 1856 2816 
L 850 2816 
L 850 3297 
L 1978 3297 
L 2297 4594 
L 2803 4594 
z
" transform="scale(0.015625)"/>
      </defs>
      <use xlink:href="#DejaVuSans-69"/>
      <use xlink:href="#DejaVuSans-74" x="27.783203"/>
      <use xlink:href="#DejaVuSans-65" x="66.992188"/>
      <use xlink:href="#DejaVuSans-72" x="128.515625"/>
      <use xlink:href="#DejaVuSans-23" x="169.628906"/>
     </g>
    </g>
   </g>
   <g id="matplotlib.axis_2">
    <g id="ytick_1">
     <g id="line2d_7">
      <defs>
       <path id="m3f4cb9f0ee" d="M 0 0 
L -3.5 0 
" style="stroke: #000000; stroke-width: 0.8"/>
      </defs>
      <g>
       <use xlink:href="#m3f4cb9f0ee" x="57.6" y="297.540264" style="stroke: #000000; stroke-width: 0.8"/>
      </g>
     </g>
     <g id="text_8">
      <!-- $\mathdefault{10^{-2}}$ -->
      <g transform="translate(27.1 301.339483) scale(0.1 -0.1)">
       <defs>
        <path id="DejaVuSans-2212" d="M 678 2272 
L 4684 2272 
L 4684 1741 
L 678 1741 
L 678 2272 
z
" transform="scale(0.015625)"/>
       </defs>
       <use xlink:href="#DejaVuSans-31" transform="translate(0 0.765625)"/>
       <use xlink:href="#DejaVuSans-30" transform="translate(63.623047 0.765625)"/>
       <use xlink:href="#DejaVuSans-2212" transform="translate(128.203125 39.046875) scale(0.7)"/>
       <use xlink:href="#DejaVuSans-32" transform="translate(186.855469 39.046875) scale(0.7)"/>
      </g>
     </g>
    </g>
    <g id="ytick_2">
     <g id="line2d_8">
      <g>
       <use xlink:href="#m3f4cb9f0ee" x="57.6" y="221.840457" style="stroke: #000000; stroke-width: 0.8"/>
      </g>
     </g>
     <g id="text_9">
      <!-- $\mathdefault{10^{-1}}$ -->
      <g transform="translate(27.1 225.639676) scale(0.1 -0.1)">
       <use xlink:href="#DejaVuSans-31" transform="translate(0 0.684375)"/>
       <use xlink:href="#DejaVuSans-30" transform="translate(63.623047 0.684375)"/>
       <use xlink:href="#DejaVuSans-2212" transform="translate(128.203125 38.965625) scale(0.7)"/>
       <use xlink:href="#DejaVuSans-31" transform="translate(186.855469 38.965625) scale(0.7)"/>
      </g>
     </g>
    </g>
    <g id="ytick_3">
     <g id="line2d_9">
      <g>
       <use xlink:href="#m3f4cb9f0ee" x="57.6" y="146.14065" style="stroke: #000000; stroke-width: 0.8"/>
      </g>
     </g>
     <g id="text_10">
      <!-- $\mathdefault{10^{0}}$ -->
      <g transform="translate(33 149.939869) scale(0.1 -0.1)">
       <use xlink:href="#DejaVuSans-31" transform="translate(0 0.765625)"/>
       <use xlink:href="#DejaVuSans-30" transform="translate(63.623047 0.765625)"/>
       <use xlink:href="#DejaVuSans-30" transform="translate(128.203125 39.046875) scale(0.7)"/>
      </g>
     </g>
    </g>
    <g id="ytick_4">
     <g id="line2d_10">
      <g>
       <use xlink:href="#m3f4cb9f0ee" x="57.6" y="70.440844" style="stroke: #000000; stroke-width: 0.8"/>
      </g>
     </g>
     <g id="text_11">
      <!-- $\mathdefault{10^{1}}$ -->
      <g transform="translate(33 74.240062) scale(0.1 -0.1)">
       <use xlink:href="#DejaVuSans-31" transform="translate(0 0.684375)"/>
       <use xlink:href="#DejaVuSans-30" transform="translate(63.623047 0.684375)"/>
       <use xlink:href="#DejaVuSans-31" transform="translate(128.203125 38.965625) scale(0.7)"/>
      </g>
     </g>
    </g>
    <g id="ytick_5">
     <g id="line2d_11">
      <defs>
       <path id="m0e1bb7216b" d="M 0 0 
L -2 0 
" style="stroke: #000000; stroke-width: 0.6"/>
      </defs>
      <g>
       <use xlink:href="#m0e1bb7216b" x="57.6" y="304.876333" style="stroke: #000000; stroke-width: 0.6"/>
      </g>
     </g>
    </g>
    <g id="ytick_6">
     <g id="line2d_12">
      <g>
       <use xlink:href="#m0e1bb7216b" x="57.6" y="301.004097" style="stroke: #000000; stroke-width: 0.6"/>
      </g>
     </g>
    </g>
    <g id="ytick_7">
     <g id="line2d_13">
      <g>
       <use xlink:href="#m0e1bb7216b" x="57.6" y="274.752351" style="stroke: #000000; stroke-width: 0.6"/>
      </g>
     </g>
    </g>
    <g id="ytick_8">
     <g id="line2d_14">
      <g>
       <use xlink:href="#m0e1bb7216b" x="57.6" y="261.422277" style="stroke: #000000; stroke-width: 0.6"/>
      </g>
     </g>
    </g>
    <g id="ytick_9">
     <g id="line2d_15">
      <g>
       <use xlink:href="#m0e1bb7216b" x="57.6" y="251.964439" style="stroke: #000000; stroke-width: 0.6"/>
      </g>
     </g>
    </g>
    <g id="ytick_10">
     <g id="line2d_16">
      <g>
       <use xlink:href="#m0e1bb7216b" x="57.6" y="244.62837" style="stroke: #000000; stroke-width: 0.6"/>
      </g>
     </g>
    </g>
    <g id="ytick_11">
     <g id="line2d_17">
      <g>
       <use xlink:href="#m0e1bb7216b" x="57.6" y="238.634365" style="stroke: #000000; stroke-width: 0.6"/>
      </g>
     </g>
    </g>
    <g id="ytick_12">
     <g id="line2d_18">
      <g>
       <use xlink:href="#m0e1bb7216b" x="57.6" y="233.566506" style="stroke: #000000; stroke-width: 0.6"/>
      </g>
     </g>
    </g>
    <g id="ytick_13">
     <g id="line2d_19">
      <g>
       <use xlink:href="#m0e1bb7216b" x="57.6" y="229.176526" style="stroke: #000000; stroke-width: 0.6"/>
      </g>
     </g>
    </g>
    <g id="ytick_14">
     <g id="line2d_20">
      <g>
       <use xlink:href="#m0e1bb7216b" x="57.6" y="225.30429" style="stroke: #000000; stroke-width: 0.6"/>
      </g>
     </g>
    </g>
    <g id="ytick_15">
     <g id="line2d_21">
      <g>
       <use xlink:href="#m0e1bb7216b" x="57.6" y="199.052545" style="stroke: #000000; stroke-width: 0.6"/>
      </g>
     </g>
    </g>
    <g id="ytick_16">
     <g id="line2d_22">
      <g>
       <use xlink:href="#m0e1bb7216b" x="57.6" y="185.72247" style="stroke: #000000; stroke-width: 0.6"/>
      </g>
     </g>
    </g>
    <g id="ytick_17">
     <g id="line2d_23">
      <g>
       <use xlink:href="#m0e1bb7216b" x="57.6" y="176.264632" style="stroke: #000000; stroke-width: 0.6"/>
      </g>
     </g>
    </g>
    <g id="ytick_18">
     <g id="line2d_24">
      <g>
       <use xlink:href="#m0e1bb7216b" x="57.6" y="168.928563" style="stroke: #000000; stroke-width: 0.6"/>
      </g>
     </g>
    </g>
    <g id="ytick_19">
     <g id="line2d_25">
      <g>
       <use xlink:href="#m0e1bb7216b" x="57.6" y="162.934558" style="stroke: #000000; stroke-width: 0.6"/>
      </g>
     </g>
    </g>
    <g id="ytick_20">
     <g id="line2d_26">
      <g>
       <use xlink:href="#m0e1bb7216b" x="57.6" y="157.866699" style="stroke: #000000; stroke-width: 0.6"/>
      </g>
     </g>
    </g>
    <g id="ytick_21">
     <g id="line2d_27">
      <g>
       <use xlink:href="#m0e1bb7216b" x="57.6" y="153.47672" style="stroke: #000000; stroke-width: 0.6"/>
      </g>
     </g>
    </g>
    <g id="ytick_22">
     <g id="line2d_28">
      <g>
       <use xlink:href="#m0e1bb7216b" x="57.6" y="149.604483" style="stroke: #000000; stroke-width: 0.6"/>
      </g>
     </g>
    </g>
    <g id="ytick_23">
     <g id="line2d_29">
      <g>
       <use xlink:href="#m0e1bb7216b" x="57.6" y="123.352738" style="stroke: #000000; stroke-width: 0.6"/>
      </g>
     </g>
    </g>
    <g id="ytick_24">
     <g id="line2d_30">
      <g>
       <use xlink:href="#m0e1bb7216b" x="57.6" y="110.022664" style="stroke: #000000; stroke-width: 0.6"/>
      </g>
     </g>
    </g>
    <g id="ytick_25">
     <g id="line2d_31">
      <g>
       <use xlink:href="#m0e1bb7216b" x="57.6" y="100.564825" style="stroke: #000000; stroke-width: 0.6"/>
      </g>
     </g>
    </g>
    <g id="ytick_26">
     <g id="line2d_32">
      <g>
       <use xlink:href="#m0e1bb7216b" x="57.6" y="93.228756" style="stroke: #000000; stroke-width: 0.6"/>
      </g>
     </g>
    </g>
    <g id="ytick_27">
     <g id="line2d_33">
      <g>
       <use xlink:href="#m0e1bb7216b" x="57.6" y="87.234751" style="stroke: #000000; stroke-width: 0.6"/>
      </g>
     </g>
    </g>
    <g id="ytick_28">
     <g id="line2d_34">
      <g>
       <use xlink:href="#m0e1bb7216b" x="57.6" y="82.166892" style="stroke: #000000; stroke-width: 0.6"/>
      </g>
     </g>
    </g>
    <g id="ytick_29">
     <g id="line2d_35">
      <g>
       <use xlink:href="#m0e1bb7216b" x="57.6" y="77.776913" style="stroke: #000000; stroke-width: 0.6"/>
      </g>
     </g>
    </g>
    <g id="ytick_30">
     <g id="line2d_36">
      <g>
       <use xlink:href="#m0e1bb7216b" x="57.6" y="73.904677" style="stroke: #000000; stroke-width: 0.6"/>
      </g>
     </g>
    </g>
    <g id="ytick_31">
     <g id="line2d_37">
      <g>
       <use xlink:href="#m0e1bb7216b" x="57.6" y="47.652931" style="stroke: #000000; stroke-width: 0.6"/>
      </g>
     </g>
    </g>
    <g id="text_12">
     <!-- loss -->
     <g transform="translate(21.020313 184.185812) rotate(-90) scale(0.1 -0.1)">
      <defs>
       <path id="DejaVuSans-6c" d="M 603 4863 
L 1178 4863 
L 1178 0 
L 603 0 
L 603 4863 
z
" transform="scale(0.015625)"/>
       <path id="DejaVuSans-6f" d="M 1959 3097 
Q 1497 3097 1228 2736 
Q 959 2375 959 1747 
Q 959 1119 1226 758 
Q 1494 397 1959 397 
Q 2419 397 2687 759 
Q 2956 1122 2956 1747 
Q 2956 2369 2687 2733 
Q 2419 3097 1959 3097 
z
M 1959 3584 
Q 2709 3584 3137 3096 
Q 3566 2609 3566 1747 
Q 3566 888 3137 398 
Q 2709 -91 1959 -91 
Q 1206 -91 779 398 
Q 353 888 353 1747 
Q 353 2609 779 3096 
Q 1206 3584 1959 3584 
z
" transform="scale(0.015625)"/>
       <path id="DejaVuSans-73" d="M 2834 3397 
L 2834 2853 
Q 2591 2978 2328 3040 
Q 2066 3103 1784 3103 
Q 1356 3103 1142 2972 
Q 928 2841 928 2578 
Q 928 2378 1081 2264 
Q 1234 2150 1697 2047 
L 1894 2003 
Q 2506 1872 2764 1633 
Q 3022 1394 3022 966 
Q 3022 478 2636 193 
Q 2250 -91 1575 -91 
Q 1294 -91 989 -36 
Q 684 19 347 128 
L 347 722 
Q 666 556 975 473 
Q 1284 391 1588 391 
Q 1994 391 2212 530 
Q 2431 669 2431 922 
Q 2431 1156 2273 1281 
Q 2116 1406 1581 1522 
L 1381 1569 
Q 847 1681 609 1914 
Q 372 2147 372 2553 
Q 372 3047 722 3315 
Q 1072 3584 1716 3584 
Q 2034 3584 2315 3537 
Q 2597 3491 2834 3397 
z
" transform="scale(0.015625)"/>
      </defs>
      <use xlink:href="#DejaVuSans-6c"/>
      <use xlink:href="#DejaVuSans-6f" x="27.783203"/>
      <use xlink:href="#DejaVuSans-73" x="88.964844"/>
      <use xlink:href="#DejaVuSans-73" x="141.064453"/>
     </g>
    </g>
   </g>
   <g id="line2d_38">
    <path d="M 73.832727 53.568 
L 74.635955 78.257025 
L 75.439182 93.962922 
L 76.24241 105.925674 
L 77.848865 124.879909 
L 79.45532 140.194283 
L 81.061775 153.826673 
L 85.077913 181.732398 
L 85.881141 184.781374 
L 86.684368 189.520582 
L 88.290824 197.876083 
L 89.897279 206.574551 
L 90.700506 209.586124 
L 91.503734 211.714126 
L 92.306961 214.671964 
L 93.110189 218.201344 
L 93.913417 219.177952 
L 94.716644 220.392681 
L 95.519872 219.847733 
L 96.323099 223.027272 
L 97.126327 224.050053 
L 97.929555 215.590972 
L 98.732782 219.809571 
L 99.53601 222.14608 
L 99.749367 224.812531 
L 100.552595 224.599096 
L 101.355822 226.085471 
L 102.15905 230.290012 
L 103.765505 237.345742 
L 104.568732 235.37137 
L 105.37196 238.34288 
L 106.175188 235.394323 
L 106.978415 237.869766 
L 107.781643 232.137404 
L 108.58487 234.81036 
L 109.388098 230.817013 
L 110.191325 233.01164 
L 110.994553 236.571344 
L 111.797781 238.919238 
L 112.601008 241.802113 
L 113.404236 239.750666 
L 114.207463 222.626207 
L 115.010691 225.003638 
L 116.617146 233.309962 
L 117.420374 236.074459 
L 118.223601 238.190803 
L 119.026829 229.645892 
L 119.830056 229.422606 
L 120.633284 230.327746 
L 121.436512 230.521714 
L 122.239739 225.35274 
L 123.042967 228.262849 
L 123.846194 221.902435 
L 124.649422 221.227466 
L 125.452649 225.636754 
L 125.666007 228.79791 
L 126.469234 232.419132 
L 127.272462 236.587611 
L 128.075689 235.915278 
L 128.878917 239.720191 
L 129.682145 240.128068 
L 130.485372 240.799477 
L 131.2886 239.505896 
L 132.091827 238.596751 
L 132.895055 230.981586 
L 133.698282 234.980083 
L 134.50151 226.173822 
L 135.304738 230.059005 
L 136.107965 232.336799 
L 136.911193 233.17195 
L 137.71442 232.726303 
L 138.517648 236.639178 
L 139.320875 229.611194 
L 140.124103 226.134506 
L 140.927331 228.764086 
L 141.730558 233.25224 
L 142.533786 227.555637 
L 143.337013 230.153793 
L 144.140241 227.539885 
L 145.746696 221.304202 
L 146.549924 225.53796 
L 147.353151 227.849829 
L 148.156379 227.101651 
L 148.959606 228.908442 
L 149.762834 231.084847 
L 150.566062 225.917893 
L 151.369289 225.788608 
L 151.582646 226.633753 
L 152.385874 230.849162 
L 153.992329 237.184572 
L 154.795557 237.070327 
L 155.598784 240.824648 
L 156.402012 243.723481 
L 157.205239 245.360661 
L 158.008467 248.598485 
L 159.614922 231.557945 
L 160.41815 232.83438 
L 161.221377 235.049418 
L 162.024605 239.144384 
L 162.827832 235.027847 
L 163.63106 229.466594 
L 164.434288 233.934192 
L 165.237515 234.628339 
L 166.040743 232.882436 
L 166.84397 231.979269 
L 167.647198 236.241778 
L 168.450426 237.493263 
L 169.253653 241.716996 
L 170.056881 243.595411 
L 170.860108 244.291686 
L 171.663336 240.731918 
L 172.466563 242.167305 
L 173.269791 240.872795 
L 174.073019 240.733048 
L 174.876246 232.696526 
L 175.679474 236.331656 
L 176.482701 238.491724 
L 177.285929 239.314418 
L 178.302514 241.498302 
L 179.105741 245.686666 
L 179.908969 246.151766 
L 180.712196 245.859276 
L 181.515424 248.285759 
L 182.318652 249.553275 
L 183.121879 250.229304 
L 183.925107 249.660534 
L 184.728334 248.45747 
L 185.531562 248.967415 
L 186.334789 250.786 
L 187.138017 240.340152 
L 187.941245 236.800217 
L 188.744472 240.029188 
L 189.5477 244.17836 
L 190.350927 246.574616 
L 191.154155 237.380847 
L 191.957383 240.448351 
L 193.563838 235.277144 
L 195.97352 246.792355 
L 196.776748 248.596688 
L 197.579976 249.686743 
L 198.383203 251.10578 
L 199.186431 253.216941 
L 199.989658 253.28443 
L 200.792886 250.131258 
L 201.596113 246.318592 
L 202.399341 245.351479 
L 203.202569 246.600721 
L 203.415926 243.158773 
L 204.219153 247.739511 
L 205.022381 251.372898 
L 205.825609 250.888909 
L 206.628836 248.935898 
L 207.432064 244.178963 
L 208.235291 247.878137 
L 209.038519 249.435923 
L 210.644974 236.966129 
L 211.448202 239.937129 
L 212.251429 235.177513 
L 213.054657 234.562295 
L 213.857884 236.580791 
L 214.661112 238.167013 
L 215.46434 240.516115 
L 216.267567 241.8418 
L 217.070795 228.407861 
L 217.874022 232.140775 
L 218.67725 234.979185 
L 219.480477 236.313817 
L 220.283705 236.969931 
L 221.086933 241.364976 
L 222.693388 246.934205 
L 223.496615 247.880322 
L 224.299843 251.153626 
L 225.10307 246.202264 
L 225.906298 243.367543 
L 226.709526 245.287484 
L 227.512753 248.573856 
L 228.315981 250.889197 
L 230.135793 261.368072 
L 230.939021 258.502797 
L 231.742248 262.688116 
L 233.348703 247.51041 
L 234.151931 248.431016 
L 234.955159 253.255456 
L 235.758386 256.702484 
L 236.561614 254.136835 
L 237.364841 246.909245 
L 238.168069 250.936866 
L 238.971297 255.938969 
L 239.774524 259.410139 
L 240.577752 259.89155 
L 241.380979 251.986948 
L 242.987434 250.598266 
L 243.790662 255.076116 
L 244.59389 242.220053 
L 247.003572 254.719635 
L 247.8068 256.38358 
L 248.610027 257.54167 
L 249.413255 251.711617 
L 250.216483 249.932598 
L 251.01971 251.999731 
L 251.822938 253.275085 
L 252.626165 255.470726 
L 253.429393 250.912808 
L 254.23262 244.345242 
L 255.035848 241.749513 
L 255.249205 242.245342 
L 256.052433 244.470549 
L 256.85566 248.998929 
L 257.658888 251.543051 
L 258.462116 255.719152 
L 259.265343 260.67416 
L 260.068571 263.218522 
L 260.871798 260.26303 
L 261.675026 260.428279 
L 262.478254 264.826029 
L 263.281481 267.051247 
L 264.084709 267.285226 
L 264.887936 267.787106 
L 265.691164 271.578018 
L 266.494391 272.880158 
L 267.297619 270.489704 
L 268.100847 274.621762 
L 268.904074 261.29017 
L 269.707302 264.255775 
L 270.510529 264.101195 
L 271.313757 264.714901 
L 272.116984 264.882844 
L 272.920212 262.108209 
L 273.72344 261.145354 
L 274.526667 256.96193 
L 275.329895 260.515458 
L 276.133122 263.355303 
L 276.93635 256.122823 
L 277.739577 260.334172 
L 278.542805 259.937386 
L 279.346033 257.468432 
L 280.14926 256.720727 
L 281.165845 248.042619 
L 281.969073 249.884955 
L 282.7723 254.402354 
L 283.575528 255.34372 
L 284.378755 257.65497 
L 285.181983 260.832711 
L 285.985211 259.794619 
L 286.788438 260.886401 
L 287.591666 251.278927 
L 288.394893 253.914057 
L 289.198121 252.314516 
L 291.607804 266.500578 
L 292.411031 263.381311 
L 293.214259 266.581607 
L 294.017486 269.180044 
L 294.820714 270.370977 
L 295.623941 273.474134 
L 296.427169 276.071507 
L 297.230397 275.787682 
L 298.033624 256.175353 
L 298.836852 258.816284 
L 299.640079 257.642047 
L 300.443307 257.829066 
L 301.246534 260.667491 
L 302.049762 262.028909 
L 302.85299 265.941965 
L 303.656217 259.170078 
L 304.459445 260.12656 
L 305.262672 254.636377 
L 306.0659 256.230392 
L 306.869127 258.444681 
L 307.082485 262.179057 
L 307.885712 265.970406 
L 309.492168 275.165775 
L 310.295395 277.123641 
L 311.098623 279.980689 
L 311.90185 272.605058 
L 312.705078 277.075643 
L 313.508305 277.587521 
L 314.311533 262.868438 
L 315.114761 267.195148 
L 315.917988 269.379534 
L 317.524443 277.337945 
L 318.327671 278.584186 
L 319.130898 275.019278 
L 319.934126 274.141915 
L 320.737354 270.226568 
L 321.540581 269.362586 
L 323.147036 277.799095 
L 323.950264 280.728439 
L 324.753491 281.236814 
L 325.556719 278.221863 
L 326.359947 276.144614 
L 327.163174 278.769148 
L 328.769629 284.608057 
L 329.572857 277.049251 
L 331.179312 285.274663 
L 331.98254 278.001776 
L 332.785767 276.063343 
L 332.999125 273.605578 
L 333.802352 275.315904 
L 336.212035 287.302845 
L 337.015262 290.473091 
L 337.81849 289.684115 
L 338.621718 281.073474 
L 339.424945 280.092125 
L 340.228173 278.047976 
L 341.0314 280.276142 
L 341.834628 275.838601 
L 342.637855 278.28233 
L 343.441083 274.821432 
L 344.244311 264.196722 
L 345.850766 273.791214 
L 346.653993 276.911088 
L 347.457221 274.273574 
L 348.260448 275.260304 
L 349.063676 277.140783 
L 349.866904 260.108482 
L 351.473359 267.998512 
L 352.276586 267.30171 
L 353.079814 268.910117 
L 353.883041 268.788089 
L 354.686269 256.669794 
L 356.292724 257.826813 
L 357.095952 262.243301 
L 357.899179 264.282331 
L 358.702407 268.934971 
L 358.915764 273.702118 
L 359.718992 276.590527 
L 360.522219 281.023507 
L 361.325447 281.744364 
L 362.128675 284.373198 
L 362.931902 287.407918 
L 363.73513 289.98818 
L 364.538357 264.294859 
L 366.144812 273.307401 
L 366.94804 277.695806 
L 367.751268 280.436879 
L 368.554495 284.235482 
L 369.357723 282.140636 
L 370.16095 282.315998 
L 370.964178 281.313386 
L 371.767405 278.657996 
L 372.570633 283.188782 
L 374.177088 277.098351 
L 374.980316 268.636088 
L 376.586771 275.950037 
L 377.389998 274.228705 
L 378.193226 267.070191 
L 378.996454 268.360246 
L 379.799681 265.128096 
L 380.602909 265.049777 
L 381.406136 269.7579 
L 382.209364 272.169396 
L 383.012591 268.08696 
L 383.815819 272.831428 
L 384.619047 269.066814 
L 384.832404 272.097984 
L 385.635632 276.72648 
L 386.438859 277.477088 
L 387.242087 281.660268 
L 388.045314 285.066729 
L 388.848542 280.32693 
L 389.651769 280.317609 
L 390.454997 281.395017 
L 392.061452 289.733644 
L 393.667907 291.614711 
L 394.471135 277.46324 
L 396.07759 284.810233 
L 396.880818 284.815836 
L 398.487273 287.456082 
L 398.487273 287.456082 
" clip-path="url(#p04315fcb63)" style="fill: none; stroke: #1f77b4; stroke-opacity: 0.9; stroke-linecap: square"/>
   </g>
   <g id="line2d_39">
    <path d="M 73.832727 128.059142 
L 74.635955 147.587438 
L 75.439182 161.150721 
L 77.045638 178.497856 
L 78.652093 191.052679 
L 80.258548 200.776449 
L 81.865003 208.796432 
L 83.471458 217.916141 
L 84.274686 220.478265 
L 85.077913 224.357393 
L 85.881141 226.87879 
L 86.684368 227.350889 
L 87.487596 229.002648 
L 88.290824 230.201645 
L 89.897279 234.482772 
L 91.503734 236.38141 
L 92.306961 238.063613 
L 93.110189 240.107156 
L 93.913417 242.47495 
L 94.716644 241.543702 
L 95.519872 243.401831 
L 96.323099 244.669268 
L 97.126327 244.085842 
L 97.929555 245.77703 
L 98.732782 248.366211 
L 99.53601 244.813396 
L 99.749367 240.852021 
L 100.552595 238.938323 
L 101.355822 239.051354 
L 102.15905 239.581374 
L 102.962277 242.71306 
L 103.765505 242.809844 
L 104.568732 244.955379 
L 105.37196 247.579422 
L 106.175188 249.658183 
L 106.978415 251.055434 
L 107.781643 250.657816 
L 108.58487 243.190569 
L 109.388098 246.36566 
L 110.994553 247.63706 
L 111.797781 246.846097 
L 112.601008 245.021292 
L 113.404236 248.517267 
L 114.207463 247.049077 
L 115.010691 247.669254 
L 115.813918 250.605936 
L 116.617146 246.711915 
L 117.420374 249.537187 
L 118.223601 250.10651 
L 119.026829 252.371765 
L 119.830056 249.560683 
L 120.633284 250.257803 
L 121.436512 252.704647 
L 122.239739 248.703321 
L 123.042967 250.235859 
L 123.846194 253.521048 
L 124.649422 254.972934 
L 125.452649 250.085385 
L 125.666007 253.229848 
L 127.272462 258.955128 
L 128.075689 260.742286 
L 128.878917 260.693633 
L 129.682145 259.719177 
L 130.485372 260.171612 
L 131.2886 250.578825 
L 132.091827 253.092194 
L 132.895055 256.173996 
L 133.698282 252.069058 
L 134.50151 253.837551 
L 135.304738 256.521942 
L 136.107965 258.228318 
L 136.911193 257.859091 
L 137.71442 253.336258 
L 138.517648 254.37672 
L 139.320875 256.507615 
L 140.124103 254.370454 
L 140.927331 254.131014 
L 141.730558 255.921051 
L 142.533786 253.881302 
L 143.337013 254.767895 
L 144.140241 257.402732 
L 145.746696 262.180795 
L 146.549924 263.769382 
L 147.353151 257.026255 
L 148.959606 262.144195 
L 149.762834 263.831471 
L 150.566062 266.186061 
L 151.369289 265.163679 
L 151.582646 266.988615 
L 152.385874 267.972171 
L 153.189102 269.174371 
L 153.992329 262.111946 
L 154.795557 260.284962 
L 155.598784 254.378441 
L 156.402012 254.562 
L 157.205239 258.078248 
L 158.008467 260.139745 
L 158.811695 262.813116 
L 159.614922 259.093171 
L 160.41815 250.120614 
L 161.221377 251.023829 
L 162.024605 254.368558 
L 162.827832 256.005865 
L 163.63106 255.675973 
L 164.434288 258.876976 
L 165.237515 257.167075 
L 166.040743 251.997193 
L 166.84397 250.621863 
L 167.647198 253.193131 
L 168.450426 246.356588 
L 169.253653 249.674312 
L 170.056881 250.420875 
L 170.860108 254.440955 
L 171.663336 256.058916 
L 172.466563 256.923614 
L 173.269791 260.308872 
L 174.073019 260.622463 
L 174.876246 261.619187 
L 175.679474 253.893066 
L 176.482701 255.303556 
L 177.285929 258.016472 
L 177.499286 261.305512 
L 178.302514 261.442209 
L 179.105741 262.230599 
L 179.908969 262.682931 
L 180.712196 262.003436 
L 181.515424 264.921329 
L 182.318652 260.502031 
L 183.121879 262.353527 
L 183.925107 256.119277 
L 184.728334 256.947378 
L 185.531562 258.652469 
L 186.334789 261.473368 
L 187.138017 258.259934 
L 188.744472 263.660257 
L 189.5477 265.700777 
L 190.350927 260.911902 
L 191.154155 263.423917 
L 191.957383 262.741901 
L 192.76061 260.163294 
L 193.563838 263.440991 
L 194.367065 266.076231 
L 195.170293 267.113276 
L 195.97352 264.688199 
L 196.776748 266.876407 
L 197.579976 269.46661 
L 198.383203 271.613587 
L 199.186431 273.28127 
L 199.989658 273.891351 
L 200.792886 264.175211 
L 201.596113 267.293445 
L 203.202569 268.721402 
L 203.415926 266.163164 
L 204.219153 266.734781 
L 205.022381 267.092969 
L 205.825609 269.474534 
L 206.628836 270.724242 
L 207.432064 270.354316 
L 208.235291 263.6894 
L 209.038519 266.340308 
L 209.841746 267.206052 
L 210.644974 269.73851 
L 211.448202 261.903847 
L 212.251429 264.203026 
L 213.054657 266.982504 
L 213.857884 267.226168 
L 214.661112 262.906723 
L 215.46434 259.278398 
L 216.267567 258.512589 
L 217.070795 258.791158 
L 217.874022 262.464924 
L 218.67725 265.351595 
L 219.480477 266.940455 
L 220.283705 269.375559 
L 221.086933 265.368257 
L 221.89016 264.35894 
L 222.693388 265.238582 
L 223.496615 257.546848 
L 224.299843 260.366459 
L 225.10307 258.344588 
L 225.906298 259.678272 
L 226.709526 259.938889 
L 227.512753 261.035085 
L 228.315981 263.609071 
L 229.119208 262.205418 
L 229.332566 264.331014 
L 230.135793 267.529498 
L 230.939021 267.081077 
L 231.742248 265.549573 
L 232.545476 268.800397 
L 233.348703 270.10205 
L 234.151931 268.745724 
L 234.955159 271.831957 
L 235.758386 264.329305 
L 236.561614 267.697132 
L 238.168069 271.756111 
L 238.971297 273.148076 
L 239.774524 272.421974 
L 240.577752 272.635878 
L 241.380979 275.163713 
L 242.184207 269.489133 
L 242.987434 271.779784 
L 243.790662 274.470163 
L 244.59389 270.769792 
L 245.397117 271.548861 
L 246.200345 271.448547 
L 247.003572 273.395125 
L 247.8068 274.587154 
L 248.610027 275.991124 
L 249.413255 267.798276 
L 250.216483 268.667127 
L 251.01971 271.266011 
L 251.822938 271.079598 
L 252.626165 272.761822 
L 253.429393 269.56928 
L 254.23262 271.403464 
L 255.035848 272.638799 
L 255.249205 273.475079 
L 256.052433 275.236157 
L 256.85566 272.434796 
L 257.658888 275.382238 
L 260.068571 272.513216 
L 260.871798 272.431812 
L 261.675026 274.394943 
L 262.478254 274.794524 
L 263.281481 272.905289 
L 265.691164 280.080389 
L 266.494391 275.543422 
L 267.297619 277.748657 
L 268.100847 275.13543 
L 268.904074 276.35837 
L 269.707302 278.758614 
L 270.510529 278.34736 
L 271.313757 271.244643 
L 272.116984 271.180834 
L 272.920212 274.229327 
L 273.72344 275.637491 
L 274.526667 269.872595 
L 275.329895 272.602189 
L 276.133122 269.499561 
L 276.93635 270.160308 
L 277.739577 272.775905 
L 278.542805 268.617245 
L 279.346033 271.597651 
L 280.14926 269.054254 
L 280.952488 270.329103 
L 281.165845 272.713124 
L 281.969073 272.604915 
L 282.7723 271.973055 
L 283.575528 270.910048 
L 284.378755 269.092875 
L 285.181983 271.344632 
L 285.985211 267.40072 
L 286.788438 267.7828 
L 287.591666 270.598273 
L 288.394893 272.74635 
L 289.198121 275.558948 
L 290.001348 271.449306 
L 290.804576 266.262982 
L 291.607804 269.441633 
L 292.411031 271.362998 
L 293.214259 272.828177 
L 294.017486 275.593991 
L 294.820714 276.134687 
L 295.623941 274.30732 
L 296.427169 275.01796 
L 297.230397 276.197663 
L 298.033624 278.395996 
L 298.836852 279.303267 
L 299.640079 281.851363 
L 300.443307 282.715871 
L 301.246534 279.272329 
L 302.049762 281.536121 
L 302.85299 282.092797 
L 303.656217 279.273774 
L 304.459445 278.781304 
L 305.262672 280.84677 
L 306.0659 275.738617 
L 306.869127 278.029307 
L 307.082485 277.421235 
L 307.885712 271.377038 
L 308.68894 274.740754 
L 309.492168 276.471126 
L 310.295395 274.104432 
L 311.098623 277.102583 
L 311.90185 277.478617 
L 312.705078 278.42018 
L 313.508305 280.083751 
L 314.311533 280.661201 
L 315.114761 277.174573 
L 315.917988 275.989075 
L 316.721216 277.921112 
L 317.524443 279.151482 
L 318.327671 281.954686 
L 319.130898 284.32697 
L 319.934126 277.246939 
L 321.540581 281.354559 
L 322.343809 282.670575 
L 323.147036 284.718668 
L 323.950264 283.152443 
L 324.753491 279.539377 
L 325.556719 279.489614 
L 326.359947 282.031369 
L 327.163174 283.537609 
L 327.966402 278.675963 
L 328.769629 280.591864 
L 329.572857 273.545157 
L 330.376084 274.707007 
L 331.179312 276.982624 
L 331.98254 279.962511 
L 332.785767 278.645793 
L 332.999125 279.236497 
L 334.60558 284.602308 
L 335.408807 281.6958 
L 336.212035 280.567763 
L 337.015262 280.74219 
L 337.81849 281.30609 
L 338.621718 279.395039 
L 339.424945 280.586736 
L 340.228173 275.082463 
L 341.0314 277.063152 
L 342.637855 282.405406 
L 343.441083 281.863249 
L 344.244311 280.579859 
L 345.047538 277.129019 
L 345.850766 280.035587 
L 346.653993 279.938992 
L 347.457221 279.454293 
L 348.260448 280.18959 
L 349.063676 275.055907 
L 349.866904 278.277383 
L 350.670131 280.590548 
L 351.473359 280.080199 
L 352.276586 282.287856 
L 353.079814 281.195242 
L 353.883041 283.125284 
L 354.686269 278.051645 
L 356.292724 283.80242 
L 357.095952 286.503673 
L 357.899179 286.50554 
L 358.702407 285.217502 
L 358.915764 285.494496 
L 359.718992 280.222458 
L 360.522219 282.887171 
L 361.325447 283.975949 
L 362.128675 286.209061 
L 362.931902 287.148194 
L 363.73513 282.830836 
L 364.538357 281.843076 
L 365.341585 280.268328 
L 366.144812 281.820963 
L 366.94804 283.703313 
L 367.751268 275.745948 
L 368.554495 278.584911 
L 369.357723 276.876879 
L 370.16095 279.037333 
L 370.964178 280.293786 
L 371.767405 281.101733 
L 372.570633 283.626555 
L 373.373861 283.351482 
L 374.177088 284.218534 
L 374.980316 286.085381 
L 376.586771 290.466423 
L 377.389998 292.241495 
L 378.193226 286.396588 
L 378.996454 287.84317 
L 379.799681 286.256258 
L 380.602909 287.710416 
L 381.406136 289.814946 
L 382.209364 288.555481 
L 383.012591 289.028225 
L 383.815819 291.511897 
L 384.619047 291.900054 
L 384.832404 290.84993 
L 385.635632 290.541959 
L 386.438859 290.6939 
L 387.242087 289.080813 
L 388.045314 285.313093 
L 388.848542 284.408298 
L 389.651769 286.698719 
L 390.454997 283.846311 
L 391.258225 284.054642 
L 392.061452 286.551704 
L 392.86468 288.165225 
L 393.667907 290.191796 
L 394.471135 286.872043 
L 395.274362 285.885636 
L 396.07759 284.084046 
L 396.880818 286.787999 
L 398.487273 291.233086 
L 398.487273 291.233086 
" clip-path="url(#p04315fcb63)" style="fill: none; stroke: #ff7f0e; stroke-opacity: 0.9; stroke-linecap: square"/>
   </g>
   <g id="line2d_40">
    <path d="M 73.832727 141.926858 
L 74.635955 160.515635 
L 75.439182 173.058142 
L 76.24241 182.890945 
L 77.848865 196.233379 
L 79.45532 208.211109 
L 80.258548 209.300926 
L 81.061775 213.485944 
L 81.865003 213.936147 
L 82.668231 218.52066 
L 83.471458 220.819058 
L 84.274686 225.08057 
L 86.684368 231.298268 
L 87.487596 234.295879 
L 88.290824 235.858341 
L 89.094051 235.474363 
L 89.897279 235.564459 
L 90.700506 236.984511 
L 93.110189 246.099654 
L 93.913417 246.601737 
L 94.716644 241.30177 
L 95.519872 242.284969 
L 96.323099 242.035213 
L 97.126327 241.104064 
L 97.929555 243.802754 
L 98.732782 245.642075 
L 99.53601 248.275757 
L 99.749367 244.445526 
L 100.552595 247.967698 
L 102.15905 252.979057 
L 102.962277 251.100858 
L 104.568732 255.850493 
L 105.37196 258.354919 
L 106.175188 248.077377 
L 107.781643 254.868248 
L 108.58487 252.902776 
L 109.388098 254.816565 
L 110.994553 259.810408 
L 111.797781 260.506295 
L 112.601008 261.388731 
L 113.404236 262.890958 
L 114.207463 251.44844 
L 115.010691 246.098521 
L 115.813918 246.992974 
L 116.617146 244.415879 
L 117.420374 246.386507 
L 118.223601 241.026734 
L 119.026829 237.749945 
L 119.830056 237.265471 
L 120.633284 238.498127 
L 122.239739 245.944166 
L 123.042967 246.563316 
L 123.846194 239.49797 
L 124.649422 243.117063 
L 125.452649 246.071913 
L 125.666007 249.312449 
L 126.469234 249.987218 
L 128.075689 253.257815 
L 128.878917 256.690326 
L 129.682145 257.289989 
L 130.485372 259.581803 
L 131.2886 257.764114 
L 132.091827 256.549561 
L 132.895055 246.533167 
L 133.698282 250.424207 
L 134.50151 247.979439 
L 135.304738 251.674264 
L 136.107965 253.955859 
L 136.911193 254.859319 
L 138.517648 258.405845 
L 139.320875 257.833344 
L 140.124103 259.788093 
L 140.927331 262.717712 
L 141.730558 258.439006 
L 142.533786 260.244383 
L 143.337013 263.218361 
L 144.140241 262.502396 
L 144.943469 261.222342 
L 145.746696 264.049095 
L 146.549924 249.482222 
L 147.353151 251.018974 
L 148.156379 250.117458 
L 148.959606 250.331717 
L 149.762834 246.65459 
L 150.566062 249.697131 
L 151.369289 249.961591 
L 151.582646 248.522301 
L 152.385874 252.435395 
L 153.189102 244.731458 
L 153.992329 242.68559 
L 154.795557 246.905568 
L 155.598784 246.722022 
L 156.402012 250.523249 
L 157.205239 253.607245 
L 158.008467 255.465593 
L 159.614922 261.584798 
L 160.41815 255.35655 
L 161.221377 258.171757 
L 162.024605 261.748598 
L 162.827832 263.973979 
L 163.63106 266.871508 
L 164.434288 268.939903 
L 165.237515 266.840102 
L 166.040743 268.797186 
L 166.84397 267.962288 
L 167.647198 269.772306 
L 168.450426 264.161542 
L 169.253653 263.935304 
L 170.056881 264.383732 
L 170.860108 263.891927 
L 171.663336 266.081698 
L 172.466563 265.767198 
L 173.269791 263.972177 
L 174.073019 263.211629 
L 174.876246 258.143459 
L 175.679474 257.160784 
L 177.285929 263.792303 
L 177.499286 266.426233 
L 178.302514 269.261849 
L 179.105741 271.303539 
L 179.908969 270.629448 
L 180.712196 272.790625 
L 181.515424 273.339279 
L 183.121879 270.000394 
L 183.925107 271.704792 
L 184.728334 267.435403 
L 185.531562 265.592874 
L 186.334789 267.89048 
L 187.138017 266.752584 
L 187.941245 267.672264 
L 188.744472 265.374044 
L 189.5477 261.520741 
L 190.350927 260.551106 
L 191.154155 263.372713 
L 191.957383 266.601011 
L 192.76061 265.411221 
L 193.563838 267.368188 
L 195.170293 272.778743 
L 195.97352 274.538171 
L 196.776748 273.972679 
L 197.579976 272.051058 
L 198.383203 271.756517 
L 199.989658 272.56468 
L 200.792886 273.922172 
L 202.399341 278.132673 
L 203.202569 279.079201 
L 203.415926 266.13117 
L 204.219153 269.210198 
L 205.022381 268.939756 
L 205.825609 262.690543 
L 207.432064 268.365515 
L 208.235291 262.377072 
L 209.038519 260.746451 
L 209.841746 253.439664 
L 210.644974 251.909042 
L 211.448202 248.419144 
L 213.054657 256.458263 
L 213.857884 260.026275 
L 214.661112 257.723318 
L 215.46434 258.651079 
L 216.267567 259.90722 
L 217.070795 263.671007 
L 217.874022 264.689897 
L 219.480477 270.750794 
L 220.283705 263.070119 
L 221.086933 256.473346 
L 221.89016 259.401104 
L 223.496615 266.492058 
L 224.299843 268.629905 
L 225.10307 267.841944 
L 225.906298 269.334415 
L 227.512753 273.730971 
L 229.119208 271.059658 
L 229.332566 272.875531 
L 230.135793 274.595896 
L 230.939021 277.25859 
L 231.742248 278.535322 
L 232.545476 279.089051 
L 233.348703 278.609296 
L 234.151931 277.48048 
L 234.955159 279.852375 
L 235.758386 277.926649 
L 236.561614 279.474032 
L 237.364841 281.649743 
L 238.168069 282.957856 
L 238.971297 275.636408 
L 239.774524 274.42731 
L 240.577752 272.873383 
L 241.380979 271.648386 
L 242.184207 271.551845 
L 242.987434 267.4756 
L 243.790662 268.261657 
L 244.59389 271.198324 
L 245.397117 269.171659 
L 246.200345 268.293402 
L 247.003572 266.032837 
L 247.8068 266.507484 
L 248.610027 268.189288 
L 249.413255 266.682906 
L 250.216483 270.075 
L 251.01971 268.409901 
L 251.822938 269.886181 
L 252.626165 270.021645 
L 253.429393 271.026136 
L 254.23262 274.146979 
L 255.035848 271.126575 
L 255.249205 274.087797 
L 256.052433 274.428095 
L 256.85566 274.454557 
L 257.658888 275.615463 
L 258.462116 277.974355 
L 259.265343 276.162872 
L 260.068571 276.460655 
L 260.871798 278.937665 
L 261.675026 280.582632 
L 262.478254 280.342207 
L 263.281481 282.554138 
L 264.084709 283.642641 
L 264.887936 285.307785 
L 265.691164 286.256051 
L 266.494391 286.067677 
L 267.297619 284.22474 
L 268.100847 275.851174 
L 268.904074 277.723105 
L 269.707302 272.879482 
L 270.510529 274.933502 
L 271.313757 273.009567 
L 272.116984 269.604428 
L 272.920212 271.779871 
L 273.72344 274.820037 
L 275.329895 272.933553 
L 276.133122 269.957735 
L 276.93635 271.832828 
L 277.739577 274.331245 
L 278.542805 273.940189 
L 279.346033 275.276866 
L 280.14926 277.518116 
L 280.952488 280.121425 
L 281.165845 282.732244 
L 281.969073 278.367634 
L 282.7723 281.020997 
L 283.575528 282.485389 
L 284.378755 277.647225 
L 285.181983 278.521686 
L 285.985211 280.574876 
L 287.591666 285.965488 
L 288.394893 287.566128 
L 289.198121 283.824573 
L 290.001348 282.44152 
L 290.804576 284.749876 
L 291.607804 285.527217 
L 292.411031 286.845744 
L 293.214259 286.57606 
L 294.017486 287.01619 
L 294.820714 289.072881 
L 295.623941 289.857641 
L 296.427169 291.924629 
L 297.230397 291.148124 
L 298.033624 287.041421 
L 298.836852 288.555939 
L 299.640079 290.462744 
L 300.443307 291.955118 
L 301.246534 291.726879 
L 302.049762 292.561124 
L 302.85299 293.78572 
L 303.656217 289.896214 
L 304.459445 276.305503 
L 305.262672 279.245527 
L 306.0659 272.915129 
L 306.869127 275.810763 
L 307.082485 279.090827 
L 307.885712 280.339978 
L 309.492168 285.843032 
L 310.295395 284.78421 
L 311.098623 283.278328 
L 312.705078 287.82581 
L 313.508305 287.939903 
L 314.311533 290.022243 
L 315.114761 286.180532 
L 315.917988 289.001108 
L 316.721216 285.900053 
L 317.524443 286.100056 
L 318.327671 285.522273 
L 319.130898 287.479268 
L 319.934126 279.233351 
L 320.737354 281.825585 
L 322.343809 285.448982 
L 323.147036 288.191398 
L 323.950264 287.296513 
L 324.753491 287.418742 
L 325.556719 288.798309 
L 326.359947 289.482802 
L 327.163174 291.356793 
L 327.966402 292.501939 
L 328.769629 293.330597 
L 329.572857 286.936022 
L 330.376084 286.885481 
L 332.785767 293.702737 
L 332.999125 288.169006 
L 334.60558 291.847127 
L 335.408807 282.723105 
L 336.212035 283.461086 
L 337.81849 285.328168 
L 338.621718 280.114975 
L 339.424945 282.475459 
L 340.228173 276.917196 
L 341.0314 276.520071 
L 341.834628 278.708466 
L 342.637855 281.617167 
L 343.441083 282.929715 
L 344.244311 283.636196 
L 345.047538 282.194734 
L 345.850766 284.297922 
L 346.653993 284.852465 
L 347.457221 284.890296 
L 348.260448 286.925176 
L 349.063676 284.065032 
L 349.866904 287.311295 
L 350.670131 289.428845 
L 351.473359 285.509158 
L 352.276586 287.266997 
L 353.079814 287.334785 
L 353.883041 288.776196 
L 354.686269 283.901687 
L 355.489497 286.695236 
L 356.292724 288.055699 
L 357.095952 290.906404 
L 357.899179 291.51735 
L 358.702407 289.37102 
L 358.915764 291.297045 
L 359.718992 284.986521 
L 360.522219 286.395937 
L 361.325447 288.316419 
L 362.128675 287.568739 
L 362.931902 288.097919 
L 363.73513 286.849742 
L 364.538357 288.058578 
L 365.341585 287.717116 
L 366.144812 290.601829 
L 366.94804 290.144978 
L 367.751268 280.637777 
L 368.554495 281.496844 
L 369.357723 280.040578 
L 370.16095 282.961983 
L 370.964178 285.281392 
L 371.767405 288.434607 
L 372.570633 291.012789 
L 373.373861 289.224809 
L 374.177088 288.7741 
L 374.980316 291.192125 
L 375.783543 292.365796 
L 376.586771 292.698412 
L 377.389998 294.950644 
L 378.193226 289.709616 
L 378.996454 291.455344 
L 379.799681 289.632685 
L 380.602909 291.228219 
L 381.406136 294.196009 
L 382.209364 291.263058 
L 383.012591 289.861762 
L 383.815819 291.856054 
L 384.832404 293.743857 
L 385.635632 295.488 
L 386.438859 295.190231 
L 388.045314 291.520319 
L 388.848542 294.289981 
L 389.651769 291.342 
L 390.454997 289.498486 
L 391.258225 290.244113 
L 392.061452 292.677964 
L 392.86468 290.171829 
L 393.667907 288.983809 
L 394.471135 290.496721 
L 395.274362 289.48249 
L 396.07759 291.020375 
L 396.880818 284.589148 
L 397.684045 285.502061 
L 398.487273 287.935095 
L 398.487273 287.935095 
" clip-path="url(#p04315fcb63)" style="fill: none; stroke: #2ca02c; stroke-opacity: 0.9; stroke-linecap: square"/>
   </g>
   <g id="patch_3">
    <path d="M 57.6 307.584 
L 57.6 41.472 
" style="fill: none; stroke: #000000; stroke-width: 0.8; stroke-linejoin: miter; stroke-linecap: square"/>
   </g>
   <g id="patch_4">
    <path d="M 414.72 307.584 
L 414.72 41.472 
" style="fill: none; stroke: #000000; stroke-width: 0.8; stroke-linejoin: miter; stroke-linecap: square"/>
   </g>
   <g id="patch_5">
    <path d="M 57.6 307.584 
L 414.72 307.584 
" style="fill: none; stroke: #000000; stroke-width: 0.8; stroke-linejoin: miter; stroke-linecap: square"/>
   </g>
   <g id="patch_6">
    <path d="M 57.6 41.472 
L 414.72 41.472 
" style="fill: none; stroke: #000000; stroke-width: 0.8; stroke-linejoin: miter; stroke-linecap: square"/>
   </g>
   <g id="text_13">
    <!-- 2025-02-19-00:10:05 -->
    <g transform="translate(172.178438 35.472) scale(0.12 -0.12)">
     <defs>
      <path id="DejaVuSans-2d" d="M 313 2009 
L 1997 2009 
L 1997 1497 
L 313 1497 
L 313 2009 
z
" transform="scale(0.015625)"/>
      <path id="DejaVuSans-39" d="M 703 97 
L 703 672 
Q 941 559 1184 500 
Q 1428 441 1663 441 
Q 2288 441 2617 861 
Q 2947 1281 2994 2138 
Q 2813 1869 2534 1725 
Q 2256 1581 1919 1581 
Q 1219 1581 811 2004 
Q 403 2428 403 3163 
Q 403 3881 828 4315 
Q 1253 4750 1959 4750 
Q 2769 4750 3195 4129 
Q 3622 3509 3622 2328 
Q 3622 1225 3098 567 
Q 2575 -91 1691 -91 
Q 1453 -91 1209 -44 
Q 966 3 703 97 
z
M 1959 2075 
Q 2384 2075 2632 2365 
Q 2881 2656 2881 3163 
Q 2881 3666 2632 3958 
Q 2384 4250 1959 4250 
Q 1534 4250 1286 3958 
Q 1038 3666 1038 3163 
Q 1038 2656 1286 2365 
Q 1534 2075 1959 2075 
z
" transform="scale(0.015625)"/>
      <path id="DejaVuSans-3a" d="M 750 794 
L 1409 794 
L 1409 0 
L 750 0 
L 750 794 
z
M 750 3309 
L 1409 3309 
L 1409 2516 
L 750 2516 
L 750 3309 
z
" transform="scale(0.015625)"/>
     </defs>
     <use xlink:href="#DejaVuSans-32"/>
     <use xlink:href="#DejaVuSans-30" x="63.623047"/>
     <use xlink:href="#DejaVuSans-32" x="127.246094"/>
     <use xlink:href="#DejaVuSans-35" x="190.869141"/>
     <use xlink:href="#DejaVuSans-2d" x="254.492188"/>
     <use xlink:href="#DejaVuSans-30" x="290.576172"/>
     <use xlink:href="#DejaVuSans-32" x="354.199219"/>
     <use xlink:href="#DejaVuSans-2d" x="417.822266"/>
     <use xlink:href="#DejaVuSans-31" x="453.90625"/>
     <use xlink:href="#DejaVuSans-39" x="517.529297"/>
     <use xlink:href="#DejaVuSans-2d" x="581.152344"/>
     <use xlink:href="#DejaVuSans-30" x="617.236328"/>
     <use xlink:href="#DejaVuSans-30" x="680.859375"/>
     <use xlink:href="#DejaVuSans-3a" x="744.482422"/>
     <use xlink:href="#DejaVuSans-31" x="778.173828"/>
     <use xlink:href="#DejaVuSans-30" x="841.796875"/>
     <use xlink:href="#DejaVuSans-3a" x="905.419922"/>
     <use xlink:href="#DejaVuSans-30" x="939.111328"/>
     <use xlink:href="#DejaVuSans-35" x="1002.734375"/>
    </g>
   </g>
   <g id="legend_1">
    <g id="patch_7">
     <path d="M 281.596563 94.34075 
L 407.72 94.34075 
Q 409.72 94.34075 409.72 92.34075 
L 409.72 48.472 
Q 409.72 46.472 407.72 46.472 
L 281.596563 46.472 
Q 279.596563 46.472 279.596563 48.472 
L 279.596563 92.34075 
Q 279.596563 94.34075 281.596563 94.34075 
z
" style="fill: #ffffff; opacity: 0.8; stroke: #cccccc; stroke-linejoin: miter"/>
    </g>
    <g id="line2d_41">
     <path d="M 283.596563 54.570438 
L 293.596563 54.570438 
L 303.596563 54.570438 
" style="fill: none; stroke: #1f77b4; stroke-opacity: 0.9; stroke-linecap: square"/>
    </g>
    <g id="text_14">
     <!-- SchNet eval_loss -->
     <g transform="translate(311.596563 58.070438) scale(0.1 -0.1)">
      <defs>
       <path id="DejaVuSans-53" d="M 3425 4513 
L 3425 3897 
Q 3066 4069 2747 4153 
Q 2428 4238 2131 4238 
Q 1616 4238 1336 4038 
Q 1056 3838 1056 3469 
Q 1056 3159 1242 3001 
Q 1428 2844 1947 2747 
L 2328 2669 
Q 3034 2534 3370 2195 
Q 3706 1856 3706 1288 
Q 3706 609 3251 259 
Q 2797 -91 1919 -91 
Q 1588 -91 1214 -16 
Q 841 59 441 206 
L 441 856 
Q 825 641 1194 531 
Q 1563 422 1919 422 
Q 2459 422 2753 634 
Q 3047 847 3047 1241 
Q 3047 1584 2836 1778 
Q 2625 1972 2144 2069 
L 1759 2144 
Q 1053 2284 737 2584 
Q 422 2884 422 3419 
Q 422 4038 858 4394 
Q 1294 4750 2059 4750 
Q 2388 4750 2728 4690 
Q 3069 4631 3425 4513 
z
" transform="scale(0.015625)"/>
       <path id="DejaVuSans-63" d="M 3122 3366 
L 3122 2828 
Q 2878 2963 2633 3030 
Q 2388 3097 2138 3097 
Q 1578 3097 1268 2742 
Q 959 2388 959 1747 
Q 959 1106 1268 751 
Q 1578 397 2138 397 
Q 2388 397 2633 464 
Q 2878 531 3122 666 
L 3122 134 
Q 2881 22 2623 -34 
Q 2366 -91 2075 -91 
Q 1284 -91 818 406 
Q 353 903 353 1747 
Q 353 2603 823 3093 
Q 1294 3584 2113 3584 
Q 2378 3584 2631 3529 
Q 2884 3475 3122 3366 
z
" transform="scale(0.015625)"/>
       <path id="DejaVuSans-68" d="M 3513 2113 
L 3513 0 
L 2938 0 
L 2938 2094 
Q 2938 2591 2744 2837 
Q 2550 3084 2163 3084 
Q 1697 3084 1428 2787 
Q 1159 2491 1159 1978 
L 1159 0 
L 581 0 
L 581 4863 
L 1159 4863 
L 1159 2956 
Q 1366 3272 1645 3428 
Q 1925 3584 2291 3584 
Q 2894 3584 3203 3211 
Q 3513 2838 3513 2113 
z
" transform="scale(0.015625)"/>
       <path id="DejaVuSans-4e" d="M 628 4666 
L 1478 4666 
L 3547 763 
L 3547 4666 
L 4159 4666 
L 4159 0 
L 3309 0 
L 1241 3903 
L 1241 0 
L 628 0 
L 628 4666 
z
" transform="scale(0.015625)"/>
       <path id="DejaVuSans-20" transform="scale(0.015625)"/>
       <path id="DejaVuSans-76" d="M 191 3500 
L 800 3500 
L 1894 563 
L 2988 3500 
L 3597 3500 
L 2284 0 
L 1503 0 
L 191 3500 
z
" transform="scale(0.015625)"/>
       <path id="DejaVuSans-61" d="M 2194 1759 
Q 1497 1759 1228 1600 
Q 959 1441 959 1056 
Q 959 750 1161 570 
Q 1363 391 1709 391 
Q 2188 391 2477 730 
Q 2766 1069 2766 1631 
L 2766 1759 
L 2194 1759 
z
M 3341 1997 
L 3341 0 
L 2766 0 
L 2766 531 
Q 2569 213 2275 61 
Q 1981 -91 1556 -91 
Q 1019 -91 701 211 
Q 384 513 384 1019 
Q 384 1609 779 1909 
Q 1175 2209 1959 2209 
L 2766 2209 
L 2766 2266 
Q 2766 2663 2505 2880 
Q 2244 3097 1772 3097 
Q 1472 3097 1187 3025 
Q 903 2953 641 2809 
L 641 3341 
Q 956 3463 1253 3523 
Q 1550 3584 1831 3584 
Q 2591 3584 2966 3190 
Q 3341 2797 3341 1997 
z
" transform="scale(0.015625)"/>
       <path id="DejaVuSans-5f" d="M 3263 -1063 
L 3263 -1509 
L -63 -1509 
L -63 -1063 
L 3263 -1063 
z
" transform="scale(0.015625)"/>
      </defs>
      <use xlink:href="#DejaVuSans-53"/>
      <use xlink:href="#DejaVuSans-63" x="63.476562"/>
      <use xlink:href="#DejaVuSans-68" x="118.457031"/>
      <use xlink:href="#DejaVuSans-4e" x="181.835938"/>
      <use xlink:href="#DejaVuSans-65" x="256.640625"/>
      <use xlink:href="#DejaVuSans-74" x="318.164062"/>
      <use xlink:href="#DejaVuSans-20" x="357.373047"/>
      <use xlink:href="#DejaVuSans-65" x="389.160156"/>
      <use xlink:href="#DejaVuSans-76" x="450.683594"/>
      <use xlink:href="#DejaVuSans-61" x="509.863281"/>
      <use xlink:href="#DejaVuSans-6c" x="571.142578"/>
      <use xlink:href="#DejaVuSans-5f" x="598.925781"/>
      <use xlink:href="#DejaVuSans-6c" x="648.925781"/>
      <use xlink:href="#DejaVuSans-6f" x="676.708984"/>
      <use xlink:href="#DejaVuSans-73" x="737.890625"/>
      <use xlink:href="#DejaVuSans-73" x="789.990234"/>
     </g>
    </g>
    <g id="line2d_42">
     <path d="M 283.596563 69.526688 
L 293.596563 69.526688 
L 303.596563 69.526688 
" style="fill: none; stroke: #ff7f0e; stroke-opacity: 0.9; stroke-linecap: square"/>
    </g>
    <g id="text_15">
     <!-- MoGIN14 eval_loss -->
     <g transform="translate(311.596563 73.026688) scale(0.1 -0.1)">
      <defs>
       <path id="DejaVuSans-4d" d="M 628 4666 
L 1569 4666 
L 2759 1491 
L 3956 4666 
L 4897 4666 
L 4897 0 
L 4281 0 
L 4281 4097 
L 3078 897 
L 2444 897 
L 1241 4097 
L 1241 0 
L 628 0 
L 628 4666 
z
" transform="scale(0.015625)"/>
       <path id="DejaVuSans-47" d="M 3809 666 
L 3809 1919 
L 2778 1919 
L 2778 2438 
L 4434 2438 
L 4434 434 
Q 4069 175 3628 42 
Q 3188 -91 2688 -91 
Q 1594 -91 976 548 
Q 359 1188 359 2328 
Q 359 3472 976 4111 
Q 1594 4750 2688 4750 
Q 3144 4750 3555 4637 
Q 3966 4525 4313 4306 
L 4313 3634 
Q 3963 3931 3569 4081 
Q 3175 4231 2741 4231 
Q 1884 4231 1454 3753 
Q 1025 3275 1025 2328 
Q 1025 1384 1454 906 
Q 1884 428 2741 428 
Q 3075 428 3337 486 
Q 3600 544 3809 666 
z
" transform="scale(0.015625)"/>
       <path id="DejaVuSans-49" d="M 628 4666 
L 1259 4666 
L 1259 0 
L 628 0 
L 628 4666 
z
" transform="scale(0.015625)"/>
       <path id="DejaVuSans-34" d="M 2419 4116 
L 825 1625 
L 2419 1625 
L 2419 4116 
z
M 2253 4666 
L 3047 4666 
L 3047 1625 
L 3713 1625 
L 3713 1100 
L 3047 1100 
L 3047 0 
L 2419 0 
L 2419 1100 
L 313 1100 
L 313 1709 
L 2253 4666 
z
" transform="scale(0.015625)"/>
      </defs>
      <use xlink:href="#DejaVuSans-4d"/>
      <use xlink:href="#DejaVuSans-6f" x="86.279297"/>
      <use xlink:href="#DejaVuSans-47" x="147.460938"/>
      <use xlink:href="#DejaVuSans-49" x="224.951172"/>
      <use xlink:href="#DejaVuSans-4e" x="254.443359"/>
      <use xlink:href="#DejaVuSans-31" x="329.248047"/>
      <use xlink:href="#DejaVuSans-34" x="392.871094"/>
      <use xlink:href="#DejaVuSans-20" x="456.494141"/>
      <use xlink:href="#DejaVuSans-65" x="488.28125"/>
      <use xlink:href="#DejaVuSans-76" x="549.804688"/>
      <use xlink:href="#DejaVuSans-61" x="608.984375"/>
      <use xlink:href="#DejaVuSans-6c" x="670.263672"/>
      <use xlink:href="#DejaVuSans-5f" x="698.046875"/>
      <use xlink:href="#DejaVuSans-6c" x="748.046875"/>
      <use xlink:href="#DejaVuSans-6f" x="775.830078"/>
      <use xlink:href="#DejaVuSans-73" x="837.011719"/>
      <use xlink:href="#DejaVuSans-73" x="889.111328"/>
     </g>
    </g>
    <g id="line2d_43">
     <path d="M 283.596563 84.482938 
L 293.596563 84.482938 
L 303.596563 84.482938 
" style="fill: none; stroke: #2ca02c; stroke-opacity: 0.9; stroke-linecap: square"/>
    </g>
    <g id="text_16">
     <!-- MoGIN14 eval_loss -->
     <g transform="translate(311.596563 87.982938) scale(0.1 -0.1)">
      <use xlink:href="#DejaVuSans-4d"/>
      <use xlink:href="#DejaVuSans-6f" x="86.279297"/>
      <use xlink:href="#DejaVuSans-47" x="147.460938"/>
      <use xlink:href="#DejaVuSans-49" x="224.951172"/>
      <use xlink:href="#DejaVuSans-4e" x="254.443359"/>
      <use xlink:href="#DejaVuSans-31" x="329.248047"/>
      <use xlink:href="#DejaVuSans-34" x="392.871094"/>
      <use xlink:href="#DejaVuSans-20" x="456.494141"/>
      <use xlink:href="#DejaVuSans-65" x="488.28125"/>
      <use xlink:href="#DejaVuSans-76" x="549.804688"/>
      <use xlink:href="#DejaVuSans-61" x="608.984375"/>
      <use xlink:href="#DejaVuSans-6c" x="670.263672"/>
      <use xlink:href="#DejaVuSans-5f" x="698.046875"/>
      <use xlink:href="#DejaVuSans-6c" x="748.046875"/>
      <use xlink:href="#DejaVuSans-6f" x="775.830078"/>
      <use xlink:href="#DejaVuSans-73" x="837.011719"/>
      <use xlink:href="#DejaVuSans-73" x="889.111328"/>
     </g>
    </g>
   </g>
  </g>
 </g>
 <defs>
  <clipPath id="p04315fcb63">
   <rect x="57.6" y="41.472" width="357.12" height="266.112"/>
  </clipPath>
 </defs>
</svg>
