<?xml version="1.0" encoding="utf-8" standalone="no"?>
<!DOCTYPE svg PUBLIC "-//W3C//DTD SVG 1.1//EN"
  "http://www.w3.org/Graphics/SVG/1.1/DTD/svg11.dtd">
<svg xmlns:xlink="http://www.w3.org/1999/xlink" width="460.8pt" height="345.6pt" viewBox="0 0 460.8 345.6" xmlns="http://www.w3.org/2000/svg" version="1.1">
 <metadata>
  <rdf:RDF xmlns:dc="http://purl.org/dc/elements/1.1/" xmlns:cc="http://creativecommons.org/ns#" xmlns:rdf="http://www.w3.org/1999/02/22-rdf-syntax-ns#">
   <cc:Work>
    <dc:type rdf:resource="http://purl.org/dc/dcmitype/StillImage"/>
    <dc:date>2025-02-18T13:04:16.449701</dc:date>
    <dc:format>image/svg+xml</dc:format>
    <dc:creator>
     <cc:Agent>
      <dc:title>Matplotlib v3.8.4, https://matplotlib.org/</dc:title>
     </cc:Agent>
    </dc:creator>
   </cc:Work>
  </rdf:RDF>
 </metadata>
 <defs>
  <style type="text/css">*{stroke-linejoin: round; stroke-linecap: butt}</style>
 </defs>
 <g id="figure_1">
  <g id="patch_1">
   <path d="M 0 345.6 
L 460.8 345.6 
L 460.8 0 
L 0 0 
z
" style="fill: #ffffff"/>
  </g>
  <g id="axes_1">
   <g id="patch_2">
    <path d="M 57.6 307.584 
L 414.72 307.584 
L 414.72 41.472 
L 57.6 41.472 
z
" style="fill: #ffffff"/>
   </g>
   <g id="matplotlib.axis_1">
    <g id="xtick_1">
     <g id="line2d_1">
      <defs>
       <path id="mfeec8c3f1b" d="M 0 0 
L 0 3.5 
" style="stroke: #000000; stroke-width: 0.8"/>
      </defs>
      <g>
       <use xlink:href="#mfeec8c3f1b" x="57.6" y="307.584" style="stroke: #000000; stroke-width: 0.8"/>
      </g>
     </g>
     <g id="text_1">
      <!-- $\mathdefault{10^{3}}$ -->
      <g transform="translate(48.8 322.182437) scale(0.1 -0.1)">
       <defs>
        <path id="DejaVuSans-31" d="M 794 531 
L 1825 531 
L 1825 4091 
L 703 3866 
L 703 4441 
L 1819 4666 
L 2450 4666 
L 2450 531 
L 3481 531 
L 3481 0 
L 794 0 
L 794 531 
z
" transform="scale(0.015625)"/>
        <path id="DejaVuSans-30" d="M 2034 4250 
Q 1547 4250 1301 3770 
Q 1056 3291 1056 2328 
Q 1056 1369 1301 889 
Q 1547 409 2034 409 
Q 2525 409 2770 889 
Q 3016 1369 3016 2328 
Q 3016 3291 2770 3770 
Q 2525 4250 2034 4250 
z
M 2034 4750 
Q 2819 4750 3233 4129 
Q 3647 3509 3647 2328 
Q 3647 1150 3233 529 
Q 2819 -91 2034 -91 
Q 1250 -91 836 529 
Q 422 1150 422 2328 
Q 422 3509 836 4129 
Q 1250 4750 2034 4750 
z
" transform="scale(0.015625)"/>
        <path id="DejaVuSans-33" d="M 2597 2516 
Q 3050 2419 3304 2112 
Q 3559 1806 3559 1356 
Q 3559 666 3084 287 
Q 2609 -91 1734 -91 
Q 1441 -91 1130 -33 
Q 819 25 488 141 
L 488 750 
Q 750 597 1062 519 
Q 1375 441 1716 441 
Q 2309 441 2620 675 
Q 2931 909 2931 1356 
Q 2931 1769 2642 2001 
Q 2353 2234 1838 2234 
L 1294 2234 
L 1294 2753 
L 1863 2753 
Q 2328 2753 2575 2939 
Q 2822 3125 2822 3475 
Q 2822 3834 2567 4026 
Q 2313 4219 1838 4219 
Q 1578 4219 1281 4162 
Q 984 4106 628 3988 
L 628 4550 
Q 988 4650 1302 4700 
Q 1616 4750 1894 4750 
Q 2613 4750 3031 4423 
Q 3450 4097 3450 3541 
Q 3450 3153 3228 2886 
Q 3006 2619 2597 2516 
z
" transform="scale(0.015625)"/>
       </defs>
       <use xlink:href="#DejaVuSans-31" transform="translate(0 0.765625)"/>
       <use xlink:href="#DejaVuSans-30" transform="translate(63.623047 0.765625)"/>
       <use xlink:href="#DejaVuSans-33" transform="translate(128.203125 39.046875) scale(0.7)"/>
      </g>
     </g>
    </g>
    <g id="xtick_2">
     <g id="line2d_2">
      <g>
       <use xlink:href="#mfeec8c3f1b" x="332.090213" y="307.584" style="stroke: #000000; stroke-width: 0.8"/>
      </g>
     </g>
     <g id="text_2">
      <!-- $\mathdefault{10^{4}}$ -->
      <g transform="translate(323.290213 322.182437) scale(0.1 -0.1)">
       <defs>
        <path id="DejaVuSans-34" d="M 2419 4116 
L 825 1625 
L 2419 1625 
L 2419 4116 
z
M 2253 4666 
L 3047 4666 
L 3047 1625 
L 3713 1625 
L 3713 1100 
L 3047 1100 
L 3047 0 
L 2419 0 
L 2419 1100 
L 313 1100 
L 313 1709 
L 2253 4666 
z
" transform="scale(0.015625)"/>
       </defs>
       <use xlink:href="#DejaVuSans-31" transform="translate(0 0.684375)"/>
       <use xlink:href="#DejaVuSans-30" transform="translate(63.623047 0.684375)"/>
       <use xlink:href="#DejaVuSans-34" transform="translate(128.203125 38.965625) scale(0.7)"/>
      </g>
     </g>
    </g>
    <g id="xtick_3">
     <g id="line2d_3">
      <defs>
       <path id="m8757092b94" d="M 0 0 
L 0 2 
" style="stroke: #000000; stroke-width: 0.6"/>
      </defs>
      <g>
       <use xlink:href="#m8757092b94" x="140.229787" y="307.584" style="stroke: #000000; stroke-width: 0.6"/>
      </g>
     </g>
    </g>
    <g id="xtick_4">
     <g id="line2d_4">
      <g>
       <use xlink:href="#m8757092b94" x="188.565115" y="307.584" style="stroke: #000000; stroke-width: 0.6"/>
      </g>
     </g>
    </g>
    <g id="xtick_5">
     <g id="line2d_5">
      <g>
       <use xlink:href="#m8757092b94" x="222.859575" y="307.584" style="stroke: #000000; stroke-width: 0.6"/>
      </g>
     </g>
    </g>
    <g id="xtick_6">
     <g id="line2d_6">
      <g>
       <use xlink:href="#m8757092b94" x="249.460425" y="307.584" style="stroke: #000000; stroke-width: 0.6"/>
      </g>
     </g>
    </g>
    <g id="xtick_7">
     <g id="line2d_7">
      <g>
       <use xlink:href="#m8757092b94" x="271.194902" y="307.584" style="stroke: #000000; stroke-width: 0.6"/>
      </g>
     </g>
    </g>
    <g id="xtick_8">
     <g id="line2d_8">
      <g>
       <use xlink:href="#m8757092b94" x="289.571141" y="307.584" style="stroke: #000000; stroke-width: 0.6"/>
      </g>
     </g>
    </g>
    <g id="xtick_9">
     <g id="line2d_9">
      <g>
       <use xlink:href="#m8757092b94" x="305.489362" y="307.584" style="stroke: #000000; stroke-width: 0.6"/>
      </g>
     </g>
    </g>
    <g id="xtick_10">
     <g id="line2d_10">
      <g>
       <use xlink:href="#m8757092b94" x="319.530229" y="307.584" style="stroke: #000000; stroke-width: 0.6"/>
      </g>
     </g>
    </g>
    <g id="xtick_11">
     <g id="line2d_11">
      <g>
       <use xlink:href="#m8757092b94" x="414.72" y="307.584" style="stroke: #000000; stroke-width: 0.6"/>
      </g>
     </g>
    </g>
    <g id="text_3">
     <!-- iter# -->
     <g transform="translate(223.488906 335.860562) scale(0.1 -0.1)">
      <defs>
       <path id="DejaVuSans-69" d="M 603 3500 
L 1178 3500 
L 1178 0 
L 603 0 
L 603 3500 
z
M 603 4863 
L 1178 4863 
L 1178 4134 
L 603 4134 
L 603 4863 
z
" transform="scale(0.015625)"/>
       <path id="DejaVuSans-74" d="M 1172 4494 
L 1172 3500 
L 2356 3500 
L 2356 3053 
L 1172 3053 
L 1172 1153 
Q 1172 725 1289 603 
Q 1406 481 1766 481 
L 2356 481 
L 2356 0 
L 1766 0 
Q 1100 0 847 248 
Q 594 497 594 1153 
L 594 3053 
L 172 3053 
L 172 3500 
L 594 3500 
L 594 4494 
L 1172 4494 
z
" transform="scale(0.015625)"/>
       <path id="DejaVuSans-65" d="M 3597 1894 
L 3597 1613 
L 953 1613 
Q 991 1019 1311 708 
Q 1631 397 2203 397 
Q 2534 397 2845 478 
Q 3156 559 3463 722 
L 3463 178 
Q 3153 47 2828 -22 
Q 2503 -91 2169 -91 
Q 1331 -91 842 396 
Q 353 884 353 1716 
Q 353 2575 817 3079 
Q 1281 3584 2069 3584 
Q 2775 3584 3186 3129 
Q 3597 2675 3597 1894 
z
M 3022 2063 
Q 3016 2534 2758 2815 
Q 2500 3097 2075 3097 
Q 1594 3097 1305 2825 
Q 1016 2553 972 2059 
L 3022 2063 
z
" transform="scale(0.015625)"/>
       <path id="DejaVuSans-72" d="M 2631 2963 
Q 2534 3019 2420 3045 
Q 2306 3072 2169 3072 
Q 1681 3072 1420 2755 
Q 1159 2438 1159 1844 
L 1159 0 
L 581 0 
L 581 3500 
L 1159 3500 
L 1159 2956 
Q 1341 3275 1631 3429 
Q 1922 3584 2338 3584 
Q 2397 3584 2469 3576 
Q 2541 3569 2628 3553 
L 2631 2963 
z
" transform="scale(0.015625)"/>
       <path id="DejaVuSans-23" d="M 3272 2816 
L 2363 2816 
L 2100 1772 
L 3016 1772 
L 3272 2816 
z
M 2803 4594 
L 2478 3297 
L 3391 3297 
L 3719 4594 
L 4219 4594 
L 3897 3297 
L 4872 3297 
L 4872 2816 
L 3775 2816 
L 3519 1772 
L 4513 1772 
L 4513 1294 
L 3397 1294 
L 3072 0 
L 2572 0 
L 2894 1294 
L 1978 1294 
L 1656 0 
L 1153 0 
L 1478 1294 
L 494 1294 
L 494 1772 
L 1594 1772 
L 1856 2816 
L 850 2816 
L 850 3297 
L 1978 3297 
L 2297 4594 
L 2803 4594 
z
" transform="scale(0.015625)"/>
      </defs>
      <use xlink:href="#DejaVuSans-69"/>
      <use xlink:href="#DejaVuSans-74" x="27.783203"/>
      <use xlink:href="#DejaVuSans-65" x="66.992188"/>
      <use xlink:href="#DejaVuSans-72" x="128.515625"/>
      <use xlink:href="#DejaVuSans-23" x="169.628906"/>
     </g>
    </g>
   </g>
   <g id="matplotlib.axis_2">
    <g id="ytick_1">
     <g id="line2d_12">
      <defs>
       <path id="m9b1f68fcb8" d="M 0 0 
L -3.5 0 
" style="stroke: #000000; stroke-width: 0.8"/>
      </defs>
      <g>
       <use xlink:href="#m9b1f68fcb8" x="57.6" y="304.185121" style="stroke: #000000; stroke-width: 0.8"/>
      </g>
     </g>
     <g id="text_4">
      <!-- $\mathdefault{10^{-6}}$ -->
      <g transform="translate(27.1 307.984339) scale(0.1 -0.1)">
       <defs>
        <path id="DejaVuSans-2212" d="M 678 2272 
L 4684 2272 
L 4684 1741 
L 678 1741 
L 678 2272 
z
" transform="scale(0.015625)"/>
        <path id="DejaVuSans-36" d="M 2113 2584 
Q 1688 2584 1439 2293 
Q 1191 2003 1191 1497 
Q 1191 994 1439 701 
Q 1688 409 2113 409 
Q 2538 409 2786 701 
Q 3034 994 3034 1497 
Q 3034 2003 2786 2293 
Q 2538 2584 2113 2584 
z
M 3366 4563 
L 3366 3988 
Q 3128 4100 2886 4159 
Q 2644 4219 2406 4219 
Q 1781 4219 1451 3797 
Q 1122 3375 1075 2522 
Q 1259 2794 1537 2939 
Q 1816 3084 2150 3084 
Q 2853 3084 3261 2657 
Q 3669 2231 3669 1497 
Q 3669 778 3244 343 
Q 2819 -91 2113 -91 
Q 1303 -91 875 529 
Q 447 1150 447 2328 
Q 447 3434 972 4092 
Q 1497 4750 2381 4750 
Q 2619 4750 2861 4703 
Q 3103 4656 3366 4563 
z
" transform="scale(0.015625)"/>
       </defs>
       <use xlink:href="#DejaVuSans-31" transform="translate(0 0.765625)"/>
       <use xlink:href="#DejaVuSans-30" transform="translate(63.623047 0.765625)"/>
       <use xlink:href="#DejaVuSans-2212" transform="translate(128.203125 39.046875) scale(0.7)"/>
       <use xlink:href="#DejaVuSans-36" transform="translate(186.855469 39.046875) scale(0.7)"/>
      </g>
     </g>
    </g>
    <g id="ytick_2">
     <g id="line2d_13">
      <g>
       <use xlink:href="#m9b1f68fcb8" x="57.6" y="273.878178" style="stroke: #000000; stroke-width: 0.8"/>
      </g>
     </g>
     <g id="text_5">
      <!-- $\mathdefault{10^{-5}}$ -->
      <g transform="translate(27.1 277.677397) scale(0.1 -0.1)">
       <defs>
        <path id="DejaVuSans-35" d="M 691 4666 
L 3169 4666 
L 3169 4134 
L 1269 4134 
L 1269 2991 
Q 1406 3038 1543 3061 
Q 1681 3084 1819 3084 
Q 2600 3084 3056 2656 
Q 3513 2228 3513 1497 
Q 3513 744 3044 326 
Q 2575 -91 1722 -91 
Q 1428 -91 1123 -41 
Q 819 9 494 109 
L 494 744 
Q 775 591 1075 516 
Q 1375 441 1709 441 
Q 2250 441 2565 725 
Q 2881 1009 2881 1497 
Q 2881 1984 2565 2268 
Q 2250 2553 1709 2553 
Q 1456 2553 1204 2497 
Q 953 2441 691 2322 
L 691 4666 
z
" transform="scale(0.015625)"/>
       </defs>
       <use xlink:href="#DejaVuSans-31" transform="translate(0 0.684375)"/>
       <use xlink:href="#DejaVuSans-30" transform="translate(63.623047 0.684375)"/>
       <use xlink:href="#DejaVuSans-2212" transform="translate(128.203125 38.965625) scale(0.7)"/>
       <use xlink:href="#DejaVuSans-35" transform="translate(186.855469 38.965625) scale(0.7)"/>
      </g>
     </g>
    </g>
    <g id="ytick_3">
     <g id="line2d_14">
      <g>
       <use xlink:href="#m9b1f68fcb8" x="57.6" y="243.571235" style="stroke: #000000; stroke-width: 0.8"/>
      </g>
     </g>
     <g id="text_6">
      <!-- $\mathdefault{10^{-4}}$ -->
      <g transform="translate(27.1 247.370454) scale(0.1 -0.1)">
       <use xlink:href="#DejaVuSans-31" transform="translate(0 0.684375)"/>
       <use xlink:href="#DejaVuSans-30" transform="translate(63.623047 0.684375)"/>
       <use xlink:href="#DejaVuSans-2212" transform="translate(128.203125 38.965625) scale(0.7)"/>
       <use xlink:href="#DejaVuSans-34" transform="translate(186.855469 38.965625) scale(0.7)"/>
      </g>
     </g>
    </g>
    <g id="ytick_4">
     <g id="line2d_15">
      <g>
       <use xlink:href="#m9b1f68fcb8" x="57.6" y="213.264292" style="stroke: #000000; stroke-width: 0.8"/>
      </g>
     </g>
     <g id="text_7">
      <!-- $\mathdefault{10^{-3}}$ -->
      <g transform="translate(27.1 217.063511) scale(0.1 -0.1)">
       <use xlink:href="#DejaVuSans-31" transform="translate(0 0.765625)"/>
       <use xlink:href="#DejaVuSans-30" transform="translate(63.623047 0.765625)"/>
       <use xlink:href="#DejaVuSans-2212" transform="translate(128.203125 39.046875) scale(0.7)"/>
       <use xlink:href="#DejaVuSans-33" transform="translate(186.855469 39.046875) scale(0.7)"/>
      </g>
     </g>
    </g>
    <g id="ytick_5">
     <g id="line2d_16">
      <g>
       <use xlink:href="#m9b1f68fcb8" x="57.6" y="182.95735" style="stroke: #000000; stroke-width: 0.8"/>
      </g>
     </g>
     <g id="text_8">
      <!-- $\mathdefault{10^{-2}}$ -->
      <g transform="translate(27.1 186.756568) scale(0.1 -0.1)">
       <defs>
        <path id="DejaVuSans-32" d="M 1228 531 
L 3431 531 
L 3431 0 
L 469 0 
L 469 531 
Q 828 903 1448 1529 
Q 2069 2156 2228 2338 
Q 2531 2678 2651 2914 
Q 2772 3150 2772 3378 
Q 2772 3750 2511 3984 
Q 2250 4219 1831 4219 
Q 1534 4219 1204 4116 
Q 875 4013 500 3803 
L 500 4441 
Q 881 4594 1212 4672 
Q 1544 4750 1819 4750 
Q 2544 4750 2975 4387 
Q 3406 4025 3406 3419 
Q 3406 3131 3298 2873 
Q 3191 2616 2906 2266 
Q 2828 2175 2409 1742 
Q 1991 1309 1228 531 
z
" transform="scale(0.015625)"/>
       </defs>
       <use xlink:href="#DejaVuSans-31" transform="translate(0 0.765625)"/>
       <use xlink:href="#DejaVuSans-30" transform="translate(63.623047 0.765625)"/>
       <use xlink:href="#DejaVuSans-2212" transform="translate(128.203125 39.046875) scale(0.7)"/>
       <use xlink:href="#DejaVuSans-32" transform="translate(186.855469 39.046875) scale(0.7)"/>
      </g>
     </g>
    </g>
    <g id="ytick_6">
     <g id="line2d_17">
      <g>
       <use xlink:href="#m9b1f68fcb8" x="57.6" y="152.650407" style="stroke: #000000; stroke-width: 0.8"/>
      </g>
     </g>
     <g id="text_9">
      <!-- $\mathdefault{10^{-1}}$ -->
      <g transform="translate(27.1 156.449625) scale(0.1 -0.1)">
       <use xlink:href="#DejaVuSans-31" transform="translate(0 0.684375)"/>
       <use xlink:href="#DejaVuSans-30" transform="translate(63.623047 0.684375)"/>
       <use xlink:href="#DejaVuSans-2212" transform="translate(128.203125 38.965625) scale(0.7)"/>
       <use xlink:href="#DejaVuSans-31" transform="translate(186.855469 38.965625) scale(0.7)"/>
      </g>
     </g>
    </g>
    <g id="ytick_7">
     <g id="line2d_18">
      <g>
       <use xlink:href="#m9b1f68fcb8" x="57.6" y="122.343464" style="stroke: #000000; stroke-width: 0.8"/>
      </g>
     </g>
     <g id="text_10">
      <!-- $\mathdefault{10^{0}}$ -->
      <g transform="translate(33 126.142683) scale(0.1 -0.1)">
       <use xlink:href="#DejaVuSans-31" transform="translate(0 0.765625)"/>
       <use xlink:href="#DejaVuSans-30" transform="translate(63.623047 0.765625)"/>
       <use xlink:href="#DejaVuSans-30" transform="translate(128.203125 39.046875) scale(0.7)"/>
      </g>
     </g>
    </g>
    <g id="ytick_8">
     <g id="line2d_19">
      <g>
       <use xlink:href="#m9b1f68fcb8" x="57.6" y="92.036521" style="stroke: #000000; stroke-width: 0.8"/>
      </g>
     </g>
     <g id="text_11">
      <!-- $\mathdefault{10^{1}}$ -->
      <g transform="translate(33 95.83574) scale(0.1 -0.1)">
       <use xlink:href="#DejaVuSans-31" transform="translate(0 0.684375)"/>
       <use xlink:href="#DejaVuSans-30" transform="translate(63.623047 0.684375)"/>
       <use xlink:href="#DejaVuSans-31" transform="translate(128.203125 38.965625) scale(0.7)"/>
      </g>
     </g>
    </g>
    <g id="ytick_9">
     <g id="line2d_20">
      <g>
       <use xlink:href="#m9b1f68fcb8" x="57.6" y="61.729578" style="stroke: #000000; stroke-width: 0.8"/>
      </g>
     </g>
     <g id="text_12">
      <!-- $\mathdefault{10^{2}}$ -->
      <g transform="translate(33 65.528797) scale(0.1 -0.1)">
       <use xlink:href="#DejaVuSans-31" transform="translate(0 0.765625)"/>
       <use xlink:href="#DejaVuSans-30" transform="translate(63.623047 0.765625)"/>
       <use xlink:href="#DejaVuSans-32" transform="translate(128.203125 39.046875) scale(0.7)"/>
      </g>
     </g>
    </g>
    <g id="ytick_10">
     <g id="line2d_21">
      <defs>
       <path id="m667e4fdbab" d="M 0 0 
L -2 0 
" style="stroke: #000000; stroke-width: 0.6"/>
      </defs>
      <g>
       <use xlink:href="#m667e4fdbab" x="57.6" y="307.122167" style="stroke: #000000; stroke-width: 0.6"/>
      </g>
     </g>
    </g>
    <g id="ytick_11">
     <g id="line2d_22">
      <g>
       <use xlink:href="#m667e4fdbab" x="57.6" y="305.57189" style="stroke: #000000; stroke-width: 0.6"/>
      </g>
     </g>
    </g>
    <g id="ytick_12">
     <g id="line2d_23">
      <g>
       <use xlink:href="#m667e4fdbab" x="57.6" y="295.061822" style="stroke: #000000; stroke-width: 0.6"/>
      </g>
     </g>
    </g>
    <g id="ytick_13">
     <g id="line2d_24">
      <g>
       <use xlink:href="#m667e4fdbab" x="57.6" y="289.725034" style="stroke: #000000; stroke-width: 0.6"/>
      </g>
     </g>
    </g>
    <g id="ytick_14">
     <g id="line2d_25">
      <g>
       <use xlink:href="#m667e4fdbab" x="57.6" y="285.938523" style="stroke: #000000; stroke-width: 0.6"/>
      </g>
     </g>
    </g>
    <g id="ytick_15">
     <g id="line2d_26">
      <g>
       <use xlink:href="#m667e4fdbab" x="57.6" y="283.001477" style="stroke: #000000; stroke-width: 0.6"/>
      </g>
     </g>
    </g>
    <g id="ytick_16">
     <g id="line2d_27">
      <g>
       <use xlink:href="#m667e4fdbab" x="57.6" y="280.601735" style="stroke: #000000; stroke-width: 0.6"/>
      </g>
     </g>
    </g>
    <g id="ytick_17">
     <g id="line2d_28">
      <g>
       <use xlink:href="#m667e4fdbab" x="57.6" y="278.572783" style="stroke: #000000; stroke-width: 0.6"/>
      </g>
     </g>
    </g>
    <g id="ytick_18">
     <g id="line2d_29">
      <g>
       <use xlink:href="#m667e4fdbab" x="57.6" y="276.815224" style="stroke: #000000; stroke-width: 0.6"/>
      </g>
     </g>
    </g>
    <g id="ytick_19">
     <g id="line2d_30">
      <g>
       <use xlink:href="#m667e4fdbab" x="57.6" y="275.264948" style="stroke: #000000; stroke-width: 0.6"/>
      </g>
     </g>
    </g>
    <g id="ytick_20">
     <g id="line2d_31">
      <g>
       <use xlink:href="#m667e4fdbab" x="57.6" y="264.754879" style="stroke: #000000; stroke-width: 0.6"/>
      </g>
     </g>
    </g>
    <g id="ytick_21">
     <g id="line2d_32">
      <g>
       <use xlink:href="#m667e4fdbab" x="57.6" y="259.418091" style="stroke: #000000; stroke-width: 0.6"/>
      </g>
     </g>
    </g>
    <g id="ytick_22">
     <g id="line2d_33">
      <g>
       <use xlink:href="#m667e4fdbab" x="57.6" y="255.63158" style="stroke: #000000; stroke-width: 0.6"/>
      </g>
     </g>
    </g>
    <g id="ytick_23">
     <g id="line2d_34">
      <g>
       <use xlink:href="#m667e4fdbab" x="57.6" y="252.694534" style="stroke: #000000; stroke-width: 0.6"/>
      </g>
     </g>
    </g>
    <g id="ytick_24">
     <g id="line2d_35">
      <g>
       <use xlink:href="#m667e4fdbab" x="57.6" y="250.294792" style="stroke: #000000; stroke-width: 0.6"/>
      </g>
     </g>
    </g>
    <g id="ytick_25">
     <g id="line2d_36">
      <g>
       <use xlink:href="#m667e4fdbab" x="57.6" y="248.26584" style="stroke: #000000; stroke-width: 0.6"/>
      </g>
     </g>
    </g>
    <g id="ytick_26">
     <g id="line2d_37">
      <g>
       <use xlink:href="#m667e4fdbab" x="57.6" y="246.508281" style="stroke: #000000; stroke-width: 0.6"/>
      </g>
     </g>
    </g>
    <g id="ytick_27">
     <g id="line2d_38">
      <g>
       <use xlink:href="#m667e4fdbab" x="57.6" y="244.958005" style="stroke: #000000; stroke-width: 0.6"/>
      </g>
     </g>
    </g>
    <g id="ytick_28">
     <g id="line2d_39">
      <g>
       <use xlink:href="#m667e4fdbab" x="57.6" y="234.447936" style="stroke: #000000; stroke-width: 0.6"/>
      </g>
     </g>
    </g>
    <g id="ytick_29">
     <g id="line2d_40">
      <g>
       <use xlink:href="#m667e4fdbab" x="57.6" y="229.111149" style="stroke: #000000; stroke-width: 0.6"/>
      </g>
     </g>
    </g>
    <g id="ytick_30">
     <g id="line2d_41">
      <g>
       <use xlink:href="#m667e4fdbab" x="57.6" y="225.324637" style="stroke: #000000; stroke-width: 0.6"/>
      </g>
     </g>
    </g>
    <g id="ytick_31">
     <g id="line2d_42">
      <g>
       <use xlink:href="#m667e4fdbab" x="57.6" y="222.387591" style="stroke: #000000; stroke-width: 0.6"/>
      </g>
     </g>
    </g>
    <g id="ytick_32">
     <g id="line2d_43">
      <g>
       <use xlink:href="#m667e4fdbab" x="57.6" y="219.98785" style="stroke: #000000; stroke-width: 0.6"/>
      </g>
     </g>
    </g>
    <g id="ytick_33">
     <g id="line2d_44">
      <g>
       <use xlink:href="#m667e4fdbab" x="57.6" y="217.958897" style="stroke: #000000; stroke-width: 0.6"/>
      </g>
     </g>
    </g>
    <g id="ytick_34">
     <g id="line2d_45">
      <g>
       <use xlink:href="#m667e4fdbab" x="57.6" y="216.201339" style="stroke: #000000; stroke-width: 0.6"/>
      </g>
     </g>
    </g>
    <g id="ytick_35">
     <g id="line2d_46">
      <g>
       <use xlink:href="#m667e4fdbab" x="57.6" y="214.651062" style="stroke: #000000; stroke-width: 0.6"/>
      </g>
     </g>
    </g>
    <g id="ytick_36">
     <g id="line2d_47">
      <g>
       <use xlink:href="#m667e4fdbab" x="57.6" y="204.140993" style="stroke: #000000; stroke-width: 0.6"/>
      </g>
     </g>
    </g>
    <g id="ytick_37">
     <g id="line2d_48">
      <g>
       <use xlink:href="#m667e4fdbab" x="57.6" y="198.804206" style="stroke: #000000; stroke-width: 0.6"/>
      </g>
     </g>
    </g>
    <g id="ytick_38">
     <g id="line2d_49">
      <g>
       <use xlink:href="#m667e4fdbab" x="57.6" y="195.017695" style="stroke: #000000; stroke-width: 0.6"/>
      </g>
     </g>
    </g>
    <g id="ytick_39">
     <g id="line2d_50">
      <g>
       <use xlink:href="#m667e4fdbab" x="57.6" y="192.080648" style="stroke: #000000; stroke-width: 0.6"/>
      </g>
     </g>
    </g>
    <g id="ytick_40">
     <g id="line2d_51">
      <g>
       <use xlink:href="#m667e4fdbab" x="57.6" y="189.680907" style="stroke: #000000; stroke-width: 0.6"/>
      </g>
     </g>
    </g>
    <g id="ytick_41">
     <g id="line2d_52">
      <g>
       <use xlink:href="#m667e4fdbab" x="57.6" y="187.651954" style="stroke: #000000; stroke-width: 0.6"/>
      </g>
     </g>
    </g>
    <g id="ytick_42">
     <g id="line2d_53">
      <g>
       <use xlink:href="#m667e4fdbab" x="57.6" y="185.894396" style="stroke: #000000; stroke-width: 0.6"/>
      </g>
     </g>
    </g>
    <g id="ytick_43">
     <g id="line2d_54">
      <g>
       <use xlink:href="#m667e4fdbab" x="57.6" y="184.344119" style="stroke: #000000; stroke-width: 0.6"/>
      </g>
     </g>
    </g>
    <g id="ytick_44">
     <g id="line2d_55">
      <g>
       <use xlink:href="#m667e4fdbab" x="57.6" y="173.834051" style="stroke: #000000; stroke-width: 0.6"/>
      </g>
     </g>
    </g>
    <g id="ytick_45">
     <g id="line2d_56">
      <g>
       <use xlink:href="#m667e4fdbab" x="57.6" y="168.497263" style="stroke: #000000; stroke-width: 0.6"/>
      </g>
     </g>
    </g>
    <g id="ytick_46">
     <g id="line2d_57">
      <g>
       <use xlink:href="#m667e4fdbab" x="57.6" y="164.710752" style="stroke: #000000; stroke-width: 0.6"/>
      </g>
     </g>
    </g>
    <g id="ytick_47">
     <g id="line2d_58">
      <g>
       <use xlink:href="#m667e4fdbab" x="57.6" y="161.773706" style="stroke: #000000; stroke-width: 0.6"/>
      </g>
     </g>
    </g>
    <g id="ytick_48">
     <g id="line2d_59">
      <g>
       <use xlink:href="#m667e4fdbab" x="57.6" y="159.373964" style="stroke: #000000; stroke-width: 0.6"/>
      </g>
     </g>
    </g>
    <g id="ytick_49">
     <g id="line2d_60">
      <g>
       <use xlink:href="#m667e4fdbab" x="57.6" y="157.345012" style="stroke: #000000; stroke-width: 0.6"/>
      </g>
     </g>
    </g>
    <g id="ytick_50">
     <g id="line2d_61">
      <g>
       <use xlink:href="#m667e4fdbab" x="57.6" y="155.587453" style="stroke: #000000; stroke-width: 0.6"/>
      </g>
     </g>
    </g>
    <g id="ytick_51">
     <g id="line2d_62">
      <g>
       <use xlink:href="#m667e4fdbab" x="57.6" y="154.037176" style="stroke: #000000; stroke-width: 0.6"/>
      </g>
     </g>
    </g>
    <g id="ytick_52">
     <g id="line2d_63">
      <g>
       <use xlink:href="#m667e4fdbab" x="57.6" y="143.527108" style="stroke: #000000; stroke-width: 0.6"/>
      </g>
     </g>
    </g>
    <g id="ytick_53">
     <g id="line2d_64">
      <g>
       <use xlink:href="#m667e4fdbab" x="57.6" y="138.19032" style="stroke: #000000; stroke-width: 0.6"/>
      </g>
     </g>
    </g>
    <g id="ytick_54">
     <g id="line2d_65">
      <g>
       <use xlink:href="#m667e4fdbab" x="57.6" y="134.403809" style="stroke: #000000; stroke-width: 0.6"/>
      </g>
     </g>
    </g>
    <g id="ytick_55">
     <g id="line2d_66">
      <g>
       <use xlink:href="#m667e4fdbab" x="57.6" y="131.466763" style="stroke: #000000; stroke-width: 0.6"/>
      </g>
     </g>
    </g>
    <g id="ytick_56">
     <g id="line2d_67">
      <g>
       <use xlink:href="#m667e4fdbab" x="57.6" y="129.067021" style="stroke: #000000; stroke-width: 0.6"/>
      </g>
     </g>
    </g>
    <g id="ytick_57">
     <g id="line2d_68">
      <g>
       <use xlink:href="#m667e4fdbab" x="57.6" y="127.038069" style="stroke: #000000; stroke-width: 0.6"/>
      </g>
     </g>
    </g>
    <g id="ytick_58">
     <g id="line2d_69">
      <g>
       <use xlink:href="#m667e4fdbab" x="57.6" y="125.28051" style="stroke: #000000; stroke-width: 0.6"/>
      </g>
     </g>
    </g>
    <g id="ytick_59">
     <g id="line2d_70">
      <g>
       <use xlink:href="#m667e4fdbab" x="57.6" y="123.730234" style="stroke: #000000; stroke-width: 0.6"/>
      </g>
     </g>
    </g>
    <g id="ytick_60">
     <g id="line2d_71">
      <g>
       <use xlink:href="#m667e4fdbab" x="57.6" y="113.220165" style="stroke: #000000; stroke-width: 0.6"/>
      </g>
     </g>
    </g>
    <g id="ytick_61">
     <g id="line2d_72">
      <g>
       <use xlink:href="#m667e4fdbab" x="57.6" y="107.883377" style="stroke: #000000; stroke-width: 0.6"/>
      </g>
     </g>
    </g>
    <g id="ytick_62">
     <g id="line2d_73">
      <g>
       <use xlink:href="#m667e4fdbab" x="57.6" y="104.096866" style="stroke: #000000; stroke-width: 0.6"/>
      </g>
     </g>
    </g>
    <g id="ytick_63">
     <g id="line2d_74">
      <g>
       <use xlink:href="#m667e4fdbab" x="57.6" y="101.15982" style="stroke: #000000; stroke-width: 0.6"/>
      </g>
     </g>
    </g>
    <g id="ytick_64">
     <g id="line2d_75">
      <g>
       <use xlink:href="#m667e4fdbab" x="57.6" y="98.760078" style="stroke: #000000; stroke-width: 0.6"/>
      </g>
     </g>
    </g>
    <g id="ytick_65">
     <g id="line2d_76">
      <g>
       <use xlink:href="#m667e4fdbab" x="57.6" y="96.731126" style="stroke: #000000; stroke-width: 0.6"/>
      </g>
     </g>
    </g>
    <g id="ytick_66">
     <g id="line2d_77">
      <g>
       <use xlink:href="#m667e4fdbab" x="57.6" y="94.973567" style="stroke: #000000; stroke-width: 0.6"/>
      </g>
     </g>
    </g>
    <g id="ytick_67">
     <g id="line2d_78">
      <g>
       <use xlink:href="#m667e4fdbab" x="57.6" y="93.423291" style="stroke: #000000; stroke-width: 0.6"/>
      </g>
     </g>
    </g>
    <g id="ytick_68">
     <g id="line2d_79">
      <g>
       <use xlink:href="#m667e4fdbab" x="57.6" y="82.913222" style="stroke: #000000; stroke-width: 0.6"/>
      </g>
     </g>
    </g>
    <g id="ytick_69">
     <g id="line2d_80">
      <g>
       <use xlink:href="#m667e4fdbab" x="57.6" y="77.576435" style="stroke: #000000; stroke-width: 0.6"/>
      </g>
     </g>
    </g>
    <g id="ytick_70">
     <g id="line2d_81">
      <g>
       <use xlink:href="#m667e4fdbab" x="57.6" y="73.789923" style="stroke: #000000; stroke-width: 0.6"/>
      </g>
     </g>
    </g>
    <g id="ytick_71">
     <g id="line2d_82">
      <g>
       <use xlink:href="#m667e4fdbab" x="57.6" y="70.852877" style="stroke: #000000; stroke-width: 0.6"/>
      </g>
     </g>
    </g>
    <g id="ytick_72">
     <g id="line2d_83">
      <g>
       <use xlink:href="#m667e4fdbab" x="57.6" y="68.453136" style="stroke: #000000; stroke-width: 0.6"/>
      </g>
     </g>
    </g>
    <g id="ytick_73">
     <g id="line2d_84">
      <g>
       <use xlink:href="#m667e4fdbab" x="57.6" y="66.424183" style="stroke: #000000; stroke-width: 0.6"/>
      </g>
     </g>
    </g>
    <g id="ytick_74">
     <g id="line2d_85">
      <g>
       <use xlink:href="#m667e4fdbab" x="57.6" y="64.666624" style="stroke: #000000; stroke-width: 0.6"/>
      </g>
     </g>
    </g>
    <g id="ytick_75">
     <g id="line2d_86">
      <g>
       <use xlink:href="#m667e4fdbab" x="57.6" y="63.116348" style="stroke: #000000; stroke-width: 0.6"/>
      </g>
     </g>
    </g>
    <g id="ytick_76">
     <g id="line2d_87">
      <g>
       <use xlink:href="#m667e4fdbab" x="57.6" y="52.606279" style="stroke: #000000; stroke-width: 0.6"/>
      </g>
     </g>
    </g>
    <g id="ytick_77">
     <g id="line2d_88">
      <g>
       <use xlink:href="#m667e4fdbab" x="57.6" y="47.269492" style="stroke: #000000; stroke-width: 0.6"/>
      </g>
     </g>
    </g>
    <g id="ytick_78">
     <g id="line2d_89">
      <g>
       <use xlink:href="#m667e4fdbab" x="57.6" y="43.482981" style="stroke: #000000; stroke-width: 0.6"/>
      </g>
     </g>
    </g>
    <g id="text_13">
     <!-- loss -->
     <g transform="translate(21.020313 184.185812) rotate(-90) scale(0.1 -0.1)">
      <defs>
       <path id="DejaVuSans-6c" d="M 603 4863 
L 1178 4863 
L 1178 0 
L 603 0 
L 603 4863 
z
" transform="scale(0.015625)"/>
       <path id="DejaVuSans-6f" d="M 1959 3097 
Q 1497 3097 1228 2736 
Q 959 2375 959 1747 
Q 959 1119 1226 758 
Q 1494 397 1959 397 
Q 2419 397 2687 759 
Q 2956 1122 2956 1747 
Q 2956 2369 2687 2733 
Q 2419 3097 1959 3097 
z
M 1959 3584 
Q 2709 3584 3137 3096 
Q 3566 2609 3566 1747 
Q 3566 888 3137 398 
Q 2709 -91 1959 -91 
Q 1206 -91 779 398 
Q 353 888 353 1747 
Q 353 2609 779 3096 
Q 1206 3584 1959 3584 
z
" transform="scale(0.015625)"/>
       <path id="DejaVuSans-73" d="M 2834 3397 
L 2834 2853 
Q 2591 2978 2328 3040 
Q 2066 3103 1784 3103 
Q 1356 3103 1142 2972 
Q 928 2841 928 2578 
Q 928 2378 1081 2264 
Q 1234 2150 1697 2047 
L 1894 2003 
Q 2506 1872 2764 1633 
Q 3022 1394 3022 966 
Q 3022 478 2636 193 
Q 2250 -91 1575 -91 
Q 1294 -91 989 -36 
Q 684 19 347 128 
L 347 722 
Q 666 556 975 473 
Q 1284 391 1588 391 
Q 1994 391 2212 530 
Q 2431 669 2431 922 
Q 2431 1156 2273 1281 
Q 2116 1406 1581 1522 
L 1381 1569 
Q 847 1681 609 1914 
Q 372 2147 372 2553 
Q 372 3047 722 3315 
Q 1072 3584 1716 3584 
Q 2034 3584 2315 3537 
Q 2597 3491 2834 3397 
z
" transform="scale(0.015625)"/>
      </defs>
      <use xlink:href="#DejaVuSans-6c"/>
      <use xlink:href="#DejaVuSans-6f" x="27.783203"/>
      <use xlink:href="#DejaVuSans-73" x="88.964844"/>
      <use xlink:href="#DejaVuSans-73" x="141.064453"/>
     </g>
    </g>
   </g>
   <g id="line2d_90">
    <path d="M -1 145.012441 
L 18.107568 156.8496 
L 29.499639 164.34819 
L 40.861525 169.83797 
L 52.235883 171.31274 
L 63.529734 177.679738 
L 74.984387 176.275551 
L 86.280689 167.17109 
L 97.625535 177.040327 
L 108.995169 180.427879 
L 120.364097 177.381569 
L 131.706779 175.814891 
L 143.115218 183.543546 
L 154.482394 186.573333 
L 165.825048 174.918665 
L 177.191306 183.449431 
L 188.525371 182.972723 
L 199.890872 178.67339 
L 211.256044 188.497907 
L 222.620917 178.788649 
L 233.977374 180.930818 
L 245.336793 176.656779 
L 256.69868 179.968503 
L 268.074845 184.35961 
L 279.427461 178.11194 
L 290.791033 187.841087 
L 302.149855 182.570256 
L 313.513135 181.415879 
L 324.878822 189.85378 
L 336.237255 178.191024 
L 347.594955 208.846536 
L 358.957793 193.485154 
L 370.32141 223.640973 
L 381.682511 201.876812 
L 393.045113 226.242939 
L 404.40375 211.082007 
L 415.764455 189.603482 
L 427.128491 225.172985 
L 438.488425 205.826342 
L 449.853419 219.899269 
L 461.213288 241.670166 
L 461.8 241.135076 
L 461.8 241.135076 
" clip-path="url(#p56d195b930)" style="fill: none; stroke-dasharray: 5.55,2.4; stroke-dashoffset: 0; stroke: #1f77b4; stroke-opacity: 0.4; stroke-width: 1.5"/>
   </g>
   <g id="line2d_91">
    <path d="M 52.857739 158.987675 
L 60.543596 161.374361 
L 67.763791 158.200148 
L 74.57154 160.262776 
L 81.011429 156.793072 
L 87.121183 160.266524 
L 92.933007 161.525252 
L 98.47461 161.147369 
L 103.770008 156.118145 
L 108.84015 156.587948 
L 113.70342 155.548379 
L 118.376041 155.261691 
L 122.872398 150.317948 
L 127.205308 152.021961 
L 131.386237 157.722728 
L 135.425487 157.896883 
L 139.332346 161.169718 
L 143.115218 163.408179 
L 144.100188 154.048067 
L 147.736987 156.898273 
L 151.266113 160.493162 
L 154.693759 163.41072 
L 158.025597 161.888761 
L 161.266839 164.522669 
L 164.422281 159.878697 
L 167.496349 163.18497 
L 170.493134 160.389703 
L 173.416428 152.190989 
L 176.269748 157.064177 
L 179.056366 157.379018 
L 181.77933 153.85975 
L 184.441483 152.243336 
L 187.045482 154.171525 
L 189.593813 158.286204 
L 192.088807 156.241073 
L 194.532651 151.973005 
L 196.9274 146.02016 
L 199.274988 150.10112 
L 201.577236 154.734475 
L 203.835863 146.760143 
L 206.052491 149.961242 
L 208.228653 156.621718 
L 210.365801 160.817665 
L 212.465308 157.205646 
L 214.528479 151.205248 
L 216.556548 157.316079 
L 218.550691 153.609816 
L 220.512024 155.410234 
L 222.44161 160.316898 
L 224.340458 159.304939 
L 226.209535 157.134992 
L 226.701121 163.012209 
L 228.533829 165.235415 
L 230.338788 167.196198 
L 232.116824 163.437288 
L 233.86873 156.173269 
L 235.595263 160.250221 
L 237.297146 163.213816 
L 238.975074 160.728019 
L 240.629712 157.759935 
L 242.261698 161.272772 
L 243.871643 157.17369 
L 245.460135 151.743704 
L 247.027738 149.60816 
L 248.574994 155.308544 
L 250.102425 158.680669 
L 251.610532 155.823191 
L 253.099799 154.253666 
L 254.57069 155.973224 
L 256.023652 155.751364 
L 257.459119 160.75994 
L 258.877506 157.614658 
L 260.279215 157.421375 
L 261.664633 158.973944 
L 263.034136 153.924454 
L 264.388083 153.013115 
L 265.726826 157.153227 
L 267.050701 156.346217 
L 268.360035 157.218982 
L 269.655144 162.622023 
L 270.936334 163.034228 
L 272.203901 162.967291 
L 273.458132 152.468313 
L 275.026829 159.440193 
L 276.251858 153.987678 
L 277.464426 156.928724 
L 279.853177 167.59771 
L 281.029838 164.014165 
L 282.194999 164.392381 
L 283.348882 151.010266 
L 284.491703 155.374811 
L 285.623672 159.227283 
L 286.744993 159.329871 
L 287.855865 149.671803 
L 288.956481 153.232292 
L 290.047028 158.257097 
L 291.127689 157.289243 
L 292.198641 162.30766 
L 293.260058 166.699697 
L 294.312107 162.536359 
L 295.354953 167.058863 
L 296.388756 163.127124 
L 297.41367 156.75653 
L 298.429847 158.610562 
L 299.437436 158.577461 
L 300.436579 155.339559 
L 301.427417 151.045596 
L 302.410088 149.950334 
L 303.384725 156.845282 
L 304.351458 156.194129 
L 305.310414 159.386965 
L 306.261717 162.01707 
L 307.205489 165.25024 
L 308.141848 169.042953 
L 309.07091 170.791855 
L 309.316479 166.220226 
L 310.236466 167.132052 
L 311.149408 144.942377 
L 312.05541 150.182255 
L 312.95458 157.492416 
L 313.847017 160.948281 
L 314.732823 165.899284 
L 315.612096 162.993863 
L 316.48493 169.2836 
L 317.351421 170.718444 
L 318.211658 159.194476 
L 319.065733 159.762157 
L 319.913731 164.261695 
L 320.755741 163.628675 
L 321.591844 162.389641 
L 322.422124 160.370332 
L 323.246662 158.757428 
L 324.065535 160.881216 
L 324.878822 163.962954 
L 325.686598 162.628888 
L 326.488937 160.314459 
L 327.285912 166.123161 
L 328.077594 166.662191 
L 329.645358 163.971708 
L 330.421575 165.793044 
L 331.192771 132.941564 
L 334.228611 160.838779 
L 334.975643 163.053338 
L 335.718023 164.75849 
L 335.914443 168.94713 
L 336.651018 169.842791 
L 337.383069 169.589958 
L 338.110652 169.092995 
L 338.833821 169.833751 
L 339.55263 172.331075 
L 340.267131 170.248669 
L 340.977374 167.230059 
L 341.683411 171.322033 
L 342.385291 164.424531 
L 343.083063 167.00109 
L 343.776774 172.213965 
L 344.466472 172.76076 
L 345.152202 176.439357 
L 345.83401 164.422063 
L 346.511941 162.495731 
L 347.856345 168.450362 
L 348.522904 167.105541 
L 349.185757 172.065125 
L 349.844944 165.682337 
L 350.500506 169.791292 
L 351.152483 163.737842 
L 351.800913 167.633453 
L 352.445836 169.416246 
L 353.087288 170.046569 
L 353.725307 169.726139 
L 354.359929 157.987767 
L 354.991191 161.069585 
L 355.619128 166.796125 
L 356.865165 174.721144 
L 357.483333 171.919147 
L 357.646996 173.284502 
L 358.261134 175.426195 
L 358.872124 178.318217 
L 359.479998 181.898987 
L 360.084788 183.290349 
L 360.686526 183.262438 
L 361.285241 184.489628 
L 361.880964 183.996376 
L 362.473726 182.936864 
L 363.063554 182.898347 
L 363.650478 183.965622 
L 364.234527 181.753384 
L 364.815728 182.68746 
L 365.394109 179.548624 
L 365.969698 175.665276 
L 366.542521 175.126382 
L 367.112605 177.69619 
L 367.679975 180.808393 
L 368.244657 180.411352 
L 368.806678 178.42577 
L 369.366061 181.695463 
L 369.922832 180.446511 
L 370.477014 182.225655 
L 371.028632 184.504459 
L 371.577709 183.880289 
L 372.124269 184.86594 
L 372.668334 182.338285 
L 373.749071 171.669167 
L 374.285788 168.147675 
L 374.820099 169.654839 
L 375.352026 171.891298 
L 375.88159 170.964045 
L 376.02186 175.743376 
L 376.548463 176.181263 
L 377.072751 180.927053 
L 377.594742 171.596368 
L 378.114458 168.449779 
L 378.631917 173.570782 
L 379.14714 177.239299 
L 379.660146 176.501431 
L 380.170954 179.922854 
L 380.679583 157.580725 
L 381.18605 161.901653 
L 382.192575 175.600202 
L 382.692668 180.431563 
L 383.190672 174.688754 
L 383.686605 175.706101 
L 384.180483 177.643472 
L 384.672323 168.643095 
L 385.162142 172.712498 
L 385.649957 168.785713 
L 386.135784 172.969854 
L 386.619639 175.653636 
L 387.101537 179.400998 
L 387.581496 179.782988 
L 388.535655 165.401218 
L 389.482237 175.660065 
L 389.952725 161.021986 
L 390.888165 173.375098 
L 391.353147 172.50379 
L 391.939051 179.142816 
L 392.39996 172.643605 
L 392.859094 178.508851 
L 393.316466 174.82745 
L 393.77209 165.973819 
L 394.225979 172.272657 
L 394.678146 173.669164 
L 395.128605 168.739179 
L 395.577368 171.329573 
L 396.024449 172.833957 
L 396.469858 176.798452 
L 397.355716 176.961572 
L 397.796188 181.328613 
L 398.235039 164.483787 
L 398.67228 171.268573 
L 399.107924 173.602208 
L 399.541981 172.486593 
L 399.974463 177.198804 
L 400.405382 174.074684 
L 400.834749 179.332543 
L 401.262575 170.09852 
L 401.688871 169.448658 
L 402.113648 169.770208 
L 402.536917 172.819433 
L 402.958689 174.626315 
L 403.378973 168.018457 
L 403.797781 169.099906 
L 404.215122 172.307912 
L 405.045448 175.226202 
L 405.870029 183.906475 
L 405.979116 180.575981 
L 406.388904 178.347681 
L 406.797287 179.102469 
L 407.204277 181.014908 
L 407.609881 168.245906 
L 408.416973 164.623579 
L 409.218638 173.597228 
L 409.617458 174.481295 
L 410.014947 174.545528 
L 410.411116 179.534818 
L 410.805973 180.888233 
L 411.199526 181.042293 
L 411.591784 156.939813 
L 412.372449 168.629562 
L 412.760873 174.397106 
L 413.148035 175.436428 
L 413.533944 178.976878 
L 413.918608 180.523163 
L 414.302035 180.09754 
L 414.684232 167.261776 
L 415.065207 172.960909 
L 415.065207 172.960909 
" clip-path="url(#p56d195b930)" style="fill: none; stroke: #1f77b4; stroke-opacity: 0.9; stroke-width: 0.4; stroke-linecap: square"/>
   </g>
   <g id="line2d_92">
    <path d="M -1 163.583143 
L 18.107568 168.789066 
L 29.499639 170.426175 
L 40.861525 171.013295 
L 52.235883 175.601484 
L 63.529734 177.131523 
L 74.984387 176.302996 
L 86.280689 171.591033 
L 97.625535 178.458524 
L 108.995169 181.121228 
L 120.364097 180.837237 
L 131.706779 176.574692 
L 143.115218 176.236404 
L 154.482394 179.090698 
L 165.825048 180.971368 
L 177.191306 184.183319 
L 188.525371 186.400537 
L 199.890872 185.936332 
L 211.256044 186.919069 
L 222.620917 184.02931 
L 233.977374 191.824725 
L 245.336793 187.097068 
L 256.69868 187.451817 
L 268.074845 187.976632 
L 279.427461 198.016743 
L 290.791033 185.479149 
L 302.149855 196.925483 
L 313.513135 173.365429 
L 324.878822 200.781879 
L 336.237255 190.514555 
L 347.594955 204.902088 
L 358.957793 181.882834 
L 370.32141 210.277062 
L 381.682511 201.271673 
L 393.045113 204.985704 
L 404.40375 166.578879 
L 415.764455 209.579249 
L 427.128491 215.156239 
L 438.488425 218.442242 
L 449.853419 207.908311 
L 461.213288 211.10706 
L 461.8 211.564608 
L 461.8 211.564608 
" clip-path="url(#p56d195b930)" style="fill: none; stroke-dasharray: 5.55,2.4; stroke-dashoffset: 0; stroke: #ff7f0e; stroke-opacity: 0.4; stroke-width: 1.5"/>
   </g>
   <g id="line2d_93">
    <path d="M 52.857739 156.089866 
L 60.543596 156.872718 
L 67.763791 150.881246 
L 74.57154 151.246614 
L 81.011429 146.597791 
L 87.121183 150.98096 
L 92.933007 152.960775 
L 98.47461 150.895528 
L 103.770008 153.314341 
L 108.84015 156.412378 
L 113.70342 158.305002 
L 118.376041 157.75034 
L 122.872398 158.627562 
L 127.205308 152.725114 
L 131.386237 155.420966 
L 135.425487 157.038499 
L 139.332346 154.679284 
L 143.115218 153.475035 
L 144.100188 155.966177 
L 147.736987 157.810541 
L 151.266113 158.997918 
L 154.693759 153.470747 
L 158.025597 156.470096 
L 161.266839 156.832768 
L 164.422281 158.905945 
L 167.496349 159.711325 
L 170.493134 157.111146 
L 173.416428 158.836754 
L 176.269748 157.345351 
L 179.056366 155.320728 
L 181.77933 157.94858 
L 184.441483 159.690278 
L 187.045482 158.120159 
L 189.593813 157.392527 
L 192.088807 159.264883 
L 194.532651 160.509371 
L 196.9274 160.440436 
L 199.274988 159.408961 
L 201.577236 153.215194 
L 203.835863 156.618902 
L 206.052491 160.250531 
L 208.228653 161.771877 
L 210.365801 162.053395 
L 212.465308 160.715355 
L 214.528479 160.879686 
L 216.556548 157.142255 
L 218.550691 159.743841 
L 220.512024 157.824102 
L 222.44161 159.854035 
L 224.340458 160.071559 
L 226.701121 158.202689 
L 230.338788 163.434218 
L 232.116824 163.750167 
L 233.86873 164.493256 
L 235.595263 158.51954 
L 237.297146 153.839234 
L 238.975074 157.186897 
L 240.629712 158.183249 
L 242.261698 158.041653 
L 243.871643 160.663922 
L 245.460135 162.307708 
L 247.027738 160.237043 
L 248.574994 161.513089 
L 250.102425 163.948116 
L 251.610532 165.73953 
L 253.099799 159.978878 
L 254.57069 155.593994 
L 256.023652 158.378637 
L 257.459119 160.224903 
L 258.877506 160.126618 
L 260.279215 163.312604 
L 261.664633 147.040006 
L 263.034136 152.047319 
L 264.388083 155.068782 
L 265.726826 155.134508 
L 267.050701 156.017934 
L 268.360035 155.329558 
L 269.655144 159.328549 
L 270.936334 162.665807 
L 272.203901 164.445148 
L 273.458132 165.580066 
L 274.699303 162.850877 
L 275.026829 162.479022 
L 276.251858 164.669978 
L 277.464426 161.83465 
L 278.664785 165.182692 
L 279.853177 162.380376 
L 281.029838 163.883221 
L 282.194999 166.541992 
L 283.348882 167.309415 
L 284.491703 141.009703 
L 286.744993 151.37264 
L 287.855865 155.4614 
L 290.047028 161.018097 
L 291.127689 162.310647 
L 292.198641 164.300303 
L 293.260058 164.066322 
L 294.312107 163.066121 
L 295.354953 165.154201 
L 296.388756 163.16405 
L 297.41367 162.394817 
L 298.429847 165.184511 
L 299.437436 164.68819 
L 300.436579 164.612611 
L 301.427417 166.160804 
L 302.410088 165.648957 
L 303.384725 162.47073 
L 304.351458 163.102042 
L 305.310414 161.888826 
L 306.261717 165.296459 
L 307.205489 167.231757 
L 308.141848 168.433739 
L 309.07091 169.443625 
L 309.316479 170.208506 
L 310.236466 170.297649 
L 311.149408 169.104845 
L 312.05541 159.67386 
L 312.95458 157.294337 
L 314.732823 164.68509 
L 315.612096 165.751603 
L 316.48493 167.764128 
L 317.351421 166.419289 
L 318.211658 166.545357 
L 319.065733 163.47524 
L 319.913731 166.52022 
L 320.755741 167.323525 
L 321.591844 167.532317 
L 322.422124 164.63046 
L 323.246662 166.946555 
L 324.065535 166.694312 
L 324.878822 167.442628 
L 325.686598 165.635511 
L 326.488937 167.157431 
L 327.285912 165.78597 
L 328.077594 167.738994 
L 328.864053 165.428026 
L 329.645358 168.408105 
L 330.421575 166.356611 
L 331.192771 166.473527 
L 331.95901 165.483766 
L 332.720355 160.488963 
L 334.228611 166.978346 
L 334.975643 159.096957 
L 335.718023 161.405135 
L 335.914443 164.183526 
L 338.110652 169.513314 
L 338.833821 168.698655 
L 339.55263 169.359495 
L 340.267131 163.341446 
L 340.977374 166.540278 
L 341.683411 167.859389 
L 342.385291 169.431963 
L 343.083063 167.524501 
L 343.776774 167.806269 
L 344.466472 169.110953 
L 345.152202 167.620784 
L 345.83401 169.853987 
L 346.511941 171.103931 
L 347.186038 171.652748 
L 347.856345 168.733155 
L 348.522904 168.921295 
L 349.185757 160.810276 
L 349.844944 155.104444 
L 350.500506 157.373125 
L 351.152483 156.504781 
L 351.800913 160.540257 
L 352.445836 162.452522 
L 354.359929 168.917314 
L 354.991191 169.344018 
L 355.619128 169.587308 
L 356.243774 170.197523 
L 356.865165 167.707666 
L 357.483333 168.073308 
L 357.646996 160.388866 
L 358.261134 160.273401 
L 358.872124 162.936996 
L 359.479998 162.83218 
L 360.084788 164.500806 
L 360.686526 162.709855 
L 361.285241 164.326573 
L 361.880964 166.468143 
L 362.473726 162.335875 
L 363.063554 165.298923 
L 363.650478 166.365629 
L 364.234527 164.645337 
L 364.815728 167.14975 
L 365.394109 167.794746 
L 365.969698 170.615259 
L 366.542521 172.234307 
L 367.112605 172.56304 
L 367.679975 173.071221 
L 368.244657 171.196939 
L 369.366061 171.967106 
L 369.922832 169.366555 
L 370.477014 168.925754 
L 371.028632 169.876279 
L 371.577709 165.107598 
L 372.124269 168.269192 
L 372.668334 170.251797 
L 373.209927 171.159955 
L 373.749071 171.132245 
L 374.285788 169.193052 
L 374.820099 169.983258 
L 375.352026 163.621029 
L 375.88159 148.601557 
L 376.02186 152.309444 
L 376.548463 156.484419 
L 377.594742 166.081229 
L 378.114458 168.343083 
L 379.14714 170.923669 
L 379.660146 170.376083 
L 380.170954 171.661994 
L 380.679583 171.456337 
L 381.18605 168.259926 
L 381.690375 169.880434 
L 382.192575 168.881876 
L 382.692668 170.268646 
L 383.190672 171.998819 
L 383.686605 172.780424 
L 384.180483 172.38115 
L 384.672323 170.949684 
L 385.162142 173.045265 
L 385.649957 173.804265 
L 386.135784 167.583768 
L 386.619639 170.40802 
L 387.101537 169.15658 
L 387.581496 170.992535 
L 388.05953 169.880746 
L 388.535655 172.3236 
L 389.009886 171.007991 
L 389.482237 154.024149 
L 389.952725 156.933411 
L 390.421363 161.330694 
L 390.888165 162.406789 
L 391.353147 165.263569 
L 391.816322 166.650522 
L 391.939051 168.924549 
L 392.39996 169.41338 
L 392.859094 168.762319 
L 393.316466 170.686569 
L 393.77209 169.822059 
L 394.225979 170.555171 
L 394.678146 171.896712 
L 395.128605 168.354648 
L 395.577368 170.535797 
L 396.024449 171.237579 
L 396.469858 170.403003 
L 396.91361 170.52861 
L 397.355716 168.371321 
L 397.796188 170.718924 
L 398.235039 168.511503 
L 398.67228 169.346417 
L 399.107924 163.125607 
L 399.541981 162.286872 
L 399.974463 165.942787 
L 400.405382 163.723003 
L 401.262575 170.111268 
L 401.688871 169.518333 
L 402.113648 171.947437 
L 402.536917 173.048553 
L 402.958689 173.452413 
L 403.378973 164.823867 
L 403.797781 153.346307 
L 404.215122 156.289842 
L 404.631008 157.320002 
L 405.045448 155.759916 
L 405.458451 160.54752 
L 405.979116 164.891269 
L 406.388904 165.394872 
L 407.204277 167.396433 
L 407.609881 169.204309 
L 408.01411 167.352416 
L 408.416973 168.479384 
L 408.818479 168.216167 
L 409.617458 171.101094 
L 410.014947 170.555533 
L 410.411116 165.219101 
L 410.805973 167.418161 
L 411.199526 168.737688 
L 411.591784 171.098307 
L 412.372449 173.239144 
L 412.760873 167.559003 
L 413.148035 170.531754 
L 413.918608 173.669911 
L 414.302035 172.688146 
L 414.684232 174.623532 
L 415.065207 171.863267 
L 415.065207 171.863267 
" clip-path="url(#p56d195b930)" style="fill: none; stroke: #ff7f0e; stroke-opacity: 0.9; stroke-width: 0.4; stroke-linecap: square"/>
   </g>
   <g id="line2d_94">
    <path d="M -1 165.98461 
L 6.79548 167.189764 
L 18.107568 171.513156 
L 29.499639 173.07667 
L 40.861525 169.37565 
L 63.529734 171.827028 
L 74.984387 174.082415 
L 86.280689 170.189075 
L 97.625535 173.507551 
L 108.995169 179.550919 
L 120.364097 180.3701 
L 131.706779 172.727785 
L 143.115218 175.071132 
L 154.482394 178.558636 
L 165.825048 182.769786 
L 177.191306 187.970076 
L 188.525371 187.143897 
L 199.890872 194.052389 
L 211.256044 190.444694 
L 222.620917 194.483889 
L 233.977374 196.804059 
L 245.336793 195.243521 
L 256.69868 181.841264 
L 268.074845 196.386735 
L 279.427461 203.898907 
L 290.791033 200.618041 
L 302.149855 206.65173 
L 313.513135 189.627313 
L 324.878822 198.213373 
L 336.237255 188.25338 
L 347.594955 211.928573 
L 358.957793 186.026595 
L 370.32141 209.965606 
L 381.682511 217.226915 
L 393.045113 218.428992 
L 404.40375 218.901139 
L 415.764455 217.589504 
L 427.128491 222.077801 
L 438.488425 222.703838 
L 449.853419 207.667864 
L 461.213288 218.882522 
L 461.8 218.944186 
L 461.8 218.944186 
" clip-path="url(#p56d195b930)" style="fill: none; stroke-dasharray: 5.55,2.4; stroke-dashoffset: 0; stroke: #2ca02c; stroke-opacity: 0.4; stroke-width: 1.5"/>
   </g>
   <g id="line2d_95">
    <path d="M 52.857739 152.956641 
L 60.543596 151.079497 
L 67.763791 150.958913 
L 74.57154 147.626193 
L 81.011429 149.996462 
L 87.121183 143.466968 
L 92.933007 148.481086 
L 98.47461 144.652894 
L 103.770008 148.680232 
L 108.84015 151.765715 
L 113.70342 155.473166 
L 118.376041 155.797658 
L 122.872398 146.993521 
L 127.205308 150.239502 
L 131.386237 151.143015 
L 135.425487 148.943943 
L 139.332346 152.388752 
L 143.115218 152.528152 
L 144.100188 154.317291 
L 147.736987 154.781311 
L 151.266113 155.673242 
L 154.693759 151.635145 
L 158.025597 151.967585 
L 161.266839 156.566137 
L 164.422281 158.699204 
L 167.496349 155.00872 
L 170.493134 158.633966 
L 173.416428 161.566415 
L 176.269748 161.777538 
L 179.056366 161.090668 
L 181.77933 158.000691 
L 184.441483 160.465567 
L 187.045482 161.418204 
L 189.593813 163.580973 
L 192.088807 161.255947 
L 194.532651 162.772999 
L 196.9274 158.363529 
L 199.274988 156.649951 
L 201.577236 157.718318 
L 203.835863 159.354499 
L 206.052491 161.73207 
L 208.228653 160.400864 
L 210.365801 163.254018 
L 212.465308 160.137658 
L 214.528479 159.439482 
L 216.556548 163.049444 
L 218.550691 160.369427 
L 220.512024 163.687297 
L 222.44161 164.73026 
L 224.340458 161.721303 
L 226.209535 159.043092 
L 226.701121 156.895609 
L 228.533829 160.730353 
L 230.338788 163.854016 
L 232.116824 163.203801 
L 233.86873 165.91923 
L 235.595263 166.395489 
L 237.297146 164.54689 
L 238.975074 165.385026 
L 240.629712 165.080563 
L 242.261698 160.870116 
L 243.871643 163.605847 
L 245.460135 165.994356 
L 248.574994 168.833748 
L 250.102425 169.402263 
L 251.610532 163.878539 
L 253.099799 157.361192 
L 254.57069 158.999145 
L 256.023652 154.727473 
L 257.459119 155.433412 
L 258.877506 160.050958 
L 260.279215 163.205535 
L 261.664633 165.064856 
L 263.034136 165.111691 
L 264.388083 164.246542 
L 265.726826 160.529798 
L 267.050701 161.697308 
L 268.360035 158.732665 
L 269.655144 162.595874 
L 270.936334 164.646283 
L 272.203901 165.273392 
L 273.458132 167.842584 
L 274.699303 169.029752 
L 275.026829 168.366031 
L 276.251858 169.334766 
L 277.464426 167.192172 
L 278.664785 165.583426 
L 279.853177 169.072838 
L 281.029838 169.194076 
L 282.194999 147.862112 
L 283.348882 151.005354 
L 284.491703 155.3289 
L 286.744993 165.209484 
L 287.855865 162.52548 
L 288.956481 166.058009 
L 290.047028 168.202549 
L 291.127689 167.535989 
L 292.198641 168.324051 
L 293.260058 169.451939 
L 294.312107 171.742524 
L 295.354953 169.483425 
L 296.388756 167.798872 
L 297.41367 169.809512 
L 298.429847 169.417756 
L 299.437436 170.037413 
L 300.436579 171.815616 
L 302.410088 173.231015 
L 303.384725 162.892083 
L 304.351458 163.932147 
L 305.310414 161.710694 
L 306.261717 146.661632 
L 307.205489 144.678546 
L 308.141848 145.501457 
L 309.07091 151.731966 
L 309.316479 154.611724 
L 310.236466 154.443632 
L 311.149408 157.738574 
L 312.05541 162.298686 
L 312.95458 163.415491 
L 313.847017 166.051593 
L 314.732823 166.163507 
L 315.612096 165.850906 
L 316.48493 167.769847 
L 317.351421 166.936283 
L 318.211658 164.246695 
L 319.065733 167.056454 
L 319.913731 169.06714 
L 320.755741 170.722592 
L 321.591844 168.790855 
L 322.422124 168.638354 
L 323.246662 166.043221 
L 324.065535 165.329697 
L 324.878822 157.733934 
L 325.686598 162.363966 
L 326.488937 166.269356 
L 327.285912 167.859288 
L 328.077594 170.139218 
L 328.864053 170.681647 
L 330.421575 173.156248 
L 331.192771 173.80622 
L 331.95901 169.514385 
L 332.720355 169.20289 
L 333.476868 168.52355 
L 334.228611 169.141224 
L 334.975643 157.504928 
L 335.718023 157.05423 
L 335.914443 159.938255 
L 336.651018 164.682613 
L 338.110652 168.057888 
L 338.833821 168.238535 
L 340.267131 172.750315 
L 340.977374 173.322672 
L 341.683411 160.283907 
L 342.385291 159.323977 
L 343.083063 162.287402 
L 343.776774 166.807542 
L 344.466472 169.747549 
L 345.152202 171.746685 
L 345.83401 172.025363 
L 346.511941 172.853176 
L 347.186038 174.051678 
L 347.856345 172.297414 
L 348.522904 173.610404 
L 349.185757 173.073783 
L 349.844944 170.269095 
L 350.500506 172.522305 
L 351.152483 173.240704 
L 351.800913 173.486763 
L 352.445836 169.511412 
L 353.087288 167.32548 
L 353.725307 171.207787 
L 354.359929 169.109632 
L 354.991191 171.451718 
L 355.619128 172.50444 
L 356.243774 149.735467 
L 356.865165 154.810323 
L 357.646996 159.357853 
L 358.261134 158.232824 
L 358.872124 163.353805 
L 359.479998 166.77497 
L 360.084788 163.492993 
L 360.686526 167.254684 
L 361.285241 162.695021 
L 361.880964 166.877891 
L 362.473726 168.750409 
L 363.063554 171.566162 
L 363.650478 171.770879 
L 364.234527 171.764684 
L 364.815728 172.662164 
L 365.394109 167.272434 
L 365.969698 168.697638 
L 366.542521 171.233979 
L 367.112605 171.838831 
L 367.679975 172.687376 
L 368.244657 173.063813 
L 369.366061 175.588441 
L 369.922832 174.259261 
L 370.477014 173.598127 
L 371.028632 172.68515 
L 371.577709 173.315653 
L 372.124269 174.767924 
L 372.668334 174.083394 
L 373.209927 165.862896 
L 373.749071 164.509321 
L 374.285788 167.625574 
L 374.820099 169.312098 
L 375.352026 167.393142 
L 375.88159 166.772071 
L 376.02186 166.881806 
L 377.072751 172.577436 
L 377.594742 174.18686 
L 378.631917 176.365927 
L 379.14714 175.592076 
L 379.660146 175.463957 
L 380.170954 175.676335 
L 380.679583 176.30117 
L 381.18605 177.294457 
L 381.690375 175.864328 
L 382.192575 173.844675 
L 382.692668 175.405385 
L 383.190672 176.250493 
L 383.686605 175.307152 
L 384.180483 176.659248 
L 384.672323 176.537052 
L 385.162142 177.821722 
L 385.649957 178.027231 
L 386.135784 177.315871 
L 386.619639 174.83536 
L 387.101537 176.404175 
L 387.581496 176.045924 
L 388.05953 177.310336 
L 388.535655 175.910461 
L 389.009886 177.085664 
L 389.952725 170.882038 
L 390.421363 173.448384 
L 390.888165 174.537976 
L 391.353147 174.657079 
L 391.816322 176.438006 
L 391.939051 177.475315 
L 392.39996 176.116425 
L 392.859094 172.795631 
L 393.316466 175.313923 
L 393.77209 175.199993 
L 394.225979 177.063175 
L 394.678146 171.082122 
L 395.128605 174.387516 
L 396.024449 175.935841 
L 396.469858 173.417846 
L 396.91361 174.064892 
L 397.355716 171.489236 
L 397.796188 173.573424 
L 398.235039 171.442943 
L 398.67228 174.355928 
L 399.107924 173.825322 
L 399.541981 172.583898 
L 400.405382 176.287359 
L 400.834749 175.275701 
L 401.262575 170.963479 
L 401.688871 170.766857 
L 402.113648 168.968788 
L 402.536917 172.880836 
L 402.958689 175.068413 
L 403.378973 174.027478 
L 403.797781 175.304635 
L 404.215122 176.023609 
L 404.631008 173.094746 
L 405.045448 176.056993 
L 405.979116 167.510616 
L 406.388904 171.708469 
L 406.797287 173.051991 
L 407.204277 174.890985 
L 407.609881 171.787193 
L 408.01411 174.738591 
L 408.416973 173.881993 
L 409.218638 178.228422 
L 409.617458 179.259267 
L 410.014947 171.632036 
L 410.411116 172.885014 
L 410.805973 173.345852 
L 411.199526 175.00115 
L 411.591784 176.066952 
L 411.982756 173.737131 
L 412.760873 177.392963 
L 413.148035 173.907451 
L 413.533944 176.027693 
L 413.918608 175.156311 
L 414.302035 175.632545 
L 415.065207 179.013298 
L 415.065207 179.013298 
" clip-path="url(#p56d195b930)" style="fill: none; stroke: #2ca02c; stroke-opacity: 0.9; stroke-width: 0.4; stroke-linecap: square"/>
   </g>
   <g id="patch_3">
    <path d="M 57.6 307.584 
L 57.6 41.472 
" style="fill: none; stroke: #000000; stroke-width: 0.8; stroke-linejoin: miter; stroke-linecap: square"/>
   </g>
   <g id="patch_4">
    <path d="M 414.72 307.584 
L 414.72 41.472 
" style="fill: none; stroke: #000000; stroke-width: 0.8; stroke-linejoin: miter; stroke-linecap: square"/>
   </g>
   <g id="patch_5">
    <path d="M 57.6 307.584 
L 414.72 307.584 
" style="fill: none; stroke: #000000; stroke-width: 0.8; stroke-linejoin: miter; stroke-linecap: square"/>
   </g>
   <g id="patch_6">
    <path d="M 57.6 41.472 
L 414.72 41.472 
" style="fill: none; stroke: #000000; stroke-width: 0.8; stroke-linejoin: miter; stroke-linecap: square"/>
   </g>
   <g id="text_14">
    <!-- 2025-02-18-13:04:16 -->
    <g transform="translate(172.178438 35.472) scale(0.12 -0.12)">
     <defs>
      <path id="DejaVuSans-2d" d="M 313 2009 
L 1997 2009 
L 1997 1497 
L 313 1497 
L 313 2009 
z
" transform="scale(0.015625)"/>
      <path id="DejaVuSans-38" d="M 2034 2216 
Q 1584 2216 1326 1975 
Q 1069 1734 1069 1313 
Q 1069 891 1326 650 
Q 1584 409 2034 409 
Q 2484 409 2743 651 
Q 3003 894 3003 1313 
Q 3003 1734 2745 1975 
Q 2488 2216 2034 2216 
z
M 1403 2484 
Q 997 2584 770 2862 
Q 544 3141 544 3541 
Q 544 4100 942 4425 
Q 1341 4750 2034 4750 
Q 2731 4750 3128 4425 
Q 3525 4100 3525 3541 
Q 3525 3141 3298 2862 
Q 3072 2584 2669 2484 
Q 3125 2378 3379 2068 
Q 3634 1759 3634 1313 
Q 3634 634 3220 271 
Q 2806 -91 2034 -91 
Q 1263 -91 848 271 
Q 434 634 434 1313 
Q 434 1759 690 2068 
Q 947 2378 1403 2484 
z
M 1172 3481 
Q 1172 3119 1398 2916 
Q 1625 2713 2034 2713 
Q 2441 2713 2670 2916 
Q 2900 3119 2900 3481 
Q 2900 3844 2670 4047 
Q 2441 4250 2034 4250 
Q 1625 4250 1398 4047 
Q 1172 3844 1172 3481 
z
" transform="scale(0.015625)"/>
      <path id="DejaVuSans-3a" d="M 750 794 
L 1409 794 
L 1409 0 
L 750 0 
L 750 794 
z
M 750 3309 
L 1409 3309 
L 1409 2516 
L 750 2516 
L 750 3309 
z
" transform="scale(0.015625)"/>
     </defs>
     <use xlink:href="#DejaVuSans-32"/>
     <use xlink:href="#DejaVuSans-30" x="63.623047"/>
     <use xlink:href="#DejaVuSans-32" x="127.246094"/>
     <use xlink:href="#DejaVuSans-35" x="190.869141"/>
     <use xlink:href="#DejaVuSans-2d" x="254.492188"/>
     <use xlink:href="#DejaVuSans-30" x="290.576172"/>
     <use xlink:href="#DejaVuSans-32" x="354.199219"/>
     <use xlink:href="#DejaVuSans-2d" x="417.822266"/>
     <use xlink:href="#DejaVuSans-31" x="453.90625"/>
     <use xlink:href="#DejaVuSans-38" x="517.529297"/>
     <use xlink:href="#DejaVuSans-2d" x="581.152344"/>
     <use xlink:href="#DejaVuSans-31" x="617.236328"/>
     <use xlink:href="#DejaVuSans-33" x="680.859375"/>
     <use xlink:href="#DejaVuSans-3a" x="744.482422"/>
     <use xlink:href="#DejaVuSans-30" x="778.173828"/>
     <use xlink:href="#DejaVuSans-34" x="841.796875"/>
     <use xlink:href="#DejaVuSans-3a" x="905.419922"/>
     <use xlink:href="#DejaVuSans-31" x="939.111328"/>
     <use xlink:href="#DejaVuSans-36" x="1002.734375"/>
    </g>
   </g>
   <g id="legend_1">
    <g id="patch_7">
     <path d="M 64.6 138.375125 
L 190.723438 138.375125 
Q 192.723438 138.375125 192.723438 136.375125 
L 192.723438 48.472 
Q 192.723438 46.472 190.723438 46.472 
L 64.6 46.472 
Q 62.6 46.472 62.6 48.472 
L 62.6 136.375125 
Q 62.6 138.375125 64.6 138.375125 
z
" style="fill: #ffffff; opacity: 0.8; stroke: #cccccc; stroke-linejoin: miter"/>
    </g>
    <g id="line2d_96">
     <path d="M 66.6 54.570437 
L 76.6 54.570437 
L 86.6 54.570437 
" style="fill: none; stroke-dasharray: 5.55,2.4; stroke-dashoffset: 0; stroke: #1f77b4; stroke-opacity: 0.4; stroke-width: 1.5"/>
    </g>
    <g id="text_15">
     <!-- SchNet MEA -->
     <g transform="translate(94.6 58.070437) scale(0.1 -0.1)">
      <defs>
       <path id="DejaVuSans-53" d="M 3425 4513 
L 3425 3897 
Q 3066 4069 2747 4153 
Q 2428 4238 2131 4238 
Q 1616 4238 1336 4038 
Q 1056 3838 1056 3469 
Q 1056 3159 1242 3001 
Q 1428 2844 1947 2747 
L 2328 2669 
Q 3034 2534 3370 2195 
Q 3706 1856 3706 1288 
Q 3706 609 3251 259 
Q 2797 -91 1919 -91 
Q 1588 -91 1214 -16 
Q 841 59 441 206 
L 441 856 
Q 825 641 1194 531 
Q 1563 422 1919 422 
Q 2459 422 2753 634 
Q 3047 847 3047 1241 
Q 3047 1584 2836 1778 
Q 2625 1972 2144 2069 
L 1759 2144 
Q 1053 2284 737 2584 
Q 422 2884 422 3419 
Q 422 4038 858 4394 
Q 1294 4750 2059 4750 
Q 2388 4750 2728 4690 
Q 3069 4631 3425 4513 
z
" transform="scale(0.015625)"/>
       <path id="DejaVuSans-63" d="M 3122 3366 
L 3122 2828 
Q 2878 2963 2633 3030 
Q 2388 3097 2138 3097 
Q 1578 3097 1268 2742 
Q 959 2388 959 1747 
Q 959 1106 1268 751 
Q 1578 397 2138 397 
Q 2388 397 2633 464 
Q 2878 531 3122 666 
L 3122 134 
Q 2881 22 2623 -34 
Q 2366 -91 2075 -91 
Q 1284 -91 818 406 
Q 353 903 353 1747 
Q 353 2603 823 3093 
Q 1294 3584 2113 3584 
Q 2378 3584 2631 3529 
Q 2884 3475 3122 3366 
z
" transform="scale(0.015625)"/>
       <path id="DejaVuSans-68" d="M 3513 2113 
L 3513 0 
L 2938 0 
L 2938 2094 
Q 2938 2591 2744 2837 
Q 2550 3084 2163 3084 
Q 1697 3084 1428 2787 
Q 1159 2491 1159 1978 
L 1159 0 
L 581 0 
L 581 4863 
L 1159 4863 
L 1159 2956 
Q 1366 3272 1645 3428 
Q 1925 3584 2291 3584 
Q 2894 3584 3203 3211 
Q 3513 2838 3513 2113 
z
" transform="scale(0.015625)"/>
       <path id="DejaVuSans-4e" d="M 628 4666 
L 1478 4666 
L 3547 763 
L 3547 4666 
L 4159 4666 
L 4159 0 
L 3309 0 
L 1241 3903 
L 1241 0 
L 628 0 
L 628 4666 
z
" transform="scale(0.015625)"/>
       <path id="DejaVuSans-20" transform="scale(0.015625)"/>
       <path id="DejaVuSans-4d" d="M 628 4666 
L 1569 4666 
L 2759 1491 
L 3956 4666 
L 4897 4666 
L 4897 0 
L 4281 0 
L 4281 4097 
L 3078 897 
L 2444 897 
L 1241 4097 
L 1241 0 
L 628 0 
L 628 4666 
z
" transform="scale(0.015625)"/>
       <path id="DejaVuSans-45" d="M 628 4666 
L 3578 4666 
L 3578 4134 
L 1259 4134 
L 1259 2753 
L 3481 2753 
L 3481 2222 
L 1259 2222 
L 1259 531 
L 3634 531 
L 3634 0 
L 628 0 
L 628 4666 
z
" transform="scale(0.015625)"/>
       <path id="DejaVuSans-41" d="M 2188 4044 
L 1331 1722 
L 3047 1722 
L 2188 4044 
z
M 1831 4666 
L 2547 4666 
L 4325 0 
L 3669 0 
L 3244 1197 
L 1141 1197 
L 716 0 
L 50 0 
L 1831 4666 
z
" transform="scale(0.015625)"/>
      </defs>
      <use xlink:href="#DejaVuSans-53"/>
      <use xlink:href="#DejaVuSans-63" x="63.476562"/>
      <use xlink:href="#DejaVuSans-68" x="118.457031"/>
      <use xlink:href="#DejaVuSans-4e" x="181.835938"/>
      <use xlink:href="#DejaVuSans-65" x="256.640625"/>
      <use xlink:href="#DejaVuSans-74" x="318.164062"/>
      <use xlink:href="#DejaVuSans-20" x="357.373047"/>
      <use xlink:href="#DejaVuSans-4d" x="389.160156"/>
      <use xlink:href="#DejaVuSans-45" x="475.439453"/>
      <use xlink:href="#DejaVuSans-41" x="538.623047"/>
     </g>
    </g>
    <g id="line2d_97">
     <path d="M 66.6 69.248562 
L 76.6 69.248562 
L 86.6 69.248562 
" style="fill: none; stroke: #1f77b4; stroke-opacity: 0.9; stroke-width: 0.4; stroke-linecap: square"/>
    </g>
    <g id="text_16">
     <!-- SchNet eval_loss -->
     <g transform="translate(94.6 72.748562) scale(0.1 -0.1)">
      <defs>
       <path id="DejaVuSans-76" d="M 191 3500 
L 800 3500 
L 1894 563 
L 2988 3500 
L 3597 3500 
L 2284 0 
L 1503 0 
L 191 3500 
z
" transform="scale(0.015625)"/>
       <path id="DejaVuSans-61" d="M 2194 1759 
Q 1497 1759 1228 1600 
Q 959 1441 959 1056 
Q 959 750 1161 570 
Q 1363 391 1709 391 
Q 2188 391 2477 730 
Q 2766 1069 2766 1631 
L 2766 1759 
L 2194 1759 
z
M 3341 1997 
L 3341 0 
L 2766 0 
L 2766 531 
Q 2569 213 2275 61 
Q 1981 -91 1556 -91 
Q 1019 -91 701 211 
Q 384 513 384 1019 
Q 384 1609 779 1909 
Q 1175 2209 1959 2209 
L 2766 2209 
L 2766 2266 
Q 2766 2663 2505 2880 
Q 2244 3097 1772 3097 
Q 1472 3097 1187 3025 
Q 903 2953 641 2809 
L 641 3341 
Q 956 3463 1253 3523 
Q 1550 3584 1831 3584 
Q 2591 3584 2966 3190 
Q 3341 2797 3341 1997 
z
" transform="scale(0.015625)"/>
       <path id="DejaVuSans-5f" d="M 3263 -1063 
L 3263 -1509 
L -63 -1509 
L -63 -1063 
L 3263 -1063 
z
" transform="scale(0.015625)"/>
      </defs>
      <use xlink:href="#DejaVuSans-53"/>
      <use xlink:href="#DejaVuSans-63" x="63.476562"/>
      <use xlink:href="#DejaVuSans-68" x="118.457031"/>
      <use xlink:href="#DejaVuSans-4e" x="181.835938"/>
      <use xlink:href="#DejaVuSans-65" x="256.640625"/>
      <use xlink:href="#DejaVuSans-74" x="318.164062"/>
      <use xlink:href="#DejaVuSans-20" x="357.373047"/>
      <use xlink:href="#DejaVuSans-65" x="389.160156"/>
      <use xlink:href="#DejaVuSans-76" x="450.683594"/>
      <use xlink:href="#DejaVuSans-61" x="509.863281"/>
      <use xlink:href="#DejaVuSans-6c" x="571.142578"/>
      <use xlink:href="#DejaVuSans-5f" x="598.925781"/>
      <use xlink:href="#DejaVuSans-6c" x="648.925781"/>
      <use xlink:href="#DejaVuSans-6f" x="676.708984"/>
      <use xlink:href="#DejaVuSans-73" x="737.890625"/>
      <use xlink:href="#DejaVuSans-73" x="789.990234"/>
     </g>
    </g>
    <g id="line2d_98">
     <path d="M 66.6 84.204812 
L 76.6 84.204812 
L 86.6 84.204812 
" style="fill: none; stroke-dasharray: 5.55,2.4; stroke-dashoffset: 0; stroke: #ff7f0e; stroke-opacity: 0.4; stroke-width: 1.5"/>
    </g>
    <g id="text_17">
     <!-- MoGIN13 MEA -->
     <g transform="translate(94.6 87.704812) scale(0.1 -0.1)">
      <defs>
       <path id="DejaVuSans-47" d="M 3809 666 
L 3809 1919 
L 2778 1919 
L 2778 2438 
L 4434 2438 
L 4434 434 
Q 4069 175 3628 42 
Q 3188 -91 2688 -91 
Q 1594 -91 976 548 
Q 359 1188 359 2328 
Q 359 3472 976 4111 
Q 1594 4750 2688 4750 
Q 3144 4750 3555 4637 
Q 3966 4525 4313 4306 
L 4313 3634 
Q 3963 3931 3569 4081 
Q 3175 4231 2741 4231 
Q 1884 4231 1454 3753 
Q 1025 3275 1025 2328 
Q 1025 1384 1454 906 
Q 1884 428 2741 428 
Q 3075 428 3337 486 
Q 3600 544 3809 666 
z
" transform="scale(0.015625)"/>
       <path id="DejaVuSans-49" d="M 628 4666 
L 1259 4666 
L 1259 0 
L 628 0 
L 628 4666 
z
" transform="scale(0.015625)"/>
      </defs>
      <use xlink:href="#DejaVuSans-4d"/>
      <use xlink:href="#DejaVuSans-6f" x="86.279297"/>
      <use xlink:href="#DejaVuSans-47" x="147.460938"/>
      <use xlink:href="#DejaVuSans-49" x="224.951172"/>
      <use xlink:href="#DejaVuSans-4e" x="254.443359"/>
      <use xlink:href="#DejaVuSans-31" x="329.248047"/>
      <use xlink:href="#DejaVuSans-33" x="392.871094"/>
      <use xlink:href="#DejaVuSans-20" x="456.494141"/>
      <use xlink:href="#DejaVuSans-4d" x="488.28125"/>
      <use xlink:href="#DejaVuSans-45" x="574.560547"/>
      <use xlink:href="#DejaVuSans-41" x="637.744141"/>
     </g>
    </g>
    <g id="line2d_99">
     <path d="M 66.6 98.882937 
L 76.6 98.882937 
L 86.6 98.882937 
" style="fill: none; stroke: #ff7f0e; stroke-opacity: 0.9; stroke-width: 0.4; stroke-linecap: square"/>
    </g>
    <g id="text_18">
     <!-- MoGIN13 eval_loss -->
     <g transform="translate(94.6 102.382937) scale(0.1 -0.1)">
      <use xlink:href="#DejaVuSans-4d"/>
      <use xlink:href="#DejaVuSans-6f" x="86.279297"/>
      <use xlink:href="#DejaVuSans-47" x="147.460938"/>
      <use xlink:href="#DejaVuSans-49" x="224.951172"/>
      <use xlink:href="#DejaVuSans-4e" x="254.443359"/>
      <use xlink:href="#DejaVuSans-31" x="329.248047"/>
      <use xlink:href="#DejaVuSans-33" x="392.871094"/>
      <use xlink:href="#DejaVuSans-20" x="456.494141"/>
      <use xlink:href="#DejaVuSans-65" x="488.28125"/>
      <use xlink:href="#DejaVuSans-76" x="549.804688"/>
      <use xlink:href="#DejaVuSans-61" x="608.984375"/>
      <use xlink:href="#DejaVuSans-6c" x="670.263672"/>
      <use xlink:href="#DejaVuSans-5f" x="698.046875"/>
      <use xlink:href="#DejaVuSans-6c" x="748.046875"/>
      <use xlink:href="#DejaVuSans-6f" x="775.830078"/>
      <use xlink:href="#DejaVuSans-73" x="837.011719"/>
      <use xlink:href="#DejaVuSans-73" x="889.111328"/>
     </g>
    </g>
    <g id="line2d_100">
     <path d="M 66.6 113.839187 
L 76.6 113.839187 
L 86.6 113.839187 
" style="fill: none; stroke-dasharray: 5.55,2.4; stroke-dashoffset: 0; stroke: #2ca02c; stroke-opacity: 0.4; stroke-width: 1.5"/>
    </g>
    <g id="text_19">
     <!-- MoGIN11 MEA -->
     <g transform="translate(94.6 117.339187) scale(0.1 -0.1)">
      <use xlink:href="#DejaVuSans-4d"/>
      <use xlink:href="#DejaVuSans-6f" x="86.279297"/>
      <use xlink:href="#DejaVuSans-47" x="147.460938"/>
      <use xlink:href="#DejaVuSans-49" x="224.951172"/>
      <use xlink:href="#DejaVuSans-4e" x="254.443359"/>
      <use xlink:href="#DejaVuSans-31" x="329.248047"/>
      <use xlink:href="#DejaVuSans-31" x="392.871094"/>
      <use xlink:href="#DejaVuSans-20" x="456.494141"/>
      <use xlink:href="#DejaVuSans-4d" x="488.28125"/>
      <use xlink:href="#DejaVuSans-45" x="574.560547"/>
      <use xlink:href="#DejaVuSans-41" x="637.744141"/>
     </g>
    </g>
    <g id="line2d_101">
     <path d="M 66.6 128.517312 
L 76.6 128.517312 
L 86.6 128.517312 
" style="fill: none; stroke: #2ca02c; stroke-opacity: 0.9; stroke-width: 0.4; stroke-linecap: square"/>
    </g>
    <g id="text_20">
     <!-- MoGIN11 eval_loss -->
     <g transform="translate(94.6 132.017312) scale(0.1 -0.1)">
      <use xlink:href="#DejaVuSans-4d"/>
      <use xlink:href="#DejaVuSans-6f" x="86.279297"/>
      <use xlink:href="#DejaVuSans-47" x="147.460938"/>
      <use xlink:href="#DejaVuSans-49" x="224.951172"/>
      <use xlink:href="#DejaVuSans-4e" x="254.443359"/>
      <use xlink:href="#DejaVuSans-31" x="329.248047"/>
      <use xlink:href="#DejaVuSans-31" x="392.871094"/>
      <use xlink:href="#DejaVuSans-20" x="456.494141"/>
      <use xlink:href="#DejaVuSans-65" x="488.28125"/>
      <use xlink:href="#DejaVuSans-76" x="549.804688"/>
      <use xlink:href="#DejaVuSans-61" x="608.984375"/>
      <use xlink:href="#DejaVuSans-6c" x="670.263672"/>
      <use xlink:href="#DejaVuSans-5f" x="698.046875"/>
      <use xlink:href="#DejaVuSans-6c" x="748.046875"/>
      <use xlink:href="#DejaVuSans-6f" x="775.830078"/>
      <use xlink:href="#DejaVuSans-73" x="837.011719"/>
      <use xlink:href="#DejaVuSans-73" x="889.111328"/>
     </g>
    </g>
   </g>
  </g>
 </g>
 <defs>
  <clipPath id="p56d195b930">
   <rect x="57.6" y="41.472" width="357.12" height="266.112"/>
  </clipPath>
 </defs>
</svg>
