<?xml version="1.0" encoding="utf-8" standalone="no"?>
<!DOCTYPE svg PUBLIC "-//W3C//DTD SVG 1.1//EN"
  "http://www.w3.org/Graphics/SVG/1.1/DTD/svg11.dtd">
<svg xmlns:xlink="http://www.w3.org/1999/xlink" width="460.8pt" height="345.6pt" viewBox="0 0 460.8 345.6" xmlns="http://www.w3.org/2000/svg" version="1.1">
 <metadata>
  <rdf:RDF xmlns:dc="http://purl.org/dc/elements/1.1/" xmlns:cc="http://creativecommons.org/ns#" xmlns:rdf="http://www.w3.org/1999/02/22-rdf-syntax-ns#">
   <cc:Work>
    <dc:type rdf:resource="http://purl.org/dc/dcmitype/StillImage"/>
    <dc:date>2025-02-18T14:18:25.599353</dc:date>
    <dc:format>image/svg+xml</dc:format>
    <dc:creator>
     <cc:Agent>
      <dc:title>Matplotlib v3.8.4, https://matplotlib.org/</dc:title>
     </cc:Agent>
    </dc:creator>
   </cc:Work>
  </rdf:RDF>
 </metadata>
 <defs>
  <style type="text/css">*{stroke-linejoin: round; stroke-linecap: butt}</style>
 </defs>
 <g id="figure_1">
  <g id="patch_1">
   <path d="M 0 345.6 
L 460.8 345.6 
L 460.8 0 
L 0 0 
z
" style="fill: #ffffff"/>
  </g>
  <g id="axes_1">
   <g id="patch_2">
    <path d="M 57.6 307.584 
L 414.72 307.584 
L 414.72 41.472 
L 57.6 41.472 
z
" style="fill: #ffffff"/>
   </g>
   <g id="matplotlib.axis_1">
    <g id="xtick_1">
     <g id="line2d_1">
      <defs>
       <path id="mb8c3ecc652" d="M 0 0 
L 0 3.5 
" style="stroke: #000000; stroke-width: 0.8"/>
      </defs>
      <g>
       <use xlink:href="#mb8c3ecc652" x="144.569149" y="307.584" style="stroke: #000000; stroke-width: 0.8"/>
      </g>
     </g>
     <g id="text_1">
      <!-- $\mathdefault{10^{4}}$ -->
      <g transform="translate(135.769149 322.182437) scale(0.1 -0.1)">
       <defs>
        <path id="DejaVuSans-31" d="M 794 531 
L 1825 531 
L 1825 4091 
L 703 3866 
L 703 4441 
L 1819 4666 
L 2450 4666 
L 2450 531 
L 3481 531 
L 3481 0 
L 794 0 
L 794 531 
z
" transform="scale(0.015625)"/>
        <path id="DejaVuSans-30" d="M 2034 4250 
Q 1547 4250 1301 3770 
Q 1056 3291 1056 2328 
Q 1056 1369 1301 889 
Q 1547 409 2034 409 
Q 2525 409 2770 889 
Q 3016 1369 3016 2328 
Q 3016 3291 2770 3770 
Q 2525 4250 2034 4250 
z
M 2034 4750 
Q 2819 4750 3233 4129 
Q 3647 3509 3647 2328 
Q 3647 1150 3233 529 
Q 2819 -91 2034 -91 
Q 1250 -91 836 529 
Q 422 1150 422 2328 
Q 422 3509 836 4129 
Q 1250 4750 2034 4750 
z
" transform="scale(0.015625)"/>
        <path id="DejaVuSans-34" d="M 2419 4116 
L 825 1625 
L 2419 1625 
L 2419 4116 
z
M 2253 4666 
L 3047 4666 
L 3047 1625 
L 3713 1625 
L 3713 1100 
L 3047 1100 
L 3047 0 
L 2419 0 
L 2419 1100 
L 313 1100 
L 313 1709 
L 2253 4666 
z
" transform="scale(0.015625)"/>
       </defs>
       <use xlink:href="#DejaVuSans-31" transform="translate(0 0.684375)"/>
       <use xlink:href="#DejaVuSans-30" transform="translate(63.623047 0.684375)"/>
       <use xlink:href="#DejaVuSans-34" transform="translate(128.203125 38.965625) scale(0.7)"/>
      </g>
     </g>
    </g>
    <g id="xtick_2">
     <g id="line2d_2">
      <defs>
       <path id="mff60a79477" d="M 0 0 
L 0 2 
" style="stroke: #000000; stroke-width: 0.6"/>
      </defs>
      <g>
       <use xlink:href="#mff60a79477" x="57.6" y="307.584" style="stroke: #000000; stroke-width: 0.6"/>
      </g>
     </g>
     <g id="text_2">
      <!-- $\mathdefault{8\times10^{3}}$ -->
      <g transform="translate(39.5 320.582437) scale(0.1 -0.1)">
       <defs>
        <path id="DejaVuSans-38" d="M 2034 2216 
Q 1584 2216 1326 1975 
Q 1069 1734 1069 1313 
Q 1069 891 1326 650 
Q 1584 409 2034 409 
Q 2484 409 2743 651 
Q 3003 894 3003 1313 
Q 3003 1734 2745 1975 
Q 2488 2216 2034 2216 
z
M 1403 2484 
Q 997 2584 770 2862 
Q 544 3141 544 3541 
Q 544 4100 942 4425 
Q 1341 4750 2034 4750 
Q 2731 4750 3128 4425 
Q 3525 4100 3525 3541 
Q 3525 3141 3298 2862 
Q 3072 2584 2669 2484 
Q 3125 2378 3379 2068 
Q 3634 1759 3634 1313 
Q 3634 634 3220 271 
Q 2806 -91 2034 -91 
Q 1263 -91 848 271 
Q 434 634 434 1313 
Q 434 1759 690 2068 
Q 947 2378 1403 2484 
z
M 1172 3481 
Q 1172 3119 1398 2916 
Q 1625 2713 2034 2713 
Q 2441 2713 2670 2916 
Q 2900 3119 2900 3481 
Q 2900 3844 2670 4047 
Q 2441 4250 2034 4250 
Q 1625 4250 1398 4047 
Q 1172 3844 1172 3481 
z
" transform="scale(0.015625)"/>
        <path id="DejaVuSans-d7" d="M 4488 3438 
L 3059 2003 
L 4488 575 
L 4116 197 
L 2681 1631 
L 1247 197 
L 878 575 
L 2303 2003 
L 878 3438 
L 1247 3816 
L 2681 2381 
L 4116 3816 
L 4488 3438 
z
" transform="scale(0.015625)"/>
        <path id="DejaVuSans-33" d="M 2597 2516 
Q 3050 2419 3304 2112 
Q 3559 1806 3559 1356 
Q 3559 666 3084 287 
Q 2609 -91 1734 -91 
Q 1441 -91 1130 -33 
Q 819 25 488 141 
L 488 750 
Q 750 597 1062 519 
Q 1375 441 1716 441 
Q 2309 441 2620 675 
Q 2931 909 2931 1356 
Q 2931 1769 2642 2001 
Q 2353 2234 1838 2234 
L 1294 2234 
L 1294 2753 
L 1863 2753 
Q 2328 2753 2575 2939 
Q 2822 3125 2822 3475 
Q 2822 3834 2567 4026 
Q 2313 4219 1838 4219 
Q 1578 4219 1281 4162 
Q 984 4106 628 3988 
L 628 4550 
Q 988 4650 1302 4700 
Q 1616 4750 1894 4750 
Q 2613 4750 3031 4423 
Q 3450 4097 3450 3541 
Q 3450 3153 3228 2886 
Q 3006 2619 2597 2516 
z
" transform="scale(0.015625)"/>
       </defs>
       <use xlink:href="#DejaVuSans-38" transform="translate(0 0.765625)"/>
       <use xlink:href="#DejaVuSans-d7" transform="translate(83.105469 0.765625)"/>
       <use xlink:href="#DejaVuSans-31" transform="translate(186.376953 0.765625)"/>
       <use xlink:href="#DejaVuSans-30" transform="translate(250 0.765625)"/>
       <use xlink:href="#DejaVuSans-33" transform="translate(314.580078 39.046875) scale(0.7)"/>
      </g>
     </g>
    </g>
    <g id="xtick_3">
     <g id="line2d_3">
      <g>
       <use xlink:href="#mff60a79477" x="103.505384" y="307.584" style="stroke: #000000; stroke-width: 0.6"/>
      </g>
     </g>
     <g id="text_3">
      <!-- $\mathdefault{9\times10^{3}}$ -->
      <g transform="translate(85.405384 320.582437) scale(0.1 -0.1)">
       <defs>
        <path id="DejaVuSans-39" d="M 703 97 
L 703 672 
Q 941 559 1184 500 
Q 1428 441 1663 441 
Q 2288 441 2617 861 
Q 2947 1281 2994 2138 
Q 2813 1869 2534 1725 
Q 2256 1581 1919 1581 
Q 1219 1581 811 2004 
Q 403 2428 403 3163 
Q 403 3881 828 4315 
Q 1253 4750 1959 4750 
Q 2769 4750 3195 4129 
Q 3622 3509 3622 2328 
Q 3622 1225 3098 567 
Q 2575 -91 1691 -91 
Q 1453 -91 1209 -44 
Q 966 3 703 97 
z
M 1959 2075 
Q 2384 2075 2632 2365 
Q 2881 2656 2881 3163 
Q 2881 3666 2632 3958 
Q 2384 4250 1959 4250 
Q 1534 4250 1286 3958 
Q 1038 3666 1038 3163 
Q 1038 2656 1286 2365 
Q 1534 2075 1959 2075 
z
" transform="scale(0.015625)"/>
       </defs>
       <use xlink:href="#DejaVuSans-39" transform="translate(0 0.765625)"/>
       <use xlink:href="#DejaVuSans-d7" transform="translate(83.105469 0.765625)"/>
       <use xlink:href="#DejaVuSans-31" transform="translate(186.376953 0.765625)"/>
       <use xlink:href="#DejaVuSans-30" transform="translate(250 0.765625)"/>
       <use xlink:href="#DejaVuSans-33" transform="translate(314.580078 39.046875) scale(0.7)"/>
      </g>
     </g>
    </g>
    <g id="xtick_4">
     <g id="line2d_4">
      <g>
       <use xlink:href="#mff60a79477" x="414.72" y="307.584" style="stroke: #000000; stroke-width: 0.6"/>
      </g>
     </g>
     <g id="text_4">
      <!-- $\mathdefault{2\times10^{4}}$ -->
      <g transform="translate(396.62 320.582437) scale(0.1 -0.1)">
       <defs>
        <path id="DejaVuSans-32" d="M 1228 531 
L 3431 531 
L 3431 0 
L 469 0 
L 469 531 
Q 828 903 1448 1529 
Q 2069 2156 2228 2338 
Q 2531 2678 2651 2914 
Q 2772 3150 2772 3378 
Q 2772 3750 2511 3984 
Q 2250 4219 1831 4219 
Q 1534 4219 1204 4116 
Q 875 4013 500 3803 
L 500 4441 
Q 881 4594 1212 4672 
Q 1544 4750 1819 4750 
Q 2544 4750 2975 4387 
Q 3406 4025 3406 3419 
Q 3406 3131 3298 2873 
Q 3191 2616 2906 2266 
Q 2828 2175 2409 1742 
Q 1991 1309 1228 531 
z
" transform="scale(0.015625)"/>
       </defs>
       <use xlink:href="#DejaVuSans-32" transform="translate(0 0.684375)"/>
       <use xlink:href="#DejaVuSans-d7" transform="translate(83.105469 0.684375)"/>
       <use xlink:href="#DejaVuSans-31" transform="translate(186.376953 0.684375)"/>
       <use xlink:href="#DejaVuSans-30" transform="translate(250 0.684375)"/>
       <use xlink:href="#DejaVuSans-34" transform="translate(314.580078 38.965625) scale(0.7)"/>
      </g>
     </g>
    </g>
    <g id="text_5">
     <!-- iter# -->
     <g transform="translate(223.488906 335.860562) scale(0.1 -0.1)">
      <defs>
       <path id="DejaVuSans-69" d="M 603 3500 
L 1178 3500 
L 1178 0 
L 603 0 
L 603 3500 
z
M 603 4863 
L 1178 4863 
L 1178 4134 
L 603 4134 
L 603 4863 
z
" transform="scale(0.015625)"/>
       <path id="DejaVuSans-74" d="M 1172 4494 
L 1172 3500 
L 2356 3500 
L 2356 3053 
L 1172 3053 
L 1172 1153 
Q 1172 725 1289 603 
Q 1406 481 1766 481 
L 2356 481 
L 2356 0 
L 1766 0 
Q 1100 0 847 248 
Q 594 497 594 1153 
L 594 3053 
L 172 3053 
L 172 3500 
L 594 3500 
L 594 4494 
L 1172 4494 
z
" transform="scale(0.015625)"/>
       <path id="DejaVuSans-65" d="M 3597 1894 
L 3597 1613 
L 953 1613 
Q 991 1019 1311 708 
Q 1631 397 2203 397 
Q 2534 397 2845 478 
Q 3156 559 3463 722 
L 3463 178 
Q 3153 47 2828 -22 
Q 2503 -91 2169 -91 
Q 1331 -91 842 396 
Q 353 884 353 1716 
Q 353 2575 817 3079 
Q 1281 3584 2069 3584 
Q 2775 3584 3186 3129 
Q 3597 2675 3597 1894 
z
M 3022 2063 
Q 3016 2534 2758 2815 
Q 2500 3097 2075 3097 
Q 1594 3097 1305 2825 
Q 1016 2553 972 2059 
L 3022 2063 
z
" transform="scale(0.015625)"/>
       <path id="DejaVuSans-72" d="M 2631 2963 
Q 2534 3019 2420 3045 
Q 2306 3072 2169 3072 
Q 1681 3072 1420 2755 
Q 1159 2438 1159 1844 
L 1159 0 
L 581 0 
L 581 3500 
L 1159 3500 
L 1159 2956 
Q 1341 3275 1631 3429 
Q 1922 3584 2338 3584 
Q 2397 3584 2469 3576 
Q 2541 3569 2628 3553 
L 2631 2963 
z
" transform="scale(0.015625)"/>
       <path id="DejaVuSans-23" d="M 3272 2816 
L 2363 2816 
L 2100 1772 
L 3016 1772 
L 3272 2816 
z
M 2803 4594 
L 2478 3297 
L 3391 3297 
L 3719 4594 
L 4219 4594 
L 3897 3297 
L 4872 3297 
L 4872 2816 
L 3775 2816 
L 3519 1772 
L 4513 1772 
L 4513 1294 
L 3397 1294 
L 3072 0 
L 2572 0 
L 2894 1294 
L 1978 1294 
L 1656 0 
L 1153 0 
L 1478 1294 
L 494 1294 
L 494 1772 
L 1594 1772 
L 1856 2816 
L 850 2816 
L 850 3297 
L 1978 3297 
L 2297 4594 
L 2803 4594 
z
" transform="scale(0.015625)"/>
      </defs>
      <use xlink:href="#DejaVuSans-69"/>
      <use xlink:href="#DejaVuSans-74" x="27.783203"/>
      <use xlink:href="#DejaVuSans-65" x="66.992188"/>
      <use xlink:href="#DejaVuSans-72" x="128.515625"/>
      <use xlink:href="#DejaVuSans-23" x="169.628906"/>
     </g>
    </g>
   </g>
   <g id="matplotlib.axis_2">
    <g id="ytick_1">
     <g id="line2d_5">
      <defs>
       <path id="mf165bab939" d="M 0 0 
L -3.5 0 
" style="stroke: #000000; stroke-width: 0.8"/>
      </defs>
      <g>
       <use xlink:href="#mf165bab939" x="57.6" y="245.254111" style="stroke: #000000; stroke-width: 0.8"/>
      </g>
     </g>
     <g id="text_6">
      <!-- $\mathdefault{10^{-2}}$ -->
      <g transform="translate(27.1 249.05333) scale(0.1 -0.1)">
       <defs>
        <path id="DejaVuSans-2212" d="M 678 2272 
L 4684 2272 
L 4684 1741 
L 678 1741 
L 678 2272 
z
" transform="scale(0.015625)"/>
       </defs>
       <use xlink:href="#DejaVuSans-31" transform="translate(0 0.765625)"/>
       <use xlink:href="#DejaVuSans-30" transform="translate(63.623047 0.765625)"/>
       <use xlink:href="#DejaVuSans-2212" transform="translate(128.203125 39.046875) scale(0.7)"/>
       <use xlink:href="#DejaVuSans-32" transform="translate(186.855469 39.046875) scale(0.7)"/>
      </g>
     </g>
    </g>
    <g id="ytick_2">
     <g id="line2d_6">
      <g>
       <use xlink:href="#mf165bab939" x="57.6" y="88.622741" style="stroke: #000000; stroke-width: 0.8"/>
      </g>
     </g>
     <g id="text_7">
      <!-- $\mathdefault{10^{-1}}$ -->
      <g transform="translate(27.1 92.421959) scale(0.1 -0.1)">
       <use xlink:href="#DejaVuSans-31" transform="translate(0 0.684375)"/>
       <use xlink:href="#DejaVuSans-30" transform="translate(63.623047 0.684375)"/>
       <use xlink:href="#DejaVuSans-2212" transform="translate(128.203125 38.965625) scale(0.7)"/>
       <use xlink:href="#DejaVuSans-31" transform="translate(186.855469 38.965625) scale(0.7)"/>
      </g>
     </g>
    </g>
    <g id="ytick_3">
     <g id="line2d_7">
      <defs>
       <path id="ma7f0b2d54e" d="M 0 0 
L -2 0 
" style="stroke: #000000; stroke-width: 0.6"/>
      </defs>
      <g>
       <use xlink:href="#ma7f0b2d54e" x="57.6" y="307.584" style="stroke: #000000; stroke-width: 0.6"/>
      </g>
     </g>
    </g>
    <g id="ytick_4">
     <g id="line2d_8">
      <g>
       <use xlink:href="#ma7f0b2d54e" x="57.6" y="292.404852" style="stroke: #000000; stroke-width: 0.6"/>
      </g>
     </g>
    </g>
    <g id="ytick_5">
     <g id="line2d_9">
      <g>
       <use xlink:href="#ma7f0b2d54e" x="57.6" y="280.002585" style="stroke: #000000; stroke-width: 0.6"/>
      </g>
     </g>
    </g>
    <g id="ytick_6">
     <g id="line2d_10">
      <g>
       <use xlink:href="#ma7f0b2d54e" x="57.6" y="269.516617" style="stroke: #000000; stroke-width: 0.6"/>
      </g>
     </g>
    </g>
    <g id="ytick_7">
     <g id="line2d_11">
      <g>
       <use xlink:href="#ma7f0b2d54e" x="57.6" y="260.433259" style="stroke: #000000; stroke-width: 0.6"/>
      </g>
     </g>
    </g>
    <g id="ytick_8">
     <g id="line2d_12">
      <g>
       <use xlink:href="#ma7f0b2d54e" x="57.6" y="252.42117" style="stroke: #000000; stroke-width: 0.6"/>
      </g>
     </g>
    </g>
    <g id="ytick_9">
     <g id="line2d_13">
      <g>
       <use xlink:href="#ma7f0b2d54e" x="57.6" y="198.10337" style="stroke: #000000; stroke-width: 0.6"/>
      </g>
     </g>
    </g>
    <g id="ytick_10">
     <g id="line2d_14">
      <g>
       <use xlink:href="#ma7f0b2d54e" x="57.6" y="170.521955" style="stroke: #000000; stroke-width: 0.6"/>
      </g>
     </g>
    </g>
    <g id="ytick_11">
     <g id="line2d_15">
      <g>
       <use xlink:href="#ma7f0b2d54e" x="57.6" y="150.95263" style="stroke: #000000; stroke-width: 0.6"/>
      </g>
     </g>
    </g>
    <g id="ytick_12">
     <g id="line2d_16">
      <g>
       <use xlink:href="#ma7f0b2d54e" x="57.6" y="135.773481" style="stroke: #000000; stroke-width: 0.6"/>
      </g>
     </g>
    </g>
    <g id="ytick_13">
     <g id="line2d_17">
      <g>
       <use xlink:href="#ma7f0b2d54e" x="57.6" y="123.371214" style="stroke: #000000; stroke-width: 0.6"/>
      </g>
     </g>
    </g>
    <g id="ytick_14">
     <g id="line2d_18">
      <g>
       <use xlink:href="#ma7f0b2d54e" x="57.6" y="112.885247" style="stroke: #000000; stroke-width: 0.6"/>
      </g>
     </g>
    </g>
    <g id="ytick_15">
     <g id="line2d_19">
      <g>
       <use xlink:href="#ma7f0b2d54e" x="57.6" y="103.801889" style="stroke: #000000; stroke-width: 0.6"/>
      </g>
     </g>
    </g>
    <g id="ytick_16">
     <g id="line2d_20">
      <g>
       <use xlink:href="#ma7f0b2d54e" x="57.6" y="95.789799" style="stroke: #000000; stroke-width: 0.6"/>
      </g>
     </g>
    </g>
    <g id="ytick_17">
     <g id="line2d_21">
      <g>
       <use xlink:href="#ma7f0b2d54e" x="57.6" y="41.472" style="stroke: #000000; stroke-width: 0.6"/>
      </g>
     </g>
    </g>
    <g id="text_8">
     <!-- loss -->
     <g transform="translate(21.020313 184.185812) rotate(-90) scale(0.1 -0.1)">
      <defs>
       <path id="DejaVuSans-6c" d="M 603 4863 
L 1178 4863 
L 1178 0 
L 603 0 
L 603 4863 
z
" transform="scale(0.015625)"/>
       <path id="DejaVuSans-6f" d="M 1959 3097 
Q 1497 3097 1228 2736 
Q 959 2375 959 1747 
Q 959 1119 1226 758 
Q 1494 397 1959 397 
Q 2419 397 2687 759 
Q 2956 1122 2956 1747 
Q 2956 2369 2687 2733 
Q 2419 3097 1959 3097 
z
M 1959 3584 
Q 2709 3584 3137 3096 
Q 3566 2609 3566 1747 
Q 3566 888 3137 398 
Q 2709 -91 1959 -91 
Q 1206 -91 779 398 
Q 353 888 353 1747 
Q 353 2609 779 3096 
Q 1206 3584 1959 3584 
z
" transform="scale(0.015625)"/>
       <path id="DejaVuSans-73" d="M 2834 3397 
L 2834 2853 
Q 2591 2978 2328 3040 
Q 2066 3103 1784 3103 
Q 1356 3103 1142 2972 
Q 928 2841 928 2578 
Q 928 2378 1081 2264 
Q 1234 2150 1697 2047 
L 1894 2003 
Q 2506 1872 2764 1633 
Q 3022 1394 3022 966 
Q 3022 478 2636 193 
Q 2250 -91 1575 -91 
Q 1294 -91 989 -36 
Q 684 19 347 128 
L 347 722 
Q 666 556 975 473 
Q 1284 391 1588 391 
Q 1994 391 2212 530 
Q 2431 669 2431 922 
Q 2431 1156 2273 1281 
Q 2116 1406 1581 1522 
L 1381 1569 
Q 847 1681 609 1914 
Q 372 2147 372 2553 
Q 372 3047 722 3315 
Q 1072 3584 1716 3584 
Q 2034 3584 2315 3537 
Q 2597 3491 2834 3397 
z
" transform="scale(0.015625)"/>
      </defs>
      <use xlink:href="#DejaVuSans-6c"/>
      <use xlink:href="#DejaVuSans-6f" x="27.783203"/>
      <use xlink:href="#DejaVuSans-73" x="88.964844"/>
      <use xlink:href="#DejaVuSans-73" x="141.064453"/>
     </g>
    </g>
   </g>
   <g id="line2d_22">
    <path d="M -1 192.077118 
L -0.051174 195.497876 
L 3.547192 181.898443 
L 7.11264 202.733355 
L 10.645766 194.580701 
L 14.147151 180.719366 
L 17.61736 197.83193 
L 21.056944 206.081207 
L 24.466437 200.315071 
L 27.846364 181.081035 
L 31.19723 210.42493 
L 34.519533 201.536394 
L 37.813755 201.896377 
L 41.080366 194.067789 
L 44.319827 191.226204 
L 47.532583 187.176123 
L 50.719072 186.079639 
L 53.87972 205.480565 
L 57.014943 158.944779 
L 60.125147 176.113504 
L 63.210727 194.604051 
L 66.27207 154.987581 
L 69.309555 198.29163 
L 70.112423 118.760387 
L 73.12024 100.4656 
L 76.105022 166.623236 
L 79.067119 163.55849 
L 82.006873 176.384711 
L 87.820685 195.876207 
L 90.69539 196.292652 
L 93.549046 197.849625 
L 96.38196 196.205931 
L 99.194432 175.235735 
L 101.986753 203.386716 
L 104.759211 154.704607 
L 107.512086 201.504179 
L 110.245653 189.699981 
L 112.960181 209.134373 
L 115.655934 211.764867 
L 118.333169 212.461172 
L 123.633091 192.075703 
L 126.256268 212.107813 
L 128.861908 187.854889 
L 131.450244 189.554115 
L 134.021503 173.042221 
L 136.575911 224.288382 
L 139.113685 218.266712 
L 141.635042 209.519441 
L 144.140193 216.386998 
L 146.629344 215.569025 
L 149.102699 204.085991 
L 151.560456 209.724718 
L 154.002812 184.018388 
L 156.429958 208.452779 
L 157.072136 208.381487 
L 159.480302 203.892634 
L 161.873679 191.249971 
L 164.252448 210.765627 
L 166.616787 226.529163 
L 168.96687 235.63308 
L 171.302866 236.908584 
L 173.624945 190.976337 
L 175.933272 158.996484 
L 178.228007 192.013635 
L 180.50931 146.203906 
L 182.777338 224.88193 
L 185.032244 232.874073 
L 187.274178 231.716373 
L 189.503291 213.888911 
L 191.719726 222.767053 
L 193.923629 130.37242 
L 196.115138 187.381868 
L 198.294394 220.073007 
L 200.461533 222.138323 
L 202.616688 143.520893 
L 204.759991 181.65166 
L 206.891572 200.405014 
L 209.011558 205.846996 
L 211.120075 164.573404 
L 213.217247 193.18585 
L 215.303194 171.650299 
L 217.378037 198.611629 
L 219.441892 164.473998 
L 221.494876 160.671494 
L 223.537103 161.701966 
L 225.568684 208.547423 
L 227.589731 234.597458 
L 228.124814 209.02139 
L 230.132683 189.174565 
L 232.130261 204.101481 
L 234.117652 186.480354 
L 236.094961 138.695224 
L 238.062289 81.534594 
L 240.019737 126.063855 
L 241.967402 225.399669 
L 243.905383 199.838854 
L 245.833775 198.296808 
L 247.752672 221.744945 
L 249.662168 218.491588 
L 251.562355 208.629013 
L 253.453322 125.241533 
L 255.335159 184.673295 
L 257.207953 93.911198 
L 259.071791 113.71524 
L 260.926759 163.388184 
L 262.772939 135.550703 
L 264.610416 184.177319 
L 266.43927 63.572172 
L 268.259583 201.654662 
L 270.071433 219.712347 
L 271.8749 162.564719 
L 273.670059 226.11623 
L 275.456988 169.059256 
L 277.235762 239.648688 
L 279.006454 158.894459 
L 280.769138 238.835438 
L 282.523886 228.076676 
L 284.270769 185.287279 
L 286.009857 228.059881 
L 287.741219 83.578447 
L 288.199823 130.003428 
L 289.921505 192.276251 
L 291.635616 203.452553 
L 293.342221 210.01666 
L 295.041386 217.993276 
L 296.733175 223.312664 
L 298.417652 226.732645 
L 300.09488 231.660992 
L 301.764922 236.098136 
L 303.427837 240.023805 
L 306.732534 246.12683 
L 308.374433 248.819321 
L 310.009445 250.864366 
L 311.637626 253.594977 
L 313.259033 254.735915 
L 314.873724 257.413437 
L 318.083173 260.583702 
L 319.678041 262.139582 
L 321.266409 262.707674 
L 322.84833 265.663398 
L 324.423856 265.90657 
L 325.993039 268.094849 
L 327.55593 268.273272 
L 329.112578 270.059794 
L 330.663034 271.151093 
L 332.207346 271.93607 
L 333.745563 272.314992 
L 335.277733 272.506142 
L 336.803904 273.842172 
L 338.324122 273.842133 
L 339.838433 274.44051 
L 340.239684 247.988728 
L 341.746585 49.793476 
L 343.247682 101.434895 
L 344.74302 96.745698 
L 346.232643 107.675533 
L 347.716593 131.18258 
L 349.194915 170.783119 
L 350.667651 135.141819 
L 352.134843 177.710344 
L 353.596532 115.345886 
L 355.05276 186.893565 
L 356.503568 194.217977 
L 357.948994 194.714075 
L 359.38908 161.624748 
L 360.823864 174.622912 
L 362.253386 172.666615 
L 363.677684 187.944303 
L 365.096796 132.660941 
L 366.510759 208.237695 
L 367.919611 182.821197 
L 369.323389 205.275373 
L 370.722129 183.080277 
L 372.115866 178.319712 
L 373.504638 171.722354 
L 374.888478 198.958124 
L 376.267423 158.582056 
L 377.641505 111.686947 
L 379.010761 112.577566 
L 380.375223 108.740403 
L 381.734924 121.217178 
L 383.089898 163.83423 
L 384.440178 191.568929 
L 385.785797 162.934503 
L 386.142447 139.331226 
L 387.482211 225.912912 
L 388.817385 228.459085 
L 390.148001 230.333917 
L 391.474089 231.829621 
L 392.795681 232.528733 
L 394.112806 233.758145 
L 395.425496 234.270158 
L 396.733779 235.19033 
L 398.037685 235.702609 
L 399.337243 236.617877 
L 400.632482 237.170297 
L 401.923432 236.528807 
L 403.210119 237.556884 
L 404.492572 237.772787 
L 405.77082 238.257381 
L 407.044889 237.670643 
L 408.314806 238.859752 
L 410.842295 239.106727 
L 412.099919 239.994972 
L 414.603059 240.333639 
L 415.848626 238.665037 
L 417.090224 240.387412 
L 418.32788 240.578232 
L 419.561619 241.111733 
L 422.01744 240.652125 
L 423.239573 241.79812 
L 424.457885 241.969525 
L 425.6724 241.77496 
L 426.883143 241.062299 
L 426.883143 241.062299 
" clip-path="url(#p8ac2b946ff)" style="fill: none; stroke: #1f77b4; stroke-opacity: 0.9; stroke-linecap: square"/>
   </g>
   <g id="line2d_23">
    <path d="M -1 171.750603 
L -0.051174 171.68546 
L 3.547192 171.145354 
L 7.11264 165.001375 
L 10.645766 164.462429 
L 14.147151 169.993393 
L 17.61736 172.451545 
L 21.056944 171.577557 
L 24.466437 173.327924 
L 27.846364 171.60499 
L 31.19723 169.74212 
L 34.519533 158.490339 
L 37.813755 174.749601 
L 41.080366 165.042526 
L 44.319827 172.657096 
L 47.532583 175.312721 
L 50.719072 165.250456 
L 53.87972 169.165764 
L 57.014943 170.128374 
L 60.125147 172.628086 
L 63.210727 174.037804 
L 66.27207 176.431454 
L 69.309555 176.140209 
L 70.112423 173.991543 
L 73.12024 169.168178 
L 76.105022 171.715451 
L 79.067119 176.29248 
L 82.006873 170.168815 
L 84.92462 175.36203 
L 87.820685 173.65779 
L 90.69539 177.509567 
L 93.549046 173.194101 
L 96.38196 171.939332 
L 99.194432 179.306212 
L 101.986753 179.328452 
L 104.759211 180.47223 
L 107.512086 179.286454 
L 110.245653 169.744308 
L 112.960181 176.889273 
L 115.655934 174.826781 
L 118.333169 172.150498 
L 120.992139 180.187139 
L 123.633091 169.966225 
L 126.256268 180.600505 
L 128.861908 147.624714 
L 131.450244 177.381496 
L 134.021503 177.300161 
L 136.575911 169.231173 
L 139.113685 172.409706 
L 141.635042 180.937576 
L 144.140193 179.69439 
L 146.629344 179.834683 
L 149.102699 180.297204 
L 151.560456 183.15906 
L 154.002812 182.29727 
L 156.429958 182.915915 
L 157.072136 184.274943 
L 159.480302 172.457393 
L 161.873679 151.759522 
L 164.252448 158.557737 
L 166.616787 182.019925 
L 168.96687 179.69005 
L 171.302866 183.143098 
L 173.624945 169.799735 
L 175.933272 182.285058 
L 178.228007 185.206507 
L 180.50931 164.759255 
L 182.777338 185.201224 
L 185.032244 186.5353 
L 187.274178 146.165019 
L 189.503291 182.096933 
L 191.719726 164.614947 
L 193.923629 157.014407 
L 198.294394 181.939262 
L 200.461533 178.150375 
L 202.616688 178.465477 
L 204.759991 171.880011 
L 206.891572 183.805553 
L 209.011558 168.817315 
L 211.120075 170.27522 
L 213.217247 189.082265 
L 215.303194 185.394514 
L 217.378037 173.136286 
L 219.441892 153.923682 
L 221.494876 165.904474 
L 223.537103 186.755519 
L 225.568684 188.602366 
L 227.589731 170.301076 
L 228.124814 185.669909 
L 230.132683 183.830469 
L 232.130261 186.719417 
L 234.117652 184.179312 
L 236.094961 188.603253 
L 238.062289 192.71643 
L 240.019737 185.789072 
L 241.967402 188.9747 
L 243.905383 186.330236 
L 247.752672 189.749987 
L 249.662168 188.889321 
L 251.562355 180.469063 
L 253.453322 180.914479 
L 255.335159 190.551911 
L 257.207953 187.051691 
L 259.071791 183.86044 
L 260.926759 188.682227 
L 262.772939 181.882285 
L 264.610416 179.562819 
L 266.43927 188.640893 
L 268.259583 177.114781 
L 270.071433 183.555777 
L 271.8749 180.452786 
L 273.670059 190.009588 
L 275.456988 177.857381 
L 277.235762 169.136392 
L 279.006454 154.696319 
L 280.769138 191.728841 
L 282.523886 179.52393 
L 284.270769 172.446939 
L 286.009857 191.990931 
L 287.741219 195.15909 
L 288.199823 189.774164 
L 289.921505 190.369029 
L 291.635616 182.4477 
L 293.342221 188.008664 
L 295.041386 192.183975 
L 296.733175 177.275361 
L 298.417652 138.107904 
L 300.09488 177.31697 
L 301.764922 161.84497 
L 303.427837 185.38289 
L 305.083688 161.989824 
L 306.732534 182.041204 
L 308.374433 191.85696 
L 310.009445 128.102664 
L 311.637626 186.281121 
L 313.259033 163.317622 
L 314.873724 182.397285 
L 316.481752 189.071402 
L 318.083173 184.401541 
L 319.678041 192.700097 
L 321.266409 187.683977 
L 322.84833 176.314551 
L 324.423856 192.453704 
L 325.993039 194.420528 
L 327.55593 197.049101 
L 329.112578 184.903763 
L 330.663034 189.009199 
L 332.207346 180.791614 
L 333.745563 189.014176 
L 335.277733 192.761237 
L 336.803904 193.068566 
L 338.324122 180.247533 
L 339.838433 187.417371 
L 340.239684 196.084766 
L 341.746585 190.765564 
L 343.247682 190.994983 
L 344.74302 197.620847 
L 346.232643 191.785425 
L 347.716593 195.639594 
L 349.194915 165.388411 
L 350.667651 200.36323 
L 352.134843 178.225478 
L 353.596532 189.61909 
L 355.05276 186.972972 
L 356.503568 194.994616 
L 357.948994 188.628425 
L 359.38908 187.764699 
L 360.823864 199.097357 
L 362.253386 173.727289 
L 363.677684 166.089896 
L 365.096796 196.295731 
L 366.510759 198.370966 
L 367.919611 140.568038 
L 369.323389 190.728714 
L 370.722129 185.435457 
L 372.115866 200.042635 
L 373.504638 193.705087 
L 374.888478 190.119136 
L 376.267423 197.017008 
L 377.641505 190.789496 
L 379.010761 128.342035 
L 380.375223 166.2763 
L 381.734924 159.374936 
L 383.089898 195.208693 
L 384.440178 193.672397 
L 385.785797 180.462879 
L 386.142447 139.083896 
L 387.482211 186.785364 
L 388.817385 186.063529 
L 390.148001 172.755479 
L 391.474089 177.999381 
L 392.795681 199.790649 
L 394.112806 196.193647 
L 395.425496 192.183005 
L 396.733779 189.728979 
L 398.037685 173.885447 
L 399.337243 186.361943 
L 400.632482 134.708134 
L 401.923432 196.46461 
L 403.210119 186.718457 
L 404.492572 167.413007 
L 405.77082 196.709471 
L 407.044889 197.912392 
L 408.314806 196.09644 
L 409.5806 191.820674 
L 410.842295 195.921955 
L 412.099919 191.499393 
L 413.353499 166.092373 
L 414.603059 176.677497 
L 415.848626 191.935269 
L 417.090224 174.916982 
L 418.32788 193.763185 
L 419.561619 192.353089 
L 420.791464 200.893567 
L 423.239573 191.601677 
L 424.457885 186.126586 
L 425.6724 191.126106 
L 426.883143 191.024305 
L 426.883143 191.024305 
" clip-path="url(#p8ac2b946ff)" style="fill: none; stroke: #ff7f0e; stroke-opacity: 0.9; stroke-linecap: square"/>
   </g>
   <g id="line2d_24">
    <path d="M -1 178.591101 
L -0.051174 175.909012 
L 3.547192 177.309727 
L 7.11264 188.872985 
L 10.645766 167.258021 
L 14.147151 185.936092 
L 17.61736 181.315932 
L 21.056944 189.594499 
L 24.466437 188.062952 
L 31.19723 191.408663 
L 34.519533 187.922754 
L 37.813755 177.594832 
L 41.080366 186.355604 
L 44.319827 177.805638 
L 47.532583 187.226273 
L 50.719072 177.732636 
L 53.87972 171.499656 
L 57.014943 180.800991 
L 60.125147 188.300454 
L 63.210727 189.941099 
L 66.27207 193.220772 
L 69.309555 187.603307 
L 70.112423 190.169959 
L 73.12024 162.99632 
L 76.105022 192.465523 
L 79.067119 185.046422 
L 82.006873 181.017487 
L 84.92462 188.259571 
L 87.820685 182.931494 
L 90.69539 193.453774 
L 93.549046 168.348432 
L 96.38196 195.907299 
L 99.194432 161.404779 
L 101.986753 194.900889 
L 104.759211 194.435863 
L 107.512086 191.712506 
L 110.245653 194.854639 
L 112.960181 195.571375 
L 115.655934 197.207057 
L 118.333169 192.638748 
L 120.992139 195.891512 
L 123.633091 188.313971 
L 126.256268 166.529402 
L 128.861908 195.996829 
L 131.450244 194.999912 
L 134.021503 192.755041 
L 136.575911 191.073198 
L 139.113685 174.87989 
L 141.635042 195.77644 
L 144.140193 197.237519 
L 146.629344 191.77015 
L 149.102699 184.662282 
L 151.560456 198.755303 
L 154.002812 180.385413 
L 156.429958 186.302076 
L 157.072136 167.097315 
L 159.480302 202.589077 
L 161.873679 198.091513 
L 164.252448 203.125495 
L 166.616787 196.160466 
L 168.96687 201.76774 
L 171.302866 199.73665 
L 173.624945 167.679697 
L 175.933272 196.79506 
L 178.228007 196.230061 
L 180.50931 201.419037 
L 182.777338 185.883798 
L 185.032244 193.587385 
L 187.274178 192.452987 
L 189.503291 191.127529 
L 191.719726 203.566088 
L 193.923629 200.194495 
L 196.115138 199.104493 
L 198.294394 199.458406 
L 200.461533 201.942566 
L 202.616688 202.246127 
L 204.759991 204.885279 
L 206.891572 205.304897 
L 209.011558 179.775501 
L 211.120075 203.513659 
L 213.217247 200.885495 
L 215.303194 203.580286 
L 217.378037 193.732404 
L 219.441892 182.346937 
L 221.494876 202.537294 
L 223.537103 187.735329 
L 225.568684 203.913186 
L 227.589731 198.961697 
L 228.124814 178.984881 
L 230.132683 173.061478 
L 232.130261 183.349579 
L 234.117652 200.375209 
L 236.094961 164.496831 
L 238.062289 183.58051 
L 240.019737 161.298675 
L 241.967402 201.232229 
L 243.905383 190.907488 
L 245.833775 162.148609 
L 247.752672 190.802952 
L 249.662168 172.475703 
L 251.562355 199.541813 
L 253.453322 204.088018 
L 255.335159 189.847462 
L 257.207953 170.984456 
L 259.071791 197.571409 
L 260.926759 194.945072 
L 262.772939 166.615858 
L 264.610416 124.198802 
L 266.43927 186.916151 
L 268.259583 155.731583 
L 270.071433 198.013161 
L 271.8749 167.64917 
L 273.670059 184.903398 
L 275.456988 190.853657 
L 277.235762 205.484872 
L 279.006454 198.384158 
L 280.769138 207.34742 
L 282.523886 205.931051 
L 284.270769 192.525747 
L 286.009857 207.31815 
L 287.741219 187.996421 
L 288.199823 189.557339 
L 289.921505 210.921677 
L 291.635616 209.315088 
L 293.342221 211.687638 
L 295.041386 209.645326 
L 296.733175 202.483936 
L 298.417652 210.528977 
L 300.09488 209.284758 
L 301.764922 212.204139 
L 303.427837 211.458796 
L 305.083688 210.271211 
L 306.732534 209.728717 
L 308.374433 205.626955 
L 310.009445 208.584573 
L 311.637626 201.634227 
L 313.259033 212.874414 
L 314.873724 205.387114 
L 316.481752 213.458578 
L 318.083173 212.729957 
L 319.678041 207.843344 
L 321.266409 206.229531 
L 322.84833 212.845279 
L 324.423856 212.216635 
L 325.993039 185.857065 
L 327.55593 211.268428 
L 329.112578 199.006769 
L 330.663034 209.489529 
L 332.207346 205.921527 
L 333.745563 193.148214 
L 335.277733 209.839569 
L 336.803904 203.73358 
L 338.324122 207.797552 
L 339.838433 186.259145 
L 340.239684 198.251683 
L 341.746585 169.762816 
L 343.247682 198.19296 
L 344.74302 201.764791 
L 346.232643 202.918231 
L 347.716593 202.914913 
L 349.194915 175.207559 
L 350.667651 197.337374 
L 352.134843 198.92222 
L 353.596532 188.992651 
L 355.05276 179.893698 
L 356.503568 186.211633 
L 357.948994 201.062617 
L 359.38908 173.610726 
L 360.823864 206.019182 
L 362.253386 174.947094 
L 363.677684 204.025074 
L 366.510759 195.212864 
L 367.919611 209.29345 
L 369.323389 200.383653 
L 370.722129 206.328702 
L 372.115866 199.483692 
L 373.504638 198.232683 
L 374.888478 185.549817 
L 376.267423 204.472734 
L 377.641505 195.566748 
L 379.010761 172.783845 
L 380.375223 178.567406 
L 381.734924 191.029135 
L 383.089898 195.807052 
L 384.440178 203.762311 
L 385.785797 189.259502 
L 386.142447 201.916817 
L 387.482211 208.797185 
L 388.817385 206.943124 
L 390.148001 204.755878 
L 391.474089 210.46331 
L 392.795681 207.941873 
L 394.112806 212.130747 
L 395.425496 187.172304 
L 396.733779 208.230555 
L 398.037685 195.204358 
L 399.337243 206.891986 
L 400.632482 207.962141 
L 401.923432 207.399614 
L 403.210119 208.552188 
L 404.492572 211.277101 
L 405.77082 204.576641 
L 407.044889 194.515974 
L 408.314806 211.424335 
L 409.5806 213.433231 
L 410.842295 204.065815 
L 412.099919 166.610579 
L 413.353499 204.951862 
L 414.603059 211.30251 
L 415.848626 212.256952 
L 417.090224 201.132144 
L 418.32788 215.462293 
L 419.561619 210.537579 
L 420.791464 197.955864 
L 422.01744 213.531701 
L 423.239573 209.548332 
L 424.457885 216.21578 
L 425.6724 208.487427 
L 426.883143 209.873553 
L 426.883143 209.873553 
" clip-path="url(#p8ac2b946ff)" style="fill: none; stroke: #2ca02c; stroke-opacity: 0.9; stroke-linecap: square"/>
   </g>
   <g id="patch_3">
    <path d="M 57.6 307.584 
L 57.6 41.472 
" style="fill: none; stroke: #000000; stroke-width: 0.8; stroke-linejoin: miter; stroke-linecap: square"/>
   </g>
   <g id="patch_4">
    <path d="M 414.72 307.584 
L 414.72 41.472 
" style="fill: none; stroke: #000000; stroke-width: 0.8; stroke-linejoin: miter; stroke-linecap: square"/>
   </g>
   <g id="patch_5">
    <path d="M 57.6 307.584 
L 414.72 307.584 
" style="fill: none; stroke: #000000; stroke-width: 0.8; stroke-linejoin: miter; stroke-linecap: square"/>
   </g>
   <g id="patch_6">
    <path d="M 57.6 41.472 
L 414.72 41.472 
" style="fill: none; stroke: #000000; stroke-width: 0.8; stroke-linejoin: miter; stroke-linecap: square"/>
   </g>
   <g id="text_9">
    <!-- 2025-02-18-14:18:25 -->
    <g transform="translate(172.178438 35.472) scale(0.12 -0.12)">
     <defs>
      <path id="DejaVuSans-35" d="M 691 4666 
L 3169 4666 
L 3169 4134 
L 1269 4134 
L 1269 2991 
Q 1406 3038 1543 3061 
Q 1681 3084 1819 3084 
Q 2600 3084 3056 2656 
Q 3513 2228 3513 1497 
Q 3513 744 3044 326 
Q 2575 -91 1722 -91 
Q 1428 -91 1123 -41 
Q 819 9 494 109 
L 494 744 
Q 775 591 1075 516 
Q 1375 441 1709 441 
Q 2250 441 2565 725 
Q 2881 1009 2881 1497 
Q 2881 1984 2565 2268 
Q 2250 2553 1709 2553 
Q 1456 2553 1204 2497 
Q 953 2441 691 2322 
L 691 4666 
z
" transform="scale(0.015625)"/>
      <path id="DejaVuSans-2d" d="M 313 2009 
L 1997 2009 
L 1997 1497 
L 313 1497 
L 313 2009 
z
" transform="scale(0.015625)"/>
      <path id="DejaVuSans-3a" d="M 750 794 
L 1409 794 
L 1409 0 
L 750 0 
L 750 794 
z
M 750 3309 
L 1409 3309 
L 1409 2516 
L 750 2516 
L 750 3309 
z
" transform="scale(0.015625)"/>
     </defs>
     <use xlink:href="#DejaVuSans-32"/>
     <use xlink:href="#DejaVuSans-30" x="63.623047"/>
     <use xlink:href="#DejaVuSans-32" x="127.246094"/>
     <use xlink:href="#DejaVuSans-35" x="190.869141"/>
     <use xlink:href="#DejaVuSans-2d" x="254.492188"/>
     <use xlink:href="#DejaVuSans-30" x="290.576172"/>
     <use xlink:href="#DejaVuSans-32" x="354.199219"/>
     <use xlink:href="#DejaVuSans-2d" x="417.822266"/>
     <use xlink:href="#DejaVuSans-31" x="453.90625"/>
     <use xlink:href="#DejaVuSans-38" x="517.529297"/>
     <use xlink:href="#DejaVuSans-2d" x="581.152344"/>
     <use xlink:href="#DejaVuSans-31" x="617.236328"/>
     <use xlink:href="#DejaVuSans-34" x="680.859375"/>
     <use xlink:href="#DejaVuSans-3a" x="744.482422"/>
     <use xlink:href="#DejaVuSans-31" x="778.173828"/>
     <use xlink:href="#DejaVuSans-38" x="841.796875"/>
     <use xlink:href="#DejaVuSans-3a" x="905.419922"/>
     <use xlink:href="#DejaVuSans-32" x="939.111328"/>
     <use xlink:href="#DejaVuSans-35" x="1002.734375"/>
    </g>
   </g>
   <g id="legend_1">
    <g id="patch_7">
     <path d="M 64.6 94.34075 
L 190.723438 94.34075 
Q 192.723438 94.34075 192.723438 92.34075 
L 192.723438 48.472 
Q 192.723438 46.472 190.723438 46.472 
L 64.6 46.472 
Q 62.6 46.472 62.6 48.472 
L 62.6 92.34075 
Q 62.6 94.34075 64.6 94.34075 
z
" style="fill: #ffffff; opacity: 0.8; stroke: #cccccc; stroke-linejoin: miter"/>
    </g>
    <g id="line2d_25">
     <path d="M 66.6 54.570438 
L 76.6 54.570438 
L 86.6 54.570438 
" style="fill: none; stroke: #1f77b4; stroke-opacity: 0.9; stroke-linecap: square"/>
    </g>
    <g id="text_10">
     <!-- SchNet eval_loss -->
     <g transform="translate(94.6 58.070438) scale(0.1 -0.1)">
      <defs>
       <path id="DejaVuSans-53" d="M 3425 4513 
L 3425 3897 
Q 3066 4069 2747 4153 
Q 2428 4238 2131 4238 
Q 1616 4238 1336 4038 
Q 1056 3838 1056 3469 
Q 1056 3159 1242 3001 
Q 1428 2844 1947 2747 
L 2328 2669 
Q 3034 2534 3370 2195 
Q 3706 1856 3706 1288 
Q 3706 609 3251 259 
Q 2797 -91 1919 -91 
Q 1588 -91 1214 -16 
Q 841 59 441 206 
L 441 856 
Q 825 641 1194 531 
Q 1563 422 1919 422 
Q 2459 422 2753 634 
Q 3047 847 3047 1241 
Q 3047 1584 2836 1778 
Q 2625 1972 2144 2069 
L 1759 2144 
Q 1053 2284 737 2584 
Q 422 2884 422 3419 
Q 422 4038 858 4394 
Q 1294 4750 2059 4750 
Q 2388 4750 2728 4690 
Q 3069 4631 3425 4513 
z
" transform="scale(0.015625)"/>
       <path id="DejaVuSans-63" d="M 3122 3366 
L 3122 2828 
Q 2878 2963 2633 3030 
Q 2388 3097 2138 3097 
Q 1578 3097 1268 2742 
Q 959 2388 959 1747 
Q 959 1106 1268 751 
Q 1578 397 2138 397 
Q 2388 397 2633 464 
Q 2878 531 3122 666 
L 3122 134 
Q 2881 22 2623 -34 
Q 2366 -91 2075 -91 
Q 1284 -91 818 406 
Q 353 903 353 1747 
Q 353 2603 823 3093 
Q 1294 3584 2113 3584 
Q 2378 3584 2631 3529 
Q 2884 3475 3122 3366 
z
" transform="scale(0.015625)"/>
       <path id="DejaVuSans-68" d="M 3513 2113 
L 3513 0 
L 2938 0 
L 2938 2094 
Q 2938 2591 2744 2837 
Q 2550 3084 2163 3084 
Q 1697 3084 1428 2787 
Q 1159 2491 1159 1978 
L 1159 0 
L 581 0 
L 581 4863 
L 1159 4863 
L 1159 2956 
Q 1366 3272 1645 3428 
Q 1925 3584 2291 3584 
Q 2894 3584 3203 3211 
Q 3513 2838 3513 2113 
z
" transform="scale(0.015625)"/>
       <path id="DejaVuSans-4e" d="M 628 4666 
L 1478 4666 
L 3547 763 
L 3547 4666 
L 4159 4666 
L 4159 0 
L 3309 0 
L 1241 3903 
L 1241 0 
L 628 0 
L 628 4666 
z
" transform="scale(0.015625)"/>
       <path id="DejaVuSans-20" transform="scale(0.015625)"/>
       <path id="DejaVuSans-76" d="M 191 3500 
L 800 3500 
L 1894 563 
L 2988 3500 
L 3597 3500 
L 2284 0 
L 1503 0 
L 191 3500 
z
" transform="scale(0.015625)"/>
       <path id="DejaVuSans-61" d="M 2194 1759 
Q 1497 1759 1228 1600 
Q 959 1441 959 1056 
Q 959 750 1161 570 
Q 1363 391 1709 391 
Q 2188 391 2477 730 
Q 2766 1069 2766 1631 
L 2766 1759 
L 2194 1759 
z
M 3341 1997 
L 3341 0 
L 2766 0 
L 2766 531 
Q 2569 213 2275 61 
Q 1981 -91 1556 -91 
Q 1019 -91 701 211 
Q 384 513 384 1019 
Q 384 1609 779 1909 
Q 1175 2209 1959 2209 
L 2766 2209 
L 2766 2266 
Q 2766 2663 2505 2880 
Q 2244 3097 1772 3097 
Q 1472 3097 1187 3025 
Q 903 2953 641 2809 
L 641 3341 
Q 956 3463 1253 3523 
Q 1550 3584 1831 3584 
Q 2591 3584 2966 3190 
Q 3341 2797 3341 1997 
z
" transform="scale(0.015625)"/>
       <path id="DejaVuSans-5f" d="M 3263 -1063 
L 3263 -1509 
L -63 -1509 
L -63 -1063 
L 3263 -1063 
z
" transform="scale(0.015625)"/>
      </defs>
      <use xlink:href="#DejaVuSans-53"/>
      <use xlink:href="#DejaVuSans-63" x="63.476562"/>
      <use xlink:href="#DejaVuSans-68" x="118.457031"/>
      <use xlink:href="#DejaVuSans-4e" x="181.835938"/>
      <use xlink:href="#DejaVuSans-65" x="256.640625"/>
      <use xlink:href="#DejaVuSans-74" x="318.164062"/>
      <use xlink:href="#DejaVuSans-20" x="357.373047"/>
      <use xlink:href="#DejaVuSans-65" x="389.160156"/>
      <use xlink:href="#DejaVuSans-76" x="450.683594"/>
      <use xlink:href="#DejaVuSans-61" x="509.863281"/>
      <use xlink:href="#DejaVuSans-6c" x="571.142578"/>
      <use xlink:href="#DejaVuSans-5f" x="598.925781"/>
      <use xlink:href="#DejaVuSans-6c" x="648.925781"/>
      <use xlink:href="#DejaVuSans-6f" x="676.708984"/>
      <use xlink:href="#DejaVuSans-73" x="737.890625"/>
      <use xlink:href="#DejaVuSans-73" x="789.990234"/>
     </g>
    </g>
    <g id="line2d_26">
     <path d="M 66.6 69.526688 
L 76.6 69.526688 
L 86.6 69.526688 
" style="fill: none; stroke: #ff7f0e; stroke-opacity: 0.9; stroke-linecap: square"/>
    </g>
    <g id="text_11">
     <!-- MoGIN13 eval_loss -->
     <g transform="translate(94.6 73.026688) scale(0.1 -0.1)">
      <defs>
       <path id="DejaVuSans-4d" d="M 628 4666 
L 1569 4666 
L 2759 1491 
L 3956 4666 
L 4897 4666 
L 4897 0 
L 4281 0 
L 4281 4097 
L 3078 897 
L 2444 897 
L 1241 4097 
L 1241 0 
L 628 0 
L 628 4666 
z
" transform="scale(0.015625)"/>
       <path id="DejaVuSans-47" d="M 3809 666 
L 3809 1919 
L 2778 1919 
L 2778 2438 
L 4434 2438 
L 4434 434 
Q 4069 175 3628 42 
Q 3188 -91 2688 -91 
Q 1594 -91 976 548 
Q 359 1188 359 2328 
Q 359 3472 976 4111 
Q 1594 4750 2688 4750 
Q 3144 4750 3555 4637 
Q 3966 4525 4313 4306 
L 4313 3634 
Q 3963 3931 3569 4081 
Q 3175 4231 2741 4231 
Q 1884 4231 1454 3753 
Q 1025 3275 1025 2328 
Q 1025 1384 1454 906 
Q 1884 428 2741 428 
Q 3075 428 3337 486 
Q 3600 544 3809 666 
z
" transform="scale(0.015625)"/>
       <path id="DejaVuSans-49" d="M 628 4666 
L 1259 4666 
L 1259 0 
L 628 0 
L 628 4666 
z
" transform="scale(0.015625)"/>
      </defs>
      <use xlink:href="#DejaVuSans-4d"/>
      <use xlink:href="#DejaVuSans-6f" x="86.279297"/>
      <use xlink:href="#DejaVuSans-47" x="147.460938"/>
      <use xlink:href="#DejaVuSans-49" x="224.951172"/>
      <use xlink:href="#DejaVuSans-4e" x="254.443359"/>
      <use xlink:href="#DejaVuSans-31" x="329.248047"/>
      <use xlink:href="#DejaVuSans-33" x="392.871094"/>
      <use xlink:href="#DejaVuSans-20" x="456.494141"/>
      <use xlink:href="#DejaVuSans-65" x="488.28125"/>
      <use xlink:href="#DejaVuSans-76" x="549.804688"/>
      <use xlink:href="#DejaVuSans-61" x="608.984375"/>
      <use xlink:href="#DejaVuSans-6c" x="670.263672"/>
      <use xlink:href="#DejaVuSans-5f" x="698.046875"/>
      <use xlink:href="#DejaVuSans-6c" x="748.046875"/>
      <use xlink:href="#DejaVuSans-6f" x="775.830078"/>
      <use xlink:href="#DejaVuSans-73" x="837.011719"/>
      <use xlink:href="#DejaVuSans-73" x="889.111328"/>
     </g>
    </g>
    <g id="line2d_27">
     <path d="M 66.6 84.482938 
L 76.6 84.482938 
L 86.6 84.482938 
" style="fill: none; stroke: #2ca02c; stroke-opacity: 0.9; stroke-linecap: square"/>
    </g>
    <g id="text_12">
     <!-- MoGIN11 eval_loss -->
     <g transform="translate(94.6 87.982938) scale(0.1 -0.1)">
      <use xlink:href="#DejaVuSans-4d"/>
      <use xlink:href="#DejaVuSans-6f" x="86.279297"/>
      <use xlink:href="#DejaVuSans-47" x="147.460938"/>
      <use xlink:href="#DejaVuSans-49" x="224.951172"/>
      <use xlink:href="#DejaVuSans-4e" x="254.443359"/>
      <use xlink:href="#DejaVuSans-31" x="329.248047"/>
      <use xlink:href="#DejaVuSans-31" x="392.871094"/>
      <use xlink:href="#DejaVuSans-20" x="456.494141"/>
      <use xlink:href="#DejaVuSans-65" x="488.28125"/>
      <use xlink:href="#DejaVuSans-76" x="549.804688"/>
      <use xlink:href="#DejaVuSans-61" x="608.984375"/>
      <use xlink:href="#DejaVuSans-6c" x="670.263672"/>
      <use xlink:href="#DejaVuSans-5f" x="698.046875"/>
      <use xlink:href="#DejaVuSans-6c" x="748.046875"/>
      <use xlink:href="#DejaVuSans-6f" x="775.830078"/>
      <use xlink:href="#DejaVuSans-73" x="837.011719"/>
      <use xlink:href="#DejaVuSans-73" x="889.111328"/>
     </g>
    </g>
   </g>
  </g>
 </g>
 <defs>
  <clipPath id="p8ac2b946ff">
   <rect x="57.6" y="41.472" width="357.12" height="266.112"/>
  </clipPath>
 </defs>
</svg>
