<?xml version="1.0" encoding="utf-8" standalone="no"?>
<!DOCTYPE svg PUBLIC "-//W3C//DTD SVG 1.1//EN"
  "http://www.w3.org/Graphics/SVG/1.1/DTD/svg11.dtd">
<svg xmlns:xlink="http://www.w3.org/1999/xlink" width="460.8pt" height="345.6pt" viewBox="0 0 460.8 345.6" xmlns="http://www.w3.org/2000/svg" version="1.1">
 <metadata>
  <rdf:RDF xmlns:dc="http://purl.org/dc/elements/1.1/" xmlns:cc="http://creativecommons.org/ns#" xmlns:rdf="http://www.w3.org/1999/02/22-rdf-syntax-ns#">
   <cc:Work>
    <dc:type rdf:resource="http://purl.org/dc/dcmitype/StillImage"/>
    <dc:date>2025-02-18T14:18:39.170629</dc:date>
    <dc:format>image/svg+xml</dc:format>
    <dc:creator>
     <cc:Agent>
      <dc:title>Matplotlib v3.8.4, https://matplotlib.org/</dc:title>
     </cc:Agent>
    </dc:creator>
   </cc:Work>
  </rdf:RDF>
 </metadata>
 <defs>
  <style type="text/css">*{stroke-linejoin: round; stroke-linecap: butt}</style>
 </defs>
 <g id="figure_1">
  <g id="patch_1">
   <path d="M 0 345.6 
L 460.8 345.6 
L 460.8 0 
L 0 0 
z
" style="fill: #ffffff"/>
  </g>
  <g id="axes_1">
   <g id="patch_2">
    <path d="M 57.6 307.584 
L 414.72 307.584 
L 414.72 41.472 
L 57.6 41.472 
z
" style="fill: #ffffff"/>
   </g>
   <g id="matplotlib.axis_1">
    <g id="xtick_1">
     <g id="line2d_1">
      <defs>
       <path id="m6eedba50e6" d="M 0 0 
L 0 3.5 
" style="stroke: #000000; stroke-width: 0.8"/>
      </defs>
      <g>
       <use xlink:href="#m6eedba50e6" x="57.6" y="307.584" style="stroke: #000000; stroke-width: 0.8"/>
      </g>
     </g>
     <g id="text_1">
      <!-- 8000 -->
      <g transform="translate(44.875 322.182437) scale(0.1 -0.1)">
       <defs>
        <path id="DejaVuSans-38" d="M 2034 2216 
Q 1584 2216 1326 1975 
Q 1069 1734 1069 1313 
Q 1069 891 1326 650 
Q 1584 409 2034 409 
Q 2484 409 2743 651 
Q 3003 894 3003 1313 
Q 3003 1734 2745 1975 
Q 2488 2216 2034 2216 
z
M 1403 2484 
Q 997 2584 770 2862 
Q 544 3141 544 3541 
Q 544 4100 942 4425 
Q 1341 4750 2034 4750 
Q 2731 4750 3128 4425 
Q 3525 4100 3525 3541 
Q 3525 3141 3298 2862 
Q 3072 2584 2669 2484 
Q 3125 2378 3379 2068 
Q 3634 1759 3634 1313 
Q 3634 634 3220 271 
Q 2806 -91 2034 -91 
Q 1263 -91 848 271 
Q 434 634 434 1313 
Q 434 1759 690 2068 
Q 947 2378 1403 2484 
z
M 1172 3481 
Q 1172 3119 1398 2916 
Q 1625 2713 2034 2713 
Q 2441 2713 2670 2916 
Q 2900 3119 2900 3481 
Q 2900 3844 2670 4047 
Q 2441 4250 2034 4250 
Q 1625 4250 1398 4047 
Q 1172 3844 1172 3481 
z
" transform="scale(0.015625)"/>
        <path id="DejaVuSans-30" d="M 2034 4250 
Q 1547 4250 1301 3770 
Q 1056 3291 1056 2328 
Q 1056 1369 1301 889 
Q 1547 409 2034 409 
Q 2525 409 2770 889 
Q 3016 1369 3016 2328 
Q 3016 3291 2770 3770 
Q 2525 4250 2034 4250 
z
M 2034 4750 
Q 2819 4750 3233 4129 
Q 3647 3509 3647 2328 
Q 3647 1150 3233 529 
Q 2819 -91 2034 -91 
Q 1250 -91 836 529 
Q 422 1150 422 2328 
Q 422 3509 836 4129 
Q 1250 4750 2034 4750 
z
" transform="scale(0.015625)"/>
       </defs>
       <use xlink:href="#DejaVuSans-38"/>
       <use xlink:href="#DejaVuSans-30" x="63.623047"/>
       <use xlink:href="#DejaVuSans-30" x="127.246094"/>
       <use xlink:href="#DejaVuSans-30" x="190.869141"/>
      </g>
     </g>
    </g>
    <g id="xtick_2">
     <g id="line2d_2">
      <g>
       <use xlink:href="#m6eedba50e6" x="117.12" y="307.584" style="stroke: #000000; stroke-width: 0.8"/>
      </g>
     </g>
     <g id="text_2">
      <!-- 10000 -->
      <g transform="translate(101.21375 322.182437) scale(0.1 -0.1)">
       <defs>
        <path id="DejaVuSans-31" d="M 794 531 
L 1825 531 
L 1825 4091 
L 703 3866 
L 703 4441 
L 1819 4666 
L 2450 4666 
L 2450 531 
L 3481 531 
L 3481 0 
L 794 0 
L 794 531 
z
" transform="scale(0.015625)"/>
       </defs>
       <use xlink:href="#DejaVuSans-31"/>
       <use xlink:href="#DejaVuSans-30" x="63.623047"/>
       <use xlink:href="#DejaVuSans-30" x="127.246094"/>
       <use xlink:href="#DejaVuSans-30" x="190.869141"/>
       <use xlink:href="#DejaVuSans-30" x="254.492188"/>
      </g>
     </g>
    </g>
    <g id="xtick_3">
     <g id="line2d_3">
      <g>
       <use xlink:href="#m6eedba50e6" x="176.64" y="307.584" style="stroke: #000000; stroke-width: 0.8"/>
      </g>
     </g>
     <g id="text_3">
      <!-- 12000 -->
      <g transform="translate(160.73375 322.182437) scale(0.1 -0.1)">
       <defs>
        <path id="DejaVuSans-32" d="M 1228 531 
L 3431 531 
L 3431 0 
L 469 0 
L 469 531 
Q 828 903 1448 1529 
Q 2069 2156 2228 2338 
Q 2531 2678 2651 2914 
Q 2772 3150 2772 3378 
Q 2772 3750 2511 3984 
Q 2250 4219 1831 4219 
Q 1534 4219 1204 4116 
Q 875 4013 500 3803 
L 500 4441 
Q 881 4594 1212 4672 
Q 1544 4750 1819 4750 
Q 2544 4750 2975 4387 
Q 3406 4025 3406 3419 
Q 3406 3131 3298 2873 
Q 3191 2616 2906 2266 
Q 2828 2175 2409 1742 
Q 1991 1309 1228 531 
z
" transform="scale(0.015625)"/>
       </defs>
       <use xlink:href="#DejaVuSans-31"/>
       <use xlink:href="#DejaVuSans-32" x="63.623047"/>
       <use xlink:href="#DejaVuSans-30" x="127.246094"/>
       <use xlink:href="#DejaVuSans-30" x="190.869141"/>
       <use xlink:href="#DejaVuSans-30" x="254.492188"/>
      </g>
     </g>
    </g>
    <g id="xtick_4">
     <g id="line2d_4">
      <g>
       <use xlink:href="#m6eedba50e6" x="236.16" y="307.584" style="stroke: #000000; stroke-width: 0.8"/>
      </g>
     </g>
     <g id="text_4">
      <!-- 14000 -->
      <g transform="translate(220.25375 322.182437) scale(0.1 -0.1)">
       <defs>
        <path id="DejaVuSans-34" d="M 2419 4116 
L 825 1625 
L 2419 1625 
L 2419 4116 
z
M 2253 4666 
L 3047 4666 
L 3047 1625 
L 3713 1625 
L 3713 1100 
L 3047 1100 
L 3047 0 
L 2419 0 
L 2419 1100 
L 313 1100 
L 313 1709 
L 2253 4666 
z
" transform="scale(0.015625)"/>
       </defs>
       <use xlink:href="#DejaVuSans-31"/>
       <use xlink:href="#DejaVuSans-34" x="63.623047"/>
       <use xlink:href="#DejaVuSans-30" x="127.246094"/>
       <use xlink:href="#DejaVuSans-30" x="190.869141"/>
       <use xlink:href="#DejaVuSans-30" x="254.492188"/>
      </g>
     </g>
    </g>
    <g id="xtick_5">
     <g id="line2d_5">
      <g>
       <use xlink:href="#m6eedba50e6" x="295.68" y="307.584" style="stroke: #000000; stroke-width: 0.8"/>
      </g>
     </g>
     <g id="text_5">
      <!-- 16000 -->
      <g transform="translate(279.77375 322.182437) scale(0.1 -0.1)">
       <defs>
        <path id="DejaVuSans-36" d="M 2113 2584 
Q 1688 2584 1439 2293 
Q 1191 2003 1191 1497 
Q 1191 994 1439 701 
Q 1688 409 2113 409 
Q 2538 409 2786 701 
Q 3034 994 3034 1497 
Q 3034 2003 2786 2293 
Q 2538 2584 2113 2584 
z
M 3366 4563 
L 3366 3988 
Q 3128 4100 2886 4159 
Q 2644 4219 2406 4219 
Q 1781 4219 1451 3797 
Q 1122 3375 1075 2522 
Q 1259 2794 1537 2939 
Q 1816 3084 2150 3084 
Q 2853 3084 3261 2657 
Q 3669 2231 3669 1497 
Q 3669 778 3244 343 
Q 2819 -91 2113 -91 
Q 1303 -91 875 529 
Q 447 1150 447 2328 
Q 447 3434 972 4092 
Q 1497 4750 2381 4750 
Q 2619 4750 2861 4703 
Q 3103 4656 3366 4563 
z
" transform="scale(0.015625)"/>
       </defs>
       <use xlink:href="#DejaVuSans-31"/>
       <use xlink:href="#DejaVuSans-36" x="63.623047"/>
       <use xlink:href="#DejaVuSans-30" x="127.246094"/>
       <use xlink:href="#DejaVuSans-30" x="190.869141"/>
       <use xlink:href="#DejaVuSans-30" x="254.492188"/>
      </g>
     </g>
    </g>
    <g id="xtick_6">
     <g id="line2d_6">
      <g>
       <use xlink:href="#m6eedba50e6" x="355.2" y="307.584" style="stroke: #000000; stroke-width: 0.8"/>
      </g>
     </g>
     <g id="text_6">
      <!-- 18000 -->
      <g transform="translate(339.29375 322.182437) scale(0.1 -0.1)">
       <use xlink:href="#DejaVuSans-31"/>
       <use xlink:href="#DejaVuSans-38" x="63.623047"/>
       <use xlink:href="#DejaVuSans-30" x="127.246094"/>
       <use xlink:href="#DejaVuSans-30" x="190.869141"/>
       <use xlink:href="#DejaVuSans-30" x="254.492188"/>
      </g>
     </g>
    </g>
    <g id="xtick_7">
     <g id="line2d_7">
      <g>
       <use xlink:href="#m6eedba50e6" x="414.72" y="307.584" style="stroke: #000000; stroke-width: 0.8"/>
      </g>
     </g>
     <g id="text_7">
      <!-- 20000 -->
      <g transform="translate(398.81375 322.182437) scale(0.1 -0.1)">
       <use xlink:href="#DejaVuSans-32"/>
       <use xlink:href="#DejaVuSans-30" x="63.623047"/>
       <use xlink:href="#DejaVuSans-30" x="127.246094"/>
       <use xlink:href="#DejaVuSans-30" x="190.869141"/>
       <use xlink:href="#DejaVuSans-30" x="254.492188"/>
      </g>
     </g>
    </g>
    <g id="text_8">
     <!-- iter# -->
     <g transform="translate(223.488906 335.860562) scale(0.1 -0.1)">
      <defs>
       <path id="DejaVuSans-69" d="M 603 3500 
L 1178 3500 
L 1178 0 
L 603 0 
L 603 3500 
z
M 603 4863 
L 1178 4863 
L 1178 4134 
L 603 4134 
L 603 4863 
z
" transform="scale(0.015625)"/>
       <path id="DejaVuSans-74" d="M 1172 4494 
L 1172 3500 
L 2356 3500 
L 2356 3053 
L 1172 3053 
L 1172 1153 
Q 1172 725 1289 603 
Q 1406 481 1766 481 
L 2356 481 
L 2356 0 
L 1766 0 
Q 1100 0 847 248 
Q 594 497 594 1153 
L 594 3053 
L 172 3053 
L 172 3500 
L 594 3500 
L 594 4494 
L 1172 4494 
z
" transform="scale(0.015625)"/>
       <path id="DejaVuSans-65" d="M 3597 1894 
L 3597 1613 
L 953 1613 
Q 991 1019 1311 708 
Q 1631 397 2203 397 
Q 2534 397 2845 478 
Q 3156 559 3463 722 
L 3463 178 
Q 3153 47 2828 -22 
Q 2503 -91 2169 -91 
Q 1331 -91 842 396 
Q 353 884 353 1716 
Q 353 2575 817 3079 
Q 1281 3584 2069 3584 
Q 2775 3584 3186 3129 
Q 3597 2675 3597 1894 
z
M 3022 2063 
Q 3016 2534 2758 2815 
Q 2500 3097 2075 3097 
Q 1594 3097 1305 2825 
Q 1016 2553 972 2059 
L 3022 2063 
z
" transform="scale(0.015625)"/>
       <path id="DejaVuSans-72" d="M 2631 2963 
Q 2534 3019 2420 3045 
Q 2306 3072 2169 3072 
Q 1681 3072 1420 2755 
Q 1159 2438 1159 1844 
L 1159 0 
L 581 0 
L 581 3500 
L 1159 3500 
L 1159 2956 
Q 1341 3275 1631 3429 
Q 1922 3584 2338 3584 
Q 2397 3584 2469 3576 
Q 2541 3569 2628 3553 
L 2631 2963 
z
" transform="scale(0.015625)"/>
       <path id="DejaVuSans-23" d="M 3272 2816 
L 2363 2816 
L 2100 1772 
L 3016 1772 
L 3272 2816 
z
M 2803 4594 
L 2478 3297 
L 3391 3297 
L 3719 4594 
L 4219 4594 
L 3897 3297 
L 4872 3297 
L 4872 2816 
L 3775 2816 
L 3519 1772 
L 4513 1772 
L 4513 1294 
L 3397 1294 
L 3072 0 
L 2572 0 
L 2894 1294 
L 1978 1294 
L 1656 0 
L 1153 0 
L 1478 1294 
L 494 1294 
L 494 1772 
L 1594 1772 
L 1856 2816 
L 850 2816 
L 850 3297 
L 1978 3297 
L 2297 4594 
L 2803 4594 
z
" transform="scale(0.015625)"/>
      </defs>
      <use xlink:href="#DejaVuSans-69"/>
      <use xlink:href="#DejaVuSans-74" x="27.783203"/>
      <use xlink:href="#DejaVuSans-65" x="66.992188"/>
      <use xlink:href="#DejaVuSans-72" x="128.515625"/>
      <use xlink:href="#DejaVuSans-23" x="169.628906"/>
     </g>
    </g>
   </g>
   <g id="matplotlib.axis_2">
    <g id="ytick_1">
     <g id="line2d_8">
      <defs>
       <path id="m628779c9dd" d="M 0 0 
L -3.5 0 
" style="stroke: #000000; stroke-width: 0.8"/>
      </defs>
      <g>
       <use xlink:href="#m628779c9dd" x="57.6" y="245.254111" style="stroke: #000000; stroke-width: 0.8"/>
      </g>
     </g>
     <g id="text_9">
      <!-- $\mathdefault{10^{-2}}$ -->
      <g transform="translate(27.1 249.05333) scale(0.1 -0.1)">
       <defs>
        <path id="DejaVuSans-2212" d="M 678 2272 
L 4684 2272 
L 4684 1741 
L 678 1741 
L 678 2272 
z
" transform="scale(0.015625)"/>
       </defs>
       <use xlink:href="#DejaVuSans-31" transform="translate(0 0.765625)"/>
       <use xlink:href="#DejaVuSans-30" transform="translate(63.623047 0.765625)"/>
       <use xlink:href="#DejaVuSans-2212" transform="translate(128.203125 39.046875) scale(0.7)"/>
       <use xlink:href="#DejaVuSans-32" transform="translate(186.855469 39.046875) scale(0.7)"/>
      </g>
     </g>
    </g>
    <g id="ytick_2">
     <g id="line2d_9">
      <g>
       <use xlink:href="#m628779c9dd" x="57.6" y="88.622741" style="stroke: #000000; stroke-width: 0.8"/>
      </g>
     </g>
     <g id="text_10">
      <!-- $\mathdefault{10^{-1}}$ -->
      <g transform="translate(27.1 92.421959) scale(0.1 -0.1)">
       <use xlink:href="#DejaVuSans-31" transform="translate(0 0.684375)"/>
       <use xlink:href="#DejaVuSans-30" transform="translate(63.623047 0.684375)"/>
       <use xlink:href="#DejaVuSans-2212" transform="translate(128.203125 38.965625) scale(0.7)"/>
       <use xlink:href="#DejaVuSans-31" transform="translate(186.855469 38.965625) scale(0.7)"/>
      </g>
     </g>
    </g>
    <g id="ytick_3">
     <g id="line2d_10">
      <defs>
       <path id="m8d0cafc2fb" d="M 0 0 
L -2 0 
" style="stroke: #000000; stroke-width: 0.6"/>
      </defs>
      <g>
       <use xlink:href="#m8d0cafc2fb" x="57.6" y="307.584" style="stroke: #000000; stroke-width: 0.6"/>
      </g>
     </g>
    </g>
    <g id="ytick_4">
     <g id="line2d_11">
      <g>
       <use xlink:href="#m8d0cafc2fb" x="57.6" y="292.404852" style="stroke: #000000; stroke-width: 0.6"/>
      </g>
     </g>
    </g>
    <g id="ytick_5">
     <g id="line2d_12">
      <g>
       <use xlink:href="#m8d0cafc2fb" x="57.6" y="280.002585" style="stroke: #000000; stroke-width: 0.6"/>
      </g>
     </g>
    </g>
    <g id="ytick_6">
     <g id="line2d_13">
      <g>
       <use xlink:href="#m8d0cafc2fb" x="57.6" y="269.516617" style="stroke: #000000; stroke-width: 0.6"/>
      </g>
     </g>
    </g>
    <g id="ytick_7">
     <g id="line2d_14">
      <g>
       <use xlink:href="#m8d0cafc2fb" x="57.6" y="260.433259" style="stroke: #000000; stroke-width: 0.6"/>
      </g>
     </g>
    </g>
    <g id="ytick_8">
     <g id="line2d_15">
      <g>
       <use xlink:href="#m8d0cafc2fb" x="57.6" y="252.42117" style="stroke: #000000; stroke-width: 0.6"/>
      </g>
     </g>
    </g>
    <g id="ytick_9">
     <g id="line2d_16">
      <g>
       <use xlink:href="#m8d0cafc2fb" x="57.6" y="198.10337" style="stroke: #000000; stroke-width: 0.6"/>
      </g>
     </g>
    </g>
    <g id="ytick_10">
     <g id="line2d_17">
      <g>
       <use xlink:href="#m8d0cafc2fb" x="57.6" y="170.521955" style="stroke: #000000; stroke-width: 0.6"/>
      </g>
     </g>
    </g>
    <g id="ytick_11">
     <g id="line2d_18">
      <g>
       <use xlink:href="#m8d0cafc2fb" x="57.6" y="150.95263" style="stroke: #000000; stroke-width: 0.6"/>
      </g>
     </g>
    </g>
    <g id="ytick_12">
     <g id="line2d_19">
      <g>
       <use xlink:href="#m8d0cafc2fb" x="57.6" y="135.773481" style="stroke: #000000; stroke-width: 0.6"/>
      </g>
     </g>
    </g>
    <g id="ytick_13">
     <g id="line2d_20">
      <g>
       <use xlink:href="#m8d0cafc2fb" x="57.6" y="123.371214" style="stroke: #000000; stroke-width: 0.6"/>
      </g>
     </g>
    </g>
    <g id="ytick_14">
     <g id="line2d_21">
      <g>
       <use xlink:href="#m8d0cafc2fb" x="57.6" y="112.885247" style="stroke: #000000; stroke-width: 0.6"/>
      </g>
     </g>
    </g>
    <g id="ytick_15">
     <g id="line2d_22">
      <g>
       <use xlink:href="#m8d0cafc2fb" x="57.6" y="103.801889" style="stroke: #000000; stroke-width: 0.6"/>
      </g>
     </g>
    </g>
    <g id="ytick_16">
     <g id="line2d_23">
      <g>
       <use xlink:href="#m8d0cafc2fb" x="57.6" y="95.789799" style="stroke: #000000; stroke-width: 0.6"/>
      </g>
     </g>
    </g>
    <g id="ytick_17">
     <g id="line2d_24">
      <g>
       <use xlink:href="#m8d0cafc2fb" x="57.6" y="41.472" style="stroke: #000000; stroke-width: 0.6"/>
      </g>
     </g>
    </g>
    <g id="text_11">
     <!-- loss -->
     <g transform="translate(21.020313 184.185812) rotate(-90) scale(0.1 -0.1)">
      <defs>
       <path id="DejaVuSans-6c" d="M 603 4863 
L 1178 4863 
L 1178 0 
L 603 0 
L 603 4863 
z
" transform="scale(0.015625)"/>
       <path id="DejaVuSans-6f" d="M 1959 3097 
Q 1497 3097 1228 2736 
Q 959 2375 959 1747 
Q 959 1119 1226 758 
Q 1494 397 1959 397 
Q 2419 397 2687 759 
Q 2956 1122 2956 1747 
Q 2956 2369 2687 2733 
Q 2419 3097 1959 3097 
z
M 1959 3584 
Q 2709 3584 3137 3096 
Q 3566 2609 3566 1747 
Q 3566 888 3137 398 
Q 2709 -91 1959 -91 
Q 1206 -91 779 398 
Q 353 888 353 1747 
Q 353 2609 779 3096 
Q 1206 3584 1959 3584 
z
" transform="scale(0.015625)"/>
       <path id="DejaVuSans-73" d="M 2834 3397 
L 2834 2853 
Q 2591 2978 2328 3040 
Q 2066 3103 1784 3103 
Q 1356 3103 1142 2972 
Q 928 2841 928 2578 
Q 928 2378 1081 2264 
Q 1234 2150 1697 2047 
L 1894 2003 
Q 2506 1872 2764 1633 
Q 3022 1394 3022 966 
Q 3022 478 2636 193 
Q 2250 -91 1575 -91 
Q 1294 -91 989 -36 
Q 684 19 347 128 
L 347 722 
Q 666 556 975 473 
Q 1284 391 1588 391 
Q 1994 391 2212 530 
Q 2431 669 2431 922 
Q 2431 1156 2273 1281 
Q 2116 1406 1581 1522 
L 1381 1569 
Q 847 1681 609 1914 
Q 372 2147 372 2553 
Q 372 3047 722 3315 
Q 1072 3584 1716 3584 
Q 2034 3584 2315 3537 
Q 2597 3491 2834 3397 
z
" transform="scale(0.015625)"/>
      </defs>
      <use xlink:href="#DejaVuSans-6c"/>
      <use xlink:href="#DejaVuSans-6f" x="27.783203"/>
      <use xlink:href="#DejaVuSans-73" x="88.964844"/>
      <use xlink:href="#DejaVuSans-73" x="141.064453"/>
     </g>
    </g>
   </g>
   <g id="line2d_25">
    <path d="M -1 179.948411 
L -0.40224 174.729987 
L 1.5024 185.049167 
L 3.40704 132.988083 
L 3.91296 151.916917 
L 5.8176 185.821642 
L 7.72224 167.371985 
L 9.62688 194.808293 
L 11.53152 154.73798 
L 13.43616 175.606631 
L 15.3408 173.81986 
L 17.24544 181.153229 
L 19.15008 193.982455 
L 21.05472 194.292866 
L 22.95936 182.403954 
L 24.864 195.497876 
L 26.76864 181.898443 
L 28.67328 202.733355 
L 30.57792 194.580701 
L 32.48256 180.719366 
L 34.3872 197.83193 
L 36.29184 206.081207 
L 38.19648 200.315071 
L 40.10112 181.081035 
L 42.00576 210.42493 
L 43.9104 201.536394 
L 45.81504 201.896377 
L 47.71968 194.067789 
L 49.62432 191.226204 
L 51.52896 187.176123 
L 53.4336 186.079639 
L 55.33824 205.480565 
L 57.24288 158.944779 
L 59.14752 176.113504 
L 61.05216 194.604051 
L 62.9568 154.987581 
L 64.86144 198.29163 
L 65.36736 118.760387 
L 67.272 100.4656 
L 69.17664 166.623236 
L 71.08128 163.55849 
L 72.98592 176.384711 
L 76.7952 195.876207 
L 78.69984 196.292652 
L 80.60448 197.849625 
L 82.50912 196.205931 
L 84.41376 175.235735 
L 86.3184 203.386716 
L 88.22304 154.704607 
L 90.12768 201.504179 
L 92.03232 189.699981 
L 93.93696 209.134373 
L 95.8416 211.764867 
L 97.74624 212.461172 
L 101.55552 192.075703 
L 103.46016 212.107813 
L 105.3648 187.854889 
L 107.26944 189.554115 
L 109.17408 173.042221 
L 111.07872 224.288382 
L 112.98336 218.266712 
L 114.888 209.519441 
L 116.79264 216.386998 
L 118.69728 215.569025 
L 120.60192 204.085991 
L 122.50656 209.724718 
L 124.4112 184.018388 
L 126.31584 208.452779 
L 126.82176 208.381487 
L 128.7264 203.892634 
L 130.63104 191.249971 
L 132.53568 210.765627 
L 134.44032 226.529163 
L 136.34496 235.63308 
L 138.2496 236.908584 
L 140.15424 190.976337 
L 142.05888 158.996484 
L 143.96352 192.013635 
L 145.86816 146.203906 
L 147.7728 224.88193 
L 149.67744 232.874073 
L 151.58208 231.716373 
L 153.48672 213.888911 
L 155.39136 222.767053 
L 157.296 130.37242 
L 159.20064 187.381868 
L 161.10528 220.073007 
L 163.00992 222.138323 
L 164.91456 143.520893 
L 166.8192 181.65166 
L 168.72384 200.405014 
L 170.62848 205.846996 
L 172.53312 164.573404 
L 174.43776 193.18585 
L 176.3424 171.650299 
L 178.24704 198.611629 
L 180.15168 164.473998 
L 182.05632 160.671494 
L 183.96096 161.701966 
L 185.8656 208.547423 
L 187.77024 234.597458 
L 188.27616 209.02139 
L 190.1808 189.174565 
L 192.08544 204.101481 
L 193.99008 186.480354 
L 195.89472 138.695224 
L 197.79936 81.534594 
L 199.704 126.063855 
L 201.60864 225.399669 
L 203.51328 199.838854 
L 205.41792 198.296808 
L 207.32256 221.744945 
L 209.2272 218.491588 
L 211.13184 208.629013 
L 213.03648 125.241533 
L 214.94112 184.673295 
L 216.84576 93.911198 
L 218.7504 113.71524 
L 220.65504 163.388184 
L 222.55968 135.550703 
L 224.46432 184.177319 
L 226.36896 63.572172 
L 228.2736 201.654662 
L 230.17824 219.712347 
L 232.08288 162.564719 
L 233.98752 226.11623 
L 235.89216 169.059256 
L 237.7968 239.648688 
L 239.70144 158.894459 
L 241.60608 238.835438 
L 243.51072 228.076676 
L 245.41536 185.287279 
L 247.32 228.059881 
L 249.22464 83.578447 
L 249.73056 130.003428 
L 251.6352 192.276251 
L 253.53984 203.452553 
L 255.44448 210.01666 
L 257.34912 217.993276 
L 259.25376 223.312664 
L 261.1584 226.732645 
L 263.06304 231.660992 
L 264.96768 236.098136 
L 266.87232 240.023805 
L 270.6816 246.12683 
L 272.58624 248.819321 
L 274.49088 250.864366 
L 276.39552 253.594977 
L 278.30016 254.735915 
L 280.2048 257.413437 
L 284.01408 260.583702 
L 285.91872 262.139582 
L 287.82336 262.707674 
L 289.728 265.663398 
L 291.63264 265.90657 
L 293.53728 268.094849 
L 295.44192 268.273272 
L 297.34656 270.059794 
L 299.2512 271.151093 
L 301.15584 271.93607 
L 303.06048 272.314992 
L 304.96512 272.506142 
L 306.86976 273.842172 
L 308.7744 273.842133 
L 310.67904 274.44051 
L 311.18496 247.988728 
L 313.0896 49.793476 
L 314.99424 101.434895 
L 316.89888 96.745698 
L 318.80352 107.675533 
L 320.70816 131.18258 
L 322.6128 170.783119 
L 324.51744 135.141819 
L 326.42208 177.710344 
L 328.32672 115.345886 
L 330.23136 186.893565 
L 332.136 194.217977 
L 334.04064 194.714075 
L 335.94528 161.624748 
L 337.84992 174.622912 
L 339.75456 172.666615 
L 341.6592 187.944303 
L 343.56384 132.660941 
L 345.46848 208.237695 
L 347.37312 182.821197 
L 349.27776 205.275373 
L 351.1824 183.080277 
L 353.08704 178.319712 
L 354.99168 171.722354 
L 356.89632 198.958124 
L 358.80096 158.582056 
L 360.7056 111.686947 
L 362.61024 112.577566 
L 364.51488 108.740403 
L 366.41952 121.217178 
L 368.32416 163.83423 
L 370.2288 191.568929 
L 372.13344 162.934503 
L 372.63936 139.331226 
L 374.544 225.912912 
L 376.44864 228.459085 
L 378.35328 230.333917 
L 380.25792 231.829621 
L 382.16256 232.528733 
L 384.0672 233.758145 
L 385.97184 234.270158 
L 387.87648 235.19033 
L 389.78112 235.702609 
L 391.68576 236.617877 
L 393.5904 237.170297 
L 395.49504 236.528807 
L 397.39968 237.556884 
L 399.30432 237.772787 
L 401.20896 238.257381 
L 403.1136 237.670643 
L 405.01824 238.859752 
L 408.82752 239.106727 
L 410.73216 239.994972 
L 414.54144 240.333639 
L 416.44608 238.665037 
L 418.35072 240.387412 
L 420.25536 240.578232 
L 422.16 241.111733 
L 425.96928 240.652125 
L 427.87392 241.79812 
L 429.77856 241.969525 
L 431.6832 241.77496 
L 433.58784 241.062299 
L 433.58784 241.062299 
" clip-path="url(#pdf3009dc2c)" style="fill: none; stroke: #1f77b4; stroke-opacity: 0.9; stroke-linecap: square"/>
   </g>
   <g id="line2d_26">
    <path d="M -1 167.11843 
L -0.40224 166.368379 
L 1.5024 168.572627 
L 3.40704 167.959862 
L 3.91296 166.758492 
L 5.8176 167.930864 
L 7.72224 169.320284 
L 9.62688 162.855489 
L 11.53152 168.418636 
L 13.43616 169.634814 
L 15.3408 168.769551 
L 17.24544 169.539296 
L 19.15008 170.722246 
L 21.05472 166.62476 
L 22.95936 171.934813 
L 24.864 171.68546 
L 26.76864 171.145354 
L 28.67328 165.001375 
L 30.57792 164.462429 
L 32.48256 169.993393 
L 34.3872 172.451545 
L 36.29184 171.577557 
L 38.19648 173.327924 
L 42.00576 169.74212 
L 43.9104 158.490339 
L 45.81504 174.749601 
L 47.71968 165.042526 
L 49.62432 172.657096 
L 51.52896 175.312721 
L 53.4336 165.250456 
L 55.33824 169.165764 
L 57.24288 170.128374 
L 59.14752 172.628086 
L 61.05216 174.037804 
L 62.9568 176.431454 
L 64.86144 176.140209 
L 65.36736 173.991543 
L 67.272 169.168178 
L 69.17664 171.715451 
L 71.08128 176.29248 
L 72.98592 170.168815 
L 74.89056 175.36203 
L 76.7952 173.65779 
L 78.69984 177.509567 
L 80.60448 173.194101 
L 82.50912 171.939332 
L 84.41376 179.306212 
L 86.3184 179.328452 
L 88.22304 180.47223 
L 90.12768 179.286454 
L 92.03232 169.744308 
L 93.93696 176.889273 
L 95.8416 174.826781 
L 97.74624 172.150498 
L 99.65088 180.187139 
L 101.55552 169.966225 
L 103.46016 180.600505 
L 105.3648 147.624714 
L 107.26944 177.381496 
L 109.17408 177.300161 
L 111.07872 169.231173 
L 112.98336 172.409706 
L 114.888 180.937576 
L 116.79264 179.69439 
L 118.69728 179.834683 
L 120.60192 180.297204 
L 122.50656 183.15906 
L 124.4112 182.29727 
L 126.31584 182.915915 
L 126.82176 184.274943 
L 128.7264 172.457393 
L 130.63104 151.759522 
L 132.53568 158.557737 
L 134.44032 182.019925 
L 136.34496 179.69005 
L 138.2496 183.143098 
L 140.15424 169.799735 
L 142.05888 182.285058 
L 143.96352 185.206507 
L 145.86816 164.759255 
L 147.7728 185.201224 
L 149.67744 186.5353 
L 151.58208 146.165019 
L 153.48672 182.096933 
L 155.39136 164.614947 
L 157.296 157.014407 
L 161.10528 181.939262 
L 163.00992 178.150375 
L 164.91456 178.465477 
L 166.8192 171.880011 
L 168.72384 183.805553 
L 170.62848 168.817315 
L 172.53312 170.27522 
L 174.43776 189.082265 
L 176.3424 185.394514 
L 178.24704 173.136286 
L 180.15168 153.923682 
L 182.05632 165.904474 
L 183.96096 186.755519 
L 185.8656 188.602366 
L 187.77024 170.301076 
L 188.27616 185.669909 
L 190.1808 183.830469 
L 192.08544 186.719417 
L 193.99008 184.179312 
L 195.89472 188.603253 
L 197.79936 192.71643 
L 199.704 185.789072 
L 201.60864 188.9747 
L 203.51328 186.330236 
L 205.41792 188.118831 
L 207.32256 189.749987 
L 209.2272 188.889321 
L 211.13184 180.469063 
L 213.03648 180.914479 
L 214.94112 190.551911 
L 216.84576 187.051691 
L 218.7504 183.86044 
L 220.65504 188.682227 
L 222.55968 181.882285 
L 224.46432 179.562819 
L 226.36896 188.640893 
L 228.2736 177.114781 
L 230.17824 183.555777 
L 232.08288 180.452786 
L 233.98752 190.009588 
L 235.89216 177.857381 
L 237.7968 169.136392 
L 239.70144 154.696319 
L 241.60608 191.728841 
L 243.51072 179.52393 
L 245.41536 172.446939 
L 247.32 191.990931 
L 249.22464 195.15909 
L 249.73056 189.774164 
L 251.6352 190.369029 
L 253.53984 182.4477 
L 255.44448 188.008664 
L 257.34912 192.183975 
L 259.25376 177.275361 
L 261.1584 138.107904 
L 263.06304 177.31697 
L 264.96768 161.84497 
L 266.87232 185.38289 
L 268.77696 161.989824 
L 270.6816 182.041204 
L 272.58624 191.85696 
L 274.49088 128.102664 
L 276.39552 186.281121 
L 278.30016 163.317622 
L 280.2048 182.397285 
L 282.10944 189.071402 
L 284.01408 184.401541 
L 285.91872 192.700097 
L 287.82336 187.683977 
L 289.728 176.314551 
L 291.63264 192.453704 
L 293.53728 194.420528 
L 295.44192 197.049101 
L 297.34656 184.903763 
L 299.2512 189.009199 
L 301.15584 180.791614 
L 303.06048 189.014176 
L 304.96512 192.761237 
L 306.86976 193.068566 
L 308.7744 180.247533 
L 310.67904 187.417371 
L 311.18496 196.084766 
L 313.0896 190.765564 
L 314.99424 190.994983 
L 316.89888 197.620847 
L 318.80352 191.785425 
L 320.70816 195.639594 
L 322.6128 165.388411 
L 324.51744 200.36323 
L 326.42208 178.225478 
L 328.32672 189.61909 
L 330.23136 186.972972 
L 332.136 194.994616 
L 334.04064 188.628425 
L 335.94528 187.764699 
L 337.84992 199.097357 
L 339.75456 173.727289 
L 341.6592 166.089896 
L 343.56384 196.295731 
L 345.46848 198.370966 
L 347.37312 140.568038 
L 349.27776 190.728714 
L 351.1824 185.435457 
L 353.08704 200.042635 
L 354.99168 193.705087 
L 356.89632 190.119136 
L 358.80096 197.017008 
L 360.7056 190.789496 
L 362.61024 128.342035 
L 364.51488 166.2763 
L 366.41952 159.374936 
L 368.32416 195.208693 
L 370.2288 193.672397 
L 372.13344 180.462879 
L 372.63936 139.083896 
L 374.544 186.785364 
L 376.44864 186.063529 
L 378.35328 172.755479 
L 380.25792 177.999381 
L 382.16256 199.790649 
L 384.0672 196.193647 
L 385.97184 192.183005 
L 387.87648 189.728979 
L 389.78112 173.885447 
L 391.68576 186.361943 
L 393.5904 134.708134 
L 395.49504 196.46461 
L 397.39968 186.718457 
L 399.30432 167.413007 
L 401.20896 196.709471 
L 403.1136 197.912392 
L 405.01824 196.09644 
L 406.92288 191.820674 
L 408.82752 195.921955 
L 410.73216 191.499393 
L 412.6368 166.092373 
L 414.54144 176.677497 
L 416.44608 191.935269 
L 418.35072 174.916982 
L 420.25536 193.763185 
L 422.16 192.353089 
L 424.06464 200.893567 
L 427.87392 191.601677 
L 429.77856 186.126586 
L 431.6832 191.126106 
L 433.58784 191.024305 
L 433.58784 191.024305 
" clip-path="url(#pdf3009dc2c)" style="fill: none; stroke: #ff7f0e; stroke-opacity: 0.9; stroke-linecap: square"/>
   </g>
   <g id="line2d_27">
    <path d="M -1 173.377675 
L -0.40224 171.251762 
L 1.5024 182.777397 
L 3.40704 183.024082 
L 3.91296 183.457713 
L 5.8176 184.0234 
L 7.72224 185.600784 
L 9.62688 181.851716 
L 11.53152 184.611597 
L 13.43616 186.692289 
L 15.3408 184.847965 
L 17.24544 181.150183 
L 19.15008 173.334817 
L 21.05472 187.282111 
L 22.95936 186.175467 
L 24.864 175.909012 
L 26.76864 177.309727 
L 28.67328 188.872985 
L 30.57792 167.258021 
L 32.48256 185.936092 
L 34.3872 181.315932 
L 36.29184 189.594499 
L 38.19648 188.062952 
L 42.00576 191.408663 
L 43.9104 187.922754 
L 45.81504 177.594832 
L 47.71968 186.355604 
L 49.62432 177.805638 
L 51.52896 187.226273 
L 53.4336 177.732636 
L 55.33824 171.499656 
L 57.24288 180.800991 
L 59.14752 188.300454 
L 61.05216 189.941099 
L 62.9568 193.220772 
L 64.86144 187.603307 
L 65.36736 190.169959 
L 67.272 162.99632 
L 69.17664 192.465523 
L 71.08128 185.046422 
L 72.98592 181.017487 
L 74.89056 188.259571 
L 76.7952 182.931494 
L 78.69984 193.453774 
L 80.60448 168.348432 
L 82.50912 195.907299 
L 84.41376 161.404779 
L 86.3184 194.900889 
L 88.22304 194.435863 
L 90.12768 191.712506 
L 92.03232 194.854639 
L 93.93696 195.571375 
L 95.8416 197.207057 
L 97.74624 192.638748 
L 99.65088 195.891512 
L 101.55552 188.313971 
L 103.46016 166.529402 
L 105.3648 195.996829 
L 107.26944 194.999912 
L 109.17408 192.755041 
L 111.07872 191.073198 
L 112.98336 174.87989 
L 114.888 195.77644 
L 116.79264 197.237519 
L 118.69728 191.77015 
L 120.60192 184.662282 
L 122.50656 198.755303 
L 124.4112 180.385413 
L 126.31584 186.302076 
L 126.82176 167.097315 
L 128.7264 202.589077 
L 130.63104 198.091513 
L 132.53568 203.125495 
L 134.44032 196.160466 
L 136.34496 201.76774 
L 138.2496 199.73665 
L 140.15424 167.679697 
L 142.05888 196.79506 
L 143.96352 196.230061 
L 145.86816 201.419037 
L 147.7728 185.883798 
L 149.67744 193.587385 
L 151.58208 192.452987 
L 153.48672 191.127529 
L 155.39136 203.566088 
L 157.296 200.194495 
L 159.20064 199.104493 
L 161.10528 199.458406 
L 163.00992 201.942566 
L 164.91456 202.246127 
L 166.8192 204.885279 
L 168.72384 205.304897 
L 170.62848 179.775501 
L 172.53312 203.513659 
L 174.43776 200.885495 
L 176.3424 203.580286 
L 178.24704 193.732404 
L 180.15168 182.346937 
L 182.05632 202.537294 
L 183.96096 187.735329 
L 185.8656 203.913186 
L 187.77024 198.961697 
L 188.27616 178.984881 
L 190.1808 173.061478 
L 192.08544 183.349579 
L 193.99008 200.375209 
L 195.89472 164.496831 
L 197.79936 183.58051 
L 199.704 161.298675 
L 201.60864 201.232229 
L 203.51328 190.907488 
L 205.41792 162.148609 
L 207.32256 190.802952 
L 209.2272 172.475703 
L 211.13184 199.541813 
L 213.03648 204.088018 
L 214.94112 189.847462 
L 216.84576 170.984456 
L 218.7504 197.571409 
L 220.65504 194.945072 
L 222.55968 166.615858 
L 224.46432 124.198802 
L 226.36896 186.916151 
L 228.2736 155.731583 
L 230.17824 198.013161 
L 232.08288 167.64917 
L 233.98752 184.903398 
L 235.89216 190.853657 
L 237.7968 205.484872 
L 239.70144 198.384158 
L 241.60608 207.34742 
L 243.51072 205.931051 
L 245.41536 192.525747 
L 247.32 207.31815 
L 249.22464 187.996421 
L 249.73056 189.557339 
L 251.6352 210.921677 
L 253.53984 209.315088 
L 255.44448 211.687638 
L 257.34912 209.645326 
L 259.25376 202.483936 
L 261.1584 210.528977 
L 263.06304 209.284758 
L 264.96768 212.204139 
L 266.87232 211.458796 
L 268.77696 210.271211 
L 270.6816 209.728717 
L 272.58624 205.626955 
L 274.49088 208.584573 
L 276.39552 201.634227 
L 278.30016 212.874414 
L 280.2048 205.387114 
L 282.10944 213.458578 
L 284.01408 212.729957 
L 285.91872 207.843344 
L 287.82336 206.229531 
L 289.728 212.845279 
L 291.63264 212.216635 
L 293.53728 185.857065 
L 295.44192 211.268428 
L 297.34656 199.006769 
L 299.2512 209.489529 
L 301.15584 205.921527 
L 303.06048 193.148214 
L 304.96512 209.839569 
L 306.86976 203.73358 
L 308.7744 207.797552 
L 310.67904 186.259145 
L 311.18496 198.251683 
L 313.0896 169.762816 
L 314.99424 198.19296 
L 316.89888 201.764791 
L 318.80352 202.918231 
L 320.70816 202.914913 
L 322.6128 175.207559 
L 324.51744 197.337374 
L 326.42208 198.92222 
L 328.32672 188.992651 
L 330.23136 179.893698 
L 332.136 186.211633 
L 334.04064 201.062617 
L 335.94528 173.610726 
L 337.84992 206.019182 
L 339.75456 174.947094 
L 341.6592 204.025074 
L 345.46848 195.212864 
L 347.37312 209.29345 
L 349.27776 200.383653 
L 351.1824 206.328702 
L 353.08704 199.483692 
L 354.99168 198.232683 
L 356.89632 185.549817 
L 358.80096 204.472734 
L 360.7056 195.566748 
L 362.61024 172.783845 
L 364.51488 178.567406 
L 366.41952 191.029135 
L 368.32416 195.807052 
L 370.2288 203.762311 
L 372.13344 189.259502 
L 372.63936 201.916817 
L 374.544 208.797185 
L 376.44864 206.943124 
L 378.35328 204.755878 
L 380.25792 210.46331 
L 382.16256 207.941873 
L 384.0672 212.130747 
L 385.97184 187.172304 
L 387.87648 208.230555 
L 389.78112 195.204358 
L 391.68576 206.891986 
L 393.5904 207.962141 
L 395.49504 207.399614 
L 397.39968 208.552188 
L 399.30432 211.277101 
L 401.20896 204.576641 
L 403.1136 194.515974 
L 405.01824 211.424335 
L 406.92288 213.433231 
L 408.82752 204.065815 
L 410.73216 166.610579 
L 412.6368 204.951862 
L 414.54144 211.30251 
L 416.44608 212.256952 
L 418.35072 201.132144 
L 420.25536 215.462293 
L 422.16 210.537579 
L 424.06464 197.955864 
L 425.96928 213.531701 
L 427.87392 209.548332 
L 429.77856 216.21578 
L 431.6832 208.487427 
L 433.58784 209.873553 
L 433.58784 209.873553 
" clip-path="url(#pdf3009dc2c)" style="fill: none; stroke: #2ca02c; stroke-opacity: 0.9; stroke-linecap: square"/>
   </g>
   <g id="patch_3">
    <path d="M 57.6 307.584 
L 57.6 41.472 
" style="fill: none; stroke: #000000; stroke-width: 0.8; stroke-linejoin: miter; stroke-linecap: square"/>
   </g>
   <g id="patch_4">
    <path d="M 414.72 307.584 
L 414.72 41.472 
" style="fill: none; stroke: #000000; stroke-width: 0.8; stroke-linejoin: miter; stroke-linecap: square"/>
   </g>
   <g id="patch_5">
    <path d="M 57.6 307.584 
L 414.72 307.584 
" style="fill: none; stroke: #000000; stroke-width: 0.8; stroke-linejoin: miter; stroke-linecap: square"/>
   </g>
   <g id="patch_6">
    <path d="M 57.6 41.472 
L 414.72 41.472 
" style="fill: none; stroke: #000000; stroke-width: 0.8; stroke-linejoin: miter; stroke-linecap: square"/>
   </g>
   <g id="text_12">
    <!-- 2025-02-18-14:18:39 -->
    <g transform="translate(172.178438 35.472) scale(0.12 -0.12)">
     <defs>
      <path id="DejaVuSans-35" d="M 691 4666 
L 3169 4666 
L 3169 4134 
L 1269 4134 
L 1269 2991 
Q 1406 3038 1543 3061 
Q 1681 3084 1819 3084 
Q 2600 3084 3056 2656 
Q 3513 2228 3513 1497 
Q 3513 744 3044 326 
Q 2575 -91 1722 -91 
Q 1428 -91 1123 -41 
Q 819 9 494 109 
L 494 744 
Q 775 591 1075 516 
Q 1375 441 1709 441 
Q 2250 441 2565 725 
Q 2881 1009 2881 1497 
Q 2881 1984 2565 2268 
Q 2250 2553 1709 2553 
Q 1456 2553 1204 2497 
Q 953 2441 691 2322 
L 691 4666 
z
" transform="scale(0.015625)"/>
      <path id="DejaVuSans-2d" d="M 313 2009 
L 1997 2009 
L 1997 1497 
L 313 1497 
L 313 2009 
z
" transform="scale(0.015625)"/>
      <path id="DejaVuSans-3a" d="M 750 794 
L 1409 794 
L 1409 0 
L 750 0 
L 750 794 
z
M 750 3309 
L 1409 3309 
L 1409 2516 
L 750 2516 
L 750 3309 
z
" transform="scale(0.015625)"/>
      <path id="DejaVuSans-33" d="M 2597 2516 
Q 3050 2419 3304 2112 
Q 3559 1806 3559 1356 
Q 3559 666 3084 287 
Q 2609 -91 1734 -91 
Q 1441 -91 1130 -33 
Q 819 25 488 141 
L 488 750 
Q 750 597 1062 519 
Q 1375 441 1716 441 
Q 2309 441 2620 675 
Q 2931 909 2931 1356 
Q 2931 1769 2642 2001 
Q 2353 2234 1838 2234 
L 1294 2234 
L 1294 2753 
L 1863 2753 
Q 2328 2753 2575 2939 
Q 2822 3125 2822 3475 
Q 2822 3834 2567 4026 
Q 2313 4219 1838 4219 
Q 1578 4219 1281 4162 
Q 984 4106 628 3988 
L 628 4550 
Q 988 4650 1302 4700 
Q 1616 4750 1894 4750 
Q 2613 4750 3031 4423 
Q 3450 4097 3450 3541 
Q 3450 3153 3228 2886 
Q 3006 2619 2597 2516 
z
" transform="scale(0.015625)"/>
      <path id="DejaVuSans-39" d="M 703 97 
L 703 672 
Q 941 559 1184 500 
Q 1428 441 1663 441 
Q 2288 441 2617 861 
Q 2947 1281 2994 2138 
Q 2813 1869 2534 1725 
Q 2256 1581 1919 1581 
Q 1219 1581 811 2004 
Q 403 2428 403 3163 
Q 403 3881 828 4315 
Q 1253 4750 1959 4750 
Q 2769 4750 3195 4129 
Q 3622 3509 3622 2328 
Q 3622 1225 3098 567 
Q 2575 -91 1691 -91 
Q 1453 -91 1209 -44 
Q 966 3 703 97 
z
M 1959 2075 
Q 2384 2075 2632 2365 
Q 2881 2656 2881 3163 
Q 2881 3666 2632 3958 
Q 2384 4250 1959 4250 
Q 1534 4250 1286 3958 
Q 1038 3666 1038 3163 
Q 1038 2656 1286 2365 
Q 1534 2075 1959 2075 
z
" transform="scale(0.015625)"/>
     </defs>
     <use xlink:href="#DejaVuSans-32"/>
     <use xlink:href="#DejaVuSans-30" x="63.623047"/>
     <use xlink:href="#DejaVuSans-32" x="127.246094"/>
     <use xlink:href="#DejaVuSans-35" x="190.869141"/>
     <use xlink:href="#DejaVuSans-2d" x="254.492188"/>
     <use xlink:href="#DejaVuSans-30" x="290.576172"/>
     <use xlink:href="#DejaVuSans-32" x="354.199219"/>
     <use xlink:href="#DejaVuSans-2d" x="417.822266"/>
     <use xlink:href="#DejaVuSans-31" x="453.90625"/>
     <use xlink:href="#DejaVuSans-38" x="517.529297"/>
     <use xlink:href="#DejaVuSans-2d" x="581.152344"/>
     <use xlink:href="#DejaVuSans-31" x="617.236328"/>
     <use xlink:href="#DejaVuSans-34" x="680.859375"/>
     <use xlink:href="#DejaVuSans-3a" x="744.482422"/>
     <use xlink:href="#DejaVuSans-31" x="778.173828"/>
     <use xlink:href="#DejaVuSans-38" x="841.796875"/>
     <use xlink:href="#DejaVuSans-3a" x="905.419922"/>
     <use xlink:href="#DejaVuSans-33" x="939.111328"/>
     <use xlink:href="#DejaVuSans-39" x="1002.734375"/>
    </g>
   </g>
   <g id="legend_1">
    <g id="patch_7">
     <path d="M 64.6 94.34075 
L 190.723438 94.34075 
Q 192.723438 94.34075 192.723438 92.34075 
L 192.723438 48.472 
Q 192.723438 46.472 190.723438 46.472 
L 64.6 46.472 
Q 62.6 46.472 62.6 48.472 
L 62.6 92.34075 
Q 62.6 94.34075 64.6 94.34075 
z
" style="fill: #ffffff; opacity: 0.8; stroke: #cccccc; stroke-linejoin: miter"/>
    </g>
    <g id="line2d_28">
     <path d="M 66.6 54.570438 
L 76.6 54.570438 
L 86.6 54.570438 
" style="fill: none; stroke: #1f77b4; stroke-opacity: 0.9; stroke-linecap: square"/>
    </g>
    <g id="text_13">
     <!-- SchNet eval_loss -->
     <g transform="translate(94.6 58.070438) scale(0.1 -0.1)">
      <defs>
       <path id="DejaVuSans-53" d="M 3425 4513 
L 3425 3897 
Q 3066 4069 2747 4153 
Q 2428 4238 2131 4238 
Q 1616 4238 1336 4038 
Q 1056 3838 1056 3469 
Q 1056 3159 1242 3001 
Q 1428 2844 1947 2747 
L 2328 2669 
Q 3034 2534 3370 2195 
Q 3706 1856 3706 1288 
Q 3706 609 3251 259 
Q 2797 -91 1919 -91 
Q 1588 -91 1214 -16 
Q 841 59 441 206 
L 441 856 
Q 825 641 1194 531 
Q 1563 422 1919 422 
Q 2459 422 2753 634 
Q 3047 847 3047 1241 
Q 3047 1584 2836 1778 
Q 2625 1972 2144 2069 
L 1759 2144 
Q 1053 2284 737 2584 
Q 422 2884 422 3419 
Q 422 4038 858 4394 
Q 1294 4750 2059 4750 
Q 2388 4750 2728 4690 
Q 3069 4631 3425 4513 
z
" transform="scale(0.015625)"/>
       <path id="DejaVuSans-63" d="M 3122 3366 
L 3122 2828 
Q 2878 2963 2633 3030 
Q 2388 3097 2138 3097 
Q 1578 3097 1268 2742 
Q 959 2388 959 1747 
Q 959 1106 1268 751 
Q 1578 397 2138 397 
Q 2388 397 2633 464 
Q 2878 531 3122 666 
L 3122 134 
Q 2881 22 2623 -34 
Q 2366 -91 2075 -91 
Q 1284 -91 818 406 
Q 353 903 353 1747 
Q 353 2603 823 3093 
Q 1294 3584 2113 3584 
Q 2378 3584 2631 3529 
Q 2884 3475 3122 3366 
z
" transform="scale(0.015625)"/>
       <path id="DejaVuSans-68" d="M 3513 2113 
L 3513 0 
L 2938 0 
L 2938 2094 
Q 2938 2591 2744 2837 
Q 2550 3084 2163 3084 
Q 1697 3084 1428 2787 
Q 1159 2491 1159 1978 
L 1159 0 
L 581 0 
L 581 4863 
L 1159 4863 
L 1159 2956 
Q 1366 3272 1645 3428 
Q 1925 3584 2291 3584 
Q 2894 3584 3203 3211 
Q 3513 2838 3513 2113 
z
" transform="scale(0.015625)"/>
       <path id="DejaVuSans-4e" d="M 628 4666 
L 1478 4666 
L 3547 763 
L 3547 4666 
L 4159 4666 
L 4159 0 
L 3309 0 
L 1241 3903 
L 1241 0 
L 628 0 
L 628 4666 
z
" transform="scale(0.015625)"/>
       <path id="DejaVuSans-20" transform="scale(0.015625)"/>
       <path id="DejaVuSans-76" d="M 191 3500 
L 800 3500 
L 1894 563 
L 2988 3500 
L 3597 3500 
L 2284 0 
L 1503 0 
L 191 3500 
z
" transform="scale(0.015625)"/>
       <path id="DejaVuSans-61" d="M 2194 1759 
Q 1497 1759 1228 1600 
Q 959 1441 959 1056 
Q 959 750 1161 570 
Q 1363 391 1709 391 
Q 2188 391 2477 730 
Q 2766 1069 2766 1631 
L 2766 1759 
L 2194 1759 
z
M 3341 1997 
L 3341 0 
L 2766 0 
L 2766 531 
Q 2569 213 2275 61 
Q 1981 -91 1556 -91 
Q 1019 -91 701 211 
Q 384 513 384 1019 
Q 384 1609 779 1909 
Q 1175 2209 1959 2209 
L 2766 2209 
L 2766 2266 
Q 2766 2663 2505 2880 
Q 2244 3097 1772 3097 
Q 1472 3097 1187 3025 
Q 903 2953 641 2809 
L 641 3341 
Q 956 3463 1253 3523 
Q 1550 3584 1831 3584 
Q 2591 3584 2966 3190 
Q 3341 2797 3341 1997 
z
" transform="scale(0.015625)"/>
       <path id="DejaVuSans-5f" d="M 3263 -1063 
L 3263 -1509 
L -63 -1509 
L -63 -1063 
L 3263 -1063 
z
" transform="scale(0.015625)"/>
      </defs>
      <use xlink:href="#DejaVuSans-53"/>
      <use xlink:href="#DejaVuSans-63" x="63.476562"/>
      <use xlink:href="#DejaVuSans-68" x="118.457031"/>
      <use xlink:href="#DejaVuSans-4e" x="181.835938"/>
      <use xlink:href="#DejaVuSans-65" x="256.640625"/>
      <use xlink:href="#DejaVuSans-74" x="318.164062"/>
      <use xlink:href="#DejaVuSans-20" x="357.373047"/>
      <use xlink:href="#DejaVuSans-65" x="389.160156"/>
      <use xlink:href="#DejaVuSans-76" x="450.683594"/>
      <use xlink:href="#DejaVuSans-61" x="509.863281"/>
      <use xlink:href="#DejaVuSans-6c" x="571.142578"/>
      <use xlink:href="#DejaVuSans-5f" x="598.925781"/>
      <use xlink:href="#DejaVuSans-6c" x="648.925781"/>
      <use xlink:href="#DejaVuSans-6f" x="676.708984"/>
      <use xlink:href="#DejaVuSans-73" x="737.890625"/>
      <use xlink:href="#DejaVuSans-73" x="789.990234"/>
     </g>
    </g>
    <g id="line2d_29">
     <path d="M 66.6 69.526688 
L 76.6 69.526688 
L 86.6 69.526688 
" style="fill: none; stroke: #ff7f0e; stroke-opacity: 0.9; stroke-linecap: square"/>
    </g>
    <g id="text_14">
     <!-- MoGIN13 eval_loss -->
     <g transform="translate(94.6 73.026688) scale(0.1 -0.1)">
      <defs>
       <path id="DejaVuSans-4d" d="M 628 4666 
L 1569 4666 
L 2759 1491 
L 3956 4666 
L 4897 4666 
L 4897 0 
L 4281 0 
L 4281 4097 
L 3078 897 
L 2444 897 
L 1241 4097 
L 1241 0 
L 628 0 
L 628 4666 
z
" transform="scale(0.015625)"/>
       <path id="DejaVuSans-47" d="M 3809 666 
L 3809 1919 
L 2778 1919 
L 2778 2438 
L 4434 2438 
L 4434 434 
Q 4069 175 3628 42 
Q 3188 -91 2688 -91 
Q 1594 -91 976 548 
Q 359 1188 359 2328 
Q 359 3472 976 4111 
Q 1594 4750 2688 4750 
Q 3144 4750 3555 4637 
Q 3966 4525 4313 4306 
L 4313 3634 
Q 3963 3931 3569 4081 
Q 3175 4231 2741 4231 
Q 1884 4231 1454 3753 
Q 1025 3275 1025 2328 
Q 1025 1384 1454 906 
Q 1884 428 2741 428 
Q 3075 428 3337 486 
Q 3600 544 3809 666 
z
" transform="scale(0.015625)"/>
       <path id="DejaVuSans-49" d="M 628 4666 
L 1259 4666 
L 1259 0 
L 628 0 
L 628 4666 
z
" transform="scale(0.015625)"/>
      </defs>
      <use xlink:href="#DejaVuSans-4d"/>
      <use xlink:href="#DejaVuSans-6f" x="86.279297"/>
      <use xlink:href="#DejaVuSans-47" x="147.460938"/>
      <use xlink:href="#DejaVuSans-49" x="224.951172"/>
      <use xlink:href="#DejaVuSans-4e" x="254.443359"/>
      <use xlink:href="#DejaVuSans-31" x="329.248047"/>
      <use xlink:href="#DejaVuSans-33" x="392.871094"/>
      <use xlink:href="#DejaVuSans-20" x="456.494141"/>
      <use xlink:href="#DejaVuSans-65" x="488.28125"/>
      <use xlink:href="#DejaVuSans-76" x="549.804688"/>
      <use xlink:href="#DejaVuSans-61" x="608.984375"/>
      <use xlink:href="#DejaVuSans-6c" x="670.263672"/>
      <use xlink:href="#DejaVuSans-5f" x="698.046875"/>
      <use xlink:href="#DejaVuSans-6c" x="748.046875"/>
      <use xlink:href="#DejaVuSans-6f" x="775.830078"/>
      <use xlink:href="#DejaVuSans-73" x="837.011719"/>
      <use xlink:href="#DejaVuSans-73" x="889.111328"/>
     </g>
    </g>
    <g id="line2d_30">
     <path d="M 66.6 84.482938 
L 76.6 84.482938 
L 86.6 84.482938 
" style="fill: none; stroke: #2ca02c; stroke-opacity: 0.9; stroke-linecap: square"/>
    </g>
    <g id="text_15">
     <!-- MoGIN11 eval_loss -->
     <g transform="translate(94.6 87.982938) scale(0.1 -0.1)">
      <use xlink:href="#DejaVuSans-4d"/>
      <use xlink:href="#DejaVuSans-6f" x="86.279297"/>
      <use xlink:href="#DejaVuSans-47" x="147.460938"/>
      <use xlink:href="#DejaVuSans-49" x="224.951172"/>
      <use xlink:href="#DejaVuSans-4e" x="254.443359"/>
      <use xlink:href="#DejaVuSans-31" x="329.248047"/>
      <use xlink:href="#DejaVuSans-31" x="392.871094"/>
      <use xlink:href="#DejaVuSans-20" x="456.494141"/>
      <use xlink:href="#DejaVuSans-65" x="488.28125"/>
      <use xlink:href="#DejaVuSans-76" x="549.804688"/>
      <use xlink:href="#DejaVuSans-61" x="608.984375"/>
      <use xlink:href="#DejaVuSans-6c" x="670.263672"/>
      <use xlink:href="#DejaVuSans-5f" x="698.046875"/>
      <use xlink:href="#DejaVuSans-6c" x="748.046875"/>
      <use xlink:href="#DejaVuSans-6f" x="775.830078"/>
      <use xlink:href="#DejaVuSans-73" x="837.011719"/>
      <use xlink:href="#DejaVuSans-73" x="889.111328"/>
     </g>
    </g>
   </g>
  </g>
 </g>
 <defs>
  <clipPath id="pdf3009dc2c">
   <rect x="57.6" y="41.472" width="357.12" height="266.112"/>
  </clipPath>
 </defs>
</svg>
