<?xml version="1.0" encoding="utf-8" standalone="no"?>
<!DOCTYPE svg PUBLIC "-//W3C//DTD SVG 1.1//EN"
  "http://www.w3.org/Graphics/SVG/1.1/DTD/svg11.dtd">
<svg xmlns:xlink="http://www.w3.org/1999/xlink" width="460.8pt" height="345.6pt" viewBox="0 0 460.8 345.6" xmlns="http://www.w3.org/2000/svg" version="1.1">
 <metadata>
  <rdf:RDF xmlns:dc="http://purl.org/dc/elements/1.1/" xmlns:cc="http://creativecommons.org/ns#" xmlns:rdf="http://www.w3.org/1999/02/22-rdf-syntax-ns#">
   <cc:Work>
    <dc:type rdf:resource="http://purl.org/dc/dcmitype/StillImage"/>
    <dc:date>2025-02-18T14:51:03.966602</dc:date>
    <dc:format>image/svg+xml</dc:format>
    <dc:creator>
     <cc:Agent>
      <dc:title>Matplotlib v3.8.4, https://matplotlib.org/</dc:title>
     </cc:Agent>
    </dc:creator>
   </cc:Work>
  </rdf:RDF>
 </metadata>
 <defs>
  <style type="text/css">*{stroke-linejoin: round; stroke-linecap: butt}</style>
 </defs>
 <g id="figure_1">
  <g id="patch_1">
   <path d="M 0 345.6 
L 460.8 345.6 
L 460.8 0 
L 0 0 
z
" style="fill: #ffffff"/>
  </g>
  <g id="axes_1">
   <g id="patch_2">
    <path d="M 57.6 307.584 
L 414.72 307.584 
L 414.72 41.472 
L 57.6 41.472 
z
" style="fill: #ffffff"/>
   </g>
   <g id="matplotlib.axis_1">
    <g id="xtick_1">
     <g id="line2d_1">
      <defs>
       <path id="m5050fe90d6" d="M 0 0 
L 0 3.5 
" style="stroke: #000000; stroke-width: 0.8"/>
      </defs>
      <g>
       <use xlink:href="#m5050fe90d6" x="57.6" y="307.584" style="stroke: #000000; stroke-width: 0.8"/>
      </g>
     </g>
     <g id="text_1">
      <!-- $\mathdefault{10^{3}}$ -->
      <g transform="translate(48.8 322.182437) scale(0.1 -0.1)">
       <defs>
        <path id="DejaVuSans-31" d="M 794 531 
L 1825 531 
L 1825 4091 
L 703 3866 
L 703 4441 
L 1819 4666 
L 2450 4666 
L 2450 531 
L 3481 531 
L 3481 0 
L 794 0 
L 794 531 
z
" transform="scale(0.015625)"/>
        <path id="DejaVuSans-30" d="M 2034 4250 
Q 1547 4250 1301 3770 
Q 1056 3291 1056 2328 
Q 1056 1369 1301 889 
Q 1547 409 2034 409 
Q 2525 409 2770 889 
Q 3016 1369 3016 2328 
Q 3016 3291 2770 3770 
Q 2525 4250 2034 4250 
z
M 2034 4750 
Q 2819 4750 3233 4129 
Q 3647 3509 3647 2328 
Q 3647 1150 3233 529 
Q 2819 -91 2034 -91 
Q 1250 -91 836 529 
Q 422 1150 422 2328 
Q 422 3509 836 4129 
Q 1250 4750 2034 4750 
z
" transform="scale(0.015625)"/>
        <path id="DejaVuSans-33" d="M 2597 2516 
Q 3050 2419 3304 2112 
Q 3559 1806 3559 1356 
Q 3559 666 3084 287 
Q 2609 -91 1734 -91 
Q 1441 -91 1130 -33 
Q 819 25 488 141 
L 488 750 
Q 750 597 1062 519 
Q 1375 441 1716 441 
Q 2309 441 2620 675 
Q 2931 909 2931 1356 
Q 2931 1769 2642 2001 
Q 2353 2234 1838 2234 
L 1294 2234 
L 1294 2753 
L 1863 2753 
Q 2328 2753 2575 2939 
Q 2822 3125 2822 3475 
Q 2822 3834 2567 4026 
Q 2313 4219 1838 4219 
Q 1578 4219 1281 4162 
Q 984 4106 628 3988 
L 628 4550 
Q 988 4650 1302 4700 
Q 1616 4750 1894 4750 
Q 2613 4750 3031 4423 
Q 3450 4097 3450 3541 
Q 3450 3153 3228 2886 
Q 3006 2619 2597 2516 
z
" transform="scale(0.015625)"/>
       </defs>
       <use xlink:href="#DejaVuSans-31" transform="translate(0 0.765625)"/>
       <use xlink:href="#DejaVuSans-30" transform="translate(63.623047 0.765625)"/>
       <use xlink:href="#DejaVuSans-33" transform="translate(128.203125 39.046875) scale(0.7)"/>
      </g>
     </g>
    </g>
    <g id="xtick_2">
     <g id="line2d_2">
      <g>
       <use xlink:href="#m5050fe90d6" x="332.090213" y="307.584" style="stroke: #000000; stroke-width: 0.8"/>
      </g>
     </g>
     <g id="text_2">
      <!-- $\mathdefault{10^{4}}$ -->
      <g transform="translate(323.290213 322.182437) scale(0.1 -0.1)">
       <defs>
        <path id="DejaVuSans-34" d="M 2419 4116 
L 825 1625 
L 2419 1625 
L 2419 4116 
z
M 2253 4666 
L 3047 4666 
L 3047 1625 
L 3713 1625 
L 3713 1100 
L 3047 1100 
L 3047 0 
L 2419 0 
L 2419 1100 
L 313 1100 
L 313 1709 
L 2253 4666 
z
" transform="scale(0.015625)"/>
       </defs>
       <use xlink:href="#DejaVuSans-31" transform="translate(0 0.684375)"/>
       <use xlink:href="#DejaVuSans-30" transform="translate(63.623047 0.684375)"/>
       <use xlink:href="#DejaVuSans-34" transform="translate(128.203125 38.965625) scale(0.7)"/>
      </g>
     </g>
    </g>
    <g id="xtick_3">
     <g id="line2d_3">
      <defs>
       <path id="m8768dd7586" d="M 0 0 
L 0 2 
" style="stroke: #000000; stroke-width: 0.6"/>
      </defs>
      <g>
       <use xlink:href="#m8768dd7586" x="140.229787" y="307.584" style="stroke: #000000; stroke-width: 0.6"/>
      </g>
     </g>
    </g>
    <g id="xtick_4">
     <g id="line2d_4">
      <g>
       <use xlink:href="#m8768dd7586" x="188.565115" y="307.584" style="stroke: #000000; stroke-width: 0.6"/>
      </g>
     </g>
    </g>
    <g id="xtick_5">
     <g id="line2d_5">
      <g>
       <use xlink:href="#m8768dd7586" x="222.859575" y="307.584" style="stroke: #000000; stroke-width: 0.6"/>
      </g>
     </g>
    </g>
    <g id="xtick_6">
     <g id="line2d_6">
      <g>
       <use xlink:href="#m8768dd7586" x="249.460425" y="307.584" style="stroke: #000000; stroke-width: 0.6"/>
      </g>
     </g>
    </g>
    <g id="xtick_7">
     <g id="line2d_7">
      <g>
       <use xlink:href="#m8768dd7586" x="271.194902" y="307.584" style="stroke: #000000; stroke-width: 0.6"/>
      </g>
     </g>
    </g>
    <g id="xtick_8">
     <g id="line2d_8">
      <g>
       <use xlink:href="#m8768dd7586" x="289.571141" y="307.584" style="stroke: #000000; stroke-width: 0.6"/>
      </g>
     </g>
    </g>
    <g id="xtick_9">
     <g id="line2d_9">
      <g>
       <use xlink:href="#m8768dd7586" x="305.489362" y="307.584" style="stroke: #000000; stroke-width: 0.6"/>
      </g>
     </g>
    </g>
    <g id="xtick_10">
     <g id="line2d_10">
      <g>
       <use xlink:href="#m8768dd7586" x="319.530229" y="307.584" style="stroke: #000000; stroke-width: 0.6"/>
      </g>
     </g>
    </g>
    <g id="xtick_11">
     <g id="line2d_11">
      <g>
       <use xlink:href="#m8768dd7586" x="414.72" y="307.584" style="stroke: #000000; stroke-width: 0.6"/>
      </g>
     </g>
    </g>
    <g id="text_3">
     <!-- iter# -->
     <g transform="translate(223.488906 335.860562) scale(0.1 -0.1)">
      <defs>
       <path id="DejaVuSans-69" d="M 603 3500 
L 1178 3500 
L 1178 0 
L 603 0 
L 603 3500 
z
M 603 4863 
L 1178 4863 
L 1178 4134 
L 603 4134 
L 603 4863 
z
" transform="scale(0.015625)"/>
       <path id="DejaVuSans-74" d="M 1172 4494 
L 1172 3500 
L 2356 3500 
L 2356 3053 
L 1172 3053 
L 1172 1153 
Q 1172 725 1289 603 
Q 1406 481 1766 481 
L 2356 481 
L 2356 0 
L 1766 0 
Q 1100 0 847 248 
Q 594 497 594 1153 
L 594 3053 
L 172 3053 
L 172 3500 
L 594 3500 
L 594 4494 
L 1172 4494 
z
" transform="scale(0.015625)"/>
       <path id="DejaVuSans-65" d="M 3597 1894 
L 3597 1613 
L 953 1613 
Q 991 1019 1311 708 
Q 1631 397 2203 397 
Q 2534 397 2845 478 
Q 3156 559 3463 722 
L 3463 178 
Q 3153 47 2828 -22 
Q 2503 -91 2169 -91 
Q 1331 -91 842 396 
Q 353 884 353 1716 
Q 353 2575 817 3079 
Q 1281 3584 2069 3584 
Q 2775 3584 3186 3129 
Q 3597 2675 3597 1894 
z
M 3022 2063 
Q 3016 2534 2758 2815 
Q 2500 3097 2075 3097 
Q 1594 3097 1305 2825 
Q 1016 2553 972 2059 
L 3022 2063 
z
" transform="scale(0.015625)"/>
       <path id="DejaVuSans-72" d="M 2631 2963 
Q 2534 3019 2420 3045 
Q 2306 3072 2169 3072 
Q 1681 3072 1420 2755 
Q 1159 2438 1159 1844 
L 1159 0 
L 581 0 
L 581 3500 
L 1159 3500 
L 1159 2956 
Q 1341 3275 1631 3429 
Q 1922 3584 2338 3584 
Q 2397 3584 2469 3576 
Q 2541 3569 2628 3553 
L 2631 2963 
z
" transform="scale(0.015625)"/>
       <path id="DejaVuSans-23" d="M 3272 2816 
L 2363 2816 
L 2100 1772 
L 3016 1772 
L 3272 2816 
z
M 2803 4594 
L 2478 3297 
L 3391 3297 
L 3719 4594 
L 4219 4594 
L 3897 3297 
L 4872 3297 
L 4872 2816 
L 3775 2816 
L 3519 1772 
L 4513 1772 
L 4513 1294 
L 3397 1294 
L 3072 0 
L 2572 0 
L 2894 1294 
L 1978 1294 
L 1656 0 
L 1153 0 
L 1478 1294 
L 494 1294 
L 494 1772 
L 1594 1772 
L 1856 2816 
L 850 2816 
L 850 3297 
L 1978 3297 
L 2297 4594 
L 2803 4594 
z
" transform="scale(0.015625)"/>
      </defs>
      <use xlink:href="#DejaVuSans-69"/>
      <use xlink:href="#DejaVuSans-74" x="27.783203"/>
      <use xlink:href="#DejaVuSans-65" x="66.992188"/>
      <use xlink:href="#DejaVuSans-72" x="128.515625"/>
      <use xlink:href="#DejaVuSans-23" x="169.628906"/>
     </g>
    </g>
   </g>
   <g id="matplotlib.axis_2">
    <g id="ytick_1">
     <g id="line2d_12">
      <defs>
       <path id="md7c196419f" d="M 0 0 
L -3.5 0 
" style="stroke: #000000; stroke-width: 0.8"/>
      </defs>
      <g>
       <use xlink:href="#md7c196419f" x="57.6" y="245.254111" style="stroke: #000000; stroke-width: 0.8"/>
      </g>
     </g>
     <g id="text_4">
      <!-- $\mathdefault{10^{-2}}$ -->
      <g transform="translate(27.1 249.05333) scale(0.1 -0.1)">
       <defs>
        <path id="DejaVuSans-2212" d="M 678 2272 
L 4684 2272 
L 4684 1741 
L 678 1741 
L 678 2272 
z
" transform="scale(0.015625)"/>
        <path id="DejaVuSans-32" d="M 1228 531 
L 3431 531 
L 3431 0 
L 469 0 
L 469 531 
Q 828 903 1448 1529 
Q 2069 2156 2228 2338 
Q 2531 2678 2651 2914 
Q 2772 3150 2772 3378 
Q 2772 3750 2511 3984 
Q 2250 4219 1831 4219 
Q 1534 4219 1204 4116 
Q 875 4013 500 3803 
L 500 4441 
Q 881 4594 1212 4672 
Q 1544 4750 1819 4750 
Q 2544 4750 2975 4387 
Q 3406 4025 3406 3419 
Q 3406 3131 3298 2873 
Q 3191 2616 2906 2266 
Q 2828 2175 2409 1742 
Q 1991 1309 1228 531 
z
" transform="scale(0.015625)"/>
       </defs>
       <use xlink:href="#DejaVuSans-31" transform="translate(0 0.765625)"/>
       <use xlink:href="#DejaVuSans-30" transform="translate(63.623047 0.765625)"/>
       <use xlink:href="#DejaVuSans-2212" transform="translate(128.203125 39.046875) scale(0.7)"/>
       <use xlink:href="#DejaVuSans-32" transform="translate(186.855469 39.046875) scale(0.7)"/>
      </g>
     </g>
    </g>
    <g id="ytick_2">
     <g id="line2d_13">
      <g>
       <use xlink:href="#md7c196419f" x="57.6" y="88.622741" style="stroke: #000000; stroke-width: 0.8"/>
      </g>
     </g>
     <g id="text_5">
      <!-- $\mathdefault{10^{-1}}$ -->
      <g transform="translate(27.1 92.421959) scale(0.1 -0.1)">
       <use xlink:href="#DejaVuSans-31" transform="translate(0 0.684375)"/>
       <use xlink:href="#DejaVuSans-30" transform="translate(63.623047 0.684375)"/>
       <use xlink:href="#DejaVuSans-2212" transform="translate(128.203125 38.965625) scale(0.7)"/>
       <use xlink:href="#DejaVuSans-31" transform="translate(186.855469 38.965625) scale(0.7)"/>
      </g>
     </g>
    </g>
    <g id="ytick_3">
     <g id="line2d_14">
      <defs>
       <path id="m10792ad7ac" d="M 0 0 
L -2 0 
" style="stroke: #000000; stroke-width: 0.6"/>
      </defs>
      <g>
       <use xlink:href="#m10792ad7ac" x="57.6" y="307.584" style="stroke: #000000; stroke-width: 0.6"/>
      </g>
     </g>
    </g>
    <g id="ytick_4">
     <g id="line2d_15">
      <g>
       <use xlink:href="#m10792ad7ac" x="57.6" y="292.404852" style="stroke: #000000; stroke-width: 0.6"/>
      </g>
     </g>
    </g>
    <g id="ytick_5">
     <g id="line2d_16">
      <g>
       <use xlink:href="#m10792ad7ac" x="57.6" y="280.002585" style="stroke: #000000; stroke-width: 0.6"/>
      </g>
     </g>
    </g>
    <g id="ytick_6">
     <g id="line2d_17">
      <g>
       <use xlink:href="#m10792ad7ac" x="57.6" y="269.516617" style="stroke: #000000; stroke-width: 0.6"/>
      </g>
     </g>
    </g>
    <g id="ytick_7">
     <g id="line2d_18">
      <g>
       <use xlink:href="#m10792ad7ac" x="57.6" y="260.433259" style="stroke: #000000; stroke-width: 0.6"/>
      </g>
     </g>
    </g>
    <g id="ytick_8">
     <g id="line2d_19">
      <g>
       <use xlink:href="#m10792ad7ac" x="57.6" y="252.42117" style="stroke: #000000; stroke-width: 0.6"/>
      </g>
     </g>
    </g>
    <g id="ytick_9">
     <g id="line2d_20">
      <g>
       <use xlink:href="#m10792ad7ac" x="57.6" y="198.10337" style="stroke: #000000; stroke-width: 0.6"/>
      </g>
     </g>
    </g>
    <g id="ytick_10">
     <g id="line2d_21">
      <g>
       <use xlink:href="#m10792ad7ac" x="57.6" y="170.521955" style="stroke: #000000; stroke-width: 0.6"/>
      </g>
     </g>
    </g>
    <g id="ytick_11">
     <g id="line2d_22">
      <g>
       <use xlink:href="#m10792ad7ac" x="57.6" y="150.95263" style="stroke: #000000; stroke-width: 0.6"/>
      </g>
     </g>
    </g>
    <g id="ytick_12">
     <g id="line2d_23">
      <g>
       <use xlink:href="#m10792ad7ac" x="57.6" y="135.773481" style="stroke: #000000; stroke-width: 0.6"/>
      </g>
     </g>
    </g>
    <g id="ytick_13">
     <g id="line2d_24">
      <g>
       <use xlink:href="#m10792ad7ac" x="57.6" y="123.371214" style="stroke: #000000; stroke-width: 0.6"/>
      </g>
     </g>
    </g>
    <g id="ytick_14">
     <g id="line2d_25">
      <g>
       <use xlink:href="#m10792ad7ac" x="57.6" y="112.885247" style="stroke: #000000; stroke-width: 0.6"/>
      </g>
     </g>
    </g>
    <g id="ytick_15">
     <g id="line2d_26">
      <g>
       <use xlink:href="#m10792ad7ac" x="57.6" y="103.801889" style="stroke: #000000; stroke-width: 0.6"/>
      </g>
     </g>
    </g>
    <g id="ytick_16">
     <g id="line2d_27">
      <g>
       <use xlink:href="#m10792ad7ac" x="57.6" y="95.789799" style="stroke: #000000; stroke-width: 0.6"/>
      </g>
     </g>
    </g>
    <g id="ytick_17">
     <g id="line2d_28">
      <g>
       <use xlink:href="#m10792ad7ac" x="57.6" y="41.472" style="stroke: #000000; stroke-width: 0.6"/>
      </g>
     </g>
    </g>
    <g id="text_6">
     <!-- loss -->
     <g transform="translate(21.020313 184.185812) rotate(-90) scale(0.1 -0.1)">
      <defs>
       <path id="DejaVuSans-6c" d="M 603 4863 
L 1178 4863 
L 1178 0 
L 603 0 
L 603 4863 
z
" transform="scale(0.015625)"/>
       <path id="DejaVuSans-6f" d="M 1959 3097 
Q 1497 3097 1228 2736 
Q 959 2375 959 1747 
Q 959 1119 1226 758 
Q 1494 397 1959 397 
Q 2419 397 2687 759 
Q 2956 1122 2956 1747 
Q 2956 2369 2687 2733 
Q 2419 3097 1959 3097 
z
M 1959 3584 
Q 2709 3584 3137 3096 
Q 3566 2609 3566 1747 
Q 3566 888 3137 398 
Q 2709 -91 1959 -91 
Q 1206 -91 779 398 
Q 353 888 353 1747 
Q 353 2609 779 3096 
Q 1206 3584 1959 3584 
z
" transform="scale(0.015625)"/>
       <path id="DejaVuSans-73" d="M 2834 3397 
L 2834 2853 
Q 2591 2978 2328 3040 
Q 2066 3103 1784 3103 
Q 1356 3103 1142 2972 
Q 928 2841 928 2578 
Q 928 2378 1081 2264 
Q 1234 2150 1697 2047 
L 1894 2003 
Q 2506 1872 2764 1633 
Q 3022 1394 3022 966 
Q 3022 478 2636 193 
Q 2250 -91 1575 -91 
Q 1294 -91 989 -36 
Q 684 19 347 128 
L 347 722 
Q 666 556 975 473 
Q 1284 391 1588 391 
Q 1994 391 2212 530 
Q 2431 669 2431 922 
Q 2431 1156 2273 1281 
Q 2116 1406 1581 1522 
L 1381 1569 
Q 847 1681 609 1914 
Q 372 2147 372 2553 
Q 372 3047 722 3315 
Q 1072 3584 1716 3584 
Q 2034 3584 2315 3537 
Q 2597 3491 2834 3397 
z
" transform="scale(0.015625)"/>
      </defs>
      <use xlink:href="#DejaVuSans-6c"/>
      <use xlink:href="#DejaVuSans-6f" x="27.783203"/>
      <use xlink:href="#DejaVuSans-73" x="88.964844"/>
      <use xlink:href="#DejaVuSans-73" x="141.064453"/>
     </g>
    </g>
   </g>
   <g id="line2d_29">
    <path d="M -1 91.725078 
L 4.584419 99.190905 
L 15.929398 102.726259 
L 26.287897 109.747214 
L 35.81783 121.93171 
L 44.641988 99.771176 
L 52.857739 114.788105 
L 60.543596 122.336603 
L 67.763791 106.152862 
L 74.57154 127.462493 
L 81.011429 133.048971 
L 87.121183 118.075907 
L 92.933007 136.330145 
L 98.47461 147.462946 
L 103.770008 120.101247 
L 108.84015 128.384771 
L 113.70342 104.623467 
L 118.376041 127.112538 
L 122.872398 94.53786 
L 127.205308 100.785082 
L 131.386237 115.165628 
L 135.425487 103.392235 
L 139.332346 110.922335 
L 143.115218 112.339715 
L 144.100188 130.748095 
L 147.736987 151.155928 
L 151.266113 165.107958 
L 154.693759 173.58706 
L 158.025597 178.226998 
L 161.266839 180.381585 
L 164.422281 181.997788 
L 167.496349 181.133083 
L 170.493134 181.888887 
L 173.416428 181.844457 
L 181.77933 183.356271 
L 184.441483 183.501397 
L 196.9274 183.426435 
L 199.274988 183.314713 
L 201.577236 183.367433 
L 203.835863 183.261646 
L 206.052491 183.608641 
L 208.228653 183.761882 
L 210.365801 183.007077 
L 212.465308 183.816075 
L 214.528479 184.449854 
L 216.556548 184.846593 
L 218.550691 183.605177 
L 220.512024 183.574432 
L 222.44161 183.337379 
L 224.340458 183.429758 
L 226.209535 183.864791 
L 226.701121 184.123309 
L 228.533829 182.434361 
L 230.338788 182.01206 
L 232.116824 172.355234 
L 233.86873 174.63251 
L 235.595263 178.189775 
L 237.297146 175.958944 
L 238.975074 177.307037 
L 240.629712 178.942958 
L 242.261698 181.275967 
L 243.871643 184.09537 
L 245.460135 181.212978 
L 248.574994 186.35749 
L 250.102425 186.58012 
L 251.610532 186.432759 
L 253.099799 184.270374 
L 254.57069 185.693929 
L 256.023652 180.597789 
L 257.459119 184.28892 
L 258.877506 185.887083 
L 260.279215 185.897127 
L 261.664633 187.861855 
L 263.034136 186.503429 
L 264.388083 187.214372 
L 267.050701 179.616252 
L 268.360035 181.847726 
L 269.655144 188.404045 
L 270.936334 189.86471 
L 272.203901 181.877297 
L 273.458132 183.444746 
L 274.699303 153.641629 
L 275.026829 152.773807 
L 276.251858 167.310223 
L 277.464426 167.341097 
L 278.664785 179.697653 
L 279.853177 166.079395 
L 281.029838 170.676355 
L 282.194999 172.229951 
L 283.348882 176.545377 
L 284.491703 184.706719 
L 285.623672 189.331069 
L 286.744993 185.779373 
L 287.855865 190.465214 
L 288.956481 186.047058 
L 290.047028 193.879841 
L 291.127689 194.229368 
L 292.198641 187.139521 
L 293.260058 192.275855 
L 294.312107 198.828909 
L 295.354953 199.567931 
L 296.388756 189.698385 
L 297.41367 199.275286 
L 298.429847 200.396446 
L 299.437436 201.142277 
L 302.410088 190.64345 
L 303.384725 188.323278 
L 304.351458 196.362415 
L 305.310414 175.11263 
L 306.261717 175.611226 
L 307.205489 184.446914 
L 308.141848 168.134806 
L 309.07091 181.555566 
L 309.316479 143.155509 
L 310.236466 118.515246 
L 311.149408 138.40216 
L 314.732823 183.423389 
L 315.612096 189.554137 
L 316.48493 193.575506 
L 317.351421 194.878004 
L 318.211658 184.350346 
L 319.065733 193.204783 
L 319.913731 171.266509 
L 320.755741 184.718864 
L 321.591844 187.16384 
L 322.422124 197.265926 
L 323.246662 204.12983 
L 324.065535 208.168032 
L 324.878822 205.174711 
L 325.686598 198.310393 
L 326.488937 204.859883 
L 327.285912 195.82739 
L 328.077594 192.618462 
L 328.864053 182.128543 
L 329.645358 199.993222 
L 330.421575 208.518197 
L 331.192771 209.016977 
L 331.95901 212.602224 
L 332.720355 214.069451 
L 333.476868 208.894734 
L 334.228611 209.30846 
L 334.975643 195.494836 
L 335.718023 201.665727 
L 335.914443 204.940763 
L 336.651018 204.41468 
L 337.383069 197.514351 
L 338.110652 203.817825 
L 339.55263 224.093225 
L 340.267131 230.199557 
L 340.977374 207.799214 
L 341.683411 179.112027 
L 342.385291 185.25742 
L 343.083063 162.965689 
L 343.776774 187.109753 
L 344.466472 206.213792 
L 345.152202 217.776887 
L 345.83401 215.805125 
L 346.511941 219.197063 
L 347.186038 161.212799 
L 347.856345 173.046604 
L 348.522904 192.574459 
L 349.185757 205.762786 
L 349.844944 167.758246 
L 350.500506 174.350865 
L 351.152483 186.138104 
L 351.800913 195.281242 
L 352.445836 178.209051 
L 353.087288 185.286102 
L 353.725307 178.1271 
L 354.359929 187.601182 
L 354.991191 175.059425 
L 355.619128 167.485764 
L 356.243774 164.532412 
L 357.646996 206.488726 
L 358.261134 197.282255 
L 358.872124 200.606453 
L 359.479998 193.177377 
L 360.084788 160.621637 
L 360.686526 110.178873 
L 361.285241 117.658732 
L 361.880964 152.114149 
L 362.473726 171.874259 
L 363.063554 183.810608 
L 363.650478 200.167039 
L 364.234527 208.71413 
L 364.815728 208.671558 
L 365.394109 154.895389 
L 365.969698 168.16776 
L 366.542521 121.373403 
L 367.112605 117.436609 
L 367.679975 136.603859 
L 368.244657 136.075243 
L 368.806678 155.960204 
L 369.366061 95.156745 
L 370.477014 160.553984 
L 371.028632 161.551922 
L 371.577709 186.44538 
L 372.124269 177.198364 
L 372.668334 201.495258 
L 373.209927 176.913076 
L 373.749071 201.058896 
L 374.285788 213.235149 
L 374.820099 197.835891 
L 375.352026 211.282902 
L 375.88159 121.044985 
L 376.02186 125.37684 
L 377.072751 172.232208 
L 378.114458 201.68122 
L 378.631917 211.6407 
L 379.660146 224.910033 
L 380.679583 234.974548 
L 381.690375 242.433825 
L 382.692668 248.156168 
L 383.190672 250.82123 
L 385.649957 260.438445 
L 386.135784 261.563598 
L 386.619639 263.582616 
L 387.101537 264.734669 
L 387.581496 266.394013 
L 388.05953 267.327153 
L 389.009886 269.904201 
L 389.482237 270.912549 
L 389.952725 271.610156 
L 390.421363 272.056674 
L 390.888165 272.943565 
L 391.816322 273.913915 
L 391.939051 259.723657 
L 392.39996 93.90581 
L 392.859094 97.566238 
L 393.316466 97.154731 
L 393.77209 102.211937 
L 394.225979 115.166496 
L 394.678146 137.442381 
L 395.128605 136.282375 
L 395.577368 153.890126 
L 396.024449 131.923744 
L 396.91361 171.179596 
L 397.355716 181.934086 
L 397.796188 171.024269 
L 398.235039 172.799797 
L 398.67228 172.733173 
L 399.107924 179.914444 
L 399.541981 152.264503 
L 399.974463 174.649397 
L 400.405382 178.61266 
L 400.834749 190.645956 
L 401.688871 182.40809 
L 402.113648 176.855613 
L 402.536917 187.013092 
L 402.958689 171.322899 
L 403.378973 135.16881 
L 403.797781 122.939629 
L 404.215122 115.470197 
L 404.631008 118.283014 
L 405.458451 159.170604 
L 405.870029 161.026524 
L 405.979116 149.317592 
L 406.797287 198.220167 
L 407.204277 212.399297 
L 407.609881 221.423048 
L 408.01411 226.749502 
L 408.416973 230.163599 
L 409.218638 233.671526 
L 410.411116 236.401744 
L 410.805973 236.465246 
L 411.591784 237.389759 
L 411.982756 237.822186 
L 412.372449 237.746373 
L 412.760873 238.300785 
L 414.684232 240.053977 
L 415.065207 239.355962 
L 415.823526 240.223059 
L 416.200883 240.665945 
L 416.57705 240.752631 
L 416.952034 240.702359 
L 417.698482 241.607822 
L 418.06996 241.69134 
L 418.440284 241.376092 
L 418.440284 241.376092 
" clip-path="url(#p05ef49f0ab)" style="fill: none; stroke: #1f77b4; stroke-opacity: 0.4; stroke-linecap: square"/>
   </g>
   <g id="line2d_30">
    <path d="M -1 66.942887 
L 4.584419 65.677838 
L 15.929398 81.25014 
L 26.287897 84.092662 
L 35.81783 98.629306 
L 44.641988 105.902964 
L 52.857739 90.748585 
L 60.543596 96.470848 
L 67.763791 104.408675 
L 74.57154 109.469443 
L 81.011429 109.458885 
L 87.121183 84.235064 
L 92.933007 82.592166 
L 98.47461 97.32484 
L 103.770008 97.641864 
L 108.84015 108.200173 
L 113.70342 104.659198 
L 118.376041 116.610876 
L 122.872398 55.539882 
L 127.205308 85.104102 
L 131.386237 95.828052 
L 135.425487 109.185149 
L 139.332346 122.592567 
L 143.115218 132.865559 
L 144.100188 139.381873 
L 147.736987 146.424698 
L 151.266113 150.937842 
L 154.693759 153.647678 
L 158.025597 155.215097 
L 161.266839 155.970791 
L 164.422281 156.212254 
L 167.496349 157.065853 
L 170.493134 157.691657 
L 176.269748 158.416727 
L 179.056366 158.549745 
L 184.441483 158.975179 
L 189.593813 159.463587 
L 192.088807 159.392433 
L 194.532651 159.752459 
L 201.577236 160.225127 
L 203.835863 160.470223 
L 206.052491 160.509863 
L 208.228653 160.691099 
L 210.365801 160.63752 
L 214.528479 161.222819 
L 218.550691 161.285587 
L 220.512024 161.333098 
L 222.44161 161.182142 
L 224.340458 161.579488 
L 226.209535 161.376207 
L 226.701121 160.868068 
L 228.533829 161.283278 
L 230.338788 162.07069 
L 232.116824 161.655724 
L 233.86873 159.963394 
L 235.595263 161.79502 
L 237.297146 162.52087 
L 238.975074 162.928988 
L 240.629712 162.795873 
L 242.261698 163.63133 
L 245.460135 163.533608 
L 247.027738 164.289174 
L 248.574994 164.080828 
L 250.102425 164.840608 
L 253.099799 166.085278 
L 254.57069 166.04708 
L 256.023652 165.664997 
L 258.877506 165.244243 
L 260.279215 166.019935 
L 261.664633 166.583631 
L 263.034136 166.759588 
L 264.388083 167.217415 
L 265.726826 165.795135 
L 267.050701 165.466024 
L 268.360035 167.139247 
L 270.936334 168.257469 
L 272.203901 167.306367 
L 273.458132 167.93655 
L 274.699303 167.948205 
L 275.026829 167.350748 
L 276.251858 167.640187 
L 277.464426 168.475049 
L 278.664785 165.607256 
L 281.029838 168.303847 
L 282.194999 168.536301 
L 283.348882 169.03595 
L 284.491703 169.873873 
L 285.623672 168.229919 
L 286.744993 170.057146 
L 287.855865 170.866431 
L 288.956481 171.00575 
L 290.047028 167.937334 
L 291.127689 166.177695 
L 292.198641 168.058793 
L 293.260058 170.219717 
L 294.312107 170.895249 
L 295.354953 172.100712 
L 296.388756 171.8524 
L 297.41367 170.789077 
L 298.429847 164.362135 
L 299.437436 169.357786 
L 300.436579 167.165943 
L 302.410088 172.529726 
L 303.384725 168.792768 
L 304.351458 168.97901 
L 305.310414 169.551265 
L 307.205489 172.538883 
L 308.141848 174.457329 
L 309.07091 175.293565 
L 309.316479 174.639439 
L 310.236466 171.848816 
L 311.149408 171.782101 
L 312.05541 173.999914 
L 312.95458 172.057397 
L 313.847017 173.689648 
L 314.732823 173.673717 
L 315.612096 175.564608 
L 317.351421 173.143333 
L 318.211658 176.155003 
L 319.913731 179.083841 
L 320.755741 179.185072 
L 321.591844 174.301041 
L 322.422124 175.582848 
L 323.246662 175.203764 
L 324.065535 173.660002 
L 324.878822 176.845313 
L 325.686598 173.318848 
L 326.488937 176.86229 
L 327.285912 160.684615 
L 328.077594 168.522044 
L 328.864053 172.769605 
L 329.645358 170.977384 
L 330.421575 171.689775 
L 331.192771 176.156643 
L 331.95901 177.902521 
L 332.720355 178.861742 
L 333.476868 179.575686 
L 334.228611 181.34378 
L 335.718023 182.365173 
L 335.914443 183.313356 
L 336.651018 177.669041 
L 337.383069 163.488092 
L 338.110652 160.978256 
L 338.833821 170.68872 
L 340.267131 178.971285 
L 340.977374 174.231054 
L 342.385291 181.58097 
L 343.083063 172.651451 
L 343.776774 178.637334 
L 344.466472 182.471757 
L 345.152202 161.924341 
L 345.83401 171.265587 
L 346.511941 167.859021 
L 347.186038 162.220832 
L 347.856345 165.640483 
L 348.522904 173.302882 
L 349.185757 175.683458 
L 349.844944 177.060246 
L 350.500506 174.420829 
L 351.152483 178.951478 
L 351.800913 173.695848 
L 352.445836 171.964036 
L 353.087288 179.986091 
L 353.725307 182.636566 
L 354.359929 177.720709 
L 354.991191 164.786839 
L 355.619128 165.343361 
L 356.243774 175.210399 
L 356.865165 181.577353 
L 357.483333 175.705825 
L 357.646996 180.505589 
L 358.261134 182.147717 
L 358.872124 184.395168 
L 359.479998 184.287154 
L 360.084788 186.410977 
L 360.686526 189.49067 
L 361.285241 187.614696 
L 361.880964 188.291299 
L 362.473726 187.303701 
L 363.063554 187.710045 
L 363.650478 188.72237 
L 364.234527 188.805794 
L 364.815728 184.509794 
L 365.394109 182.688386 
L 365.969698 186.506585 
L 366.542521 186.778592 
L 367.112605 185.303869 
L 367.679975 186.972077 
L 368.806678 181.928578 
L 369.366061 185.201976 
L 369.922832 181.038266 
L 370.477014 182.285376 
L 371.028632 181.36291 
L 371.577709 185.548954 
L 372.124269 181.594514 
L 372.668334 175.080649 
L 373.209927 164.12777 
L 373.749071 176.537899 
L 374.285788 178.014531 
L 374.820099 175.173789 
L 375.352026 183.06398 
L 376.02186 189.307022 
L 376.548463 189.835953 
L 377.072751 186.041569 
L 377.594742 187.018006 
L 378.114458 189.551962 
L 378.631917 183.137085 
L 379.14714 156.962666 
L 379.660146 166.381335 
L 380.170954 164.075344 
L 380.679583 173.898222 
L 381.18605 167.683768 
L 382.192575 182.617584 
L 382.692668 150.039228 
L 383.190672 165.774573 
L 383.686605 164.535005 
L 384.672323 180.495941 
L 385.162142 182.420715 
L 385.649957 187.366421 
L 386.135784 187.525014 
L 386.619639 181.689106 
L 387.101537 186.858694 
L 388.05953 193.71389 
L 388.535655 189.166296 
L 389.009886 189.087702 
L 389.482237 184.813264 
L 389.952725 186.881296 
L 390.421363 189.757754 
L 390.888165 191.39302 
L 391.353147 185.592263 
L 391.816322 186.498697 
L 391.939051 191.12301 
L 392.39996 190.944053 
L 392.859094 190.969513 
L 393.316466 194.213917 
L 393.77209 192.988834 
L 394.225979 194.301303 
L 394.678146 178.320146 
L 395.128605 188.45269 
L 395.577368 183.147061 
L 396.024449 186.306133 
L 396.469858 186.638736 
L 396.91361 190.688455 
L 397.796188 188.701135 
L 398.235039 193.70083 
L 399.107924 174.013644 
L 399.541981 184.246393 
L 399.974463 190.942732 
L 400.405382 161.195128 
L 400.834749 174.371553 
L 401.262575 179.678814 
L 401.688871 189.101535 
L 402.113648 191.364375 
L 402.536917 190.738906 
L 402.958689 193.805556 
L 403.378973 192.280811 
L 403.797781 153.060354 
L 404.215122 159.347876 
L 404.631008 159.361405 
L 405.045448 174.950531 
L 405.458451 183.669399 
L 405.870029 182.047247 
L 405.979116 157.228592 
L 406.388904 170.414132 
L 406.797287 177.789789 
L 407.204277 175.226072 
L 407.609881 176.598594 
L 408.01411 187.210988 
L 408.416973 191.554154 
L 408.818479 191.867853 
L 409.218638 190.79001 
L 409.617458 181.813958 
L 410.014947 184.049949 
L 410.411116 155.000004 
L 410.805973 172.62066 
L 411.199526 179.304995 
L 411.591784 173.099461 
L 411.982756 183.885238 
L 412.372449 190.537889 
L 412.760873 193.260404 
L 413.148035 192.53673 
L 413.533944 194.208287 
L 413.918608 192.840356 
L 414.302035 178.160041 
L 414.684232 177.41473 
L 415.065207 184.288286 
L 415.44497 179.441382 
L 415.823526 186.226064 
L 416.200883 189.220616 
L 416.57705 194.807013 
L 416.952034 195.45566 
L 417.325842 193.501378 
L 417.698482 189.714089 
L 418.06996 190.416434 
L 418.440284 190.71969 
L 418.440284 190.71969 
" clip-path="url(#p05ef49f0ab)" style="fill: none; stroke: #ff7f0e; stroke-opacity: 0.4; stroke-linecap: square"/>
   </g>
   <g id="line2d_31">
    <path d="M -1 89.247354 
L 4.584419 89.171809 
L 15.929398 91.658246 
L 26.287897 89.599201 
L 35.81783 101.196381 
L 44.641988 105.408227 
L 52.857739 114.112066 
L 60.543596 110.901658 
L 67.763791 112.80148 
L 74.57154 76.66095 
L 81.011429 78.702741 
L 87.121183 88.887342 
L 92.933007 100.34743 
L 98.47461 108.250842 
L 103.770008 83.438452 
L 108.84015 106.887405 
L 113.70342 112.007201 
L 118.376041 110.794549 
L 122.872398 127.174184 
L 127.205308 110.773145 
L 131.386237 94.007501 
L 135.425487 99.377726 
L 139.332346 118.685912 
L 143.115218 132.20823 
L 144.100188 136.714145 
L 147.736987 149.027595 
L 151.266113 156.743318 
L 154.693759 161.604698 
L 158.025597 164.505121 
L 161.266839 166.523347 
L 164.422281 167.925424 
L 167.496349 168.835251 
L 176.269748 171.031732 
L 189.593813 172.972202 
L 196.9274 173.415559 
L 201.577236 173.967654 
L 203.835863 174.149658 
L 206.052491 174.489752 
L 212.465308 174.603062 
L 218.550691 175.052541 
L 220.512024 174.94032 
L 224.340458 175.48603 
L 226.209535 175.20035 
L 226.701121 173.667047 
L 228.533829 174.001015 
L 230.338788 174.711195 
L 232.116824 174.941949 
L 233.86873 175.83393 
L 235.595263 174.305243 
L 237.297146 175.156278 
L 238.975074 176.302029 
L 240.629712 177.700351 
L 242.261698 167.091389 
L 243.871643 171.700633 
L 245.460135 175.285177 
L 247.027738 177.165755 
L 248.574994 175.073727 
L 250.102425 176.808025 
L 251.610532 175.724319 
L 253.099799 175.575104 
L 254.57069 178.956828 
L 256.023652 179.34429 
L 257.459119 170.192637 
L 258.877506 175.7989 
L 260.279215 171.910174 
L 261.664633 176.473726 
L 263.034136 180.155639 
L 264.388083 180.745074 
L 265.726826 170.777295 
L 267.050701 175.663 
L 268.360035 179.788381 
L 269.655144 182.064002 
L 270.936334 180.014811 
L 272.203901 175.492274 
L 273.458132 179.037356 
L 274.699303 181.001517 
L 275.026829 182.21853 
L 276.251858 183.114979 
L 277.464426 184.346527 
L 278.664785 183.087685 
L 279.853177 183.845374 
L 281.029838 185.253939 
L 282.194999 185.050649 
L 283.348882 183.072464 
L 284.491703 178.029546 
L 285.623672 182.498634 
L 286.744993 184.312211 
L 287.855865 179.980936 
L 288.956481 178.63222 
L 290.047028 183.560071 
L 291.127689 174.92186 
L 292.198641 180.206296 
L 293.260058 180.758851 
L 294.312107 185.033318 
L 296.388756 188.11292 
L 297.41367 189.740834 
L 298.429847 188.82572 
L 299.437436 182.978759 
L 300.436579 184.64623 
L 301.427417 181.139983 
L 302.410088 184.115081 
L 303.384725 180.849031 
L 304.351458 176.013845 
L 305.310414 178.365315 
L 306.261717 183.151664 
L 308.141848 189.757326 
L 309.07091 188.671791 
L 309.316479 189.416751 
L 310.236466 174.931813 
L 311.149408 183.135295 
L 312.05541 184.084147 
L 312.95458 182.533537 
L 313.847017 185.336322 
L 314.732823 184.123282 
L 315.612096 188.628677 
L 316.48493 177.735561 
L 317.351421 186.216434 
L 318.211658 172.685573 
L 319.065733 182.890348 
L 319.913731 188.418451 
L 320.755741 190.045541 
L 321.591844 192.4076 
L 323.246662 195.569836 
L 324.065535 194.088506 
L 324.878822 194.984036 
L 325.686598 191.567282 
L 326.488937 177.902814 
L 327.285912 186.349974 
L 328.077594 190.537545 
L 328.864053 191.637257 
L 329.645358 191.354643 
L 330.421575 182.619729 
L 331.192771 188.880495 
L 331.95901 192.930751 
L 332.720355 192.347976 
L 333.476868 188.396641 
L 334.228611 193.378986 
L 334.975643 186.572425 
L 335.718023 186.437116 
L 335.914443 176.082211 
L 336.651018 188.052619 
L 338.110652 197.813825 
L 338.833821 196.982122 
L 339.55263 199.332855 
L 340.267131 199.534453 
L 340.977374 181.759226 
L 341.683411 188.862552 
L 342.385291 192.446611 
L 343.083063 196.784998 
L 343.776774 191.11626 
L 344.466472 192.340602 
L 345.152202 192.396771 
L 345.83401 191.75919 
L 346.511941 197.406795 
L 347.186038 198.786366 
L 348.522904 199.201341 
L 349.185757 200.558146 
L 349.844944 201.396901 
L 350.500506 203.118731 
L 351.152483 204.203032 
L 351.800913 190.898614 
L 352.445836 196.914123 
L 353.087288 198.870831 
L 353.725307 201.184811 
L 354.359929 197.356602 
L 354.991191 189.438618 
L 355.619128 195.673158 
L 356.243774 191.588525 
L 356.865165 197.472113 
L 357.483333 198.212828 
L 357.646996 187.921724 
L 358.261134 180.086618 
L 358.872124 181.698536 
L 359.479998 190.397893 
L 360.084788 176.221968 
L 360.686526 179.801786 
L 361.285241 169.923036 
L 361.880964 183.791992 
L 362.473726 187.256745 
L 363.063554 173.550748 
L 363.650478 181.631374 
L 364.234527 176.899617 
L 364.815728 187.28296 
L 365.394109 195.167852 
L 365.969698 192.455655 
L 366.542521 180.876401 
L 367.112605 188.713008 
L 367.679975 191.757696 
L 368.244657 178.031771 
L 368.806678 145.923417 
L 369.366061 163.377524 
L 369.922832 159.447184 
L 370.477014 176.03291 
L 371.028632 171.711963 
L 372.124269 184.117342 
L 372.668334 193.965546 
L 373.209927 196.138981 
L 373.749071 201.512608 
L 374.285788 203.685961 
L 374.820099 197.877239 
L 375.352026 202.434041 
L 376.02186 192.143995 
L 376.548463 200.886949 
L 377.594742 208.246229 
L 378.114458 208.94218 
L 378.631917 205.636444 
L 379.14714 208.038734 
L 379.660146 208.658893 
L 380.170954 210.408422 
L 380.679583 210.931582 
L 381.690375 210.163259 
L 382.192575 207.8573 
L 382.692668 208.219965 
L 383.190672 204.847427 
L 383.686605 208.742589 
L 384.180483 207.044164 
L 384.672323 210.175792 
L 385.162142 211.440887 
L 386.135784 207.902833 
L 386.619639 210.329178 
L 387.101537 211.26636 
L 387.581496 197.382144 
L 388.05953 203.97156 
L 388.535655 201.44388 
L 389.009886 205.347822 
L 389.482237 205.63407 
L 389.952725 199.10507 
L 390.421363 204.260795 
L 390.888165 203.996677 
L 391.353147 205.870571 
L 391.816322 195.360543 
L 391.939051 196.790754 
L 392.39996 181.943152 
L 393.316466 195.402103 
L 393.77209 199.056411 
L 394.225979 200.958307 
L 394.678146 186.871637 
L 395.128605 191.90343 
L 395.577368 195.322339 
L 396.024449 192.083899 
L 396.469858 185.716096 
L 396.91361 185.963414 
L 397.355716 193.09493 
L 397.796188 182.65759 
L 398.235039 193.34039 
L 398.67228 183.523947 
L 399.107924 193.005087 
L 399.541981 196.172695 
L 399.974463 195.691086 
L 400.405382 202.152836 
L 400.834749 201.262493 
L 401.262575 203.748444 
L 402.113648 199.887047 
L 402.536917 192.341403 
L 402.958689 198.13699 
L 403.378973 196.839731 
L 403.797781 183.7539 
L 404.215122 181.111235 
L 405.045448 190.667744 
L 405.458451 196.900427 
L 405.870029 192.972735 
L 405.979116 197.297882 
L 406.388904 202.804831 
L 406.797287 204.842513 
L 407.204277 204.799182 
L 407.609881 207.572309 
L 408.01411 207.75684 
L 408.416973 209.908645 
L 408.818479 197.594941 
L 409.218638 202.705099 
L 409.617458 198.851396 
L 410.014947 202.752959 
L 410.411116 205.307698 
L 411.199526 207.439955 
L 411.591784 209.331475 
L 411.982756 206.912522 
L 412.372449 200.432248 
L 413.148035 209.460219 
L 413.533944 206.709558 
L 413.918608 183.747182 
L 414.684232 201.835553 
L 415.065207 206.846876 
L 415.44497 203.929515 
L 415.823526 209.451789 
L 416.200883 209.992517 
L 416.57705 203.708306 
L 416.952034 208.442832 
L 417.325842 208.993337 
L 417.698482 212.508748 
L 418.06996 210.468376 
L 418.440284 210.170314 
L 418.440284 210.170314 
" clip-path="url(#p05ef49f0ab)" style="fill: none; stroke: #2ca02c; stroke-opacity: 0.4; stroke-linecap: square"/>
   </g>
   <g id="patch_3">
    <path d="M 57.6 307.584 
L 57.6 41.472 
" style="fill: none; stroke: #000000; stroke-width: 0.8; stroke-linejoin: miter; stroke-linecap: square"/>
   </g>
   <g id="patch_4">
    <path d="M 414.72 307.584 
L 414.72 41.472 
" style="fill: none; stroke: #000000; stroke-width: 0.8; stroke-linejoin: miter; stroke-linecap: square"/>
   </g>
   <g id="patch_5">
    <path d="M 57.6 307.584 
L 414.72 307.584 
" style="fill: none; stroke: #000000; stroke-width: 0.8; stroke-linejoin: miter; stroke-linecap: square"/>
   </g>
   <g id="patch_6">
    <path d="M 57.6 41.472 
L 414.72 41.472 
" style="fill: none; stroke: #000000; stroke-width: 0.8; stroke-linejoin: miter; stroke-linecap: square"/>
   </g>
   <g id="text_7">
    <!-- 2025-02-18-14:51:03 -->
    <g transform="translate(172.178438 35.472) scale(0.12 -0.12)">
     <defs>
      <path id="DejaVuSans-35" d="M 691 4666 
L 3169 4666 
L 3169 4134 
L 1269 4134 
L 1269 2991 
Q 1406 3038 1543 3061 
Q 1681 3084 1819 3084 
Q 2600 3084 3056 2656 
Q 3513 2228 3513 1497 
Q 3513 744 3044 326 
Q 2575 -91 1722 -91 
Q 1428 -91 1123 -41 
Q 819 9 494 109 
L 494 744 
Q 775 591 1075 516 
Q 1375 441 1709 441 
Q 2250 441 2565 725 
Q 2881 1009 2881 1497 
Q 2881 1984 2565 2268 
Q 2250 2553 1709 2553 
Q 1456 2553 1204 2497 
Q 953 2441 691 2322 
L 691 4666 
z
" transform="scale(0.015625)"/>
      <path id="DejaVuSans-2d" d="M 313 2009 
L 1997 2009 
L 1997 1497 
L 313 1497 
L 313 2009 
z
" transform="scale(0.015625)"/>
      <path id="DejaVuSans-38" d="M 2034 2216 
Q 1584 2216 1326 1975 
Q 1069 1734 1069 1313 
Q 1069 891 1326 650 
Q 1584 409 2034 409 
Q 2484 409 2743 651 
Q 3003 894 3003 1313 
Q 3003 1734 2745 1975 
Q 2488 2216 2034 2216 
z
M 1403 2484 
Q 997 2584 770 2862 
Q 544 3141 544 3541 
Q 544 4100 942 4425 
Q 1341 4750 2034 4750 
Q 2731 4750 3128 4425 
Q 3525 4100 3525 3541 
Q 3525 3141 3298 2862 
Q 3072 2584 2669 2484 
Q 3125 2378 3379 2068 
Q 3634 1759 3634 1313 
Q 3634 634 3220 271 
Q 2806 -91 2034 -91 
Q 1263 -91 848 271 
Q 434 634 434 1313 
Q 434 1759 690 2068 
Q 947 2378 1403 2484 
z
M 1172 3481 
Q 1172 3119 1398 2916 
Q 1625 2713 2034 2713 
Q 2441 2713 2670 2916 
Q 2900 3119 2900 3481 
Q 2900 3844 2670 4047 
Q 2441 4250 2034 4250 
Q 1625 4250 1398 4047 
Q 1172 3844 1172 3481 
z
" transform="scale(0.015625)"/>
      <path id="DejaVuSans-3a" d="M 750 794 
L 1409 794 
L 1409 0 
L 750 0 
L 750 794 
z
M 750 3309 
L 1409 3309 
L 1409 2516 
L 750 2516 
L 750 3309 
z
" transform="scale(0.015625)"/>
     </defs>
     <use xlink:href="#DejaVuSans-32"/>
     <use xlink:href="#DejaVuSans-30" x="63.623047"/>
     <use xlink:href="#DejaVuSans-32" x="127.246094"/>
     <use xlink:href="#DejaVuSans-35" x="190.869141"/>
     <use xlink:href="#DejaVuSans-2d" x="254.492188"/>
     <use xlink:href="#DejaVuSans-30" x="290.576172"/>
     <use xlink:href="#DejaVuSans-32" x="354.199219"/>
     <use xlink:href="#DejaVuSans-2d" x="417.822266"/>
     <use xlink:href="#DejaVuSans-31" x="453.90625"/>
     <use xlink:href="#DejaVuSans-38" x="517.529297"/>
     <use xlink:href="#DejaVuSans-2d" x="581.152344"/>
     <use xlink:href="#DejaVuSans-31" x="617.236328"/>
     <use xlink:href="#DejaVuSans-34" x="680.859375"/>
     <use xlink:href="#DejaVuSans-3a" x="744.482422"/>
     <use xlink:href="#DejaVuSans-35" x="778.173828"/>
     <use xlink:href="#DejaVuSans-31" x="841.796875"/>
     <use xlink:href="#DejaVuSans-3a" x="905.419922"/>
     <use xlink:href="#DejaVuSans-30" x="939.111328"/>
     <use xlink:href="#DejaVuSans-33" x="1002.734375"/>
    </g>
   </g>
   <g id="legend_1">
    <g id="patch_7">
     <path d="M 64.6 302.584 
L 190.723438 302.584 
Q 192.723438 302.584 192.723438 300.584 
L 192.723438 256.71525 
Q 192.723438 254.71525 190.723438 254.71525 
L 64.6 254.71525 
Q 62.6 254.71525 62.6 256.71525 
L 62.6 300.584 
Q 62.6 302.584 64.6 302.584 
z
" style="fill: #ffffff; opacity: 0.8; stroke: #cccccc; stroke-linejoin: miter"/>
    </g>
    <g id="line2d_32">
     <path d="M 66.6 262.813687 
L 76.6 262.813687 
L 86.6 262.813687 
" style="fill: none; stroke: #1f77b4; stroke-opacity: 0.4; stroke-linecap: square"/>
    </g>
    <g id="text_8">
     <!-- SchNet eval_loss -->
     <g transform="translate(94.6 266.313687) scale(0.1 -0.1)">
      <defs>
       <path id="DejaVuSans-53" d="M 3425 4513 
L 3425 3897 
Q 3066 4069 2747 4153 
Q 2428 4238 2131 4238 
Q 1616 4238 1336 4038 
Q 1056 3838 1056 3469 
Q 1056 3159 1242 3001 
Q 1428 2844 1947 2747 
L 2328 2669 
Q 3034 2534 3370 2195 
Q 3706 1856 3706 1288 
Q 3706 609 3251 259 
Q 2797 -91 1919 -91 
Q 1588 -91 1214 -16 
Q 841 59 441 206 
L 441 856 
Q 825 641 1194 531 
Q 1563 422 1919 422 
Q 2459 422 2753 634 
Q 3047 847 3047 1241 
Q 3047 1584 2836 1778 
Q 2625 1972 2144 2069 
L 1759 2144 
Q 1053 2284 737 2584 
Q 422 2884 422 3419 
Q 422 4038 858 4394 
Q 1294 4750 2059 4750 
Q 2388 4750 2728 4690 
Q 3069 4631 3425 4513 
z
" transform="scale(0.015625)"/>
       <path id="DejaVuSans-63" d="M 3122 3366 
L 3122 2828 
Q 2878 2963 2633 3030 
Q 2388 3097 2138 3097 
Q 1578 3097 1268 2742 
Q 959 2388 959 1747 
Q 959 1106 1268 751 
Q 1578 397 2138 397 
Q 2388 397 2633 464 
Q 2878 531 3122 666 
L 3122 134 
Q 2881 22 2623 -34 
Q 2366 -91 2075 -91 
Q 1284 -91 818 406 
Q 353 903 353 1747 
Q 353 2603 823 3093 
Q 1294 3584 2113 3584 
Q 2378 3584 2631 3529 
Q 2884 3475 3122 3366 
z
" transform="scale(0.015625)"/>
       <path id="DejaVuSans-68" d="M 3513 2113 
L 3513 0 
L 2938 0 
L 2938 2094 
Q 2938 2591 2744 2837 
Q 2550 3084 2163 3084 
Q 1697 3084 1428 2787 
Q 1159 2491 1159 1978 
L 1159 0 
L 581 0 
L 581 4863 
L 1159 4863 
L 1159 2956 
Q 1366 3272 1645 3428 
Q 1925 3584 2291 3584 
Q 2894 3584 3203 3211 
Q 3513 2838 3513 2113 
z
" transform="scale(0.015625)"/>
       <path id="DejaVuSans-4e" d="M 628 4666 
L 1478 4666 
L 3547 763 
L 3547 4666 
L 4159 4666 
L 4159 0 
L 3309 0 
L 1241 3903 
L 1241 0 
L 628 0 
L 628 4666 
z
" transform="scale(0.015625)"/>
       <path id="DejaVuSans-20" transform="scale(0.015625)"/>
       <path id="DejaVuSans-76" d="M 191 3500 
L 800 3500 
L 1894 563 
L 2988 3500 
L 3597 3500 
L 2284 0 
L 1503 0 
L 191 3500 
z
" transform="scale(0.015625)"/>
       <path id="DejaVuSans-61" d="M 2194 1759 
Q 1497 1759 1228 1600 
Q 959 1441 959 1056 
Q 959 750 1161 570 
Q 1363 391 1709 391 
Q 2188 391 2477 730 
Q 2766 1069 2766 1631 
L 2766 1759 
L 2194 1759 
z
M 3341 1997 
L 3341 0 
L 2766 0 
L 2766 531 
Q 2569 213 2275 61 
Q 1981 -91 1556 -91 
Q 1019 -91 701 211 
Q 384 513 384 1019 
Q 384 1609 779 1909 
Q 1175 2209 1959 2209 
L 2766 2209 
L 2766 2266 
Q 2766 2663 2505 2880 
Q 2244 3097 1772 3097 
Q 1472 3097 1187 3025 
Q 903 2953 641 2809 
L 641 3341 
Q 956 3463 1253 3523 
Q 1550 3584 1831 3584 
Q 2591 3584 2966 3190 
Q 3341 2797 3341 1997 
z
" transform="scale(0.015625)"/>
       <path id="DejaVuSans-5f" d="M 3263 -1063 
L 3263 -1509 
L -63 -1509 
L -63 -1063 
L 3263 -1063 
z
" transform="scale(0.015625)"/>
      </defs>
      <use xlink:href="#DejaVuSans-53"/>
      <use xlink:href="#DejaVuSans-63" x="63.476562"/>
      <use xlink:href="#DejaVuSans-68" x="118.457031"/>
      <use xlink:href="#DejaVuSans-4e" x="181.835938"/>
      <use xlink:href="#DejaVuSans-65" x="256.640625"/>
      <use xlink:href="#DejaVuSans-74" x="318.164062"/>
      <use xlink:href="#DejaVuSans-20" x="357.373047"/>
      <use xlink:href="#DejaVuSans-65" x="389.160156"/>
      <use xlink:href="#DejaVuSans-76" x="450.683594"/>
      <use xlink:href="#DejaVuSans-61" x="509.863281"/>
      <use xlink:href="#DejaVuSans-6c" x="571.142578"/>
      <use xlink:href="#DejaVuSans-5f" x="598.925781"/>
      <use xlink:href="#DejaVuSans-6c" x="648.925781"/>
      <use xlink:href="#DejaVuSans-6f" x="676.708984"/>
      <use xlink:href="#DejaVuSans-73" x="737.890625"/>
      <use xlink:href="#DejaVuSans-73" x="789.990234"/>
     </g>
    </g>
    <g id="line2d_33">
     <path d="M 66.6 277.769937 
L 76.6 277.769937 
L 86.6 277.769937 
" style="fill: none; stroke: #ff7f0e; stroke-opacity: 0.4; stroke-linecap: square"/>
    </g>
    <g id="text_9">
     <!-- MoGIN13 eval_loss -->
     <g transform="translate(94.6 281.269937) scale(0.1 -0.1)">
      <defs>
       <path id="DejaVuSans-4d" d="M 628 4666 
L 1569 4666 
L 2759 1491 
L 3956 4666 
L 4897 4666 
L 4897 0 
L 4281 0 
L 4281 4097 
L 3078 897 
L 2444 897 
L 1241 4097 
L 1241 0 
L 628 0 
L 628 4666 
z
" transform="scale(0.015625)"/>
       <path id="DejaVuSans-47" d="M 3809 666 
L 3809 1919 
L 2778 1919 
L 2778 2438 
L 4434 2438 
L 4434 434 
Q 4069 175 3628 42 
Q 3188 -91 2688 -91 
Q 1594 -91 976 548 
Q 359 1188 359 2328 
Q 359 3472 976 4111 
Q 1594 4750 2688 4750 
Q 3144 4750 3555 4637 
Q 3966 4525 4313 4306 
L 4313 3634 
Q 3963 3931 3569 4081 
Q 3175 4231 2741 4231 
Q 1884 4231 1454 3753 
Q 1025 3275 1025 2328 
Q 1025 1384 1454 906 
Q 1884 428 2741 428 
Q 3075 428 3337 486 
Q 3600 544 3809 666 
z
" transform="scale(0.015625)"/>
       <path id="DejaVuSans-49" d="M 628 4666 
L 1259 4666 
L 1259 0 
L 628 0 
L 628 4666 
z
" transform="scale(0.015625)"/>
      </defs>
      <use xlink:href="#DejaVuSans-4d"/>
      <use xlink:href="#DejaVuSans-6f" x="86.279297"/>
      <use xlink:href="#DejaVuSans-47" x="147.460938"/>
      <use xlink:href="#DejaVuSans-49" x="224.951172"/>
      <use xlink:href="#DejaVuSans-4e" x="254.443359"/>
      <use xlink:href="#DejaVuSans-31" x="329.248047"/>
      <use xlink:href="#DejaVuSans-33" x="392.871094"/>
      <use xlink:href="#DejaVuSans-20" x="456.494141"/>
      <use xlink:href="#DejaVuSans-65" x="488.28125"/>
      <use xlink:href="#DejaVuSans-76" x="549.804688"/>
      <use xlink:href="#DejaVuSans-61" x="608.984375"/>
      <use xlink:href="#DejaVuSans-6c" x="670.263672"/>
      <use xlink:href="#DejaVuSans-5f" x="698.046875"/>
      <use xlink:href="#DejaVuSans-6c" x="748.046875"/>
      <use xlink:href="#DejaVuSans-6f" x="775.830078"/>
      <use xlink:href="#DejaVuSans-73" x="837.011719"/>
      <use xlink:href="#DejaVuSans-73" x="889.111328"/>
     </g>
    </g>
    <g id="line2d_34">
     <path d="M 66.6 292.726187 
L 76.6 292.726187 
L 86.6 292.726187 
" style="fill: none; stroke: #2ca02c; stroke-opacity: 0.4; stroke-linecap: square"/>
    </g>
    <g id="text_10">
     <!-- MoGIN11 eval_loss -->
     <g transform="translate(94.6 296.226187) scale(0.1 -0.1)">
      <use xlink:href="#DejaVuSans-4d"/>
      <use xlink:href="#DejaVuSans-6f" x="86.279297"/>
      <use xlink:href="#DejaVuSans-47" x="147.460938"/>
      <use xlink:href="#DejaVuSans-49" x="224.951172"/>
      <use xlink:href="#DejaVuSans-4e" x="254.443359"/>
      <use xlink:href="#DejaVuSans-31" x="329.248047"/>
      <use xlink:href="#DejaVuSans-31" x="392.871094"/>
      <use xlink:href="#DejaVuSans-20" x="456.494141"/>
      <use xlink:href="#DejaVuSans-65" x="488.28125"/>
      <use xlink:href="#DejaVuSans-76" x="549.804688"/>
      <use xlink:href="#DejaVuSans-61" x="608.984375"/>
      <use xlink:href="#DejaVuSans-6c" x="670.263672"/>
      <use xlink:href="#DejaVuSans-5f" x="698.046875"/>
      <use xlink:href="#DejaVuSans-6c" x="748.046875"/>
      <use xlink:href="#DejaVuSans-6f" x="775.830078"/>
      <use xlink:href="#DejaVuSans-73" x="837.011719"/>
      <use xlink:href="#DejaVuSans-73" x="889.111328"/>
     </g>
    </g>
   </g>
  </g>
 </g>
 <defs>
  <clipPath id="p05ef49f0ab">
   <rect x="57.6" y="41.472" width="357.12" height="266.112"/>
  </clipPath>
 </defs>
</svg>
