<?xml version="1.0" encoding="utf-8" standalone="no"?>
<!DOCTYPE svg PUBLIC "-//W3C//DTD SVG 1.1//EN"
  "http://www.w3.org/Graphics/SVG/1.1/DTD/svg11.dtd">
<svg xmlns:xlink="http://www.w3.org/1999/xlink" width="460.8pt" height="345.6pt" viewBox="0 0 460.8 345.6" xmlns="http://www.w3.org/2000/svg" version="1.1">
 <metadata>
  <rdf:RDF xmlns:dc="http://purl.org/dc/elements/1.1/" xmlns:cc="http://creativecommons.org/ns#" xmlns:rdf="http://www.w3.org/1999/02/22-rdf-syntax-ns#">
   <cc:Work>
    <dc:type rdf:resource="http://purl.org/dc/dcmitype/StillImage"/>
    <dc:date>2025-02-21T09:06:40.156777</dc:date>
    <dc:format>image/svg+xml</dc:format>
    <dc:creator>
     <cc:Agent>
      <dc:title>Matplotlib v3.8.4, https://matplotlib.org/</dc:title>
     </cc:Agent>
    </dc:creator>
   </cc:Work>
  </rdf:RDF>
 </metadata>
 <defs>
  <style type="text/css">*{stroke-linejoin: round; stroke-linecap: butt}</style>
 </defs>
 <g id="figure_1">
  <g id="patch_1">
   <path d="M 0 345.6 
L 460.8 345.6 
L 460.8 0 
L 0 0 
z
" style="fill: #ffffff"/>
  </g>
  <g id="axes_1">
   <g id="patch_2">
    <path d="M 57.6 307.584 
L 414.72 307.584 
L 414.72 41.472 
L 57.6 41.472 
z
" style="fill: #ffffff"/>
   </g>
   <g id="matplotlib.axis_1">
    <g id="xtick_1">
     <g id="line2d_1">
      <defs>
       <path id="m5a5de7bc5f" d="M 0 0 
L 0 3.5 
" style="stroke: #000000; stroke-width: 0.8"/>
      </defs>
      <g>
       <use xlink:href="#m5a5de7bc5f" x="57.6" y="307.584" style="stroke: #000000; stroke-width: 0.8"/>
      </g>
     </g>
     <g id="text_1">
      <!-- $\mathdefault{10^{3}}$ -->
      <g transform="translate(48.8 322.182437) scale(0.1 -0.1)">
       <defs>
        <path id="DejaVuSans-31" d="M 794 531 
L 1825 531 
L 1825 4091 
L 703 3866 
L 703 4441 
L 1819 4666 
L 2450 4666 
L 2450 531 
L 3481 531 
L 3481 0 
L 794 0 
L 794 531 
z
" transform="scale(0.015625)"/>
        <path id="DejaVuSans-30" d="M 2034 4250 
Q 1547 4250 1301 3770 
Q 1056 3291 1056 2328 
Q 1056 1369 1301 889 
Q 1547 409 2034 409 
Q 2525 409 2770 889 
Q 3016 1369 3016 2328 
Q 3016 3291 2770 3770 
Q 2525 4250 2034 4250 
z
M 2034 4750 
Q 2819 4750 3233 4129 
Q 3647 3509 3647 2328 
Q 3647 1150 3233 529 
Q 2819 -91 2034 -91 
Q 1250 -91 836 529 
Q 422 1150 422 2328 
Q 422 3509 836 4129 
Q 1250 4750 2034 4750 
z
" transform="scale(0.015625)"/>
        <path id="DejaVuSans-33" d="M 2597 2516 
Q 3050 2419 3304 2112 
Q 3559 1806 3559 1356 
Q 3559 666 3084 287 
Q 2609 -91 1734 -91 
Q 1441 -91 1130 -33 
Q 819 25 488 141 
L 488 750 
Q 750 597 1062 519 
Q 1375 441 1716 441 
Q 2309 441 2620 675 
Q 2931 909 2931 1356 
Q 2931 1769 2642 2001 
Q 2353 2234 1838 2234 
L 1294 2234 
L 1294 2753 
L 1863 2753 
Q 2328 2753 2575 2939 
Q 2822 3125 2822 3475 
Q 2822 3834 2567 4026 
Q 2313 4219 1838 4219 
Q 1578 4219 1281 4162 
Q 984 4106 628 3988 
L 628 4550 
Q 988 4650 1302 4700 
Q 1616 4750 1894 4750 
Q 2613 4750 3031 4423 
Q 3450 4097 3450 3541 
Q 3450 3153 3228 2886 
Q 3006 2619 2597 2516 
z
" transform="scale(0.015625)"/>
       </defs>
       <use xlink:href="#DejaVuSans-31" transform="translate(0 0.765625)"/>
       <use xlink:href="#DejaVuSans-30" transform="translate(63.623047 0.765625)"/>
       <use xlink:href="#DejaVuSans-33" transform="translate(128.203125 39.046875) scale(0.7)"/>
      </g>
     </g>
    </g>
    <g id="xtick_2">
     <g id="line2d_2">
      <g>
       <use xlink:href="#m5a5de7bc5f" x="267.797943" y="307.584" style="stroke: #000000; stroke-width: 0.8"/>
      </g>
     </g>
     <g id="text_2">
      <!-- $\mathdefault{10^{4}}$ -->
      <g transform="translate(258.997943 322.182437) scale(0.1 -0.1)">
       <defs>
        <path id="DejaVuSans-34" d="M 2419 4116 
L 825 1625 
L 2419 1625 
L 2419 4116 
z
M 2253 4666 
L 3047 4666 
L 3047 1625 
L 3713 1625 
L 3713 1100 
L 3047 1100 
L 3047 0 
L 2419 0 
L 2419 1100 
L 313 1100 
L 313 1709 
L 2253 4666 
z
" transform="scale(0.015625)"/>
       </defs>
       <use xlink:href="#DejaVuSans-31" transform="translate(0 0.684375)"/>
       <use xlink:href="#DejaVuSans-30" transform="translate(63.623047 0.684375)"/>
       <use xlink:href="#DejaVuSans-34" transform="translate(128.203125 38.965625) scale(0.7)"/>
      </g>
     </g>
    </g>
    <g id="xtick_3">
     <g id="line2d_3">
      <defs>
       <path id="m9504ac638b" d="M 0 0 
L 0 2 
" style="stroke: #000000; stroke-width: 0.6"/>
      </defs>
      <g>
       <use xlink:href="#m9504ac638b" x="120.875886" y="307.584" style="stroke: #000000; stroke-width: 0.6"/>
      </g>
     </g>
    </g>
    <g id="xtick_4">
     <g id="line2d_4">
      <g>
       <use xlink:href="#m9504ac638b" x="157.889906" y="307.584" style="stroke: #000000; stroke-width: 0.6"/>
      </g>
     </g>
    </g>
    <g id="xtick_5">
     <g id="line2d_5">
      <g>
       <use xlink:href="#m9504ac638b" x="184.151772" y="307.584" style="stroke: #000000; stroke-width: 0.6"/>
      </g>
     </g>
    </g>
    <g id="xtick_6">
     <g id="line2d_6">
      <g>
       <use xlink:href="#m9504ac638b" x="204.522057" y="307.584" style="stroke: #000000; stroke-width: 0.6"/>
      </g>
     </g>
    </g>
    <g id="xtick_7">
     <g id="line2d_7">
      <g>
       <use xlink:href="#m9504ac638b" x="221.165792" y="307.584" style="stroke: #000000; stroke-width: 0.6"/>
      </g>
     </g>
    </g>
    <g id="xtick_8">
     <g id="line2d_8">
      <g>
       <use xlink:href="#m9504ac638b" x="235.23787" y="307.584" style="stroke: #000000; stroke-width: 0.6"/>
      </g>
     </g>
    </g>
    <g id="xtick_9">
     <g id="line2d_9">
      <g>
       <use xlink:href="#m9504ac638b" x="247.427658" y="307.584" style="stroke: #000000; stroke-width: 0.6"/>
      </g>
     </g>
    </g>
    <g id="xtick_10">
     <g id="line2d_10">
      <g>
       <use xlink:href="#m9504ac638b" x="258.179813" y="307.584" style="stroke: #000000; stroke-width: 0.6"/>
      </g>
     </g>
    </g>
    <g id="xtick_11">
     <g id="line2d_11">
      <g>
       <use xlink:href="#m9504ac638b" x="331.073829" y="307.584" style="stroke: #000000; stroke-width: 0.6"/>
      </g>
     </g>
    </g>
    <g id="xtick_12">
     <g id="line2d_12">
      <g>
       <use xlink:href="#m9504ac638b" x="368.087849" y="307.584" style="stroke: #000000; stroke-width: 0.6"/>
      </g>
     </g>
    </g>
    <g id="xtick_13">
     <g id="line2d_13">
      <g>
       <use xlink:href="#m9504ac638b" x="394.349715" y="307.584" style="stroke: #000000; stroke-width: 0.6"/>
      </g>
     </g>
    </g>
    <g id="xtick_14">
     <g id="line2d_14">
      <g>
       <use xlink:href="#m9504ac638b" x="414.72" y="307.584" style="stroke: #000000; stroke-width: 0.6"/>
      </g>
     </g>
    </g>
    <g id="text_3">
     <!-- iter# -->
     <g transform="translate(223.488906 335.860562) scale(0.1 -0.1)">
      <defs>
       <path id="DejaVuSans-69" d="M 603 3500 
L 1178 3500 
L 1178 0 
L 603 0 
L 603 3500 
z
M 603 4863 
L 1178 4863 
L 1178 4134 
L 603 4134 
L 603 4863 
z
" transform="scale(0.015625)"/>
       <path id="DejaVuSans-74" d="M 1172 4494 
L 1172 3500 
L 2356 3500 
L 2356 3053 
L 1172 3053 
L 1172 1153 
Q 1172 725 1289 603 
Q 1406 481 1766 481 
L 2356 481 
L 2356 0 
L 1766 0 
Q 1100 0 847 248 
Q 594 497 594 1153 
L 594 3053 
L 172 3053 
L 172 3500 
L 594 3500 
L 594 4494 
L 1172 4494 
z
" transform="scale(0.015625)"/>
       <path id="DejaVuSans-65" d="M 3597 1894 
L 3597 1613 
L 953 1613 
Q 991 1019 1311 708 
Q 1631 397 2203 397 
Q 2534 397 2845 478 
Q 3156 559 3463 722 
L 3463 178 
Q 3153 47 2828 -22 
Q 2503 -91 2169 -91 
Q 1331 -91 842 396 
Q 353 884 353 1716 
Q 353 2575 817 3079 
Q 1281 3584 2069 3584 
Q 2775 3584 3186 3129 
Q 3597 2675 3597 1894 
z
M 3022 2063 
Q 3016 2534 2758 2815 
Q 2500 3097 2075 3097 
Q 1594 3097 1305 2825 
Q 1016 2553 972 2059 
L 3022 2063 
z
" transform="scale(0.015625)"/>
       <path id="DejaVuSans-72" d="M 2631 2963 
Q 2534 3019 2420 3045 
Q 2306 3072 2169 3072 
Q 1681 3072 1420 2755 
Q 1159 2438 1159 1844 
L 1159 0 
L 581 0 
L 581 3500 
L 1159 3500 
L 1159 2956 
Q 1341 3275 1631 3429 
Q 1922 3584 2338 3584 
Q 2397 3584 2469 3576 
Q 2541 3569 2628 3553 
L 2631 2963 
z
" transform="scale(0.015625)"/>
       <path id="DejaVuSans-23" d="M 3272 2816 
L 2363 2816 
L 2100 1772 
L 3016 1772 
L 3272 2816 
z
M 2803 4594 
L 2478 3297 
L 3391 3297 
L 3719 4594 
L 4219 4594 
L 3897 3297 
L 4872 3297 
L 4872 2816 
L 3775 2816 
L 3519 1772 
L 4513 1772 
L 4513 1294 
L 3397 1294 
L 3072 0 
L 2572 0 
L 2894 1294 
L 1978 1294 
L 1656 0 
L 1153 0 
L 1478 1294 
L 494 1294 
L 494 1772 
L 1594 1772 
L 1856 2816 
L 850 2816 
L 850 3297 
L 1978 3297 
L 2297 4594 
L 2803 4594 
z
" transform="scale(0.015625)"/>
      </defs>
      <use xlink:href="#DejaVuSans-69"/>
      <use xlink:href="#DejaVuSans-74" x="27.783203"/>
      <use xlink:href="#DejaVuSans-65" x="66.992188"/>
      <use xlink:href="#DejaVuSans-72" x="128.515625"/>
      <use xlink:href="#DejaVuSans-23" x="169.628906"/>
     </g>
    </g>
   </g>
   <g id="matplotlib.axis_2">
    <g id="ytick_1">
     <g id="line2d_15">
      <defs>
       <path id="ma6ea8e0f79" d="M 0 0 
L -3.5 0 
" style="stroke: #000000; stroke-width: 0.8"/>
      </defs>
      <g>
       <use xlink:href="#ma6ea8e0f79" x="57.6" y="307.584" style="stroke: #000000; stroke-width: 0.8"/>
      </g>
     </g>
     <g id="text_4">
      <!-- $\mathdefault{10^{-7}}$ -->
      <g transform="translate(27.1 311.383219) scale(0.1 -0.1)">
       <defs>
        <path id="DejaVuSans-2212" d="M 678 2272 
L 4684 2272 
L 4684 1741 
L 678 1741 
L 678 2272 
z
" transform="scale(0.015625)"/>
        <path id="DejaVuSans-37" d="M 525 4666 
L 3525 4666 
L 3525 4397 
L 1831 0 
L 1172 0 
L 2766 4134 
L 525 4134 
L 525 4666 
z
" transform="scale(0.015625)"/>
       </defs>
       <use xlink:href="#DejaVuSans-31" transform="translate(0 0.684375)"/>
       <use xlink:href="#DejaVuSans-30" transform="translate(63.623047 0.684375)"/>
       <use xlink:href="#DejaVuSans-2212" transform="translate(128.203125 38.965625) scale(0.7)"/>
       <use xlink:href="#DejaVuSans-37" transform="translate(186.855469 38.965625) scale(0.7)"/>
      </g>
     </g>
    </g>
    <g id="ytick_2">
     <g id="line2d_16">
      <g>
       <use xlink:href="#ma6ea8e0f79" x="57.6" y="265.350905" style="stroke: #000000; stroke-width: 0.8"/>
      </g>
     </g>
     <g id="text_5">
      <!-- $\mathdefault{10^{-6}}$ -->
      <g transform="translate(27.1 269.150123) scale(0.1 -0.1)">
       <defs>
        <path id="DejaVuSans-36" d="M 2113 2584 
Q 1688 2584 1439 2293 
Q 1191 2003 1191 1497 
Q 1191 994 1439 701 
Q 1688 409 2113 409 
Q 2538 409 2786 701 
Q 3034 994 3034 1497 
Q 3034 2003 2786 2293 
Q 2538 2584 2113 2584 
z
M 3366 4563 
L 3366 3988 
Q 3128 4100 2886 4159 
Q 2644 4219 2406 4219 
Q 1781 4219 1451 3797 
Q 1122 3375 1075 2522 
Q 1259 2794 1537 2939 
Q 1816 3084 2150 3084 
Q 2853 3084 3261 2657 
Q 3669 2231 3669 1497 
Q 3669 778 3244 343 
Q 2819 -91 2113 -91 
Q 1303 -91 875 529 
Q 447 1150 447 2328 
Q 447 3434 972 4092 
Q 1497 4750 2381 4750 
Q 2619 4750 2861 4703 
Q 3103 4656 3366 4563 
z
" transform="scale(0.015625)"/>
       </defs>
       <use xlink:href="#DejaVuSans-31" transform="translate(0 0.765625)"/>
       <use xlink:href="#DejaVuSans-30" transform="translate(63.623047 0.765625)"/>
       <use xlink:href="#DejaVuSans-2212" transform="translate(128.203125 39.046875) scale(0.7)"/>
       <use xlink:href="#DejaVuSans-36" transform="translate(186.855469 39.046875) scale(0.7)"/>
      </g>
     </g>
    </g>
    <g id="ytick_3">
     <g id="line2d_17">
      <g>
       <use xlink:href="#ma6ea8e0f79" x="57.6" y="223.117809" style="stroke: #000000; stroke-width: 0.8"/>
      </g>
     </g>
     <g id="text_6">
      <!-- $\mathdefault{10^{-5}}$ -->
      <g transform="translate(27.1 226.917028) scale(0.1 -0.1)">
       <defs>
        <path id="DejaVuSans-35" d="M 691 4666 
L 3169 4666 
L 3169 4134 
L 1269 4134 
L 1269 2991 
Q 1406 3038 1543 3061 
Q 1681 3084 1819 3084 
Q 2600 3084 3056 2656 
Q 3513 2228 3513 1497 
Q 3513 744 3044 326 
Q 2575 -91 1722 -91 
Q 1428 -91 1123 -41 
Q 819 9 494 109 
L 494 744 
Q 775 591 1075 516 
Q 1375 441 1709 441 
Q 2250 441 2565 725 
Q 2881 1009 2881 1497 
Q 2881 1984 2565 2268 
Q 2250 2553 1709 2553 
Q 1456 2553 1204 2497 
Q 953 2441 691 2322 
L 691 4666 
z
" transform="scale(0.015625)"/>
       </defs>
       <use xlink:href="#DejaVuSans-31" transform="translate(0 0.684375)"/>
       <use xlink:href="#DejaVuSans-30" transform="translate(63.623047 0.684375)"/>
       <use xlink:href="#DejaVuSans-2212" transform="translate(128.203125 38.965625) scale(0.7)"/>
       <use xlink:href="#DejaVuSans-35" transform="translate(186.855469 38.965625) scale(0.7)"/>
      </g>
     </g>
    </g>
    <g id="ytick_4">
     <g id="line2d_18">
      <g>
       <use xlink:href="#ma6ea8e0f79" x="57.6" y="180.884714" style="stroke: #000000; stroke-width: 0.8"/>
      </g>
     </g>
     <g id="text_7">
      <!-- $\mathdefault{10^{-4}}$ -->
      <g transform="translate(27.1 184.683933) scale(0.1 -0.1)">
       <use xlink:href="#DejaVuSans-31" transform="translate(0 0.684375)"/>
       <use xlink:href="#DejaVuSans-30" transform="translate(63.623047 0.684375)"/>
       <use xlink:href="#DejaVuSans-2212" transform="translate(128.203125 38.965625) scale(0.7)"/>
       <use xlink:href="#DejaVuSans-34" transform="translate(186.855469 38.965625) scale(0.7)"/>
      </g>
     </g>
    </g>
    <g id="ytick_5">
     <g id="line2d_19">
      <g>
       <use xlink:href="#ma6ea8e0f79" x="57.6" y="138.651619" style="stroke: #000000; stroke-width: 0.8"/>
      </g>
     </g>
     <g id="text_8">
      <!-- $\mathdefault{10^{-3}}$ -->
      <g transform="translate(27.1 142.450838) scale(0.1 -0.1)">
       <use xlink:href="#DejaVuSans-31" transform="translate(0 0.765625)"/>
       <use xlink:href="#DejaVuSans-30" transform="translate(63.623047 0.765625)"/>
       <use xlink:href="#DejaVuSans-2212" transform="translate(128.203125 39.046875) scale(0.7)"/>
       <use xlink:href="#DejaVuSans-33" transform="translate(186.855469 39.046875) scale(0.7)"/>
      </g>
     </g>
    </g>
    <g id="ytick_6">
     <g id="line2d_20">
      <g>
       <use xlink:href="#ma6ea8e0f79" x="57.6" y="96.418524" style="stroke: #000000; stroke-width: 0.8"/>
      </g>
     </g>
     <g id="text_9">
      <!-- $\mathdefault{10^{-2}}$ -->
      <g transform="translate(27.1 100.217742) scale(0.1 -0.1)">
       <defs>
        <path id="DejaVuSans-32" d="M 1228 531 
L 3431 531 
L 3431 0 
L 469 0 
L 469 531 
Q 828 903 1448 1529 
Q 2069 2156 2228 2338 
Q 2531 2678 2651 2914 
Q 2772 3150 2772 3378 
Q 2772 3750 2511 3984 
Q 2250 4219 1831 4219 
Q 1534 4219 1204 4116 
Q 875 4013 500 3803 
L 500 4441 
Q 881 4594 1212 4672 
Q 1544 4750 1819 4750 
Q 2544 4750 2975 4387 
Q 3406 4025 3406 3419 
Q 3406 3131 3298 2873 
Q 3191 2616 2906 2266 
Q 2828 2175 2409 1742 
Q 1991 1309 1228 531 
z
" transform="scale(0.015625)"/>
       </defs>
       <use xlink:href="#DejaVuSans-31" transform="translate(0 0.765625)"/>
       <use xlink:href="#DejaVuSans-30" transform="translate(63.623047 0.765625)"/>
       <use xlink:href="#DejaVuSans-2212" transform="translate(128.203125 39.046875) scale(0.7)"/>
       <use xlink:href="#DejaVuSans-32" transform="translate(186.855469 39.046875) scale(0.7)"/>
      </g>
     </g>
    </g>
    <g id="ytick_7">
     <g id="line2d_21">
      <g>
       <use xlink:href="#ma6ea8e0f79" x="57.6" y="54.185428" style="stroke: #000000; stroke-width: 0.8"/>
      </g>
     </g>
     <g id="text_10">
      <!-- $\mathdefault{10^{-1}}$ -->
      <g transform="translate(27.1 57.984647) scale(0.1 -0.1)">
       <use xlink:href="#DejaVuSans-31" transform="translate(0 0.684375)"/>
       <use xlink:href="#DejaVuSans-30" transform="translate(63.623047 0.684375)"/>
       <use xlink:href="#DejaVuSans-2212" transform="translate(128.203125 38.965625) scale(0.7)"/>
       <use xlink:href="#DejaVuSans-31" transform="translate(186.855469 38.965625) scale(0.7)"/>
      </g>
     </g>
    </g>
    <g id="ytick_8">
     <g id="line2d_22">
      <defs>
       <path id="m26eb558d6f" d="M 0 0 
L -2 0 
" style="stroke: #000000; stroke-width: 0.6"/>
      </defs>
      <g>
       <use xlink:href="#m26eb558d6f" x="57.6" y="294.870572" style="stroke: #000000; stroke-width: 0.6"/>
      </g>
     </g>
    </g>
    <g id="ytick_9">
     <g id="line2d_23">
      <g>
       <use xlink:href="#m26eb558d6f" x="57.6" y="287.433693" style="stroke: #000000; stroke-width: 0.6"/>
      </g>
     </g>
    </g>
    <g id="ytick_10">
     <g id="line2d_24">
      <g>
       <use xlink:href="#m26eb558d6f" x="57.6" y="282.157143" style="stroke: #000000; stroke-width: 0.6"/>
      </g>
     </g>
    </g>
    <g id="ytick_11">
     <g id="line2d_25">
      <g>
       <use xlink:href="#m26eb558d6f" x="57.6" y="278.064333" style="stroke: #000000; stroke-width: 0.6"/>
      </g>
     </g>
    </g>
    <g id="ytick_12">
     <g id="line2d_26">
      <g>
       <use xlink:href="#m26eb558d6f" x="57.6" y="274.720264" style="stroke: #000000; stroke-width: 0.6"/>
      </g>
     </g>
    </g>
    <g id="ytick_13">
     <g id="line2d_27">
      <g>
       <use xlink:href="#m26eb558d6f" x="57.6" y="271.892894" style="stroke: #000000; stroke-width: 0.6"/>
      </g>
     </g>
    </g>
    <g id="ytick_14">
     <g id="line2d_28">
      <g>
       <use xlink:href="#m26eb558d6f" x="57.6" y="269.443715" style="stroke: #000000; stroke-width: 0.6"/>
      </g>
     </g>
    </g>
    <g id="ytick_15">
     <g id="line2d_29">
      <g>
       <use xlink:href="#m26eb558d6f" x="57.6" y="267.283385" style="stroke: #000000; stroke-width: 0.6"/>
      </g>
     </g>
    </g>
    <g id="ytick_16">
     <g id="line2d_30">
      <g>
       <use xlink:href="#m26eb558d6f" x="57.6" y="252.637476" style="stroke: #000000; stroke-width: 0.6"/>
      </g>
     </g>
    </g>
    <g id="ytick_17">
     <g id="line2d_31">
      <g>
       <use xlink:href="#m26eb558d6f" x="57.6" y="245.200597" style="stroke: #000000; stroke-width: 0.6"/>
      </g>
     </g>
    </g>
    <g id="ytick_18">
     <g id="line2d_32">
      <g>
       <use xlink:href="#m26eb558d6f" x="57.6" y="239.924048" style="stroke: #000000; stroke-width: 0.6"/>
      </g>
     </g>
    </g>
    <g id="ytick_19">
     <g id="line2d_33">
      <g>
       <use xlink:href="#m26eb558d6f" x="57.6" y="235.831238" style="stroke: #000000; stroke-width: 0.6"/>
      </g>
     </g>
    </g>
    <g id="ytick_20">
     <g id="line2d_34">
      <g>
       <use xlink:href="#m26eb558d6f" x="57.6" y="232.487169" style="stroke: #000000; stroke-width: 0.6"/>
      </g>
     </g>
    </g>
    <g id="ytick_21">
     <g id="line2d_35">
      <g>
       <use xlink:href="#m26eb558d6f" x="57.6" y="229.659799" style="stroke: #000000; stroke-width: 0.6"/>
      </g>
     </g>
    </g>
    <g id="ytick_22">
     <g id="line2d_36">
      <g>
       <use xlink:href="#m26eb558d6f" x="57.6" y="227.210619" style="stroke: #000000; stroke-width: 0.6"/>
      </g>
     </g>
    </g>
    <g id="ytick_23">
     <g id="line2d_37">
      <g>
       <use xlink:href="#m26eb558d6f" x="57.6" y="225.05029" style="stroke: #000000; stroke-width: 0.6"/>
      </g>
     </g>
    </g>
    <g id="ytick_24">
     <g id="line2d_38">
      <g>
       <use xlink:href="#m26eb558d6f" x="57.6" y="210.404381" style="stroke: #000000; stroke-width: 0.6"/>
      </g>
     </g>
    </g>
    <g id="ytick_25">
     <g id="line2d_39">
      <g>
       <use xlink:href="#m26eb558d6f" x="57.6" y="202.967502" style="stroke: #000000; stroke-width: 0.6"/>
      </g>
     </g>
    </g>
    <g id="ytick_26">
     <g id="line2d_40">
      <g>
       <use xlink:href="#m26eb558d6f" x="57.6" y="197.690953" style="stroke: #000000; stroke-width: 0.6"/>
      </g>
     </g>
    </g>
    <g id="ytick_27">
     <g id="line2d_41">
      <g>
       <use xlink:href="#m26eb558d6f" x="57.6" y="193.598143" style="stroke: #000000; stroke-width: 0.6"/>
      </g>
     </g>
    </g>
    <g id="ytick_28">
     <g id="line2d_42">
      <g>
       <use xlink:href="#m26eb558d6f" x="57.6" y="190.254074" style="stroke: #000000; stroke-width: 0.6"/>
      </g>
     </g>
    </g>
    <g id="ytick_29">
     <g id="line2d_43">
      <g>
       <use xlink:href="#m26eb558d6f" x="57.6" y="187.426703" style="stroke: #000000; stroke-width: 0.6"/>
      </g>
     </g>
    </g>
    <g id="ytick_30">
     <g id="line2d_44">
      <g>
       <use xlink:href="#m26eb558d6f" x="57.6" y="184.977524" style="stroke: #000000; stroke-width: 0.6"/>
      </g>
     </g>
    </g>
    <g id="ytick_31">
     <g id="line2d_45">
      <g>
       <use xlink:href="#m26eb558d6f" x="57.6" y="182.817195" style="stroke: #000000; stroke-width: 0.6"/>
      </g>
     </g>
    </g>
    <g id="ytick_32">
     <g id="line2d_46">
      <g>
       <use xlink:href="#m26eb558d6f" x="57.6" y="168.171286" style="stroke: #000000; stroke-width: 0.6"/>
      </g>
     </g>
    </g>
    <g id="ytick_33">
     <g id="line2d_47">
      <g>
       <use xlink:href="#m26eb558d6f" x="57.6" y="160.734407" style="stroke: #000000; stroke-width: 0.6"/>
      </g>
     </g>
    </g>
    <g id="ytick_34">
     <g id="line2d_48">
      <g>
       <use xlink:href="#m26eb558d6f" x="57.6" y="155.457857" style="stroke: #000000; stroke-width: 0.6"/>
      </g>
     </g>
    </g>
    <g id="ytick_35">
     <g id="line2d_49">
      <g>
       <use xlink:href="#m26eb558d6f" x="57.6" y="151.365047" style="stroke: #000000; stroke-width: 0.6"/>
      </g>
     </g>
    </g>
    <g id="ytick_36">
     <g id="line2d_50">
      <g>
       <use xlink:href="#m26eb558d6f" x="57.6" y="148.020978" style="stroke: #000000; stroke-width: 0.6"/>
      </g>
     </g>
    </g>
    <g id="ytick_37">
     <g id="line2d_51">
      <g>
       <use xlink:href="#m26eb558d6f" x="57.6" y="145.193608" style="stroke: #000000; stroke-width: 0.6"/>
      </g>
     </g>
    </g>
    <g id="ytick_38">
     <g id="line2d_52">
      <g>
       <use xlink:href="#m26eb558d6f" x="57.6" y="142.744429" style="stroke: #000000; stroke-width: 0.6"/>
      </g>
     </g>
    </g>
    <g id="ytick_39">
     <g id="line2d_53">
      <g>
       <use xlink:href="#m26eb558d6f" x="57.6" y="140.584099" style="stroke: #000000; stroke-width: 0.6"/>
      </g>
     </g>
    </g>
    <g id="ytick_40">
     <g id="line2d_54">
      <g>
       <use xlink:href="#m26eb558d6f" x="57.6" y="125.938191" style="stroke: #000000; stroke-width: 0.6"/>
      </g>
     </g>
    </g>
    <g id="ytick_41">
     <g id="line2d_55">
      <g>
       <use xlink:href="#m26eb558d6f" x="57.6" y="118.501312" style="stroke: #000000; stroke-width: 0.6"/>
      </g>
     </g>
    </g>
    <g id="ytick_42">
     <g id="line2d_56">
      <g>
       <use xlink:href="#m26eb558d6f" x="57.6" y="113.224762" style="stroke: #000000; stroke-width: 0.6"/>
      </g>
     </g>
    </g>
    <g id="ytick_43">
     <g id="line2d_57">
      <g>
       <use xlink:href="#m26eb558d6f" x="57.6" y="109.131952" style="stroke: #000000; stroke-width: 0.6"/>
      </g>
     </g>
    </g>
    <g id="ytick_44">
     <g id="line2d_58">
      <g>
       <use xlink:href="#m26eb558d6f" x="57.6" y="105.787883" style="stroke: #000000; stroke-width: 0.6"/>
      </g>
     </g>
    </g>
    <g id="ytick_45">
     <g id="line2d_59">
      <g>
       <use xlink:href="#m26eb558d6f" x="57.6" y="102.960513" style="stroke: #000000; stroke-width: 0.6"/>
      </g>
     </g>
    </g>
    <g id="ytick_46">
     <g id="line2d_60">
      <g>
       <use xlink:href="#m26eb558d6f" x="57.6" y="100.511334" style="stroke: #000000; stroke-width: 0.6"/>
      </g>
     </g>
    </g>
    <g id="ytick_47">
     <g id="line2d_61">
      <g>
       <use xlink:href="#m26eb558d6f" x="57.6" y="98.351004" style="stroke: #000000; stroke-width: 0.6"/>
      </g>
     </g>
    </g>
    <g id="ytick_48">
     <g id="line2d_62">
      <g>
       <use xlink:href="#m26eb558d6f" x="57.6" y="83.705095" style="stroke: #000000; stroke-width: 0.6"/>
      </g>
     </g>
    </g>
    <g id="ytick_49">
     <g id="line2d_63">
      <g>
       <use xlink:href="#m26eb558d6f" x="57.6" y="76.268216" style="stroke: #000000; stroke-width: 0.6"/>
      </g>
     </g>
    </g>
    <g id="ytick_50">
     <g id="line2d_64">
      <g>
       <use xlink:href="#m26eb558d6f" x="57.6" y="70.991667" style="stroke: #000000; stroke-width: 0.6"/>
      </g>
     </g>
    </g>
    <g id="ytick_51">
     <g id="line2d_65">
      <g>
       <use xlink:href="#m26eb558d6f" x="57.6" y="66.898857" style="stroke: #000000; stroke-width: 0.6"/>
      </g>
     </g>
    </g>
    <g id="ytick_52">
     <g id="line2d_66">
      <g>
       <use xlink:href="#m26eb558d6f" x="57.6" y="63.554788" style="stroke: #000000; stroke-width: 0.6"/>
      </g>
     </g>
    </g>
    <g id="ytick_53">
     <g id="line2d_67">
      <g>
       <use xlink:href="#m26eb558d6f" x="57.6" y="60.727418" style="stroke: #000000; stroke-width: 0.6"/>
      </g>
     </g>
    </g>
    <g id="ytick_54">
     <g id="line2d_68">
      <g>
       <use xlink:href="#m26eb558d6f" x="57.6" y="58.278238" style="stroke: #000000; stroke-width: 0.6"/>
      </g>
     </g>
    </g>
    <g id="ytick_55">
     <g id="line2d_69">
      <g>
       <use xlink:href="#m26eb558d6f" x="57.6" y="56.117909" style="stroke: #000000; stroke-width: 0.6"/>
      </g>
     </g>
    </g>
    <g id="ytick_56">
     <g id="line2d_70">
      <g>
       <use xlink:href="#m26eb558d6f" x="57.6" y="41.472" style="stroke: #000000; stroke-width: 0.6"/>
      </g>
     </g>
    </g>
    <g id="text_11">
     <!-- loss -->
     <g transform="translate(21.020313 184.185812) rotate(-90) scale(0.1 -0.1)">
      <defs>
       <path id="DejaVuSans-6c" d="M 603 4863 
L 1178 4863 
L 1178 0 
L 603 0 
L 603 4863 
z
" transform="scale(0.015625)"/>
       <path id="DejaVuSans-6f" d="M 1959 3097 
Q 1497 3097 1228 2736 
Q 959 2375 959 1747 
Q 959 1119 1226 758 
Q 1494 397 1959 397 
Q 2419 397 2687 759 
Q 2956 1122 2956 1747 
Q 2956 2369 2687 2733 
Q 2419 3097 1959 3097 
z
M 1959 3584 
Q 2709 3584 3137 3096 
Q 3566 2609 3566 1747 
Q 3566 888 3137 398 
Q 2709 -91 1959 -91 
Q 1206 -91 779 398 
Q 353 888 353 1747 
Q 353 2609 779 3096 
Q 1206 3584 1959 3584 
z
" transform="scale(0.015625)"/>
       <path id="DejaVuSans-73" d="M 2834 3397 
L 2834 2853 
Q 2591 2978 2328 3040 
Q 2066 3103 1784 3103 
Q 1356 3103 1142 2972 
Q 928 2841 928 2578 
Q 928 2378 1081 2264 
Q 1234 2150 1697 2047 
L 1894 2003 
Q 2506 1872 2764 1633 
Q 3022 1394 3022 966 
Q 3022 478 2636 193 
Q 2250 -91 1575 -91 
Q 1294 -91 989 -36 
Q 684 19 347 128 
L 347 722 
Q 666 556 975 473 
Q 1284 391 1588 391 
Q 1994 391 2212 530 
Q 2431 669 2431 922 
Q 2431 1156 2273 1281 
Q 2116 1406 1581 1522 
L 1381 1569 
Q 847 1681 609 1914 
Q 372 2147 372 2553 
Q 372 3047 722 3315 
Q 1072 3584 1716 3584 
Q 2034 3584 2315 3537 
Q 2597 3491 2834 3397 
z
" transform="scale(0.015625)"/>
      </defs>
      <use xlink:href="#DejaVuSans-6c"/>
      <use xlink:href="#DejaVuSans-6f" x="27.783203"/>
      <use xlink:href="#DejaVuSans-73" x="88.964844"/>
      <use xlink:href="#DejaVuSans-73" x="141.064453"/>
     </g>
    </g>
   </g>
   <g id="line2d_71">
    <path d="M 53.968492 18.103611 
L 70.596393 22.699716 
L 80.206606 25.572407 
L 84.657159 26.682408 
L 88.900784 27.959135 
L 92.955871 28.879168 
L 96.838463 30.172024 
L 100.562638 31.242141 
L 104.140817 32.439129 
L 107.584018 33.398362 
L 123.085479 38.79389 
L 123.839744 39.74535 
L 126.624717 40.582117 
L 129.327236 41.049735 
L 131.952044 41.942001 
L 134.503485 42.360885 
L 136.985549 42.985703 
L 139.40191 43.952587 
L 146.289409 46.149167 
L 148.474413 45.972264 
L 150.608337 46.026795 
L 154.732129 47.157887 
L 156.726208 48.10007 
L 160.588264 49.224757 
L 162.459701 49.301962 
L 164.293541 50.200839 
L 166.091267 50.80994 
L 167.854273 51.544482 
L 169.583875 51.60937 
L 171.281314 51.836055 
L 172.947767 52.43539 
L 174.584343 52.902307 
L 176.192095 52.937378 
L 177.77202 53.476149 
L 180.852133 54.98668 
L 182.354074 54.731764 
L 183.831704 54.609658 
L 185.285796 54.772603 
L 186.71709 55.138235 
L 187.093535 54.680541 
L 189.879171 56.423727 
L 191.240749 56.143021 
L 193.904452 57.132327 
L 197.759712 57.592367 
L 199.009447 58.337905 
L 200.242303 58.611447 
L 201.458732 58.421967 
L 202.659164 58.85835 
L 203.844015 59.169207 
L 205.013685 59.305189 
L 206.168557 59.907407 
L 207.309001 59.823086 
L 208.435374 60.431424 
L 209.548017 61.212901 
L 210.647263 60.95194 
L 211.733429 60.473675 
L 212.806824 59.470837 
L 213.867744 60.015544 
L 214.916475 60.028404 
L 216.978472 61.41847 
L 217.992263 61.667559 
L 218.99492 62.423783 
L 219.986683 61.531254 
L 220.967787 62.15195 
L 221.938459 61.615121 
L 222.898919 61.293656 
L 223.849378 61.824662 
L 224.100189 62.266315 
L 225.038286 62.167141 
L 225.966842 60.893931 
L 226.886047 61.758733 
L 228.697148 63.134335 
L 229.5894 63.05536 
L 230.473015 63.655616 
L 231.34816 64.030085 
L 232.214994 63.812078 
L 233.073675 64.28554 
L 233.924353 64.567373 
L 234.767178 65.089337 
L 236.429836 66.332238 
L 238.062753 66.934528 
L 238.868387 66.937725 
L 239.666973 66.534076 
L 240.458634 65.378879 
L 241.243488 63.79906 
L 242.021652 63.958648 
L 242.793239 62.519663 
L 243.558358 62.310625 
L 244.317119 60.630825 
L 245.069624 59.993545 
L 245.815977 60.532205 
L 246.556278 60.653646 
L 247.290623 61.130463 
L 248.019108 61.749375 
L 248.741826 62.185251 
L 249.458867 62.095179 
L 250.170319 61.843476 
L 250.358371 62.606067 
L 251.062874 63.195333 
L 251.761983 63.958763 
L 252.455778 64.288951 
L 253.14434 64.428381 
L 253.827747 64.241728 
L 254.506076 64.813579 
L 255.179401 65.695309 
L 255.847797 65.669331 
L 256.511334 65.937502 
L 257.170083 65.353947 
L 258.473489 65.609285 
L 259.118279 66.073993 
L 259.758547 64.303305 
L 260.394356 64.16836 
L 261.65284 65.79475 
L 262.275635 66.132338 
L 262.89421 65.08277 
L 264.118926 65.994213 
L 264.725177 65.51004 
L 265.327428 65.837926 
L 266.520141 63.3312 
L 267.697471 64.638561 
L 268.280491 64.943002 
L 268.85981 65.631189 
L 269.435477 65.158007 
L 270.576032 64.682776 
L 270.726446 65.130443 
L 271.290497 65.518039 
L 271.851084 66.290769 
L 272.408249 65.819856 
L 273.512481 67.428884 
L 274.059628 67.529191 
L 274.603516 68.281603 
L 275.681664 67.090885 
L 276.747228 67.664605 
L 277.275382 68.374067 
L 277.800497 68.424639 
L 278.322609 68.802801 
L 278.841752 68.742351 
L 279.35796 68.348566 
L 279.871265 68.539666 
L 280.381699 68.087844 
L 280.889296 67.794012 
L 281.394085 68.110301 
L 281.896099 66.404684 
L 282.891919 67.273218 
L 283.385785 67.521026 
L 283.876994 68.411218 
L 284.365573 68.982954 
L 284.851552 69.88247 
L 285.334957 70.50162 
L 285.815815 70.661428 
L 287.243378 72.394907 
L 287.368708 73.189281 
L 288.30688 74.410916 
L 289.696305 76.198567 
L 290.154787 75.34372 
L 290.610978 75.743857 
L 291.0649 75.768338 
L 291.516576 75.973997 
L 291.966028 75.241611 
L 292.413279 75.630278 
L 292.858349 73.347652 
L 294.617241 75.970217 
L 295.051719 75.024384 
L 295.484139 75.108465 
L 295.914521 75.879404 
L 296.342883 75.093644 
L 296.769245 75.596009 
L 297.193624 73.992398 
L 297.616039 73.189961 
L 298.036509 72.985882 
L 298.455052 73.012417 
L 298.871683 72.86257 
L 299.286423 73.483821 
L 299.699286 69.735177 
L 301.332317 72.801287 
L 301.439733 73.356639 
L 302.644207 75.86966 
L 303.438451 77.551645 
L 304.225844 77.130267 
L 305.006503 78.380166 
L 305.394344 77.696014 
L 305.780543 77.647293 
L 306.165116 77.150253 
L 306.548075 77.235037 
L 306.929435 77.971761 
L 307.687408 78.372851 
L 308.064047 79.123122 
L 308.439138 79.412151 
L 308.812695 78.889573 
L 309.18473 79.216359 
L 309.92428 77.826669 
L 310.291821 77.985367 
L 310.657888 78.330658 
L 311.022493 79.062605 
L 311.385647 78.933115 
L 311.747363 76.967793 
L 312.10765 76.391017 
L 312.466522 76.734822 
L 313.18006 78.04737 
L 313.534748 78.131223 
L 313.628731 77.870517 
L 313.981684 78.281279 
L 315.380005 80.681853 
L 315.726264 80.899448 
L 316.071214 79.447812 
L 316.414866 78.841609 
L 316.757229 78.673405 
L 317.438127 79.975879 
L 317.776681 80.138933 
L 318.113984 80.160842 
L 318.450046 79.82595 
L 318.784874 79.07352 
L 319.45087 80.543786 
L 319.782055 77.658138 
L 321.094907 79.99922 
L 321.420191 80.087124 
L 321.74432 79.732319 
L 322.067302 79.763119 
L 322.389145 78.524804 
L 323.347923 79.915673 
L 323.665291 79.845305 
L 324.296736 79.350974 
L 324.694077 80.483493 
L 325.629072 82.892465 
L 325.938621 83.551353 
L 326.247124 82.704558 
L 326.554588 83.227823 
L 327.166426 84.504982 
L 327.470814 83.863031 
L 327.77419 84.261824 
L 328.076562 84.423668 
L 328.678317 85.453424 
L 328.977714 83.325748 
L 329.276131 82.854075 
L 329.573577 83.251207 
L 329.870056 84.038118 
L 330.165576 83.992428 
L 330.460142 84.724196 
L 330.753761 76.409836 
L 331.046438 76.830328 
L 331.33818 76.857032 
L 332.495913 80.061625 
L 332.783066 80.165703 
L 333.069319 80.889835 
L 333.639147 80.746635 
L 333.922732 81.306895 
L 333.997911 81.843426 
L 334.280386 82.436215 
L 334.56199 83.329152 
L 334.842727 83.350496 
L 335.679796 85.592211 
L 335.957121 85.308806 
L 336.233607 85.460648 
L 336.509258 85.78509 
L 337.331252 87.695425 
L 337.603614 87.422759 
L 337.875165 87.942837 
L 338.145911 86.599602 
L 338.415856 86.378966 
L 338.685005 86.854606 
L 338.953363 87.659055 
L 339.220935 87.907273 
L 339.487724 87.622523 
L 339.753736 84.31254 
L 340.018976 82.924159 
L 340.283446 82.972259 
L 340.547153 83.591445 
L 340.8101 83.477491 
L 341.594428 84.428199 
L 341.85438 82.649338 
L 342.113594 83.018322 
L 342.372074 83.070611 
L 342.629824 83.705086 
L 342.698167 84.173164 
L 342.954999 84.782978 
L 343.211111 84.943467 
L 343.466506 84.682844 
L 343.721189 84.929915 
L 344.228433 86.502401 
L 344.481002 85.813145 
L 344.732874 86.28812 
L 344.984053 85.137303 
L 345.234543 85.100335 
L 345.484347 84.540443 
L 345.73347 85.087723 
L 345.981914 85.144234 
L 346.229685 85.523562 
L 346.476784 85.153343 
L 346.968986 85.515836 
L 347.214095 86.115863 
L 347.458548 86.330605 
L 347.702348 86.326358 
L 347.945499 86.612247 
L 348.188003 85.861706 
L 348.429865 85.693822 
L 348.911676 86.538829 
L 349.151631 85.350072 
L 349.390957 84.94538 
L 349.629657 85.620759 
L 349.867734 85.773247 
L 350.105193 85.677751 
L 350.342035 86.118183 
L 351.34547 88.976887 
L 351.57912 89.068437 
L 351.812174 89.826385 
L 352.044634 89.624913 
L 353.198138 92.995745 
L 353.4271 92.815576 
L 353.655489 91.022903 
L 353.883308 90.546654 
L 354.11056 91.225688 
L 354.337248 91.136604 
L 354.563374 90.668204 
L 354.788942 91.128582 
L 355.013953 90.858667 
L 355.238411 91.158922 
L 355.462319 90.782054 
L 355.685679 90.875948 
L 355.908494 90.638895 
L 356.352498 91.127393 
L 356.573693 90.527551 
L 356.794353 88.872242 
L 357.014481 89.004098 
L 357.23408 88.644293 
L 357.453152 88.709288 
L 357.671699 88.928327 
L 357.889724 89.650614 
L 357.94755 90.36391 
L 358.164918 89.261438 
L 358.38177 89.844923 
L 358.598108 90.103275 
L 358.813934 90.797263 
L 359.029251 90.64589 
L 359.458369 91.68284 
L 359.672173 90.796252 
L 359.885478 88.635952 
L 360.098286 84.3821 
L 360.310599 83.964569 
L 361.154946 87.239228 
L 361.364818 87.435577 
L 361.991555 89.545027 
L 362.199515 89.517218 
L 362.407002 90.233256 
L 362.614019 89.396241 
L 362.820567 89.773326 
L 363.026649 90.495913 
L 363.232266 89.910628 
L 363.642118 90.842739 
L 363.846355 90.571307 
L 364.050137 89.985397 
L 364.456341 91.351393 
L 364.658767 91.473308 
L 364.712461 92.217409 
L 365.517235 95.105991 
L 365.717325 95.382593 
L 365.916977 95.912966 
L 366.116193 95.26085 
L 366.314976 95.008172 
L 366.711248 95.906294 
L 366.90874 94.460689 
L 367.302448 95.009953 
L 367.498667 93.820863 
L 367.889844 94.718643 
L 368.473485 95.333246 
L 369.245914 97.89156 
L 369.438004 95.208657 
L 369.62969 94.65828 
L 369.820976 95.058198 
L 370.011861 94.772836 
L 370.202348 94.777075 
L 370.392438 95.470251 
L 370.582133 95.662898 
L 370.771435 96.285134 
L 371.010458 95.995623 
L 371.574546 97.962722 
L 371.761803 96.999515 
L 371.948676 97.128319 
L 372.32128 95.370989 
L 372.507013 96.163679 
L 372.692369 96.192508 
L 372.87735 95.438152 
L 373.061956 95.400764 
L 373.430053 95.11941 
L 373.613546 94.507165 
L 373.796671 94.799116 
L 373.979429 90.727323 
L 374.343852 91.667521 
L 374.887773 93.53079 
L 375.068362 93.676729 
L 375.248595 94.179256 
L 375.607996 92.64523 
L 375.787168 93.423758 
L 376.322582 94.352269 
L 376.854873 96.137699 
L 376.901854 96.728884 
L 377.606422 97.422689 
L 377.781717 97.943297 
L 377.956676 97.922113 
L 378.131301 97.154509 
L 378.305593 97.471796 
L 378.479552 97.414653 
L 378.65318 97.005147 
L 378.826479 97.268895 
L 378.999449 96.621703 
L 379.172093 91.064055 
L 379.34441 91.257399 
L 380.030445 93.774436 
L 380.201152 93.69634 
L 380.880802 95.95108 
L 381.049927 96.240655 
L 381.218739 95.907784 
L 381.38724 94.709373 
L 381.723311 95.602439 
L 381.890884 95.532057 
L 382.058149 95.29417 
L 382.225109 95.459148 
L 382.391764 95.27082 
L 382.43598 96.10012 
L 382.76822 97.121023 
L 383.264322 98.909015 
L 383.429092 98.937417 
L 383.593566 98.440056 
L 383.757743 98.70376 
L 383.921626 98.583347 
L 384.085215 98.974265 
L 384.411516 100.428265 
L 384.736656 100.931993 
L 384.898792 100.669573 
L 385.544473 103.157479 
L 385.705182 101.432559 
L 385.865609 101.554123 
L 386.025754 102.118466 
L 386.185619 101.158821 
L 386.345204 101.646348 
L 386.504511 101.103876 
L 386.822293 101.253231 
L 387.138973 100.947442 
L 387.611943 102.367855 
L 387.653702 101.596717 
L 387.810744 101.655104 
L 388.124019 102.807709 
L 388.280254 103.448345 
L 388.436223 101.631744 
L 388.591925 102.231681 
L 388.747363 101.642794 
L 389.057445 102.588539 
L 389.366478 100.192501 
L 389.520604 100.514207 
L 389.981424 102.354898 
L 390.134515 102.029332 
L 390.28735 101.977626 
L 390.439929 102.417047 
L 390.592254 101.850808 
L 390.744325 101.82757 
L 390.896144 100.266358 
L 391.04771 100.111961 
L 391.350089 98.936645 
L 391.500904 98.895116 
L 391.651471 98.616073 
L 391.801789 96.694775 
L 391.95186 97.048038 
L 392.101685 96.84553 
L 392.251264 97.098841 
L 392.589251 98.747882 
L 392.738034 98.65037 
L 393.034875 100.034244 
L 393.330754 101.332846 
L 393.478335 100.764523 
L 393.625677 101.309752 
L 393.772782 100.997719 
L 394.066283 102.078206 
L 394.358843 102.670128 
L 394.504772 102.306282 
L 394.795933 103.127673 
L 394.941165 102.875236 
L 395.086167 102.254102 
L 395.375482 103.170741 
L 395.663883 103.831885 
L 395.951376 104.491248 
L 396.094783 102.573051 
L 396.237966 102.890445 
L 396.523659 104.098326 
L 396.666171 103.750121 
L 396.950529 104.674792 
L 397.092377 103.07556 
L 397.234004 102.978428 
L 397.271587 103.559193 
L 397.554069 104.469667 
L 398.256472 106.811842 
L 398.396306 106.94807 
L 398.535927 107.606144 
L 398.675334 104.686805 
L 398.814529 105.339465 
L 399.092283 103.953053 
L 399.230844 104.080473 
L 399.507336 104.775451 
L 399.645269 104.916775 
L 399.782994 101.302095 
L 399.920511 101.538345 
L 400.057822 102.234406 
L 400.194926 101.698063 
L 400.468518 102.522767 
L 400.605007 101.938138 
L 400.741293 102.015203 
L 401.148932 103.286252 
L 401.284409 103.516956 
L 401.55476 102.890386 
L 401.860053 104.504524 
L 401.994479 104.250533 
L 402.262739 105.512805 
L 402.396573 105.213729 
L 402.530212 104.267876 
L 403.062819 106.073278 
L 403.195487 105.192593 
L 403.327962 105.820457 
L 403.592337 105.159508 
L 403.855949 105.793524 
L 404.249944 107.242258 
L 404.642247 105.951369 
L 405.032871 107.481111 
L 405.162708 106.566349 
L 405.292361 107.207583 
L 405.42183 105.994807 
L 405.551116 106.309968 
L 405.680218 105.244901 
L 405.937878 106.202567 
L 406.100553 107.400447 
L 406.484999 108.321208 
L 406.612789 108.08414 
L 407.249068 110.105593 
L 407.375793 109.90537 
L 407.502343 110.53031 
L 407.628718 110.290492 
L 407.880943 109.127529 
L 408.006795 109.490474 
L 408.383313 108.040583 
L 408.633465 108.879363 
L 408.758284 108.861709 
L 408.882933 109.282529 
L 409.007412 109.090514 
L 409.131721 108.582326 
L 409.255862 109.203327 
L 409.379834 108.581708 
L 409.503637 108.808771 
L 409.627273 108.636432 
L 409.750742 108.728519 
L 409.874044 108.966709 
L 410.02986 107.62691 
L 410.520573 109.252807 
L 410.642841 107.157729 
L 410.886885 107.743959 
L 411.373025 108.914602 
L 411.494157 108.134146 
L 411.735939 109.118587 
L 411.85659 108.837337 
L 412.217591 110.642243 
L 412.457467 109.88982 
L 412.577169 110.373956 
L 412.696714 109.142234 
L 413.054414 110.486346 
L 413.173336 110.315319 
L 413.292104 110.942198 
L 413.410717 110.780362 
L 413.647483 111.618011 
L 413.765635 110.187702 
L 413.914954 110.510553 
L 414.385274 112.723082 
L 414.502476 112.867894 
L 414.73643 111.720648 
L 414.73643 111.720648 
" clip-path="url(#p7c51545d54)" style="fill: none; stroke: #1f77b4; stroke-opacity: 0.4; stroke-linecap: square"/>
   </g>
   <g id="line2d_72">
    <path d="M 53.968492 49.401588 
L 59.854134 50.232245 
L 65.383184 51.513796 
L 70.596393 52.532782 
L 75.527904 53.623922 
L 80.206606 54.330341 
L 88.900784 56.278493 
L 92.955871 56.886055 
L 96.838463 57.861688 
L 104.140817 58.831878 
L 110.902055 60.52716 
L 114.103709 60.895888 
L 117.196869 61.36872 
L 120.188647 60.142427 
L 123.085479 60.850058 
L 123.839744 61.595667 
L 126.624717 62.350029 
L 131.952044 63.479325 
L 134.503485 64.166311 
L 136.985549 64.030304 
L 139.40191 64.67231 
L 141.755957 64.169248 
L 148.474413 65.953967 
L 150.608337 65.177071 
L 152.693517 64.928632 
L 154.732129 65.57029 
L 156.726208 66.01441 
L 160.588264 67.349144 
L 166.091267 69.114262 
L 167.854273 69.209136 
L 171.281314 70.402793 
L 172.947767 70.286436 
L 174.584343 70.792786 
L 176.192095 70.823434 
L 179.325067 71.872931 
L 182.354074 72.400964 
L 183.831704 71.93474 
L 185.285796 72.293321 
L 186.71709 72.80247 
L 187.093535 72.585968 
L 188.496978 72.585975 
L 191.240749 73.238387 
L 192.582316 73.253792 
L 193.904452 73.474759 
L 195.207713 73.853811 
L 197.759712 74.152745 
L 199.009447 74.572437 
L 200.242303 74.83402 
L 201.458732 74.689519 
L 202.659164 75.095431 
L 203.844015 74.464893 
L 205.013685 74.880324 
L 206.168557 75.100361 
L 207.309001 75.465589 
L 208.435374 75.98041 
L 210.647263 76.517995 
L 211.733429 75.589257 
L 212.806824 75.647373 
L 213.867744 76.109585 
L 215.953296 76.571244 
L 216.978472 76.725372 
L 217.992263 75.367336 
L 218.99492 75.809513 
L 219.986683 75.755007 
L 221.938459 73.963602 
L 222.898919 74.494432 
L 223.849378 73.067487 
L 225.038286 73.473792 
L 227.796089 74.996128 
L 228.697148 75.218633 
L 229.5894 75.679866 
L 230.473015 75.767526 
L 232.214994 76.283439 
L 233.073675 76.712757 
L 233.924353 76.535546 
L 236.429836 77.724434 
L 237.249946 77.385586 
L 238.062753 77.572769 
L 238.868387 77.530798 
L 241.243488 78.690202 
L 242.793239 77.93406 
L 244.317119 78.492426 
L 245.069624 77.544851 
L 245.815977 77.388213 
L 246.556278 77.908947 
L 247.290623 78.016228 
L 248.741826 78.660345 
L 249.458867 78.188516 
L 250.170319 78.232492 
L 250.358371 78.387116 
L 251.062874 78.280832 
L 251.761983 78.891852 
L 252.455778 77.935569 
L 253.14434 78.595379 
L 255.179401 79.645156 
L 256.511334 80.97724 
L 257.170083 81.389173 
L 257.824112 82.030503 
L 258.473489 82.483585 
L 259.118279 82.59416 
L 259.758547 83.183226 
L 260.394356 82.209542 
L 261.025766 82.471475 
L 261.65284 82.398289 
L 262.275635 82.751769 
L 262.89421 83.332531 
L 263.508622 82.83588 
L 264.118926 83.347113 
L 264.725177 81.176557 
L 265.327428 79.841604 
L 266.520141 79.27609 
L 267.110704 79.52403 
L 267.697471 79.137003 
L 268.85981 80.59999 
L 269.435477 80.647101 
L 270.007536 81.366814 
L 270.576032 81.376679 
L 270.726446 81.578639 
L 271.290497 80.796214 
L 271.851084 81.491175 
L 272.408249 81.279761 
L 272.962035 82.012431 
L 273.512481 82.014333 
L 274.059628 82.747704 
L 276.216001 83.342522 
L 277.275382 84.530034 
L 277.800497 85.295851 
L 278.322609 85.542166 
L 278.841752 86.247151 
L 279.35796 86.57168 
L 279.871265 87.152101 
L 280.381699 87.504631 
L 280.889296 87.627935 
L 281.394085 87.960347 
L 282.395367 89.115286 
L 282.891919 88.281229 
L 283.385785 88.788079 
L 283.876994 87.798707 
L 284.365573 87.440267 
L 285.334957 88.583804 
L 285.815815 88.51196 
L 286.294154 89.139962 
L 286.77 89.328565 
L 287.243378 88.696061 
L 287.368708 89.196205 
L 287.838999 89.731205 
L 288.772376 89.989398 
L 289.696305 91.220994 
L 290.154787 90.733533 
L 290.610978 88.71874 
L 291.0649 87.536894 
L 292.413279 89.14284 
L 292.858349 89.297305 
L 293.301259 89.656393 
L 293.742031 88.973555 
L 294.180685 89.624018 
L 294.617241 88.312815 
L 295.484139 89.164555 
L 295.914521 89.881661 
L 296.342883 90.020388 
L 296.769245 89.290258 
L 297.193624 89.640257 
L 297.616039 89.392584 
L 298.036509 89.818176 
L 298.455052 89.832055 
L 298.871683 89.496358 
L 299.286423 89.001607 
L 300.519453 90.575876 
L 300.926789 88.746641 
L 301.439733 89.748709 
L 301.842993 89.981427 
L 302.244479 89.905917 
L 302.644207 90.052202 
L 303.438451 90.931427 
L 304.225844 91.715292 
L 304.617008 91.909936 
L 305.006503 91.399845 
L 305.780543 92.101179 
L 306.165116 92.134045 
L 306.548075 92.631209 
L 306.929435 93.323215 
L 307.309208 93.241704 
L 307.687408 93.931082 
L 308.064047 94.331609 
L 308.439138 93.487722 
L 308.812695 94.087519 
L 309.18473 94.357159 
L 309.555254 94.434565 
L 309.92428 93.614781 
L 310.291821 94.263564 
L 310.657888 93.598569 
L 311.022493 93.521487 
L 311.385647 93.767024 
L 311.747363 93.678033 
L 312.10765 94.032045 
L 312.466522 91.24444 
L 312.823988 91.908727 
L 313.18006 92.309596 
L 313.534748 93.047949 
L 313.628731 93.627843 
L 313.981684 93.874976 
L 314.333277 94.578856 
L 315.380005 95.51699 
L 315.726264 95.447525 
L 316.071214 96.03403 
L 316.414866 96.390394 
L 316.757229 95.496659 
L 317.098313 94.9906 
L 317.438127 95.219128 
L 318.113984 96.148697 
L 318.450046 94.77641 
L 319.45087 96.302588 
L 319.782055 95.96953 
L 320.112042 96.528901 
L 320.440841 95.062968 
L 320.768459 95.70873 
L 321.094907 95.750224 
L 321.420191 95.510805 
L 321.74432 96.131077 
L 322.067302 93.996412 
L 322.389145 93.537993 
L 322.709858 93.325748 
L 323.029448 92.70707 
L 323.347923 92.851325 
L 323.665291 92.487846 
L 323.98156 92.80444 
L 325.006808 92.077008 
L 325.629072 93.300593 
L 325.938621 93.301599 
L 326.247124 91.944183 
L 326.554588 92.436666 
L 326.861019 92.578984 
L 327.470814 93.331236 
L 327.77419 93.113441 
L 328.377935 93.693628 
L 328.977714 94.610922 
L 329.276131 94.651161 
L 329.573577 93.220387 
L 330.165576 94.078879 
L 330.460142 94.141512 
L 331.046438 95.27472 
L 331.628993 96.017755 
L 331.918882 95.005789 
L 332.207853 95.015682 
L 332.495913 95.707309 
L 332.783066 95.783991 
L 333.069319 95.370982 
L 333.354678 95.839508 
L 333.639147 95.271025 
L 333.922732 95.852147 
L 333.997911 96.425637 
L 334.280386 96.695933 
L 334.842727 97.652882 
L 335.122603 98.361541 
L 335.401625 97.910702 
L 335.957121 98.676469 
L 336.233607 98.894799 
L 336.509258 98.227336 
L 336.78408 98.487536 
L 337.603614 100.078599 
L 338.415856 100.551129 
L 338.685005 100.966605 
L 338.953363 98.6307 
L 339.487724 97.825055 
L 339.753736 97.159949 
L 340.283446 97.810896 
L 340.547153 97.717278 
L 341.072292 98.932871 
L 341.333733 98.585486 
L 341.594428 98.640658 
L 341.85438 98.39467 
L 342.372074 99.47699 
L 342.629824 99.433738 
L 342.698167 100.103554 
L 342.954999 100.194593 
L 343.211111 100.796179 
L 343.466506 100.106107 
L 343.721189 100.596939 
L 343.975164 99.401546 
L 344.228433 99.556287 
L 344.984053 101.171217 
L 345.234543 101.393152 
L 345.484347 101.44667 
L 345.73347 100.692327 
L 345.981914 101.050745 
L 346.723217 102.615444 
L 346.968986 102.857272 
L 347.214095 101.918781 
L 347.458548 102.047617 
L 347.702348 101.63626 
L 347.945499 102.192835 
L 348.188003 101.462904 
L 348.671088 102.45603 
L 348.911676 102.582367 
L 349.151631 101.767588 
L 349.390957 101.606199 
L 349.867734 102.596868 
L 350.105193 101.409106 
L 351.11122 103.366215 
L 351.34547 103.790255 
L 351.57912 103.347854 
L 352.044634 104.119547 
L 352.507786 104.145977 
L 352.9686 104.892841 
L 353.198138 104.904216 
L 353.4271 102.554029 
L 353.883308 103.696002 
L 354.337248 104.064862 
L 354.788942 105.059313 
L 355.238411 104.882718 
L 355.462319 102.150876 
L 355.685679 102.108287 
L 355.908494 102.75231 
L 356.130766 102.061915 
L 356.352498 102.156678 
L 357.014481 102.840384 
L 357.671699 104.304363 
L 357.889724 104.172078 
L 357.94755 104.755845 
L 358.164918 104.561679 
L 358.38177 104.537585 
L 358.598108 104.284128 
L 358.813934 104.358 
L 359.029251 103.910334 
L 359.244062 104.183606 
L 359.458369 104.821585 
L 359.672173 104.510994 
L 359.885478 104.614506 
L 360.098286 104.943445 
L 360.522419 106.03374 
L 360.94459 106.617665 
L 361.154946 107.081799 
L 361.574209 103.923997 
L 361.78312 102.55292 
L 362.407002 103.618177 
L 362.614019 103.048991 
L 362.820567 103.210315 
L 363.026649 103.178156 
L 363.232266 103.660754 
L 363.437422 103.14395 
L 363.642118 102.943015 
L 363.846355 103.265752 
L 364.253465 103.356057 
L 364.456341 103.431214 
L 364.658767 103.944724 
L 364.712461 104.549445 
L 365.115735 105.573161 
L 365.316706 106.159413 
L 365.517235 106.365376 
L 365.717325 106.319907 
L 366.116193 106.809064 
L 366.513327 107.387099 
L 367.302448 108.728815 
L 367.498667 107.370978 
L 367.694465 107.279865 
L 367.889844 103.189934 
L 368.084806 103.169889 
L 368.473485 103.832924 
L 368.667206 103.594203 
L 368.860516 103.131392 
L 369.053418 103.739716 
L 369.245914 103.614543 
L 369.820976 105.327898 
L 370.011861 105.55848 
L 370.202348 105.444718 
L 370.392438 105.954643 
L 370.582133 105.567511 
L 370.771435 106.190966 
L 371.010458 105.539273 
L 371.198875 105.207139 
L 371.574546 106.013919 
L 371.948676 104.453852 
L 372.135168 104.641078 
L 372.692369 106.409739 
L 373.061956 105.666781 
L 373.430053 106.096688 
L 373.613546 105.295118 
L 373.796671 105.660762 
L 373.979429 105.261797 
L 374.706826 107.579899 
L 374.887773 106.59621 
L 375.068362 106.383948 
L 375.248595 106.593682 
L 375.428472 106.523659 
L 375.607996 106.230764 
L 375.965988 107.155809 
L 376.144459 106.760036 
L 376.500357 107.892449 
L 376.677787 107.239231 
L 376.901854 108.294133 
L 377.078507 107.773433 
L 377.606422 109.139331 
L 377.781717 108.632241 
L 377.956676 108.884508 
L 378.131301 107.736497 
L 378.479552 107.905147 
L 378.999449 108.925025 
L 379.172093 108.241808 
L 379.34441 108.303016 
L 379.688072 109.080295 
L 379.859419 109.612026 
L 380.030445 109.651859 
L 380.371539 110.403394 
L 380.541609 110.224871 
L 380.711363 108.448525 
L 380.880802 108.857504 
L 381.049927 108.844127 
L 381.218739 107.886856 
L 381.38724 107.660177 
L 381.890884 108.419896 
L 382.225109 109.496571 
L 382.391764 109.565981 
L 382.43598 108.987639 
L 382.602251 109.40384 
L 382.76822 107.849723 
L 383.593566 110.182688 
L 383.757743 109.430344 
L 383.921626 109.216859 
L 384.898792 111.090062 
L 385.222203 111.028236 
L 385.38348 110.168887 
L 385.544473 110.352024 
L 385.705182 110.813196 
L 386.025754 110.238737 
L 386.663541 111.961992 
L 386.822293 110.399126 
L 387.138973 111.173882 
L 387.454558 111.974921 
L 387.611943 111.01962 
L 387.653702 111.400206 
L 387.810744 111.650305 
L 388.280254 112.905555 
L 388.747363 113.724398 
L 388.902536 112.742919 
L 389.057445 113.04946 
L 389.212093 112.840413 
L 389.366478 112.879819 
L 389.520604 112.511826 
L 389.981424 113.753708 
L 390.28735 113.456985 
L 390.592254 114.27017 
L 390.744325 114.458447 
L 390.896144 113.983473 
L 391.04771 114.449993 
L 391.199025 114.494832 
L 391.350089 113.198165 
L 391.801789 114.209404 
L 391.95186 112.779433 
L 392.101685 112.629056 
L 392.251264 113.003921 
L 392.54969 112.629482 
L 392.589251 112.11826 
L 392.886575 112.989093 
L 393.034875 112.599892 
L 393.772782 114.85738 
L 393.91965 114.34422 
L 394.504772 115.655299 
L 394.795933 114.962541 
L 395.086167 113.602738 
L 395.663883 115.197137 
L 395.951376 112.922808 
L 396.094783 112.872306 
L 396.237966 110.93778 
L 396.523659 111.583684 
L 396.666171 110.118882 
L 396.808461 110.409722 
L 396.950529 110.439719 
L 397.092377 110.705616 
L 397.234004 109.957593 
L 397.271587 110.072246 
L 397.694982 110.808093 
L 397.976159 111.599365 
L 398.116423 111.604534 
L 398.675334 113.463927 
L 399.230844 114.414455 
L 399.369195 114.023972 
L 399.645269 114.522134 
L 399.782994 114.913308 
L 400.057822 114.578165 
L 400.194926 114.564393 
L 400.605007 115.644055 
L 400.741293 115.108273 
L 401.013255 115.640224 
L 401.148932 114.635595 
L 401.284409 114.510555 
L 401.55476 114.99696 
L 401.689636 114.810709 
L 401.725429 113.356449 
L 401.860053 113.594901 
L 401.994479 113.110615 
L 402.796904 115.544436 
L 402.929959 114.762732 
L 403.592337 116.323931 
L 403.724238 116.048141 
L 404.249944 117.487278 
L 404.380899 116.395574 
L 404.772641 117.27258 
L 405.032871 117.829329 
L 405.162708 117.734102 
L 405.292361 116.6894 
L 405.551116 117.165977 
L 405.680218 117.050233 
L 405.809139 117.284247 
L 405.972043 117.036391 
L 406.100553 117.127995 
L 406.228881 117.442586 
L 406.35703 116.145917 
L 406.484999 116.416135 
L 406.612789 115.366403 
L 406.7404 115.903022 
L 406.867833 115.949324 
L 407.122166 116.50717 
L 407.502343 117.428075 
L 407.754917 117.021797 
L 407.880943 116.955068 
L 408.383313 117.164465 
L 408.508474 116.692579 
L 408.758284 115.140635 
L 409.255862 115.961026 
L 409.503637 116.079211 
L 409.627273 115.307535 
L 410.02986 116.4027 
L 410.152786 115.827389 
L 410.520573 116.922676 
L 410.642841 116.900173 
L 410.886885 117.645096 
L 411.008663 117.576234 
L 411.130279 117.263131 
L 411.494157 118.354631 
L 411.615128 118.422574 
L 411.735939 118.339404 
L 411.85659 118.441862 
L 412.097416 118.969396 
L 412.217591 119.008638 
L 412.337607 119.258575 
L 412.696714 118.182369 
L 412.816103 118.458962 
L 413.054414 116.990142 
L 413.410717 117.742365 
L 413.647483 117.77637 
L 413.883636 116.939806 
L 414.032761 117.608704 
L 414.150417 117.564514 
L 414.73643 118.890228 
L 414.73643 118.890228 
" clip-path="url(#p7c51545d54)" style="fill: none; stroke: #ff7f0e; stroke-opacity: 0.4; stroke-linecap: square"/>
   </g>
   <g id="line2d_73">
    <path d="M 53.968492 50.500407 
L 59.854134 51.477157 
L 65.383184 51.888764 
L 70.596393 51.666736 
L 75.527904 52.936599 
L 80.206606 52.126547 
L 84.657159 52.948744 
L 88.900784 54.061213 
L 92.955871 54.736435 
L 96.838463 54.149637 
L 104.140817 55.688878 
L 107.584018 55.915588 
L 110.902055 56.742882 
L 114.103709 56.152143 
L 117.196869 56.957617 
L 120.188647 57.852192 
L 123.085479 56.795637 
L 123.839744 56.105751 
L 129.327236 57.938652 
L 131.952044 58.57801 
L 134.503485 58.452203 
L 136.985549 59.205852 
L 139.40191 59.572504 
L 141.755957 60.459322 
L 144.050822 60.646727 
L 148.474413 62.276505 
L 150.608337 60.95833 
L 152.693517 61.073481 
L 154.732129 60.519088 
L 158.677659 61.820359 
L 160.588264 61.568092 
L 162.459701 62.161438 
L 164.293541 62.900765 
L 166.091267 63.244193 
L 167.854273 64.048294 
L 169.583875 63.407977 
L 172.947767 64.852736 
L 174.584343 65.236086 
L 176.192095 65.066291 
L 179.325067 66.355759 
L 180.852133 64.294822 
L 182.354074 64.958051 
L 185.285796 64.395115 
L 186.71709 64.691515 
L 187.093535 64.619986 
L 188.496978 65.391399 
L 189.879171 65.68952 
L 191.240749 66.361733 
L 192.582316 65.276566 
L 193.904452 65.998357 
L 196.49263 66.836429 
L 197.759712 66.985886 
L 200.242303 67.633592 
L 201.458732 66.691071 
L 202.659164 67.454067 
L 203.844015 67.142328 
L 205.013685 67.815751 
L 206.168557 66.824166 
L 207.309001 67.285309 
L 208.435374 66.589039 
L 209.548017 67.276833 
L 210.647263 67.517558 
L 211.733429 67.569977 
L 213.867744 68.883735 
L 214.916475 69.082015 
L 216.978472 70.05763 
L 217.992263 70.209028 
L 218.99492 68.257995 
L 220.967787 68.918521 
L 221.938459 68.244195 
L 222.898919 68.873157 
L 224.100189 66.597904 
L 225.038286 67.16598 
L 227.796089 69.402737 
L 228.697148 68.480016 
L 229.5894 68.4233 
L 230.473015 67.618163 
L 231.34816 68.171743 
L 232.214994 68.197037 
L 233.073675 68.86717 
L 233.924353 68.891253 
L 234.767178 69.564252 
L 235.602292 68.299133 
L 237.249946 69.741578 
L 238.062753 67.643885 
L 238.868387 67.729032 
L 239.666973 68.110982 
L 241.243488 69.316289 
L 242.021652 70.091553 
L 243.558358 70.306486 
L 244.317119 70.872753 
L 245.069624 69.928523 
L 245.815977 69.822811 
L 246.556278 70.559619 
L 247.290623 69.75936 
L 248.019108 67.674837 
L 249.458867 68.89712 
L 250.170319 69.647831 
L 250.358371 70.382989 
L 251.761983 71.823634 
L 253.14434 72.403038 
L 254.506076 72.725983 
L 255.179401 71.032847 
L 255.847797 71.263551 
L 257.824112 73.385703 
L 258.473489 72.959932 
L 259.118279 73.12626 
L 259.758547 73.571268 
L 260.394356 71.33478 
L 261.025766 71.978093 
L 261.65284 72.296112 
L 262.275635 73.033387 
L 262.89421 73.000194 
L 264.118926 74.284285 
L 264.725177 74.024526 
L 265.327428 74.566944 
L 265.925733 74.853458 
L 266.520141 73.708492 
L 267.110704 73.770222 
L 268.280491 75.067688 
L 268.85981 74.737276 
L 269.435477 74.07803 
L 270.007536 74.560704 
L 270.576032 73.747194 
L 270.726446 73.763657 
L 271.290497 74.063377 
L 272.408249 75.353884 
L 272.962035 74.690572 
L 273.512481 75.337484 
L 274.059628 75.10003 
L 274.603516 75.217317 
L 275.144182 75.844632 
L 275.681664 74.989179 
L 276.216001 75.472374 
L 276.747228 75.133556 
L 277.275382 75.559085 
L 277.800497 74.121689 
L 278.322609 73.067736 
L 278.841752 73.5391 
L 279.35796 73.298016 
L 279.871265 73.812724 
L 280.381699 74.496201 
L 280.889296 74.924281 
L 281.394085 74.597602 
L 281.896099 73.867074 
L 282.395367 74.374307 
L 282.891919 75.097061 
L 283.876994 75.082044 
L 284.365573 74.481592 
L 284.851552 75.094631 
L 285.334957 74.586395 
L 286.77 76.637787 
L 287.368708 73.861275 
L 287.838999 73.962512 
L 288.30688 73.47938 
L 288.772376 73.236943 
L 289.23551 73.603177 
L 289.696305 73.374442 
L 290.154787 73.500702 
L 290.610978 73.846543 
L 291.0649 74.51676 
L 291.516576 74.46465 
L 291.966028 75.202135 
L 292.858349 75.820841 
L 293.301259 76.088988 
L 294.180685 77.237103 
L 294.617241 75.955978 
L 295.051719 76.107262 
L 295.484139 75.845569 
L 296.342883 77.154438 
L 296.769245 76.232108 
L 298.036509 77.660617 
L 298.455052 76.975676 
L 299.286423 77.610053 
L 299.699286 76.836102 
L 300.11029 77.231809 
L 300.926789 78.590188 
L 301.332317 76.9498 
L 301.439733 77.27464 
L 301.842993 77.774586 
L 302.244479 78.558355 
L 303.042193 79.582358 
L 303.832996 79.091767 
L 304.225844 78.919874 
L 304.617008 76.754028 
L 305.394344 78.223744 
L 305.780543 78.288214 
L 306.548075 79.555914 
L 306.929435 77.982876 
L 307.309208 78.133144 
L 307.687408 78.816577 
L 308.064047 78.064936 
L 308.439138 78.338671 
L 309.555254 79.608835 
L 309.92428 79.764309 
L 310.291821 80.482487 
L 310.657888 79.858252 
L 311.022493 80.422467 
L 311.385647 80.089537 
L 311.747363 80.566328 
L 312.10765 79.046236 
L 312.466522 79.046646 
L 313.534748 80.631013 
L 313.981684 80.84534 
L 314.333277 80.070392 
L 314.683522 79.629654 
L 315.032427 79.723337 
L 315.380005 79.597837 
L 315.726264 79.981089 
L 316.414866 79.385809 
L 316.757229 80.154136 
L 317.438127 78.051968 
L 317.776681 77.599479 
L 318.113984 78.27797 
L 318.450046 78.676602 
L 318.784874 78.354709 
L 319.45087 79.689668 
L 319.782055 78.777752 
L 320.112042 79.192518 
L 320.768459 80.673257 
L 321.094907 80.298773 
L 321.420191 80.634812 
L 322.389145 82.404128 
L 322.709858 82.203093 
L 323.029448 82.833099 
L 323.347923 83.21252 
L 323.665291 82.747778 
L 323.98156 82.768678 
L 324.380272 82.2168 
L 325.31847 83.046042 
L 325.629072 83.732106 
L 325.938621 84.129508 
L 326.247124 83.784193 
L 326.554588 84.408048 
L 326.861019 84.325697 
L 327.166426 84.786983 
L 328.076562 85.548497 
L 328.377935 85.983837 
L 328.678317 85.957433 
L 329.276131 86.847221 
L 329.573577 87.264724 
L 329.870056 87.456013 
L 330.165576 87.954604 
L 330.460142 88.200109 
L 330.753761 88.629326 
L 331.046438 87.497499 
L 331.33818 87.957688 
L 331.628993 86.984496 
L 331.918882 86.936231 
L 332.207853 87.076274 
L 332.495913 87.514055 
L 332.783066 87.321575 
L 333.922732 89.280759 
L 333.997911 89.82093 
L 334.280386 89.760147 
L 334.56199 89.528035 
L 334.842727 89.499103 
L 335.122603 90.134658 
L 335.401625 89.842355 
L 335.679796 88.274293 
L 335.957121 88.945654 
L 336.233607 89.005561 
L 336.509258 88.915035 
L 336.78408 89.272913 
L 337.603614 90.728082 
L 337.875165 91.047699 
L 338.145911 90.702676 
L 339.220935 92.648408 
L 339.753736 92.637954 
L 340.018976 92.309124 
L 340.283446 92.510539 
L 340.547153 92.125818 
L 341.072292 93.017487 
L 341.333733 92.96741 
L 341.594428 93.445415 
L 341.85438 92.323661 
L 342.372074 92.6151 
L 343.466506 94.409692 
L 343.721189 94.445236 
L 343.975164 94.909958 
L 344.228433 95.029897 
L 344.481002 93.901567 
L 344.984053 94.786382 
L 345.234543 94.637525 
L 345.484347 95.019362 
L 345.73347 94.332701 
L 346.229685 95.215747 
L 346.723217 92.89521 
L 346.968986 92.746375 
L 347.214095 93.059519 
L 347.458548 93.183327 
L 347.702348 91.649512 
L 347.945499 91.936186 
L 348.429865 93.064275 
L 348.911676 93.907267 
L 349.867734 95.598428 
L 350.105193 95.545902 
L 350.578264 95.911446 
L 350.64091 95.943727 
L 351.11122 96.758771 
L 351.34547 96.980388 
L 351.812174 97.875709 
L 352.044634 97.655646 
L 352.276504 98.076816 
L 352.507786 98.138592 
L 352.738484 95.831376 
L 353.4271 97.441913 
L 353.655489 97.675705 
L 353.883308 97.587077 
L 354.11056 96.613275 
L 354.788942 97.699358 
L 355.013953 95.744554 
L 355.238411 96.283548 
L 355.462319 95.779875 
L 355.685679 95.655002 
L 355.908494 96.224532 
L 356.130766 96.089209 
L 356.352498 96.693443 
L 356.794353 96.245192 
L 357.014481 95.03368 
L 357.23408 95.471653 
L 357.453152 94.421901 
L 357.671699 94.339441 
L 357.889724 94.002917 
L 357.94755 94.62805 
L 358.813934 96.35846 
L 359.029251 96.57408 
L 359.244062 96.622855 
L 359.458369 96.541657 
L 359.672173 96.87766 
L 359.885478 96.901115 
L 360.098286 96.434368 
L 360.310599 96.690833 
L 360.733748 97.711052 
L 360.94459 97.427188 
L 361.78312 94.131004 
L 361.991555 94.745663 
L 362.199515 94.731294 
L 362.614019 95.797619 
L 362.820567 95.592847 
L 363.026649 95.573941 
L 363.232266 96.06291 
L 363.437422 96.227523 
L 363.642118 96.83777 
L 364.253465 97.265263 
L 364.456341 97.551082 
L 364.658767 97.635247 
L 364.712461 98.034994 
L 365.115735 98.254165 
L 365.717325 99.625581 
L 365.916977 99.837864 
L 366.116193 99.576569 
L 366.314976 99.823069 
L 366.513327 99.689243 
L 366.711248 99.830495 
L 367.105806 100.704561 
L 367.302448 100.548901 
L 367.498667 100.618579 
L 367.889844 101.294043 
L 368.084806 100.834507 
L 368.279353 101.147701 
L 368.473485 100.917822 
L 368.667206 100.982358 
L 368.860516 100.264057 
L 369.053418 100.759175 
L 369.245914 99.258083 
L 369.62969 100.062651 
L 370.011861 100.730192 
L 370.392438 100.980883 
L 370.582133 101.505417 
L 370.771435 101.392579 
L 371.198875 100.387012 
L 371.574546 100.877588 
L 371.761803 100.854774 
L 371.948676 100.65905 
L 372.135168 101.037282 
L 372.507013 100.330831 
L 372.692369 100.824404 
L 372.87735 100.206156 
L 373.061956 100.764726 
L 373.24619 100.547345 
L 373.430053 100.636196 
L 373.796671 101.549727 
L 374.343852 100.569054 
L 374.525519 99.243303 
L 374.706826 99.783141 
L 374.887773 99.664812 
L 375.068362 98.598737 
L 375.248595 98.435198 
L 375.607996 99.116578 
L 376.322582 100.833461 
L 376.677787 101.32298 
L 376.901854 101.208501 
L 377.078507 101.461152 
L 377.606422 102.948569 
L 377.781717 103.149219 
L 377.956676 103.141249 
L 378.131301 102.34413 
L 378.305593 102.375412 
L 378.479552 102.672613 
L 378.65318 102.606912 
L 378.826479 103.077745 
L 378.999449 103.012177 
L 379.34441 103.107428 
L 379.859419 103.643564 
L 380.030445 103.623904 
L 380.201152 103.485857 
L 380.371539 103.752064 
L 380.541609 103.166953 
L 381.049927 104.213254 
L 381.218739 103.366714 
L 381.38724 103.952526 
L 381.55543 102.734881 
L 381.890884 103.29758 
L 382.391764 104.061139 
L 382.43598 104.451087 
L 382.933887 105.582056 
L 383.264322 106.546752 
L 383.757743 103.358154 
L 384.085215 103.562876 
L 384.574231 104.871303 
L 384.736656 103.47665 
L 384.898792 103.948589 
L 385.060641 104.060013 
L 385.544473 105.287765 
L 385.705182 104.729316 
L 385.865609 104.633796 
L 386.025754 103.577894 
L 386.185619 104.076917 
L 386.345204 103.75983 
L 386.663541 104.550705 
L 386.822293 104.412571 
L 387.138973 104.856199 
L 387.611943 105.199397 
L 387.653702 105.682068 
L 387.810744 105.322094 
L 387.967516 105.28925 
L 388.280254 105.738905 
L 388.591925 106.275193 
L 389.366478 107.632543 
L 389.674469 106.456784 
L 389.828075 106.945213 
L 389.981424 106.719323 
L 390.439929 107.877856 
L 390.592254 108.142734 
L 390.744325 107.485609 
L 390.896144 107.599165 
L 391.350089 107.264647 
L 391.651471 108.020339 
L 391.801789 107.75269 
L 392.400599 108.845534 
L 392.54969 109.01081 
L 392.589251 108.317091 
L 392.886575 109.085251 
L 393.034875 108.785636 
L 393.182935 108.76204 
L 393.330754 107.474185 
L 393.625677 107.388901 
L 394.066283 108.106979 
L 394.358843 107.237097 
L 394.504772 107.427773 
L 394.795933 108.093108 
L 394.941165 108.421654 
L 395.086167 107.964401 
L 395.375482 108.708281 
L 395.519796 108.72707 
L 395.663883 108.378404 
L 395.807742 107.438823 
L 395.951376 107.340927 
L 396.094783 107.668766 
L 396.237966 106.917762 
L 396.523659 107.867309 
L 396.666171 107.803617 
L 396.808461 108.331104 
L 397.234004 107.209103 
L 397.412937 108.156396 
L 397.554069 108.650013 
L 397.694982 106.601385 
L 397.976159 107.486691 
L 398.116423 106.559623 
L 398.675334 108.482919 
L 398.814529 108.149995 
L 399.230844 108.76796 
L 399.369195 107.866321 
L 399.507336 107.751813 
L 399.782994 108.499504 
L 400.057822 108.584256 
L 400.194926 108.941812 
L 400.331824 108.745201 
L 400.468518 108.028026 
L 400.605007 108.081657 
L 400.741293 108.278586 
L 400.877375 107.641352 
L 401.013255 108.006448 
L 401.148932 106.23189 
L 401.419684 107.293368 
L 401.689636 106.76113 
L 401.860053 107.566993 
L 401.994479 107.997922 
L 402.262739 106.993165 
L 402.396573 107.482957 
L 402.530212 107.437666 
L 402.796904 108.377643 
L 402.929959 108.078472 
L 403.195487 108.997436 
L 403.327962 108.46475 
L 403.460245 107.12591 
L 403.724238 107.639553 
L 403.855949 106.92802 
L 403.98747 107.407452 
L 404.118801 107.394426 
L 404.249944 107.756032 
L 404.380899 107.64058 
L 404.511667 107.752313 
L 404.772641 108.495137 
L 404.902848 108.412997 
L 405.032871 107.816266 
L 405.162708 107.88056 
L 405.292361 108.279469 
L 405.42183 107.981699 
L 405.551116 108.268534 
L 405.809139 109.371286 
L 405.937878 109.310782 
L 406.100553 110.087787 
L 406.228881 109.807594 
L 406.484999 110.719105 
L 406.612789 109.549675 
L 406.867833 110.344458 
L 406.995088 110.421286 
L 407.249068 111.052535 
L 407.375793 111.132475 
L 407.502343 110.995099 
L 407.754917 111.477915 
L 408.006795 111.960756 
L 408.132473 112.410739 
L 408.257979 110.956805 
L 408.383313 110.802748 
L 408.633465 111.259609 
L 408.758284 110.723688 
L 408.882933 110.743671 
L 409.131721 110.235187 
L 409.255862 110.546146 
L 409.379834 110.366878 
L 409.750742 111.094982 
L 409.874044 110.443568 
L 410.398142 112.004683 
L 410.520573 110.969892 
L 410.642841 110.889116 
L 410.764944 107.533105 
L 410.886885 107.817843 
L 411.251733 109.064061 
L 411.373025 109.4217 
L 411.494157 109.369709 
L 411.615128 109.53694 
L 411.977082 110.550766 
L 412.097416 110.187989 
L 413.292104 113.079687 
L 413.410717 112.198349 
L 413.765635 113.115699 
L 414.385274 114.648718 
L 414.502476 113.385237 
L 414.619528 113.402516 
L 414.73643 113.569589 
L 414.73643 113.569589 
" clip-path="url(#p7c51545d54)" style="fill: none; stroke: #2ca02c; stroke-opacity: 0.4; stroke-linecap: square"/>
   </g>
   <g id="line2d_74">
    <path d="M 53.968492 53.200971 
L 59.854134 53.884574 
L 65.383184 54.408305 
L 70.596393 53.626061 
L 75.527904 54.756643 
L 80.206606 54.015131 
L 84.657159 54.92777 
L 88.900784 55.97898 
L 92.955871 56.274212 
L 104.140817 58.823543 
L 107.584018 59.385198 
L 110.902055 59.712774 
L 117.196869 60.762327 
L 120.188647 60.918715 
L 123.085479 61.458949 
L 123.839744 61.785921 
L 126.624717 62.598141 
L 134.503485 63.056576 
L 144.050822 65.252452 
L 148.474413 66.743077 
L 150.608337 66.714623 
L 152.693517 66.059336 
L 154.732129 66.48535 
L 156.726208 67.153118 
L 158.677659 67.571061 
L 160.588264 67.483676 
L 164.293541 68.656072 
L 166.091267 68.325436 
L 167.854273 67.886766 
L 169.583875 66.614675 
L 172.947767 67.92165 
L 174.584343 68.16816 
L 177.77202 69.242754 
L 179.325067 69.782575 
L 180.852133 68.922845 
L 182.354074 69.630976 
L 183.831704 70.165222 
L 187.093535 69.14998 
L 188.496978 69.813203 
L 189.879171 69.934106 
L 191.240749 70.27373 
L 192.582316 70.0653 
L 193.904452 70.640863 
L 195.207713 70.728053 
L 199.009447 72.533353 
L 200.242303 71.537838 
L 201.458732 71.574229 
L 202.659164 71.956966 
L 203.844015 70.482265 
L 206.168557 71.736391 
L 207.309001 71.984155 
L 208.435374 72.459081 
L 209.548017 71.829784 
L 210.647263 72.444404 
L 211.733429 72.633723 
L 213.867744 73.804308 
L 214.916475 72.354388 
L 215.953296 70.186303 
L 217.992263 71.257102 
L 218.99492 71.539648 
L 221.938459 73.076367 
L 222.898919 73.315663 
L 224.100189 71.70645 
L 225.038286 72.404089 
L 225.966842 72.95328 
L 226.886047 72.881717 
L 228.697148 73.56817 
L 229.5894 73.614225 
L 230.473015 73.035794 
L 231.34816 73.635881 
L 232.214994 72.824485 
L 233.924353 73.883633 
L 236.429836 75.422318 
L 237.249946 75.652412 
L 238.062753 73.479404 
L 238.868387 73.04639 
L 239.666973 73.237897 
L 240.458634 73.845325 
L 241.243488 74.236531 
L 242.021652 74.018767 
L 243.558358 74.120281 
L 244.317119 74.720619 
L 245.069624 74.999019 
L 245.815977 74.98987 
L 246.556278 75.561624 
L 247.290623 75.4042 
L 248.019108 72.375966 
L 248.741826 73.010134 
L 249.458867 72.899161 
L 250.170319 72.937468 
L 250.358371 73.428121 
L 251.062874 72.901067 
L 251.761983 73.599375 
L 252.455778 73.827246 
L 253.14434 74.216257 
L 253.827747 74.823556 
L 254.506076 75.221781 
L 255.179401 75.8824 
L 255.847797 75.98496 
L 256.511334 76.550232 
L 257.170083 75.46003 
L 257.824112 75.897789 
L 258.473489 74.069485 
L 259.118279 73.060332 
L 259.758547 73.467307 
L 260.394356 72.620329 
L 261.025766 73.194066 
L 261.65284 73.465001 
L 262.89421 74.646574 
L 264.118926 75.330815 
L 264.725177 75.342881 
L 265.327428 74.54222 
L 266.520141 74.758382 
L 267.110704 74.518916 
L 267.697471 74.934418 
L 268.280491 75.591423 
L 268.85981 76.029288 
L 269.435477 75.743151 
L 270.007536 75.636933 
L 270.576032 75.148969 
L 270.726446 75.644033 
L 271.851084 74.707458 
L 272.408249 75.311346 
L 272.962035 75.486965 
L 273.512481 75.366488 
L 274.059628 75.04779 
L 275.144182 76.242484 
L 275.681664 75.159878 
L 276.216001 75.854771 
L 276.747228 75.909645 
L 277.275382 76.296625 
L 277.800497 74.902648 
L 278.322609 74.611424 
L 278.841752 75.200876 
L 279.35796 74.881708 
L 279.871265 75.456891 
L 280.889296 76.073802 
L 281.394085 75.534612 
L 281.896099 75.606858 
L 282.395367 76.078516 
L 282.891919 75.686766 
L 283.385785 76.079802 
L 283.876994 76.72904 
L 284.365573 76.302307 
L 284.851552 76.966287 
L 285.334957 76.85323 
L 286.294154 78.117101 
L 286.77 78.272376 
L 287.243378 78.164893 
L 287.368708 76.678054 
L 287.838999 76.896019 
L 288.30688 76.567503 
L 288.772376 75.033781 
L 289.23551 75.080215 
L 289.696305 75.583274 
L 290.610978 76.174051 
L 291.0649 76.86521 
L 291.516576 77.338846 
L 291.966028 77.485891 
L 292.413279 76.470377 
L 292.858349 77.091334 
L 293.301259 76.522648 
L 293.742031 77.030291 
L 294.180685 77.74672 
L 294.617241 76.276716 
L 295.484139 76.323866 
L 296.342883 77.626197 
L 296.769245 76.749898 
L 297.193624 77.362836 
L 297.616039 77.189557 
L 298.036509 77.612887 
L 298.455052 77.324715 
L 298.871683 77.579299 
L 299.286423 78.205927 
L 299.699286 78.261198 
L 300.11029 78.165713 
L 300.926789 79.479542 
L 301.332317 77.459665 
L 301.439733 76.322144 
L 301.842993 76.125368 
L 302.644207 77.561584 
L 303.042193 77.402142 
L 303.438451 77.031398 
L 303.832996 76.354533 
L 304.225844 76.043583 
L 304.617008 75.98687 
L 305.006503 76.187136 
L 305.394344 76.951839 
L 306.165116 77.388065 
L 306.548075 77.910988 
L 306.929435 76.423042 
L 307.687408 77.543682 
L 308.439138 76.550778 
L 308.812695 76.843554 
L 309.555254 77.595968 
L 309.92428 77.248666 
L 310.291821 77.85813 
L 310.657888 77.950551 
L 311.022493 78.655274 
L 311.385647 78.525021 
L 311.747363 78.516277 
L 312.10765 77.568016 
L 312.466522 77.53956 
L 312.823988 77.902059 
L 313.18006 78.080949 
L 313.534748 78.582388 
L 313.628731 78.2998 
L 313.981684 78.754885 
L 314.333277 78.677449 
L 315.032427 79.505171 
L 315.380005 79.079495 
L 315.726264 79.14667 
L 316.071214 78.772913 
L 316.414866 78.606847 
L 316.757229 79.1548 
L 317.776681 76.608407 
L 318.450046 77.408392 
L 318.784874 77.110953 
L 319.45087 78.195918 
L 319.782055 77.220308 
L 320.768459 78.833396 
L 321.094907 78.817931 
L 321.420191 79.53447 
L 321.74432 79.443506 
L 322.067302 79.618234 
L 322.389145 80.31548 
L 322.709858 78.732305 
L 323.347923 80.070922 
L 323.665291 80.635505 
L 323.98156 80.145818 
L 324.296736 80.805565 
L 324.380272 80.21121 
L 324.694077 80.399556 
L 325.006808 80.130582 
L 325.31847 80.163388 
L 325.629072 80.336164 
L 325.938621 79.692626 
L 326.554588 81.042636 
L 326.861019 80.835279 
L 327.470814 81.112539 
L 327.77419 79.733265 
L 328.076562 79.828322 
L 328.977714 81.472436 
L 329.276131 81.278652 
L 329.573577 81.969791 
L 329.870056 82.370561 
L 330.165576 82.978522 
L 330.460142 83.16978 
L 330.753761 81.838337 
L 331.046438 81.751789 
L 331.628993 82.832744 
L 331.918882 83.053091 
L 332.207853 81.68092 
L 332.495913 82.194822 
L 332.783066 81.937695 
L 333.069319 82.44432 
L 333.354678 81.906571 
L 333.922732 83.027299 
L 334.280386 81.973882 
L 334.56199 82.491449 
L 334.842727 82.254564 
L 335.401625 83.591476 
L 335.679796 83.100761 
L 335.957121 83.013098 
L 336.233607 83.404528 
L 336.509258 83.452968 
L 336.78408 83.379688 
L 337.331252 84.472932 
L 337.875165 84.73858 
L 338.145911 85.339065 
L 338.415856 84.988987 
L 338.953363 86.125957 
L 339.487724 84.457365 
L 339.753736 84.842797 
L 340.018976 84.010708 
L 340.283446 84.290315 
L 340.547153 84.806528 
L 340.8101 85.018498 
L 341.594428 86.576457 
L 341.85438 86.303141 
L 342.113594 86.882956 
L 342.372074 87.139057 
L 342.629824 87.685282 
L 342.954999 85.543533 
L 343.211111 86.15314 
L 343.466506 85.372033 
L 343.721189 85.912242 
L 343.975164 85.709483 
L 344.228433 86.044168 
L 344.481002 86.671887 
L 344.984053 87.069409 
L 345.234543 85.740245 
L 345.484347 85.042147 
L 345.73347 85.545179 
L 345.981914 85.517394 
L 346.229685 84.224863 
L 346.476784 84.827649 
L 346.723217 84.497655 
L 346.968986 85.167825 
L 347.214095 85.039606 
L 347.458548 85.555658 
L 347.702348 85.122399 
L 347.945499 85.718974 
L 348.188003 85.485837 
L 348.429865 85.504831 
L 348.671088 85.055286 
L 349.390957 86.693022 
L 349.629657 86.760195 
L 350.342035 84.90792 
L 350.578264 85.415096 
L 350.64091 86.006588 
L 351.11122 87.004847 
L 351.34547 86.449955 
L 351.57912 84.981683 
L 352.044634 86.080873 
L 352.276504 85.868797 
L 352.738484 87.193733 
L 352.9686 86.106399 
L 353.198138 84.134426 
L 353.4271 84.244765 
L 354.11056 86.160156 
L 354.337248 85.87193 
L 354.788942 86.966859 
L 355.013953 85.803963 
L 355.238411 86.157916 
L 355.685679 86.193071 
L 356.130766 87.22305 
L 356.352498 87.119566 
L 356.573693 87.388917 
L 356.794353 87.283803 
L 357.23408 88.169697 
L 357.453152 87.602432 
L 357.671699 88.275562 
L 357.94755 86.070264 
L 358.598108 87.139233 
L 359.029251 87.063868 
L 359.244062 87.257845 
L 359.458369 86.177256 
L 359.672173 85.979194 
L 359.885478 86.086143 
L 360.098286 84.906322 
L 360.310599 85.092459 
L 360.733748 85.719988 
L 361.154946 84.621766 
L 361.364818 84.930806 
L 361.574209 84.345777 
L 361.991555 85.48162 
L 362.199515 85.299058 
L 362.407002 84.93354 
L 362.614019 85.687838 
L 362.820567 85.981269 
L 363.026649 86.503471 
L 363.232266 86.190485 
L 363.437422 86.236181 
L 363.642118 86.698925 
L 363.846355 86.501465 
L 364.253465 87.605294 
L 364.456341 87.495277 
L 364.658767 87.886991 
L 364.712461 87.762045 
L 364.914321 87.53643 
L 365.316706 88.520645 
L 365.517235 88.200399 
L 365.717325 88.385747 
L 366.314976 90.319679 
L 366.513327 89.984442 
L 366.711248 89.387654 
L 366.90874 90.022427 
L 367.302448 90.563381 
L 367.498667 91.029034 
L 367.694465 90.513122 
L 368.084806 88.550595 
L 368.279353 89.174969 
L 368.473485 88.881327 
L 368.667206 88.85008 
L 368.860516 89.38952 
L 369.053418 89.499103 
L 369.245914 90.213469 
L 369.438004 88.755094 
L 369.62969 89.191227 
L 369.820976 89.950753 
L 370.011861 90.156524 
L 370.202348 89.594638 
L 370.392438 89.596756 
L 370.582133 89.330234 
L 370.771435 88.632087 
L 370.960345 89.095684 
L 371.010458 89.818848 
L 371.198875 88.940915 
L 371.386903 89.705403 
L 371.574546 89.551155 
L 371.948676 90.552367 
L 372.32128 90.742489 
L 372.507013 91.254502 
L 372.692369 91.28705 
L 373.061956 92.451484 
L 373.24619 91.783813 
L 373.430053 91.56834 
L 373.613546 92.208918 
L 373.796671 92.441162 
L 373.979429 92.3106 
L 374.161823 92.585635 
L 374.525519 90.977839 
L 374.706826 91.670777 
L 374.887773 89.812434 
L 375.068362 89.443533 
L 375.428472 90.065481 
L 375.607996 89.693798 
L 376.854873 93.038859 
L 376.901854 92.592492 
L 377.078507 93.197251 
L 377.254818 92.142495 
L 377.430789 90.11449 
L 377.606422 90.627836 
L 377.781717 90.626649 
L 378.305593 92.410498 
L 378.479552 92.102992 
L 378.826479 93.227894 
L 378.999449 93.088576 
L 379.172093 92.75212 
L 379.859419 95.185196 
L 380.201152 96.034145 
L 380.541609 93.675303 
L 380.711363 94.385998 
L 380.880802 93.283068 
L 381.049927 93.31944 
L 381.218739 93.058674 
L 381.890884 95.191102 
L 382.058149 95.833847 
L 382.391764 94.215785 
L 382.43598 94.681328 
L 382.602251 94.673527 
L 382.76822 94.853269 
L 382.933887 94.781678 
L 383.099254 94.194933 
L 383.264322 94.372966 
L 383.429092 93.073342 
L 384.085215 95.49719 
L 384.248512 95.323034 
L 384.411516 94.572679 
L 384.574231 94.81656 
L 384.736656 93.168762 
L 385.060641 94.471112 
L 385.222203 94.013322 
L 385.38348 94.179113 
L 385.705182 95.087233 
L 385.865609 93.284779 
L 386.025754 93.727779 
L 386.185619 93.545572 
L 386.504511 93.729893 
L 386.663541 94.125185 
L 386.822293 94.120697 
L 387.296902 95.808914 
L 387.454558 95.474422 
L 387.611943 96.129114 
L 387.653702 95.476094 
L 387.810744 94.817411 
L 388.124019 96.098852 
L 388.280254 95.369542 
L 389.057445 98.113297 
L 389.212093 98.731205 
L 389.520604 98.219597 
L 389.674469 97.571319 
L 389.981424 97.760059 
L 390.134515 96.657319 
L 390.439929 97.361614 
L 390.592254 96.978512 
L 390.744325 97.25236 
L 390.896144 97.068573 
L 391.04771 95.337231 
L 391.350089 96.396791 
L 391.651471 97.472163 
L 392.101685 98.545666 
L 392.400599 95.882436 
L 392.54969 95.935776 
L 392.589251 95.265031 
L 392.738034 95.25656 
L 392.886575 95.760805 
L 393.034875 95.034083 
L 393.330754 96.071802 
L 393.625677 97.194417 
L 393.772782 97.841424 
L 393.91965 96.567493 
L 394.066283 96.463371 
L 394.358843 97.392673 
L 394.504772 96.883515 
L 395.230939 99.313968 
L 395.375482 99.015836 
L 395.519796 98.175907 
L 395.663883 98.56426 
L 395.807742 98.566634 
L 396.237966 100.269218 
L 396.523659 98.732963 
L 396.666171 98.712908 
L 397.554069 102.284472 
L 397.694982 101.63869 
L 398.116423 102.892033 
L 398.256472 101.614309 
L 398.675334 102.785416 
L 399.092283 103.831663 
L 399.369195 100.742425 
L 399.507336 100.532224 
L 400.057822 102.649685 
L 400.194926 102.323425 
L 400.468518 103.221763 
L 400.605007 102.961407 
L 401.148932 103.484687 
L 401.419684 102.81388 
L 401.689636 103.731294 
L 401.725429 103.436262 
L 401.994479 104.217899 
L 402.128707 103.780227 
L 402.796904 105.679257 
L 402.929959 103.589041 
L 403.460245 104.995666 
L 403.592337 103.967736 
L 403.724238 104.391075 
L 403.855949 104.031328 
L 404.642247 106.72501 
L 404.772641 105.185065 
L 404.902848 105.644435 
L 405.032871 104.634899 
L 405.292361 105.199962 
L 405.551116 105.376652 
L 405.680218 104.978911 
L 406.228881 106.368047 
L 406.35703 105.205736 
L 406.484999 105.703674 
L 406.612789 105.208768 
L 406.7404 105.219649 
L 406.867833 105.680741 
L 406.995088 105.686266 
L 407.628718 107.352885 
L 407.754917 106.056026 
L 407.880943 106.503694 
L 408.006795 106.350859 
L 408.257979 107.205844 
L 408.383313 107.160899 
L 408.633465 107.7929 
L 408.758284 107.772582 
L 408.882933 107.902518 
L 409.007412 107.758737 
L 409.255862 108.206069 
L 409.503637 107.624726 
L 409.627273 108.086115 
L 409.750742 107.980991 
L 409.874044 107.301775 
L 410.02986 108.081892 
L 410.275546 107.301123 
L 410.398142 107.583161 
L 410.520573 107.139583 
L 410.642841 107.565136 
L 410.764944 106.537158 
L 411.008663 107.157244 
L 411.130279 106.982066 
L 411.494157 108.127975 
L 411.615128 106.849443 
L 411.735939 106.803042 
L 411.977082 107.379315 
L 412.217591 107.635984 
L 412.457467 108.455201 
L 412.577169 107.045519 
L 412.816103 107.613709 
L 412.935336 107.831842 
L 413.173336 108.523249 
L 413.292104 108.816152 
L 413.410717 107.350778 
L 413.883636 108.634218 
L 413.914954 108.447972 
L 414.150417 109.130372 
L 414.267921 108.240465 
L 414.385274 108.521742 
L 414.502476 108.436003 
L 414.619528 108.87476 
L 414.73643 108.194195 
L 414.73643 108.194195 
" clip-path="url(#p7c51545d54)" style="fill: none; stroke: #d62728; stroke-opacity: 0.4; stroke-linecap: square"/>
   </g>
   <g id="patch_3">
    <path d="M 57.6 307.584 
L 57.6 41.472 
" style="fill: none; stroke: #000000; stroke-width: 0.8; stroke-linejoin: miter; stroke-linecap: square"/>
   </g>
   <g id="patch_4">
    <path d="M 414.72 307.584 
L 414.72 41.472 
" style="fill: none; stroke: #000000; stroke-width: 0.8; stroke-linejoin: miter; stroke-linecap: square"/>
   </g>
   <g id="patch_5">
    <path d="M 57.6 307.584 
L 414.72 307.584 
" style="fill: none; stroke: #000000; stroke-width: 0.8; stroke-linejoin: miter; stroke-linecap: square"/>
   </g>
   <g id="patch_6">
    <path d="M 57.6 41.472 
L 414.72 41.472 
" style="fill: none; stroke: #000000; stroke-width: 0.8; stroke-linejoin: miter; stroke-linecap: square"/>
   </g>
   <g id="text_12">
    <!-- 2025-02-21-09:06:40 zoomed in + ewm(16.0).mean() -->
    <g transform="translate(74.128125 35.472) scale(0.12 -0.12)">
     <defs>
      <path id="DejaVuSans-2d" d="M 313 2009 
L 1997 2009 
L 1997 1497 
L 313 1497 
L 313 2009 
z
" transform="scale(0.015625)"/>
      <path id="DejaVuSans-39" d="M 703 97 
L 703 672 
Q 941 559 1184 500 
Q 1428 441 1663 441 
Q 2288 441 2617 861 
Q 2947 1281 2994 2138 
Q 2813 1869 2534 1725 
Q 2256 1581 1919 1581 
Q 1219 1581 811 2004 
Q 403 2428 403 3163 
Q 403 3881 828 4315 
Q 1253 4750 1959 4750 
Q 2769 4750 3195 4129 
Q 3622 3509 3622 2328 
Q 3622 1225 3098 567 
Q 2575 -91 1691 -91 
Q 1453 -91 1209 -44 
Q 966 3 703 97 
z
M 1959 2075 
Q 2384 2075 2632 2365 
Q 2881 2656 2881 3163 
Q 2881 3666 2632 3958 
Q 2384 4250 1959 4250 
Q 1534 4250 1286 3958 
Q 1038 3666 1038 3163 
Q 1038 2656 1286 2365 
Q 1534 2075 1959 2075 
z
" transform="scale(0.015625)"/>
      <path id="DejaVuSans-3a" d="M 750 794 
L 1409 794 
L 1409 0 
L 750 0 
L 750 794 
z
M 750 3309 
L 1409 3309 
L 1409 2516 
L 750 2516 
L 750 3309 
z
" transform="scale(0.015625)"/>
      <path id="DejaVuSans-20" transform="scale(0.015625)"/>
      <path id="DejaVuSans-7a" d="M 353 3500 
L 3084 3500 
L 3084 2975 
L 922 459 
L 3084 459 
L 3084 0 
L 275 0 
L 275 525 
L 2438 3041 
L 353 3041 
L 353 3500 
z
" transform="scale(0.015625)"/>
      <path id="DejaVuSans-6d" d="M 3328 2828 
Q 3544 3216 3844 3400 
Q 4144 3584 4550 3584 
Q 5097 3584 5394 3201 
Q 5691 2819 5691 2113 
L 5691 0 
L 5113 0 
L 5113 2094 
Q 5113 2597 4934 2840 
Q 4756 3084 4391 3084 
Q 3944 3084 3684 2787 
Q 3425 2491 3425 1978 
L 3425 0 
L 2847 0 
L 2847 2094 
Q 2847 2600 2669 2842 
Q 2491 3084 2119 3084 
Q 1678 3084 1418 2786 
Q 1159 2488 1159 1978 
L 1159 0 
L 581 0 
L 581 3500 
L 1159 3500 
L 1159 2956 
Q 1356 3278 1631 3431 
Q 1906 3584 2284 3584 
Q 2666 3584 2933 3390 
Q 3200 3197 3328 2828 
z
" transform="scale(0.015625)"/>
      <path id="DejaVuSans-64" d="M 2906 2969 
L 2906 4863 
L 3481 4863 
L 3481 0 
L 2906 0 
L 2906 525 
Q 2725 213 2448 61 
Q 2172 -91 1784 -91 
Q 1150 -91 751 415 
Q 353 922 353 1747 
Q 353 2572 751 3078 
Q 1150 3584 1784 3584 
Q 2172 3584 2448 3432 
Q 2725 3281 2906 2969 
z
M 947 1747 
Q 947 1113 1208 752 
Q 1469 391 1925 391 
Q 2381 391 2643 752 
Q 2906 1113 2906 1747 
Q 2906 2381 2643 2742 
Q 2381 3103 1925 3103 
Q 1469 3103 1208 2742 
Q 947 2381 947 1747 
z
" transform="scale(0.015625)"/>
      <path id="DejaVuSans-6e" d="M 3513 2113 
L 3513 0 
L 2938 0 
L 2938 2094 
Q 2938 2591 2744 2837 
Q 2550 3084 2163 3084 
Q 1697 3084 1428 2787 
Q 1159 2491 1159 1978 
L 1159 0 
L 581 0 
L 581 3500 
L 1159 3500 
L 1159 2956 
Q 1366 3272 1645 3428 
Q 1925 3584 2291 3584 
Q 2894 3584 3203 3211 
Q 3513 2838 3513 2113 
z
" transform="scale(0.015625)"/>
      <path id="DejaVuSans-2b" d="M 2944 4013 
L 2944 2272 
L 4684 2272 
L 4684 1741 
L 2944 1741 
L 2944 0 
L 2419 0 
L 2419 1741 
L 678 1741 
L 678 2272 
L 2419 2272 
L 2419 4013 
L 2944 4013 
z
" transform="scale(0.015625)"/>
      <path id="DejaVuSans-77" d="M 269 3500 
L 844 3500 
L 1563 769 
L 2278 3500 
L 2956 3500 
L 3675 769 
L 4391 3500 
L 4966 3500 
L 4050 0 
L 3372 0 
L 2619 2869 
L 1863 0 
L 1184 0 
L 269 3500 
z
" transform="scale(0.015625)"/>
      <path id="DejaVuSans-28" d="M 1984 4856 
Q 1566 4138 1362 3434 
Q 1159 2731 1159 2009 
Q 1159 1288 1364 580 
Q 1569 -128 1984 -844 
L 1484 -844 
Q 1016 -109 783 600 
Q 550 1309 550 2009 
Q 550 2706 781 3412 
Q 1013 4119 1484 4856 
L 1984 4856 
z
" transform="scale(0.015625)"/>
      <path id="DejaVuSans-2e" d="M 684 794 
L 1344 794 
L 1344 0 
L 684 0 
L 684 794 
z
" transform="scale(0.015625)"/>
      <path id="DejaVuSans-29" d="M 513 4856 
L 1013 4856 
Q 1481 4119 1714 3412 
Q 1947 2706 1947 2009 
Q 1947 1309 1714 600 
Q 1481 -109 1013 -844 
L 513 -844 
Q 928 -128 1133 580 
Q 1338 1288 1338 2009 
Q 1338 2731 1133 3434 
Q 928 4138 513 4856 
z
" transform="scale(0.015625)"/>
      <path id="DejaVuSans-61" d="M 2194 1759 
Q 1497 1759 1228 1600 
Q 959 1441 959 1056 
Q 959 750 1161 570 
Q 1363 391 1709 391 
Q 2188 391 2477 730 
Q 2766 1069 2766 1631 
L 2766 1759 
L 2194 1759 
z
M 3341 1997 
L 3341 0 
L 2766 0 
L 2766 531 
Q 2569 213 2275 61 
Q 1981 -91 1556 -91 
Q 1019 -91 701 211 
Q 384 513 384 1019 
Q 384 1609 779 1909 
Q 1175 2209 1959 2209 
L 2766 2209 
L 2766 2266 
Q 2766 2663 2505 2880 
Q 2244 3097 1772 3097 
Q 1472 3097 1187 3025 
Q 903 2953 641 2809 
L 641 3341 
Q 956 3463 1253 3523 
Q 1550 3584 1831 3584 
Q 2591 3584 2966 3190 
Q 3341 2797 3341 1997 
z
" transform="scale(0.015625)"/>
     </defs>
     <use xlink:href="#DejaVuSans-32"/>
     <use xlink:href="#DejaVuSans-30" x="63.623047"/>
     <use xlink:href="#DejaVuSans-32" x="127.246094"/>
     <use xlink:href="#DejaVuSans-35" x="190.869141"/>
     <use xlink:href="#DejaVuSans-2d" x="254.492188"/>
     <use xlink:href="#DejaVuSans-30" x="290.576172"/>
     <use xlink:href="#DejaVuSans-32" x="354.199219"/>
     <use xlink:href="#DejaVuSans-2d" x="417.822266"/>
     <use xlink:href="#DejaVuSans-32" x="453.90625"/>
     <use xlink:href="#DejaVuSans-31" x="517.529297"/>
     <use xlink:href="#DejaVuSans-2d" x="581.152344"/>
     <use xlink:href="#DejaVuSans-30" x="617.236328"/>
     <use xlink:href="#DejaVuSans-39" x="680.859375"/>
     <use xlink:href="#DejaVuSans-3a" x="744.482422"/>
     <use xlink:href="#DejaVuSans-30" x="778.173828"/>
     <use xlink:href="#DejaVuSans-36" x="841.796875"/>
     <use xlink:href="#DejaVuSans-3a" x="905.419922"/>
     <use xlink:href="#DejaVuSans-34" x="939.111328"/>
     <use xlink:href="#DejaVuSans-30" x="1002.734375"/>
     <use xlink:href="#DejaVuSans-20" x="1066.357422"/>
     <use xlink:href="#DejaVuSans-7a" x="1098.144531"/>
     <use xlink:href="#DejaVuSans-6f" x="1150.634766"/>
     <use xlink:href="#DejaVuSans-6f" x="1211.816406"/>
     <use xlink:href="#DejaVuSans-6d" x="1272.998047"/>
     <use xlink:href="#DejaVuSans-65" x="1370.410156"/>
     <use xlink:href="#DejaVuSans-64" x="1431.933594"/>
     <use xlink:href="#DejaVuSans-20" x="1495.410156"/>
     <use xlink:href="#DejaVuSans-69" x="1527.197266"/>
     <use xlink:href="#DejaVuSans-6e" x="1554.980469"/>
     <use xlink:href="#DejaVuSans-20" x="1618.359375"/>
     <use xlink:href="#DejaVuSans-2b" x="1650.146484"/>
     <use xlink:href="#DejaVuSans-20" x="1733.935547"/>
     <use xlink:href="#DejaVuSans-65" x="1765.722656"/>
     <use xlink:href="#DejaVuSans-77" x="1827.246094"/>
     <use xlink:href="#DejaVuSans-6d" x="1909.033203"/>
     <use xlink:href="#DejaVuSans-28" x="2006.445312"/>
     <use xlink:href="#DejaVuSans-31" x="2045.458984"/>
     <use xlink:href="#DejaVuSans-36" x="2109.082031"/>
     <use xlink:href="#DejaVuSans-2e" x="2172.705078"/>
     <use xlink:href="#DejaVuSans-30" x="2204.492188"/>
     <use xlink:href="#DejaVuSans-29" x="2268.115234"/>
     <use xlink:href="#DejaVuSans-2e" x="2307.128906"/>
     <use xlink:href="#DejaVuSans-6d" x="2338.916016"/>
     <use xlink:href="#DejaVuSans-65" x="2436.328125"/>
     <use xlink:href="#DejaVuSans-61" x="2497.851562"/>
     <use xlink:href="#DejaVuSans-6e" x="2559.130859"/>
     <use xlink:href="#DejaVuSans-28" x="2622.509766"/>
     <use xlink:href="#DejaVuSans-29" x="2661.523438"/>
    </g>
   </g>
   <g id="legend_1">
    <g id="patch_7">
     <path d="M 64.6 302.584 
L 190.723438 302.584 
Q 192.723438 302.584 192.723438 300.584 
L 192.723438 241.759 
Q 192.723438 239.759 190.723438 239.759 
L 64.6 239.759 
Q 62.6 239.759 62.6 241.759 
L 62.6 300.584 
Q 62.6 302.584 64.6 302.584 
z
" style="fill: #ffffff; opacity: 0.8; stroke: #cccccc; stroke-linejoin: miter"/>
    </g>
    <g id="line2d_75">
     <path d="M 66.6 247.857437 
L 76.6 247.857437 
L 86.6 247.857437 
" style="fill: none; stroke: #1f77b4; stroke-opacity: 0.4; stroke-linecap: square"/>
    </g>
    <g id="text_13">
     <!-- SchNet eval_loss -->
     <g transform="translate(94.6 251.357437) scale(0.1 -0.1)">
      <defs>
       <path id="DejaVuSans-53" d="M 3425 4513 
L 3425 3897 
Q 3066 4069 2747 4153 
Q 2428 4238 2131 4238 
Q 1616 4238 1336 4038 
Q 1056 3838 1056 3469 
Q 1056 3159 1242 3001 
Q 1428 2844 1947 2747 
L 2328 2669 
Q 3034 2534 3370 2195 
Q 3706 1856 3706 1288 
Q 3706 609 3251 259 
Q 2797 -91 1919 -91 
Q 1588 -91 1214 -16 
Q 841 59 441 206 
L 441 856 
Q 825 641 1194 531 
Q 1563 422 1919 422 
Q 2459 422 2753 634 
Q 3047 847 3047 1241 
Q 3047 1584 2836 1778 
Q 2625 1972 2144 2069 
L 1759 2144 
Q 1053 2284 737 2584 
Q 422 2884 422 3419 
Q 422 4038 858 4394 
Q 1294 4750 2059 4750 
Q 2388 4750 2728 4690 
Q 3069 4631 3425 4513 
z
" transform="scale(0.015625)"/>
       <path id="DejaVuSans-63" d="M 3122 3366 
L 3122 2828 
Q 2878 2963 2633 3030 
Q 2388 3097 2138 3097 
Q 1578 3097 1268 2742 
Q 959 2388 959 1747 
Q 959 1106 1268 751 
Q 1578 397 2138 397 
Q 2388 397 2633 464 
Q 2878 531 3122 666 
L 3122 134 
Q 2881 22 2623 -34 
Q 2366 -91 2075 -91 
Q 1284 -91 818 406 
Q 353 903 353 1747 
Q 353 2603 823 3093 
Q 1294 3584 2113 3584 
Q 2378 3584 2631 3529 
Q 2884 3475 3122 3366 
z
" transform="scale(0.015625)"/>
       <path id="DejaVuSans-68" d="M 3513 2113 
L 3513 0 
L 2938 0 
L 2938 2094 
Q 2938 2591 2744 2837 
Q 2550 3084 2163 3084 
Q 1697 3084 1428 2787 
Q 1159 2491 1159 1978 
L 1159 0 
L 581 0 
L 581 4863 
L 1159 4863 
L 1159 2956 
Q 1366 3272 1645 3428 
Q 1925 3584 2291 3584 
Q 2894 3584 3203 3211 
Q 3513 2838 3513 2113 
z
" transform="scale(0.015625)"/>
       <path id="DejaVuSans-4e" d="M 628 4666 
L 1478 4666 
L 3547 763 
L 3547 4666 
L 4159 4666 
L 4159 0 
L 3309 0 
L 1241 3903 
L 1241 0 
L 628 0 
L 628 4666 
z
" transform="scale(0.015625)"/>
       <path id="DejaVuSans-76" d="M 191 3500 
L 800 3500 
L 1894 563 
L 2988 3500 
L 3597 3500 
L 2284 0 
L 1503 0 
L 191 3500 
z
" transform="scale(0.015625)"/>
       <path id="DejaVuSans-5f" d="M 3263 -1063 
L 3263 -1509 
L -63 -1509 
L -63 -1063 
L 3263 -1063 
z
" transform="scale(0.015625)"/>
      </defs>
      <use xlink:href="#DejaVuSans-53"/>
      <use xlink:href="#DejaVuSans-63" x="63.476562"/>
      <use xlink:href="#DejaVuSans-68" x="118.457031"/>
      <use xlink:href="#DejaVuSans-4e" x="181.835938"/>
      <use xlink:href="#DejaVuSans-65" x="256.640625"/>
      <use xlink:href="#DejaVuSans-74" x="318.164062"/>
      <use xlink:href="#DejaVuSans-20" x="357.373047"/>
      <use xlink:href="#DejaVuSans-65" x="389.160156"/>
      <use xlink:href="#DejaVuSans-76" x="450.683594"/>
      <use xlink:href="#DejaVuSans-61" x="509.863281"/>
      <use xlink:href="#DejaVuSans-6c" x="571.142578"/>
      <use xlink:href="#DejaVuSans-5f" x="598.925781"/>
      <use xlink:href="#DejaVuSans-6c" x="648.925781"/>
      <use xlink:href="#DejaVuSans-6f" x="676.708984"/>
      <use xlink:href="#DejaVuSans-73" x="737.890625"/>
      <use xlink:href="#DejaVuSans-73" x="789.990234"/>
     </g>
    </g>
    <g id="line2d_76">
     <path d="M 66.6 262.813687 
L 76.6 262.813687 
L 86.6 262.813687 
" style="fill: none; stroke: #ff7f0e; stroke-opacity: 0.4; stroke-linecap: square"/>
    </g>
    <g id="text_14">
     <!-- M220 eval_loss -->
     <g transform="translate(94.6 266.313687) scale(0.1 -0.1)">
      <defs>
       <path id="DejaVuSans-4d" d="M 628 4666 
L 1569 4666 
L 2759 1491 
L 3956 4666 
L 4897 4666 
L 4897 0 
L 4281 0 
L 4281 4097 
L 3078 897 
L 2444 897 
L 1241 4097 
L 1241 0 
L 628 0 
L 628 4666 
z
" transform="scale(0.015625)"/>
      </defs>
      <use xlink:href="#DejaVuSans-4d"/>
      <use xlink:href="#DejaVuSans-32" x="86.279297"/>
      <use xlink:href="#DejaVuSans-32" x="149.902344"/>
      <use xlink:href="#DejaVuSans-30" x="213.525391"/>
      <use xlink:href="#DejaVuSans-20" x="277.148438"/>
      <use xlink:href="#DejaVuSans-65" x="308.935547"/>
      <use xlink:href="#DejaVuSans-76" x="370.458984"/>
      <use xlink:href="#DejaVuSans-61" x="429.638672"/>
      <use xlink:href="#DejaVuSans-6c" x="490.917969"/>
      <use xlink:href="#DejaVuSans-5f" x="518.701172"/>
      <use xlink:href="#DejaVuSans-6c" x="568.701172"/>
      <use xlink:href="#DejaVuSans-6f" x="596.484375"/>
      <use xlink:href="#DejaVuSans-73" x="657.666016"/>
      <use xlink:href="#DejaVuSans-73" x="709.765625"/>
     </g>
    </g>
    <g id="line2d_77">
     <path d="M 66.6 277.769937 
L 76.6 277.769937 
L 86.6 277.769937 
" style="fill: none; stroke: #2ca02c; stroke-opacity: 0.4; stroke-linecap: square"/>
    </g>
    <g id="text_15">
     <!-- MoGIN14 eval_loss -->
     <g transform="translate(94.6 281.269937) scale(0.1 -0.1)">
      <defs>
       <path id="DejaVuSans-47" d="M 3809 666 
L 3809 1919 
L 2778 1919 
L 2778 2438 
L 4434 2438 
L 4434 434 
Q 4069 175 3628 42 
Q 3188 -91 2688 -91 
Q 1594 -91 976 548 
Q 359 1188 359 2328 
Q 359 3472 976 4111 
Q 1594 4750 2688 4750 
Q 3144 4750 3555 4637 
Q 3966 4525 4313 4306 
L 4313 3634 
Q 3963 3931 3569 4081 
Q 3175 4231 2741 4231 
Q 1884 4231 1454 3753 
Q 1025 3275 1025 2328 
Q 1025 1384 1454 906 
Q 1884 428 2741 428 
Q 3075 428 3337 486 
Q 3600 544 3809 666 
z
" transform="scale(0.015625)"/>
       <path id="DejaVuSans-49" d="M 628 4666 
L 1259 4666 
L 1259 0 
L 628 0 
L 628 4666 
z
" transform="scale(0.015625)"/>
      </defs>
      <use xlink:href="#DejaVuSans-4d"/>
      <use xlink:href="#DejaVuSans-6f" x="86.279297"/>
      <use xlink:href="#DejaVuSans-47" x="147.460938"/>
      <use xlink:href="#DejaVuSans-49" x="224.951172"/>
      <use xlink:href="#DejaVuSans-4e" x="254.443359"/>
      <use xlink:href="#DejaVuSans-31" x="329.248047"/>
      <use xlink:href="#DejaVuSans-34" x="392.871094"/>
      <use xlink:href="#DejaVuSans-20" x="456.494141"/>
      <use xlink:href="#DejaVuSans-65" x="488.28125"/>
      <use xlink:href="#DejaVuSans-76" x="549.804688"/>
      <use xlink:href="#DejaVuSans-61" x="608.984375"/>
      <use xlink:href="#DejaVuSans-6c" x="670.263672"/>
      <use xlink:href="#DejaVuSans-5f" x="698.046875"/>
      <use xlink:href="#DejaVuSans-6c" x="748.046875"/>
      <use xlink:href="#DejaVuSans-6f" x="775.830078"/>
      <use xlink:href="#DejaVuSans-73" x="837.011719"/>
      <use xlink:href="#DejaVuSans-73" x="889.111328"/>
     </g>
    </g>
    <g id="line2d_78">
     <path d="M 66.6 292.726187 
L 76.6 292.726187 
L 86.6 292.726187 
" style="fill: none; stroke: #d62728; stroke-opacity: 0.4; stroke-linecap: square"/>
    </g>
    <g id="text_16">
     <!-- MoGIN16 eval_loss -->
     <g transform="translate(94.6 296.226187) scale(0.1 -0.1)">
      <use xlink:href="#DejaVuSans-4d"/>
      <use xlink:href="#DejaVuSans-6f" x="86.279297"/>
      <use xlink:href="#DejaVuSans-47" x="147.460938"/>
      <use xlink:href="#DejaVuSans-49" x="224.951172"/>
      <use xlink:href="#DejaVuSans-4e" x="254.443359"/>
      <use xlink:href="#DejaVuSans-31" x="329.248047"/>
      <use xlink:href="#DejaVuSans-36" x="392.871094"/>
      <use xlink:href="#DejaVuSans-20" x="456.494141"/>
      <use xlink:href="#DejaVuSans-65" x="488.28125"/>
      <use xlink:href="#DejaVuSans-76" x="549.804688"/>
      <use xlink:href="#DejaVuSans-61" x="608.984375"/>
      <use xlink:href="#DejaVuSans-6c" x="670.263672"/>
      <use xlink:href="#DejaVuSans-5f" x="698.046875"/>
      <use xlink:href="#DejaVuSans-6c" x="748.046875"/>
      <use xlink:href="#DejaVuSans-6f" x="775.830078"/>
      <use xlink:href="#DejaVuSans-73" x="837.011719"/>
      <use xlink:href="#DejaVuSans-73" x="889.111328"/>
     </g>
    </g>
   </g>
  </g>
 </g>
 <defs>
  <clipPath id="p7c51545d54">
   <rect x="57.6" y="41.472" width="357.12" height="266.112"/>
  </clipPath>
 </defs>
</svg>
