<?xml version="1.0" encoding="utf-8" standalone="no"?>
<!DOCTYPE svg PUBLIC "-//W3C//DTD SVG 1.1//EN"
  "http://www.w3.org/Graphics/SVG/1.1/DTD/svg11.dtd">
<svg xmlns:xlink="http://www.w3.org/1999/xlink" width="460.8pt" height="345.6pt" viewBox="0 0 460.8 345.6" xmlns="http://www.w3.org/2000/svg" version="1.1">
 <metadata>
  <rdf:RDF xmlns:dc="http://purl.org/dc/elements/1.1/" xmlns:cc="http://creativecommons.org/ns#" xmlns:rdf="http://www.w3.org/1999/02/22-rdf-syntax-ns#">
   <cc:Work>
    <dc:type rdf:resource="http://purl.org/dc/dcmitype/StillImage"/>
    <dc:date>2025-02-19T00:11:27.124628</dc:date>
    <dc:format>image/svg+xml</dc:format>
    <dc:creator>
     <cc:Agent>
      <dc:title>Matplotlib v3.8.4, https://matplotlib.org/</dc:title>
     </cc:Agent>
    </dc:creator>
   </cc:Work>
  </rdf:RDF>
 </metadata>
 <defs>
  <style type="text/css">*{stroke-linejoin: round; stroke-linecap: butt}</style>
 </defs>
 <g id="figure_1">
  <g id="patch_1">
   <path d="M 0 345.6 
L 460.8 345.6 
L 460.8 0 
L 0 0 
z
" style="fill: #ffffff"/>
  </g>
  <g id="axes_1">
   <g id="patch_2">
    <path d="M 57.6 307.584 
L 414.72 307.584 
L 414.72 41.472 
L 57.6 41.472 
z
" style="fill: #ffffff"/>
   </g>
   <g id="matplotlib.axis_1">
    <g id="xtick_1">
     <g id="line2d_1">
      <defs>
       <path id="m4d2c89e541" d="M 0 0 
L 0 3.5 
" style="stroke: #000000; stroke-width: 0.8"/>
      </defs>
      <g>
       <use xlink:href="#m4d2c89e541" x="73.820177" y="307.584" style="stroke: #000000; stroke-width: 0.8"/>
      </g>
     </g>
     <g id="text_1">
      <!-- 0 -->
      <g transform="translate(70.638927 322.182437) scale(0.1 -0.1)">
       <defs>
        <path id="DejaVuSans-30" d="M 2034 4250 
Q 1547 4250 1301 3770 
Q 1056 3291 1056 2328 
Q 1056 1369 1301 889 
Q 1547 409 2034 409 
Q 2525 409 2770 889 
Q 3016 1369 3016 2328 
Q 3016 3291 2770 3770 
Q 2525 4250 2034 4250 
z
M 2034 4750 
Q 2819 4750 3233 4129 
Q 3647 3509 3647 2328 
Q 3647 1150 3233 529 
Q 2819 -91 2034 -91 
Q 1250 -91 836 529 
Q 422 1150 422 2328 
Q 422 3509 836 4129 
Q 1250 4750 2034 4750 
z
" transform="scale(0.015625)"/>
       </defs>
       <use xlink:href="#DejaVuSans-30"/>
      </g>
     </g>
    </g>
    <g id="xtick_2">
     <g id="line2d_2">
      <g>
       <use xlink:href="#m4d2c89e541" x="136.572331" y="307.584" style="stroke: #000000; stroke-width: 0.8"/>
      </g>
     </g>
     <g id="text_2">
      <!-- 5000 -->
      <g transform="translate(123.847331 322.182437) scale(0.1 -0.1)">
       <defs>
        <path id="DejaVuSans-35" d="M 691 4666 
L 3169 4666 
L 3169 4134 
L 1269 4134 
L 1269 2991 
Q 1406 3038 1543 3061 
Q 1681 3084 1819 3084 
Q 2600 3084 3056 2656 
Q 3513 2228 3513 1497 
Q 3513 744 3044 326 
Q 2575 -91 1722 -91 
Q 1428 -91 1123 -41 
Q 819 9 494 109 
L 494 744 
Q 775 591 1075 516 
Q 1375 441 1709 441 
Q 2250 441 2565 725 
Q 2881 1009 2881 1497 
Q 2881 1984 2565 2268 
Q 2250 2553 1709 2553 
Q 1456 2553 1204 2497 
Q 953 2441 691 2322 
L 691 4666 
z
" transform="scale(0.015625)"/>
       </defs>
       <use xlink:href="#DejaVuSans-35"/>
       <use xlink:href="#DejaVuSans-30" x="63.623047"/>
       <use xlink:href="#DejaVuSans-30" x="127.246094"/>
       <use xlink:href="#DejaVuSans-30" x="190.869141"/>
      </g>
     </g>
    </g>
    <g id="xtick_3">
     <g id="line2d_3">
      <g>
       <use xlink:href="#m4d2c89e541" x="199.324485" y="307.584" style="stroke: #000000; stroke-width: 0.8"/>
      </g>
     </g>
     <g id="text_3">
      <!-- 10000 -->
      <g transform="translate(183.418235 322.182437) scale(0.1 -0.1)">
       <defs>
        <path id="DejaVuSans-31" d="M 794 531 
L 1825 531 
L 1825 4091 
L 703 3866 
L 703 4441 
L 1819 4666 
L 2450 4666 
L 2450 531 
L 3481 531 
L 3481 0 
L 794 0 
L 794 531 
z
" transform="scale(0.015625)"/>
       </defs>
       <use xlink:href="#DejaVuSans-31"/>
       <use xlink:href="#DejaVuSans-30" x="63.623047"/>
       <use xlink:href="#DejaVuSans-30" x="127.246094"/>
       <use xlink:href="#DejaVuSans-30" x="190.869141"/>
       <use xlink:href="#DejaVuSans-30" x="254.492188"/>
      </g>
     </g>
    </g>
    <g id="xtick_4">
     <g id="line2d_4">
      <g>
       <use xlink:href="#m4d2c89e541" x="262.07664" y="307.584" style="stroke: #000000; stroke-width: 0.8"/>
      </g>
     </g>
     <g id="text_4">
      <!-- 15000 -->
      <g transform="translate(246.17039 322.182437) scale(0.1 -0.1)">
       <use xlink:href="#DejaVuSans-31"/>
       <use xlink:href="#DejaVuSans-35" x="63.623047"/>
       <use xlink:href="#DejaVuSans-30" x="127.246094"/>
       <use xlink:href="#DejaVuSans-30" x="190.869141"/>
       <use xlink:href="#DejaVuSans-30" x="254.492188"/>
      </g>
     </g>
    </g>
    <g id="xtick_5">
     <g id="line2d_5">
      <g>
       <use xlink:href="#m4d2c89e541" x="324.828794" y="307.584" style="stroke: #000000; stroke-width: 0.8"/>
      </g>
     </g>
     <g id="text_5">
      <!-- 20000 -->
      <g transform="translate(308.922544 322.182437) scale(0.1 -0.1)">
       <defs>
        <path id="DejaVuSans-32" d="M 1228 531 
L 3431 531 
L 3431 0 
L 469 0 
L 469 531 
Q 828 903 1448 1529 
Q 2069 2156 2228 2338 
Q 2531 2678 2651 2914 
Q 2772 3150 2772 3378 
Q 2772 3750 2511 3984 
Q 2250 4219 1831 4219 
Q 1534 4219 1204 4116 
Q 875 4013 500 3803 
L 500 4441 
Q 881 4594 1212 4672 
Q 1544 4750 1819 4750 
Q 2544 4750 2975 4387 
Q 3406 4025 3406 3419 
Q 3406 3131 3298 2873 
Q 3191 2616 2906 2266 
Q 2828 2175 2409 1742 
Q 1991 1309 1228 531 
z
" transform="scale(0.015625)"/>
       </defs>
       <use xlink:href="#DejaVuSans-32"/>
       <use xlink:href="#DejaVuSans-30" x="63.623047"/>
       <use xlink:href="#DejaVuSans-30" x="127.246094"/>
       <use xlink:href="#DejaVuSans-30" x="190.869141"/>
       <use xlink:href="#DejaVuSans-30" x="254.492188"/>
      </g>
     </g>
    </g>
    <g id="xtick_6">
     <g id="line2d_6">
      <g>
       <use xlink:href="#m4d2c89e541" x="387.580948" y="307.584" style="stroke: #000000; stroke-width: 0.8"/>
      </g>
     </g>
     <g id="text_6">
      <!-- 25000 -->
      <g transform="translate(371.674698 322.182437) scale(0.1 -0.1)">
       <use xlink:href="#DejaVuSans-32"/>
       <use xlink:href="#DejaVuSans-35" x="63.623047"/>
       <use xlink:href="#DejaVuSans-30" x="127.246094"/>
       <use xlink:href="#DejaVuSans-30" x="190.869141"/>
       <use xlink:href="#DejaVuSans-30" x="254.492188"/>
      </g>
     </g>
    </g>
    <g id="text_7">
     <!-- iter# -->
     <g transform="translate(223.488906 335.860562) scale(0.1 -0.1)">
      <defs>
       <path id="DejaVuSans-69" d="M 603 3500 
L 1178 3500 
L 1178 0 
L 603 0 
L 603 3500 
z
M 603 4863 
L 1178 4863 
L 1178 4134 
L 603 4134 
L 603 4863 
z
" transform="scale(0.015625)"/>
       <path id="DejaVuSans-74" d="M 1172 4494 
L 1172 3500 
L 2356 3500 
L 2356 3053 
L 1172 3053 
L 1172 1153 
Q 1172 725 1289 603 
Q 1406 481 1766 481 
L 2356 481 
L 2356 0 
L 1766 0 
Q 1100 0 847 248 
Q 594 497 594 1153 
L 594 3053 
L 172 3053 
L 172 3500 
L 594 3500 
L 594 4494 
L 1172 4494 
z
" transform="scale(0.015625)"/>
       <path id="DejaVuSans-65" d="M 3597 1894 
L 3597 1613 
L 953 1613 
Q 991 1019 1311 708 
Q 1631 397 2203 397 
Q 2534 397 2845 478 
Q 3156 559 3463 722 
L 3463 178 
Q 3153 47 2828 -22 
Q 2503 -91 2169 -91 
Q 1331 -91 842 396 
Q 353 884 353 1716 
Q 353 2575 817 3079 
Q 1281 3584 2069 3584 
Q 2775 3584 3186 3129 
Q 3597 2675 3597 1894 
z
M 3022 2063 
Q 3016 2534 2758 2815 
Q 2500 3097 2075 3097 
Q 1594 3097 1305 2825 
Q 1016 2553 972 2059 
L 3022 2063 
z
" transform="scale(0.015625)"/>
       <path id="DejaVuSans-72" d="M 2631 2963 
Q 2534 3019 2420 3045 
Q 2306 3072 2169 3072 
Q 1681 3072 1420 2755 
Q 1159 2438 1159 1844 
L 1159 0 
L 581 0 
L 581 3500 
L 1159 3500 
L 1159 2956 
Q 1341 3275 1631 3429 
Q 1922 3584 2338 3584 
Q 2397 3584 2469 3576 
Q 2541 3569 2628 3553 
L 2631 2963 
z
" transform="scale(0.015625)"/>
       <path id="DejaVuSans-23" d="M 3272 2816 
L 2363 2816 
L 2100 1772 
L 3016 1772 
L 3272 2816 
z
M 2803 4594 
L 2478 3297 
L 3391 3297 
L 3719 4594 
L 4219 4594 
L 3897 3297 
L 4872 3297 
L 4872 2816 
L 3775 2816 
L 3519 1772 
L 4513 1772 
L 4513 1294 
L 3397 1294 
L 3072 0 
L 2572 0 
L 2894 1294 
L 1978 1294 
L 1656 0 
L 1153 0 
L 1478 1294 
L 494 1294 
L 494 1772 
L 1594 1772 
L 1856 2816 
L 850 2816 
L 850 3297 
L 1978 3297 
L 2297 4594 
L 2803 4594 
z
" transform="scale(0.015625)"/>
      </defs>
      <use xlink:href="#DejaVuSans-69"/>
      <use xlink:href="#DejaVuSans-74" x="27.783203"/>
      <use xlink:href="#DejaVuSans-65" x="66.992188"/>
      <use xlink:href="#DejaVuSans-72" x="128.515625"/>
      <use xlink:href="#DejaVuSans-23" x="169.628906"/>
     </g>
    </g>
   </g>
   <g id="matplotlib.axis_2">
    <g id="ytick_1">
     <g id="line2d_7">
      <defs>
       <path id="mf184725f82" d="M 0 0 
L -3.5 0 
" style="stroke: #000000; stroke-width: 0.8"/>
      </defs>
      <g>
       <use xlink:href="#mf184725f82" x="57.6" y="269.166853" style="stroke: #000000; stroke-width: 0.8"/>
      </g>
     </g>
     <g id="text_8">
      <!-- $\mathdefault{10^{-2}}$ -->
      <g transform="translate(27.1 272.966072) scale(0.1 -0.1)">
       <defs>
        <path id="DejaVuSans-2212" d="M 678 2272 
L 4684 2272 
L 4684 1741 
L 678 1741 
L 678 2272 
z
" transform="scale(0.015625)"/>
       </defs>
       <use xlink:href="#DejaVuSans-31" transform="translate(0 0.765625)"/>
       <use xlink:href="#DejaVuSans-30" transform="translate(63.623047 0.765625)"/>
       <use xlink:href="#DejaVuSans-2212" transform="translate(128.203125 39.046875) scale(0.7)"/>
       <use xlink:href="#DejaVuSans-32" transform="translate(186.855469 39.046875) scale(0.7)"/>
      </g>
     </g>
    </g>
    <g id="ytick_2">
     <g id="line2d_8">
      <g>
       <use xlink:href="#mf184725f82" x="57.6" y="202.270759" style="stroke: #000000; stroke-width: 0.8"/>
      </g>
     </g>
     <g id="text_9">
      <!-- $\mathdefault{10^{-1}}$ -->
      <g transform="translate(27.1 206.069978) scale(0.1 -0.1)">
       <use xlink:href="#DejaVuSans-31" transform="translate(0 0.684375)"/>
       <use xlink:href="#DejaVuSans-30" transform="translate(63.623047 0.684375)"/>
       <use xlink:href="#DejaVuSans-2212" transform="translate(128.203125 38.965625) scale(0.7)"/>
       <use xlink:href="#DejaVuSans-31" transform="translate(186.855469 38.965625) scale(0.7)"/>
      </g>
     </g>
    </g>
    <g id="ytick_3">
     <g id="line2d_9">
      <g>
       <use xlink:href="#mf184725f82" x="57.6" y="135.374665" style="stroke: #000000; stroke-width: 0.8"/>
      </g>
     </g>
     <g id="text_10">
      <!-- $\mathdefault{10^{0}}$ -->
      <g transform="translate(33 139.173884) scale(0.1 -0.1)">
       <use xlink:href="#DejaVuSans-31" transform="translate(0 0.765625)"/>
       <use xlink:href="#DejaVuSans-30" transform="translate(63.623047 0.765625)"/>
       <use xlink:href="#DejaVuSans-30" transform="translate(128.203125 39.046875) scale(0.7)"/>
      </g>
     </g>
    </g>
    <g id="ytick_4">
     <g id="line2d_10">
      <g>
       <use xlink:href="#mf184725f82" x="57.6" y="68.478571" style="stroke: #000000; stroke-width: 0.8"/>
      </g>
     </g>
     <g id="text_11">
      <!-- $\mathdefault{10^{1}}$ -->
      <g transform="translate(33 72.27779) scale(0.1 -0.1)">
       <use xlink:href="#DejaVuSans-31" transform="translate(0 0.684375)"/>
       <use xlink:href="#DejaVuSans-30" transform="translate(63.623047 0.684375)"/>
       <use xlink:href="#DejaVuSans-31" transform="translate(128.203125 38.965625) scale(0.7)"/>
      </g>
     </g>
    </g>
    <g id="ytick_5">
     <g id="line2d_11">
      <defs>
       <path id="me8979a1d7e" d="M 0 0 
L -2 0 
" style="stroke: #000000; stroke-width: 0.6"/>
      </defs>
      <g>
       <use xlink:href="#me8979a1d7e" x="57.6" y="304.145399" style="stroke: #000000; stroke-width: 0.6"/>
      </g>
     </g>
    </g>
    <g id="ytick_6">
     <g id="line2d_12">
      <g>
       <use xlink:href="#me8979a1d7e" x="57.6" y="295.787486" style="stroke: #000000; stroke-width: 0.6"/>
      </g>
     </g>
    </g>
    <g id="ytick_7">
     <g id="line2d_13">
      <g>
       <use xlink:href="#me8979a1d7e" x="57.6" y="289.304584" style="stroke: #000000; stroke-width: 0.6"/>
      </g>
     </g>
    </g>
    <g id="ytick_8">
     <g id="line2d_14">
      <g>
       <use xlink:href="#me8979a1d7e" x="57.6" y="284.007668" style="stroke: #000000; stroke-width: 0.6"/>
      </g>
     </g>
    </g>
    <g id="ytick_9">
     <g id="line2d_15">
      <g>
       <use xlink:href="#me8979a1d7e" x="57.6" y="279.52919" style="stroke: #000000; stroke-width: 0.6"/>
      </g>
     </g>
    </g>
    <g id="ytick_10">
     <g id="line2d_16">
      <g>
       <use xlink:href="#me8979a1d7e" x="57.6" y="275.649755" style="stroke: #000000; stroke-width: 0.6"/>
      </g>
     </g>
    </g>
    <g id="ytick_11">
     <g id="line2d_17">
      <g>
       <use xlink:href="#me8979a1d7e" x="57.6" y="272.227851" style="stroke: #000000; stroke-width: 0.6"/>
      </g>
     </g>
    </g>
    <g id="ytick_12">
     <g id="line2d_18">
      <g>
       <use xlink:href="#me8979a1d7e" x="57.6" y="249.029122" style="stroke: #000000; stroke-width: 0.6"/>
      </g>
     </g>
    </g>
    <g id="ytick_13">
     <g id="line2d_19">
      <g>
       <use xlink:href="#me8979a1d7e" x="57.6" y="237.249305" style="stroke: #000000; stroke-width: 0.6"/>
      </g>
     </g>
    </g>
    <g id="ytick_14">
     <g id="line2d_20">
      <g>
       <use xlink:href="#me8979a1d7e" x="57.6" y="228.891392" style="stroke: #000000; stroke-width: 0.6"/>
      </g>
     </g>
    </g>
    <g id="ytick_15">
     <g id="line2d_21">
      <g>
       <use xlink:href="#me8979a1d7e" x="57.6" y="222.40849" style="stroke: #000000; stroke-width: 0.6"/>
      </g>
     </g>
    </g>
    <g id="ytick_16">
     <g id="line2d_22">
      <g>
       <use xlink:href="#me8979a1d7e" x="57.6" y="217.111574" style="stroke: #000000; stroke-width: 0.6"/>
      </g>
     </g>
    </g>
    <g id="ytick_17">
     <g id="line2d_23">
      <g>
       <use xlink:href="#me8979a1d7e" x="57.6" y="212.633095" style="stroke: #000000; stroke-width: 0.6"/>
      </g>
     </g>
    </g>
    <g id="ytick_18">
     <g id="line2d_24">
      <g>
       <use xlink:href="#me8979a1d7e" x="57.6" y="208.753661" style="stroke: #000000; stroke-width: 0.6"/>
      </g>
     </g>
    </g>
    <g id="ytick_19">
     <g id="line2d_25">
      <g>
       <use xlink:href="#me8979a1d7e" x="57.6" y="205.331757" style="stroke: #000000; stroke-width: 0.6"/>
      </g>
     </g>
    </g>
    <g id="ytick_20">
     <g id="line2d_26">
      <g>
       <use xlink:href="#me8979a1d7e" x="57.6" y="182.133028" style="stroke: #000000; stroke-width: 0.6"/>
      </g>
     </g>
    </g>
    <g id="ytick_21">
     <g id="line2d_27">
      <g>
       <use xlink:href="#me8979a1d7e" x="57.6" y="170.353211" style="stroke: #000000; stroke-width: 0.6"/>
      </g>
     </g>
    </g>
    <g id="ytick_22">
     <g id="line2d_28">
      <g>
       <use xlink:href="#me8979a1d7e" x="57.6" y="161.995297" style="stroke: #000000; stroke-width: 0.6"/>
      </g>
     </g>
    </g>
    <g id="ytick_23">
     <g id="line2d_29">
      <g>
       <use xlink:href="#me8979a1d7e" x="57.6" y="155.512396" style="stroke: #000000; stroke-width: 0.6"/>
      </g>
     </g>
    </g>
    <g id="ytick_24">
     <g id="line2d_30">
      <g>
       <use xlink:href="#me8979a1d7e" x="57.6" y="150.21548" style="stroke: #000000; stroke-width: 0.6"/>
      </g>
     </g>
    </g>
    <g id="ytick_25">
     <g id="line2d_31">
      <g>
       <use xlink:href="#me8979a1d7e" x="57.6" y="145.737001" style="stroke: #000000; stroke-width: 0.6"/>
      </g>
     </g>
    </g>
    <g id="ytick_26">
     <g id="line2d_32">
      <g>
       <use xlink:href="#me8979a1d7e" x="57.6" y="141.857566" style="stroke: #000000; stroke-width: 0.6"/>
      </g>
     </g>
    </g>
    <g id="ytick_27">
     <g id="line2d_33">
      <g>
       <use xlink:href="#me8979a1d7e" x="57.6" y="138.435662" style="stroke: #000000; stroke-width: 0.6"/>
      </g>
     </g>
    </g>
    <g id="ytick_28">
     <g id="line2d_34">
      <g>
       <use xlink:href="#me8979a1d7e" x="57.6" y="115.236934" style="stroke: #000000; stroke-width: 0.6"/>
      </g>
     </g>
    </g>
    <g id="ytick_29">
     <g id="line2d_35">
      <g>
       <use xlink:href="#me8979a1d7e" x="57.6" y="103.457117" style="stroke: #000000; stroke-width: 0.6"/>
      </g>
     </g>
    </g>
    <g id="ytick_30">
     <g id="line2d_36">
      <g>
       <use xlink:href="#me8979a1d7e" x="57.6" y="95.099203" style="stroke: #000000; stroke-width: 0.6"/>
      </g>
     </g>
    </g>
    <g id="ytick_31">
     <g id="line2d_37">
      <g>
       <use xlink:href="#me8979a1d7e" x="57.6" y="88.616302" style="stroke: #000000; stroke-width: 0.6"/>
      </g>
     </g>
    </g>
    <g id="ytick_32">
     <g id="line2d_38">
      <g>
       <use xlink:href="#me8979a1d7e" x="57.6" y="83.319386" style="stroke: #000000; stroke-width: 0.6"/>
      </g>
     </g>
    </g>
    <g id="ytick_33">
     <g id="line2d_39">
      <g>
       <use xlink:href="#me8979a1d7e" x="57.6" y="78.840907" style="stroke: #000000; stroke-width: 0.6"/>
      </g>
     </g>
    </g>
    <g id="ytick_34">
     <g id="line2d_40">
      <g>
       <use xlink:href="#me8979a1d7e" x="57.6" y="74.961472" style="stroke: #000000; stroke-width: 0.6"/>
      </g>
     </g>
    </g>
    <g id="ytick_35">
     <g id="line2d_41">
      <g>
       <use xlink:href="#me8979a1d7e" x="57.6" y="71.539568" style="stroke: #000000; stroke-width: 0.6"/>
      </g>
     </g>
    </g>
    <g id="ytick_36">
     <g id="line2d_42">
      <g>
       <use xlink:href="#me8979a1d7e" x="57.6" y="48.34084" style="stroke: #000000; stroke-width: 0.6"/>
      </g>
     </g>
    </g>
    <g id="text_12">
     <!-- loss -->
     <g transform="translate(21.020313 184.185812) rotate(-90) scale(0.1 -0.1)">
      <defs>
       <path id="DejaVuSans-6c" d="M 603 4863 
L 1178 4863 
L 1178 0 
L 603 0 
L 603 4863 
z
" transform="scale(0.015625)"/>
       <path id="DejaVuSans-6f" d="M 1959 3097 
Q 1497 3097 1228 2736 
Q 959 2375 959 1747 
Q 959 1119 1226 758 
Q 1494 397 1959 397 
Q 2419 397 2687 759 
Q 2956 1122 2956 1747 
Q 2956 2369 2687 2733 
Q 2419 3097 1959 3097 
z
M 1959 3584 
Q 2709 3584 3137 3096 
Q 3566 2609 3566 1747 
Q 3566 888 3137 398 
Q 2709 -91 1959 -91 
Q 1206 -91 779 398 
Q 353 888 353 1747 
Q 353 2609 779 3096 
Q 1206 3584 1959 3584 
z
" transform="scale(0.015625)"/>
       <path id="DejaVuSans-73" d="M 2834 3397 
L 2834 2853 
Q 2591 2978 2328 3040 
Q 2066 3103 1784 3103 
Q 1356 3103 1142 2972 
Q 928 2841 928 2578 
Q 928 2378 1081 2264 
Q 1234 2150 1697 2047 
L 1894 2003 
Q 2506 1872 2764 1633 
Q 3022 1394 3022 966 
Q 3022 478 2636 193 
Q 2250 -91 1575 -91 
Q 1294 -91 989 -36 
Q 684 19 347 128 
L 347 722 
Q 666 556 975 473 
Q 1284 391 1588 391 
Q 1994 391 2212 530 
Q 2431 669 2431 922 
Q 2431 1156 2273 1281 
Q 2116 1406 1581 1522 
L 1381 1569 
Q 847 1681 609 1914 
Q 372 2147 372 2553 
Q 372 3047 722 3315 
Q 1072 3584 1716 3584 
Q 2034 3584 2315 3537 
Q 2597 3491 2834 3397 
z
" transform="scale(0.015625)"/>
      </defs>
      <use xlink:href="#DejaVuSans-6c"/>
      <use xlink:href="#DejaVuSans-6f" x="27.783203"/>
      <use xlink:href="#DejaVuSans-73" x="88.964844"/>
      <use xlink:href="#DejaVuSans-73" x="141.064453"/>
     </g>
    </g>
   </g>
   <g id="line2d_43">
    <path d="M 73.832727 53.568 
L 74.635955 153.723289 
L 75.439182 168.959348 
L 76.24241 174.906143 
L 77.848865 193.919352 
L 78.652093 206.265348 
L 79.45532 189.73778 
L 80.258548 212.382128 
L 81.061775 204.78338 
L 81.865003 193.624923 
L 82.668231 201.212455 
L 83.471458 207.149997 
L 84.274686 219.873564 
L 85.077913 212.264577 
L 85.881141 187.121206 
L 86.684368 212.114597 
L 87.487596 204.908748 
L 88.290824 214.667848 
L 89.094051 220.883739 
L 89.897279 220.570816 
L 90.700506 209.844131 
L 91.503734 204.882883 
L 93.110189 222.874492 
L 93.913417 204.611372 
L 94.716644 206.990068 
L 95.519872 198.230911 
L 96.323099 223.72822 
L 97.126327 209.19204 
L 97.929555 174.786899 
L 98.732782 233.777446 
L 99.53601 215.835619 
L 99.749367 220.793194 
L 100.552595 203.785299 
L 101.355822 213.647668 
L 102.15905 242.948733 
L 102.962277 235.683112 
L 103.765505 241.57852 
L 104.568732 206.803049 
L 105.37196 235.444946 
L 106.175188 203.883976 
L 106.978415 230.836206 
L 107.781643 194.29789 
L 108.58487 229.727068 
L 109.388098 197.066227 
L 110.191325 224.439373 
L 110.994553 239.921143 
L 111.797781 230.790549 
L 112.601008 237.715202 
L 113.404236 210.421445 
L 114.207463 170.760161 
L 115.010691 218.718179 
L 115.813918 244.951059 
L 116.617146 241.775369 
L 117.420374 231.622434 
L 118.223601 228.460559 
L 119.026829 187.005748 
L 119.830056 208.00417 
L 120.633284 214.13824 
L 121.436512 210.814949 
L 122.239739 189.493306 
L 123.042967 225.997048 
L 123.846194 183.993096 
L 124.649422 198.917656 
L 125.452649 242.364435 
L 125.666007 228.827634 
L 126.469234 236.975788 
L 127.272462 248.037648 
L 128.075689 211.907657 
L 128.878917 245.688544 
L 129.682145 220.30406 
L 130.485372 222.188137 
L 131.2886 212.756854 
L 132.091827 213.364169 
L 132.895055 189.724003 
L 133.698282 244.105085 
L 134.50151 183.526318 
L 135.304738 238.201284 
L 136.107965 224.453453 
L 136.911193 216.285049 
L 137.71442 209.997817 
L 138.517648 244.388133 
L 139.320875 189.552336 
L 140.124103 194.251555 
L 141.730558 250.543273 
L 142.533786 190.317754 
L 143.337013 225.004451 
L 144.140241 197.904825 
L 145.746696 190.624517 
L 146.549924 239.302633 
L 148.156379 203.822727 
L 148.959606 218.160883 
L 149.762834 222.609043 
L 150.566062 189.996968 
L 151.582646 210.559268 
L 152.385874 243.702916 
L 153.189102 234.893119 
L 153.992329 235.084915 
L 154.795557 215.229834 
L 155.598784 246.023004 
L 156.402012 239.558827 
L 157.205239 231.619447 
L 158.008467 247.089342 
L 158.811695 195.086061 
L 159.614922 189.517377 
L 160.41815 218.394534 
L 161.221377 226.391299 
L 162.024605 249.182504 
L 162.827832 200.479965 
L 163.63106 192.288503 
L 164.434288 250.761046 
L 165.237515 216.84929 
L 166.040743 205.346462 
L 166.84397 207.538901 
L 167.647198 249.227493 
L 168.450426 222.36911 
L 169.253653 253.439495 
L 170.056881 231.610071 
L 170.860108 225.399568 
L 171.663336 206.932511 
L 172.466563 227.569239 
L 173.269791 213.961471 
L 174.073019 218.356465 
L 174.876246 190.526791 
L 175.679474 240.598209 
L 176.482701 229.037522 
L 177.499286 219.970909 
L 178.302514 229.058083 
L 179.105741 256.388242 
L 179.908969 225.901795 
L 180.712196 222.237281 
L 181.515424 239.669429 
L 182.318652 233.118036 
L 183.121879 230.544542 
L 183.925107 224.465018 
L 184.728334 220.99196 
L 185.531562 228.60733 
L 186.334789 237.570984 
L 187.138017 193.660064 
L 187.941245 203.510092 
L 188.744472 239.427319 
L 189.5477 254.448667 
L 190.350927 237.925281 
L 191.154155 192.837349 
L 191.957383 238.219187 
L 192.76061 207.478903 
L 193.563838 204.545645 
L 194.367065 247.271433 
L 195.170293 254.894768 
L 195.97352 246.54905 
L 196.776748 235.543445 
L 197.579976 232.241649 
L 198.383203 235.371234 
L 199.186431 241.703164 
L 199.989658 230.357921 
L 200.792886 216.331102 
L 201.596113 211.216686 
L 202.399341 219.115101 
L 203.202569 230.404627 
L 203.415926 209.388085 
L 204.219153 265.148629 
L 205.022381 253.869485 
L 205.825609 225.892071 
L 206.628836 218.853634 
L 207.432064 207.050594 
L 208.235291 251.573586 
L 209.038519 234.730412 
L 209.841746 201.803315 
L 210.644974 198.447975 
L 211.448202 236.866839 
L 212.251429 199.08987 
L 213.054657 210.937611 
L 213.857884 226.356682 
L 214.661112 224.946595 
L 215.46434 232.213512 
L 216.267567 226.63807 
L 217.070795 179.464419 
L 217.874022 238.08203 
L 218.67725 231.296053 
L 219.480477 221.804848 
L 220.283705 218.727175 
L 221.086933 256.010315 
L 221.89016 237.533362 
L 222.693388 242.722813 
L 223.496615 229.866845 
L 224.299843 249.708282 
L 225.10307 208.399072 
L 225.906298 211.249151 
L 226.709526 233.382024 
L 227.512753 247.562724 
L 228.315981 241.127007 
L 229.119208 280.224788 
L 229.332566 239.58978 
L 230.135793 272.294291 
L 230.939021 224.536739 
L 231.742248 271.364849 
L 232.545476 210.732161 
L 233.348703 204.609873 
L 234.151931 230.218019 
L 234.955159 275.414947 
L 235.758386 256.453051 
L 236.561614 221.551552 
L 237.364841 204.479055 
L 238.168069 258.62058 
L 238.971297 282.495086 
L 240.577752 238.122503 
L 241.380979 207.794062 
L 242.184207 225.180649 
L 242.987434 224.98538 
L 243.790662 269.635502 
L 244.59389 192.316856 
L 245.397117 253.94714 
L 246.200345 265.634874 
L 247.003572 262.07795 
L 247.8068 241.527889 
L 248.610027 239.559628 
L 249.413255 211.390146 
L 250.216483 220.303742 
L 251.01971 240.319003 
L 251.822938 236.451843 
L 252.626165 244.297321 
L 253.429393 213.460965 
L 254.23262 203.428379 
L 255.035848 210.515643 
L 255.249205 222.598398 
L 256.052433 234.790654 
L 256.85566 265.22766 
L 257.658888 243.471015 
L 259.265343 285.352645 
L 260.871798 225.83597 
L 261.675026 237.112279 
L 262.478254 276.790918 
L 263.281481 254.745341 
L 264.084709 243.486912 
L 264.887936 245.199109 
L 265.691164 273.662413 
L 267.297619 236.529338 
L 268.100847 281.090781 
L 268.904074 208.63524 
L 269.707302 258.307826 
L 270.510529 238.94313 
L 271.313757 243.033791 
L 272.116984 241.061066 
L 272.920212 227.983357 
L 273.72344 233.088147 
L 274.526667 219.699633 
L 275.329895 261.017069 
L 276.133122 256.384688 
L 276.93635 212.612387 
L 277.739577 269.694417 
L 278.542805 234.244704 
L 279.346033 224.784872 
L 280.14926 229.999006 
L 280.952488 209.476382 
L 281.165845 216.554604 
L 281.969073 236.930183 
L 282.7723 269.790649 
L 283.575528 236.436983 
L 285.181983 257.300409 
L 285.985211 231.614056 
L 286.788438 242.148297 
L 287.591666 204.506908 
L 288.394893 246.303452 
L 289.198121 223.011121 
L 290.001348 272.635086 
L 290.804576 290.259674 
L 291.607804 281.133176 
L 292.411031 228.133802 
L 293.214259 262.604505 
L 294.017486 259.494324 
L 294.820714 251.08074 
L 295.623941 267.744742 
L 296.427169 265.575691 
L 297.230397 248.721449 
L 298.033624 198.401154 
L 298.836852 250.683264 
L 299.640079 229.212718 
L 300.443307 234.914727 
L 301.246534 253.996995 
L 302.049762 244.685283 
L 302.85299 270.285537 
L 303.656217 216.144866 
L 304.459445 240.744123 
L 305.262672 214.680765 
L 306.0659 240.957287 
L 306.869127 247.060316 
L 307.082485 264.645075 
L 307.885712 268.712523 
L 308.68894 285.002183 
L 309.492168 290.378429 
L 310.295395 261.771002 
L 311.098623 271.227988 
L 311.90185 226.924029 
L 312.705078 288.940834 
L 313.508305 253.908397 
L 314.311533 208.566815 
L 315.114761 277.650627 
L 315.917988 256.507484 
L 316.721216 275.881542 
L 317.524443 283.139433 
L 319.130898 237.218864 
L 319.934126 244.896023 
L 320.737354 232.084713 
L 321.540581 240.723441 
L 322.343809 281.437497 
L 323.147036 285.307073 
L 323.950264 272.534731 
L 325.556719 241.538926 
L 326.359947 242.500028 
L 327.163174 268.181052 
L 327.966402 274.218746 
L 328.769629 275.056488 
L 329.572857 230.531458 
L 330.376084 285.544043 
L 331.179312 291.224729 
L 331.98254 231.874908 
L 332.785767 242.873378 
L 332.999125 239.079007 
L 333.802352 258.551262 
L 334.60558 286.072703 
L 335.408807 286.31469 
L 336.212035 288.409713 
L 337.015262 283.419731 
L 338.621718 232.3478 
L 339.424945 249.762206 
L 340.228173 244.287398 
L 341.0314 266.453666 
L 341.834628 235.770921 
L 342.637855 266.310772 
L 343.441083 237.318133 
L 344.244311 214.500227 
L 345.047538 289.801316 
L 345.850766 291.85349 
L 346.653993 270.943197 
L 347.457221 239.133905 
L 348.260448 254.279799 
L 349.063676 261.267876 
L 349.866904 203.961601 
L 350.670131 268.264731 
L 351.473359 273.298624 
L 352.276586 239.547912 
L 353.079814 252.251351 
L 353.883041 243.225235 
L 354.686269 205.950457 
L 355.489497 236.067987 
L 356.292724 236.937375 
L 357.095952 274.843405 
L 357.899179 250.978158 
L 358.915764 292.119466 
L 359.718992 268.510357 
L 360.522219 291.737614 
L 361.325447 258.621139 
L 362.128675 273.168594 
L 362.931902 279.408085 
L 363.73513 277.735317 
L 364.538357 201.687525 
L 365.341585 277.222334 
L 366.144812 292.141346 
L 366.94804 287.998489 
L 367.751268 270.626818 
L 368.554495 284.946084 
L 369.357723 247.742913 
L 370.16095 256.500621 
L 370.964178 250.762075 
L 371.767405 242.955875 
L 372.570633 295.488 
L 373.373861 243.697618 
L 374.177088 240.054028 
L 374.980316 221.59278 
L 375.783543 273.056012 
L 376.586771 275.485961 
L 377.389998 241.966195 
L 378.193226 222.419027 
L 378.996454 249.866946 
L 379.799681 229.367347 
L 380.602909 240.111335 
L 381.406136 287.294707 
L 382.209364 260.660159 
L 383.012591 229.778235 
L 383.815819 290.827824 
L 384.619047 231.441868 
L 384.832404 265.845369 
L 385.635632 291.742252 
L 386.438859 255.001721 
L 387.242087 288.097177 
L 388.045314 281.077204 
L 388.848542 239.033823 
L 389.651769 253.906 
L 390.454997 260.192945 
L 391.258225 293.424371 
L 392.061452 293.166148 
L 392.86468 267.408221 
L 393.667907 268.697876 
L 394.471135 222.046542 
L 395.274362 281.040696 
L 396.07759 283.541128 
L 396.880818 257.947017 
L 397.684045 265.536916 
L 398.487273 267.100315 
L 398.487273 267.100315 
" clip-path="url(#pf74f4cddfb)" style="fill: none; stroke: #1f77b4; stroke-opacity: 0.9; stroke-linecap: square"/>
   </g>
   <g id="line2d_44">
    <path d="M 73.832727 119.395995 
L 74.635955 169.397012 
L 75.439182 192.655241 
L 76.24241 186.055473 
L 77.045638 207.462603 
L 77.848865 197.832843 
L 78.652093 210.650559 
L 79.45532 206.923582 
L 80.258548 208.487672 
L 81.061775 207.474146 
L 81.865003 214.80942 
L 82.668231 224.330295 
L 83.471458 230.622979 
L 84.274686 214.369497 
L 85.077913 229.519411 
L 85.881141 220.270806 
L 86.684368 209.198968 
L 87.487596 216.803995 
L 88.290824 215.380527 
L 89.094051 222.719137 
L 89.897279 225.23323 
L 90.700506 219.184907 
L 91.503734 219.285001 
L 92.306961 225.297692 
L 93.913417 233.904893 
L 94.716644 215.916059 
L 95.519872 231.218368 
L 96.323099 228.758496 
L 97.126327 219.491976 
L 97.929555 232.282598 
L 98.732782 240.955323 
L 99.749367 206.03669 
L 100.552595 210.159168 
L 101.355822 217.983854 
L 102.15905 220.407165 
L 102.962277 240.80272 
L 103.765505 221.232488 
L 104.568732 234.63379 
L 105.37196 240.600553 
L 106.175188 238.322918 
L 106.978415 235.19432 
L 107.781643 226.041547 
L 108.58487 200.77451 
L 109.388098 244.481498 
L 110.191325 227.32689 
L 110.994553 228.189585 
L 111.797781 221.1059 
L 112.601008 215.813227 
L 113.404236 249.758086 
L 114.207463 218.809635 
L 115.010691 228.00246 
L 115.813918 245.980247 
L 116.617146 211.358951 
L 117.420374 244.044948 
L 118.223601 229.904622 
L 119.026829 242.065493 
L 119.830056 216.790175 
L 121.436512 243.731539 
L 122.239739 212.84981 
L 123.042967 235.283234 
L 123.846194 251.922059 
L 124.649422 238.983754 
L 125.452649 211.973916 
L 125.666007 250.254775 
L 126.469234 252.107019 
L 127.272462 251.039179 
L 128.075689 246.165074 
L 128.878917 236.391377 
L 129.682145 231.784382 
L 130.485372 238.230122 
L 131.2886 203.909638 
L 132.091827 244.595483 
L 132.895055 252.252004 
L 133.698282 215.567818 
L 134.50151 239.94283 
L 135.304738 249.015879 
L 136.107965 243.425842 
L 136.911193 232.521877 
L 137.71442 215.684662 
L 138.517648 236.115223 
L 139.320875 244.750619 
L 140.124103 223.068688 
L 140.927331 229.770548 
L 141.730558 241.92322 
L 142.533786 222.945295 
L 144.140241 249.383996 
L 144.943469 248.389732 
L 145.746696 252.74216 
L 146.549924 247.586039 
L 147.353151 214.304002 
L 148.156379 252.361019 
L 148.959606 251.536473 
L 149.762834 248.256487 
L 150.566062 254.939509 
L 151.369289 236.416988 
L 151.582646 251.930749 
L 152.385874 247.822216 
L 153.189102 250.086668 
L 153.992329 218.2108 
L 154.795557 229.293784 
L 155.598784 213.5913 
L 156.402012 232.011791 
L 157.205239 258.439115 
L 158.008467 247.473129 
L 158.811695 254.483622 
L 159.614922 222.742662 
L 160.41815 204.43148 
L 161.221377 232.417362 
L 162.024605 253.291095 
L 162.827832 241.027433 
L 163.63106 230.75598 
L 164.434288 255.802954 
L 165.237515 226.927015 
L 166.040743 213.036906 
L 166.84397 222.290748 
L 167.647198 245.146913 
L 168.450426 204.7015 
L 169.253653 248.859902 
L 170.056881 231.071421 
L 170.860108 261.609237 
L 171.663336 240.953956 
L 172.466563 237.428608 
L 173.269791 258.970773 
L 174.073019 237.969208 
L 174.876246 242.278849 
L 175.679474 209.780645 
L 176.482701 239.030283 
L 177.285929 250.575701 
L 177.499286 258.841195 
L 178.302514 237.878565 
L 179.105741 241.722212 
L 179.908969 240.448891 
L 180.712196 234.933673 
L 181.515424 258.462588 
L 182.318652 222.261172 
L 183.121879 248.008903 
L 183.925107 214.476389 
L 184.728334 237.258806 
L 185.531562 243.792521 
L 186.334789 254.555872 
L 187.138017 223.349047 
L 187.941245 254.067566 
L 188.744472 254.581924 
L 189.5477 252.241945 
L 190.350927 221.764691 
L 191.154155 253.714965 
L 191.957383 235.57636 
L 192.76061 226.838676 
L 193.563838 260.611699 
L 194.367065 257.052098 
L 195.170293 247.351985 
L 195.97352 231.297458 
L 196.776748 254.322966 
L 197.579976 259.680774 
L 198.383203 258.214037 
L 199.186431 256.483897 
L 199.989658 251.125032 
L 200.792886 215.745948 
L 201.596113 262.428213 
L 202.399341 246.896367 
L 203.202569 246.700389 
L 203.415926 232.201281 
L 204.219153 244.610466 
L 205.022381 243.897058 
L 205.825609 258.049969 
L 206.628836 251.725295 
L 207.432064 243.561046 
L 208.235291 220.338843 
L 209.038519 257.414506 
L 209.841746 246.520695 
L 210.644974 259.457382 
L 211.448202 216.675476 
L 212.251429 252.772122 
L 213.054657 259.065507 
L 213.857884 243.479461 
L 214.661112 224.624331 
L 215.46434 223.143165 
L 216.267567 231.512292 
L 217.070795 236.187336 
L 217.874022 264.15516 
L 218.67725 258.562992 
L 219.480477 250.390002 
L 220.283705 258.37309 
L 221.086933 227.561639 
L 222.693388 244.854901 
L 223.496615 213.068266 
L 224.299843 253.566452 
L 225.10307 226.946655 
L 225.906298 242.446567 
L 226.709526 237.118181 
L 227.512753 242.303964 
L 228.315981 254.373405 
L 229.119208 232.427759 
L 229.332566 251.626653 
L 230.135793 263.424108 
L 230.939021 240.345885 
L 231.742248 234.939539 
L 232.545476 265.073505 
L 234.151931 238.373778 
L 234.955159 266.131321 
L 235.758386 219.388321 
L 236.561614 265.313926 
L 237.364841 255.155373 
L 238.168069 258.029863 
L 238.971297 254.690336 
L 239.774524 243.958259 
L 240.577752 248.12283 
L 241.380979 264.214877 
L 242.184207 227.420106 
L 242.987434 259.404433 
L 243.790662 264.92679 
L 244.59389 233.111697 
L 245.397117 249.908814 
L 246.200345 245.670316 
L 247.003572 258.399853 
L 247.8068 254.812743 
L 248.610027 257.27345 
L 249.413255 221.288526 
L 250.216483 247.828124 
L 251.01971 261.341333 
L 251.822938 244.973559 
L 252.626165 256.116388 
L 253.429393 233.400337 
L 254.23262 255.892676 
L 255.035848 253.335508 
L 255.249205 251.906891 
L 256.052433 258.805102 
L 256.85566 237.031855 
L 257.658888 267.974486 
L 258.462116 244.870439 
L 259.265343 243.784158 
L 260.068571 243.322809 
L 260.871798 246.621419 
L 261.675026 259.395296 
L 262.478254 250.899337 
L 263.281481 240.242481 
L 264.084709 263.807911 
L 265.691164 266.987185 
L 266.494391 235.276074 
L 267.297619 264.053695 
L 268.100847 239.967129 
L 268.904074 256.552266 
L 269.707302 266.396846 
L 270.510529 250.454124 
L 271.313757 226.208494 
L 272.116984 245.592656 
L 272.920212 267.891663 
L 273.72344 256.985693 
L 274.526667 227.572507 
L 275.329895 263.605942 
L 276.133122 233.586592 
L 277.739577 262.811739 
L 278.542805 230.059861 
L 279.346033 264.931755 
L 280.14926 234.800329 
L 280.952488 251.519624 
L 281.165845 260.930619 
L 281.969073 246.657968 
L 283.575528 241.344652 
L 284.378755 237.10966 
L 285.181983 258.733221 
L 285.985211 229.515861 
L 286.788438 244.619838 
L 287.591666 262.572285 
L 288.394893 259.222893 
L 289.198121 266.931029 
L 290.001348 232.682617 
L 290.804576 225.607716 
L 291.607804 264.917125 
L 292.411031 256.434548 
L 293.214259 254.841955 
L 294.017486 266.558213 
L 294.820714 252.765272 
L 295.623941 241.684113 
L 296.427169 252.625155 
L 297.230397 256.166791 
L 298.033624 264.575861 
L 298.836852 257.429382 
L 299.640079 270.286296 
L 300.443307 260.220289 
L 301.246534 241.29748 
L 302.049762 267.827834 
L 302.85299 258.10886 
L 303.656217 243.024649 
L 304.459445 250.50626 
L 305.262672 265.799586 
L 306.0659 234.152606 
L 306.869127 264.927449 
L 307.082485 248.84053 
L 307.885712 228.335972 
L 308.68894 271.49473 
L 309.492168 259.69974 
L 310.295395 239.796072 
L 311.098623 269.960339 
L 311.90185 253.159359 
L 312.705078 256.830753 
L 313.508305 262.469438 
L 314.311533 256.946041 
L 315.114761 239.329478 
L 315.917988 245.385221 
L 316.721216 262.301583 
L 317.524443 259.062623 
L 318.327671 272.501381 
L 319.130898 271.104587 
L 319.934126 231.553742 
L 320.737354 264.463869 
L 321.540581 266.068731 
L 322.343809 262.66261 
L 323.147036 269.100518 
L 323.950264 250.376259 
L 324.753491 241.087533 
L 325.556719 252.996563 
L 326.359947 270.394711 
L 327.163174 264.552786 
L 327.966402 237.297817 
L 328.769629 264.553536 
L 329.572857 228.342864 
L 330.376084 254.749656 
L 331.98254 272.319019 
L 332.785767 247.262617 
L 332.999125 255.75251 
L 333.802352 273.357751 
L 334.60558 272.192666 
L 335.408807 244.914945 
L 336.212035 249.640403 
L 337.015262 255.105576 
L 337.81849 257.449164 
L 338.621718 245.906451 
L 339.424945 260.112728 
L 340.228173 232.719259 
L 341.0314 261.872422 
L 341.834628 269.859516 
L 342.637855 271.385562 
L 343.441083 253.029317 
L 344.244311 249.090318 
L 345.047538 239.384045 
L 345.850766 271.717248 
L 346.653993 253.189489 
L 347.457221 251.132483 
L 348.260448 257.32064 
L 349.063676 233.493209 
L 349.866904 273.151954 
L 350.670131 267.35793 
L 351.473359 251.581765 
L 352.276586 268.082527 
L 353.079814 250.324678 
L 353.883041 266.887127 
L 354.686269 236.272697 
L 355.489497 274.463401 
L 356.292724 272.872799 
L 357.095952 275.651888 
L 357.899179 259.423693 
L 358.702407 253.172047 
L 358.915764 259.777806 
L 359.718992 237.757573 
L 360.522219 272.151231 
L 361.325447 262.536082 
L 362.128675 271.732642 
L 362.931902 264.530791 
L 363.73513 242.236319 
L 364.538357 251.285568 
L 365.341585 247.798447 
L 366.144812 263.317656 
L 366.94804 267.079608 
L 367.751268 228.701536 
L 368.554495 269.835382 
L 369.357723 244.350874 
L 370.16095 264.870533 
L 370.964178 260.220341 
L 371.767405 258.499616 
L 372.570633 271.669574 
L 373.373861 255.442386 
L 374.177088 261.561514 
L 374.980316 269.082015 
L 375.783543 274.034378 
L 376.586771 274.505244 
L 377.389998 273.922922 
L 378.193226 242.011027 
L 378.996454 267.999713 
L 379.799681 253.048506 
L 380.602909 267.927571 
L 381.406136 273.998204 
L 382.209364 256.223885 
L 383.012591 263.828726 
L 383.815819 278.313157 
L 384.619047 265.961173 
L 384.832404 259.013165 
L 385.635632 261.658638 
L 386.438859 263.797532 
L 387.242087 255.455555 
L 388.045314 245.7908 
L 388.848542 253.864394 
L 389.651769 272.586635 
L 390.454997 246.969653 
L 391.258225 258.188007 
L 392.061452 274.035037 
L 392.86468 269.298831 
L 393.667907 273.788427 
L 394.471135 248.344861 
L 395.274362 254.863039 
L 396.07759 250.408799 
L 396.880818 275.925804 
L 397.684045 274.081798 
L 398.487273 276.13972 
L 398.487273 276.13972 
" clip-path="url(#pf74f4cddfb)" style="fill: none; stroke: #ff7f0e; stroke-opacity: 0.9; stroke-linecap: square"/>
   </g>
   <g id="line2d_45">
    <path d="M 73.832727 131.650927 
L 74.635955 177.23884 
L 75.439182 195.089422 
L 76.24241 206.365432 
L 77.045638 201.752801 
L 77.848865 208.988601 
L 79.45532 225.942058 
L 80.258548 195.213138 
L 81.061775 217.90773 
L 81.865003 197.015627 
L 82.668231 229.630339 
L 83.471458 212.634929 
L 84.274686 233.810226 
L 85.077913 217.571801 
L 85.881141 217.591383 
L 86.684368 222.761293 
L 87.487596 230.955021 
L 89.094051 212.729421 
L 89.897279 214.78955 
L 90.700506 222.71994 
L 91.503734 235.806804 
L 92.306961 239.24194 
L 93.110189 244.295394 
L 93.913417 226.453158 
L 94.716644 203.411481 
L 95.519872 225.082638 
L 96.323099 219.044261 
L 97.126327 215.514807 
L 97.929555 237.804152 
L 98.732782 233.119789 
L 99.53601 241.248251 
L 99.749367 209.541975 
L 100.552595 249.494675 
L 101.355822 240.991117 
L 102.15905 245.52855 
L 102.962277 221.017296 
L 103.765505 242.744612 
L 104.568732 246.96582 
L 105.37196 249.162578 
L 106.175188 200.737648 
L 106.978415 250.425777 
L 107.781643 255.046353 
L 108.58487 222.321079 
L 109.388098 241.758319 
L 110.191325 247.9064 
L 110.994553 250.657958 
L 111.797781 239.725945 
L 112.601008 241.466844 
L 113.404236 246.282085 
L 114.207463 202.170804 
L 115.010691 207.43542 
L 115.813918 228.808803 
L 116.617146 212.927553 
L 117.420374 234.694446 
L 118.223601 202.931858 
L 119.026829 205.05207 
L 120.633284 223.14997 
L 121.436512 250.179581 
L 122.239739 247.372764 
L 123.042967 227.020231 
L 123.846194 198.22163 
L 124.649422 246.404288 
L 125.452649 242.140204 
L 125.666007 247.747516 
L 126.469234 230.324254 
L 127.272462 238.014144 
L 128.075689 237.842912 
L 128.878917 256.283422 
L 129.682145 236.402681 
L 130.485372 248.633635 
L 131.2886 227.096719 
L 132.091827 228.101514 
L 132.895055 199.727677 
L 133.698282 256.276287 
L 134.50151 216.472351 
L 135.304738 254.875097 
L 136.107965 243.58635 
L 136.911193 235.808088 
L 137.71442 243.371712 
L 138.517648 243.218088 
L 139.320875 231.672431 
L 140.124103 246.430461 
L 140.927331 256.621092 
L 141.730558 220.774124 
L 142.533786 245.84333 
L 143.337013 257.46785 
L 144.140241 235.231836 
L 144.943469 231.995943 
L 145.746696 256.883138 
L 146.549924 196.891405 
L 147.353151 236.001012 
L 148.156379 223.573917 
L 148.959606 228.414218 
L 149.762834 211.861012 
L 150.566062 246.156458 
L 151.369289 228.319049 
L 151.582646 220.211493 
L 152.385874 258.350277 
L 153.189102 201.722401 
L 153.992329 213.032087 
L 154.795557 257.964735 
L 155.598784 223.460968 
L 156.402012 255.188095 
L 157.205239 250.004738 
L 158.008467 241.96715 
L 158.811695 253.026572 
L 159.614922 257.858889 
L 160.41815 213.814141 
L 161.221377 251.588634 
L 162.024605 262.375481 
L 162.827832 252.027146 
L 163.63106 260.003119 
L 164.434288 255.297867 
L 165.237515 234.206104 
L 166.040743 254.407606 
L 166.84397 239.597064 
L 167.647198 254.293382 
L 168.450426 222.844889 
L 169.253653 238.490569 
L 170.056881 241.933107 
L 170.860108 237.351176 
L 171.663336 253.631939 
L 172.466563 239.737838 
L 173.269791 232.657595 
L 174.073019 235.685218 
L 174.876246 218.691867 
L 175.679474 229.49277 
L 176.482701 258.093684 
L 177.285929 261.587049 
L 177.499286 257.350638 
L 178.302514 261.567227 
L 179.105741 257.201212 
L 179.908969 242.57773 
L 180.712196 259.355465 
L 182.318652 240.114863 
L 183.121879 238.218129 
L 183.925107 255.322493 
L 184.728334 228.746717 
L 185.531562 233.933308 
L 186.334789 256.019045 
L 187.138017 237.395909 
L 187.941245 247.21665 
L 188.744472 232.290949 
L 189.5477 224.547781 
L 190.350927 232.537603 
L 191.154155 256.240494 
L 191.957383 262.902126 
L 192.76061 236.022011 
L 193.563838 253.144011 
L 194.367065 262.558234 
L 195.170293 262.35245 
L 195.97352 258.177686 
L 196.776748 245.962831 
L 197.579976 239.382222 
L 198.383203 245.114133 
L 199.186431 248.644052 
L 199.989658 248.907428 
L 201.596113 261.858813 
L 202.399341 263.644477 
L 203.202569 257.439555 
L 203.415926 213.342528 
L 204.219153 263.745712 
L 205.825609 220.254108 
L 206.628836 256.795974 
L 207.432064 262.212777 
L 208.235291 220.494411 
L 209.038519 230.356973 
L 209.841746 210.109145 
L 210.644974 222.888401 
L 211.448202 213.909597 
L 212.251429 263.203792 
L 213.054657 260.531716 
L 213.857884 260.751397 
L 214.661112 225.515395 
L 215.46434 239.287433 
L 216.267567 242.202912 
L 217.070795 266.331296 
L 217.874022 245.11205 
L 218.67725 262.442865 
L 219.480477 264.222697 
L 220.283705 217.968131 
L 221.086933 214.090627 
L 221.89016 253.673368 
L 222.693388 263.377319 
L 223.496615 265.927038 
L 224.299843 255.512432 
L 225.10307 239.671066 
L 225.906298 251.918335 
L 226.709526 259.873983 
L 227.512753 259.289711 
L 228.315981 241.36628 
L 229.119208 240.738545 
L 229.332566 257.073857 
L 230.135793 257.978814 
L 230.939021 267.160498 
L 231.742248 258.782263 
L 232.545476 255.439967 
L 233.348703 250.405826 
L 234.151931 246.909318 
L 234.955159 267.147421 
L 235.758386 244.561175 
L 236.561614 261.211605 
L 237.364841 267.288369 
L 238.168069 262.870849 
L 238.971297 229.698495 
L 239.774524 243.919786 
L 240.577752 241.334699 
L 241.380979 241.406761 
L 242.184207 245.77798 
L 242.987434 229.253234 
L 244.59389 264.179265 
L 245.397117 236.499224 
L 246.200345 239.724283 
L 247.003572 232.98941 
L 247.8068 243.936298 
L 248.610027 252.072984 
L 249.413255 236.027538 
L 250.216483 267.674371 
L 251.01971 237.012749 
L 251.822938 252.308617 
L 252.626165 245.45465 
L 253.429393 250.63364 
L 254.23262 268.509917 
L 255.035848 235.253522 
L 255.249205 266.956294 
L 256.052433 250.294733 
L 256.85566 248.883164 
L 257.658888 255.547195 
L 258.462116 265.389337 
L 259.265343 243.376191 
L 260.068571 251.8915 
L 260.871798 267.149079 
L 261.675026 262.793793 
L 262.478254 252.929273 
L 263.281481 268.348794 
L 264.084709 262.240029 
L 264.887936 267.095809 
L 265.691164 263.791008 
L 266.494391 258.210181 
L 267.297619 250.396993 
L 268.100847 228.111232 
L 268.904074 261.725862 
L 269.707302 232.216203 
L 270.510529 260.494452 
L 271.313757 240.221747 
L 272.116984 232.856236 
L 272.920212 258.564425 
L 273.72344 268.335281 
L 274.526667 244.016775 
L 275.329895 243.903603 
L 276.133122 234.345865 
L 276.93635 256.541536 
L 277.739577 263.246464 
L 278.542805 246.642624 
L 279.346033 256.248454 
L 280.14926 264.111847 
L 280.952488 269.202841 
L 281.165845 271.571195 
L 281.969073 238.179132 
L 282.7723 270.408138 
L 283.575528 263.371348 
L 284.378755 236.441824 
L 285.181983 256.566025 
L 286.788438 273.483396 
L 287.591666 274.473994 
L 288.394893 268.689661 
L 289.198121 244.542379 
L 290.001348 250.382702 
L 290.804576 270.997688 
L 291.607804 262.252639 
L 292.411031 266.366731 
L 293.214259 258.31463 
L 294.017486 261.893591 
L 294.820714 273.008 
L 295.623941 266.117598 
L 296.427169 275.59972 
L 298.033624 246.468626 
L 298.836852 269.037559 
L 299.640079 273.215668 
L 300.443307 271.907712 
L 301.246534 263.041562 
L 302.049762 268.762687 
L 302.85299 271.962225 
L 303.656217 249.531838 
L 304.459445 221.620638 
L 305.262672 271.321054 
L 306.0659 229.131228 
L 307.082485 274.465791 
L 307.885712 260.219569 
L 308.68894 272.351074 
L 309.492168 276.152471 
L 310.295395 253.620728 
L 311.098623 250.694677 
L 311.90185 271.504041 
L 312.705078 273.41116 
L 313.508305 261.192428 
L 314.311533 274.025729 
L 315.114761 246.369049 
L 315.917988 278.879372 
L 316.721216 248.084106 
L 317.524443 259.957331 
L 318.327671 256.120094 
L 319.130898 270.916411 
L 319.934126 231.307018 
L 320.737354 270.618881 
L 321.540581 267.614428 
L 322.343809 267.257435 
L 323.147036 277.490926 
L 323.950264 256.454253 
L 324.753491 260.768619 
L 325.556719 268.447668 
L 326.359947 265.275589 
L 327.163174 273.787619 
L 327.966402 270.382018 
L 328.769629 269.413634 
L 329.572857 241.397213 
L 330.376084 259.528905 
L 331.179312 274.532127 
L 331.98254 277.027188 
L 332.785767 278.3719 
L 332.999125 244.221791 
L 333.802352 271.424863 
L 334.60558 274.845813 
L 335.408807 233.011673 
L 336.212035 260.225344 
L 337.015262 262.547264 
L 337.81849 262.487813 
L 338.621718 237.790217 
L 339.424945 269.379015 
L 340.228173 234.226986 
L 341.834628 264.780332 
L 342.637855 273.13404 
L 343.441083 262.871577 
L 344.244311 260.22004 
L 345.047538 249.960337 
L 345.850766 269.113357 
L 346.653993 260.537104 
L 347.457221 258.155783 
L 348.260448 270.959018 
L 349.063676 247.140812 
L 349.866904 281.385352 
L 350.670131 273.748782 
L 351.473359 245.579072 
L 352.276586 269.415965 
L 353.079814 260.449638 
L 353.883041 268.793438 
L 354.686269 241.886768 
L 355.489497 276.607036 
L 356.292724 267.679635 
L 357.095952 280.827139 
L 358.702407 253.969906 
L 358.915764 274.08156 
L 359.718992 239.837399 
L 360.522219 266.500344 
L 361.325447 271.410417 
L 362.128675 257.259559 
L 362.931902 263.280871 
L 363.73513 254.756961 
L 364.538357 266.81209 
L 365.341585 259.022655 
L 366.144812 280.859233 
L 366.94804 260.693119 
L 367.751268 230.597893 
L 368.554495 259.11458 
L 369.357723 248.005212 
L 370.16095 274.436809 
L 370.964178 271.549855 
L 371.767405 281.451032 
L 372.570633 278.623978 
L 373.373861 254.996693 
L 374.177088 259.506715 
L 374.980316 277.520758 
L 375.783543 270.420828 
L 376.586771 266.404103 
L 377.389998 279.597387 
L 378.193226 246.208556 
L 378.996454 273.039514 
L 379.799681 255.242671 
L 380.602909 271.894317 
L 381.406136 284.786099 
L 382.209364 253.294523 
L 383.012591 256.875993 
L 383.815819 275.037698 
L 384.619047 273.076704 
L 384.832404 267.668149 
L 385.635632 276.593026 
L 386.438859 265.809033 
L 387.242087 258.500405 
L 388.045314 256.86361 
L 388.848542 283.112882 
L 389.651769 253.321748 
L 390.454997 255.055521 
L 392.061452 278.955792 
L 392.86468 253.573301 
L 393.667907 256.859564 
L 394.471135 270.742917 
L 395.274362 257.937873 
L 396.07759 271.357245 
L 396.880818 239.252627 
L 397.684045 262.937081 
L 398.487273 274.758192 
L 398.487273 274.758192 
" clip-path="url(#pf74f4cddfb)" style="fill: none; stroke: #2ca02c; stroke-opacity: 0.9; stroke-linecap: square"/>
   </g>
   <g id="patch_3">
    <path d="M 57.6 307.584 
L 57.6 41.472 
" style="fill: none; stroke: #000000; stroke-width: 0.8; stroke-linejoin: miter; stroke-linecap: square"/>
   </g>
   <g id="patch_4">
    <path d="M 414.72 307.584 
L 414.72 41.472 
" style="fill: none; stroke: #000000; stroke-width: 0.8; stroke-linejoin: miter; stroke-linecap: square"/>
   </g>
   <g id="patch_5">
    <path d="M 57.6 307.584 
L 414.72 307.584 
" style="fill: none; stroke: #000000; stroke-width: 0.8; stroke-linejoin: miter; stroke-linecap: square"/>
   </g>
   <g id="patch_6">
    <path d="M 57.6 41.472 
L 414.72 41.472 
" style="fill: none; stroke: #000000; stroke-width: 0.8; stroke-linejoin: miter; stroke-linecap: square"/>
   </g>
   <g id="text_13">
    <!-- 2025-02-19-00:11:27 -->
    <g transform="translate(172.178438 35.472) scale(0.12 -0.12)">
     <defs>
      <path id="DejaVuSans-2d" d="M 313 2009 
L 1997 2009 
L 1997 1497 
L 313 1497 
L 313 2009 
z
" transform="scale(0.015625)"/>
      <path id="DejaVuSans-39" d="M 703 97 
L 703 672 
Q 941 559 1184 500 
Q 1428 441 1663 441 
Q 2288 441 2617 861 
Q 2947 1281 2994 2138 
Q 2813 1869 2534 1725 
Q 2256 1581 1919 1581 
Q 1219 1581 811 2004 
Q 403 2428 403 3163 
Q 403 3881 828 4315 
Q 1253 4750 1959 4750 
Q 2769 4750 3195 4129 
Q 3622 3509 3622 2328 
Q 3622 1225 3098 567 
Q 2575 -91 1691 -91 
Q 1453 -91 1209 -44 
Q 966 3 703 97 
z
M 1959 2075 
Q 2384 2075 2632 2365 
Q 2881 2656 2881 3163 
Q 2881 3666 2632 3958 
Q 2384 4250 1959 4250 
Q 1534 4250 1286 3958 
Q 1038 3666 1038 3163 
Q 1038 2656 1286 2365 
Q 1534 2075 1959 2075 
z
" transform="scale(0.015625)"/>
      <path id="DejaVuSans-3a" d="M 750 794 
L 1409 794 
L 1409 0 
L 750 0 
L 750 794 
z
M 750 3309 
L 1409 3309 
L 1409 2516 
L 750 2516 
L 750 3309 
z
" transform="scale(0.015625)"/>
      <path id="DejaVuSans-37" d="M 525 4666 
L 3525 4666 
L 3525 4397 
L 1831 0 
L 1172 0 
L 2766 4134 
L 525 4134 
L 525 4666 
z
" transform="scale(0.015625)"/>
     </defs>
     <use xlink:href="#DejaVuSans-32"/>
     <use xlink:href="#DejaVuSans-30" x="63.623047"/>
     <use xlink:href="#DejaVuSans-32" x="127.246094"/>
     <use xlink:href="#DejaVuSans-35" x="190.869141"/>
     <use xlink:href="#DejaVuSans-2d" x="254.492188"/>
     <use xlink:href="#DejaVuSans-30" x="290.576172"/>
     <use xlink:href="#DejaVuSans-32" x="354.199219"/>
     <use xlink:href="#DejaVuSans-2d" x="417.822266"/>
     <use xlink:href="#DejaVuSans-31" x="453.90625"/>
     <use xlink:href="#DejaVuSans-39" x="517.529297"/>
     <use xlink:href="#DejaVuSans-2d" x="581.152344"/>
     <use xlink:href="#DejaVuSans-30" x="617.236328"/>
     <use xlink:href="#DejaVuSans-30" x="680.859375"/>
     <use xlink:href="#DejaVuSans-3a" x="744.482422"/>
     <use xlink:href="#DejaVuSans-31" x="778.173828"/>
     <use xlink:href="#DejaVuSans-31" x="841.796875"/>
     <use xlink:href="#DejaVuSans-3a" x="905.419922"/>
     <use xlink:href="#DejaVuSans-32" x="939.111328"/>
     <use xlink:href="#DejaVuSans-37" x="1002.734375"/>
    </g>
   </g>
   <g id="legend_1">
    <g id="patch_7">
     <path d="M 281.596563 94.34075 
L 407.72 94.34075 
Q 409.72 94.34075 409.72 92.34075 
L 409.72 48.472 
Q 409.72 46.472 407.72 46.472 
L 281.596563 46.472 
Q 279.596563 46.472 279.596563 48.472 
L 279.596563 92.34075 
Q 279.596563 94.34075 281.596563 94.34075 
z
" style="fill: #ffffff; opacity: 0.8; stroke: #cccccc; stroke-linejoin: miter"/>
    </g>
    <g id="line2d_46">
     <path d="M 283.596563 54.570438 
L 293.596563 54.570438 
L 303.596563 54.570438 
" style="fill: none; stroke: #1f77b4; stroke-opacity: 0.9; stroke-linecap: square"/>
    </g>
    <g id="text_14">
     <!-- SchNet eval_loss -->
     <g transform="translate(311.596563 58.070438) scale(0.1 -0.1)">
      <defs>
       <path id="DejaVuSans-53" d="M 3425 4513 
L 3425 3897 
Q 3066 4069 2747 4153 
Q 2428 4238 2131 4238 
Q 1616 4238 1336 4038 
Q 1056 3838 1056 3469 
Q 1056 3159 1242 3001 
Q 1428 2844 1947 2747 
L 2328 2669 
Q 3034 2534 3370 2195 
Q 3706 1856 3706 1288 
Q 3706 609 3251 259 
Q 2797 -91 1919 -91 
Q 1588 -91 1214 -16 
Q 841 59 441 206 
L 441 856 
Q 825 641 1194 531 
Q 1563 422 1919 422 
Q 2459 422 2753 634 
Q 3047 847 3047 1241 
Q 3047 1584 2836 1778 
Q 2625 1972 2144 2069 
L 1759 2144 
Q 1053 2284 737 2584 
Q 422 2884 422 3419 
Q 422 4038 858 4394 
Q 1294 4750 2059 4750 
Q 2388 4750 2728 4690 
Q 3069 4631 3425 4513 
z
" transform="scale(0.015625)"/>
       <path id="DejaVuSans-63" d="M 3122 3366 
L 3122 2828 
Q 2878 2963 2633 3030 
Q 2388 3097 2138 3097 
Q 1578 3097 1268 2742 
Q 959 2388 959 1747 
Q 959 1106 1268 751 
Q 1578 397 2138 397 
Q 2388 397 2633 464 
Q 2878 531 3122 666 
L 3122 134 
Q 2881 22 2623 -34 
Q 2366 -91 2075 -91 
Q 1284 -91 818 406 
Q 353 903 353 1747 
Q 353 2603 823 3093 
Q 1294 3584 2113 3584 
Q 2378 3584 2631 3529 
Q 2884 3475 3122 3366 
z
" transform="scale(0.015625)"/>
       <path id="DejaVuSans-68" d="M 3513 2113 
L 3513 0 
L 2938 0 
L 2938 2094 
Q 2938 2591 2744 2837 
Q 2550 3084 2163 3084 
Q 1697 3084 1428 2787 
Q 1159 2491 1159 1978 
L 1159 0 
L 581 0 
L 581 4863 
L 1159 4863 
L 1159 2956 
Q 1366 3272 1645 3428 
Q 1925 3584 2291 3584 
Q 2894 3584 3203 3211 
Q 3513 2838 3513 2113 
z
" transform="scale(0.015625)"/>
       <path id="DejaVuSans-4e" d="M 628 4666 
L 1478 4666 
L 3547 763 
L 3547 4666 
L 4159 4666 
L 4159 0 
L 3309 0 
L 1241 3903 
L 1241 0 
L 628 0 
L 628 4666 
z
" transform="scale(0.015625)"/>
       <path id="DejaVuSans-20" transform="scale(0.015625)"/>
       <path id="DejaVuSans-76" d="M 191 3500 
L 800 3500 
L 1894 563 
L 2988 3500 
L 3597 3500 
L 2284 0 
L 1503 0 
L 191 3500 
z
" transform="scale(0.015625)"/>
       <path id="DejaVuSans-61" d="M 2194 1759 
Q 1497 1759 1228 1600 
Q 959 1441 959 1056 
Q 959 750 1161 570 
Q 1363 391 1709 391 
Q 2188 391 2477 730 
Q 2766 1069 2766 1631 
L 2766 1759 
L 2194 1759 
z
M 3341 1997 
L 3341 0 
L 2766 0 
L 2766 531 
Q 2569 213 2275 61 
Q 1981 -91 1556 -91 
Q 1019 -91 701 211 
Q 384 513 384 1019 
Q 384 1609 779 1909 
Q 1175 2209 1959 2209 
L 2766 2209 
L 2766 2266 
Q 2766 2663 2505 2880 
Q 2244 3097 1772 3097 
Q 1472 3097 1187 3025 
Q 903 2953 641 2809 
L 641 3341 
Q 956 3463 1253 3523 
Q 1550 3584 1831 3584 
Q 2591 3584 2966 3190 
Q 3341 2797 3341 1997 
z
" transform="scale(0.015625)"/>
       <path id="DejaVuSans-5f" d="M 3263 -1063 
L 3263 -1509 
L -63 -1509 
L -63 -1063 
L 3263 -1063 
z
" transform="scale(0.015625)"/>
      </defs>
      <use xlink:href="#DejaVuSans-53"/>
      <use xlink:href="#DejaVuSans-63" x="63.476562"/>
      <use xlink:href="#DejaVuSans-68" x="118.457031"/>
      <use xlink:href="#DejaVuSans-4e" x="181.835938"/>
      <use xlink:href="#DejaVuSans-65" x="256.640625"/>
      <use xlink:href="#DejaVuSans-74" x="318.164062"/>
      <use xlink:href="#DejaVuSans-20" x="357.373047"/>
      <use xlink:href="#DejaVuSans-65" x="389.160156"/>
      <use xlink:href="#DejaVuSans-76" x="450.683594"/>
      <use xlink:href="#DejaVuSans-61" x="509.863281"/>
      <use xlink:href="#DejaVuSans-6c" x="571.142578"/>
      <use xlink:href="#DejaVuSans-5f" x="598.925781"/>
      <use xlink:href="#DejaVuSans-6c" x="648.925781"/>
      <use xlink:href="#DejaVuSans-6f" x="676.708984"/>
      <use xlink:href="#DejaVuSans-73" x="737.890625"/>
      <use xlink:href="#DejaVuSans-73" x="789.990234"/>
     </g>
    </g>
    <g id="line2d_47">
     <path d="M 283.596563 69.526688 
L 293.596563 69.526688 
L 303.596563 69.526688 
" style="fill: none; stroke: #ff7f0e; stroke-opacity: 0.9; stroke-linecap: square"/>
    </g>
    <g id="text_15">
     <!-- MoGIN14 eval_loss -->
     <g transform="translate(311.596563 73.026688) scale(0.1 -0.1)">
      <defs>
       <path id="DejaVuSans-4d" d="M 628 4666 
L 1569 4666 
L 2759 1491 
L 3956 4666 
L 4897 4666 
L 4897 0 
L 4281 0 
L 4281 4097 
L 3078 897 
L 2444 897 
L 1241 4097 
L 1241 0 
L 628 0 
L 628 4666 
z
" transform="scale(0.015625)"/>
       <path id="DejaVuSans-47" d="M 3809 666 
L 3809 1919 
L 2778 1919 
L 2778 2438 
L 4434 2438 
L 4434 434 
Q 4069 175 3628 42 
Q 3188 -91 2688 -91 
Q 1594 -91 976 548 
Q 359 1188 359 2328 
Q 359 3472 976 4111 
Q 1594 4750 2688 4750 
Q 3144 4750 3555 4637 
Q 3966 4525 4313 4306 
L 4313 3634 
Q 3963 3931 3569 4081 
Q 3175 4231 2741 4231 
Q 1884 4231 1454 3753 
Q 1025 3275 1025 2328 
Q 1025 1384 1454 906 
Q 1884 428 2741 428 
Q 3075 428 3337 486 
Q 3600 544 3809 666 
z
" transform="scale(0.015625)"/>
       <path id="DejaVuSans-49" d="M 628 4666 
L 1259 4666 
L 1259 0 
L 628 0 
L 628 4666 
z
" transform="scale(0.015625)"/>
       <path id="DejaVuSans-34" d="M 2419 4116 
L 825 1625 
L 2419 1625 
L 2419 4116 
z
M 2253 4666 
L 3047 4666 
L 3047 1625 
L 3713 1625 
L 3713 1100 
L 3047 1100 
L 3047 0 
L 2419 0 
L 2419 1100 
L 313 1100 
L 313 1709 
L 2253 4666 
z
" transform="scale(0.015625)"/>
      </defs>
      <use xlink:href="#DejaVuSans-4d"/>
      <use xlink:href="#DejaVuSans-6f" x="86.279297"/>
      <use xlink:href="#DejaVuSans-47" x="147.460938"/>
      <use xlink:href="#DejaVuSans-49" x="224.951172"/>
      <use xlink:href="#DejaVuSans-4e" x="254.443359"/>
      <use xlink:href="#DejaVuSans-31" x="329.248047"/>
      <use xlink:href="#DejaVuSans-34" x="392.871094"/>
      <use xlink:href="#DejaVuSans-20" x="456.494141"/>
      <use xlink:href="#DejaVuSans-65" x="488.28125"/>
      <use xlink:href="#DejaVuSans-76" x="549.804688"/>
      <use xlink:href="#DejaVuSans-61" x="608.984375"/>
      <use xlink:href="#DejaVuSans-6c" x="670.263672"/>
      <use xlink:href="#DejaVuSans-5f" x="698.046875"/>
      <use xlink:href="#DejaVuSans-6c" x="748.046875"/>
      <use xlink:href="#DejaVuSans-6f" x="775.830078"/>
      <use xlink:href="#DejaVuSans-73" x="837.011719"/>
      <use xlink:href="#DejaVuSans-73" x="889.111328"/>
     </g>
    </g>
    <g id="line2d_48">
     <path d="M 283.596563 84.482938 
L 293.596563 84.482938 
L 303.596563 84.482938 
" style="fill: none; stroke: #2ca02c; stroke-opacity: 0.9; stroke-linecap: square"/>
    </g>
    <g id="text_16">
     <!-- MoGIN14 eval_loss -->
     <g transform="translate(311.596563 87.982938) scale(0.1 -0.1)">
      <use xlink:href="#DejaVuSans-4d"/>
      <use xlink:href="#DejaVuSans-6f" x="86.279297"/>
      <use xlink:href="#DejaVuSans-47" x="147.460938"/>
      <use xlink:href="#DejaVuSans-49" x="224.951172"/>
      <use xlink:href="#DejaVuSans-4e" x="254.443359"/>
      <use xlink:href="#DejaVuSans-31" x="329.248047"/>
      <use xlink:href="#DejaVuSans-34" x="392.871094"/>
      <use xlink:href="#DejaVuSans-20" x="456.494141"/>
      <use xlink:href="#DejaVuSans-65" x="488.28125"/>
      <use xlink:href="#DejaVuSans-76" x="549.804688"/>
      <use xlink:href="#DejaVuSans-61" x="608.984375"/>
      <use xlink:href="#DejaVuSans-6c" x="670.263672"/>
      <use xlink:href="#DejaVuSans-5f" x="698.046875"/>
      <use xlink:href="#DejaVuSans-6c" x="748.046875"/>
      <use xlink:href="#DejaVuSans-6f" x="775.830078"/>
      <use xlink:href="#DejaVuSans-73" x="837.011719"/>
      <use xlink:href="#DejaVuSans-73" x="889.111328"/>
     </g>
    </g>
   </g>
  </g>
 </g>
 <defs>
  <clipPath id="pf74f4cddfb">
   <rect x="57.6" y="41.472" width="357.12" height="266.112"/>
  </clipPath>
 </defs>
</svg>
