<?xml version="1.0" encoding="utf-8" standalone="no"?>
<!DOCTYPE svg PUBLIC "-//W3C//DTD SVG 1.1//EN"
  "http://www.w3.org/Graphics/SVG/1.1/DTD/svg11.dtd">
<svg xmlns:xlink="http://www.w3.org/1999/xlink" width="460.8pt" height="345.6pt" viewBox="0 0 460.8 345.6" xmlns="http://www.w3.org/2000/svg" version="1.1">
 <metadata>
  <rdf:RDF xmlns:dc="http://purl.org/dc/elements/1.1/" xmlns:cc="http://creativecommons.org/ns#" xmlns:rdf="http://www.w3.org/1999/02/22-rdf-syntax-ns#">
   <cc:Work>
    <dc:type rdf:resource="http://purl.org/dc/dcmitype/StillImage"/>
    <dc:date>2025-02-18T13:04:27.971318</dc:date>
    <dc:format>image/svg+xml</dc:format>
    <dc:creator>
     <cc:Agent>
      <dc:title>Matplotlib v3.8.4, https://matplotlib.org/</dc:title>
     </cc:Agent>
    </dc:creator>
   </cc:Work>
  </rdf:RDF>
 </metadata>
 <defs>
  <style type="text/css">*{stroke-linejoin: round; stroke-linecap: butt}</style>
 </defs>
 <g id="figure_1">
  <g id="patch_1">
   <path d="M 0 345.6 
L 460.8 345.6 
L 460.8 0 
L 0 0 
z
" style="fill: #ffffff"/>
  </g>
  <g id="axes_1">
   <g id="patch_2">
    <path d="M 57.6 307.584 
L 414.72 307.584 
L 414.72 41.472 
L 57.6 41.472 
z
" style="fill: #ffffff"/>
   </g>
   <g id="matplotlib.axis_1">
    <g id="xtick_1">
     <g id="line2d_1">
      <defs>
       <path id="m55d0ad31ec" d="M 0 0 
L 0 3.5 
" style="stroke: #000000; stroke-width: 0.8"/>
      </defs>
      <g>
       <use xlink:href="#m55d0ad31ec" x="57.6" y="307.584" style="stroke: #000000; stroke-width: 0.8"/>
      </g>
     </g>
     <g id="text_1">
      <!-- $\mathdefault{10^{3}}$ -->
      <g transform="translate(48.8 322.182437) scale(0.1 -0.1)">
       <defs>
        <path id="DejaVuSans-31" d="M 794 531 
L 1825 531 
L 1825 4091 
L 703 3866 
L 703 4441 
L 1819 4666 
L 2450 4666 
L 2450 531 
L 3481 531 
L 3481 0 
L 794 0 
L 794 531 
z
" transform="scale(0.015625)"/>
        <path id="DejaVuSans-30" d="M 2034 4250 
Q 1547 4250 1301 3770 
Q 1056 3291 1056 2328 
Q 1056 1369 1301 889 
Q 1547 409 2034 409 
Q 2525 409 2770 889 
Q 3016 1369 3016 2328 
Q 3016 3291 2770 3770 
Q 2525 4250 2034 4250 
z
M 2034 4750 
Q 2819 4750 3233 4129 
Q 3647 3509 3647 2328 
Q 3647 1150 3233 529 
Q 2819 -91 2034 -91 
Q 1250 -91 836 529 
Q 422 1150 422 2328 
Q 422 3509 836 4129 
Q 1250 4750 2034 4750 
z
" transform="scale(0.015625)"/>
        <path id="DejaVuSans-33" d="M 2597 2516 
Q 3050 2419 3304 2112 
Q 3559 1806 3559 1356 
Q 3559 666 3084 287 
Q 2609 -91 1734 -91 
Q 1441 -91 1130 -33 
Q 819 25 488 141 
L 488 750 
Q 750 597 1062 519 
Q 1375 441 1716 441 
Q 2309 441 2620 675 
Q 2931 909 2931 1356 
Q 2931 1769 2642 2001 
Q 2353 2234 1838 2234 
L 1294 2234 
L 1294 2753 
L 1863 2753 
Q 2328 2753 2575 2939 
Q 2822 3125 2822 3475 
Q 2822 3834 2567 4026 
Q 2313 4219 1838 4219 
Q 1578 4219 1281 4162 
Q 984 4106 628 3988 
L 628 4550 
Q 988 4650 1302 4700 
Q 1616 4750 1894 4750 
Q 2613 4750 3031 4423 
Q 3450 4097 3450 3541 
Q 3450 3153 3228 2886 
Q 3006 2619 2597 2516 
z
" transform="scale(0.015625)"/>
       </defs>
       <use xlink:href="#DejaVuSans-31" transform="translate(0 0.765625)"/>
       <use xlink:href="#DejaVuSans-30" transform="translate(63.623047 0.765625)"/>
       <use xlink:href="#DejaVuSans-33" transform="translate(128.203125 39.046875) scale(0.7)"/>
      </g>
     </g>
    </g>
    <g id="xtick_2">
     <g id="line2d_2">
      <g>
       <use xlink:href="#m55d0ad31ec" x="299.367559" y="307.584" style="stroke: #000000; stroke-width: 0.8"/>
      </g>
     </g>
     <g id="text_2">
      <!-- $\mathdefault{10^{4}}$ -->
      <g transform="translate(290.567559 322.182437) scale(0.1 -0.1)">
       <defs>
        <path id="DejaVuSans-34" d="M 2419 4116 
L 825 1625 
L 2419 1625 
L 2419 4116 
z
M 2253 4666 
L 3047 4666 
L 3047 1625 
L 3713 1625 
L 3713 1100 
L 3047 1100 
L 3047 0 
L 2419 0 
L 2419 1100 
L 313 1100 
L 313 1709 
L 2253 4666 
z
" transform="scale(0.015625)"/>
       </defs>
       <use xlink:href="#DejaVuSans-31" transform="translate(0 0.684375)"/>
       <use xlink:href="#DejaVuSans-30" transform="translate(63.623047 0.684375)"/>
       <use xlink:href="#DejaVuSans-34" transform="translate(128.203125 38.965625) scale(0.7)"/>
      </g>
     </g>
    </g>
    <g id="xtick_3">
     <g id="line2d_3">
      <defs>
       <path id="md1af7a4c24" d="M 0 0 
L 0 2 
" style="stroke: #000000; stroke-width: 0.6"/>
      </defs>
      <g>
       <use xlink:href="#md1af7a4c24" x="130.379287" y="307.584" style="stroke: #000000; stroke-width: 0.6"/>
      </g>
     </g>
    </g>
    <g id="xtick_4">
     <g id="line2d_4">
      <g>
       <use xlink:href="#md1af7a4c24" x="172.952441" y="307.584" style="stroke: #000000; stroke-width: 0.6"/>
      </g>
     </g>
    </g>
    <g id="xtick_5">
     <g id="line2d_5">
      <g>
       <use xlink:href="#md1af7a4c24" x="203.158574" y="307.584" style="stroke: #000000; stroke-width: 0.6"/>
      </g>
     </g>
    </g>
    <g id="xtick_6">
     <g id="line2d_6">
      <g>
       <use xlink:href="#md1af7a4c24" x="226.588272" y="307.584" style="stroke: #000000; stroke-width: 0.6"/>
      </g>
     </g>
    </g>
    <g id="xtick_7">
     <g id="line2d_7">
      <g>
       <use xlink:href="#md1af7a4c24" x="245.731728" y="307.584" style="stroke: #000000; stroke-width: 0.6"/>
      </g>
     </g>
    </g>
    <g id="xtick_8">
     <g id="line2d_8">
      <g>
       <use xlink:href="#md1af7a4c24" x="261.91729" y="307.584" style="stroke: #000000; stroke-width: 0.6"/>
      </g>
     </g>
    </g>
    <g id="xtick_9">
     <g id="line2d_9">
      <g>
       <use xlink:href="#md1af7a4c24" x="275.937862" y="307.584" style="stroke: #000000; stroke-width: 0.6"/>
      </g>
     </g>
    </g>
    <g id="xtick_10">
     <g id="line2d_10">
      <g>
       <use xlink:href="#md1af7a4c24" x="288.304882" y="307.584" style="stroke: #000000; stroke-width: 0.6"/>
      </g>
     </g>
    </g>
    <g id="xtick_11">
     <g id="line2d_11">
      <g>
       <use xlink:href="#md1af7a4c24" x="372.146846" y="307.584" style="stroke: #000000; stroke-width: 0.6"/>
      </g>
     </g>
    </g>
    <g id="xtick_12">
     <g id="line2d_12">
      <g>
       <use xlink:href="#md1af7a4c24" x="414.72" y="307.584" style="stroke: #000000; stroke-width: 0.6"/>
      </g>
     </g>
    </g>
    <g id="text_3">
     <!-- iter# -->
     <g transform="translate(223.488906 335.860562) scale(0.1 -0.1)">
      <defs>
       <path id="DejaVuSans-69" d="M 603 3500 
L 1178 3500 
L 1178 0 
L 603 0 
L 603 3500 
z
M 603 4863 
L 1178 4863 
L 1178 4134 
L 603 4134 
L 603 4863 
z
" transform="scale(0.015625)"/>
       <path id="DejaVuSans-74" d="M 1172 4494 
L 1172 3500 
L 2356 3500 
L 2356 3053 
L 1172 3053 
L 1172 1153 
Q 1172 725 1289 603 
Q 1406 481 1766 481 
L 2356 481 
L 2356 0 
L 1766 0 
Q 1100 0 847 248 
Q 594 497 594 1153 
L 594 3053 
L 172 3053 
L 172 3500 
L 594 3500 
L 594 4494 
L 1172 4494 
z
" transform="scale(0.015625)"/>
       <path id="DejaVuSans-65" d="M 3597 1894 
L 3597 1613 
L 953 1613 
Q 991 1019 1311 708 
Q 1631 397 2203 397 
Q 2534 397 2845 478 
Q 3156 559 3463 722 
L 3463 178 
Q 3153 47 2828 -22 
Q 2503 -91 2169 -91 
Q 1331 -91 842 396 
Q 353 884 353 1716 
Q 353 2575 817 3079 
Q 1281 3584 2069 3584 
Q 2775 3584 3186 3129 
Q 3597 2675 3597 1894 
z
M 3022 2063 
Q 3016 2534 2758 2815 
Q 2500 3097 2075 3097 
Q 1594 3097 1305 2825 
Q 1016 2553 972 2059 
L 3022 2063 
z
" transform="scale(0.015625)"/>
       <path id="DejaVuSans-72" d="M 2631 2963 
Q 2534 3019 2420 3045 
Q 2306 3072 2169 3072 
Q 1681 3072 1420 2755 
Q 1159 2438 1159 1844 
L 1159 0 
L 581 0 
L 581 3500 
L 1159 3500 
L 1159 2956 
Q 1341 3275 1631 3429 
Q 1922 3584 2338 3584 
Q 2397 3584 2469 3576 
Q 2541 3569 2628 3553 
L 2631 2963 
z
" transform="scale(0.015625)"/>
       <path id="DejaVuSans-23" d="M 3272 2816 
L 2363 2816 
L 2100 1772 
L 3016 1772 
L 3272 2816 
z
M 2803 4594 
L 2478 3297 
L 3391 3297 
L 3719 4594 
L 4219 4594 
L 3897 3297 
L 4872 3297 
L 4872 2816 
L 3775 2816 
L 3519 1772 
L 4513 1772 
L 4513 1294 
L 3397 1294 
L 3072 0 
L 2572 0 
L 2894 1294 
L 1978 1294 
L 1656 0 
L 1153 0 
L 1478 1294 
L 494 1294 
L 494 1772 
L 1594 1772 
L 1856 2816 
L 850 2816 
L 850 3297 
L 1978 3297 
L 2297 4594 
L 2803 4594 
z
" transform="scale(0.015625)"/>
      </defs>
      <use xlink:href="#DejaVuSans-69"/>
      <use xlink:href="#DejaVuSans-74" x="27.783203"/>
      <use xlink:href="#DejaVuSans-65" x="66.992188"/>
      <use xlink:href="#DejaVuSans-72" x="128.515625"/>
      <use xlink:href="#DejaVuSans-23" x="169.628906"/>
     </g>
    </g>
   </g>
   <g id="matplotlib.axis_2">
    <g id="ytick_1">
     <g id="line2d_13">
      <defs>
       <path id="mebed12968d" d="M 0 0 
L -3.5 0 
" style="stroke: #000000; stroke-width: 0.8"/>
      </defs>
      <g>
       <use xlink:href="#mebed12968d" x="57.6" y="304.185121" style="stroke: #000000; stroke-width: 0.8"/>
      </g>
     </g>
     <g id="text_4">
      <!-- $\mathdefault{10^{-6}}$ -->
      <g transform="translate(27.1 307.984339) scale(0.1 -0.1)">
       <defs>
        <path id="DejaVuSans-2212" d="M 678 2272 
L 4684 2272 
L 4684 1741 
L 678 1741 
L 678 2272 
z
" transform="scale(0.015625)"/>
        <path id="DejaVuSans-36" d="M 2113 2584 
Q 1688 2584 1439 2293 
Q 1191 2003 1191 1497 
Q 1191 994 1439 701 
Q 1688 409 2113 409 
Q 2538 409 2786 701 
Q 3034 994 3034 1497 
Q 3034 2003 2786 2293 
Q 2538 2584 2113 2584 
z
M 3366 4563 
L 3366 3988 
Q 3128 4100 2886 4159 
Q 2644 4219 2406 4219 
Q 1781 4219 1451 3797 
Q 1122 3375 1075 2522 
Q 1259 2794 1537 2939 
Q 1816 3084 2150 3084 
Q 2853 3084 3261 2657 
Q 3669 2231 3669 1497 
Q 3669 778 3244 343 
Q 2819 -91 2113 -91 
Q 1303 -91 875 529 
Q 447 1150 447 2328 
Q 447 3434 972 4092 
Q 1497 4750 2381 4750 
Q 2619 4750 2861 4703 
Q 3103 4656 3366 4563 
z
" transform="scale(0.015625)"/>
       </defs>
       <use xlink:href="#DejaVuSans-31" transform="translate(0 0.765625)"/>
       <use xlink:href="#DejaVuSans-30" transform="translate(63.623047 0.765625)"/>
       <use xlink:href="#DejaVuSans-2212" transform="translate(128.203125 39.046875) scale(0.7)"/>
       <use xlink:href="#DejaVuSans-36" transform="translate(186.855469 39.046875) scale(0.7)"/>
      </g>
     </g>
    </g>
    <g id="ytick_2">
     <g id="line2d_14">
      <g>
       <use xlink:href="#mebed12968d" x="57.6" y="273.878178" style="stroke: #000000; stroke-width: 0.8"/>
      </g>
     </g>
     <g id="text_5">
      <!-- $\mathdefault{10^{-5}}$ -->
      <g transform="translate(27.1 277.677397) scale(0.1 -0.1)">
       <defs>
        <path id="DejaVuSans-35" d="M 691 4666 
L 3169 4666 
L 3169 4134 
L 1269 4134 
L 1269 2991 
Q 1406 3038 1543 3061 
Q 1681 3084 1819 3084 
Q 2600 3084 3056 2656 
Q 3513 2228 3513 1497 
Q 3513 744 3044 326 
Q 2575 -91 1722 -91 
Q 1428 -91 1123 -41 
Q 819 9 494 109 
L 494 744 
Q 775 591 1075 516 
Q 1375 441 1709 441 
Q 2250 441 2565 725 
Q 2881 1009 2881 1497 
Q 2881 1984 2565 2268 
Q 2250 2553 1709 2553 
Q 1456 2553 1204 2497 
Q 953 2441 691 2322 
L 691 4666 
z
" transform="scale(0.015625)"/>
       </defs>
       <use xlink:href="#DejaVuSans-31" transform="translate(0 0.684375)"/>
       <use xlink:href="#DejaVuSans-30" transform="translate(63.623047 0.684375)"/>
       <use xlink:href="#DejaVuSans-2212" transform="translate(128.203125 38.965625) scale(0.7)"/>
       <use xlink:href="#DejaVuSans-35" transform="translate(186.855469 38.965625) scale(0.7)"/>
      </g>
     </g>
    </g>
    <g id="ytick_3">
     <g id="line2d_15">
      <g>
       <use xlink:href="#mebed12968d" x="57.6" y="243.571235" style="stroke: #000000; stroke-width: 0.8"/>
      </g>
     </g>
     <g id="text_6">
      <!-- $\mathdefault{10^{-4}}$ -->
      <g transform="translate(27.1 247.370454) scale(0.1 -0.1)">
       <use xlink:href="#DejaVuSans-31" transform="translate(0 0.684375)"/>
       <use xlink:href="#DejaVuSans-30" transform="translate(63.623047 0.684375)"/>
       <use xlink:href="#DejaVuSans-2212" transform="translate(128.203125 38.965625) scale(0.7)"/>
       <use xlink:href="#DejaVuSans-34" transform="translate(186.855469 38.965625) scale(0.7)"/>
      </g>
     </g>
    </g>
    <g id="ytick_4">
     <g id="line2d_16">
      <g>
       <use xlink:href="#mebed12968d" x="57.6" y="213.264292" style="stroke: #000000; stroke-width: 0.8"/>
      </g>
     </g>
     <g id="text_7">
      <!-- $\mathdefault{10^{-3}}$ -->
      <g transform="translate(27.1 217.063511) scale(0.1 -0.1)">
       <use xlink:href="#DejaVuSans-31" transform="translate(0 0.765625)"/>
       <use xlink:href="#DejaVuSans-30" transform="translate(63.623047 0.765625)"/>
       <use xlink:href="#DejaVuSans-2212" transform="translate(128.203125 39.046875) scale(0.7)"/>
       <use xlink:href="#DejaVuSans-33" transform="translate(186.855469 39.046875) scale(0.7)"/>
      </g>
     </g>
    </g>
    <g id="ytick_5">
     <g id="line2d_17">
      <g>
       <use xlink:href="#mebed12968d" x="57.6" y="182.95735" style="stroke: #000000; stroke-width: 0.8"/>
      </g>
     </g>
     <g id="text_8">
      <!-- $\mathdefault{10^{-2}}$ -->
      <g transform="translate(27.1 186.756568) scale(0.1 -0.1)">
       <defs>
        <path id="DejaVuSans-32" d="M 1228 531 
L 3431 531 
L 3431 0 
L 469 0 
L 469 531 
Q 828 903 1448 1529 
Q 2069 2156 2228 2338 
Q 2531 2678 2651 2914 
Q 2772 3150 2772 3378 
Q 2772 3750 2511 3984 
Q 2250 4219 1831 4219 
Q 1534 4219 1204 4116 
Q 875 4013 500 3803 
L 500 4441 
Q 881 4594 1212 4672 
Q 1544 4750 1819 4750 
Q 2544 4750 2975 4387 
Q 3406 4025 3406 3419 
Q 3406 3131 3298 2873 
Q 3191 2616 2906 2266 
Q 2828 2175 2409 1742 
Q 1991 1309 1228 531 
z
" transform="scale(0.015625)"/>
       </defs>
       <use xlink:href="#DejaVuSans-31" transform="translate(0 0.765625)"/>
       <use xlink:href="#DejaVuSans-30" transform="translate(63.623047 0.765625)"/>
       <use xlink:href="#DejaVuSans-2212" transform="translate(128.203125 39.046875) scale(0.7)"/>
       <use xlink:href="#DejaVuSans-32" transform="translate(186.855469 39.046875) scale(0.7)"/>
      </g>
     </g>
    </g>
    <g id="ytick_6">
     <g id="line2d_18">
      <g>
       <use xlink:href="#mebed12968d" x="57.6" y="152.650407" style="stroke: #000000; stroke-width: 0.8"/>
      </g>
     </g>
     <g id="text_9">
      <!-- $\mathdefault{10^{-1}}$ -->
      <g transform="translate(27.1 156.449625) scale(0.1 -0.1)">
       <use xlink:href="#DejaVuSans-31" transform="translate(0 0.684375)"/>
       <use xlink:href="#DejaVuSans-30" transform="translate(63.623047 0.684375)"/>
       <use xlink:href="#DejaVuSans-2212" transform="translate(128.203125 38.965625) scale(0.7)"/>
       <use xlink:href="#DejaVuSans-31" transform="translate(186.855469 38.965625) scale(0.7)"/>
      </g>
     </g>
    </g>
    <g id="ytick_7">
     <g id="line2d_19">
      <g>
       <use xlink:href="#mebed12968d" x="57.6" y="122.343464" style="stroke: #000000; stroke-width: 0.8"/>
      </g>
     </g>
     <g id="text_10">
      <!-- $\mathdefault{10^{0}}$ -->
      <g transform="translate(33 126.142683) scale(0.1 -0.1)">
       <use xlink:href="#DejaVuSans-31" transform="translate(0 0.765625)"/>
       <use xlink:href="#DejaVuSans-30" transform="translate(63.623047 0.765625)"/>
       <use xlink:href="#DejaVuSans-30" transform="translate(128.203125 39.046875) scale(0.7)"/>
      </g>
     </g>
    </g>
    <g id="ytick_8">
     <g id="line2d_20">
      <g>
       <use xlink:href="#mebed12968d" x="57.6" y="92.036521" style="stroke: #000000; stroke-width: 0.8"/>
      </g>
     </g>
     <g id="text_11">
      <!-- $\mathdefault{10^{1}}$ -->
      <g transform="translate(33 95.83574) scale(0.1 -0.1)">
       <use xlink:href="#DejaVuSans-31" transform="translate(0 0.684375)"/>
       <use xlink:href="#DejaVuSans-30" transform="translate(63.623047 0.684375)"/>
       <use xlink:href="#DejaVuSans-31" transform="translate(128.203125 38.965625) scale(0.7)"/>
      </g>
     </g>
    </g>
    <g id="ytick_9">
     <g id="line2d_21">
      <g>
       <use xlink:href="#mebed12968d" x="57.6" y="61.729578" style="stroke: #000000; stroke-width: 0.8"/>
      </g>
     </g>
     <g id="text_12">
      <!-- $\mathdefault{10^{2}}$ -->
      <g transform="translate(33 65.528797) scale(0.1 -0.1)">
       <use xlink:href="#DejaVuSans-31" transform="translate(0 0.765625)"/>
       <use xlink:href="#DejaVuSans-30" transform="translate(63.623047 0.765625)"/>
       <use xlink:href="#DejaVuSans-32" transform="translate(128.203125 39.046875) scale(0.7)"/>
      </g>
     </g>
    </g>
    <g id="ytick_10">
     <g id="line2d_22">
      <defs>
       <path id="m276b98fcd3" d="M 0 0 
L -2 0 
" style="stroke: #000000; stroke-width: 0.6"/>
      </defs>
      <g>
       <use xlink:href="#m276b98fcd3" x="57.6" y="307.122167" style="stroke: #000000; stroke-width: 0.6"/>
      </g>
     </g>
    </g>
    <g id="ytick_11">
     <g id="line2d_23">
      <g>
       <use xlink:href="#m276b98fcd3" x="57.6" y="305.57189" style="stroke: #000000; stroke-width: 0.6"/>
      </g>
     </g>
    </g>
    <g id="ytick_12">
     <g id="line2d_24">
      <g>
       <use xlink:href="#m276b98fcd3" x="57.6" y="295.061822" style="stroke: #000000; stroke-width: 0.6"/>
      </g>
     </g>
    </g>
    <g id="ytick_13">
     <g id="line2d_25">
      <g>
       <use xlink:href="#m276b98fcd3" x="57.6" y="289.725034" style="stroke: #000000; stroke-width: 0.6"/>
      </g>
     </g>
    </g>
    <g id="ytick_14">
     <g id="line2d_26">
      <g>
       <use xlink:href="#m276b98fcd3" x="57.6" y="285.938523" style="stroke: #000000; stroke-width: 0.6"/>
      </g>
     </g>
    </g>
    <g id="ytick_15">
     <g id="line2d_27">
      <g>
       <use xlink:href="#m276b98fcd3" x="57.6" y="283.001477" style="stroke: #000000; stroke-width: 0.6"/>
      </g>
     </g>
    </g>
    <g id="ytick_16">
     <g id="line2d_28">
      <g>
       <use xlink:href="#m276b98fcd3" x="57.6" y="280.601735" style="stroke: #000000; stroke-width: 0.6"/>
      </g>
     </g>
    </g>
    <g id="ytick_17">
     <g id="line2d_29">
      <g>
       <use xlink:href="#m276b98fcd3" x="57.6" y="278.572783" style="stroke: #000000; stroke-width: 0.6"/>
      </g>
     </g>
    </g>
    <g id="ytick_18">
     <g id="line2d_30">
      <g>
       <use xlink:href="#m276b98fcd3" x="57.6" y="276.815224" style="stroke: #000000; stroke-width: 0.6"/>
      </g>
     </g>
    </g>
    <g id="ytick_19">
     <g id="line2d_31">
      <g>
       <use xlink:href="#m276b98fcd3" x="57.6" y="275.264948" style="stroke: #000000; stroke-width: 0.6"/>
      </g>
     </g>
    </g>
    <g id="ytick_20">
     <g id="line2d_32">
      <g>
       <use xlink:href="#m276b98fcd3" x="57.6" y="264.754879" style="stroke: #000000; stroke-width: 0.6"/>
      </g>
     </g>
    </g>
    <g id="ytick_21">
     <g id="line2d_33">
      <g>
       <use xlink:href="#m276b98fcd3" x="57.6" y="259.418091" style="stroke: #000000; stroke-width: 0.6"/>
      </g>
     </g>
    </g>
    <g id="ytick_22">
     <g id="line2d_34">
      <g>
       <use xlink:href="#m276b98fcd3" x="57.6" y="255.63158" style="stroke: #000000; stroke-width: 0.6"/>
      </g>
     </g>
    </g>
    <g id="ytick_23">
     <g id="line2d_35">
      <g>
       <use xlink:href="#m276b98fcd3" x="57.6" y="252.694534" style="stroke: #000000; stroke-width: 0.6"/>
      </g>
     </g>
    </g>
    <g id="ytick_24">
     <g id="line2d_36">
      <g>
       <use xlink:href="#m276b98fcd3" x="57.6" y="250.294792" style="stroke: #000000; stroke-width: 0.6"/>
      </g>
     </g>
    </g>
    <g id="ytick_25">
     <g id="line2d_37">
      <g>
       <use xlink:href="#m276b98fcd3" x="57.6" y="248.26584" style="stroke: #000000; stroke-width: 0.6"/>
      </g>
     </g>
    </g>
    <g id="ytick_26">
     <g id="line2d_38">
      <g>
       <use xlink:href="#m276b98fcd3" x="57.6" y="246.508281" style="stroke: #000000; stroke-width: 0.6"/>
      </g>
     </g>
    </g>
    <g id="ytick_27">
     <g id="line2d_39">
      <g>
       <use xlink:href="#m276b98fcd3" x="57.6" y="244.958005" style="stroke: #000000; stroke-width: 0.6"/>
      </g>
     </g>
    </g>
    <g id="ytick_28">
     <g id="line2d_40">
      <g>
       <use xlink:href="#m276b98fcd3" x="57.6" y="234.447936" style="stroke: #000000; stroke-width: 0.6"/>
      </g>
     </g>
    </g>
    <g id="ytick_29">
     <g id="line2d_41">
      <g>
       <use xlink:href="#m276b98fcd3" x="57.6" y="229.111149" style="stroke: #000000; stroke-width: 0.6"/>
      </g>
     </g>
    </g>
    <g id="ytick_30">
     <g id="line2d_42">
      <g>
       <use xlink:href="#m276b98fcd3" x="57.6" y="225.324637" style="stroke: #000000; stroke-width: 0.6"/>
      </g>
     </g>
    </g>
    <g id="ytick_31">
     <g id="line2d_43">
      <g>
       <use xlink:href="#m276b98fcd3" x="57.6" y="222.387591" style="stroke: #000000; stroke-width: 0.6"/>
      </g>
     </g>
    </g>
    <g id="ytick_32">
     <g id="line2d_44">
      <g>
       <use xlink:href="#m276b98fcd3" x="57.6" y="219.98785" style="stroke: #000000; stroke-width: 0.6"/>
      </g>
     </g>
    </g>
    <g id="ytick_33">
     <g id="line2d_45">
      <g>
       <use xlink:href="#m276b98fcd3" x="57.6" y="217.958897" style="stroke: #000000; stroke-width: 0.6"/>
      </g>
     </g>
    </g>
    <g id="ytick_34">
     <g id="line2d_46">
      <g>
       <use xlink:href="#m276b98fcd3" x="57.6" y="216.201339" style="stroke: #000000; stroke-width: 0.6"/>
      </g>
     </g>
    </g>
    <g id="ytick_35">
     <g id="line2d_47">
      <g>
       <use xlink:href="#m276b98fcd3" x="57.6" y="214.651062" style="stroke: #000000; stroke-width: 0.6"/>
      </g>
     </g>
    </g>
    <g id="ytick_36">
     <g id="line2d_48">
      <g>
       <use xlink:href="#m276b98fcd3" x="57.6" y="204.140993" style="stroke: #000000; stroke-width: 0.6"/>
      </g>
     </g>
    </g>
    <g id="ytick_37">
     <g id="line2d_49">
      <g>
       <use xlink:href="#m276b98fcd3" x="57.6" y="198.804206" style="stroke: #000000; stroke-width: 0.6"/>
      </g>
     </g>
    </g>
    <g id="ytick_38">
     <g id="line2d_50">
      <g>
       <use xlink:href="#m276b98fcd3" x="57.6" y="195.017695" style="stroke: #000000; stroke-width: 0.6"/>
      </g>
     </g>
    </g>
    <g id="ytick_39">
     <g id="line2d_51">
      <g>
       <use xlink:href="#m276b98fcd3" x="57.6" y="192.080648" style="stroke: #000000; stroke-width: 0.6"/>
      </g>
     </g>
    </g>
    <g id="ytick_40">
     <g id="line2d_52">
      <g>
       <use xlink:href="#m276b98fcd3" x="57.6" y="189.680907" style="stroke: #000000; stroke-width: 0.6"/>
      </g>
     </g>
    </g>
    <g id="ytick_41">
     <g id="line2d_53">
      <g>
       <use xlink:href="#m276b98fcd3" x="57.6" y="187.651954" style="stroke: #000000; stroke-width: 0.6"/>
      </g>
     </g>
    </g>
    <g id="ytick_42">
     <g id="line2d_54">
      <g>
       <use xlink:href="#m276b98fcd3" x="57.6" y="185.894396" style="stroke: #000000; stroke-width: 0.6"/>
      </g>
     </g>
    </g>
    <g id="ytick_43">
     <g id="line2d_55">
      <g>
       <use xlink:href="#m276b98fcd3" x="57.6" y="184.344119" style="stroke: #000000; stroke-width: 0.6"/>
      </g>
     </g>
    </g>
    <g id="ytick_44">
     <g id="line2d_56">
      <g>
       <use xlink:href="#m276b98fcd3" x="57.6" y="173.834051" style="stroke: #000000; stroke-width: 0.6"/>
      </g>
     </g>
    </g>
    <g id="ytick_45">
     <g id="line2d_57">
      <g>
       <use xlink:href="#m276b98fcd3" x="57.6" y="168.497263" style="stroke: #000000; stroke-width: 0.6"/>
      </g>
     </g>
    </g>
    <g id="ytick_46">
     <g id="line2d_58">
      <g>
       <use xlink:href="#m276b98fcd3" x="57.6" y="164.710752" style="stroke: #000000; stroke-width: 0.6"/>
      </g>
     </g>
    </g>
    <g id="ytick_47">
     <g id="line2d_59">
      <g>
       <use xlink:href="#m276b98fcd3" x="57.6" y="161.773706" style="stroke: #000000; stroke-width: 0.6"/>
      </g>
     </g>
    </g>
    <g id="ytick_48">
     <g id="line2d_60">
      <g>
       <use xlink:href="#m276b98fcd3" x="57.6" y="159.373964" style="stroke: #000000; stroke-width: 0.6"/>
      </g>
     </g>
    </g>
    <g id="ytick_49">
     <g id="line2d_61">
      <g>
       <use xlink:href="#m276b98fcd3" x="57.6" y="157.345012" style="stroke: #000000; stroke-width: 0.6"/>
      </g>
     </g>
    </g>
    <g id="ytick_50">
     <g id="line2d_62">
      <g>
       <use xlink:href="#m276b98fcd3" x="57.6" y="155.587453" style="stroke: #000000; stroke-width: 0.6"/>
      </g>
     </g>
    </g>
    <g id="ytick_51">
     <g id="line2d_63">
      <g>
       <use xlink:href="#m276b98fcd3" x="57.6" y="154.037176" style="stroke: #000000; stroke-width: 0.6"/>
      </g>
     </g>
    </g>
    <g id="ytick_52">
     <g id="line2d_64">
      <g>
       <use xlink:href="#m276b98fcd3" x="57.6" y="143.527108" style="stroke: #000000; stroke-width: 0.6"/>
      </g>
     </g>
    </g>
    <g id="ytick_53">
     <g id="line2d_65">
      <g>
       <use xlink:href="#m276b98fcd3" x="57.6" y="138.19032" style="stroke: #000000; stroke-width: 0.6"/>
      </g>
     </g>
    </g>
    <g id="ytick_54">
     <g id="line2d_66">
      <g>
       <use xlink:href="#m276b98fcd3" x="57.6" y="134.403809" style="stroke: #000000; stroke-width: 0.6"/>
      </g>
     </g>
    </g>
    <g id="ytick_55">
     <g id="line2d_67">
      <g>
       <use xlink:href="#m276b98fcd3" x="57.6" y="131.466763" style="stroke: #000000; stroke-width: 0.6"/>
      </g>
     </g>
    </g>
    <g id="ytick_56">
     <g id="line2d_68">
      <g>
       <use xlink:href="#m276b98fcd3" x="57.6" y="129.067021" style="stroke: #000000; stroke-width: 0.6"/>
      </g>
     </g>
    </g>
    <g id="ytick_57">
     <g id="line2d_69">
      <g>
       <use xlink:href="#m276b98fcd3" x="57.6" y="127.038069" style="stroke: #000000; stroke-width: 0.6"/>
      </g>
     </g>
    </g>
    <g id="ytick_58">
     <g id="line2d_70">
      <g>
       <use xlink:href="#m276b98fcd3" x="57.6" y="125.28051" style="stroke: #000000; stroke-width: 0.6"/>
      </g>
     </g>
    </g>
    <g id="ytick_59">
     <g id="line2d_71">
      <g>
       <use xlink:href="#m276b98fcd3" x="57.6" y="123.730234" style="stroke: #000000; stroke-width: 0.6"/>
      </g>
     </g>
    </g>
    <g id="ytick_60">
     <g id="line2d_72">
      <g>
       <use xlink:href="#m276b98fcd3" x="57.6" y="113.220165" style="stroke: #000000; stroke-width: 0.6"/>
      </g>
     </g>
    </g>
    <g id="ytick_61">
     <g id="line2d_73">
      <g>
       <use xlink:href="#m276b98fcd3" x="57.6" y="107.883377" style="stroke: #000000; stroke-width: 0.6"/>
      </g>
     </g>
    </g>
    <g id="ytick_62">
     <g id="line2d_74">
      <g>
       <use xlink:href="#m276b98fcd3" x="57.6" y="104.096866" style="stroke: #000000; stroke-width: 0.6"/>
      </g>
     </g>
    </g>
    <g id="ytick_63">
     <g id="line2d_75">
      <g>
       <use xlink:href="#m276b98fcd3" x="57.6" y="101.15982" style="stroke: #000000; stroke-width: 0.6"/>
      </g>
     </g>
    </g>
    <g id="ytick_64">
     <g id="line2d_76">
      <g>
       <use xlink:href="#m276b98fcd3" x="57.6" y="98.760078" style="stroke: #000000; stroke-width: 0.6"/>
      </g>
     </g>
    </g>
    <g id="ytick_65">
     <g id="line2d_77">
      <g>
       <use xlink:href="#m276b98fcd3" x="57.6" y="96.731126" style="stroke: #000000; stroke-width: 0.6"/>
      </g>
     </g>
    </g>
    <g id="ytick_66">
     <g id="line2d_78">
      <g>
       <use xlink:href="#m276b98fcd3" x="57.6" y="94.973567" style="stroke: #000000; stroke-width: 0.6"/>
      </g>
     </g>
    </g>
    <g id="ytick_67">
     <g id="line2d_79">
      <g>
       <use xlink:href="#m276b98fcd3" x="57.6" y="93.423291" style="stroke: #000000; stroke-width: 0.6"/>
      </g>
     </g>
    </g>
    <g id="ytick_68">
     <g id="line2d_80">
      <g>
       <use xlink:href="#m276b98fcd3" x="57.6" y="82.913222" style="stroke: #000000; stroke-width: 0.6"/>
      </g>
     </g>
    </g>
    <g id="ytick_69">
     <g id="line2d_81">
      <g>
       <use xlink:href="#m276b98fcd3" x="57.6" y="77.576435" style="stroke: #000000; stroke-width: 0.6"/>
      </g>
     </g>
    </g>
    <g id="ytick_70">
     <g id="line2d_82">
      <g>
       <use xlink:href="#m276b98fcd3" x="57.6" y="73.789923" style="stroke: #000000; stroke-width: 0.6"/>
      </g>
     </g>
    </g>
    <g id="ytick_71">
     <g id="line2d_83">
      <g>
       <use xlink:href="#m276b98fcd3" x="57.6" y="70.852877" style="stroke: #000000; stroke-width: 0.6"/>
      </g>
     </g>
    </g>
    <g id="ytick_72">
     <g id="line2d_84">
      <g>
       <use xlink:href="#m276b98fcd3" x="57.6" y="68.453136" style="stroke: #000000; stroke-width: 0.6"/>
      </g>
     </g>
    </g>
    <g id="ytick_73">
     <g id="line2d_85">
      <g>
       <use xlink:href="#m276b98fcd3" x="57.6" y="66.424183" style="stroke: #000000; stroke-width: 0.6"/>
      </g>
     </g>
    </g>
    <g id="ytick_74">
     <g id="line2d_86">
      <g>
       <use xlink:href="#m276b98fcd3" x="57.6" y="64.666624" style="stroke: #000000; stroke-width: 0.6"/>
      </g>
     </g>
    </g>
    <g id="ytick_75">
     <g id="line2d_87">
      <g>
       <use xlink:href="#m276b98fcd3" x="57.6" y="63.116348" style="stroke: #000000; stroke-width: 0.6"/>
      </g>
     </g>
    </g>
    <g id="ytick_76">
     <g id="line2d_88">
      <g>
       <use xlink:href="#m276b98fcd3" x="57.6" y="52.606279" style="stroke: #000000; stroke-width: 0.6"/>
      </g>
     </g>
    </g>
    <g id="ytick_77">
     <g id="line2d_89">
      <g>
       <use xlink:href="#m276b98fcd3" x="57.6" y="47.269492" style="stroke: #000000; stroke-width: 0.6"/>
      </g>
     </g>
    </g>
    <g id="ytick_78">
     <g id="line2d_90">
      <g>
       <use xlink:href="#m276b98fcd3" x="57.6" y="43.482981" style="stroke: #000000; stroke-width: 0.6"/>
      </g>
     </g>
    </g>
    <g id="text_13">
     <!-- loss -->
     <g transform="translate(21.020313 184.185812) rotate(-90) scale(0.1 -0.1)">
      <defs>
       <path id="DejaVuSans-6c" d="M 603 4863 
L 1178 4863 
L 1178 0 
L 603 0 
L 603 4863 
z
" transform="scale(0.015625)"/>
       <path id="DejaVuSans-6f" d="M 1959 3097 
Q 1497 3097 1228 2736 
Q 959 2375 959 1747 
Q 959 1119 1226 758 
Q 1494 397 1959 397 
Q 2419 397 2687 759 
Q 2956 1122 2956 1747 
Q 2956 2369 2687 2733 
Q 2419 3097 1959 3097 
z
M 1959 3584 
Q 2709 3584 3137 3096 
Q 3566 2609 3566 1747 
Q 3566 888 3137 398 
Q 2709 -91 1959 -91 
Q 1206 -91 779 398 
Q 353 888 353 1747 
Q 353 2609 779 3096 
Q 1206 3584 1959 3584 
z
" transform="scale(0.015625)"/>
       <path id="DejaVuSans-73" d="M 2834 3397 
L 2834 2853 
Q 2591 2978 2328 3040 
Q 2066 3103 1784 3103 
Q 1356 3103 1142 2972 
Q 928 2841 928 2578 
Q 928 2378 1081 2264 
Q 1234 2150 1697 2047 
L 1894 2003 
Q 2506 1872 2764 1633 
Q 3022 1394 3022 966 
Q 3022 478 2636 193 
Q 2250 -91 1575 -91 
Q 1294 -91 989 -36 
Q 684 19 347 128 
L 347 722 
Q 666 556 975 473 
Q 1284 391 1588 391 
Q 1994 391 2212 530 
Q 2431 669 2431 922 
Q 2431 1156 2273 1281 
Q 2116 1406 1581 1522 
L 1381 1569 
Q 847 1681 609 1914 
Q 372 2147 372 2553 
Q 372 3047 722 3315 
Q 1072 3584 1716 3584 
Q 2034 3584 2315 3537 
Q 2597 3491 2834 3397 
z
" transform="scale(0.015625)"/>
      </defs>
      <use xlink:href="#DejaVuSans-6c"/>
      <use xlink:href="#DejaVuSans-6f" x="27.783203"/>
      <use xlink:href="#DejaVuSans-73" x="88.964844"/>
      <use xlink:href="#DejaVuSans-73" x="141.064453"/>
     </g>
    </g>
   </g>
   <g id="line2d_91">
    <path d="M -1 140.181905 
L 2.908901 142.825064 
L 22.815558 156.8496 
L 32.849552 164.34819 
L 42.85696 169.83797 
L 52.875352 171.31274 
L 62.822836 177.679738 
L 72.911952 176.275551 
L 82.861594 167.17109 
L 92.853993 177.040327 
L 102.868224 180.427879 
L 112.881835 177.381569 
L 122.872327 175.814891 
L 132.920739 183.543546 
L 142.932806 186.573333 
L 152.923273 174.918665 
L 162.934532 183.449431 
L 172.917436 182.972723 
L 182.928027 178.67339 
L 192.938329 188.497907 
L 202.948368 178.788649 
L 212.950994 180.930818 
L 222.956228 176.656779 
L 232.963637 179.968503 
L 242.983621 184.35961 
L 252.982863 178.11194 
L 262.991756 187.841087 
L 272.996465 182.570256 
L 283.005101 181.415879 
L 293.015856 189.85378 
L 303.020222 178.191024 
L 313.023943 208.846536 
L 323.032189 193.485154 
L 333.041122 223.640973 
L 343.047837 201.876812 
L 353.055876 226.242939 
L 363.060422 211.082007 
L 373.066789 189.603482 
L 383.07609 225.172985 
L 393.081778 205.826342 
L 403.091924 219.899269 
L 413.097555 241.670166 
L 423.104963 231.30794 
L 433.114134 225.639913 
L 443.120475 244.253993 
L 453.128369 244.134136 
L 461.8 246.082109 
L 461.8 246.082109 
" clip-path="url(#p68289f732a)" style="fill: none; stroke-dasharray: 5.55,2.4; stroke-dashoffset: 0; stroke: #1f77b4; stroke-opacity: 0.4; stroke-width: 1.5"/>
   </g>
   <g id="line2d_92">
    <path d="M 53.423076 158.987675 
L 60.192683 161.374361 
L 66.55214 158.200148 
L 72.548321 160.262776 
L 78.220495 156.793072 
L 83.601891 160.266524 
L 88.720872 161.525252 
L 93.601847 161.147369 
L 98.265968 156.118145 
L 102.731685 156.587948 
L 107.015193 155.548379 
L 111.13078 155.261691 
L 115.091115 150.317948 
L 118.907488 152.021961 
L 122.589998 157.722728 
L 126.147719 157.896883 
L 129.588832 161.169718 
L 132.920739 163.408179 
L 133.788288 154.048067 
L 136.991535 156.898273 
L 140.099945 160.493162 
L 143.118973 163.41072 
L 146.053615 161.888761 
L 148.90846 164.522669 
L 151.687734 159.878697 
L 154.395335 163.18497 
L 157.034866 160.389703 
L 159.609666 152.190989 
L 162.122835 157.064177 
L 164.577254 157.379018 
L 166.975606 153.85975 
L 169.320398 152.243336 
L 171.613967 154.171525 
L 173.858506 158.286204 
L 176.056066 156.241073 
L 178.208573 151.973005 
L 180.317838 146.02016 
L 182.385564 150.10112 
L 184.413355 154.734475 
L 186.402726 146.760143 
L 188.355104 149.961242 
L 190.271841 156.621718 
L 192.154214 160.817665 
L 194.003434 157.205646 
L 195.820649 151.205248 
L 197.606947 157.316079 
L 199.363363 153.609816 
L 201.090881 155.410234 
L 202.790436 160.316898 
L 204.462918 159.304939 
L 206.109177 157.134992 
L 206.542161 163.012209 
L 208.156387 165.235415 
L 209.746172 167.196198 
L 211.312244 163.437288 
L 212.855301 156.173269 
L 214.37601 160.250221 
L 215.875007 163.213816 
L 217.352905 160.728019 
L 218.81029 157.759935 
L 220.247723 161.272772 
L 221.665742 157.17369 
L 223.064866 151.743704 
L 224.445591 149.60816 
L 225.808395 155.308544 
L 227.153737 158.680669 
L 228.482059 155.823191 
L 229.793787 154.253666 
L 231.089329 155.973224 
L 232.369081 155.751364 
L 233.633422 160.75994 
L 234.882719 157.614658 
L 236.117327 157.421375 
L 237.337586 158.973944 
L 238.543827 153.924454 
L 239.736367 153.013115 
L 240.915515 157.153227 
L 242.081568 156.346217 
L 243.234813 157.218982 
L 244.375529 162.622023 
L 245.503985 163.034228 
L 246.620442 162.967291 
L 247.725153 152.468313 
L 249.106842 159.440193 
L 250.185832 153.987678 
L 251.253847 156.928724 
L 253.357829 167.59771 
L 254.394218 164.014165 
L 255.420477 164.392381 
L 256.436803 151.010266 
L 258.440409 159.227283 
L 259.428055 159.329871 
L 260.406497 149.671803 
L 261.375906 153.232292 
L 262.336446 158.257097 
L 263.288278 157.289243 
L 265.166443 166.699697 
L 266.093075 162.536359 
L 267.0116 167.058863 
L 267.922161 163.127124 
L 268.824892 156.75653 
L 269.719929 158.610562 
L 270.6074 158.577461 
L 271.487433 155.339559 
L 272.360151 151.045596 
L 273.225675 149.950334 
L 274.084123 156.845282 
L 274.935609 156.194129 
L 275.780246 159.386965 
L 276.618142 162.01707 
L 277.449405 165.25024 
L 278.274138 169.042953 
L 279.092444 170.791855 
L 279.308739 166.220226 
L 280.119052 167.132052 
L 280.923159 144.942377 
L 281.721155 150.182255 
L 282.513132 157.492416 
L 283.29918 160.948281 
L 284.079387 165.899284 
L 284.853839 162.993863 
L 285.622621 169.2836 
L 286.385815 170.718444 
L 287.143501 159.194476 
L 287.895759 159.762157 
L 288.642666 164.261695 
L 289.384297 163.628675 
L 290.120727 162.389641 
L 290.852027 160.370332 
L 291.578269 158.757428 
L 292.299523 160.881216 
L 293.015856 163.962954 
L 293.727335 162.628888 
L 294.434025 160.314459 
L 295.135991 166.123161 
L 295.833294 166.662191 
L 297.214161 163.971708 
L 297.897844 165.793044 
L 298.577104 132.941564 
L 301.251034 160.838779 
L 301.909011 163.053338 
L 302.562889 164.75849 
L 302.735894 168.94713 
L 303.384659 169.842791 
L 304.029441 169.589958 
L 304.670287 169.092995 
L 305.307246 169.833751 
L 305.940363 172.331075 
L 306.569687 170.248669 
L 307.19526 167.230059 
L 307.817129 171.322033 
L 308.435336 164.424531 
L 309.049925 167.00109 
L 309.660937 172.213965 
L 310.268414 172.76076 
L 310.872396 176.439357 
L 311.472925 164.422063 
L 312.070038 162.495731 
L 313.254172 168.450362 
L 313.841269 167.105541 
L 314.425101 172.065125 
L 315.005705 165.682337 
L 315.583116 169.791292 
L 316.157369 163.737842 
L 316.728499 167.633453 
L 317.296538 169.416246 
L 317.861521 170.046569 
L 318.42348 169.726139 
L 318.982448 157.987767 
L 319.538456 161.069585 
L 320.091534 166.796125 
L 321.189028 174.721144 
L 321.733503 171.919147 
L 321.877656 173.284502 
L 322.41858 175.426195 
L 322.956732 178.318217 
L 323.492141 181.898987 
L 324.024832 183.290349 
L 324.554835 183.262438 
L 325.082176 184.489628 
L 325.606882 183.996376 
L 326.128979 182.936864 
L 326.648492 182.898347 
L 327.165448 183.965622 
L 327.67987 181.753384 
L 328.191785 182.68746 
L 328.701216 179.548624 
L 329.208188 175.665276 
L 329.712723 175.126382 
L 330.714578 180.808393 
L 331.211944 180.411352 
L 331.706964 178.42577 
L 332.199662 181.695463 
L 332.690059 180.446511 
L 333.178175 182.225655 
L 333.664034 184.504459 
L 334.147654 183.880289 
L 334.629057 184.86594 
L 335.108263 182.338285 
L 336.060163 171.669167 
L 336.532896 168.147675 
L 337.00351 169.654839 
L 337.472025 171.891298 
L 337.938458 170.964045 
L 338.062007 175.743376 
L 338.525832 176.181263 
L 338.987618 180.927053 
L 339.447381 171.596368 
L 339.90514 168.449779 
L 340.360912 173.570782 
L 340.814715 177.239299 
L 341.266564 176.501431 
L 341.716477 179.922854 
L 342.164471 157.580725 
L 342.610561 161.901653 
L 343.497095 175.600202 
L 343.937571 180.431563 
L 344.376207 174.688754 
L 344.813018 175.706101 
L 345.24802 177.643472 
L 345.681226 168.643095 
L 346.112653 172.712498 
L 346.542314 168.785713 
L 346.970225 172.969854 
L 347.396398 175.653636 
L 347.820848 179.400998 
L 348.24359 179.782988 
L 349.084001 165.401218 
L 349.917739 175.660065 
L 350.332139 161.021986 
L 351.156063 173.375098 
L 351.565613 172.50379 
L 352.08167 179.142816 
L 352.487633 172.643605 
L 352.892032 178.508851 
L 353.29488 174.82745 
L 353.696188 165.973819 
L 354.095968 172.272657 
L 354.494231 173.669164 
L 354.89099 168.739179 
L 355.286255 171.329573 
L 355.680037 172.833957 
L 356.072349 176.798452 
L 356.852601 176.961572 
L 357.240564 181.328613 
L 357.627098 164.483787 
L 358.012215 171.268573 
L 358.395924 173.602208 
L 358.778236 172.486593 
L 359.159161 177.198804 
L 359.538709 174.074684 
L 359.91689 179.332543 
L 360.293714 170.09852 
L 360.66919 169.448658 
L 361.043329 169.770208 
L 361.416139 172.819433 
L 361.78763 174.626315 
L 362.157811 168.018457 
L 362.526691 169.099906 
L 362.894281 172.307912 
L 363.625621 175.226202 
L 364.351902 183.906475 
L 364.447985 180.575981 
L 364.80892 178.347681 
L 365.16862 179.102469 
L 365.527091 181.014908 
L 365.884342 168.245906 
L 366.595219 164.623579 
L 367.301315 173.597228 
L 367.65259 174.481295 
L 368.002694 174.545528 
L 368.351635 179.534818 
L 368.69942 180.888233 
L 369.046057 181.042293 
L 369.391553 156.939813 
L 370.421272 174.397106 
L 370.762279 175.436428 
L 371.102183 178.976878 
L 371.44099 180.523163 
L 371.778707 180.09754 
L 372.115342 167.261776 
L 372.450901 172.960909 
L 372.78539 175.647084 
L 373.118818 166.390507 
L 373.45119 171.755158 
L 373.782513 169.873691 
L 374.442039 178.722253 
L 374.770256 178.91095 
L 375.097449 176.673563 
L 375.423626 180.923073 
L 375.510097 185.72611 
L 375.834996 169.133501 
L 376.158894 172.54443 
L 376.803706 164.462403 
L 377.444583 174.228841 
L 377.76356 172.750569 
L 378.081572 177.452733 
L 378.398623 180.374054 
L 378.714719 166.362548 
L 379.657339 179.437326 
L 379.969675 178.685444 
L 380.281084 182.517882 
L 380.591572 179.026791 
L 380.901145 184.261781 
L 381.209808 184.795079 
L 381.824424 187.423563 
L 382.130389 179.363069 
L 382.435464 180.297996 
L 382.739656 184.617227 
L 383.042969 186.930708 
L 383.345408 187.99822 
L 383.646978 190.049279 
L 383.947685 185.239282 
L 384.247533 185.513696 
L 384.546528 183.466068 
L 384.844673 183.017782 
L 385.141974 172.64385 
L 385.438436 173.246895 
L 385.517043 173.0579 
L 386.107026 174.042071 
L 386.400779 171.677382 
L 386.693713 166.129848 
L 386.985832 170.299792 
L 387.567642 180.375042 
L 387.857343 184.501543 
L 388.146246 180.634687 
L 388.434357 181.645679 
L 388.721679 184.287115 
L 389.008218 182.866229 
L 389.293976 183.739886 
L 389.86317 183.308209 
L 390.146615 182.742626 
L 390.429296 178.854865 
L 390.711218 178.227577 
L 390.992385 180.494443 
L 391.272802 173.700806 
L 391.552471 171.657436 
L 392.109585 181.980568 
L 392.663758 180.782218 
L 392.939752 168.929015 
L 393.215022 165.825798 
L 393.763407 174.813046 
L 394.036529 167.001335 
L 394.308943 172.345139 
L 394.580651 175.311994 
L 394.652706 180.407454 
L 394.923527 169.694627 
L 395.463084 180.054447 
L 395.731826 181.174044 
L 395.999882 184.875115 
L 396.267255 179.995777 
L 396.53395 178.535856 
L 397.065315 184.023825 
L 397.329992 181.726296 
L 397.594004 182.020424 
L 397.857354 167.445234 
L 398.38208 176.138633 
L 398.643463 173.593584 
L 398.904197 174.15222 
L 399.164285 173.342622 
L 399.42373 175.898761 
L 399.682536 163.057054 
L 400.198242 175.140092 
L 400.455149 177.355312 
L 400.711428 182.566696 
L 400.967083 179.09127 
L 401.476533 183.174929 
L 401.730334 183.829376 
L 401.983524 170.331872 
L 402.488078 178.875187 
L 402.739449 168.945889 
L 403.056729 177.369301 
L 403.306744 178.544965 
L 403.556165 182.114135 
L 403.804995 172.130875 
L 404.300892 181.482008 
L 404.547965 183.177297 
L 404.794458 187.710729 
L 405.040374 188.658443 
L 405.285715 182.919763 
L 405.774685 190.721917 
L 406.018318 187.346082 
L 406.261387 191.618738 
L 406.503895 185.295079 
L 406.745844 188.571002 
L 406.987237 187.712582 
L 407.228076 188.12542 
L 407.708104 174.864745 
L 407.947297 171.43883 
L 408.424055 177.676736 
L 408.661625 180.740089 
L 408.898658 180.426499 
L 409.135158 175.621063 
L 409.371125 175.313731 
L 409.606564 177.323774 
L 409.841476 183.410042 
L 410.075864 185.913464 
L 410.30973 184.537911 
L 410.543076 169.597956 
L 410.775904 169.834816 
L 411.069839 177.717034 
L 411.301504 182.841802 
L 412.223085 193.415983 
L 412.452221 194.38384 
L 412.680859 192.510049 
L 412.909 188.178954 
L 413.363801 193.7369 
L 413.816639 193.67271 
L 414.042329 191.110114 
L 414.267534 186.541667 
L 414.492257 185.18835 
L 414.7165 185.290016 
L 414.940265 188.178893 
L 414.940265 188.178893 
" clip-path="url(#p68289f732a)" style="fill: none; stroke: #1f77b4; stroke-opacity: 0.9; stroke-width: 0.4; stroke-linecap: square"/>
   </g>
   <g id="line2d_93">
    <path d="M -1 162.474214 
L 2.908901 162.616682 
L 22.815558 168.789066 
L 32.849552 170.426175 
L 42.85696 171.013295 
L 52.875352 175.601484 
L 62.822836 177.131523 
L 72.911952 176.302996 
L 82.861594 171.591033 
L 92.853993 178.458524 
L 102.868224 181.121228 
L 112.881835 180.837237 
L 122.872327 176.574692 
L 132.920739 176.236404 
L 142.932806 179.090698 
L 152.923273 180.971368 
L 162.934532 184.183319 
L 172.917436 186.400537 
L 182.928027 185.936332 
L 192.938329 186.919069 
L 202.948368 184.02931 
L 212.950994 191.824725 
L 222.956228 187.097068 
L 232.963637 187.451817 
L 242.983621 187.976632 
L 252.982863 198.016743 
L 262.991756 185.479149 
L 272.996465 196.925483 
L 283.005101 173.365429 
L 293.015856 200.781879 
L 303.020222 190.514555 
L 313.023943 204.902088 
L 323.032189 181.882834 
L 333.041122 210.277062 
L 343.047837 201.271673 
L 353.055876 204.985704 
L 363.060422 166.578879 
L 373.066789 209.579249 
L 383.07609 215.156239 
L 393.081778 218.442242 
L 403.091924 207.908311 
L 413.097555 211.10706 
L 423.104963 219.967637 
L 433.114134 235.664344 
L 443.120475 227.186001 
L 453.128369 219.513262 
L 461.8 225.048434 
L 461.8 225.048434 
" clip-path="url(#p68289f732a)" style="fill: none; stroke-dasharray: 5.55,2.4; stroke-dashoffset: 0; stroke: #ff7f0e; stroke-opacity: 0.4; stroke-width: 1.5"/>
   </g>
   <g id="line2d_94">
    <path d="M 53.423076 156.089866 
L 60.192683 156.872718 
L 66.55214 150.881246 
L 72.548321 151.246614 
L 78.220495 146.597791 
L 83.601891 150.98096 
L 88.720872 152.960775 
L 93.601847 150.895528 
L 98.265968 153.314341 
L 102.731685 156.412378 
L 107.015193 158.305002 
L 111.13078 157.75034 
L 115.091115 158.627562 
L 118.907488 152.725114 
L 122.589998 155.420966 
L 126.147719 157.038499 
L 129.588832 154.679284 
L 132.920739 153.475035 
L 133.788288 155.966177 
L 136.991535 157.810541 
L 140.099945 158.997918 
L 143.118973 153.470747 
L 146.053615 156.470096 
L 148.90846 156.832768 
L 151.687734 158.905945 
L 154.395335 159.711325 
L 157.034866 157.111146 
L 159.609666 158.836754 
L 162.122835 157.345351 
L 164.577254 155.320728 
L 166.975606 157.94858 
L 169.320398 159.690278 
L 171.613967 158.120159 
L 173.858506 157.392527 
L 176.056066 159.264883 
L 178.208573 160.509371 
L 180.317838 160.440436 
L 182.385564 159.408961 
L 184.413355 153.215194 
L 186.402726 156.618902 
L 188.355104 160.250531 
L 190.271841 161.771877 
L 192.154214 162.053395 
L 194.003434 160.715355 
L 195.820649 160.879686 
L 197.606947 157.142255 
L 199.363363 159.743841 
L 201.090881 157.824102 
L 202.790436 159.854035 
L 204.462918 160.071559 
L 206.542161 158.202689 
L 209.746172 163.434218 
L 211.312244 163.750167 
L 212.855301 164.493256 
L 214.37601 158.51954 
L 215.875007 153.839234 
L 217.352905 157.186897 
L 218.81029 158.183249 
L 220.247723 158.041653 
L 221.665742 160.663922 
L 223.064866 162.307708 
L 224.445591 160.237043 
L 225.808395 161.513089 
L 227.153737 163.948116 
L 228.482059 165.73953 
L 229.793787 159.978878 
L 231.089329 155.593994 
L 232.369081 158.378637 
L 233.633422 160.224903 
L 234.882719 160.126618 
L 236.117327 163.312604 
L 237.337586 147.040006 
L 238.543827 152.047319 
L 239.736367 155.068782 
L 240.915515 155.134508 
L 242.081568 156.017934 
L 243.234813 155.329558 
L 244.375529 159.328549 
L 245.503985 162.665807 
L 246.620442 164.445148 
L 247.725153 165.580066 
L 248.818361 162.850877 
L 249.106842 162.479022 
L 250.185832 164.669978 
L 251.253847 161.83465 
L 252.311108 165.182692 
L 253.357829 162.380376 
L 254.394218 163.883221 
L 255.420477 166.541992 
L 256.436803 167.309415 
L 257.443385 141.009703 
L 259.428055 151.37264 
L 260.406497 155.4614 
L 262.336446 161.018097 
L 263.288278 162.310647 
L 264.23156 164.300303 
L 265.166443 164.066322 
L 266.093075 163.066121 
L 267.0116 165.154201 
L 267.922161 163.16405 
L 268.824892 162.394817 
L 269.719929 165.184511 
L 270.6074 164.68819 
L 271.487433 164.612611 
L 272.360151 166.160804 
L 273.225675 165.648957 
L 274.084123 162.47073 
L 274.935609 163.102042 
L 275.780246 161.888826 
L 276.618142 165.296459 
L 277.449405 167.231757 
L 279.092444 169.443625 
L 279.308739 170.208506 
L 280.119052 170.297649 
L 280.923159 169.104845 
L 281.721155 159.67386 
L 282.513132 157.294337 
L 284.079387 164.68509 
L 284.853839 165.751603 
L 285.622621 167.764128 
L 286.385815 166.419289 
L 287.143501 166.545357 
L 287.895759 163.47524 
L 288.642666 166.52022 
L 289.384297 167.323525 
L 290.120727 167.532317 
L 290.852027 164.63046 
L 291.578269 166.946555 
L 292.299523 166.694312 
L 293.015856 167.442628 
L 293.727335 165.635511 
L 294.434025 167.157431 
L 295.135991 165.78597 
L 295.833294 167.738994 
L 296.525998 165.428026 
L 297.214161 168.408105 
L 297.897844 166.356611 
L 298.577104 166.473527 
L 299.251997 165.483766 
L 299.92258 160.488963 
L 301.251034 166.978346 
L 301.909011 159.096957 
L 302.562889 161.405135 
L 302.735894 164.183526 
L 304.670287 169.513314 
L 305.307246 168.698655 
L 305.940363 169.359495 
L 306.569687 163.341446 
L 307.19526 166.540278 
L 307.817129 167.859389 
L 308.435336 169.431963 
L 309.049925 167.524501 
L 309.660937 167.806269 
L 310.268414 169.110953 
L 310.872396 167.620784 
L 311.472925 169.853987 
L 312.070038 171.103931 
L 312.663774 171.652748 
L 313.254172 168.733155 
L 313.841269 168.921295 
L 314.425101 160.810276 
L 315.005705 155.104444 
L 315.583116 157.373125 
L 316.157369 156.504781 
L 316.728499 160.540257 
L 317.861521 164.722193 
L 318.982448 168.917314 
L 319.538456 169.344018 
L 320.091534 169.587308 
L 320.641715 170.197523 
L 321.189028 167.707666 
L 321.733503 168.073308 
L 321.877656 160.388866 
L 322.41858 160.273401 
L 322.956732 162.936996 
L 323.492141 162.83218 
L 324.024832 164.500806 
L 324.554835 162.709855 
L 325.082176 164.326573 
L 325.606882 166.468143 
L 326.128979 162.335875 
L 326.648492 165.298923 
L 327.165448 166.365629 
L 327.67987 164.645337 
L 328.191785 167.14975 
L 328.701216 167.794746 
L 329.208188 170.615259 
L 329.712723 172.234307 
L 330.214845 172.56304 
L 330.714578 173.071221 
L 331.211944 171.196939 
L 332.199662 171.967106 
L 332.690059 169.366555 
L 333.178175 168.925754 
L 333.664034 169.876279 
L 334.147654 165.107598 
L 334.629057 168.269192 
L 335.108263 170.251797 
L 335.585291 171.159955 
L 336.060163 171.132245 
L 336.532896 169.193052 
L 337.00351 169.983258 
L 337.472025 163.621029 
L 337.938458 148.601557 
L 338.062007 152.309444 
L 338.525832 156.484419 
L 339.447381 166.081229 
L 339.90514 168.343083 
L 340.814715 170.923669 
L 341.266564 170.376083 
L 341.716477 171.661994 
L 342.164471 171.456337 
L 342.610561 168.259926 
L 343.054764 169.880434 
L 343.497095 168.881876 
L 344.813018 172.780424 
L 345.24802 172.38115 
L 345.681226 170.949684 
L 346.112653 173.045265 
L 346.542314 173.804265 
L 346.970225 167.583768 
L 347.396398 170.40802 
L 347.820848 169.15658 
L 348.24359 170.992535 
L 348.664637 169.880746 
L 349.084001 172.3236 
L 349.501698 171.007991 
L 349.917739 154.024149 
L 350.332139 156.933411 
L 350.744909 161.330694 
L 351.156063 162.406789 
L 351.565613 165.263569 
L 351.973572 166.650522 
L 352.08167 168.924549 
L 352.487633 169.41338 
L 352.892032 168.762319 
L 353.29488 170.686569 
L 353.696188 169.822059 
L 354.095968 170.555171 
L 354.494231 171.896712 
L 354.89099 168.354648 
L 355.286255 170.535797 
L 355.680037 171.237579 
L 356.072349 170.403003 
L 356.4632 170.52861 
L 356.852601 168.371321 
L 357.240564 170.718924 
L 357.627098 168.511503 
L 358.012215 169.346417 
L 358.395924 163.125607 
L 358.778236 162.286872 
L 359.159161 165.942787 
L 359.538709 163.723003 
L 360.293714 170.111268 
L 360.66919 169.518333 
L 361.043329 171.947437 
L 361.416139 173.048553 
L 361.78763 173.452413 
L 362.157811 164.823867 
L 362.526691 153.346307 
L 362.894281 156.289842 
L 363.260588 157.320002 
L 363.625621 155.759916 
L 363.98939 160.54752 
L 364.447985 164.891269 
L 364.80892 165.394872 
L 365.527091 167.396433 
L 365.884342 169.204309 
L 366.240382 167.352416 
L 366.595219 168.479384 
L 366.94886 168.216167 
L 367.65259 171.101094 
L 368.002694 170.555533 
L 368.351635 165.219101 
L 368.69942 167.418161 
L 369.046057 168.737688 
L 369.391553 171.098307 
L 370.079153 173.239144 
L 370.421272 167.559003 
L 370.762279 170.531754 
L 371.44099 173.669911 
L 371.778707 172.688146 
L 372.115342 174.623532 
L 372.450901 171.863267 
L 372.78539 174.068102 
L 373.118818 173.490061 
L 373.45119 165.518943 
L 373.782513 168.104588 
L 374.112794 165.698652 
L 374.442039 169.196723 
L 374.770256 171.047369 
L 375.097449 168.791335 
L 375.423626 170.942025 
L 375.510097 169.838655 
L 375.834996 172.804848 
L 376.158894 170.637218 
L 376.481795 172.151908 
L 376.803706 173.085495 
L 377.124633 171.041232 
L 377.76356 175.619235 
L 378.081572 168.405727 
L 378.398623 172.02449 
L 378.714719 168.639632 
L 379.344072 172.940181 
L 379.657339 167.570427 
L 380.281084 171.497672 
L 380.591572 167.77611 
L 380.901145 167.301693 
L 381.209808 169.927727 
L 381.517566 171.064806 
L 381.824424 170.696976 
L 382.435464 176.164678 
L 382.739656 176.425765 
L 383.042969 177.387564 
L 383.345408 173.399094 
L 383.646978 172.469785 
L 383.947685 169.976382 
L 384.247533 173.487591 
L 384.546528 174.3966 
L 384.844673 172.716684 
L 385.141974 156.690774 
L 385.438436 159.272646 
L 385.517043 163.554227 
L 386.400779 173.869491 
L 386.985832 175.619459 
L 387.27714 171.360298 
L 387.567642 170.975026 
L 388.146246 176.916585 
L 388.434357 174.040425 
L 388.721679 176.244762 
L 389.008218 177.018799 
L 389.293976 178.752608 
L 389.578959 174.178358 
L 390.146615 173.681474 
L 390.429296 177.004006 
L 390.992385 179.944638 
L 391.272802 177.703434 
L 391.552471 172.894534 
L 391.831397 173.292846 
L 392.109585 175.542808 
L 392.663758 177.323201 
L 392.939752 179.541812 
L 393.763407 159.198019 
L 394.036529 161.910333 
L 394.308943 161.34596 
L 394.923527 169.106012 
L 395.193652 170.821953 
L 395.731826 170.021 
L 395.999882 164.343352 
L 396.267255 162.063622 
L 396.53395 165.934904 
L 396.799968 165.56019 
L 397.329992 173.029898 
L 397.594004 169.422279 
L 397.857354 173.24271 
L 398.120045 172.476955 
L 398.38208 176.03937 
L 398.643463 162.988622 
L 398.904197 159.137863 
L 399.42373 163.19254 
L 399.940706 168.608611 
L 400.198242 169.149819 
L 400.711428 173.934236 
L 400.967083 169.430849 
L 401.222117 173.196318 
L 401.476533 174.25244 
L 401.983524 173.482858 
L 402.236104 170.538797 
L 402.488078 174.383233 
L 402.739449 175.353325 
L 402.990219 172.351856 
L 403.056729 172.583544 
L 403.306744 171.835573 
L 403.556165 169.404044 
L 403.804995 171.447341 
L 404.053236 166.737331 
L 404.300892 168.944422 
L 404.547965 169.70217 
L 404.794458 173.822351 
L 405.040374 175.349176 
L 405.285715 170.001016 
L 405.530485 161.807759 
L 405.774685 167.566235 
L 406.018318 170.308316 
L 406.261387 168.41441 
L 406.503895 169.757326 
L 406.987237 175.520351 
L 407.228076 175.4348 
L 407.468364 170.790918 
L 407.708104 174.876068 
L 407.947297 169.833551 
L 408.424055 177.792255 
L 408.661625 180.109742 
L 408.898658 177.858312 
L 409.135158 174.225177 
L 409.371125 178.413343 
L 409.606564 177.668588 
L 409.841476 180.54638 
L 410.075864 180.49402 
L 410.30973 174.562217 
L 410.543076 177.037584 
L 410.837662 150.12343 
L 411.301504 158.289763 
L 411.993447 166.958498 
L 412.223085 168.229187 
L 412.680859 171.951027 
L 412.909 173.220872 
L 413.136647 172.76074 
L 413.363801 174.271509 
L 413.816639 174.768621 
L 414.042329 176.316182 
L 414.267534 176.5876 
L 414.492257 176.419474 
L 414.940265 178.162579 
L 414.940265 178.162579 
" clip-path="url(#p68289f732a)" style="fill: none; stroke: #ff7f0e; stroke-opacity: 0.9; stroke-width: 0.4; stroke-linecap: square"/>
   </g>
   <g id="line2d_95">
    <path d="M -1 164.32962 
L 2.908901 165.444542 
L 12.852012 167.189764 
L 22.815558 171.513156 
L 32.849552 173.07667 
L 42.85696 169.37565 
L 62.822836 171.827028 
L 72.911952 174.082415 
L 82.861594 170.189075 
L 92.853993 173.507551 
L 102.868224 179.550919 
L 112.881835 180.3701 
L 122.872327 172.727785 
L 132.920739 175.071132 
L 142.932806 178.558636 
L 152.923273 182.769786 
L 162.934532 187.970076 
L 172.917436 187.143897 
L 182.928027 194.052389 
L 192.938329 190.444694 
L 202.948368 194.483889 
L 212.950994 196.804059 
L 222.956228 195.243521 
L 232.963637 181.841264 
L 242.983621 196.386735 
L 252.982863 203.898907 
L 262.991756 200.618041 
L 272.996465 206.65173 
L 283.005101 189.627313 
L 293.015856 198.213373 
L 303.020222 188.25338 
L 313.023943 211.928573 
L 323.032189 186.026595 
L 333.041122 209.965606 
L 343.047837 217.226915 
L 353.055876 218.428992 
L 363.060422 218.901139 
L 373.066789 217.589504 
L 383.07609 222.077801 
L 393.081778 222.703838 
L 403.091924 207.667864 
L 413.097555 218.882522 
L 423.104963 220.076674 
L 433.114134 239.848658 
L 443.120475 218.752042 
L 453.128369 226.871655 
L 461.8 227.34217 
L 461.8 227.34217 
" clip-path="url(#p68289f732a)" style="fill: none; stroke-dasharray: 5.55,2.4; stroke-dashoffset: 0; stroke: #2ca02c; stroke-opacity: 0.4; stroke-width: 1.5"/>
   </g>
   <g id="line2d_96">
    <path d="M 53.423076 152.956641 
L 60.192683 151.079497 
L 66.55214 150.958913 
L 72.548321 147.626193 
L 78.220495 149.996462 
L 83.601891 143.466968 
L 88.720872 148.481086 
L 93.601847 144.652894 
L 98.265968 148.680232 
L 102.731685 151.765715 
L 107.015193 155.473166 
L 111.13078 155.797658 
L 115.091115 146.993521 
L 118.907488 150.239502 
L 122.589998 151.143015 
L 126.147719 148.943943 
L 129.588832 152.388752 
L 132.920739 152.528152 
L 133.788288 154.317291 
L 136.991535 154.781311 
L 140.099945 155.673242 
L 143.118973 151.635145 
L 146.053615 151.967585 
L 148.90846 156.566137 
L 151.687734 158.699204 
L 154.395335 155.00872 
L 157.034866 158.633966 
L 159.609666 161.566415 
L 162.122835 161.777538 
L 164.577254 161.090668 
L 166.975606 158.000691 
L 169.320398 160.465567 
L 171.613967 161.418204 
L 173.858506 163.580973 
L 176.056066 161.255947 
L 178.208573 162.772999 
L 180.317838 158.363529 
L 182.385564 156.649951 
L 184.413355 157.718318 
L 186.402726 159.354499 
L 188.355104 161.73207 
L 190.271841 160.400864 
L 192.154214 163.254018 
L 194.003434 160.137658 
L 195.820649 159.439482 
L 197.606947 163.049444 
L 199.363363 160.369427 
L 201.090881 163.687297 
L 202.790436 164.73026 
L 204.462918 161.721303 
L 206.109177 159.043092 
L 206.542161 156.895609 
L 208.156387 160.730353 
L 209.746172 163.854016 
L 211.312244 163.203801 
L 212.855301 165.91923 
L 214.37601 166.395489 
L 215.875007 164.54689 
L 217.352905 165.385026 
L 218.81029 165.080563 
L 220.247723 160.870116 
L 221.665742 163.605847 
L 223.064866 165.994356 
L 225.808395 168.833748 
L 227.153737 169.402263 
L 228.482059 163.878539 
L 229.793787 157.361192 
L 231.089329 158.999145 
L 232.369081 154.727473 
L 233.633422 155.433412 
L 234.882719 160.050958 
L 236.117327 163.205535 
L 237.337586 165.064856 
L 238.543827 165.111691 
L 239.736367 164.246542 
L 240.915515 160.529798 
L 242.081568 161.697308 
L 243.234813 158.732665 
L 244.375529 162.595874 
L 245.503985 164.646283 
L 246.620442 165.273392 
L 247.725153 167.842584 
L 248.818361 169.029752 
L 249.106842 168.366031 
L 250.185832 169.334766 
L 251.253847 167.192172 
L 252.311108 165.583426 
L 253.357829 169.072838 
L 254.394218 169.194076 
L 255.420477 147.862112 
L 256.436803 151.005354 
L 257.443385 155.3289 
L 259.428055 165.209484 
L 260.406497 162.52548 
L 261.375906 166.058009 
L 262.336446 168.202549 
L 263.288278 167.535989 
L 264.23156 168.324051 
L 265.166443 169.451939 
L 266.093075 171.742524 
L 267.0116 169.483425 
L 267.922161 167.798872 
L 268.824892 169.809512 
L 269.719929 169.417756 
L 270.6074 170.037413 
L 271.487433 171.815616 
L 273.225675 173.231015 
L 274.084123 162.892083 
L 274.935609 163.932147 
L 275.780246 161.710694 
L 276.618142 146.661632 
L 277.449405 144.678546 
L 278.274138 145.501457 
L 279.092444 151.731966 
L 279.308739 154.611724 
L 280.119052 154.443632 
L 280.923159 157.738574 
L 281.721155 162.298686 
L 282.513132 163.415491 
L 283.29918 166.051593 
L 284.079387 166.163507 
L 284.853839 165.850906 
L 285.622621 167.769847 
L 286.385815 166.936283 
L 287.143501 164.246695 
L 287.895759 167.056454 
L 288.642666 169.06714 
L 289.384297 170.722592 
L 290.120727 168.790855 
L 290.852027 168.638354 
L 291.578269 166.043221 
L 292.299523 165.329697 
L 293.015856 157.733934 
L 294.434025 166.269356 
L 295.135991 167.859288 
L 295.833294 170.139218 
L 296.525998 170.681647 
L 297.897844 173.156248 
L 298.577104 173.80622 
L 299.251997 169.514385 
L 299.92258 169.20289 
L 300.588908 168.52355 
L 301.251034 169.141224 
L 301.909011 157.504928 
L 302.562889 157.05423 
L 302.735894 159.938255 
L 303.384659 164.682613 
L 304.670287 168.057888 
L 305.307246 168.238535 
L 306.569687 172.750315 
L 307.19526 173.322672 
L 307.817129 160.283907 
L 308.435336 159.323977 
L 309.049925 162.287402 
L 309.660937 166.807542 
L 310.268414 169.747549 
L 310.872396 171.746685 
L 311.472925 172.025363 
L 312.070038 172.853176 
L 312.663774 174.051678 
L 313.254172 172.297414 
L 313.841269 173.610404 
L 314.425101 173.073783 
L 315.005705 170.269095 
L 315.583116 172.522305 
L 316.157369 173.240704 
L 316.728499 173.486763 
L 317.296538 169.511412 
L 317.861521 167.32548 
L 318.42348 171.207787 
L 318.982448 169.109632 
L 319.538456 171.451718 
L 320.091534 172.50444 
L 320.641715 149.735467 
L 321.189028 154.810323 
L 321.877656 159.357853 
L 322.41858 158.232824 
L 322.956732 163.353805 
L 323.492141 166.77497 
L 324.024832 163.492993 
L 324.554835 167.254684 
L 325.082176 162.695021 
L 325.606882 166.877891 
L 326.128979 168.750409 
L 326.648492 171.566162 
L 327.165448 171.770879 
L 327.67987 171.764684 
L 328.191785 172.662164 
L 328.701216 167.272434 
L 329.208188 168.697638 
L 329.712723 171.233979 
L 330.214845 171.838831 
L 330.714578 172.687376 
L 331.211944 173.063813 
L 332.199662 175.588441 
L 332.690059 174.259261 
L 333.178175 173.598127 
L 333.664034 172.68515 
L 334.147654 173.315653 
L 334.629057 174.767924 
L 335.108263 174.083394 
L 335.585291 165.862896 
L 336.060163 164.509321 
L 336.532896 167.625574 
L 337.00351 169.312098 
L 337.472025 167.393142 
L 337.938458 166.772071 
L 338.062007 166.881806 
L 338.987618 172.577436 
L 339.447381 174.18686 
L 340.360912 176.365927 
L 340.814715 175.592076 
L 341.266564 175.463957 
L 341.716477 175.676335 
L 342.164471 176.30117 
L 342.610561 177.294457 
L 343.054764 175.864328 
L 343.497095 173.844675 
L 343.937571 175.405385 
L 344.376207 176.250493 
L 344.813018 175.307152 
L 345.24802 176.659248 
L 345.681226 176.537052 
L 346.112653 177.821722 
L 346.542314 178.027231 
L 346.970225 177.315871 
L 347.396398 174.83536 
L 347.820848 176.404175 
L 348.24359 176.045924 
L 348.664637 177.310336 
L 349.084001 175.910461 
L 349.501698 177.085664 
L 350.332139 170.882038 
L 350.744909 173.448384 
L 351.156063 174.537976 
L 351.565613 174.657079 
L 351.973572 176.438006 
L 352.08167 177.475315 
L 352.487633 176.116425 
L 352.892032 172.795631 
L 353.29488 175.313923 
L 353.696188 175.199993 
L 354.095968 177.063175 
L 354.494231 171.082122 
L 354.89099 174.387516 
L 355.680037 175.935841 
L 356.072349 173.417846 
L 356.4632 174.064892 
L 356.852601 171.489236 
L 357.240564 173.573424 
L 357.627098 171.442943 
L 358.012215 174.355928 
L 358.395924 173.825322 
L 358.778236 172.583898 
L 359.538709 176.287359 
L 359.91689 175.275701 
L 360.293714 170.963479 
L 360.66919 170.766857 
L 361.043329 168.968788 
L 361.416139 172.880836 
L 361.78763 175.068413 
L 362.157811 174.027478 
L 362.526691 175.304635 
L 362.894281 176.023609 
L 363.260588 173.094746 
L 363.625621 176.056993 
L 364.447985 167.510616 
L 364.80892 171.708469 
L 365.16862 173.051991 
L 365.527091 174.890985 
L 365.884342 171.787193 
L 366.240382 174.738591 
L 366.595219 173.881993 
L 367.301315 178.228422 
L 367.65259 179.259267 
L 368.002694 171.632036 
L 368.351635 172.885014 
L 368.69942 173.345852 
L 369.046057 175.00115 
L 369.391553 176.066952 
L 369.735916 173.737131 
L 370.421272 177.392963 
L 370.762279 173.907451 
L 371.102183 176.027693 
L 371.44099 175.156311 
L 371.778707 175.632545 
L 372.450901 179.013298 
L 372.78539 178.617468 
L 373.118818 178.843411 
L 373.45119 178.507452 
L 373.782513 172.592595 
L 374.442039 176.085138 
L 374.770256 176.31653 
L 375.097449 176.394848 
L 375.423626 176.022557 
L 375.510097 177.802956 
L 375.834996 173.766908 
L 376.158894 147.547079 
L 376.803706 160.492968 
L 377.124633 161.648449 
L 377.76356 170.733086 
L 378.081572 170.854779 
L 378.398623 172.362684 
L 378.714719 172.162413 
L 379.029867 174.695291 
L 379.344072 176.282885 
L 379.657339 177.192702 
L 379.969675 175.352476 
L 380.281084 176.911759 
L 380.591572 170.320539 
L 380.901145 170.780771 
L 381.209808 174.213234 
L 381.517566 174.366134 
L 381.824424 176.83374 
L 382.130389 177.305312 
L 382.435464 178.581972 
L 382.739656 174.851273 
L 383.345408 178.434521 
L 384.247533 180.348824 
L 384.546528 179.467277 
L 384.844673 175.1569 
L 385.141974 177.679724 
L 385.438436 178.411095 
L 385.517043 180.128811 
L 385.812449 180.423763 
L 386.107026 179.581858 
L 386.400779 178.319526 
L 386.693713 176.516378 
L 386.985832 178.609825 
L 387.27714 172.09733 
L 387.567642 175.066845 
L 387.857343 173.102734 
L 388.434357 178.103889 
L 388.721679 177.372013 
L 389.008218 174.575678 
L 389.578959 178.213127 
L 389.86317 179.461038 
L 390.146615 175.852171 
L 390.429296 178.018459 
L 390.711218 178.961664 
L 390.992385 179.106078 
L 391.272802 176.044283 
L 391.552471 178.253712 
L 391.831397 176.884064 
L 392.387037 180.766654 
L 392.663758 180.866434 
L 392.939752 176.973503 
L 393.215022 175.316357 
L 393.489573 174.43181 
L 393.763407 176.192569 
L 394.036529 177.02771 
L 394.308943 172.044692 
L 394.652706 176.934255 
L 394.923527 176.390083 
L 395.193652 178.200899 
L 395.463084 176.457254 
L 395.731826 179.468682 
L 396.267255 177.704128 
L 396.53395 178.528158 
L 396.799968 177.80431 
L 397.065315 180.844309 
L 397.329992 182.318455 
L 397.594004 172.704906 
L 397.857354 176.749437 
L 398.38208 180.720186 
L 398.643463 180.885715 
L 398.904197 174.931272 
L 399.164285 177.932423 
L 399.42373 176.472819 
L 399.682536 178.894805 
L 399.940706 173.067775 
L 400.198242 174.60924 
L 400.455149 167.985626 
L 400.711428 170.534789 
L 400.967083 170.249929 
L 401.222117 172.767841 
L 401.476533 177.667509 
L 401.730334 178.756615 
L 401.983524 181.008929 
L 402.488078 176.920032 
L 402.739449 179.01144 
L 402.990219 176.460348 
L 403.306744 150.382514 
L 403.804995 162.892082 
L 404.300892 173.553613 
L 404.547965 177.560866 
L 405.040374 181.024077 
L 405.285715 179.985107 
L 405.530485 180.993125 
L 405.774685 182.543912 
L 406.018318 181.437899 
L 406.261387 181.680689 
L 406.503895 180.618862 
L 406.745844 182.05085 
L 406.987237 182.153869 
L 407.228076 183.566787 
L 407.468364 178.727977 
L 407.708104 180.920277 
L 407.947297 180.354234 
L 408.185947 182.053534 
L 408.424055 180.412036 
L 408.898658 182.305713 
L 409.135158 183.051355 
L 409.371125 179.09466 
L 409.841476 182.234988 
L 410.075864 176.721274 
L 410.30973 180.383988 
L 410.543076 182.048589 
L 410.775904 179.595593 
L 410.837662 177.518591 
L 411.532658 181.133007 
L 411.993447 179.572165 
L 412.223085 180.124186 
L 412.452221 182.023535 
L 412.680859 173.664314 
L 413.363801 181.666771 
L 413.590464 178.134399 
L 413.816639 179.584604 
L 414.042329 179.578403 
L 414.267534 182.227595 
L 414.492257 181.836155 
L 414.7165 181.8519 
L 414.940265 181.183712 
L 414.940265 181.183712 
" clip-path="url(#p68289f732a)" style="fill: none; stroke: #2ca02c; stroke-opacity: 0.9; stroke-width: 0.4; stroke-linecap: square"/>
   </g>
   <g id="patch_3">
    <path d="M 57.6 307.584 
L 57.6 41.472 
" style="fill: none; stroke: #000000; stroke-width: 0.8; stroke-linejoin: miter; stroke-linecap: square"/>
   </g>
   <g id="patch_4">
    <path d="M 414.72 307.584 
L 414.72 41.472 
" style="fill: none; stroke: #000000; stroke-width: 0.8; stroke-linejoin: miter; stroke-linecap: square"/>
   </g>
   <g id="patch_5">
    <path d="M 57.6 307.584 
L 414.72 307.584 
" style="fill: none; stroke: #000000; stroke-width: 0.8; stroke-linejoin: miter; stroke-linecap: square"/>
   </g>
   <g id="patch_6">
    <path d="M 57.6 41.472 
L 414.72 41.472 
" style="fill: none; stroke: #000000; stroke-width: 0.8; stroke-linejoin: miter; stroke-linecap: square"/>
   </g>
   <g id="text_14">
    <!-- 2025-02-18-13:04:27 -->
    <g transform="translate(172.178438 35.472) scale(0.12 -0.12)">
     <defs>
      <path id="DejaVuSans-2d" d="M 313 2009 
L 1997 2009 
L 1997 1497 
L 313 1497 
L 313 2009 
z
" transform="scale(0.015625)"/>
      <path id="DejaVuSans-38" d="M 2034 2216 
Q 1584 2216 1326 1975 
Q 1069 1734 1069 1313 
Q 1069 891 1326 650 
Q 1584 409 2034 409 
Q 2484 409 2743 651 
Q 3003 894 3003 1313 
Q 3003 1734 2745 1975 
Q 2488 2216 2034 2216 
z
M 1403 2484 
Q 997 2584 770 2862 
Q 544 3141 544 3541 
Q 544 4100 942 4425 
Q 1341 4750 2034 4750 
Q 2731 4750 3128 4425 
Q 3525 4100 3525 3541 
Q 3525 3141 3298 2862 
Q 3072 2584 2669 2484 
Q 3125 2378 3379 2068 
Q 3634 1759 3634 1313 
Q 3634 634 3220 271 
Q 2806 -91 2034 -91 
Q 1263 -91 848 271 
Q 434 634 434 1313 
Q 434 1759 690 2068 
Q 947 2378 1403 2484 
z
M 1172 3481 
Q 1172 3119 1398 2916 
Q 1625 2713 2034 2713 
Q 2441 2713 2670 2916 
Q 2900 3119 2900 3481 
Q 2900 3844 2670 4047 
Q 2441 4250 2034 4250 
Q 1625 4250 1398 4047 
Q 1172 3844 1172 3481 
z
" transform="scale(0.015625)"/>
      <path id="DejaVuSans-3a" d="M 750 794 
L 1409 794 
L 1409 0 
L 750 0 
L 750 794 
z
M 750 3309 
L 1409 3309 
L 1409 2516 
L 750 2516 
L 750 3309 
z
" transform="scale(0.015625)"/>
      <path id="DejaVuSans-37" d="M 525 4666 
L 3525 4666 
L 3525 4397 
L 1831 0 
L 1172 0 
L 2766 4134 
L 525 4134 
L 525 4666 
z
" transform="scale(0.015625)"/>
     </defs>
     <use xlink:href="#DejaVuSans-32"/>
     <use xlink:href="#DejaVuSans-30" x="63.623047"/>
     <use xlink:href="#DejaVuSans-32" x="127.246094"/>
     <use xlink:href="#DejaVuSans-35" x="190.869141"/>
     <use xlink:href="#DejaVuSans-2d" x="254.492188"/>
     <use xlink:href="#DejaVuSans-30" x="290.576172"/>
     <use xlink:href="#DejaVuSans-32" x="354.199219"/>
     <use xlink:href="#DejaVuSans-2d" x="417.822266"/>
     <use xlink:href="#DejaVuSans-31" x="453.90625"/>
     <use xlink:href="#DejaVuSans-38" x="517.529297"/>
     <use xlink:href="#DejaVuSans-2d" x="581.152344"/>
     <use xlink:href="#DejaVuSans-31" x="617.236328"/>
     <use xlink:href="#DejaVuSans-33" x="680.859375"/>
     <use xlink:href="#DejaVuSans-3a" x="744.482422"/>
     <use xlink:href="#DejaVuSans-30" x="778.173828"/>
     <use xlink:href="#DejaVuSans-34" x="841.796875"/>
     <use xlink:href="#DejaVuSans-3a" x="905.419922"/>
     <use xlink:href="#DejaVuSans-32" x="939.111328"/>
     <use xlink:href="#DejaVuSans-37" x="1002.734375"/>
    </g>
   </g>
   <g id="legend_1">
    <g id="patch_7">
     <path d="M 64.6 138.375125 
L 190.723438 138.375125 
Q 192.723438 138.375125 192.723438 136.375125 
L 192.723438 48.472 
Q 192.723438 46.472 190.723438 46.472 
L 64.6 46.472 
Q 62.6 46.472 62.6 48.472 
L 62.6 136.375125 
Q 62.6 138.375125 64.6 138.375125 
z
" style="fill: #ffffff; opacity: 0.8; stroke: #cccccc; stroke-linejoin: miter"/>
    </g>
    <g id="line2d_97">
     <path d="M 66.6 54.570437 
L 76.6 54.570437 
L 86.6 54.570437 
" style="fill: none; stroke-dasharray: 5.55,2.4; stroke-dashoffset: 0; stroke: #1f77b4; stroke-opacity: 0.4; stroke-width: 1.5"/>
    </g>
    <g id="text_15">
     <!-- SchNet MEA -->
     <g transform="translate(94.6 58.070437) scale(0.1 -0.1)">
      <defs>
       <path id="DejaVuSans-53" d="M 3425 4513 
L 3425 3897 
Q 3066 4069 2747 4153 
Q 2428 4238 2131 4238 
Q 1616 4238 1336 4038 
Q 1056 3838 1056 3469 
Q 1056 3159 1242 3001 
Q 1428 2844 1947 2747 
L 2328 2669 
Q 3034 2534 3370 2195 
Q 3706 1856 3706 1288 
Q 3706 609 3251 259 
Q 2797 -91 1919 -91 
Q 1588 -91 1214 -16 
Q 841 59 441 206 
L 441 856 
Q 825 641 1194 531 
Q 1563 422 1919 422 
Q 2459 422 2753 634 
Q 3047 847 3047 1241 
Q 3047 1584 2836 1778 
Q 2625 1972 2144 2069 
L 1759 2144 
Q 1053 2284 737 2584 
Q 422 2884 422 3419 
Q 422 4038 858 4394 
Q 1294 4750 2059 4750 
Q 2388 4750 2728 4690 
Q 3069 4631 3425 4513 
z
" transform="scale(0.015625)"/>
       <path id="DejaVuSans-63" d="M 3122 3366 
L 3122 2828 
Q 2878 2963 2633 3030 
Q 2388 3097 2138 3097 
Q 1578 3097 1268 2742 
Q 959 2388 959 1747 
Q 959 1106 1268 751 
Q 1578 397 2138 397 
Q 2388 397 2633 464 
Q 2878 531 3122 666 
L 3122 134 
Q 2881 22 2623 -34 
Q 2366 -91 2075 -91 
Q 1284 -91 818 406 
Q 353 903 353 1747 
Q 353 2603 823 3093 
Q 1294 3584 2113 3584 
Q 2378 3584 2631 3529 
Q 2884 3475 3122 3366 
z
" transform="scale(0.015625)"/>
       <path id="DejaVuSans-68" d="M 3513 2113 
L 3513 0 
L 2938 0 
L 2938 2094 
Q 2938 2591 2744 2837 
Q 2550 3084 2163 3084 
Q 1697 3084 1428 2787 
Q 1159 2491 1159 1978 
L 1159 0 
L 581 0 
L 581 4863 
L 1159 4863 
L 1159 2956 
Q 1366 3272 1645 3428 
Q 1925 3584 2291 3584 
Q 2894 3584 3203 3211 
Q 3513 2838 3513 2113 
z
" transform="scale(0.015625)"/>
       <path id="DejaVuSans-4e" d="M 628 4666 
L 1478 4666 
L 3547 763 
L 3547 4666 
L 4159 4666 
L 4159 0 
L 3309 0 
L 1241 3903 
L 1241 0 
L 628 0 
L 628 4666 
z
" transform="scale(0.015625)"/>
       <path id="DejaVuSans-20" transform="scale(0.015625)"/>
       <path id="DejaVuSans-4d" d="M 628 4666 
L 1569 4666 
L 2759 1491 
L 3956 4666 
L 4897 4666 
L 4897 0 
L 4281 0 
L 4281 4097 
L 3078 897 
L 2444 897 
L 1241 4097 
L 1241 0 
L 628 0 
L 628 4666 
z
" transform="scale(0.015625)"/>
       <path id="DejaVuSans-45" d="M 628 4666 
L 3578 4666 
L 3578 4134 
L 1259 4134 
L 1259 2753 
L 3481 2753 
L 3481 2222 
L 1259 2222 
L 1259 531 
L 3634 531 
L 3634 0 
L 628 0 
L 628 4666 
z
" transform="scale(0.015625)"/>
       <path id="DejaVuSans-41" d="M 2188 4044 
L 1331 1722 
L 3047 1722 
L 2188 4044 
z
M 1831 4666 
L 2547 4666 
L 4325 0 
L 3669 0 
L 3244 1197 
L 1141 1197 
L 716 0 
L 50 0 
L 1831 4666 
z
" transform="scale(0.015625)"/>
      </defs>
      <use xlink:href="#DejaVuSans-53"/>
      <use xlink:href="#DejaVuSans-63" x="63.476562"/>
      <use xlink:href="#DejaVuSans-68" x="118.457031"/>
      <use xlink:href="#DejaVuSans-4e" x="181.835938"/>
      <use xlink:href="#DejaVuSans-65" x="256.640625"/>
      <use xlink:href="#DejaVuSans-74" x="318.164062"/>
      <use xlink:href="#DejaVuSans-20" x="357.373047"/>
      <use xlink:href="#DejaVuSans-4d" x="389.160156"/>
      <use xlink:href="#DejaVuSans-45" x="475.439453"/>
      <use xlink:href="#DejaVuSans-41" x="538.623047"/>
     </g>
    </g>
    <g id="line2d_98">
     <path d="M 66.6 69.248562 
L 76.6 69.248562 
L 86.6 69.248562 
" style="fill: none; stroke: #1f77b4; stroke-opacity: 0.9; stroke-width: 0.4; stroke-linecap: square"/>
    </g>
    <g id="text_16">
     <!-- SchNet eval_loss -->
     <g transform="translate(94.6 72.748562) scale(0.1 -0.1)">
      <defs>
       <path id="DejaVuSans-76" d="M 191 3500 
L 800 3500 
L 1894 563 
L 2988 3500 
L 3597 3500 
L 2284 0 
L 1503 0 
L 191 3500 
z
" transform="scale(0.015625)"/>
       <path id="DejaVuSans-61" d="M 2194 1759 
Q 1497 1759 1228 1600 
Q 959 1441 959 1056 
Q 959 750 1161 570 
Q 1363 391 1709 391 
Q 2188 391 2477 730 
Q 2766 1069 2766 1631 
L 2766 1759 
L 2194 1759 
z
M 3341 1997 
L 3341 0 
L 2766 0 
L 2766 531 
Q 2569 213 2275 61 
Q 1981 -91 1556 -91 
Q 1019 -91 701 211 
Q 384 513 384 1019 
Q 384 1609 779 1909 
Q 1175 2209 1959 2209 
L 2766 2209 
L 2766 2266 
Q 2766 2663 2505 2880 
Q 2244 3097 1772 3097 
Q 1472 3097 1187 3025 
Q 903 2953 641 2809 
L 641 3341 
Q 956 3463 1253 3523 
Q 1550 3584 1831 3584 
Q 2591 3584 2966 3190 
Q 3341 2797 3341 1997 
z
" transform="scale(0.015625)"/>
       <path id="DejaVuSans-5f" d="M 3263 -1063 
L 3263 -1509 
L -63 -1509 
L -63 -1063 
L 3263 -1063 
z
" transform="scale(0.015625)"/>
      </defs>
      <use xlink:href="#DejaVuSans-53"/>
      <use xlink:href="#DejaVuSans-63" x="63.476562"/>
      <use xlink:href="#DejaVuSans-68" x="118.457031"/>
      <use xlink:href="#DejaVuSans-4e" x="181.835938"/>
      <use xlink:href="#DejaVuSans-65" x="256.640625"/>
      <use xlink:href="#DejaVuSans-74" x="318.164062"/>
      <use xlink:href="#DejaVuSans-20" x="357.373047"/>
      <use xlink:href="#DejaVuSans-65" x="389.160156"/>
      <use xlink:href="#DejaVuSans-76" x="450.683594"/>
      <use xlink:href="#DejaVuSans-61" x="509.863281"/>
      <use xlink:href="#DejaVuSans-6c" x="571.142578"/>
      <use xlink:href="#DejaVuSans-5f" x="598.925781"/>
      <use xlink:href="#DejaVuSans-6c" x="648.925781"/>
      <use xlink:href="#DejaVuSans-6f" x="676.708984"/>
      <use xlink:href="#DejaVuSans-73" x="737.890625"/>
      <use xlink:href="#DejaVuSans-73" x="789.990234"/>
     </g>
    </g>
    <g id="line2d_99">
     <path d="M 66.6 84.204812 
L 76.6 84.204812 
L 86.6 84.204812 
" style="fill: none; stroke-dasharray: 5.55,2.4; stroke-dashoffset: 0; stroke: #ff7f0e; stroke-opacity: 0.4; stroke-width: 1.5"/>
    </g>
    <g id="text_17">
     <!-- MoGIN13 MEA -->
     <g transform="translate(94.6 87.704812) scale(0.1 -0.1)">
      <defs>
       <path id="DejaVuSans-47" d="M 3809 666 
L 3809 1919 
L 2778 1919 
L 2778 2438 
L 4434 2438 
L 4434 434 
Q 4069 175 3628 42 
Q 3188 -91 2688 -91 
Q 1594 -91 976 548 
Q 359 1188 359 2328 
Q 359 3472 976 4111 
Q 1594 4750 2688 4750 
Q 3144 4750 3555 4637 
Q 3966 4525 4313 4306 
L 4313 3634 
Q 3963 3931 3569 4081 
Q 3175 4231 2741 4231 
Q 1884 4231 1454 3753 
Q 1025 3275 1025 2328 
Q 1025 1384 1454 906 
Q 1884 428 2741 428 
Q 3075 428 3337 486 
Q 3600 544 3809 666 
z
" transform="scale(0.015625)"/>
       <path id="DejaVuSans-49" d="M 628 4666 
L 1259 4666 
L 1259 0 
L 628 0 
L 628 4666 
z
" transform="scale(0.015625)"/>
      </defs>
      <use xlink:href="#DejaVuSans-4d"/>
      <use xlink:href="#DejaVuSans-6f" x="86.279297"/>
      <use xlink:href="#DejaVuSans-47" x="147.460938"/>
      <use xlink:href="#DejaVuSans-49" x="224.951172"/>
      <use xlink:href="#DejaVuSans-4e" x="254.443359"/>
      <use xlink:href="#DejaVuSans-31" x="329.248047"/>
      <use xlink:href="#DejaVuSans-33" x="392.871094"/>
      <use xlink:href="#DejaVuSans-20" x="456.494141"/>
      <use xlink:href="#DejaVuSans-4d" x="488.28125"/>
      <use xlink:href="#DejaVuSans-45" x="574.560547"/>
      <use xlink:href="#DejaVuSans-41" x="637.744141"/>
     </g>
    </g>
    <g id="line2d_100">
     <path d="M 66.6 98.882937 
L 76.6 98.882937 
L 86.6 98.882937 
" style="fill: none; stroke: #ff7f0e; stroke-opacity: 0.9; stroke-width: 0.4; stroke-linecap: square"/>
    </g>
    <g id="text_18">
     <!-- MoGIN13 eval_loss -->
     <g transform="translate(94.6 102.382937) scale(0.1 -0.1)">
      <use xlink:href="#DejaVuSans-4d"/>
      <use xlink:href="#DejaVuSans-6f" x="86.279297"/>
      <use xlink:href="#DejaVuSans-47" x="147.460938"/>
      <use xlink:href="#DejaVuSans-49" x="224.951172"/>
      <use xlink:href="#DejaVuSans-4e" x="254.443359"/>
      <use xlink:href="#DejaVuSans-31" x="329.248047"/>
      <use xlink:href="#DejaVuSans-33" x="392.871094"/>
      <use xlink:href="#DejaVuSans-20" x="456.494141"/>
      <use xlink:href="#DejaVuSans-65" x="488.28125"/>
      <use xlink:href="#DejaVuSans-76" x="549.804688"/>
      <use xlink:href="#DejaVuSans-61" x="608.984375"/>
      <use xlink:href="#DejaVuSans-6c" x="670.263672"/>
      <use xlink:href="#DejaVuSans-5f" x="698.046875"/>
      <use xlink:href="#DejaVuSans-6c" x="748.046875"/>
      <use xlink:href="#DejaVuSans-6f" x="775.830078"/>
      <use xlink:href="#DejaVuSans-73" x="837.011719"/>
      <use xlink:href="#DejaVuSans-73" x="889.111328"/>
     </g>
    </g>
    <g id="line2d_101">
     <path d="M 66.6 113.839187 
L 76.6 113.839187 
L 86.6 113.839187 
" style="fill: none; stroke-dasharray: 5.55,2.4; stroke-dashoffset: 0; stroke: #2ca02c; stroke-opacity: 0.4; stroke-width: 1.5"/>
    </g>
    <g id="text_19">
     <!-- MoGIN11 MEA -->
     <g transform="translate(94.6 117.339187) scale(0.1 -0.1)">
      <use xlink:href="#DejaVuSans-4d"/>
      <use xlink:href="#DejaVuSans-6f" x="86.279297"/>
      <use xlink:href="#DejaVuSans-47" x="147.460938"/>
      <use xlink:href="#DejaVuSans-49" x="224.951172"/>
      <use xlink:href="#DejaVuSans-4e" x="254.443359"/>
      <use xlink:href="#DejaVuSans-31" x="329.248047"/>
      <use xlink:href="#DejaVuSans-31" x="392.871094"/>
      <use xlink:href="#DejaVuSans-20" x="456.494141"/>
      <use xlink:href="#DejaVuSans-4d" x="488.28125"/>
      <use xlink:href="#DejaVuSans-45" x="574.560547"/>
      <use xlink:href="#DejaVuSans-41" x="637.744141"/>
     </g>
    </g>
    <g id="line2d_102">
     <path d="M 66.6 128.517312 
L 76.6 128.517312 
L 86.6 128.517312 
" style="fill: none; stroke: #2ca02c; stroke-opacity: 0.9; stroke-width: 0.4; stroke-linecap: square"/>
    </g>
    <g id="text_20">
     <!-- MoGIN11 eval_loss -->
     <g transform="translate(94.6 132.017312) scale(0.1 -0.1)">
      <use xlink:href="#DejaVuSans-4d"/>
      <use xlink:href="#DejaVuSans-6f" x="86.279297"/>
      <use xlink:href="#DejaVuSans-47" x="147.460938"/>
      <use xlink:href="#DejaVuSans-49" x="224.951172"/>
      <use xlink:href="#DejaVuSans-4e" x="254.443359"/>
      <use xlink:href="#DejaVuSans-31" x="329.248047"/>
      <use xlink:href="#DejaVuSans-31" x="392.871094"/>
      <use xlink:href="#DejaVuSans-20" x="456.494141"/>
      <use xlink:href="#DejaVuSans-65" x="488.28125"/>
      <use xlink:href="#DejaVuSans-76" x="549.804688"/>
      <use xlink:href="#DejaVuSans-61" x="608.984375"/>
      <use xlink:href="#DejaVuSans-6c" x="670.263672"/>
      <use xlink:href="#DejaVuSans-5f" x="698.046875"/>
      <use xlink:href="#DejaVuSans-6c" x="748.046875"/>
      <use xlink:href="#DejaVuSans-6f" x="775.830078"/>
      <use xlink:href="#DejaVuSans-73" x="837.011719"/>
      <use xlink:href="#DejaVuSans-73" x="889.111328"/>
     </g>
    </g>
   </g>
  </g>
 </g>
 <defs>
  <clipPath id="p68289f732a">
   <rect x="57.6" y="41.472" width="357.12" height="266.112"/>
  </clipPath>
 </defs>
</svg>
