<?xml version="1.0" encoding="utf-8" standalone="no"?>
<!DOCTYPE svg PUBLIC "-//W3C//DTD SVG 1.1//EN"
  "http://www.w3.org/Graphics/SVG/1.1/DTD/svg11.dtd">
<svg xmlns:xlink="http://www.w3.org/1999/xlink" width="460.8pt" height="345.6pt" viewBox="0 0 460.8 345.6" xmlns="http://www.w3.org/2000/svg" version="1.1">
 <metadata>
  <rdf:RDF xmlns:dc="http://purl.org/dc/elements/1.1/" xmlns:cc="http://creativecommons.org/ns#" xmlns:rdf="http://www.w3.org/1999/02/22-rdf-syntax-ns#">
   <cc:Work>
    <dc:type rdf:resource="http://purl.org/dc/dcmitype/StillImage"/>
    <dc:date>2025-02-21T00:25:31.084761</dc:date>
    <dc:format>image/svg+xml</dc:format>
    <dc:creator>
     <cc:Agent>
      <dc:title>Matplotlib v3.8.4, https://matplotlib.org/</dc:title>
     </cc:Agent>
    </dc:creator>
   </cc:Work>
  </rdf:RDF>
 </metadata>
 <defs>
  <style type="text/css">*{stroke-linejoin: round; stroke-linecap: butt}</style>
 </defs>
 <g id="figure_1">
  <g id="patch_1">
   <path d="M 0 345.6 
L 460.8 345.6 
L 460.8 0 
L 0 0 
z
" style="fill: #ffffff"/>
  </g>
  <g id="axes_1">
   <g id="patch_2">
    <path d="M 57.6 307.584 
L 414.72 307.584 
L 414.72 41.472 
L 57.6 41.472 
z
" style="fill: #ffffff"/>
   </g>
   <g id="matplotlib.axis_1">
    <g id="xtick_1">
     <g id="line2d_1">
      <defs>
       <path id="mefacef41ad" d="M 0 0 
L 0 3.5 
" style="stroke: #000000; stroke-width: 0.8"/>
      </defs>
      <g>
       <use xlink:href="#mefacef41ad" x="57.6" y="307.584" style="stroke: #000000; stroke-width: 0.8"/>
      </g>
     </g>
     <g id="text_1">
      <!-- $\mathdefault{10^{3}}$ -->
      <g transform="translate(48.8 322.182437) scale(0.1 -0.1)">
       <defs>
        <path id="DejaVuSans-31" d="M 794 531 
L 1825 531 
L 1825 4091 
L 703 3866 
L 703 4441 
L 1819 4666 
L 2450 4666 
L 2450 531 
L 3481 531 
L 3481 0 
L 794 0 
L 794 531 
z
" transform="scale(0.015625)"/>
        <path id="DejaVuSans-30" d="M 2034 4250 
Q 1547 4250 1301 3770 
Q 1056 3291 1056 2328 
Q 1056 1369 1301 889 
Q 1547 409 2034 409 
Q 2525 409 2770 889 
Q 3016 1369 3016 2328 
Q 3016 3291 2770 3770 
Q 2525 4250 2034 4250 
z
M 2034 4750 
Q 2819 4750 3233 4129 
Q 3647 3509 3647 2328 
Q 3647 1150 3233 529 
Q 2819 -91 2034 -91 
Q 1250 -91 836 529 
Q 422 1150 422 2328 
Q 422 3509 836 4129 
Q 1250 4750 2034 4750 
z
" transform="scale(0.015625)"/>
        <path id="DejaVuSans-33" d="M 2597 2516 
Q 3050 2419 3304 2112 
Q 3559 1806 3559 1356 
Q 3559 666 3084 287 
Q 2609 -91 1734 -91 
Q 1441 -91 1130 -33 
Q 819 25 488 141 
L 488 750 
Q 750 597 1062 519 
Q 1375 441 1716 441 
Q 2309 441 2620 675 
Q 2931 909 2931 1356 
Q 2931 1769 2642 2001 
Q 2353 2234 1838 2234 
L 1294 2234 
L 1294 2753 
L 1863 2753 
Q 2328 2753 2575 2939 
Q 2822 3125 2822 3475 
Q 2822 3834 2567 4026 
Q 2313 4219 1838 4219 
Q 1578 4219 1281 4162 
Q 984 4106 628 3988 
L 628 4550 
Q 988 4650 1302 4700 
Q 1616 4750 1894 4750 
Q 2613 4750 3031 4423 
Q 3450 4097 3450 3541 
Q 3450 3153 3228 2886 
Q 3006 2619 2597 2516 
z
" transform="scale(0.015625)"/>
       </defs>
       <use xlink:href="#DejaVuSans-31" transform="translate(0 0.765625)"/>
       <use xlink:href="#DejaVuSans-30" transform="translate(63.623047 0.765625)"/>
       <use xlink:href="#DejaVuSans-33" transform="translate(128.203125 39.046875) scale(0.7)"/>
      </g>
     </g>
    </g>
    <g id="xtick_2">
     <g id="line2d_2">
      <g>
       <use xlink:href="#mefacef41ad" x="332.090213" y="307.584" style="stroke: #000000; stroke-width: 0.8"/>
      </g>
     </g>
     <g id="text_2">
      <!-- $\mathdefault{10^{4}}$ -->
      <g transform="translate(323.290213 322.182437) scale(0.1 -0.1)">
       <defs>
        <path id="DejaVuSans-34" d="M 2419 4116 
L 825 1625 
L 2419 1625 
L 2419 4116 
z
M 2253 4666 
L 3047 4666 
L 3047 1625 
L 3713 1625 
L 3713 1100 
L 3047 1100 
L 3047 0 
L 2419 0 
L 2419 1100 
L 313 1100 
L 313 1709 
L 2253 4666 
z
" transform="scale(0.015625)"/>
       </defs>
       <use xlink:href="#DejaVuSans-31" transform="translate(0 0.684375)"/>
       <use xlink:href="#DejaVuSans-30" transform="translate(63.623047 0.684375)"/>
       <use xlink:href="#DejaVuSans-34" transform="translate(128.203125 38.965625) scale(0.7)"/>
      </g>
     </g>
    </g>
    <g id="xtick_3">
     <g id="line2d_3">
      <defs>
       <path id="m96f8f4c0bb" d="M 0 0 
L 0 2 
" style="stroke: #000000; stroke-width: 0.6"/>
      </defs>
      <g>
       <use xlink:href="#m96f8f4c0bb" x="140.229787" y="307.584" style="stroke: #000000; stroke-width: 0.6"/>
      </g>
     </g>
    </g>
    <g id="xtick_4">
     <g id="line2d_4">
      <g>
       <use xlink:href="#m96f8f4c0bb" x="188.565115" y="307.584" style="stroke: #000000; stroke-width: 0.6"/>
      </g>
     </g>
    </g>
    <g id="xtick_5">
     <g id="line2d_5">
      <g>
       <use xlink:href="#m96f8f4c0bb" x="222.859575" y="307.584" style="stroke: #000000; stroke-width: 0.6"/>
      </g>
     </g>
    </g>
    <g id="xtick_6">
     <g id="line2d_6">
      <g>
       <use xlink:href="#m96f8f4c0bb" x="249.460425" y="307.584" style="stroke: #000000; stroke-width: 0.6"/>
      </g>
     </g>
    </g>
    <g id="xtick_7">
     <g id="line2d_7">
      <g>
       <use xlink:href="#m96f8f4c0bb" x="271.194902" y="307.584" style="stroke: #000000; stroke-width: 0.6"/>
      </g>
     </g>
    </g>
    <g id="xtick_8">
     <g id="line2d_8">
      <g>
       <use xlink:href="#m96f8f4c0bb" x="289.571141" y="307.584" style="stroke: #000000; stroke-width: 0.6"/>
      </g>
     </g>
    </g>
    <g id="xtick_9">
     <g id="line2d_9">
      <g>
       <use xlink:href="#m96f8f4c0bb" x="305.489362" y="307.584" style="stroke: #000000; stroke-width: 0.6"/>
      </g>
     </g>
    </g>
    <g id="xtick_10">
     <g id="line2d_10">
      <g>
       <use xlink:href="#m96f8f4c0bb" x="319.530229" y="307.584" style="stroke: #000000; stroke-width: 0.6"/>
      </g>
     </g>
    </g>
    <g id="xtick_11">
     <g id="line2d_11">
      <g>
       <use xlink:href="#m96f8f4c0bb" x="414.72" y="307.584" style="stroke: #000000; stroke-width: 0.6"/>
      </g>
     </g>
    </g>
    <g id="text_3">
     <!-- iter# -->
     <g transform="translate(223.488906 335.860562) scale(0.1 -0.1)">
      <defs>
       <path id="DejaVuSans-69" d="M 603 3500 
L 1178 3500 
L 1178 0 
L 603 0 
L 603 3500 
z
M 603 4863 
L 1178 4863 
L 1178 4134 
L 603 4134 
L 603 4863 
z
" transform="scale(0.015625)"/>
       <path id="DejaVuSans-74" d="M 1172 4494 
L 1172 3500 
L 2356 3500 
L 2356 3053 
L 1172 3053 
L 1172 1153 
Q 1172 725 1289 603 
Q 1406 481 1766 481 
L 2356 481 
L 2356 0 
L 1766 0 
Q 1100 0 847 248 
Q 594 497 594 1153 
L 594 3053 
L 172 3053 
L 172 3500 
L 594 3500 
L 594 4494 
L 1172 4494 
z
" transform="scale(0.015625)"/>
       <path id="DejaVuSans-65" d="M 3597 1894 
L 3597 1613 
L 953 1613 
Q 991 1019 1311 708 
Q 1631 397 2203 397 
Q 2534 397 2845 478 
Q 3156 559 3463 722 
L 3463 178 
Q 3153 47 2828 -22 
Q 2503 -91 2169 -91 
Q 1331 -91 842 396 
Q 353 884 353 1716 
Q 353 2575 817 3079 
Q 1281 3584 2069 3584 
Q 2775 3584 3186 3129 
Q 3597 2675 3597 1894 
z
M 3022 2063 
Q 3016 2534 2758 2815 
Q 2500 3097 2075 3097 
Q 1594 3097 1305 2825 
Q 1016 2553 972 2059 
L 3022 2063 
z
" transform="scale(0.015625)"/>
       <path id="DejaVuSans-72" d="M 2631 2963 
Q 2534 3019 2420 3045 
Q 2306 3072 2169 3072 
Q 1681 3072 1420 2755 
Q 1159 2438 1159 1844 
L 1159 0 
L 581 0 
L 581 3500 
L 1159 3500 
L 1159 2956 
Q 1341 3275 1631 3429 
Q 1922 3584 2338 3584 
Q 2397 3584 2469 3576 
Q 2541 3569 2628 3553 
L 2631 2963 
z
" transform="scale(0.015625)"/>
       <path id="DejaVuSans-23" d="M 3272 2816 
L 2363 2816 
L 2100 1772 
L 3016 1772 
L 3272 2816 
z
M 2803 4594 
L 2478 3297 
L 3391 3297 
L 3719 4594 
L 4219 4594 
L 3897 3297 
L 4872 3297 
L 4872 2816 
L 3775 2816 
L 3519 1772 
L 4513 1772 
L 4513 1294 
L 3397 1294 
L 3072 0 
L 2572 0 
L 2894 1294 
L 1978 1294 
L 1656 0 
L 1153 0 
L 1478 1294 
L 494 1294 
L 494 1772 
L 1594 1772 
L 1856 2816 
L 850 2816 
L 850 3297 
L 1978 3297 
L 2297 4594 
L 2803 4594 
z
" transform="scale(0.015625)"/>
      </defs>
      <use xlink:href="#DejaVuSans-69"/>
      <use xlink:href="#DejaVuSans-74" x="27.783203"/>
      <use xlink:href="#DejaVuSans-65" x="66.992188"/>
      <use xlink:href="#DejaVuSans-72" x="128.515625"/>
      <use xlink:href="#DejaVuSans-23" x="169.628906"/>
     </g>
    </g>
   </g>
   <g id="matplotlib.axis_2">
    <g id="ytick_1">
     <g id="line2d_12">
      <defs>
       <path id="mf8d7059bb6" d="M 0 0 
L -3.5 0 
" style="stroke: #000000; stroke-width: 0.8"/>
      </defs>
      <g>
       <use xlink:href="#mf8d7059bb6" x="57.6" y="245.254111" style="stroke: #000000; stroke-width: 0.8"/>
      </g>
     </g>
     <g id="text_4">
      <!-- $\mathdefault{10^{-2}}$ -->
      <g transform="translate(27.1 249.05333) scale(0.1 -0.1)">
       <defs>
        <path id="DejaVuSans-2212" d="M 678 2272 
L 4684 2272 
L 4684 1741 
L 678 1741 
L 678 2272 
z
" transform="scale(0.015625)"/>
        <path id="DejaVuSans-32" d="M 1228 531 
L 3431 531 
L 3431 0 
L 469 0 
L 469 531 
Q 828 903 1448 1529 
Q 2069 2156 2228 2338 
Q 2531 2678 2651 2914 
Q 2772 3150 2772 3378 
Q 2772 3750 2511 3984 
Q 2250 4219 1831 4219 
Q 1534 4219 1204 4116 
Q 875 4013 500 3803 
L 500 4441 
Q 881 4594 1212 4672 
Q 1544 4750 1819 4750 
Q 2544 4750 2975 4387 
Q 3406 4025 3406 3419 
Q 3406 3131 3298 2873 
Q 3191 2616 2906 2266 
Q 2828 2175 2409 1742 
Q 1991 1309 1228 531 
z
" transform="scale(0.015625)"/>
       </defs>
       <use xlink:href="#DejaVuSans-31" transform="translate(0 0.765625)"/>
       <use xlink:href="#DejaVuSans-30" transform="translate(63.623047 0.765625)"/>
       <use xlink:href="#DejaVuSans-2212" transform="translate(128.203125 39.046875) scale(0.7)"/>
       <use xlink:href="#DejaVuSans-32" transform="translate(186.855469 39.046875) scale(0.7)"/>
      </g>
     </g>
    </g>
    <g id="ytick_2">
     <g id="line2d_13">
      <g>
       <use xlink:href="#mf8d7059bb6" x="57.6" y="88.622741" style="stroke: #000000; stroke-width: 0.8"/>
      </g>
     </g>
     <g id="text_5">
      <!-- $\mathdefault{10^{-1}}$ -->
      <g transform="translate(27.1 92.421959) scale(0.1 -0.1)">
       <use xlink:href="#DejaVuSans-31" transform="translate(0 0.684375)"/>
       <use xlink:href="#DejaVuSans-30" transform="translate(63.623047 0.684375)"/>
       <use xlink:href="#DejaVuSans-2212" transform="translate(128.203125 38.965625) scale(0.7)"/>
       <use xlink:href="#DejaVuSans-31" transform="translate(186.855469 38.965625) scale(0.7)"/>
      </g>
     </g>
    </g>
    <g id="ytick_3">
     <g id="line2d_14">
      <defs>
       <path id="m0148a5e11d" d="M 0 0 
L -2 0 
" style="stroke: #000000; stroke-width: 0.6"/>
      </defs>
      <g>
       <use xlink:href="#m0148a5e11d" x="57.6" y="307.584" style="stroke: #000000; stroke-width: 0.6"/>
      </g>
     </g>
    </g>
    <g id="ytick_4">
     <g id="line2d_15">
      <g>
       <use xlink:href="#m0148a5e11d" x="57.6" y="292.404852" style="stroke: #000000; stroke-width: 0.6"/>
      </g>
     </g>
    </g>
    <g id="ytick_5">
     <g id="line2d_16">
      <g>
       <use xlink:href="#m0148a5e11d" x="57.6" y="280.002585" style="stroke: #000000; stroke-width: 0.6"/>
      </g>
     </g>
    </g>
    <g id="ytick_6">
     <g id="line2d_17">
      <g>
       <use xlink:href="#m0148a5e11d" x="57.6" y="269.516617" style="stroke: #000000; stroke-width: 0.6"/>
      </g>
     </g>
    </g>
    <g id="ytick_7">
     <g id="line2d_18">
      <g>
       <use xlink:href="#m0148a5e11d" x="57.6" y="260.433259" style="stroke: #000000; stroke-width: 0.6"/>
      </g>
     </g>
    </g>
    <g id="ytick_8">
     <g id="line2d_19">
      <g>
       <use xlink:href="#m0148a5e11d" x="57.6" y="252.42117" style="stroke: #000000; stroke-width: 0.6"/>
      </g>
     </g>
    </g>
    <g id="ytick_9">
     <g id="line2d_20">
      <g>
       <use xlink:href="#m0148a5e11d" x="57.6" y="198.10337" style="stroke: #000000; stroke-width: 0.6"/>
      </g>
     </g>
    </g>
    <g id="ytick_10">
     <g id="line2d_21">
      <g>
       <use xlink:href="#m0148a5e11d" x="57.6" y="170.521955" style="stroke: #000000; stroke-width: 0.6"/>
      </g>
     </g>
    </g>
    <g id="ytick_11">
     <g id="line2d_22">
      <g>
       <use xlink:href="#m0148a5e11d" x="57.6" y="150.95263" style="stroke: #000000; stroke-width: 0.6"/>
      </g>
     </g>
    </g>
    <g id="ytick_12">
     <g id="line2d_23">
      <g>
       <use xlink:href="#m0148a5e11d" x="57.6" y="135.773481" style="stroke: #000000; stroke-width: 0.6"/>
      </g>
     </g>
    </g>
    <g id="ytick_13">
     <g id="line2d_24">
      <g>
       <use xlink:href="#m0148a5e11d" x="57.6" y="123.371214" style="stroke: #000000; stroke-width: 0.6"/>
      </g>
     </g>
    </g>
    <g id="ytick_14">
     <g id="line2d_25">
      <g>
       <use xlink:href="#m0148a5e11d" x="57.6" y="112.885247" style="stroke: #000000; stroke-width: 0.6"/>
      </g>
     </g>
    </g>
    <g id="ytick_15">
     <g id="line2d_26">
      <g>
       <use xlink:href="#m0148a5e11d" x="57.6" y="103.801889" style="stroke: #000000; stroke-width: 0.6"/>
      </g>
     </g>
    </g>
    <g id="ytick_16">
     <g id="line2d_27">
      <g>
       <use xlink:href="#m0148a5e11d" x="57.6" y="95.789799" style="stroke: #000000; stroke-width: 0.6"/>
      </g>
     </g>
    </g>
    <g id="ytick_17">
     <g id="line2d_28">
      <g>
       <use xlink:href="#m0148a5e11d" x="57.6" y="41.472" style="stroke: #000000; stroke-width: 0.6"/>
      </g>
     </g>
    </g>
    <g id="text_6">
     <!-- loss -->
     <g transform="translate(21.020313 184.185812) rotate(-90) scale(0.1 -0.1)">
      <defs>
       <path id="DejaVuSans-6c" d="M 603 4863 
L 1178 4863 
L 1178 0 
L 603 0 
L 603 4863 
z
" transform="scale(0.015625)"/>
       <path id="DejaVuSans-6f" d="M 1959 3097 
Q 1497 3097 1228 2736 
Q 959 2375 959 1747 
Q 959 1119 1226 758 
Q 1494 397 1959 397 
Q 2419 397 2687 759 
Q 2956 1122 2956 1747 
Q 2956 2369 2687 2733 
Q 2419 3097 1959 3097 
z
M 1959 3584 
Q 2709 3584 3137 3096 
Q 3566 2609 3566 1747 
Q 3566 888 3137 398 
Q 2709 -91 1959 -91 
Q 1206 -91 779 398 
Q 353 888 353 1747 
Q 353 2609 779 3096 
Q 1206 3584 1959 3584 
z
" transform="scale(0.015625)"/>
       <path id="DejaVuSans-73" d="M 2834 3397 
L 2834 2853 
Q 2591 2978 2328 3040 
Q 2066 3103 1784 3103 
Q 1356 3103 1142 2972 
Q 928 2841 928 2578 
Q 928 2378 1081 2264 
Q 1234 2150 1697 2047 
L 1894 2003 
Q 2506 1872 2764 1633 
Q 3022 1394 3022 966 
Q 3022 478 2636 193 
Q 2250 -91 1575 -91 
Q 1294 -91 989 -36 
Q 684 19 347 128 
L 347 722 
Q 666 556 975 473 
Q 1284 391 1588 391 
Q 1994 391 2212 530 
Q 2431 669 2431 922 
Q 2431 1156 2273 1281 
Q 2116 1406 1581 1522 
L 1381 1569 
Q 847 1681 609 1914 
Q 372 2147 372 2553 
Q 372 3047 722 3315 
Q 1072 3584 1716 3584 
Q 2034 3584 2315 3537 
Q 2597 3491 2834 3397 
z
" transform="scale(0.015625)"/>
      </defs>
      <use xlink:href="#DejaVuSans-6c"/>
      <use xlink:href="#DejaVuSans-6f" x="27.783203"/>
      <use xlink:href="#DejaVuSans-73" x="88.964844"/>
      <use xlink:href="#DejaVuSans-73" x="141.064453"/>
     </g>
    </g>
   </g>
   <g id="line2d_29">
    <path d="M 69.06942 -1 
L 74.57154 3.844329 
L 81.011429 9.819423 
L 87.121183 14.863464 
L 92.933007 19.915189 
L 98.47461 24.507974 
L 103.770008 29.682424 
L 113.70342 41.534267 
L 118.376041 46.437982 
L 127.205308 57.688097 
L 135.425487 65.813556 
L 139.332346 65.078796 
L 143.115218 65.176981 
L 144.100188 67.92185 
L 147.736987 72.92526 
L 151.266113 75.18622 
L 154.693759 79.148742 
L 161.266839 88.792573 
L 164.422281 93.813853 
L 167.496349 96.180537 
L 170.493134 99.278235 
L 173.416428 101.193892 
L 176.269748 105.338993 
L 179.056366 106.779697 
L 181.77933 101.354822 
L 184.441483 96.86092 
L 187.045482 98.803568 
L 189.593813 102.829905 
L 192.088807 107.201294 
L 194.532651 110.096825 
L 196.9274 105.899525 
L 199.274988 110.242085 
L 201.577236 111.497766 
L 203.835863 107.436142 
L 206.052491 109.617218 
L 208.228653 103.489451 
L 210.365801 106.040296 
L 212.465308 102.521163 
L 214.528479 105.860405 
L 216.556548 104.275519 
L 218.550691 104.388862 
L 220.512024 109.286807 
L 222.44161 109.858796 
L 224.340458 113.190165 
L 226.209535 111.162401 
L 226.701121 115.098565 
L 230.338788 117.330881 
L 232.116824 117.106927 
L 233.86873 121.352379 
L 235.595263 109.948551 
L 237.297146 110.247354 
L 238.975074 114.49189 
L 240.629712 117.899073 
L 242.261698 118.792155 
L 243.871643 115.242273 
L 245.460135 114.871073 
L 247.027738 114.767955 
L 248.574994 118.024882 
L 251.610532 108.904025 
L 253.099799 108.268014 
L 254.57069 103.741345 
L 256.023652 108.230056 
L 257.459119 112.079117 
L 258.877506 112.375502 
L 260.279215 117.558979 
L 261.664633 121.18799 
L 263.034136 101.713616 
L 264.388083 105.735382 
L 265.726826 103.723325 
L 267.050701 108.517784 
L 268.360035 110.918488 
L 269.655144 111.430527 
L 270.936334 115.095004 
L 272.203901 114.586302 
L 273.458132 116.500761 
L 274.699303 119.337956 
L 275.026829 124.27543 
L 276.251858 128.025455 
L 277.464426 132.920765 
L 278.664785 134.487774 
L 279.853177 137.978435 
L 281.029838 133.220269 
L 282.194999 132.505603 
L 283.348882 134.137541 
L 284.491703 130.624931 
L 285.623672 132.065809 
L 286.744993 127.141073 
L 287.855865 119.80537 
L 290.047028 127.552161 
L 291.127689 129.107381 
L 292.198641 133.254677 
L 294.312107 129.998664 
L 295.354953 133.770781 
L 296.388756 133.695198 
L 297.41367 126.854832 
L 298.429847 130.521341 
L 299.437436 131.251728 
L 300.436579 127.016623 
L 301.427417 125.142145 
L 302.410088 126.753591 
L 303.384725 130.934406 
L 304.351458 119.612531 
L 305.310414 120.020694 
L 306.261717 124.466481 
L 307.205489 123.204891 
L 308.141848 123.248606 
L 309.07091 121.382606 
L 309.316479 123.384444 
L 310.236466 128.339486 
L 311.149408 128.532165 
L 312.05541 133.502122 
L 312.95458 137.447261 
L 313.847017 140.780001 
L 314.732823 133.374679 
L 315.612096 134.881003 
L 316.48493 133.735174 
L 317.351421 128.731537 
L 318.211658 130.553194 
L 319.065733 135.292862 
L 319.913731 138.677511 
L 320.755741 139.989583 
L 321.591844 143.036081 
L 322.422124 143.344349 
L 323.246662 148.248835 
L 324.065535 145.940589 
L 324.878822 146.478834 
L 325.686598 145.376341 
L 326.488937 141.730005 
L 327.285912 144.132898 
L 328.077594 142.714871 
L 328.864053 139.030641 
L 330.421575 136.777847 
L 331.192771 140.289516 
L 331.95901 142.27439 
L 332.720355 140.244813 
L 333.476868 138.97066 
L 334.228611 140.650332 
L 334.975643 144.244208 
L 335.718023 146.236253 
L 335.914443 150.9946 
L 336.651018 153.066754 
L 338.110652 159.858615 
L 339.55263 145.113295 
L 340.267131 149.304152 
L 340.977374 151.061253 
L 341.683411 154.08717 
L 342.385291 144.548967 
L 343.083063 143.858165 
L 343.776774 145.484823 
L 344.466472 147.621807 
L 345.152202 151.058546 
L 345.83401 142.822567 
L 346.511941 146.72382 
L 347.186038 151.662449 
L 347.856345 151.890615 
L 348.522904 155.386821 
L 349.185757 151.053401 
L 349.844944 143.927176 
L 350.500506 146.755447 
L 351.152483 148.873906 
L 351.800913 141.861891 
L 352.445836 146.235708 
L 353.087288 140.60549 
L 353.725307 145.274791 
L 354.991191 151.850512 
L 356.243774 158.798996 
L 356.865165 160.68601 
L 357.483333 158.033828 
L 357.646996 162.408225 
L 358.872124 170.269433 
L 359.479998 172.462778 
L 360.084788 172.051228 
L 360.686526 175.002249 
L 361.285241 175.05976 
L 361.880964 156.082412 
L 363.063554 165.673656 
L 363.650478 166.054182 
L 364.234527 168.47264 
L 364.815728 169.245655 
L 365.394109 166.596041 
L 366.542521 173.063194 
L 367.112605 171.908942 
L 368.244657 180.04146 
L 368.806678 178.366378 
L 369.366061 179.876556 
L 369.922832 177.636668 
L 370.477014 173.037395 
L 371.028632 172.521166 
L 371.577709 168.244079 
L 372.668334 172.128774 
L 373.209927 168.24591 
L 373.749071 169.995776 
L 374.285788 172.468372 
L 374.820099 176.45568 
L 375.352026 178.237452 
L 375.88159 175.737531 
L 376.548463 181.455275 
L 377.072751 182.759205 
L 377.594742 177.873216 
L 378.114458 178.236393 
L 378.631917 171.681526 
L 379.14714 174.079436 
L 379.660146 172.411535 
L 380.170954 175.432962 
L 380.679583 179.611812 
L 381.18605 182.073157 
L 381.690375 177.754866 
L 382.692668 183.217124 
L 383.190672 188.043318 
L 383.686605 184.045677 
L 384.180483 185.428429 
L 384.672323 189.396993 
L 385.162142 190.293494 
L 385.649957 165.164531 
L 386.135784 160.846958 
L 386.619639 162.595654 
L 387.101537 163.612394 
L 387.581496 163.131857 
L 388.535655 169.853685 
L 389.009886 171.214366 
L 389.482237 165.092846 
L 390.421363 174.419283 
L 390.888165 170.411733 
L 391.353147 174.018198 
L 391.816322 178.781375 
L 391.939051 183.343903 
L 392.39996 185.727081 
L 392.859094 184.832528 
L 393.316466 185.548332 
L 393.77209 182.058668 
L 394.225979 181.485739 
L 394.678146 183.744123 
L 395.128605 185.100774 
L 396.024449 192.510578 
L 396.469858 194.345824 
L 396.91361 194.610807 
L 397.355716 186.408949 
L 397.796188 187.347249 
L 398.235039 189.839458 
L 398.67228 182.272231 
L 399.541981 190.528237 
L 399.974463 195.479525 
L 400.405382 195.393962 
L 400.834749 193.880078 
L 401.262575 196.384411 
L 401.688871 190.719179 
L 402.113648 191.733649 
L 402.536917 187.465049 
L 402.958689 186.351568 
L 403.797781 194.028564 
L 405.045448 206.820693 
L 405.870029 196.25223 
L 405.979116 197.068798 
L 406.388904 193.897156 
L 407.204277 202.815397 
L 407.609881 206.25469 
L 408.01411 205.418982 
L 408.416973 206.708787 
L 408.818479 203.573621 
L 409.218638 203.387332 
L 409.617458 193.769222 
L 410.014947 189.044625 
L 410.411116 193.669306 
L 410.805973 193.86883 
L 411.199526 197.085945 
L 411.591784 193.279317 
L 411.982756 195.524381 
L 412.372449 199.688429 
L 412.760873 195.905455 
L 413.148035 197.474219 
L 413.533944 194.699894 
L 413.918608 189.725787 
L 414.302035 190.7226 
L 414.684232 184.080229 
L 415.065207 181.596467 
L 415.44497 182.443934 
L 416.57705 193.763533 
L 416.952034 190.089984 
L 417.325842 192.743745 
L 418.440284 203.801092 
L 418.538458 201.778382 
L 419.275068 210.477901 
L 419.641673 213.08431 
L 420.007155 214.285928 
L 420.371519 209.239579 
L 420.734772 198.370284 
L 421.096923 202.100457 
L 421.457976 202.068199 
L 421.817939 206.85907 
L 422.176819 204.498606 
L 422.534621 198.004731 
L 422.891353 201.188869 
L 423.24702 194.432599 
L 424.659172 207.440019 
L 425.009611 205.483496 
L 425.707415 213.443741 
L 426.054791 216.33418 
L 426.401157 214.364629 
L 426.746521 211.202078 
L 427.090886 212.387553 
L 427.776647 216.359427 
L 428.118054 214.223773 
L 428.458486 210.819036 
L 428.797948 213.442533 
L 429.136447 213.282328 
L 429.473987 210.439894 
L 429.810574 211.654667 
L 429.89982 214.839881 
L 430.235209 207.331914 
L 430.903169 215.537798 
L 431.23575 213.703586 
L 431.898142 218.810848 
L 432.227963 210.252848 
L 432.556874 212.488374 
L 433.211986 221.048938 
L 433.538197 221.0377 
L 434.187952 225.467832 
L 434.511507 224.619348 
L 434.834186 221.700962 
L 435.155994 224.361826 
L 435.476935 225.621221 
L 435.797015 228.390248 
L 436.116237 221.912532 
L 436.434607 221.117359 
L 436.752129 225.134246 
L 437.068808 221.86742 
L 437.699652 228.0135 
L 438.013827 226.050264 
L 438.327175 224.926903 
L 438.639703 211.769827 
L 438.951413 212.325883 
L 439.26231 210.894426 
L 439.572399 215.716033 
L 439.881683 217.724794 
L 440.190166 216.460774 
L 440.271973 218.071499 
L 440.57945 221.328598 
L 440.886136 217.25722 
L 441.192034 221.487623 
L 441.49715 222.798161 
L 441.801487 219.604882 
L 442.105048 220.125574 
L 442.407839 207.806538 
L 442.709863 209.599277 
L 443.011123 210.487451 
L 443.311624 205.705412 
L 443.611369 207.152815 
L 443.910363 211.538584 
L 444.208608 213.191329 
L 444.506109 208.496024 
L 444.80287 198.241927 
L 445.098893 201.324461 
L 445.394184 206.17567 
L 445.688745 207.869701 
L 445.982579 211.170119 
L 446.275691 216.101643 
L 446.568085 219.045267 
L 446.859763 208.878167 
L 447.150728 208.780029 
L 447.440986 208.330408 
L 447.730538 204.475387 
L 448.019389 209.375533 
L 448.307542 207.308827 
L 448.595 208.907212 
L 449.737949 226.081071 
L 449.813461 222.351963 
L 450.663002 232.833383 
L 450.944843 231.971272 
L 451.506532 222.240345 
L 451.786387 226.899186 
L 452.622033 219.560083 
L 453.451862 231.667594 
L 453.727192 228.592786 
L 454.8222 242.589175 
L 455.365955 235.449288 
L 455.636906 238.507937 
L 455.907241 236.907576 
L 456.176965 220.633112 
L 456.446081 221.449925 
L 456.982495 228.260965 
L 457.2498 218.881017 
L 457.516507 217.641694 
L 457.782619 209.195392 
L 458.577407 219.028688 
L 458.647525 223.310752 
L 459.174146 230.659378 
L 459.436587 228.444024 
L 459.698451 229.85218 
L 459.959741 230.404693 
L 460.740194 238.437004 
L 460.999213 237.800752 
L 461.257671 231.877373 
L 461.515569 235.170829 
L 461.772911 239.882839 
L 461.8 239.831314 
" clip-path="url(#pd347f6edfd)" style="fill: none; stroke: #1f77b4; stroke-opacity: 0.4; stroke-linecap: square"/>
   </g>
   <g id="line2d_30">
    <path d="M -1 46.656544 
L 4.584419 43.301246 
L 15.929398 44.880023 
L 26.287897 48.396702 
L 35.81783 55.642144 
L 44.641988 62.69234 
L 52.857739 64.099053 
L 60.543596 60.123052 
L 67.763791 65.440808 
L 74.57154 69.720206 
L 81.011429 73.395896 
L 92.933007 84.974474 
L 98.47461 88.051599 
L 103.770008 89.456332 
L 108.84015 91.921587 
L 113.70342 96.978852 
L 118.376041 102.039694 
L 122.872398 105.261769 
L 127.205308 98.397846 
L 131.386237 101.902356 
L 135.425487 103.881158 
L 139.332346 105.172339 
L 143.115218 108.739299 
L 144.100188 110.351051 
L 147.736987 114.211176 
L 151.266113 118.61955 
L 154.693759 119.455683 
L 158.025597 118.708195 
L 161.266839 123.120724 
L 164.422281 122.691629 
L 167.496349 126.5847 
L 170.493134 125.898123 
L 173.416428 128.918559 
L 176.269748 128.605002 
L 179.056366 128.893973 
L 181.77933 131.409689 
L 184.441483 126.521586 
L 187.045482 130.138406 
L 192.088807 137.819627 
L 194.532651 137.44629 
L 196.9274 140.195482 
L 199.274988 140.921904 
L 201.577236 143.335655 
L 203.835863 144.991551 
L 206.052491 147.05507 
L 208.228653 150.681215 
L 210.365801 152.06277 
L 212.465308 154.120455 
L 214.528479 154.574478 
L 216.556548 157.417834 
L 218.550691 159.895887 
L 220.512024 155.750155 
L 222.44161 150.870887 
L 224.340458 154.696925 
L 226.209535 155.512713 
L 226.701121 145.59503 
L 228.533829 139.483025 
L 230.338788 142.580223 
L 232.116824 144.629379 
L 233.86873 147.191925 
L 235.595263 151.270487 
L 237.297146 148.610621 
L 238.975074 142.928108 
L 242.261698 149.588422 
L 243.871643 152.943072 
L 245.460135 150.007334 
L 247.027738 139.893382 
L 248.574994 140.077613 
L 250.102425 143.262216 
L 251.610532 146.989196 
L 253.099799 149.635835 
L 254.57069 153.69801 
L 256.023652 149.823344 
L 257.459119 151.607683 
L 258.877506 153.879292 
L 260.279215 151.141009 
L 261.664633 146.649072 
L 263.034136 148.198222 
L 264.388083 152.349436 
L 265.726826 156.017057 
L 267.050701 160.292344 
L 268.360035 163.661333 
L 269.655144 158.834005 
L 270.936334 148.865031 
L 272.203901 152.833078 
L 273.458132 151.003292 
L 274.699303 153.949253 
L 275.026829 156.722016 
L 276.251858 152.710092 
L 277.464426 152.90287 
L 279.853177 160.732671 
L 282.194999 168.508303 
L 283.348882 169.877962 
L 284.491703 164.713145 
L 285.623672 166.014117 
L 286.744993 167.633123 
L 287.855865 170.894573 
L 288.956481 173.598873 
L 290.047028 169.072526 
L 291.127689 168.777881 
L 292.198641 168.886148 
L 293.260058 167.38159 
L 294.312107 170.251928 
L 295.354953 174.100333 
L 296.388756 177.471882 
L 297.41367 170.152859 
L 298.429847 161.254639 
L 299.437436 165.019276 
L 302.410088 173.152846 
L 303.384725 176.450387 
L 305.310414 174.696634 
L 306.261717 167.528793 
L 307.205489 165.566296 
L 308.141848 168.004878 
L 309.07091 168.248841 
L 309.316479 169.401486 
L 310.236466 167.658994 
L 311.149408 157.812519 
L 312.95458 164.489118 
L 313.847017 160.657578 
L 314.732823 159.612025 
L 315.612096 160.444441 
L 316.48493 161.055567 
L 317.351421 163.647279 
L 318.211658 163.672914 
L 319.065733 162.266946 
L 319.913731 162.943741 
L 320.755741 163.957004 
L 321.591844 166.505847 
L 322.422124 162.671541 
L 323.246662 166.443372 
L 324.065535 169.310931 
L 324.878822 167.738484 
L 325.686598 170.61408 
L 326.488937 173.990028 
L 327.285912 173.647061 
L 328.077594 171.149252 
L 328.864053 165.157692 
L 329.645358 169.169732 
L 330.421575 172.051597 
L 331.192771 167.934015 
L 331.95901 171.854893 
L 332.720355 173.51237 
L 333.476868 172.481986 
L 334.228611 175.062839 
L 334.975643 170.815407 
L 335.718023 173.109459 
L 335.914443 175.628424 
L 336.651018 178.888796 
L 337.383069 170.922014 
L 338.110652 169.9642 
L 338.833821 171.380555 
L 339.55263 175.284054 
L 340.267131 171.523661 
L 340.977374 174.805744 
L 341.683411 176.181302 
L 342.385291 179.840748 
L 343.083063 176.501323 
L 344.466472 183.337856 
L 345.152202 182.958765 
L 345.83401 184.247859 
L 346.511941 187.688085 
L 347.186038 190.425 
L 347.856345 180.374639 
L 348.522904 176.126284 
L 349.185757 173.975647 
L 349.844944 174.529484 
L 350.500506 168.409809 
L 351.152483 170.823051 
L 351.800913 168.132365 
L 352.445836 172.068913 
L 353.087288 173.441885 
L 353.725307 171.449407 
L 354.359929 173.821119 
L 354.991191 175.480221 
L 355.619128 171.460004 
L 356.865165 178.175915 
L 357.483333 179.120168 
L 357.646996 179.95786 
L 358.261134 178.576774 
L 358.872124 182.450461 
L 359.479998 184.106888 
L 360.084788 180.573118 
L 360.686526 183.843316 
L 361.285241 182.53007 
L 361.880964 184.95046 
L 362.473726 186.831766 
L 363.063554 188.327713 
L 364.234527 185.883609 
L 364.815728 179.807148 
L 365.394109 176.129506 
L 365.969698 179.131292 
L 366.542521 179.414859 
L 367.112605 181.528392 
L 368.244657 187.565613 
L 368.806678 188.067537 
L 369.922832 193.785281 
L 370.477014 197.077294 
L 371.028632 192.639525 
L 372.124269 198.411611 
L 372.668334 193.086726 
L 373.209927 195.531744 
L 373.749071 196.529963 
L 374.285788 198.005207 
L 374.820099 188.812921 
L 375.352026 184.580004 
L 375.88159 187.95093 
L 376.02186 190.284692 
L 376.548463 192.473938 
L 377.072751 190.786439 
L 377.594742 190.33054 
L 378.114458 185.039195 
L 378.631917 184.875381 
L 379.14714 186.571756 
L 379.660146 190.05194 
L 380.679583 194.978762 
L 381.18605 185.281376 
L 381.690375 188.081479 
L 382.192575 182.169464 
L 382.692668 184.550193 
L 383.190672 186.367446 
L 383.686605 189.926258 
L 384.180483 192.148298 
L 384.672323 194.914594 
L 385.162142 195.71171 
L 385.649957 197.142775 
L 386.135784 200.25186 
L 386.619639 197.229946 
L 388.05953 201.793664 
L 388.535655 197.529319 
L 389.009886 200.708786 
L 389.482237 203.081585 
L 389.952725 198.225523 
L 390.421363 198.646646 
L 390.888165 196.994025 
L 391.816322 202.583406 
L 391.939051 197.699303 
L 392.39996 197.525881 
L 392.859094 198.959433 
L 393.316466 185.227918 
L 393.77209 187.181678 
L 394.225979 190.245282 
L 394.678146 189.693163 
L 395.128605 193.201662 
L 395.577368 194.716722 
L 396.024449 192.320053 
L 396.469858 195.831098 
L 397.355716 200.430761 
L 398.235039 204.901179 
L 398.67228 199.789549 
L 399.974463 208.151604 
L 400.405382 208.079425 
L 400.834749 202.982769 
L 401.262575 202.022086 
L 401.688871 195.461552 
L 402.113648 192.387581 
L 402.536917 185.179913 
L 402.958689 185.575872 
L 403.378973 180.653578 
L 403.797781 182.365679 
L 404.215122 186.428542 
L 404.631008 188.301779 
L 405.045448 192.045008 
L 405.458451 193.975566 
L 405.870029 190.888022 
L 405.979116 193.606668 
L 406.388904 192.022941 
L 406.797287 195.623085 
L 407.204277 194.362266 
L 407.609881 196.545206 
L 408.01411 191.375424 
L 408.416973 192.56511 
L 408.818479 195.089392 
L 409.218638 198.898207 
L 409.617458 197.905651 
L 410.014947 198.135365 
L 410.411116 201.435538 
L 410.805973 201.695126 
L 411.199526 197.549145 
L 411.982756 203.744033 
L 412.372449 203.353273 
L 412.760873 205.944327 
L 413.148035 193.355813 
L 413.918608 199.983403 
L 414.302035 199.651141 
L 414.684232 203.252196 
L 415.065207 198.215628 
L 415.44497 194.85533 
L 416.57705 205.245895 
L 416.952034 196.682097 
L 417.325842 200.184052 
L 417.698482 201.92887 
L 418.440284 207.94585 
L 418.538458 200.73041 
L 419.275068 206.272379 
L 419.641673 206.796864 
L 420.007155 207.7435 
L 420.371519 210.299626 
L 420.734772 207.124779 
L 421.457976 214.168227 
L 421.817939 212.40631 
L 422.534621 215.785206 
L 422.891353 218.592278 
L 423.24702 212.617228 
L 423.601629 215.40085 
L 423.955187 217.16265 
L 424.307699 213.037933 
L 424.659172 212.118968 
L 425.009611 214.565396 
L 425.359024 211.408192 
L 425.707415 211.617056 
L 426.054791 214.323028 
L 426.401157 216.050747 
L 427.090886 212.701339 
L 427.43426 213.682324 
L 428.458486 218.0885 
L 428.797948 220.703566 
L 429.136447 222.40235 
L 429.810574 223.457768 
L 429.89982 220.313424 
L 430.235209 219.640754 
L 430.569657 221.083783 
L 430.903169 218.334303 
L 431.23575 221.217723 
L 431.567406 216.031131 
L 431.898142 217.941363 
L 432.227963 219.178502 
L 432.556874 213.387839 
L 432.88488 211.011998 
L 433.211986 210.588624 
L 434.187952 218.252551 
L 434.511507 213.831528 
L 434.834186 216.411081 
L 435.155994 208.710052 
L 435.476935 207.643719 
L 435.797015 209.169983 
L 436.434607 213.488756 
L 436.752129 213.877783 
L 437.068808 217.276018 
L 438.327175 225.421714 
L 438.639703 224.856889 
L 439.26231 228.638417 
L 439.572399 224.977801 
L 439.881683 226.794671 
L 440.271973 231.123387 
L 440.57945 229.545233 
L 440.886136 230.645682 
L 441.192034 227.95669 
L 441.49715 222.604249 
L 441.801487 223.532364 
L 442.407839 224.337274 
L 443.011123 228.3088 
L 443.611369 234.261052 
L 443.910363 236.017942 
L 444.208608 235.917531 
L 444.506109 226.952223 
L 444.80287 229.264661 
L 445.098893 230.608031 
L 445.394184 229.007846 
L 445.688745 231.039438 
L 445.982579 230.682131 
L 446.275691 231.642417 
L 446.568085 231.684996 
L 446.859763 232.586647 
L 447.150728 229.252143 
L 447.730538 233.196334 
L 448.019389 232.993194 
L 448.307542 235.041521 
L 448.595 232.535205 
L 448.881766 233.811962 
L 449.167844 226.062136 
L 449.737949 231.31638 
L 449.813461 233.887836 
L 450.097315 230.563894 
L 450.380494 228.842972 
L 450.944843 231.093473 
L 451.506532 235.607567 
L 451.786387 231.125551 
L 452.065587 232.377029 
L 452.344135 231.013675 
L 453.451862 239.099644 
L 453.727192 238.818631 
L 454.001889 240.467967 
L 454.275954 241.374768 
L 454.54939 237.352738 
L 455.094388 242.17096 
L 455.365955 232.311919 
L 455.907241 235.876695 
L 456.176965 237.40004 
L 456.446081 230.227803 
L 456.71459 232.958834 
L 456.982495 230.544053 
L 457.2498 233.082819 
L 457.516507 232.707379 
L 457.782619 234.214777 
L 458.048137 232.259447 
L 458.577407 234.247245 
L 458.647525 236.86343 
L 458.911126 237.864758 
L 459.174146 240.359898 
L 459.436587 241.417725 
L 459.698451 243.109237 
L 459.959741 242.056085 
L 460.22046 229.755729 
L 460.48061 225.801795 
L 460.740194 228.343282 
L 460.999213 223.836833 
L 461.8 231.968492 
L 461.8 231.968492 
" clip-path="url(#pd347f6edfd)" style="fill: none; stroke: #ff7f0e; stroke-opacity: 0.4; stroke-linecap: square"/>
   </g>
   <g id="line2d_31">
    <path d="M -1 47.501665 
L 4.584419 51.279068 
L 15.929398 52.836635 
L 35.81783 67.046137 
L 60.543596 85.515465 
L 67.763791 86.543274 
L 74.57154 89.675753 
L 81.011429 95.015654 
L 87.121183 97.227226 
L 92.933007 99.81386 
L 98.47461 103.293925 
L 103.770008 107.623167 
L 108.84015 105.672024 
L 113.70342 108.375384 
L 118.376041 108.43477 
L 122.872398 110.710102 
L 127.205308 114.619984 
L 131.386237 111.397515 
L 135.425487 116.150403 
L 139.332346 114.969121 
L 143.115218 117.090423 
L 144.100188 121.143613 
L 147.736987 124.409044 
L 151.266113 128.732084 
L 154.693759 130.245952 
L 158.025597 124.60527 
L 161.266839 125.897168 
L 164.422281 129.253874 
L 167.496349 129.297592 
L 170.493134 132.609565 
L 173.416428 124.58657 
L 176.269748 128.501481 
L 179.056366 129.009769 
L 184.441483 136.440652 
L 187.045482 138.874524 
L 189.593813 136.006619 
L 192.088807 135.623122 
L 199.274988 145.394039 
L 201.577236 148.39398 
L 203.835863 150.975443 
L 206.052491 152.335983 
L 208.228653 156.111755 
L 212.465308 160.892804 
L 214.528479 159.829988 
L 218.550691 164.946353 
L 220.512024 165.999142 
L 222.44161 164.094534 
L 224.340458 158.758903 
L 226.209535 159.638715 
L 226.701121 162.062017 
L 228.533829 162.246818 
L 230.338788 164.856703 
L 232.116824 167.933766 
L 233.86873 167.745344 
L 235.595263 166.083388 
L 237.297146 168.73758 
L 238.975074 170.163624 
L 240.629712 172.735994 
L 242.261698 174.910376 
L 243.871643 175.810711 
L 245.460135 158.790105 
L 248.574994 148.530019 
L 251.610532 153.711587 
L 253.099799 152.998564 
L 254.57069 148.7748 
L 256.023652 152.001678 
L 257.459119 154.303745 
L 258.877506 154.279733 
L 260.279215 156.758603 
L 261.664633 158.651829 
L 263.034136 157.263915 
L 264.388083 161.153921 
L 265.726826 156.925981 
L 267.050701 158.816011 
L 268.360035 162.444765 
L 269.655144 161.078297 
L 270.936334 161.499271 
L 272.203901 164.76965 
L 273.458132 163.451053 
L 274.699303 164.914632 
L 275.026829 166.837419 
L 276.251858 160.483204 
L 277.464426 159.96986 
L 278.664785 155.073473 
L 281.029838 158.779066 
L 282.194999 146.782452 
L 283.348882 150.774045 
L 284.491703 149.527963 
L 285.623672 152.396516 
L 286.744993 156.240926 
L 287.855865 153.898793 
L 288.956481 157.199475 
L 290.047028 153.447473 
L 291.127689 156.4478 
L 292.198641 159.765489 
L 293.260058 160.335887 
L 295.354953 165.209716 
L 296.388756 168.790716 
L 297.41367 171.817118 
L 298.429847 167.069878 
L 300.436579 169.762723 
L 301.427417 168.13458 
L 302.410088 161.268406 
L 303.384725 164.677348 
L 304.351458 165.650738 
L 305.310414 169.336956 
L 306.261717 171.767194 
L 307.205489 165.115534 
L 308.141848 168.632896 
L 309.316479 163.532985 
L 310.236466 167.510515 
L 311.149408 165.044328 
L 312.95458 172.903189 
L 313.847017 175.906728 
L 314.732823 170.552948 
L 315.612096 166.586146 
L 316.48493 168.705775 
L 317.351421 172.609512 
L 318.211658 174.862117 
L 319.065733 171.822964 
L 319.913731 170.770764 
L 320.755741 167.963547 
L 321.591844 170.75088 
L 322.422124 172.814618 
L 323.246662 173.733416 
L 324.065535 175.142269 
L 324.878822 176.287898 
L 325.686598 180.033174 
L 326.488937 177.475012 
L 327.285912 181.07813 
L 328.077594 183.761459 
L 328.864053 185.782509 
L 329.645358 183.733193 
L 330.421575 186.740553 
L 331.192771 185.892714 
L 331.95901 188.339289 
L 332.720355 189.606424 
L 333.476868 185.304279 
L 334.228611 175.610173 
L 334.975643 174.874299 
L 335.718023 178.495044 
L 335.914443 174.322853 
L 336.651018 176.363329 
L 337.383069 174.86571 
L 338.110652 177.470158 
L 338.833821 177.965944 
L 339.55263 179.218965 
L 340.267131 181.714637 
L 340.977374 183.141043 
L 341.683411 181.628479 
L 343.083063 188.407693 
L 343.776774 186.516492 
L 345.152202 192.610634 
L 345.83401 194.8708 
L 346.511941 194.582818 
L 347.186038 196.65596 
L 347.856345 182.479028 
L 348.522904 184.063997 
L 349.185757 180.418645 
L 349.844944 180.109116 
L 350.500506 182.993292 
L 351.152483 179.494654 
L 351.800913 177.867307 
L 352.445836 170.130443 
L 353.725307 178.243203 
L 354.359929 170.374584 
L 354.991191 171.577104 
L 355.619128 174.299884 
L 356.243774 174.453785 
L 357.483333 180.441508 
L 357.646996 180.21589 
L 358.261134 179.749289 
L 358.872124 181.305397 
L 359.479998 184.000459 
L 360.084788 186.169871 
L 360.686526 186.428765 
L 361.880964 192.889928 
L 362.473726 182.284449 
L 363.063554 183.444989 
L 363.650478 180.171244 
L 364.234527 175.700012 
L 364.815728 178.768889 
L 365.394109 174.961185 
L 365.969698 173.034689 
L 366.542521 169.497266 
L 367.112605 172.542138 
L 367.679975 174.772552 
L 368.244657 172.665206 
L 368.806678 176.321333 
L 369.366061 178.981506 
L 370.477014 186.755629 
L 371.028632 185.914382 
L 371.577709 180.695278 
L 372.124269 184.077172 
L 372.668334 188.22592 
L 373.209927 189.225748 
L 373.749071 188.085161 
L 374.285788 190.910434 
L 375.352026 169.174472 
L 375.88159 171.896175 
L 376.02186 171.00148 
L 376.548463 171.872523 
L 377.072751 175.95052 
L 377.594742 178.854665 
L 378.631917 186.843299 
L 379.14714 184.905805 
L 379.660146 185.646896 
L 380.170954 189.148384 
L 380.679583 191.710245 
L 381.18605 183.745784 
L 381.690375 186.790034 
L 382.192575 188.703978 
L 382.692668 188.785265 
L 383.190672 186.981481 
L 383.686605 185.962453 
L 384.180483 187.393041 
L 384.672323 184.213806 
L 385.162142 185.973483 
L 385.649957 184.309132 
L 386.135784 183.445678 
L 386.619639 186.974171 
L 387.101537 187.962515 
L 387.581496 192.130038 
L 388.05953 191.116762 
L 388.535655 194.702374 
L 389.009886 195.581972 
L 389.952725 201.200648 
L 390.421363 198.304766 
L 391.353147 205.696358 
L 391.816322 205.474762 
L 391.939051 208.698094 
L 392.859094 214.448092 
L 393.316466 208.989611 
L 393.77209 210.235552 
L 394.225979 213.033401 
L 394.678146 212.173596 
L 395.128605 206.755439 
L 395.577368 206.236274 
L 396.024449 209.099599 
L 396.91361 212.284012 
L 397.355716 210.458031 
L 399.107924 220.79228 
L 399.541981 221.930949 
L 399.974463 220.232952 
L 400.405382 220.937409 
L 400.834749 221.053906 
L 401.262575 224.002926 
L 401.688871 224.360807 
L 402.113648 222.03466 
L 402.536917 223.766476 
L 402.958689 224.768219 
L 403.378973 220.996311 
L 403.797781 223.161759 
L 404.215122 224.066686 
L 404.631008 217.694599 
L 405.045448 218.822858 
L 405.458451 222.155807 
L 405.870029 219.410189 
L 405.979116 219.659917 
L 406.388904 218.734174 
L 406.797287 212.982411 
L 407.204277 215.347885 
L 407.609881 218.799844 
L 408.01411 220.032897 
L 408.416973 219.4274 
L 408.818479 215.550178 
L 409.218638 210.160294 
L 409.617458 206.535851 
L 410.014947 210.555647 
L 410.411116 210.733929 
L 410.805973 196.177424 
L 411.199526 195.576474 
L 411.591784 199.699631 
L 411.982756 197.208348 
L 412.372449 198.112509 
L 413.148035 205.752517 
L 413.533944 199.623623 
L 413.918608 203.861643 
L 414.302035 200.26552 
L 415.065207 207.743824 
L 415.44497 208.111048 
L 415.823526 208.250413 
L 416.200883 205.372378 
L 417.325842 214.630651 
L 417.698482 216.465539 
L 418.06996 219.270532 
L 418.440284 218.220849 
L 418.538458 216.056951 
L 418.907332 217.46567 
L 419.275068 217.939255 
L 419.641673 213.713872 
L 420.007155 214.751663 
L 420.371519 218.497738 
L 420.734772 220.889419 
L 421.096923 222.331066 
L 421.457976 221.551745 
L 421.817939 221.750891 
L 422.534621 228.145862 
L 422.891353 230.413448 
L 423.24702 231.698913 
L 423.601629 234.173359 
L 423.955187 225.969989 
L 424.307699 225.37201 
L 424.659172 222.854669 
L 425.009611 222.853707 
L 425.707415 228.647443 
L 426.401157 232.083611 
L 426.746521 234.826952 
L 427.090886 234.786191 
L 427.43426 235.272793 
L 427.776647 237.000471 
L 428.118054 239.31172 
L 428.458486 240.705492 
L 428.797948 239.481973 
L 429.473987 235.176145 
L 429.810574 235.705438 
L 429.89982 223.945275 
L 430.235209 227.361061 
L 430.569657 223.513583 
L 430.903169 226.433279 
L 431.23575 226.027894 
L 431.567406 229.611253 
L 431.898142 230.817565 
L 432.227963 227.146301 
L 432.556874 229.785402 
L 432.88488 230.390202 
L 433.211986 223.329341 
L 433.538197 224.42032 
L 434.511507 232.931865 
L 434.834186 231.498827 
L 435.155994 231.315499 
L 435.476935 233.916525 
L 435.797015 216.802307 
L 436.116237 218.907199 
L 436.752129 225.717139 
L 437.068808 225.394593 
L 437.384647 228.55734 
L 437.699652 227.229614 
L 438.013827 229.558257 
L 438.327175 229.14226 
L 438.639703 231.661509 
L 438.951413 228.232828 
L 439.572399 218.050437 
L 440.190166 225.201163 
L 440.271973 225.782074 
L 440.886136 233.023863 
L 441.49715 229.847554 
L 441.801487 230.663918 
L 442.105048 229.803724 
L 442.407839 231.1328 
L 442.709863 231.879766 
L 443.011123 234.488441 
L 443.311624 234.733928 
L 444.208608 241.281127 
L 444.506109 241.423687 
L 444.80287 243.508205 
L 445.098893 239.093513 
L 445.394184 237.662379 
L 445.688745 239.599211 
L 445.982579 234.515159 
L 446.568085 239.124909 
L 446.859763 242.477146 
L 447.150728 242.086633 
L 447.440986 243.194965 
L 447.730538 236.211519 
L 448.307542 238.018867 
L 448.595 236.214588 
L 448.881766 232.06873 
L 449.167844 233.95747 
L 449.453237 233.471714 
L 449.813461 236.591194 
L 450.663002 247.066705 
L 451.226018 251.372486 
L 451.506532 252.564086 
L 451.786387 250.061721 
L 452.065587 251.188633 
L 452.344135 249.326149 
L 453.451862 256.060589 
L 454.001889 260.039501 
L 454.275954 257.366239 
L 454.8222 262.499918 
L 455.365955 255.218611 
L 456.176965 262.623805 
L 456.446081 263.039769 
L 456.71459 264.408099 
L 456.982495 261.491435 
L 457.2498 254.172807 
L 457.516507 256.552388 
L 457.782619 251.247725 
L 458.048137 252.418307 
L 458.313066 250.325714 
L 458.577407 250.589495 
L 458.647525 240.796666 
L 458.911126 243.979791 
L 459.174146 244.430499 
L 459.436587 247.4262 
L 459.698451 247.10303 
L 459.959741 250.546518 
L 460.48061 251.891791 
L 460.740194 244.81615 
L 460.999213 247.044753 
L 461.257671 250.234927 
L 461.515569 251.991601 
L 461.8 254.832568 
L 461.8 254.832568 
" clip-path="url(#pd347f6edfd)" style="fill: none; stroke: #2ca02c; stroke-opacity: 0.4; stroke-linecap: square"/>
   </g>
   <g id="patch_3">
    <path d="M 57.6 307.584 
L 57.6 41.472 
" style="fill: none; stroke: #000000; stroke-width: 0.8; stroke-linejoin: miter; stroke-linecap: square"/>
   </g>
   <g id="patch_4">
    <path d="M 414.72 307.584 
L 414.72 41.472 
" style="fill: none; stroke: #000000; stroke-width: 0.8; stroke-linejoin: miter; stroke-linecap: square"/>
   </g>
   <g id="patch_5">
    <path d="M 57.6 307.584 
L 414.72 307.584 
" style="fill: none; stroke: #000000; stroke-width: 0.8; stroke-linejoin: miter; stroke-linecap: square"/>
   </g>
   <g id="patch_6">
    <path d="M 57.6 41.472 
L 414.72 41.472 
" style="fill: none; stroke: #000000; stroke-width: 0.8; stroke-linejoin: miter; stroke-linecap: square"/>
   </g>
   <g id="text_7">
    <!-- 2025-02-21-00:25:31 -->
    <g transform="translate(172.178438 35.472) scale(0.12 -0.12)">
     <defs>
      <path id="DejaVuSans-35" d="M 691 4666 
L 3169 4666 
L 3169 4134 
L 1269 4134 
L 1269 2991 
Q 1406 3038 1543 3061 
Q 1681 3084 1819 3084 
Q 2600 3084 3056 2656 
Q 3513 2228 3513 1497 
Q 3513 744 3044 326 
Q 2575 -91 1722 -91 
Q 1428 -91 1123 -41 
Q 819 9 494 109 
L 494 744 
Q 775 591 1075 516 
Q 1375 441 1709 441 
Q 2250 441 2565 725 
Q 2881 1009 2881 1497 
Q 2881 1984 2565 2268 
Q 2250 2553 1709 2553 
Q 1456 2553 1204 2497 
Q 953 2441 691 2322 
L 691 4666 
z
" transform="scale(0.015625)"/>
      <path id="DejaVuSans-2d" d="M 313 2009 
L 1997 2009 
L 1997 1497 
L 313 1497 
L 313 2009 
z
" transform="scale(0.015625)"/>
      <path id="DejaVuSans-3a" d="M 750 794 
L 1409 794 
L 1409 0 
L 750 0 
L 750 794 
z
M 750 3309 
L 1409 3309 
L 1409 2516 
L 750 2516 
L 750 3309 
z
" transform="scale(0.015625)"/>
     </defs>
     <use xlink:href="#DejaVuSans-32"/>
     <use xlink:href="#DejaVuSans-30" x="63.623047"/>
     <use xlink:href="#DejaVuSans-32" x="127.246094"/>
     <use xlink:href="#DejaVuSans-35" x="190.869141"/>
     <use xlink:href="#DejaVuSans-2d" x="254.492188"/>
     <use xlink:href="#DejaVuSans-30" x="290.576172"/>
     <use xlink:href="#DejaVuSans-32" x="354.199219"/>
     <use xlink:href="#DejaVuSans-2d" x="417.822266"/>
     <use xlink:href="#DejaVuSans-32" x="453.90625"/>
     <use xlink:href="#DejaVuSans-31" x="517.529297"/>
     <use xlink:href="#DejaVuSans-2d" x="581.152344"/>
     <use xlink:href="#DejaVuSans-30" x="617.236328"/>
     <use xlink:href="#DejaVuSans-30" x="680.859375"/>
     <use xlink:href="#DejaVuSans-3a" x="744.482422"/>
     <use xlink:href="#DejaVuSans-32" x="778.173828"/>
     <use xlink:href="#DejaVuSans-35" x="841.796875"/>
     <use xlink:href="#DejaVuSans-3a" x="905.419922"/>
     <use xlink:href="#DejaVuSans-33" x="939.111328"/>
     <use xlink:href="#DejaVuSans-31" x="1002.734375"/>
    </g>
   </g>
   <g id="legend_1">
    <g id="patch_7">
     <path d="M 281.596563 94.34075 
L 407.72 94.34075 
Q 409.72 94.34075 409.72 92.34075 
L 409.72 48.472 
Q 409.72 46.472 407.72 46.472 
L 281.596563 46.472 
Q 279.596563 46.472 279.596563 48.472 
L 279.596563 92.34075 
Q 279.596563 94.34075 281.596563 94.34075 
z
" style="fill: #ffffff; opacity: 0.8; stroke: #cccccc; stroke-linejoin: miter"/>
    </g>
    <g id="line2d_32">
     <path d="M 283.596563 54.570438 
L 293.596563 54.570438 
L 303.596563 54.570438 
" style="fill: none; stroke: #1f77b4; stroke-opacity: 0.4; stroke-linecap: square"/>
    </g>
    <g id="text_8">
     <!-- SchNet eval_loss -->
     <g transform="translate(311.596563 58.070438) scale(0.1 -0.1)">
      <defs>
       <path id="DejaVuSans-53" d="M 3425 4513 
L 3425 3897 
Q 3066 4069 2747 4153 
Q 2428 4238 2131 4238 
Q 1616 4238 1336 4038 
Q 1056 3838 1056 3469 
Q 1056 3159 1242 3001 
Q 1428 2844 1947 2747 
L 2328 2669 
Q 3034 2534 3370 2195 
Q 3706 1856 3706 1288 
Q 3706 609 3251 259 
Q 2797 -91 1919 -91 
Q 1588 -91 1214 -16 
Q 841 59 441 206 
L 441 856 
Q 825 641 1194 531 
Q 1563 422 1919 422 
Q 2459 422 2753 634 
Q 3047 847 3047 1241 
Q 3047 1584 2836 1778 
Q 2625 1972 2144 2069 
L 1759 2144 
Q 1053 2284 737 2584 
Q 422 2884 422 3419 
Q 422 4038 858 4394 
Q 1294 4750 2059 4750 
Q 2388 4750 2728 4690 
Q 3069 4631 3425 4513 
z
" transform="scale(0.015625)"/>
       <path id="DejaVuSans-63" d="M 3122 3366 
L 3122 2828 
Q 2878 2963 2633 3030 
Q 2388 3097 2138 3097 
Q 1578 3097 1268 2742 
Q 959 2388 959 1747 
Q 959 1106 1268 751 
Q 1578 397 2138 397 
Q 2388 397 2633 464 
Q 2878 531 3122 666 
L 3122 134 
Q 2881 22 2623 -34 
Q 2366 -91 2075 -91 
Q 1284 -91 818 406 
Q 353 903 353 1747 
Q 353 2603 823 3093 
Q 1294 3584 2113 3584 
Q 2378 3584 2631 3529 
Q 2884 3475 3122 3366 
z
" transform="scale(0.015625)"/>
       <path id="DejaVuSans-68" d="M 3513 2113 
L 3513 0 
L 2938 0 
L 2938 2094 
Q 2938 2591 2744 2837 
Q 2550 3084 2163 3084 
Q 1697 3084 1428 2787 
Q 1159 2491 1159 1978 
L 1159 0 
L 581 0 
L 581 4863 
L 1159 4863 
L 1159 2956 
Q 1366 3272 1645 3428 
Q 1925 3584 2291 3584 
Q 2894 3584 3203 3211 
Q 3513 2838 3513 2113 
z
" transform="scale(0.015625)"/>
       <path id="DejaVuSans-4e" d="M 628 4666 
L 1478 4666 
L 3547 763 
L 3547 4666 
L 4159 4666 
L 4159 0 
L 3309 0 
L 1241 3903 
L 1241 0 
L 628 0 
L 628 4666 
z
" transform="scale(0.015625)"/>
       <path id="DejaVuSans-20" transform="scale(0.015625)"/>
       <path id="DejaVuSans-76" d="M 191 3500 
L 800 3500 
L 1894 563 
L 2988 3500 
L 3597 3500 
L 2284 0 
L 1503 0 
L 191 3500 
z
" transform="scale(0.015625)"/>
       <path id="DejaVuSans-61" d="M 2194 1759 
Q 1497 1759 1228 1600 
Q 959 1441 959 1056 
Q 959 750 1161 570 
Q 1363 391 1709 391 
Q 2188 391 2477 730 
Q 2766 1069 2766 1631 
L 2766 1759 
L 2194 1759 
z
M 3341 1997 
L 3341 0 
L 2766 0 
L 2766 531 
Q 2569 213 2275 61 
Q 1981 -91 1556 -91 
Q 1019 -91 701 211 
Q 384 513 384 1019 
Q 384 1609 779 1909 
Q 1175 2209 1959 2209 
L 2766 2209 
L 2766 2266 
Q 2766 2663 2505 2880 
Q 2244 3097 1772 3097 
Q 1472 3097 1187 3025 
Q 903 2953 641 2809 
L 641 3341 
Q 956 3463 1253 3523 
Q 1550 3584 1831 3584 
Q 2591 3584 2966 3190 
Q 3341 2797 3341 1997 
z
" transform="scale(0.015625)"/>
       <path id="DejaVuSans-5f" d="M 3263 -1063 
L 3263 -1509 
L -63 -1509 
L -63 -1063 
L 3263 -1063 
z
" transform="scale(0.015625)"/>
      </defs>
      <use xlink:href="#DejaVuSans-53"/>
      <use xlink:href="#DejaVuSans-63" x="63.476562"/>
      <use xlink:href="#DejaVuSans-68" x="118.457031"/>
      <use xlink:href="#DejaVuSans-4e" x="181.835938"/>
      <use xlink:href="#DejaVuSans-65" x="256.640625"/>
      <use xlink:href="#DejaVuSans-74" x="318.164062"/>
      <use xlink:href="#DejaVuSans-20" x="357.373047"/>
      <use xlink:href="#DejaVuSans-65" x="389.160156"/>
      <use xlink:href="#DejaVuSans-76" x="450.683594"/>
      <use xlink:href="#DejaVuSans-61" x="509.863281"/>
      <use xlink:href="#DejaVuSans-6c" x="571.142578"/>
      <use xlink:href="#DejaVuSans-5f" x="598.925781"/>
      <use xlink:href="#DejaVuSans-6c" x="648.925781"/>
      <use xlink:href="#DejaVuSans-6f" x="676.708984"/>
      <use xlink:href="#DejaVuSans-73" x="737.890625"/>
      <use xlink:href="#DejaVuSans-73" x="789.990234"/>
     </g>
    </g>
    <g id="line2d_33">
     <path d="M 283.596563 69.526688 
L 293.596563 69.526688 
L 303.596563 69.526688 
" style="fill: none; stroke: #ff7f0e; stroke-opacity: 0.4; stroke-linecap: square"/>
    </g>
    <g id="text_9">
     <!-- M220 eval_loss -->
     <g transform="translate(311.596563 73.026688) scale(0.1 -0.1)">
      <defs>
       <path id="DejaVuSans-4d" d="M 628 4666 
L 1569 4666 
L 2759 1491 
L 3956 4666 
L 4897 4666 
L 4897 0 
L 4281 0 
L 4281 4097 
L 3078 897 
L 2444 897 
L 1241 4097 
L 1241 0 
L 628 0 
L 628 4666 
z
" transform="scale(0.015625)"/>
      </defs>
      <use xlink:href="#DejaVuSans-4d"/>
      <use xlink:href="#DejaVuSans-32" x="86.279297"/>
      <use xlink:href="#DejaVuSans-32" x="149.902344"/>
      <use xlink:href="#DejaVuSans-30" x="213.525391"/>
      <use xlink:href="#DejaVuSans-20" x="277.148438"/>
      <use xlink:href="#DejaVuSans-65" x="308.935547"/>
      <use xlink:href="#DejaVuSans-76" x="370.458984"/>
      <use xlink:href="#DejaVuSans-61" x="429.638672"/>
      <use xlink:href="#DejaVuSans-6c" x="490.917969"/>
      <use xlink:href="#DejaVuSans-5f" x="518.701172"/>
      <use xlink:href="#DejaVuSans-6c" x="568.701172"/>
      <use xlink:href="#DejaVuSans-6f" x="596.484375"/>
      <use xlink:href="#DejaVuSans-73" x="657.666016"/>
      <use xlink:href="#DejaVuSans-73" x="709.765625"/>
     </g>
    </g>
    <g id="line2d_34">
     <path d="M 283.596563 84.482938 
L 293.596563 84.482938 
L 303.596563 84.482938 
" style="fill: none; stroke: #2ca02c; stroke-opacity: 0.4; stroke-linecap: square"/>
    </g>
    <g id="text_10">
     <!-- MoGIN14 eval_loss -->
     <g transform="translate(311.596563 87.982938) scale(0.1 -0.1)">
      <defs>
       <path id="DejaVuSans-47" d="M 3809 666 
L 3809 1919 
L 2778 1919 
L 2778 2438 
L 4434 2438 
L 4434 434 
Q 4069 175 3628 42 
Q 3188 -91 2688 -91 
Q 1594 -91 976 548 
Q 359 1188 359 2328 
Q 359 3472 976 4111 
Q 1594 4750 2688 4750 
Q 3144 4750 3555 4637 
Q 3966 4525 4313 4306 
L 4313 3634 
Q 3963 3931 3569 4081 
Q 3175 4231 2741 4231 
Q 1884 4231 1454 3753 
Q 1025 3275 1025 2328 
Q 1025 1384 1454 906 
Q 1884 428 2741 428 
Q 3075 428 3337 486 
Q 3600 544 3809 666 
z
" transform="scale(0.015625)"/>
       <path id="DejaVuSans-49" d="M 628 4666 
L 1259 4666 
L 1259 0 
L 628 0 
L 628 4666 
z
" transform="scale(0.015625)"/>
      </defs>
      <use xlink:href="#DejaVuSans-4d"/>
      <use xlink:href="#DejaVuSans-6f" x="86.279297"/>
      <use xlink:href="#DejaVuSans-47" x="147.460938"/>
      <use xlink:href="#DejaVuSans-49" x="224.951172"/>
      <use xlink:href="#DejaVuSans-4e" x="254.443359"/>
      <use xlink:href="#DejaVuSans-31" x="329.248047"/>
      <use xlink:href="#DejaVuSans-34" x="392.871094"/>
      <use xlink:href="#DejaVuSans-20" x="456.494141"/>
      <use xlink:href="#DejaVuSans-65" x="488.28125"/>
      <use xlink:href="#DejaVuSans-76" x="549.804688"/>
      <use xlink:href="#DejaVuSans-61" x="608.984375"/>
      <use xlink:href="#DejaVuSans-6c" x="670.263672"/>
      <use xlink:href="#DejaVuSans-5f" x="698.046875"/>
      <use xlink:href="#DejaVuSans-6c" x="748.046875"/>
      <use xlink:href="#DejaVuSans-6f" x="775.830078"/>
      <use xlink:href="#DejaVuSans-73" x="837.011719"/>
      <use xlink:href="#DejaVuSans-73" x="889.111328"/>
     </g>
    </g>
   </g>
  </g>
 </g>
 <defs>
  <clipPath id="pd347f6edfd">
   <rect x="57.6" y="41.472" width="357.12" height="266.112"/>
  </clipPath>
 </defs>
</svg>
