<?xml version="1.0" encoding="utf-8" standalone="no"?>
<!DOCTYPE svg PUBLIC "-//W3C//DTD SVG 1.1//EN"
  "http://www.w3.org/Graphics/SVG/1.1/DTD/svg11.dtd">
<svg xmlns:xlink="http://www.w3.org/1999/xlink" width="460.8pt" height="345.6pt" viewBox="0 0 460.8 345.6" xmlns="http://www.w3.org/2000/svg" version="1.1">
 <metadata>
  <rdf:RDF xmlns:dc="http://purl.org/dc/elements/1.1/" xmlns:cc="http://creativecommons.org/ns#" xmlns:rdf="http://www.w3.org/1999/02/22-rdf-syntax-ns#">
   <cc:Work>
    <dc:type rdf:resource="http://purl.org/dc/dcmitype/StillImage"/>
    <dc:date>2025-02-18T14:17:14.029124</dc:date>
    <dc:format>image/svg+xml</dc:format>
    <dc:creator>
     <cc:Agent>
      <dc:title>Matplotlib v3.8.4, https://matplotlib.org/</dc:title>
     </cc:Agent>
    </dc:creator>
   </cc:Work>
  </rdf:RDF>
 </metadata>
 <defs>
  <style type="text/css">*{stroke-linejoin: round; stroke-linecap: butt}</style>
 </defs>
 <g id="figure_1">
  <g id="patch_1">
   <path d="M 0 345.6 
L 460.8 345.6 
L 460.8 0 
L 0 0 
z
" style="fill: #ffffff"/>
  </g>
  <g id="axes_1">
   <g id="patch_2">
    <path d="M 57.6 307.584 
L 414.72 307.584 
L 414.72 41.472 
L 57.6 41.472 
z
" style="fill: #ffffff"/>
   </g>
   <g id="matplotlib.axis_1">
    <g id="xtick_1">
     <g id="line2d_1">
      <defs>
       <path id="m71fdbdcd1e" d="M 0 0 
L 0 3.5 
" style="stroke: #000000; stroke-width: 0.8"/>
      </defs>
      <g>
       <use xlink:href="#m71fdbdcd1e" x="73.832727" y="307.584" style="stroke: #000000; stroke-width: 0.8"/>
      </g>
     </g>
     <g id="text_1">
      <!-- $\mathdefault{10^{0}}$ -->
      <g transform="translate(65.032727 322.182437) scale(0.1 -0.1)">
       <defs>
        <path id="DejaVuSans-31" d="M 794 531 
L 1825 531 
L 1825 4091 
L 703 3866 
L 703 4441 
L 1819 4666 
L 2450 4666 
L 2450 531 
L 3481 531 
L 3481 0 
L 794 0 
L 794 531 
z
" transform="scale(0.015625)"/>
        <path id="DejaVuSans-30" d="M 2034 4250 
Q 1547 4250 1301 3770 
Q 1056 3291 1056 2328 
Q 1056 1369 1301 889 
Q 1547 409 2034 409 
Q 2525 409 2770 889 
Q 3016 1369 3016 2328 
Q 3016 3291 2770 3770 
Q 2525 4250 2034 4250 
z
M 2034 4750 
Q 2819 4750 3233 4129 
Q 3647 3509 3647 2328 
Q 3647 1150 3233 529 
Q 2819 -91 2034 -91 
Q 1250 -91 836 529 
Q 422 1150 422 2328 
Q 422 3509 836 4129 
Q 1250 4750 2034 4750 
z
" transform="scale(0.015625)"/>
       </defs>
       <use xlink:href="#DejaVuSans-31" transform="translate(0 0.765625)"/>
       <use xlink:href="#DejaVuSans-30" transform="translate(63.623047 0.765625)"/>
       <use xlink:href="#DejaVuSans-30" transform="translate(128.203125 39.046875) scale(0.7)"/>
      </g>
     </g>
    </g>
    <g id="xtick_2">
     <g id="line2d_2">
      <g>
       <use xlink:href="#m71fdbdcd1e" x="149.078588" y="307.584" style="stroke: #000000; stroke-width: 0.8"/>
      </g>
     </g>
     <g id="text_2">
      <!-- $\mathdefault{10^{1}}$ -->
      <g transform="translate(140.278588 322.182437) scale(0.1 -0.1)">
       <use xlink:href="#DejaVuSans-31" transform="translate(0 0.684375)"/>
       <use xlink:href="#DejaVuSans-30" transform="translate(63.623047 0.684375)"/>
       <use xlink:href="#DejaVuSans-31" transform="translate(128.203125 38.965625) scale(0.7)"/>
      </g>
     </g>
    </g>
    <g id="xtick_3">
     <g id="line2d_3">
      <g>
       <use xlink:href="#m71fdbdcd1e" x="224.32445" y="307.584" style="stroke: #000000; stroke-width: 0.8"/>
      </g>
     </g>
     <g id="text_3">
      <!-- $\mathdefault{10^{2}}$ -->
      <g transform="translate(215.52445 322.182437) scale(0.1 -0.1)">
       <defs>
        <path id="DejaVuSans-32" d="M 1228 531 
L 3431 531 
L 3431 0 
L 469 0 
L 469 531 
Q 828 903 1448 1529 
Q 2069 2156 2228 2338 
Q 2531 2678 2651 2914 
Q 2772 3150 2772 3378 
Q 2772 3750 2511 3984 
Q 2250 4219 1831 4219 
Q 1534 4219 1204 4116 
Q 875 4013 500 3803 
L 500 4441 
Q 881 4594 1212 4672 
Q 1544 4750 1819 4750 
Q 2544 4750 2975 4387 
Q 3406 4025 3406 3419 
Q 3406 3131 3298 2873 
Q 3191 2616 2906 2266 
Q 2828 2175 2409 1742 
Q 1991 1309 1228 531 
z
" transform="scale(0.015625)"/>
       </defs>
       <use xlink:href="#DejaVuSans-31" transform="translate(0 0.765625)"/>
       <use xlink:href="#DejaVuSans-30" transform="translate(63.623047 0.765625)"/>
       <use xlink:href="#DejaVuSans-32" transform="translate(128.203125 39.046875) scale(0.7)"/>
      </g>
     </g>
    </g>
    <g id="xtick_4">
     <g id="line2d_4">
      <g>
       <use xlink:href="#m71fdbdcd1e" x="299.570311" y="307.584" style="stroke: #000000; stroke-width: 0.8"/>
      </g>
     </g>
     <g id="text_4">
      <!-- $\mathdefault{10^{3}}$ -->
      <g transform="translate(290.770311 322.182437) scale(0.1 -0.1)">
       <defs>
        <path id="DejaVuSans-33" d="M 2597 2516 
Q 3050 2419 3304 2112 
Q 3559 1806 3559 1356 
Q 3559 666 3084 287 
Q 2609 -91 1734 -91 
Q 1441 -91 1130 -33 
Q 819 25 488 141 
L 488 750 
Q 750 597 1062 519 
Q 1375 441 1716 441 
Q 2309 441 2620 675 
Q 2931 909 2931 1356 
Q 2931 1769 2642 2001 
Q 2353 2234 1838 2234 
L 1294 2234 
L 1294 2753 
L 1863 2753 
Q 2328 2753 2575 2939 
Q 2822 3125 2822 3475 
Q 2822 3834 2567 4026 
Q 2313 4219 1838 4219 
Q 1578 4219 1281 4162 
Q 984 4106 628 3988 
L 628 4550 
Q 988 4650 1302 4700 
Q 1616 4750 1894 4750 
Q 2613 4750 3031 4423 
Q 3450 4097 3450 3541 
Q 3450 3153 3228 2886 
Q 3006 2619 2597 2516 
z
" transform="scale(0.015625)"/>
       </defs>
       <use xlink:href="#DejaVuSans-31" transform="translate(0 0.765625)"/>
       <use xlink:href="#DejaVuSans-30" transform="translate(63.623047 0.765625)"/>
       <use xlink:href="#DejaVuSans-33" transform="translate(128.203125 39.046875) scale(0.7)"/>
      </g>
     </g>
    </g>
    <g id="xtick_5">
     <g id="line2d_5">
      <g>
       <use xlink:href="#m71fdbdcd1e" x="374.816172" y="307.584" style="stroke: #000000; stroke-width: 0.8"/>
      </g>
     </g>
     <g id="text_5">
      <!-- $\mathdefault{10^{4}}$ -->
      <g transform="translate(366.016172 322.182437) scale(0.1 -0.1)">
       <defs>
        <path id="DejaVuSans-34" d="M 2419 4116 
L 825 1625 
L 2419 1625 
L 2419 4116 
z
M 2253 4666 
L 3047 4666 
L 3047 1625 
L 3713 1625 
L 3713 1100 
L 3047 1100 
L 3047 0 
L 2419 0 
L 2419 1100 
L 313 1100 
L 313 1709 
L 2253 4666 
z
" transform="scale(0.015625)"/>
       </defs>
       <use xlink:href="#DejaVuSans-31" transform="translate(0 0.684375)"/>
       <use xlink:href="#DejaVuSans-30" transform="translate(63.623047 0.684375)"/>
       <use xlink:href="#DejaVuSans-34" transform="translate(128.203125 38.965625) scale(0.7)"/>
      </g>
     </g>
    </g>
    <g id="xtick_6">
     <g id="line2d_6">
      <defs>
       <path id="m182af9e5b7" d="M 0 0 
L 0 2 
" style="stroke: #000000; stroke-width: 0.6"/>
      </defs>
      <g>
       <use xlink:href="#m182af9e5b7" x="62.176996" y="307.584" style="stroke: #000000; stroke-width: 0.6"/>
      </g>
     </g>
    </g>
    <g id="xtick_7">
     <g id="line2d_7">
      <g>
       <use xlink:href="#m182af9e5b7" x="66.54065" y="307.584" style="stroke: #000000; stroke-width: 0.6"/>
      </g>
     </g>
    </g>
    <g id="xtick_8">
     <g id="line2d_8">
      <g>
       <use xlink:href="#m182af9e5b7" x="70.389665" y="307.584" style="stroke: #000000; stroke-width: 0.6"/>
      </g>
     </g>
    </g>
    <g id="xtick_9">
     <g id="line2d_9">
      <g>
       <use xlink:href="#m182af9e5b7" x="96.483989" y="307.584" style="stroke: #000000; stroke-width: 0.6"/>
      </g>
     </g>
    </g>
    <g id="xtick_10">
     <g id="line2d_10">
      <g>
       <use xlink:href="#m182af9e5b7" x="109.734127" y="307.584" style="stroke: #000000; stroke-width: 0.6"/>
      </g>
     </g>
    </g>
    <g id="xtick_11">
     <g id="line2d_11">
      <g>
       <use xlink:href="#m182af9e5b7" x="119.13525" y="307.584" style="stroke: #000000; stroke-width: 0.6"/>
      </g>
     </g>
    </g>
    <g id="xtick_12">
     <g id="line2d_12">
      <g>
       <use xlink:href="#m182af9e5b7" x="126.427327" y="307.584" style="stroke: #000000; stroke-width: 0.6"/>
      </g>
     </g>
    </g>
    <g id="xtick_13">
     <g id="line2d_13">
      <g>
       <use xlink:href="#m182af9e5b7" x="132.385388" y="307.584" style="stroke: #000000; stroke-width: 0.6"/>
      </g>
     </g>
    </g>
    <g id="xtick_14">
     <g id="line2d_14">
      <g>
       <use xlink:href="#m182af9e5b7" x="137.422857" y="307.584" style="stroke: #000000; stroke-width: 0.6"/>
      </g>
     </g>
    </g>
    <g id="xtick_15">
     <g id="line2d_15">
      <g>
       <use xlink:href="#m182af9e5b7" x="141.786511" y="307.584" style="stroke: #000000; stroke-width: 0.6"/>
      </g>
     </g>
    </g>
    <g id="xtick_16">
     <g id="line2d_16">
      <g>
       <use xlink:href="#m182af9e5b7" x="145.635527" y="307.584" style="stroke: #000000; stroke-width: 0.6"/>
      </g>
     </g>
    </g>
    <g id="xtick_17">
     <g id="line2d_17">
      <g>
       <use xlink:href="#m182af9e5b7" x="171.72985" y="307.584" style="stroke: #000000; stroke-width: 0.6"/>
      </g>
     </g>
    </g>
    <g id="xtick_18">
     <g id="line2d_18">
      <g>
       <use xlink:href="#m182af9e5b7" x="184.979988" y="307.584" style="stroke: #000000; stroke-width: 0.6"/>
      </g>
     </g>
    </g>
    <g id="xtick_19">
     <g id="line2d_19">
      <g>
       <use xlink:href="#m182af9e5b7" x="194.381111" y="307.584" style="stroke: #000000; stroke-width: 0.6"/>
      </g>
     </g>
    </g>
    <g id="xtick_20">
     <g id="line2d_20">
      <g>
       <use xlink:href="#m182af9e5b7" x="201.673188" y="307.584" style="stroke: #000000; stroke-width: 0.6"/>
      </g>
     </g>
    </g>
    <g id="xtick_21">
     <g id="line2d_21">
      <g>
       <use xlink:href="#m182af9e5b7" x="207.631249" y="307.584" style="stroke: #000000; stroke-width: 0.6"/>
      </g>
     </g>
    </g>
    <g id="xtick_22">
     <g id="line2d_22">
      <g>
       <use xlink:href="#m182af9e5b7" x="212.668718" y="307.584" style="stroke: #000000; stroke-width: 0.6"/>
      </g>
     </g>
    </g>
    <g id="xtick_23">
     <g id="line2d_23">
      <g>
       <use xlink:href="#m182af9e5b7" x="217.032372" y="307.584" style="stroke: #000000; stroke-width: 0.6"/>
      </g>
     </g>
    </g>
    <g id="xtick_24">
     <g id="line2d_24">
      <g>
       <use xlink:href="#m182af9e5b7" x="220.881388" y="307.584" style="stroke: #000000; stroke-width: 0.6"/>
      </g>
     </g>
    </g>
    <g id="xtick_25">
     <g id="line2d_25">
      <g>
       <use xlink:href="#m182af9e5b7" x="246.975711" y="307.584" style="stroke: #000000; stroke-width: 0.6"/>
      </g>
     </g>
    </g>
    <g id="xtick_26">
     <g id="line2d_26">
      <g>
       <use xlink:href="#m182af9e5b7" x="260.225849" y="307.584" style="stroke: #000000; stroke-width: 0.6"/>
      </g>
     </g>
    </g>
    <g id="xtick_27">
     <g id="line2d_27">
      <g>
       <use xlink:href="#m182af9e5b7" x="269.626972" y="307.584" style="stroke: #000000; stroke-width: 0.6"/>
      </g>
     </g>
    </g>
    <g id="xtick_28">
     <g id="line2d_28">
      <g>
       <use xlink:href="#m182af9e5b7" x="276.919049" y="307.584" style="stroke: #000000; stroke-width: 0.6"/>
      </g>
     </g>
    </g>
    <g id="xtick_29">
     <g id="line2d_29">
      <g>
       <use xlink:href="#m182af9e5b7" x="282.877111" y="307.584" style="stroke: #000000; stroke-width: 0.6"/>
      </g>
     </g>
    </g>
    <g id="xtick_30">
     <g id="line2d_30">
      <g>
       <use xlink:href="#m182af9e5b7" x="287.914579" y="307.584" style="stroke: #000000; stroke-width: 0.6"/>
      </g>
     </g>
    </g>
    <g id="xtick_31">
     <g id="line2d_31">
      <g>
       <use xlink:href="#m182af9e5b7" x="292.278233" y="307.584" style="stroke: #000000; stroke-width: 0.6"/>
      </g>
     </g>
    </g>
    <g id="xtick_32">
     <g id="line2d_32">
      <g>
       <use xlink:href="#m182af9e5b7" x="296.127249" y="307.584" style="stroke: #000000; stroke-width: 0.6"/>
      </g>
     </g>
    </g>
    <g id="xtick_33">
     <g id="line2d_33">
      <g>
       <use xlink:href="#m182af9e5b7" x="322.221572" y="307.584" style="stroke: #000000; stroke-width: 0.6"/>
      </g>
     </g>
    </g>
    <g id="xtick_34">
     <g id="line2d_34">
      <g>
       <use xlink:href="#m182af9e5b7" x="335.47171" y="307.584" style="stroke: #000000; stroke-width: 0.6"/>
      </g>
     </g>
    </g>
    <g id="xtick_35">
     <g id="line2d_35">
      <g>
       <use xlink:href="#m182af9e5b7" x="344.872833" y="307.584" style="stroke: #000000; stroke-width: 0.6"/>
      </g>
     </g>
    </g>
    <g id="xtick_36">
     <g id="line2d_36">
      <g>
       <use xlink:href="#m182af9e5b7" x="352.164911" y="307.584" style="stroke: #000000; stroke-width: 0.6"/>
      </g>
     </g>
    </g>
    <g id="xtick_37">
     <g id="line2d_37">
      <g>
       <use xlink:href="#m182af9e5b7" x="358.122972" y="307.584" style="stroke: #000000; stroke-width: 0.6"/>
      </g>
     </g>
    </g>
    <g id="xtick_38">
     <g id="line2d_38">
      <g>
       <use xlink:href="#m182af9e5b7" x="363.160441" y="307.584" style="stroke: #000000; stroke-width: 0.6"/>
      </g>
     </g>
    </g>
    <g id="xtick_39">
     <g id="line2d_39">
      <g>
       <use xlink:href="#m182af9e5b7" x="367.524095" y="307.584" style="stroke: #000000; stroke-width: 0.6"/>
      </g>
     </g>
    </g>
    <g id="xtick_40">
     <g id="line2d_40">
      <g>
       <use xlink:href="#m182af9e5b7" x="371.37311" y="307.584" style="stroke: #000000; stroke-width: 0.6"/>
      </g>
     </g>
    </g>
    <g id="xtick_41">
     <g id="line2d_41">
      <g>
       <use xlink:href="#m182af9e5b7" x="397.467433" y="307.584" style="stroke: #000000; stroke-width: 0.6"/>
      </g>
     </g>
    </g>
    <g id="xtick_42">
     <g id="line2d_42">
      <g>
       <use xlink:href="#m182af9e5b7" x="410.717572" y="307.584" style="stroke: #000000; stroke-width: 0.6"/>
      </g>
     </g>
    </g>
    <g id="text_6">
     <!-- iter# -->
     <g transform="translate(223.488906 335.860562) scale(0.1 -0.1)">
      <defs>
       <path id="DejaVuSans-69" d="M 603 3500 
L 1178 3500 
L 1178 0 
L 603 0 
L 603 3500 
z
M 603 4863 
L 1178 4863 
L 1178 4134 
L 603 4134 
L 603 4863 
z
" transform="scale(0.015625)"/>
       <path id="DejaVuSans-74" d="M 1172 4494 
L 1172 3500 
L 2356 3500 
L 2356 3053 
L 1172 3053 
L 1172 1153 
Q 1172 725 1289 603 
Q 1406 481 1766 481 
L 2356 481 
L 2356 0 
L 1766 0 
Q 1100 0 847 248 
Q 594 497 594 1153 
L 594 3053 
L 172 3053 
L 172 3500 
L 594 3500 
L 594 4494 
L 1172 4494 
z
" transform="scale(0.015625)"/>
       <path id="DejaVuSans-65" d="M 3597 1894 
L 3597 1613 
L 953 1613 
Q 991 1019 1311 708 
Q 1631 397 2203 397 
Q 2534 397 2845 478 
Q 3156 559 3463 722 
L 3463 178 
Q 3153 47 2828 -22 
Q 2503 -91 2169 -91 
Q 1331 -91 842 396 
Q 353 884 353 1716 
Q 353 2575 817 3079 
Q 1281 3584 2069 3584 
Q 2775 3584 3186 3129 
Q 3597 2675 3597 1894 
z
M 3022 2063 
Q 3016 2534 2758 2815 
Q 2500 3097 2075 3097 
Q 1594 3097 1305 2825 
Q 1016 2553 972 2059 
L 3022 2063 
z
" transform="scale(0.015625)"/>
       <path id="DejaVuSans-72" d="M 2631 2963 
Q 2534 3019 2420 3045 
Q 2306 3072 2169 3072 
Q 1681 3072 1420 2755 
Q 1159 2438 1159 1844 
L 1159 0 
L 581 0 
L 581 3500 
L 1159 3500 
L 1159 2956 
Q 1341 3275 1631 3429 
Q 1922 3584 2338 3584 
Q 2397 3584 2469 3576 
Q 2541 3569 2628 3553 
L 2631 2963 
z
" transform="scale(0.015625)"/>
       <path id="DejaVuSans-23" d="M 3272 2816 
L 2363 2816 
L 2100 1772 
L 3016 1772 
L 3272 2816 
z
M 2803 4594 
L 2478 3297 
L 3391 3297 
L 3719 4594 
L 4219 4594 
L 3897 3297 
L 4872 3297 
L 4872 2816 
L 3775 2816 
L 3519 1772 
L 4513 1772 
L 4513 1294 
L 3397 1294 
L 3072 0 
L 2572 0 
L 2894 1294 
L 1978 1294 
L 1656 0 
L 1153 0 
L 1478 1294 
L 494 1294 
L 494 1772 
L 1594 1772 
L 1856 2816 
L 850 2816 
L 850 3297 
L 1978 3297 
L 2297 4594 
L 2803 4594 
z
" transform="scale(0.015625)"/>
      </defs>
      <use xlink:href="#DejaVuSans-69"/>
      <use xlink:href="#DejaVuSans-74" x="27.783203"/>
      <use xlink:href="#DejaVuSans-65" x="66.992188"/>
      <use xlink:href="#DejaVuSans-72" x="128.515625"/>
      <use xlink:href="#DejaVuSans-23" x="169.628906"/>
     </g>
    </g>
   </g>
   <g id="matplotlib.axis_2">
    <g id="ytick_1">
     <g id="line2d_43">
      <defs>
       <path id="maa8c61226c" d="M 0 0 
L -3.5 0 
" style="stroke: #000000; stroke-width: 0.8"/>
      </defs>
      <g>
       <use xlink:href="#maa8c61226c" x="57.6" y="283.056805" style="stroke: #000000; stroke-width: 0.8"/>
      </g>
     </g>
     <g id="text_7">
      <!-- $\mathdefault{10^{-3}}$ -->
      <g transform="translate(27.1 286.856024) scale(0.1 -0.1)">
       <defs>
        <path id="DejaVuSans-2212" d="M 678 2272 
L 4684 2272 
L 4684 1741 
L 678 1741 
L 678 2272 
z
" transform="scale(0.015625)"/>
       </defs>
       <use xlink:href="#DejaVuSans-31" transform="translate(0 0.765625)"/>
       <use xlink:href="#DejaVuSans-30" transform="translate(63.623047 0.765625)"/>
       <use xlink:href="#DejaVuSans-2212" transform="translate(128.203125 39.046875) scale(0.7)"/>
       <use xlink:href="#DejaVuSans-33" transform="translate(186.855469 39.046875) scale(0.7)"/>
      </g>
     </g>
    </g>
    <g id="ytick_2">
     <g id="line2d_44">
      <g>
       <use xlink:href="#maa8c61226c" x="57.6" y="239.332636" style="stroke: #000000; stroke-width: 0.8"/>
      </g>
     </g>
     <g id="text_8">
      <!-- $\mathdefault{10^{-2}}$ -->
      <g transform="translate(27.1 243.131855) scale(0.1 -0.1)">
       <use xlink:href="#DejaVuSans-31" transform="translate(0 0.765625)"/>
       <use xlink:href="#DejaVuSans-30" transform="translate(63.623047 0.765625)"/>
       <use xlink:href="#DejaVuSans-2212" transform="translate(128.203125 39.046875) scale(0.7)"/>
       <use xlink:href="#DejaVuSans-32" transform="translate(186.855469 39.046875) scale(0.7)"/>
      </g>
     </g>
    </g>
    <g id="ytick_3">
     <g id="line2d_45">
      <g>
       <use xlink:href="#maa8c61226c" x="57.6" y="195.608467" style="stroke: #000000; stroke-width: 0.8"/>
      </g>
     </g>
     <g id="text_9">
      <!-- $\mathdefault{10^{-1}}$ -->
      <g transform="translate(27.1 199.407686) scale(0.1 -0.1)">
       <use xlink:href="#DejaVuSans-31" transform="translate(0 0.684375)"/>
       <use xlink:href="#DejaVuSans-30" transform="translate(63.623047 0.684375)"/>
       <use xlink:href="#DejaVuSans-2212" transform="translate(128.203125 38.965625) scale(0.7)"/>
       <use xlink:href="#DejaVuSans-31" transform="translate(186.855469 38.965625) scale(0.7)"/>
      </g>
     </g>
    </g>
    <g id="ytick_4">
     <g id="line2d_46">
      <g>
       <use xlink:href="#maa8c61226c" x="57.6" y="151.884298" style="stroke: #000000; stroke-width: 0.8"/>
      </g>
     </g>
     <g id="text_10">
      <!-- $\mathdefault{10^{0}}$ -->
      <g transform="translate(33 155.683517) scale(0.1 -0.1)">
       <use xlink:href="#DejaVuSans-31" transform="translate(0 0.765625)"/>
       <use xlink:href="#DejaVuSans-30" transform="translate(63.623047 0.765625)"/>
       <use xlink:href="#DejaVuSans-30" transform="translate(128.203125 39.046875) scale(0.7)"/>
      </g>
     </g>
    </g>
    <g id="ytick_5">
     <g id="line2d_47">
      <g>
       <use xlink:href="#maa8c61226c" x="57.6" y="108.160129" style="stroke: #000000; stroke-width: 0.8"/>
      </g>
     </g>
     <g id="text_11">
      <!-- $\mathdefault{10^{1}}$ -->
      <g transform="translate(33 111.959348) scale(0.1 -0.1)">
       <use xlink:href="#DejaVuSans-31" transform="translate(0 0.684375)"/>
       <use xlink:href="#DejaVuSans-30" transform="translate(63.623047 0.684375)"/>
       <use xlink:href="#DejaVuSans-31" transform="translate(128.203125 38.965625) scale(0.7)"/>
      </g>
     </g>
    </g>
    <g id="ytick_6">
     <g id="line2d_48">
      <g>
       <use xlink:href="#maa8c61226c" x="57.6" y="64.43596" style="stroke: #000000; stroke-width: 0.8"/>
      </g>
     </g>
     <g id="text_12">
      <!-- $\mathdefault{10^{2}}$ -->
      <g transform="translate(33 68.235179) scale(0.1 -0.1)">
       <use xlink:href="#DejaVuSans-31" transform="translate(0 0.765625)"/>
       <use xlink:href="#DejaVuSans-30" transform="translate(63.623047 0.765625)"/>
       <use xlink:href="#DejaVuSans-32" transform="translate(128.203125 39.046875) scale(0.7)"/>
      </g>
     </g>
    </g>
    <g id="ytick_7">
     <g id="line2d_49">
      <defs>
       <path id="m650ad770bf" d="M 0 0 
L -2 0 
" style="stroke: #000000; stroke-width: 0.6"/>
      </defs>
      <g>
       <use xlink:href="#m650ad770bf" x="57.6" y="305.919243" style="stroke: #000000; stroke-width: 0.6"/>
      </g>
     </g>
    </g>
    <g id="ytick_8">
     <g id="line2d_50">
      <g>
       <use xlink:href="#m650ad770bf" x="57.6" y="300.456401" style="stroke: #000000; stroke-width: 0.6"/>
      </g>
     </g>
    </g>
    <g id="ytick_9">
     <g id="line2d_51">
      <g>
       <use xlink:href="#m650ad770bf" x="57.6" y="296.219091" style="stroke: #000000; stroke-width: 0.6"/>
      </g>
     </g>
    </g>
    <g id="ytick_10">
     <g id="line2d_52">
      <g>
       <use xlink:href="#m650ad770bf" x="57.6" y="292.756957" style="stroke: #000000; stroke-width: 0.6"/>
      </g>
     </g>
    </g>
    <g id="ytick_11">
     <g id="line2d_53">
      <g>
       <use xlink:href="#m650ad770bf" x="57.6" y="289.829764" style="stroke: #000000; stroke-width: 0.6"/>
      </g>
     </g>
    </g>
    <g id="ytick_12">
     <g id="line2d_54">
      <g>
       <use xlink:href="#m650ad770bf" x="57.6" y="287.294115" style="stroke: #000000; stroke-width: 0.6"/>
      </g>
     </g>
    </g>
    <g id="ytick_13">
     <g id="line2d_55">
      <g>
       <use xlink:href="#m650ad770bf" x="57.6" y="285.057513" style="stroke: #000000; stroke-width: 0.6"/>
      </g>
     </g>
    </g>
    <g id="ytick_14">
     <g id="line2d_56">
      <g>
       <use xlink:href="#m650ad770bf" x="57.6" y="269.894519" style="stroke: #000000; stroke-width: 0.6"/>
      </g>
     </g>
    </g>
    <g id="ytick_15">
     <g id="line2d_57">
      <g>
       <use xlink:href="#m650ad770bf" x="57.6" y="262.195075" style="stroke: #000000; stroke-width: 0.6"/>
      </g>
     </g>
    </g>
    <g id="ytick_16">
     <g id="line2d_58">
      <g>
       <use xlink:href="#m650ad770bf" x="57.6" y="256.732232" style="stroke: #000000; stroke-width: 0.6"/>
      </g>
     </g>
    </g>
    <g id="ytick_17">
     <g id="line2d_59">
      <g>
       <use xlink:href="#m650ad770bf" x="57.6" y="252.494922" style="stroke: #000000; stroke-width: 0.6"/>
      </g>
     </g>
    </g>
    <g id="ytick_18">
     <g id="line2d_60">
      <g>
       <use xlink:href="#m650ad770bf" x="57.6" y="249.032788" style="stroke: #000000; stroke-width: 0.6"/>
      </g>
     </g>
    </g>
    <g id="ytick_19">
     <g id="line2d_61">
      <g>
       <use xlink:href="#m650ad770bf" x="57.6" y="246.105595" style="stroke: #000000; stroke-width: 0.6"/>
      </g>
     </g>
    </g>
    <g id="ytick_20">
     <g id="line2d_62">
      <g>
       <use xlink:href="#m650ad770bf" x="57.6" y="243.569946" style="stroke: #000000; stroke-width: 0.6"/>
      </g>
     </g>
    </g>
    <g id="ytick_21">
     <g id="line2d_63">
      <g>
       <use xlink:href="#m650ad770bf" x="57.6" y="241.333344" style="stroke: #000000; stroke-width: 0.6"/>
      </g>
     </g>
    </g>
    <g id="ytick_22">
     <g id="line2d_64">
      <g>
       <use xlink:href="#m650ad770bf" x="57.6" y="226.17035" style="stroke: #000000; stroke-width: 0.6"/>
      </g>
     </g>
    </g>
    <g id="ytick_23">
     <g id="line2d_65">
      <g>
       <use xlink:href="#m650ad770bf" x="57.6" y="218.470906" style="stroke: #000000; stroke-width: 0.6"/>
      </g>
     </g>
    </g>
    <g id="ytick_24">
     <g id="line2d_66">
      <g>
       <use xlink:href="#m650ad770bf" x="57.6" y="213.008063" style="stroke: #000000; stroke-width: 0.6"/>
      </g>
     </g>
    </g>
    <g id="ytick_25">
     <g id="line2d_67">
      <g>
       <use xlink:href="#m650ad770bf" x="57.6" y="208.770753" style="stroke: #000000; stroke-width: 0.6"/>
      </g>
     </g>
    </g>
    <g id="ytick_26">
     <g id="line2d_68">
      <g>
       <use xlink:href="#m650ad770bf" x="57.6" y="205.308619" style="stroke: #000000; stroke-width: 0.6"/>
      </g>
     </g>
    </g>
    <g id="ytick_27">
     <g id="line2d_69">
      <g>
       <use xlink:href="#m650ad770bf" x="57.6" y="202.381427" style="stroke: #000000; stroke-width: 0.6"/>
      </g>
     </g>
    </g>
    <g id="ytick_28">
     <g id="line2d_70">
      <g>
       <use xlink:href="#m650ad770bf" x="57.6" y="199.845777" style="stroke: #000000; stroke-width: 0.6"/>
      </g>
     </g>
    </g>
    <g id="ytick_29">
     <g id="line2d_71">
      <g>
       <use xlink:href="#m650ad770bf" x="57.6" y="197.609175" style="stroke: #000000; stroke-width: 0.6"/>
      </g>
     </g>
    </g>
    <g id="ytick_30">
     <g id="line2d_72">
      <g>
       <use xlink:href="#m650ad770bf" x="57.6" y="182.446181" style="stroke: #000000; stroke-width: 0.6"/>
      </g>
     </g>
    </g>
    <g id="ytick_31">
     <g id="line2d_73">
      <g>
       <use xlink:href="#m650ad770bf" x="57.6" y="174.746737" style="stroke: #000000; stroke-width: 0.6"/>
      </g>
     </g>
    </g>
    <g id="ytick_32">
     <g id="line2d_74">
      <g>
       <use xlink:href="#m650ad770bf" x="57.6" y="169.283894" style="stroke: #000000; stroke-width: 0.6"/>
      </g>
     </g>
    </g>
    <g id="ytick_33">
     <g id="line2d_75">
      <g>
       <use xlink:href="#m650ad770bf" x="57.6" y="165.046585" style="stroke: #000000; stroke-width: 0.6"/>
      </g>
     </g>
    </g>
    <g id="ytick_34">
     <g id="line2d_76">
      <g>
       <use xlink:href="#m650ad770bf" x="57.6" y="161.58445" style="stroke: #000000; stroke-width: 0.6"/>
      </g>
     </g>
    </g>
    <g id="ytick_35">
     <g id="line2d_77">
      <g>
       <use xlink:href="#m650ad770bf" x="57.6" y="158.657258" style="stroke: #000000; stroke-width: 0.6"/>
      </g>
     </g>
    </g>
    <g id="ytick_36">
     <g id="line2d_78">
      <g>
       <use xlink:href="#m650ad770bf" x="57.6" y="156.121608" style="stroke: #000000; stroke-width: 0.6"/>
      </g>
     </g>
    </g>
    <g id="ytick_37">
     <g id="line2d_79">
      <g>
       <use xlink:href="#m650ad770bf" x="57.6" y="153.885006" style="stroke: #000000; stroke-width: 0.6"/>
      </g>
     </g>
    </g>
    <g id="ytick_38">
     <g id="line2d_80">
      <g>
       <use xlink:href="#m650ad770bf" x="57.6" y="138.722012" style="stroke: #000000; stroke-width: 0.6"/>
      </g>
     </g>
    </g>
    <g id="ytick_39">
     <g id="line2d_81">
      <g>
       <use xlink:href="#m650ad770bf" x="57.6" y="131.022568" style="stroke: #000000; stroke-width: 0.6"/>
      </g>
     </g>
    </g>
    <g id="ytick_40">
     <g id="line2d_82">
      <g>
       <use xlink:href="#m650ad770bf" x="57.6" y="125.559725" style="stroke: #000000; stroke-width: 0.6"/>
      </g>
     </g>
    </g>
    <g id="ytick_41">
     <g id="line2d_83">
      <g>
       <use xlink:href="#m650ad770bf" x="57.6" y="121.322416" style="stroke: #000000; stroke-width: 0.6"/>
      </g>
     </g>
    </g>
    <g id="ytick_42">
     <g id="line2d_84">
      <g>
       <use xlink:href="#m650ad770bf" x="57.6" y="117.860281" style="stroke: #000000; stroke-width: 0.6"/>
      </g>
     </g>
    </g>
    <g id="ytick_43">
     <g id="line2d_85">
      <g>
       <use xlink:href="#m650ad770bf" x="57.6" y="114.933089" style="stroke: #000000; stroke-width: 0.6"/>
      </g>
     </g>
    </g>
    <g id="ytick_44">
     <g id="line2d_86">
      <g>
       <use xlink:href="#m650ad770bf" x="57.6" y="112.397439" style="stroke: #000000; stroke-width: 0.6"/>
      </g>
     </g>
    </g>
    <g id="ytick_45">
     <g id="line2d_87">
      <g>
       <use xlink:href="#m650ad770bf" x="57.6" y="110.160837" style="stroke: #000000; stroke-width: 0.6"/>
      </g>
     </g>
    </g>
    <g id="ytick_46">
     <g id="line2d_88">
      <g>
       <use xlink:href="#m650ad770bf" x="57.6" y="94.997843" style="stroke: #000000; stroke-width: 0.6"/>
      </g>
     </g>
    </g>
    <g id="ytick_47">
     <g id="line2d_89">
      <g>
       <use xlink:href="#m650ad770bf" x="57.6" y="87.298399" style="stroke: #000000; stroke-width: 0.6"/>
      </g>
     </g>
    </g>
    <g id="ytick_48">
     <g id="line2d_90">
      <g>
       <use xlink:href="#m650ad770bf" x="57.6" y="81.835556" style="stroke: #000000; stroke-width: 0.6"/>
      </g>
     </g>
    </g>
    <g id="ytick_49">
     <g id="line2d_91">
      <g>
       <use xlink:href="#m650ad770bf" x="57.6" y="77.598247" style="stroke: #000000; stroke-width: 0.6"/>
      </g>
     </g>
    </g>
    <g id="ytick_50">
     <g id="line2d_92">
      <g>
       <use xlink:href="#m650ad770bf" x="57.6" y="74.136113" style="stroke: #000000; stroke-width: 0.6"/>
      </g>
     </g>
    </g>
    <g id="ytick_51">
     <g id="line2d_93">
      <g>
       <use xlink:href="#m650ad770bf" x="57.6" y="71.20892" style="stroke: #000000; stroke-width: 0.6"/>
      </g>
     </g>
    </g>
    <g id="ytick_52">
     <g id="line2d_94">
      <g>
       <use xlink:href="#m650ad770bf" x="57.6" y="68.67327" style="stroke: #000000; stroke-width: 0.6"/>
      </g>
     </g>
    </g>
    <g id="ytick_53">
     <g id="line2d_95">
      <g>
       <use xlink:href="#m650ad770bf" x="57.6" y="66.436669" style="stroke: #000000; stroke-width: 0.6"/>
      </g>
     </g>
    </g>
    <g id="ytick_54">
     <g id="line2d_96">
      <g>
       <use xlink:href="#m650ad770bf" x="57.6" y="51.273674" style="stroke: #000000; stroke-width: 0.6"/>
      </g>
     </g>
    </g>
    <g id="ytick_55">
     <g id="line2d_97">
      <g>
       <use xlink:href="#m650ad770bf" x="57.6" y="43.57423" style="stroke: #000000; stroke-width: 0.6"/>
      </g>
     </g>
    </g>
    <g id="text_13">
     <!-- loss -->
     <g transform="translate(21.020313 184.185812) rotate(-90) scale(0.1 -0.1)">
      <defs>
       <path id="DejaVuSans-6c" d="M 603 4863 
L 1178 4863 
L 1178 0 
L 603 0 
L 603 4863 
z
" transform="scale(0.015625)"/>
       <path id="DejaVuSans-6f" d="M 1959 3097 
Q 1497 3097 1228 2736 
Q 959 2375 959 1747 
Q 959 1119 1226 758 
Q 1494 397 1959 397 
Q 2419 397 2687 759 
Q 2956 1122 2956 1747 
Q 2956 2369 2687 2733 
Q 2419 3097 1959 3097 
z
M 1959 3584 
Q 2709 3584 3137 3096 
Q 3566 2609 3566 1747 
Q 3566 888 3137 398 
Q 2709 -91 1959 -91 
Q 1206 -91 779 398 
Q 353 888 353 1747 
Q 353 2609 779 3096 
Q 1206 3584 1959 3584 
z
" transform="scale(0.015625)"/>
       <path id="DejaVuSans-73" d="M 2834 3397 
L 2834 2853 
Q 2591 2978 2328 3040 
Q 2066 3103 1784 3103 
Q 1356 3103 1142 2972 
Q 928 2841 928 2578 
Q 928 2378 1081 2264 
Q 1234 2150 1697 2047 
L 1894 2003 
Q 2506 1872 2764 1633 
Q 3022 1394 3022 966 
Q 3022 478 2636 193 
Q 2250 -91 1575 -91 
Q 1294 -91 989 -36 
Q 684 19 347 128 
L 347 722 
Q 666 556 975 473 
Q 1284 391 1588 391 
Q 1994 391 2212 530 
Q 2431 669 2431 922 
Q 2431 1156 2273 1281 
Q 2116 1406 1581 1522 
L 1381 1569 
Q 847 1681 609 1914 
Q 372 2147 372 2553 
Q 372 3047 722 3315 
Q 1072 3584 1716 3584 
Q 2034 3584 2315 3537 
Q 2597 3491 2834 3397 
z
" transform="scale(0.015625)"/>
      </defs>
      <use xlink:href="#DejaVuSans-6c"/>
      <use xlink:href="#DejaVuSans-6f" x="27.783203"/>
      <use xlink:href="#DejaVuSans-73" x="88.964844"/>
      <use xlink:href="#DejaVuSans-73" x="141.064453"/>
     </g>
    </g>
   </g>
   <g id="line2d_98">
    <path d="M 73.832727 53.568 
L 96.483989 71.954121 
L 109.734127 86.063637 
L 119.13525 75.947786 
L 126.427327 75.9517 
L 132.385388 76.042531 
L 137.422857 76.212951 
L 141.786511 76.400851 
L 145.635527 76.563199 
L 149.078588 76.690222 
L 152.193217 76.817666 
L 155.036649 76.953016 
L 157.652354 77.110842 
L 160.074118 77.291775 
L 162.328727 77.479317 
L 164.437772 77.659136 
L 166.418916 77.8343 
L 168.286788 78.007014 
L 170.053643 78.169966 
L 171.72985 78.338039 
L 173.324257 78.511392 
L 174.844478 78.693557 
L 176.297111 78.880092 
L 177.687911 79.069088 
L 179.021927 79.25785 
L 180.303615 79.444323 
L 181.536926 79.629201 
L 182.72538 79.809114 
L 183.872124 79.991116 
L 184.979988 80.173127 
L 186.051522 80.35886 
L 187.089034 80.547126 
L 188.094616 80.735612 
L 189.070177 80.924294 
L 190.017457 81.112366 
L 190.938049 81.299466 
L 191.833416 81.48677 
L 192.704904 81.671474 
L 193.553754 81.854436 
L 195.188037 82.228903 
L 198.948372 83.173262 
L 201.673188 83.924561 
L 204.787817 84.869045 
L 208.171408 86.002687 
L 211.237298 87.139019 
L 214.040061 88.26766 
L 217.032372 89.579229 
L 220.147 91.082565 
L 223.329077 92.77821 
L 226.535457 94.658995 
L 229.733273 96.729854 
L 232.645868 98.793168 
L 235.783517 101.2335 
L 239.065088 104.042071 
L 242.04699 106.863003 
L 245.127056 110.044525 
L 248.257399 113.597898 
L 251.40058 117.492132 
L 254.528179 121.777525 
L 257.619221 126.437774 
L 260.766008 131.655667 
L 263.831898 137.268937 
L 266.990837 143.57571 
L 270.113515 150.468323 
L 273.18421 157.73643 
L 276.325472 166.064037 
L 279.434049 174.982036 
L 282.548677 184.102103 
L 285.643294 193.75791 
L 288.744271 204.195665 
L 291.867173 213.928542 
L 294.981801 221.909622 
L 298.099848 228.920634 
L 301.195826 228.103835 
L 304.335884 232.119756 
L 307.432533 232.361881 
L 310.54249 225.533079 
L 313.659242 235.805362 
L 316.7758 236.450263 
L 319.885164 232.901712 
L 323.012554 240.227448 
L 326.128632 243.968447 
L 329.237988 223.903484 
L 332.353814 246.511817 
L 335.460816 258.602671 
L 338.576434 257.538485 
L 341.691963 260.130528 
L 344.80741 256.078376 
L 347.92055 258.672001 
L 351.034502 242.531325 
L 354.14913 250.438465 
L 357.267672 237.564991 
L 360.379759 260.266007 
L 363.494849 253.175004 
L 366.608637 265.558643 
L 369.723647 229.573587 
L 372.839317 243.74379 
L 375.952998 285.527219 
L 379.066479 234.858128 
L 382.181368 253.557133 
L 385.296471 258.713894 
L 388.410883 279.100139 
L 391.525707 183.11858 
L 394.639445 255.559936 
L 397.753749 295.488 
" clip-path="url(#p2f7674a520)" style="fill: none; stroke-dasharray: 5.55,2.4; stroke-dashoffset: 0; stroke: #1f77b4; stroke-opacity: 0.4; stroke-width: 1.5"/>
   </g>
   <g id="line2d_99">
    <path d="M 73.832727 100.307404 
L 210.246954 172.686396 
L 232.645868 175.774342 
L 245.811455 177.447285 
L 255.17022 180.538854 
L 262.436857 189.169535 
L 268.377946 198.567045 
L 273.403287 198.127498 
L 277.757842 200.893972 
L 281.599779 196.461973 
L 285.037177 204.775252 
L 288.14717 200.586012 
L 290.98674 203.690611 
L 293.599176 209.052697 
L 296.018137 194.062393 
L 298.270317 208.300034 
L 300.377237 207.390312 
L 302.356505 196.855268 
L 304.22271 215.160696 
L 305.988074 209.709303 
L 307.662938 200.406735 
L 309.25613 215.911995 
L 310.775247 215.751751 
L 312.226871 198.963697 
L 313.616747 209.341687 
L 314.949913 195.168812 
L 316.230816 215.79569 
L 317.4634 191.136488 
L 318.651178 200.924064 
L 319.797294 208.11501 
L 320.904571 196.930624 
L 321.975557 204.19752 
L 323.012554 202.633226 
L 323.282563 214.435316 
L 324.279517 221.241241 
L 325.246954 221.864874 
L 326.186573 222.031132 
L 327.099928 222.011907 
L 327.988448 221.84439 
L 328.853448 222.136572 
L 329.696141 221.194682 
L 330.517648 221.857378 
L 331.319009 221.619225 
L 332.865082 222.080038 
L 333.611527 222.186032 
L 336.437658 222.029289 
L 337.107588 222.164776 
L 337.764059 222.028389 
L 339.657873 221.997748 
L 340.265516 222.221459 
L 340.862066 222.20975 
L 341.447921 221.747775 
L 342.023458 222.410556 
L 343.144988 222.581077 
L 343.691641 221.782796 
L 344.2293 222.105969 
L 344.758257 221.982429 
L 345.925914 222.340211 
L 346.428314 221.336241 
L 346.923106 221.561247 
L 347.410518 216.622486 
L 347.890767 220.276111 
L 348.364061 221.659234 
L 348.830597 219.385691 
L 349.290567 220.748918 
L 349.744152 221.289583 
L 350.632861 223.081052 
L 351.068313 220.683424 
L 351.498039 222.878749 
L 351.922188 223.659009 
L 352.340902 223.015948 
L 352.754318 222.871412 
L 353.16257 221.723784 
L 353.565785 223.112097 
L 353.964085 219.960193 
L 354.357589 223.403526 
L 354.74641 223.216999 
L 355.13066 222.76574 
L 355.510444 223.87617 
L 355.885865 222.560403 
L 356.257022 223.331208 
L 356.624011 221.066925 
L 356.986924 220.004627 
L 357.345851 222.276585 
L 357.700879 225.48837 
L 358.052091 224.287197 
L 358.399568 219.645592 
L 358.74339 222.526225 
L 359.083631 207.9932 
L 359.173416 213.277247 
L 359.509232 222.741864 
L 359.841633 217.591581 
L 360.170687 225.250518 
L 360.49646 214.064756 
L 360.819018 219.89031 
L 361.138423 219.391527 
L 361.454736 221.438661 
L 361.768017 225.019982 
L 362.078323 225.106635 
L 362.38571 221.787805 
L 362.690233 225.443017 
L 362.991944 221.64669 
L 363.290895 227.462825 
L 363.587136 225.186985 
L 363.880716 221.317547 
L 364.171682 226.094576 
L 364.460079 228.397389 
L 364.745954 226.787753 
L 365.02935 221.418508 
L 365.310309 229.609954 
L 365.588873 227.12869 
L 365.865083 227.22918 
L 366.138978 225.043804 
L 366.410596 224.250566 
L 366.679975 223.119972 
L 366.947151 222.813885 
L 367.212161 228.229718 
L 367.475039 215.239098 
L 367.994536 225.193503 
L 368.251219 214.134433 
L 368.505902 226.222903 
L 368.57322 204.021491 
L 368.825416 198.914441 
L 369.07568 217.382565 
L 369.324042 216.527031 
L 369.815174 222.833942 
L 370.058 225.54863 
L 370.299034 225.664882 
L 370.538304 226.099516 
L 370.775834 225.640673 
L 371.011651 219.786773 
L 371.245778 227.645213 
L 371.478239 214.05544 
L 371.709059 227.119697 
L 371.93826 223.824515 
L 372.165864 229.249691 
L 372.391894 229.984002 
L 372.616371 230.178378 
L 373.060752 224.487706 
L 373.280697 230.079736 
L 373.499171 223.309452 
L 373.716195 223.783796 
L 373.931786 219.174446 
L 374.145965 233.479983 
L 374.570157 229.357184 
L 374.780205 231.274285 
L 374.988913 231.045945 
L 375.196295 227.840418 
L 375.40237 229.414488 
L 375.607154 222.23848 
L 375.810662 229.059421 
L 375.864506 229.03952 
L 376.066423 227.786442 
L 376.2671 224.2572 
L 376.664794 234.105504 
L 376.861841 236.646893 
L 377.057706 237.002954 
L 377.445951 215.253532 
L 377.638357 224.47038 
L 377.829636 211.682441 
L 378.019803 233.645674 
L 378.208869 235.876707 
L 378.396848 235.553531 
L 378.583752 230.576936 
L 378.769593 233.055299 
L 378.954383 207.263029 
L 379.320857 232.303247 
L 379.502565 232.879787 
L 379.683267 210.933469 
L 380.041702 226.812861 
L 380.219456 228.332009 
L 380.396248 216.810348 
L 380.572089 224.797608 
L 380.746989 218.785887 
L 380.920958 226.312232 
L 381.094005 216.782598 
L 381.266141 215.721116 
L 381.437375 216.008776 
L 381.777175 236.357796 
L 381.82204 229.218151 
L 381.990393 223.677844 
L 382.157883 227.844742 
L 382.32452 222.925746 
L 382.655265 193.629787 
L 382.81939 206.060279 
L 382.982695 233.790202 
L 383.145189 226.654816 
L 383.306878 226.224348 
L 383.467771 232.769974 
L 383.627876 231.861789 
L 383.787201 229.108618 
L 383.945752 205.830725 
L 384.103538 222.421299 
L 384.260566 197.084758 
L 384.416842 202.613122 
L 384.572375 216.47949 
L 384.727171 208.708564 
L 384.881238 222.282846 
L 385.034581 188.615517 
L 385.187208 227.161704 
L 385.339126 232.202567 
L 385.490341 216.249617 
L 385.640859 233.990233 
L 385.790687 218.062588 
L 385.939832 237.767864 
L 386.088298 215.225051 
L 386.236094 237.540842 
L 386.383223 234.537498 
L 386.529694 222.592695 
L 386.675511 234.53281 
L 386.82068 194.200336 
L 386.859132 207.160024 
L 387.003489 224.54369 
L 387.432775 231.722683 
L 387.996521 236.776715 
L 388.550707 240.327876 
L 389.498477 244.046271 
L 389.631657 244.204856 
L 389.764295 245.029956 
L 389.896398 245.097839 
L 390.027969 245.708704 
L 390.159012 245.758511 
L 390.419533 246.561865 
L 390.677993 246.886771 
L 390.80646 246.940131 
L 390.934425 247.313088 
L 391.06189 247.313078 
L 391.18886 247.480116 
L 391.222503 240.096013 
L 391.348852 184.769148 
L 391.474714 199.185023 
L 391.600093 197.876018 
L 391.724993 200.927118 
L 391.97337 218.54381 
L 392.096854 208.594423 
L 392.219873 220.477568 
L 392.342431 203.068322 
L 392.586177 225.085729 
L 392.707371 225.224217 
L 392.828117 215.987221 
L 392.948419 219.615702 
L 393.06828 219.069595 
L 393.187703 223.334412 
L 393.306691 207.901877 
L 393.425247 228.99938 
L 393.543374 221.90428 
L 393.661076 228.172438 
L 393.895217 220.647675 
L 394.01166 218.806001 
L 394.127691 226.408957 
L 394.358523 202.046917 
L 394.473331 202.295536 
L 394.587736 201.224379 
L 394.701743 204.707313 
L 394.92857 224.346239 
L 395.071299 209.76391 
L 395.295584 234.644248 
L 395.629151 235.780304 
L 395.959348 236.523298 
L 396.286241 237.076012 
L 396.394483 236.896938 
L 396.609897 237.244199 
L 396.717074 237.379475 
L 396.8239 237.215686 
L 397.036511 237.579692 
L 397.1423 237.616573 
L 397.352857 237.899938 
L 397.457628 237.95907 
L 397.562065 237.493274 
L 397.769942 238.027349 
L 397.873387 238.176277 
L 398.0793 238.047976 
L 398.283923 238.415733 
L 398.385756 238.361419 
L 398.487273 238.162478 
L 398.487273 238.162478 
" clip-path="url(#p2f7674a520)" style="fill: none; stroke: #1f77b4; stroke-opacity: 0.2; stroke-width: 1.5; stroke-linecap: square"/>
   </g>
   <g id="line2d_100">
    <path d="M 73.832727 100.307404 
L 210.246954 172.686396 
L 232.645868 175.774342 
L 245.811455 177.447285 
L 255.17022 180.538854 
L 262.436857 189.169535 
L 268.377946 198.567045 
L 273.403287 198.567045 
L 277.757842 200.893972 
L 281.599779 200.893972 
L 285.037177 204.775252 
L 290.98674 204.775252 
L 293.599176 209.052697 
L 302.356505 209.052697 
L 304.22271 215.160696 
L 307.662938 215.160696 
L 309.25613 215.911995 
L 323.282563 215.911995 
L 324.279517 221.241241 
L 325.246954 221.864874 
L 326.186573 222.031132 
L 332.865082 222.136572 
L 335.055134 222.186032 
L 341.447921 222.221459 
L 342.589034 222.537511 
L 344.2293 222.581077 
L 350.191527 222.581077 
L 350.632861 223.081052 
L 351.498039 223.081052 
L 351.922188 223.659009 
L 355.13066 223.659009 
L 355.510444 223.87617 
L 357.345851 223.87617 
L 357.700879 225.48837 
L 362.991944 225.48837 
L 363.290895 227.462825 
L 364.171682 227.462825 
L 364.460079 228.397389 
L 365.02935 228.397389 
L 365.310309 229.609954 
L 372.165864 229.609954 
L 372.616371 230.178378 
L 373.931786 230.178378 
L 374.145965 233.479983 
L 376.466552 233.479983 
L 376.664794 234.105504 
L 376.861841 236.646893 
L 377.057706 237.002954 
L 385.790687 237.002954 
L 385.939832 237.767864 
L 388.135951 237.872579 
L 388.824315 241.661016 
L 388.960264 241.979513 
L 389.364753 243.611942 
L 390.027969 245.708704 
L 390.159012 245.758511 
L 390.419533 246.561865 
L 390.677993 246.886771 
L 390.80646 246.940131 
L 390.934425 247.313088 
L 391.06189 247.313088 
L 391.222503 247.480116 
L 398.487273 247.480116 
L 398.487273 247.480116 
" clip-path="url(#p2f7674a520)" style="fill: none; stroke: #1f77b4; stroke-opacity: 0.9; stroke-linecap: square"/>
   </g>
   <g id="line2d_101">
    <path d="M 73.832727 132.985235 
L 96.483989 142.818219 
L 109.734127 147.792479 
L 119.13525 142.632848 
L 126.427327 142.687406 
L 132.385388 142.782898 
L 137.422857 142.889775 
L 141.786511 142.988578 
L 145.635527 143.099541 
L 149.078588 143.236956 
L 152.193217 143.394609 
L 155.036649 143.525279 
L 157.652354 143.62173 
L 160.074118 143.745973 
L 162.328727 143.911695 
L 164.437772 144.007277 
L 166.418916 144.12826 
L 168.286788 144.212832 
L 170.053643 144.261749 
L 171.72985 144.401987 
L 173.324257 144.561882 
L 174.844478 144.692922 
L 176.297111 144.819894 
L 177.687911 144.950979 
L 179.021927 145.106997 
L 180.303615 145.252488 
L 181.536926 145.417097 
L 182.72538 145.557415 
L 183.872124 145.713315 
L 184.979988 145.833212 
L 186.051522 145.997512 
L 187.089034 146.155112 
L 188.094616 146.288622 
L 189.070177 146.427982 
L 190.017457 146.556765 
L 190.938049 146.689213 
L 191.833416 146.854805 
L 192.704904 146.936616 
L 193.553754 146.961349 
L 195.188037 147.256877 
L 198.948372 147.988216 
L 201.673188 148.527323 
L 204.787817 149.261187 
L 208.171408 150.100426 
L 211.237298 151.041595 
L 214.040061 151.782218 
L 217.032372 152.547705 
L 220.147 153.564045 
L 223.329077 154.747673 
L 226.535457 156.0832 
L 229.733273 157.750275 
L 232.645868 159.327154 
L 235.783517 161.130963 
L 239.065088 163.301831 
L 242.04699 165.685694 
L 245.127056 168.163781 
L 248.257399 170.95972 
L 251.40058 173.769353 
L 254.528179 176.787578 
L 257.619221 180.464436 
L 260.766008 184.34154 
L 263.831898 188.07205 
L 266.990837 191.123959 
L 270.113515 195.897213 
L 273.18421 200.030218 
L 276.325472 202.098011 
L 279.434049 207.870629 
L 282.548677 213.36481 
L 285.643294 216.17615 
L 288.744271 218.485985 
L 291.867173 220.666801 
L 294.981801 224.353657 
L 298.099848 229.213639 
L 301.195826 225.595908 
L 304.335884 224.831362 
L 307.432533 226.05033 
L 310.54249 220.74762 
L 313.659242 226.299381 
L 316.7758 233.824226 
L 319.885164 238.327692 
L 323.012554 239.903283 
L 326.128632 257.053222 
L 329.237988 259.843834 
L 332.353814 262.192961 
L 335.460816 264.523389 
L 338.576434 264.671286 
L 341.691963 262.323399 
L 344.80741 261.78843 
L 347.92055 262.986522 
L 351.034502 264.772633 
L 354.14913 262.850869 
L 357.267672 267.984419 
L 360.379759 270.466247 
L 363.494849 268.287114 
L 366.608637 270.885774 
L 369.723647 274.946514 
L 372.839317 274.169528 
L 375.952998 277.204878 
L 379.066479 274.322077 
L 382.181368 277.302266 
L 385.296471 270.23319 
L 388.410883 275.28973 
L 391.525707 282.750259 
L 394.639445 267.675582 
L 397.753749 279.64981 
" clip-path="url(#p2f7674a520)" style="fill: none; stroke-dasharray: 5.55,2.4; stroke-dashoffset: 0; stroke: #ff7f0e; stroke-opacity: 0.4; stroke-width: 1.5"/>
   </g>
   <g id="line2d_102">
    <path d="M 73.832727 142.904942 
L 210.246954 175.110171 
L 232.645868 177.156509 
L 245.811455 179.266334 
L 255.17022 183.955711 
L 262.436857 190.152312 
L 268.377946 190.175921 
L 273.403287 186.982307 
L 277.757842 189.784148 
L 281.599779 192.083003 
L 285.037177 188.442888 
L 288.14717 199.194351 
L 290.98674 195.171783 
L 293.599176 203.568736 
L 296.018137 202.706016 
L 298.270317 192.744477 
L 300.377237 199.543473 
L 302.356505 202.524172 
L 304.22271 202.954229 
L 305.988074 201.421999 
L 307.662938 189.258616 
L 309.25613 193.477208 
L 310.775247 203.294604 
L 312.226871 198.215098 
L 313.616747 204.564014 
L 314.949913 199.145542 
L 316.230816 207.471631 
L 317.4634 177.537182 
L 318.651178 209.552966 
L 319.797294 201.175387 
L 320.904571 205.992807 
L 321.975557 209.757384 
L 323.282563 211.789995 
L 324.279517 213.937416 
L 325.246954 214.353359 
L 327.099928 214.645816 
L 328.853448 214.54395 
L 329.696141 214.955903 
L 332.101188 215.200992 
L 332.865082 215.166029 
L 334.341301 215.292249 
L 335.753707 215.465277 
L 336.437658 215.34422 
L 337.107588 215.565602 
L 338.407602 215.549686 
L 339.657873 215.733598 
L 340.265516 215.687069 
L 340.862066 215.777317 
L 341.447921 215.696688 
L 342.589034 215.958001 
L 343.144988 215.862269 
L 344.2293 215.919077 
L 344.758257 215.821619 
L 345.278787 216.086159 
L 345.791156 215.861262 
L 345.925914 215.635194 
L 346.923106 216.33409 
L 347.410518 215.880731 
L 347.890767 215.062497 
L 348.364061 216.560206 
L 348.830597 216.442185 
L 349.290567 216.465919 
L 349.744152 216.277058 
L 350.191527 216.783485 
L 350.632861 216.53911 
L 351.068313 216.496961 
L 351.498039 216.944292 
L 351.922188 216.614861 
L 352.340902 217.099429 
L 353.16257 217.421425 
L 353.964085 217.009005 
L 354.74641 216.941966 
L 355.13066 217.433187 
L 355.510444 217.530182 
L 355.885865 217.469875 
L 356.257022 217.677102 
L 356.624011 216.762495 
L 356.986924 216.968096 
L 357.345851 218.005477 
L 357.700879 217.874968 
L 358.052091 217.978565 
L 358.399568 217.311421 
L 358.74339 217.926744 
L 359.083631 217.755689 
L 359.173416 217.420322 
L 359.841633 218.135455 
L 360.170687 216.330786 
L 360.49646 217.883757 
L 360.819018 218.223257 
L 361.138423 217.981716 
L 361.768017 218.526818 
L 362.078323 217.382991 
L 362.38571 218.86531 
L 362.991944 218.64493 
L 363.290895 216.929817 
L 363.587136 216.779369 
L 363.880716 218.323356 
L 364.171682 219.009557 
L 364.460079 218.76558 
L 364.745954 219.254201 
L 365.310309 218.253212 
L 365.588873 215.11224 
L 365.865083 219.651067 
L 366.138978 216.941305 
L 366.410596 219.066937 
L 366.679975 219.808264 
L 366.947151 216.999349 
L 367.212161 218.09232 
L 367.475039 218.361036 
L 368.251219 220.120562 
L 368.505902 220.03926 
L 368.825416 218.092994 
L 369.07568 218.804074 
L 369.324042 220.081767 
L 369.570531 218.372325 
L 369.815174 219.822029 
L 370.058 219.346284 
L 370.299034 220.421521 
L 370.538304 219.216844 
L 370.775834 218.866571 
L 371.011651 220.92306 
L 371.245778 220.929268 
L 371.478239 221.248558 
L 371.709059 220.917545 
L 371.93826 218.253823 
L 372.165864 220.248364 
L 372.616371 218.925519 
L 372.839317 221.168974 
L 373.060752 218.315772 
L 373.280697 221.284366 
L 373.499171 212.079065 
L 373.716195 220.385769 
L 373.931786 220.363064 
L 374.145965 218.110579 
L 374.358749 218.997878 
L 374.570157 221.378461 
L 374.780205 221.031422 
L 375.196295 221.199699 
L 375.40237 221.998596 
L 375.607154 221.758024 
L 375.810662 221.930721 
L 375.864506 222.310098 
L 376.066423 219.01119 
L 376.2671 213.23331 
L 376.466552 215.131054 
L 376.664794 221.680602 
L 376.861841 221.03021 
L 377.057706 221.99414 
L 377.252405 218.269295 
L 377.445951 221.754615 
L 377.638357 222.570147 
L 377.829636 216.862229 
L 378.019803 222.568673 
L 378.208869 222.941084 
L 378.396848 211.671586 
L 378.583752 221.702099 
L 378.954383 214.700228 
L 379.320857 221.658085 
L 379.502565 220.600405 
L 379.683267 220.688366 
L 379.862976 218.850011 
L 380.041702 222.179066 
L 380.219456 217.99505 
L 380.396248 218.402029 
L 380.572089 223.652078 
L 380.746989 222.62263 
L 381.094005 213.837442 
L 381.266141 217.18192 
L 381.437375 223.002559 
L 381.607717 223.518112 
L 381.777175 218.409247 
L 381.82204 222.699507 
L 381.990393 222.186022 
L 382.157883 222.992481 
L 382.32452 222.283402 
L 382.655265 224.666567 
L 382.81939 222.732772 
L 382.982695 223.622051 
L 383.145189 222.88384 
L 383.467771 223.838475 
L 383.627876 223.598217 
L 383.787201 221.247674 
L 383.945752 221.372013 
L 384.103538 224.062335 
L 384.416842 222.194388 
L 384.572375 223.540406 
L 384.881238 220.994693 
L 385.034581 223.528867 
L 385.187208 220.311315 
L 385.339126 222.109341 
L 385.490341 221.24313 
L 385.640859 223.910943 
L 386.088298 214.053127 
L 386.236094 224.390878 
L 386.529694 219.008271 
L 386.675511 224.464042 
L 386.82068 225.348444 
L 386.859132 223.845224 
L 387.003489 224.011283 
L 387.147212 221.800017 
L 387.432775 224.517931 
L 387.574626 220.356141 
L 387.715863 209.422415 
L 387.856493 220.367757 
L 387.996521 216.048696 
L 388.135951 222.619385 
L 388.274789 216.089133 
L 388.550707 224.426643 
L 388.687797 206.629419 
L 388.824315 222.870129 
L 388.960264 216.459792 
L 389.230479 223.649046 
L 389.364753 222.345438 
L 389.498477 224.662008 
L 389.631657 223.261741 
L 389.764295 220.087928 
L 389.896398 224.593226 
L 390.159012 225.876047 
L 390.289532 222.485635 
L 390.419533 223.631681 
L 390.549018 221.337715 
L 390.80646 224.679075 
L 390.934425 224.764867 
L 391.06189 221.185833 
L 391.18886 223.187317 
L 391.222503 225.606849 
L 391.348852 224.121977 
L 391.474714 224.18602 
L 391.600093 226.035652 
L 391.724993 224.406674 
L 391.849418 225.482578 
L 391.97337 217.03786 
L 392.096854 226.801197 
L 392.219873 220.62137 
L 392.342431 223.801934 
L 392.464531 223.063262 
L 392.586177 225.30253 
L 392.828117 223.284275 
L 392.948419 226.447824 
L 393.187703 217.233681 
L 393.425247 226.24505 
L 393.543374 210.10917 
L 393.661076 224.11169 
L 393.778356 222.63406 
L 393.895217 226.711702 
L 394.127691 223.941524 
L 394.243311 225.867088 
L 394.358523 224.128657 
L 394.473331 206.69624 
L 394.587736 217.285717 
L 394.701743 215.359178 
L 394.815353 225.362291 
L 394.92857 224.933429 
L 395.041395 221.245948 
L 395.071299 209.694867 
L 395.183634 223.01089 
L 395.295584 222.809388 
L 395.407152 219.094401 
L 395.51834 220.558254 
L 395.629151 226.641359 
L 395.959348 223.83261 
L 396.068676 219.409836 
L 396.17764 222.892691 
L 396.286241 208.473358 
L 396.394483 225.712884 
L 396.609897 217.603032 
L 396.8239 226.117037 
L 396.930379 225.610108 
L 397.036511 224.416514 
L 397.1423 225.5614 
L 397.247748 224.326827 
L 397.352857 217.234373 
L 397.562065 224.448504 
L 397.666169 219.697792 
L 397.769942 224.958772 
L 397.873387 224.565139 
L 397.976505 226.949242 
L 398.283923 222.82699 
L 398.385756 224.222623 
L 398.487273 224.194205 
" clip-path="url(#p2f7674a520)" style="fill: none; stroke: #ff7f0e; stroke-opacity: 0.2; stroke-width: 1.5; stroke-linecap: square"/>
   </g>
   <g id="line2d_103">
    <path d="M 73.832727 142.904942 
L 210.246954 175.110171 
L 232.645868 177.156509 
L 245.811455 179.266334 
L 255.17022 183.955711 
L 262.436857 190.152312 
L 277.757842 190.175921 
L 281.599779 192.083003 
L 285.037177 192.083003 
L 288.14717 199.194351 
L 290.98674 199.194351 
L 293.599176 203.568736 
L 312.226871 203.568736 
L 313.616747 204.564014 
L 314.949913 204.564014 
L 316.230816 207.471631 
L 317.4634 207.471631 
L 318.651178 209.552966 
L 320.904571 209.552966 
L 321.975557 209.757384 
L 323.282563 211.789995 
L 324.279517 213.937416 
L 325.246954 214.353359 
L 327.099928 214.645816 
L 328.853448 214.645816 
L 329.696141 214.955903 
L 332.101188 215.200992 
L 334.341301 215.292249 
L 340.265516 215.733598 
L 346.428314 216.086159 
L 346.923106 216.33409 
L 347.890767 216.33409 
L 348.364061 216.560206 
L 349.744152 216.560206 
L 350.191527 216.783485 
L 351.068313 216.783485 
L 351.498039 216.944292 
L 351.922188 216.944292 
L 353.16257 217.421425 
L 355.885865 217.530182 
L 356.257022 217.677102 
L 356.986924 217.677102 
L 357.345851 218.005477 
L 359.509232 218.005477 
L 359.841633 218.135455 
L 361.454736 218.223257 
L 361.768017 218.526818 
L 362.078323 218.526818 
L 362.38571 218.86531 
L 363.880716 218.86531 
L 364.171682 219.009557 
L 364.460079 219.009557 
L 364.745954 219.254201 
L 365.588873 219.254201 
L 365.865083 219.651067 
L 366.410596 219.651067 
L 366.679975 219.808264 
L 367.994536 219.808264 
L 368.251219 220.120562 
L 370.058 220.120562 
L 370.299034 220.421521 
L 370.775834 220.421521 
L 371.011651 220.92306 
L 371.245778 220.929268 
L 371.478239 221.248558 
L 374.358749 221.284366 
L 374.780205 221.378461 
L 375.196295 221.378461 
L 375.40237 221.998596 
L 375.810662 221.998596 
L 375.864506 222.310098 
L 377.445951 222.310098 
L 377.638357 222.570147 
L 378.019803 222.570147 
L 378.208869 222.941084 
L 380.396248 222.941084 
L 380.572089 223.652078 
L 382.490311 223.652078 
L 382.655265 224.666567 
L 386.675511 224.666567 
L 386.859132 225.348444 
L 390.027969 225.348444 
L 390.159012 225.876047 
L 391.474714 225.876047 
L 391.724993 226.035652 
L 391.97337 226.035652 
L 392.096854 226.801197 
L 397.873387 226.801197 
L 398.0793 226.949242 
L 398.487273 226.949242 
L 398.487273 226.949242 
" clip-path="url(#p2f7674a520)" style="fill: none; stroke: #ff7f0e; stroke-opacity: 0.9; stroke-linecap: square"/>
   </g>
   <g id="line2d_104">
    <path d="M 73.832727 130.092271 
L 96.483989 138.683099 
L 109.734127 149.011377 
L 119.13525 143.594626 
L 126.427327 143.56134 
L 132.385388 143.63544 
L 137.422857 143.762957 
L 141.786511 143.871532 
L 145.635527 143.952109 
L 149.078588 144.043354 
L 152.193217 144.210918 
L 155.036649 144.348229 
L 157.652354 144.434053 
L 160.074118 144.539233 
L 162.328727 144.688656 
L 164.437772 144.756289 
L 166.418916 144.884547 
L 168.286788 144.97272 
L 170.053643 145.002214 
L 171.72985 145.123 
L 173.324257 145.281445 
L 174.844478 145.40766 
L 176.297111 145.550142 
L 177.687911 145.681507 
L 179.021927 145.820835 
L 180.303615 145.975386 
L 181.536926 146.146033 
L 182.72538 146.291599 
L 183.872124 146.447174 
L 184.979988 146.559552 
L 186.051522 146.723031 
L 187.089034 146.896831 
L 188.094616 147.032145 
L 189.070177 147.173806 
L 190.017457 147.302843 
L 190.938049 147.437832 
L 191.833416 147.608588 
L 192.704904 147.705903 
L 193.553754 147.740914 
L 195.188037 148.044298 
L 198.948372 148.787141 
L 201.673188 149.344641 
L 204.787817 150.090421 
L 208.171408 150.938028 
L 211.237298 151.882461 
L 214.040061 152.684182 
L 217.032372 153.519572 
L 220.147 154.621814 
L 223.329077 155.89605 
L 226.535457 157.308653 
L 229.733273 158.99249 
L 232.645868 160.673585 
L 235.783517 162.628569 
L 239.065088 164.860397 
L 242.04699 167.202765 
L 245.127056 169.554801 
L 248.257399 172.584118 
L 251.40058 175.696333 
L 254.528179 179.429691 
L 257.619221 183.459574 
L 260.766008 188.049453 
L 263.831898 192.800073 
L 266.990837 194.253246 
L 270.113515 198.67746 
L 273.18421 203.544008 
L 276.325472 208.881564 
L 279.434049 215.544581 
L 282.548677 221.179388 
L 285.643294 224.947509 
L 288.744271 229.650737 
L 291.867173 229.565073 
L 294.981801 228.760519 
L 298.099848 234.926308 
L 301.195826 229.76016 
L 304.335884 230.123902 
L 307.432533 231.895545 
L 310.54249 220.808303 
L 313.659242 232.306585 
L 316.7758 239.368014 
L 319.885164 241.220543 
L 323.012554 244.939376 
L 326.128632 256.465119 
L 329.237988 256.583538 
L 332.353814 269.499935 
L 335.460816 272.471616 
L 338.576434 271.499058 
L 341.691963 269.934537 
L 344.80741 268.699998 
L 347.92055 265.721549 
L 351.034502 272.171914 
L 354.14913 264.710253 
L 357.267672 275.965574 
L 360.379759 280.992922 
L 363.494849 273.155718 
L 366.608637 280.437052 
L 369.723647 280.26206 
L 372.839317 277.339691 
L 375.952998 281.927819 
L 379.066479 283.151638 
L 382.181368 277.953701 
L 385.296471 266.707589 
L 388.410883 286.178062 
L 391.525707 255.080538 
L 394.639445 256.989973 
L 397.753749 289.667479 
" clip-path="url(#p2f7674a520)" style="fill: none; stroke-dasharray: 5.55,2.4; stroke-dashoffset: 0; stroke: #2ca02c; stroke-opacity: 0.4; stroke-width: 1.5"/>
   </g>
   <g id="line2d_105">
    <path d="M 73.832727 143.653463 
L 210.246954 174.847253 
L 232.645868 181.22844 
L 245.811455 184.360072 
L 255.17022 178.79404 
L 262.436857 196.126496 
L 268.377946 191.4718 
L 273.403287 199.158294 
L 277.757842 200.629754 
L 281.599779 195.473041 
L 285.037177 195.714553 
L 288.14717 197.175914 
L 290.98674 195.323282 
L 293.599176 203.023017 
L 296.018137 201.547495 
L 298.270317 205.510653 
L 300.377237 200.971914 
L 302.356505 202.903618 
L 304.22271 185.71585 
L 305.988074 193.426876 
L 307.662938 199.027306 
L 309.25613 202.730949 
L 310.775247 203.584431 
L 312.226871 189.097034 
L 313.616747 210.777586 
L 314.949913 203.681913 
L 316.230816 201.465214 
L 317.4634 212.405094 
L 318.651178 198.105652 
L 319.797294 193.359892 
L 320.904571 200.238445 
L 321.975557 211.555183 
L 323.012554 212.491681 
L 323.282563 210.380451 
L 324.279517 216.670863 
L 326.186573 217.443194 
L 327.988448 217.935303 
L 329.696141 218.257481 
L 331.319009 218.603563 
L 332.101188 218.825626 
L 333.611527 218.908757 
L 335.753707 219.245079 
L 337.764059 219.285436 
L 338.407602 219.459899 
L 343.691641 219.757903 
L 344.2293 219.673032 
L 344.758257 219.868519 
L 345.278787 219.927314 
L 345.791156 219.69748 
L 345.925914 218.930277 
L 346.428314 219.535785 
L 346.923106 219.840687 
L 347.410518 219.769397 
L 347.890767 220.206069 
L 348.364061 219.109665 
L 348.830597 220.005171 
L 349.744152 220.873317 
L 350.191527 214.951892 
L 350.632861 220.180186 
L 351.068313 220.856888 
L 351.498039 220.865441 
L 351.922188 219.174977 
L 352.340902 220.722485 
L 352.754318 219.625387 
L 353.16257 219.839947 
L 353.565785 221.818945 
L 353.964085 221.042471 
L 354.357589 216.127559 
L 354.74641 221.64965 
L 355.13066 217.831597 
L 355.510444 221.497943 
L 355.885865 222.246831 
L 356.257022 221.490704 
L 356.624011 216.115753 
L 356.986924 221.375496 
L 357.345851 222.283649 
L 357.700879 222.350142 
L 358.399568 218.674634 
L 358.74339 221.892053 
L 359.173416 222.081966 
L 359.509232 222.239879 
L 359.841633 222.680211 
L 360.170687 221.633646 
L 360.819018 222.984908 
L 361.138423 222.470059 
L 361.454736 221.437811 
L 361.768017 219.256125 
L 362.078323 223.149559 
L 362.38571 222.840636 
L 362.690233 219.974721 
L 362.991944 220.365735 
L 363.290895 223.593657 
L 363.587136 217.559768 
L 363.880716 222.773813 
L 364.171682 221.48408 
L 364.460079 223.79507 
L 364.745954 223.367533 
L 365.310309 224.3015 
L 365.588873 223.328397 
L 365.865083 220.445323 
L 366.138978 222.890922 
L 366.410596 220.50417 
L 366.679975 223.133972 
L 367.212161 218.743834 
L 367.73582 223.433833 
L 367.994536 223.891824 
L 368.251219 224.807356 
L 368.505902 223.239222 
L 368.57322 223.955711 
L 368.825416 216.3701 
L 369.07568 224.596526 
L 369.570531 221.400768 
L 369.815174 223.42242 
L 370.058 221.93507 
L 370.299034 224.872399 
L 370.538304 217.86416 
L 370.775834 225.557309 
L 371.011651 215.925816 
L 371.245778 225.276366 
L 371.478239 225.146553 
L 371.709059 224.386319 
L 371.93826 225.263455 
L 372.165864 225.463535 
L 372.391894 225.920141 
L 372.616371 224.644882 
L 372.839317 225.552902 
L 373.060752 223.437606 
L 373.280697 217.356371 
L 373.499171 225.582301 
L 373.716195 225.304009 
L 374.145965 224.207854 
L 374.358749 219.687438 
L 374.570157 225.520779 
L 374.780205 225.928644 
L 375.196295 222.418225 
L 375.40237 226.352339 
L 375.607154 221.224323 
L 375.810662 222.875979 
L 375.864506 217.514906 
L 376.066423 227.422549 
L 376.2671 226.16704 
L 376.466552 227.572292 
L 376.664794 225.627981 
L 376.861841 227.19327 
L 377.057706 226.626285 
L 377.252405 217.67748 
L 377.445951 225.805131 
L 377.638357 225.647409 
L 377.829636 227.095929 
L 378.019803 222.759215 
L 378.208869 224.909697 
L 378.583752 224.22302 
L 378.769593 227.695285 
L 378.954383 226.754094 
L 379.138134 226.449816 
L 379.320857 226.548612 
L 379.502565 227.242074 
L 379.683267 227.326814 
L 379.862976 228.063542 
L 380.041702 228.18068 
L 380.219456 221.054064 
L 380.396248 227.68065 
L 380.572089 226.946989 
L 380.746989 227.699249 
L 381.094005 221.771889 
L 381.266141 227.408094 
L 381.437375 223.276076 
L 381.607717 227.792179 
L 381.777175 226.409954 
L 381.82204 220.83336 
L 381.990393 219.179822 
L 382.32452 226.804541 
L 382.490311 216.788972 
L 382.655265 222.116245 
L 382.81939 215.896196 
L 382.982695 227.043781 
L 383.145189 224.161595 
L 383.306878 216.133458 
L 383.467771 224.132414 
L 383.627876 219.016301 
L 383.787201 226.571896 
L 383.945752 227.840984 
L 384.260566 218.600014 
L 384.416842 226.021851 
L 384.572375 225.2887 
L 384.881238 205.539643 
L 385.034581 223.0474 
L 385.187208 214.342124 
L 385.339126 226.145167 
L 385.490341 217.668958 
L 385.790687 224.146568 
L 385.939832 228.230921 
L 386.088298 226.248733 
L 386.236094 228.750857 
L 386.383223 228.355473 
L 386.529694 224.613337 
L 386.675511 228.742686 
L 386.82068 223.348961 
L 386.859132 223.784696 
L 387.003489 229.748623 
L 387.147212 229.300138 
L 387.290305 229.962443 
L 387.432775 229.392325 
L 387.574626 227.393199 
L 387.715863 229.638999 
L 387.856493 229.291671 
L 387.996521 230.106626 
L 388.413039 229.415604 
L 388.550707 228.270583 
L 388.687797 229.096212 
L 388.824315 227.156 
L 388.960264 230.293736 
L 389.095651 228.203631 
L 389.230479 230.456807 
L 389.364753 230.25341 
L 389.631657 228.438795 
L 389.764295 230.285603 
L 389.896398 230.110114 
L 390.027969 222.751753 
L 390.159012 229.845419 
L 390.289532 226.422536 
L 390.419533 229.348834 
L 390.549018 228.352814 
L 390.677993 224.787101 
L 390.80646 229.446549 
L 390.934425 227.742041 
L 391.06189 228.876513 
L 391.348852 218.258989 
L 391.600093 227.192447 
L 391.724993 227.514434 
L 391.849418 227.513508 
L 391.97337 219.778908 
L 392.096854 225.956519 
L 392.219873 226.398934 
L 392.464531 221.087059 
L 392.586177 222.850732 
L 392.707371 226.996433 
L 392.828117 219.333146 
L 392.948419 228.380075 
L 393.06828 219.706198 
L 393.187703 227.823413 
L 393.425247 225.363455 
L 393.543374 229.294098 
L 393.661076 226.806898 
L 393.778356 228.466478 
L 394.127691 222.665983 
L 394.243311 227.948379 
L 394.358523 225.462243 
L 394.473331 219.10232 
L 394.587736 220.71682 
L 394.92857 227.750062 
L 395.041395 223.701554 
L 395.183634 229.155564 
L 395.407152 228.027419 
L 395.51834 229.620668 
L 395.629151 228.9168 
L 395.739588 230.086139 
L 395.849652 223.118906 
L 395.959348 228.997387 
L 396.068676 225.361081 
L 396.286241 228.922458 
L 396.394483 228.765427 
L 396.502367 229.087172 
L 396.609897 229.84784 
L 396.8239 225.168916 
L 397.036511 230.449731 
L 397.1423 227.834786 
L 397.247748 217.379032 
L 397.457628 229.854934 
L 397.562065 230.121369 
L 397.666169 227.015842 
L 397.769942 231.016151 
L 397.873387 229.6414 
L 397.976505 226.129173 
L 398.0793 230.477219 
L 398.181771 229.365249 
L 398.283923 231.226489 
L 398.385756 229.069094 
L 398.487273 229.456035 
L 398.487273 229.456035 
" clip-path="url(#p2f7674a520)" style="fill: none; stroke: #2ca02c; stroke-opacity: 0.2; stroke-width: 1.5; stroke-linecap: square"/>
   </g>
   <g id="line2d_106">
    <path d="M 73.832727 143.653463 
L 210.246954 174.847253 
L 232.645868 181.22844 
L 245.811455 184.360072 
L 255.17022 184.360072 
L 262.436857 196.126496 
L 268.377946 196.126496 
L 273.403287 199.158294 
L 277.757842 200.629754 
L 290.98674 200.629754 
L 293.599176 203.023017 
L 296.018137 203.023017 
L 298.270317 205.510653 
L 312.226871 205.510653 
L 313.616747 210.777586 
L 316.230816 210.777586 
L 317.4634 212.405094 
L 323.282563 212.491681 
L 324.279517 216.670863 
L 326.186573 217.443194 
L 327.988448 217.935303 
L 329.696141 218.257481 
L 331.319009 218.603563 
L 332.101188 218.825626 
L 333.611527 218.908757 
L 335.753707 219.245079 
L 337.764059 219.343576 
L 339.038717 219.496717 
L 347.410518 219.927314 
L 347.890767 220.206069 
L 348.830597 220.206069 
L 349.290567 220.409752 
L 349.744152 220.873317 
L 353.16257 220.873317 
L 353.565785 221.818945 
L 355.510444 221.818945 
L 355.885865 222.246831 
L 359.509232 222.350142 
L 359.841633 222.680211 
L 360.49646 222.680211 
L 360.819018 222.984908 
L 361.768017 222.984908 
L 362.078323 223.149559 
L 362.991944 223.149559 
L 363.290895 223.593657 
L 364.171682 223.593657 
L 364.460079 223.79507 
L 365.02935 223.833516 
L 365.310309 224.3015 
L 367.994536 224.3015 
L 368.251219 224.807356 
L 370.538304 224.872399 
L 370.775834 225.557309 
L 372.165864 225.557309 
L 372.391894 225.920141 
L 375.196295 225.928644 
L 375.40237 226.352339 
L 375.864506 226.352339 
L 376.066423 227.422549 
L 376.2671 227.422549 
L 376.466552 227.572292 
L 378.583752 227.572292 
L 378.954383 227.695285 
L 379.683267 227.695285 
L 380.041702 228.18068 
L 386.088298 228.230921 
L 386.236094 228.750857 
L 386.859132 228.750857 
L 387.003489 229.748623 
L 387.147212 229.748623 
L 387.290305 229.962443 
L 387.856493 229.962443 
L 388.135951 230.106626 
L 388.824315 230.106626 
L 389.095651 230.293736 
L 389.364753 230.456807 
L 397.666169 230.456807 
L 397.873387 231.016151 
L 398.181771 231.016151 
L 398.385756 231.226489 
L 398.487273 231.226489 
L 398.487273 231.226489 
" clip-path="url(#p2f7674a520)" style="fill: none; stroke: #2ca02c; stroke-opacity: 0.9; stroke-linecap: square"/>
   </g>
   <g id="patch_3">
    <path d="M 57.6 307.584 
L 57.6 41.472 
" style="fill: none; stroke: #000000; stroke-width: 0.8; stroke-linejoin: miter; stroke-linecap: square"/>
   </g>
   <g id="patch_4">
    <path d="M 414.72 307.584 
L 414.72 41.472 
" style="fill: none; stroke: #000000; stroke-width: 0.8; stroke-linejoin: miter; stroke-linecap: square"/>
   </g>
   <g id="patch_5">
    <path d="M 57.6 307.584 
L 414.72 307.584 
" style="fill: none; stroke: #000000; stroke-width: 0.8; stroke-linejoin: miter; stroke-linecap: square"/>
   </g>
   <g id="patch_6">
    <path d="M 57.6 41.472 
L 414.72 41.472 
" style="fill: none; stroke: #000000; stroke-width: 0.8; stroke-linejoin: miter; stroke-linecap: square"/>
   </g>
   <g id="text_14">
    <!-- 2025-02-18-14:17:14 -->
    <g transform="translate(172.178438 35.472) scale(0.12 -0.12)">
     <defs>
      <path id="DejaVuSans-35" d="M 691 4666 
L 3169 4666 
L 3169 4134 
L 1269 4134 
L 1269 2991 
Q 1406 3038 1543 3061 
Q 1681 3084 1819 3084 
Q 2600 3084 3056 2656 
Q 3513 2228 3513 1497 
Q 3513 744 3044 326 
Q 2575 -91 1722 -91 
Q 1428 -91 1123 -41 
Q 819 9 494 109 
L 494 744 
Q 775 591 1075 516 
Q 1375 441 1709 441 
Q 2250 441 2565 725 
Q 2881 1009 2881 1497 
Q 2881 1984 2565 2268 
Q 2250 2553 1709 2553 
Q 1456 2553 1204 2497 
Q 953 2441 691 2322 
L 691 4666 
z
" transform="scale(0.015625)"/>
      <path id="DejaVuSans-2d" d="M 313 2009 
L 1997 2009 
L 1997 1497 
L 313 1497 
L 313 2009 
z
" transform="scale(0.015625)"/>
      <path id="DejaVuSans-38" d="M 2034 2216 
Q 1584 2216 1326 1975 
Q 1069 1734 1069 1313 
Q 1069 891 1326 650 
Q 1584 409 2034 409 
Q 2484 409 2743 651 
Q 3003 894 3003 1313 
Q 3003 1734 2745 1975 
Q 2488 2216 2034 2216 
z
M 1403 2484 
Q 997 2584 770 2862 
Q 544 3141 544 3541 
Q 544 4100 942 4425 
Q 1341 4750 2034 4750 
Q 2731 4750 3128 4425 
Q 3525 4100 3525 3541 
Q 3525 3141 3298 2862 
Q 3072 2584 2669 2484 
Q 3125 2378 3379 2068 
Q 3634 1759 3634 1313 
Q 3634 634 3220 271 
Q 2806 -91 2034 -91 
Q 1263 -91 848 271 
Q 434 634 434 1313 
Q 434 1759 690 2068 
Q 947 2378 1403 2484 
z
M 1172 3481 
Q 1172 3119 1398 2916 
Q 1625 2713 2034 2713 
Q 2441 2713 2670 2916 
Q 2900 3119 2900 3481 
Q 2900 3844 2670 4047 
Q 2441 4250 2034 4250 
Q 1625 4250 1398 4047 
Q 1172 3844 1172 3481 
z
" transform="scale(0.015625)"/>
      <path id="DejaVuSans-3a" d="M 750 794 
L 1409 794 
L 1409 0 
L 750 0 
L 750 794 
z
M 750 3309 
L 1409 3309 
L 1409 2516 
L 750 2516 
L 750 3309 
z
" transform="scale(0.015625)"/>
      <path id="DejaVuSans-37" d="M 525 4666 
L 3525 4666 
L 3525 4397 
L 1831 0 
L 1172 0 
L 2766 4134 
L 525 4134 
L 525 4666 
z
" transform="scale(0.015625)"/>
     </defs>
     <use xlink:href="#DejaVuSans-32"/>
     <use xlink:href="#DejaVuSans-30" x="63.623047"/>
     <use xlink:href="#DejaVuSans-32" x="127.246094"/>
     <use xlink:href="#DejaVuSans-35" x="190.869141"/>
     <use xlink:href="#DejaVuSans-2d" x="254.492188"/>
     <use xlink:href="#DejaVuSans-30" x="290.576172"/>
     <use xlink:href="#DejaVuSans-32" x="354.199219"/>
     <use xlink:href="#DejaVuSans-2d" x="417.822266"/>
     <use xlink:href="#DejaVuSans-31" x="453.90625"/>
     <use xlink:href="#DejaVuSans-38" x="517.529297"/>
     <use xlink:href="#DejaVuSans-2d" x="581.152344"/>
     <use xlink:href="#DejaVuSans-31" x="617.236328"/>
     <use xlink:href="#DejaVuSans-34" x="680.859375"/>
     <use xlink:href="#DejaVuSans-3a" x="744.482422"/>
     <use xlink:href="#DejaVuSans-31" x="778.173828"/>
     <use xlink:href="#DejaVuSans-37" x="841.796875"/>
     <use xlink:href="#DejaVuSans-3a" x="905.419922"/>
     <use xlink:href="#DejaVuSans-31" x="939.111328"/>
     <use xlink:href="#DejaVuSans-34" x="1002.734375"/>
    </g>
   </g>
   <g id="legend_1">
    <g id="patch_7">
     <path d="M 281.596563 138.375125 
L 407.72 138.375125 
Q 409.72 138.375125 409.72 136.375125 
L 409.72 48.472 
Q 409.72 46.472 407.72 46.472 
L 281.596563 46.472 
Q 279.596563 46.472 279.596563 48.472 
L 279.596563 136.375125 
Q 279.596563 138.375125 281.596563 138.375125 
z
" style="fill: #ffffff; opacity: 0.8; stroke: #cccccc; stroke-linejoin: miter"/>
    </g>
    <g id="line2d_107">
     <path d="M 283.596563 54.570437 
L 293.596563 54.570437 
L 303.596563 54.570437 
" style="fill: none; stroke-dasharray: 5.55,2.4; stroke-dashoffset: 0; stroke: #1f77b4; stroke-opacity: 0.4; stroke-width: 1.5"/>
    </g>
    <g id="text_15">
     <!-- SchNet MEA -->
     <g transform="translate(311.596563 58.070437) scale(0.1 -0.1)">
      <defs>
       <path id="DejaVuSans-53" d="M 3425 4513 
L 3425 3897 
Q 3066 4069 2747 4153 
Q 2428 4238 2131 4238 
Q 1616 4238 1336 4038 
Q 1056 3838 1056 3469 
Q 1056 3159 1242 3001 
Q 1428 2844 1947 2747 
L 2328 2669 
Q 3034 2534 3370 2195 
Q 3706 1856 3706 1288 
Q 3706 609 3251 259 
Q 2797 -91 1919 -91 
Q 1588 -91 1214 -16 
Q 841 59 441 206 
L 441 856 
Q 825 641 1194 531 
Q 1563 422 1919 422 
Q 2459 422 2753 634 
Q 3047 847 3047 1241 
Q 3047 1584 2836 1778 
Q 2625 1972 2144 2069 
L 1759 2144 
Q 1053 2284 737 2584 
Q 422 2884 422 3419 
Q 422 4038 858 4394 
Q 1294 4750 2059 4750 
Q 2388 4750 2728 4690 
Q 3069 4631 3425 4513 
z
" transform="scale(0.015625)"/>
       <path id="DejaVuSans-63" d="M 3122 3366 
L 3122 2828 
Q 2878 2963 2633 3030 
Q 2388 3097 2138 3097 
Q 1578 3097 1268 2742 
Q 959 2388 959 1747 
Q 959 1106 1268 751 
Q 1578 397 2138 397 
Q 2388 397 2633 464 
Q 2878 531 3122 666 
L 3122 134 
Q 2881 22 2623 -34 
Q 2366 -91 2075 -91 
Q 1284 -91 818 406 
Q 353 903 353 1747 
Q 353 2603 823 3093 
Q 1294 3584 2113 3584 
Q 2378 3584 2631 3529 
Q 2884 3475 3122 3366 
z
" transform="scale(0.015625)"/>
       <path id="DejaVuSans-68" d="M 3513 2113 
L 3513 0 
L 2938 0 
L 2938 2094 
Q 2938 2591 2744 2837 
Q 2550 3084 2163 3084 
Q 1697 3084 1428 2787 
Q 1159 2491 1159 1978 
L 1159 0 
L 581 0 
L 581 4863 
L 1159 4863 
L 1159 2956 
Q 1366 3272 1645 3428 
Q 1925 3584 2291 3584 
Q 2894 3584 3203 3211 
Q 3513 2838 3513 2113 
z
" transform="scale(0.015625)"/>
       <path id="DejaVuSans-4e" d="M 628 4666 
L 1478 4666 
L 3547 763 
L 3547 4666 
L 4159 4666 
L 4159 0 
L 3309 0 
L 1241 3903 
L 1241 0 
L 628 0 
L 628 4666 
z
" transform="scale(0.015625)"/>
       <path id="DejaVuSans-20" transform="scale(0.015625)"/>
       <path id="DejaVuSans-4d" d="M 628 4666 
L 1569 4666 
L 2759 1491 
L 3956 4666 
L 4897 4666 
L 4897 0 
L 4281 0 
L 4281 4097 
L 3078 897 
L 2444 897 
L 1241 4097 
L 1241 0 
L 628 0 
L 628 4666 
z
" transform="scale(0.015625)"/>
       <path id="DejaVuSans-45" d="M 628 4666 
L 3578 4666 
L 3578 4134 
L 1259 4134 
L 1259 2753 
L 3481 2753 
L 3481 2222 
L 1259 2222 
L 1259 531 
L 3634 531 
L 3634 0 
L 628 0 
L 628 4666 
z
" transform="scale(0.015625)"/>
       <path id="DejaVuSans-41" d="M 2188 4044 
L 1331 1722 
L 3047 1722 
L 2188 4044 
z
M 1831 4666 
L 2547 4666 
L 4325 0 
L 3669 0 
L 3244 1197 
L 1141 1197 
L 716 0 
L 50 0 
L 1831 4666 
z
" transform="scale(0.015625)"/>
      </defs>
      <use xlink:href="#DejaVuSans-53"/>
      <use xlink:href="#DejaVuSans-63" x="63.476562"/>
      <use xlink:href="#DejaVuSans-68" x="118.457031"/>
      <use xlink:href="#DejaVuSans-4e" x="181.835938"/>
      <use xlink:href="#DejaVuSans-65" x="256.640625"/>
      <use xlink:href="#DejaVuSans-74" x="318.164062"/>
      <use xlink:href="#DejaVuSans-20" x="357.373047"/>
      <use xlink:href="#DejaVuSans-4d" x="389.160156"/>
      <use xlink:href="#DejaVuSans-45" x="475.439453"/>
      <use xlink:href="#DejaVuSans-41" x="538.623047"/>
     </g>
    </g>
    <g id="line2d_108">
     <path d="M 283.596563 69.248562 
L 293.596563 69.248562 
L 303.596563 69.248562 
" style="fill: none; stroke: #1f77b4; stroke-opacity: 0.9; stroke-linecap: square"/>
    </g>
    <g id="text_16">
     <!-- SchNet eval_loss -->
     <g transform="translate(311.596563 72.748562) scale(0.1 -0.1)">
      <defs>
       <path id="DejaVuSans-76" d="M 191 3500 
L 800 3500 
L 1894 563 
L 2988 3500 
L 3597 3500 
L 2284 0 
L 1503 0 
L 191 3500 
z
" transform="scale(0.015625)"/>
       <path id="DejaVuSans-61" d="M 2194 1759 
Q 1497 1759 1228 1600 
Q 959 1441 959 1056 
Q 959 750 1161 570 
Q 1363 391 1709 391 
Q 2188 391 2477 730 
Q 2766 1069 2766 1631 
L 2766 1759 
L 2194 1759 
z
M 3341 1997 
L 3341 0 
L 2766 0 
L 2766 531 
Q 2569 213 2275 61 
Q 1981 -91 1556 -91 
Q 1019 -91 701 211 
Q 384 513 384 1019 
Q 384 1609 779 1909 
Q 1175 2209 1959 2209 
L 2766 2209 
L 2766 2266 
Q 2766 2663 2505 2880 
Q 2244 3097 1772 3097 
Q 1472 3097 1187 3025 
Q 903 2953 641 2809 
L 641 3341 
Q 956 3463 1253 3523 
Q 1550 3584 1831 3584 
Q 2591 3584 2966 3190 
Q 3341 2797 3341 1997 
z
" transform="scale(0.015625)"/>
       <path id="DejaVuSans-5f" d="M 3263 -1063 
L 3263 -1509 
L -63 -1509 
L -63 -1063 
L 3263 -1063 
z
" transform="scale(0.015625)"/>
      </defs>
      <use xlink:href="#DejaVuSans-53"/>
      <use xlink:href="#DejaVuSans-63" x="63.476562"/>
      <use xlink:href="#DejaVuSans-68" x="118.457031"/>
      <use xlink:href="#DejaVuSans-4e" x="181.835938"/>
      <use xlink:href="#DejaVuSans-65" x="256.640625"/>
      <use xlink:href="#DejaVuSans-74" x="318.164062"/>
      <use xlink:href="#DejaVuSans-20" x="357.373047"/>
      <use xlink:href="#DejaVuSans-65" x="389.160156"/>
      <use xlink:href="#DejaVuSans-76" x="450.683594"/>
      <use xlink:href="#DejaVuSans-61" x="509.863281"/>
      <use xlink:href="#DejaVuSans-6c" x="571.142578"/>
      <use xlink:href="#DejaVuSans-5f" x="598.925781"/>
      <use xlink:href="#DejaVuSans-6c" x="648.925781"/>
      <use xlink:href="#DejaVuSans-6f" x="676.708984"/>
      <use xlink:href="#DejaVuSans-73" x="737.890625"/>
      <use xlink:href="#DejaVuSans-73" x="789.990234"/>
     </g>
    </g>
    <g id="line2d_109">
     <path d="M 283.596563 84.204812 
L 293.596563 84.204812 
L 303.596563 84.204812 
" style="fill: none; stroke-dasharray: 5.55,2.4; stroke-dashoffset: 0; stroke: #ff7f0e; stroke-opacity: 0.4; stroke-width: 1.5"/>
    </g>
    <g id="text_17">
     <!-- MoGIN13 MEA -->
     <g transform="translate(311.596563 87.704812) scale(0.1 -0.1)">
      <defs>
       <path id="DejaVuSans-47" d="M 3809 666 
L 3809 1919 
L 2778 1919 
L 2778 2438 
L 4434 2438 
L 4434 434 
Q 4069 175 3628 42 
Q 3188 -91 2688 -91 
Q 1594 -91 976 548 
Q 359 1188 359 2328 
Q 359 3472 976 4111 
Q 1594 4750 2688 4750 
Q 3144 4750 3555 4637 
Q 3966 4525 4313 4306 
L 4313 3634 
Q 3963 3931 3569 4081 
Q 3175 4231 2741 4231 
Q 1884 4231 1454 3753 
Q 1025 3275 1025 2328 
Q 1025 1384 1454 906 
Q 1884 428 2741 428 
Q 3075 428 3337 486 
Q 3600 544 3809 666 
z
" transform="scale(0.015625)"/>
       <path id="DejaVuSans-49" d="M 628 4666 
L 1259 4666 
L 1259 0 
L 628 0 
L 628 4666 
z
" transform="scale(0.015625)"/>
      </defs>
      <use xlink:href="#DejaVuSans-4d"/>
      <use xlink:href="#DejaVuSans-6f" x="86.279297"/>
      <use xlink:href="#DejaVuSans-47" x="147.460938"/>
      <use xlink:href="#DejaVuSans-49" x="224.951172"/>
      <use xlink:href="#DejaVuSans-4e" x="254.443359"/>
      <use xlink:href="#DejaVuSans-31" x="329.248047"/>
      <use xlink:href="#DejaVuSans-33" x="392.871094"/>
      <use xlink:href="#DejaVuSans-20" x="456.494141"/>
      <use xlink:href="#DejaVuSans-4d" x="488.28125"/>
      <use xlink:href="#DejaVuSans-45" x="574.560547"/>
      <use xlink:href="#DejaVuSans-41" x="637.744141"/>
     </g>
    </g>
    <g id="line2d_110">
     <path d="M 283.596563 98.882937 
L 293.596563 98.882937 
L 303.596563 98.882937 
" style="fill: none; stroke: #ff7f0e; stroke-opacity: 0.9; stroke-linecap: square"/>
    </g>
    <g id="text_18">
     <!-- MoGIN13 eval_loss -->
     <g transform="translate(311.596563 102.382937) scale(0.1 -0.1)">
      <use xlink:href="#DejaVuSans-4d"/>
      <use xlink:href="#DejaVuSans-6f" x="86.279297"/>
      <use xlink:href="#DejaVuSans-47" x="147.460938"/>
      <use xlink:href="#DejaVuSans-49" x="224.951172"/>
      <use xlink:href="#DejaVuSans-4e" x="254.443359"/>
      <use xlink:href="#DejaVuSans-31" x="329.248047"/>
      <use xlink:href="#DejaVuSans-33" x="392.871094"/>
      <use xlink:href="#DejaVuSans-20" x="456.494141"/>
      <use xlink:href="#DejaVuSans-65" x="488.28125"/>
      <use xlink:href="#DejaVuSans-76" x="549.804688"/>
      <use xlink:href="#DejaVuSans-61" x="608.984375"/>
      <use xlink:href="#DejaVuSans-6c" x="670.263672"/>
      <use xlink:href="#DejaVuSans-5f" x="698.046875"/>
      <use xlink:href="#DejaVuSans-6c" x="748.046875"/>
      <use xlink:href="#DejaVuSans-6f" x="775.830078"/>
      <use xlink:href="#DejaVuSans-73" x="837.011719"/>
      <use xlink:href="#DejaVuSans-73" x="889.111328"/>
     </g>
    </g>
    <g id="line2d_111">
     <path d="M 283.596563 113.839187 
L 293.596563 113.839187 
L 303.596563 113.839187 
" style="fill: none; stroke-dasharray: 5.55,2.4; stroke-dashoffset: 0; stroke: #2ca02c; stroke-opacity: 0.4; stroke-width: 1.5"/>
    </g>
    <g id="text_19">
     <!-- MoGIN11 MEA -->
     <g transform="translate(311.596563 117.339187) scale(0.1 -0.1)">
      <use xlink:href="#DejaVuSans-4d"/>
      <use xlink:href="#DejaVuSans-6f" x="86.279297"/>
      <use xlink:href="#DejaVuSans-47" x="147.460938"/>
      <use xlink:href="#DejaVuSans-49" x="224.951172"/>
      <use xlink:href="#DejaVuSans-4e" x="254.443359"/>
      <use xlink:href="#DejaVuSans-31" x="329.248047"/>
      <use xlink:href="#DejaVuSans-31" x="392.871094"/>
      <use xlink:href="#DejaVuSans-20" x="456.494141"/>
      <use xlink:href="#DejaVuSans-4d" x="488.28125"/>
      <use xlink:href="#DejaVuSans-45" x="574.560547"/>
      <use xlink:href="#DejaVuSans-41" x="637.744141"/>
     </g>
    </g>
    <g id="line2d_112">
     <path d="M 283.596563 128.517312 
L 293.596563 128.517312 
L 303.596563 128.517312 
" style="fill: none; stroke: #2ca02c; stroke-opacity: 0.9; stroke-linecap: square"/>
    </g>
    <g id="text_20">
     <!-- MoGIN11 eval_loss -->
     <g transform="translate(311.596563 132.017312) scale(0.1 -0.1)">
      <use xlink:href="#DejaVuSans-4d"/>
      <use xlink:href="#DejaVuSans-6f" x="86.279297"/>
      <use xlink:href="#DejaVuSans-47" x="147.460938"/>
      <use xlink:href="#DejaVuSans-49" x="224.951172"/>
      <use xlink:href="#DejaVuSans-4e" x="254.443359"/>
      <use xlink:href="#DejaVuSans-31" x="329.248047"/>
      <use xlink:href="#DejaVuSans-31" x="392.871094"/>
      <use xlink:href="#DejaVuSans-20" x="456.494141"/>
      <use xlink:href="#DejaVuSans-65" x="488.28125"/>
      <use xlink:href="#DejaVuSans-76" x="549.804688"/>
      <use xlink:href="#DejaVuSans-61" x="608.984375"/>
      <use xlink:href="#DejaVuSans-6c" x="670.263672"/>
      <use xlink:href="#DejaVuSans-5f" x="698.046875"/>
      <use xlink:href="#DejaVuSans-6c" x="748.046875"/>
      <use xlink:href="#DejaVuSans-6f" x="775.830078"/>
      <use xlink:href="#DejaVuSans-73" x="837.011719"/>
      <use xlink:href="#DejaVuSans-73" x="889.111328"/>
     </g>
    </g>
   </g>
  </g>
 </g>
 <defs>
  <clipPath id="p2f7674a520">
   <rect x="57.6" y="41.472" width="357.12" height="266.112"/>
  </clipPath>
 </defs>
</svg>
