<?xml version="1.0" encoding="utf-8" standalone="no"?>
<!DOCTYPE svg PUBLIC "-//W3C//DTD SVG 1.1//EN"
  "http://www.w3.org/Graphics/SVG/1.1/DTD/svg11.dtd">
<svg xmlns:xlink="http://www.w3.org/1999/xlink" width="460.8pt" height="345.6pt" viewBox="0 0 460.8 345.6" xmlns="http://www.w3.org/2000/svg" version="1.1">
 <metadata>
  <rdf:RDF xmlns:dc="http://purl.org/dc/elements/1.1/" xmlns:cc="http://creativecommons.org/ns#" xmlns:rdf="http://www.w3.org/1999/02/22-rdf-syntax-ns#">
   <cc:Work>
    <dc:type rdf:resource="http://purl.org/dc/dcmitype/StillImage"/>
    <dc:date>2025-02-21T00:25:51.663760</dc:date>
    <dc:format>image/svg+xml</dc:format>
    <dc:creator>
     <cc:Agent>
      <dc:title>Matplotlib v3.8.4, https://matplotlib.org/</dc:title>
     </cc:Agent>
    </dc:creator>
   </cc:Work>
  </rdf:RDF>
 </metadata>
 <defs>
  <style type="text/css">*{stroke-linejoin: round; stroke-linecap: butt}</style>
 </defs>
 <g id="figure_1">
  <g id="patch_1">
   <path d="M 0 345.6 
L 460.8 345.6 
L 460.8 0 
L 0 0 
z
" style="fill: #ffffff"/>
  </g>
  <g id="axes_1">
   <g id="patch_2">
    <path d="M 57.6 307.584 
L 414.72 307.584 
L 414.72 41.472 
L 57.6 41.472 
z
" style="fill: #ffffff"/>
   </g>
   <g id="matplotlib.axis_1">
    <g id="xtick_1">
     <g id="line2d_1">
      <defs>
       <path id="m56d0a9132f" d="M 0 0 
L 0 3.5 
" style="stroke: #000000; stroke-width: 0.8"/>
      </defs>
      <g>
       <use xlink:href="#m56d0a9132f" x="57.6" y="307.584" style="stroke: #000000; stroke-width: 0.8"/>
      </g>
     </g>
     <g id="text_1">
      <!-- $\mathdefault{10^{4}}$ -->
      <g transform="translate(48.8 322.182437) scale(0.1 -0.1)">
       <defs>
        <path id="DejaVuSans-31" d="M 794 531 
L 1825 531 
L 1825 4091 
L 703 3866 
L 703 4441 
L 1819 4666 
L 2450 4666 
L 2450 531 
L 3481 531 
L 3481 0 
L 794 0 
L 794 531 
z
" transform="scale(0.015625)"/>
        <path id="DejaVuSans-30" d="M 2034 4250 
Q 1547 4250 1301 3770 
Q 1056 3291 1056 2328 
Q 1056 1369 1301 889 
Q 1547 409 2034 409 
Q 2525 409 2770 889 
Q 3016 1369 3016 2328 
Q 3016 3291 2770 3770 
Q 2525 4250 2034 4250 
z
M 2034 4750 
Q 2819 4750 3233 4129 
Q 3647 3509 3647 2328 
Q 3647 1150 3233 529 
Q 2819 -91 2034 -91 
Q 1250 -91 836 529 
Q 422 1150 422 2328 
Q 422 3509 836 4129 
Q 1250 4750 2034 4750 
z
" transform="scale(0.015625)"/>
        <path id="DejaVuSans-34" d="M 2419 4116 
L 825 1625 
L 2419 1625 
L 2419 4116 
z
M 2253 4666 
L 3047 4666 
L 3047 1625 
L 3713 1625 
L 3713 1100 
L 3047 1100 
L 3047 0 
L 2419 0 
L 2419 1100 
L 313 1100 
L 313 1709 
L 2253 4666 
z
" transform="scale(0.015625)"/>
       </defs>
       <use xlink:href="#DejaVuSans-31" transform="translate(0 0.684375)"/>
       <use xlink:href="#DejaVuSans-30" transform="translate(63.623047 0.684375)"/>
       <use xlink:href="#DejaVuSans-34" transform="translate(128.203125 38.965625) scale(0.7)"/>
      </g>
     </g>
    </g>
    <g id="xtick_2">
     <g id="line2d_2">
      <defs>
       <path id="ma4ffff2f47" d="M 0 0 
L 0 2 
" style="stroke: #000000; stroke-width: 0.6"/>
      </defs>
      <g>
       <use xlink:href="#ma4ffff2f47" x="195.752875" y="307.584" style="stroke: #000000; stroke-width: 0.6"/>
      </g>
     </g>
     <g id="text_2">
      <!-- $\mathdefault{2\times10^{4}}$ -->
      <g transform="translate(177.652875 320.582437) scale(0.1 -0.1)">
       <defs>
        <path id="DejaVuSans-32" d="M 1228 531 
L 3431 531 
L 3431 0 
L 469 0 
L 469 531 
Q 828 903 1448 1529 
Q 2069 2156 2228 2338 
Q 2531 2678 2651 2914 
Q 2772 3150 2772 3378 
Q 2772 3750 2511 3984 
Q 2250 4219 1831 4219 
Q 1534 4219 1204 4116 
Q 875 4013 500 3803 
L 500 4441 
Q 881 4594 1212 4672 
Q 1544 4750 1819 4750 
Q 2544 4750 2975 4387 
Q 3406 4025 3406 3419 
Q 3406 3131 3298 2873 
Q 3191 2616 2906 2266 
Q 2828 2175 2409 1742 
Q 1991 1309 1228 531 
z
" transform="scale(0.015625)"/>
        <path id="DejaVuSans-d7" d="M 4488 3438 
L 3059 2003 
L 4488 575 
L 4116 197 
L 2681 1631 
L 1247 197 
L 878 575 
L 2303 2003 
L 878 3438 
L 1247 3816 
L 2681 2381 
L 4116 3816 
L 4488 3438 
z
" transform="scale(0.015625)"/>
       </defs>
       <use xlink:href="#DejaVuSans-32" transform="translate(0 0.684375)"/>
       <use xlink:href="#DejaVuSans-d7" transform="translate(83.105469 0.684375)"/>
       <use xlink:href="#DejaVuSans-31" transform="translate(186.376953 0.684375)"/>
       <use xlink:href="#DejaVuSans-30" transform="translate(250 0.684375)"/>
       <use xlink:href="#DejaVuSans-34" transform="translate(314.580078 38.965625) scale(0.7)"/>
      </g>
     </g>
    </g>
    <g id="xtick_3">
     <g id="line2d_3">
      <g>
       <use xlink:href="#ma4ffff2f47" x="276.567125" y="307.584" style="stroke: #000000; stroke-width: 0.6"/>
      </g>
     </g>
     <g id="text_3">
      <!-- $\mathdefault{3\times10^{4}}$ -->
      <g transform="translate(258.467125 320.582437) scale(0.1 -0.1)">
       <defs>
        <path id="DejaVuSans-33" d="M 2597 2516 
Q 3050 2419 3304 2112 
Q 3559 1806 3559 1356 
Q 3559 666 3084 287 
Q 2609 -91 1734 -91 
Q 1441 -91 1130 -33 
Q 819 25 488 141 
L 488 750 
Q 750 597 1062 519 
Q 1375 441 1716 441 
Q 2309 441 2620 675 
Q 2931 909 2931 1356 
Q 2931 1769 2642 2001 
Q 2353 2234 1838 2234 
L 1294 2234 
L 1294 2753 
L 1863 2753 
Q 2328 2753 2575 2939 
Q 2822 3125 2822 3475 
Q 2822 3834 2567 4026 
Q 2313 4219 1838 4219 
Q 1578 4219 1281 4162 
Q 984 4106 628 3988 
L 628 4550 
Q 988 4650 1302 4700 
Q 1616 4750 1894 4750 
Q 2613 4750 3031 4423 
Q 3450 4097 3450 3541 
Q 3450 3153 3228 2886 
Q 3006 2619 2597 2516 
z
" transform="scale(0.015625)"/>
       </defs>
       <use xlink:href="#DejaVuSans-33" transform="translate(0 0.684375)"/>
       <use xlink:href="#DejaVuSans-d7" transform="translate(83.105469 0.684375)"/>
       <use xlink:href="#DejaVuSans-31" transform="translate(186.376953 0.684375)"/>
       <use xlink:href="#DejaVuSans-30" transform="translate(250 0.684375)"/>
       <use xlink:href="#DejaVuSans-34" transform="translate(314.580078 38.965625) scale(0.7)"/>
      </g>
     </g>
    </g>
    <g id="xtick_4">
     <g id="line2d_4">
      <g>
       <use xlink:href="#ma4ffff2f47" x="333.905749" y="307.584" style="stroke: #000000; stroke-width: 0.6"/>
      </g>
     </g>
     <g id="text_4">
      <!-- $\mathdefault{4\times10^{4}}$ -->
      <g transform="translate(315.805749 320.582437) scale(0.1 -0.1)">
       <use xlink:href="#DejaVuSans-34" transform="translate(0 0.684375)"/>
       <use xlink:href="#DejaVuSans-d7" transform="translate(83.105469 0.684375)"/>
       <use xlink:href="#DejaVuSans-31" transform="translate(186.376953 0.684375)"/>
       <use xlink:href="#DejaVuSans-30" transform="translate(250 0.684375)"/>
       <use xlink:href="#DejaVuSans-34" transform="translate(314.580078 38.965625) scale(0.7)"/>
      </g>
     </g>
    </g>
    <g id="xtick_5">
     <g id="line2d_5">
      <g>
       <use xlink:href="#ma4ffff2f47" x="378.381041" y="307.584" style="stroke: #000000; stroke-width: 0.6"/>
      </g>
     </g>
    </g>
    <g id="xtick_6">
     <g id="line2d_6">
      <g>
       <use xlink:href="#ma4ffff2f47" x="414.72" y="307.584" style="stroke: #000000; stroke-width: 0.6"/>
      </g>
     </g>
     <g id="text_5">
      <!-- $\mathdefault{6\times10^{4}}$ -->
      <g transform="translate(396.62 320.582437) scale(0.1 -0.1)">
       <defs>
        <path id="DejaVuSans-36" d="M 2113 2584 
Q 1688 2584 1439 2293 
Q 1191 2003 1191 1497 
Q 1191 994 1439 701 
Q 1688 409 2113 409 
Q 2538 409 2786 701 
Q 3034 994 3034 1497 
Q 3034 2003 2786 2293 
Q 2538 2584 2113 2584 
z
M 3366 4563 
L 3366 3988 
Q 3128 4100 2886 4159 
Q 2644 4219 2406 4219 
Q 1781 4219 1451 3797 
Q 1122 3375 1075 2522 
Q 1259 2794 1537 2939 
Q 1816 3084 2150 3084 
Q 2853 3084 3261 2657 
Q 3669 2231 3669 1497 
Q 3669 778 3244 343 
Q 2819 -91 2113 -91 
Q 1303 -91 875 529 
Q 447 1150 447 2328 
Q 447 3434 972 4092 
Q 1497 4750 2381 4750 
Q 2619 4750 2861 4703 
Q 3103 4656 3366 4563 
z
" transform="scale(0.015625)"/>
       </defs>
       <use xlink:href="#DejaVuSans-36" transform="translate(0 0.684375)"/>
       <use xlink:href="#DejaVuSans-d7" transform="translate(83.105469 0.684375)"/>
       <use xlink:href="#DejaVuSans-31" transform="translate(186.376953 0.684375)"/>
       <use xlink:href="#DejaVuSans-30" transform="translate(250 0.684375)"/>
       <use xlink:href="#DejaVuSans-34" transform="translate(314.580078 38.965625) scale(0.7)"/>
      </g>
     </g>
    </g>
    <g id="text_6">
     <!-- iter# -->
     <g transform="translate(223.488906 335.860562) scale(0.1 -0.1)">
      <defs>
       <path id="DejaVuSans-69" d="M 603 3500 
L 1178 3500 
L 1178 0 
L 603 0 
L 603 3500 
z
M 603 4863 
L 1178 4863 
L 1178 4134 
L 603 4134 
L 603 4863 
z
" transform="scale(0.015625)"/>
       <path id="DejaVuSans-74" d="M 1172 4494 
L 1172 3500 
L 2356 3500 
L 2356 3053 
L 1172 3053 
L 1172 1153 
Q 1172 725 1289 603 
Q 1406 481 1766 481 
L 2356 481 
L 2356 0 
L 1766 0 
Q 1100 0 847 248 
Q 594 497 594 1153 
L 594 3053 
L 172 3053 
L 172 3500 
L 594 3500 
L 594 4494 
L 1172 4494 
z
" transform="scale(0.015625)"/>
       <path id="DejaVuSans-65" d="M 3597 1894 
L 3597 1613 
L 953 1613 
Q 991 1019 1311 708 
Q 1631 397 2203 397 
Q 2534 397 2845 478 
Q 3156 559 3463 722 
L 3463 178 
Q 3153 47 2828 -22 
Q 2503 -91 2169 -91 
Q 1331 -91 842 396 
Q 353 884 353 1716 
Q 353 2575 817 3079 
Q 1281 3584 2069 3584 
Q 2775 3584 3186 3129 
Q 3597 2675 3597 1894 
z
M 3022 2063 
Q 3016 2534 2758 2815 
Q 2500 3097 2075 3097 
Q 1594 3097 1305 2825 
Q 1016 2553 972 2059 
L 3022 2063 
z
" transform="scale(0.015625)"/>
       <path id="DejaVuSans-72" d="M 2631 2963 
Q 2534 3019 2420 3045 
Q 2306 3072 2169 3072 
Q 1681 3072 1420 2755 
Q 1159 2438 1159 1844 
L 1159 0 
L 581 0 
L 581 3500 
L 1159 3500 
L 1159 2956 
Q 1341 3275 1631 3429 
Q 1922 3584 2338 3584 
Q 2397 3584 2469 3576 
Q 2541 3569 2628 3553 
L 2631 2963 
z
" transform="scale(0.015625)"/>
       <path id="DejaVuSans-23" d="M 3272 2816 
L 2363 2816 
L 2100 1772 
L 3016 1772 
L 3272 2816 
z
M 2803 4594 
L 2478 3297 
L 3391 3297 
L 3719 4594 
L 4219 4594 
L 3897 3297 
L 4872 3297 
L 4872 2816 
L 3775 2816 
L 3519 1772 
L 4513 1772 
L 4513 1294 
L 3397 1294 
L 3072 0 
L 2572 0 
L 2894 1294 
L 1978 1294 
L 1656 0 
L 1153 0 
L 1478 1294 
L 494 1294 
L 494 1772 
L 1594 1772 
L 1856 2816 
L 850 2816 
L 850 3297 
L 1978 3297 
L 2297 4594 
L 2803 4594 
z
" transform="scale(0.015625)"/>
      </defs>
      <use xlink:href="#DejaVuSans-69"/>
      <use xlink:href="#DejaVuSans-74" x="27.783203"/>
      <use xlink:href="#DejaVuSans-65" x="66.992188"/>
      <use xlink:href="#DejaVuSans-72" x="128.515625"/>
      <use xlink:href="#DejaVuSans-23" x="169.628906"/>
     </g>
    </g>
   </g>
   <g id="matplotlib.axis_2">
    <g id="ytick_1">
     <g id="line2d_7">
      <defs>
       <path id="mb404e4ff94" d="M 0 0 
L -3.5 0 
" style="stroke: #000000; stroke-width: 0.8"/>
      </defs>
      <g>
       <use xlink:href="#mb404e4ff94" x="57.6" y="245.254111" style="stroke: #000000; stroke-width: 0.8"/>
      </g>
     </g>
     <g id="text_7">
      <!-- $\mathdefault{10^{-2}}$ -->
      <g transform="translate(27.1 249.05333) scale(0.1 -0.1)">
       <defs>
        <path id="DejaVuSans-2212" d="M 678 2272 
L 4684 2272 
L 4684 1741 
L 678 1741 
L 678 2272 
z
" transform="scale(0.015625)"/>
       </defs>
       <use xlink:href="#DejaVuSans-31" transform="translate(0 0.765625)"/>
       <use xlink:href="#DejaVuSans-30" transform="translate(63.623047 0.765625)"/>
       <use xlink:href="#DejaVuSans-2212" transform="translate(128.203125 39.046875) scale(0.7)"/>
       <use xlink:href="#DejaVuSans-32" transform="translate(186.855469 39.046875) scale(0.7)"/>
      </g>
     </g>
    </g>
    <g id="ytick_2">
     <g id="line2d_8">
      <g>
       <use xlink:href="#mb404e4ff94" x="57.6" y="88.622741" style="stroke: #000000; stroke-width: 0.8"/>
      </g>
     </g>
     <g id="text_8">
      <!-- $\mathdefault{10^{-1}}$ -->
      <g transform="translate(27.1 92.421959) scale(0.1 -0.1)">
       <use xlink:href="#DejaVuSans-31" transform="translate(0 0.684375)"/>
       <use xlink:href="#DejaVuSans-30" transform="translate(63.623047 0.684375)"/>
       <use xlink:href="#DejaVuSans-2212" transform="translate(128.203125 38.965625) scale(0.7)"/>
       <use xlink:href="#DejaVuSans-31" transform="translate(186.855469 38.965625) scale(0.7)"/>
      </g>
     </g>
    </g>
    <g id="ytick_3">
     <g id="line2d_9">
      <defs>
       <path id="m10bdd3c7db" d="M 0 0 
L -2 0 
" style="stroke: #000000; stroke-width: 0.6"/>
      </defs>
      <g>
       <use xlink:href="#m10bdd3c7db" x="57.6" y="307.584" style="stroke: #000000; stroke-width: 0.6"/>
      </g>
     </g>
    </g>
    <g id="ytick_4">
     <g id="line2d_10">
      <g>
       <use xlink:href="#m10bdd3c7db" x="57.6" y="292.404852" style="stroke: #000000; stroke-width: 0.6"/>
      </g>
     </g>
    </g>
    <g id="ytick_5">
     <g id="line2d_11">
      <g>
       <use xlink:href="#m10bdd3c7db" x="57.6" y="280.002585" style="stroke: #000000; stroke-width: 0.6"/>
      </g>
     </g>
    </g>
    <g id="ytick_6">
     <g id="line2d_12">
      <g>
       <use xlink:href="#m10bdd3c7db" x="57.6" y="269.516617" style="stroke: #000000; stroke-width: 0.6"/>
      </g>
     </g>
    </g>
    <g id="ytick_7">
     <g id="line2d_13">
      <g>
       <use xlink:href="#m10bdd3c7db" x="57.6" y="260.433259" style="stroke: #000000; stroke-width: 0.6"/>
      </g>
     </g>
    </g>
    <g id="ytick_8">
     <g id="line2d_14">
      <g>
       <use xlink:href="#m10bdd3c7db" x="57.6" y="252.42117" style="stroke: #000000; stroke-width: 0.6"/>
      </g>
     </g>
    </g>
    <g id="ytick_9">
     <g id="line2d_15">
      <g>
       <use xlink:href="#m10bdd3c7db" x="57.6" y="198.10337" style="stroke: #000000; stroke-width: 0.6"/>
      </g>
     </g>
    </g>
    <g id="ytick_10">
     <g id="line2d_16">
      <g>
       <use xlink:href="#m10bdd3c7db" x="57.6" y="170.521955" style="stroke: #000000; stroke-width: 0.6"/>
      </g>
     </g>
    </g>
    <g id="ytick_11">
     <g id="line2d_17">
      <g>
       <use xlink:href="#m10bdd3c7db" x="57.6" y="150.95263" style="stroke: #000000; stroke-width: 0.6"/>
      </g>
     </g>
    </g>
    <g id="ytick_12">
     <g id="line2d_18">
      <g>
       <use xlink:href="#m10bdd3c7db" x="57.6" y="135.773481" style="stroke: #000000; stroke-width: 0.6"/>
      </g>
     </g>
    </g>
    <g id="ytick_13">
     <g id="line2d_19">
      <g>
       <use xlink:href="#m10bdd3c7db" x="57.6" y="123.371214" style="stroke: #000000; stroke-width: 0.6"/>
      </g>
     </g>
    </g>
    <g id="ytick_14">
     <g id="line2d_20">
      <g>
       <use xlink:href="#m10bdd3c7db" x="57.6" y="112.885247" style="stroke: #000000; stroke-width: 0.6"/>
      </g>
     </g>
    </g>
    <g id="ytick_15">
     <g id="line2d_21">
      <g>
       <use xlink:href="#m10bdd3c7db" x="57.6" y="103.801889" style="stroke: #000000; stroke-width: 0.6"/>
      </g>
     </g>
    </g>
    <g id="ytick_16">
     <g id="line2d_22">
      <g>
       <use xlink:href="#m10bdd3c7db" x="57.6" y="95.789799" style="stroke: #000000; stroke-width: 0.6"/>
      </g>
     </g>
    </g>
    <g id="ytick_17">
     <g id="line2d_23">
      <g>
       <use xlink:href="#m10bdd3c7db" x="57.6" y="41.472" style="stroke: #000000; stroke-width: 0.6"/>
      </g>
     </g>
    </g>
    <g id="text_9">
     <!-- loss -->
     <g transform="translate(21.020313 184.185812) rotate(-90) scale(0.1 -0.1)">
      <defs>
       <path id="DejaVuSans-6c" d="M 603 4863 
L 1178 4863 
L 1178 0 
L 603 0 
L 603 4863 
z
" transform="scale(0.015625)"/>
       <path id="DejaVuSans-6f" d="M 1959 3097 
Q 1497 3097 1228 2736 
Q 959 2375 959 1747 
Q 959 1119 1226 758 
Q 1494 397 1959 397 
Q 2419 397 2687 759 
Q 2956 1122 2956 1747 
Q 2956 2369 2687 2733 
Q 2419 3097 1959 3097 
z
M 1959 3584 
Q 2709 3584 3137 3096 
Q 3566 2609 3566 1747 
Q 3566 888 3137 398 
Q 2709 -91 1959 -91 
Q 1206 -91 779 398 
Q 353 888 353 1747 
Q 353 2609 779 3096 
Q 1206 3584 1959 3584 
z
" transform="scale(0.015625)"/>
       <path id="DejaVuSans-73" d="M 2834 3397 
L 2834 2853 
Q 2591 2978 2328 3040 
Q 2066 3103 1784 3103 
Q 1356 3103 1142 2972 
Q 928 2841 928 2578 
Q 928 2378 1081 2264 
Q 1234 2150 1697 2047 
L 1894 2003 
Q 2506 1872 2764 1633 
Q 3022 1394 3022 966 
Q 3022 478 2636 193 
Q 2250 -91 1575 -91 
Q 1294 -91 989 -36 
Q 684 19 347 128 
L 347 722 
Q 666 556 975 473 
Q 1284 391 1588 391 
Q 1994 391 2212 530 
Q 2431 669 2431 922 
Q 2431 1156 2273 1281 
Q 2116 1406 1581 1522 
L 1381 1569 
Q 847 1681 609 1914 
Q 372 2147 372 2553 
Q 372 3047 722 3315 
Q 1072 3584 1716 3584 
Q 2034 3584 2315 3537 
Q 2597 3491 2834 3397 
z
" transform="scale(0.015625)"/>
      </defs>
      <use xlink:href="#DejaVuSans-6c"/>
      <use xlink:href="#DejaVuSans-6f" x="27.783203"/>
      <use xlink:href="#DejaVuSans-73" x="88.964844"/>
      <use xlink:href="#DejaVuSans-73" x="141.064453"/>
     </g>
    </g>
   </g>
   <g id="line2d_24">
    <path d="M -1 129.339942 
L -0.377446 126.854832 
L 1.321552 130.521341 
L 3.006189 131.251728 
L 4.676707 127.016623 
L 6.333339 125.142145 
L 7.976316 126.753591 
L 9.60586 130.934406 
L 11.222189 119.612531 
L 12.825515 120.020694 
L 14.416047 124.466481 
L 15.993987 123.204891 
L 17.559532 123.248606 
L 19.112876 121.382606 
L 19.523456 123.384444 
L 21.061629 128.339486 
L 22.588021 128.532165 
L 24.102812 133.502122 
L 25.606178 137.447261 
L 27.098289 140.780001 
L 28.579313 133.374679 
L 30.049413 134.881003 
L 31.508748 133.735174 
L 32.957477 128.731537 
L 34.395751 130.553194 
L 35.823721 135.292862 
L 37.241532 138.677511 
L 38.64933 139.989583 
L 40.047253 143.036081 
L 41.43544 143.344349 
L 42.814025 148.248835 
L 44.18314 145.940589 
L 45.542915 146.478834 
L 46.893476 145.376341 
L 48.234947 141.730005 
L 49.567449 144.132898 
L 50.891102 142.714871 
L 52.206023 139.030641 
L 54.810122 136.777847 
L 56.099523 140.289516 
L 57.380636 142.27439 
L 58.653567 140.244813 
L 59.918419 138.97066 
L 61.175296 140.650332 
L 62.424296 144.244208 
L 63.665518 146.236253 
L 63.993923 150.9946 
L 65.225438 153.066754 
L 66.449391 156.312118 
L 67.665874 159.858615 
L 68.874977 151.906428 
L 70.076789 145.113295 
L 71.271398 149.304152 
L 72.45889 151.061253 
L 73.639349 154.08717 
L 74.812857 144.548967 
L 75.979496 143.858165 
L 77.139347 145.484823 
L 78.292487 147.621807 
L 79.438993 151.058546 
L 80.578942 142.822567 
L 81.712409 146.72382 
L 82.839466 151.662449 
L 83.960186 151.890615 
L 85.074639 155.386821 
L 86.182895 151.053401 
L 87.285023 143.927176 
L 88.381091 146.755447 
L 89.471163 148.873906 
L 90.555306 141.861891 
L 91.633584 146.235708 
L 92.70606 140.60549 
L 93.772796 145.274791 
L 94.833853 148.364402 
L 97.983548 158.798996 
L 99.022482 160.68601 
L 100.056028 158.033828 
L 100.329665 162.408225 
L 101.356472 166.03693 
L 102.378017 170.269433 
L 103.394352 172.462778 
L 104.405531 172.051228 
L 105.411606 175.002249 
L 106.412628 175.05976 
L 107.408648 156.082412 
L 109.385879 165.673656 
L 110.367187 166.054182 
L 111.343687 168.47264 
L 112.315426 169.245655 
L 113.282451 166.596041 
L 115.202538 173.063194 
L 116.155689 171.908942 
L 118.048425 180.04146 
L 118.988095 178.366378 
L 119.923356 179.876556 
L 120.854248 177.636668 
L 121.780813 173.037395 
L 122.703091 172.521166 
L 123.62112 168.244079 
L 125.444591 172.128774 
L 126.350108 168.24591 
L 127.25153 169.995776 
L 128.148893 172.468372 
L 129.042234 176.45568 
L 129.931589 178.237452 
L 130.816993 175.737531 
L 131.931973 181.455275 
L 132.808555 182.759205 
L 133.681299 177.873216 
L 134.550237 178.236393 
L 135.415404 171.681526 
L 136.276831 174.079436 
L 137.134552 172.411535 
L 137.988597 175.432962 
L 138.838998 179.611812 
L 139.685786 182.073157 
L 140.528992 177.754866 
L 141.368645 180.295893 
L 142.204777 183.217124 
L 143.037415 188.043318 
L 143.866589 184.045677 
L 144.692328 185.428429 
L 145.51466 189.396993 
L 146.333613 190.293494 
L 147.149215 165.164531 
L 147.961494 160.846958 
L 148.770475 162.595654 
L 149.576186 163.612394 
L 150.378653 163.131857 
L 151.973959 169.853685 
L 152.766849 171.214366 
L 153.556597 165.092846 
L 155.126767 174.419283 
L 155.907238 170.411733 
L 156.684664 174.018198 
L 157.45907 178.781375 
L 157.664267 183.343903 
L 158.434884 185.727081 
L 159.202532 184.832528 
L 159.967235 185.548332 
L 160.729016 182.058668 
L 161.487896 181.485739 
L 162.243897 183.744123 
L 162.997042 185.100774 
L 164.494847 192.510578 
L 165.23955 194.345824 
L 165.98148 194.610807 
L 166.720659 186.408949 
L 167.457107 187.347249 
L 168.190844 189.839458 
L 168.921889 182.272231 
L 170.375985 190.528237 
L 171.099074 195.479525 
L 171.819549 195.393962 
L 172.537429 193.880078 
L 173.252733 196.384411 
L 173.965479 190.719179 
L 174.675685 191.733649 
L 175.383369 187.465049 
L 176.08855 186.351568 
L 176.791244 189.886367 
L 179.577506 206.820693 
L 180.268028 200.978717 
L 180.956166 196.25223 
L 181.138554 197.068798 
L 181.823698 193.897156 
L 182.506495 198.891025 
L 183.865111 206.25469 
L 184.540962 205.418982 
L 185.214529 206.708787 
L 185.885827 203.573621 
L 186.554872 203.387332 
L 187.221679 193.769222 
L 187.886262 189.044625 
L 188.548636 193.669306 
L 189.208817 193.86883 
L 189.866818 197.085945 
L 190.522654 193.279317 
L 191.176339 195.524381 
L 191.827887 199.688429 
L 192.477312 195.905455 
L 193.124628 197.474219 
L 193.769849 194.699894 
L 194.412987 189.725787 
L 195.054057 190.7226 
L 195.693072 184.080229 
L 196.330044 181.596467 
L 196.964987 182.443934 
L 198.228838 190.985699 
L 198.85777 193.763533 
L 199.484724 190.089984 
L 200.109712 192.743745 
L 201.35384 199.788032 
L 201.973003 203.801092 
L 202.137146 201.778382 
L 202.753885 206.682462 
L 203.368721 210.477901 
L 203.981666 213.08431 
L 204.592733 214.285928 
L 205.201931 209.239579 
L 205.809273 198.370284 
L 206.414771 202.100457 
L 207.018434 202.068199 
L 207.620274 206.85907 
L 208.220303 204.498606 
L 208.81853 198.004731 
L 209.414968 201.188869 
L 210.009626 194.432599 
L 210.602515 197.594828 
L 211.193645 199.857772 
L 211.783028 204.782594 
L 212.370673 207.440019 
L 212.95659 205.483496 
L 214.123283 213.443741 
L 214.704078 216.33418 
L 215.283186 214.364629 
L 215.860616 211.202078 
L 216.436378 212.387553 
L 217.582936 216.359427 
L 218.153751 214.223773 
L 218.722936 210.819036 
L 219.290501 213.442533 
L 219.856453 213.282328 
L 220.420803 210.439894 
L 220.98356 211.654667 
L 221.132776 214.839881 
L 221.693529 207.331914 
L 222.810323 215.537798 
L 223.366383 213.703586 
L 223.920895 216.55936 
L 224.47387 218.810848 
L 225.025314 210.252848 
L 225.575236 212.488374 
L 226.670551 221.048938 
L 227.215959 221.0377 
L 227.759879 223.631164 
L 228.302318 225.467832 
L 228.843285 224.619348 
L 229.382788 221.700962 
L 229.920834 224.361826 
L 230.457432 225.621221 
L 230.99259 228.390248 
L 231.526314 221.912532 
L 232.058612 221.117359 
L 232.589493 225.134246 
L 233.118964 221.86742 
L 234.173704 228.0135 
L 234.698988 226.050264 
L 235.222892 224.926903 
L 235.745422 211.769827 
L 236.266586 212.325883 
L 236.78639 210.894426 
L 237.304843 215.716033 
L 237.82195 217.724794 
L 238.33772 216.460774 
L 238.474497 218.071499 
L 238.988582 221.328598 
L 239.501345 217.25722 
L 240.012792 221.487623 
L 240.522931 222.798161 
L 241.031766 219.604882 
L 241.539306 220.125574 
L 242.045557 207.806538 
L 242.550526 209.599277 
L 243.054218 210.487451 
L 243.55664 205.705412 
L 244.0578 207.152815 
L 244.557702 211.538584 
L 245.056353 213.191329 
L 245.55376 208.496024 
L 246.049929 198.241927 
L 246.544866 201.324461 
L 247.038577 206.17567 
L 247.531068 207.869701 
L 248.022344 211.170119 
L 248.512413 216.101643 
L 249.00128 219.045267 
L 249.488951 208.878167 
L 249.975431 208.780029 
L 250.460727 208.330408 
L 250.944845 204.475387 
L 251.427789 209.375533 
L 251.909566 207.308827 
L 252.390181 208.907212 
L 254.301135 226.081071 
L 254.427388 222.351963 
L 255.375438 229.882133 
L 255.847778 232.833383 
L 256.319001 231.971272 
L 257.258117 222.240345 
L 257.726022 226.899186 
L 259.123179 219.560083 
L 260.510611 231.667594 
L 260.970951 228.592786 
L 261.430229 232.241167 
L 261.888452 234.522714 
L 262.345624 239.221743 
L 262.801749 242.589175 
L 263.71088 235.449288 
L 264.163895 238.507937 
L 264.615883 236.907576 
L 265.066849 220.633112 
L 265.516796 221.449925 
L 266.413654 228.260965 
L 266.860575 218.881017 
L 267.306495 217.641694 
L 267.75142 209.195392 
L 268.195355 212.962051 
L 268.638302 215.512057 
L 269.080267 219.028688 
L 269.1975 223.310752 
L 269.638228 226.365292 
L 270.077984 230.659378 
L 270.516772 228.444024 
L 270.954596 229.85218 
L 271.391461 230.404693 
L 272.262327 236.42129 
L 272.696338 238.437004 
L 273.129405 237.800752 
L 273.561534 231.877373 
L 273.992728 235.170829 
L 274.42299 239.882839 
L 274.852326 239.394405 
L 275.708234 231.260283 
L 276.134813 229.826862 
L 276.560482 231.044588 
L 276.985243 230.735692 
L 277.409101 224.904059 
L 277.832059 228.241048 
L 278.254122 223.318501 
L 279.095575 230.143942 
L 279.514974 233.118727 
L 279.933492 234.456556 
L 280.351132 238.729435 
L 280.7679 240.76797 
L 281.183798 241.57658 
L 282.012999 248.634002 
L 282.426309 247.862483 
L 282.94818 249.480182 
L 283.359558 252.662603 
L 283.770088 252.54775 
L 284.179775 254.682893 
L 284.588621 258.210287 
L 284.99663 257.73706 
L 285.403806 258.49098 
L 285.810152 260.041644 
L 286.620366 246.108599 
L 287.024241 244.836393 
L 288.230981 256.843034 
L 288.631609 256.732654 
L 289.031433 258.446289 
L 289.430457 256.350885 
L 289.828684 259.866353 
L 290.226117 261.697984 
L 290.622759 261.853268 
L 291.018613 257.021026 
L 291.413682 255.470755 
L 291.80797 256.479804 
L 292.20148 253.372476 
L 292.594214 254.231457 
L 292.986175 255.585856 
L 293.767794 259.804934 
L 294.157457 263.148035 
L 294.546359 261.926943 
L 294.934504 264.774964 
L 295.321895 247.000387 
L 295.708534 247.639583 
L 295.811109 250.085764 
L 296.196802 253.447519 
L 296.581749 255.028136 
L 296.965955 258.387444 
L 297.349421 254.517599 
L 297.732151 240.736488 
L 298.114147 241.357368 
L 298.495412 245.274563 
L 298.87595 246.941501 
L 299.255762 251.203906 
L 300.013223 255.725345 
L 300.390876 255.578362 
L 300.767816 251.432054 
L 301.144043 244.890273 
L 301.519562 245.359951 
L 301.894375 246.971592 
L 302.641893 255.643868 
L 303.014603 252.874023 
L 303.386617 256.449158 
L 303.757938 255.551988 
L 304.86777 261.122875 
L 305.236344 260.517652 
L 305.604239 258.30134 
L 305.971455 259.63903 
L 306.703865 255.977266 
L 307.069063 258.085705 
L 307.433593 256.352 
L 307.797458 260.627326 
L 307.893998 264.279116 
L 308.257023 267.325483 
L 308.619389 261.757776 
L 308.981097 265.604023 
L 309.34215 267.428018 
L 309.70255 271.204367 
L 310.421402 273.558623 
L 310.779857 274.396952 
L 311.137669 276.7548 
L 311.851372 261.607799 
L 312.562528 268.677381 
L 312.917157 269.390419 
L 313.624528 275.882167 
L 313.977274 279.850553 
L 314.329397 279.791897 
L 315.031781 266.071992 
L 315.382048 260.667266 
L 315.7317 263.517514 
L 316.080739 256.858238 
L 316.77699 254.116391 
L 317.470817 247.814551 
L 317.816827 239.859966 
L 318.162237 241.633512 
L 318.50705 245.623198 
L 318.851267 246.817468 
L 319.194891 249.134977 
L 319.286067 251.388587 
L 320.994576 266.120695 
L 322.012696 277.334102 
L 322.350917 271.00484 
L 322.688565 268.711334 
L 323.025642 269.533273 
L 323.698091 275.679772 
L 324.033466 274.514698 
L 324.702528 280.524038 
L 325.036219 279.047475 
L 325.369352 281.107018 
L 325.70193 284.487922 
L 326.033953 279.645139 
L 326.365424 269.290355 
L 326.696345 271.429083 
L 327.026717 265.776432 
L 327.685823 272.163184 
L 328.01456 271.47321 
L 328.342757 272.138703 
L 328.670413 274.585869 
L 328.997532 272.588356 
L 329.324115 273.034308 
L 329.650164 271.179757 
L 329.97568 274.802513 
L 330.062056 277.720008 
L 330.711216 279.907723 
L 331.035006 281.995181 
L 331.35827 285.489619 
L 331.68101 287.310243 
L 332.003229 291.232034 
L 332.324928 284.107196 
L 332.966772 287.481099 
L 333.286921 286.27105 
L 333.606556 278.41826 
L 333.925679 276.979253 
L 334.244293 280.223448 
L 334.562397 278.732638 
L 334.879995 273.579465 
L 335.197088 271.53058 
L 335.513677 274.188892 
L 335.829764 265.327036 
L 336.14535 267.465979 
L 336.460437 268.334791 
L 336.775027 270.239618 
L 337.089122 267.917046 
L 337.402722 271.706401 
L 337.71583 265.732934 
L 338.028446 263.233985 
L 338.340573 264.369871 
L 338.652212 261.415759 
L 339.584215 274.08113 
L 340.203138 281.598181 
L 340.285195 279.407579 
L 340.59381 276.794654 
L 340.901948 279.336183 
L 341.209611 279.932015 
L 341.516799 283.25652 
L 341.823515 277.23605 
L 342.12976 273.414888 
L 342.740841 278.836391 
L 343.04568 282.244984 
L 343.350054 274.383543 
L 343.653963 274.809248 
L 343.95741 277.295619 
L 344.260396 269.010884 
L 344.864989 275.678739 
L 345.166599 277.01933 
L 345.768454 283.107025 
L 346.068701 284.370804 
L 346.368497 286.599042 
L 346.667842 285.547049 
L 346.966738 287.533567 
L 347.265187 285.119172 
L 347.56319 280.491681 
L 347.860747 282.712981 
L 348.454533 289.153898 
L 349.341908 297.963106 
L 349.636824 292.727467 
L 349.931305 290.533283 
L 350.009453 279.644704 
L 350.303383 275.800686 
L 350.596881 268.440876 
L 350.889947 271.568564 
L 351.182583 272.955127 
L 351.47479 270.582029 
L 351.766569 273.449883 
L 352.057922 275.158349 
L 352.348849 274.811622 
L 352.639353 272.949246 
L 353.508331 280.854774 
L 353.79715 272.511738 
L 354.085552 276.092822 
L 354.373537 274.663153 
L 354.948261 280.008242 
L 355.235003 283.230201 
L 355.521333 282.94505 
L 355.807252 267.815044 
L 356.377863 266.481138 
L 356.662557 270.296664 
L 356.946845 271.514744 
L 357.230728 271.160924 
L 357.514207 264.447226 
L 357.797284 265.395895 
L 358.362234 271.521563 
L 358.644109 272.225887 
L 359.206668 278.623311 
L 359.281263 282.402106 
L 359.561843 286.667964 
L 359.842028 285.943113 
L 360.12182 281.429789 
L 360.680229 288.000929 
L 360.958848 289.493096 
L 361.237077 290.119555 
L 362.069444 298.08425 
L 362.346129 301.970369 
L 362.62243 300.53647 
L 362.898349 296.034076 
L 363.173886 296.975359 
L 363.449043 300.772198 
L 363.72382 303.005916 
L 363.99822 300.07633 
L 364.272242 298.454688 
L 364.545888 298.731442 
L 364.819158 301.409291 
L 365.092055 301.877312 
L 365.364578 277.035154 
L 365.636729 280.566507 
L 365.908509 271.956327 
L 366.179919 276.497792 
L 366.991939 284.632373 
L 367.261879 288.341856 
L 367.531453 283.375077 
L 368.140863 289.590311 
L 368.409252 285.184193 
L 368.67728 285.136147 
L 368.944948 283.013992 
L 369.479209 289.11584 
L 369.745803 293.325547 
L 370.012041 294.264205 
L 370.277924 296.780575 
L 370.543453 295.260905 
L 371.073452 298.200639 
L 371.337923 297.647476 
L 371.602045 293.137578 
L 371.865816 291.263375 
L 372.392315 297.643486 
L 372.655043 297.071559 
L 372.917426 295.83544 
L 373.179464 297.94068 
L 373.441158 297.685991 
L 373.702508 293.084909 
L 373.963517 292.541882 
L 374.224184 293.72344 
L 374.48451 293.250193 
L 374.744497 294.994607 
L 375.004145 293.183082 
L 375.263456 294.331273 
L 375.781067 298.531094 
L 376.039369 300.695629 
L 376.297337 296.165671 
L 376.62335 276.792559 
L 377.137446 284.252058 
L 377.393997 281.937404 
L 377.393997 281.937404 
" clip-path="url(#p5d670efffb)" style="fill: none; stroke: #1f77b4; stroke-opacity: 0.4; stroke-linecap: square"/>
   </g>
   <g id="line2d_25">
    <path d="M -1 172.811865 
L -0.377446 170.152859 
L 1.321552 161.254639 
L 3.006189 165.019276 
L 7.976316 173.152846 
L 9.60586 176.450387 
L 12.825515 174.696634 
L 14.416047 167.528793 
L 15.993987 165.566296 
L 17.559532 168.004878 
L 19.112876 168.248841 
L 19.523456 169.401486 
L 21.061629 167.658994 
L 22.588021 157.812519 
L 24.102812 161.305401 
L 25.606178 164.489118 
L 27.098289 160.657578 
L 28.579313 159.612025 
L 30.049413 160.444441 
L 31.508748 161.055567 
L 32.957477 163.647279 
L 34.395751 163.672914 
L 35.823721 162.266946 
L 37.241532 162.943741 
L 38.64933 163.957004 
L 40.047253 166.505847 
L 41.43544 162.671541 
L 42.814025 166.443372 
L 44.18314 169.310931 
L 45.542915 167.738484 
L 46.893476 170.61408 
L 48.234947 173.990028 
L 49.567449 173.647061 
L 50.891102 171.149252 
L 52.206023 165.157692 
L 53.512325 169.169732 
L 54.810122 172.051597 
L 56.099523 167.934015 
L 57.380636 171.854893 
L 58.653567 173.51237 
L 59.918419 172.481986 
L 61.175296 175.062839 
L 62.424296 170.815407 
L 63.665518 173.109459 
L 63.993923 175.628424 
L 65.225438 178.888796 
L 66.449391 170.922014 
L 67.665874 169.9642 
L 68.874977 171.380555 
L 70.076789 175.284054 
L 71.271398 171.523661 
L 72.45889 174.805744 
L 73.639349 176.181302 
L 74.812857 179.840748 
L 75.979496 176.501323 
L 77.139347 180.179025 
L 78.292487 183.337856 
L 79.438993 182.958765 
L 80.578942 184.247859 
L 81.712409 187.688085 
L 82.839466 190.425 
L 83.960186 180.374639 
L 85.074639 176.126284 
L 86.182895 173.975647 
L 87.285023 174.529484 
L 88.381091 168.409809 
L 89.471163 170.823051 
L 90.555306 168.132365 
L 91.633584 172.068913 
L 92.70606 173.441885 
L 93.772796 171.449407 
L 94.833853 173.821119 
L 95.889292 175.480221 
L 96.93917 171.460004 
L 99.022482 178.175915 
L 100.056028 179.120168 
L 100.329665 179.95786 
L 101.356472 178.576774 
L 102.378017 182.450461 
L 103.394352 184.106888 
L 104.405531 180.573118 
L 105.411606 183.843316 
L 106.412628 182.53007 
L 107.408648 184.95046 
L 108.399715 186.831766 
L 109.385879 188.327713 
L 111.343687 185.883609 
L 112.315426 179.807148 
L 113.282451 176.129506 
L 114.244807 179.131292 
L 115.202538 179.414859 
L 116.155689 181.528392 
L 117.104304 184.788009 
L 118.048425 187.565613 
L 118.988095 188.067537 
L 119.923356 190.668919 
L 121.780813 197.077294 
L 122.703091 192.639525 
L 123.62112 195.300289 
L 124.534941 198.411611 
L 125.444591 193.086726 
L 126.350108 195.531744 
L 127.25153 196.529963 
L 128.148893 198.005207 
L 129.042234 188.812921 
L 129.931589 184.580004 
L 130.816993 187.95093 
L 131.051519 190.284692 
L 131.931973 192.473938 
L 132.808555 190.786439 
L 133.681299 190.33054 
L 134.550237 185.039195 
L 135.415404 184.875381 
L 136.276831 186.571756 
L 137.134552 190.05194 
L 137.988597 192.747643 
L 138.838998 194.978762 
L 139.685786 185.281376 
L 140.528992 188.081479 
L 141.368645 182.169464 
L 142.204777 184.550193 
L 143.037415 186.367446 
L 143.866589 189.926258 
L 144.692328 192.148298 
L 145.51466 194.914594 
L 146.333613 195.71171 
L 147.149215 197.142775 
L 147.961494 200.25186 
L 148.770475 197.229946 
L 151.177902 201.793664 
L 151.973959 197.529319 
L 152.766849 200.708786 
L 153.556597 203.081585 
L 154.343228 198.225523 
L 155.126767 198.646646 
L 155.907238 196.994025 
L 156.684664 200.150765 
L 157.45907 202.583406 
L 157.664267 197.699303 
L 158.434884 197.525881 
L 159.202532 198.959433 
L 159.967235 185.227918 
L 160.729016 187.181678 
L 161.487896 190.245282 
L 162.243897 189.693163 
L 162.997042 193.201662 
L 163.747351 194.716722 
L 164.494847 192.320053 
L 165.23955 195.831098 
L 165.98148 198.336231 
L 168.190844 204.901179 
L 168.921889 199.789549 
L 170.375985 205.397464 
L 171.099074 208.151604 
L 171.819549 208.079425 
L 172.537429 202.982769 
L 173.252733 202.022086 
L 173.965479 195.461552 
L 174.675685 192.387581 
L 175.383369 185.179913 
L 176.08855 185.575872 
L 176.791244 180.653578 
L 177.49147 182.365679 
L 178.189244 186.428542 
L 178.884584 188.301779 
L 179.577506 192.045008 
L 180.268028 193.975566 
L 180.956166 190.888022 
L 181.138554 193.606668 
L 181.823698 192.022941 
L 182.506495 195.623085 
L 183.186961 194.362266 
L 183.865111 196.545206 
L 184.540962 191.375424 
L 185.214529 192.56511 
L 185.885827 195.089392 
L 186.554872 198.898207 
L 187.221679 197.905651 
L 187.886262 198.135365 
L 188.548636 201.435538 
L 189.208817 201.695126 
L 189.866818 197.549145 
L 191.176339 203.744033 
L 191.827887 203.353273 
L 192.477312 205.944327 
L 193.124628 193.355813 
L 193.769849 196.345311 
L 194.412987 199.983403 
L 195.054057 199.651141 
L 195.693072 203.252196 
L 196.330044 198.215628 
L 196.964987 194.85533 
L 198.228838 202.015581 
L 198.85777 205.245895 
L 199.484724 196.682097 
L 200.109712 200.184052 
L 200.732747 201.92887 
L 201.35384 205.465393 
L 201.973003 207.94585 
L 202.137146 200.73041 
L 202.753885 203.166283 
L 203.368721 206.272379 
L 203.981666 206.796864 
L 204.592733 207.7435 
L 205.201931 210.299626 
L 205.809273 207.124779 
L 207.018434 214.168227 
L 207.620274 212.40631 
L 208.81853 215.785206 
L 209.414968 218.592278 
L 210.009626 212.617228 
L 210.602515 215.40085 
L 211.193645 217.16265 
L 211.783028 213.037933 
L 212.370673 212.118968 
L 212.95659 214.565396 
L 213.54079 211.408192 
L 214.123283 211.617056 
L 214.704078 214.323028 
L 215.283186 216.050747 
L 216.436378 212.701339 
L 217.010481 213.682324 
L 218.153751 216.595239 
L 218.722936 218.0885 
L 219.290501 220.703566 
L 219.856453 222.40235 
L 220.98356 223.457768 
L 221.132776 220.313424 
L 221.693529 219.640754 
L 222.252708 221.083783 
L 222.810323 218.334303 
L 223.366383 221.217723 
L 223.920895 216.031131 
L 224.47387 217.941363 
L 225.025314 219.178502 
L 225.575236 213.387839 
L 226.123646 211.011998 
L 226.670551 210.588624 
L 228.302318 218.252551 
L 228.843285 213.831528 
L 229.382788 216.411081 
L 229.920834 208.710052 
L 230.457432 207.643719 
L 230.99259 209.169983 
L 232.058612 213.488756 
L 232.589493 213.877783 
L 233.118964 217.276018 
L 235.222892 225.421714 
L 235.745422 224.856889 
L 236.78639 228.638417 
L 237.304843 224.977801 
L 237.82195 226.794671 
L 238.33772 229.586465 
L 238.474497 231.123387 
L 238.988582 229.545233 
L 239.501345 230.645682 
L 240.012792 227.95669 
L 240.522931 222.604249 
L 241.031766 223.532364 
L 242.045557 224.337274 
L 242.550526 226.075459 
L 243.054218 228.3088 
L 244.0578 234.261052 
L 244.557702 236.017942 
L 245.056353 235.917531 
L 245.55376 226.952223 
L 246.049929 229.264661 
L 246.544866 230.608031 
L 247.038577 229.007846 
L 247.531068 231.039438 
L 248.022344 230.682131 
L 248.512413 231.642417 
L 249.00128 231.684996 
L 249.488951 232.586647 
L 249.975431 229.252143 
L 250.944845 233.196334 
L 251.427789 232.993194 
L 251.909566 235.041521 
L 252.390181 232.535205 
L 252.86964 233.811962 
L 253.347948 226.062136 
L 254.301135 231.31638 
L 254.427388 233.887836 
L 254.901977 230.563894 
L 255.375438 228.842972 
L 255.847778 230.144479 
L 256.319001 231.093473 
L 257.258117 235.607567 
L 257.726022 231.125551 
L 258.19283 232.377029 
L 258.658547 231.013675 
L 260.510611 239.099644 
L 260.970951 238.818631 
L 261.430229 240.467967 
L 261.888452 241.374768 
L 262.345624 237.352738 
L 263.256833 242.17096 
L 263.71088 232.311919 
L 264.163895 233.796177 
L 264.615883 235.876695 
L 265.066849 237.40004 
L 265.516796 230.227803 
L 265.96573 232.958834 
L 266.413654 230.544053 
L 266.860575 233.082819 
L 267.306495 232.707379 
L 267.75142 234.214777 
L 268.195355 232.259447 
L 268.638302 233.127786 
L 269.080267 234.247245 
L 269.1975 236.86343 
L 269.638228 237.864758 
L 270.077984 240.359898 
L 270.516772 241.417725 
L 270.954596 243.109237 
L 271.391461 242.056085 
L 271.82737 229.755729 
L 272.262327 225.801795 
L 272.696338 228.343282 
L 273.129405 223.836833 
L 274.42299 231.900137 
L 274.852326 232.548111 
L 275.28074 233.776299 
L 275.708234 229.60507 
L 276.134813 232.407547 
L 276.560482 232.556922 
L 276.985243 231.815358 
L 277.409101 220.26924 
L 278.254122 226.754969 
L 278.675293 228.306731 
L 279.095575 230.460596 
L 279.514974 223.971202 
L 279.933492 226.928419 
L 280.351132 228.352753 
L 280.7679 225.445578 
L 281.183798 227.299726 
L 281.59883 230.445144 
L 282.012999 231.445316 
L 282.426309 228.369978 
L 282.838765 230.966705 
L 282.94818 232.86348 
L 283.359558 232.803985 
L 284.179775 235.846739 
L 284.588621 239.070742 
L 284.99663 238.960835 
L 285.403806 240.563917 
L 285.810152 238.972772 
L 286.21567 241.128118 
L 286.620366 236.134026 
L 287.024241 234.084161 
L 287.829545 239.545425 
L 288.631609 232.558665 
L 289.031433 232.69052 
L 289.828684 236.597868 
L 290.226117 239.744958 
L 291.018613 244.05467 
L 291.413682 231.896561 
L 291.80797 234.624716 
L 292.20148 233.35723 
L 292.594214 235.702746 
L 292.986175 233.954414 
L 293.377368 234.642721 
L 294.157457 228.810839 
L 294.934504 234.856807 
L 295.321895 234.392547 
L 295.708534 235.926477 
L 295.811109 238.194212 
L 296.196802 241.289748 
L 296.581749 243.331184 
L 296.965955 242.044311 
L 297.349421 245.20338 
L 297.732151 236.30729 
L 298.114147 235.268083 
L 298.495412 235.902816 
L 298.87595 238.305899 
L 299.255762 238.377676 
L 301.144043 249.361097 
L 301.519562 250.794821 
L 301.894375 253.189359 
L 302.641893 252.132132 
L 303.014603 252.424494 
L 303.386617 253.029112 
L 303.757938 253.292261 
L 304.128569 250.327882 
L 304.498512 252.808057 
L 305.236344 244.200888 
L 305.604239 244.400008 
L 305.971455 246.625795 
L 306.337996 246.832988 
L 306.703865 245.701522 
L 307.069063 245.029776 
L 307.433593 247.270466 
L 307.797458 246.752227 
L 307.893998 247.314496 
L 308.257023 246.874615 
L 308.619389 248.682022 
L 308.981097 247.87091 
L 309.34215 248.005025 
L 309.70255 250.028991 
L 310.0623 251.278808 
L 310.421402 254.071141 
L 310.779857 251.713798 
L 311.137669 252.764335 
L 311.851372 256.300907 
L 312.207267 250.066011 
L 312.917157 247.170499 
L 313.624528 251.621296 
L 313.977274 250.357759 
L 315.031781 256.678222 
L 315.382048 242.529482 
L 315.7317 243.442553 
L 316.080739 245.458748 
L 316.77699 242.386225 
L 317.124206 243.514659 
L 317.470817 243.434027 
L 318.162237 246.998516 
L 318.50705 247.999921 
L 319.194891 252.74669 
L 319.628942 247.865044 
L 320.312929 253.05082 
L 320.654044 249.493607 
L 321.334528 255.144575 
L 321.673901 257.096543 
L 322.012696 256.57017 
L 322.350917 258.301303 
L 322.688565 256.836762 
L 323.025642 253.502525 
L 323.36215 252.304824 
L 323.698091 254.920224 
L 324.368278 256.441343 
L 324.702528 255.883991 
L 325.036219 257.92092 
L 325.369352 254.354668 
L 325.70193 254.479612 
L 326.033953 253.482771 
L 326.365424 256.199338 
L 326.696345 254.589053 
L 327.026717 254.28065 
L 327.356542 254.901584 
L 327.685823 253.112791 
L 328.342757 256.985143 
L 328.670413 257.678822 
L 328.997532 259.573725 
L 329.324115 260.200882 
L 329.650164 262.52107 
L 329.97568 262.21974 
L 330.062056 262.999376 
L 330.3869 264.432626 
L 330.711216 258.783638 
L 331.035006 260.456058 
L 331.35827 261.364401 
L 331.68101 258.962135 
L 332.003229 260.155528 
L 332.324928 259.602725 
L 332.646108 259.313479 
L 333.286921 264.112597 
L 333.606556 265.021382 
L 333.925679 265.536413 
L 334.244293 267.342585 
L 334.562397 264.76944 
L 335.197088 267.403393 
L 335.513677 264.707437 
L 335.829764 258.363251 
L 336.14535 257.184665 
L 336.775027 260.90781 
L 337.089122 258.504641 
L 337.402722 260.008303 
L 337.71583 258.08045 
L 338.028446 259.012853 
L 338.340573 259.11503 
L 338.652212 261.778862 
L 338.963364 260.23411 
L 339.893917 266.951295 
L 340.203138 262.008255 
L 340.285195 264.154274 
L 340.59381 263.924263 
L 341.209611 268.002631 
L 341.516799 260.513121 
L 341.823515 261.777589 
L 342.12976 261.836527 
L 342.435534 262.238792 
L 342.740841 262.40442 
L 343.04568 261.690286 
L 343.350054 262.807024 
L 343.95741 257.020563 
L 344.260396 256.436554 
L 344.562922 256.6602 
L 344.864989 255.262809 
L 346.068701 263.816155 
L 346.368497 261.835335 
L 346.667842 262.389927 
L 347.265187 266.824506 
L 347.56319 263.193206 
L 347.860747 264.603669 
L 348.157861 264.085317 
L 348.454533 261.651909 
L 348.750764 263.593626 
L 349.046555 263.457552 
L 349.341908 262.935671 
L 349.636824 257.979675 
L 349.931305 256.165088 
L 350.009453 253.741461 
L 350.303383 253.955496 
L 350.596881 256.755189 
L 350.889947 257.172608 
L 351.182583 259.452964 
L 351.47479 259.900707 
L 352.348849 265.058266 
L 352.639353 263.36476 
L 352.929433 263.507888 
L 353.508331 266.779468 
L 354.085552 270.402822 
L 354.373537 269.021333 
L 354.948261 272.458229 
L 355.235003 270.338487 
L 355.521333 262.062609 
L 355.807252 263.771451 
L 356.092762 264.188664 
L 356.377863 262.069761 
L 356.662557 264.267597 
L 356.946845 265.399392 
L 357.230728 264.927699 
L 357.514207 264.750715 
L 358.079959 268.872334 
L 358.362234 267.429783 
L 358.644109 269.747659 
L 359.206668 268.938507 
L 359.281263 268.420021 
L 359.561843 267.373661 
L 359.842028 267.3832 
L 360.40122 271.559591 
L 360.680229 272.122908 
L 360.958848 269.741384 
L 361.237077 270.472894 
L 361.514919 268.807888 
L 361.792374 260.463394 
L 362.62243 264.870868 
L 363.173886 268.687045 
L 363.449043 267.402759 
L 363.72382 267.643911 
L 363.99822 269.753732 
L 364.272242 270.701002 
L 364.545888 270.63478 
L 364.819158 271.429774 
L 365.092055 271.513074 
L 365.364578 271.309089 
L 365.636729 271.565853 
L 365.908509 272.164299 
L 366.179919 271.437838 
L 366.45096 271.817057 
L 366.991939 273.520672 
L 367.261879 274.481012 
L 367.531453 274.896686 
L 367.800664 275.642365 
L 368.069511 275.501198 
L 368.140863 276.664401 
L 368.409252 276.549727 
L 368.67728 277.177062 
L 368.944948 278.579619 
L 369.212258 272.463659 
L 369.479209 269.41172 
L 370.012041 273.477561 
L 370.277924 272.491938 
L 370.543453 274.31741 
L 370.808628 273.660104 
L 372.129239 279.413638 
L 372.392315 276.50091 
L 372.655043 278.26779 
L 372.917426 277.896098 
L 373.179464 278.569062 
L 373.441158 277.08398 
L 373.702508 277.155758 
L 373.963517 276.969323 
L 374.224184 277.070386 
L 374.48451 278.712323 
L 374.744497 279.279398 
L 375.522429 283.307604 
L 375.781067 278.712616 
L 376.039369 279.259142 
L 376.297337 280.425134 
L 376.62335 277.831495 
L 377.137446 280.865613 
L 377.393997 282.216859 
L 377.393997 282.216859 
" clip-path="url(#p5d670efffb)" style="fill: none; stroke: #ff7f0e; stroke-opacity: 0.4; stroke-linecap: square"/>
   </g>
   <g id="line2d_26">
    <path d="M -1 170.717624 
L -0.377446 171.817118 
L 1.321552 167.069878 
L 3.006189 168.517506 
L 4.676707 169.762723 
L 6.333339 168.13458 
L 7.976316 161.268406 
L 9.60586 164.677348 
L 11.222189 165.650738 
L 12.825515 169.336956 
L 14.416047 171.767194 
L 15.993987 165.115534 
L 17.559532 168.632896 
L 19.112876 164.299816 
L 19.523456 163.532985 
L 21.061629 167.510515 
L 22.588021 165.044328 
L 25.606178 172.903189 
L 27.098289 175.906728 
L 28.579313 170.552948 
L 30.049413 166.586146 
L 31.508748 168.705775 
L 32.957477 172.609512 
L 34.395751 174.862117 
L 35.823721 171.822964 
L 37.241532 170.770764 
L 38.64933 167.963547 
L 40.047253 170.75088 
L 41.43544 172.814618 
L 42.814025 173.733416 
L 44.18314 175.142269 
L 45.542915 176.287898 
L 46.893476 180.033174 
L 48.234947 177.475012 
L 49.567449 181.07813 
L 50.891102 183.761459 
L 52.206023 185.782509 
L 53.512325 183.733193 
L 54.810122 186.740553 
L 56.099523 185.892714 
L 57.380636 188.339289 
L 58.653567 189.606424 
L 59.918419 185.304279 
L 61.175296 175.610173 
L 62.424296 174.874299 
L 63.665518 178.495044 
L 63.993923 174.322853 
L 65.225438 176.363329 
L 66.449391 174.86571 
L 67.665874 177.470158 
L 68.874977 177.965944 
L 70.076789 179.218965 
L 71.271398 181.714637 
L 72.45889 183.141043 
L 73.639349 181.628479 
L 75.979496 188.407693 
L 77.139347 186.516492 
L 79.438993 192.610634 
L 80.578942 194.8708 
L 81.712409 194.582818 
L 82.839466 196.65596 
L 83.960186 182.479028 
L 85.074639 184.063997 
L 86.182895 180.418645 
L 87.285023 180.109116 
L 88.381091 182.993292 
L 89.471163 179.494654 
L 90.555306 177.867307 
L 91.633584 170.130443 
L 93.772796 178.243203 
L 94.833853 170.374584 
L 95.889292 171.577104 
L 96.93917 174.299884 
L 97.983548 174.453785 
L 100.056028 180.441508 
L 100.329665 180.21589 
L 101.356472 179.749289 
L 102.378017 181.305397 
L 103.394352 184.000459 
L 104.405531 186.169871 
L 105.411606 186.428765 
L 107.408648 192.889928 
L 108.399715 182.284449 
L 109.385879 183.444989 
L 110.367187 180.171244 
L 111.343687 175.700012 
L 112.315426 178.768889 
L 113.282451 174.961185 
L 114.244807 173.034689 
L 115.202538 169.497266 
L 116.155689 172.542138 
L 117.104304 174.772552 
L 118.048425 172.665206 
L 118.988095 176.321333 
L 119.923356 178.981506 
L 121.780813 186.755629 
L 122.703091 185.914382 
L 123.62112 180.695278 
L 124.534941 184.077172 
L 125.444591 188.22592 
L 126.350108 189.225748 
L 127.25153 188.085161 
L 128.148893 190.910434 
L 129.931589 169.174472 
L 130.816993 171.896175 
L 131.051519 171.00148 
L 131.931973 171.872523 
L 132.808555 175.95052 
L 133.681299 178.854665 
L 135.415404 186.843299 
L 136.276831 184.905805 
L 137.134552 185.646896 
L 137.988597 189.148384 
L 138.838998 191.710245 
L 139.685786 183.745784 
L 140.528992 186.790034 
L 141.368645 188.703978 
L 142.204777 188.785265 
L 143.037415 186.981481 
L 143.866589 185.962453 
L 144.692328 187.393041 
L 145.51466 184.213806 
L 146.333613 185.973483 
L 147.149215 184.309132 
L 147.961494 183.445678 
L 148.770475 186.974171 
L 149.576186 187.962515 
L 150.378653 192.130038 
L 151.177902 191.116762 
L 151.973959 194.702374 
L 152.766849 195.581972 
L 154.343228 201.200648 
L 155.126767 198.304766 
L 156.684664 205.696358 
L 157.45907 205.474762 
L 157.664267 208.698094 
L 158.434884 211.27602 
L 159.202532 214.448092 
L 159.967235 208.989611 
L 160.729016 210.235552 
L 161.487896 213.033401 
L 162.243897 212.173596 
L 162.997042 206.755439 
L 163.747351 206.236274 
L 164.494847 209.099599 
L 165.23955 210.873205 
L 165.98148 212.284012 
L 166.720659 210.458031 
L 169.650263 220.79228 
L 170.375985 221.930949 
L 171.099074 220.232952 
L 171.819549 220.937409 
L 172.537429 221.053906 
L 173.252733 224.002926 
L 173.965479 224.360807 
L 174.675685 222.03466 
L 175.383369 223.766476 
L 176.08855 224.768219 
L 176.791244 220.996311 
L 177.49147 223.161759 
L 178.189244 224.066686 
L 178.884584 217.694599 
L 179.577506 218.822858 
L 180.268028 222.155807 
L 180.956166 219.410189 
L 181.138554 219.659917 
L 181.823698 218.734174 
L 182.506495 212.982411 
L 183.186961 215.347885 
L 183.865111 218.799844 
L 184.540962 220.032897 
L 185.214529 219.4274 
L 185.885827 215.550178 
L 186.554872 210.160294 
L 187.221679 206.535851 
L 187.886262 210.555647 
L 188.548636 210.733929 
L 189.208817 196.177424 
L 189.866818 195.576474 
L 190.522654 199.699631 
L 191.176339 197.208348 
L 191.827887 198.112509 
L 193.124628 205.752517 
L 193.769849 199.623623 
L 194.412987 203.861643 
L 195.054057 200.26552 
L 196.330044 207.743824 
L 196.964987 208.111048 
L 197.597914 208.250413 
L 198.228838 205.372378 
L 200.109712 214.630651 
L 200.732747 216.465539 
L 201.35384 219.270532 
L 201.973003 218.220849 
L 202.137146 216.056951 
L 202.753885 217.46567 
L 203.368721 217.939255 
L 203.981666 213.713872 
L 204.592733 214.751663 
L 205.201931 218.497738 
L 205.809273 220.889419 
L 206.414771 222.331066 
L 207.018434 221.551745 
L 207.620274 221.750891 
L 208.220303 225.517707 
L 209.414968 230.413448 
L 210.009626 231.698913 
L 210.602515 234.173359 
L 211.193645 225.969989 
L 211.783028 225.37201 
L 212.370673 222.854669 
L 212.95659 222.853707 
L 214.123283 228.647443 
L 215.283186 232.083611 
L 215.860616 234.826952 
L 216.436378 234.786191 
L 217.010481 235.272793 
L 217.582936 237.000471 
L 218.153751 239.31172 
L 218.722936 240.705492 
L 219.290501 239.481973 
L 220.420803 235.176145 
L 220.98356 235.705438 
L 221.132776 223.945275 
L 221.693529 227.361061 
L 222.252708 223.513583 
L 222.810323 226.433279 
L 223.366383 226.027894 
L 223.920895 229.611253 
L 224.47387 230.817565 
L 225.025314 227.146301 
L 225.575236 229.785402 
L 226.123646 230.390202 
L 226.670551 223.329341 
L 227.215959 224.42032 
L 228.302318 231.194573 
L 228.843285 232.931865 
L 229.382788 231.498827 
L 229.920834 231.315499 
L 230.457432 233.916525 
L 230.99259 216.802307 
L 231.526314 218.907199 
L 232.589493 225.717139 
L 233.118964 225.394593 
L 233.647032 228.55734 
L 234.173704 227.229614 
L 234.698988 229.558257 
L 235.222892 229.14226 
L 235.745422 231.661509 
L 236.266586 228.232828 
L 237.304843 218.050437 
L 237.82195 222.146593 
L 238.988582 229.407011 
L 239.501345 233.023863 
L 240.522931 229.847554 
L 241.031766 230.663918 
L 241.539306 229.803724 
L 242.045557 231.1328 
L 242.550526 231.879766 
L 243.054218 234.488441 
L 243.55664 234.733928 
L 244.0578 236.987863 
L 244.557702 238.680971 
L 245.056353 241.281127 
L 245.55376 241.423687 
L 246.049929 243.508205 
L 246.544866 239.093513 
L 247.038577 237.662379 
L 247.531068 239.599211 
L 248.022344 234.515159 
L 249.00128 239.124909 
L 249.488951 242.477146 
L 249.975431 242.086633 
L 250.460727 243.194965 
L 250.944845 236.211519 
L 251.909566 238.018867 
L 252.390181 236.214588 
L 252.86964 232.06873 
L 253.347948 233.95747 
L 253.825111 233.471714 
L 254.427388 236.591194 
L 255.847778 247.066705 
L 256.789112 251.372486 
L 257.258117 252.564086 
L 257.726022 250.061721 
L 258.19283 251.188633 
L 258.658547 249.326149 
L 260.049206 254.023162 
L 261.430229 260.039501 
L 261.888452 257.366239 
L 262.801749 262.499918 
L 263.71088 255.218611 
L 265.066849 262.623805 
L 265.516796 263.039769 
L 265.96573 264.408099 
L 266.413654 261.491435 
L 266.860575 254.172807 
L 267.306495 256.552388 
L 267.75142 251.247725 
L 268.195355 252.418307 
L 268.638302 250.325714 
L 269.080267 250.589495 
L 269.1975 240.796666 
L 269.638228 243.979791 
L 270.077984 244.430499 
L 270.516772 247.4262 
L 270.954596 247.10303 
L 271.391461 250.546518 
L 272.262327 251.891791 
L 272.696338 244.81615 
L 273.129405 247.044753 
L 273.561534 250.234927 
L 273.992728 251.991601 
L 274.852326 256.89907 
L 275.28074 258.645484 
L 275.708234 261.104446 
L 276.134813 260.327161 
L 276.560482 263.043536 
L 277.832059 268.432902 
L 278.254122 254.401934 
L 278.675293 256.185531 
L 279.095575 259.384 
L 279.933492 263.743067 
L 280.351132 264.328529 
L 280.7679 264.402449 
L 281.183798 258.426835 
L 282.426309 265.165852 
L 282.838765 261.874497 
L 282.94818 259.993485 
L 283.770088 265.290154 
L 284.179775 265.368821 
L 284.99663 255.321403 
L 285.403806 257.305459 
L 285.810152 257.686988 
L 286.620366 252.157538 
L 287.024241 255.694973 
L 287.4273 257.621602 
L 287.829545 260.354408 
L 288.230981 259.331645 
L 289.430457 266.381605 
L 289.828684 268.16526 
L 290.226117 270.631669 
L 290.622759 270.2339 
L 291.018613 267.602344 
L 291.413682 269.740227 
L 291.80797 271.032013 
L 292.20148 271.669416 
L 292.594214 274.454095 
L 292.986175 275.26079 
L 293.377368 274.270942 
L 293.767794 276.148464 
L 294.157457 276.675582 
L 294.546359 270.445515 
L 294.934504 268.604806 
L 295.811109 272.380717 
L 296.196802 272.635511 
L 296.581749 263.764147 
L 296.965955 265.146578 
L 297.349421 267.510905 
L 297.732151 268.767894 
L 298.114147 268.405427 
L 298.495412 266.032664 
L 298.87595 262.844661 
L 299.634853 268.909139 
L 300.013223 270.954005 
L 300.390876 269.091031 
L 300.767816 268.636399 
L 301.144043 269.476953 
L 301.519562 272.371002 
L 301.894375 274.375242 
L 302.268484 270.859422 
L 302.641893 270.45903 
L 303.014603 273.117065 
L 303.386617 269.930637 
L 303.757938 270.904115 
L 304.128569 271.333186 
L 304.498512 271.431002 
L 305.236344 275.762743 
L 305.604239 276.824424 
L 305.971455 279.236668 
L 306.337996 280.694913 
L 306.703865 282.628013 
L 307.433593 275.02201 
L 307.797458 271.291279 
L 307.893998 273.67129 
L 308.257023 274.144273 
L 308.981097 277.724157 
L 309.34215 274.580383 
L 309.70255 266.907322 
L 310.0623 266.192619 
L 310.779857 271.882652 
L 311.137669 273.922682 
L 311.49484 277.048315 
L 311.851372 263.054047 
L 313.624528 274.655079 
L 313.977274 274.419768 
L 314.329397 277.198447 
L 314.680898 276.664218 
L 315.031781 277.225126 
L 315.382048 277.016528 
L 315.7317 274.831375 
L 316.080739 276.824147 
L 316.429169 275.371885 
L 316.77699 276.228535 
L 317.124206 271.100305 
L 317.470817 272.983924 
L 317.816827 269.738359 
L 318.162237 269.326969 
L 318.50705 269.60929 
L 318.851267 271.503507 
L 319.194891 269.472598 
L 319.286067 270.909896 
L 319.628942 272.02498 
L 319.971229 274.191791 
L 320.312929 277.091924 
L 320.654044 277.167315 
L 320.994576 279.997877 
L 321.334528 281.156094 
L 321.673901 279.603511 
L 322.012696 280.082468 
L 322.350917 282.178985 
L 322.688565 280.955891 
L 323.36215 284.382715 
L 323.698091 284.086365 
L 324.368278 274.805951 
L 324.702528 274.627461 
L 325.036219 266.88944 
L 325.369352 268.799559 
L 326.033953 274.874952 
L 326.365424 275.433432 
L 326.696345 269.552626 
L 327.026717 271.196808 
L 327.356542 271.24035 
L 327.685823 270.808764 
L 328.01456 268.83741 
L 328.342757 271.049283 
L 328.670413 272.477547 
L 328.997532 267.445414 
L 329.324115 265.241473 
L 329.97568 271.431872 
L 330.062056 270.732474 
L 330.3869 272.987201 
L 330.711216 269.322868 
L 331.035006 271.6579 
L 331.35827 272.911905 
L 331.68101 275.318913 
L 332.003229 276.206118 
L 332.324928 276.636315 
L 332.966772 282.852077 
L 333.286921 284.566207 
L 333.606556 284.426486 
L 333.925679 286.25476 
L 334.244293 279.765223 
L 334.562397 280.039149 
L 334.879995 281.017078 
L 335.197088 281.557568 
L 335.513677 283.651975 
L 335.829764 284.769144 
L 336.14535 286.746227 
L 336.460437 285.55712 
L 336.775027 287.779205 
L 337.402722 277.728661 
L 337.71583 279.503463 
L 338.028446 279.211083 
L 338.340573 280.139939 
L 338.963364 284.915925 
L 339.274031 285.378145 
L 339.584215 277.724677 
L 340.203138 282.385578 
L 340.285195 281.519721 
L 341.209611 289.601146 
L 341.823515 294.243509 
L 342.12976 293.561034 
L 342.435534 293.810636 
L 342.740841 295.003711 
L 343.350054 299.373856 
L 343.653963 298.233799 
L 343.95741 299.386985 
L 344.260396 301.236772 
L 344.562922 302.045681 
L 344.864989 303.529026 
L 345.166599 304.302066 
L 345.467754 302.352319 
L 345.768454 303.980903 
L 346.068701 304.277549 
L 346.368497 305.211756 
L 346.667842 303.965628 
L 346.966738 305.126316 
L 347.265187 306.885247 
L 347.860747 308.192288 
L 348.157861 295.357955 
L 348.454533 295.5905 
L 349.341908 298.371812 
L 349.636824 300.256998 
L 349.931305 300.689181 
L 350.009453 299.643306 
L 350.303383 298.923455 
L 350.596881 299.190686 
L 350.889947 298.409922 
L 351.182583 299.632598 
L 351.47479 297.631196 
L 351.766569 299.734701 
L 352.057922 296.757655 
L 352.348849 296.128659 
L 352.639353 295.831421 
L 352.929433 295.728798 
L 353.508331 299.534771 
L 353.79715 299.420096 
L 354.373537 302.108291 
L 354.661106 302.177093 
L 354.948261 298.701693 
L 355.235003 300.277381 
L 355.521333 299.63384 
L 356.377863 300.693955 
L 356.662557 301.902471 
L 356.946845 293.632801 
L 358.079959 301.368893 
L 358.362234 300.862923 
L 358.644109 298.033583 
L 358.925587 299.627838 
L 359.281263 302.816999 
L 359.561843 303.796515 
L 360.12182 307.998493 
L 360.40122 309.19898 
L 360.680229 308.725341 
L 360.958848 307.456866 
L 361.514919 302.753454 
L 361.792374 303.676313 
L 362.069444 299.224155 
L 362.62243 301.529804 
L 362.898349 302.060782 
L 363.173886 303.504963 
L 363.449043 303.702291 
L 363.72382 305.337255 
L 363.99822 300.732821 
L 364.272242 302.121887 
L 364.545888 304.460909 
L 364.819158 304.581591 
L 365.092055 301.725138 
L 365.364578 301.835256 
L 365.636729 297.462126 
L 365.908509 297.707262 
L 366.179919 295.32398 
L 366.991939 301.34528 
L 367.261879 297.324915 
L 367.531453 298.532329 
L 367.800664 289.273779 
L 368.140863 291.016268 
L 368.944948 298.456447 
L 369.212258 300.13383 
L 369.479209 300.40971 
L 369.745803 298.91206 
L 370.012041 299.790932 
L 371.073452 307.552084 
L 371.337923 308.432143 
L 371.602045 305.541591 
L 371.865816 305.582266 
L 372.392315 303.484306 
L 372.655043 302.84385 
L 372.917426 301.716891 
L 373.179464 303.533569 
L 373.441158 302.795132 
L 373.702508 294.711694 
L 374.744497 304.430377 
L 375.004145 304.487736 
L 375.263456 300.657685 
L 375.522429 302.99339 
L 375.781067 302.875343 
L 376.039369 303.438671 
L 376.297337 304.968293 
L 376.554971 304.816088 
L 376.62335 306.914606 
L 376.880563 308.645001 
L 377.137446 302.511087 
L 377.393997 301.33303 
L 377.393997 301.33303 
" clip-path="url(#p5d670efffb)" style="fill: none; stroke: #2ca02c; stroke-opacity: 0.4; stroke-linecap: square"/>
   </g>
   <g id="patch_3">
    <path d="M 57.6 307.584 
L 57.6 41.472 
" style="fill: none; stroke: #000000; stroke-width: 0.8; stroke-linejoin: miter; stroke-linecap: square"/>
   </g>
   <g id="patch_4">
    <path d="M 414.72 307.584 
L 414.72 41.472 
" style="fill: none; stroke: #000000; stroke-width: 0.8; stroke-linejoin: miter; stroke-linecap: square"/>
   </g>
   <g id="patch_5">
    <path d="M 57.6 307.584 
L 414.72 307.584 
" style="fill: none; stroke: #000000; stroke-width: 0.8; stroke-linejoin: miter; stroke-linecap: square"/>
   </g>
   <g id="patch_6">
    <path d="M 57.6 41.472 
L 414.72 41.472 
" style="fill: none; stroke: #000000; stroke-width: 0.8; stroke-linejoin: miter; stroke-linecap: square"/>
   </g>
   <g id="text_10">
    <!-- 2025-02-21-00:25:51 -->
    <g transform="translate(172.178438 35.472) scale(0.12 -0.12)">
     <defs>
      <path id="DejaVuSans-35" d="M 691 4666 
L 3169 4666 
L 3169 4134 
L 1269 4134 
L 1269 2991 
Q 1406 3038 1543 3061 
Q 1681 3084 1819 3084 
Q 2600 3084 3056 2656 
Q 3513 2228 3513 1497 
Q 3513 744 3044 326 
Q 2575 -91 1722 -91 
Q 1428 -91 1123 -41 
Q 819 9 494 109 
L 494 744 
Q 775 591 1075 516 
Q 1375 441 1709 441 
Q 2250 441 2565 725 
Q 2881 1009 2881 1497 
Q 2881 1984 2565 2268 
Q 2250 2553 1709 2553 
Q 1456 2553 1204 2497 
Q 953 2441 691 2322 
L 691 4666 
z
" transform="scale(0.015625)"/>
      <path id="DejaVuSans-2d" d="M 313 2009 
L 1997 2009 
L 1997 1497 
L 313 1497 
L 313 2009 
z
" transform="scale(0.015625)"/>
      <path id="DejaVuSans-3a" d="M 750 794 
L 1409 794 
L 1409 0 
L 750 0 
L 750 794 
z
M 750 3309 
L 1409 3309 
L 1409 2516 
L 750 2516 
L 750 3309 
z
" transform="scale(0.015625)"/>
     </defs>
     <use xlink:href="#DejaVuSans-32"/>
     <use xlink:href="#DejaVuSans-30" x="63.623047"/>
     <use xlink:href="#DejaVuSans-32" x="127.246094"/>
     <use xlink:href="#DejaVuSans-35" x="190.869141"/>
     <use xlink:href="#DejaVuSans-2d" x="254.492188"/>
     <use xlink:href="#DejaVuSans-30" x="290.576172"/>
     <use xlink:href="#DejaVuSans-32" x="354.199219"/>
     <use xlink:href="#DejaVuSans-2d" x="417.822266"/>
     <use xlink:href="#DejaVuSans-32" x="453.90625"/>
     <use xlink:href="#DejaVuSans-31" x="517.529297"/>
     <use xlink:href="#DejaVuSans-2d" x="581.152344"/>
     <use xlink:href="#DejaVuSans-30" x="617.236328"/>
     <use xlink:href="#DejaVuSans-30" x="680.859375"/>
     <use xlink:href="#DejaVuSans-3a" x="744.482422"/>
     <use xlink:href="#DejaVuSans-32" x="778.173828"/>
     <use xlink:href="#DejaVuSans-35" x="841.796875"/>
     <use xlink:href="#DejaVuSans-3a" x="905.419922"/>
     <use xlink:href="#DejaVuSans-35" x="939.111328"/>
     <use xlink:href="#DejaVuSans-31" x="1002.734375"/>
    </g>
   </g>
   <g id="legend_1">
    <g id="patch_7">
     <path d="M 281.596563 94.34075 
L 407.72 94.34075 
Q 409.72 94.34075 409.72 92.34075 
L 409.72 48.472 
Q 409.72 46.472 407.72 46.472 
L 281.596563 46.472 
Q 279.596563 46.472 279.596563 48.472 
L 279.596563 92.34075 
Q 279.596563 94.34075 281.596563 94.34075 
z
" style="fill: #ffffff; opacity: 0.8; stroke: #cccccc; stroke-linejoin: miter"/>
    </g>
    <g id="line2d_27">
     <path d="M 283.596563 54.570438 
L 293.596563 54.570438 
L 303.596563 54.570438 
" style="fill: none; stroke: #1f77b4; stroke-opacity: 0.4; stroke-linecap: square"/>
    </g>
    <g id="text_11">
     <!-- SchNet eval_loss -->
     <g transform="translate(311.596563 58.070438) scale(0.1 -0.1)">
      <defs>
       <path id="DejaVuSans-53" d="M 3425 4513 
L 3425 3897 
Q 3066 4069 2747 4153 
Q 2428 4238 2131 4238 
Q 1616 4238 1336 4038 
Q 1056 3838 1056 3469 
Q 1056 3159 1242 3001 
Q 1428 2844 1947 2747 
L 2328 2669 
Q 3034 2534 3370 2195 
Q 3706 1856 3706 1288 
Q 3706 609 3251 259 
Q 2797 -91 1919 -91 
Q 1588 -91 1214 -16 
Q 841 59 441 206 
L 441 856 
Q 825 641 1194 531 
Q 1563 422 1919 422 
Q 2459 422 2753 634 
Q 3047 847 3047 1241 
Q 3047 1584 2836 1778 
Q 2625 1972 2144 2069 
L 1759 2144 
Q 1053 2284 737 2584 
Q 422 2884 422 3419 
Q 422 4038 858 4394 
Q 1294 4750 2059 4750 
Q 2388 4750 2728 4690 
Q 3069 4631 3425 4513 
z
" transform="scale(0.015625)"/>
       <path id="DejaVuSans-63" d="M 3122 3366 
L 3122 2828 
Q 2878 2963 2633 3030 
Q 2388 3097 2138 3097 
Q 1578 3097 1268 2742 
Q 959 2388 959 1747 
Q 959 1106 1268 751 
Q 1578 397 2138 397 
Q 2388 397 2633 464 
Q 2878 531 3122 666 
L 3122 134 
Q 2881 22 2623 -34 
Q 2366 -91 2075 -91 
Q 1284 -91 818 406 
Q 353 903 353 1747 
Q 353 2603 823 3093 
Q 1294 3584 2113 3584 
Q 2378 3584 2631 3529 
Q 2884 3475 3122 3366 
z
" transform="scale(0.015625)"/>
       <path id="DejaVuSans-68" d="M 3513 2113 
L 3513 0 
L 2938 0 
L 2938 2094 
Q 2938 2591 2744 2837 
Q 2550 3084 2163 3084 
Q 1697 3084 1428 2787 
Q 1159 2491 1159 1978 
L 1159 0 
L 581 0 
L 581 4863 
L 1159 4863 
L 1159 2956 
Q 1366 3272 1645 3428 
Q 1925 3584 2291 3584 
Q 2894 3584 3203 3211 
Q 3513 2838 3513 2113 
z
" transform="scale(0.015625)"/>
       <path id="DejaVuSans-4e" d="M 628 4666 
L 1478 4666 
L 3547 763 
L 3547 4666 
L 4159 4666 
L 4159 0 
L 3309 0 
L 1241 3903 
L 1241 0 
L 628 0 
L 628 4666 
z
" transform="scale(0.015625)"/>
       <path id="DejaVuSans-20" transform="scale(0.015625)"/>
       <path id="DejaVuSans-76" d="M 191 3500 
L 800 3500 
L 1894 563 
L 2988 3500 
L 3597 3500 
L 2284 0 
L 1503 0 
L 191 3500 
z
" transform="scale(0.015625)"/>
       <path id="DejaVuSans-61" d="M 2194 1759 
Q 1497 1759 1228 1600 
Q 959 1441 959 1056 
Q 959 750 1161 570 
Q 1363 391 1709 391 
Q 2188 391 2477 730 
Q 2766 1069 2766 1631 
L 2766 1759 
L 2194 1759 
z
M 3341 1997 
L 3341 0 
L 2766 0 
L 2766 531 
Q 2569 213 2275 61 
Q 1981 -91 1556 -91 
Q 1019 -91 701 211 
Q 384 513 384 1019 
Q 384 1609 779 1909 
Q 1175 2209 1959 2209 
L 2766 2209 
L 2766 2266 
Q 2766 2663 2505 2880 
Q 2244 3097 1772 3097 
Q 1472 3097 1187 3025 
Q 903 2953 641 2809 
L 641 3341 
Q 956 3463 1253 3523 
Q 1550 3584 1831 3584 
Q 2591 3584 2966 3190 
Q 3341 2797 3341 1997 
z
" transform="scale(0.015625)"/>
       <path id="DejaVuSans-5f" d="M 3263 -1063 
L 3263 -1509 
L -63 -1509 
L -63 -1063 
L 3263 -1063 
z
" transform="scale(0.015625)"/>
      </defs>
      <use xlink:href="#DejaVuSans-53"/>
      <use xlink:href="#DejaVuSans-63" x="63.476562"/>
      <use xlink:href="#DejaVuSans-68" x="118.457031"/>
      <use xlink:href="#DejaVuSans-4e" x="181.835938"/>
      <use xlink:href="#DejaVuSans-65" x="256.640625"/>
      <use xlink:href="#DejaVuSans-74" x="318.164062"/>
      <use xlink:href="#DejaVuSans-20" x="357.373047"/>
      <use xlink:href="#DejaVuSans-65" x="389.160156"/>
      <use xlink:href="#DejaVuSans-76" x="450.683594"/>
      <use xlink:href="#DejaVuSans-61" x="509.863281"/>
      <use xlink:href="#DejaVuSans-6c" x="571.142578"/>
      <use xlink:href="#DejaVuSans-5f" x="598.925781"/>
      <use xlink:href="#DejaVuSans-6c" x="648.925781"/>
      <use xlink:href="#DejaVuSans-6f" x="676.708984"/>
      <use xlink:href="#DejaVuSans-73" x="737.890625"/>
      <use xlink:href="#DejaVuSans-73" x="789.990234"/>
     </g>
    </g>
    <g id="line2d_28">
     <path d="M 283.596563 69.526688 
L 293.596563 69.526688 
L 303.596563 69.526688 
" style="fill: none; stroke: #ff7f0e; stroke-opacity: 0.4; stroke-linecap: square"/>
    </g>
    <g id="text_12">
     <!-- M220 eval_loss -->
     <g transform="translate(311.596563 73.026688) scale(0.1 -0.1)">
      <defs>
       <path id="DejaVuSans-4d" d="M 628 4666 
L 1569 4666 
L 2759 1491 
L 3956 4666 
L 4897 4666 
L 4897 0 
L 4281 0 
L 4281 4097 
L 3078 897 
L 2444 897 
L 1241 4097 
L 1241 0 
L 628 0 
L 628 4666 
z
" transform="scale(0.015625)"/>
      </defs>
      <use xlink:href="#DejaVuSans-4d"/>
      <use xlink:href="#DejaVuSans-32" x="86.279297"/>
      <use xlink:href="#DejaVuSans-32" x="149.902344"/>
      <use xlink:href="#DejaVuSans-30" x="213.525391"/>
      <use xlink:href="#DejaVuSans-20" x="277.148438"/>
      <use xlink:href="#DejaVuSans-65" x="308.935547"/>
      <use xlink:href="#DejaVuSans-76" x="370.458984"/>
      <use xlink:href="#DejaVuSans-61" x="429.638672"/>
      <use xlink:href="#DejaVuSans-6c" x="490.917969"/>
      <use xlink:href="#DejaVuSans-5f" x="518.701172"/>
      <use xlink:href="#DejaVuSans-6c" x="568.701172"/>
      <use xlink:href="#DejaVuSans-6f" x="596.484375"/>
      <use xlink:href="#DejaVuSans-73" x="657.666016"/>
      <use xlink:href="#DejaVuSans-73" x="709.765625"/>
     </g>
    </g>
    <g id="line2d_29">
     <path d="M 283.596563 84.482938 
L 293.596563 84.482938 
L 303.596563 84.482938 
" style="fill: none; stroke: #2ca02c; stroke-opacity: 0.4; stroke-linecap: square"/>
    </g>
    <g id="text_13">
     <!-- MoGIN14 eval_loss -->
     <g transform="translate(311.596563 87.982938) scale(0.1 -0.1)">
      <defs>
       <path id="DejaVuSans-47" d="M 3809 666 
L 3809 1919 
L 2778 1919 
L 2778 2438 
L 4434 2438 
L 4434 434 
Q 4069 175 3628 42 
Q 3188 -91 2688 -91 
Q 1594 -91 976 548 
Q 359 1188 359 2328 
Q 359 3472 976 4111 
Q 1594 4750 2688 4750 
Q 3144 4750 3555 4637 
Q 3966 4525 4313 4306 
L 4313 3634 
Q 3963 3931 3569 4081 
Q 3175 4231 2741 4231 
Q 1884 4231 1454 3753 
Q 1025 3275 1025 2328 
Q 1025 1384 1454 906 
Q 1884 428 2741 428 
Q 3075 428 3337 486 
Q 3600 544 3809 666 
z
" transform="scale(0.015625)"/>
       <path id="DejaVuSans-49" d="M 628 4666 
L 1259 4666 
L 1259 0 
L 628 0 
L 628 4666 
z
" transform="scale(0.015625)"/>
      </defs>
      <use xlink:href="#DejaVuSans-4d"/>
      <use xlink:href="#DejaVuSans-6f" x="86.279297"/>
      <use xlink:href="#DejaVuSans-47" x="147.460938"/>
      <use xlink:href="#DejaVuSans-49" x="224.951172"/>
      <use xlink:href="#DejaVuSans-4e" x="254.443359"/>
      <use xlink:href="#DejaVuSans-31" x="329.248047"/>
      <use xlink:href="#DejaVuSans-34" x="392.871094"/>
      <use xlink:href="#DejaVuSans-20" x="456.494141"/>
      <use xlink:href="#DejaVuSans-65" x="488.28125"/>
      <use xlink:href="#DejaVuSans-76" x="549.804688"/>
      <use xlink:href="#DejaVuSans-61" x="608.984375"/>
      <use xlink:href="#DejaVuSans-6c" x="670.263672"/>
      <use xlink:href="#DejaVuSans-5f" x="698.046875"/>
      <use xlink:href="#DejaVuSans-6c" x="748.046875"/>
      <use xlink:href="#DejaVuSans-6f" x="775.830078"/>
      <use xlink:href="#DejaVuSans-73" x="837.011719"/>
      <use xlink:href="#DejaVuSans-73" x="889.111328"/>
     </g>
    </g>
   </g>
  </g>
 </g>
 <defs>
  <clipPath id="p5d670efffb">
   <rect x="57.6" y="41.472" width="357.12" height="266.112"/>
  </clipPath>
 </defs>
</svg>
