<?xml version="1.0" encoding="utf-8" standalone="no"?>
<!DOCTYPE svg PUBLIC "-//W3C//DTD SVG 1.1//EN"
  "http://www.w3.org/Graphics/SVG/1.1/DTD/svg11.dtd">
<svg xmlns:xlink="http://www.w3.org/1999/xlink" width="460.8pt" height="345.6pt" viewBox="0 0 460.8 345.6" xmlns="http://www.w3.org/2000/svg" version="1.1">
 <metadata>
  <rdf:RDF xmlns:dc="http://purl.org/dc/elements/1.1/" xmlns:cc="http://creativecommons.org/ns#" xmlns:rdf="http://www.w3.org/1999/02/22-rdf-syntax-ns#">
   <cc:Work>
    <dc:type rdf:resource="http://purl.org/dc/dcmitype/StillImage"/>
    <dc:date>2025-02-21T09:06:45.694379</dc:date>
    <dc:format>image/svg+xml</dc:format>
    <dc:creator>
     <cc:Agent>
      <dc:title>Matplotlib v3.8.4, https://matplotlib.org/</dc:title>
     </cc:Agent>
    </dc:creator>
   </cc:Work>
  </rdf:RDF>
 </metadata>
 <defs>
  <style type="text/css">*{stroke-linejoin: round; stroke-linecap: butt}</style>
 </defs>
 <g id="figure_1">
  <g id="patch_1">
   <path d="M 0 345.6 
L 460.8 345.6 
L 460.8 0 
L 0 0 
z
" style="fill: #ffffff"/>
  </g>
  <g id="axes_1">
   <g id="patch_2">
    <path d="M 57.6 307.584 
L 414.72 307.584 
L 414.72 41.472 
L 57.6 41.472 
z
" style="fill: #ffffff"/>
   </g>
   <g id="matplotlib.axis_1">
    <g id="xtick_1">
     <g id="line2d_1">
      <defs>
       <path id="ma1d848ec4f" d="M 0 0 
L 0 3.5 
" style="stroke: #000000; stroke-width: 0.8"/>
      </defs>
      <g>
       <use xlink:href="#ma1d848ec4f" x="57.6" y="307.584" style="stroke: #000000; stroke-width: 0.8"/>
      </g>
     </g>
     <g id="text_1">
      <!-- $\mathdefault{10^{3}}$ -->
      <g transform="translate(48.8 322.182437) scale(0.1 -0.1)">
       <defs>
        <path id="DejaVuSans-31" d="M 794 531 
L 1825 531 
L 1825 4091 
L 703 3866 
L 703 4441 
L 1819 4666 
L 2450 4666 
L 2450 531 
L 3481 531 
L 3481 0 
L 794 0 
L 794 531 
z
" transform="scale(0.015625)"/>
        <path id="DejaVuSans-30" d="M 2034 4250 
Q 1547 4250 1301 3770 
Q 1056 3291 1056 2328 
Q 1056 1369 1301 889 
Q 1547 409 2034 409 
Q 2525 409 2770 889 
Q 3016 1369 3016 2328 
Q 3016 3291 2770 3770 
Q 2525 4250 2034 4250 
z
M 2034 4750 
Q 2819 4750 3233 4129 
Q 3647 3509 3647 2328 
Q 3647 1150 3233 529 
Q 2819 -91 2034 -91 
Q 1250 -91 836 529 
Q 422 1150 422 2328 
Q 422 3509 836 4129 
Q 1250 4750 2034 4750 
z
" transform="scale(0.015625)"/>
        <path id="DejaVuSans-33" d="M 2597 2516 
Q 3050 2419 3304 2112 
Q 3559 1806 3559 1356 
Q 3559 666 3084 287 
Q 2609 -91 1734 -91 
Q 1441 -91 1130 -33 
Q 819 25 488 141 
L 488 750 
Q 750 597 1062 519 
Q 1375 441 1716 441 
Q 2309 441 2620 675 
Q 2931 909 2931 1356 
Q 2931 1769 2642 2001 
Q 2353 2234 1838 2234 
L 1294 2234 
L 1294 2753 
L 1863 2753 
Q 2328 2753 2575 2939 
Q 2822 3125 2822 3475 
Q 2822 3834 2567 4026 
Q 2313 4219 1838 4219 
Q 1578 4219 1281 4162 
Q 984 4106 628 3988 
L 628 4550 
Q 988 4650 1302 4700 
Q 1616 4750 1894 4750 
Q 2613 4750 3031 4423 
Q 3450 4097 3450 3541 
Q 3450 3153 3228 2886 
Q 3006 2619 2597 2516 
z
" transform="scale(0.015625)"/>
       </defs>
       <use xlink:href="#DejaVuSans-31" transform="translate(0 0.765625)"/>
       <use xlink:href="#DejaVuSans-30" transform="translate(63.623047 0.765625)"/>
       <use xlink:href="#DejaVuSans-33" transform="translate(128.203125 39.046875) scale(0.7)"/>
      </g>
     </g>
    </g>
    <g id="xtick_2">
     <g id="line2d_2">
      <g>
       <use xlink:href="#ma1d848ec4f" x="267.797943" y="307.584" style="stroke: #000000; stroke-width: 0.8"/>
      </g>
     </g>
     <g id="text_2">
      <!-- $\mathdefault{10^{4}}$ -->
      <g transform="translate(258.997943 322.182437) scale(0.1 -0.1)">
       <defs>
        <path id="DejaVuSans-34" d="M 2419 4116 
L 825 1625 
L 2419 1625 
L 2419 4116 
z
M 2253 4666 
L 3047 4666 
L 3047 1625 
L 3713 1625 
L 3713 1100 
L 3047 1100 
L 3047 0 
L 2419 0 
L 2419 1100 
L 313 1100 
L 313 1709 
L 2253 4666 
z
" transform="scale(0.015625)"/>
       </defs>
       <use xlink:href="#DejaVuSans-31" transform="translate(0 0.684375)"/>
       <use xlink:href="#DejaVuSans-30" transform="translate(63.623047 0.684375)"/>
       <use xlink:href="#DejaVuSans-34" transform="translate(128.203125 38.965625) scale(0.7)"/>
      </g>
     </g>
    </g>
    <g id="xtick_3">
     <g id="line2d_3">
      <defs>
       <path id="m5cdf02aee7" d="M 0 0 
L 0 2 
" style="stroke: #000000; stroke-width: 0.6"/>
      </defs>
      <g>
       <use xlink:href="#m5cdf02aee7" x="120.875886" y="307.584" style="stroke: #000000; stroke-width: 0.6"/>
      </g>
     </g>
    </g>
    <g id="xtick_4">
     <g id="line2d_4">
      <g>
       <use xlink:href="#m5cdf02aee7" x="157.889906" y="307.584" style="stroke: #000000; stroke-width: 0.6"/>
      </g>
     </g>
    </g>
    <g id="xtick_5">
     <g id="line2d_5">
      <g>
       <use xlink:href="#m5cdf02aee7" x="184.151772" y="307.584" style="stroke: #000000; stroke-width: 0.6"/>
      </g>
     </g>
    </g>
    <g id="xtick_6">
     <g id="line2d_6">
      <g>
       <use xlink:href="#m5cdf02aee7" x="204.522057" y="307.584" style="stroke: #000000; stroke-width: 0.6"/>
      </g>
     </g>
    </g>
    <g id="xtick_7">
     <g id="line2d_7">
      <g>
       <use xlink:href="#m5cdf02aee7" x="221.165792" y="307.584" style="stroke: #000000; stroke-width: 0.6"/>
      </g>
     </g>
    </g>
    <g id="xtick_8">
     <g id="line2d_8">
      <g>
       <use xlink:href="#m5cdf02aee7" x="235.23787" y="307.584" style="stroke: #000000; stroke-width: 0.6"/>
      </g>
     </g>
    </g>
    <g id="xtick_9">
     <g id="line2d_9">
      <g>
       <use xlink:href="#m5cdf02aee7" x="247.427658" y="307.584" style="stroke: #000000; stroke-width: 0.6"/>
      </g>
     </g>
    </g>
    <g id="xtick_10">
     <g id="line2d_10">
      <g>
       <use xlink:href="#m5cdf02aee7" x="258.179813" y="307.584" style="stroke: #000000; stroke-width: 0.6"/>
      </g>
     </g>
    </g>
    <g id="xtick_11">
     <g id="line2d_11">
      <g>
       <use xlink:href="#m5cdf02aee7" x="331.073829" y="307.584" style="stroke: #000000; stroke-width: 0.6"/>
      </g>
     </g>
    </g>
    <g id="xtick_12">
     <g id="line2d_12">
      <g>
       <use xlink:href="#m5cdf02aee7" x="368.087849" y="307.584" style="stroke: #000000; stroke-width: 0.6"/>
      </g>
     </g>
    </g>
    <g id="xtick_13">
     <g id="line2d_13">
      <g>
       <use xlink:href="#m5cdf02aee7" x="394.349715" y="307.584" style="stroke: #000000; stroke-width: 0.6"/>
      </g>
     </g>
    </g>
    <g id="xtick_14">
     <g id="line2d_14">
      <g>
       <use xlink:href="#m5cdf02aee7" x="414.72" y="307.584" style="stroke: #000000; stroke-width: 0.6"/>
      </g>
     </g>
    </g>
    <g id="text_3">
     <!-- iter# -->
     <g transform="translate(223.488906 335.860562) scale(0.1 -0.1)">
      <defs>
       <path id="DejaVuSans-69" d="M 603 3500 
L 1178 3500 
L 1178 0 
L 603 0 
L 603 3500 
z
M 603 4863 
L 1178 4863 
L 1178 4134 
L 603 4134 
L 603 4863 
z
" transform="scale(0.015625)"/>
       <path id="DejaVuSans-74" d="M 1172 4494 
L 1172 3500 
L 2356 3500 
L 2356 3053 
L 1172 3053 
L 1172 1153 
Q 1172 725 1289 603 
Q 1406 481 1766 481 
L 2356 481 
L 2356 0 
L 1766 0 
Q 1100 0 847 248 
Q 594 497 594 1153 
L 594 3053 
L 172 3053 
L 172 3500 
L 594 3500 
L 594 4494 
L 1172 4494 
z
" transform="scale(0.015625)"/>
       <path id="DejaVuSans-65" d="M 3597 1894 
L 3597 1613 
L 953 1613 
Q 991 1019 1311 708 
Q 1631 397 2203 397 
Q 2534 397 2845 478 
Q 3156 559 3463 722 
L 3463 178 
Q 3153 47 2828 -22 
Q 2503 -91 2169 -91 
Q 1331 -91 842 396 
Q 353 884 353 1716 
Q 353 2575 817 3079 
Q 1281 3584 2069 3584 
Q 2775 3584 3186 3129 
Q 3597 2675 3597 1894 
z
M 3022 2063 
Q 3016 2534 2758 2815 
Q 2500 3097 2075 3097 
Q 1594 3097 1305 2825 
Q 1016 2553 972 2059 
L 3022 2063 
z
" transform="scale(0.015625)"/>
       <path id="DejaVuSans-72" d="M 2631 2963 
Q 2534 3019 2420 3045 
Q 2306 3072 2169 3072 
Q 1681 3072 1420 2755 
Q 1159 2438 1159 1844 
L 1159 0 
L 581 0 
L 581 3500 
L 1159 3500 
L 1159 2956 
Q 1341 3275 1631 3429 
Q 1922 3584 2338 3584 
Q 2397 3584 2469 3576 
Q 2541 3569 2628 3553 
L 2631 2963 
z
" transform="scale(0.015625)"/>
       <path id="DejaVuSans-23" d="M 3272 2816 
L 2363 2816 
L 2100 1772 
L 3016 1772 
L 3272 2816 
z
M 2803 4594 
L 2478 3297 
L 3391 3297 
L 3719 4594 
L 4219 4594 
L 3897 3297 
L 4872 3297 
L 4872 2816 
L 3775 2816 
L 3519 1772 
L 4513 1772 
L 4513 1294 
L 3397 1294 
L 3072 0 
L 2572 0 
L 2894 1294 
L 1978 1294 
L 1656 0 
L 1153 0 
L 1478 1294 
L 494 1294 
L 494 1772 
L 1594 1772 
L 1856 2816 
L 850 2816 
L 850 3297 
L 1978 3297 
L 2297 4594 
L 2803 4594 
z
" transform="scale(0.015625)"/>
      </defs>
      <use xlink:href="#DejaVuSans-69"/>
      <use xlink:href="#DejaVuSans-74" x="27.783203"/>
      <use xlink:href="#DejaVuSans-65" x="66.992188"/>
      <use xlink:href="#DejaVuSans-72" x="128.515625"/>
      <use xlink:href="#DejaVuSans-23" x="169.628906"/>
     </g>
    </g>
   </g>
   <g id="matplotlib.axis_2">
    <g id="ytick_1">
     <g id="line2d_15">
      <defs>
       <path id="md719dadc68" d="M 0 0 
L -3.5 0 
" style="stroke: #000000; stroke-width: 0.8"/>
      </defs>
      <g>
       <use xlink:href="#md719dadc68" x="57.6" y="307.584" style="stroke: #000000; stroke-width: 0.8"/>
      </g>
     </g>
     <g id="text_4">
      <!-- $\mathdefault{10^{-4}}$ -->
      <g transform="translate(27.1 311.383219) scale(0.1 -0.1)">
       <defs>
        <path id="DejaVuSans-2212" d="M 678 2272 
L 4684 2272 
L 4684 1741 
L 678 1741 
L 678 2272 
z
" transform="scale(0.015625)"/>
       </defs>
       <use xlink:href="#DejaVuSans-31" transform="translate(0 0.684375)"/>
       <use xlink:href="#DejaVuSans-30" transform="translate(63.623047 0.684375)"/>
       <use xlink:href="#DejaVuSans-2212" transform="translate(128.203125 38.965625) scale(0.7)"/>
       <use xlink:href="#DejaVuSans-34" transform="translate(186.855469 38.965625) scale(0.7)"/>
      </g>
     </g>
    </g>
    <g id="ytick_2">
     <g id="line2d_16">
      <g>
       <use xlink:href="#md719dadc68" x="57.6" y="226.969161" style="stroke: #000000; stroke-width: 0.8"/>
      </g>
     </g>
     <g id="text_5">
      <!-- $\mathdefault{10^{-3}}$ -->
      <g transform="translate(27.1 230.76838) scale(0.1 -0.1)">
       <use xlink:href="#DejaVuSans-31" transform="translate(0 0.765625)"/>
       <use xlink:href="#DejaVuSans-30" transform="translate(63.623047 0.765625)"/>
       <use xlink:href="#DejaVuSans-2212" transform="translate(128.203125 39.046875) scale(0.7)"/>
       <use xlink:href="#DejaVuSans-33" transform="translate(186.855469 39.046875) scale(0.7)"/>
      </g>
     </g>
    </g>
    <g id="ytick_3">
     <g id="line2d_17">
      <g>
       <use xlink:href="#md719dadc68" x="57.6" y="146.354323" style="stroke: #000000; stroke-width: 0.8"/>
      </g>
     </g>
     <g id="text_6">
      <!-- $\mathdefault{10^{-2}}$ -->
      <g transform="translate(27.1 150.153542) scale(0.1 -0.1)">
       <defs>
        <path id="DejaVuSans-32" d="M 1228 531 
L 3431 531 
L 3431 0 
L 469 0 
L 469 531 
Q 828 903 1448 1529 
Q 2069 2156 2228 2338 
Q 2531 2678 2651 2914 
Q 2772 3150 2772 3378 
Q 2772 3750 2511 3984 
Q 2250 4219 1831 4219 
Q 1534 4219 1204 4116 
Q 875 4013 500 3803 
L 500 4441 
Q 881 4594 1212 4672 
Q 1544 4750 1819 4750 
Q 2544 4750 2975 4387 
Q 3406 4025 3406 3419 
Q 3406 3131 3298 2873 
Q 3191 2616 2906 2266 
Q 2828 2175 2409 1742 
Q 1991 1309 1228 531 
z
" transform="scale(0.015625)"/>
       </defs>
       <use xlink:href="#DejaVuSans-31" transform="translate(0 0.765625)"/>
       <use xlink:href="#DejaVuSans-30" transform="translate(63.623047 0.765625)"/>
       <use xlink:href="#DejaVuSans-2212" transform="translate(128.203125 39.046875) scale(0.7)"/>
       <use xlink:href="#DejaVuSans-32" transform="translate(186.855469 39.046875) scale(0.7)"/>
      </g>
     </g>
    </g>
    <g id="ytick_4">
     <g id="line2d_18">
      <g>
       <use xlink:href="#md719dadc68" x="57.6" y="65.739484" style="stroke: #000000; stroke-width: 0.8"/>
      </g>
     </g>
     <g id="text_7">
      <!-- $\mathdefault{10^{-1}}$ -->
      <g transform="translate(27.1 69.538703) scale(0.1 -0.1)">
       <use xlink:href="#DejaVuSans-31" transform="translate(0 0.684375)"/>
       <use xlink:href="#DejaVuSans-30" transform="translate(63.623047 0.684375)"/>
       <use xlink:href="#DejaVuSans-2212" transform="translate(128.203125 38.965625) scale(0.7)"/>
       <use xlink:href="#DejaVuSans-31" transform="translate(186.855469 38.965625) scale(0.7)"/>
      </g>
     </g>
    </g>
    <g id="ytick_5">
     <g id="line2d_19">
      <defs>
       <path id="m46fdeff006" d="M 0 0 
L -2 0 
" style="stroke: #000000; stroke-width: 0.6"/>
      </defs>
      <g>
       <use xlink:href="#m46fdeff006" x="57.6" y="283.316516" style="stroke: #000000; stroke-width: 0.6"/>
      </g>
     </g>
    </g>
    <g id="ytick_6">
     <g id="line2d_20">
      <g>
       <use xlink:href="#m46fdeff006" x="57.6" y="269.120947" style="stroke: #000000; stroke-width: 0.6"/>
      </g>
     </g>
    </g>
    <g id="ytick_7">
     <g id="line2d_21">
      <g>
       <use xlink:href="#m46fdeff006" x="57.6" y="259.049031" style="stroke: #000000; stroke-width: 0.6"/>
      </g>
     </g>
    </g>
    <g id="ytick_8">
     <g id="line2d_22">
      <g>
       <use xlink:href="#m46fdeff006" x="57.6" y="251.236646" style="stroke: #000000; stroke-width: 0.6"/>
      </g>
     </g>
    </g>
    <g id="ytick_9">
     <g id="line2d_23">
      <g>
       <use xlink:href="#m46fdeff006" x="57.6" y="244.853463" style="stroke: #000000; stroke-width: 0.6"/>
      </g>
     </g>
    </g>
    <g id="ytick_10">
     <g id="line2d_24">
      <g>
       <use xlink:href="#m46fdeff006" x="57.6" y="239.456558" style="stroke: #000000; stroke-width: 0.6"/>
      </g>
     </g>
    </g>
    <g id="ytick_11">
     <g id="line2d_25">
      <g>
       <use xlink:href="#m46fdeff006" x="57.6" y="234.781547" style="stroke: #000000; stroke-width: 0.6"/>
      </g>
     </g>
    </g>
    <g id="ytick_12">
     <g id="line2d_26">
      <g>
       <use xlink:href="#m46fdeff006" x="57.6" y="230.657894" style="stroke: #000000; stroke-width: 0.6"/>
      </g>
     </g>
    </g>
    <g id="ytick_13">
     <g id="line2d_27">
      <g>
       <use xlink:href="#m46fdeff006" x="57.6" y="202.701677" style="stroke: #000000; stroke-width: 0.6"/>
      </g>
     </g>
    </g>
    <g id="ytick_14">
     <g id="line2d_28">
      <g>
       <use xlink:href="#m46fdeff006" x="57.6" y="188.506109" style="stroke: #000000; stroke-width: 0.6"/>
      </g>
     </g>
    </g>
    <g id="ytick_15">
     <g id="line2d_29">
      <g>
       <use xlink:href="#m46fdeff006" x="57.6" y="178.434193" style="stroke: #000000; stroke-width: 0.6"/>
      </g>
     </g>
    </g>
    <g id="ytick_16">
     <g id="line2d_30">
      <g>
       <use xlink:href="#m46fdeff006" x="57.6" y="170.621807" style="stroke: #000000; stroke-width: 0.6"/>
      </g>
     </g>
    </g>
    <g id="ytick_17">
     <g id="line2d_31">
      <g>
       <use xlink:href="#m46fdeff006" x="57.6" y="164.238624" style="stroke: #000000; stroke-width: 0.6"/>
      </g>
     </g>
    </g>
    <g id="ytick_18">
     <g id="line2d_32">
      <g>
       <use xlink:href="#m46fdeff006" x="57.6" y="158.841719" style="stroke: #000000; stroke-width: 0.6"/>
      </g>
     </g>
    </g>
    <g id="ytick_19">
     <g id="line2d_33">
      <g>
       <use xlink:href="#m46fdeff006" x="57.6" y="154.166708" style="stroke: #000000; stroke-width: 0.6"/>
      </g>
     </g>
    </g>
    <g id="ytick_20">
     <g id="line2d_34">
      <g>
       <use xlink:href="#m46fdeff006" x="57.6" y="150.043056" style="stroke: #000000; stroke-width: 0.6"/>
      </g>
     </g>
    </g>
    <g id="ytick_21">
     <g id="line2d_35">
      <g>
       <use xlink:href="#m46fdeff006" x="57.6" y="122.086839" style="stroke: #000000; stroke-width: 0.6"/>
      </g>
     </g>
    </g>
    <g id="ytick_22">
     <g id="line2d_36">
      <g>
       <use xlink:href="#m46fdeff006" x="57.6" y="107.89127" style="stroke: #000000; stroke-width: 0.6"/>
      </g>
     </g>
    </g>
    <g id="ytick_23">
     <g id="line2d_37">
      <g>
       <use xlink:href="#m46fdeff006" x="57.6" y="97.819354" style="stroke: #000000; stroke-width: 0.6"/>
      </g>
     </g>
    </g>
    <g id="ytick_24">
     <g id="line2d_38">
      <g>
       <use xlink:href="#m46fdeff006" x="57.6" y="90.006969" style="stroke: #000000; stroke-width: 0.6"/>
      </g>
     </g>
    </g>
    <g id="ytick_25">
     <g id="line2d_39">
      <g>
       <use xlink:href="#m46fdeff006" x="57.6" y="83.623786" style="stroke: #000000; stroke-width: 0.6"/>
      </g>
     </g>
    </g>
    <g id="ytick_26">
     <g id="line2d_40">
      <g>
       <use xlink:href="#m46fdeff006" x="57.6" y="78.226881" style="stroke: #000000; stroke-width: 0.6"/>
      </g>
     </g>
    </g>
    <g id="ytick_27">
     <g id="line2d_41">
      <g>
       <use xlink:href="#m46fdeff006" x="57.6" y="73.55187" style="stroke: #000000; stroke-width: 0.6"/>
      </g>
     </g>
    </g>
    <g id="ytick_28">
     <g id="line2d_42">
      <g>
       <use xlink:href="#m46fdeff006" x="57.6" y="69.428217" style="stroke: #000000; stroke-width: 0.6"/>
      </g>
     </g>
    </g>
    <g id="ytick_29">
     <g id="line2d_43">
      <g>
       <use xlink:href="#m46fdeff006" x="57.6" y="41.472" style="stroke: #000000; stroke-width: 0.6"/>
      </g>
     </g>
    </g>
    <g id="text_8">
     <!-- loss -->
     <g transform="translate(21.020313 184.185812) rotate(-90) scale(0.1 -0.1)">
      <defs>
       <path id="DejaVuSans-6c" d="M 603 4863 
L 1178 4863 
L 1178 0 
L 603 0 
L 603 4863 
z
" transform="scale(0.015625)"/>
       <path id="DejaVuSans-6f" d="M 1959 3097 
Q 1497 3097 1228 2736 
Q 959 2375 959 1747 
Q 959 1119 1226 758 
Q 1494 397 1959 397 
Q 2419 397 2687 759 
Q 2956 1122 2956 1747 
Q 2956 2369 2687 2733 
Q 2419 3097 1959 3097 
z
M 1959 3584 
Q 2709 3584 3137 3096 
Q 3566 2609 3566 1747 
Q 3566 888 3137 398 
Q 2709 -91 1959 -91 
Q 1206 -91 779 398 
Q 353 888 353 1747 
Q 353 2609 779 3096 
Q 1206 3584 1959 3584 
z
" transform="scale(0.015625)"/>
       <path id="DejaVuSans-73" d="M 2834 3397 
L 2834 2853 
Q 2591 2978 2328 3040 
Q 2066 3103 1784 3103 
Q 1356 3103 1142 2972 
Q 928 2841 928 2578 
Q 928 2378 1081 2264 
Q 1234 2150 1697 2047 
L 1894 2003 
Q 2506 1872 2764 1633 
Q 3022 1394 3022 966 
Q 3022 478 2636 193 
Q 2250 -91 1575 -91 
Q 1294 -91 989 -36 
Q 684 19 347 128 
L 347 722 
Q 666 556 975 473 
Q 1284 391 1588 391 
Q 1994 391 2212 530 
Q 2431 669 2431 922 
Q 2431 1156 2273 1281 
Q 2116 1406 1581 1522 
L 1381 1569 
Q 847 1681 609 1914 
Q 372 2147 372 2553 
Q 372 3047 722 3315 
Q 1072 3584 1716 3584 
Q 2034 3584 2315 3537 
Q 2597 3491 2834 3397 
z
" transform="scale(0.015625)"/>
      </defs>
      <use xlink:href="#DejaVuSans-6c"/>
      <use xlink:href="#DejaVuSans-6f" x="27.783203"/>
      <use xlink:href="#DejaVuSans-73" x="88.964844"/>
      <use xlink:href="#DejaVuSans-73" x="141.064453"/>
     </g>
    </g>
   </g>
   <g id="line2d_44">
    <path d="M 58.089393 -1 
L 65.383184 2.877794 
L 70.596393 5.639328 
L 80.206606 11.122742 
L 84.657159 13.241519 
L 88.900784 15.678545 
L 92.955871 17.434711 
L 96.838463 19.902524 
L 100.562638 21.945171 
L 104.140817 24.229989 
L 107.584018 26.060981 
L 114.103709 30.467008 
L 117.196869 32.22081 
L 123.085479 36.360005 
L 123.839744 38.176158 
L 126.624717 39.773386 
L 129.327236 40.665978 
L 131.952044 42.369141 
L 134.503485 43.168709 
L 136.985549 44.361367 
L 139.40191 46.206963 
L 141.755957 47.569564 
L 146.289409 50.39981 
L 148.474413 50.062136 
L 150.608337 50.166227 
L 152.693517 51.339146 
L 154.732129 52.325262 
L 156.726208 54.123708 
L 160.588264 56.270519 
L 162.459701 56.417888 
L 164.293541 58.133672 
L 166.091267 59.296328 
L 167.854273 60.698426 
L 169.583875 60.822286 
L 171.281314 61.254983 
L 172.947767 62.398999 
L 174.584343 63.290254 
L 176.192095 63.357196 
L 177.77202 64.385607 
L 179.325067 65.731851 
L 180.852133 67.268919 
L 182.354074 66.782334 
L 183.831704 66.549257 
L 185.285796 66.860287 
L 186.71709 67.558208 
L 187.093535 66.684559 
L 189.879171 70.011966 
L 191.240749 69.476152 
L 192.582316 70.316274 
L 193.904452 71.364546 
L 196.49263 72.011508 
L 197.759712 72.242673 
L 199.009447 73.665762 
L 200.242303 74.1879 
L 201.458732 73.82622 
L 202.659164 74.659192 
L 203.844015 75.252556 
L 205.013685 75.51212 
L 206.168557 76.661639 
L 207.309001 76.500685 
L 208.435374 77.661886 
L 209.548017 79.153574 
L 210.647263 78.655451 
L 211.733429 77.742535 
L 212.806824 75.82831 
L 213.867744 76.86805 
L 214.916475 76.892598 
L 216.978472 79.545966 
L 217.992263 80.02143 
L 218.99492 81.464916 
L 219.986683 79.76125 
L 220.967787 80.946038 
L 221.938459 79.921335 
L 222.898919 79.30772 
L 223.849378 80.321308 
L 224.100189 81.164339 
L 225.038286 80.975034 
L 225.966842 78.544723 
L 226.886047 80.195464 
L 228.697148 82.821222 
L 229.5894 82.670475 
L 230.473015 83.816247 
L 231.34816 84.531035 
L 232.214994 84.114902 
L 233.073675 85.01865 
L 233.924353 85.556615 
L 234.767178 86.552943 
L 236.429836 88.925402 
L 238.062753 90.075058 
L 238.868387 90.08116 
L 239.666973 89.310672 
L 240.458634 87.105625 
L 241.243488 84.090054 
L 242.021652 84.394677 
L 242.793239 81.647932 
L 243.558358 81.248919 
L 244.317119 78.042505 
L 245.069624 76.82606 
L 245.815977 77.854258 
L 246.556278 78.086064 
L 247.290623 78.996218 
L 248.019108 80.177601 
L 248.741826 81.009604 
L 249.458867 80.837674 
L 250.170319 80.357222 
L 250.358371 81.812861 
L 251.062874 82.937655 
L 251.761983 84.394897 
L 252.455778 85.025161 
L 253.14434 85.291306 
L 253.827747 84.935021 
L 254.506076 86.026576 
L 255.179401 87.709628 
L 255.847797 87.660041 
L 256.511334 88.171928 
L 257.170083 87.058033 
L 257.824112 87.377015 
L 258.473489 87.545424 
L 259.118279 88.432464 
L 259.758547 85.052561 
L 260.394356 84.794976 
L 261.65284 87.899442 
L 262.275635 88.543831 
L 262.89421 86.54041 
L 263.508622 87.539588 
L 264.118926 88.280179 
L 264.725177 87.355985 
L 265.327428 87.981857 
L 266.520141 83.197 
L 267.697471 85.692499 
L 268.280491 86.273618 
L 268.85981 87.587235 
L 269.435477 86.684022 
L 270.007536 86.309744 
L 270.576032 85.776898 
L 270.726446 86.631407 
L 271.290497 87.371254 
L 271.851084 88.846246 
L 272.408249 87.947364 
L 273.512481 91.018688 
L 274.059628 91.210156 
L 274.603516 92.646364 
L 275.681664 90.373513 
L 276.216001 90.841847 
L 276.747228 91.468634 
L 277.275382 92.82286 
L 277.800497 92.919392 
L 278.322609 93.641231 
L 278.841752 93.525843 
L 279.35796 92.774184 
L 279.871265 93.138958 
L 280.381699 92.276515 
L 280.889296 91.715647 
L 281.394085 92.319382 
L 281.896099 89.063689 
L 282.891919 90.721552 
L 283.385785 91.194569 
L 283.876994 92.893775 
L 284.365573 93.985108 
L 284.851552 95.702112 
L 285.334957 96.883949 
L 285.815815 97.188991 
L 287.243378 100.497868 
L 287.368708 102.014175 
L 288.30688 104.346042 
L 289.696305 107.758324 
L 290.154787 106.126585 
L 290.610978 106.89037 
L 291.0649 106.937098 
L 291.516576 107.329662 
L 291.966028 105.931678 
L 292.413279 106.673568 
L 292.858349 102.316476 
L 293.301259 103.636102 
L 293.742031 105.303942 
L 294.617241 107.322447 
L 295.051719 105.517034 
L 295.484139 105.677528 
L 295.914521 107.149102 
L 296.342883 105.649238 
L 296.769245 106.608155 
L 297.193624 103.547172 
L 297.616039 102.015474 
L 298.036509 101.625927 
L 298.455052 101.676578 
L 298.871683 101.390549 
L 299.286423 102.576397 
L 299.699286 95.420957 
L 301.332317 101.27357 
L 301.439733 102.33363 
L 302.644207 107.130504 
L 303.438451 110.341088 
L 304.225844 109.536759 
L 304.617008 110.561966 
L 305.006503 111.922574 
L 305.394344 110.61666 
L 305.780543 110.523661 
L 306.165116 109.574907 
L 306.548075 109.736745 
L 306.929435 111.143008 
L 307.687408 111.908612 
L 308.064047 113.340734 
L 308.439138 113.892436 
L 308.812695 112.894935 
L 309.18473 113.518706 
L 309.92428 110.866057 
L 310.291821 111.16898 
L 310.657888 111.828074 
L 311.022493 113.225219 
L 311.385647 112.978049 
L 311.747363 109.226627 
L 312.10765 108.125673 
L 312.466522 108.78193 
L 312.823988 110.292298 
L 313.18006 111.287331 
L 313.534748 111.447391 
L 313.628731 110.949754 
L 313.981684 111.733818 
L 314.683522 114.072636 
L 315.032427 114.916584 
L 315.380005 116.316052 
L 315.726264 116.731398 
L 316.071214 113.960505 
L 316.414866 112.80338 
L 316.757229 112.482311 
L 317.438127 114.968484 
L 317.776681 115.279723 
L 318.113984 115.321542 
L 318.450046 114.682297 
L 318.784874 113.246055 
L 319.45087 116.052508 
L 319.782055 110.544363 
L 321.094907 115.013036 
L 321.420191 115.180828 
L 321.74432 114.503574 
L 322.067302 114.562366 
L 322.389145 112.19866 
L 323.347923 114.853562 
L 323.665291 114.719242 
L 324.296736 113.775661 
L 324.694077 115.937421 
L 325.629072 120.535684 
L 325.938621 121.793374 
L 326.247124 120.177005 
L 326.554588 121.175819 
L 327.166426 123.613667 
L 327.470814 122.388307 
L 327.77419 123.149527 
L 328.076562 123.458455 
L 328.678317 125.424061 
L 328.977714 121.362737 
L 329.276131 120.462404 
L 329.573577 121.220454 
L 329.870056 122.722514 
L 330.165576 122.635301 
L 330.460142 124.032105 
L 330.753761 108.161595 
L 331.046438 108.964232 
L 331.33818 109.015207 
L 332.495913 115.132156 
L 332.783066 115.330822 
L 333.069319 116.713049 
L 333.354678 116.653156 
L 333.639147 116.439708 
L 333.922732 117.509136 
L 333.997911 118.53327 
L 334.280386 119.66479 
L 334.56199 121.369236 
L 334.842727 121.409977 
L 335.679796 125.688979 
L 335.957121 125.148013 
L 336.233607 125.437851 
L 336.509258 126.057147 
L 337.331252 129.703608 
L 337.603614 129.183141 
L 337.875165 130.175871 
L 338.145911 127.611894 
L 338.415856 127.190741 
L 338.685005 128.098647 
L 338.953363 129.634185 
L 339.220935 130.107986 
L 339.487724 129.564454 
L 339.753736 123.246334 
L 340.018976 120.596182 
L 340.283446 120.687996 
L 340.547153 121.869901 
L 340.8101 121.652386 
L 341.072292 122.181744 
L 341.594428 123.467104 
L 341.85438 120.071601 
L 342.113594 120.775922 
L 342.372074 120.875729 
L 342.629824 122.08682 
L 342.698167 122.980292 
L 342.954999 124.144308 
L 343.211111 124.450651 
L 343.466506 123.953172 
L 343.721189 124.424784 
L 344.228433 127.426356 
L 344.481002 126.110699 
L 344.732874 127.017335 
L 344.984053 124.820647 
L 345.234543 124.750082 
L 345.484347 123.681357 
L 345.73347 124.726009 
L 345.981914 124.833877 
L 346.229685 125.557941 
L 346.476784 124.851264 
L 346.723217 125.101394 
L 346.968986 125.543193 
L 347.214095 126.68853 
L 347.458548 127.098431 
L 347.702348 127.090324 
L 347.945499 127.63603 
L 348.188003 126.203392 
L 348.429865 125.882934 
L 348.911676 127.49589 
L 349.151631 125.226781 
L 349.390957 124.454302 
L 349.629657 125.743471 
L 349.867734 126.034542 
L 350.105193 125.852258 
L 350.342035 126.692958 
L 351.34547 132.149673 
L 351.57912 132.324423 
L 351.812174 133.771201 
L 352.044634 133.386629 
L 353.198138 139.820898 
L 353.4271 139.476991 
L 353.655489 136.055124 
L 353.883308 135.146055 
L 354.11056 136.4422 
L 354.337248 136.272157 
L 354.563374 135.378072 
L 354.788942 136.256843 
L 355.013953 135.741627 
L 355.238411 136.314758 
L 355.462319 135.595389 
L 355.685679 135.774614 
L 355.908494 135.322127 
L 356.352498 136.254575 
L 356.573693 135.109591 
L 356.794353 131.949926 
L 357.014481 132.201613 
L 357.23408 131.514815 
L 357.453152 131.638878 
L 357.671699 132.05698 
L 357.889724 133.435687 
L 357.94755 134.797233 
L 358.164918 132.692827 
L 358.38177 133.806586 
L 358.598108 134.29973 
L 358.813934 135.62442 
L 359.029251 135.335479 
L 359.458369 137.314815 
L 359.672173 135.62249 
L 359.885478 131.498893 
L 360.098286 123.37911 
L 360.310599 122.582124 
L 361.154946 128.832817 
L 361.364818 129.207609 
L 361.991555 133.234143 
L 362.199515 133.18106 
L 362.407002 134.547838 
L 362.614019 132.950138 
L 362.820567 133.669922 
L 363.026649 135.049201 
L 363.232266 133.932004 
L 363.642118 135.711224 
L 363.846355 135.193113 
L 364.050137 134.074724 
L 364.456341 136.682146 
L 364.658767 136.91486 
L 364.712461 138.335205 
L 365.517235 143.848951 
L 365.717325 144.376932 
L 365.916977 145.389311 
L 366.116193 144.144546 
L 366.314976 143.662234 
L 366.711248 145.376576 
L 366.90874 142.617193 
L 367.302448 143.665633 
L 367.498667 141.39589 
L 367.889844 143.109578 
L 368.473485 144.282736 
L 369.245914 149.166066 
L 369.438004 144.04492 
L 369.62969 142.994356 
L 369.820976 143.757724 
L 370.011861 143.213022 
L 370.202348 143.221114 
L 370.392438 144.544253 
L 370.582133 144.91198 
L 370.771435 146.099707 
L 370.960345 145.858222 
L 371.010458 145.547087 
L 371.574546 149.301899 
L 371.761803 147.463323 
L 371.948676 147.709185 
L 372.32128 144.354781 
L 372.507013 145.867874 
L 372.692369 145.922903 
L 372.87735 144.482983 
L 373.061956 144.411616 
L 373.430053 143.874565 
L 373.613546 142.705907 
L 373.796671 143.263186 
L 373.979429 135.490919 
L 374.343852 137.285575 
L 374.887773 140.842195 
L 375.068362 141.120764 
L 375.248595 142.079992 
L 375.607996 139.151833 
L 375.787168 140.637892 
L 376.322582 142.41024 
L 376.854873 145.818282 
L 376.901854 146.946741 
L 377.606422 148.271082 
L 377.781717 149.264821 
L 377.956676 149.224384 
L 378.131301 147.759177 
L 378.305593 148.364816 
L 378.479552 148.255742 
L 378.65318 147.474073 
L 378.826479 147.977517 
L 378.999449 146.742152 
L 379.172093 136.133674 
L 379.34441 136.50273 
L 380.030445 141.307269 
L 380.201152 141.158199 
L 380.880802 145.462063 
L 381.049927 146.014805 
L 381.218739 145.37942 
L 381.38724 143.091884 
L 381.723311 144.796575 
L 381.890884 144.662229 
L 382.058149 144.208148 
L 382.225109 144.523059 
L 382.391764 144.163578 
L 382.43598 145.746553 
L 382.76822 147.69526 
L 383.264322 151.10819 
L 383.429092 151.162404 
L 383.593566 150.213038 
L 383.757743 150.716399 
L 383.921626 150.486553 
L 384.085215 151.23274 
L 384.411516 154.008145 
L 384.736656 154.969666 
L 384.898792 154.468756 
L 385.544473 159.21769 
L 385.705182 155.925149 
L 385.865609 156.157191 
L 386.025754 157.234413 
L 386.185619 155.402637 
L 386.345204 156.333232 
L 386.504511 155.297757 
L 386.663541 155.366691 
L 386.822293 155.582846 
L 387.138973 154.999155 
L 387.611943 157.710449 
L 387.653702 156.238495 
L 387.810744 156.349945 
L 388.124019 158.550046 
L 388.280254 159.772896 
L 388.436223 156.305356 
L 388.591925 157.45052 
L 388.747363 156.326448 
L 389.057445 158.131693 
L 389.366478 153.558118 
L 389.520604 154.172193 
L 389.981424 157.685717 
L 390.134515 157.064275 
L 390.28735 156.965578 
L 390.439929 157.804348 
L 390.592254 156.723508 
L 390.744325 156.67915 
L 390.896144 153.699098 
L 391.04771 153.404384 
L 391.350089 151.16093 
L 391.500904 151.081661 
L 391.651471 150.54902 
L 391.801789 146.881632 
L 391.95186 147.555944 
L 392.101685 147.169396 
L 392.251264 147.652918 
L 392.589251 150.80062 
L 392.738034 150.614487 
L 393.034875 153.256037 
L 393.330754 155.734818 
L 393.478335 154.649997 
L 393.625677 155.690735 
L 393.772782 155.095124 
L 394.066283 157.157566 
L 394.358843 158.28743 
L 394.504772 157.592918 
L 394.795933 159.160796 
L 394.941165 158.678942 
L 395.086167 157.493318 
L 395.375482 159.243003 
L 395.663883 160.505001 
L 395.951376 161.763598 
L 396.094783 158.10213 
L 396.237966 158.707973 
L 396.523659 161.013584 
L 396.666171 160.348929 
L 396.950529 162.113948 
L 397.092377 159.061323 
L 397.234004 158.875915 
L 397.271587 159.984484 
L 397.554069 161.722404 
L 397.694982 162.744559 
L 397.835679 162.939681 
L 398.535927 167.709333 
L 398.675334 162.136879 
L 398.814529 163.382681 
L 399.092283 160.736288 
L 399.230844 160.979507 
L 399.507336 162.306087 
L 399.645269 162.575847 
L 399.782994 155.676119 
L 399.920511 156.127075 
L 400.057822 157.455721 
L 400.194926 156.431946 
L 400.468518 158.006146 
L 400.605007 156.890202 
L 400.741293 157.037306 
L 401.148932 159.463493 
L 401.284409 159.903861 
L 401.55476 158.707862 
L 401.860053 161.788939 
L 401.994479 161.304118 
L 402.262739 163.713553 
L 402.396573 163.142675 
L 402.530212 161.337223 
L 403.062819 164.783388 
L 403.195487 163.102331 
L 403.327962 164.300801 
L 403.592337 163.039177 
L 403.855949 164.249392 
L 404.249944 167.014745 
L 404.642247 164.550688 
L 405.032871 167.470671 
L 405.162708 165.724565 
L 405.292361 166.948557 
L 405.42183 164.633602 
L 405.551116 165.235184 
L 405.680218 163.202176 
L 405.937878 165.030175 
L 406.100553 167.316697 
L 406.484999 169.074252 
L 406.612789 168.621736 
L 407.249068 172.4803 
L 407.375793 172.098113 
L 407.502343 173.291003 
L 407.628718 172.833237 
L 407.880943 170.613364 
L 408.006795 171.306157 
L 408.383313 168.538595 
L 408.633465 170.139664 
L 408.758284 170.105966 
L 408.882933 170.909229 
L 409.007412 170.54271 
L 409.131721 169.572677 
L 409.255862 170.758049 
L 409.379834 169.571497 
L 409.503637 170.004917 
L 409.627273 169.675956 
L 409.750742 169.851731 
L 409.874044 170.306391 
L 410.02986 167.748973 
L 410.520573 170.852496 
L 410.642841 166.853396 
L 410.886885 167.972396 
L 411.373025 170.206928 
L 411.494157 168.717187 
L 411.735939 170.596296 
L 411.85659 170.059443 
L 412.217591 173.504661 
L 412.457467 172.068431 
L 412.577169 172.992553 
L 412.696714 170.641434 
L 413.054414 173.207084 
L 413.173336 172.880626 
L 413.292104 174.077219 
L 413.410717 173.768305 
L 413.647483 175.367215 
L 413.765635 172.63703 
L 413.914954 173.25329 
L 414.385274 177.476582 
L 414.502476 177.753001 
L 414.73643 175.563128 
L 414.73643 175.563128 
" clip-path="url(#p8b99a97698)" style="fill: none; stroke: #1f77b4; stroke-opacity: 0.4; stroke-linecap: square"/>
   </g>
   <g id="line2d_45">
    <path d="M 53.968492 56.608055 
L 59.854134 58.193619 
L 65.383184 60.639854 
L 70.596393 62.584901 
L 75.527904 64.667676 
L 80.206606 66.016094 
L 84.657159 67.992982 
L 88.900784 69.734742 
L 92.955871 70.89446 
L 96.838463 72.756755 
L 104.140817 74.608662 
L 107.584018 76.330136 
L 110.902055 77.844628 
L 114.103709 78.548459 
L 117.196869 79.451004 
L 120.188647 77.110246 
L 123.085479 78.460978 
L 123.839744 79.884202 
L 126.624717 81.324134 
L 131.952044 83.479742 
L 134.503485 84.791065 
L 136.985549 84.531454 
L 139.40191 85.756921 
L 141.755957 84.796672 
L 144.050822 85.956111 
L 146.289409 87.27381 
L 148.474413 88.203356 
L 150.608337 86.720411 
L 152.693517 86.24619 
L 154.732129 87.470991 
L 156.726208 88.31873 
L 158.677659 89.686644 
L 166.091267 94.23575 
L 167.854273 94.416846 
L 169.583875 95.653593 
L 171.281314 96.695307 
L 172.947767 96.473205 
L 174.584343 97.439729 
L 176.192095 97.49823 
L 179.325067 99.501517 
L 182.354074 100.50943 
L 183.831704 99.619499 
L 185.285796 100.30396 
L 186.71709 101.275828 
L 187.093535 100.862568 
L 188.496978 100.86258 
L 189.879171 101.395574 
L 191.240749 102.10791 
L 192.582316 102.137315 
L 193.904452 102.559099 
L 195.207713 103.282635 
L 197.759712 103.853244 
L 199.009447 104.654354 
L 200.242303 105.153667 
L 201.458732 104.877841 
L 202.659164 105.652649 
L 203.844015 104.449074 
L 205.013685 105.242051 
L 206.168557 105.662059 
L 207.309001 106.35921 
L 208.435374 107.341903 
L 210.647263 108.36805 
L 211.733429 106.595267 
L 212.806824 106.7062 
L 213.867744 107.588474 
L 214.916475 108.094411 
L 216.978472 108.763891 
L 217.992263 106.171663 
L 218.99492 107.015695 
L 219.986683 106.911652 
L 221.938459 103.492205 
L 222.898919 104.505458 
L 223.849378 101.781695 
L 224.100189 101.91176 
L 225.038286 102.557252 
L 227.796089 105.463099 
L 228.697148 105.887819 
L 229.5894 106.768222 
L 230.473015 106.935549 
L 231.34816 107.363065 
L 232.214994 107.920327 
L 233.073675 108.739813 
L 233.924353 108.401551 
L 234.767178 109.158511 
L 235.602292 110.140892 
L 236.429836 110.670908 
L 237.249946 110.024114 
L 238.062753 110.381409 
L 238.868387 110.301294 
L 241.243488 112.514373 
L 242.021652 111.880203 
L 242.793239 111.071045 
L 244.317119 112.136858 
L 245.069624 110.328119 
L 245.815977 110.029127 
L 246.556278 111.023109 
L 247.290623 111.227887 
L 248.741826 112.457383 
L 249.458867 111.556753 
L 250.170319 111.640695 
L 250.358371 111.935842 
L 251.062874 111.732965 
L 251.761983 112.899285 
L 252.455778 111.073924 
L 253.14434 112.333374 
L 254.506076 113.848892 
L 255.179401 114.337197 
L 256.511334 116.879888 
L 257.170083 117.666189 
L 257.824112 118.890364 
L 258.473489 119.75521 
L 259.118279 119.966277 
L 259.758547 121.090691 
L 260.394356 119.232116 
L 261.025766 119.732096 
L 261.65284 119.592398 
L 262.275635 120.267123 
L 262.89421 121.375686 
L 263.508622 120.427675 
L 264.118926 121.40352 
L 264.725177 117.260347 
L 265.327428 114.712178 
L 266.520141 113.632721 
L 267.110704 114.105991 
L 267.697471 113.367231 
L 268.85981 116.159791 
L 269.435477 116.249717 
L 270.007536 117.623511 
L 270.576032 117.642341 
L 270.726446 118.027843 
L 271.290497 116.534345 
L 271.851084 117.860891 
L 272.408249 117.457344 
L 272.962035 118.855869 
L 273.512481 118.859499 
L 274.059628 120.259362 
L 275.681664 121.146905 
L 276.216001 121.394755 
L 276.747228 122.404137 
L 277.800497 125.123284 
L 278.322609 125.593453 
L 278.841752 126.939133 
L 279.35796 127.558597 
L 279.871265 128.666507 
L 280.381699 129.33942 
L 280.889296 129.574783 
L 281.394085 130.209295 
L 282.395367 132.413849 
L 282.891919 130.821795 
L 283.385785 131.789275 
L 283.876994 129.900755 
L 284.365573 129.216562 
L 285.334957 131.399352 
L 285.815815 131.262218 
L 286.294154 132.460952 
L 286.77 132.820959 
L 287.243378 131.613631 
L 287.368708 132.568308 
L 287.838999 133.589521 
L 288.772376 134.082361 
L 289.696305 136.43324 
L 290.154787 135.502771 
L 290.610978 131.656919 
L 291.0649 129.401003 
L 292.413279 132.466444 
L 292.858349 132.761289 
L 293.301259 133.446718 
L 293.742031 132.143313 
L 294.180685 133.384921 
L 294.617241 130.882088 
L 295.484139 132.507894 
L 295.914521 133.876712 
L 296.342883 134.141515 
L 296.769245 132.747838 
L 297.193624 133.415918 
L 297.616039 132.943159 
L 298.036509 133.755532 
L 298.455052 133.782024 
L 298.871683 133.141243 
L 299.286423 132.196859 
L 300.519453 135.201835 
L 300.926789 131.710178 
L 301.439733 133.622933 
L 301.842993 134.067146 
L 302.244479 133.923013 
L 302.644207 134.202242 
L 303.042193 135.219542 
L 303.438451 135.880513 
L 304.225844 137.376761 
L 304.617008 137.748297 
L 305.006503 136.774632 
L 305.780543 138.113345 
L 306.165116 138.176079 
L 306.548075 139.125069 
L 306.929435 140.445975 
L 307.309208 140.290387 
L 307.687408 141.606275 
L 308.064047 142.370804 
L 308.439138 140.759987 
L 308.812695 141.904884 
L 309.18473 142.419575 
L 309.555254 142.567328 
L 309.92428 141.002519 
L 310.291821 142.24092 
L 310.657888 140.971572 
L 311.022493 140.824439 
L 311.385647 141.293122 
L 311.747363 141.123254 
L 312.10765 141.798995 
L 312.466522 136.477993 
L 312.823988 137.74599 
L 313.18006 138.511172 
L 313.534748 139.920546 
L 313.628731 141.027452 
L 313.981684 141.49918 
L 314.333277 142.842751 
L 315.032427 144.274595 
L 315.380005 144.633468 
L 315.726264 144.500873 
L 316.071214 145.620399 
L 316.414866 146.300629 
L 316.757229 144.594662 
L 317.098313 143.628692 
L 317.438127 144.064907 
L 318.113984 145.839276 
L 318.450046 143.219845 
L 319.11848 145.146716 
L 319.45087 146.133023 
L 319.782055 145.497281 
L 320.112042 146.565012 
L 320.440841 143.766828 
L 320.768459 144.999464 
L 321.094907 145.078667 
L 321.420191 144.621663 
L 321.74432 145.805642 
L 322.067302 141.730978 
L 322.389145 140.855945 
L 322.709858 140.45081 
L 323.029448 139.269874 
L 323.347923 139.545228 
L 323.665291 138.851418 
L 323.98156 139.455733 
L 325.006808 138.067207 
L 325.629072 140.402794 
L 325.938621 140.404714 
L 326.247124 137.81367 
L 326.554588 138.753724 
L 326.861019 139.025382 
L 327.470814 140.461286 
L 327.77419 140.045558 
L 328.377935 141.153022 
L 328.678317 142.240947 
L 328.977714 142.90396 
L 329.276131 142.980769 
L 329.573577 140.249697 
L 330.165576 141.888392 
L 330.460142 142.007947 
L 331.046438 144.171022 
L 331.628993 145.589333 
L 331.918882 143.657685 
L 332.207853 143.676569 
L 332.495913 144.996751 
L 332.783066 145.143123 
L 333.069319 144.354768 
L 333.354678 145.249093 
L 333.639147 144.163969 
L 333.922732 145.273218 
L 333.997911 146.367901 
L 334.280386 146.883844 
L 334.842727 148.710474 
L 335.122603 150.063169 
L 335.401625 149.202603 
L 335.957121 150.664306 
L 336.233607 151.081056 
L 336.509258 149.806998 
L 336.78408 150.303669 
L 337.331252 152.421222 
L 337.603614 153.340701 
L 338.415856 154.24267 
L 338.685005 155.035734 
L 338.953363 150.57694 
L 339.487724 149.03912 
L 339.753736 147.769561 
L 340.283446 149.012093 
L 340.547153 148.833394 
L 341.072292 151.153728 
L 341.333733 150.490635 
L 341.594428 150.595948 
L 341.85438 150.126405 
L 342.372074 152.192346 
L 342.629824 152.109786 
L 342.698167 153.388335 
L 342.954999 153.562111 
L 343.211111 154.710423 
L 343.466506 153.393208 
L 343.721189 154.330113 
L 343.975164 152.048338 
L 344.228433 152.343709 
L 344.984053 155.426299 
L 345.234543 155.84993 
L 345.484347 155.952085 
L 345.73347 154.512189 
L 345.981914 155.196341 
L 346.723217 158.18305 
L 346.968986 158.644652 
L 347.214095 156.853253 
L 347.458548 157.099177 
L 347.702348 156.313977 
L 347.945499 157.376369 
L 348.188003 155.983073 
L 348.671088 157.878759 
L 348.911676 158.119912 
L 349.151631 156.564655 
L 349.390957 156.256596 
L 349.867734 158.147592 
L 350.105193 155.880383 
L 350.876368 159.023044 
L 351.34547 160.425537 
L 351.57912 159.581079 
L 352.044634 161.054092 
L 352.276504 161.18489 
L 352.507786 161.104542 
L 352.9686 162.530162 
L 353.198138 162.551873 
L 353.4271 158.06582 
L 353.883308 160.245627 
L 354.337248 160.94971 
L 354.788942 162.847924 
L 355.238411 162.510839 
L 355.462319 157.296278 
L 355.685679 157.214985 
L 355.908494 158.4443 
L 356.130766 157.12647 
L 356.352498 157.307353 
L 357.014481 158.612416 
L 357.671699 161.406871 
L 357.889724 161.154364 
L 357.94755 162.268663 
L 358.164918 161.898037 
L 358.38177 161.852046 
L 358.598108 161.368245 
L 358.813934 161.509253 
L 359.029251 160.654745 
L 359.244062 161.176368 
L 359.458369 162.394147 
L 359.672173 161.801289 
L 359.885478 161.998873 
L 360.098286 162.626754 
L 360.522419 164.707918 
L 360.94459 165.822518 
L 361.154946 166.70846 
L 361.574209 160.680825 
L 361.78312 158.063702 
L 362.407002 160.097073 
L 362.614019 159.010608 
L 362.820567 159.318543 
L 363.026649 159.257157 
L 363.232266 160.178345 
L 363.437422 159.191865 
L 363.642118 158.80832 
L 363.846355 159.424362 
L 364.050137 159.420456 
L 364.456341 159.740197 
L 364.658767 160.720388 
L 364.712461 161.874684 
L 365.115735 163.82876 
L 365.316706 164.947803 
L 365.517235 165.340948 
L 365.717325 165.254155 
L 365.916977 165.598791 
L 367.302448 169.852296 
L 367.498667 167.260447 
L 367.694465 167.086531 
L 367.889844 159.27964 
L 368.084806 159.241378 
L 368.473485 160.506985 
L 368.667206 160.051311 
L 368.860516 159.167894 
L 369.053418 160.329069 
L 369.245914 160.090137 
L 369.820976 163.360602 
L 370.011861 163.800739 
L 370.202348 163.583587 
L 370.392438 164.556937 
L 370.582133 163.817977 
L 370.771435 165.008031 
L 370.960345 163.747593 
L 371.010458 163.764076 
L 371.198875 163.130095 
L 371.574546 164.670083 
L 371.948676 161.692216 
L 372.135168 162.049594 
L 372.692369 165.425628 
L 373.061956 164.007463 
L 373.430053 164.828073 
L 373.613546 163.29803 
L 373.796671 163.995974 
L 373.979429 163.234428 
L 374.706826 167.659237 
L 374.887773 165.781565 
L 375.068362 165.376398 
L 375.248595 165.776739 
L 375.428472 165.643079 
L 375.607996 165.083998 
L 375.965988 166.849731 
L 376.144459 166.094277 
L 376.500357 168.255835 
L 376.677787 167.008968 
L 376.901854 169.022571 
L 377.078507 168.028656 
L 377.606422 170.635892 
L 377.781717 169.667955 
L 377.956676 170.149484 
L 378.131301 167.958152 
L 378.479552 168.280074 
L 378.999449 170.226823 
L 379.172093 168.922693 
L 379.34441 169.039528 
L 379.688072 170.523205 
L 379.859419 171.538177 
L 380.030445 171.61421 
L 380.371539 173.048745 
L 380.541609 172.707979 
L 380.711363 169.317276 
L 380.880802 170.097938 
L 381.049927 170.072404 
L 381.218739 168.245159 
L 381.38724 167.812472 
L 381.890884 169.262629 
L 382.225109 171.317794 
L 382.391764 171.450284 
L 382.43598 170.346342 
L 382.602251 171.140789 
L 382.76822 168.17428 
L 383.593566 172.627459 
L 383.757743 171.19138 
L 383.921626 170.783878 
L 384.898792 174.359461 
L 385.222203 174.241447 
L 385.38348 172.601116 
L 385.544473 172.950689 
L 385.705182 173.830978 
L 386.025754 172.734446 
L 386.663541 176.023808 
L 386.822293 173.040599 
L 387.138973 174.519458 
L 387.454558 176.048486 
L 387.611943 174.225002 
L 387.653702 174.951467 
L 387.810744 175.428858 
L 388.280254 177.824888 
L 388.747363 179.387901 
L 388.902536 177.514448 
L 389.057445 178.099575 
L 389.212093 177.700544 
L 389.366478 177.775764 
L 389.520604 177.073335 
L 389.981424 179.443848 
L 390.134515 178.967585 
L 390.28735 178.877461 
L 390.592254 180.429675 
L 390.744325 180.789059 
L 390.896144 179.882425 
L 391.04771 180.772921 
L 391.199025 180.85851 
L 391.350089 178.383423 
L 391.801789 180.313685 
L 391.95186 177.584146 
L 392.101685 177.297105 
L 392.251264 178.012649 
L 392.400599 177.765621 
L 392.54969 177.297918 
L 392.589251 176.322094 
L 392.886575 177.984346 
L 393.034875 177.241436 
L 393.625677 180.642074 
L 393.772782 181.550545 
L 393.91965 180.571022 
L 394.504772 183.073619 
L 394.795933 181.751277 
L 395.086167 179.155675 
L 395.663883 182.199077 
L 395.951376 177.85782 
L 396.094783 177.761421 
L 396.237966 174.068784 
L 396.523659 175.301691 
L 396.666171 172.505666 
L 396.808461 173.060824 
L 396.950529 173.118082 
L 397.092377 173.625628 
L 397.234004 172.197797 
L 397.271587 172.416646 
L 397.694982 173.821237 
L 397.976159 175.331622 
L 398.116423 175.34149 
L 398.675334 178.890712 
L 399.230844 180.705087 
L 399.369195 179.95973 
L 399.507336 180.290283 
L 399.782994 181.657302 
L 399.920511 181.101936 
L 400.194926 180.991289 
L 400.605007 183.052156 
L 400.741293 182.029451 
L 401.013255 183.044843 
L 401.148932 181.1272 
L 401.284409 180.888524 
L 401.419684 181.687468 
L 401.55476 181.816977 
L 401.689636 181.46146 
L 401.725429 178.685557 
L 401.860053 179.140716 
L 401.994479 178.216307 
L 402.796904 182.862003 
L 402.929959 181.369882 
L 403.327962 183.097186 
L 403.460245 183.418736 
L 403.592337 184.349908 
L 403.724238 183.823478 
L 404.118801 185.88141 
L 404.249944 186.570513 
L 404.380899 184.486662 
L 404.772641 186.160697 
L 404.902848 186.525579 
L 405.032871 187.223423 
L 405.162708 187.041653 
L 405.292361 185.047519 
L 405.551116 185.957212 
L 405.680218 185.736279 
L 405.809139 186.182966 
L 405.972043 185.709858 
L 406.100553 185.884711 
L 406.228881 186.485206 
L 406.35703 184.010114 
L 406.484999 184.525909 
L 406.612789 182.522172 
L 406.7404 183.546475 
L 406.867833 183.634856 
L 407.122166 184.699677 
L 407.502343 186.457507 
L 407.754917 185.682 
L 407.880943 185.554628 
L 408.132473 185.855641 
L 408.257979 186.238931 
L 408.383313 185.954327 
L 408.508474 185.053587 
L 408.758284 182.091224 
L 409.255862 183.657192 
L 409.503637 183.882785 
L 409.627273 182.409806 
L 410.02986 184.500263 
L 410.152786 183.402105 
L 410.520573 185.492797 
L 410.642841 185.449844 
L 410.886885 186.871758 
L 411.008663 186.740314 
L 411.130279 186.14266 
L 411.494157 188.226123 
L 411.615128 188.355813 
L 411.735939 188.197058 
L 411.85659 188.39263 
L 412.097416 189.399592 
L 412.217591 189.474496 
L 412.337607 189.951578 
L 412.577169 189.061015 
L 412.696714 187.897309 
L 412.816103 188.425272 
L 413.054414 185.621576 
L 413.292104 187.097085 
L 413.410717 187.057425 
L 413.529177 187.212564 
L 413.647483 187.122335 
L 413.883636 185.525495 
L 414.032761 186.802292 
L 414.150417 186.717943 
L 414.385274 187.621176 
L 414.502476 187.691511 
L 414.73643 189.248475 
L 414.73643 189.248475 
" clip-path="url(#p8b99a97698)" style="fill: none; stroke: #ff7f0e; stroke-opacity: 0.4; stroke-linecap: square"/>
   </g>
   <g id="line2d_46">
    <path d="M 53.968492 58.70549 
L 59.854134 60.569916 
L 65.383184 61.355594 
L 70.596393 60.931785 
L 75.527904 63.35571 
L 80.206606 61.809476 
L 84.657159 63.378893 
L 88.900784 65.502381 
L 92.955871 66.79125 
L 96.838463 65.671165 
L 104.140817 68.60928 
L 107.584018 69.042025 
L 110.902055 70.62117 
L 114.103709 69.493563 
L 117.196869 71.031058 
L 120.188647 72.73863 
L 123.085479 70.721869 
L 123.839744 69.405009 
L 129.327236 72.903664 
L 131.952044 74.124077 
L 134.503485 73.883934 
L 136.985549 75.322506 
L 139.40191 76.022373 
L 141.755957 77.715138 
L 144.050822 78.072857 
L 148.474413 81.183791 
L 150.608337 78.667647 
L 152.693517 78.887449 
L 154.732129 77.829219 
L 156.726208 79.169561 
L 158.677659 80.313096 
L 160.588264 79.831566 
L 162.459701 80.964149 
L 164.293541 82.375383 
L 166.091267 83.03092 
L 167.854273 84.565793 
L 169.583875 83.343552 
L 171.281314 84.815533 
L 172.947767 86.101318 
L 174.584343 86.83306 
L 176.192095 86.508954 
L 179.325067 88.970299 
L 180.852133 85.036369 
L 182.354074 86.302344 
L 183.831704 85.851847 
L 185.285796 85.227808 
L 186.71709 85.793578 
L 187.093535 85.657044 
L 188.496978 87.129522 
L 189.879171 87.698578 
L 191.240749 88.981703 
L 192.582316 86.910328 
L 193.904452 88.288088 
L 196.49263 89.887807 
L 197.759712 90.173091 
L 200.242303 91.409436 
L 201.458732 89.610346 
L 202.659164 91.066758 
L 203.844015 90.471707 
L 205.013685 91.757143 
L 206.168557 89.864398 
L 207.309001 90.744631 
L 208.435374 89.415587 
L 209.548017 90.728452 
L 210.647263 91.18795 
L 211.733429 91.288008 
L 213.867744 93.795719 
L 214.916475 94.174198 
L 215.953296 95.218263 
L 216.978472 96.036457 
L 217.992263 96.325447 
L 218.99492 92.601302 
L 219.986683 93.141685 
L 220.967787 93.862118 
L 221.938459 92.57496 
L 222.898919 93.775527 
L 224.100189 89.432507 
L 225.038286 90.516855 
L 227.796089 94.786392 
L 228.697148 93.025096 
L 229.5894 92.916837 
L 230.473015 91.379985 
L 231.34816 92.436662 
L 232.214994 92.484944 
L 233.073675 93.7641 
L 233.924353 93.81007 
L 234.767178 95.094694 
L 235.602292 92.679826 
L 237.249946 95.433175 
L 238.062753 91.429084 
L 238.868387 91.591614 
L 239.666973 92.320682 
L 241.243488 94.62138 
L 242.021652 96.101209 
L 242.793239 96.23373 
L 243.558358 96.511476 
L 244.317119 97.592371 
L 245.069624 95.790018 
L 245.815977 95.588233 
L 246.556278 96.994658 
L 247.290623 95.467117 
L 248.019108 91.488165 
L 249.458867 93.821269 
L 250.170319 95.25423 
L 250.358371 96.657505 
L 251.761983 99.40742 
L 252.455778 100.060793 
L 253.827747 100.882662 
L 254.506076 101.12983 
L 255.179401 97.897959 
L 255.847797 98.338328 
L 257.824112 102.389108 
L 258.473489 101.576392 
L 259.118279 101.893881 
L 259.758547 102.743316 
L 260.394356 98.47429 
L 261.025766 99.702252 
L 261.65284 100.309289 
L 262.275635 101.716604 
L 262.89421 101.653245 
L 264.118926 104.104328 
L 264.725177 103.608498 
L 265.327428 104.643868 
L 265.925733 105.19077 
L 266.520141 103.00525 
L 267.110704 103.123081 
L 268.280491 105.599692 
L 268.85981 104.969 
L 269.435477 103.710626 
L 270.007536 104.631958 
L 270.576032 103.079123 
L 270.726446 103.110549 
L 271.290497 103.682656 
L 272.408249 106.145985 
L 272.962035 104.879851 
L 273.512481 106.114681 
L 274.059628 105.661427 
L 274.603516 105.885306 
L 275.144182 107.08273 
L 275.681664 105.449834 
L 276.216001 106.372161 
L 276.747228 105.725422 
L 277.275382 106.537676 
L 277.800497 103.793963 
L 278.322609 101.78217 
L 278.841752 102.681914 
L 279.35796 102.22173 
L 279.871265 103.204209 
L 280.381699 104.508834 
L 280.889296 105.325956 
L 281.394085 104.70239 
L 281.896099 103.307951 
L 282.395367 104.276163 
L 282.891919 105.655761 
L 283.385785 105.553022 
L 283.876994 105.627095 
L 284.365573 104.48095 
L 284.851552 105.651121 
L 285.334957 104.680998 
L 286.294154 107.528602 
L 286.77 108.59671 
L 287.368708 103.296883 
L 287.838999 103.490125 
L 288.30688 102.567919 
L 288.772376 102.105154 
L 289.23551 102.804224 
L 289.696305 102.367613 
L 290.154787 102.608619 
L 290.610978 103.268762 
L 291.0649 104.548077 
L 291.516576 104.448611 
L 291.966028 105.856326 
L 292.413279 106.340952 
L 293.301259 107.549159 
L 294.180685 109.740688 
L 294.617241 107.295267 
L 295.051719 107.584039 
L 295.484139 107.084518 
L 296.342883 109.582896 
L 296.769245 107.822347 
L 298.036509 110.549095 
L 298.455052 109.241674 
L 299.286423 110.452578 
L 299.699286 108.975254 
L 300.11029 109.730582 
L 300.926789 112.323467 
L 301.332317 109.192282 
L 301.439733 109.812339 
L 301.842993 110.766639 
L 302.244479 112.262704 
L 303.042193 114.217328 
L 303.832996 113.280885 
L 304.225844 112.952773 
L 304.617008 108.818591 
L 305.394344 111.623995 
L 305.780543 111.747057 
L 306.548075 114.166851 
L 306.929435 111.164224 
L 307.309208 111.451058 
L 307.687408 112.7556 
L 308.064047 111.320862 
L 308.439138 111.843369 
L 309.555254 114.267867 
L 309.92428 114.564637 
L 310.291821 115.935501 
L 310.657888 114.743955 
L 311.022493 115.820933 
L 311.385647 115.185435 
L 311.747363 116.095537 
L 312.10765 113.193975 
L 312.466522 113.194758 
L 313.534748 116.219009 
L 313.628731 116.268451 
L 313.981684 116.628117 
L 314.333277 115.148891 
L 314.683522 114.307606 
L 315.032427 114.486429 
L 315.380005 114.246875 
L 315.726264 114.978429 
L 316.414866 113.842154 
L 316.757229 115.308741 
L 317.438127 111.296109 
L 317.776681 110.432395 
L 318.113984 111.727502 
L 318.450046 112.488413 
L 318.784874 111.873982 
L 319.45087 114.422162 
L 319.782055 112.68149 
L 320.112042 113.473198 
L 320.768459 116.299644 
L 321.094907 115.584825 
L 321.420191 116.226259 
L 322.389145 119.603543 
L 322.709858 119.219806 
L 323.029448 120.422366 
L 323.347923 121.146607 
L 323.665291 120.259505 
L 323.98156 120.299399 
L 324.380272 119.245969 
L 325.006808 120.476022 
L 325.31847 120.828833 
L 325.629072 122.138397 
L 325.938621 122.89696 
L 326.247124 122.237821 
L 326.554588 123.428639 
L 326.861019 123.271449 
L 327.166426 124.151953 
L 327.77419 125.15709 
L 328.076562 125.605537 
L 328.377935 126.436517 
L 328.678317 126.386118 
L 329.276131 128.08455 
L 329.573577 128.881483 
L 329.870056 129.246618 
L 330.165576 130.198333 
L 330.460142 130.666952 
L 330.753761 131.486246 
L 331.046438 129.325807 
L 331.33818 130.204219 
L 331.628993 128.346582 
L 331.918882 128.254453 
L 332.207853 128.521769 
L 332.495913 129.357408 
L 332.783066 128.990002 
L 333.922732 132.729705 
L 333.997911 133.760789 
L 334.280386 133.644765 
L 334.56199 133.201708 
L 334.842727 133.146482 
L 335.122603 134.359635 
L 335.401625 133.801684 
L 335.679796 130.808556 
L 335.957121 132.090055 
L 336.233607 132.204406 
L 336.509258 132.031609 
L 336.78408 132.71473 
L 337.603614 135.492366 
L 337.875165 136.102454 
L 338.145911 135.443871 
L 339.220935 139.157898 
L 339.753736 139.137943 
L 340.018976 138.510272 
L 340.283446 138.894733 
L 340.547153 138.160375 
L 341.072292 139.862399 
L 341.333733 139.766813 
L 341.594428 140.679231 
L 341.85438 138.538019 
L 342.372074 139.094321 
L 343.466506 142.51985 
L 343.721189 142.587696 
L 343.975164 143.474762 
L 344.228433 143.703702 
L 344.481002 141.549937 
L 344.984053 143.23888 
L 345.234543 142.95474 
L 345.484347 143.683593 
L 345.73347 142.37289 
L 346.229685 144.058454 
L 346.723217 139.628996 
L 346.968986 139.344898 
L 347.214095 139.94263 
L 347.458548 140.178955 
L 347.702348 137.2512 
L 347.945499 137.798405 
L 348.429865 139.951708 
L 348.671088 140.584345 
L 349.629657 144.525839 
L 349.867734 144.788918 
L 350.105193 144.688656 
L 350.342035 145.193861 
L 350.64091 145.448028 
L 351.11122 147.00379 
L 351.34547 147.426814 
L 351.812174 149.135809 
L 352.044634 148.71575 
L 352.276504 149.519683 
L 352.507786 149.637602 
L 352.738484 145.233571 
L 353.4271 148.307776 
L 353.655489 148.75404 
L 353.883308 148.584865 
L 354.11056 146.726065 
L 354.788942 148.79919 
L 355.013953 145.067844 
L 355.238411 146.096681 
L 355.462319 145.135265 
L 355.685679 144.896908 
L 355.908494 145.984029 
L 356.130766 145.725725 
L 356.352498 146.879091 
L 356.573693 146.563599 
L 356.794353 146.023466 
L 357.014481 143.710922 
L 357.23408 144.54693 
L 357.453152 142.543154 
L 357.671699 142.385755 
L 357.889724 141.743395 
L 357.94755 142.936654 
L 358.813934 146.239673 
L 359.029251 146.65125 
L 359.244062 146.744352 
L 359.458369 146.589361 
L 359.672173 147.230726 
L 359.885478 147.275496 
L 360.098286 146.384567 
L 360.310599 146.874108 
L 360.733748 148.821509 
L 360.94459 148.279669 
L 361.78312 141.987888 
L 361.991555 143.161154 
L 362.199515 143.133728 
L 362.614019 145.169136 
L 362.820567 144.778265 
L 363.026649 144.742178 
L 363.232266 145.675525 
L 363.437422 145.98974 
L 363.642118 147.154583 
L 364.253465 147.970585 
L 364.456341 148.516158 
L 364.658767 148.676813 
L 364.712461 149.439854 
L 365.115735 149.858209 
L 365.717325 152.475978 
L 365.916977 152.881184 
L 366.116193 152.382423 
L 366.314976 152.852944 
L 366.513327 152.597496 
L 366.711248 152.867118 
L 367.105806 154.535543 
L 367.302448 154.238417 
L 367.498667 154.371418 
L 367.889844 155.66075 
L 368.084806 154.783584 
L 368.279353 155.381412 
L 368.473485 154.942615 
L 368.667206 155.065803 
L 368.860516 153.694705 
L 369.053418 154.639789 
L 369.245914 151.774495 
L 369.62969 153.310259 
L 370.011861 154.584467 
L 370.392438 155.062987 
L 370.582133 156.064222 
L 370.771435 155.848836 
L 371.198875 153.929403 
L 371.574546 154.865818 
L 371.761803 154.822269 
L 371.948676 154.448669 
L 372.135168 155.170642 
L 372.507013 153.822163 
L 372.692369 154.764299 
L 372.87735 153.584183 
L 373.061956 154.650385 
L 373.24619 154.235447 
L 373.430053 154.405046 
L 373.796671 156.148801 
L 374.343852 154.276886 
L 374.525519 151.746281 
L 374.706826 152.776729 
L 374.887773 152.550861 
L 375.068362 150.51593 
L 375.248595 150.203765 
L 375.428472 150.678859 
L 376.500357 155.470738 
L 376.677787 155.715985 
L 376.901854 155.497465 
L 377.078507 155.979728 
L 377.606422 158.818921 
L 377.781717 159.201923 
L 377.956676 159.18671 
L 378.131301 157.665164 
L 378.305593 157.724874 
L 378.479552 158.292174 
L 378.65318 158.166764 
L 378.826479 159.065493 
L 378.999449 158.940335 
L 379.34441 159.122152 
L 379.859419 160.145532 
L 380.030445 160.108006 
L 380.201152 159.8445 
L 380.371539 160.352638 
L 380.541609 159.235773 
L 381.049927 161.232961 
L 381.218739 159.617078 
L 381.38724 160.735281 
L 381.55543 158.411032 
L 381.723311 159.234702 
L 381.890884 159.485115 
L 382.391764 160.942602 
L 382.43598 161.686939 
L 382.933887 163.845739 
L 383.264322 165.687159 
L 383.757743 159.60074 
L 384.085215 159.991515 
L 384.574231 162.489049 
L 384.736656 159.826926 
L 384.898792 160.727767 
L 385.060641 160.940452 
L 385.544473 163.283995 
L 385.705182 162.218023 
L 385.865609 162.035695 
L 386.025754 160.020181 
L 386.185619 160.97272 
L 386.345204 160.367461 
L 386.663541 161.877089 
L 386.822293 161.613418 
L 387.138973 162.460219 
L 387.611943 163.115317 
L 387.653702 164.036643 
L 387.810744 163.349523 
L 387.967516 163.28683 
L 388.280254 164.145135 
L 388.436223 164.969998 
L 388.591925 165.168805 
L 388.902536 166.141627 
L 389.212093 167.481115 
L 389.366478 167.759724 
L 389.674469 165.515427 
L 389.828075 166.447744 
L 389.981424 166.016564 
L 390.439929 168.22798 
L 390.592254 168.733581 
L 390.744325 167.479255 
L 390.896144 167.696013 
L 391.350089 167.057481 
L 391.651471 168.499953 
L 391.801789 167.989062 
L 392.400599 170.075091 
L 392.54969 170.390571 
L 392.589251 169.066395 
L 392.886575 170.532665 
L 393.034875 169.960757 
L 393.182935 169.915715 
L 393.330754 167.457449 
L 393.478335 167.43515 
L 393.625677 167.294659 
L 394.066283 168.665331 
L 394.358843 167.004895 
L 394.504772 167.368858 
L 394.795933 168.638853 
L 394.941165 169.265985 
L 395.086167 168.393178 
L 395.375482 169.813101 
L 395.519796 169.848966 
L 395.663883 169.183429 
L 395.807742 167.389951 
L 395.951376 167.203086 
L 396.094783 167.828868 
L 396.237966 166.395345 
L 396.523659 168.207848 
L 396.666171 168.086271 
L 396.808461 169.093143 
L 397.234004 166.951458 
L 397.271587 167.955514 
L 397.554069 169.701879 
L 397.694982 165.791442 
L 397.976159 167.481321 
L 398.116423 165.711726 
L 398.675334 169.382929 
L 398.814529 168.74744 
L 399.230844 169.927017 
L 399.369195 168.205961 
L 399.507336 167.987388 
L 399.782994 169.414585 
L 400.057822 169.576361 
L 400.194926 170.258866 
L 400.331824 169.883573 
L 400.468518 168.514626 
L 400.605007 168.616996 
L 400.741293 168.992896 
L 400.877375 167.776539 
L 401.013255 168.473437 
L 401.148932 165.086147 
L 401.419684 167.112305 
L 401.689636 166.096365 
L 401.860053 167.634601 
L 401.994479 168.457162 
L 402.262739 166.539274 
L 402.396573 167.474193 
L 402.530212 167.387742 
L 402.796904 169.181977 
L 402.929959 168.610917 
L 403.195487 170.365041 
L 403.327962 169.348247 
L 403.460245 166.79266 
L 403.592337 167.659235 
L 403.724238 167.773104 
L 403.855949 166.414925 
L 403.98747 167.330069 
L 404.118801 167.305204 
L 404.249944 167.995441 
L 404.380899 167.775065 
L 404.511667 167.988341 
L 404.772641 169.40625 
L 404.902848 169.249461 
L 405.032871 168.110416 
L 405.162708 168.23314 
L 405.292361 168.994581 
L 405.42183 168.426196 
L 405.551116 168.973709 
L 405.809139 171.078649 
L 405.937878 170.963159 
L 406.100553 172.446312 
L 406.228881 171.911477 
L 406.484999 173.651376 
L 406.612789 171.419159 
L 406.867833 172.936247 
L 406.995088 173.082896 
L 407.249068 174.28783 
L 407.375793 174.44042 
L 407.502343 174.178196 
L 407.628718 175.023949 
L 407.754917 175.099798 
L 408.006795 176.021448 
L 408.132473 176.88038 
L 408.257979 174.1051 
L 408.383313 173.811034 
L 408.633465 174.683094 
L 408.758284 173.660125 
L 408.882933 173.698268 
L 409.007412 173.382613 
L 409.131721 172.727671 
L 409.255862 173.32123 
L 409.379834 172.979044 
L 409.750742 174.368852 
L 409.874044 173.12543 
L 410.398142 176.105296 
L 410.520573 174.130081 
L 410.642841 173.975895 
L 410.764944 167.569916 
L 410.886885 168.113426 
L 411.251733 170.492216 
L 411.373025 171.174881 
L 411.494157 171.075639 
L 411.615128 171.394851 
L 411.977082 173.33005 
L 412.097416 172.637579 
L 413.292104 178.157273 
L 413.410717 176.474968 
L 413.765635 178.226012 
L 414.385274 181.152249 
L 414.502476 178.740508 
L 414.619528 178.77349 
L 414.73643 179.0924 
L 414.73643 179.0924 
" clip-path="url(#p8b99a97698)" style="fill: none; stroke: #2ca02c; stroke-opacity: 0.4; stroke-linecap: square"/>
   </g>
   <g id="line2d_47">
    <path d="M 53.968492 63.860344 
L 59.854134 65.165212 
L 65.383184 66.164913 
L 70.596393 64.67176 
L 75.527904 66.829822 
L 80.206606 65.414419 
L 84.657159 67.156471 
L 88.900784 69.163029 
L 92.955871 69.72657 
L 104.140817 74.592751 
L 107.584018 75.664843 
L 110.902055 76.290122 
L 117.196869 78.293515 
L 120.188647 78.59203 
L 123.085479 79.623234 
L 123.839744 80.24736 
L 126.624717 81.79773 
L 129.327236 82.158805 
L 131.952044 82.6588 
L 134.503485 82.672795 
L 136.985549 83.78063 
L 139.40191 85.0293 
L 141.755957 85.892275 
L 144.050822 86.864298 
L 148.474413 89.709615 
L 150.608337 89.655301 
L 152.693517 88.404486 
L 154.732129 89.217663 
L 156.726208 90.492305 
L 158.677659 91.290078 
L 160.588264 91.123275 
L 162.459701 92.35644 
L 164.293541 93.361154 
L 166.091267 92.730033 
L 167.854273 91.892697 
L 169.583875 89.464521 
L 172.947767 91.959285 
L 174.584343 92.429823 
L 176.192095 93.393041 
L 179.325067 95.511431 
L 180.852133 93.870372 
L 182.354074 95.222058 
L 183.831704 96.24183 
L 186.71709 94.405632 
L 187.093535 94.303928 
L 188.496978 95.569894 
L 189.879171 95.800674 
L 191.240749 96.448952 
L 192.582316 96.051098 
L 193.904452 97.149738 
L 195.207713 97.316167 
L 197.759712 99.910974 
L 199.009447 100.762135 
L 200.242303 98.86189 
L 201.458732 98.931353 
L 202.659164 99.661925 
L 203.844015 96.847005 
L 206.168557 99.240889 
L 207.309001 99.713823 
L 208.435374 100.620365 
L 209.548017 99.419159 
L 210.647263 100.59235 
L 211.733429 100.953722 
L 213.867744 103.188143 
L 214.916475 100.420527 
L 215.953296 96.282069 
L 217.992263 98.326019 
L 218.99492 98.865345 
L 221.938459 101.798645 
L 222.898919 102.255416 
L 224.100189 99.183737 
L 225.038286 100.515395 
L 225.966842 101.563696 
L 226.886047 101.427097 
L 228.697148 102.737402 
L 229.5894 102.825311 
L 230.473015 101.7212 
L 231.34816 102.866649 
L 232.214994 101.317851 
L 233.073675 102.240827 
L 234.767178 104.307605 
L 236.429836 106.276613 
L 237.249946 106.715818 
L 238.062753 102.567965 
L 238.868387 101.741424 
L 239.666973 102.106974 
L 240.458634 103.266438 
L 241.243488 104.013174 
L 242.021652 103.597504 
L 243.558358 103.791276 
L 244.317119 104.937206 
L 245.069624 105.468616 
L 245.815977 105.451153 
L 246.556278 106.542522 
L 247.290623 106.242029 
L 248.019108 100.461715 
L 248.741826 101.67222 
L 249.458867 101.460393 
L 250.170319 101.533513 
L 250.358371 102.470075 
L 251.062874 101.464032 
L 251.761983 102.796966 
L 252.455778 103.231928 
L 253.14434 103.974475 
L 253.827747 105.133693 
L 254.506076 105.893828 
L 255.179401 107.154821 
L 255.847797 107.350589 
L 256.511334 108.429584 
L 257.170083 106.348599 
L 257.824112 107.184196 
L 258.473489 103.694316 
L 259.118279 101.768038 
L 259.758547 102.544874 
L 260.394356 100.928157 
L 261.025766 102.02331 
L 261.65284 102.540473 
L 262.89421 104.795868 
L 263.508622 105.568225 
L 264.118926 106.101951 
L 264.725177 106.124983 
L 265.327428 104.596676 
L 266.520141 105.009287 
L 267.110704 104.552194 
L 267.697471 105.345307 
L 268.280491 106.599403 
L 268.85981 107.435203 
L 269.435477 106.889021 
L 270.007536 106.686271 
L 270.576032 105.754843 
L 270.726446 106.699824 
L 271.851084 104.912084 
L 272.408249 106.064789 
L 272.962035 106.400012 
L 273.512481 106.170045 
L 274.059628 105.561711 
L 275.144182 107.842152 
L 275.681664 105.775665 
L 276.216001 107.102082 
L 276.747228 107.206826 
L 277.275382 107.945496 
L 277.800497 105.284663 
L 278.322609 104.728773 
L 278.841752 105.853924 
L 279.35796 105.244693 
L 279.871265 106.342607 
L 280.889296 107.520171 
L 281.394085 106.490961 
L 281.896099 106.628865 
L 282.395367 107.529168 
L 282.891919 106.781394 
L 283.385785 107.531623 
L 283.876994 108.770893 
L 284.365573 107.956342 
L 284.851552 109.223752 
L 285.334957 109.007949 
L 286.294154 111.420434 
L 286.77 111.716824 
L 287.243378 111.511661 
L 287.368708 108.673571 
L 287.838999 109.089625 
L 288.30688 108.462552 
L 288.772376 105.534971 
L 289.23551 105.623605 
L 289.696305 106.583848 
L 290.610978 107.711527 
L 291.0649 109.030816 
L 291.516576 109.934896 
L 291.966028 110.215576 
L 292.413279 108.277157 
L 292.858349 109.462444 
L 293.301259 108.376932 
L 293.742031 109.345923 
L 294.180685 110.713448 
L 294.617241 107.907493 
L 295.484139 107.997495 
L 296.342883 110.483392 
L 296.769245 108.810708 
L 297.193624 109.980688 
L 297.616039 109.649931 
L 298.036509 110.457987 
L 298.455052 109.907923 
L 298.871683 110.393875 
L 299.286423 111.589986 
L 299.699286 111.695489 
L 300.11029 111.513226 
L 300.926789 114.021072 
L 301.332317 110.165516 
L 301.439733 107.994207 
L 301.842993 107.6186 
L 302.644207 110.360059 
L 303.042193 110.055716 
L 303.438451 109.348036 
L 303.832996 108.056033 
L 304.225844 107.462488 
L 304.617008 107.354234 
L 305.006503 107.736503 
L 305.394344 109.196175 
L 305.780543 109.514175 
L 306.165116 110.028846 
L 306.548075 111.027005 
L 306.929435 108.186803 
L 307.687408 110.325888 
L 308.439138 108.430626 
L 308.812695 108.989478 
L 309.18473 109.871218 
L 309.555254 110.425693 
L 309.92428 109.762759 
L 310.291821 110.926109 
L 310.657888 111.102523 
L 311.022493 112.447703 
L 311.385647 112.199075 
L 311.747363 112.182385 
L 312.10765 110.372336 
L 312.466522 110.31802 
L 312.823988 111.009961 
L 313.18006 111.351428 
L 313.534748 112.308578 
L 313.628731 111.769173 
L 313.981684 112.63784 
L 314.333277 112.49003 
L 315.032427 114.069993 
L 315.380005 113.257458 
L 315.726264 113.385683 
L 316.071214 112.672253 
L 316.414866 112.355265 
L 316.757229 113.401201 
L 317.776681 108.540628 
L 318.113984 109.493586 
L 318.450046 110.067647 
L 318.784874 109.499891 
L 319.45087 111.570881 
L 319.782055 109.708629 
L 320.768459 112.787704 
L 321.094907 112.758183 
L 321.420191 114.125918 
L 321.74432 113.952287 
L 322.067302 114.285808 
L 322.389145 115.616716 
L 322.709858 112.594741 
L 323.347923 115.149901 
L 323.665291 116.227582 
L 323.98156 115.292865 
L 324.296736 116.552194 
L 324.380272 115.417685 
L 324.694077 115.7772 
L 325.006808 115.263781 
L 325.31847 115.326403 
L 325.629072 115.656198 
L 325.938621 114.427809 
L 326.554588 117.004718 
L 326.861019 116.608913 
L 327.470814 117.138148 
L 327.77419 114.50538 
L 328.076562 114.686826 
L 328.977714 117.825122 
L 329.276131 117.455226 
L 329.573577 118.774478 
L 329.870056 119.53947 
L 330.165576 120.69995 
L 330.460142 121.065024 
L 330.753761 118.523557 
L 331.046438 118.358354 
L 331.628993 120.421687 
L 331.918882 120.842289 
L 332.207853 118.223078 
L 332.495913 119.204017 
L 332.783066 118.713212 
L 333.069319 119.680262 
L 333.354678 118.653802 
L 333.922732 120.793057 
L 334.280386 118.782287 
L 334.56199 119.770222 
L 334.842727 119.318053 
L 335.401625 121.86996 
L 335.679796 120.933282 
L 335.957121 120.765949 
L 336.233607 121.513114 
L 336.509258 121.605576 
L 336.78408 121.465698 
L 337.331252 123.552491 
L 337.603614 123.716497 
L 337.875165 124.059561 
L 338.145911 125.205772 
L 338.415856 124.53754 
L 338.953363 126.707797 
L 339.487724 123.522777 
L 339.753736 124.258493 
L 340.018976 122.670193 
L 340.283446 123.203909 
L 340.547153 124.189261 
L 340.8101 124.59387 
L 341.594428 127.567715 
L 341.85438 127.046007 
L 342.113594 128.152763 
L 342.372074 128.641609 
L 342.629824 129.684248 
L 342.954999 125.596062 
L 343.211111 126.759685 
L 343.466506 125.268702 
L 343.721189 126.299857 
L 343.975164 125.912828 
L 344.228433 126.551678 
L 344.481002 127.749871 
L 344.984053 128.508664 
L 345.234543 125.971547 
L 345.484347 124.639012 
L 345.73347 125.599204 
L 345.981914 125.546167 
L 346.229685 123.078976 
L 346.476784 124.229578 
L 346.723217 123.599682 
L 346.968986 124.878908 
L 347.214095 124.634163 
L 347.458548 125.619206 
L 347.702348 124.792197 
L 347.945499 125.930945 
L 348.188003 125.485931 
L 348.429865 125.522188 
L 348.671088 124.664092 
L 349.390957 127.790214 
L 349.629657 127.918436 
L 350.342035 124.382799 
L 350.578264 125.3509 
L 350.64091 126.479945 
L 351.11122 128.385428 
L 351.34547 127.326246 
L 351.57912 124.523599 
L 352.044634 126.621741 
L 352.276504 126.216928 
L 352.738484 128.745976 
L 352.9686 126.670464 
L 353.198138 122.906349 
L 353.4271 123.116963 
L 354.11056 126.773077 
L 354.337248 126.222909 
L 354.788942 128.312918 
L 355.013953 126.093172 
L 355.238411 126.7688 
L 355.685679 126.835904 
L 356.130766 128.801936 
L 356.352498 128.604405 
L 356.573693 129.118543 
L 356.794353 128.917902 
L 357.014481 130.058367 
L 357.23408 130.608902 
L 357.453152 129.526102 
L 357.671699 130.810979 
L 357.94755 126.601491 
L 358.598108 128.641946 
L 358.813934 128.493566 
L 359.029251 128.498088 
L 359.244062 128.868352 
L 359.458369 126.805717 
L 359.672173 126.427656 
L 359.885478 126.631801 
L 360.098286 124.379749 
L 360.310599 124.735048 
L 360.733748 125.93288 
L 361.154946 123.836585 
L 361.364818 124.426484 
L 361.574209 123.309777 
L 361.991555 125.477882 
L 362.199515 125.129406 
L 362.407002 124.431702 
L 362.614019 125.871512 
L 362.820567 126.431616 
L 363.026649 127.428399 
L 363.232266 126.830969 
L 363.437422 126.918193 
L 363.642118 127.801482 
L 363.846355 127.42457 
L 364.253465 129.531567 
L 364.456341 129.321564 
L 364.658767 130.069271 
L 364.914321 129.400117 
L 365.115735 130.706238 
L 365.316706 131.278794 
L 365.517235 130.667507 
L 365.717325 131.021301 
L 366.314976 134.712805 
L 366.513327 134.072901 
L 366.711248 132.933748 
L 366.90874 134.145408 
L 367.302448 135.177985 
L 367.498667 136.066827 
L 367.694465 135.082049 
L 368.084806 131.335963 
L 368.279353 132.527773 
L 368.473485 131.967267 
L 368.667206 131.907623 
L 368.860516 132.93731 
L 369.053418 133.146483 
L 369.245914 134.510069 
L 369.438004 131.726312 
L 369.62969 132.558806 
L 369.820976 134.008595 
L 370.011861 134.401373 
L 370.202348 133.32884 
L 370.392438 133.332884 
L 370.582133 132.824144 
L 370.771435 131.491516 
L 370.960345 132.376433 
L 371.010458 133.756815 
L 371.198875 132.081009 
L 371.386903 133.54027 
L 371.574546 133.24584 
L 371.948676 135.156961 
L 372.135168 135.249547 
L 372.32128 135.519866 
L 372.507013 136.497202 
L 372.692369 136.559329 
L 373.061956 138.782008 
L 373.24619 137.507554 
L 373.430053 137.096256 
L 373.613546 138.318998 
L 373.796671 138.762305 
L 373.979429 138.513089 
L 374.161823 139.038078 
L 374.525519 135.969105 
L 374.706826 137.291791 
L 374.887773 133.744572 
L 375.068362 133.04041 
L 375.428472 134.227588 
L 375.607996 133.518118 
L 376.854873 139.903195 
L 376.901854 139.051166 
L 377.078507 140.205535 
L 377.254818 138.192209 
L 377.430789 134.321138 
L 377.606422 135.301015 
L 377.781717 135.29875 
L 378.305593 138.703774 
L 378.479552 138.116806 
L 378.826479 140.264026 
L 378.999449 139.998094 
L 379.172093 139.355865 
L 379.859419 144.000138 
L 380.201152 145.620618 
L 380.541609 141.118044 
L 380.711363 142.474623 
L 380.880802 140.369343 
L 381.049927 140.43877 
L 381.218739 139.941017 
L 381.890884 144.011411 
L 382.058149 145.238288 
L 382.391764 142.14972 
L 382.43598 143.038351 
L 382.602251 143.023461 
L 382.76822 143.366553 
L 382.933887 143.2299 
L 383.099254 142.109917 
L 383.264322 142.449748 
L 383.429092 139.969016 
L 384.085215 144.595675 
L 384.248512 144.263245 
L 384.411516 142.83096 
L 384.574231 143.296483 
L 384.736656 140.151155 
L 385.060641 142.63709 
L 385.222203 141.763257 
L 385.38348 142.07972 
L 385.705182 143.813146 
L 385.865609 140.372609 
L 386.025754 141.21821 
L 386.185619 140.870411 
L 386.504511 141.222246 
L 386.663541 141.976782 
L 386.822293 141.968215 
L 387.296902 145.190696 
L 387.454558 144.552214 
L 387.611943 145.801895 
L 387.653702 144.555406 
L 387.810744 143.298107 
L 388.124019 145.744131 
L 388.280254 144.352019 
L 388.902536 149.096723 
L 389.057445 149.589319 
L 389.212093 150.768785 
L 389.520604 149.792225 
L 389.674469 148.554787 
L 389.828075 148.884457 
L 389.981424 148.915055 
L 390.134515 146.810138 
L 390.439929 148.154501 
L 390.592254 147.423233 
L 390.744325 147.945957 
L 390.896144 147.595142 
L 391.04771 144.290344 
L 391.350089 146.312839 
L 391.651471 148.365516 
L 392.101685 150.414627 
L 392.400599 145.331034 
L 392.54969 145.43285 
L 392.589251 144.152527 
L 392.738034 144.136357 
L 392.886575 145.098864 
L 393.034875 143.711692 
L 393.330754 145.692499 
L 393.625677 147.835353 
L 393.772782 149.070365 
L 393.91965 146.638677 
L 394.066283 146.439928 
L 394.358843 148.213786 
L 394.504772 147.241902 
L 395.230939 151.881167 
L 395.375482 151.312091 
L 395.519796 149.708829 
L 395.663883 150.450119 
L 395.807742 150.454652 
L 396.237966 153.704557 
L 396.523659 150.772141 
L 396.666171 150.733859 
L 397.554069 157.551287 
L 397.694982 156.318614 
L 398.116423 158.711004 
L 398.256472 156.272076 
L 398.675334 158.507494 
L 399.092283 160.504576 
L 399.369195 154.607816 
L 399.507336 154.206583 
L 400.057822 158.248408 
L 400.194926 157.625641 
L 400.468518 159.340396 
L 400.605007 158.843426 
L 401.013255 159.813448 
L 401.148932 159.842267 
L 401.419684 158.561826 
L 401.689636 160.312992 
L 401.725429 159.749832 
L 401.994479 161.241828 
L 402.128707 160.406396 
L 402.796904 164.031278 
L 402.929959 160.041459 
L 403.460245 162.726435 
L 403.592337 160.764315 
L 403.724238 161.572386 
L 403.855949 160.8857 
L 404.642247 166.027419 
L 404.772641 163.08796 
L 404.902848 163.964809 
L 405.032871 162.037799 
L 405.292361 163.116395 
L 405.551116 163.453663 
L 405.680218 162.694451 
L 406.228881 165.346046 
L 406.35703 163.127418 
L 406.484999 164.077886 
L 406.612789 163.133205 
L 406.7404 163.153974 
L 406.867833 164.034111 
L 406.995088 164.044658 
L 407.628718 167.225911 
L 407.754917 164.750457 
L 407.880943 165.604969 
L 408.006795 165.313236 
L 408.257979 166.945238 
L 408.383313 166.859446 
L 408.633465 168.065814 
L 408.758284 168.027031 
L 408.882933 168.275054 
L 409.007412 168.000604 
L 409.255862 168.854475 
L 409.503637 167.744803 
L 409.627273 168.625505 
L 409.750742 168.424845 
L 409.874044 167.128351 
L 410.02986 168.617445 
L 410.275546 167.127107 
L 410.398142 167.665465 
L 410.520573 166.818759 
L 410.642841 167.631058 
L 410.764944 165.668845 
L 411.008663 166.85247 
L 411.130279 166.518089 
L 411.494157 168.705408 
L 411.615128 166.264938 
L 411.735939 166.176367 
L 411.977082 167.276361 
L 412.097416 167.426331 
L 412.217591 167.766293 
L 412.457467 169.33002 
L 412.577169 166.639209 
L 412.816103 167.723774 
L 412.935336 168.140148 
L 413.173336 169.459911 
L 413.292104 170.019006 
L 413.410717 167.221889 
L 413.883636 169.671729 
L 413.914954 169.316221 
L 414.150417 170.618791 
L 414.267921 168.920131 
L 414.385274 169.457034 
L 414.502476 169.293375 
L 414.619528 170.130876 
L 414.73643 168.83181 
L 414.73643 168.83181 
" clip-path="url(#p8b99a97698)" style="fill: none; stroke: #d62728; stroke-opacity: 0.4; stroke-linecap: square"/>
   </g>
   <g id="patch_3">
    <path d="M 57.6 307.584 
L 57.6 41.472 
" style="fill: none; stroke: #000000; stroke-width: 0.8; stroke-linejoin: miter; stroke-linecap: square"/>
   </g>
   <g id="patch_4">
    <path d="M 414.72 307.584 
L 414.72 41.472 
" style="fill: none; stroke: #000000; stroke-width: 0.8; stroke-linejoin: miter; stroke-linecap: square"/>
   </g>
   <g id="patch_5">
    <path d="M 57.6 307.584 
L 414.72 307.584 
" style="fill: none; stroke: #000000; stroke-width: 0.8; stroke-linejoin: miter; stroke-linecap: square"/>
   </g>
   <g id="patch_6">
    <path d="M 57.6 41.472 
L 414.72 41.472 
" style="fill: none; stroke: #000000; stroke-width: 0.8; stroke-linejoin: miter; stroke-linecap: square"/>
   </g>
   <g id="text_9">
    <!-- 2025-02-21-09:06:45 zoomed in + ewm(16.0).mean() -->
    <g transform="translate(74.128125 35.472) scale(0.12 -0.12)">
     <defs>
      <path id="DejaVuSans-35" d="M 691 4666 
L 3169 4666 
L 3169 4134 
L 1269 4134 
L 1269 2991 
Q 1406 3038 1543 3061 
Q 1681 3084 1819 3084 
Q 2600 3084 3056 2656 
Q 3513 2228 3513 1497 
Q 3513 744 3044 326 
Q 2575 -91 1722 -91 
Q 1428 -91 1123 -41 
Q 819 9 494 109 
L 494 744 
Q 775 591 1075 516 
Q 1375 441 1709 441 
Q 2250 441 2565 725 
Q 2881 1009 2881 1497 
Q 2881 1984 2565 2268 
Q 2250 2553 1709 2553 
Q 1456 2553 1204 2497 
Q 953 2441 691 2322 
L 691 4666 
z
" transform="scale(0.015625)"/>
      <path id="DejaVuSans-2d" d="M 313 2009 
L 1997 2009 
L 1997 1497 
L 313 1497 
L 313 2009 
z
" transform="scale(0.015625)"/>
      <path id="DejaVuSans-39" d="M 703 97 
L 703 672 
Q 941 559 1184 500 
Q 1428 441 1663 441 
Q 2288 441 2617 861 
Q 2947 1281 2994 2138 
Q 2813 1869 2534 1725 
Q 2256 1581 1919 1581 
Q 1219 1581 811 2004 
Q 403 2428 403 3163 
Q 403 3881 828 4315 
Q 1253 4750 1959 4750 
Q 2769 4750 3195 4129 
Q 3622 3509 3622 2328 
Q 3622 1225 3098 567 
Q 2575 -91 1691 -91 
Q 1453 -91 1209 -44 
Q 966 3 703 97 
z
M 1959 2075 
Q 2384 2075 2632 2365 
Q 2881 2656 2881 3163 
Q 2881 3666 2632 3958 
Q 2384 4250 1959 4250 
Q 1534 4250 1286 3958 
Q 1038 3666 1038 3163 
Q 1038 2656 1286 2365 
Q 1534 2075 1959 2075 
z
" transform="scale(0.015625)"/>
      <path id="DejaVuSans-3a" d="M 750 794 
L 1409 794 
L 1409 0 
L 750 0 
L 750 794 
z
M 750 3309 
L 1409 3309 
L 1409 2516 
L 750 2516 
L 750 3309 
z
" transform="scale(0.015625)"/>
      <path id="DejaVuSans-36" d="M 2113 2584 
Q 1688 2584 1439 2293 
Q 1191 2003 1191 1497 
Q 1191 994 1439 701 
Q 1688 409 2113 409 
Q 2538 409 2786 701 
Q 3034 994 3034 1497 
Q 3034 2003 2786 2293 
Q 2538 2584 2113 2584 
z
M 3366 4563 
L 3366 3988 
Q 3128 4100 2886 4159 
Q 2644 4219 2406 4219 
Q 1781 4219 1451 3797 
Q 1122 3375 1075 2522 
Q 1259 2794 1537 2939 
Q 1816 3084 2150 3084 
Q 2853 3084 3261 2657 
Q 3669 2231 3669 1497 
Q 3669 778 3244 343 
Q 2819 -91 2113 -91 
Q 1303 -91 875 529 
Q 447 1150 447 2328 
Q 447 3434 972 4092 
Q 1497 4750 2381 4750 
Q 2619 4750 2861 4703 
Q 3103 4656 3366 4563 
z
" transform="scale(0.015625)"/>
      <path id="DejaVuSans-20" transform="scale(0.015625)"/>
      <path id="DejaVuSans-7a" d="M 353 3500 
L 3084 3500 
L 3084 2975 
L 922 459 
L 3084 459 
L 3084 0 
L 275 0 
L 275 525 
L 2438 3041 
L 353 3041 
L 353 3500 
z
" transform="scale(0.015625)"/>
      <path id="DejaVuSans-6d" d="M 3328 2828 
Q 3544 3216 3844 3400 
Q 4144 3584 4550 3584 
Q 5097 3584 5394 3201 
Q 5691 2819 5691 2113 
L 5691 0 
L 5113 0 
L 5113 2094 
Q 5113 2597 4934 2840 
Q 4756 3084 4391 3084 
Q 3944 3084 3684 2787 
Q 3425 2491 3425 1978 
L 3425 0 
L 2847 0 
L 2847 2094 
Q 2847 2600 2669 2842 
Q 2491 3084 2119 3084 
Q 1678 3084 1418 2786 
Q 1159 2488 1159 1978 
L 1159 0 
L 581 0 
L 581 3500 
L 1159 3500 
L 1159 2956 
Q 1356 3278 1631 3431 
Q 1906 3584 2284 3584 
Q 2666 3584 2933 3390 
Q 3200 3197 3328 2828 
z
" transform="scale(0.015625)"/>
      <path id="DejaVuSans-64" d="M 2906 2969 
L 2906 4863 
L 3481 4863 
L 3481 0 
L 2906 0 
L 2906 525 
Q 2725 213 2448 61 
Q 2172 -91 1784 -91 
Q 1150 -91 751 415 
Q 353 922 353 1747 
Q 353 2572 751 3078 
Q 1150 3584 1784 3584 
Q 2172 3584 2448 3432 
Q 2725 3281 2906 2969 
z
M 947 1747 
Q 947 1113 1208 752 
Q 1469 391 1925 391 
Q 2381 391 2643 752 
Q 2906 1113 2906 1747 
Q 2906 2381 2643 2742 
Q 2381 3103 1925 3103 
Q 1469 3103 1208 2742 
Q 947 2381 947 1747 
z
" transform="scale(0.015625)"/>
      <path id="DejaVuSans-6e" d="M 3513 2113 
L 3513 0 
L 2938 0 
L 2938 2094 
Q 2938 2591 2744 2837 
Q 2550 3084 2163 3084 
Q 1697 3084 1428 2787 
Q 1159 2491 1159 1978 
L 1159 0 
L 581 0 
L 581 3500 
L 1159 3500 
L 1159 2956 
Q 1366 3272 1645 3428 
Q 1925 3584 2291 3584 
Q 2894 3584 3203 3211 
Q 3513 2838 3513 2113 
z
" transform="scale(0.015625)"/>
      <path id="DejaVuSans-2b" d="M 2944 4013 
L 2944 2272 
L 4684 2272 
L 4684 1741 
L 2944 1741 
L 2944 0 
L 2419 0 
L 2419 1741 
L 678 1741 
L 678 2272 
L 2419 2272 
L 2419 4013 
L 2944 4013 
z
" transform="scale(0.015625)"/>
      <path id="DejaVuSans-77" d="M 269 3500 
L 844 3500 
L 1563 769 
L 2278 3500 
L 2956 3500 
L 3675 769 
L 4391 3500 
L 4966 3500 
L 4050 0 
L 3372 0 
L 2619 2869 
L 1863 0 
L 1184 0 
L 269 3500 
z
" transform="scale(0.015625)"/>
      <path id="DejaVuSans-28" d="M 1984 4856 
Q 1566 4138 1362 3434 
Q 1159 2731 1159 2009 
Q 1159 1288 1364 580 
Q 1569 -128 1984 -844 
L 1484 -844 
Q 1016 -109 783 600 
Q 550 1309 550 2009 
Q 550 2706 781 3412 
Q 1013 4119 1484 4856 
L 1984 4856 
z
" transform="scale(0.015625)"/>
      <path id="DejaVuSans-2e" d="M 684 794 
L 1344 794 
L 1344 0 
L 684 0 
L 684 794 
z
" transform="scale(0.015625)"/>
      <path id="DejaVuSans-29" d="M 513 4856 
L 1013 4856 
Q 1481 4119 1714 3412 
Q 1947 2706 1947 2009 
Q 1947 1309 1714 600 
Q 1481 -109 1013 -844 
L 513 -844 
Q 928 -128 1133 580 
Q 1338 1288 1338 2009 
Q 1338 2731 1133 3434 
Q 928 4138 513 4856 
z
" transform="scale(0.015625)"/>
      <path id="DejaVuSans-61" d="M 2194 1759 
Q 1497 1759 1228 1600 
Q 959 1441 959 1056 
Q 959 750 1161 570 
Q 1363 391 1709 391 
Q 2188 391 2477 730 
Q 2766 1069 2766 1631 
L 2766 1759 
L 2194 1759 
z
M 3341 1997 
L 3341 0 
L 2766 0 
L 2766 531 
Q 2569 213 2275 61 
Q 1981 -91 1556 -91 
Q 1019 -91 701 211 
Q 384 513 384 1019 
Q 384 1609 779 1909 
Q 1175 2209 1959 2209 
L 2766 2209 
L 2766 2266 
Q 2766 2663 2505 2880 
Q 2244 3097 1772 3097 
Q 1472 3097 1187 3025 
Q 903 2953 641 2809 
L 641 3341 
Q 956 3463 1253 3523 
Q 1550 3584 1831 3584 
Q 2591 3584 2966 3190 
Q 3341 2797 3341 1997 
z
" transform="scale(0.015625)"/>
     </defs>
     <use xlink:href="#DejaVuSans-32"/>
     <use xlink:href="#DejaVuSans-30" x="63.623047"/>
     <use xlink:href="#DejaVuSans-32" x="127.246094"/>
     <use xlink:href="#DejaVuSans-35" x="190.869141"/>
     <use xlink:href="#DejaVuSans-2d" x="254.492188"/>
     <use xlink:href="#DejaVuSans-30" x="290.576172"/>
     <use xlink:href="#DejaVuSans-32" x="354.199219"/>
     <use xlink:href="#DejaVuSans-2d" x="417.822266"/>
     <use xlink:href="#DejaVuSans-32" x="453.90625"/>
     <use xlink:href="#DejaVuSans-31" x="517.529297"/>
     <use xlink:href="#DejaVuSans-2d" x="581.152344"/>
     <use xlink:href="#DejaVuSans-30" x="617.236328"/>
     <use xlink:href="#DejaVuSans-39" x="680.859375"/>
     <use xlink:href="#DejaVuSans-3a" x="744.482422"/>
     <use xlink:href="#DejaVuSans-30" x="778.173828"/>
     <use xlink:href="#DejaVuSans-36" x="841.796875"/>
     <use xlink:href="#DejaVuSans-3a" x="905.419922"/>
     <use xlink:href="#DejaVuSans-34" x="939.111328"/>
     <use xlink:href="#DejaVuSans-35" x="1002.734375"/>
     <use xlink:href="#DejaVuSans-20" x="1066.357422"/>
     <use xlink:href="#DejaVuSans-7a" x="1098.144531"/>
     <use xlink:href="#DejaVuSans-6f" x="1150.634766"/>
     <use xlink:href="#DejaVuSans-6f" x="1211.816406"/>
     <use xlink:href="#DejaVuSans-6d" x="1272.998047"/>
     <use xlink:href="#DejaVuSans-65" x="1370.410156"/>
     <use xlink:href="#DejaVuSans-64" x="1431.933594"/>
     <use xlink:href="#DejaVuSans-20" x="1495.410156"/>
     <use xlink:href="#DejaVuSans-69" x="1527.197266"/>
     <use xlink:href="#DejaVuSans-6e" x="1554.980469"/>
     <use xlink:href="#DejaVuSans-20" x="1618.359375"/>
     <use xlink:href="#DejaVuSans-2b" x="1650.146484"/>
     <use xlink:href="#DejaVuSans-20" x="1733.935547"/>
     <use xlink:href="#DejaVuSans-65" x="1765.722656"/>
     <use xlink:href="#DejaVuSans-77" x="1827.246094"/>
     <use xlink:href="#DejaVuSans-6d" x="1909.033203"/>
     <use xlink:href="#DejaVuSans-28" x="2006.445312"/>
     <use xlink:href="#DejaVuSans-31" x="2045.458984"/>
     <use xlink:href="#DejaVuSans-36" x="2109.082031"/>
     <use xlink:href="#DejaVuSans-2e" x="2172.705078"/>
     <use xlink:href="#DejaVuSans-30" x="2204.492188"/>
     <use xlink:href="#DejaVuSans-29" x="2268.115234"/>
     <use xlink:href="#DejaVuSans-2e" x="2307.128906"/>
     <use xlink:href="#DejaVuSans-6d" x="2338.916016"/>
     <use xlink:href="#DejaVuSans-65" x="2436.328125"/>
     <use xlink:href="#DejaVuSans-61" x="2497.851562"/>
     <use xlink:href="#DejaVuSans-6e" x="2559.130859"/>
     <use xlink:href="#DejaVuSans-28" x="2622.509766"/>
     <use xlink:href="#DejaVuSans-29" x="2661.523438"/>
    </g>
   </g>
   <g id="legend_1">
    <g id="patch_7">
     <path d="M 64.6 302.584 
L 190.723438 302.584 
Q 192.723438 302.584 192.723438 300.584 
L 192.723438 241.759 
Q 192.723438 239.759 190.723438 239.759 
L 64.6 239.759 
Q 62.6 239.759 62.6 241.759 
L 62.6 300.584 
Q 62.6 302.584 64.6 302.584 
z
" style="fill: #ffffff; opacity: 0.8; stroke: #cccccc; stroke-linejoin: miter"/>
    </g>
    <g id="line2d_48">
     <path d="M 66.6 247.857437 
L 76.6 247.857437 
L 86.6 247.857437 
" style="fill: none; stroke: #1f77b4; stroke-opacity: 0.4; stroke-linecap: square"/>
    </g>
    <g id="text_10">
     <!-- SchNet eval_loss -->
     <g transform="translate(94.6 251.357437) scale(0.1 -0.1)">
      <defs>
       <path id="DejaVuSans-53" d="M 3425 4513 
L 3425 3897 
Q 3066 4069 2747 4153 
Q 2428 4238 2131 4238 
Q 1616 4238 1336 4038 
Q 1056 3838 1056 3469 
Q 1056 3159 1242 3001 
Q 1428 2844 1947 2747 
L 2328 2669 
Q 3034 2534 3370 2195 
Q 3706 1856 3706 1288 
Q 3706 609 3251 259 
Q 2797 -91 1919 -91 
Q 1588 -91 1214 -16 
Q 841 59 441 206 
L 441 856 
Q 825 641 1194 531 
Q 1563 422 1919 422 
Q 2459 422 2753 634 
Q 3047 847 3047 1241 
Q 3047 1584 2836 1778 
Q 2625 1972 2144 2069 
L 1759 2144 
Q 1053 2284 737 2584 
Q 422 2884 422 3419 
Q 422 4038 858 4394 
Q 1294 4750 2059 4750 
Q 2388 4750 2728 4690 
Q 3069 4631 3425 4513 
z
" transform="scale(0.015625)"/>
       <path id="DejaVuSans-63" d="M 3122 3366 
L 3122 2828 
Q 2878 2963 2633 3030 
Q 2388 3097 2138 3097 
Q 1578 3097 1268 2742 
Q 959 2388 959 1747 
Q 959 1106 1268 751 
Q 1578 397 2138 397 
Q 2388 397 2633 464 
Q 2878 531 3122 666 
L 3122 134 
Q 2881 22 2623 -34 
Q 2366 -91 2075 -91 
Q 1284 -91 818 406 
Q 353 903 353 1747 
Q 353 2603 823 3093 
Q 1294 3584 2113 3584 
Q 2378 3584 2631 3529 
Q 2884 3475 3122 3366 
z
" transform="scale(0.015625)"/>
       <path id="DejaVuSans-68" d="M 3513 2113 
L 3513 0 
L 2938 0 
L 2938 2094 
Q 2938 2591 2744 2837 
Q 2550 3084 2163 3084 
Q 1697 3084 1428 2787 
Q 1159 2491 1159 1978 
L 1159 0 
L 581 0 
L 581 4863 
L 1159 4863 
L 1159 2956 
Q 1366 3272 1645 3428 
Q 1925 3584 2291 3584 
Q 2894 3584 3203 3211 
Q 3513 2838 3513 2113 
z
" transform="scale(0.015625)"/>
       <path id="DejaVuSans-4e" d="M 628 4666 
L 1478 4666 
L 3547 763 
L 3547 4666 
L 4159 4666 
L 4159 0 
L 3309 0 
L 1241 3903 
L 1241 0 
L 628 0 
L 628 4666 
z
" transform="scale(0.015625)"/>
       <path id="DejaVuSans-76" d="M 191 3500 
L 800 3500 
L 1894 563 
L 2988 3500 
L 3597 3500 
L 2284 0 
L 1503 0 
L 191 3500 
z
" transform="scale(0.015625)"/>
       <path id="DejaVuSans-5f" d="M 3263 -1063 
L 3263 -1509 
L -63 -1509 
L -63 -1063 
L 3263 -1063 
z
" transform="scale(0.015625)"/>
      </defs>
      <use xlink:href="#DejaVuSans-53"/>
      <use xlink:href="#DejaVuSans-63" x="63.476562"/>
      <use xlink:href="#DejaVuSans-68" x="118.457031"/>
      <use xlink:href="#DejaVuSans-4e" x="181.835938"/>
      <use xlink:href="#DejaVuSans-65" x="256.640625"/>
      <use xlink:href="#DejaVuSans-74" x="318.164062"/>
      <use xlink:href="#DejaVuSans-20" x="357.373047"/>
      <use xlink:href="#DejaVuSans-65" x="389.160156"/>
      <use xlink:href="#DejaVuSans-76" x="450.683594"/>
      <use xlink:href="#DejaVuSans-61" x="509.863281"/>
      <use xlink:href="#DejaVuSans-6c" x="571.142578"/>
      <use xlink:href="#DejaVuSans-5f" x="598.925781"/>
      <use xlink:href="#DejaVuSans-6c" x="648.925781"/>
      <use xlink:href="#DejaVuSans-6f" x="676.708984"/>
      <use xlink:href="#DejaVuSans-73" x="737.890625"/>
      <use xlink:href="#DejaVuSans-73" x="789.990234"/>
     </g>
    </g>
    <g id="line2d_49">
     <path d="M 66.6 262.813687 
L 76.6 262.813687 
L 86.6 262.813687 
" style="fill: none; stroke: #ff7f0e; stroke-opacity: 0.4; stroke-linecap: square"/>
    </g>
    <g id="text_11">
     <!-- M220 eval_loss -->
     <g transform="translate(94.6 266.313687) scale(0.1 -0.1)">
      <defs>
       <path id="DejaVuSans-4d" d="M 628 4666 
L 1569 4666 
L 2759 1491 
L 3956 4666 
L 4897 4666 
L 4897 0 
L 4281 0 
L 4281 4097 
L 3078 897 
L 2444 897 
L 1241 4097 
L 1241 0 
L 628 0 
L 628 4666 
z
" transform="scale(0.015625)"/>
      </defs>
      <use xlink:href="#DejaVuSans-4d"/>
      <use xlink:href="#DejaVuSans-32" x="86.279297"/>
      <use xlink:href="#DejaVuSans-32" x="149.902344"/>
      <use xlink:href="#DejaVuSans-30" x="213.525391"/>
      <use xlink:href="#DejaVuSans-20" x="277.148438"/>
      <use xlink:href="#DejaVuSans-65" x="308.935547"/>
      <use xlink:href="#DejaVuSans-76" x="370.458984"/>
      <use xlink:href="#DejaVuSans-61" x="429.638672"/>
      <use xlink:href="#DejaVuSans-6c" x="490.917969"/>
      <use xlink:href="#DejaVuSans-5f" x="518.701172"/>
      <use xlink:href="#DejaVuSans-6c" x="568.701172"/>
      <use xlink:href="#DejaVuSans-6f" x="596.484375"/>
      <use xlink:href="#DejaVuSans-73" x="657.666016"/>
      <use xlink:href="#DejaVuSans-73" x="709.765625"/>
     </g>
    </g>
    <g id="line2d_50">
     <path d="M 66.6 277.769937 
L 76.6 277.769937 
L 86.6 277.769937 
" style="fill: none; stroke: #2ca02c; stroke-opacity: 0.4; stroke-linecap: square"/>
    </g>
    <g id="text_12">
     <!-- MoGIN14 eval_loss -->
     <g transform="translate(94.6 281.269937) scale(0.1 -0.1)">
      <defs>
       <path id="DejaVuSans-47" d="M 3809 666 
L 3809 1919 
L 2778 1919 
L 2778 2438 
L 4434 2438 
L 4434 434 
Q 4069 175 3628 42 
Q 3188 -91 2688 -91 
Q 1594 -91 976 548 
Q 359 1188 359 2328 
Q 359 3472 976 4111 
Q 1594 4750 2688 4750 
Q 3144 4750 3555 4637 
Q 3966 4525 4313 4306 
L 4313 3634 
Q 3963 3931 3569 4081 
Q 3175 4231 2741 4231 
Q 1884 4231 1454 3753 
Q 1025 3275 1025 2328 
Q 1025 1384 1454 906 
Q 1884 428 2741 428 
Q 3075 428 3337 486 
Q 3600 544 3809 666 
z
" transform="scale(0.015625)"/>
       <path id="DejaVuSans-49" d="M 628 4666 
L 1259 4666 
L 1259 0 
L 628 0 
L 628 4666 
z
" transform="scale(0.015625)"/>
      </defs>
      <use xlink:href="#DejaVuSans-4d"/>
      <use xlink:href="#DejaVuSans-6f" x="86.279297"/>
      <use xlink:href="#DejaVuSans-47" x="147.460938"/>
      <use xlink:href="#DejaVuSans-49" x="224.951172"/>
      <use xlink:href="#DejaVuSans-4e" x="254.443359"/>
      <use xlink:href="#DejaVuSans-31" x="329.248047"/>
      <use xlink:href="#DejaVuSans-34" x="392.871094"/>
      <use xlink:href="#DejaVuSans-20" x="456.494141"/>
      <use xlink:href="#DejaVuSans-65" x="488.28125"/>
      <use xlink:href="#DejaVuSans-76" x="549.804688"/>
      <use xlink:href="#DejaVuSans-61" x="608.984375"/>
      <use xlink:href="#DejaVuSans-6c" x="670.263672"/>
      <use xlink:href="#DejaVuSans-5f" x="698.046875"/>
      <use xlink:href="#DejaVuSans-6c" x="748.046875"/>
      <use xlink:href="#DejaVuSans-6f" x="775.830078"/>
      <use xlink:href="#DejaVuSans-73" x="837.011719"/>
      <use xlink:href="#DejaVuSans-73" x="889.111328"/>
     </g>
    </g>
    <g id="line2d_51">
     <path d="M 66.6 292.726187 
L 76.6 292.726187 
L 86.6 292.726187 
" style="fill: none; stroke: #d62728; stroke-opacity: 0.4; stroke-linecap: square"/>
    </g>
    <g id="text_13">
     <!-- MoGIN16 eval_loss -->
     <g transform="translate(94.6 296.226187) scale(0.1 -0.1)">
      <use xlink:href="#DejaVuSans-4d"/>
      <use xlink:href="#DejaVuSans-6f" x="86.279297"/>
      <use xlink:href="#DejaVuSans-47" x="147.460938"/>
      <use xlink:href="#DejaVuSans-49" x="224.951172"/>
      <use xlink:href="#DejaVuSans-4e" x="254.443359"/>
      <use xlink:href="#DejaVuSans-31" x="329.248047"/>
      <use xlink:href="#DejaVuSans-36" x="392.871094"/>
      <use xlink:href="#DejaVuSans-20" x="456.494141"/>
      <use xlink:href="#DejaVuSans-65" x="488.28125"/>
      <use xlink:href="#DejaVuSans-76" x="549.804688"/>
      <use xlink:href="#DejaVuSans-61" x="608.984375"/>
      <use xlink:href="#DejaVuSans-6c" x="670.263672"/>
      <use xlink:href="#DejaVuSans-5f" x="698.046875"/>
      <use xlink:href="#DejaVuSans-6c" x="748.046875"/>
      <use xlink:href="#DejaVuSans-6f" x="775.830078"/>
      <use xlink:href="#DejaVuSans-73" x="837.011719"/>
      <use xlink:href="#DejaVuSans-73" x="889.111328"/>
     </g>
    </g>
   </g>
  </g>
 </g>
 <defs>
  <clipPath id="p8b99a97698">
   <rect x="57.6" y="41.472" width="357.12" height="266.112"/>
  </clipPath>
 </defs>
</svg>
