<?xml version="1.0" encoding="utf-8" standalone="no"?>
<!DOCTYPE svg PUBLIC "-//W3C//DTD SVG 1.1//EN"
  "http://www.w3.org/Graphics/SVG/1.1/DTD/svg11.dtd">
<svg xmlns:xlink="http://www.w3.org/1999/xlink" width="460.8pt" height="345.6pt" viewBox="0 0 460.8 345.6" xmlns="http://www.w3.org/2000/svg" version="1.1">
 <metadata>
  <rdf:RDF xmlns:dc="http://purl.org/dc/elements/1.1/" xmlns:cc="http://creativecommons.org/ns#" xmlns:rdf="http://www.w3.org/1999/02/22-rdf-syntax-ns#">
   <cc:Work>
    <dc:type rdf:resource="http://purl.org/dc/dcmitype/StillImage"/>
    <dc:date>2025-03-24T05:52:08.878328</dc:date>
    <dc:format>image/svg+xml</dc:format>
    <dc:creator>
     <cc:Agent>
      <dc:title>Matplotlib v3.8.4, https://matplotlib.org/</dc:title>
     </cc:Agent>
    </dc:creator>
   </cc:Work>
  </rdf:RDF>
 </metadata>
 <defs>
  <style type="text/css">*{stroke-linejoin: round; stroke-linecap: butt}</style>
 </defs>
 <g id="figure_1">
  <g id="patch_1">
   <path d="M 0 345.6 
L 460.8 345.6 
L 460.8 0 
L 0 0 
z
" style="fill: #ffffff"/>
  </g>
  <g id="axes_1">
   <g id="patch_2">
    <path d="M 57.6 307.584 
L 414.72 307.584 
L 414.72 41.472 
L 57.6 41.472 
z
" style="fill: #ffffff"/>
   </g>
   <g id="matplotlib.axis_1">
    <g id="xtick_1">
     <g id="line2d_1">
      <defs>
       <path id="m55a77eaaf2" d="M 0 0 
L 0 3.5 
" style="stroke: #000000; stroke-width: 0.8"/>
      </defs>
      <g>
       <use xlink:href="#m55a77eaaf2" x="73.832727" y="307.584" style="stroke: #000000; stroke-width: 0.8"/>
      </g>
     </g>
     <g id="text_1">
      <!-- $\mathdefault{10^{0}}$ -->
      <g transform="translate(65.032727 322.182437) scale(0.1 -0.1)">
       <defs>
        <path id="DejaVuSans-31" d="M 794 531 
L 1825 531 
L 1825 4091 
L 703 3866 
L 703 4441 
L 1819 4666 
L 2450 4666 
L 2450 531 
L 3481 531 
L 3481 0 
L 794 0 
L 794 531 
z
" transform="scale(0.015625)"/>
        <path id="DejaVuSans-30" d="M 2034 4250 
Q 1547 4250 1301 3770 
Q 1056 3291 1056 2328 
Q 1056 1369 1301 889 
Q 1547 409 2034 409 
Q 2525 409 2770 889 
Q 3016 1369 3016 2328 
Q 3016 3291 2770 3770 
Q 2525 4250 2034 4250 
z
M 2034 4750 
Q 2819 4750 3233 4129 
Q 3647 3509 3647 2328 
Q 3647 1150 3233 529 
Q 2819 -91 2034 -91 
Q 1250 -91 836 529 
Q 422 1150 422 2328 
Q 422 3509 836 4129 
Q 1250 4750 2034 4750 
z
" transform="scale(0.015625)"/>
       </defs>
       <use xlink:href="#DejaVuSans-31" transform="translate(0 0.765625)"/>
       <use xlink:href="#DejaVuSans-30" transform="translate(63.623047 0.765625)"/>
       <use xlink:href="#DejaVuSans-30" transform="translate(128.203125 39.046875) scale(0.7)"/>
      </g>
     </g>
    </g>
    <g id="xtick_2">
     <g id="line2d_2">
      <g>
       <use xlink:href="#m55a77eaaf2" x="176.182229" y="307.584" style="stroke: #000000; stroke-width: 0.8"/>
      </g>
     </g>
     <g id="text_2">
      <!-- $\mathdefault{10^{1}}$ -->
      <g transform="translate(167.382229 322.182437) scale(0.1 -0.1)">
       <use xlink:href="#DejaVuSans-31" transform="translate(0 0.684375)"/>
       <use xlink:href="#DejaVuSans-30" transform="translate(63.623047 0.684375)"/>
       <use xlink:href="#DejaVuSans-31" transform="translate(128.203125 38.965625) scale(0.7)"/>
      </g>
     </g>
    </g>
    <g id="xtick_3">
     <g id="line2d_3">
      <g>
       <use xlink:href="#m55a77eaaf2" x="278.531731" y="307.584" style="stroke: #000000; stroke-width: 0.8"/>
      </g>
     </g>
     <g id="text_3">
      <!-- $\mathdefault{10^{2}}$ -->
      <g transform="translate(269.731731 322.182437) scale(0.1 -0.1)">
       <defs>
        <path id="DejaVuSans-32" d="M 1228 531 
L 3431 531 
L 3431 0 
L 469 0 
L 469 531 
Q 828 903 1448 1529 
Q 2069 2156 2228 2338 
Q 2531 2678 2651 2914 
Q 2772 3150 2772 3378 
Q 2772 3750 2511 3984 
Q 2250 4219 1831 4219 
Q 1534 4219 1204 4116 
Q 875 4013 500 3803 
L 500 4441 
Q 881 4594 1212 4672 
Q 1544 4750 1819 4750 
Q 2544 4750 2975 4387 
Q 3406 4025 3406 3419 
Q 3406 3131 3298 2873 
Q 3191 2616 2906 2266 
Q 2828 2175 2409 1742 
Q 1991 1309 1228 531 
z
" transform="scale(0.015625)"/>
       </defs>
       <use xlink:href="#DejaVuSans-31" transform="translate(0 0.765625)"/>
       <use xlink:href="#DejaVuSans-30" transform="translate(63.623047 0.765625)"/>
       <use xlink:href="#DejaVuSans-32" transform="translate(128.203125 39.046875) scale(0.7)"/>
      </g>
     </g>
    </g>
    <g id="xtick_4">
     <g id="line2d_4">
      <g>
       <use xlink:href="#m55a77eaaf2" x="380.881233" y="307.584" style="stroke: #000000; stroke-width: 0.8"/>
      </g>
     </g>
     <g id="text_4">
      <!-- $\mathdefault{10^{3}}$ -->
      <g transform="translate(372.081233 322.182437) scale(0.1 -0.1)">
       <defs>
        <path id="DejaVuSans-33" d="M 2597 2516 
Q 3050 2419 3304 2112 
Q 3559 1806 3559 1356 
Q 3559 666 3084 287 
Q 2609 -91 1734 -91 
Q 1441 -91 1130 -33 
Q 819 25 488 141 
L 488 750 
Q 750 597 1062 519 
Q 1375 441 1716 441 
Q 2309 441 2620 675 
Q 2931 909 2931 1356 
Q 2931 1769 2642 2001 
Q 2353 2234 1838 2234 
L 1294 2234 
L 1294 2753 
L 1863 2753 
Q 2328 2753 2575 2939 
Q 2822 3125 2822 3475 
Q 2822 3834 2567 4026 
Q 2313 4219 1838 4219 
Q 1578 4219 1281 4162 
Q 984 4106 628 3988 
L 628 4550 
Q 988 4650 1302 4700 
Q 1616 4750 1894 4750 
Q 2613 4750 3031 4423 
Q 3450 4097 3450 3541 
Q 3450 3153 3228 2886 
Q 3006 2619 2597 2516 
z
" transform="scale(0.015625)"/>
       </defs>
       <use xlink:href="#DejaVuSans-31" transform="translate(0 0.765625)"/>
       <use xlink:href="#DejaVuSans-30" transform="translate(63.623047 0.765625)"/>
       <use xlink:href="#DejaVuSans-33" transform="translate(128.203125 39.046875) scale(0.7)"/>
      </g>
     </g>
    </g>
    <g id="xtick_5">
     <g id="line2d_5">
      <defs>
       <path id="m3efb4713c8" d="M 0 0 
L 0 2 
" style="stroke: #000000; stroke-width: 0.6"/>
      </defs>
      <g>
       <use xlink:href="#m3efb4713c8" x="57.978589" y="307.584" style="stroke: #000000; stroke-width: 0.6"/>
      </g>
     </g>
    </g>
    <g id="xtick_6">
     <g id="line2d_6">
      <g>
       <use xlink:href="#m3efb4713c8" x="63.914036" y="307.584" style="stroke: #000000; stroke-width: 0.6"/>
      </g>
     </g>
    </g>
    <g id="xtick_7">
     <g id="line2d_7">
      <g>
       <use xlink:href="#m3efb4713c8" x="69.149471" y="307.584" style="stroke: #000000; stroke-width: 0.6"/>
      </g>
     </g>
    </g>
    <g id="xtick_8">
     <g id="line2d_8">
      <g>
       <use xlink:href="#m3efb4713c8" x="104.642997" y="307.584" style="stroke: #000000; stroke-width: 0.6"/>
      </g>
     </g>
    </g>
    <g id="xtick_9">
     <g id="line2d_9">
      <g>
       <use xlink:href="#m3efb4713c8" x="122.66585" y="307.584" style="stroke: #000000; stroke-width: 0.6"/>
      </g>
     </g>
    </g>
    <g id="xtick_10">
     <g id="line2d_10">
      <g>
       <use xlink:href="#m3efb4713c8" x="135.453268" y="307.584" style="stroke: #000000; stroke-width: 0.6"/>
      </g>
     </g>
    </g>
    <g id="xtick_11">
     <g id="line2d_11">
      <g>
       <use xlink:href="#m3efb4713c8" x="145.371959" y="307.584" style="stroke: #000000; stroke-width: 0.6"/>
      </g>
     </g>
    </g>
    <g id="xtick_12">
     <g id="line2d_12">
      <g>
       <use xlink:href="#m3efb4713c8" x="153.47612" y="307.584" style="stroke: #000000; stroke-width: 0.6"/>
      </g>
     </g>
    </g>
    <g id="xtick_13">
     <g id="line2d_13">
      <g>
       <use xlink:href="#m3efb4713c8" x="160.328091" y="307.584" style="stroke: #000000; stroke-width: 0.6"/>
      </g>
     </g>
    </g>
    <g id="xtick_14">
     <g id="line2d_14">
      <g>
       <use xlink:href="#m3efb4713c8" x="166.263538" y="307.584" style="stroke: #000000; stroke-width: 0.6"/>
      </g>
     </g>
    </g>
    <g id="xtick_15">
     <g id="line2d_15">
      <g>
       <use xlink:href="#m3efb4713c8" x="171.498973" y="307.584" style="stroke: #000000; stroke-width: 0.6"/>
      </g>
     </g>
    </g>
    <g id="xtick_16">
     <g id="line2d_16">
      <g>
       <use xlink:href="#m3efb4713c8" x="206.992499" y="307.584" style="stroke: #000000; stroke-width: 0.6"/>
      </g>
     </g>
    </g>
    <g id="xtick_17">
     <g id="line2d_17">
      <g>
       <use xlink:href="#m3efb4713c8" x="225.015352" y="307.584" style="stroke: #000000; stroke-width: 0.6"/>
      </g>
     </g>
    </g>
    <g id="xtick_18">
     <g id="line2d_18">
      <g>
       <use xlink:href="#m3efb4713c8" x="237.80277" y="307.584" style="stroke: #000000; stroke-width: 0.6"/>
      </g>
     </g>
    </g>
    <g id="xtick_19">
     <g id="line2d_19">
      <g>
       <use xlink:href="#m3efb4713c8" x="247.721461" y="307.584" style="stroke: #000000; stroke-width: 0.6"/>
      </g>
     </g>
    </g>
    <g id="xtick_20">
     <g id="line2d_20">
      <g>
       <use xlink:href="#m3efb4713c8" x="255.825622" y="307.584" style="stroke: #000000; stroke-width: 0.6"/>
      </g>
     </g>
    </g>
    <g id="xtick_21">
     <g id="line2d_21">
      <g>
       <use xlink:href="#m3efb4713c8" x="262.677593" y="307.584" style="stroke: #000000; stroke-width: 0.6"/>
      </g>
     </g>
    </g>
    <g id="xtick_22">
     <g id="line2d_22">
      <g>
       <use xlink:href="#m3efb4713c8" x="268.61304" y="307.584" style="stroke: #000000; stroke-width: 0.6"/>
      </g>
     </g>
    </g>
    <g id="xtick_23">
     <g id="line2d_23">
      <g>
       <use xlink:href="#m3efb4713c8" x="273.848475" y="307.584" style="stroke: #000000; stroke-width: 0.6"/>
      </g>
     </g>
    </g>
    <g id="xtick_24">
     <g id="line2d_24">
      <g>
       <use xlink:href="#m3efb4713c8" x="309.342001" y="307.584" style="stroke: #000000; stroke-width: 0.6"/>
      </g>
     </g>
    </g>
    <g id="xtick_25">
     <g id="line2d_25">
      <g>
       <use xlink:href="#m3efb4713c8" x="327.364854" y="307.584" style="stroke: #000000; stroke-width: 0.6"/>
      </g>
     </g>
    </g>
    <g id="xtick_26">
     <g id="line2d_26">
      <g>
       <use xlink:href="#m3efb4713c8" x="340.152272" y="307.584" style="stroke: #000000; stroke-width: 0.6"/>
      </g>
     </g>
    </g>
    <g id="xtick_27">
     <g id="line2d_27">
      <g>
       <use xlink:href="#m3efb4713c8" x="350.070963" y="307.584" style="stroke: #000000; stroke-width: 0.6"/>
      </g>
     </g>
    </g>
    <g id="xtick_28">
     <g id="line2d_28">
      <g>
       <use xlink:href="#m3efb4713c8" x="358.175124" y="307.584" style="stroke: #000000; stroke-width: 0.6"/>
      </g>
     </g>
    </g>
    <g id="xtick_29">
     <g id="line2d_29">
      <g>
       <use xlink:href="#m3efb4713c8" x="365.027095" y="307.584" style="stroke: #000000; stroke-width: 0.6"/>
      </g>
     </g>
    </g>
    <g id="xtick_30">
     <g id="line2d_30">
      <g>
       <use xlink:href="#m3efb4713c8" x="370.962542" y="307.584" style="stroke: #000000; stroke-width: 0.6"/>
      </g>
     </g>
    </g>
    <g id="xtick_31">
     <g id="line2d_31">
      <g>
       <use xlink:href="#m3efb4713c8" x="376.197977" y="307.584" style="stroke: #000000; stroke-width: 0.6"/>
      </g>
     </g>
    </g>
    <g id="xtick_32">
     <g id="line2d_32">
      <g>
       <use xlink:href="#m3efb4713c8" x="411.691503" y="307.584" style="stroke: #000000; stroke-width: 0.6"/>
      </g>
     </g>
    </g>
    <g id="text_5">
     <!-- iter# -->
     <g transform="translate(223.488906 335.860562) scale(0.1 -0.1)">
      <defs>
       <path id="DejaVuSans-69" d="M 603 3500 
L 1178 3500 
L 1178 0 
L 603 0 
L 603 3500 
z
M 603 4863 
L 1178 4863 
L 1178 4134 
L 603 4134 
L 603 4863 
z
" transform="scale(0.015625)"/>
       <path id="DejaVuSans-74" d="M 1172 4494 
L 1172 3500 
L 2356 3500 
L 2356 3053 
L 1172 3053 
L 1172 1153 
Q 1172 725 1289 603 
Q 1406 481 1766 481 
L 2356 481 
L 2356 0 
L 1766 0 
Q 1100 0 847 248 
Q 594 497 594 1153 
L 594 3053 
L 172 3053 
L 172 3500 
L 594 3500 
L 594 4494 
L 1172 4494 
z
" transform="scale(0.015625)"/>
       <path id="DejaVuSans-65" d="M 3597 1894 
L 3597 1613 
L 953 1613 
Q 991 1019 1311 708 
Q 1631 397 2203 397 
Q 2534 397 2845 478 
Q 3156 559 3463 722 
L 3463 178 
Q 3153 47 2828 -22 
Q 2503 -91 2169 -91 
Q 1331 -91 842 396 
Q 353 884 353 1716 
Q 353 2575 817 3079 
Q 1281 3584 2069 3584 
Q 2775 3584 3186 3129 
Q 3597 2675 3597 1894 
z
M 3022 2063 
Q 3016 2534 2758 2815 
Q 2500 3097 2075 3097 
Q 1594 3097 1305 2825 
Q 1016 2553 972 2059 
L 3022 2063 
z
" transform="scale(0.015625)"/>
       <path id="DejaVuSans-72" d="M 2631 2963 
Q 2534 3019 2420 3045 
Q 2306 3072 2169 3072 
Q 1681 3072 1420 2755 
Q 1159 2438 1159 1844 
L 1159 0 
L 581 0 
L 581 3500 
L 1159 3500 
L 1159 2956 
Q 1341 3275 1631 3429 
Q 1922 3584 2338 3584 
Q 2397 3584 2469 3576 
Q 2541 3569 2628 3553 
L 2631 2963 
z
" transform="scale(0.015625)"/>
       <path id="DejaVuSans-23" d="M 3272 2816 
L 2363 2816 
L 2100 1772 
L 3016 1772 
L 3272 2816 
z
M 2803 4594 
L 2478 3297 
L 3391 3297 
L 3719 4594 
L 4219 4594 
L 3897 3297 
L 4872 3297 
L 4872 2816 
L 3775 2816 
L 3519 1772 
L 4513 1772 
L 4513 1294 
L 3397 1294 
L 3072 0 
L 2572 0 
L 2894 1294 
L 1978 1294 
L 1656 0 
L 1153 0 
L 1478 1294 
L 494 1294 
L 494 1772 
L 1594 1772 
L 1856 2816 
L 850 2816 
L 850 3297 
L 1978 3297 
L 2297 4594 
L 2803 4594 
z
" transform="scale(0.015625)"/>
      </defs>
      <use xlink:href="#DejaVuSans-69"/>
      <use xlink:href="#DejaVuSans-74" x="27.783203"/>
      <use xlink:href="#DejaVuSans-65" x="66.992188"/>
      <use xlink:href="#DejaVuSans-72" x="128.515625"/>
      <use xlink:href="#DejaVuSans-23" x="169.628906"/>
     </g>
    </g>
   </g>
   <g id="matplotlib.axis_2">
    <g id="ytick_1">
     <g id="line2d_33">
      <defs>
       <path id="m4924adf2e6" d="M 0 0 
L -3.5 0 
" style="stroke: #000000; stroke-width: 0.8"/>
      </defs>
      <g>
       <use xlink:href="#m4924adf2e6" x="57.6" y="287.464132" style="stroke: #000000; stroke-width: 0.8"/>
      </g>
     </g>
     <g id="text_6">
      <!-- $\mathdefault{10^{-2}}$ -->
      <g transform="translate(27.1 291.263351) scale(0.1 -0.1)">
       <defs>
        <path id="DejaVuSans-2212" d="M 678 2272 
L 4684 2272 
L 4684 1741 
L 678 1741 
L 678 2272 
z
" transform="scale(0.015625)"/>
       </defs>
       <use xlink:href="#DejaVuSans-31" transform="translate(0 0.765625)"/>
       <use xlink:href="#DejaVuSans-30" transform="translate(63.623047 0.765625)"/>
       <use xlink:href="#DejaVuSans-2212" transform="translate(128.203125 39.046875) scale(0.7)"/>
       <use xlink:href="#DejaVuSans-32" transform="translate(186.855469 39.046875) scale(0.7)"/>
      </g>
     </g>
    </g>
    <g id="ytick_2">
     <g id="line2d_34">
      <g>
       <use xlink:href="#m4924adf2e6" x="57.6" y="239.050734" style="stroke: #000000; stroke-width: 0.8"/>
      </g>
     </g>
     <g id="text_7">
      <!-- $\mathdefault{10^{-1}}$ -->
      <g transform="translate(27.1 242.849953) scale(0.1 -0.1)">
       <use xlink:href="#DejaVuSans-31" transform="translate(0 0.684375)"/>
       <use xlink:href="#DejaVuSans-30" transform="translate(63.623047 0.684375)"/>
       <use xlink:href="#DejaVuSans-2212" transform="translate(128.203125 38.965625) scale(0.7)"/>
       <use xlink:href="#DejaVuSans-31" transform="translate(186.855469 38.965625) scale(0.7)"/>
      </g>
     </g>
    </g>
    <g id="ytick_3">
     <g id="line2d_35">
      <g>
       <use xlink:href="#m4924adf2e6" x="57.6" y="190.637337" style="stroke: #000000; stroke-width: 0.8"/>
      </g>
     </g>
     <g id="text_8">
      <!-- $\mathdefault{10^{0}}$ -->
      <g transform="translate(33 194.436555) scale(0.1 -0.1)">
       <use xlink:href="#DejaVuSans-31" transform="translate(0 0.765625)"/>
       <use xlink:href="#DejaVuSans-30" transform="translate(63.623047 0.765625)"/>
       <use xlink:href="#DejaVuSans-30" transform="translate(128.203125 39.046875) scale(0.7)"/>
      </g>
     </g>
    </g>
    <g id="ytick_4">
     <g id="line2d_36">
      <g>
       <use xlink:href="#m4924adf2e6" x="57.6" y="142.223939" style="stroke: #000000; stroke-width: 0.8"/>
      </g>
     </g>
     <g id="text_9">
      <!-- $\mathdefault{10^{1}}$ -->
      <g transform="translate(33 146.023158) scale(0.1 -0.1)">
       <use xlink:href="#DejaVuSans-31" transform="translate(0 0.684375)"/>
       <use xlink:href="#DejaVuSans-30" transform="translate(63.623047 0.684375)"/>
       <use xlink:href="#DejaVuSans-31" transform="translate(128.203125 38.965625) scale(0.7)"/>
      </g>
     </g>
    </g>
    <g id="ytick_5">
     <g id="line2d_37">
      <g>
       <use xlink:href="#m4924adf2e6" x="57.6" y="93.810541" style="stroke: #000000; stroke-width: 0.8"/>
      </g>
     </g>
     <g id="text_10">
      <!-- $\mathdefault{10^{2}}$ -->
      <g transform="translate(33 97.60976) scale(0.1 -0.1)">
       <use xlink:href="#DejaVuSans-31" transform="translate(0 0.765625)"/>
       <use xlink:href="#DejaVuSans-30" transform="translate(63.623047 0.765625)"/>
       <use xlink:href="#DejaVuSans-32" transform="translate(128.203125 39.046875) scale(0.7)"/>
      </g>
     </g>
    </g>
    <g id="ytick_6">
     <g id="line2d_38">
      <g>
       <use xlink:href="#m4924adf2e6" x="57.6" y="45.397144" style="stroke: #000000; stroke-width: 0.8"/>
      </g>
     </g>
     <g id="text_11">
      <!-- $\mathdefault{10^{3}}$ -->
      <g transform="translate(33 49.196362) scale(0.1 -0.1)">
       <use xlink:href="#DejaVuSans-31" transform="translate(0 0.765625)"/>
       <use xlink:href="#DejaVuSans-30" transform="translate(63.623047 0.765625)"/>
       <use xlink:href="#DejaVuSans-33" transform="translate(128.203125 39.046875) scale(0.7)"/>
      </g>
     </g>
    </g>
    <g id="ytick_7">
     <g id="line2d_39">
      <defs>
       <path id="m1c9bda7239" d="M 0 0 
L -2 0 
" style="stroke: #000000; stroke-width: 0.6"/>
      </defs>
      <g>
       <use xlink:href="#m1c9bda7239" x="57.6" y="306.72976" style="stroke: #000000; stroke-width: 0.6"/>
      </g>
     </g>
    </g>
    <g id="ytick_8">
     <g id="line2d_40">
      <g>
       <use xlink:href="#m1c9bda7239" x="57.6" y="302.038017" style="stroke: #000000; stroke-width: 0.6"/>
      </g>
     </g>
    </g>
    <g id="ytick_9">
     <g id="line2d_41">
      <g>
       <use xlink:href="#m1c9bda7239" x="57.6" y="298.204584" style="stroke: #000000; stroke-width: 0.6"/>
      </g>
     </g>
    </g>
    <g id="ytick_10">
     <g id="line2d_42">
      <g>
       <use xlink:href="#m1c9bda7239" x="57.6" y="294.963462" style="stroke: #000000; stroke-width: 0.6"/>
      </g>
     </g>
    </g>
    <g id="ytick_11">
     <g id="line2d_43">
      <g>
       <use xlink:href="#m1c9bda7239" x="57.6" y="292.155875" style="stroke: #000000; stroke-width: 0.6"/>
      </g>
     </g>
    </g>
    <g id="ytick_12">
     <g id="line2d_44">
      <g>
       <use xlink:href="#m1c9bda7239" x="57.6" y="289.679408" style="stroke: #000000; stroke-width: 0.6"/>
      </g>
     </g>
    </g>
    <g id="ytick_13">
     <g id="line2d_45">
      <g>
       <use xlink:href="#m1c9bda7239" x="57.6" y="272.890247" style="stroke: #000000; stroke-width: 0.6"/>
      </g>
     </g>
    </g>
    <g id="ytick_14">
     <g id="line2d_46">
      <g>
       <use xlink:href="#m1c9bda7239" x="57.6" y="264.365071" style="stroke: #000000; stroke-width: 0.6"/>
      </g>
     </g>
    </g>
    <g id="ytick_15">
     <g id="line2d_47">
      <g>
       <use xlink:href="#m1c9bda7239" x="57.6" y="258.316362" style="stroke: #000000; stroke-width: 0.6"/>
      </g>
     </g>
    </g>
    <g id="ytick_16">
     <g id="line2d_48">
      <g>
       <use xlink:href="#m1c9bda7239" x="57.6" y="253.624619" style="stroke: #000000; stroke-width: 0.6"/>
      </g>
     </g>
    </g>
    <g id="ytick_17">
     <g id="line2d_49">
      <g>
       <use xlink:href="#m1c9bda7239" x="57.6" y="249.791186" style="stroke: #000000; stroke-width: 0.6"/>
      </g>
     </g>
    </g>
    <g id="ytick_18">
     <g id="line2d_50">
      <g>
       <use xlink:href="#m1c9bda7239" x="57.6" y="246.550065" style="stroke: #000000; stroke-width: 0.6"/>
      </g>
     </g>
    </g>
    <g id="ytick_19">
     <g id="line2d_51">
      <g>
       <use xlink:href="#m1c9bda7239" x="57.6" y="243.742477" style="stroke: #000000; stroke-width: 0.6"/>
      </g>
     </g>
    </g>
    <g id="ytick_20">
     <g id="line2d_52">
      <g>
       <use xlink:href="#m1c9bda7239" x="57.6" y="241.26601" style="stroke: #000000; stroke-width: 0.6"/>
      </g>
     </g>
    </g>
    <g id="ytick_21">
     <g id="line2d_53">
      <g>
       <use xlink:href="#m1c9bda7239" x="57.6" y="224.476849" style="stroke: #000000; stroke-width: 0.6"/>
      </g>
     </g>
    </g>
    <g id="ytick_22">
     <g id="line2d_54">
      <g>
       <use xlink:href="#m1c9bda7239" x="57.6" y="215.951673" style="stroke: #000000; stroke-width: 0.6"/>
      </g>
     </g>
    </g>
    <g id="ytick_23">
     <g id="line2d_55">
      <g>
       <use xlink:href="#m1c9bda7239" x="57.6" y="209.902965" style="stroke: #000000; stroke-width: 0.6"/>
      </g>
     </g>
    </g>
    <g id="ytick_24">
     <g id="line2d_56">
      <g>
       <use xlink:href="#m1c9bda7239" x="57.6" y="205.211222" style="stroke: #000000; stroke-width: 0.6"/>
      </g>
     </g>
    </g>
    <g id="ytick_25">
     <g id="line2d_57">
      <g>
       <use xlink:href="#m1c9bda7239" x="57.6" y="201.377788" style="stroke: #000000; stroke-width: 0.6"/>
      </g>
     </g>
    </g>
    <g id="ytick_26">
     <g id="line2d_58">
      <g>
       <use xlink:href="#m1c9bda7239" x="57.6" y="198.136667" style="stroke: #000000; stroke-width: 0.6"/>
      </g>
     </g>
    </g>
    <g id="ytick_27">
     <g id="line2d_59">
      <g>
       <use xlink:href="#m1c9bda7239" x="57.6" y="195.32908" style="stroke: #000000; stroke-width: 0.6"/>
      </g>
     </g>
    </g>
    <g id="ytick_28">
     <g id="line2d_60">
      <g>
       <use xlink:href="#m1c9bda7239" x="57.6" y="192.852612" style="stroke: #000000; stroke-width: 0.6"/>
      </g>
     </g>
    </g>
    <g id="ytick_29">
     <g id="line2d_61">
      <g>
       <use xlink:href="#m1c9bda7239" x="57.6" y="176.063452" style="stroke: #000000; stroke-width: 0.6"/>
      </g>
     </g>
    </g>
    <g id="ytick_30">
     <g id="line2d_62">
      <g>
       <use xlink:href="#m1c9bda7239" x="57.6" y="167.538276" style="stroke: #000000; stroke-width: 0.6"/>
      </g>
     </g>
    </g>
    <g id="ytick_31">
     <g id="line2d_63">
      <g>
       <use xlink:href="#m1c9bda7239" x="57.6" y="161.489567" style="stroke: #000000; stroke-width: 0.6"/>
      </g>
     </g>
    </g>
    <g id="ytick_32">
     <g id="line2d_64">
      <g>
       <use xlink:href="#m1c9bda7239" x="57.6" y="156.797824" style="stroke: #000000; stroke-width: 0.6"/>
      </g>
     </g>
    </g>
    <g id="ytick_33">
     <g id="line2d_65">
      <g>
       <use xlink:href="#m1c9bda7239" x="57.6" y="152.964391" style="stroke: #000000; stroke-width: 0.6"/>
      </g>
     </g>
    </g>
    <g id="ytick_34">
     <g id="line2d_66">
      <g>
       <use xlink:href="#m1c9bda7239" x="57.6" y="149.723269" style="stroke: #000000; stroke-width: 0.6"/>
      </g>
     </g>
    </g>
    <g id="ytick_35">
     <g id="line2d_67">
      <g>
       <use xlink:href="#m1c9bda7239" x="57.6" y="146.915682" style="stroke: #000000; stroke-width: 0.6"/>
      </g>
     </g>
    </g>
    <g id="ytick_36">
     <g id="line2d_68">
      <g>
       <use xlink:href="#m1c9bda7239" x="57.6" y="144.439215" style="stroke: #000000; stroke-width: 0.6"/>
      </g>
     </g>
    </g>
    <g id="ytick_37">
     <g id="line2d_69">
      <g>
       <use xlink:href="#m1c9bda7239" x="57.6" y="127.650054" style="stroke: #000000; stroke-width: 0.6"/>
      </g>
     </g>
    </g>
    <g id="ytick_38">
     <g id="line2d_70">
      <g>
       <use xlink:href="#m1c9bda7239" x="57.6" y="119.124878" style="stroke: #000000; stroke-width: 0.6"/>
      </g>
     </g>
    </g>
    <g id="ytick_39">
     <g id="line2d_71">
      <g>
       <use xlink:href="#m1c9bda7239" x="57.6" y="113.076169" style="stroke: #000000; stroke-width: 0.6"/>
      </g>
     </g>
    </g>
    <g id="ytick_40">
     <g id="line2d_72">
      <g>
       <use xlink:href="#m1c9bda7239" x="57.6" y="108.384426" style="stroke: #000000; stroke-width: 0.6"/>
      </g>
     </g>
    </g>
    <g id="ytick_41">
     <g id="line2d_73">
      <g>
       <use xlink:href="#m1c9bda7239" x="57.6" y="104.550993" style="stroke: #000000; stroke-width: 0.6"/>
      </g>
     </g>
    </g>
    <g id="ytick_42">
     <g id="line2d_74">
      <g>
       <use xlink:href="#m1c9bda7239" x="57.6" y="101.309872" style="stroke: #000000; stroke-width: 0.6"/>
      </g>
     </g>
    </g>
    <g id="ytick_43">
     <g id="line2d_75">
      <g>
       <use xlink:href="#m1c9bda7239" x="57.6" y="98.502284" style="stroke: #000000; stroke-width: 0.6"/>
      </g>
     </g>
    </g>
    <g id="ytick_44">
     <g id="line2d_76">
      <g>
       <use xlink:href="#m1c9bda7239" x="57.6" y="96.025817" style="stroke: #000000; stroke-width: 0.6"/>
      </g>
     </g>
    </g>
    <g id="ytick_45">
     <g id="line2d_77">
      <g>
       <use xlink:href="#m1c9bda7239" x="57.6" y="79.236657" style="stroke: #000000; stroke-width: 0.6"/>
      </g>
     </g>
    </g>
    <g id="ytick_46">
     <g id="line2d_78">
      <g>
       <use xlink:href="#m1c9bda7239" x="57.6" y="70.71148" style="stroke: #000000; stroke-width: 0.6"/>
      </g>
     </g>
    </g>
    <g id="ytick_47">
     <g id="line2d_79">
      <g>
       <use xlink:href="#m1c9bda7239" x="57.6" y="64.662772" style="stroke: #000000; stroke-width: 0.6"/>
      </g>
     </g>
    </g>
    <g id="ytick_48">
     <g id="line2d_80">
      <g>
       <use xlink:href="#m1c9bda7239" x="57.6" y="59.971029" style="stroke: #000000; stroke-width: 0.6"/>
      </g>
     </g>
    </g>
    <g id="ytick_49">
     <g id="line2d_81">
      <g>
       <use xlink:href="#m1c9bda7239" x="57.6" y="56.137595" style="stroke: #000000; stroke-width: 0.6"/>
      </g>
     </g>
    </g>
    <g id="ytick_50">
     <g id="line2d_82">
      <g>
       <use xlink:href="#m1c9bda7239" x="57.6" y="52.896474" style="stroke: #000000; stroke-width: 0.6"/>
      </g>
     </g>
    </g>
    <g id="ytick_51">
     <g id="line2d_83">
      <g>
       <use xlink:href="#m1c9bda7239" x="57.6" y="50.088887" style="stroke: #000000; stroke-width: 0.6"/>
      </g>
     </g>
    </g>
    <g id="ytick_52">
     <g id="line2d_84">
      <g>
       <use xlink:href="#m1c9bda7239" x="57.6" y="47.612419" style="stroke: #000000; stroke-width: 0.6"/>
      </g>
     </g>
    </g>
    <g id="text_12">
     <!-- loss -->
     <g transform="translate(21.020313 184.185812) rotate(-90) scale(0.1 -0.1)">
      <defs>
       <path id="DejaVuSans-6c" d="M 603 4863 
L 1178 4863 
L 1178 0 
L 603 0 
L 603 4863 
z
" transform="scale(0.015625)"/>
       <path id="DejaVuSans-6f" d="M 1959 3097 
Q 1497 3097 1228 2736 
Q 959 2375 959 1747 
Q 959 1119 1226 758 
Q 1494 397 1959 397 
Q 2419 397 2687 759 
Q 2956 1122 2956 1747 
Q 2956 2369 2687 2733 
Q 2419 3097 1959 3097 
z
M 1959 3584 
Q 2709 3584 3137 3096 
Q 3566 2609 3566 1747 
Q 3566 888 3137 398 
Q 2709 -91 1959 -91 
Q 1206 -91 779 398 
Q 353 888 353 1747 
Q 353 2609 779 3096 
Q 1206 3584 1959 3584 
z
" transform="scale(0.015625)"/>
       <path id="DejaVuSans-73" d="M 2834 3397 
L 2834 2853 
Q 2591 2978 2328 3040 
Q 2066 3103 1784 3103 
Q 1356 3103 1142 2972 
Q 928 2841 928 2578 
Q 928 2378 1081 2264 
Q 1234 2150 1697 2047 
L 1894 2003 
Q 2506 1872 2764 1633 
Q 3022 1394 3022 966 
Q 3022 478 2636 193 
Q 2250 -91 1575 -91 
Q 1294 -91 989 -36 
Q 684 19 347 128 
L 347 722 
Q 666 556 975 473 
Q 1284 391 1588 391 
Q 1994 391 2212 530 
Q 2431 669 2431 922 
Q 2431 1156 2273 1281 
Q 2116 1406 1581 1522 
L 1381 1569 
Q 847 1681 609 1914 
Q 372 2147 372 2553 
Q 372 3047 722 3315 
Q 1072 3584 1716 3584 
Q 2034 3584 2315 3537 
Q 2597 3491 2834 3397 
z
" transform="scale(0.015625)"/>
      </defs>
      <use xlink:href="#DejaVuSans-6c"/>
      <use xlink:href="#DejaVuSans-6f" x="27.783203"/>
      <use xlink:href="#DejaVuSans-73" x="88.964844"/>
      <use xlink:href="#DejaVuSans-73" x="141.064453"/>
     </g>
    </g>
   </g>
   <g id="line2d_85">
    <path d="M 73.832727 53.568 
L 104.642997 74.126236 
L 122.66585 88.686675 
L 135.453268 79.199661 
L 145.371959 79.17925 
L 153.47612 79.273707 
L 160.328091 79.455146 
L 166.263538 79.66552 
L 171.498973 79.860798 
L 176.182229 80.022593 
L 180.41875 80.178632 
L 184.28639 80.341058 
L 187.844275 80.522101 
L 191.138361 80.721413 
L 194.205082 80.929749 
L 197.073808 81.139028 
L 199.768562 81.342894 
L 202.309243 81.539496 
L 204.712522 81.730824 
L 206.992499 81.925145 
L 209.161214 82.12091 
L 211.22902 82.323229 
L 213.204893 82.530106 
L 215.096661 82.73945 
L 216.911191 82.949729 
L 218.654545 83.158918 
L 220.332096 83.366246 
L 221.948631 83.572185 
L 223.508434 83.776542 
L 225.015352 83.981271 
L 226.472854 84.18795 
L 227.884078 84.394129 
L 229.251873 84.602319 
L 230.578832 84.811769 
L 231.867323 85.021768 
L 233.119513 85.231724 
L 234.337393 85.441282 
L 235.522792 85.650246 
L 236.677397 85.858349 
L 238.900352 86.273783 
L 244.015163 87.320124 
L 247.721461 88.158176 
L 251.957982 89.205029 
L 256.560347 90.463169 
L 260.730574 91.717425 
L 264.542894 92.974306 
L 268.61304 94.438663 
L 272.84956 96.112295 
L 277.177825 97.992023 
L 281.539146 100.079167 
L 285.888819 102.371628 
L 289.850533 104.658192 
L 294.118367 107.36149 
L 298.581963 110.470087 
L 302.637951 113.562548 
L 306.827459 117.06101 
L 311.085355 120.950736 
L 315.360714 125.219572 
L 319.614877 129.857775 
L 323.819315 134.829315 
L 328.099579 140.321423 
L 332.269806 146.030305 
L 336.566597 152.299012 
L 340.814068 158.764272 
L 344.990831 165.231542 
L 349.263578 171.75992 
L 353.491868 177.690055 
L 357.728389 183.03394 
L 361.93769 187.065066 
L 366.155642 190.092777 
L 370.403417 192.173482 
L 374.639938 193.55104 
L 378.881108 194.401114 
L 383.09226 194.95775 
L 387.363371 195.792679 
L 391.575437 196.106178 
L 395.805604 196.62957 
" clip-path="url(#p3a6c3421e2)" style="fill: none; stroke-dasharray: 5.55,2.4; stroke-dashoffset: 0; stroke: #1f77b4; stroke-opacity: 0.4; stroke-width: 1.5"/>
   </g>
   <g id="line2d_86">
    <path d="M 73.832727 118.436158 
L 197.073808 190.326295 
L 226.472854 177.980353 
L 244.015163 195.332134 
L 256.560347 194.752388 
L 266.333062 194.979215 
L 274.339638 195.159187 
L 281.121774 195.328795 
L 287.004773 195.30242 
L 292.199372 195.267763 
L 296.849933 195.367803 
L 301.059684 195.368433 
L 304.905005 195.575328 
L 308.443995 195.528075 
L 311.721879 195.563544 
L 314.774554 195.426477 
L 317.630985 195.084294 
L 320.314888 195.344938 
L 322.845923 195.721954 
L 325.240567 195.120256 
L 327.512774 195.680439 
L 329.674455 194.906788 
L 331.735868 194.847629 
L 333.705902 195.778992 
L 335.592316 195.831994 
L 337.401921 195.704748 
L 339.140727 195.944253 
L 340.814068 196.042535 
L 342.426693 195.796641 
L 343.982855 195.912073 
L 345.486375 195.900388 
L 346.940697 195.193963 
L 348.34894 195.702158 
L 349.713934 195.940154 
L 351.038258 195.710165 
L 352.324263 196.123796 
L 353.574106 196.124232 
L 354.789765 196.252473 
L 355.97306 196.429184 
L 357.12567 196.319128 
L 358.249146 195.93648 
L 359.344924 196.035025 
L 360.414338 196.013875 
L 361.458626 196.584941 
L 362.478942 196.71745 
L 363.476362 196.647516 
L 364.451891 196.568144 
L 365.40647 196.455751 
L 366.340978 195.794579 
L 367.256244 196.335986 
L 368.153043 196.915715 
L 369.032105 197.041941 
L 369.89412 197.087616 
L 370.739735 197.141435 
L 371.569563 196.914534 
L 372.384182 197.228624 
L 373.184141 197.230608 
L 373.969957 197.272856 
L 374.742121 196.722435 
L 375.501101 197.200688 
L 376.247338 197.333553 
L 376.981254 197.29548 
L 377.703249 197.56875 
L 378.413703 197.145043 
L 379.112981 197.188979 
L 379.801427 197.563114 
L 380.479374 197.654506 
L 381.147135 197.738904 
L 381.805013 197.83368 
L 382.453297 197.418412 
L 383.09226 197.609971 
L 383.722169 197.865006 
L 384.343276 197.92065 
L 384.955824 197.988516 
L 385.560044 197.781755 
L 386.156162 198.075676 
L 386.74439 198.083974 
L 387.324936 198.179333 
L 387.897997 198.17317 
L 388.463764 198.038639 
L 389.02242 197.52114 
L 389.574142 198.253064 
L 390.1191 198.268891 
L 390.657457 198.362873 
L 391.189372 198.397465 
L 391.714997 198.114133 
L 392.234479 198.450032 
L 392.74796 198.464961 
L 393.255576 198.407789 
L 393.757462 197.956676 
L 394.253743 198.205838 
L 394.744545 198.560868 
L 395.229986 198.475437 
L 395.710184 198.496948 
L 396.185249 198.467685 
L 396.65529 198.600904 
L 397.120413 198.272399 
L 397.580719 198.452179 
L 398.036307 197.966989 
L 398.487273 198.567435 
" clip-path="url(#p3a6c3421e2)" style="fill: none; stroke: #1f77b4; stroke-opacity: 0.2; stroke-width: 1.5; stroke-linecap: square"/>
   </g>
   <g id="line2d_87">
    <path d="M 73.832727 118.436158 
L 197.073808 190.326295 
L 226.472854 190.326295 
L 244.015163 195.332134 
L 256.560347 195.332134 
L 266.333062 195.332134 
L 274.339638 195.332134 
L 281.121774 195.332134 
L 287.004773 195.332134 
L 292.199372 195.332134 
L 296.849933 195.367803 
L 301.059684 195.368433 
L 304.905005 195.575328 
L 308.443995 195.575328 
L 311.721879 195.575328 
L 314.774554 195.575328 
L 317.630985 195.575328 
L 320.314888 195.575328 
L 322.845923 195.721954 
L 325.240567 195.721954 
L 327.512774 195.721954 
L 329.674455 195.721954 
L 331.735868 195.721954 
L 333.705902 195.778992 
L 335.592316 195.831994 
L 337.401921 195.831994 
L 339.140727 195.944253 
L 340.814068 196.042535 
L 342.426693 196.042535 
L 343.982855 196.042535 
L 345.486375 196.042535 
L 346.940697 196.042535 
L 348.34894 196.042535 
L 349.713934 196.042535 
L 351.038258 196.042535 
L 352.324263 196.123796 
L 353.574106 196.124232 
L 354.789765 196.252473 
L 355.97306 196.429184 
L 357.12567 196.429184 
L 358.249146 196.429184 
L 359.344924 196.429184 
L 360.414338 196.429184 
L 361.458626 196.584941 
L 362.478942 196.71745 
L 363.476362 196.71745 
L 364.451891 196.71745 
L 365.40647 196.71745 
L 366.340978 196.71745 
L 367.256244 196.71745 
L 368.153043 196.915715 
L 369.032105 197.041941 
L 369.89412 197.087616 
L 370.739735 197.141435 
L 371.569563 197.141435 
L 372.384182 197.228624 
L 373.184141 197.230608 
L 373.969957 197.272856 
L 374.742121 197.272856 
L 375.501101 197.272856 
L 376.247338 197.333553 
L 376.981254 197.333553 
L 377.703249 197.56875 
L 378.413703 197.56875 
L 379.112981 197.56875 
L 379.801427 197.56875 
L 380.479374 197.654506 
L 381.147135 197.738904 
L 381.805013 197.83368 
L 382.453297 197.83368 
L 383.09226 197.83368 
L 383.722169 197.865006 
L 384.343276 197.92065 
L 384.955824 197.988516 
L 385.560044 197.988516 
L 386.156162 198.075676 
L 386.74439 198.083974 
L 387.324936 198.179333 
L 387.897997 198.179333 
L 388.463764 198.179333 
L 389.02242 198.179333 
L 389.574142 198.253064 
L 390.1191 198.268891 
L 390.657457 198.362873 
L 391.189372 198.397465 
L 391.714997 198.397465 
L 392.234479 198.450032 
L 392.74796 198.464961 
L 393.255576 198.464961 
L 393.757462 198.464961 
L 394.253743 198.464961 
L 394.744545 198.560868 
L 395.229986 198.560868 
L 395.710184 198.560868 
L 396.185249 198.560868 
L 396.65529 198.600904 
L 397.120413 198.600904 
L 397.580719 198.600904 
L 398.036307 198.600904 
L 398.487273 198.600904 
" clip-path="url(#p3a6c3421e2)" style="fill: none; stroke: #1f77b4; stroke-opacity: 0.9; stroke-linecap: square"/>
   </g>
   <g id="line2d_88">
    <path d="M 73.832727 181.984009 
L 104.642997 183.760607 
L 122.66585 190.113818 
L 135.453268 188.135194 
L 145.371959 188.122482 
L 153.47612 188.10839 
L 160.328091 188.056652 
L 166.263538 188.12476 
L 171.498973 188.186271 
L 176.182229 188.217066 
L 180.41875 188.193217 
L 184.28639 188.20904 
L 187.844275 188.238766 
L 191.138361 188.257657 
L 194.205082 188.201056 
L 197.073808 188.228039 
L 199.768562 188.261495 
L 202.309243 188.283686 
L 204.712522 188.26557 
L 206.992499 188.311365 
L 209.161214 188.396407 
L 211.22902 188.366301 
L 213.204893 188.387948 
L 215.096661 188.400491 
L 216.911191 188.454851 
L 218.654545 188.573046 
L 220.332096 188.616156 
L 221.948631 188.636304 
L 223.508434 188.702669 
L 225.015352 188.7278 
L 226.472854 188.698339 
L 227.884078 188.654515 
L 229.251873 188.731783 
L 230.578832 188.78451 
L 231.867323 188.833252 
L 233.119513 188.863671 
L 234.337393 188.909497 
L 235.522792 188.95223 
L 236.677397 188.957348 
L 238.900352 188.984619 
L 244.015163 189.202716 
L 247.721461 189.342149 
L 251.957982 189.436293 
L 256.560347 189.608468 
L 260.730574 189.550799 
L 264.542894 189.717676 
L 268.61304 189.773751 
L 272.84956 189.944431 
L 277.177825 190.068723 
L 281.539146 190.218446 
L 285.888819 190.418847 
L 289.850533 190.523002 
L 294.118367 191.049221 
L 298.581963 191.692693 
L 302.637951 192.076345 
L 306.827459 192.93097 
L 311.085355 193.798124 
L 315.360714 195.034687 
L 319.614877 196.43269 
L 323.819315 198.138286 
L 328.099579 199.74801 
L 332.269806 201.381372 
L 336.566597 203.746185 
L 340.814068 206.048383 
L 344.990831 207.991123 
L 349.263578 210.514319 
L 353.491868 212.647588 
L 357.728389 215.599877 
L 361.93769 217.919527 
L 366.155642 221.488287 
L 370.403417 226.295757 
L 374.639938 232.470017 
L 378.881108 240.924898 
L 383.09226 249.566353 
L 387.363371 261.857201 
L 391.575437 277.212327 
L 395.805604 295.488 
" clip-path="url(#p3a6c3421e2)" style="fill: none; stroke-dasharray: 5.55,2.4; stroke-dashoffset: 0; stroke: #ff7f0e; stroke-opacity: 0.4; stroke-width: 1.5"/>
   </g>
   <g id="line2d_89">
    <path d="M 73.832727 187.404774 
L 197.073808 194.876616 
L 226.472854 195.523022 
L 244.015163 195.502954 
L 256.560347 195.542646 
L 266.333062 194.943278 
L 274.339638 195.496102 
L 281.121774 195.848207 
L 287.004773 195.966975 
L 292.199372 196.77542 
L 296.849933 198.414767 
L 301.059684 198.141508 
L 304.905005 199.036843 
L 308.443995 198.496516 
L 311.721879 199.09687 
L 314.774554 200.433988 
L 317.630985 201.383571 
L 320.314888 202.182931 
L 322.845923 201.719331 
L 325.240567 201.545041 
L 327.512774 198.8471 
L 329.674455 201.277818 
L 331.735868 203.184181 
L 333.705902 204.000488 
L 335.592316 203.756087 
L 337.401921 204.296553 
L 339.140727 204.410028 
L 340.814068 204.713853 
L 342.426693 204.588391 
L 343.982855 203.789232 
L 345.486375 204.870164 
L 346.940697 205.100796 
L 348.34894 204.422634 
L 349.713934 204.603567 
L 351.038258 205.486733 
L 352.324263 205.326778 
L 353.574106 205.628276 
L 354.789765 205.25539 
L 355.97306 205.981723 
L 357.12567 205.597803 
L 358.249146 205.453109 
L 359.344924 204.205139 
L 360.414338 203.45582 
L 361.458626 205.728792 
L 362.478942 205.854369 
L 363.476362 206.176969 
L 364.451891 206.454407 
L 365.40647 205.189265 
L 366.340978 206.705565 
L 367.256244 206.614746 
L 368.153043 206.894877 
L 369.032105 206.72368 
L 369.89412 206.620106 
L 370.739735 207.117241 
L 371.569563 205.889263 
L 372.384182 207.214011 
L 373.184141 206.646681 
L 373.969957 207.014085 
L 374.742121 206.24238 
L 375.501101 207.204303 
L 376.247338 206.940834 
L 376.981254 206.283675 
L 377.703249 206.413505 
L 378.413703 207.091113 
L 379.112981 206.988025 
L 379.801427 205.457186 
L 380.479374 206.903301 
L 381.147135 207.176962 
L 381.805013 206.676998 
L 382.453297 207.065853 
L 383.09226 207.037935 
L 383.722169 207.248647 
L 384.343276 207.248822 
L 384.955824 207.251242 
L 385.560044 206.790502 
L 386.156162 206.833333 
L 386.74439 207.047337 
L 387.324936 207.079145 
L 387.897997 207.046299 
L 388.463764 207.084153 
L 389.02242 206.978298 
L 389.574142 206.840816 
L 390.1191 207.080605 
L 390.657457 206.889701 
L 391.189372 206.988058 
L 391.714997 207.050895 
L 392.234479 207.019185 
L 392.74796 206.937231 
L 393.255576 207.015474 
L 393.757462 206.890384 
L 394.253743 206.990233 
L 394.744545 207.00363 
L 395.229986 207.062038 
L 395.710184 206.934814 
L 396.185249 206.949866 
L 396.65529 207.000764 
L 397.120413 206.979389 
L 397.580719 206.873233 
L 398.036307 206.964142 
L 398.487273 206.945832 
" clip-path="url(#p3a6c3421e2)" style="fill: none; stroke: #ff7f0e; stroke-opacity: 0.2; stroke-width: 1.5; stroke-linecap: square"/>
   </g>
   <g id="line2d_90">
    <path d="M 73.832727 187.404774 
L 197.073808 194.876616 
L 226.472854 195.523022 
L 244.015163 195.523022 
L 256.560347 195.542646 
L 266.333062 195.542646 
L 274.339638 195.542646 
L 281.121774 195.848207 
L 287.004773 195.966975 
L 292.199372 196.77542 
L 296.849933 198.414767 
L 301.059684 198.414767 
L 304.905005 199.036843 
L 308.443995 199.036843 
L 311.721879 199.09687 
L 314.774554 200.433988 
L 317.630985 201.383571 
L 320.314888 202.182931 
L 322.845923 202.182931 
L 325.240567 202.182931 
L 327.512774 202.182931 
L 329.674455 202.182931 
L 331.735868 203.184181 
L 333.705902 204.000488 
L 335.592316 204.000488 
L 337.401921 204.296553 
L 339.140727 204.410028 
L 340.814068 204.713853 
L 342.426693 204.713853 
L 343.982855 204.713853 
L 345.486375 204.870164 
L 346.940697 205.100796 
L 348.34894 205.100796 
L 349.713934 205.100796 
L 351.038258 205.486733 
L 352.324263 205.486733 
L 353.574106 205.628276 
L 354.789765 205.628276 
L 355.97306 205.981723 
L 357.12567 205.981723 
L 358.249146 205.981723 
L 359.344924 205.981723 
L 360.414338 205.981723 
L 361.458626 205.981723 
L 362.478942 205.981723 
L 363.476362 206.176969 
L 364.451891 206.454407 
L 365.40647 206.454407 
L 366.340978 206.705565 
L 367.256244 206.705565 
L 368.153043 206.894877 
L 369.032105 206.894877 
L 369.89412 206.894877 
L 370.739735 207.117241 
L 371.569563 207.117241 
L 372.384182 207.214011 
L 373.184141 207.214011 
L 373.969957 207.214011 
L 374.742121 207.214011 
L 375.501101 207.214011 
L 376.247338 207.214011 
L 376.981254 207.214011 
L 377.703249 207.214011 
L 378.413703 207.214011 
L 379.112981 207.214011 
L 379.801427 207.214011 
L 380.479374 207.214011 
L 381.147135 207.214011 
L 381.805013 207.214011 
L 382.453297 207.214011 
L 383.09226 207.214011 
L 383.722169 207.248647 
L 384.343276 207.248822 
L 384.955824 207.251242 
L 385.560044 207.251242 
L 386.156162 207.251242 
L 386.74439 207.251242 
L 387.324936 207.251242 
L 387.897997 207.251242 
L 388.463764 207.251242 
L 389.02242 207.251242 
L 389.574142 207.251242 
L 390.1191 207.251242 
L 390.657457 207.251242 
L 391.189372 207.251242 
L 391.714997 207.251242 
L 392.234479 207.251242 
L 392.74796 207.251242 
L 393.255576 207.251242 
L 393.757462 207.251242 
L 394.253743 207.251242 
L 394.744545 207.251242 
L 395.229986 207.251242 
L 395.710184 207.251242 
L 396.185249 207.251242 
L 396.65529 207.251242 
L 397.120413 207.251242 
L 397.580719 207.251242 
L 398.036307 207.251242 
L 398.487273 207.251242 
" clip-path="url(#p3a6c3421e2)" style="fill: none; stroke: #ff7f0e; stroke-opacity: 0.9; stroke-linecap: square"/>
   </g>
   <g id="patch_3">
    <path d="M 57.6 307.584 
L 57.6 41.472 
" style="fill: none; stroke: #000000; stroke-width: 0.8; stroke-linejoin: miter; stroke-linecap: square"/>
   </g>
   <g id="patch_4">
    <path d="M 414.72 307.584 
L 414.72 41.472 
" style="fill: none; stroke: #000000; stroke-width: 0.8; stroke-linejoin: miter; stroke-linecap: square"/>
   </g>
   <g id="patch_5">
    <path d="M 57.6 307.584 
L 414.72 307.584 
" style="fill: none; stroke: #000000; stroke-width: 0.8; stroke-linejoin: miter; stroke-linecap: square"/>
   </g>
   <g id="patch_6">
    <path d="M 57.6 41.472 
L 414.72 41.472 
" style="fill: none; stroke: #000000; stroke-width: 0.8; stroke-linejoin: miter; stroke-linecap: square"/>
   </g>
   <g id="text_13">
    <!-- 2025-03-24-05:52:08 -->
    <g transform="translate(172.178438 35.472) scale(0.12 -0.12)">
     <defs>
      <path id="DejaVuSans-35" d="M 691 4666 
L 3169 4666 
L 3169 4134 
L 1269 4134 
L 1269 2991 
Q 1406 3038 1543 3061 
Q 1681 3084 1819 3084 
Q 2600 3084 3056 2656 
Q 3513 2228 3513 1497 
Q 3513 744 3044 326 
Q 2575 -91 1722 -91 
Q 1428 -91 1123 -41 
Q 819 9 494 109 
L 494 744 
Q 775 591 1075 516 
Q 1375 441 1709 441 
Q 2250 441 2565 725 
Q 2881 1009 2881 1497 
Q 2881 1984 2565 2268 
Q 2250 2553 1709 2553 
Q 1456 2553 1204 2497 
Q 953 2441 691 2322 
L 691 4666 
z
" transform="scale(0.015625)"/>
      <path id="DejaVuSans-2d" d="M 313 2009 
L 1997 2009 
L 1997 1497 
L 313 1497 
L 313 2009 
z
" transform="scale(0.015625)"/>
      <path id="DejaVuSans-34" d="M 2419 4116 
L 825 1625 
L 2419 1625 
L 2419 4116 
z
M 2253 4666 
L 3047 4666 
L 3047 1625 
L 3713 1625 
L 3713 1100 
L 3047 1100 
L 3047 0 
L 2419 0 
L 2419 1100 
L 313 1100 
L 313 1709 
L 2253 4666 
z
" transform="scale(0.015625)"/>
      <path id="DejaVuSans-3a" d="M 750 794 
L 1409 794 
L 1409 0 
L 750 0 
L 750 794 
z
M 750 3309 
L 1409 3309 
L 1409 2516 
L 750 2516 
L 750 3309 
z
" transform="scale(0.015625)"/>
      <path id="DejaVuSans-38" d="M 2034 2216 
Q 1584 2216 1326 1975 
Q 1069 1734 1069 1313 
Q 1069 891 1326 650 
Q 1584 409 2034 409 
Q 2484 409 2743 651 
Q 3003 894 3003 1313 
Q 3003 1734 2745 1975 
Q 2488 2216 2034 2216 
z
M 1403 2484 
Q 997 2584 770 2862 
Q 544 3141 544 3541 
Q 544 4100 942 4425 
Q 1341 4750 2034 4750 
Q 2731 4750 3128 4425 
Q 3525 4100 3525 3541 
Q 3525 3141 3298 2862 
Q 3072 2584 2669 2484 
Q 3125 2378 3379 2068 
Q 3634 1759 3634 1313 
Q 3634 634 3220 271 
Q 2806 -91 2034 -91 
Q 1263 -91 848 271 
Q 434 634 434 1313 
Q 434 1759 690 2068 
Q 947 2378 1403 2484 
z
M 1172 3481 
Q 1172 3119 1398 2916 
Q 1625 2713 2034 2713 
Q 2441 2713 2670 2916 
Q 2900 3119 2900 3481 
Q 2900 3844 2670 4047 
Q 2441 4250 2034 4250 
Q 1625 4250 1398 4047 
Q 1172 3844 1172 3481 
z
" transform="scale(0.015625)"/>
     </defs>
     <use xlink:href="#DejaVuSans-32"/>
     <use xlink:href="#DejaVuSans-30" x="63.623047"/>
     <use xlink:href="#DejaVuSans-32" x="127.246094"/>
     <use xlink:href="#DejaVuSans-35" x="190.869141"/>
     <use xlink:href="#DejaVuSans-2d" x="254.492188"/>
     <use xlink:href="#DejaVuSans-30" x="290.576172"/>
     <use xlink:href="#DejaVuSans-33" x="354.199219"/>
     <use xlink:href="#DejaVuSans-2d" x="417.822266"/>
     <use xlink:href="#DejaVuSans-32" x="453.90625"/>
     <use xlink:href="#DejaVuSans-34" x="517.529297"/>
     <use xlink:href="#DejaVuSans-2d" x="581.152344"/>
     <use xlink:href="#DejaVuSans-30" x="617.236328"/>
     <use xlink:href="#DejaVuSans-35" x="680.859375"/>
     <use xlink:href="#DejaVuSans-3a" x="744.482422"/>
     <use xlink:href="#DejaVuSans-35" x="778.173828"/>
     <use xlink:href="#DejaVuSans-32" x="841.796875"/>
     <use xlink:href="#DejaVuSans-3a" x="905.419922"/>
     <use xlink:href="#DejaVuSans-30" x="939.111328"/>
     <use xlink:href="#DejaVuSans-38" x="1002.734375"/>
    </g>
   </g>
   <g id="legend_1">
    <g id="patch_7">
     <path d="M 64.6 302.584 
L 180.810937 302.584 
Q 182.810937 302.584 182.810937 300.584 
L 182.810937 242.31525 
Q 182.810937 240.31525 180.810937 240.31525 
L 64.6 240.31525 
Q 62.6 240.31525 62.6 242.31525 
L 62.6 300.584 
Q 62.6 302.584 64.6 302.584 
z
" style="fill: #ffffff; opacity: 0.8; stroke: #cccccc; stroke-linejoin: miter"/>
    </g>
    <g id="line2d_91">
     <path d="M 66.6 248.413687 
L 76.6 248.413687 
L 86.6 248.413687 
" style="fill: none; stroke-dasharray: 5.55,2.4; stroke-dashoffset: 0; stroke: #1f77b4; stroke-opacity: 0.4; stroke-width: 1.5"/>
    </g>
    <g id="text_14">
     <!-- SchNet MEA -->
     <g transform="translate(94.6 251.913687) scale(0.1 -0.1)">
      <defs>
       <path id="DejaVuSans-53" d="M 3425 4513 
L 3425 3897 
Q 3066 4069 2747 4153 
Q 2428 4238 2131 4238 
Q 1616 4238 1336 4038 
Q 1056 3838 1056 3469 
Q 1056 3159 1242 3001 
Q 1428 2844 1947 2747 
L 2328 2669 
Q 3034 2534 3370 2195 
Q 3706 1856 3706 1288 
Q 3706 609 3251 259 
Q 2797 -91 1919 -91 
Q 1588 -91 1214 -16 
Q 841 59 441 206 
L 441 856 
Q 825 641 1194 531 
Q 1563 422 1919 422 
Q 2459 422 2753 634 
Q 3047 847 3047 1241 
Q 3047 1584 2836 1778 
Q 2625 1972 2144 2069 
L 1759 2144 
Q 1053 2284 737 2584 
Q 422 2884 422 3419 
Q 422 4038 858 4394 
Q 1294 4750 2059 4750 
Q 2388 4750 2728 4690 
Q 3069 4631 3425 4513 
z
" transform="scale(0.015625)"/>
       <path id="DejaVuSans-63" d="M 3122 3366 
L 3122 2828 
Q 2878 2963 2633 3030 
Q 2388 3097 2138 3097 
Q 1578 3097 1268 2742 
Q 959 2388 959 1747 
Q 959 1106 1268 751 
Q 1578 397 2138 397 
Q 2388 397 2633 464 
Q 2878 531 3122 666 
L 3122 134 
Q 2881 22 2623 -34 
Q 2366 -91 2075 -91 
Q 1284 -91 818 406 
Q 353 903 353 1747 
Q 353 2603 823 3093 
Q 1294 3584 2113 3584 
Q 2378 3584 2631 3529 
Q 2884 3475 3122 3366 
z
" transform="scale(0.015625)"/>
       <path id="DejaVuSans-68" d="M 3513 2113 
L 3513 0 
L 2938 0 
L 2938 2094 
Q 2938 2591 2744 2837 
Q 2550 3084 2163 3084 
Q 1697 3084 1428 2787 
Q 1159 2491 1159 1978 
L 1159 0 
L 581 0 
L 581 4863 
L 1159 4863 
L 1159 2956 
Q 1366 3272 1645 3428 
Q 1925 3584 2291 3584 
Q 2894 3584 3203 3211 
Q 3513 2838 3513 2113 
z
" transform="scale(0.015625)"/>
       <path id="DejaVuSans-4e" d="M 628 4666 
L 1478 4666 
L 3547 763 
L 3547 4666 
L 4159 4666 
L 4159 0 
L 3309 0 
L 1241 3903 
L 1241 0 
L 628 0 
L 628 4666 
z
" transform="scale(0.015625)"/>
       <path id="DejaVuSans-20" transform="scale(0.015625)"/>
       <path id="DejaVuSans-4d" d="M 628 4666 
L 1569 4666 
L 2759 1491 
L 3956 4666 
L 4897 4666 
L 4897 0 
L 4281 0 
L 4281 4097 
L 3078 897 
L 2444 897 
L 1241 4097 
L 1241 0 
L 628 0 
L 628 4666 
z
" transform="scale(0.015625)"/>
       <path id="DejaVuSans-45" d="M 628 4666 
L 3578 4666 
L 3578 4134 
L 1259 4134 
L 1259 2753 
L 3481 2753 
L 3481 2222 
L 1259 2222 
L 1259 531 
L 3634 531 
L 3634 0 
L 628 0 
L 628 4666 
z
" transform="scale(0.015625)"/>
       <path id="DejaVuSans-41" d="M 2188 4044 
L 1331 1722 
L 3047 1722 
L 2188 4044 
z
M 1831 4666 
L 2547 4666 
L 4325 0 
L 3669 0 
L 3244 1197 
L 1141 1197 
L 716 0 
L 50 0 
L 1831 4666 
z
" transform="scale(0.015625)"/>
      </defs>
      <use xlink:href="#DejaVuSans-53"/>
      <use xlink:href="#DejaVuSans-63" x="63.476562"/>
      <use xlink:href="#DejaVuSans-68" x="118.457031"/>
      <use xlink:href="#DejaVuSans-4e" x="181.835938"/>
      <use xlink:href="#DejaVuSans-65" x="256.640625"/>
      <use xlink:href="#DejaVuSans-74" x="318.164062"/>
      <use xlink:href="#DejaVuSans-20" x="357.373047"/>
      <use xlink:href="#DejaVuSans-4d" x="389.160156"/>
      <use xlink:href="#DejaVuSans-45" x="475.439453"/>
      <use xlink:href="#DejaVuSans-41" x="538.623047"/>
     </g>
    </g>
    <g id="line2d_92">
     <path d="M 66.6 263.091812 
L 76.6 263.091812 
L 86.6 263.091812 
" style="fill: none; stroke: #1f77b4; stroke-opacity: 0.9; stroke-linecap: square"/>
    </g>
    <g id="text_15">
     <!-- SchNet eval_loss -->
     <g transform="translate(94.6 266.591812) scale(0.1 -0.1)">
      <defs>
       <path id="DejaVuSans-76" d="M 191 3500 
L 800 3500 
L 1894 563 
L 2988 3500 
L 3597 3500 
L 2284 0 
L 1503 0 
L 191 3500 
z
" transform="scale(0.015625)"/>
       <path id="DejaVuSans-61" d="M 2194 1759 
Q 1497 1759 1228 1600 
Q 959 1441 959 1056 
Q 959 750 1161 570 
Q 1363 391 1709 391 
Q 2188 391 2477 730 
Q 2766 1069 2766 1631 
L 2766 1759 
L 2194 1759 
z
M 3341 1997 
L 3341 0 
L 2766 0 
L 2766 531 
Q 2569 213 2275 61 
Q 1981 -91 1556 -91 
Q 1019 -91 701 211 
Q 384 513 384 1019 
Q 384 1609 779 1909 
Q 1175 2209 1959 2209 
L 2766 2209 
L 2766 2266 
Q 2766 2663 2505 2880 
Q 2244 3097 1772 3097 
Q 1472 3097 1187 3025 
Q 903 2953 641 2809 
L 641 3341 
Q 956 3463 1253 3523 
Q 1550 3584 1831 3584 
Q 2591 3584 2966 3190 
Q 3341 2797 3341 1997 
z
" transform="scale(0.015625)"/>
       <path id="DejaVuSans-5f" d="M 3263 -1063 
L 3263 -1509 
L -63 -1509 
L -63 -1063 
L 3263 -1063 
z
" transform="scale(0.015625)"/>
      </defs>
      <use xlink:href="#DejaVuSans-53"/>
      <use xlink:href="#DejaVuSans-63" x="63.476562"/>
      <use xlink:href="#DejaVuSans-68" x="118.457031"/>
      <use xlink:href="#DejaVuSans-4e" x="181.835938"/>
      <use xlink:href="#DejaVuSans-65" x="256.640625"/>
      <use xlink:href="#DejaVuSans-74" x="318.164062"/>
      <use xlink:href="#DejaVuSans-20" x="357.373047"/>
      <use xlink:href="#DejaVuSans-65" x="389.160156"/>
      <use xlink:href="#DejaVuSans-76" x="450.683594"/>
      <use xlink:href="#DejaVuSans-61" x="509.863281"/>
      <use xlink:href="#DejaVuSans-6c" x="571.142578"/>
      <use xlink:href="#DejaVuSans-5f" x="598.925781"/>
      <use xlink:href="#DejaVuSans-6c" x="648.925781"/>
      <use xlink:href="#DejaVuSans-6f" x="676.708984"/>
      <use xlink:href="#DejaVuSans-73" x="737.890625"/>
      <use xlink:href="#DejaVuSans-73" x="789.990234"/>
     </g>
    </g>
    <g id="line2d_93">
     <path d="M 66.6 278.048063 
L 76.6 278.048063 
L 86.6 278.048063 
" style="fill: none; stroke-dasharray: 5.55,2.4; stroke-dashoffset: 0; stroke: #ff7f0e; stroke-opacity: 0.4; stroke-width: 1.5"/>
    </g>
    <g id="text_16">
     <!-- M307B MEA -->
     <g transform="translate(94.6 281.548063) scale(0.1 -0.1)">
      <defs>
       <path id="DejaVuSans-37" d="M 525 4666 
L 3525 4666 
L 3525 4397 
L 1831 0 
L 1172 0 
L 2766 4134 
L 525 4134 
L 525 4666 
z
" transform="scale(0.015625)"/>
       <path id="DejaVuSans-42" d="M 1259 2228 
L 1259 519 
L 2272 519 
Q 2781 519 3026 730 
Q 3272 941 3272 1375 
Q 3272 1813 3026 2020 
Q 2781 2228 2272 2228 
L 1259 2228 
z
M 1259 4147 
L 1259 2741 
L 2194 2741 
Q 2656 2741 2882 2914 
Q 3109 3088 3109 3444 
Q 3109 3797 2882 3972 
Q 2656 4147 2194 4147 
L 1259 4147 
z
M 628 4666 
L 2241 4666 
Q 2963 4666 3353 4366 
Q 3744 4066 3744 3513 
Q 3744 3084 3544 2831 
Q 3344 2578 2956 2516 
Q 3422 2416 3680 2098 
Q 3938 1781 3938 1306 
Q 3938 681 3513 340 
Q 3088 0 2303 0 
L 628 0 
L 628 4666 
z
" transform="scale(0.015625)"/>
      </defs>
      <use xlink:href="#DejaVuSans-4d"/>
      <use xlink:href="#DejaVuSans-33" x="86.279297"/>
      <use xlink:href="#DejaVuSans-30" x="149.902344"/>
      <use xlink:href="#DejaVuSans-37" x="213.525391"/>
      <use xlink:href="#DejaVuSans-42" x="277.148438"/>
      <use xlink:href="#DejaVuSans-20" x="345.751953"/>
      <use xlink:href="#DejaVuSans-4d" x="377.539062"/>
      <use xlink:href="#DejaVuSans-45" x="463.818359"/>
      <use xlink:href="#DejaVuSans-41" x="527.001953"/>
     </g>
    </g>
    <g id="line2d_94">
     <path d="M 66.6 292.726187 
L 76.6 292.726187 
L 86.6 292.726187 
" style="fill: none; stroke: #ff7f0e; stroke-opacity: 0.9; stroke-linecap: square"/>
    </g>
    <g id="text_17">
     <!-- M307B eval_loss -->
     <g transform="translate(94.6 296.226187) scale(0.1 -0.1)">
      <use xlink:href="#DejaVuSans-4d"/>
      <use xlink:href="#DejaVuSans-33" x="86.279297"/>
      <use xlink:href="#DejaVuSans-30" x="149.902344"/>
      <use xlink:href="#DejaVuSans-37" x="213.525391"/>
      <use xlink:href="#DejaVuSans-42" x="277.148438"/>
      <use xlink:href="#DejaVuSans-20" x="345.751953"/>
      <use xlink:href="#DejaVuSans-65" x="377.539062"/>
      <use xlink:href="#DejaVuSans-76" x="439.0625"/>
      <use xlink:href="#DejaVuSans-61" x="498.242188"/>
      <use xlink:href="#DejaVuSans-6c" x="559.521484"/>
      <use xlink:href="#DejaVuSans-5f" x="587.304688"/>
      <use xlink:href="#DejaVuSans-6c" x="637.304688"/>
      <use xlink:href="#DejaVuSans-6f" x="665.087891"/>
      <use xlink:href="#DejaVuSans-73" x="726.269531"/>
      <use xlink:href="#DejaVuSans-73" x="778.369141"/>
     </g>
    </g>
   </g>
  </g>
 </g>
 <defs>
  <clipPath id="p3a6c3421e2">
   <rect x="57.6" y="41.472" width="357.12" height="266.112"/>
  </clipPath>
 </defs>
</svg>
