<?xml version="1.0" encoding="utf-8" standalone="no"?>
<!DOCTYPE svg PUBLIC "-//W3C//DTD SVG 1.1//EN"
  "http://www.w3.org/Graphics/SVG/1.1/DTD/svg11.dtd">
<svg xmlns:xlink="http://www.w3.org/1999/xlink" width="460.8pt" height="345.6pt" viewBox="0 0 460.8 345.6" xmlns="http://www.w3.org/2000/svg" version="1.1">
 <metadata>
  <rdf:RDF xmlns:dc="http://purl.org/dc/elements/1.1/" xmlns:cc="http://creativecommons.org/ns#" xmlns:rdf="http://www.w3.org/1999/02/22-rdf-syntax-ns#">
   <cc:Work>
    <dc:type rdf:resource="http://purl.org/dc/dcmitype/StillImage"/>
    <dc:date>2025-02-18T14:50:51.039268</dc:date>
    <dc:format>image/svg+xml</dc:format>
    <dc:creator>
     <cc:Agent>
      <dc:title>Matplotlib v3.8.4, https://matplotlib.org/</dc:title>
     </cc:Agent>
    </dc:creator>
   </cc:Work>
  </rdf:RDF>
 </metadata>
 <defs>
  <style type="text/css">*{stroke-linejoin: round; stroke-linecap: butt}</style>
 </defs>
 <g id="figure_1">
  <g id="patch_1">
   <path d="M 0 345.6 
L 460.8 345.6 
L 460.8 0 
L 0 0 
z
" style="fill: #ffffff"/>
  </g>
  <g id="axes_1">
   <g id="patch_2">
    <path d="M 57.6 307.584 
L 414.72 307.584 
L 414.72 41.472 
L 57.6 41.472 
z
" style="fill: #ffffff"/>
   </g>
   <g id="matplotlib.axis_1">
    <g id="xtick_1">
     <g id="line2d_1">
      <defs>
       <path id="mb3eb4157ff" d="M 0 0 
L 0 3.5 
" style="stroke: #000000; stroke-width: 0.8"/>
      </defs>
      <g>
       <use xlink:href="#mb3eb4157ff" x="57.6" y="307.584" style="stroke: #000000; stroke-width: 0.8"/>
      </g>
     </g>
     <g id="text_1">
      <!-- $\mathdefault{10^{1}}$ -->
      <g transform="translate(48.8 322.182437) scale(0.1 -0.1)">
       <defs>
        <path id="DejaVuSans-31" d="M 794 531 
L 1825 531 
L 1825 4091 
L 703 3866 
L 703 4441 
L 1819 4666 
L 2450 4666 
L 2450 531 
L 3481 531 
L 3481 0 
L 794 0 
L 794 531 
z
" transform="scale(0.015625)"/>
        <path id="DejaVuSans-30" d="M 2034 4250 
Q 1547 4250 1301 3770 
Q 1056 3291 1056 2328 
Q 1056 1369 1301 889 
Q 1547 409 2034 409 
Q 2525 409 2770 889 
Q 3016 1369 3016 2328 
Q 3016 3291 2770 3770 
Q 2525 4250 2034 4250 
z
M 2034 4750 
Q 2819 4750 3233 4129 
Q 3647 3509 3647 2328 
Q 3647 1150 3233 529 
Q 2819 -91 2034 -91 
Q 1250 -91 836 529 
Q 422 1150 422 2328 
Q 422 3509 836 4129 
Q 1250 4750 2034 4750 
z
" transform="scale(0.015625)"/>
       </defs>
       <use xlink:href="#DejaVuSans-31" transform="translate(0 0.684375)"/>
       <use xlink:href="#DejaVuSans-30" transform="translate(63.623047 0.684375)"/>
       <use xlink:href="#DejaVuSans-31" transform="translate(128.203125 38.965625) scale(0.7)"/>
      </g>
     </g>
    </g>
    <g id="xtick_2">
     <g id="line2d_2">
      <g>
       <use xlink:href="#mb3eb4157ff" x="165.784415" y="307.584" style="stroke: #000000; stroke-width: 0.8"/>
      </g>
     </g>
     <g id="text_2">
      <!-- $\mathdefault{10^{2}}$ -->
      <g transform="translate(156.984415 322.182437) scale(0.1 -0.1)">
       <defs>
        <path id="DejaVuSans-32" d="M 1228 531 
L 3431 531 
L 3431 0 
L 469 0 
L 469 531 
Q 828 903 1448 1529 
Q 2069 2156 2228 2338 
Q 2531 2678 2651 2914 
Q 2772 3150 2772 3378 
Q 2772 3750 2511 3984 
Q 2250 4219 1831 4219 
Q 1534 4219 1204 4116 
Q 875 4013 500 3803 
L 500 4441 
Q 881 4594 1212 4672 
Q 1544 4750 1819 4750 
Q 2544 4750 2975 4387 
Q 3406 4025 3406 3419 
Q 3406 3131 3298 2873 
Q 3191 2616 2906 2266 
Q 2828 2175 2409 1742 
Q 1991 1309 1228 531 
z
" transform="scale(0.015625)"/>
       </defs>
       <use xlink:href="#DejaVuSans-31" transform="translate(0 0.765625)"/>
       <use xlink:href="#DejaVuSans-30" transform="translate(63.623047 0.765625)"/>
       <use xlink:href="#DejaVuSans-32" transform="translate(128.203125 39.046875) scale(0.7)"/>
      </g>
     </g>
    </g>
    <g id="xtick_3">
     <g id="line2d_3">
      <g>
       <use xlink:href="#mb3eb4157ff" x="273.968831" y="307.584" style="stroke: #000000; stroke-width: 0.8"/>
      </g>
     </g>
     <g id="text_3">
      <!-- $\mathdefault{10^{3}}$ -->
      <g transform="translate(265.168831 322.182437) scale(0.1 -0.1)">
       <defs>
        <path id="DejaVuSans-33" d="M 2597 2516 
Q 3050 2419 3304 2112 
Q 3559 1806 3559 1356 
Q 3559 666 3084 287 
Q 2609 -91 1734 -91 
Q 1441 -91 1130 -33 
Q 819 25 488 141 
L 488 750 
Q 750 597 1062 519 
Q 1375 441 1716 441 
Q 2309 441 2620 675 
Q 2931 909 2931 1356 
Q 2931 1769 2642 2001 
Q 2353 2234 1838 2234 
L 1294 2234 
L 1294 2753 
L 1863 2753 
Q 2328 2753 2575 2939 
Q 2822 3125 2822 3475 
Q 2822 3834 2567 4026 
Q 2313 4219 1838 4219 
Q 1578 4219 1281 4162 
Q 984 4106 628 3988 
L 628 4550 
Q 988 4650 1302 4700 
Q 1616 4750 1894 4750 
Q 2613 4750 3031 4423 
Q 3450 4097 3450 3541 
Q 3450 3153 3228 2886 
Q 3006 2619 2597 2516 
z
" transform="scale(0.015625)"/>
       </defs>
       <use xlink:href="#DejaVuSans-31" transform="translate(0 0.765625)"/>
       <use xlink:href="#DejaVuSans-30" transform="translate(63.623047 0.765625)"/>
       <use xlink:href="#DejaVuSans-33" transform="translate(128.203125 39.046875) scale(0.7)"/>
      </g>
     </g>
    </g>
    <g id="xtick_4">
     <g id="line2d_4">
      <g>
       <use xlink:href="#mb3eb4157ff" x="382.153246" y="307.584" style="stroke: #000000; stroke-width: 0.8"/>
      </g>
     </g>
     <g id="text_4">
      <!-- $\mathdefault{10^{4}}$ -->
      <g transform="translate(373.353246 322.182437) scale(0.1 -0.1)">
       <defs>
        <path id="DejaVuSans-34" d="M 2419 4116 
L 825 1625 
L 2419 1625 
L 2419 4116 
z
M 2253 4666 
L 3047 4666 
L 3047 1625 
L 3713 1625 
L 3713 1100 
L 3047 1100 
L 3047 0 
L 2419 0 
L 2419 1100 
L 313 1100 
L 313 1709 
L 2253 4666 
z
" transform="scale(0.015625)"/>
       </defs>
       <use xlink:href="#DejaVuSans-31" transform="translate(0 0.684375)"/>
       <use xlink:href="#DejaVuSans-30" transform="translate(63.623047 0.684375)"/>
       <use xlink:href="#DejaVuSans-34" transform="translate(128.203125 38.965625) scale(0.7)"/>
      </g>
     </g>
    </g>
    <g id="xtick_5">
     <g id="line2d_5">
      <defs>
       <path id="m970001438c" d="M 0 0 
L 0 2 
" style="stroke: #000000; stroke-width: 0.6"/>
      </defs>
      <g>
       <use xlink:href="#m970001438c" x="90.166754" y="307.584" style="stroke: #000000; stroke-width: 0.6"/>
      </g>
     </g>
    </g>
    <g id="xtick_6">
     <g id="line2d_6">
      <g>
       <use xlink:href="#m970001438c" x="109.217084" y="307.584" style="stroke: #000000; stroke-width: 0.6"/>
      </g>
     </g>
    </g>
    <g id="xtick_7">
     <g id="line2d_7">
      <g>
       <use xlink:href="#m970001438c" x="122.733508" y="307.584" style="stroke: #000000; stroke-width: 0.6"/>
      </g>
     </g>
    </g>
    <g id="xtick_8">
     <g id="line2d_8">
      <g>
       <use xlink:href="#m970001438c" x="133.217661" y="307.584" style="stroke: #000000; stroke-width: 0.6"/>
      </g>
     </g>
    </g>
    <g id="xtick_9">
     <g id="line2d_9">
      <g>
       <use xlink:href="#m970001438c" x="141.783838" y="307.584" style="stroke: #000000; stroke-width: 0.6"/>
      </g>
     </g>
    </g>
    <g id="xtick_10">
     <g id="line2d_10">
      <g>
       <use xlink:href="#m970001438c" x="149.026437" y="307.584" style="stroke: #000000; stroke-width: 0.6"/>
      </g>
     </g>
    </g>
    <g id="xtick_11">
     <g id="line2d_11">
      <g>
       <use xlink:href="#m970001438c" x="155.300262" y="307.584" style="stroke: #000000; stroke-width: 0.6"/>
      </g>
     </g>
    </g>
    <g id="xtick_12">
     <g id="line2d_12">
      <g>
       <use xlink:href="#m970001438c" x="160.834168" y="307.584" style="stroke: #000000; stroke-width: 0.6"/>
      </g>
     </g>
    </g>
    <g id="xtick_13">
     <g id="line2d_13">
      <g>
       <use xlink:href="#m970001438c" x="198.351169" y="307.584" style="stroke: #000000; stroke-width: 0.6"/>
      </g>
     </g>
    </g>
    <g id="xtick_14">
     <g id="line2d_14">
      <g>
       <use xlink:href="#m970001438c" x="217.401499" y="307.584" style="stroke: #000000; stroke-width: 0.6"/>
      </g>
     </g>
    </g>
    <g id="xtick_15">
     <g id="line2d_15">
      <g>
       <use xlink:href="#m970001438c" x="230.917923" y="307.584" style="stroke: #000000; stroke-width: 0.6"/>
      </g>
     </g>
    </g>
    <g id="xtick_16">
     <g id="line2d_16">
      <g>
       <use xlink:href="#m970001438c" x="241.402077" y="307.584" style="stroke: #000000; stroke-width: 0.6"/>
      </g>
     </g>
    </g>
    <g id="xtick_17">
     <g id="line2d_17">
      <g>
       <use xlink:href="#m970001438c" x="249.968253" y="307.584" style="stroke: #000000; stroke-width: 0.6"/>
      </g>
     </g>
    </g>
    <g id="xtick_18">
     <g id="line2d_18">
      <g>
       <use xlink:href="#m970001438c" x="257.210853" y="307.584" style="stroke: #000000; stroke-width: 0.6"/>
      </g>
     </g>
    </g>
    <g id="xtick_19">
     <g id="line2d_19">
      <g>
       <use xlink:href="#m970001438c" x="263.484678" y="307.584" style="stroke: #000000; stroke-width: 0.6"/>
      </g>
     </g>
    </g>
    <g id="xtick_20">
     <g id="line2d_20">
      <g>
       <use xlink:href="#m970001438c" x="269.018583" y="307.584" style="stroke: #000000; stroke-width: 0.6"/>
      </g>
     </g>
    </g>
    <g id="xtick_21">
     <g id="line2d_21">
      <g>
       <use xlink:href="#m970001438c" x="306.535585" y="307.584" style="stroke: #000000; stroke-width: 0.6"/>
      </g>
     </g>
    </g>
    <g id="xtick_22">
     <g id="line2d_22">
      <g>
       <use xlink:href="#m970001438c" x="325.585915" y="307.584" style="stroke: #000000; stroke-width: 0.6"/>
      </g>
     </g>
    </g>
    <g id="xtick_23">
     <g id="line2d_23">
      <g>
       <use xlink:href="#m970001438c" x="339.102339" y="307.584" style="stroke: #000000; stroke-width: 0.6"/>
      </g>
     </g>
    </g>
    <g id="xtick_24">
     <g id="line2d_24">
      <g>
       <use xlink:href="#m970001438c" x="349.586492" y="307.584" style="stroke: #000000; stroke-width: 0.6"/>
      </g>
     </g>
    </g>
    <g id="xtick_25">
     <g id="line2d_25">
      <g>
       <use xlink:href="#m970001438c" x="358.152669" y="307.584" style="stroke: #000000; stroke-width: 0.6"/>
      </g>
     </g>
    </g>
    <g id="xtick_26">
     <g id="line2d_26">
      <g>
       <use xlink:href="#m970001438c" x="365.395268" y="307.584" style="stroke: #000000; stroke-width: 0.6"/>
      </g>
     </g>
    </g>
    <g id="xtick_27">
     <g id="line2d_27">
      <g>
       <use xlink:href="#m970001438c" x="371.669093" y="307.584" style="stroke: #000000; stroke-width: 0.6"/>
      </g>
     </g>
    </g>
    <g id="xtick_28">
     <g id="line2d_28">
      <g>
       <use xlink:href="#m970001438c" x="377.202999" y="307.584" style="stroke: #000000; stroke-width: 0.6"/>
      </g>
     </g>
    </g>
    <g id="xtick_29">
     <g id="line2d_29">
      <g>
       <use xlink:href="#m970001438c" x="414.72" y="307.584" style="stroke: #000000; stroke-width: 0.6"/>
      </g>
     </g>
    </g>
    <g id="text_5">
     <!-- iter# -->
     <g transform="translate(223.488906 335.860562) scale(0.1 -0.1)">
      <defs>
       <path id="DejaVuSans-69" d="M 603 3500 
L 1178 3500 
L 1178 0 
L 603 0 
L 603 3500 
z
M 603 4863 
L 1178 4863 
L 1178 4134 
L 603 4134 
L 603 4863 
z
" transform="scale(0.015625)"/>
       <path id="DejaVuSans-74" d="M 1172 4494 
L 1172 3500 
L 2356 3500 
L 2356 3053 
L 1172 3053 
L 1172 1153 
Q 1172 725 1289 603 
Q 1406 481 1766 481 
L 2356 481 
L 2356 0 
L 1766 0 
Q 1100 0 847 248 
Q 594 497 594 1153 
L 594 3053 
L 172 3053 
L 172 3500 
L 594 3500 
L 594 4494 
L 1172 4494 
z
" transform="scale(0.015625)"/>
       <path id="DejaVuSans-65" d="M 3597 1894 
L 3597 1613 
L 953 1613 
Q 991 1019 1311 708 
Q 1631 397 2203 397 
Q 2534 397 2845 478 
Q 3156 559 3463 722 
L 3463 178 
Q 3153 47 2828 -22 
Q 2503 -91 2169 -91 
Q 1331 -91 842 396 
Q 353 884 353 1716 
Q 353 2575 817 3079 
Q 1281 3584 2069 3584 
Q 2775 3584 3186 3129 
Q 3597 2675 3597 1894 
z
M 3022 2063 
Q 3016 2534 2758 2815 
Q 2500 3097 2075 3097 
Q 1594 3097 1305 2825 
Q 1016 2553 972 2059 
L 3022 2063 
z
" transform="scale(0.015625)"/>
       <path id="DejaVuSans-72" d="M 2631 2963 
Q 2534 3019 2420 3045 
Q 2306 3072 2169 3072 
Q 1681 3072 1420 2755 
Q 1159 2438 1159 1844 
L 1159 0 
L 581 0 
L 581 3500 
L 1159 3500 
L 1159 2956 
Q 1341 3275 1631 3429 
Q 1922 3584 2338 3584 
Q 2397 3584 2469 3576 
Q 2541 3569 2628 3553 
L 2631 2963 
z
" transform="scale(0.015625)"/>
       <path id="DejaVuSans-23" d="M 3272 2816 
L 2363 2816 
L 2100 1772 
L 3016 1772 
L 3272 2816 
z
M 2803 4594 
L 2478 3297 
L 3391 3297 
L 3719 4594 
L 4219 4594 
L 3897 3297 
L 4872 3297 
L 4872 2816 
L 3775 2816 
L 3519 1772 
L 4513 1772 
L 4513 1294 
L 3397 1294 
L 3072 0 
L 2572 0 
L 2894 1294 
L 1978 1294 
L 1656 0 
L 1153 0 
L 1478 1294 
L 494 1294 
L 494 1772 
L 1594 1772 
L 1856 2816 
L 850 2816 
L 850 3297 
L 1978 3297 
L 2297 4594 
L 2803 4594 
z
" transform="scale(0.015625)"/>
      </defs>
      <use xlink:href="#DejaVuSans-69"/>
      <use xlink:href="#DejaVuSans-74" x="27.783203"/>
      <use xlink:href="#DejaVuSans-65" x="66.992188"/>
      <use xlink:href="#DejaVuSans-72" x="128.515625"/>
      <use xlink:href="#DejaVuSans-23" x="169.628906"/>
     </g>
    </g>
   </g>
   <g id="matplotlib.axis_2">
    <g id="ytick_1">
     <g id="line2d_30">
      <defs>
       <path id="mb066b33317" d="M 0 0 
L -3.5 0 
" style="stroke: #000000; stroke-width: 0.8"/>
      </defs>
      <g>
       <use xlink:href="#mb066b33317" x="57.6" y="245.254111" style="stroke: #000000; stroke-width: 0.8"/>
      </g>
     </g>
     <g id="text_6">
      <!-- $\mathdefault{10^{-2}}$ -->
      <g transform="translate(27.1 249.05333) scale(0.1 -0.1)">
       <defs>
        <path id="DejaVuSans-2212" d="M 678 2272 
L 4684 2272 
L 4684 1741 
L 678 1741 
L 678 2272 
z
" transform="scale(0.015625)"/>
       </defs>
       <use xlink:href="#DejaVuSans-31" transform="translate(0 0.765625)"/>
       <use xlink:href="#DejaVuSans-30" transform="translate(63.623047 0.765625)"/>
       <use xlink:href="#DejaVuSans-2212" transform="translate(128.203125 39.046875) scale(0.7)"/>
       <use xlink:href="#DejaVuSans-32" transform="translate(186.855469 39.046875) scale(0.7)"/>
      </g>
     </g>
    </g>
    <g id="ytick_2">
     <g id="line2d_31">
      <g>
       <use xlink:href="#mb066b33317" x="57.6" y="88.622741" style="stroke: #000000; stroke-width: 0.8"/>
      </g>
     </g>
     <g id="text_7">
      <!-- $\mathdefault{10^{-1}}$ -->
      <g transform="translate(27.1 92.421959) scale(0.1 -0.1)">
       <use xlink:href="#DejaVuSans-31" transform="translate(0 0.684375)"/>
       <use xlink:href="#DejaVuSans-30" transform="translate(63.623047 0.684375)"/>
       <use xlink:href="#DejaVuSans-2212" transform="translate(128.203125 38.965625) scale(0.7)"/>
       <use xlink:href="#DejaVuSans-31" transform="translate(186.855469 38.965625) scale(0.7)"/>
      </g>
     </g>
    </g>
    <g id="ytick_3">
     <g id="line2d_32">
      <defs>
       <path id="me12027b5fd" d="M 0 0 
L -2 0 
" style="stroke: #000000; stroke-width: 0.6"/>
      </defs>
      <g>
       <use xlink:href="#me12027b5fd" x="57.6" y="307.584" style="stroke: #000000; stroke-width: 0.6"/>
      </g>
     </g>
    </g>
    <g id="ytick_4">
     <g id="line2d_33">
      <g>
       <use xlink:href="#me12027b5fd" x="57.6" y="292.404852" style="stroke: #000000; stroke-width: 0.6"/>
      </g>
     </g>
    </g>
    <g id="ytick_5">
     <g id="line2d_34">
      <g>
       <use xlink:href="#me12027b5fd" x="57.6" y="280.002585" style="stroke: #000000; stroke-width: 0.6"/>
      </g>
     </g>
    </g>
    <g id="ytick_6">
     <g id="line2d_35">
      <g>
       <use xlink:href="#me12027b5fd" x="57.6" y="269.516617" style="stroke: #000000; stroke-width: 0.6"/>
      </g>
     </g>
    </g>
    <g id="ytick_7">
     <g id="line2d_36">
      <g>
       <use xlink:href="#me12027b5fd" x="57.6" y="260.433259" style="stroke: #000000; stroke-width: 0.6"/>
      </g>
     </g>
    </g>
    <g id="ytick_8">
     <g id="line2d_37">
      <g>
       <use xlink:href="#me12027b5fd" x="57.6" y="252.42117" style="stroke: #000000; stroke-width: 0.6"/>
      </g>
     </g>
    </g>
    <g id="ytick_9">
     <g id="line2d_38">
      <g>
       <use xlink:href="#me12027b5fd" x="57.6" y="198.10337" style="stroke: #000000; stroke-width: 0.6"/>
      </g>
     </g>
    </g>
    <g id="ytick_10">
     <g id="line2d_39">
      <g>
       <use xlink:href="#me12027b5fd" x="57.6" y="170.521955" style="stroke: #000000; stroke-width: 0.6"/>
      </g>
     </g>
    </g>
    <g id="ytick_11">
     <g id="line2d_40">
      <g>
       <use xlink:href="#me12027b5fd" x="57.6" y="150.95263" style="stroke: #000000; stroke-width: 0.6"/>
      </g>
     </g>
    </g>
    <g id="ytick_12">
     <g id="line2d_41">
      <g>
       <use xlink:href="#me12027b5fd" x="57.6" y="135.773481" style="stroke: #000000; stroke-width: 0.6"/>
      </g>
     </g>
    </g>
    <g id="ytick_13">
     <g id="line2d_42">
      <g>
       <use xlink:href="#me12027b5fd" x="57.6" y="123.371214" style="stroke: #000000; stroke-width: 0.6"/>
      </g>
     </g>
    </g>
    <g id="ytick_14">
     <g id="line2d_43">
      <g>
       <use xlink:href="#me12027b5fd" x="57.6" y="112.885247" style="stroke: #000000; stroke-width: 0.6"/>
      </g>
     </g>
    </g>
    <g id="ytick_15">
     <g id="line2d_44">
      <g>
       <use xlink:href="#me12027b5fd" x="57.6" y="103.801889" style="stroke: #000000; stroke-width: 0.6"/>
      </g>
     </g>
    </g>
    <g id="ytick_16">
     <g id="line2d_45">
      <g>
       <use xlink:href="#me12027b5fd" x="57.6" y="95.789799" style="stroke: #000000; stroke-width: 0.6"/>
      </g>
     </g>
    </g>
    <g id="ytick_17">
     <g id="line2d_46">
      <g>
       <use xlink:href="#me12027b5fd" x="57.6" y="41.472" style="stroke: #000000; stroke-width: 0.6"/>
      </g>
     </g>
    </g>
    <g id="text_8">
     <!-- loss -->
     <g transform="translate(21.020313 184.185812) rotate(-90) scale(0.1 -0.1)">
      <defs>
       <path id="DejaVuSans-6c" d="M 603 4863 
L 1178 4863 
L 1178 0 
L 603 0 
L 603 4863 
z
" transform="scale(0.015625)"/>
       <path id="DejaVuSans-6f" d="M 1959 3097 
Q 1497 3097 1228 2736 
Q 959 2375 959 1747 
Q 959 1119 1226 758 
Q 1494 397 1959 397 
Q 2419 397 2687 759 
Q 2956 1122 2956 1747 
Q 2956 2369 2687 2733 
Q 2419 3097 1959 3097 
z
M 1959 3584 
Q 2709 3584 3137 3096 
Q 3566 2609 3566 1747 
Q 3566 888 3137 398 
Q 2709 -91 1959 -91 
Q 1206 -91 779 398 
Q 353 888 353 1747 
Q 353 2609 779 3096 
Q 1206 3584 1959 3584 
z
" transform="scale(0.015625)"/>
       <path id="DejaVuSans-73" d="M 2834 3397 
L 2834 2853 
Q 2591 2978 2328 3040 
Q 2066 3103 1784 3103 
Q 1356 3103 1142 2972 
Q 928 2841 928 2578 
Q 928 2378 1081 2264 
Q 1234 2150 1697 2047 
L 1894 2003 
Q 2506 1872 2764 1633 
Q 3022 1394 3022 966 
Q 3022 478 2636 193 
Q 2250 -91 1575 -91 
Q 1294 -91 989 -36 
Q 684 19 347 128 
L 347 722 
Q 666 556 975 473 
Q 1284 391 1588 391 
Q 1994 391 2212 530 
Q 2431 669 2431 922 
Q 2431 1156 2273 1281 
Q 2116 1406 1581 1522 
L 1381 1569 
Q 847 1681 609 1914 
Q 372 2147 372 2553 
Q 372 3047 722 3315 
Q 1072 3584 1716 3584 
Q 2034 3584 2315 3537 
Q 2597 3491 2834 3397 
z
" transform="scale(0.015625)"/>
      </defs>
      <use xlink:href="#DejaVuSans-6c"/>
      <use xlink:href="#DejaVuSans-6f" x="27.783203"/>
      <use xlink:href="#DejaVuSans-73" x="88.964844"/>
      <use xlink:href="#DejaVuSans-73" x="141.064453"/>
     </g>
    </g>
   </g>
   <g id="line2d_47">
    <path d="M 222.882094 -1 
L 229.122142 24.672335 
L 236.347304 51.940896 
L 242.608047 74.268157 
L 248.131776 82.42705 
L 253.073879 99.190905 
L 257.545259 102.726259 
L 261.627838 109.747214 
L 265.383856 121.93171 
L 268.861709 99.771176 
L 272.09977 114.788105 
L 275.128986 122.336603 
L 277.97467 106.152862 
L 280.657798 127.462493 
L 283.195942 133.048971 
L 285.60397 118.075907 
L 287.894576 136.330145 
L 290.078679 147.462946 
L 292.165746 120.101247 
L 294.164034 128.384771 
L 296.080787 104.623467 
L 297.9224 127.112538 
L 299.694543 94.53786 
L 301.402266 100.785082 
L 303.050089 115.165628 
L 304.642073 103.392235 
L 306.181877 110.922335 
L 307.672815 112.339715 
L 308.06102 130.748095 
L 309.494386 151.155928 
L 310.885315 165.107958 
L 312.236248 173.58706 
L 313.54942 178.226998 
L 314.826886 180.381585 
L 316.070536 181.997788 
L 317.282114 181.133083 
L 318.463232 181.888887 
L 319.615385 181.844457 
L 322.911443 183.356271 
L 323.960674 183.501397 
L 328.88173 183.426435 
L 329.806981 183.314713 
L 330.714362 183.367433 
L 331.604552 183.261646 
L 332.478188 183.608641 
L 333.335875 183.761882 
L 334.178186 183.007077 
L 335.005662 183.816075 
L 335.818816 184.449854 
L 336.618136 184.846593 
L 337.404085 183.605177 
L 338.177102 183.574432 
L 338.937607 183.337379 
L 339.685997 183.429758 
L 340.422653 183.864791 
L 340.616402 184.123309 
L 341.338724 182.434361 
L 342.05011 182.01206 
L 342.750885 172.355234 
L 343.441361 174.63251 
L 344.121836 178.189775 
L 344.792597 175.958944 
L 345.453916 177.307037 
L 346.106056 178.942958 
L 346.749268 181.275967 
L 347.383794 184.09537 
L 348.009863 181.212978 
L 349.237518 186.35749 
L 349.839522 186.58012 
L 350.43391 186.432759 
L 351.020873 184.270374 
L 351.600593 185.693929 
L 352.173247 180.597789 
L 352.739005 184.28892 
L 353.298032 185.887083 
L 353.850485 185.897127 
L 354.396518 187.861855 
L 354.936278 186.503429 
L 355.469907 187.214372 
L 356.519321 179.616252 
L 357.035367 181.847726 
L 357.545806 188.404045 
L 358.05076 189.86471 
L 358.550344 181.877297 
L 359.044672 183.444746 
L 359.533853 153.641629 
L 359.66294 152.773807 
L 360.145759 167.310223 
L 360.623667 167.341097 
L 361.096762 179.697653 
L 361.565141 166.079395 
L 362.028897 170.676355 
L 362.488121 172.229951 
L 362.942899 176.545377 
L 363.393317 184.706719 
L 363.839458 189.331069 
L 364.281403 185.779373 
L 364.719229 190.465214 
L 365.153013 186.047058 
L 365.582829 193.879841 
L 366.008748 194.229368 
L 366.430841 187.139521 
L 366.849175 192.275855 
L 367.263818 198.828909 
L 367.674833 199.567931 
L 368.082284 189.698385 
L 368.486232 199.275286 
L 368.886737 200.396446 
L 369.283856 201.142277 
L 370.455463 190.64345 
L 370.839595 188.323278 
L 371.220612 196.362415 
L 371.598564 175.11263 
L 371.9735 175.611226 
L 372.345467 184.446914 
L 372.714513 168.134806 
L 373.080683 181.555566 
L 373.177469 143.155509 
L 373.540062 118.515246 
L 373.899878 138.40216 
L 375.312204 183.423389 
L 375.658751 189.554137 
L 376.00276 193.575506 
L 376.344268 194.878004 
L 376.683312 184.350346 
L 377.019927 193.204783 
L 377.354148 171.266509 
L 377.686008 184.718864 
L 378.01554 187.16384 
L 378.66775 204.12983 
L 378.990492 208.168032 
L 379.311031 205.174711 
L 379.629399 198.310393 
L 379.945623 204.859883 
L 380.259734 195.82739 
L 380.571759 192.618462 
L 380.881725 182.128543 
L 381.189659 199.993222 
L 381.495588 208.518197 
L 381.799539 209.016977 
L 382.101535 212.602224 
L 382.401603 214.069451 
L 382.699767 208.894734 
L 382.99605 209.30846 
L 383.290476 195.494836 
L 383.660484 204.940763 
L 383.950789 204.41468 
L 384.239311 197.514351 
L 384.526073 203.817825 
L 385.094397 224.093225 
L 385.376002 230.199557 
L 385.934199 179.112027 
L 386.21083 185.25742 
L 386.485842 162.965689 
L 387.031082 206.213792 
L 387.301348 217.776887 
L 387.570068 215.805125 
L 387.83726 219.197063 
L 388.102941 161.212799 
L 388.367128 173.046604 
L 388.891087 205.762786 
L 389.150892 167.758246 
L 389.409267 174.350865 
L 389.921795 195.281242 
L 390.175977 178.209051 
L 390.428792 185.286102 
L 390.680253 178.1271 
L 390.930376 187.601182 
L 391.426662 167.485764 
L 391.672853 164.532412 
L 392.225903 206.488726 
L 392.467952 197.282255 
L 392.70876 200.606453 
L 392.948341 193.177377 
L 393.186706 160.621637 
L 393.423868 110.178873 
L 393.659839 117.658732 
L 394.128254 171.874259 
L 394.822236 208.71413 
L 395.051304 208.671558 
L 395.279261 154.895389 
L 395.506117 168.16776 
L 395.731883 121.373403 
L 395.956569 117.436609 
L 396.180186 136.603859 
L 396.402743 136.075243 
L 396.624251 155.960204 
L 396.84472 95.156745 
L 397.282578 160.553984 
L 397.499987 161.551922 
L 397.716394 186.44538 
L 397.931808 177.198364 
L 398.14624 201.495258 
L 398.359697 176.913076 
L 398.783725 213.235149 
L 398.994312 197.835891 
L 399.203959 211.282902 
L 399.412676 121.044985 
L 399.46796 125.37684 
L 400.087878 188.534029 
L 400.496658 211.6407 
L 401.103236 230.274326 
L 401.702083 242.433825 
L 402.293393 250.82123 
L 403.644847 263.582616 
L 405.143214 272.056674 
L 405.510457 273.391365 
L 405.693008 273.913915 
L 405.741379 259.723657 
L 405.923036 93.90581 
L 406.103994 97.566238 
L 406.284257 97.154731 
L 406.463832 102.211937 
L 406.642722 115.166496 
L 406.820934 137.442381 
L 406.998473 136.282375 
L 407.175343 153.890126 
L 407.35155 131.923744 
L 407.701994 171.179596 
L 407.876241 181.934086 
L 408.049843 171.024269 
L 408.222807 172.799797 
L 408.395136 172.733173 
L 408.566836 179.914444 
L 408.73791 152.264503 
L 408.908364 174.649397 
L 409.078201 178.61266 
L 409.247427 190.645956 
L 409.751478 176.855613 
L 409.9183 187.013092 
L 410.084532 171.322899 
L 410.415242 122.939629 
L 410.579728 115.470197 
L 410.743641 118.283014 
L 411.06976 159.170604 
L 411.231974 161.026524 
L 411.274969 149.317592 
L 411.597433 198.220167 
L 411.9177 221.423048 
L 412.235798 230.163599 
L 412.551756 233.671526 
L 413.021746 236.401744 
L 413.17737 236.465246 
L 413.641174 237.822186 
L 413.794763 237.746373 
L 414.100444 238.636863 
L 414.252542 238.871389 
L 414.555268 239.77546 
L 414.705903 240.053977 
L 414.856056 239.355962 
L 415.303658 240.665945 
L 415.451917 240.752631 
L 415.599708 240.702359 
L 415.893904 241.607822 
L 416.040315 241.69134 
L 416.18627 241.376092 
L 416.18627 241.376092 
" clip-path="url(#p8c8c847901)" style="fill: none; stroke: #1f77b4; stroke-opacity: 0.4; stroke-linecap: square"/>
   </g>
   <g id="line2d_48">
    <path d="M 191.339809 -1 
L 196.677266 4.820329 
L 210.132791 23.310542 
L 220.580366 42.766453 
L 229.122142 54.794579 
L 236.347304 56.248079 
L 242.608047 61.77136 
L 248.131776 68.518394 
L 253.073879 65.677838 
L 257.545259 81.25014 
L 261.627838 84.092662 
L 265.383856 98.629306 
L 268.861709 105.902964 
L 272.09977 90.748585 
L 275.128986 96.470848 
L 277.97467 104.408675 
L 280.657798 109.469443 
L 283.195942 109.458885 
L 285.60397 84.235064 
L 287.894576 82.592166 
L 290.078679 97.32484 
L 292.165746 97.641864 
L 294.164034 108.200173 
L 296.080787 104.659198 
L 297.9224 116.610876 
L 299.694543 55.539882 
L 301.402266 85.104102 
L 303.050089 95.828052 
L 306.181877 122.592567 
L 307.672815 132.865559 
L 308.06102 139.381873 
L 309.494386 146.424698 
L 310.885315 150.937842 
L 312.236248 153.647678 
L 313.54942 155.215097 
L 314.826886 155.970791 
L 316.070536 156.212254 
L 317.282114 157.065853 
L 318.463232 157.691657 
L 320.73996 158.416727 
L 321.838246 158.549745 
L 323.960674 158.975179 
L 325.991354 159.463587 
L 326.974702 159.392433 
L 327.937891 159.752459 
L 330.714362 160.225127 
L 331.604552 160.470223 
L 332.478188 160.509863 
L 333.335875 160.691099 
L 334.178186 160.63752 
L 335.818816 161.222819 
L 337.404085 161.285587 
L 338.177102 161.333098 
L 338.937607 161.182142 
L 339.685997 161.579488 
L 340.422653 161.376207 
L 340.616402 160.868068 
L 341.338724 161.283278 
L 342.05011 162.07069 
L 342.750885 161.655724 
L 343.441361 159.963394 
L 344.121836 161.79502 
L 344.792597 162.52087 
L 345.453916 162.928988 
L 346.106056 162.795873 
L 346.749268 163.63133 
L 348.009863 163.533608 
L 348.6277 164.289174 
L 349.237518 164.080828 
L 350.43391 165.414791 
L 351.020873 166.085278 
L 351.600593 166.04708 
L 352.173247 165.664997 
L 353.298032 165.244243 
L 353.850485 166.019935 
L 354.396518 166.583631 
L 354.936278 166.759588 
L 355.469907 167.217415 
L 355.997544 165.795135 
L 356.519321 165.466024 
L 357.035367 167.139247 
L 358.05076 168.257469 
L 358.550344 167.306367 
L 359.044672 167.93655 
L 359.533853 167.948205 
L 359.66294 167.350748 
L 360.145759 167.640187 
L 360.623667 168.475049 
L 361.096762 165.607256 
L 362.028897 168.303847 
L 362.488121 168.536301 
L 362.942899 169.03595 
L 363.393317 169.873873 
L 363.839458 168.229919 
L 364.281403 170.057146 
L 364.719229 170.866431 
L 365.153013 171.00575 
L 365.582829 167.937334 
L 366.008748 166.177695 
L 366.849175 170.219717 
L 367.263818 170.895249 
L 367.674833 172.100712 
L 368.082284 171.8524 
L 368.486232 170.789077 
L 368.886737 164.362135 
L 369.283856 169.357786 
L 369.677647 167.165943 
L 370.455463 172.529726 
L 370.839595 168.792768 
L 371.220612 168.97901 
L 371.598564 169.551265 
L 373.080683 175.293565 
L 373.540062 171.848816 
L 373.899878 171.782101 
L 374.256959 173.999914 
L 374.611348 172.057397 
L 374.963083 173.689648 
L 375.312204 173.673717 
L 375.658751 175.564608 
L 376.344268 173.143333 
L 376.683312 176.155003 
L 377.354148 179.083841 
L 377.686008 179.185072 
L 378.01554 174.301041 
L 378.342777 175.582848 
L 378.66775 175.203764 
L 378.990492 173.660002 
L 379.311031 176.845313 
L 379.629399 173.318848 
L 379.945623 176.86229 
L 380.259734 160.684615 
L 380.571759 168.522044 
L 380.881725 172.769605 
L 381.189659 170.977384 
L 381.495588 171.689775 
L 381.799539 176.156643 
L 382.101535 177.902521 
L 382.699767 179.575686 
L 382.99605 181.34378 
L 383.58307 182.365173 
L 383.660484 183.313356 
L 383.950789 177.669041 
L 384.239311 163.488092 
L 384.526073 160.978256 
L 384.811094 170.68872 
L 385.376002 178.971285 
L 385.65593 174.231054 
L 386.21083 181.58097 
L 386.485842 172.651451 
L 387.031082 182.471757 
L 387.301348 161.924341 
L 387.570068 171.265587 
L 387.83726 167.859021 
L 388.102941 162.220832 
L 388.367128 165.640483 
L 388.629838 173.302882 
L 389.150892 177.060246 
L 389.409267 174.420829 
L 389.66623 178.951478 
L 389.921795 173.695848 
L 390.175977 171.964036 
L 390.428792 179.986091 
L 390.680253 182.636566 
L 390.930376 177.720709 
L 391.179174 164.786839 
L 391.426662 165.343361 
L 391.917761 181.577353 
L 392.161398 175.705825 
L 392.225903 180.505589 
L 392.70876 184.395168 
L 392.948341 184.287154 
L 393.423868 189.49067 
L 393.659839 187.614696 
L 393.89463 188.291299 
L 394.128254 187.303701 
L 394.360722 187.710045 
L 394.592046 188.72237 
L 394.822236 188.805794 
L 395.051304 184.509794 
L 395.279261 182.688386 
L 395.506117 186.506585 
L 395.731883 186.778592 
L 395.956569 185.303869 
L 396.180186 186.972077 
L 396.624251 181.928578 
L 396.84472 185.201976 
L 397.064159 181.038266 
L 397.282578 182.285376 
L 397.499987 181.36291 
L 397.716394 185.548954 
L 397.931808 181.594514 
L 398.14624 175.080649 
L 398.359697 164.12777 
L 398.572189 176.537899 
L 398.783725 178.014531 
L 398.994312 175.173789 
L 399.46796 189.307022 
L 399.67551 189.835953 
L 399.882146 186.041569 
L 400.087878 187.018006 
L 400.292713 189.551962 
L 400.496658 183.137085 
L 400.699722 156.962666 
L 400.901913 166.381335 
L 401.103236 164.075344 
L 401.303701 173.898222 
L 401.503315 167.683768 
L 401.900015 182.617584 
L 402.097116 150.039228 
L 402.293393 165.774573 
L 402.488855 164.535005 
L 402.877354 180.495941 
L 403.070406 182.420715 
L 403.262668 187.366421 
L 403.454146 187.525014 
L 403.644847 181.689106 
L 404.023942 190.534589 
L 404.212349 193.71389 
L 404.400003 189.166296 
L 404.586911 189.087702 
L 404.773078 184.813264 
L 405.327195 191.39302 
L 405.510457 185.592263 
L 405.693008 186.498697 
L 405.741379 191.12301 
L 405.923036 190.944053 
L 406.103994 190.969513 
L 406.284257 194.213917 
L 406.463832 192.988834 
L 406.642722 194.301303 
L 406.820934 178.320146 
L 406.998473 188.45269 
L 407.175343 183.147061 
L 407.35155 186.306133 
L 407.527099 186.638736 
L 407.701994 190.688455 
L 408.049843 188.701135 
L 408.222807 193.70083 
L 408.566836 174.013644 
L 408.908364 190.942732 
L 409.078201 161.195128 
L 409.416045 179.678814 
L 409.584061 189.101535 
L 409.751478 191.364375 
L 409.9183 190.738906 
L 410.084532 193.805556 
L 410.250178 192.280811 
L 410.415242 153.060354 
L 410.579728 159.347876 
L 410.743641 159.361405 
L 411.06976 183.669399 
L 411.231974 182.047247 
L 411.274969 157.228592 
L 411.597433 177.789789 
L 411.757839 175.226072 
L 411.9177 176.598594 
L 412.235798 191.554154 
L 412.394043 191.867853 
L 412.551756 190.79001 
L 412.708943 181.813958 
L 412.865605 184.049949 
L 413.021746 155.000004 
L 413.332481 179.304995 
L 413.487081 173.099461 
L 413.794763 190.537889 
L 413.947852 193.260404 
L 414.100444 192.53673 
L 414.252542 194.208287 
L 414.404149 192.840356 
L 414.555268 178.160041 
L 414.705903 177.41473 
L 414.856056 184.288286 
L 415.005731 179.441382 
L 415.451917 194.807013 
L 415.599708 195.45566 
L 415.747037 193.501378 
L 415.893904 189.714089 
L 416.18627 190.71969 
L 416.18627 190.71969 
" clip-path="url(#p8c8c847901)" style="fill: none; stroke: #ff7f0e; stroke-opacity: 0.4; stroke-linecap: square"/>
   </g>
   <g id="line2d_49">
    <path d="M 184.708454 -1 
L 196.677266 14.819258 
L 210.132791 21.484852 
L 220.580366 48.092494 
L 229.122142 59.840779 
L 236.347304 77.552304 
L 242.608047 90.569376 
L 248.131776 89.341438 
L 253.073879 89.171809 
L 257.545259 91.658246 
L 261.627838 89.599201 
L 265.383856 101.196381 
L 268.861709 105.408227 
L 272.09977 114.112066 
L 275.128986 110.901658 
L 277.97467 112.80148 
L 280.657798 76.66095 
L 283.195942 78.702741 
L 285.60397 88.887342 
L 287.894576 100.34743 
L 290.078679 108.250842 
L 292.165746 83.438452 
L 294.164034 106.887405 
L 296.080787 112.007201 
L 297.9224 110.794549 
L 299.694543 127.174184 
L 303.050089 94.007501 
L 304.642073 99.377726 
L 306.181877 118.685912 
L 309.494386 149.027595 
L 310.885315 156.743318 
L 312.236248 161.604698 
L 313.54942 164.505121 
L 314.826886 166.523347 
L 316.070536 167.925424 
L 317.282114 168.835251 
L 320.73996 171.031732 
L 325.991354 172.972202 
L 328.88173 173.415559 
L 330.714362 173.967654 
L 331.604552 174.149658 
L 332.478188 174.489752 
L 335.005662 174.603062 
L 337.404085 175.052541 
L 338.177102 174.94032 
L 339.685997 175.48603 
L 340.422653 175.20035 
L 340.616402 173.667047 
L 341.338724 174.001015 
L 342.05011 174.711195 
L 342.750885 174.941949 
L 343.441361 175.83393 
L 344.121836 174.305243 
L 344.792597 175.156278 
L 345.453916 176.302029 
L 346.106056 177.700351 
L 346.749268 167.091389 
L 347.383794 171.700633 
L 348.009863 175.285177 
L 348.6277 177.165755 
L 349.237518 175.073727 
L 349.839522 176.808025 
L 350.43391 175.724319 
L 351.020873 175.575104 
L 351.600593 178.956828 
L 352.173247 179.34429 
L 352.739005 170.192637 
L 353.298032 175.7989 
L 353.850485 171.910174 
L 354.936278 180.155639 
L 355.469907 180.745074 
L 355.997544 170.777295 
L 357.035367 179.788381 
L 357.545806 182.064002 
L 358.05076 180.014811 
L 358.550344 175.492274 
L 359.044672 179.037356 
L 359.533853 181.001517 
L 359.66294 182.21853 
L 360.145759 183.114979 
L 360.623667 184.346527 
L 361.096762 183.087685 
L 361.565141 183.845374 
L 362.028897 185.253939 
L 362.488121 185.050649 
L 362.942899 183.072464 
L 363.393317 178.029546 
L 363.839458 182.498634 
L 364.281403 184.312211 
L 364.719229 179.980936 
L 365.153013 178.63222 
L 365.582829 183.560071 
L 366.008748 174.92186 
L 366.430841 180.206296 
L 366.849175 180.758851 
L 367.263818 185.033318 
L 368.486232 189.740834 
L 368.886737 188.82572 
L 369.283856 182.978759 
L 369.677647 184.64623 
L 370.068165 181.139983 
L 370.455463 184.115081 
L 370.839595 180.849031 
L 371.220612 176.013845 
L 371.598564 178.365315 
L 371.9735 183.151664 
L 372.714513 189.757326 
L 373.080683 188.671791 
L 373.177469 189.416751 
L 373.540062 174.931813 
L 373.899878 183.135295 
L 374.256959 184.084147 
L 374.611348 182.533537 
L 374.963083 185.336322 
L 375.312204 184.123282 
L 375.658751 188.628677 
L 376.00276 177.735561 
L 376.344268 186.216434 
L 376.683312 172.685573 
L 377.019927 182.890348 
L 377.354148 188.418451 
L 377.686008 190.045541 
L 378.342777 193.971096 
L 378.66775 195.569836 
L 378.990492 194.088506 
L 379.311031 194.984036 
L 379.629399 191.567282 
L 379.945623 177.902814 
L 380.259734 186.349974 
L 380.571759 190.537545 
L 380.881725 191.637257 
L 381.189659 191.354643 
L 381.495588 182.619729 
L 382.101535 192.930751 
L 382.401603 192.347976 
L 382.699767 188.396641 
L 382.99605 193.378986 
L 383.290476 186.572425 
L 383.58307 186.437116 
L 383.660484 176.082211 
L 383.950789 188.052619 
L 384.526073 197.813825 
L 384.811094 196.982122 
L 385.094397 199.332855 
L 385.376002 199.534453 
L 385.65593 181.759226 
L 385.934199 188.862552 
L 386.485842 196.784998 
L 386.759253 191.11626 
L 387.031082 192.340602 
L 387.301348 192.396771 
L 387.570068 191.75919 
L 387.83726 197.406795 
L 388.102941 198.786366 
L 388.629838 199.201341 
L 389.66623 204.203032 
L 389.921795 190.898614 
L 390.175977 196.914123 
L 390.680253 201.184811 
L 390.930376 197.356602 
L 391.179174 189.438618 
L 391.426662 195.673158 
L 391.672853 191.588525 
L 391.917761 197.472113 
L 392.161398 198.212828 
L 392.225903 187.921724 
L 392.467952 180.086618 
L 392.70876 181.698536 
L 392.948341 190.397893 
L 393.186706 176.221968 
L 393.423868 179.801786 
L 393.659839 169.923036 
L 393.89463 183.791992 
L 394.128254 187.256745 
L 394.360722 173.550748 
L 394.592046 181.631374 
L 394.822236 176.899617 
L 395.279261 195.167852 
L 395.506117 192.455655 
L 395.731883 180.876401 
L 395.956569 188.713008 
L 396.180186 191.757696 
L 396.402743 178.031771 
L 396.624251 145.923417 
L 396.84472 163.377524 
L 397.064159 159.447184 
L 397.282578 176.03291 
L 397.499987 171.711963 
L 397.931808 184.117342 
L 398.14624 193.965546 
L 398.359697 196.138981 
L 398.572189 201.512608 
L 398.783725 203.685961 
L 398.994312 197.877239 
L 399.203959 202.434041 
L 399.46796 192.143995 
L 399.882146 204.970572 
L 400.087878 208.246229 
L 400.292713 208.94218 
L 400.496658 205.636444 
L 400.699722 208.038734 
L 400.901913 208.658893 
L 401.103236 210.408422 
L 401.303701 210.931582 
L 401.702083 210.163259 
L 401.900015 207.8573 
L 402.097116 208.219965 
L 402.293393 204.847427 
L 402.488855 208.742589 
L 402.683506 207.044164 
L 402.877354 210.175792 
L 403.070406 211.440887 
L 403.454146 207.902833 
L 403.644847 210.329178 
L 403.834777 211.26636 
L 404.023942 197.382144 
L 404.212349 203.97156 
L 404.400003 201.44388 
L 404.586911 205.347822 
L 404.773078 205.63407 
L 404.958511 199.10507 
L 405.143214 204.260795 
L 405.327195 203.996677 
L 405.510457 205.870571 
L 405.923036 181.943152 
L 406.284257 195.402103 
L 406.642722 200.958307 
L 406.820934 186.871637 
L 407.175343 195.322339 
L 407.35155 192.083899 
L 407.527099 185.716096 
L 407.701994 185.963414 
L 407.876241 193.09493 
L 408.049843 182.65759 
L 408.222807 193.34039 
L 408.395136 183.523947 
L 408.566836 193.005087 
L 408.73791 196.172695 
L 408.908364 195.691086 
L 409.078201 202.152836 
L 409.247427 201.262493 
L 409.416045 203.748444 
L 409.751478 199.887047 
L 409.9183 192.341403 
L 410.084532 198.13699 
L 410.250178 196.839731 
L 410.415242 183.7539 
L 410.579728 181.111235 
L 411.06976 196.900427 
L 411.231974 192.972735 
L 411.436478 202.804831 
L 411.597433 204.842513 
L 411.757839 204.799182 
L 411.9177 207.572309 
L 412.077018 207.75684 
L 412.235798 209.908645 
L 412.394043 197.594941 
L 412.551756 202.705099 
L 412.708943 198.851396 
L 413.021746 205.307698 
L 413.332481 207.439955 
L 413.487081 209.331475 
L 413.641174 206.912522 
L 413.794763 200.432248 
L 414.100444 209.460219 
L 414.252542 206.709558 
L 414.404149 183.747182 
L 414.856056 206.846876 
L 415.005731 203.929515 
L 415.154931 209.451789 
L 415.303658 209.992517 
L 415.451917 203.708306 
L 415.599708 208.442832 
L 415.747037 208.993337 
L 415.893904 212.508748 
L 416.040315 210.468376 
L 416.18627 210.170314 
L 416.18627 210.170314 
" clip-path="url(#p8c8c847901)" style="fill: none; stroke: #2ca02c; stroke-opacity: 0.4; stroke-linecap: square"/>
   </g>
   <g id="patch_3">
    <path d="M 57.6 307.584 
L 57.6 41.472 
" style="fill: none; stroke: #000000; stroke-width: 0.8; stroke-linejoin: miter; stroke-linecap: square"/>
   </g>
   <g id="patch_4">
    <path d="M 414.72 307.584 
L 414.72 41.472 
" style="fill: none; stroke: #000000; stroke-width: 0.8; stroke-linejoin: miter; stroke-linecap: square"/>
   </g>
   <g id="patch_5">
    <path d="M 57.6 307.584 
L 414.72 307.584 
" style="fill: none; stroke: #000000; stroke-width: 0.8; stroke-linejoin: miter; stroke-linecap: square"/>
   </g>
   <g id="patch_6">
    <path d="M 57.6 41.472 
L 414.72 41.472 
" style="fill: none; stroke: #000000; stroke-width: 0.8; stroke-linejoin: miter; stroke-linecap: square"/>
   </g>
   <g id="text_9">
    <!-- 2025-02-18-14:50:51 -->
    <g transform="translate(172.178438 35.472) scale(0.12 -0.12)">
     <defs>
      <path id="DejaVuSans-35" d="M 691 4666 
L 3169 4666 
L 3169 4134 
L 1269 4134 
L 1269 2991 
Q 1406 3038 1543 3061 
Q 1681 3084 1819 3084 
Q 2600 3084 3056 2656 
Q 3513 2228 3513 1497 
Q 3513 744 3044 326 
Q 2575 -91 1722 -91 
Q 1428 -91 1123 -41 
Q 819 9 494 109 
L 494 744 
Q 775 591 1075 516 
Q 1375 441 1709 441 
Q 2250 441 2565 725 
Q 2881 1009 2881 1497 
Q 2881 1984 2565 2268 
Q 2250 2553 1709 2553 
Q 1456 2553 1204 2497 
Q 953 2441 691 2322 
L 691 4666 
z
" transform="scale(0.015625)"/>
      <path id="DejaVuSans-2d" d="M 313 2009 
L 1997 2009 
L 1997 1497 
L 313 1497 
L 313 2009 
z
" transform="scale(0.015625)"/>
      <path id="DejaVuSans-38" d="M 2034 2216 
Q 1584 2216 1326 1975 
Q 1069 1734 1069 1313 
Q 1069 891 1326 650 
Q 1584 409 2034 409 
Q 2484 409 2743 651 
Q 3003 894 3003 1313 
Q 3003 1734 2745 1975 
Q 2488 2216 2034 2216 
z
M 1403 2484 
Q 997 2584 770 2862 
Q 544 3141 544 3541 
Q 544 4100 942 4425 
Q 1341 4750 2034 4750 
Q 2731 4750 3128 4425 
Q 3525 4100 3525 3541 
Q 3525 3141 3298 2862 
Q 3072 2584 2669 2484 
Q 3125 2378 3379 2068 
Q 3634 1759 3634 1313 
Q 3634 634 3220 271 
Q 2806 -91 2034 -91 
Q 1263 -91 848 271 
Q 434 634 434 1313 
Q 434 1759 690 2068 
Q 947 2378 1403 2484 
z
M 1172 3481 
Q 1172 3119 1398 2916 
Q 1625 2713 2034 2713 
Q 2441 2713 2670 2916 
Q 2900 3119 2900 3481 
Q 2900 3844 2670 4047 
Q 2441 4250 2034 4250 
Q 1625 4250 1398 4047 
Q 1172 3844 1172 3481 
z
" transform="scale(0.015625)"/>
      <path id="DejaVuSans-3a" d="M 750 794 
L 1409 794 
L 1409 0 
L 750 0 
L 750 794 
z
M 750 3309 
L 1409 3309 
L 1409 2516 
L 750 2516 
L 750 3309 
z
" transform="scale(0.015625)"/>
     </defs>
     <use xlink:href="#DejaVuSans-32"/>
     <use xlink:href="#DejaVuSans-30" x="63.623047"/>
     <use xlink:href="#DejaVuSans-32" x="127.246094"/>
     <use xlink:href="#DejaVuSans-35" x="190.869141"/>
     <use xlink:href="#DejaVuSans-2d" x="254.492188"/>
     <use xlink:href="#DejaVuSans-30" x="290.576172"/>
     <use xlink:href="#DejaVuSans-32" x="354.199219"/>
     <use xlink:href="#DejaVuSans-2d" x="417.822266"/>
     <use xlink:href="#DejaVuSans-31" x="453.90625"/>
     <use xlink:href="#DejaVuSans-38" x="517.529297"/>
     <use xlink:href="#DejaVuSans-2d" x="581.152344"/>
     <use xlink:href="#DejaVuSans-31" x="617.236328"/>
     <use xlink:href="#DejaVuSans-34" x="680.859375"/>
     <use xlink:href="#DejaVuSans-3a" x="744.482422"/>
     <use xlink:href="#DejaVuSans-35" x="778.173828"/>
     <use xlink:href="#DejaVuSans-30" x="841.796875"/>
     <use xlink:href="#DejaVuSans-3a" x="905.419922"/>
     <use xlink:href="#DejaVuSans-35" x="939.111328"/>
     <use xlink:href="#DejaVuSans-31" x="1002.734375"/>
    </g>
   </g>
   <g id="legend_1">
    <g id="patch_7">
     <path d="M 64.6 94.34075 
L 190.723438 94.34075 
Q 192.723438 94.34075 192.723438 92.34075 
L 192.723438 48.472 
Q 192.723438 46.472 190.723438 46.472 
L 64.6 46.472 
Q 62.6 46.472 62.6 48.472 
L 62.6 92.34075 
Q 62.6 94.34075 64.6 94.34075 
z
" style="fill: #ffffff; opacity: 0.8; stroke: #cccccc; stroke-linejoin: miter"/>
    </g>
    <g id="line2d_50">
     <path d="M 66.6 54.570438 
L 76.6 54.570438 
L 86.6 54.570438 
" style="fill: none; stroke: #1f77b4; stroke-opacity: 0.4; stroke-linecap: square"/>
    </g>
    <g id="text_10">
     <!-- SchNet eval_loss -->
     <g transform="translate(94.6 58.070438) scale(0.1 -0.1)">
      <defs>
       <path id="DejaVuSans-53" d="M 3425 4513 
L 3425 3897 
Q 3066 4069 2747 4153 
Q 2428 4238 2131 4238 
Q 1616 4238 1336 4038 
Q 1056 3838 1056 3469 
Q 1056 3159 1242 3001 
Q 1428 2844 1947 2747 
L 2328 2669 
Q 3034 2534 3370 2195 
Q 3706 1856 3706 1288 
Q 3706 609 3251 259 
Q 2797 -91 1919 -91 
Q 1588 -91 1214 -16 
Q 841 59 441 206 
L 441 856 
Q 825 641 1194 531 
Q 1563 422 1919 422 
Q 2459 422 2753 634 
Q 3047 847 3047 1241 
Q 3047 1584 2836 1778 
Q 2625 1972 2144 2069 
L 1759 2144 
Q 1053 2284 737 2584 
Q 422 2884 422 3419 
Q 422 4038 858 4394 
Q 1294 4750 2059 4750 
Q 2388 4750 2728 4690 
Q 3069 4631 3425 4513 
z
" transform="scale(0.015625)"/>
       <path id="DejaVuSans-63" d="M 3122 3366 
L 3122 2828 
Q 2878 2963 2633 3030 
Q 2388 3097 2138 3097 
Q 1578 3097 1268 2742 
Q 959 2388 959 1747 
Q 959 1106 1268 751 
Q 1578 397 2138 397 
Q 2388 397 2633 464 
Q 2878 531 3122 666 
L 3122 134 
Q 2881 22 2623 -34 
Q 2366 -91 2075 -91 
Q 1284 -91 818 406 
Q 353 903 353 1747 
Q 353 2603 823 3093 
Q 1294 3584 2113 3584 
Q 2378 3584 2631 3529 
Q 2884 3475 3122 3366 
z
" transform="scale(0.015625)"/>
       <path id="DejaVuSans-68" d="M 3513 2113 
L 3513 0 
L 2938 0 
L 2938 2094 
Q 2938 2591 2744 2837 
Q 2550 3084 2163 3084 
Q 1697 3084 1428 2787 
Q 1159 2491 1159 1978 
L 1159 0 
L 581 0 
L 581 4863 
L 1159 4863 
L 1159 2956 
Q 1366 3272 1645 3428 
Q 1925 3584 2291 3584 
Q 2894 3584 3203 3211 
Q 3513 2838 3513 2113 
z
" transform="scale(0.015625)"/>
       <path id="DejaVuSans-4e" d="M 628 4666 
L 1478 4666 
L 3547 763 
L 3547 4666 
L 4159 4666 
L 4159 0 
L 3309 0 
L 1241 3903 
L 1241 0 
L 628 0 
L 628 4666 
z
" transform="scale(0.015625)"/>
       <path id="DejaVuSans-20" transform="scale(0.015625)"/>
       <path id="DejaVuSans-76" d="M 191 3500 
L 800 3500 
L 1894 563 
L 2988 3500 
L 3597 3500 
L 2284 0 
L 1503 0 
L 191 3500 
z
" transform="scale(0.015625)"/>
       <path id="DejaVuSans-61" d="M 2194 1759 
Q 1497 1759 1228 1600 
Q 959 1441 959 1056 
Q 959 750 1161 570 
Q 1363 391 1709 391 
Q 2188 391 2477 730 
Q 2766 1069 2766 1631 
L 2766 1759 
L 2194 1759 
z
M 3341 1997 
L 3341 0 
L 2766 0 
L 2766 531 
Q 2569 213 2275 61 
Q 1981 -91 1556 -91 
Q 1019 -91 701 211 
Q 384 513 384 1019 
Q 384 1609 779 1909 
Q 1175 2209 1959 2209 
L 2766 2209 
L 2766 2266 
Q 2766 2663 2505 2880 
Q 2244 3097 1772 3097 
Q 1472 3097 1187 3025 
Q 903 2953 641 2809 
L 641 3341 
Q 956 3463 1253 3523 
Q 1550 3584 1831 3584 
Q 2591 3584 2966 3190 
Q 3341 2797 3341 1997 
z
" transform="scale(0.015625)"/>
       <path id="DejaVuSans-5f" d="M 3263 -1063 
L 3263 -1509 
L -63 -1509 
L -63 -1063 
L 3263 -1063 
z
" transform="scale(0.015625)"/>
      </defs>
      <use xlink:href="#DejaVuSans-53"/>
      <use xlink:href="#DejaVuSans-63" x="63.476562"/>
      <use xlink:href="#DejaVuSans-68" x="118.457031"/>
      <use xlink:href="#DejaVuSans-4e" x="181.835938"/>
      <use xlink:href="#DejaVuSans-65" x="256.640625"/>
      <use xlink:href="#DejaVuSans-74" x="318.164062"/>
      <use xlink:href="#DejaVuSans-20" x="357.373047"/>
      <use xlink:href="#DejaVuSans-65" x="389.160156"/>
      <use xlink:href="#DejaVuSans-76" x="450.683594"/>
      <use xlink:href="#DejaVuSans-61" x="509.863281"/>
      <use xlink:href="#DejaVuSans-6c" x="571.142578"/>
      <use xlink:href="#DejaVuSans-5f" x="598.925781"/>
      <use xlink:href="#DejaVuSans-6c" x="648.925781"/>
      <use xlink:href="#DejaVuSans-6f" x="676.708984"/>
      <use xlink:href="#DejaVuSans-73" x="737.890625"/>
      <use xlink:href="#DejaVuSans-73" x="789.990234"/>
     </g>
    </g>
    <g id="line2d_51">
     <path d="M 66.6 69.526688 
L 76.6 69.526688 
L 86.6 69.526688 
" style="fill: none; stroke: #ff7f0e; stroke-opacity: 0.4; stroke-linecap: square"/>
    </g>
    <g id="text_11">
     <!-- MoGIN13 eval_loss -->
     <g transform="translate(94.6 73.026688) scale(0.1 -0.1)">
      <defs>
       <path id="DejaVuSans-4d" d="M 628 4666 
L 1569 4666 
L 2759 1491 
L 3956 4666 
L 4897 4666 
L 4897 0 
L 4281 0 
L 4281 4097 
L 3078 897 
L 2444 897 
L 1241 4097 
L 1241 0 
L 628 0 
L 628 4666 
z
" transform="scale(0.015625)"/>
       <path id="DejaVuSans-47" d="M 3809 666 
L 3809 1919 
L 2778 1919 
L 2778 2438 
L 4434 2438 
L 4434 434 
Q 4069 175 3628 42 
Q 3188 -91 2688 -91 
Q 1594 -91 976 548 
Q 359 1188 359 2328 
Q 359 3472 976 4111 
Q 1594 4750 2688 4750 
Q 3144 4750 3555 4637 
Q 3966 4525 4313 4306 
L 4313 3634 
Q 3963 3931 3569 4081 
Q 3175 4231 2741 4231 
Q 1884 4231 1454 3753 
Q 1025 3275 1025 2328 
Q 1025 1384 1454 906 
Q 1884 428 2741 428 
Q 3075 428 3337 486 
Q 3600 544 3809 666 
z
" transform="scale(0.015625)"/>
       <path id="DejaVuSans-49" d="M 628 4666 
L 1259 4666 
L 1259 0 
L 628 0 
L 628 4666 
z
" transform="scale(0.015625)"/>
      </defs>
      <use xlink:href="#DejaVuSans-4d"/>
      <use xlink:href="#DejaVuSans-6f" x="86.279297"/>
      <use xlink:href="#DejaVuSans-47" x="147.460938"/>
      <use xlink:href="#DejaVuSans-49" x="224.951172"/>
      <use xlink:href="#DejaVuSans-4e" x="254.443359"/>
      <use xlink:href="#DejaVuSans-31" x="329.248047"/>
      <use xlink:href="#DejaVuSans-33" x="392.871094"/>
      <use xlink:href="#DejaVuSans-20" x="456.494141"/>
      <use xlink:href="#DejaVuSans-65" x="488.28125"/>
      <use xlink:href="#DejaVuSans-76" x="549.804688"/>
      <use xlink:href="#DejaVuSans-61" x="608.984375"/>
      <use xlink:href="#DejaVuSans-6c" x="670.263672"/>
      <use xlink:href="#DejaVuSans-5f" x="698.046875"/>
      <use xlink:href="#DejaVuSans-6c" x="748.046875"/>
      <use xlink:href="#DejaVuSans-6f" x="775.830078"/>
      <use xlink:href="#DejaVuSans-73" x="837.011719"/>
      <use xlink:href="#DejaVuSans-73" x="889.111328"/>
     </g>
    </g>
    <g id="line2d_52">
     <path d="M 66.6 84.482938 
L 76.6 84.482938 
L 86.6 84.482938 
" style="fill: none; stroke: #2ca02c; stroke-opacity: 0.4; stroke-linecap: square"/>
    </g>
    <g id="text_12">
     <!-- MoGIN11 eval_loss -->
     <g transform="translate(94.6 87.982938) scale(0.1 -0.1)">
      <use xlink:href="#DejaVuSans-4d"/>
      <use xlink:href="#DejaVuSans-6f" x="86.279297"/>
      <use xlink:href="#DejaVuSans-47" x="147.460938"/>
      <use xlink:href="#DejaVuSans-49" x="224.951172"/>
      <use xlink:href="#DejaVuSans-4e" x="254.443359"/>
      <use xlink:href="#DejaVuSans-31" x="329.248047"/>
      <use xlink:href="#DejaVuSans-31" x="392.871094"/>
      <use xlink:href="#DejaVuSans-20" x="456.494141"/>
      <use xlink:href="#DejaVuSans-65" x="488.28125"/>
      <use xlink:href="#DejaVuSans-76" x="549.804688"/>
      <use xlink:href="#DejaVuSans-61" x="608.984375"/>
      <use xlink:href="#DejaVuSans-6c" x="670.263672"/>
      <use xlink:href="#DejaVuSans-5f" x="698.046875"/>
      <use xlink:href="#DejaVuSans-6c" x="748.046875"/>
      <use xlink:href="#DejaVuSans-6f" x="775.830078"/>
      <use xlink:href="#DejaVuSans-73" x="837.011719"/>
      <use xlink:href="#DejaVuSans-73" x="889.111328"/>
     </g>
    </g>
   </g>
  </g>
 </g>
 <defs>
  <clipPath id="p8c8c847901">
   <rect x="57.6" y="41.472" width="357.12" height="266.112"/>
  </clipPath>
 </defs>
</svg>
