<?xml version="1.0" encoding="utf-8" standalone="no"?>
<!DOCTYPE svg PUBLIC "-//W3C//DTD SVG 1.1//EN"
  "http://www.w3.org/Graphics/SVG/1.1/DTD/svg11.dtd">
<svg xmlns:xlink="http://www.w3.org/1999/xlink" width="460.8pt" height="345.6pt" viewBox="0 0 460.8 345.6" xmlns="http://www.w3.org/2000/svg" version="1.1">
 <metadata>
  <rdf:RDF xmlns:dc="http://purl.org/dc/elements/1.1/" xmlns:cc="http://creativecommons.org/ns#" xmlns:rdf="http://www.w3.org/1999/02/22-rdf-syntax-ns#">
   <cc:Work>
    <dc:type rdf:resource="http://purl.org/dc/dcmitype/StillImage"/>
    <dc:date>2025-02-19T00:11:38.884431</dc:date>
    <dc:format>image/svg+xml</dc:format>
    <dc:creator>
     <cc:Agent>
      <dc:title>Matplotlib v3.8.4, https://matplotlib.org/</dc:title>
     </cc:Agent>
    </dc:creator>
   </cc:Work>
  </rdf:RDF>
 </metadata>
 <defs>
  <style type="text/css">*{stroke-linejoin: round; stroke-linecap: butt}</style>
 </defs>
 <g id="figure_1">
  <g id="patch_1">
   <path d="M 0 345.6 
L 460.8 345.6 
L 460.8 0 
L 0 0 
z
" style="fill: #ffffff"/>
  </g>
  <g id="axes_1">
   <g id="patch_2">
    <path d="M 57.6 307.584 
L 414.72 307.584 
L 414.72 41.472 
L 57.6 41.472 
z
" style="fill: #ffffff"/>
   </g>
   <g id="matplotlib.axis_1">
    <g id="xtick_1">
     <g id="line2d_1">
      <defs>
       <path id="m7835879392" d="M 0 0 
L 0 3.5 
" style="stroke: #000000; stroke-width: 0.8"/>
      </defs>
      <g>
       <use xlink:href="#m7835879392" x="73.820177" y="307.584" style="stroke: #000000; stroke-width: 0.8"/>
      </g>
     </g>
     <g id="text_1">
      <!-- 0 -->
      <g transform="translate(70.638927 322.182437) scale(0.1 -0.1)">
       <defs>
        <path id="DejaVuSans-30" d="M 2034 4250 
Q 1547 4250 1301 3770 
Q 1056 3291 1056 2328 
Q 1056 1369 1301 889 
Q 1547 409 2034 409 
Q 2525 409 2770 889 
Q 3016 1369 3016 2328 
Q 3016 3291 2770 3770 
Q 2525 4250 2034 4250 
z
M 2034 4750 
Q 2819 4750 3233 4129 
Q 3647 3509 3647 2328 
Q 3647 1150 3233 529 
Q 2819 -91 2034 -91 
Q 1250 -91 836 529 
Q 422 1150 422 2328 
Q 422 3509 836 4129 
Q 1250 4750 2034 4750 
z
" transform="scale(0.015625)"/>
       </defs>
       <use xlink:href="#DejaVuSans-30"/>
      </g>
     </g>
    </g>
    <g id="xtick_2">
     <g id="line2d_2">
      <g>
       <use xlink:href="#m7835879392" x="136.572331" y="307.584" style="stroke: #000000; stroke-width: 0.8"/>
      </g>
     </g>
     <g id="text_2">
      <!-- 5000 -->
      <g transform="translate(123.847331 322.182437) scale(0.1 -0.1)">
       <defs>
        <path id="DejaVuSans-35" d="M 691 4666 
L 3169 4666 
L 3169 4134 
L 1269 4134 
L 1269 2991 
Q 1406 3038 1543 3061 
Q 1681 3084 1819 3084 
Q 2600 3084 3056 2656 
Q 3513 2228 3513 1497 
Q 3513 744 3044 326 
Q 2575 -91 1722 -91 
Q 1428 -91 1123 -41 
Q 819 9 494 109 
L 494 744 
Q 775 591 1075 516 
Q 1375 441 1709 441 
Q 2250 441 2565 725 
Q 2881 1009 2881 1497 
Q 2881 1984 2565 2268 
Q 2250 2553 1709 2553 
Q 1456 2553 1204 2497 
Q 953 2441 691 2322 
L 691 4666 
z
" transform="scale(0.015625)"/>
       </defs>
       <use xlink:href="#DejaVuSans-35"/>
       <use xlink:href="#DejaVuSans-30" x="63.623047"/>
       <use xlink:href="#DejaVuSans-30" x="127.246094"/>
       <use xlink:href="#DejaVuSans-30" x="190.869141"/>
      </g>
     </g>
    </g>
    <g id="xtick_3">
     <g id="line2d_3">
      <g>
       <use xlink:href="#m7835879392" x="199.324485" y="307.584" style="stroke: #000000; stroke-width: 0.8"/>
      </g>
     </g>
     <g id="text_3">
      <!-- 10000 -->
      <g transform="translate(183.418235 322.182437) scale(0.1 -0.1)">
       <defs>
        <path id="DejaVuSans-31" d="M 794 531 
L 1825 531 
L 1825 4091 
L 703 3866 
L 703 4441 
L 1819 4666 
L 2450 4666 
L 2450 531 
L 3481 531 
L 3481 0 
L 794 0 
L 794 531 
z
" transform="scale(0.015625)"/>
       </defs>
       <use xlink:href="#DejaVuSans-31"/>
       <use xlink:href="#DejaVuSans-30" x="63.623047"/>
       <use xlink:href="#DejaVuSans-30" x="127.246094"/>
       <use xlink:href="#DejaVuSans-30" x="190.869141"/>
       <use xlink:href="#DejaVuSans-30" x="254.492188"/>
      </g>
     </g>
    </g>
    <g id="xtick_4">
     <g id="line2d_4">
      <g>
       <use xlink:href="#m7835879392" x="262.07664" y="307.584" style="stroke: #000000; stroke-width: 0.8"/>
      </g>
     </g>
     <g id="text_4">
      <!-- 15000 -->
      <g transform="translate(246.17039 322.182437) scale(0.1 -0.1)">
       <use xlink:href="#DejaVuSans-31"/>
       <use xlink:href="#DejaVuSans-35" x="63.623047"/>
       <use xlink:href="#DejaVuSans-30" x="127.246094"/>
       <use xlink:href="#DejaVuSans-30" x="190.869141"/>
       <use xlink:href="#DejaVuSans-30" x="254.492188"/>
      </g>
     </g>
    </g>
    <g id="xtick_5">
     <g id="line2d_5">
      <g>
       <use xlink:href="#m7835879392" x="324.828794" y="307.584" style="stroke: #000000; stroke-width: 0.8"/>
      </g>
     </g>
     <g id="text_5">
      <!-- 20000 -->
      <g transform="translate(308.922544 322.182437) scale(0.1 -0.1)">
       <defs>
        <path id="DejaVuSans-32" d="M 1228 531 
L 3431 531 
L 3431 0 
L 469 0 
L 469 531 
Q 828 903 1448 1529 
Q 2069 2156 2228 2338 
Q 2531 2678 2651 2914 
Q 2772 3150 2772 3378 
Q 2772 3750 2511 3984 
Q 2250 4219 1831 4219 
Q 1534 4219 1204 4116 
Q 875 4013 500 3803 
L 500 4441 
Q 881 4594 1212 4672 
Q 1544 4750 1819 4750 
Q 2544 4750 2975 4387 
Q 3406 4025 3406 3419 
Q 3406 3131 3298 2873 
Q 3191 2616 2906 2266 
Q 2828 2175 2409 1742 
Q 1991 1309 1228 531 
z
" transform="scale(0.015625)"/>
       </defs>
       <use xlink:href="#DejaVuSans-32"/>
       <use xlink:href="#DejaVuSans-30" x="63.623047"/>
       <use xlink:href="#DejaVuSans-30" x="127.246094"/>
       <use xlink:href="#DejaVuSans-30" x="190.869141"/>
       <use xlink:href="#DejaVuSans-30" x="254.492188"/>
      </g>
     </g>
    </g>
    <g id="xtick_6">
     <g id="line2d_6">
      <g>
       <use xlink:href="#m7835879392" x="387.580948" y="307.584" style="stroke: #000000; stroke-width: 0.8"/>
      </g>
     </g>
     <g id="text_6">
      <!-- 25000 -->
      <g transform="translate(371.674698 322.182437) scale(0.1 -0.1)">
       <use xlink:href="#DejaVuSans-32"/>
       <use xlink:href="#DejaVuSans-35" x="63.623047"/>
       <use xlink:href="#DejaVuSans-30" x="127.246094"/>
       <use xlink:href="#DejaVuSans-30" x="190.869141"/>
       <use xlink:href="#DejaVuSans-30" x="254.492188"/>
      </g>
     </g>
    </g>
    <g id="text_7">
     <!-- iter# -->
     <g transform="translate(223.488906 335.860562) scale(0.1 -0.1)">
      <defs>
       <path id="DejaVuSans-69" d="M 603 3500 
L 1178 3500 
L 1178 0 
L 603 0 
L 603 3500 
z
M 603 4863 
L 1178 4863 
L 1178 4134 
L 603 4134 
L 603 4863 
z
" transform="scale(0.015625)"/>
       <path id="DejaVuSans-74" d="M 1172 4494 
L 1172 3500 
L 2356 3500 
L 2356 3053 
L 1172 3053 
L 1172 1153 
Q 1172 725 1289 603 
Q 1406 481 1766 481 
L 2356 481 
L 2356 0 
L 1766 0 
Q 1100 0 847 248 
Q 594 497 594 1153 
L 594 3053 
L 172 3053 
L 172 3500 
L 594 3500 
L 594 4494 
L 1172 4494 
z
" transform="scale(0.015625)"/>
       <path id="DejaVuSans-65" d="M 3597 1894 
L 3597 1613 
L 953 1613 
Q 991 1019 1311 708 
Q 1631 397 2203 397 
Q 2534 397 2845 478 
Q 3156 559 3463 722 
L 3463 178 
Q 3153 47 2828 -22 
Q 2503 -91 2169 -91 
Q 1331 -91 842 396 
Q 353 884 353 1716 
Q 353 2575 817 3079 
Q 1281 3584 2069 3584 
Q 2775 3584 3186 3129 
Q 3597 2675 3597 1894 
z
M 3022 2063 
Q 3016 2534 2758 2815 
Q 2500 3097 2075 3097 
Q 1594 3097 1305 2825 
Q 1016 2553 972 2059 
L 3022 2063 
z
" transform="scale(0.015625)"/>
       <path id="DejaVuSans-72" d="M 2631 2963 
Q 2534 3019 2420 3045 
Q 2306 3072 2169 3072 
Q 1681 3072 1420 2755 
Q 1159 2438 1159 1844 
L 1159 0 
L 581 0 
L 581 3500 
L 1159 3500 
L 1159 2956 
Q 1341 3275 1631 3429 
Q 1922 3584 2338 3584 
Q 2397 3584 2469 3576 
Q 2541 3569 2628 3553 
L 2631 2963 
z
" transform="scale(0.015625)"/>
       <path id="DejaVuSans-23" d="M 3272 2816 
L 2363 2816 
L 2100 1772 
L 3016 1772 
L 3272 2816 
z
M 2803 4594 
L 2478 3297 
L 3391 3297 
L 3719 4594 
L 4219 4594 
L 3897 3297 
L 4872 3297 
L 4872 2816 
L 3775 2816 
L 3519 1772 
L 4513 1772 
L 4513 1294 
L 3397 1294 
L 3072 0 
L 2572 0 
L 2894 1294 
L 1978 1294 
L 1656 0 
L 1153 0 
L 1478 1294 
L 494 1294 
L 494 1772 
L 1594 1772 
L 1856 2816 
L 850 2816 
L 850 3297 
L 1978 3297 
L 2297 4594 
L 2803 4594 
z
" transform="scale(0.015625)"/>
      </defs>
      <use xlink:href="#DejaVuSans-69"/>
      <use xlink:href="#DejaVuSans-74" x="27.783203"/>
      <use xlink:href="#DejaVuSans-65" x="66.992188"/>
      <use xlink:href="#DejaVuSans-72" x="128.515625"/>
      <use xlink:href="#DejaVuSans-23" x="169.628906"/>
     </g>
    </g>
   </g>
   <g id="matplotlib.axis_2">
    <g id="ytick_1">
     <g id="line2d_7">
      <defs>
       <path id="m34a78b6582" d="M 0 0 
L -3.5 0 
" style="stroke: #000000; stroke-width: 0.8"/>
      </defs>
      <g>
       <use xlink:href="#m34a78b6582" x="57.6" y="282.904445" style="stroke: #000000; stroke-width: 0.8"/>
      </g>
     </g>
     <g id="text_8">
      <!-- $\mathdefault{10^{-2}}$ -->
      <g transform="translate(27.1 286.703664) scale(0.1 -0.1)">
       <defs>
        <path id="DejaVuSans-2212" d="M 678 2272 
L 4684 2272 
L 4684 1741 
L 678 1741 
L 678 2272 
z
" transform="scale(0.015625)"/>
       </defs>
       <use xlink:href="#DejaVuSans-31" transform="translate(0 0.765625)"/>
       <use xlink:href="#DejaVuSans-30" transform="translate(63.623047 0.765625)"/>
       <use xlink:href="#DejaVuSans-2212" transform="translate(128.203125 39.046875) scale(0.7)"/>
       <use xlink:href="#DejaVuSans-32" transform="translate(186.855469 39.046875) scale(0.7)"/>
      </g>
     </g>
    </g>
    <g id="ytick_2">
     <g id="line2d_8">
      <g>
       <use xlink:href="#m34a78b6582" x="57.6" y="211.745846" style="stroke: #000000; stroke-width: 0.8"/>
      </g>
     </g>
     <g id="text_9">
      <!-- $\mathdefault{10^{-1}}$ -->
      <g transform="translate(27.1 215.545064) scale(0.1 -0.1)">
       <use xlink:href="#DejaVuSans-31" transform="translate(0 0.684375)"/>
       <use xlink:href="#DejaVuSans-30" transform="translate(63.623047 0.684375)"/>
       <use xlink:href="#DejaVuSans-2212" transform="translate(128.203125 38.965625) scale(0.7)"/>
       <use xlink:href="#DejaVuSans-31" transform="translate(186.855469 38.965625) scale(0.7)"/>
      </g>
     </g>
    </g>
    <g id="ytick_3">
     <g id="line2d_9">
      <g>
       <use xlink:href="#m34a78b6582" x="57.6" y="140.587246" style="stroke: #000000; stroke-width: 0.8"/>
      </g>
     </g>
     <g id="text_10">
      <!-- $\mathdefault{10^{0}}$ -->
      <g transform="translate(33 144.386465) scale(0.1 -0.1)">
       <use xlink:href="#DejaVuSans-31" transform="translate(0 0.765625)"/>
       <use xlink:href="#DejaVuSans-30" transform="translate(63.623047 0.765625)"/>
       <use xlink:href="#DejaVuSans-30" transform="translate(128.203125 39.046875) scale(0.7)"/>
      </g>
     </g>
    </g>
    <g id="ytick_4">
     <g id="line2d_10">
      <g>
       <use xlink:href="#m34a78b6582" x="57.6" y="69.428647" style="stroke: #000000; stroke-width: 0.8"/>
      </g>
     </g>
     <g id="text_11">
      <!-- $\mathdefault{10^{1}}$ -->
      <g transform="translate(33 73.227866) scale(0.1 -0.1)">
       <use xlink:href="#DejaVuSans-31" transform="translate(0 0.684375)"/>
       <use xlink:href="#DejaVuSans-30" transform="translate(63.623047 0.684375)"/>
       <use xlink:href="#DejaVuSans-31" transform="translate(128.203125 38.965625) scale(0.7)"/>
      </g>
     </g>
    </g>
    <g id="ytick_5">
     <g id="line2d_11">
      <defs>
       <path id="md657e98038" d="M 0 0 
L -2 0 
" style="stroke: #000000; stroke-width: 0.6"/>
      </defs>
      <g>
       <use xlink:href="#md657e98038" x="57.6" y="304.325318" style="stroke: #000000; stroke-width: 0.6"/>
      </g>
     </g>
    </g>
    <g id="ytick_6">
     <g id="line2d_12">
      <g>
       <use xlink:href="#md657e98038" x="57.6" y="298.690891" style="stroke: #000000; stroke-width: 0.6"/>
      </g>
     </g>
    </g>
    <g id="ytick_7">
     <g id="line2d_13">
      <g>
       <use xlink:href="#md657e98038" x="57.6" y="293.927051" style="stroke: #000000; stroke-width: 0.6"/>
      </g>
     </g>
    </g>
    <g id="ytick_8">
     <g id="line2d_14">
      <g>
       <use xlink:href="#md657e98038" x="57.6" y="289.800426" style="stroke: #000000; stroke-width: 0.6"/>
      </g>
     </g>
    </g>
    <g id="ytick_9">
     <g id="line2d_15">
      <g>
       <use xlink:href="#md657e98038" x="57.6" y="286.160484" style="stroke: #000000; stroke-width: 0.6"/>
      </g>
     </g>
    </g>
    <g id="ytick_10">
     <g id="line2d_16">
      <g>
       <use xlink:href="#md657e98038" x="57.6" y="261.483572" style="stroke: #000000; stroke-width: 0.6"/>
      </g>
     </g>
    </g>
    <g id="ytick_11">
     <g id="line2d_17">
      <g>
       <use xlink:href="#md657e98038" x="57.6" y="248.953165" style="stroke: #000000; stroke-width: 0.6"/>
      </g>
     </g>
    </g>
    <g id="ytick_12">
     <g id="line2d_18">
      <g>
       <use xlink:href="#md657e98038" x="57.6" y="240.062699" style="stroke: #000000; stroke-width: 0.6"/>
      </g>
     </g>
    </g>
    <g id="ytick_13">
     <g id="line2d_19">
      <g>
       <use xlink:href="#md657e98038" x="57.6" y="233.166718" style="stroke: #000000; stroke-width: 0.6"/>
      </g>
     </g>
    </g>
    <g id="ytick_14">
     <g id="line2d_20">
      <g>
       <use xlink:href="#md657e98038" x="57.6" y="227.532292" style="stroke: #000000; stroke-width: 0.6"/>
      </g>
     </g>
    </g>
    <g id="ytick_15">
     <g id="line2d_21">
      <g>
       <use xlink:href="#md657e98038" x="57.6" y="222.768452" style="stroke: #000000; stroke-width: 0.6"/>
      </g>
     </g>
    </g>
    <g id="ytick_16">
     <g id="line2d_22">
      <g>
       <use xlink:href="#md657e98038" x="57.6" y="218.641826" style="stroke: #000000; stroke-width: 0.6"/>
      </g>
     </g>
    </g>
    <g id="ytick_17">
     <g id="line2d_23">
      <g>
       <use xlink:href="#md657e98038" x="57.6" y="215.001885" style="stroke: #000000; stroke-width: 0.6"/>
      </g>
     </g>
    </g>
    <g id="ytick_18">
     <g id="line2d_24">
      <g>
       <use xlink:href="#md657e98038" x="57.6" y="190.324973" style="stroke: #000000; stroke-width: 0.6"/>
      </g>
     </g>
    </g>
    <g id="ytick_19">
     <g id="line2d_25">
      <g>
       <use xlink:href="#md657e98038" x="57.6" y="177.794565" style="stroke: #000000; stroke-width: 0.6"/>
      </g>
     </g>
    </g>
    <g id="ytick_20">
     <g id="line2d_26">
      <g>
       <use xlink:href="#md657e98038" x="57.6" y="168.9041" style="stroke: #000000; stroke-width: 0.6"/>
      </g>
     </g>
    </g>
    <g id="ytick_21">
     <g id="line2d_27">
      <g>
       <use xlink:href="#md657e98038" x="57.6" y="162.008119" style="stroke: #000000; stroke-width: 0.6"/>
      </g>
     </g>
    </g>
    <g id="ytick_22">
     <g id="line2d_28">
      <g>
       <use xlink:href="#md657e98038" x="57.6" y="156.373693" style="stroke: #000000; stroke-width: 0.6"/>
      </g>
     </g>
    </g>
    <g id="ytick_23">
     <g id="line2d_29">
      <g>
       <use xlink:href="#md657e98038" x="57.6" y="151.609853" style="stroke: #000000; stroke-width: 0.6"/>
      </g>
     </g>
    </g>
    <g id="ytick_24">
     <g id="line2d_30">
      <g>
       <use xlink:href="#md657e98038" x="57.6" y="147.483227" style="stroke: #000000; stroke-width: 0.6"/>
      </g>
     </g>
    </g>
    <g id="ytick_25">
     <g id="line2d_31">
      <g>
       <use xlink:href="#md657e98038" x="57.6" y="143.843285" style="stroke: #000000; stroke-width: 0.6"/>
      </g>
     </g>
    </g>
    <g id="ytick_26">
     <g id="line2d_32">
      <g>
       <use xlink:href="#md657e98038" x="57.6" y="119.166373" style="stroke: #000000; stroke-width: 0.6"/>
      </g>
     </g>
    </g>
    <g id="ytick_27">
     <g id="line2d_33">
      <g>
       <use xlink:href="#md657e98038" x="57.6" y="106.635966" style="stroke: #000000; stroke-width: 0.6"/>
      </g>
     </g>
    </g>
    <g id="ytick_28">
     <g id="line2d_34">
      <g>
       <use xlink:href="#md657e98038" x="57.6" y="97.745501" style="stroke: #000000; stroke-width: 0.6"/>
      </g>
     </g>
    </g>
    <g id="ytick_29">
     <g id="line2d_35">
      <g>
       <use xlink:href="#md657e98038" x="57.6" y="90.84952" style="stroke: #000000; stroke-width: 0.6"/>
      </g>
     </g>
    </g>
    <g id="ytick_30">
     <g id="line2d_36">
      <g>
       <use xlink:href="#md657e98038" x="57.6" y="85.215093" style="stroke: #000000; stroke-width: 0.6"/>
      </g>
     </g>
    </g>
    <g id="ytick_31">
     <g id="line2d_37">
      <g>
       <use xlink:href="#md657e98038" x="57.6" y="80.451253" style="stroke: #000000; stroke-width: 0.6"/>
      </g>
     </g>
    </g>
    <g id="ytick_32">
     <g id="line2d_38">
      <g>
       <use xlink:href="#md657e98038" x="57.6" y="76.324628" style="stroke: #000000; stroke-width: 0.6"/>
      </g>
     </g>
    </g>
    <g id="ytick_33">
     <g id="line2d_39">
      <g>
       <use xlink:href="#md657e98038" x="57.6" y="72.684686" style="stroke: #000000; stroke-width: 0.6"/>
      </g>
     </g>
    </g>
    <g id="ytick_34">
     <g id="line2d_40">
      <g>
       <use xlink:href="#md657e98038" x="57.6" y="48.007774" style="stroke: #000000; stroke-width: 0.6"/>
      </g>
     </g>
    </g>
    <g id="text_12">
     <!-- loss -->
     <g transform="translate(21.020313 184.185812) rotate(-90) scale(0.1 -0.1)">
      <defs>
       <path id="DejaVuSans-6c" d="M 603 4863 
L 1178 4863 
L 1178 0 
L 603 0 
L 603 4863 
z
" transform="scale(0.015625)"/>
       <path id="DejaVuSans-6f" d="M 1959 3097 
Q 1497 3097 1228 2736 
Q 959 2375 959 1747 
Q 959 1119 1226 758 
Q 1494 397 1959 397 
Q 2419 397 2687 759 
Q 2956 1122 2956 1747 
Q 2956 2369 2687 2733 
Q 2419 3097 1959 3097 
z
M 1959 3584 
Q 2709 3584 3137 3096 
Q 3566 2609 3566 1747 
Q 3566 888 3137 398 
Q 2709 -91 1959 -91 
Q 1206 -91 779 398 
Q 353 888 353 1747 
Q 353 2609 779 3096 
Q 1206 3584 1959 3584 
z
" transform="scale(0.015625)"/>
       <path id="DejaVuSans-73" d="M 2834 3397 
L 2834 2853 
Q 2591 2978 2328 3040 
Q 2066 3103 1784 3103 
Q 1356 3103 1142 2972 
Q 928 2841 928 2578 
Q 928 2378 1081 2264 
Q 1234 2150 1697 2047 
L 1894 2003 
Q 2506 1872 2764 1633 
Q 3022 1394 3022 966 
Q 3022 478 2636 193 
Q 2250 -91 1575 -91 
Q 1294 -91 989 -36 
Q 684 19 347 128 
L 347 722 
Q 666 556 975 473 
Q 1284 391 1588 391 
Q 1994 391 2212 530 
Q 2431 669 2431 922 
Q 2431 1156 2273 1281 
Q 2116 1406 1581 1522 
L 1381 1569 
Q 847 1681 609 1914 
Q 372 2147 372 2553 
Q 372 3047 722 3315 
Q 1072 3584 1716 3584 
Q 2034 3584 2315 3537 
Q 2597 3491 2834 3397 
z
" transform="scale(0.015625)"/>
      </defs>
      <use xlink:href="#DejaVuSans-6c"/>
      <use xlink:href="#DejaVuSans-6f" x="27.783203"/>
      <use xlink:href="#DejaVuSans-73" x="88.964844"/>
      <use xlink:href="#DejaVuSans-73" x="141.064453"/>
     </g>
    </g>
   </g>
   <g id="line2d_41">
    <path d="M 73.832727 53.568 
L 74.635955 85.612086 
L 75.439182 109.681425 
L 77.045638 148.425786 
L 78.652093 181.405397 
L 79.45532 188.786697 
L 80.258548 201.287893 
L 81.061775 207.167352 
L 81.865003 204.770918 
L 82.668231 207.558046 
L 83.471458 211.893214 
L 84.274686 219.806924 
L 85.077913 221.06503 
L 85.881141 205.801949 
L 86.684368 212.932191 
L 87.487596 213.731449 
L 89.094051 224.536504 
L 89.897279 227.694335 
L 90.700506 223.496777 
L 91.503734 218.686109 
L 92.306961 221.34599 
L 93.110189 226.894645 
L 93.913417 219.921416 
L 94.716644 218.303379 
L 95.519872 212.401826 
L 96.323099 221.539567 
L 97.126327 220.299946 
L 97.929555 195.956892 
L 98.732782 211.67049 
L 99.53601 218.079506 
L 99.749367 224.046641 
L 100.552595 218.241847 
L 101.355822 220.917824 
L 102.15905 233.484828 
L 103.765505 245.810963 
L 104.568732 227.851615 
L 105.37196 235.977702 
L 106.175188 222.713018 
L 106.978415 230.921479 
L 107.781643 214.097454 
L 108.58487 224.695039 
L 109.388098 214.090346 
L 110.191325 222.919285 
L 110.994553 234.100608 
L 111.797781 237.83473 
L 112.601008 243.099334 
L 113.404236 229.7215 
L 114.207463 194.299769 
L 115.010691 207.074772 
L 115.813918 222.916496 
L 116.617146 234.642225 
L 117.420374 238.525471 
L 118.223601 239.060235 
L 119.026829 210.173829 
L 119.830056 213.771814 
L 120.633284 218.61859 
L 121.436512 219.706667 
L 122.239739 207.088492 
L 123.042967 218.553956 
L 123.846194 202.721518 
L 124.649422 205.329984 
L 125.452649 221.003158 
L 125.666007 229.062509 
L 126.469234 237.333919 
L 127.272462 246.772413 
L 128.075689 231.965542 
L 128.878917 242.297609 
L 129.682145 236.092979 
L 130.485372 234.472263 
L 131.2886 228.147654 
L 132.091827 225.761314 
L 132.895055 209.146306 
L 133.698282 224.477105 
L 134.50151 204.01213 
L 135.304738 219.134842 
L 136.107965 226.187913 
L 136.911193 226.419632 
L 137.71442 223.024248 
L 138.517648 235.446931 
L 139.320875 211.53506 
L 140.124103 207.096257 
L 140.927331 217.969808 
L 141.730558 232.937941 
L 142.533786 211.550478 
L 143.337013 221.395433 
L 144.140241 213.429444 
L 144.943469 207.839605 
L 145.746696 203.308467 
L 146.549924 218.768468 
L 147.353151 224.44057 
L 148.156379 218.427905 
L 149.762834 227.824763 
L 150.566062 209.944087 
L 151.369289 212.302818 
L 152.385874 230.01942 
L 153.189102 237.154213 
L 153.992329 241.539178 
L 154.795557 232.509725 
L 155.598784 242.784865 
L 156.402012 246.797432 
L 157.205239 244.821623 
L 158.008467 251.266782 
L 158.811695 219.445579 
L 159.614922 207.018508 
L 161.221377 224.925095 
L 162.024605 238.125158 
L 162.827832 220.854222 
L 163.63106 209.442891 
L 164.434288 225.882738 
L 165.237515 226.56042 
L 166.040743 220.253153 
L 166.84397 218.767322 
L 167.647198 233.309298 
L 168.450426 233.216926 
L 169.253653 245.496015 
L 170.056881 244.199194 
L 170.860108 240.025153 
L 171.663336 226.215432 
L 172.466563 231.814012 
L 173.269791 227.762704 
L 174.073019 228.304766 
L 174.876246 210.484215 
L 175.679474 224.845297 
L 176.482701 231.585527 
L 177.285929 231.969476 
L 177.499286 231.26377 
L 178.302514 235.427128 
L 179.105741 247.94082 
L 179.908969 241.919716 
L 180.712196 237.130354 
L 181.515424 243.497999 
L 182.318652 244.023779 
L 183.121879 242.902863 
L 184.728334 235.067836 
L 185.531562 237.3252 
L 186.334789 242.7343 
L 187.138017 216.553481 
L 187.941245 214.759592 
L 189.5477 241.701879 
L 190.350927 245.430803 
L 191.154155 216.409804 
L 191.957383 228.845721 
L 192.76061 222.528393 
L 193.563838 218.065023 
L 195.170293 245.212278 
L 195.97352 251.283109 
L 196.776748 249.141434 
L 197.579976 246.261071 
L 198.383203 246.606299 
L 199.186431 249.945989 
L 199.989658 245.504959 
L 200.792886 234.695018 
L 201.596113 227.254187 
L 202.399341 228.435361 
L 203.202569 234.350487 
L 203.415926 225.928265 
L 204.219153 242.189418 
L 205.022381 252.054767 
L 206.628836 235.659416 
L 207.432064 224.832439 
L 208.235291 238.628395 
L 209.038519 242.215258 
L 209.841746 223.005409 
L 210.644974 214.401961 
L 211.448202 226.980527 
L 212.251429 216.290016 
L 213.054657 218.53916 
L 213.857884 226.540704 
L 214.661112 230.853169 
L 215.46434 236.572589 
L 216.267567 237.114361 
L 217.070795 203.254462 
L 217.874022 218.492516 
L 218.67725 228.259291 
L 219.480477 230.318423 
L 220.283705 229.780019 
L 221.086933 243.525947 
L 221.89016 246.25805 
L 222.693388 250.224232 
L 223.496615 245.326771 
L 224.299843 252.628033 
L 225.10307 230.897564 
L 225.906298 225.725569 
L 226.709526 233.827752 
L 227.512753 244.199373 
L 228.315981 248.320902 
L 229.119208 263.515588 
L 229.332566 256.893348 
L 230.135793 268.204231 
L 230.939021 247.662343 
L 231.742248 261.060806 
L 232.545476 234.749013 
L 233.348703 222.819555 
L 234.151931 230.760044 
L 234.955159 247.88288 
L 235.758386 256.79892 
L 236.561614 242.15194 
L 237.364841 225.043015 
L 238.971297 257.147376 
L 239.774524 263.76951 
L 240.577752 256.052138 
L 241.380979 231.212037 
L 242.184207 233.566624 
L 242.987434 234.715049 
L 243.790662 250.32403 
L 244.59389 216.848174 
L 246.200345 247.877232 
L 247.003572 258.660343 
L 248.610027 253.608639 
L 249.413255 233.519674 
L 250.216483 232.196603 
L 251.01971 240.613658 
L 251.822938 244.132839 
L 252.626165 249.681898 
L 253.429393 234.001694 
L 254.23262 221.734992 
L 255.035848 221.119527 
L 255.249205 226.641163 
L 256.052433 234.946147 
L 256.85566 249.654103 
L 257.658888 252.471301 
L 258.462116 262.834351 
L 259.265343 276.165594 
L 260.068571 270.984396 
L 260.871798 249.397983 
L 261.675026 249.101285 
L 262.478254 263.438185 
L 263.281481 265.4323 
L 264.084709 260.119941 
L 264.887936 258.735024 
L 265.691164 269.937612 
L 266.494391 268.27511 
L 267.297619 256.627007 
L 268.100847 270.335814 
L 268.904074 234.639747 
L 269.707302 247.837969 
L 270.510529 249.26204 
L 271.313757 252.046191 
L 272.116984 252.523258 
L 272.920212 245.086539 
L 273.72344 244.805435 
L 274.526667 236.700286 
L 275.329895 250.08844 
L 276.133122 258.227515 
L 276.93635 235.652244 
L 277.739577 251.109529 
L 278.542805 248.31759 
L 279.346033 241.365977 
L 280.14926 241.30337 
L 280.952488 228.457564 
L 281.165845 227.689382 
L 281.969073 236.413444 
L 282.7723 251.754085 
L 283.575528 249.867285 
L 284.378755 254.269808 
L 285.181983 261.25021 
L 285.985211 250.770544 
L 286.788438 252.420865 
L 287.591666 227.68524 
L 288.394893 239.423849 
L 289.198121 236.488398 
L 290.804576 268.643433 
L 291.607804 279.281033 
L 292.411031 253.197294 
L 293.214259 262.516921 
L 294.017486 267.155579 
L 294.820714 265.361516 
L 295.623941 272.348681 
L 296.427169 275.533416 
L 297.230397 267.516219 
L 298.033624 224.892631 
L 298.836852 238.465533 
L 299.640079 239.419812 
L 300.443307 242.744218 
L 301.246534 252.47819 
L 302.049762 254.592869 
L 302.85299 265.949349 
L 303.656217 240.319084 
L 304.459445 245.881856 
L 305.262672 233.674341 
L 306.869127 249.369182 
L 307.082485 260.507956 
L 307.885712 269.561664 
L 308.68894 281.10718 
L 309.492168 290.946759 
L 310.295395 281.97938 
L 311.098623 283.49885 
L 311.90185 253.013929 
L 312.705078 268.995027 
L 313.508305 267.812597 
L 314.311533 234.167849 
L 315.114761 251.155039 
L 315.917988 258.9639 
L 317.524443 281.397059 
L 318.327671 276.180698 
L 319.130898 259.637701 
L 319.934126 258.336104 
L 320.737354 250.011139 
L 321.540581 251.301773 
L 322.343809 266.180939 
L 323.147036 278.696554 
L 323.950264 282.346905 
L 324.753491 275.612333 
L 325.556719 262.630058 
L 326.359947 258.32018 
L 327.966402 276.438743 
L 328.769629 282.153097 
L 329.572857 255.81659 
L 331.179312 283.626149 
L 331.98254 257.255019 
L 332.785767 256.073552 
L 332.999125 253.378343 
L 333.802352 261.169632 
L 334.60558 275.043977 
L 335.408807 285.417086 
L 336.212035 293.10903 
L 337.015262 295.488 
L 337.81849 281.603044 
L 338.621718 257.202408 
L 339.424945 259.629402 
L 340.228173 257.993423 
L 341.0314 267.08394 
L 341.834628 255.687871 
L 342.637855 265.470484 
L 343.441083 256.167344 
L 344.244311 236.630524 
L 345.850766 271.012171 
L 346.653993 277.141092 
L 347.457221 261.355674 
L 348.260448 264.080409 
L 349.063676 268.854031 
L 349.866904 230.192515 
L 351.473359 260.452085 
L 352.276586 255.594777 
L 353.079814 259.903202 
L 353.883041 257.521275 
L 354.686269 229.986299 
L 355.489497 237.589756 
L 356.292724 242.615911 
L 357.095952 257.807077 
L 357.899179 260.548411 
L 358.702407 274.394098 
L 358.915764 286.66484 
L 359.718992 284.355137 
L 360.522219 293.620093 
L 361.325447 280.747113 
L 362.128675 283.788035 
L 362.931902 288.389586 
L 363.73513 290.150985 
L 364.538357 230.23882 
L 366.144812 264.904443 
L 366.94804 278.405533 
L 367.751268 281.283577 
L 368.554495 289.135891 
L 369.357723 271.337422 
L 370.16095 270.369586 
L 370.964178 266.64808 
L 371.767405 260.292313 
L 372.570633 276.222507 
L 373.373861 264.362226 
L 374.177088 257.529071 
L 374.980316 242.407788 
L 375.783543 257.28284 
L 376.586771 269.403355 
L 377.389998 260.733476 
L 378.193226 243.981097 
L 378.996454 251.829202 
L 379.799681 245.689052 
L 380.602909 248.682612 
L 381.406136 265.065866 
L 382.209364 269.149332 
L 383.012591 251.978965 
L 383.815819 268.431256 
L 384.619047 253.014258 
L 384.832404 263.464128 
L 385.635632 278.11054 
L 386.438859 272.548654 
L 387.242087 284.177355 
L 388.045314 289.353152 
L 388.848542 264.458155 
L 389.651769 265.54487 
L 390.454997 269.205495 
L 391.258225 283.032964 
L 392.061452 293.193708 
L 392.86468 286.519467 
L 393.667907 284.394122 
L 394.471135 248.872811 
L 395.274362 264.124916 
L 396.07759 276.684887 
L 396.880818 273.695364 
L 397.684045 276.253753 
L 398.487273 278.399874 
L 398.487273 278.399874 
" clip-path="url(#pc7e4479c9e)" style="fill: none; stroke: #1f77b4; stroke-opacity: 0.9; stroke-linecap: square"/>
   </g>
   <g id="line2d_42">
    <path d="M 73.832727 123.590442 
L 74.635955 148.090313 
L 75.439182 167.710711 
L 76.24241 179.140868 
L 77.045638 193.215802 
L 77.848865 199.463471 
L 78.652093 208.359267 
L 79.45532 212.26324 
L 80.258548 215.166961 
L 81.061775 216.206835 
L 81.865003 220.329677 
L 83.471458 233.492022 
L 84.274686 228.735877 
L 85.077913 234.15515 
L 85.881141 232.480935 
L 86.684368 225.08119 
L 87.487596 226.124914 
L 88.290824 225.907167 
L 89.897279 232.639284 
L 90.700506 231.154468 
L 91.503734 230.492394 
L 92.306961 233.232776 
L 93.110189 236.733541 
L 93.913417 240.762094 
L 94.716644 232.668442 
L 95.519872 237.210864 
L 96.323099 238.536393 
L 97.126327 234.010968 
L 97.929555 238.464637 
L 98.732782 244.845213 
L 99.53601 230.397551 
L 99.749367 222.215031 
L 100.552595 221.158496 
L 102.15905 227.648383 
L 102.962277 237.712488 
L 103.765505 234.678422 
L 105.37196 245.565522 
L 106.175188 247.747438 
L 106.978415 247.253453 
L 107.781643 241.721618 
L 108.58487 222.071225 
L 109.388098 234.756375 
L 110.191325 236.523819 
L 110.994553 237.888469 
L 111.797781 234.684174 
L 112.601008 230.124118 
L 113.404236 242.190315 
L 114.207463 235.101119 
L 115.010691 237.043933 
L 115.813918 245.859424 
L 116.617146 231.27952 
L 117.420374 241.287443 
L 118.223601 241.213879 
L 119.026829 246.980656 
L 119.830056 235.527721 
L 120.633284 238.577284 
L 121.436512 246.021705 
L 122.239739 232.414221 
L 123.042967 238.801313 
L 123.846194 249.071408 
L 124.649422 249.922711 
L 125.452649 232.95734 
L 125.666007 244.404762 
L 126.469234 252.935095 
L 127.272462 257.818752 
L 128.075689 258.126345 
L 129.682145 247.540726 
L 130.485372 248.744215 
L 131.2886 226.340384 
L 132.895055 248.580299 
L 133.698282 235.197955 
L 135.304738 250.489239 
L 136.107965 252.903862 
L 136.911193 248.0892 
L 137.71442 235.121348 
L 138.517648 240.793765 
L 139.320875 247.821365 
L 140.124103 240.064372 
L 140.927331 240.527598 
L 141.730558 246.505868 
L 142.533786 239.467028 
L 143.337013 243.109626 
L 144.140241 251.084417 
L 145.746696 260.105959 
L 146.549924 260.027148 
L 147.353151 237.451701 
L 148.156379 248.260837 
L 148.959606 255.195554 
L 149.762834 257.807933 
L 150.566062 262.389509 
L 151.369289 254.406345 
L 151.582646 259.07225 
L 152.385874 259.630865 
L 153.189102 261.083835 
L 153.992329 240.832184 
L 154.795557 240.660986 
L 155.598784 231.086788 
L 156.402012 236.626891 
L 157.205239 249.383517 
L 158.008467 254.166786 
L 158.811695 260.035242 
L 159.614922 244.018587 
L 160.41815 225.531417 
L 161.221377 233.339751 
L 162.024605 245.546721 
L 162.827832 249.036898 
L 163.63106 245.344242 
L 164.434288 254.862795 
L 165.237515 245.278233 
L 166.040743 232.306688 
L 166.84397 232.671897 
L 167.647198 242.611658 
L 168.450426 225.343596 
L 169.253653 238.364069 
L 170.056881 240.307612 
L 170.860108 252.988502 
L 171.663336 252.94115 
L 172.466563 250.984235 
L 173.269791 259.758795 
L 174.073019 254.332936 
L 174.876246 254.318056 
L 175.679474 232.421578 
L 176.482701 240.281182 
L 177.285929 249.639915 
L 177.499286 258.814418 
L 178.302514 253.877971 
L 179.105741 253.794412 
L 179.908969 253.067156 
L 180.712196 249.603924 
L 181.515424 258.657958 
L 182.318652 243.246268 
L 183.121879 250.647315 
L 183.925107 235.047243 
L 185.531562 247.70674 
L 186.334789 255.997555 
L 187.138017 243.193562 
L 187.941245 252.809189 
L 188.744472 259.2476 
L 189.5477 261.945254 
L 190.350927 243.827759 
L 191.154155 253.119355 
L 191.957383 250.003718 
L 192.76061 243.350623 
L 193.563838 254.968789 
L 194.367065 261.586149 
L 195.170293 260.628466 
L 195.97352 250.331963 
L 197.579976 264.278683 
L 198.383203 267.569839 
L 199.186431 268.477851 
L 199.989658 266.0037 
L 200.792886 239.998549 
L 201.596113 252.966017 
L 202.399341 255.932792 
L 203.202569 257.431427 
L 203.415926 249.738207 
L 204.219153 253.060459 
L 205.022381 254.506957 
L 205.825609 261.69528 
L 206.628836 262.99488 
L 207.432064 259.114293 
L 208.235291 241.93978 
L 209.038519 253.004208 
L 209.841746 255.773372 
L 210.644974 263.046627 
L 211.448202 240.093222 
L 213.054657 259.299372 
L 213.857884 257.383922 
L 214.661112 244.559955 
L 215.46434 238.800817 
L 216.267567 240.759417 
L 217.070795 244.090068 
L 217.874022 256.502826 
L 218.67725 263.147999 
L 219.480477 263.039392 
L 220.283705 266.94774 
L 221.086933 249.665871 
L 221.89016 248.493003 
L 222.693388 252.473416 
L 223.496615 234.51549 
L 224.299843 246.492433 
L 225.10307 241.95203 
L 225.906298 247.586117 
L 226.709526 248.193806 
L 227.512753 251.109808 
L 228.315981 258.107557 
L 229.119208 250.148043 
L 229.332566 256.400219 
L 230.135793 264.945121 
L 231.742248 251.694848 
L 232.545476 262.292805 
L 233.348703 263.174976 
L 234.151931 255.980875 
L 234.955159 265.610823 
L 235.758386 242.902133 
L 236.561614 255.909247 
L 237.364841 261.367132 
L 238.168069 265.834178 
L 238.971297 266.658546 
L 239.774524 260.924443 
L 240.577752 260.721324 
L 241.380979 268.035922 
L 242.184207 249.864347 
L 243.790662 267.304867 
L 244.59389 253.880058 
L 245.397117 257.855677 
L 246.200345 257.883201 
L 247.003572 263.928567 
L 247.8068 265.726587 
L 248.610027 267.907095 
L 249.413255 244.989135 
L 250.216483 251.670309 
L 251.01971 261.049216 
L 251.822938 259.048565 
L 252.626165 263.634861 
L 253.429393 252.842373 
L 254.23262 259.796627 
L 255.249205 263.645574 
L 256.052433 267.4904 
L 256.85566 256.702685 
L 257.658888 266.720215 
L 258.462116 261.514118 
L 259.265343 258.582151 
L 260.068571 256.957317 
L 260.871798 257.924268 
L 261.675026 264.364597 
L 262.478254 263.91556 
L 263.281481 257.468525 
L 264.084709 265.786931 
L 264.887936 271.688989 
L 265.691164 275.818373 
L 266.494391 258.060377 
L 267.297619 266.264208 
L 268.100847 258.220638 
L 268.904074 263.342848 
L 269.707302 270.546972 
L 270.510529 266.543325 
L 271.313757 248.518803 
L 272.116984 252.82425 
L 272.920212 263.962568 
L 273.72344 266.810206 
L 274.526667 249.634743 
L 275.329895 260.379308 
L 276.133122 251.778154 
L 276.93635 255.821585 
L 277.739577 264.341677 
L 278.542805 250.725157 
L 279.346033 261.56282 
L 280.14926 253.028469 
L 280.952488 258.08453 
L 281.165845 265.082393 
L 282.7723 258.829615 
L 283.575528 255.946447 
L 284.378755 252.169683 
L 285.181983 260.453774 
L 285.985211 249.042359 
L 286.788438 252.675479 
L 287.591666 262.152234 
L 288.394893 266.822699 
L 289.198121 272.921017 
L 290.001348 255.262583 
L 290.804576 244.523883 
L 291.607804 257.031457 
L 292.411031 262.585324 
L 293.214259 265.021732 
L 294.017486 271.661491 
L 294.820714 268.404229 
L 295.623941 260.167529 
L 296.427169 262.631344 
L 297.230397 265.685998 
L 298.033624 271.242083 
L 298.836852 270.827843 
L 299.640079 276.75495 
L 300.443307 275.02555 
L 301.246534 262.264451 
L 302.049762 270.402223 
L 302.85299 270.769827 
L 303.656217 261.950014 
L 304.459445 262.497485 
L 305.262672 269.778895 
L 306.0659 255.42331 
L 306.869127 264.822088 
L 307.082485 263.00189 
L 307.885712 249.049527 
L 308.68894 262.157935 
L 309.492168 267.037264 
L 310.295395 258.403274 
L 311.098623 268.547289 
L 311.90185 267.183302 
L 312.705078 268.455491 
L 313.508305 271.901378 
L 314.311533 270.887042 
L 315.114761 259.479327 
L 315.917988 258.529237 
L 316.721216 265.901236 
L 317.524443 268.870822 
L 318.327671 276.427472 
L 319.130898 280.402624 
L 319.934126 256.276627 
L 320.737354 265.235041 
L 321.540581 271.593712 
L 322.343809 273.711778 
L 323.147036 277.937465 
L 324.753491 260.192889 
L 325.556719 262.825671 
L 326.359947 271.70413 
L 327.163174 274.690386 
L 327.966402 259.252457 
L 328.769629 267.22488 
L 329.572857 250.337548 
L 331.179312 266.012896 
L 331.98254 274.506263 
L 332.785767 266.165755 
L 332.999125 267.375896 
L 333.802352 275.780796 
L 334.60558 280.521288 
L 335.408807 266.647922 
L 336.212035 264.308513 
L 337.015262 266.074337 
L 337.81849 268.1802 
L 338.621718 262.766869 
L 339.424945 267.575776 
L 340.228173 253.683846 
L 341.834628 271.355308 
L 342.637855 277.533899 
L 343.441083 271.076912 
L 344.244311 265.947017 
L 345.047538 257.716849 
L 345.850766 268.619923 
L 346.653993 267.234761 
L 347.457221 265.427945 
L 348.260448 267.769631 
L 349.063676 254.304954 
L 349.866904 266.553392 
L 350.670131 272.932496 
L 351.473359 268.258178 
L 352.276586 274.273992 
L 353.079814 268.044002 
L 353.883041 273.640413 
L 354.686269 258.174291 
L 355.489497 269.768142 
L 356.292724 277.142293 
L 357.095952 282.828652 
L 358.702407 271.054646 
L 358.915764 271.971866 
L 359.718992 258.732673 
L 360.522219 269.474857 
L 361.325447 272.498854 
L 362.128675 278.373648 
L 362.931902 278.172665 
L 363.73513 263.957535 
L 364.538357 263.920643 
L 365.341585 261.990832 
L 366.144812 268.471731 
L 366.94804 273.978591 
L 367.751268 252.43271 
L 368.554495 264.247418 
L 369.357723 260.13563 
L 370.16095 267.914303 
L 370.964178 270.530065 
L 371.767405 271.039518 
L 372.570633 277.457216 
L 373.373861 272.543807 
L 374.177088 273.658306 
L 375.783543 282.572669 
L 376.586771 285.431944 
L 377.389998 286.671837 
L 378.193226 266.219124 
L 378.996454 272.986171 
L 379.799681 269.161833 
L 381.406136 280.689764 
L 382.209364 274.376515 
L 383.012591 275.768514 
L 383.815819 283.064562 
L 384.619047 281.228009 
L 384.832404 276.330374 
L 385.635632 275.616026 
L 386.438859 276.394455 
L 387.242087 272.093975 
L 388.045314 264.274203 
L 388.848542 265.428187 
L 389.651769 274.216003 
L 390.454997 265.86228 
L 391.258225 268.427939 
L 392.061452 276.718458 
L 392.86468 279.720041 
L 393.667907 283.505616 
L 394.471135 270.082867 
L 395.274362 268.862872 
L 396.07759 265.765871 
L 396.880818 275.595379 
L 397.684045 281.232515 
L 398.487273 285.444112 
L 398.487273 285.444112 
" clip-path="url(#pc7e4479c9e)" style="fill: none; stroke: #ff7f0e; stroke-opacity: 0.9; stroke-linecap: square"/>
   </g>
   <g id="line2d_43">
    <path d="M 73.832727 136.626238 
L 74.635955 159.818382 
L 75.439182 177.468028 
L 76.24241 192.268516 
L 79.45532 225.378475 
L 80.258548 213.015158 
L 81.061775 219.75941 
L 81.865003 212.211816 
L 82.668231 223.328797 
L 83.471458 223.048305 
L 84.274686 232.212235 
L 85.077913 230.046006 
L 85.881141 229.028094 
L 86.684368 231.202724 
L 87.487596 236.238569 
L 88.290824 234.666225 
L 89.094051 228.209196 
L 89.897279 226.595715 
L 90.700506 229.854563 
L 91.503734 237.405272 
L 93.110189 249.294555 
L 93.913417 242.819616 
L 94.716644 224.415052 
L 95.519872 229.672402 
L 96.323099 229.630235 
L 97.126327 227.673747 
L 97.929555 236.713072 
L 98.732782 240.388374 
L 99.53601 246.137732 
L 99.749367 230.019674 
L 100.552595 242.039872 
L 102.15905 251.919364 
L 102.962277 240.176116 
L 104.568732 252.316 
L 105.37196 256.62153 
L 106.175188 225.338942 
L 106.978415 238.748859 
L 107.781643 250.003118 
L 108.58487 240.393381 
L 110.191325 252.54363 
L 110.994553 257.421464 
L 111.797781 254.367082 
L 112.601008 253.89978 
L 113.404236 256.142822 
L 114.207463 226.489654 
L 115.010691 221.519817 
L 115.813918 229.389714 
L 116.617146 226.075023 
L 117.420374 234.539625 
L 118.223601 221.561153 
L 119.026829 217.942986 
L 119.830056 220.852219 
L 120.633284 226.7145 
L 121.436512 239.742792 
L 122.239739 248.14508 
L 123.042967 242.70011 
L 123.846194 220.29148 
L 124.649422 233.875482 
L 125.452649 242.381033 
L 125.666007 249.99494 
L 126.469234 245.505827 
L 127.272462 247.562906 
L 128.075689 248.557221 
L 128.878917 257.186174 
L 129.682145 252.283178 
L 130.485372 256.362287 
L 131.2886 245.935869 
L 132.091827 242.397241 
L 132.895055 221.421363 
L 133.698282 236.871232 
L 134.50151 231.45754 
L 135.304738 244.545498 
L 136.107965 249.619724 
L 136.911193 248.500354 
L 137.71442 251.787194 
L 138.517648 253.494782 
L 139.320875 247.816248 
L 140.124103 252.789426 
L 140.927331 260.05053 
L 141.730558 242.537787 
L 142.533786 249.347526 
L 143.337013 258.13485 
L 144.140241 251.95486 
L 144.943469 247.362475 
L 145.746696 256.600518 
L 146.549924 221.948446 
L 147.353151 232.193486 
L 148.156379 233.280142 
L 148.959606 236.258638 
L 149.762834 228.281754 
L 150.566062 239.816051 
L 151.369289 239.634439 
L 151.582646 234.919575 
L 152.385874 248.062814 
L 153.189102 224.404241 
L 153.992329 223.792619 
L 154.795557 239.140648 
L 155.598784 236.618234 
L 156.402012 248.495257 
L 157.205239 254.719301 
L 158.008467 254.343201 
L 159.614922 264.677763 
L 160.41815 238.09932 
L 162.024605 259.17537 
L 162.827832 261.801925 
L 163.63106 266.960764 
L 164.434288 267.55052 
L 165.237515 254.743772 
L 166.040743 260.350413 
L 166.84397 255.581185 
L 167.647198 260.800164 
L 168.450426 244.32127 
L 170.056881 250.359239 
L 170.860108 249.703572 
L 171.663336 256.930179 
L 172.466563 254.150458 
L 173.269791 248.700371 
L 174.073019 247.986842 
L 174.876246 237.195876 
L 175.679474 238.899429 
L 176.482701 250.989477 
L 177.285929 260.669318 
L 177.499286 265.125936 
L 178.302514 269.594652 
L 179.105741 269.884144 
L 179.908969 261.31977 
L 180.712196 266.393841 
L 181.515424 264.582547 
L 182.318652 257.656059 
L 183.121879 253.582402 
L 183.925107 260.026399 
L 184.728334 248.35871 
L 185.531562 246.857516 
L 186.334789 255.960007 
L 187.138017 252.345104 
L 187.941245 255.740538 
L 188.744472 249.124947 
L 189.5477 241.532493 
L 190.350927 242.713405 
L 191.957383 262.613073 
L 192.76061 254.233197 
L 193.563838 259.503272 
L 194.367065 266.617338 
L 195.170293 270.807321 
L 195.97352 271.010521 
L 197.579976 256.939031 
L 198.383203 257.128494 
L 199.186431 259.038308 
L 199.989658 260.174529 
L 200.792886 263.848249 
L 201.596113 268.97745 
L 202.399341 272.742267 
L 203.202569 271.564463 
L 203.415926 239.020264 
L 204.219153 252.540788 
L 205.022381 253.639652 
L 205.825609 240.206973 
L 206.628836 251.573678 
L 207.432064 261.279224 
L 208.235291 242.665641 
L 209.038519 242.139245 
L 209.841746 229.184264 
L 210.644974 231.349157 
L 211.448202 227.527185 
L 212.251429 243.195267 
L 213.054657 254.832519 
L 213.857884 262.936926 
L 214.661112 246.953776 
L 215.46434 248.967274 
L 216.267567 251.483272 
L 217.070795 262.53102 
L 217.874022 259.814129 
L 218.67725 266.766813 
L 219.480477 271.72982 
L 220.283705 243.056738 
L 221.086933 232.288865 
L 222.693388 256.864745 
L 223.496615 266.141147 
L 224.299843 267.240297 
L 225.10307 258.396926 
L 225.906298 261.323676 
L 226.709526 266.621539 
L 227.512753 269.374976 
L 228.315981 260.324223 
L 229.119208 256.257783 
L 229.332566 262.387218 
L 230.135793 266.396049 
L 230.939021 272.754846 
L 231.742248 272.303254 
L 232.545476 270.238396 
L 234.151931 262.597382 
L 234.955159 270.36185 
L 235.758386 262.800873 
L 237.364841 273.830403 
L 238.168069 274.995991 
L 238.971297 253.482461 
L 239.774524 254.73894 
L 240.577752 254.010519 
L 241.380979 253.691392 
L 242.184207 255.782422 
L 242.987434 247.173446 
L 243.790662 252.672911 
L 244.59389 262.688196 
L 245.397117 254.575215 
L 246.200345 253.044398 
L 247.003572 248.433362 
L 247.8068 252.014744 
L 248.610027 257.719543 
L 249.413255 252.278507 
L 250.216483 263.505544 
L 251.01971 255.225433 
L 251.822938 259.716072 
L 252.626165 258.681963 
L 253.429393 260.854005 
L 254.23262 269.721378 
L 255.035848 256.203046 
L 255.249205 266.039367 
L 256.85566 262.822658 
L 257.658888 265.493396 
L 258.462116 271.469911 
L 259.265343 262.446137 
L 260.068571 263.469703 
L 260.871798 270.920397 
L 261.675026 273.413402 
L 262.478254 269.278562 
L 263.281481 275.002908 
L 264.084709 275.268431 
L 264.887936 277.865695 
L 265.691164 277.524009 
L 266.494391 274.227858 
L 267.297619 268.07057 
L 268.100847 250.403367 
L 268.904074 260.313264 
L 269.707302 250.839885 
L 270.510529 260.19605 
L 271.313757 255.892137 
L 272.116984 249.543943 
L 273.72344 268.178878 
L 274.526667 261.583938 
L 275.329895 258.683166 
L 276.133122 251.614042 
L 277.739577 266.739325 
L 278.542805 262.597088 
L 279.346033 265.705953 
L 280.952488 276.430639 
L 281.165845 280.617564 
L 281.969073 261.62053 
L 282.7723 270.900455 
L 283.575528 273.682349 
L 284.378755 258.312308 
L 285.181983 263.402921 
L 286.788438 277.665446 
L 287.591666 282.630872 
L 288.394893 282.513638 
L 289.198121 266.994106 
L 290.001348 264.891776 
L 290.804576 273.287626 
L 291.607804 274.397955 
L 292.411031 277.038492 
L 293.214259 274.069405 
L 294.017486 274.613695 
L 294.820714 280.186526 
L 295.623941 279.922593 
L 296.427169 284.446114 
L 297.230397 278.481722 
L 298.033624 267.07359 
L 299.640079 279.865372 
L 300.443307 282.699464 
L 301.246534 279.383362 
L 302.049762 280.890311 
L 302.85299 283.28361 
L 303.656217 270.856838 
L 304.459445 245.941329 
L 305.262672 259.714703 
L 306.0659 248.518787 
L 306.869127 260.814494 
L 307.082485 271.667282 
L 307.885712 272.515207 
L 309.492168 283.938806 
L 310.295395 273.92094 
L 311.098623 268.130237 
L 311.90185 275.570715 
L 312.705078 280.930561 
L 313.508305 277.505199 
L 314.311533 282.339532 
L 315.114761 268.281067 
L 315.917988 278.305181 
L 316.721216 268.123772 
L 317.524443 270.515561 
L 318.327671 269.761995 
L 319.130898 276.362036 
L 319.934126 255.107132 
L 320.737354 266.419145 
L 321.540581 272.954493 
L 322.343809 276.660974 
L 323.147036 283.296964 
L 323.950264 275.562718 
L 324.753491 274.756658 
L 325.556719 278.228104 
L 326.359947 278.495503 
L 327.163174 282.807242 
L 327.966402 283.494328 
L 328.769629 283.330205 
L 329.572857 264.84993 
L 330.376084 268.505567 
L 331.179312 276.951502 
L 331.98254 283.28711 
L 332.785767 287.634863 
L 332.999125 268.20654 
L 333.802352 275.588508 
L 334.60558 281.550825 
L 335.408807 257.734771 
L 336.212035 264.582682 
L 337.015262 269.711016 
L 337.81849 272.605708 
L 338.621718 258.961302 
L 339.424945 268.740875 
L 340.228173 255.147035 
L 341.0314 258.090233 
L 342.637855 275.156138 
L 343.441083 275.677616 
L 344.244311 274.511378 
L 345.047538 267.910343 
L 345.850766 274.485114 
L 346.653993 274.10263 
L 347.457221 272.612939 
L 348.260448 278.113919 
L 349.063676 267.410012 
L 349.866904 278.482409 
L 350.670131 282.782149 
L 351.473359 267.842028 
L 352.276586 274.565067 
L 353.079814 274.094902 
L 353.883041 278.015708 
L 354.686269 263.653372 
L 355.489497 274.342571 
L 356.292724 277.635876 
L 357.095952 285.225466 
L 357.899179 282.657271 
L 358.702407 273.684458 
L 358.915764 280.071647 
L 359.718992 262.742659 
L 361.325447 276.837548 
L 362.128675 273.362182 
L 362.931902 274.959272 
L 363.73513 271.047877 
L 364.538357 275.371359 
L 365.341585 273.699717 
L 366.144812 282.663758 
L 366.94804 277.966998 
L 367.751268 254.929085 
L 368.554495 262.37766 
L 369.357723 261.370134 
L 370.16095 272.051916 
L 370.964178 278.026282 
L 371.767405 285.714182 
L 372.570633 289.127053 
L 373.373861 276.68006 
L 374.177088 274.58808 
L 374.980316 282.007531 
L 375.783543 283.102801 
L 376.586771 281.494438 
L 377.389998 287.118762 
L 378.193226 269.596591 
L 378.996454 277.097719 
L 379.799681 272.268561 
L 380.602909 278.301753 
L 381.406136 287.124168 
L 382.209364 274.805039 
L 383.012591 272.217747 
L 383.815819 279.538212 
L 384.619047 283.072329 
L 384.832404 282.17873 
L 385.635632 286.191336 
L 386.438859 282.572119 
L 387.242087 276.577161 
L 388.045314 273.012745 
L 388.848542 282.96623 
L 389.651769 273.364645 
L 390.454997 270.508407 
L 391.258225 274.810902 
L 392.061452 282.698959 
L 392.86468 273.435143 
L 393.667907 271.571011 
L 394.471135 277.396351 
L 395.274362 274.0109 
L 396.07759 279.115915 
L 396.880818 262.025023 
L 397.684045 268.336892 
L 398.487273 276.922495 
L 398.487273 276.922495 
" clip-path="url(#pc7e4479c9e)" style="fill: none; stroke: #2ca02c; stroke-opacity: 0.9; stroke-linecap: square"/>
   </g>
   <g id="patch_3">
    <path d="M 57.6 307.584 
L 57.6 41.472 
" style="fill: none; stroke: #000000; stroke-width: 0.8; stroke-linejoin: miter; stroke-linecap: square"/>
   </g>
   <g id="patch_4">
    <path d="M 414.72 307.584 
L 414.72 41.472 
" style="fill: none; stroke: #000000; stroke-width: 0.8; stroke-linejoin: miter; stroke-linecap: square"/>
   </g>
   <g id="patch_5">
    <path d="M 57.6 307.584 
L 414.72 307.584 
" style="fill: none; stroke: #000000; stroke-width: 0.8; stroke-linejoin: miter; stroke-linecap: square"/>
   </g>
   <g id="patch_6">
    <path d="M 57.6 41.472 
L 414.72 41.472 
" style="fill: none; stroke: #000000; stroke-width: 0.8; stroke-linejoin: miter; stroke-linecap: square"/>
   </g>
   <g id="text_13">
    <!-- 2025-02-19-00:11:38 -->
    <g transform="translate(172.178438 35.472) scale(0.12 -0.12)">
     <defs>
      <path id="DejaVuSans-2d" d="M 313 2009 
L 1997 2009 
L 1997 1497 
L 313 1497 
L 313 2009 
z
" transform="scale(0.015625)"/>
      <path id="DejaVuSans-39" d="M 703 97 
L 703 672 
Q 941 559 1184 500 
Q 1428 441 1663 441 
Q 2288 441 2617 861 
Q 2947 1281 2994 2138 
Q 2813 1869 2534 1725 
Q 2256 1581 1919 1581 
Q 1219 1581 811 2004 
Q 403 2428 403 3163 
Q 403 3881 828 4315 
Q 1253 4750 1959 4750 
Q 2769 4750 3195 4129 
Q 3622 3509 3622 2328 
Q 3622 1225 3098 567 
Q 2575 -91 1691 -91 
Q 1453 -91 1209 -44 
Q 966 3 703 97 
z
M 1959 2075 
Q 2384 2075 2632 2365 
Q 2881 2656 2881 3163 
Q 2881 3666 2632 3958 
Q 2384 4250 1959 4250 
Q 1534 4250 1286 3958 
Q 1038 3666 1038 3163 
Q 1038 2656 1286 2365 
Q 1534 2075 1959 2075 
z
" transform="scale(0.015625)"/>
      <path id="DejaVuSans-3a" d="M 750 794 
L 1409 794 
L 1409 0 
L 750 0 
L 750 794 
z
M 750 3309 
L 1409 3309 
L 1409 2516 
L 750 2516 
L 750 3309 
z
" transform="scale(0.015625)"/>
      <path id="DejaVuSans-33" d="M 2597 2516 
Q 3050 2419 3304 2112 
Q 3559 1806 3559 1356 
Q 3559 666 3084 287 
Q 2609 -91 1734 -91 
Q 1441 -91 1130 -33 
Q 819 25 488 141 
L 488 750 
Q 750 597 1062 519 
Q 1375 441 1716 441 
Q 2309 441 2620 675 
Q 2931 909 2931 1356 
Q 2931 1769 2642 2001 
Q 2353 2234 1838 2234 
L 1294 2234 
L 1294 2753 
L 1863 2753 
Q 2328 2753 2575 2939 
Q 2822 3125 2822 3475 
Q 2822 3834 2567 4026 
Q 2313 4219 1838 4219 
Q 1578 4219 1281 4162 
Q 984 4106 628 3988 
L 628 4550 
Q 988 4650 1302 4700 
Q 1616 4750 1894 4750 
Q 2613 4750 3031 4423 
Q 3450 4097 3450 3541 
Q 3450 3153 3228 2886 
Q 3006 2619 2597 2516 
z
" transform="scale(0.015625)"/>
      <path id="DejaVuSans-38" d="M 2034 2216 
Q 1584 2216 1326 1975 
Q 1069 1734 1069 1313 
Q 1069 891 1326 650 
Q 1584 409 2034 409 
Q 2484 409 2743 651 
Q 3003 894 3003 1313 
Q 3003 1734 2745 1975 
Q 2488 2216 2034 2216 
z
M 1403 2484 
Q 997 2584 770 2862 
Q 544 3141 544 3541 
Q 544 4100 942 4425 
Q 1341 4750 2034 4750 
Q 2731 4750 3128 4425 
Q 3525 4100 3525 3541 
Q 3525 3141 3298 2862 
Q 3072 2584 2669 2484 
Q 3125 2378 3379 2068 
Q 3634 1759 3634 1313 
Q 3634 634 3220 271 
Q 2806 -91 2034 -91 
Q 1263 -91 848 271 
Q 434 634 434 1313 
Q 434 1759 690 2068 
Q 947 2378 1403 2484 
z
M 1172 3481 
Q 1172 3119 1398 2916 
Q 1625 2713 2034 2713 
Q 2441 2713 2670 2916 
Q 2900 3119 2900 3481 
Q 2900 3844 2670 4047 
Q 2441 4250 2034 4250 
Q 1625 4250 1398 4047 
Q 1172 3844 1172 3481 
z
" transform="scale(0.015625)"/>
     </defs>
     <use xlink:href="#DejaVuSans-32"/>
     <use xlink:href="#DejaVuSans-30" x="63.623047"/>
     <use xlink:href="#DejaVuSans-32" x="127.246094"/>
     <use xlink:href="#DejaVuSans-35" x="190.869141"/>
     <use xlink:href="#DejaVuSans-2d" x="254.492188"/>
     <use xlink:href="#DejaVuSans-30" x="290.576172"/>
     <use xlink:href="#DejaVuSans-32" x="354.199219"/>
     <use xlink:href="#DejaVuSans-2d" x="417.822266"/>
     <use xlink:href="#DejaVuSans-31" x="453.90625"/>
     <use xlink:href="#DejaVuSans-39" x="517.529297"/>
     <use xlink:href="#DejaVuSans-2d" x="581.152344"/>
     <use xlink:href="#DejaVuSans-30" x="617.236328"/>
     <use xlink:href="#DejaVuSans-30" x="680.859375"/>
     <use xlink:href="#DejaVuSans-3a" x="744.482422"/>
     <use xlink:href="#DejaVuSans-31" x="778.173828"/>
     <use xlink:href="#DejaVuSans-31" x="841.796875"/>
     <use xlink:href="#DejaVuSans-3a" x="905.419922"/>
     <use xlink:href="#DejaVuSans-33" x="939.111328"/>
     <use xlink:href="#DejaVuSans-38" x="1002.734375"/>
    </g>
   </g>
   <g id="legend_1">
    <g id="patch_7">
     <path d="M 281.596563 94.34075 
L 407.72 94.34075 
Q 409.72 94.34075 409.72 92.34075 
L 409.72 48.472 
Q 409.72 46.472 407.72 46.472 
L 281.596563 46.472 
Q 279.596563 46.472 279.596563 48.472 
L 279.596563 92.34075 
Q 279.596563 94.34075 281.596563 94.34075 
z
" style="fill: #ffffff; opacity: 0.8; stroke: #cccccc; stroke-linejoin: miter"/>
    </g>
    <g id="line2d_44">
     <path d="M 283.596563 54.570438 
L 293.596563 54.570438 
L 303.596563 54.570438 
" style="fill: none; stroke: #1f77b4; stroke-opacity: 0.9; stroke-linecap: square"/>
    </g>
    <g id="text_14">
     <!-- SchNet eval_loss -->
     <g transform="translate(311.596563 58.070438) scale(0.1 -0.1)">
      <defs>
       <path id="DejaVuSans-53" d="M 3425 4513 
L 3425 3897 
Q 3066 4069 2747 4153 
Q 2428 4238 2131 4238 
Q 1616 4238 1336 4038 
Q 1056 3838 1056 3469 
Q 1056 3159 1242 3001 
Q 1428 2844 1947 2747 
L 2328 2669 
Q 3034 2534 3370 2195 
Q 3706 1856 3706 1288 
Q 3706 609 3251 259 
Q 2797 -91 1919 -91 
Q 1588 -91 1214 -16 
Q 841 59 441 206 
L 441 856 
Q 825 641 1194 531 
Q 1563 422 1919 422 
Q 2459 422 2753 634 
Q 3047 847 3047 1241 
Q 3047 1584 2836 1778 
Q 2625 1972 2144 2069 
L 1759 2144 
Q 1053 2284 737 2584 
Q 422 2884 422 3419 
Q 422 4038 858 4394 
Q 1294 4750 2059 4750 
Q 2388 4750 2728 4690 
Q 3069 4631 3425 4513 
z
" transform="scale(0.015625)"/>
       <path id="DejaVuSans-63" d="M 3122 3366 
L 3122 2828 
Q 2878 2963 2633 3030 
Q 2388 3097 2138 3097 
Q 1578 3097 1268 2742 
Q 959 2388 959 1747 
Q 959 1106 1268 751 
Q 1578 397 2138 397 
Q 2388 397 2633 464 
Q 2878 531 3122 666 
L 3122 134 
Q 2881 22 2623 -34 
Q 2366 -91 2075 -91 
Q 1284 -91 818 406 
Q 353 903 353 1747 
Q 353 2603 823 3093 
Q 1294 3584 2113 3584 
Q 2378 3584 2631 3529 
Q 2884 3475 3122 3366 
z
" transform="scale(0.015625)"/>
       <path id="DejaVuSans-68" d="M 3513 2113 
L 3513 0 
L 2938 0 
L 2938 2094 
Q 2938 2591 2744 2837 
Q 2550 3084 2163 3084 
Q 1697 3084 1428 2787 
Q 1159 2491 1159 1978 
L 1159 0 
L 581 0 
L 581 4863 
L 1159 4863 
L 1159 2956 
Q 1366 3272 1645 3428 
Q 1925 3584 2291 3584 
Q 2894 3584 3203 3211 
Q 3513 2838 3513 2113 
z
" transform="scale(0.015625)"/>
       <path id="DejaVuSans-4e" d="M 628 4666 
L 1478 4666 
L 3547 763 
L 3547 4666 
L 4159 4666 
L 4159 0 
L 3309 0 
L 1241 3903 
L 1241 0 
L 628 0 
L 628 4666 
z
" transform="scale(0.015625)"/>
       <path id="DejaVuSans-20" transform="scale(0.015625)"/>
       <path id="DejaVuSans-76" d="M 191 3500 
L 800 3500 
L 1894 563 
L 2988 3500 
L 3597 3500 
L 2284 0 
L 1503 0 
L 191 3500 
z
" transform="scale(0.015625)"/>
       <path id="DejaVuSans-61" d="M 2194 1759 
Q 1497 1759 1228 1600 
Q 959 1441 959 1056 
Q 959 750 1161 570 
Q 1363 391 1709 391 
Q 2188 391 2477 730 
Q 2766 1069 2766 1631 
L 2766 1759 
L 2194 1759 
z
M 3341 1997 
L 3341 0 
L 2766 0 
L 2766 531 
Q 2569 213 2275 61 
Q 1981 -91 1556 -91 
Q 1019 -91 701 211 
Q 384 513 384 1019 
Q 384 1609 779 1909 
Q 1175 2209 1959 2209 
L 2766 2209 
L 2766 2266 
Q 2766 2663 2505 2880 
Q 2244 3097 1772 3097 
Q 1472 3097 1187 3025 
Q 903 2953 641 2809 
L 641 3341 
Q 956 3463 1253 3523 
Q 1550 3584 1831 3584 
Q 2591 3584 2966 3190 
Q 3341 2797 3341 1997 
z
" transform="scale(0.015625)"/>
       <path id="DejaVuSans-5f" d="M 3263 -1063 
L 3263 -1509 
L -63 -1509 
L -63 -1063 
L 3263 -1063 
z
" transform="scale(0.015625)"/>
      </defs>
      <use xlink:href="#DejaVuSans-53"/>
      <use xlink:href="#DejaVuSans-63" x="63.476562"/>
      <use xlink:href="#DejaVuSans-68" x="118.457031"/>
      <use xlink:href="#DejaVuSans-4e" x="181.835938"/>
      <use xlink:href="#DejaVuSans-65" x="256.640625"/>
      <use xlink:href="#DejaVuSans-74" x="318.164062"/>
      <use xlink:href="#DejaVuSans-20" x="357.373047"/>
      <use xlink:href="#DejaVuSans-65" x="389.160156"/>
      <use xlink:href="#DejaVuSans-76" x="450.683594"/>
      <use xlink:href="#DejaVuSans-61" x="509.863281"/>
      <use xlink:href="#DejaVuSans-6c" x="571.142578"/>
      <use xlink:href="#DejaVuSans-5f" x="598.925781"/>
      <use xlink:href="#DejaVuSans-6c" x="648.925781"/>
      <use xlink:href="#DejaVuSans-6f" x="676.708984"/>
      <use xlink:href="#DejaVuSans-73" x="737.890625"/>
      <use xlink:href="#DejaVuSans-73" x="789.990234"/>
     </g>
    </g>
    <g id="line2d_45">
     <path d="M 283.596563 69.526688 
L 293.596563 69.526688 
L 303.596563 69.526688 
" style="fill: none; stroke: #ff7f0e; stroke-opacity: 0.9; stroke-linecap: square"/>
    </g>
    <g id="text_15">
     <!-- MoGIN14 eval_loss -->
     <g transform="translate(311.596563 73.026688) scale(0.1 -0.1)">
      <defs>
       <path id="DejaVuSans-4d" d="M 628 4666 
L 1569 4666 
L 2759 1491 
L 3956 4666 
L 4897 4666 
L 4897 0 
L 4281 0 
L 4281 4097 
L 3078 897 
L 2444 897 
L 1241 4097 
L 1241 0 
L 628 0 
L 628 4666 
z
" transform="scale(0.015625)"/>
       <path id="DejaVuSans-47" d="M 3809 666 
L 3809 1919 
L 2778 1919 
L 2778 2438 
L 4434 2438 
L 4434 434 
Q 4069 175 3628 42 
Q 3188 -91 2688 -91 
Q 1594 -91 976 548 
Q 359 1188 359 2328 
Q 359 3472 976 4111 
Q 1594 4750 2688 4750 
Q 3144 4750 3555 4637 
Q 3966 4525 4313 4306 
L 4313 3634 
Q 3963 3931 3569 4081 
Q 3175 4231 2741 4231 
Q 1884 4231 1454 3753 
Q 1025 3275 1025 2328 
Q 1025 1384 1454 906 
Q 1884 428 2741 428 
Q 3075 428 3337 486 
Q 3600 544 3809 666 
z
" transform="scale(0.015625)"/>
       <path id="DejaVuSans-49" d="M 628 4666 
L 1259 4666 
L 1259 0 
L 628 0 
L 628 4666 
z
" transform="scale(0.015625)"/>
       <path id="DejaVuSans-34" d="M 2419 4116 
L 825 1625 
L 2419 1625 
L 2419 4116 
z
M 2253 4666 
L 3047 4666 
L 3047 1625 
L 3713 1625 
L 3713 1100 
L 3047 1100 
L 3047 0 
L 2419 0 
L 2419 1100 
L 313 1100 
L 313 1709 
L 2253 4666 
z
" transform="scale(0.015625)"/>
      </defs>
      <use xlink:href="#DejaVuSans-4d"/>
      <use xlink:href="#DejaVuSans-6f" x="86.279297"/>
      <use xlink:href="#DejaVuSans-47" x="147.460938"/>
      <use xlink:href="#DejaVuSans-49" x="224.951172"/>
      <use xlink:href="#DejaVuSans-4e" x="254.443359"/>
      <use xlink:href="#DejaVuSans-31" x="329.248047"/>
      <use xlink:href="#DejaVuSans-34" x="392.871094"/>
      <use xlink:href="#DejaVuSans-20" x="456.494141"/>
      <use xlink:href="#DejaVuSans-65" x="488.28125"/>
      <use xlink:href="#DejaVuSans-76" x="549.804688"/>
      <use xlink:href="#DejaVuSans-61" x="608.984375"/>
      <use xlink:href="#DejaVuSans-6c" x="670.263672"/>
      <use xlink:href="#DejaVuSans-5f" x="698.046875"/>
      <use xlink:href="#DejaVuSans-6c" x="748.046875"/>
      <use xlink:href="#DejaVuSans-6f" x="775.830078"/>
      <use xlink:href="#DejaVuSans-73" x="837.011719"/>
      <use xlink:href="#DejaVuSans-73" x="889.111328"/>
     </g>
    </g>
    <g id="line2d_46">
     <path d="M 283.596563 84.482938 
L 293.596563 84.482938 
L 303.596563 84.482938 
" style="fill: none; stroke: #2ca02c; stroke-opacity: 0.9; stroke-linecap: square"/>
    </g>
    <g id="text_16">
     <!-- MoGIN14 eval_loss -->
     <g transform="translate(311.596563 87.982938) scale(0.1 -0.1)">
      <use xlink:href="#DejaVuSans-4d"/>
      <use xlink:href="#DejaVuSans-6f" x="86.279297"/>
      <use xlink:href="#DejaVuSans-47" x="147.460938"/>
      <use xlink:href="#DejaVuSans-49" x="224.951172"/>
      <use xlink:href="#DejaVuSans-4e" x="254.443359"/>
      <use xlink:href="#DejaVuSans-31" x="329.248047"/>
      <use xlink:href="#DejaVuSans-34" x="392.871094"/>
      <use xlink:href="#DejaVuSans-20" x="456.494141"/>
      <use xlink:href="#DejaVuSans-65" x="488.28125"/>
      <use xlink:href="#DejaVuSans-76" x="549.804688"/>
      <use xlink:href="#DejaVuSans-61" x="608.984375"/>
      <use xlink:href="#DejaVuSans-6c" x="670.263672"/>
      <use xlink:href="#DejaVuSans-5f" x="698.046875"/>
      <use xlink:href="#DejaVuSans-6c" x="748.046875"/>
      <use xlink:href="#DejaVuSans-6f" x="775.830078"/>
      <use xlink:href="#DejaVuSans-73" x="837.011719"/>
      <use xlink:href="#DejaVuSans-73" x="889.111328"/>
     </g>
    </g>
   </g>
  </g>
 </g>
 <defs>
  <clipPath id="pc7e4479c9e">
   <rect x="57.6" y="41.472" width="357.12" height="266.112"/>
  </clipPath>
 </defs>
</svg>
