<?xml version="1.0" encoding="utf-8" standalone="no"?>
<!DOCTYPE svg PUBLIC "-//W3C//DTD SVG 1.1//EN"
  "http://www.w3.org/Graphics/SVG/1.1/DTD/svg11.dtd">
<svg xmlns:xlink="http://www.w3.org/1999/xlink" width="460.8pt" height="345.6pt" viewBox="0 0 460.8 345.6" xmlns="http://www.w3.org/2000/svg" version="1.1">
 <metadata>
  <rdf:RDF xmlns:dc="http://purl.org/dc/elements/1.1/" xmlns:cc="http://creativecommons.org/ns#" xmlns:rdf="http://www.w3.org/1999/02/22-rdf-syntax-ns#">
   <cc:Work>
    <dc:type rdf:resource="http://purl.org/dc/dcmitype/StillImage"/>
    <dc:date>2025-02-21T09:06:00.220219</dc:date>
    <dc:format>image/svg+xml</dc:format>
    <dc:creator>
     <cc:Agent>
      <dc:title>Matplotlib v3.8.4, https://matplotlib.org/</dc:title>
     </cc:Agent>
    </dc:creator>
   </cc:Work>
  </rdf:RDF>
 </metadata>
 <defs>
  <style type="text/css">*{stroke-linejoin: round; stroke-linecap: butt}</style>
 </defs>
 <g id="figure_1">
  <g id="patch_1">
   <path d="M 0 345.6 
L 460.8 345.6 
L 460.8 0 
L 0 0 
z
" style="fill: #ffffff"/>
  </g>
  <g id="axes_1">
   <g id="patch_2">
    <path d="M 57.6 307.584 
L 414.72 307.584 
L 414.72 41.472 
L 57.6 41.472 
z
" style="fill: #ffffff"/>
   </g>
   <g id="matplotlib.axis_1">
    <g id="xtick_1">
     <g id="line2d_1">
      <defs>
       <path id="m818627991d" d="M 0 0 
L 0 3.5 
" style="stroke: #000000; stroke-width: 0.8"/>
      </defs>
      <g>
       <use xlink:href="#m818627991d" x="57.6" y="307.584" style="stroke: #000000; stroke-width: 0.8"/>
      </g>
     </g>
     <g id="text_1">
      <!-- $\mathdefault{10^{3}}$ -->
      <g transform="translate(48.8 322.182437) scale(0.1 -0.1)">
       <defs>
        <path id="DejaVuSans-31" d="M 794 531 
L 1825 531 
L 1825 4091 
L 703 3866 
L 703 4441 
L 1819 4666 
L 2450 4666 
L 2450 531 
L 3481 531 
L 3481 0 
L 794 0 
L 794 531 
z
" transform="scale(0.015625)"/>
        <path id="DejaVuSans-30" d="M 2034 4250 
Q 1547 4250 1301 3770 
Q 1056 3291 1056 2328 
Q 1056 1369 1301 889 
Q 1547 409 2034 409 
Q 2525 409 2770 889 
Q 3016 1369 3016 2328 
Q 3016 3291 2770 3770 
Q 2525 4250 2034 4250 
z
M 2034 4750 
Q 2819 4750 3233 4129 
Q 3647 3509 3647 2328 
Q 3647 1150 3233 529 
Q 2819 -91 2034 -91 
Q 1250 -91 836 529 
Q 422 1150 422 2328 
Q 422 3509 836 4129 
Q 1250 4750 2034 4750 
z
" transform="scale(0.015625)"/>
        <path id="DejaVuSans-33" d="M 2597 2516 
Q 3050 2419 3304 2112 
Q 3559 1806 3559 1356 
Q 3559 666 3084 287 
Q 2609 -91 1734 -91 
Q 1441 -91 1130 -33 
Q 819 25 488 141 
L 488 750 
Q 750 597 1062 519 
Q 1375 441 1716 441 
Q 2309 441 2620 675 
Q 2931 909 2931 1356 
Q 2931 1769 2642 2001 
Q 2353 2234 1838 2234 
L 1294 2234 
L 1294 2753 
L 1863 2753 
Q 2328 2753 2575 2939 
Q 2822 3125 2822 3475 
Q 2822 3834 2567 4026 
Q 2313 4219 1838 4219 
Q 1578 4219 1281 4162 
Q 984 4106 628 3988 
L 628 4550 
Q 988 4650 1302 4700 
Q 1616 4750 1894 4750 
Q 2613 4750 3031 4423 
Q 3450 4097 3450 3541 
Q 3450 3153 3228 2886 
Q 3006 2619 2597 2516 
z
" transform="scale(0.015625)"/>
       </defs>
       <use xlink:href="#DejaVuSans-31" transform="translate(0 0.765625)"/>
       <use xlink:href="#DejaVuSans-30" transform="translate(63.623047 0.765625)"/>
       <use xlink:href="#DejaVuSans-33" transform="translate(128.203125 39.046875) scale(0.7)"/>
      </g>
     </g>
    </g>
    <g id="xtick_2">
     <g id="line2d_2">
      <g>
       <use xlink:href="#m818627991d" x="267.797943" y="307.584" style="stroke: #000000; stroke-width: 0.8"/>
      </g>
     </g>
     <g id="text_2">
      <!-- $\mathdefault{10^{4}}$ -->
      <g transform="translate(258.997943 322.182437) scale(0.1 -0.1)">
       <defs>
        <path id="DejaVuSans-34" d="M 2419 4116 
L 825 1625 
L 2419 1625 
L 2419 4116 
z
M 2253 4666 
L 3047 4666 
L 3047 1625 
L 3713 1625 
L 3713 1100 
L 3047 1100 
L 3047 0 
L 2419 0 
L 2419 1100 
L 313 1100 
L 313 1709 
L 2253 4666 
z
" transform="scale(0.015625)"/>
       </defs>
       <use xlink:href="#DejaVuSans-31" transform="translate(0 0.684375)"/>
       <use xlink:href="#DejaVuSans-30" transform="translate(63.623047 0.684375)"/>
       <use xlink:href="#DejaVuSans-34" transform="translate(128.203125 38.965625) scale(0.7)"/>
      </g>
     </g>
    </g>
    <g id="xtick_3">
     <g id="line2d_3">
      <defs>
       <path id="ma371912f23" d="M 0 0 
L 0 2 
" style="stroke: #000000; stroke-width: 0.6"/>
      </defs>
      <g>
       <use xlink:href="#ma371912f23" x="120.875886" y="307.584" style="stroke: #000000; stroke-width: 0.6"/>
      </g>
     </g>
    </g>
    <g id="xtick_4">
     <g id="line2d_4">
      <g>
       <use xlink:href="#ma371912f23" x="157.889906" y="307.584" style="stroke: #000000; stroke-width: 0.6"/>
      </g>
     </g>
    </g>
    <g id="xtick_5">
     <g id="line2d_5">
      <g>
       <use xlink:href="#ma371912f23" x="184.151772" y="307.584" style="stroke: #000000; stroke-width: 0.6"/>
      </g>
     </g>
    </g>
    <g id="xtick_6">
     <g id="line2d_6">
      <g>
       <use xlink:href="#ma371912f23" x="204.522057" y="307.584" style="stroke: #000000; stroke-width: 0.6"/>
      </g>
     </g>
    </g>
    <g id="xtick_7">
     <g id="line2d_7">
      <g>
       <use xlink:href="#ma371912f23" x="221.165792" y="307.584" style="stroke: #000000; stroke-width: 0.6"/>
      </g>
     </g>
    </g>
    <g id="xtick_8">
     <g id="line2d_8">
      <g>
       <use xlink:href="#ma371912f23" x="235.23787" y="307.584" style="stroke: #000000; stroke-width: 0.6"/>
      </g>
     </g>
    </g>
    <g id="xtick_9">
     <g id="line2d_9">
      <g>
       <use xlink:href="#ma371912f23" x="247.427658" y="307.584" style="stroke: #000000; stroke-width: 0.6"/>
      </g>
     </g>
    </g>
    <g id="xtick_10">
     <g id="line2d_10">
      <g>
       <use xlink:href="#ma371912f23" x="258.179813" y="307.584" style="stroke: #000000; stroke-width: 0.6"/>
      </g>
     </g>
    </g>
    <g id="xtick_11">
     <g id="line2d_11">
      <g>
       <use xlink:href="#ma371912f23" x="331.073829" y="307.584" style="stroke: #000000; stroke-width: 0.6"/>
      </g>
     </g>
    </g>
    <g id="xtick_12">
     <g id="line2d_12">
      <g>
       <use xlink:href="#ma371912f23" x="368.087849" y="307.584" style="stroke: #000000; stroke-width: 0.6"/>
      </g>
     </g>
    </g>
    <g id="xtick_13">
     <g id="line2d_13">
      <g>
       <use xlink:href="#ma371912f23" x="394.349715" y="307.584" style="stroke: #000000; stroke-width: 0.6"/>
      </g>
     </g>
    </g>
    <g id="xtick_14">
     <g id="line2d_14">
      <g>
       <use xlink:href="#ma371912f23" x="414.72" y="307.584" style="stroke: #000000; stroke-width: 0.6"/>
      </g>
     </g>
    </g>
    <g id="text_3">
     <!-- iter# -->
     <g transform="translate(223.488906 335.860562) scale(0.1 -0.1)">
      <defs>
       <path id="DejaVuSans-69" d="M 603 3500 
L 1178 3500 
L 1178 0 
L 603 0 
L 603 3500 
z
M 603 4863 
L 1178 4863 
L 1178 4134 
L 603 4134 
L 603 4863 
z
" transform="scale(0.015625)"/>
       <path id="DejaVuSans-74" d="M 1172 4494 
L 1172 3500 
L 2356 3500 
L 2356 3053 
L 1172 3053 
L 1172 1153 
Q 1172 725 1289 603 
Q 1406 481 1766 481 
L 2356 481 
L 2356 0 
L 1766 0 
Q 1100 0 847 248 
Q 594 497 594 1153 
L 594 3053 
L 172 3053 
L 172 3500 
L 594 3500 
L 594 4494 
L 1172 4494 
z
" transform="scale(0.015625)"/>
       <path id="DejaVuSans-65" d="M 3597 1894 
L 3597 1613 
L 953 1613 
Q 991 1019 1311 708 
Q 1631 397 2203 397 
Q 2534 397 2845 478 
Q 3156 559 3463 722 
L 3463 178 
Q 3153 47 2828 -22 
Q 2503 -91 2169 -91 
Q 1331 -91 842 396 
Q 353 884 353 1716 
Q 353 2575 817 3079 
Q 1281 3584 2069 3584 
Q 2775 3584 3186 3129 
Q 3597 2675 3597 1894 
z
M 3022 2063 
Q 3016 2534 2758 2815 
Q 2500 3097 2075 3097 
Q 1594 3097 1305 2825 
Q 1016 2553 972 2059 
L 3022 2063 
z
" transform="scale(0.015625)"/>
       <path id="DejaVuSans-72" d="M 2631 2963 
Q 2534 3019 2420 3045 
Q 2306 3072 2169 3072 
Q 1681 3072 1420 2755 
Q 1159 2438 1159 1844 
L 1159 0 
L 581 0 
L 581 3500 
L 1159 3500 
L 1159 2956 
Q 1341 3275 1631 3429 
Q 1922 3584 2338 3584 
Q 2397 3584 2469 3576 
Q 2541 3569 2628 3553 
L 2631 2963 
z
" transform="scale(0.015625)"/>
       <path id="DejaVuSans-23" d="M 3272 2816 
L 2363 2816 
L 2100 1772 
L 3016 1772 
L 3272 2816 
z
M 2803 4594 
L 2478 3297 
L 3391 3297 
L 3719 4594 
L 4219 4594 
L 3897 3297 
L 4872 3297 
L 4872 2816 
L 3775 2816 
L 3519 1772 
L 4513 1772 
L 4513 1294 
L 3397 1294 
L 3072 0 
L 2572 0 
L 2894 1294 
L 1978 1294 
L 1656 0 
L 1153 0 
L 1478 1294 
L 494 1294 
L 494 1772 
L 1594 1772 
L 1856 2816 
L 850 2816 
L 850 3297 
L 1978 3297 
L 2297 4594 
L 2803 4594 
z
" transform="scale(0.015625)"/>
      </defs>
      <use xlink:href="#DejaVuSans-69"/>
      <use xlink:href="#DejaVuSans-74" x="27.783203"/>
      <use xlink:href="#DejaVuSans-65" x="66.992188"/>
      <use xlink:href="#DejaVuSans-72" x="128.515625"/>
      <use xlink:href="#DejaVuSans-23" x="169.628906"/>
     </g>
    </g>
   </g>
   <g id="matplotlib.axis_2">
    <g id="ytick_1">
     <g id="line2d_15">
      <defs>
       <path id="mb52e7d0a23" d="M 0 0 
L -3.5 0 
" style="stroke: #000000; stroke-width: 0.8"/>
      </defs>
      <g>
       <use xlink:href="#mb52e7d0a23" x="57.6" y="245.254111" style="stroke: #000000; stroke-width: 0.8"/>
      </g>
     </g>
     <g id="text_4">
      <!-- $\mathdefault{10^{-2}}$ -->
      <g transform="translate(27.1 249.05333) scale(0.1 -0.1)">
       <defs>
        <path id="DejaVuSans-2212" d="M 678 2272 
L 4684 2272 
L 4684 1741 
L 678 1741 
L 678 2272 
z
" transform="scale(0.015625)"/>
        <path id="DejaVuSans-32" d="M 1228 531 
L 3431 531 
L 3431 0 
L 469 0 
L 469 531 
Q 828 903 1448 1529 
Q 2069 2156 2228 2338 
Q 2531 2678 2651 2914 
Q 2772 3150 2772 3378 
Q 2772 3750 2511 3984 
Q 2250 4219 1831 4219 
Q 1534 4219 1204 4116 
Q 875 4013 500 3803 
L 500 4441 
Q 881 4594 1212 4672 
Q 1544 4750 1819 4750 
Q 2544 4750 2975 4387 
Q 3406 4025 3406 3419 
Q 3406 3131 3298 2873 
Q 3191 2616 2906 2266 
Q 2828 2175 2409 1742 
Q 1991 1309 1228 531 
z
" transform="scale(0.015625)"/>
       </defs>
       <use xlink:href="#DejaVuSans-31" transform="translate(0 0.765625)"/>
       <use xlink:href="#DejaVuSans-30" transform="translate(63.623047 0.765625)"/>
       <use xlink:href="#DejaVuSans-2212" transform="translate(128.203125 39.046875) scale(0.7)"/>
       <use xlink:href="#DejaVuSans-32" transform="translate(186.855469 39.046875) scale(0.7)"/>
      </g>
     </g>
    </g>
    <g id="ytick_2">
     <g id="line2d_16">
      <g>
       <use xlink:href="#mb52e7d0a23" x="57.6" y="88.622741" style="stroke: #000000; stroke-width: 0.8"/>
      </g>
     </g>
     <g id="text_5">
      <!-- $\mathdefault{10^{-1}}$ -->
      <g transform="translate(27.1 92.421959) scale(0.1 -0.1)">
       <use xlink:href="#DejaVuSans-31" transform="translate(0 0.684375)"/>
       <use xlink:href="#DejaVuSans-30" transform="translate(63.623047 0.684375)"/>
       <use xlink:href="#DejaVuSans-2212" transform="translate(128.203125 38.965625) scale(0.7)"/>
       <use xlink:href="#DejaVuSans-31" transform="translate(186.855469 38.965625) scale(0.7)"/>
      </g>
     </g>
    </g>
    <g id="ytick_3">
     <g id="line2d_17">
      <defs>
       <path id="m1ace73afbb" d="M 0 0 
L -2 0 
" style="stroke: #000000; stroke-width: 0.6"/>
      </defs>
      <g>
       <use xlink:href="#m1ace73afbb" x="57.6" y="307.584" style="stroke: #000000; stroke-width: 0.6"/>
      </g>
     </g>
    </g>
    <g id="ytick_4">
     <g id="line2d_18">
      <g>
       <use xlink:href="#m1ace73afbb" x="57.6" y="292.404852" style="stroke: #000000; stroke-width: 0.6"/>
      </g>
     </g>
    </g>
    <g id="ytick_5">
     <g id="line2d_19">
      <g>
       <use xlink:href="#m1ace73afbb" x="57.6" y="280.002585" style="stroke: #000000; stroke-width: 0.6"/>
      </g>
     </g>
    </g>
    <g id="ytick_6">
     <g id="line2d_20">
      <g>
       <use xlink:href="#m1ace73afbb" x="57.6" y="269.516617" style="stroke: #000000; stroke-width: 0.6"/>
      </g>
     </g>
    </g>
    <g id="ytick_7">
     <g id="line2d_21">
      <g>
       <use xlink:href="#m1ace73afbb" x="57.6" y="260.433259" style="stroke: #000000; stroke-width: 0.6"/>
      </g>
     </g>
    </g>
    <g id="ytick_8">
     <g id="line2d_22">
      <g>
       <use xlink:href="#m1ace73afbb" x="57.6" y="252.42117" style="stroke: #000000; stroke-width: 0.6"/>
      </g>
     </g>
    </g>
    <g id="ytick_9">
     <g id="line2d_23">
      <g>
       <use xlink:href="#m1ace73afbb" x="57.6" y="198.10337" style="stroke: #000000; stroke-width: 0.6"/>
      </g>
     </g>
    </g>
    <g id="ytick_10">
     <g id="line2d_24">
      <g>
       <use xlink:href="#m1ace73afbb" x="57.6" y="170.521955" style="stroke: #000000; stroke-width: 0.6"/>
      </g>
     </g>
    </g>
    <g id="ytick_11">
     <g id="line2d_25">
      <g>
       <use xlink:href="#m1ace73afbb" x="57.6" y="150.95263" style="stroke: #000000; stroke-width: 0.6"/>
      </g>
     </g>
    </g>
    <g id="ytick_12">
     <g id="line2d_26">
      <g>
       <use xlink:href="#m1ace73afbb" x="57.6" y="135.773481" style="stroke: #000000; stroke-width: 0.6"/>
      </g>
     </g>
    </g>
    <g id="ytick_13">
     <g id="line2d_27">
      <g>
       <use xlink:href="#m1ace73afbb" x="57.6" y="123.371214" style="stroke: #000000; stroke-width: 0.6"/>
      </g>
     </g>
    </g>
    <g id="ytick_14">
     <g id="line2d_28">
      <g>
       <use xlink:href="#m1ace73afbb" x="57.6" y="112.885247" style="stroke: #000000; stroke-width: 0.6"/>
      </g>
     </g>
    </g>
    <g id="ytick_15">
     <g id="line2d_29">
      <g>
       <use xlink:href="#m1ace73afbb" x="57.6" y="103.801889" style="stroke: #000000; stroke-width: 0.6"/>
      </g>
     </g>
    </g>
    <g id="ytick_16">
     <g id="line2d_30">
      <g>
       <use xlink:href="#m1ace73afbb" x="57.6" y="95.789799" style="stroke: #000000; stroke-width: 0.6"/>
      </g>
     </g>
    </g>
    <g id="ytick_17">
     <g id="line2d_31">
      <g>
       <use xlink:href="#m1ace73afbb" x="57.6" y="41.472" style="stroke: #000000; stroke-width: 0.6"/>
      </g>
     </g>
    </g>
    <g id="text_6">
     <!-- loss -->
     <g transform="translate(21.020313 184.185812) rotate(-90) scale(0.1 -0.1)">
      <defs>
       <path id="DejaVuSans-6c" d="M 603 4863 
L 1178 4863 
L 1178 0 
L 603 0 
L 603 4863 
z
" transform="scale(0.015625)"/>
       <path id="DejaVuSans-6f" d="M 1959 3097 
Q 1497 3097 1228 2736 
Q 959 2375 959 1747 
Q 959 1119 1226 758 
Q 1494 397 1959 397 
Q 2419 397 2687 759 
Q 2956 1122 2956 1747 
Q 2956 2369 2687 2733 
Q 2419 3097 1959 3097 
z
M 1959 3584 
Q 2709 3584 3137 3096 
Q 3566 2609 3566 1747 
Q 3566 888 3137 398 
Q 2709 -91 1959 -91 
Q 1206 -91 779 398 
Q 353 888 353 1747 
Q 353 2609 779 3096 
Q 1206 3584 1959 3584 
z
" transform="scale(0.015625)"/>
       <path id="DejaVuSans-73" d="M 2834 3397 
L 2834 2853 
Q 2591 2978 2328 3040 
Q 2066 3103 1784 3103 
Q 1356 3103 1142 2972 
Q 928 2841 928 2578 
Q 928 2378 1081 2264 
Q 1234 2150 1697 2047 
L 1894 2003 
Q 2506 1872 2764 1633 
Q 3022 1394 3022 966 
Q 3022 478 2636 193 
Q 2250 -91 1575 -91 
Q 1294 -91 989 -36 
Q 684 19 347 128 
L 347 722 
Q 666 556 975 473 
Q 1284 391 1588 391 
Q 1994 391 2212 530 
Q 2431 669 2431 922 
Q 2431 1156 2273 1281 
Q 2116 1406 1581 1522 
L 1381 1569 
Q 847 1681 609 1914 
Q 372 2147 372 2553 
Q 372 3047 722 3315 
Q 1072 3584 1716 3584 
Q 2034 3584 2315 3537 
Q 2597 3491 2834 3397 
z
" transform="scale(0.015625)"/>
      </defs>
      <use xlink:href="#DejaVuSans-6c"/>
      <use xlink:href="#DejaVuSans-6f" x="27.783203"/>
      <use xlink:href="#DejaVuSans-73" x="88.964844"/>
      <use xlink:href="#DejaVuSans-73" x="141.064453"/>
     </g>
    </g>
   </g>
   <g id="line2d_32">
    <path d="M 53.968492 40.228782 
L 59.854134 50.574026 
L 65.383184 60.835842 
L 70.596393 68.532556 
L 75.527904 78.450597 
L 80.206606 86.614605 
L 84.657159 83.621866 
L 88.900784 89.563729 
L 92.955871 82.613328 
L 96.838463 92.072305 
L 100.562638 93.194887 
L 104.140817 100.314526 
L 107.584018 98.479026 
L 110.902055 105.309145 
L 114.103709 112.850619 
L 117.196869 110.728068 
L 123.085479 122.501833 
L 123.839744 123.156302 
L 126.624717 120.296391 
L 129.327236 107.049721 
L 131.952044 110.579949 
L 134.503485 100.92975 
L 136.985549 99.509532 
L 139.40191 107.567743 
L 141.755957 108.457567 
L 144.050822 111.390614 
L 146.289409 112.603913 
L 148.474413 94.307896 
L 150.608337 86.343823 
L 152.693517 90.326181 
L 154.732129 92.273477 
L 156.726208 102.500819 
L 158.677659 104.579344 
L 160.588264 105.950607 
L 162.459701 98.539311 
L 164.293541 108.251373 
L 166.091267 111.390149 
L 167.854273 117.043683 
L 169.583875 108.702509 
L 171.281314 105.591714 
L 172.947767 109.994114 
L 174.584343 111.622681 
L 176.192095 105.680149 
L 177.77202 109.651963 
L 179.325067 116.360674 
L 180.852133 124.574035 
L 182.354074 112.151755 
L 183.831704 105.368155 
L 185.285796 104.481544 
L 186.71709 106.975597 
L 187.093535 97.252105 
L 188.496978 108.638946 
L 189.879171 118.930926 
L 191.240749 109.552831 
L 192.582316 113.236561 
L 193.904452 118.375408 
L 195.207713 117.174199 
L 197.759712 114.262274 
L 199.009447 122.972847 
L 200.242303 123.083528 
L 201.458732 116.206351 
L 202.659164 120.144828 
L 203.844015 121.7587 
L 205.013685 120.60191 
L 206.168557 127.011501 
L 207.309001 121.937229 
L 208.435374 128.523207 
L 209.548017 137.571083 
L 211.733429 118.215391 
L 212.806824 104.253511 
L 213.867744 111.781492 
L 214.916475 111.635974 
L 215.953296 121.187444 
L 216.978472 129.054769 
L 217.992263 129.843708 
L 218.99492 138.775266 
L 219.986683 121.336478 
L 220.967787 128.920238 
L 221.938459 119.283548 
L 222.898919 114.547589 
L 223.849378 121.521718 
L 224.100189 126.635445 
L 225.038286 123.588939 
L 225.966842 106.779611 
L 226.886047 118.672138 
L 228.697148 135.934976 
L 229.5894 131.703815 
L 230.473015 138.467945 
L 231.34816 141.023029 
L 232.214994 134.298692 
L 233.073675 139.134086 
L 233.924353 140.538207 
L 234.767178 145.655281 
L 235.602292 152.599825 
L 236.429836 157.764509 
L 237.249946 157.239317 
L 238.062753 157.254065 
L 238.868387 152.466123 
L 239.666973 142.870336 
L 241.243488 109.596008 
L 242.021652 113.989508 
L 242.793239 101.204544 
L 243.558358 102.404622 
L 244.317119 89.239297 
L 245.069624 87.404608 
L 245.815977 96.663617 
L 246.556278 100.771774 
L 247.290623 108.335259 
L 248.019108 117.045394 
L 248.741826 122.655319 
L 249.458867 120.572692 
L 250.170319 116.824829 
L 250.358371 126.973825 
L 251.062874 133.933534 
L 251.761983 143.159813 
L 252.455778 144.371325 
L 253.14434 142.494632 
L 253.827747 136.227087 
L 254.506076 142.545035 
L 255.179401 153.59489 
L 255.847797 148.094791 
L 256.511334 148.566037 
L 257.170083 136.496792 
L 257.824112 137.455733 
L 258.473489 137.253672 
L 259.118279 142.48075 
L 259.758547 118.215526 
L 260.394356 118.193152 
L 261.65284 140.234761 
L 262.275635 143.260336 
L 262.89421 127.224362 
L 263.508622 134.270497 
L 264.118926 138.825809 
L 264.725177 131.136411 
L 265.327428 135.285856 
L 265.925733 118.881988 
L 266.520141 107.457671 
L 267.697471 126.58429 
L 268.280491 130.624386 
L 268.85981 139.540734 
L 269.435477 131.399018 
L 270.576032 125.046618 
L 270.726446 131.182169 
L 271.290497 135.922257 
L 271.851084 145.822822 
L 272.408249 136.575912 
L 273.512481 157.031659 
L 274.059628 154.300934 
L 274.603516 162.96782 
L 275.144182 149.266638 
L 275.681664 138.509697 
L 276.216001 141.322136 
L 276.747228 144.956614 
L 277.275382 153.811857 
L 277.800497 151.84596 
L 278.322609 155.175883 
L 278.841752 151.64731 
L 279.35796 144.384136 
L 279.871265 146.261254 
L 280.381699 139.541131 
L 280.889296 136.059716 
L 281.394085 140.581755 
L 281.896099 120.988427 
L 282.891919 134.687078 
L 283.385785 138.258106 
L 283.876994 150.197133 
L 284.365573 156.695843 
L 284.851552 168.131535 
L 285.334957 173.864656 
L 285.815815 170.853737 
L 286.77 179.074807 
L 287.243378 185.040905 
L 287.368708 193.316199 
L 287.838999 198.550027 
L 288.30688 200.336867 
L 288.772376 202.872626 
L 289.23551 208.492773 
L 289.696305 208.751767 
L 290.154787 184.050897 
L 290.610978 186.652261 
L 291.0649 183.012943 
L 291.516576 183.003242 
L 291.966028 169.853435 
L 292.413279 174.440602 
L 292.858349 146.247087 
L 294.180685 176.170472 
L 294.617241 180.81948 
L 295.051719 165.680362 
L 295.484139 166.789238 
L 295.914521 177.004849 
L 296.342883 165.062057 
L 296.769245 171.747126 
L 297.193624 151.87239 
L 297.616039 145.204487 
L 298.036509 145.610772 
L 298.455052 148.262316 
L 298.871683 148.521159 
L 299.286423 157.557774 
L 299.699286 120.112607 
L 302.244479 191.809213 
L 303.438451 218.235787 
L 303.832996 203.318616 
L 304.225844 192.691851 
L 304.617008 197.288637 
L 305.006503 204.707024 
L 305.394344 187.650263 
L 305.780543 184.411632 
L 306.165116 175.869873 
L 306.548075 176.551242 
L 306.929435 186.137239 
L 307.309208 186.858315 
L 307.687408 187.926884 
L 308.064047 197.135808 
L 308.439138 198.105118 
L 308.812695 187.023342 
L 309.18473 190.181991 
L 309.92428 170.635108 
L 310.291821 173.620324 
L 310.657888 178.543659 
L 311.022493 188.223732 
L 311.385647 184.929821 
L 311.747363 160.849519 
L 312.10765 157.034086 
L 312.466522 163.337668 
L 312.823988 174.432178 
L 313.18006 181.329689 
L 313.534748 181.584 
L 313.628731 177.343263 
L 313.981684 182.549195 
L 314.683522 197.109623 
L 315.032427 200.780457 
L 315.380005 209.072432 
L 315.726264 207.622101 
L 316.071214 182.657987 
L 316.414866 175.201902 
L 316.757229 174.164983 
L 317.438127 191.783923 
L 317.776681 192.485131 
L 318.113984 191.196295 
L 318.450046 185.467035 
L 318.784874 175.882797 
L 319.45087 195.563633 
L 319.782055 159.791169 
L 321.094907 193.007221 
L 321.420191 192.421108 
L 321.74432 186.030696 
L 322.067302 185.89157 
L 322.389145 170.536487 
L 322.709858 177.674622 
L 323.029448 182.121543 
L 323.347923 190.069453 
L 323.665291 187.875044 
L 323.98156 183.069747 
L 324.296736 180.633023 
L 324.380272 185.033715 
L 325.629072 223.72305 
L 325.938621 229.253586 
L 326.247124 207.595251 
L 326.554588 212.77148 
L 326.861019 221.314941 
L 327.166426 225.317002 
L 327.470814 209.670442 
L 327.77419 213.224059 
L 328.076562 212.808455 
L 328.377935 216.890862 
L 328.678317 222.923725 
L 328.977714 190.551319 
L 329.276131 186.35427 
L 329.573577 192.614152 
L 329.870056 203.34193 
L 330.165576 201.920338 
L 330.460142 211.410088 
L 330.753761 130.750622 
L 331.046438 140.381423 
L 331.33818 145.945922 
L 332.495913 191.65832 
L 332.783066 191.620728 
L 333.069319 200.673122 
L 333.639147 193.748815 
L 333.922732 200.336519 
L 333.997911 206.000508 
L 334.280386 212.102454 
L 334.56199 223.109175 
L 334.842727 217.309084 
L 335.679796 240.527917 
L 335.957121 226.67919 
L 336.233607 224.021855 
L 336.509258 224.930035 
L 336.78408 232.675177 
L 337.058076 235.072613 
L 337.331252 242.543953 
L 337.603614 230.827877 
L 337.875165 235.135867 
L 338.145911 210.947512 
L 338.415856 207.710233 
L 338.685005 213.942723 
L 338.953363 224.399398 
L 339.220935 225.560786 
L 339.487724 218.985989 
L 339.753736 180.614448 
L 340.018976 171.129147 
L 340.283446 175.764275 
L 340.547153 185.605723 
L 340.8101 186.619292 
L 341.594428 201.59002 
L 341.85438 181.03618 
L 342.113594 187.524191 
L 342.372074 189.657576 
L 342.954999 212.132264 
L 343.211111 212.305793 
L 343.466506 206.669529 
L 343.721189 209.012365 
L 344.228433 228.458189 
L 344.481002 213.664677 
L 344.732874 218.841788 
L 344.984053 201.253591 
L 345.234543 201.227061 
L 345.484347 194.971737 
L 345.73347 202.800075 
L 345.981914 203.59767 
L 346.229685 208.482548 
L 346.476784 202.98906 
L 346.723217 204.743 
L 346.968986 207.577621 
L 347.214095 215.175303 
L 347.458548 216.494469 
L 347.702348 214.614203 
L 347.945499 217.186768 
L 348.188003 205.559451 
L 348.429865 203.586552 
L 348.911676 214.53172 
L 349.151631 198.458572 
L 349.390957 194.9127 
L 349.629657 204.484453 
L 349.867734 206.554182 
L 350.105193 205.189691 
L 350.342035 210.941046 
L 351.11122 237.495375 
L 351.34547 240.168096 
L 351.57912 236.533083 
L 351.812174 245.082239 
L 352.044634 236.203062 
L 352.738484 259.219066 
L 352.9686 264.328577 
L 353.198138 266.491905 
L 353.4271 254.966739 
L 353.655489 224.246256 
L 353.883308 218.682552 
L 354.11056 228.059859 
L 354.337248 226.497929 
L 354.563374 220.542594 
L 354.788942 226.950238 
L 355.013953 223.289311 
L 355.238411 227.356638 
L 355.462319 222.306883 
L 355.685679 223.873326 
L 355.908494 221.121419 
L 356.352498 227.81643 
L 356.573693 219.910046 
L 356.794353 202.324401 
L 357.014481 206.460665 
L 357.23408 204.684691 
L 357.671699 211.820653 
L 357.889724 221.825204 
L 357.94755 231.137291 
L 358.164918 215.190721 
L 358.38177 223.207748 
L 358.598108 226.143205 
L 358.813934 234.948549 
L 359.029251 230.573738 
L 359.458369 241.752301 
L 359.672173 226.411326 
L 360.098286 166.432837 
L 360.310599 168.619251 
L 361.154946 215.88224 
L 361.364818 217.573693 
L 361.78312 237.326864 
L 361.991555 241.643338 
L 362.199515 236.219318 
L 362.407002 244.217443 
L 362.614019 226.630838 
L 362.820567 230.414932 
L 363.026649 239.164514 
L 363.232266 227.228808 
L 363.642118 237.074153 
L 364.050137 221.378174 
L 364.456341 238.951203 
L 364.658767 238.056179 
L 364.712461 247.033608 
L 364.914321 257.158933 
L 365.115735 261.314173 
L 365.517235 275.710992 
L 365.717325 272.351156 
L 365.916977 274.953763 
L 366.116193 256.383945 
L 366.314976 249.280957 
L 366.711248 257.900426 
L 366.90874 235.354339 
L 367.105806 240.660086 
L 367.302448 242.572068 
L 367.498667 227.719642 
L 367.889844 240.416736 
L 368.084806 243.426276 
L 368.279353 244.415248 
L 368.473485 246.708818 
L 369.053418 271.905737 
L 369.245914 274.036339 
L 369.438004 232.694182 
L 369.62969 228.117249 
L 369.820976 234.65401 
L 370.011861 232.415985 
L 370.202348 233.760003 
L 370.392438 243.369616 
L 370.582133 245.548936 
L 370.771435 253.428377 
L 370.960345 249.856354 
L 371.010458 246.538005 
L 371.574546 270.159451 
L 371.761803 251.886352 
L 371.948676 252.694112 
L 372.32128 231.669854 
L 372.507013 242.827444 
L 372.692369 243.479071 
L 372.87735 234.681655 
L 373.061956 235.580299 
L 373.24619 234.589294 
L 373.430053 234.643332 
L 373.613546 228.802348 
L 373.796671 233.922364 
L 373.979429 195.219397 
L 374.525519 223.045482 
L 374.887773 239.108303 
L 375.068362 240.131985 
L 375.248595 246.067982 
L 375.607996 224.963837 
L 375.787168 235.738414 
L 376.322582 246.210613 
L 376.854873 265.404228 
L 376.901854 270.645456 
L 377.254818 264.662758 
L 377.430789 266.814547 
L 377.606422 263.642088 
L 377.781717 268.573174 
L 377.956676 264.327976 
L 378.131301 250.740101 
L 378.305593 254.404982 
L 378.479552 252.560299 
L 378.65318 246.582372 
L 378.826479 250.101373 
L 378.999449 241.773663 
L 379.172093 190.702227 
L 379.688072 216.742114 
L 380.030445 236.771209 
L 380.201152 235.509479 
L 380.711363 256.910922 
L 380.880802 261.207453 
L 381.049927 261.869334 
L 381.218739 253.070185 
L 381.38724 235.459949 
L 381.723311 247.393364 
L 381.890884 245.390362 
L 382.058149 241.619447 
L 382.225109 243.628709 
L 382.391764 240.838854 
L 382.43598 251.927724 
L 382.76822 262.993933 
L 383.099254 279.487213 
L 383.264322 278.933212 
L 383.429092 273.765056 
L 383.593566 261.990295 
L 383.757743 263.817189 
L 383.921626 259.98545 
L 384.085215 264.079676 
L 384.411516 281.220074 
L 384.574231 279.595798 
L 384.736656 280.398749 
L 384.898792 272.304438 
L 385.38348 291.769293 
L 385.544473 296.79031 
L 385.705182 265.21351 
L 385.865609 266.509037 
L 386.025754 273.662474 
L 386.185619 259.814501 
L 386.345204 266.529208 
L 386.504511 259.396234 
L 386.663541 260.470258 
L 386.822293 262.322827 
L 386.980771 259.564563 
L 387.138973 259.282456 
L 387.454558 272.113417 
L 387.611943 276.810907 
L 387.653702 264.533115 
L 387.810744 265.257943 
L 388.124019 279.948273 
L 388.280254 287.273331 
L 388.436223 259.676146 
L 388.591925 268.042091 
L 388.747363 260.539797 
L 389.057445 272.902097 
L 389.212093 249.992758 
L 389.366478 246.208982 
L 389.674469 261.703536 
L 389.981424 276.545077 
L 390.134515 270.123665 
L 390.28735 268.610702 
L 390.439929 273.956406 
L 390.592254 265.215244 
L 390.744325 264.960413 
L 390.896144 247.14115 
L 391.04771 247.778771 
L 391.350089 240.036814 
L 391.500904 242.270694 
L 391.651471 241.53828 
L 391.801789 224.56758 
L 391.95186 231.869694 
L 392.101685 232.643169 
L 392.251264 237.984564 
L 392.589251 260.346132 
L 392.738034 257.689329 
L 393.034875 275.045796 
L 393.330754 288.081003 
L 393.478335 273.406618 
L 393.625677 279.089579 
L 393.772782 271.054519 
L 394.066283 282.286396 
L 394.21268 282.961221 
L 394.358843 284.501725 
L 394.504772 275.616793 
L 394.795933 283.560344 
L 395.086167 267.169371 
L 395.807742 288.621759 
L 395.951376 288.271445 
L 396.094783 260.840385 
L 396.380924 274.42792 
L 396.523659 281.856419 
L 396.666171 275.44836 
L 396.950529 286.414221 
L 397.092377 263.760115 
L 397.234004 263.820883 
L 397.271587 272.024275 
L 398.256472 305.395196 
L 398.396306 302.716275 
L 398.535927 309.499371 
L 398.675334 265.871221 
L 398.814529 275.344353 
L 398.953511 263.854137 
L 399.092283 262.22253 
L 399.230844 265.699592 
L 399.507336 276.007901 
L 399.645269 277.849447 
L 399.782994 239.562339 
L 400.057822 256.526242 
L 400.194926 252.651052 
L 400.468518 265.605217 
L 400.605007 259.13037 
L 400.741293 261.301792 
L 401.148932 277.618198 
L 401.284409 279.389278 
L 401.55476 269.186277 
L 401.860053 288.387043 
L 401.994479 281.89452 
L 402.262739 296.337736 
L 402.530212 273.321825 
L 402.929959 290.911736 
L 403.062819 293.637607 
L 403.195487 278.905397 
L 403.327962 287.062912 
L 403.460245 278.136388 
L 403.592337 276.963601 
L 403.98747 289.386251 
L 404.249944 300.724241 
L 404.642247 278.399603 
L 405.032871 296.819442 
L 405.162708 282.378403 
L 405.292361 290.876191 
L 405.42183 274.640094 
L 405.551116 279.588786 
L 405.680218 267.779602 
L 405.937878 282.175858 
L 406.100553 297.246152 
L 406.228881 300.015127 
L 406.35703 298.721809 
L 406.484999 303.385852 
L 406.612789 296.903183 
L 406.7404 301.115472 
L 406.867833 309.158681 
L 406.995088 309.228609 
L 407.122166 315.372505 
L 407.249068 312.205987 
L 407.375793 305.655198 
L 407.502343 312.799356 
L 407.628718 305.941911 
L 407.880943 289.144687 
L 408.006795 294.288509 
L 408.383313 278.805804 
L 408.633465 291.310993 
L 408.758284 291.120432 
L 408.882933 296.617255 
L 409.007412 293.37663 
L 409.131721 286.865382 
L 409.255862 295.371523 
L 409.379834 287.054264 
L 409.503637 290.49644 
L 409.627273 288.506348 
L 409.750742 290.053492 
L 409.874044 293.243921 
L 410.02986 278.16664 
L 410.398142 295.385713 
L 410.520573 299.520161 
L 410.642841 273.110785 
L 411.373025 298.342026 
L 411.494157 286.850546 
L 411.735939 299.430659 
L 411.85659 294.181644 
L 412.217591 314.844072 
L 412.457467 298.918377 
L 412.577169 304.763364 
L 412.696714 287.503977 
L 413.054414 305.003737 
L 413.173336 301.093608 
L 413.292104 308.917303 
L 413.410717 304.58312 
L 413.647483 313.213824 
L 413.765635 292.091998 
L 413.914954 297.175459 
L 414.267921 316.972421 
L 414.385274 322.516925 
L 414.502476 321.051365 
L 414.73643 301.17434 
L 414.73643 301.17434 
" clip-path="url(#p4a0ccbf532)" style="fill: none; stroke: #1f77b4; stroke-opacity: 0.4; stroke-linecap: square"/>
   </g>
   <g id="line2d_33">
    <path d="M 53.968492 101.710915 
L 59.854134 104.384908 
L 65.383184 113.691101 
L 70.596393 119.127293 
L 75.527904 125.90102 
L 80.206606 126.470347 
L 84.657159 133.071557 
L 88.900784 137.538769 
L 92.955871 136.809268 
L 96.838463 143.276422 
L 100.562638 140.58705 
L 104.140817 139.446044 
L 107.584018 145.92246 
L 110.902055 150.228815 
L 114.103709 146.850109 
L 117.196869 146.387896 
L 120.188647 121.844331 
L 123.085479 128.676806 
L 123.839744 135.659992 
L 126.624717 142.3883 
L 131.952044 148.772908 
L 134.503485 153.88452 
L 136.985549 145.10928 
L 139.40191 150.393168 
L 141.755957 137.917468 
L 144.050822 143.791375 
L 146.289409 150.530094 
L 148.474413 153.50005 
L 150.608337 137.717791 
L 152.693517 132.783039 
L 154.732129 140.271112 
L 156.726208 144.380022 
L 158.677659 152.231955 
L 160.588264 157.959664 
L 162.459701 163.091523 
L 164.293541 166.938215 
L 166.091267 171.347438 
L 167.854273 166.504994 
L 169.583875 172.22158 
L 171.281314 175.655932 
L 172.947767 167.458619 
L 174.584343 171.239728 
L 176.192095 166.96119 
L 177.77202 171.724286 
L 179.325067 175.532879 
L 180.852133 175.380213 
L 182.354074 174.625019 
L 183.831704 163.670825 
L 185.285796 166.794538 
L 186.71709 171.898747 
L 187.093535 165.697624 
L 188.496978 163.837153 
L 189.879171 166.222612 
L 191.240749 169.729895 
L 192.582316 167.725203 
L 193.904452 169.046696 
L 195.207713 172.564054 
L 196.49263 172.578402 
L 197.759712 172.277315 
L 199.009447 176.296519 
L 200.242303 177.541789 
L 201.458732 172.829339 
L 202.659164 176.872823 
L 203.844015 166.067681 
L 205.013685 171.108824 
L 206.168557 172.915836 
L 207.309001 176.600978 
L 208.435374 182.152294 
L 209.548017 183.780879 
L 210.647263 184.554788 
L 211.733429 169.075943 
L 212.806824 169.601569 
L 213.867744 175.410444 
L 214.916475 177.895706 
L 215.953296 179.158764 
L 216.978472 179.725596 
L 217.992263 161.145322 
L 218.99492 167.62378 
L 219.986683 167.188282 
L 221.938459 148.772812 
L 222.898919 157.079455 
L 223.849378 143.060465 
L 224.100189 146.618946 
L 225.038286 152.645353 
L 226.886047 167.297531 
L 227.796089 173.085902 
L 228.697148 174.665465 
L 229.5894 179.586471 
L 230.473015 178.449103 
L 231.34816 179.590687 
L 232.214994 181.676561 
L 233.073675 185.671575 
L 233.924353 180.177651 
L 234.767178 184.050284 
L 235.602292 189.371703 
L 236.429836 190.448062 
L 237.249946 182.37417 
L 238.062753 183.376897 
L 238.868387 181.117571 
L 241.243488 192.419638 
L 242.793239 177.919922 
L 243.558358 181.479671 
L 244.317119 184.298774 
L 245.069624 171.199365 
L 245.815977 170.127719 
L 246.556278 177.43936 
L 247.290623 178.647373 
L 248.019108 182.714059 
L 248.741826 186.001343 
L 249.458867 178.41363 
L 250.170319 178.819986 
L 250.358371 180.609263 
L 251.062874 178.792128 
L 251.761983 186.743104 
L 252.455778 173.207542 
L 253.14434 182.221811 
L 254.506076 191.1869 
L 255.179401 192.924529 
L 255.847797 201.713436 
L 256.511334 207.896643 
L 257.170083 210.190662 
L 257.824112 216.401612 
L 258.473489 218.626225 
L 259.118279 214.693133 
L 259.758547 219.960267 
L 260.394356 199.712262 
L 261.025766 201.880112 
L 261.65284 199.114471 
L 262.275635 202.800174 
L 262.89421 209.504801 
L 263.508622 199.764198 
L 264.118926 205.845443 
L 264.725177 177.518068 
L 265.327428 165.83954 
L 265.925733 166.281652 
L 266.520141 166.336686 
L 267.110704 171.773326 
L 267.697471 169.603226 
L 268.85981 190.097965 
L 269.435477 190.002167 
L 270.007536 199.276207 
L 270.576032 197.329453 
L 270.726446 198.515816 
L 271.290497 186.491717 
L 271.851084 195.753811 
L 272.408249 191.72859 
L 272.962035 201.241554 
L 273.512481 199.27798 
L 274.059628 208.403353 
L 275.144182 207.749902 
L 275.681664 206.971532 
L 276.216001 206.56581 
L 276.747228 212.281483 
L 277.800497 228.318631 
L 278.322609 226.898541 
L 278.841752 234.127066 
L 279.35796 233.616832 
L 279.871265 238.141476 
L 280.381699 238.00964 
L 280.889296 234.109176 
L 281.394085 234.761178 
L 282.395367 244.510487 
L 282.891919 225.235989 
L 283.385785 230.56694 
L 283.876994 214.068093 
L 284.365573 209.453726 
L 285.334957 224.381752 
L 285.815815 221.673202 
L 286.294154 229.364233 
L 286.77 229.738413 
L 287.243378 218.819474 
L 287.368708 225.076688 
L 287.838999 231.291157 
L 288.30688 230.765791 
L 288.772376 230.5988 
L 289.696305 244.235275 
L 290.154787 232.899258 
L 290.610978 206.405535 
L 291.0649 195.933053 
L 292.413279 219.859614 
L 292.858349 221.544164 
L 293.301259 225.788386 
L 293.742031 215.853075 
L 294.180685 224.593737 
L 294.617241 207.634583 
L 295.484139 220.069659 
L 295.914521 229.432193 
L 296.342883 229.611793 
L 296.769245 218.309526 
L 297.193624 222.901259 
L 297.616039 219.161512 
L 298.036509 224.689247 
L 298.455052 224.071582 
L 299.286423 213.19049 
L 299.699286 220.077504 
L 300.11029 224.824053 
L 300.519453 233.965549 
L 300.926789 208.768845 
L 301.439733 222.678403 
L 301.842993 225.299214 
L 302.244479 223.505644 
L 302.644207 224.934311 
L 303.042193 231.520697 
L 303.438451 234.780124 
L 303.832996 239.497255 
L 304.225844 241.5214 
L 304.617008 241.470063 
L 305.006503 231.499387 
L 305.780543 238.733152 
L 306.165116 237.189856 
L 306.548075 242.686281 
L 306.929435 250.786764 
L 307.309208 245.786578 
L 307.687408 253.76094 
L 308.064047 256.237448 
L 308.439138 239.755002 
L 308.812695 247.069057 
L 309.18473 248.764842 
L 309.555254 247.499736 
L 309.92428 234.572165 
L 310.291821 243.152353 
L 310.657888 233.351345 
L 311.022493 232.68686 
L 311.385647 236.126302 
L 311.747363 234.859634 
L 312.10765 239.464305 
L 312.466522 207.792341 
L 312.823988 218.017218 
L 313.18006 224.553421 
L 313.534748 234.752244 
L 313.628731 242.146852 
L 313.981684 244.088977 
L 314.333277 252.684496 
L 315.032427 257.795709 
L 315.380005 257.053845 
L 315.726264 252.707071 
L 316.071214 259.166695 
L 316.414866 261.335691 
L 316.757229 245.124421 
L 317.098313 238.041632 
L 317.438127 241.279701 
L 318.113984 252.58367 
L 318.450046 233.461073 
L 319.45087 253.640061 
L 319.782055 247.243374 
L 320.112042 254.163273 
L 320.440841 233.89182 
L 320.768459 242.971138 
L 321.094907 243.427917 
L 321.420191 240.301702 
L 321.74432 248.616771 
L 322.067302 222.811722 
L 322.389145 220.491459 
L 322.709858 220.847376 
L 323.029448 216.768045 
L 323.347923 221.003984 
L 323.665291 219.128153 
L 323.98156 224.824249 
L 324.296736 223.455393 
L 324.380272 223.884883 
L 324.694077 223.518355 
L 325.006808 221.824724 
L 325.629072 238.712655 
L 325.938621 237.691583 
L 326.247124 220.418168 
L 326.554588 227.783559 
L 326.861019 230.069533 
L 327.166426 235.932648 
L 327.470814 239.420573 
L 327.77419 235.372047 
L 328.377935 241.704848 
L 328.678317 248.443686 
L 328.977714 251.181249 
L 329.276131 249.049304 
L 329.573577 228.431658 
L 330.165576 240.292082 
L 330.460142 240.361132 
L 330.753761 248.73292 
L 331.33818 257.391961 
L 331.628993 259.007112 
L 331.918882 241.605696 
L 332.207853 241.411676 
L 332.495913 250.44235 
L 332.783066 249.868571 
L 333.069319 242.932037 
L 333.354678 248.833283 
L 333.639147 240.279365 
L 333.922732 247.979269 
L 333.997911 254.969302 
L 334.280386 256.812769 
L 334.842727 266.170847 
L 335.122603 274.063224 
L 335.401625 262.173421 
L 335.679796 266.366552 
L 335.957121 268.229888 
L 336.233607 268.364603 
L 336.509258 255.958131 
L 336.78408 258.64231 
L 337.331252 271.161992 
L 337.603614 275.539435 
L 337.875165 274.737109 
L 338.145911 272.803274 
L 338.415856 272.902872 
L 338.685005 276.503632 
L 338.953363 243.787867 
L 339.487724 238.847278 
L 339.753736 233.964464 
L 340.283446 245.587666 
L 340.547153 245.418068 
L 341.072292 261.736386 
L 341.333733 255.599451 
L 341.594428 255.84889 
L 341.85438 252.235025 
L 342.372074 265.938898 
L 342.629824 263.359296 
L 342.698167 271.55911 
L 342.954999 270.174537 
L 343.211111 276.888921 
L 343.466506 263.681748 
L 343.721189 269.487343 
L 343.975164 252.283718 
L 344.228433 254.949727 
L 344.481002 263.085028 
L 344.732874 266.816245 
L 344.984053 275.141368 
L 345.234543 275.788462 
L 345.484347 273.972831 
L 345.73347 261.715866 
L 345.981914 266.257414 
L 346.229685 273.554838 
L 346.476784 276.786052 
L 346.723217 283.828909 
L 346.968986 284.134598 
L 347.214095 267.774922 
L 347.458548 269.025483 
L 347.702348 263.21568 
L 347.945499 270.656315 
L 348.188003 260.651691 
L 348.671088 273.641296 
L 348.911676 274.123311 
L 349.151631 262.45187 
L 349.390957 261.018838 
L 349.629657 269.495013 
L 349.867734 273.912281 
L 350.105193 257.914858 
L 350.578264 272.482931 
L 350.64091 270.960325 
L 350.876368 278.85161 
L 351.11122 281.412015 
L 351.34547 285.441781 
L 351.57912 276.419092 
L 352.044634 284.273747 
L 352.276504 283.029894 
L 352.507786 280.553786 
L 352.738484 286.191016 
L 352.9686 287.610473 
L 353.198138 285.44295 
L 353.4271 255.381492 
L 353.883308 272.181167 
L 354.11056 275.217154 
L 354.337248 276.522623 
L 354.788942 288.155277 
L 355.238411 281.812229 
L 355.462319 249.631179 
L 355.685679 252.251676 
L 355.908494 261.943794 
L 356.130766 255.523353 
L 356.573693 263.110466 
L 357.014481 269.507887 
L 357.453152 281.19192 
L 357.671699 286.719123 
L 357.889724 282.192687 
L 357.94755 288.949746 
L 358.164918 283.401791 
L 358.38177 281.403795 
L 358.598108 276.784444 
L 358.813934 277.268551 
L 359.029251 271.099021 
L 359.244062 274.910556 
L 359.458369 283.233709 
L 359.672173 277.668135 
L 359.885478 278.533141 
L 360.098286 282.337494 
L 360.522419 294.691312 
L 360.733748 295.718342 
L 360.94459 297.552024 
L 361.154946 301.593655 
L 361.364818 270.008509 
L 361.78312 248.59092 
L 362.407002 267.407329 
L 362.614019 261.71401 
L 362.820567 265.128141 
L 363.026649 265.778389 
L 363.232266 272.607192 
L 363.437422 266.16543 
L 363.642118 264.566199 
L 363.846355 269.433553 
L 364.050137 269.64941 
L 364.456341 271.952957 
L 364.658767 278.576983 
L 364.712461 285.95918 
L 365.115735 296.368391 
L 365.316706 302.05916 
L 365.517235 300.738959 
L 365.717325 295.884934 
L 365.916977 295.578473 
L 366.116193 297.421271 
L 366.314976 300.824964 
L 366.513327 299.90489 
L 366.711248 302.604247 
L 366.90874 303.232776 
L 367.105806 307.365033 
L 367.302448 307.201913 
L 367.498667 284.993421 
L 367.694465 284.038165 
L 367.889844 243.061027 
L 368.084806 247.533831 
L 368.473485 261.246596 
L 368.667206 260.806646 
L 368.860516 257.888439 
L 369.053418 267.019253 
L 369.245914 266.593274 
L 369.820976 288.808442 
L 370.011861 289.916121 
L 370.202348 286.012084 
L 370.392438 291.769758 
L 370.582133 283.996352 
L 370.771435 291.717282 
L 371.010458 280.410822 
L 371.198875 275.979917 
L 371.574546 286.484248 
L 371.948676 266.746238 
L 372.135168 270.490478 
L 372.692369 293.546024 
L 373.061956 280.223577 
L 373.430053 285.270221 
L 373.613546 274.365751 
L 373.796671 279.620929 
L 373.979429 274.693179 
L 374.706826 303.031636 
L 374.887773 285.562259 
L 375.068362 282.323067 
L 375.248595 284.986413 
L 375.428472 283.683016 
L 375.607996 279.827297 
L 375.965988 291.659476 
L 376.144459 285.051101 
L 376.500357 299.028306 
L 376.677787 287.697759 
L 376.901854 300.121582 
L 377.078507 290.656526 
L 377.606422 305.767024 
L 377.781717 295.714001 
L 377.956676 298.090685 
L 378.131301 282.240828 
L 378.479552 285.852628 
L 378.826479 298.263534 
L 378.999449 297.881968 
L 379.172093 287.74642 
L 379.34441 288.778254 
L 379.688072 298.66081 
L 379.859419 304.846909 
L 380.030445 303.146702 
L 380.371539 309.870578 
L 380.541609 304.550948 
L 380.711363 280.952011 
L 380.880802 287.392547 
L 381.049927 288.012131 
L 381.218739 277.685899 
L 381.38724 277.086741 
L 382.058149 296.525374 
L 382.225109 303.321786 
L 382.391764 302.281309 
L 382.43598 292.84314 
L 382.602251 298.109607 
L 382.76822 278.382424 
L 383.429092 303.019119 
L 383.593566 308.358086 
L 383.757743 295.461555 
L 383.921626 292.351629 
L 384.248512 301.04701 
L 384.411516 301.371344 
L 384.574231 308.120217 
L 384.736656 306.749492 
L 384.898792 311.285503 
L 385.222203 306.126225 
L 385.38348 293.689706 
L 385.544473 296.460966 
L 385.705182 302.519689 
L 385.865609 296.351904 
L 386.025754 294.573633 
L 386.504511 310.820414 
L 386.663541 314.647878 
L 386.822293 291.899973 
L 387.454558 311.68084 
L 387.611943 297.374128 
L 387.653702 302.578413 
L 387.810744 305.497752 
L 388.124019 314.45192 
L 388.436223 320.917265 
L 388.591925 321.263625 
L 388.747363 322.685061 
L 388.902536 306.421822 
L 389.057445 310.27184 
L 389.212093 306.888694 
L 389.366478 307.244538 
L 389.520604 302.474154 
L 389.828075 315.588836 
L 389.981424 317.373704 
L 390.28735 310.968072 
L 390.592254 320.152855 
L 390.744325 320.987568 
L 390.896144 312.717627 
L 391.04771 318.494131 
L 391.199025 317.78328 
L 391.350089 300.630307 
L 391.801789 315.165122 
L 391.95186 297.110682 
L 392.101685 297.092989 
L 392.251264 303.048333 
L 392.400599 302.226125 
L 392.54969 300.116957 
L 392.589251 295.256382 
L 392.886575 307.827592 
L 393.034875 302.75391 
L 393.478335 319.804248 
L 393.772782 328.199567 
L 393.91965 317.680718 
L 394.358843 328.079901 
L 394.504772 328.675506 
L 395.086167 299.772447 
L 395.519796 316.594276 
L 395.663883 321.550515 
L 395.951376 294.036595 
L 396.094783 295.799718 
L 396.237966 278.179893 
L 396.523659 291.009376 
L 396.666171 277.834791 
L 397.092377 291.801594 
L 397.234004 284.660929 
L 397.271587 287.967838 
L 397.976159 308.654277 
L 398.116423 307.24492 
L 398.535927 323.262023 
L 398.814529 325.770912 
L 398.953511 323.711794 
L 399.092283 327.929664 
L 399.230844 325.938579 
L 399.369195 317.306643 
L 399.507336 318.293019 
L 399.782994 325.124376 
L 400.057822 316.818872 
L 400.194926 315.772364 
L 400.331824 320.99088 
L 400.468518 321.652498 
L 400.605007 327.218625 
L 400.741293 317.603651 
L 400.877375 322.169204 
L 401.013255 322.888674 
L 401.148932 308.823332 
L 401.284409 308.110808 
L 401.419684 314.091278 
L 401.55476 314.91524 
L 401.689636 312.421919 
L 401.725429 295.989984 
L 401.860053 300.876602 
L 401.994479 297.016961 
L 402.396573 314.245246 
L 402.796904 327.680484 
L 402.929959 314.595631 
L 403.327962 324.641257 
L 403.460245 325.325665 
L 403.592337 330.651732 
L 403.724238 324.282351 
L 404.249944 337.17616 
L 404.380899 319.314758 
L 404.511667 324.004694 
L 404.642247 324.561128 
L 404.902848 330.745543 
L 405.032871 334.359287 
L 405.162708 330.971951 
L 405.292361 316.318655 
L 405.551116 323.135636 
L 405.680218 321.483264 
L 405.809139 324.527634 
L 405.972043 321.071827 
L 406.100553 322.354197 
L 406.228881 326.361095 
L 406.35703 310.089303 
L 406.484999 314.809752 
L 406.612789 303.895359 
L 406.867833 313.725847 
L 407.122166 321.288219 
L 407.375793 331.057232 
L 407.502343 330.756119 
L 407.754917 323.097676 
L 407.880943 321.957071 
L 408.132473 323.629712 
L 408.257979 325.917767 
L 408.383313 323.340505 
L 408.508474 317.259716 
L 408.758284 302.509525 
L 409.131721 314.904538 
L 409.379834 318.140471 
L 409.503637 318.864821 
L 409.627273 309.378384 
L 409.874044 321.246487 
L 409.99718 321.004265 
L 410.02986 323.555437 
L 410.152786 315.368051 
L 410.520573 328.725577 
L 410.642841 326.865053 
L 410.886885 334.362487 
L 411.130279 325.412444 
L 411.494157 336.661515 
L 411.615128 335.496315 
L 411.735939 332.527264 
L 411.85659 332.685152 
L 411.977082 337.563621 
L 412.217591 335.810515 
L 412.337607 337.874709 
L 412.696714 321.57888 
L 412.816103 325.803103 
L 412.935336 310.544208 
L 413.054414 311.373869 
L 413.292104 323.573983 
L 413.410717 323.48242 
L 413.529177 324.672732 
L 413.647483 324.071739 
L 413.883636 315.207536 
L 414.032761 324.867058 
L 414.150417 324.098681 
L 414.385274 329.641915 
L 414.502476 329.268561 
L 414.73643 338.416367 
L 414.73643 338.416367 
" clip-path="url(#p4a0ccbf532)" style="fill: none; stroke: #ff7f0e; stroke-opacity: 0.4; stroke-linecap: square"/>
   </g>
   <g id="line2d_34">
    <path d="M 53.968492 100.577062 
L 59.854134 105.917932 
L 65.383184 104.27333 
L 70.596393 96.10664 
L 75.527904 107.180038 
L 80.206606 92.608088 
L 84.657159 99.29732 
L 88.900784 109.464591 
L 92.955871 113.353479 
L 96.838463 100.93262 
L 100.562638 107.852867 
L 104.140817 113.899446 
L 107.584018 112.44267 
L 110.902055 119.771138 
L 114.103709 107.17334 
L 117.196869 115.113277 
L 120.188647 123.9765 
L 123.085479 105.317316 
L 123.839744 95.935552 
L 129.327236 116.961286 
L 131.952044 122.744055 
L 134.503485 117.04869 
L 136.985549 124.865657 
L 139.40191 126.263073 
L 141.755957 135.849879 
L 144.050822 133.238011 
L 148.474413 149.370683 
L 150.608337 122.411042 
L 152.693517 122.105609 
L 154.732129 113.478437 
L 156.726208 122.108018 
L 158.677659 128.718073 
L 160.588264 122.787283 
L 162.459701 129.440409 
L 164.293541 137.808895 
L 166.091267 139.273112 
L 167.854273 148.225166 
L 169.583875 133.375134 
L 171.281314 142.414718 
L 172.947767 149.285786 
L 174.584343 150.681806 
L 176.192095 143.305424 
L 179.325067 156.30881 
L 180.852133 123.126717 
L 182.354074 131.947711 
L 183.831704 128.274782 
L 185.285796 124.172464 
L 186.71709 128.266345 
L 187.093535 127.24051 
L 188.496978 137.329257 
L 189.879171 139.950769 
L 191.240749 147.86361 
L 192.582316 130.150122 
L 193.904452 139.554838 
L 195.207713 144.143268 
L 196.49263 147.839364 
L 197.759712 147.370195 
L 199.009447 149.31628 
L 200.242303 151.866652 
L 201.458732 136.160587 
L 202.659164 146.128834 
L 203.844015 140.187628 
L 205.013685 148.691693 
L 206.168557 133.743472 
L 207.309001 139.921617 
L 208.435374 130.757889 
L 209.548017 140.12085 
L 210.647263 142.699001 
L 211.733429 142.443967 
L 213.867744 158.336238 
L 214.916475 158.026403 
L 215.953296 163.421166 
L 216.978472 166.37294 
L 217.992263 164.545148 
L 218.99492 135.192381 
L 219.986683 139.666629 
L 220.967787 144.838111 
L 221.938459 136.246445 
L 222.898919 144.928142 
L 223.849378 121.876637 
L 224.100189 121.368626 
L 225.038286 130.110345 
L 227.796089 159.522375 
L 228.697148 143.586318 
L 229.5894 142.464341 
L 230.473015 132.500045 
L 231.34816 140.367898 
L 232.214994 140.71173 
L 233.073675 149.537797 
L 233.924353 148.522454 
L 234.767178 156.908965 
L 235.602292 137.913847 
L 237.249946 157.011238 
L 238.062753 128.720485 
L 238.868387 131.532441 
L 239.666973 137.447097 
L 242.021652 162.913349 
L 242.793239 160.614905 
L 243.558358 160.017376 
L 244.317119 166.083971 
L 245.069624 149.442833 
L 245.815977 147.588056 
L 246.556278 157.285558 
L 247.290623 145.163724 
L 248.019108 122.360778 
L 249.458867 140.804031 
L 250.170319 150.944711 
L 250.358371 160.300406 
L 251.761983 176.908973 
L 252.455778 177.457699 
L 253.14434 176.343508 
L 253.827747 174.928907 
L 254.506076 172.950581 
L 255.179401 146.989876 
L 255.847797 150.603522 
L 257.170083 169.453189 
L 257.824112 177.184878 
L 258.473489 167.020923 
L 259.118279 167.525821 
L 259.758547 172.127093 
L 260.394356 141.873467 
L 261.025766 151.257816 
L 261.65284 155.84752 
L 262.275635 165.625486 
L 262.89421 163.691364 
L 264.118926 179.131393 
L 264.725177 171.773486 
L 265.327428 177.728243 
L 265.925733 179.12448 
L 266.520141 160.569276 
L 267.110704 161.438172 
L 267.697471 170.992218 
L 268.280491 177.755614 
L 268.85981 170.6033 
L 269.435477 160.9139 
L 270.007536 167.382765 
L 270.576032 156.632229 
L 271.290497 162.097064 
L 271.851084 171.433997 
L 272.408249 178.430227 
L 272.962035 166.942813 
L 273.512481 175.255766 
L 274.059628 170.301942 
L 274.603516 171.023964 
L 275.144182 178.843556 
L 275.681664 165.370169 
L 276.216001 171.715826 
L 276.747228 166.484413 
L 277.275382 171.983932 
L 277.800497 153.784567 
L 278.322609 144.127216 
L 278.841752 151.911618 
L 279.35796 150.815565 
L 280.889296 172.817289 
L 281.394085 166.918323 
L 281.896099 157.335178 
L 282.395367 164.447867 
L 282.891919 173.952782 
L 283.385785 171.585281 
L 283.876994 170.950261 
L 284.365573 162.26562 
L 284.851552 170.48763 
L 285.334957 163.089168 
L 286.294154 182.51012 
L 286.77 188.336815 
L 287.368708 150.913023 
L 287.838999 154.049407 
L 288.30688 150.163544 
L 288.772376 149.374701 
L 289.23551 155.432878 
L 289.696305 153.767111 
L 290.154787 156.423233 
L 290.610978 161.432212 
L 291.0649 170.292042 
L 291.516576 168.287677 
L 291.966028 177.724022 
L 292.413279 179.058485 
L 292.858349 182.001407 
L 293.301259 183.184814 
L 293.742031 190.180624 
L 294.180685 194.490848 
L 294.617241 171.519064 
L 295.051719 173.059397 
L 295.484139 169.057671 
L 295.914521 178.773168 
L 296.342883 185.537165 
L 296.769245 170.577472 
L 298.036509 187.412983 
L 298.455052 175.503511 
L 299.286423 182.542286 
L 299.699286 171.033279 
L 300.11029 176.374783 
L 300.926789 193.189094 
L 301.332317 168.526119 
L 301.439733 173.368628 
L 301.842993 179.995799 
L 302.244479 190.162917 
L 303.042193 200.193596 
L 303.438451 192.234636 
L 303.832996 186.974524 
L 304.225844 183.439805 
L 304.617008 157.921604 
L 305.394344 178.779353 
L 305.780543 179.403347 
L 306.548075 195.153749 
L 306.929435 171.990031 
L 307.309208 174.745142 
L 307.687408 184.007059 
L 308.064047 173.727329 
L 308.439138 177.776073 
L 309.18473 189.175451 
L 309.555254 192.671056 
L 309.92428 192.825706 
L 310.291821 201.547669 
L 310.657888 189.236041 
L 311.022493 196.024959 
L 311.385647 189.279687 
L 311.747363 194.905933 
L 312.10765 174.0374 
L 312.466522 175.346569 
L 313.18006 192.714264 
L 313.534748 195.549419 
L 313.628731 194.048213 
L 313.981684 195.156821 
L 314.333277 183.435034 
L 314.683522 178.338865 
L 315.032427 180.368171 
L 315.380005 179.435274 
L 315.726264 184.863217 
L 316.071214 180.411436 
L 316.414866 177.958819 
L 316.757229 188.459664 
L 317.098313 172.682699 
L 317.438127 164.670874 
L 317.776681 162.185632 
L 318.113984 172.211535 
L 318.450046 178.135931 
L 318.784874 174.480774 
L 319.45087 192.167326 
L 319.782055 178.315319 
L 320.112042 183.895019 
L 320.768459 202.629101 
L 321.094907 193.679573 
L 321.420191 196.739668 
L 321.74432 203.078776 
L 322.067302 211.927466 
L 322.389145 214.736508 
L 322.709858 206.691614 
L 323.029448 213.488414 
L 323.347923 215.459465 
L 323.665291 204.152599 
L 323.98156 202.416252 
L 324.380272 193.105498 
L 325.006808 200.801891 
L 325.31847 202.124051 
L 325.629072 210.613908 
L 325.938621 213.919392 
L 326.247124 205.831986 
L 326.554588 213.281721 
L 326.861019 209.382081 
L 327.166426 214.182769 
L 327.470814 214.854377 
L 327.77419 216.829278 
L 328.076562 217.577138 
L 328.377935 221.439693 
L 328.678317 217.796494 
L 328.977714 223.496234 
L 329.276131 225.604195 
L 329.573577 228.673956 
L 329.870056 227.819385 
L 330.165576 232.225334 
L 330.460142 232.037845 
L 330.753761 235.068897 
L 331.046438 214.745573 
L 331.33818 220.400882 
L 331.628993 206.647952 
L 331.918882 206.774889 
L 332.207853 209.137546 
L 332.495913 215.013147 
L 332.783066 211.972136 
L 333.354678 223.679927 
L 333.922732 234.081203 
L 333.997911 239.246093 
L 334.842727 225.759099 
L 335.122603 233.518633 
L 335.401625 226.922435 
L 335.679796 206.49043 
L 335.957121 216.073068 
L 336.233607 217.109102 
L 336.509258 216.112864 
L 336.78408 220.922584 
L 337.331252 232.148966 
L 337.603614 237.400856 
L 337.875165 239.357406 
L 338.145911 231.337662 
L 338.415856 236.47465 
L 338.685005 239.201088 
L 339.220935 250.780727 
L 339.753736 242.936469 
L 340.018976 235.800767 
L 340.283446 237.360572 
L 340.547153 230.890148 
L 341.072292 241.525653 
L 341.333733 238.955973 
L 341.594428 244.34589 
L 341.85438 227.505839 
L 342.372074 231.870157 
L 342.954999 245.220613 
L 343.211111 244.128626 
L 343.466506 250.50766 
L 343.721189 248.290403 
L 343.975164 252.947128 
L 344.228433 251.85372 
L 344.481002 234.315549 
L 344.984053 245.566188 
L 345.234543 242.244554 
L 345.484347 246.670723 
L 345.73347 236.38003 
L 346.229685 247.405372 
L 346.723217 219.512062 
L 346.968986 220.264998 
L 347.214095 225.8986 
L 347.458548 228.672195 
L 347.702348 212.724849 
L 347.945499 218.515024 
L 348.429865 234.538071 
L 348.671088 238.553077 
L 349.629657 260.576733 
L 349.867734 258.541774 
L 350.105193 254.152101 
L 350.342035 255.468483 
L 350.578264 254.265849 
L 350.64091 252.40625 
L 350.876368 258.06548 
L 351.11122 259.78862 
L 351.34547 260.235057 
L 351.812174 268.010224 
L 352.044634 260.845222 
L 352.276504 264.73806 
L 352.507786 262.766901 
L 352.738484 231.980469 
L 353.4271 254.710394 
L 353.655489 256.743412 
L 353.883308 254.119898 
L 354.11056 241.043973 
L 354.788942 255.842295 
L 355.013953 231.294923 
L 355.238411 239.544017 
L 355.462319 234.755158 
L 355.685679 234.885959 
L 355.908494 243.121394 
L 356.130766 241.737826 
L 356.352498 249.90706 
L 356.794353 243.182951 
L 357.014481 229.479068 
L 357.23408 236.462501 
L 357.453152 225.760547 
L 357.671699 227.116592 
L 357.889724 225.397851 
L 357.94755 234.611143 
L 358.598108 252.523152 
L 358.813934 255.668026 
L 359.029251 256.531281 
L 359.244062 254.951082 
L 359.458369 251.937927 
L 359.672173 255.317069 
L 359.885478 253.887297 
L 360.098286 246.295317 
L 360.310599 249.426532 
L 360.733748 261.357405 
L 360.94459 254.94844 
L 361.364818 235.180317 
L 361.574209 231.321267 
L 361.78312 219.998635 
L 361.991555 229.571158 
L 362.199515 231.202483 
L 362.614019 246.097117 
L 362.820567 242.814205 
L 363.026649 242.449447 
L 363.232266 248.783359 
L 363.437422 250.008403 
L 363.642118 257.466369 
L 364.050137 256.405506 
L 364.253465 257.388821 
L 364.456341 259.582276 
L 364.658767 258.633656 
L 364.712461 262.529305 
L 364.914321 261.221207 
L 365.115735 261.208045 
L 365.316706 266.12861 
L 365.517235 268.040973 
L 365.717325 274.382185 
L 365.916977 273.889982 
L 366.116193 266.513114 
L 366.314976 268.032847 
L 366.513327 263.9988 
L 366.711248 264.567318 
L 367.105806 273.732136 
L 367.302448 268.780877 
L 367.498667 268.029644 
L 367.889844 274.108853 
L 368.084806 265.471896 
L 368.279353 268.910422 
L 368.473485 264.579728 
L 368.667206 264.886755 
L 368.860516 255.413653 
L 369.053418 262.351204 
L 369.245914 244.650286 
L 369.62969 257.088527 
L 370.011861 265.574941 
L 370.202348 265.897926 
L 370.392438 267.157991 
L 370.582133 273.419621 
L 370.771435 269.883757 
L 371.010458 259.720588 
L 371.198875 256.243075 
L 371.574546 263.283913 
L 371.761803 262.690496 
L 371.948676 260.027796 
L 372.135168 265.053127 
L 372.32128 258.238764 
L 372.507013 256.168969 
L 372.692369 263.028504 
L 372.87735 255.119079 
L 373.061956 262.880294 
L 373.24619 259.825891 
L 373.430053 261.090518 
L 373.796671 272.42672 
L 374.161823 258.611319 
L 374.343852 258.027259 
L 374.525519 243.522483 
L 374.706826 251.853465 
L 374.887773 251.607375 
L 375.068362 240.862315 
L 375.248595 241.420367 
L 375.607996 252.85056 
L 375.965988 264.90482 
L 376.144459 267.378286 
L 376.500357 276.033878 
L 376.677787 275.115211 
L 376.901854 269.293995 
L 377.078507 271.483913 
L 377.430789 282.43059 
L 377.606422 286.37514 
L 377.781717 285.766395 
L 377.956676 282.238966 
L 378.131301 268.764651 
L 378.305593 268.85752 
L 378.479552 272.44588 
L 378.65318 270.763326 
L 378.826479 276.568936 
L 378.999449 274.304129 
L 379.34441 273.772536 
L 379.688072 279.315885 
L 380.201152 273.595448 
L 380.371539 276.669617 
L 380.541609 268.352717 
L 381.049927 281.706087 
L 381.218739 269.140117 
L 381.38724 277.022847 
L 381.55543 261.384969 
L 381.723311 267.901701 
L 382.225109 275.291981 
L 382.391764 279.191128 
L 382.43598 283.437283 
L 382.76822 289.704997 
L 383.264322 301.914488 
L 383.593566 264.349818 
L 383.757743 258.911478 
L 384.085215 265.145251 
L 384.411516 278.659383 
L 384.574231 282.441525 
L 384.736656 264.041663 
L 384.898792 271.062589 
L 385.060641 272.861136 
L 385.544473 287.102755 
L 385.705182 277.711462 
L 385.865609 276.16135 
L 386.025754 263.52839 
L 386.185619 270.976961 
L 386.345204 267.70519 
L 386.663541 278.394688 
L 386.822293 276.001231 
L 386.980771 280.055049 
L 387.296902 281.719714 
L 387.454558 283.704115 
L 387.611943 282.376334 
L 387.653702 288.09036 
L 387.810744 281.428574 
L 387.967516 280.357315 
L 388.280254 285.157349 
L 388.436223 290.043331 
L 388.591925 289.692834 
L 388.902536 293.391068 
L 389.057445 298.185141 
L 389.212093 298.923856 
L 389.366478 298.359534 
L 389.674469 280.014405 
L 389.828075 286.676179 
L 389.981424 283.30812 
L 390.28735 293.444839 
L 390.592254 298.502409 
L 390.744325 287.587565 
L 390.896144 288.792799 
L 391.350089 284.096739 
L 391.651471 293.783329 
L 391.801789 289.115206 
L 392.101685 294.210893 
L 392.54969 300.687223 
L 392.589251 289.636034 
L 392.886575 299.198045 
L 393.034875 293.736326 
L 393.182935 292.898729 
L 393.330754 277.19102 
L 393.625677 279.35538 
L 393.91965 289.629647 
L 394.066283 289.765146 
L 394.358843 279.391044 
L 394.504772 282.812151 
L 394.650468 289.895914 
L 394.795933 291.485263 
L 394.941165 295.27641 
L 395.086167 288.182093 
L 395.375482 297.201003 
L 395.519796 296.134457 
L 395.663883 290.493949 
L 395.807742 279.024207 
L 395.951376 279.258203 
L 396.094783 284.41286 
L 396.237966 276.132702 
L 396.523659 289.65303 
L 396.666171 288.442803 
L 396.808461 295.226141 
L 397.092377 282.337358 
L 397.234004 280.575327 
L 397.271587 287.973662 
L 397.554069 299.209994 
L 397.694982 272.413102 
L 397.976159 285.874637 
L 398.116423 274.967837 
L 398.675334 299.844581 
L 398.814529 293.167935 
L 399.230844 298.320458 
L 399.369195 285.175751 
L 399.507336 284.283895 
L 399.782994 294.21433 
L 399.920511 293.640709 
L 400.057822 293.767094 
L 400.194926 297.886852 
L 400.331824 293.976114 
L 400.468518 284.425384 
L 400.605007 285.832919 
L 400.741293 288.796104 
L 400.877375 281.201407 
L 401.013255 286.700142 
L 401.148932 267.134732 
L 401.419684 283.307721 
L 401.689636 278.11072 
L 401.860053 289.585191 
L 401.994479 294.779834 
L 402.262739 280.318788 
L 402.396573 287.194116 
L 402.530212 286.43669 
L 402.796904 297.921203 
L 402.929959 292.110132 
L 403.195487 302.553348 
L 403.460245 276.27283 
L 403.724238 284.620582 
L 403.855949 276.692614 
L 403.98747 283.821845 
L 404.118801 284.093774 
L 404.249944 289.029792 
L 404.380899 287.206464 
L 404.511667 288.564752 
L 404.642247 291.707642 
L 404.772641 297.552887 
L 404.902848 294.859655 
L 405.032871 286.133861 
L 405.162708 287.21072 
L 405.292361 292.453344 
L 405.42183 287.978074 
L 405.551116 291.689947 
L 405.809139 304.947876 
L 405.937878 301.582784 
L 405.972043 306.59653 
L 406.100553 308.601185 
L 406.228881 301.875983 
L 406.484999 311.353601 
L 406.612789 292.800324 
L 406.867833 302.675843 
L 406.995088 302.523152 
L 407.249068 308.499114 
L 407.375793 307.733106 
L 407.502343 304.196133 
L 407.628718 309.30171 
L 407.754917 308.102783 
L 408.006795 311.800034 
L 408.132473 316.44122 
L 408.257979 294.92016 
L 408.383313 293.919458 
L 408.508474 299.870134 
L 408.633465 300.49028 
L 408.758284 293.903623 
L 408.882933 295.001479 
L 409.007412 293.680911 
L 409.131721 290.440294 
L 409.255862 295.327451 
L 409.379834 293.61057 
L 409.750742 303.417133 
L 409.874044 294.436407 
L 410.02986 305.825017 
L 410.152786 301.118137 
L 410.398142 312.749649 
L 410.520573 297.127443 
L 410.642841 296.552403 
L 410.764944 262.386938 
L 411.373025 294.375319 
L 411.494157 293.534943 
L 411.615128 295.623761 
L 411.977082 306.523733 
L 412.097416 299.721129 
L 412.337607 303.311479 
L 412.457467 305.890843 
L 412.577169 311.587555 
L 412.696714 309.779024 
L 413.054414 319.603747 
L 413.292104 321.525723 
L 413.410717 306.101743 
L 413.529177 308.713261 
L 413.765635 315.671965 
L 414.150417 322.339767 
L 414.267921 322.066191 
L 414.385274 325.329728 
L 414.502476 305.856609 
L 414.619528 306.52704 
L 414.73643 308.953685 
L 414.73643 308.953685 
" clip-path="url(#p4a0ccbf532)" style="fill: none; stroke: #2ca02c; stroke-opacity: 0.4; stroke-linecap: square"/>
   </g>
   <g id="line2d_35">
    <path d="M 53.968492 108.362832 
L 59.854134 110.538184 
L 65.383184 111.136443 
L 70.596393 97.743523 
L 75.527904 107.538259 
L 80.206606 95.875078 
L 84.657159 104.012182 
L 88.900784 113.598131 
L 92.955871 113.098044 
L 96.838463 120.580162 
L 100.562638 128.02211 
L 104.140817 133.203694 
L 107.584018 135.009999 
L 110.902055 133.413865 
L 114.103709 135.627275 
L 117.196869 137.471528 
L 120.188647 134.077554 
L 123.085479 137.215108 
L 123.839744 137.026388 
L 126.624717 144.59698 
L 129.327236 141.711316 
L 131.952044 140.749209 
L 134.503485 136.540866 
L 136.985549 141.495914 
L 139.40191 147.258096 
L 141.755957 149.373259 
L 144.050822 152.37285 
L 148.474413 165.655757 
L 150.608337 157.904564 
L 152.693517 143.161379 
L 154.732129 146.825052 
L 156.726208 153.814816 
L 158.677659 156.328974 
L 160.588264 151.032109 
L 162.459701 157.72662 
L 164.293541 161.981884 
L 166.091267 152.686042 
L 167.854273 144.300359 
L 169.583875 128.162104 
L 171.281314 137.270527 
L 172.947767 145.381432 
L 174.584343 147.462075 
L 176.192095 152.968908 
L 177.77202 158.983513 
L 179.325067 164.027313 
L 180.852133 148.026409 
L 182.354074 156.767616 
L 183.831704 162.255986 
L 185.285796 152.311758 
L 186.71709 144.876889 
L 187.093535 144.102765 
L 188.496978 152.706818 
L 189.879171 153.06329 
L 191.240749 156.454864 
L 192.582316 151.933433 
L 193.904452 158.892272 
L 195.207713 158.158089 
L 197.759712 173.884628 
L 199.009447 176.857346 
L 200.242303 157.875792 
L 201.458732 157.350483 
L 202.659164 161.650024 
L 203.844015 141.963114 
L 206.168557 159.080896 
L 207.309001 161.337211 
L 208.435374 166.61147 
L 209.548017 155.959116 
L 210.647263 163.804431 
L 211.733429 164.871812 
L 212.806824 172.284575 
L 213.867744 177.780884 
L 215.953296 131.046853 
L 217.992263 147.794381 
L 218.99492 152.043682 
L 220.967787 164.949372 
L 221.938459 170.693231 
L 222.898919 171.640228 
L 224.100189 148.736364 
L 225.038286 158.341236 
L 225.966842 165.272849 
L 226.886047 162.831743 
L 227.796089 166.841826 
L 228.697148 169.775604 
L 229.5894 168.4662 
L 230.473015 159.1832 
L 231.34816 166.989 
L 232.214994 155.29972 
L 234.767178 174.854278 
L 236.429836 185.069277 
L 237.249946 184.766541 
L 238.062753 152.803786 
L 238.868387 149.338155 
L 239.666973 153.272547 
L 240.458634 161.831492 
L 241.243488 166.851646 
L 242.021652 163.232463 
L 242.793239 163.392133 
L 243.558358 164.099104 
L 244.317119 171.823658 
L 245.069624 174.244504 
L 245.815977 172.345847 
L 246.556278 179.106635 
L 247.290623 174.481684 
L 248.019108 138.383237 
L 248.741826 148.237902 
L 249.458867 148.928236 
L 250.170319 151.087423 
L 250.358371 158.301527 
L 251.062874 152.329557 
L 251.761983 162.026044 
L 252.455778 164.70926 
L 253.14434 169.285241 
L 253.827747 176.598778 
L 254.506076 180.070891 
L 255.179401 187.453709 
L 255.847797 184.972485 
L 256.511334 190.525201 
L 257.170083 170.64863 
L 257.824112 175.918279 
L 258.473489 152.326955 
L 259.118279 143.506368 
L 259.758547 150.642497 
L 260.394356 143.317461 
L 261.025766 152.172035 
L 261.65284 156.702356 
L 262.275635 165.658756 
L 262.89421 172.16527 
L 263.508622 176.315422 
L 264.118926 178.186326 
L 264.725177 175.980595 
L 265.327428 163.533082 
L 266.520141 166.304009 
L 267.110704 163.004638 
L 267.697471 168.529763 
L 268.280491 176.9216 
L 268.85981 181.379798 
L 269.435477 174.821214 
L 270.007536 172.095693 
L 270.576032 165.061516 
L 270.726446 171.67351 
L 271.851084 159.600649 
L 272.408249 168.037881 
L 272.962035 170.092617 
L 273.512481 168.040749 
L 274.059628 163.890787 
L 275.144182 179.446905 
L 275.681664 163.489013 
L 276.216001 172.922756 
L 276.747228 172.844799 
L 277.275382 177.334069 
L 277.800497 158.602539 
L 278.322609 156.590108 
L 278.841752 165.09526 
L 279.35796 161.508896 
L 279.871265 169.453061 
L 280.889296 176.368917 
L 281.394085 167.93557 
L 281.896099 168.825467 
L 282.395367 174.87148 
L 282.891919 168.730197 
L 283.385785 173.768797 
L 283.876994 181.953305 
L 284.365573 174.05892 
L 284.851552 182.508722 
L 285.334957 178.946212 
L 286.294154 193.666978 
L 286.77 192.473976 
L 287.243378 187.724035 
L 287.368708 166.526874 
L 287.838999 170.203365 
L 288.30688 166.78944 
L 288.772376 150.938102 
L 289.23551 154.176155 
L 289.696305 162.055393 
L 290.610978 170.88349 
L 291.0649 179.963461 
L 291.516576 185.191067 
L 291.966028 185.035428 
L 292.413279 169.538032 
L 292.858349 177.876453 
L 293.301259 169.736615 
L 293.742031 176.564523 
L 294.180685 185.793205 
L 294.617241 164.948392 
L 295.484139 167.429284 
L 296.342883 184.617499 
L 296.769245 171.170376 
L 297.193624 179.343075 
L 297.616039 176.081592 
L 298.036509 181.286152 
L 298.455052 176.281822 
L 298.871683 179.247741 
L 299.286423 187.112396 
L 299.699286 185.905246 
L 300.11029 182.918086 
L 300.926789 198.574105 
L 301.439733 157.268933 
L 301.842993 157.66433 
L 302.644207 177.870777 
L 303.042193 175.30327 
L 303.438451 170.5919 
L 303.832996 163.200716 
L 304.225844 161.143456 
L 304.617008 162.124902 
L 305.006503 165.874605 
L 305.394344 176.342167 
L 305.780543 177.881035 
L 306.165116 180.659643 
L 306.548075 186.773868 
L 306.929435 165.567269 
L 307.687408 180.859965 
L 308.439138 167.124812 
L 308.812695 171.55757 
L 309.18473 177.70501 
L 309.555254 180.912303 
L 309.92428 175.22726 
L 310.291821 183.132416 
L 310.657888 183.004318 
L 311.022493 191.796904 
L 311.385647 187.248206 
L 311.747363 185.371381 
L 312.10765 171.921739 
L 312.466522 172.248285 
L 312.823988 177.351384 
L 313.18006 179.500449 
L 313.534748 185.769624 
L 313.628731 180.60931 
L 313.981684 186.197006 
L 314.333277 183.809795 
L 314.683522 189.475993 
L 315.032427 192.737958 
L 315.380005 184.71666 
L 315.726264 184.835487 
L 316.071214 179.296893 
L 316.414866 177.340075 
L 316.757229 184.716124 
L 317.098313 173.945754 
L 317.438127 168.207196 
L 317.776681 157.080762 
L 318.113984 165.193594 
L 318.450046 170.289973 
L 318.784874 167.663621 
L 319.45087 182.540174 
L 319.782055 169.328253 
L 320.768459 190.648086 
L 321.094907 188.168747 
L 321.420191 196.968271 
L 321.74432 192.50734 
L 322.067302 192.8531 
L 322.389145 201.190426 
L 322.709858 176.49861 
L 323.347923 194.002499 
L 323.665291 200.32341 
L 323.98156 190.424443 
L 324.296736 198.609666 
L 324.380272 188.037721 
L 324.694077 189.938571 
L 325.006808 185.606765 
L 325.31847 185.872322 
L 325.629072 187.918168 
L 325.938621 179.453537 
L 326.554588 197.258733 
L 326.861019 192.495353 
L 327.166426 193.60557 
L 327.470814 194.065249 
L 327.77419 175.940773 
L 328.076562 178.467011 
L 328.377935 186.93018 
L 328.678317 191.617836 
L 328.977714 200.017097 
L 329.276131 195.142807 
L 329.573577 203.748903 
L 329.870056 207.15915 
L 330.165576 213.609723 
L 330.460142 212.579054 
L 330.753761 190.628694 
L 331.046438 189.660357 
L 331.628993 203.301758 
L 331.918882 204.645634 
L 332.207853 185.27413 
L 332.495913 192.586609 
L 332.783066 189.377433 
L 333.069319 196.242931 
L 333.354678 188.906265 
L 333.922732 203.509315 
L 333.997911 198.269273 
L 334.280386 187.656647 
L 334.56199 194.873461 
L 334.842727 191.632161 
L 335.401625 208.831473 
L 335.679796 199.666335 
L 335.957121 197.739559 
L 336.233607 202.49873 
L 336.509258 202.014051 
L 336.78408 200.044099 
L 337.331252 212.979159 
L 337.603614 211.650776 
L 337.875165 212.035903 
L 338.145911 218.828084 
L 338.415856 210.550661 
L 338.953363 223.189039 
L 339.487724 196.43395 
L 339.753736 202.02513 
L 340.018976 192.150116 
L 340.283446 196.804638 
L 340.547153 203.942187 
L 340.8101 206.356075 
L 341.594428 224.033816 
L 341.85438 216.673207 
L 342.113594 223.28161 
L 342.372074 224.232605 
L 342.629824 229.753017 
L 342.698167 219.121623 
L 342.954999 196.713121 
L 343.211111 205.505309 
L 343.466506 196.625142 
L 343.721189 204.511752 
L 343.975164 202.391391 
L 344.228433 207.162726 
L 344.481002 215.389116 
L 344.732874 216.341419 
L 344.984053 218.195875 
L 345.234543 199.8537 
L 345.484347 193.074968 
L 345.73347 200.752643 
L 345.981914 201.234501 
L 346.229685 187.41865 
L 346.476784 196.515009 
L 346.723217 193.814017 
L 346.968986 203.275694 
L 347.214095 201.727408 
L 347.458548 208.620406 
L 347.702348 202.335761 
L 347.945499 210.275953 
L 348.188003 206.252914 
L 348.429865 206.185256 
L 348.671088 200.304007 
L 349.390957 220.698533 
L 349.629657 219.207313 
L 350.342035 194.200655 
L 350.578264 201.757201 
L 350.64091 209.796384 
L 351.11122 221.461983 
L 351.34547 211.453796 
L 351.57912 193.2712 
L 352.044634 208.996253 
L 352.276504 205.872954 
L 352.738484 222.738117 
L 353.198138 184.06502 
L 353.4271 188.076346 
L 354.11056 214.511266 
L 354.337248 209.111271 
L 354.788942 222.06419 
L 355.013953 204.057189 
L 355.238411 208.889088 
L 355.462319 208.47597 
L 355.685679 208.737881 
L 356.130766 221.203326 
L 356.352498 217.615893 
L 356.573693 219.942847 
L 356.794353 216.780668 
L 357.014481 224.05682 
L 357.23408 226.031129 
L 357.453152 215.782049 
L 357.671699 224.381683 
L 357.889724 196.144725 
L 357.94755 197.591631 
L 358.38177 209.583545 
L 358.598108 213.19293 
L 358.813934 211.713386 
L 359.029251 211.509684 
L 359.244062 213.824698 
L 359.458369 200.196708 
L 359.672173 199.283831 
L 359.885478 201.918927 
L 360.098286 189.765267 
L 360.733748 204.103762 
L 360.94459 195.755491 
L 361.154946 192.927957 
L 361.364818 198.140584 
L 361.574209 192.25956 
L 361.991555 208.144232 
L 362.199515 205.072399 
L 362.407002 200.302248 
L 362.614019 210.493449 
L 362.820567 213.464585 
L 363.026649 219.450769 
L 363.232266 212.735774 
L 363.437422 212.233584 
L 363.642118 217.638434 
L 363.846355 213.16012 
L 364.253465 225.852318 
L 364.456341 221.377265 
L 364.658767 225.099275 
L 364.712461 220.859831 
L 364.914321 216.18527 
L 365.115735 224.887414 
L 365.316706 227.108284 
L 365.517235 220.245452 
L 365.717325 221.640572 
L 366.314976 243.42936 
L 366.711248 222.647667 
L 366.90874 230.669816 
L 367.105806 231.712305 
L 367.302448 234.522148 
L 367.498667 239.102822 
L 367.694465 228.773235 
L 367.889844 211.62691 
L 368.084806 205.518984 
L 368.279353 214.694398 
L 368.473485 211.935278 
L 368.667206 212.605982 
L 368.860516 220.163021 
L 369.053418 221.374441 
L 369.245914 230.692597 
L 369.438004 210.527635 
L 369.62969 216.982267 
L 369.820976 227.182083 
L 370.011861 228.779315 
L 370.202348 220.005787 
L 370.392438 220.020589 
L 370.582133 216.700974 
L 370.771435 208.928555 
L 370.960345 215.85426 
L 371.010458 225.614799 
L 371.198875 213.569093 
L 371.386903 224.007356 
L 371.574546 221.252946 
L 371.948676 233.290316 
L 372.135168 231.90352 
L 372.32128 232.162824 
L 372.507013 237.863797 
L 372.692369 235.814483 
L 373.061956 248.510368 
L 373.24619 234.726537 
L 373.430053 230.449889 
L 373.613546 238.583936 
L 373.796671 240.006284 
L 373.979429 236.17642 
L 374.161823 238.702139 
L 374.525519 217.65583 
L 374.706826 227.418635 
L 374.887773 206.469159 
L 375.068362 205.248274 
L 375.428472 216.315772 
L 375.607996 213.054342 
L 375.965988 225.964506 
L 376.144459 228.937306 
L 376.677787 249.423929 
L 376.854873 251.679688 
L 376.901854 240.711289 
L 377.078507 247.622319 
L 377.430789 206.988292 
L 377.606422 215.275968 
L 377.781717 216.879957 
L 378.305593 239.949253 
L 378.479552 233.692892 
L 378.826479 246.996235 
L 379.172093 235.499627 
L 379.688072 256.885797 
L 380.030445 265.736287 
L 380.201152 266.339162 
L 380.371539 237.80019 
L 380.541609 229.11856 
L 380.711363 238.996505 
L 380.880802 225.551968 
L 381.049927 227.509342 
L 381.218739 225.707013 
L 382.058149 260.543558 
L 382.391764 233.682078 
L 382.43598 240.158257 
L 382.602251 239.786852 
L 382.76822 241.906105 
L 382.933887 240.482921 
L 383.099254 232.985971 
L 383.264322 235.935825 
L 383.429092 221.393663 
L 384.085215 253.498856 
L 384.248512 248.522086 
L 384.411516 237.211695 
L 384.574231 240.530224 
L 384.736656 221.183493 
L 385.060641 239.739232 
L 385.222203 233.677834 
L 385.38348 236.248221 
L 385.705182 247.536003 
L 385.865609 224.028951 
L 386.025754 230.953445 
L 386.185619 229.636762 
L 386.504511 233.447171 
L 386.663541 238.815644 
L 386.822293 238.339243 
L 387.296902 257.668126 
L 387.454558 249.608073 
L 387.611943 257.484162 
L 387.653702 245.476987 
L 387.810744 236.412518 
L 388.124019 253.129644 
L 388.280254 241.52198 
L 388.902536 270.607314 
L 389.057445 270.288636 
L 389.212093 276.324498 
L 389.674469 249.882624 
L 389.828075 252.024059 
L 389.981424 251.855994 
L 390.134515 238.294557 
L 390.439929 249.138616 
L 390.592254 244.325923 
L 390.744325 248.307507 
L 390.896144 246.026193 
L 391.04771 226.944793 
L 391.801789 259.597936 
L 392.101685 266.369845 
L 392.400599 231.614092 
L 392.54969 234.377049 
L 392.589251 228.777855 
L 392.738034 230.956489 
L 392.886575 238.648656 
L 393.034875 231.099346 
L 393.330754 245.62762 
L 393.625677 259.696283 
L 393.772782 267.061749 
L 393.91965 245.804647 
L 394.066283 244.500966 
L 394.358843 256.22185 
L 394.504772 247.94002 
L 395.086167 270.725644 
L 395.230939 273.015523 
L 395.519796 251.511765 
L 395.663883 256.574528 
L 395.807742 255.919758 
L 396.237966 275.767184 
L 396.523659 250.844699 
L 396.666171 251.189064 
L 397.092377 269.747526 
L 397.554069 289.012917 
L 397.694982 274.119736 
L 397.976159 286.239663 
L 398.116423 284.280765 
L 398.256472 263.599573 
L 398.396306 270.487089 
L 398.535927 271.418866 
L 398.953511 286.834814 
L 399.092283 285.783091 
L 399.369195 247.443828 
L 399.507336 247.775424 
L 400.057822 277.225402 
L 400.194926 270.906843 
L 400.468518 281.225952 
L 400.605007 275.293421 
L 401.013255 278.407918 
L 401.148932 277.155163 
L 401.419684 266.964584 
L 401.689636 278.650329 
L 401.725429 273.428485 
L 401.994479 282.494317 
L 402.128707 274.859097 
L 402.530212 291.680898 
L 402.663655 288.583071 
L 402.796904 292.852406 
L 402.929959 263.405625 
L 403.460245 282.858615 
L 403.592337 268.710502 
L 403.724238 274.789064 
L 403.855949 270.363952 
L 404.511667 295.247302 
L 404.642247 299.602522 
L 404.772641 275.227294 
L 404.902848 281.518997 
L 405.032871 268.868879 
L 405.292361 277.590387 
L 405.551116 279.767072 
L 405.680218 274.545136 
L 405.972043 285.767896 
L 406.100553 285.751237 
L 406.228881 289.873373 
L 406.35703 273.443611 
L 406.484999 280.450992 
L 406.612789 274.19772 
L 406.7404 275.045057 
L 406.867833 281.397013 
L 406.995088 281.106037 
L 407.628718 297.988032 
L 407.754917 278.222979 
L 407.880943 284.391866 
L 408.006795 282.094497 
L 408.257979 292.526479 
L 408.383313 290.395373 
L 408.633465 296.378632 
L 408.758284 294.210401 
L 408.882933 294.576232 
L 409.007412 291.235103 
L 409.131721 292.486249 
L 409.255862 295.5282 
L 409.503637 286.345385 
L 409.627273 292.407094 
L 409.750742 290.235917 
L 409.874044 281.40894 
L 410.02986 291.994315 
L 410.275546 281.663557 
L 410.398142 285.889974 
L 410.520573 280.652396 
L 410.642841 286.736583 
L 410.764944 274.514264 
L 411.008663 284.301806 
L 411.130279 282.292524 
L 411.494157 296.590037 
L 411.615128 278.723094 
L 411.735939 279.186374 
L 411.977082 287.176821 
L 412.097416 287.931447 
L 412.217591 289.900848 
L 412.457467 299.08361 
L 412.577169 279.183777 
L 412.816103 287.265214 
L 412.935336 289.973972 
L 413.173336 297.466992 
L 413.292104 300.050171 
L 413.410717 279.656333 
L 413.883636 297.013806 
L 413.914954 293.174559 
L 414.150417 300.696137 
L 414.267921 287.342416 
L 414.385274 291.228103 
L 414.502476 289.920611 
L 414.619528 295.607154 
L 414.73643 286.145833 
L 414.73643 286.145833 
" clip-path="url(#p4a0ccbf532)" style="fill: none; stroke: #d62728; stroke-opacity: 0.4; stroke-linecap: square"/>
   </g>
   <g id="patch_3">
    <path d="M 57.6 307.584 
L 57.6 41.472 
" style="fill: none; stroke: #000000; stroke-width: 0.8; stroke-linejoin: miter; stroke-linecap: square"/>
   </g>
   <g id="patch_4">
    <path d="M 414.72 307.584 
L 414.72 41.472 
" style="fill: none; stroke: #000000; stroke-width: 0.8; stroke-linejoin: miter; stroke-linecap: square"/>
   </g>
   <g id="patch_5">
    <path d="M 57.6 307.584 
L 414.72 307.584 
" style="fill: none; stroke: #000000; stroke-width: 0.8; stroke-linejoin: miter; stroke-linecap: square"/>
   </g>
   <g id="patch_6">
    <path d="M 57.6 41.472 
L 414.72 41.472 
" style="fill: none; stroke: #000000; stroke-width: 0.8; stroke-linejoin: miter; stroke-linecap: square"/>
   </g>
   <g id="text_7">
    <!-- 2025-02-21-09:06:00 zoomed in + ewm(4.0).mean() -->
    <g transform="translate(77.945625 35.472) scale(0.12 -0.12)">
     <defs>
      <path id="DejaVuSans-35" d="M 691 4666 
L 3169 4666 
L 3169 4134 
L 1269 4134 
L 1269 2991 
Q 1406 3038 1543 3061 
Q 1681 3084 1819 3084 
Q 2600 3084 3056 2656 
Q 3513 2228 3513 1497 
Q 3513 744 3044 326 
Q 2575 -91 1722 -91 
Q 1428 -91 1123 -41 
Q 819 9 494 109 
L 494 744 
Q 775 591 1075 516 
Q 1375 441 1709 441 
Q 2250 441 2565 725 
Q 2881 1009 2881 1497 
Q 2881 1984 2565 2268 
Q 2250 2553 1709 2553 
Q 1456 2553 1204 2497 
Q 953 2441 691 2322 
L 691 4666 
z
" transform="scale(0.015625)"/>
      <path id="DejaVuSans-2d" d="M 313 2009 
L 1997 2009 
L 1997 1497 
L 313 1497 
L 313 2009 
z
" transform="scale(0.015625)"/>
      <path id="DejaVuSans-39" d="M 703 97 
L 703 672 
Q 941 559 1184 500 
Q 1428 441 1663 441 
Q 2288 441 2617 861 
Q 2947 1281 2994 2138 
Q 2813 1869 2534 1725 
Q 2256 1581 1919 1581 
Q 1219 1581 811 2004 
Q 403 2428 403 3163 
Q 403 3881 828 4315 
Q 1253 4750 1959 4750 
Q 2769 4750 3195 4129 
Q 3622 3509 3622 2328 
Q 3622 1225 3098 567 
Q 2575 -91 1691 -91 
Q 1453 -91 1209 -44 
Q 966 3 703 97 
z
M 1959 2075 
Q 2384 2075 2632 2365 
Q 2881 2656 2881 3163 
Q 2881 3666 2632 3958 
Q 2384 4250 1959 4250 
Q 1534 4250 1286 3958 
Q 1038 3666 1038 3163 
Q 1038 2656 1286 2365 
Q 1534 2075 1959 2075 
z
" transform="scale(0.015625)"/>
      <path id="DejaVuSans-3a" d="M 750 794 
L 1409 794 
L 1409 0 
L 750 0 
L 750 794 
z
M 750 3309 
L 1409 3309 
L 1409 2516 
L 750 2516 
L 750 3309 
z
" transform="scale(0.015625)"/>
      <path id="DejaVuSans-36" d="M 2113 2584 
Q 1688 2584 1439 2293 
Q 1191 2003 1191 1497 
Q 1191 994 1439 701 
Q 1688 409 2113 409 
Q 2538 409 2786 701 
Q 3034 994 3034 1497 
Q 3034 2003 2786 2293 
Q 2538 2584 2113 2584 
z
M 3366 4563 
L 3366 3988 
Q 3128 4100 2886 4159 
Q 2644 4219 2406 4219 
Q 1781 4219 1451 3797 
Q 1122 3375 1075 2522 
Q 1259 2794 1537 2939 
Q 1816 3084 2150 3084 
Q 2853 3084 3261 2657 
Q 3669 2231 3669 1497 
Q 3669 778 3244 343 
Q 2819 -91 2113 -91 
Q 1303 -91 875 529 
Q 447 1150 447 2328 
Q 447 3434 972 4092 
Q 1497 4750 2381 4750 
Q 2619 4750 2861 4703 
Q 3103 4656 3366 4563 
z
" transform="scale(0.015625)"/>
      <path id="DejaVuSans-20" transform="scale(0.015625)"/>
      <path id="DejaVuSans-7a" d="M 353 3500 
L 3084 3500 
L 3084 2975 
L 922 459 
L 3084 459 
L 3084 0 
L 275 0 
L 275 525 
L 2438 3041 
L 353 3041 
L 353 3500 
z
" transform="scale(0.015625)"/>
      <path id="DejaVuSans-6d" d="M 3328 2828 
Q 3544 3216 3844 3400 
Q 4144 3584 4550 3584 
Q 5097 3584 5394 3201 
Q 5691 2819 5691 2113 
L 5691 0 
L 5113 0 
L 5113 2094 
Q 5113 2597 4934 2840 
Q 4756 3084 4391 3084 
Q 3944 3084 3684 2787 
Q 3425 2491 3425 1978 
L 3425 0 
L 2847 0 
L 2847 2094 
Q 2847 2600 2669 2842 
Q 2491 3084 2119 3084 
Q 1678 3084 1418 2786 
Q 1159 2488 1159 1978 
L 1159 0 
L 581 0 
L 581 3500 
L 1159 3500 
L 1159 2956 
Q 1356 3278 1631 3431 
Q 1906 3584 2284 3584 
Q 2666 3584 2933 3390 
Q 3200 3197 3328 2828 
z
" transform="scale(0.015625)"/>
      <path id="DejaVuSans-64" d="M 2906 2969 
L 2906 4863 
L 3481 4863 
L 3481 0 
L 2906 0 
L 2906 525 
Q 2725 213 2448 61 
Q 2172 -91 1784 -91 
Q 1150 -91 751 415 
Q 353 922 353 1747 
Q 353 2572 751 3078 
Q 1150 3584 1784 3584 
Q 2172 3584 2448 3432 
Q 2725 3281 2906 2969 
z
M 947 1747 
Q 947 1113 1208 752 
Q 1469 391 1925 391 
Q 2381 391 2643 752 
Q 2906 1113 2906 1747 
Q 2906 2381 2643 2742 
Q 2381 3103 1925 3103 
Q 1469 3103 1208 2742 
Q 947 2381 947 1747 
z
" transform="scale(0.015625)"/>
      <path id="DejaVuSans-6e" d="M 3513 2113 
L 3513 0 
L 2938 0 
L 2938 2094 
Q 2938 2591 2744 2837 
Q 2550 3084 2163 3084 
Q 1697 3084 1428 2787 
Q 1159 2491 1159 1978 
L 1159 0 
L 581 0 
L 581 3500 
L 1159 3500 
L 1159 2956 
Q 1366 3272 1645 3428 
Q 1925 3584 2291 3584 
Q 2894 3584 3203 3211 
Q 3513 2838 3513 2113 
z
" transform="scale(0.015625)"/>
      <path id="DejaVuSans-2b" d="M 2944 4013 
L 2944 2272 
L 4684 2272 
L 4684 1741 
L 2944 1741 
L 2944 0 
L 2419 0 
L 2419 1741 
L 678 1741 
L 678 2272 
L 2419 2272 
L 2419 4013 
L 2944 4013 
z
" transform="scale(0.015625)"/>
      <path id="DejaVuSans-77" d="M 269 3500 
L 844 3500 
L 1563 769 
L 2278 3500 
L 2956 3500 
L 3675 769 
L 4391 3500 
L 4966 3500 
L 4050 0 
L 3372 0 
L 2619 2869 
L 1863 0 
L 1184 0 
L 269 3500 
z
" transform="scale(0.015625)"/>
      <path id="DejaVuSans-28" d="M 1984 4856 
Q 1566 4138 1362 3434 
Q 1159 2731 1159 2009 
Q 1159 1288 1364 580 
Q 1569 -128 1984 -844 
L 1484 -844 
Q 1016 -109 783 600 
Q 550 1309 550 2009 
Q 550 2706 781 3412 
Q 1013 4119 1484 4856 
L 1984 4856 
z
" transform="scale(0.015625)"/>
      <path id="DejaVuSans-2e" d="M 684 794 
L 1344 794 
L 1344 0 
L 684 0 
L 684 794 
z
" transform="scale(0.015625)"/>
      <path id="DejaVuSans-29" d="M 513 4856 
L 1013 4856 
Q 1481 4119 1714 3412 
Q 1947 2706 1947 2009 
Q 1947 1309 1714 600 
Q 1481 -109 1013 -844 
L 513 -844 
Q 928 -128 1133 580 
Q 1338 1288 1338 2009 
Q 1338 2731 1133 3434 
Q 928 4138 513 4856 
z
" transform="scale(0.015625)"/>
      <path id="DejaVuSans-61" d="M 2194 1759 
Q 1497 1759 1228 1600 
Q 959 1441 959 1056 
Q 959 750 1161 570 
Q 1363 391 1709 391 
Q 2188 391 2477 730 
Q 2766 1069 2766 1631 
L 2766 1759 
L 2194 1759 
z
M 3341 1997 
L 3341 0 
L 2766 0 
L 2766 531 
Q 2569 213 2275 61 
Q 1981 -91 1556 -91 
Q 1019 -91 701 211 
Q 384 513 384 1019 
Q 384 1609 779 1909 
Q 1175 2209 1959 2209 
L 2766 2209 
L 2766 2266 
Q 2766 2663 2505 2880 
Q 2244 3097 1772 3097 
Q 1472 3097 1187 3025 
Q 903 2953 641 2809 
L 641 3341 
Q 956 3463 1253 3523 
Q 1550 3584 1831 3584 
Q 2591 3584 2966 3190 
Q 3341 2797 3341 1997 
z
" transform="scale(0.015625)"/>
     </defs>
     <use xlink:href="#DejaVuSans-32"/>
     <use xlink:href="#DejaVuSans-30" x="63.623047"/>
     <use xlink:href="#DejaVuSans-32" x="127.246094"/>
     <use xlink:href="#DejaVuSans-35" x="190.869141"/>
     <use xlink:href="#DejaVuSans-2d" x="254.492188"/>
     <use xlink:href="#DejaVuSans-30" x="290.576172"/>
     <use xlink:href="#DejaVuSans-32" x="354.199219"/>
     <use xlink:href="#DejaVuSans-2d" x="417.822266"/>
     <use xlink:href="#DejaVuSans-32" x="453.90625"/>
     <use xlink:href="#DejaVuSans-31" x="517.529297"/>
     <use xlink:href="#DejaVuSans-2d" x="581.152344"/>
     <use xlink:href="#DejaVuSans-30" x="617.236328"/>
     <use xlink:href="#DejaVuSans-39" x="680.859375"/>
     <use xlink:href="#DejaVuSans-3a" x="744.482422"/>
     <use xlink:href="#DejaVuSans-30" x="778.173828"/>
     <use xlink:href="#DejaVuSans-36" x="841.796875"/>
     <use xlink:href="#DejaVuSans-3a" x="905.419922"/>
     <use xlink:href="#DejaVuSans-30" x="939.111328"/>
     <use xlink:href="#DejaVuSans-30" x="1002.734375"/>
     <use xlink:href="#DejaVuSans-20" x="1066.357422"/>
     <use xlink:href="#DejaVuSans-7a" x="1098.144531"/>
     <use xlink:href="#DejaVuSans-6f" x="1150.634766"/>
     <use xlink:href="#DejaVuSans-6f" x="1211.816406"/>
     <use xlink:href="#DejaVuSans-6d" x="1272.998047"/>
     <use xlink:href="#DejaVuSans-65" x="1370.410156"/>
     <use xlink:href="#DejaVuSans-64" x="1431.933594"/>
     <use xlink:href="#DejaVuSans-20" x="1495.410156"/>
     <use xlink:href="#DejaVuSans-69" x="1527.197266"/>
     <use xlink:href="#DejaVuSans-6e" x="1554.980469"/>
     <use xlink:href="#DejaVuSans-20" x="1618.359375"/>
     <use xlink:href="#DejaVuSans-2b" x="1650.146484"/>
     <use xlink:href="#DejaVuSans-20" x="1733.935547"/>
     <use xlink:href="#DejaVuSans-65" x="1765.722656"/>
     <use xlink:href="#DejaVuSans-77" x="1827.246094"/>
     <use xlink:href="#DejaVuSans-6d" x="1909.033203"/>
     <use xlink:href="#DejaVuSans-28" x="2006.445312"/>
     <use xlink:href="#DejaVuSans-34" x="2045.458984"/>
     <use xlink:href="#DejaVuSans-2e" x="2109.082031"/>
     <use xlink:href="#DejaVuSans-30" x="2140.869141"/>
     <use xlink:href="#DejaVuSans-29" x="2204.492188"/>
     <use xlink:href="#DejaVuSans-2e" x="2243.505859"/>
     <use xlink:href="#DejaVuSans-6d" x="2275.292969"/>
     <use xlink:href="#DejaVuSans-65" x="2372.705078"/>
     <use xlink:href="#DejaVuSans-61" x="2434.228516"/>
     <use xlink:href="#DejaVuSans-6e" x="2495.507812"/>
     <use xlink:href="#DejaVuSans-28" x="2558.886719"/>
     <use xlink:href="#DejaVuSans-29" x="2597.900391"/>
    </g>
   </g>
   <g id="legend_1">
    <g id="patch_7">
     <path d="M 281.596563 109.297 
L 407.72 109.297 
Q 409.72 109.297 409.72 107.297 
L 409.72 48.472 
Q 409.72 46.472 407.72 46.472 
L 281.596563 46.472 
Q 279.596563 46.472 279.596563 48.472 
L 279.596563 107.297 
Q 279.596563 109.297 281.596563 109.297 
z
" style="fill: #ffffff; opacity: 0.8; stroke: #cccccc; stroke-linejoin: miter"/>
    </g>
    <g id="line2d_36">
     <path d="M 283.596563 54.570437 
L 293.596563 54.570437 
L 303.596563 54.570437 
" style="fill: none; stroke: #1f77b4; stroke-opacity: 0.4; stroke-linecap: square"/>
    </g>
    <g id="text_8">
     <!-- SchNet eval_loss -->
     <g transform="translate(311.596563 58.070437) scale(0.1 -0.1)">
      <defs>
       <path id="DejaVuSans-53" d="M 3425 4513 
L 3425 3897 
Q 3066 4069 2747 4153 
Q 2428 4238 2131 4238 
Q 1616 4238 1336 4038 
Q 1056 3838 1056 3469 
Q 1056 3159 1242 3001 
Q 1428 2844 1947 2747 
L 2328 2669 
Q 3034 2534 3370 2195 
Q 3706 1856 3706 1288 
Q 3706 609 3251 259 
Q 2797 -91 1919 -91 
Q 1588 -91 1214 -16 
Q 841 59 441 206 
L 441 856 
Q 825 641 1194 531 
Q 1563 422 1919 422 
Q 2459 422 2753 634 
Q 3047 847 3047 1241 
Q 3047 1584 2836 1778 
Q 2625 1972 2144 2069 
L 1759 2144 
Q 1053 2284 737 2584 
Q 422 2884 422 3419 
Q 422 4038 858 4394 
Q 1294 4750 2059 4750 
Q 2388 4750 2728 4690 
Q 3069 4631 3425 4513 
z
" transform="scale(0.015625)"/>
       <path id="DejaVuSans-63" d="M 3122 3366 
L 3122 2828 
Q 2878 2963 2633 3030 
Q 2388 3097 2138 3097 
Q 1578 3097 1268 2742 
Q 959 2388 959 1747 
Q 959 1106 1268 751 
Q 1578 397 2138 397 
Q 2388 397 2633 464 
Q 2878 531 3122 666 
L 3122 134 
Q 2881 22 2623 -34 
Q 2366 -91 2075 -91 
Q 1284 -91 818 406 
Q 353 903 353 1747 
Q 353 2603 823 3093 
Q 1294 3584 2113 3584 
Q 2378 3584 2631 3529 
Q 2884 3475 3122 3366 
z
" transform="scale(0.015625)"/>
       <path id="DejaVuSans-68" d="M 3513 2113 
L 3513 0 
L 2938 0 
L 2938 2094 
Q 2938 2591 2744 2837 
Q 2550 3084 2163 3084 
Q 1697 3084 1428 2787 
Q 1159 2491 1159 1978 
L 1159 0 
L 581 0 
L 581 4863 
L 1159 4863 
L 1159 2956 
Q 1366 3272 1645 3428 
Q 1925 3584 2291 3584 
Q 2894 3584 3203 3211 
Q 3513 2838 3513 2113 
z
" transform="scale(0.015625)"/>
       <path id="DejaVuSans-4e" d="M 628 4666 
L 1478 4666 
L 3547 763 
L 3547 4666 
L 4159 4666 
L 4159 0 
L 3309 0 
L 1241 3903 
L 1241 0 
L 628 0 
L 628 4666 
z
" transform="scale(0.015625)"/>
       <path id="DejaVuSans-76" d="M 191 3500 
L 800 3500 
L 1894 563 
L 2988 3500 
L 3597 3500 
L 2284 0 
L 1503 0 
L 191 3500 
z
" transform="scale(0.015625)"/>
       <path id="DejaVuSans-5f" d="M 3263 -1063 
L 3263 -1509 
L -63 -1509 
L -63 -1063 
L 3263 -1063 
z
" transform="scale(0.015625)"/>
      </defs>
      <use xlink:href="#DejaVuSans-53"/>
      <use xlink:href="#DejaVuSans-63" x="63.476562"/>
      <use xlink:href="#DejaVuSans-68" x="118.457031"/>
      <use xlink:href="#DejaVuSans-4e" x="181.835938"/>
      <use xlink:href="#DejaVuSans-65" x="256.640625"/>
      <use xlink:href="#DejaVuSans-74" x="318.164062"/>
      <use xlink:href="#DejaVuSans-20" x="357.373047"/>
      <use xlink:href="#DejaVuSans-65" x="389.160156"/>
      <use xlink:href="#DejaVuSans-76" x="450.683594"/>
      <use xlink:href="#DejaVuSans-61" x="509.863281"/>
      <use xlink:href="#DejaVuSans-6c" x="571.142578"/>
      <use xlink:href="#DejaVuSans-5f" x="598.925781"/>
      <use xlink:href="#DejaVuSans-6c" x="648.925781"/>
      <use xlink:href="#DejaVuSans-6f" x="676.708984"/>
      <use xlink:href="#DejaVuSans-73" x="737.890625"/>
      <use xlink:href="#DejaVuSans-73" x="789.990234"/>
     </g>
    </g>
    <g id="line2d_37">
     <path d="M 283.596563 69.526687 
L 293.596563 69.526687 
L 303.596563 69.526687 
" style="fill: none; stroke: #ff7f0e; stroke-opacity: 0.4; stroke-linecap: square"/>
    </g>
    <g id="text_9">
     <!-- M220 eval_loss -->
     <g transform="translate(311.596563 73.026687) scale(0.1 -0.1)">
      <defs>
       <path id="DejaVuSans-4d" d="M 628 4666 
L 1569 4666 
L 2759 1491 
L 3956 4666 
L 4897 4666 
L 4897 0 
L 4281 0 
L 4281 4097 
L 3078 897 
L 2444 897 
L 1241 4097 
L 1241 0 
L 628 0 
L 628 4666 
z
" transform="scale(0.015625)"/>
      </defs>
      <use xlink:href="#DejaVuSans-4d"/>
      <use xlink:href="#DejaVuSans-32" x="86.279297"/>
      <use xlink:href="#DejaVuSans-32" x="149.902344"/>
      <use xlink:href="#DejaVuSans-30" x="213.525391"/>
      <use xlink:href="#DejaVuSans-20" x="277.148438"/>
      <use xlink:href="#DejaVuSans-65" x="308.935547"/>
      <use xlink:href="#DejaVuSans-76" x="370.458984"/>
      <use xlink:href="#DejaVuSans-61" x="429.638672"/>
      <use xlink:href="#DejaVuSans-6c" x="490.917969"/>
      <use xlink:href="#DejaVuSans-5f" x="518.701172"/>
      <use xlink:href="#DejaVuSans-6c" x="568.701172"/>
      <use xlink:href="#DejaVuSans-6f" x="596.484375"/>
      <use xlink:href="#DejaVuSans-73" x="657.666016"/>
      <use xlink:href="#DejaVuSans-73" x="709.765625"/>
     </g>
    </g>
    <g id="line2d_38">
     <path d="M 283.596563 84.482937 
L 293.596563 84.482937 
L 303.596563 84.482937 
" style="fill: none; stroke: #2ca02c; stroke-opacity: 0.4; stroke-linecap: square"/>
    </g>
    <g id="text_10">
     <!-- MoGIN14 eval_loss -->
     <g transform="translate(311.596563 87.982937) scale(0.1 -0.1)">
      <defs>
       <path id="DejaVuSans-47" d="M 3809 666 
L 3809 1919 
L 2778 1919 
L 2778 2438 
L 4434 2438 
L 4434 434 
Q 4069 175 3628 42 
Q 3188 -91 2688 -91 
Q 1594 -91 976 548 
Q 359 1188 359 2328 
Q 359 3472 976 4111 
Q 1594 4750 2688 4750 
Q 3144 4750 3555 4637 
Q 3966 4525 4313 4306 
L 4313 3634 
Q 3963 3931 3569 4081 
Q 3175 4231 2741 4231 
Q 1884 4231 1454 3753 
Q 1025 3275 1025 2328 
Q 1025 1384 1454 906 
Q 1884 428 2741 428 
Q 3075 428 3337 486 
Q 3600 544 3809 666 
z
" transform="scale(0.015625)"/>
       <path id="DejaVuSans-49" d="M 628 4666 
L 1259 4666 
L 1259 0 
L 628 0 
L 628 4666 
z
" transform="scale(0.015625)"/>
      </defs>
      <use xlink:href="#DejaVuSans-4d"/>
      <use xlink:href="#DejaVuSans-6f" x="86.279297"/>
      <use xlink:href="#DejaVuSans-47" x="147.460938"/>
      <use xlink:href="#DejaVuSans-49" x="224.951172"/>
      <use xlink:href="#DejaVuSans-4e" x="254.443359"/>
      <use xlink:href="#DejaVuSans-31" x="329.248047"/>
      <use xlink:href="#DejaVuSans-34" x="392.871094"/>
      <use xlink:href="#DejaVuSans-20" x="456.494141"/>
      <use xlink:href="#DejaVuSans-65" x="488.28125"/>
      <use xlink:href="#DejaVuSans-76" x="549.804688"/>
      <use xlink:href="#DejaVuSans-61" x="608.984375"/>
      <use xlink:href="#DejaVuSans-6c" x="670.263672"/>
      <use xlink:href="#DejaVuSans-5f" x="698.046875"/>
      <use xlink:href="#DejaVuSans-6c" x="748.046875"/>
      <use xlink:href="#DejaVuSans-6f" x="775.830078"/>
      <use xlink:href="#DejaVuSans-73" x="837.011719"/>
      <use xlink:href="#DejaVuSans-73" x="889.111328"/>
     </g>
    </g>
    <g id="line2d_39">
     <path d="M 283.596563 99.439187 
L 293.596563 99.439187 
L 303.596563 99.439187 
" style="fill: none; stroke: #d62728; stroke-opacity: 0.4; stroke-linecap: square"/>
    </g>
    <g id="text_11">
     <!-- MoGIN16 eval_loss -->
     <g transform="translate(311.596563 102.939187) scale(0.1 -0.1)">
      <use xlink:href="#DejaVuSans-4d"/>
      <use xlink:href="#DejaVuSans-6f" x="86.279297"/>
      <use xlink:href="#DejaVuSans-47" x="147.460938"/>
      <use xlink:href="#DejaVuSans-49" x="224.951172"/>
      <use xlink:href="#DejaVuSans-4e" x="254.443359"/>
      <use xlink:href="#DejaVuSans-31" x="329.248047"/>
      <use xlink:href="#DejaVuSans-36" x="392.871094"/>
      <use xlink:href="#DejaVuSans-20" x="456.494141"/>
      <use xlink:href="#DejaVuSans-65" x="488.28125"/>
      <use xlink:href="#DejaVuSans-76" x="549.804688"/>
      <use xlink:href="#DejaVuSans-61" x="608.984375"/>
      <use xlink:href="#DejaVuSans-6c" x="670.263672"/>
      <use xlink:href="#DejaVuSans-5f" x="698.046875"/>
      <use xlink:href="#DejaVuSans-6c" x="748.046875"/>
      <use xlink:href="#DejaVuSans-6f" x="775.830078"/>
      <use xlink:href="#DejaVuSans-73" x="837.011719"/>
      <use xlink:href="#DejaVuSans-73" x="889.111328"/>
     </g>
    </g>
   </g>
  </g>
 </g>
 <defs>
  <clipPath id="p4a0ccbf532">
   <rect x="57.6" y="41.472" width="357.12" height="266.112"/>
  </clipPath>
 </defs>
</svg>
