<?xml version="1.0" encoding="utf-8" standalone="no"?>
<!DOCTYPE svg PUBLIC "-//W3C//DTD SVG 1.1//EN"
  "http://www.w3.org/Graphics/SVG/1.1/DTD/svg11.dtd">
<svg xmlns:xlink="http://www.w3.org/1999/xlink" width="460.8pt" height="345.6pt" viewBox="0 0 460.8 345.6" xmlns="http://www.w3.org/2000/svg" version="1.1">
 <metadata>
  <rdf:RDF xmlns:dc="http://purl.org/dc/elements/1.1/" xmlns:cc="http://creativecommons.org/ns#" xmlns:rdf="http://www.w3.org/1999/02/22-rdf-syntax-ns#">
   <cc:Work>
    <dc:type rdf:resource="http://purl.org/dc/dcmitype/StillImage"/>
    <dc:date>2025-03-24T08:13:59.081418</dc:date>
    <dc:format>image/svg+xml</dc:format>
    <dc:creator>
     <cc:Agent>
      <dc:title>Matplotlib v3.8.4, https://matplotlib.org/</dc:title>
     </cc:Agent>
    </dc:creator>
   </cc:Work>
  </rdf:RDF>
 </metadata>
 <defs>
  <style type="text/css">*{stroke-linejoin: round; stroke-linecap: butt}</style>
 </defs>
 <g id="figure_1">
  <g id="patch_1">
   <path d="M 0 345.6 
L 460.8 345.6 
L 460.8 0 
L 0 0 
z
" style="fill: #ffffff"/>
  </g>
  <g id="axes_1">
   <g id="patch_2">
    <path d="M 57.6 307.584 
L 414.72 307.584 
L 414.72 41.472 
L 57.6 41.472 
z
" style="fill: #ffffff"/>
   </g>
   <g id="matplotlib.axis_1">
    <g id="xtick_1">
     <g id="line2d_1">
      <defs>
       <path id="mf1afd88099" d="M 0 0 
L 0 3.5 
" style="stroke: #000000; stroke-width: 0.8"/>
      </defs>
      <g>
       <use xlink:href="#mf1afd88099" x="73.832727" y="307.584" style="stroke: #000000; stroke-width: 0.8"/>
      </g>
     </g>
     <g id="text_1">
      <!-- $\mathdefault{10^{0}}$ -->
      <g transform="translate(65.032727 322.182437) scale(0.1 -0.1)">
       <defs>
        <path id="DejaVuSans-31" d="M 794 531 
L 1825 531 
L 1825 4091 
L 703 3866 
L 703 4441 
L 1819 4666 
L 2450 4666 
L 2450 531 
L 3481 531 
L 3481 0 
L 794 0 
L 794 531 
z
" transform="scale(0.015625)"/>
        <path id="DejaVuSans-30" d="M 2034 4250 
Q 1547 4250 1301 3770 
Q 1056 3291 1056 2328 
Q 1056 1369 1301 889 
Q 1547 409 2034 409 
Q 2525 409 2770 889 
Q 3016 1369 3016 2328 
Q 3016 3291 2770 3770 
Q 2525 4250 2034 4250 
z
M 2034 4750 
Q 2819 4750 3233 4129 
Q 3647 3509 3647 2328 
Q 3647 1150 3233 529 
Q 2819 -91 2034 -91 
Q 1250 -91 836 529 
Q 422 1150 422 2328 
Q 422 3509 836 4129 
Q 1250 4750 2034 4750 
z
" transform="scale(0.015625)"/>
       </defs>
       <use xlink:href="#DejaVuSans-31" transform="translate(0 0.765625)"/>
       <use xlink:href="#DejaVuSans-30" transform="translate(63.623047 0.765625)"/>
       <use xlink:href="#DejaVuSans-30" transform="translate(128.203125 39.046875) scale(0.7)"/>
      </g>
     </g>
    </g>
    <g id="xtick_2">
     <g id="line2d_2">
      <g>
       <use xlink:href="#mf1afd88099" x="176.182229" y="307.584" style="stroke: #000000; stroke-width: 0.8"/>
      </g>
     </g>
     <g id="text_2">
      <!-- $\mathdefault{10^{1}}$ -->
      <g transform="translate(167.382229 322.182437) scale(0.1 -0.1)">
       <use xlink:href="#DejaVuSans-31" transform="translate(0 0.684375)"/>
       <use xlink:href="#DejaVuSans-30" transform="translate(63.623047 0.684375)"/>
       <use xlink:href="#DejaVuSans-31" transform="translate(128.203125 38.965625) scale(0.7)"/>
      </g>
     </g>
    </g>
    <g id="xtick_3">
     <g id="line2d_3">
      <g>
       <use xlink:href="#mf1afd88099" x="278.531731" y="307.584" style="stroke: #000000; stroke-width: 0.8"/>
      </g>
     </g>
     <g id="text_3">
      <!-- $\mathdefault{10^{2}}$ -->
      <g transform="translate(269.731731 322.182437) scale(0.1 -0.1)">
       <defs>
        <path id="DejaVuSans-32" d="M 1228 531 
L 3431 531 
L 3431 0 
L 469 0 
L 469 531 
Q 828 903 1448 1529 
Q 2069 2156 2228 2338 
Q 2531 2678 2651 2914 
Q 2772 3150 2772 3378 
Q 2772 3750 2511 3984 
Q 2250 4219 1831 4219 
Q 1534 4219 1204 4116 
Q 875 4013 500 3803 
L 500 4441 
Q 881 4594 1212 4672 
Q 1544 4750 1819 4750 
Q 2544 4750 2975 4387 
Q 3406 4025 3406 3419 
Q 3406 3131 3298 2873 
Q 3191 2616 2906 2266 
Q 2828 2175 2409 1742 
Q 1991 1309 1228 531 
z
" transform="scale(0.015625)"/>
       </defs>
       <use xlink:href="#DejaVuSans-31" transform="translate(0 0.765625)"/>
       <use xlink:href="#DejaVuSans-30" transform="translate(63.623047 0.765625)"/>
       <use xlink:href="#DejaVuSans-32" transform="translate(128.203125 39.046875) scale(0.7)"/>
      </g>
     </g>
    </g>
    <g id="xtick_4">
     <g id="line2d_4">
      <g>
       <use xlink:href="#mf1afd88099" x="380.881233" y="307.584" style="stroke: #000000; stroke-width: 0.8"/>
      </g>
     </g>
     <g id="text_4">
      <!-- $\mathdefault{10^{3}}$ -->
      <g transform="translate(372.081233 322.182437) scale(0.1 -0.1)">
       <defs>
        <path id="DejaVuSans-33" d="M 2597 2516 
Q 3050 2419 3304 2112 
Q 3559 1806 3559 1356 
Q 3559 666 3084 287 
Q 2609 -91 1734 -91 
Q 1441 -91 1130 -33 
Q 819 25 488 141 
L 488 750 
Q 750 597 1062 519 
Q 1375 441 1716 441 
Q 2309 441 2620 675 
Q 2931 909 2931 1356 
Q 2931 1769 2642 2001 
Q 2353 2234 1838 2234 
L 1294 2234 
L 1294 2753 
L 1863 2753 
Q 2328 2753 2575 2939 
Q 2822 3125 2822 3475 
Q 2822 3834 2567 4026 
Q 2313 4219 1838 4219 
Q 1578 4219 1281 4162 
Q 984 4106 628 3988 
L 628 4550 
Q 988 4650 1302 4700 
Q 1616 4750 1894 4750 
Q 2613 4750 3031 4423 
Q 3450 4097 3450 3541 
Q 3450 3153 3228 2886 
Q 3006 2619 2597 2516 
z
" transform="scale(0.015625)"/>
       </defs>
       <use xlink:href="#DejaVuSans-31" transform="translate(0 0.765625)"/>
       <use xlink:href="#DejaVuSans-30" transform="translate(63.623047 0.765625)"/>
       <use xlink:href="#DejaVuSans-33" transform="translate(128.203125 39.046875) scale(0.7)"/>
      </g>
     </g>
    </g>
    <g id="xtick_5">
     <g id="line2d_5">
      <defs>
       <path id="m048010bc16" d="M 0 0 
L 0 2 
" style="stroke: #000000; stroke-width: 0.6"/>
      </defs>
      <g>
       <use xlink:href="#m048010bc16" x="57.978589" y="307.584" style="stroke: #000000; stroke-width: 0.6"/>
      </g>
     </g>
    </g>
    <g id="xtick_6">
     <g id="line2d_6">
      <g>
       <use xlink:href="#m048010bc16" x="63.914036" y="307.584" style="stroke: #000000; stroke-width: 0.6"/>
      </g>
     </g>
    </g>
    <g id="xtick_7">
     <g id="line2d_7">
      <g>
       <use xlink:href="#m048010bc16" x="69.149471" y="307.584" style="stroke: #000000; stroke-width: 0.6"/>
      </g>
     </g>
    </g>
    <g id="xtick_8">
     <g id="line2d_8">
      <g>
       <use xlink:href="#m048010bc16" x="104.642997" y="307.584" style="stroke: #000000; stroke-width: 0.6"/>
      </g>
     </g>
    </g>
    <g id="xtick_9">
     <g id="line2d_9">
      <g>
       <use xlink:href="#m048010bc16" x="122.66585" y="307.584" style="stroke: #000000; stroke-width: 0.6"/>
      </g>
     </g>
    </g>
    <g id="xtick_10">
     <g id="line2d_10">
      <g>
       <use xlink:href="#m048010bc16" x="135.453268" y="307.584" style="stroke: #000000; stroke-width: 0.6"/>
      </g>
     </g>
    </g>
    <g id="xtick_11">
     <g id="line2d_11">
      <g>
       <use xlink:href="#m048010bc16" x="145.371959" y="307.584" style="stroke: #000000; stroke-width: 0.6"/>
      </g>
     </g>
    </g>
    <g id="xtick_12">
     <g id="line2d_12">
      <g>
       <use xlink:href="#m048010bc16" x="153.47612" y="307.584" style="stroke: #000000; stroke-width: 0.6"/>
      </g>
     </g>
    </g>
    <g id="xtick_13">
     <g id="line2d_13">
      <g>
       <use xlink:href="#m048010bc16" x="160.328091" y="307.584" style="stroke: #000000; stroke-width: 0.6"/>
      </g>
     </g>
    </g>
    <g id="xtick_14">
     <g id="line2d_14">
      <g>
       <use xlink:href="#m048010bc16" x="166.263538" y="307.584" style="stroke: #000000; stroke-width: 0.6"/>
      </g>
     </g>
    </g>
    <g id="xtick_15">
     <g id="line2d_15">
      <g>
       <use xlink:href="#m048010bc16" x="171.498973" y="307.584" style="stroke: #000000; stroke-width: 0.6"/>
      </g>
     </g>
    </g>
    <g id="xtick_16">
     <g id="line2d_16">
      <g>
       <use xlink:href="#m048010bc16" x="206.992499" y="307.584" style="stroke: #000000; stroke-width: 0.6"/>
      </g>
     </g>
    </g>
    <g id="xtick_17">
     <g id="line2d_17">
      <g>
       <use xlink:href="#m048010bc16" x="225.015352" y="307.584" style="stroke: #000000; stroke-width: 0.6"/>
      </g>
     </g>
    </g>
    <g id="xtick_18">
     <g id="line2d_18">
      <g>
       <use xlink:href="#m048010bc16" x="237.80277" y="307.584" style="stroke: #000000; stroke-width: 0.6"/>
      </g>
     </g>
    </g>
    <g id="xtick_19">
     <g id="line2d_19">
      <g>
       <use xlink:href="#m048010bc16" x="247.721461" y="307.584" style="stroke: #000000; stroke-width: 0.6"/>
      </g>
     </g>
    </g>
    <g id="xtick_20">
     <g id="line2d_20">
      <g>
       <use xlink:href="#m048010bc16" x="255.825622" y="307.584" style="stroke: #000000; stroke-width: 0.6"/>
      </g>
     </g>
    </g>
    <g id="xtick_21">
     <g id="line2d_21">
      <g>
       <use xlink:href="#m048010bc16" x="262.677593" y="307.584" style="stroke: #000000; stroke-width: 0.6"/>
      </g>
     </g>
    </g>
    <g id="xtick_22">
     <g id="line2d_22">
      <g>
       <use xlink:href="#m048010bc16" x="268.61304" y="307.584" style="stroke: #000000; stroke-width: 0.6"/>
      </g>
     </g>
    </g>
    <g id="xtick_23">
     <g id="line2d_23">
      <g>
       <use xlink:href="#m048010bc16" x="273.848475" y="307.584" style="stroke: #000000; stroke-width: 0.6"/>
      </g>
     </g>
    </g>
    <g id="xtick_24">
     <g id="line2d_24">
      <g>
       <use xlink:href="#m048010bc16" x="309.342001" y="307.584" style="stroke: #000000; stroke-width: 0.6"/>
      </g>
     </g>
    </g>
    <g id="xtick_25">
     <g id="line2d_25">
      <g>
       <use xlink:href="#m048010bc16" x="327.364854" y="307.584" style="stroke: #000000; stroke-width: 0.6"/>
      </g>
     </g>
    </g>
    <g id="xtick_26">
     <g id="line2d_26">
      <g>
       <use xlink:href="#m048010bc16" x="340.152272" y="307.584" style="stroke: #000000; stroke-width: 0.6"/>
      </g>
     </g>
    </g>
    <g id="xtick_27">
     <g id="line2d_27">
      <g>
       <use xlink:href="#m048010bc16" x="350.070963" y="307.584" style="stroke: #000000; stroke-width: 0.6"/>
      </g>
     </g>
    </g>
    <g id="xtick_28">
     <g id="line2d_28">
      <g>
       <use xlink:href="#m048010bc16" x="358.175124" y="307.584" style="stroke: #000000; stroke-width: 0.6"/>
      </g>
     </g>
    </g>
    <g id="xtick_29">
     <g id="line2d_29">
      <g>
       <use xlink:href="#m048010bc16" x="365.027095" y="307.584" style="stroke: #000000; stroke-width: 0.6"/>
      </g>
     </g>
    </g>
    <g id="xtick_30">
     <g id="line2d_30">
      <g>
       <use xlink:href="#m048010bc16" x="370.962542" y="307.584" style="stroke: #000000; stroke-width: 0.6"/>
      </g>
     </g>
    </g>
    <g id="xtick_31">
     <g id="line2d_31">
      <g>
       <use xlink:href="#m048010bc16" x="376.197977" y="307.584" style="stroke: #000000; stroke-width: 0.6"/>
      </g>
     </g>
    </g>
    <g id="xtick_32">
     <g id="line2d_32">
      <g>
       <use xlink:href="#m048010bc16" x="411.691503" y="307.584" style="stroke: #000000; stroke-width: 0.6"/>
      </g>
     </g>
    </g>
    <g id="text_5">
     <!-- iter# -->
     <g transform="translate(223.488906 335.860562) scale(0.1 -0.1)">
      <defs>
       <path id="DejaVuSans-69" d="M 603 3500 
L 1178 3500 
L 1178 0 
L 603 0 
L 603 3500 
z
M 603 4863 
L 1178 4863 
L 1178 4134 
L 603 4134 
L 603 4863 
z
" transform="scale(0.015625)"/>
       <path id="DejaVuSans-74" d="M 1172 4494 
L 1172 3500 
L 2356 3500 
L 2356 3053 
L 1172 3053 
L 1172 1153 
Q 1172 725 1289 603 
Q 1406 481 1766 481 
L 2356 481 
L 2356 0 
L 1766 0 
Q 1100 0 847 248 
Q 594 497 594 1153 
L 594 3053 
L 172 3053 
L 172 3500 
L 594 3500 
L 594 4494 
L 1172 4494 
z
" transform="scale(0.015625)"/>
       <path id="DejaVuSans-65" d="M 3597 1894 
L 3597 1613 
L 953 1613 
Q 991 1019 1311 708 
Q 1631 397 2203 397 
Q 2534 397 2845 478 
Q 3156 559 3463 722 
L 3463 178 
Q 3153 47 2828 -22 
Q 2503 -91 2169 -91 
Q 1331 -91 842 396 
Q 353 884 353 1716 
Q 353 2575 817 3079 
Q 1281 3584 2069 3584 
Q 2775 3584 3186 3129 
Q 3597 2675 3597 1894 
z
M 3022 2063 
Q 3016 2534 2758 2815 
Q 2500 3097 2075 3097 
Q 1594 3097 1305 2825 
Q 1016 2553 972 2059 
L 3022 2063 
z
" transform="scale(0.015625)"/>
       <path id="DejaVuSans-72" d="M 2631 2963 
Q 2534 3019 2420 3045 
Q 2306 3072 2169 3072 
Q 1681 3072 1420 2755 
Q 1159 2438 1159 1844 
L 1159 0 
L 581 0 
L 581 3500 
L 1159 3500 
L 1159 2956 
Q 1341 3275 1631 3429 
Q 1922 3584 2338 3584 
Q 2397 3584 2469 3576 
Q 2541 3569 2628 3553 
L 2631 2963 
z
" transform="scale(0.015625)"/>
       <path id="DejaVuSans-23" d="M 3272 2816 
L 2363 2816 
L 2100 1772 
L 3016 1772 
L 3272 2816 
z
M 2803 4594 
L 2478 3297 
L 3391 3297 
L 3719 4594 
L 4219 4594 
L 3897 3297 
L 4872 3297 
L 4872 2816 
L 3775 2816 
L 3519 1772 
L 4513 1772 
L 4513 1294 
L 3397 1294 
L 3072 0 
L 2572 0 
L 2894 1294 
L 1978 1294 
L 1656 0 
L 1153 0 
L 1478 1294 
L 494 1294 
L 494 1772 
L 1594 1772 
L 1856 2816 
L 850 2816 
L 850 3297 
L 1978 3297 
L 2297 4594 
L 2803 4594 
z
" transform="scale(0.015625)"/>
      </defs>
      <use xlink:href="#DejaVuSans-69"/>
      <use xlink:href="#DejaVuSans-74" x="27.783203"/>
      <use xlink:href="#DejaVuSans-65" x="66.992188"/>
      <use xlink:href="#DejaVuSans-72" x="128.515625"/>
      <use xlink:href="#DejaVuSans-23" x="169.628906"/>
     </g>
    </g>
   </g>
   <g id="matplotlib.axis_2">
    <g id="ytick_1">
     <g id="line2d_33">
      <defs>
       <path id="me718661963" d="M 0 0 
L -3.5 0 
" style="stroke: #000000; stroke-width: 0.8"/>
      </defs>
      <g>
       <use xlink:href="#me718661963" x="57.6" y="299.951037" style="stroke: #000000; stroke-width: 0.8"/>
      </g>
     </g>
     <g id="text_6">
      <!-- $\mathdefault{10^{-3}}$ -->
      <g transform="translate(27.1 303.750255) scale(0.1 -0.1)">
       <defs>
        <path id="DejaVuSans-2212" d="M 678 2272 
L 4684 2272 
L 4684 1741 
L 678 1741 
L 678 2272 
z
" transform="scale(0.015625)"/>
       </defs>
       <use xlink:href="#DejaVuSans-31" transform="translate(0 0.765625)"/>
       <use xlink:href="#DejaVuSans-30" transform="translate(63.623047 0.765625)"/>
       <use xlink:href="#DejaVuSans-2212" transform="translate(128.203125 39.046875) scale(0.7)"/>
       <use xlink:href="#DejaVuSans-33" transform="translate(186.855469 39.046875) scale(0.7)"/>
      </g>
     </g>
    </g>
    <g id="ytick_2">
     <g id="line2d_34">
      <g>
       <use xlink:href="#me718661963" x="57.6" y="256.200704" style="stroke: #000000; stroke-width: 0.8"/>
      </g>
     </g>
     <g id="text_7">
      <!-- $\mathdefault{10^{-2}}$ -->
      <g transform="translate(27.1 259.999923) scale(0.1 -0.1)">
       <use xlink:href="#DejaVuSans-31" transform="translate(0 0.765625)"/>
       <use xlink:href="#DejaVuSans-30" transform="translate(63.623047 0.765625)"/>
       <use xlink:href="#DejaVuSans-2212" transform="translate(128.203125 39.046875) scale(0.7)"/>
       <use xlink:href="#DejaVuSans-32" transform="translate(186.855469 39.046875) scale(0.7)"/>
      </g>
     </g>
    </g>
    <g id="ytick_3">
     <g id="line2d_35">
      <g>
       <use xlink:href="#me718661963" x="57.6" y="212.450371" style="stroke: #000000; stroke-width: 0.8"/>
      </g>
     </g>
     <g id="text_8">
      <!-- $\mathdefault{10^{-1}}$ -->
      <g transform="translate(27.1 216.24959) scale(0.1 -0.1)">
       <use xlink:href="#DejaVuSans-31" transform="translate(0 0.684375)"/>
       <use xlink:href="#DejaVuSans-30" transform="translate(63.623047 0.684375)"/>
       <use xlink:href="#DejaVuSans-2212" transform="translate(128.203125 38.965625) scale(0.7)"/>
       <use xlink:href="#DejaVuSans-31" transform="translate(186.855469 38.965625) scale(0.7)"/>
      </g>
     </g>
    </g>
    <g id="ytick_4">
     <g id="line2d_36">
      <g>
       <use xlink:href="#me718661963" x="57.6" y="168.700039" style="stroke: #000000; stroke-width: 0.8"/>
      </g>
     </g>
     <g id="text_9">
      <!-- $\mathdefault{10^{0}}$ -->
      <g transform="translate(33 172.499257) scale(0.1 -0.1)">
       <use xlink:href="#DejaVuSans-31" transform="translate(0 0.765625)"/>
       <use xlink:href="#DejaVuSans-30" transform="translate(63.623047 0.765625)"/>
       <use xlink:href="#DejaVuSans-30" transform="translate(128.203125 39.046875) scale(0.7)"/>
      </g>
     </g>
    </g>
    <g id="ytick_5">
     <g id="line2d_37">
      <g>
       <use xlink:href="#me718661963" x="57.6" y="124.949706" style="stroke: #000000; stroke-width: 0.8"/>
      </g>
     </g>
     <g id="text_10">
      <!-- $\mathdefault{10^{1}}$ -->
      <g transform="translate(33 128.748925) scale(0.1 -0.1)">
       <use xlink:href="#DejaVuSans-31" transform="translate(0 0.684375)"/>
       <use xlink:href="#DejaVuSans-30" transform="translate(63.623047 0.684375)"/>
       <use xlink:href="#DejaVuSans-31" transform="translate(128.203125 38.965625) scale(0.7)"/>
      </g>
     </g>
    </g>
    <g id="ytick_6">
     <g id="line2d_38">
      <g>
       <use xlink:href="#me718661963" x="57.6" y="81.199373" style="stroke: #000000; stroke-width: 0.8"/>
      </g>
     </g>
     <g id="text_11">
      <!-- $\mathdefault{10^{2}}$ -->
      <g transform="translate(33 84.998592) scale(0.1 -0.1)">
       <use xlink:href="#DejaVuSans-31" transform="translate(0 0.765625)"/>
       <use xlink:href="#DejaVuSans-30" transform="translate(63.623047 0.765625)"/>
       <use xlink:href="#DejaVuSans-32" transform="translate(128.203125 39.046875) scale(0.7)"/>
      </g>
     </g>
    </g>
    <g id="ytick_7">
     <g id="line2d_39">
      <defs>
       <path id="m9b82f05f81" d="M 0 0 
L -2 0 
" style="stroke: #000000; stroke-width: 0.6"/>
      </defs>
      <g>
       <use xlink:href="#m9b82f05f81" x="57.6" y="306.728049" style="stroke: #000000; stroke-width: 0.6"/>
      </g>
     </g>
    </g>
    <g id="ytick_8">
     <g id="line2d_40">
      <g>
       <use xlink:href="#m9b82f05f81" x="57.6" y="304.190882" style="stroke: #000000; stroke-width: 0.6"/>
      </g>
     </g>
    </g>
    <g id="ytick_9">
     <g id="line2d_41">
      <g>
       <use xlink:href="#m9b82f05f81" x="57.6" y="301.952942" style="stroke: #000000; stroke-width: 0.6"/>
      </g>
     </g>
    </g>
    <g id="ytick_10">
     <g id="line2d_42">
      <g>
       <use xlink:href="#m9b82f05f81" x="57.6" y="286.780874" style="stroke: #000000; stroke-width: 0.6"/>
      </g>
     </g>
    </g>
    <g id="ytick_11">
     <g id="line2d_43">
      <g>
       <use xlink:href="#m9b82f05f81" x="57.6" y="279.076823" style="stroke: #000000; stroke-width: 0.6"/>
      </g>
     </g>
    </g>
    <g id="ytick_12">
     <g id="line2d_44">
      <g>
       <use xlink:href="#m9b82f05f81" x="57.6" y="273.610712" style="stroke: #000000; stroke-width: 0.6"/>
      </g>
     </g>
    </g>
    <g id="ytick_13">
     <g id="line2d_45">
      <g>
       <use xlink:href="#m9b82f05f81" x="57.6" y="269.370866" style="stroke: #000000; stroke-width: 0.6"/>
      </g>
     </g>
    </g>
    <g id="ytick_14">
     <g id="line2d_46">
      <g>
       <use xlink:href="#m9b82f05f81" x="57.6" y="265.90666" style="stroke: #000000; stroke-width: 0.6"/>
      </g>
     </g>
    </g>
    <g id="ytick_15">
     <g id="line2d_47">
      <g>
       <use xlink:href="#m9b82f05f81" x="57.6" y="262.977716" style="stroke: #000000; stroke-width: 0.6"/>
      </g>
     </g>
    </g>
    <g id="ytick_16">
     <g id="line2d_48">
      <g>
       <use xlink:href="#m9b82f05f81" x="57.6" y="260.440549" style="stroke: #000000; stroke-width: 0.6"/>
      </g>
     </g>
    </g>
    <g id="ytick_17">
     <g id="line2d_49">
      <g>
       <use xlink:href="#m9b82f05f81" x="57.6" y="258.202609" style="stroke: #000000; stroke-width: 0.6"/>
      </g>
     </g>
    </g>
    <g id="ytick_18">
     <g id="line2d_50">
      <g>
       <use xlink:href="#m9b82f05f81" x="57.6" y="243.030541" style="stroke: #000000; stroke-width: 0.6"/>
      </g>
     </g>
    </g>
    <g id="ytick_19">
     <g id="line2d_51">
      <g>
       <use xlink:href="#m9b82f05f81" x="57.6" y="235.32649" style="stroke: #000000; stroke-width: 0.6"/>
      </g>
     </g>
    </g>
    <g id="ytick_20">
     <g id="line2d_52">
      <g>
       <use xlink:href="#m9b82f05f81" x="57.6" y="229.860379" style="stroke: #000000; stroke-width: 0.6"/>
      </g>
     </g>
    </g>
    <g id="ytick_21">
     <g id="line2d_53">
      <g>
       <use xlink:href="#m9b82f05f81" x="57.6" y="225.620534" style="stroke: #000000; stroke-width: 0.6"/>
      </g>
     </g>
    </g>
    <g id="ytick_22">
     <g id="line2d_54">
      <g>
       <use xlink:href="#m9b82f05f81" x="57.6" y="222.156328" style="stroke: #000000; stroke-width: 0.6"/>
      </g>
     </g>
    </g>
    <g id="ytick_23">
     <g id="line2d_55">
      <g>
       <use xlink:href="#m9b82f05f81" x="57.6" y="219.227383" style="stroke: #000000; stroke-width: 0.6"/>
      </g>
     </g>
    </g>
    <g id="ytick_24">
     <g id="line2d_56">
      <g>
       <use xlink:href="#m9b82f05f81" x="57.6" y="216.690216" style="stroke: #000000; stroke-width: 0.6"/>
      </g>
     </g>
    </g>
    <g id="ytick_25">
     <g id="line2d_57">
      <g>
       <use xlink:href="#m9b82f05f81" x="57.6" y="214.452277" style="stroke: #000000; stroke-width: 0.6"/>
      </g>
     </g>
    </g>
    <g id="ytick_26">
     <g id="line2d_58">
      <g>
       <use xlink:href="#m9b82f05f81" x="57.6" y="199.280209" style="stroke: #000000; stroke-width: 0.6"/>
      </g>
     </g>
    </g>
    <g id="ytick_27">
     <g id="line2d_59">
      <g>
       <use xlink:href="#m9b82f05f81" x="57.6" y="191.576158" style="stroke: #000000; stroke-width: 0.6"/>
      </g>
     </g>
    </g>
    <g id="ytick_28">
     <g id="line2d_60">
      <g>
       <use xlink:href="#m9b82f05f81" x="57.6" y="186.110046" style="stroke: #000000; stroke-width: 0.6"/>
      </g>
     </g>
    </g>
    <g id="ytick_29">
     <g id="line2d_61">
      <g>
       <use xlink:href="#m9b82f05f81" x="57.6" y="181.870201" style="stroke: #000000; stroke-width: 0.6"/>
      </g>
     </g>
    </g>
    <g id="ytick_30">
     <g id="line2d_62">
      <g>
       <use xlink:href="#m9b82f05f81" x="57.6" y="178.405995" style="stroke: #000000; stroke-width: 0.6"/>
      </g>
     </g>
    </g>
    <g id="ytick_31">
     <g id="line2d_63">
      <g>
       <use xlink:href="#m9b82f05f81" x="57.6" y="175.477051" style="stroke: #000000; stroke-width: 0.6"/>
      </g>
     </g>
    </g>
    <g id="ytick_32">
     <g id="line2d_64">
      <g>
       <use xlink:href="#m9b82f05f81" x="57.6" y="172.939884" style="stroke: #000000; stroke-width: 0.6"/>
      </g>
     </g>
    </g>
    <g id="ytick_33">
     <g id="line2d_65">
      <g>
       <use xlink:href="#m9b82f05f81" x="57.6" y="170.701944" style="stroke: #000000; stroke-width: 0.6"/>
      </g>
     </g>
    </g>
    <g id="ytick_34">
     <g id="line2d_66">
      <g>
       <use xlink:href="#m9b82f05f81" x="57.6" y="155.529876" style="stroke: #000000; stroke-width: 0.6"/>
      </g>
     </g>
    </g>
    <g id="ytick_35">
     <g id="line2d_67">
      <g>
       <use xlink:href="#m9b82f05f81" x="57.6" y="147.825825" style="stroke: #000000; stroke-width: 0.6"/>
      </g>
     </g>
    </g>
    <g id="ytick_36">
     <g id="line2d_68">
      <g>
       <use xlink:href="#m9b82f05f81" x="57.6" y="142.359714" style="stroke: #000000; stroke-width: 0.6"/>
      </g>
     </g>
    </g>
    <g id="ytick_37">
     <g id="line2d_69">
      <g>
       <use xlink:href="#m9b82f05f81" x="57.6" y="138.119868" style="stroke: #000000; stroke-width: 0.6"/>
      </g>
     </g>
    </g>
    <g id="ytick_38">
     <g id="line2d_70">
      <g>
       <use xlink:href="#m9b82f05f81" x="57.6" y="134.655662" style="stroke: #000000; stroke-width: 0.6"/>
      </g>
     </g>
    </g>
    <g id="ytick_39">
     <g id="line2d_71">
      <g>
       <use xlink:href="#m9b82f05f81" x="57.6" y="131.726718" style="stroke: #000000; stroke-width: 0.6"/>
      </g>
     </g>
    </g>
    <g id="ytick_40">
     <g id="line2d_72">
      <g>
       <use xlink:href="#m9b82f05f81" x="57.6" y="129.189551" style="stroke: #000000; stroke-width: 0.6"/>
      </g>
     </g>
    </g>
    <g id="ytick_41">
     <g id="line2d_73">
      <g>
       <use xlink:href="#m9b82f05f81" x="57.6" y="126.951611" style="stroke: #000000; stroke-width: 0.6"/>
      </g>
     </g>
    </g>
    <g id="ytick_42">
     <g id="line2d_74">
      <g>
       <use xlink:href="#m9b82f05f81" x="57.6" y="111.779543" style="stroke: #000000; stroke-width: 0.6"/>
      </g>
     </g>
    </g>
    <g id="ytick_43">
     <g id="line2d_75">
      <g>
       <use xlink:href="#m9b82f05f81" x="57.6" y="104.075492" style="stroke: #000000; stroke-width: 0.6"/>
      </g>
     </g>
    </g>
    <g id="ytick_44">
     <g id="line2d_76">
      <g>
       <use xlink:href="#m9b82f05f81" x="57.6" y="98.609381" style="stroke: #000000; stroke-width: 0.6"/>
      </g>
     </g>
    </g>
    <g id="ytick_45">
     <g id="line2d_77">
      <g>
       <use xlink:href="#m9b82f05f81" x="57.6" y="94.369536" style="stroke: #000000; stroke-width: 0.6"/>
      </g>
     </g>
    </g>
    <g id="ytick_46">
     <g id="line2d_78">
      <g>
       <use xlink:href="#m9b82f05f81" x="57.6" y="90.90533" style="stroke: #000000; stroke-width: 0.6"/>
      </g>
     </g>
    </g>
    <g id="ytick_47">
     <g id="line2d_79">
      <g>
       <use xlink:href="#m9b82f05f81" x="57.6" y="87.976385" style="stroke: #000000; stroke-width: 0.6"/>
      </g>
     </g>
    </g>
    <g id="ytick_48">
     <g id="line2d_80">
      <g>
       <use xlink:href="#m9b82f05f81" x="57.6" y="85.439218" style="stroke: #000000; stroke-width: 0.6"/>
      </g>
     </g>
    </g>
    <g id="ytick_49">
     <g id="line2d_81">
      <g>
       <use xlink:href="#m9b82f05f81" x="57.6" y="83.201279" style="stroke: #000000; stroke-width: 0.6"/>
      </g>
     </g>
    </g>
    <g id="ytick_50">
     <g id="line2d_82">
      <g>
       <use xlink:href="#m9b82f05f81" x="57.6" y="68.029211" style="stroke: #000000; stroke-width: 0.6"/>
      </g>
     </g>
    </g>
    <g id="ytick_51">
     <g id="line2d_83">
      <g>
       <use xlink:href="#m9b82f05f81" x="57.6" y="60.32516" style="stroke: #000000; stroke-width: 0.6"/>
      </g>
     </g>
    </g>
    <g id="ytick_52">
     <g id="line2d_84">
      <g>
       <use xlink:href="#m9b82f05f81" x="57.6" y="54.859048" style="stroke: #000000; stroke-width: 0.6"/>
      </g>
     </g>
    </g>
    <g id="ytick_53">
     <g id="line2d_85">
      <g>
       <use xlink:href="#m9b82f05f81" x="57.6" y="50.619203" style="stroke: #000000; stroke-width: 0.6"/>
      </g>
     </g>
    </g>
    <g id="ytick_54">
     <g id="line2d_86">
      <g>
       <use xlink:href="#m9b82f05f81" x="57.6" y="47.154997" style="stroke: #000000; stroke-width: 0.6"/>
      </g>
     </g>
    </g>
    <g id="ytick_55">
     <g id="line2d_87">
      <g>
       <use xlink:href="#m9b82f05f81" x="57.6" y="44.226053" style="stroke: #000000; stroke-width: 0.6"/>
      </g>
     </g>
    </g>
    <g id="ytick_56">
     <g id="line2d_88">
      <g>
       <use xlink:href="#m9b82f05f81" x="57.6" y="41.688886" style="stroke: #000000; stroke-width: 0.6"/>
      </g>
     </g>
    </g>
    <g id="text_12">
     <!-- loss -->
     <g transform="translate(21.020313 184.185812) rotate(-90) scale(0.1 -0.1)">
      <defs>
       <path id="DejaVuSans-6c" d="M 603 4863 
L 1178 4863 
L 1178 0 
L 603 0 
L 603 4863 
z
" transform="scale(0.015625)"/>
       <path id="DejaVuSans-6f" d="M 1959 3097 
Q 1497 3097 1228 2736 
Q 959 2375 959 1747 
Q 959 1119 1226 758 
Q 1494 397 1959 397 
Q 2419 397 2687 759 
Q 2956 1122 2956 1747 
Q 2956 2369 2687 2733 
Q 2419 3097 1959 3097 
z
M 1959 3584 
Q 2709 3584 3137 3096 
Q 3566 2609 3566 1747 
Q 3566 888 3137 398 
Q 2709 -91 1959 -91 
Q 1206 -91 779 398 
Q 353 888 353 1747 
Q 353 2609 779 3096 
Q 1206 3584 1959 3584 
z
" transform="scale(0.015625)"/>
       <path id="DejaVuSans-73" d="M 2834 3397 
L 2834 2853 
Q 2591 2978 2328 3040 
Q 2066 3103 1784 3103 
Q 1356 3103 1142 2972 
Q 928 2841 928 2578 
Q 928 2378 1081 2264 
Q 1234 2150 1697 2047 
L 1894 2003 
Q 2506 1872 2764 1633 
Q 3022 1394 3022 966 
Q 3022 478 2636 193 
Q 2250 -91 1575 -91 
Q 1294 -91 989 -36 
Q 684 19 347 128 
L 347 722 
Q 666 556 975 473 
Q 1284 391 1588 391 
Q 1994 391 2212 530 
Q 2431 669 2431 922 
Q 2431 1156 2273 1281 
Q 2116 1406 1581 1522 
L 1381 1569 
Q 847 1681 609 1914 
Q 372 2147 372 2553 
Q 372 3047 722 3315 
Q 1072 3584 1716 3584 
Q 2034 3584 2315 3537 
Q 2597 3491 2834 3397 
z
" transform="scale(0.015625)"/>
      </defs>
      <use xlink:href="#DejaVuSans-6c"/>
      <use xlink:href="#DejaVuSans-6f" x="27.783203"/>
      <use xlink:href="#DejaVuSans-73" x="88.964844"/>
      <use xlink:href="#DejaVuSans-73" x="141.064453"/>
     </g>
    </g>
   </g>
   <g id="line2d_89">
    <path d="M 73.832727 53.568 
L 104.642997 68.875915 
L 122.66585 89.381689 
L 135.453268 82.859683 
L 145.371959 82.802167 
L 153.47612 82.850261 
L 160.328091 82.996735 
L 166.263538 83.186293 
L 171.498973 83.342731 
L 176.182229 83.4431 
L 180.41875 83.533417 
L 184.28639 83.650548 
L 187.844275 83.804457 
L 191.138361 83.987114 
L 194.205082 84.176229 
L 197.073808 84.356607 
L 199.768562 84.525992 
L 202.309243 84.690227 
L 204.712522 84.84985 
L 206.992499 85.010665 
L 209.161214 85.181852 
L 211.22902 85.364 
L 213.204893 85.551351 
L 215.096661 85.740119 
L 216.911191 85.92576 
L 218.654545 86.106405 
L 220.332096 86.283541 
L 221.948631 86.460225 
L 223.508434 86.635354 
L 225.015352 86.817067 
L 226.472854 87.00233 
L 227.884078 87.189954 
L 229.251873 87.378745 
L 230.578832 87.566661 
L 231.867323 87.753651 
L 233.119513 87.939337 
L 234.337393 88.123396 
L 235.522792 88.307668 
L 236.677397 88.491305 
L 238.900352 88.863499 
L 244.015163 89.799307 
L 247.721461 90.542357 
L 251.957982 91.479106 
L 256.560347 92.597641 
L 260.730574 93.722033 
L 264.542894 94.840602 
L 268.61304 96.146086 
L 272.84956 97.639511 
L 277.177825 99.314381 
L 281.539146 101.170218 
L 285.888819 103.208856 
L 289.850533 105.237389 
L 294.118367 107.634848 
L 298.581963 110.364631 
L 302.637951 113.088895 
L 306.827459 116.137524 
L 311.085355 119.524702 
L 315.360714 123.202726 
L 319.614877 127.149291 
L 323.819315 131.352538 
L 328.099579 135.888668 
L 332.269806 140.505459 
L 336.566597 145.350897 
L 340.814068 150.205497 
L 344.990831 154.756333 
L 349.263578 159.112508 
L 353.491868 162.931906 
L 357.728389 166.113692 
L 361.93769 168.531582 
L 366.155642 170.197296 
L 370.403417 171.434141 
L 374.639938 172.494427 
L 378.881108 173.365963 
L 383.09226 173.950799 
L 387.363371 174.020102 
L 391.575437 174.614786 
L 395.805604 174.648644 
" clip-path="url(#pb22838cea4)" style="fill: none; stroke-dasharray: 5.55,2.4; stroke-dashoffset: 0; stroke: #1f77b4; stroke-opacity: 0.4; stroke-width: 1.5"/>
   </g>
   <g id="line2d_90">
    <path d="M 73.832727 218.588766 
L 197.073808 267.267482 
L 226.472854 274.599781 
L 244.015163 279.124903 
L 256.560347 282.888791 
L 266.333062 282.894108 
L 274.339638 283.56747 
L 281.121774 283.790393 
L 287.004773 284.107166 
L 292.199372 284.219198 
L 296.849933 283.57515 
L 301.059684 283.816734 
L 304.905005 284.014126 
L 308.443995 284.360842 
L 311.721879 284.404311 
L 314.774554 284.287526 
L 317.630985 284.477913 
L 320.314888 284.481634 
L 322.845923 283.707588 
L 325.240567 284.296292 
L 327.512774 284.508498 
L 329.674455 284.354123 
L 331.735868 284.595291 
L 333.705902 284.173893 
L 335.592316 284.7653 
L 337.401921 284.807929 
L 339.140727 284.524707 
L 340.814068 284.587052 
L 342.426693 284.751511 
L 343.982855 283.762049 
L 345.486375 283.518541 
L 346.940697 284.149608 
L 348.34894 285.059072 
L 349.713934 284.505822 
L 351.038258 284.910728 
L 352.324263 284.619884 
L 353.574106 285.210299 
L 354.789765 285.041681 
L 355.97306 285.283258 
L 357.12567 285.187839 
L 358.249146 285.366169 
L 359.344924 284.357787 
L 360.414338 285.425477 
L 361.458626 285.39633 
L 362.478942 285.50143 
L 363.476362 284.791614 
L 364.451891 285.357338 
L 365.40647 285.334174 
L 366.340978 285.471455 
L 367.256244 285.428856 
L 368.153043 285.55411 
L 369.032105 285.038614 
L 369.89412 285.710234 
L 370.739735 285.587497 
L 371.569563 285.720908 
L 372.384182 285.812732 
L 373.184141 285.846532 
L 373.969957 284.832528 
L 374.742121 285.900259 
L 375.501101 285.266055 
L 376.247338 285.497493 
L 376.981254 286.018231 
L 377.703249 285.950493 
L 378.413703 285.995423 
L 379.112981 285.290312 
L 379.801427 286.15063 
L 380.479374 285.817066 
L 381.147135 286.070969 
L 381.805013 286.19042 
L 382.453297 286.166588 
L 383.09226 285.984751 
L 383.722169 286.291348 
L 384.343276 286.253969 
L 384.955824 286.350548 
L 385.560044 284.372542 
L 386.156162 286.360619 
L 386.74439 286.399151 
L 387.324936 286.304632 
L 387.897997 286.407988 
L 388.463764 286.35416 
L 389.02242 286.47897 
L 389.574142 285.216957 
L 390.1191 286.230666 
L 390.657457 286.37563 
L 391.189372 286.511441 
L 391.714997 286.513113 
L 392.234479 286.628027 
L 392.74796 285.286225 
L 393.255576 286.535486 
L 393.757462 286.507765 
L 394.253743 286.102762 
L 394.744545 286.696554 
L 395.229986 285.28176 
L 395.710184 286.615659 
L 396.185249 286.712309 
L 396.65529 285.821059 
L 397.120413 286.73612 
L 397.580719 286.646331 
L 398.036307 285.632742 
L 398.487273 286.824163 
" clip-path="url(#pb22838cea4)" style="fill: none; stroke: #1f77b4; stroke-opacity: 0.2; stroke-width: 1.5; stroke-linecap: square"/>
   </g>
   <g id="line2d_91">
    <path d="M 73.832727 218.588766 
L 197.073808 267.267482 
L 226.472854 274.599781 
L 244.015163 279.124903 
L 256.560347 282.888791 
L 266.333062 282.894108 
L 274.339638 283.56747 
L 281.121774 283.790393 
L 287.004773 284.107166 
L 292.199372 284.219198 
L 296.849933 284.219198 
L 301.059684 284.219198 
L 304.905005 284.219198 
L 308.443995 284.360842 
L 311.721879 284.404311 
L 314.774554 284.404311 
L 317.630985 284.477913 
L 320.314888 284.481634 
L 322.845923 284.481634 
L 325.240567 284.481634 
L 327.512774 284.508498 
L 329.674455 284.508498 
L 331.735868 284.595291 
L 333.705902 284.595291 
L 335.592316 284.7653 
L 337.401921 284.807929 
L 339.140727 284.807929 
L 340.814068 284.807929 
L 342.426693 284.807929 
L 343.982855 284.807929 
L 345.486375 284.807929 
L 346.940697 284.807929 
L 348.34894 285.059072 
L 349.713934 285.059072 
L 351.038258 285.059072 
L 352.324263 285.059072 
L 353.574106 285.210299 
L 354.789765 285.210299 
L 355.97306 285.283258 
L 357.12567 285.283258 
L 358.249146 285.366169 
L 359.344924 285.366169 
L 360.414338 285.425477 
L 361.458626 285.425477 
L 362.478942 285.50143 
L 363.476362 285.50143 
L 364.451891 285.50143 
L 365.40647 285.50143 
L 366.340978 285.50143 
L 367.256244 285.50143 
L 368.153043 285.55411 
L 369.032105 285.55411 
L 369.89412 285.710234 
L 370.739735 285.710234 
L 371.569563 285.720908 
L 372.384182 285.812732 
L 373.184141 285.846532 
L 373.969957 285.846532 
L 374.742121 285.900259 
L 375.501101 285.900259 
L 376.247338 285.900259 
L 376.981254 286.018231 
L 377.703249 286.018231 
L 378.413703 286.018231 
L 379.112981 286.018231 
L 379.801427 286.15063 
L 380.479374 286.15063 
L 381.147135 286.15063 
L 381.805013 286.19042 
L 382.453297 286.19042 
L 383.09226 286.19042 
L 383.722169 286.291348 
L 384.343276 286.291348 
L 384.955824 286.350548 
L 385.560044 286.350548 
L 386.156162 286.360619 
L 386.74439 286.399151 
L 387.324936 286.399151 
L 387.897997 286.407988 
L 388.463764 286.407988 
L 389.02242 286.47897 
L 389.574142 286.47897 
L 390.1191 286.47897 
L 390.657457 286.47897 
L 391.189372 286.511441 
L 391.714997 286.513113 
L 392.234479 286.628027 
L 392.74796 286.628027 
L 393.255576 286.628027 
L 393.757462 286.628027 
L 394.253743 286.628027 
L 394.744545 286.696554 
L 395.229986 286.696554 
L 395.710184 286.696554 
L 396.185249 286.712309 
L 396.65529 286.712309 
L 397.120413 286.73612 
L 397.580719 286.73612 
L 398.036307 286.73612 
L 398.487273 286.824163 
" clip-path="url(#pb22838cea4)" style="fill: none; stroke: #1f77b4; stroke-opacity: 0.9; stroke-linecap: square"/>
   </g>
   <g id="line2d_92">
    <path d="M 73.832727 159.613466 
L 104.642997 162.569643 
L 122.66585 168.121584 
L 135.453268 169.050116 
L 145.371959 169.08886 
L 153.47612 168.997248 
L 160.328091 168.973981 
L 166.263538 169.030687 
L 171.498973 169.024317 
L 176.182229 168.999566 
L 180.41875 168.996195 
L 184.28639 168.946248 
L 187.844275 168.938423 
L 191.138361 168.937359 
L 194.205082 168.975747 
L 197.073808 168.991613 
L 199.768562 168.976942 
L 202.309243 168.975553 
L 204.712522 168.983578 
L 206.992499 168.995683 
L 209.161214 168.878454 
L 211.22902 168.874667 
L 213.204893 168.896067 
L 215.096661 168.921055 
L 216.911191 168.861768 
L 218.654545 168.833908 
L 220.332096 168.766248 
L 221.948631 168.808004 
L 223.508434 168.792922 
L 225.015352 168.791087 
L 226.472854 168.764729 
L 227.884078 168.777656 
L 229.251873 168.812164 
L 230.578832 168.801568 
L 231.867323 168.842373 
L 233.119513 168.817086 
L 234.337393 168.744175 
L 235.522792 168.75091 
L 236.677397 168.770163 
L 238.900352 168.765217 
L 244.015163 168.730441 
L 247.721461 168.710357 
L 251.957982 168.737205 
L 256.560347 168.71471 
L 260.730574 168.817865 
L 264.542894 168.711721 
L 268.61304 168.749585 
L 272.84956 169.012543 
L 277.177825 169.274444 
L 281.539146 169.508697 
L 285.888819 169.948664 
L 289.850533 170.333676 
L 294.118367 170.952538 
L 298.581963 171.144021 
L 302.637951 171.592958 
L 306.827459 172.08431 
L 311.085355 172.822393 
L 315.360714 173.768515 
L 319.614877 174.847765 
L 323.819315 176.009441 
L 328.099579 177.419137 
L 332.269806 178.889437 
L 336.566597 180.404167 
L 340.814068 181.999428 
L 344.990831 184.177026 
L 349.263578 186.359361 
L 353.491868 188.773593 
L 357.728389 192.183648 
L 361.93769 195.67573 
L 366.155642 198.45822 
L 370.403417 203.387603 
L 374.639938 210.420982 
L 378.881108 219.954073 
L 383.09226 228.674588 
L 387.363371 243.65043 
L 391.575437 260.605516 
L 395.805604 279.687139 
" clip-path="url(#pb22838cea4)" style="fill: none; stroke-dasharray: 5.55,2.4; stroke-dashoffset: 0; stroke: #ff7f0e; stroke-opacity: 0.4; stroke-width: 1.5"/>
   </g>
   <g id="line2d_93">
    <path d="M 73.832727 280.697627 
L 197.073808 283.582861 
L 226.472854 284.032152 
L 244.015163 283.013769 
L 256.560347 284.255676 
L 266.333062 284.678696 
L 274.339638 285.216335 
L 281.121774 285.801917 
L 287.004773 285.83348 
L 292.199372 285.482944 
L 296.849933 282.319104 
L 301.059684 286.330641 
L 304.905005 286.78133 
L 308.443995 287.378653 
L 311.721879 287.052411 
L 314.774554 287.46337 
L 317.630985 288.503365 
L 320.314888 288.099974 
L 322.845923 288.62378 
L 325.240567 290.414097 
L 327.512774 291.241117 
L 329.674455 290.061334 
L 331.735868 291.590426 
L 333.705902 291.739523 
L 335.592316 290.984184 
L 337.401921 291.511035 
L 339.140727 290.176918 
L 340.814068 291.079845 
L 342.426693 292.560085 
L 343.982855 292.484948 
L 345.486375 293.760206 
L 346.940697 293.193658 
L 348.34894 293.887474 
L 349.713934 290.628029 
L 351.038258 292.589962 
L 352.324263 293.985478 
L 353.574106 294.509416 
L 354.789765 294.764591 
L 355.97306 294.585129 
L 357.12567 294.66046 
L 358.249146 295.054983 
L 359.344924 294.487338 
L 360.414338 295.088969 
L 361.458626 294.715822 
L 362.478942 295.125733 
L 363.476362 294.64215 
L 364.451891 295.488 
L 365.40647 294.845714 
L 366.340978 295.12551 
L 367.256244 295.082453 
L 368.153043 294.82792 
L 369.032105 292.635398 
L 369.89412 295.267995 
L 370.739735 294.385521 
L 371.569563 294.814904 
L 372.384182 295.195106 
L 373.184141 294.919579 
L 373.969957 294.668235 
L 374.742121 294.565276 
L 375.501101 294.348692 
L 376.247338 294.235554 
L 376.981254 294.160964 
L 377.703249 294.455486 
L 378.413703 294.803328 
L 379.112981 294.497839 
L 379.801427 294.495282 
L 380.479374 295.293325 
L 381.147135 294.794699 
L 381.805013 294.21965 
L 382.453297 294.62774 
L 383.09226 294.573513 
L 383.722169 294.987645 
L 384.343276 294.592792 
L 384.955824 294.898509 
L 385.560044 294.536194 
L 386.156162 294.616152 
L 386.74439 294.766556 
L 387.324936 294.682798 
L 387.897997 294.464037 
L 388.463764 294.540682 
L 389.02242 294.636839 
L 389.574142 294.431294 
L 390.1191 294.63354 
L 390.657457 294.657524 
L 391.189372 294.734821 
L 391.714997 294.417904 
L 392.234479 294.406958 
L 392.74796 294.520346 
L 393.255576 294.570026 
L 393.757462 294.461487 
L 394.253743 294.49546 
L 394.744545 294.47109 
L 395.229986 294.492461 
L 395.710184 294.506452 
L 396.185249 294.493817 
L 396.65529 294.504566 
L 397.120413 294.492747 
L 397.580719 294.449763 
L 398.036307 294.468073 
L 398.487273 294.397392 
" clip-path="url(#pb22838cea4)" style="fill: none; stroke: #ff7f0e; stroke-opacity: 0.2; stroke-width: 1.5; stroke-linecap: square"/>
   </g>
   <g id="line2d_94">
    <path d="M 73.832727 280.697627 
L 197.073808 283.582861 
L 226.472854 284.032152 
L 244.015163 284.032152 
L 256.560347 284.255676 
L 266.333062 284.678696 
L 274.339638 285.216335 
L 281.121774 285.801917 
L 287.004773 285.83348 
L 292.199372 285.83348 
L 296.849933 285.83348 
L 301.059684 286.330641 
L 304.905005 286.78133 
L 308.443995 287.378653 
L 311.721879 287.378653 
L 314.774554 287.46337 
L 317.630985 288.503365 
L 320.314888 288.503365 
L 322.845923 288.62378 
L 325.240567 290.414097 
L 327.512774 291.241117 
L 329.674455 291.241117 
L 331.735868 291.590426 
L 333.705902 291.739523 
L 335.592316 291.739523 
L 337.401921 291.739523 
L 339.140727 291.739523 
L 340.814068 291.739523 
L 342.426693 292.560085 
L 343.982855 292.560085 
L 345.486375 293.760206 
L 346.940697 293.760206 
L 348.34894 293.887474 
L 349.713934 293.887474 
L 351.038258 293.887474 
L 352.324263 293.985478 
L 353.574106 294.509416 
L 354.789765 294.764591 
L 355.97306 294.764591 
L 357.12567 294.764591 
L 358.249146 295.054983 
L 359.344924 295.054983 
L 360.414338 295.088969 
L 361.458626 295.088969 
L 362.478942 295.125733 
L 363.476362 295.125733 
L 364.451891 295.488 
L 365.40647 295.488 
L 366.340978 295.488 
L 367.256244 295.488 
L 368.153043 295.488 
L 369.032105 295.488 
L 369.89412 295.488 
L 370.739735 295.488 
L 371.569563 295.488 
L 372.384182 295.488 
L 373.184141 295.488 
L 373.969957 295.488 
L 374.742121 295.488 
L 375.501101 295.488 
L 376.247338 295.488 
L 376.981254 295.488 
L 377.703249 295.488 
L 378.413703 295.488 
L 379.112981 295.488 
L 379.801427 295.488 
L 380.479374 295.488 
L 381.147135 295.488 
L 381.805013 295.488 
L 382.453297 295.488 
L 383.09226 295.488 
L 383.722169 295.488 
L 384.343276 295.488 
L 384.955824 295.488 
L 385.560044 295.488 
L 386.156162 295.488 
L 386.74439 295.488 
L 387.324936 295.488 
L 387.897997 295.488 
L 388.463764 295.488 
L 389.02242 295.488 
L 389.574142 295.488 
L 390.1191 295.488 
L 390.657457 295.488 
L 391.189372 295.488 
L 391.714997 295.488 
L 392.234479 295.488 
L 392.74796 295.488 
L 393.255576 295.488 
L 393.757462 295.488 
L 394.253743 295.488 
L 394.744545 295.488 
L 395.229986 295.488 
L 395.710184 295.488 
L 396.185249 295.488 
L 396.65529 295.488 
L 397.120413 295.488 
L 397.580719 295.488 
L 398.036307 295.488 
L 398.487273 295.488 
" clip-path="url(#pb22838cea4)" style="fill: none; stroke: #ff7f0e; stroke-opacity: 0.9; stroke-linecap: square"/>
   </g>
   <g id="patch_3">
    <path d="M 57.6 307.584 
L 57.6 41.472 
" style="fill: none; stroke: #000000; stroke-width: 0.8; stroke-linejoin: miter; stroke-linecap: square"/>
   </g>
   <g id="patch_4">
    <path d="M 414.72 307.584 
L 414.72 41.472 
" style="fill: none; stroke: #000000; stroke-width: 0.8; stroke-linejoin: miter; stroke-linecap: square"/>
   </g>
   <g id="patch_5">
    <path d="M 57.6 307.584 
L 414.72 307.584 
" style="fill: none; stroke: #000000; stroke-width: 0.8; stroke-linejoin: miter; stroke-linecap: square"/>
   </g>
   <g id="patch_6">
    <path d="M 57.6 41.472 
L 414.72 41.472 
" style="fill: none; stroke: #000000; stroke-width: 0.8; stroke-linejoin: miter; stroke-linecap: square"/>
   </g>
   <g id="text_13">
    <!-- 2025-03-24-08:13:58 -->
    <g transform="translate(172.178438 35.472) scale(0.12 -0.12)">
     <defs>
      <path id="DejaVuSans-35" d="M 691 4666 
L 3169 4666 
L 3169 4134 
L 1269 4134 
L 1269 2991 
Q 1406 3038 1543 3061 
Q 1681 3084 1819 3084 
Q 2600 3084 3056 2656 
Q 3513 2228 3513 1497 
Q 3513 744 3044 326 
Q 2575 -91 1722 -91 
Q 1428 -91 1123 -41 
Q 819 9 494 109 
L 494 744 
Q 775 591 1075 516 
Q 1375 441 1709 441 
Q 2250 441 2565 725 
Q 2881 1009 2881 1497 
Q 2881 1984 2565 2268 
Q 2250 2553 1709 2553 
Q 1456 2553 1204 2497 
Q 953 2441 691 2322 
L 691 4666 
z
" transform="scale(0.015625)"/>
      <path id="DejaVuSans-2d" d="M 313 2009 
L 1997 2009 
L 1997 1497 
L 313 1497 
L 313 2009 
z
" transform="scale(0.015625)"/>
      <path id="DejaVuSans-34" d="M 2419 4116 
L 825 1625 
L 2419 1625 
L 2419 4116 
z
M 2253 4666 
L 3047 4666 
L 3047 1625 
L 3713 1625 
L 3713 1100 
L 3047 1100 
L 3047 0 
L 2419 0 
L 2419 1100 
L 313 1100 
L 313 1709 
L 2253 4666 
z
" transform="scale(0.015625)"/>
      <path id="DejaVuSans-38" d="M 2034 2216 
Q 1584 2216 1326 1975 
Q 1069 1734 1069 1313 
Q 1069 891 1326 650 
Q 1584 409 2034 409 
Q 2484 409 2743 651 
Q 3003 894 3003 1313 
Q 3003 1734 2745 1975 
Q 2488 2216 2034 2216 
z
M 1403 2484 
Q 997 2584 770 2862 
Q 544 3141 544 3541 
Q 544 4100 942 4425 
Q 1341 4750 2034 4750 
Q 2731 4750 3128 4425 
Q 3525 4100 3525 3541 
Q 3525 3141 3298 2862 
Q 3072 2584 2669 2484 
Q 3125 2378 3379 2068 
Q 3634 1759 3634 1313 
Q 3634 634 3220 271 
Q 2806 -91 2034 -91 
Q 1263 -91 848 271 
Q 434 634 434 1313 
Q 434 1759 690 2068 
Q 947 2378 1403 2484 
z
M 1172 3481 
Q 1172 3119 1398 2916 
Q 1625 2713 2034 2713 
Q 2441 2713 2670 2916 
Q 2900 3119 2900 3481 
Q 2900 3844 2670 4047 
Q 2441 4250 2034 4250 
Q 1625 4250 1398 4047 
Q 1172 3844 1172 3481 
z
" transform="scale(0.015625)"/>
      <path id="DejaVuSans-3a" d="M 750 794 
L 1409 794 
L 1409 0 
L 750 0 
L 750 794 
z
M 750 3309 
L 1409 3309 
L 1409 2516 
L 750 2516 
L 750 3309 
z
" transform="scale(0.015625)"/>
     </defs>
     <use xlink:href="#DejaVuSans-32"/>
     <use xlink:href="#DejaVuSans-30" x="63.623047"/>
     <use xlink:href="#DejaVuSans-32" x="127.246094"/>
     <use xlink:href="#DejaVuSans-35" x="190.869141"/>
     <use xlink:href="#DejaVuSans-2d" x="254.492188"/>
     <use xlink:href="#DejaVuSans-30" x="290.576172"/>
     <use xlink:href="#DejaVuSans-33" x="354.199219"/>
     <use xlink:href="#DejaVuSans-2d" x="417.822266"/>
     <use xlink:href="#DejaVuSans-32" x="453.90625"/>
     <use xlink:href="#DejaVuSans-34" x="517.529297"/>
     <use xlink:href="#DejaVuSans-2d" x="581.152344"/>
     <use xlink:href="#DejaVuSans-30" x="617.236328"/>
     <use xlink:href="#DejaVuSans-38" x="680.859375"/>
     <use xlink:href="#DejaVuSans-3a" x="744.482422"/>
     <use xlink:href="#DejaVuSans-31" x="778.173828"/>
     <use xlink:href="#DejaVuSans-33" x="841.796875"/>
     <use xlink:href="#DejaVuSans-3a" x="905.419922"/>
     <use xlink:href="#DejaVuSans-35" x="939.111328"/>
     <use xlink:href="#DejaVuSans-38" x="1002.734375"/>
    </g>
   </g>
   <g id="legend_1">
    <g id="patch_7">
     <path d="M 291.509063 108.74075 
L 407.72 108.74075 
Q 409.72 108.74075 409.72 106.74075 
L 409.72 48.472 
Q 409.72 46.472 407.72 46.472 
L 291.509063 46.472 
Q 289.509063 46.472 289.509063 48.472 
L 289.509063 106.74075 
Q 289.509063 108.74075 291.509063 108.74075 
z
" style="fill: #ffffff; opacity: 0.8; stroke: #cccccc; stroke-linejoin: miter"/>
    </g>
    <g id="line2d_95">
     <path d="M 293.509063 54.570438 
L 303.509063 54.570438 
L 313.509063 54.570438 
" style="fill: none; stroke-dasharray: 5.55,2.4; stroke-dashoffset: 0; stroke: #1f77b4; stroke-opacity: 0.4; stroke-width: 1.5"/>
    </g>
    <g id="text_14">
     <!-- SchNet MEA -->
     <g transform="translate(321.509063 58.070438) scale(0.1 -0.1)">
      <defs>
       <path id="DejaVuSans-53" d="M 3425 4513 
L 3425 3897 
Q 3066 4069 2747 4153 
Q 2428 4238 2131 4238 
Q 1616 4238 1336 4038 
Q 1056 3838 1056 3469 
Q 1056 3159 1242 3001 
Q 1428 2844 1947 2747 
L 2328 2669 
Q 3034 2534 3370 2195 
Q 3706 1856 3706 1288 
Q 3706 609 3251 259 
Q 2797 -91 1919 -91 
Q 1588 -91 1214 -16 
Q 841 59 441 206 
L 441 856 
Q 825 641 1194 531 
Q 1563 422 1919 422 
Q 2459 422 2753 634 
Q 3047 847 3047 1241 
Q 3047 1584 2836 1778 
Q 2625 1972 2144 2069 
L 1759 2144 
Q 1053 2284 737 2584 
Q 422 2884 422 3419 
Q 422 4038 858 4394 
Q 1294 4750 2059 4750 
Q 2388 4750 2728 4690 
Q 3069 4631 3425 4513 
z
" transform="scale(0.015625)"/>
       <path id="DejaVuSans-63" d="M 3122 3366 
L 3122 2828 
Q 2878 2963 2633 3030 
Q 2388 3097 2138 3097 
Q 1578 3097 1268 2742 
Q 959 2388 959 1747 
Q 959 1106 1268 751 
Q 1578 397 2138 397 
Q 2388 397 2633 464 
Q 2878 531 3122 666 
L 3122 134 
Q 2881 22 2623 -34 
Q 2366 -91 2075 -91 
Q 1284 -91 818 406 
Q 353 903 353 1747 
Q 353 2603 823 3093 
Q 1294 3584 2113 3584 
Q 2378 3584 2631 3529 
Q 2884 3475 3122 3366 
z
" transform="scale(0.015625)"/>
       <path id="DejaVuSans-68" d="M 3513 2113 
L 3513 0 
L 2938 0 
L 2938 2094 
Q 2938 2591 2744 2837 
Q 2550 3084 2163 3084 
Q 1697 3084 1428 2787 
Q 1159 2491 1159 1978 
L 1159 0 
L 581 0 
L 581 4863 
L 1159 4863 
L 1159 2956 
Q 1366 3272 1645 3428 
Q 1925 3584 2291 3584 
Q 2894 3584 3203 3211 
Q 3513 2838 3513 2113 
z
" transform="scale(0.015625)"/>
       <path id="DejaVuSans-4e" d="M 628 4666 
L 1478 4666 
L 3547 763 
L 3547 4666 
L 4159 4666 
L 4159 0 
L 3309 0 
L 1241 3903 
L 1241 0 
L 628 0 
L 628 4666 
z
" transform="scale(0.015625)"/>
       <path id="DejaVuSans-20" transform="scale(0.015625)"/>
       <path id="DejaVuSans-4d" d="M 628 4666 
L 1569 4666 
L 2759 1491 
L 3956 4666 
L 4897 4666 
L 4897 0 
L 4281 0 
L 4281 4097 
L 3078 897 
L 2444 897 
L 1241 4097 
L 1241 0 
L 628 0 
L 628 4666 
z
" transform="scale(0.015625)"/>
       <path id="DejaVuSans-45" d="M 628 4666 
L 3578 4666 
L 3578 4134 
L 1259 4134 
L 1259 2753 
L 3481 2753 
L 3481 2222 
L 1259 2222 
L 1259 531 
L 3634 531 
L 3634 0 
L 628 0 
L 628 4666 
z
" transform="scale(0.015625)"/>
       <path id="DejaVuSans-41" d="M 2188 4044 
L 1331 1722 
L 3047 1722 
L 2188 4044 
z
M 1831 4666 
L 2547 4666 
L 4325 0 
L 3669 0 
L 3244 1197 
L 1141 1197 
L 716 0 
L 50 0 
L 1831 4666 
z
" transform="scale(0.015625)"/>
      </defs>
      <use xlink:href="#DejaVuSans-53"/>
      <use xlink:href="#DejaVuSans-63" x="63.476562"/>
      <use xlink:href="#DejaVuSans-68" x="118.457031"/>
      <use xlink:href="#DejaVuSans-4e" x="181.835938"/>
      <use xlink:href="#DejaVuSans-65" x="256.640625"/>
      <use xlink:href="#DejaVuSans-74" x="318.164062"/>
      <use xlink:href="#DejaVuSans-20" x="357.373047"/>
      <use xlink:href="#DejaVuSans-4d" x="389.160156"/>
      <use xlink:href="#DejaVuSans-45" x="475.439453"/>
      <use xlink:href="#DejaVuSans-41" x="538.623047"/>
     </g>
    </g>
    <g id="line2d_96">
     <path d="M 293.509063 69.248563 
L 303.509063 69.248563 
L 313.509063 69.248563 
" style="fill: none; stroke: #1f77b4; stroke-opacity: 0.9; stroke-linecap: square"/>
    </g>
    <g id="text_15">
     <!-- SchNet eval_loss -->
     <g transform="translate(321.509063 72.748563) scale(0.1 -0.1)">
      <defs>
       <path id="DejaVuSans-76" d="M 191 3500 
L 800 3500 
L 1894 563 
L 2988 3500 
L 3597 3500 
L 2284 0 
L 1503 0 
L 191 3500 
z
" transform="scale(0.015625)"/>
       <path id="DejaVuSans-61" d="M 2194 1759 
Q 1497 1759 1228 1600 
Q 959 1441 959 1056 
Q 959 750 1161 570 
Q 1363 391 1709 391 
Q 2188 391 2477 730 
Q 2766 1069 2766 1631 
L 2766 1759 
L 2194 1759 
z
M 3341 1997 
L 3341 0 
L 2766 0 
L 2766 531 
Q 2569 213 2275 61 
Q 1981 -91 1556 -91 
Q 1019 -91 701 211 
Q 384 513 384 1019 
Q 384 1609 779 1909 
Q 1175 2209 1959 2209 
L 2766 2209 
L 2766 2266 
Q 2766 2663 2505 2880 
Q 2244 3097 1772 3097 
Q 1472 3097 1187 3025 
Q 903 2953 641 2809 
L 641 3341 
Q 956 3463 1253 3523 
Q 1550 3584 1831 3584 
Q 2591 3584 2966 3190 
Q 3341 2797 3341 1997 
z
" transform="scale(0.015625)"/>
       <path id="DejaVuSans-5f" d="M 3263 -1063 
L 3263 -1509 
L -63 -1509 
L -63 -1063 
L 3263 -1063 
z
" transform="scale(0.015625)"/>
      </defs>
      <use xlink:href="#DejaVuSans-53"/>
      <use xlink:href="#DejaVuSans-63" x="63.476562"/>
      <use xlink:href="#DejaVuSans-68" x="118.457031"/>
      <use xlink:href="#DejaVuSans-4e" x="181.835938"/>
      <use xlink:href="#DejaVuSans-65" x="256.640625"/>
      <use xlink:href="#DejaVuSans-74" x="318.164062"/>
      <use xlink:href="#DejaVuSans-20" x="357.373047"/>
      <use xlink:href="#DejaVuSans-65" x="389.160156"/>
      <use xlink:href="#DejaVuSans-76" x="450.683594"/>
      <use xlink:href="#DejaVuSans-61" x="509.863281"/>
      <use xlink:href="#DejaVuSans-6c" x="571.142578"/>
      <use xlink:href="#DejaVuSans-5f" x="598.925781"/>
      <use xlink:href="#DejaVuSans-6c" x="648.925781"/>
      <use xlink:href="#DejaVuSans-6f" x="676.708984"/>
      <use xlink:href="#DejaVuSans-73" x="737.890625"/>
      <use xlink:href="#DejaVuSans-73" x="789.990234"/>
     </g>
    </g>
    <g id="line2d_97">
     <path d="M 293.509063 84.204813 
L 303.509063 84.204813 
L 313.509063 84.204813 
" style="fill: none; stroke-dasharray: 5.55,2.4; stroke-dashoffset: 0; stroke: #ff7f0e; stroke-opacity: 0.4; stroke-width: 1.5"/>
    </g>
    <g id="text_16">
     <!-- M307B MEA -->
     <g transform="translate(321.509063 87.704813) scale(0.1 -0.1)">
      <defs>
       <path id="DejaVuSans-37" d="M 525 4666 
L 3525 4666 
L 3525 4397 
L 1831 0 
L 1172 0 
L 2766 4134 
L 525 4134 
L 525 4666 
z
" transform="scale(0.015625)"/>
       <path id="DejaVuSans-42" d="M 1259 2228 
L 1259 519 
L 2272 519 
Q 2781 519 3026 730 
Q 3272 941 3272 1375 
Q 3272 1813 3026 2020 
Q 2781 2228 2272 2228 
L 1259 2228 
z
M 1259 4147 
L 1259 2741 
L 2194 2741 
Q 2656 2741 2882 2914 
Q 3109 3088 3109 3444 
Q 3109 3797 2882 3972 
Q 2656 4147 2194 4147 
L 1259 4147 
z
M 628 4666 
L 2241 4666 
Q 2963 4666 3353 4366 
Q 3744 4066 3744 3513 
Q 3744 3084 3544 2831 
Q 3344 2578 2956 2516 
Q 3422 2416 3680 2098 
Q 3938 1781 3938 1306 
Q 3938 681 3513 340 
Q 3088 0 2303 0 
L 628 0 
L 628 4666 
z
" transform="scale(0.015625)"/>
      </defs>
      <use xlink:href="#DejaVuSans-4d"/>
      <use xlink:href="#DejaVuSans-33" x="86.279297"/>
      <use xlink:href="#DejaVuSans-30" x="149.902344"/>
      <use xlink:href="#DejaVuSans-37" x="213.525391"/>
      <use xlink:href="#DejaVuSans-42" x="277.148438"/>
      <use xlink:href="#DejaVuSans-20" x="345.751953"/>
      <use xlink:href="#DejaVuSans-4d" x="377.539062"/>
      <use xlink:href="#DejaVuSans-45" x="463.818359"/>
      <use xlink:href="#DejaVuSans-41" x="527.001953"/>
     </g>
    </g>
    <g id="line2d_98">
     <path d="M 293.509063 98.882938 
L 303.509063 98.882938 
L 313.509063 98.882938 
" style="fill: none; stroke: #ff7f0e; stroke-opacity: 0.9; stroke-linecap: square"/>
    </g>
    <g id="text_17">
     <!-- M307B eval_loss -->
     <g transform="translate(321.509063 102.382938) scale(0.1 -0.1)">
      <use xlink:href="#DejaVuSans-4d"/>
      <use xlink:href="#DejaVuSans-33" x="86.279297"/>
      <use xlink:href="#DejaVuSans-30" x="149.902344"/>
      <use xlink:href="#DejaVuSans-37" x="213.525391"/>
      <use xlink:href="#DejaVuSans-42" x="277.148438"/>
      <use xlink:href="#DejaVuSans-20" x="345.751953"/>
      <use xlink:href="#DejaVuSans-65" x="377.539062"/>
      <use xlink:href="#DejaVuSans-76" x="439.0625"/>
      <use xlink:href="#DejaVuSans-61" x="498.242188"/>
      <use xlink:href="#DejaVuSans-6c" x="559.521484"/>
      <use xlink:href="#DejaVuSans-5f" x="587.304688"/>
      <use xlink:href="#DejaVuSans-6c" x="637.304688"/>
      <use xlink:href="#DejaVuSans-6f" x="665.087891"/>
      <use xlink:href="#DejaVuSans-73" x="726.269531"/>
      <use xlink:href="#DejaVuSans-73" x="778.369141"/>
     </g>
    </g>
   </g>
  </g>
 </g>
 <defs>
  <clipPath id="pb22838cea4">
   <rect x="57.6" y="41.472" width="357.12" height="266.112"/>
  </clipPath>
 </defs>
</svg>
