<?xml version="1.0" encoding="utf-8" standalone="no"?>
<!DOCTYPE svg PUBLIC "-//W3C//DTD SVG 1.1//EN"
  "http://www.w3.org/Graphics/SVG/1.1/DTD/svg11.dtd">
<svg xmlns:xlink="http://www.w3.org/1999/xlink" width="460.8pt" height="345.6pt" viewBox="0 0 460.8 345.6" xmlns="http://www.w3.org/2000/svg" version="1.1">
 <metadata>
  <rdf:RDF xmlns:dc="http://purl.org/dc/elements/1.1/" xmlns:cc="http://creativecommons.org/ns#" xmlns:rdf="http://www.w3.org/1999/02/22-rdf-syntax-ns#">
   <cc:Work>
    <dc:type rdf:resource="http://purl.org/dc/dcmitype/StillImage"/>
    <dc:date>2025-02-18T20:10:38.452089</dc:date>
    <dc:format>image/svg+xml</dc:format>
    <dc:creator>
     <cc:Agent>
      <dc:title>Matplotlib v3.8.4, https://matplotlib.org/</dc:title>
     </cc:Agent>
    </dc:creator>
   </cc:Work>
  </rdf:RDF>
 </metadata>
 <defs>
  <style type="text/css">*{stroke-linejoin: round; stroke-linecap: butt}</style>
 </defs>
 <g id="figure_1">
  <g id="patch_1">
   <path d="M 0 345.6 
L 460.8 345.6 
L 460.8 0 
L 0 0 
z
" style="fill: #ffffff"/>
  </g>
  <g id="axes_1">
   <g id="patch_2">
    <path d="M 57.6 307.584 
L 414.72 307.584 
L 414.72 41.472 
L 57.6 41.472 
z
" style="fill: #ffffff"/>
   </g>
   <g id="matplotlib.axis_1">
    <g id="xtick_1">
     <g id="line2d_1">
      <defs>
       <path id="md3032fbb5e" d="M 0 0 
L 0 3.5 
" style="stroke: #000000; stroke-width: 0.8"/>
      </defs>
      <g>
       <use xlink:href="#md3032fbb5e" x="57.6" y="307.584" style="stroke: #000000; stroke-width: 0.8"/>
      </g>
     </g>
     <g id="text_1">
      <!-- $\mathdefault{10^{3}}$ -->
      <g transform="translate(48.8 322.182437) scale(0.1 -0.1)">
       <defs>
        <path id="DejaVuSans-31" d="M 794 531 
L 1825 531 
L 1825 4091 
L 703 3866 
L 703 4441 
L 1819 4666 
L 2450 4666 
L 2450 531 
L 3481 531 
L 3481 0 
L 794 0 
L 794 531 
z
" transform="scale(0.015625)"/>
        <path id="DejaVuSans-30" d="M 2034 4250 
Q 1547 4250 1301 3770 
Q 1056 3291 1056 2328 
Q 1056 1369 1301 889 
Q 1547 409 2034 409 
Q 2525 409 2770 889 
Q 3016 1369 3016 2328 
Q 3016 3291 2770 3770 
Q 2525 4250 2034 4250 
z
M 2034 4750 
Q 2819 4750 3233 4129 
Q 3647 3509 3647 2328 
Q 3647 1150 3233 529 
Q 2819 -91 2034 -91 
Q 1250 -91 836 529 
Q 422 1150 422 2328 
Q 422 3509 836 4129 
Q 1250 4750 2034 4750 
z
" transform="scale(0.015625)"/>
        <path id="DejaVuSans-33" d="M 2597 2516 
Q 3050 2419 3304 2112 
Q 3559 1806 3559 1356 
Q 3559 666 3084 287 
Q 2609 -91 1734 -91 
Q 1441 -91 1130 -33 
Q 819 25 488 141 
L 488 750 
Q 750 597 1062 519 
Q 1375 441 1716 441 
Q 2309 441 2620 675 
Q 2931 909 2931 1356 
Q 2931 1769 2642 2001 
Q 2353 2234 1838 2234 
L 1294 2234 
L 1294 2753 
L 1863 2753 
Q 2328 2753 2575 2939 
Q 2822 3125 2822 3475 
Q 2822 3834 2567 4026 
Q 2313 4219 1838 4219 
Q 1578 4219 1281 4162 
Q 984 4106 628 3988 
L 628 4550 
Q 988 4650 1302 4700 
Q 1616 4750 1894 4750 
Q 2613 4750 3031 4423 
Q 3450 4097 3450 3541 
Q 3450 3153 3228 2886 
Q 3006 2619 2597 2516 
z
" transform="scale(0.015625)"/>
       </defs>
       <use xlink:href="#DejaVuSans-31" transform="translate(0 0.765625)"/>
       <use xlink:href="#DejaVuSans-30" transform="translate(63.623047 0.765625)"/>
       <use xlink:href="#DejaVuSans-33" transform="translate(128.203125 39.046875) scale(0.7)"/>
      </g>
     </g>
    </g>
    <g id="xtick_2">
     <g id="line2d_2">
      <g>
       <use xlink:href="#md3032fbb5e" x="332.090213" y="307.584" style="stroke: #000000; stroke-width: 0.8"/>
      </g>
     </g>
     <g id="text_2">
      <!-- $\mathdefault{10^{4}}$ -->
      <g transform="translate(323.290213 322.182437) scale(0.1 -0.1)">
       <defs>
        <path id="DejaVuSans-34" d="M 2419 4116 
L 825 1625 
L 2419 1625 
L 2419 4116 
z
M 2253 4666 
L 3047 4666 
L 3047 1625 
L 3713 1625 
L 3713 1100 
L 3047 1100 
L 3047 0 
L 2419 0 
L 2419 1100 
L 313 1100 
L 313 1709 
L 2253 4666 
z
" transform="scale(0.015625)"/>
       </defs>
       <use xlink:href="#DejaVuSans-31" transform="translate(0 0.684375)"/>
       <use xlink:href="#DejaVuSans-30" transform="translate(63.623047 0.684375)"/>
       <use xlink:href="#DejaVuSans-34" transform="translate(128.203125 38.965625) scale(0.7)"/>
      </g>
     </g>
    </g>
    <g id="xtick_3">
     <g id="line2d_3">
      <defs>
       <path id="mbdd419c3df" d="M 0 0 
L 0 2 
" style="stroke: #000000; stroke-width: 0.6"/>
      </defs>
      <g>
       <use xlink:href="#mbdd419c3df" x="140.229787" y="307.584" style="stroke: #000000; stroke-width: 0.6"/>
      </g>
     </g>
    </g>
    <g id="xtick_4">
     <g id="line2d_4">
      <g>
       <use xlink:href="#mbdd419c3df" x="188.565115" y="307.584" style="stroke: #000000; stroke-width: 0.6"/>
      </g>
     </g>
    </g>
    <g id="xtick_5">
     <g id="line2d_5">
      <g>
       <use xlink:href="#mbdd419c3df" x="222.859575" y="307.584" style="stroke: #000000; stroke-width: 0.6"/>
      </g>
     </g>
    </g>
    <g id="xtick_6">
     <g id="line2d_6">
      <g>
       <use xlink:href="#mbdd419c3df" x="249.460425" y="307.584" style="stroke: #000000; stroke-width: 0.6"/>
      </g>
     </g>
    </g>
    <g id="xtick_7">
     <g id="line2d_7">
      <g>
       <use xlink:href="#mbdd419c3df" x="271.194902" y="307.584" style="stroke: #000000; stroke-width: 0.6"/>
      </g>
     </g>
    </g>
    <g id="xtick_8">
     <g id="line2d_8">
      <g>
       <use xlink:href="#mbdd419c3df" x="289.571141" y="307.584" style="stroke: #000000; stroke-width: 0.6"/>
      </g>
     </g>
    </g>
    <g id="xtick_9">
     <g id="line2d_9">
      <g>
       <use xlink:href="#mbdd419c3df" x="305.489362" y="307.584" style="stroke: #000000; stroke-width: 0.6"/>
      </g>
     </g>
    </g>
    <g id="xtick_10">
     <g id="line2d_10">
      <g>
       <use xlink:href="#mbdd419c3df" x="319.530229" y="307.584" style="stroke: #000000; stroke-width: 0.6"/>
      </g>
     </g>
    </g>
    <g id="xtick_11">
     <g id="line2d_11">
      <g>
       <use xlink:href="#mbdd419c3df" x="414.72" y="307.584" style="stroke: #000000; stroke-width: 0.6"/>
      </g>
     </g>
    </g>
    <g id="text_3">
     <!-- iter# -->
     <g transform="translate(223.488906 335.860562) scale(0.1 -0.1)">
      <defs>
       <path id="DejaVuSans-69" d="M 603 3500 
L 1178 3500 
L 1178 0 
L 603 0 
L 603 3500 
z
M 603 4863 
L 1178 4863 
L 1178 4134 
L 603 4134 
L 603 4863 
z
" transform="scale(0.015625)"/>
       <path id="DejaVuSans-74" d="M 1172 4494 
L 1172 3500 
L 2356 3500 
L 2356 3053 
L 1172 3053 
L 1172 1153 
Q 1172 725 1289 603 
Q 1406 481 1766 481 
L 2356 481 
L 2356 0 
L 1766 0 
Q 1100 0 847 248 
Q 594 497 594 1153 
L 594 3053 
L 172 3053 
L 172 3500 
L 594 3500 
L 594 4494 
L 1172 4494 
z
" transform="scale(0.015625)"/>
       <path id="DejaVuSans-65" d="M 3597 1894 
L 3597 1613 
L 953 1613 
Q 991 1019 1311 708 
Q 1631 397 2203 397 
Q 2534 397 2845 478 
Q 3156 559 3463 722 
L 3463 178 
Q 3153 47 2828 -22 
Q 2503 -91 2169 -91 
Q 1331 -91 842 396 
Q 353 884 353 1716 
Q 353 2575 817 3079 
Q 1281 3584 2069 3584 
Q 2775 3584 3186 3129 
Q 3597 2675 3597 1894 
z
M 3022 2063 
Q 3016 2534 2758 2815 
Q 2500 3097 2075 3097 
Q 1594 3097 1305 2825 
Q 1016 2553 972 2059 
L 3022 2063 
z
" transform="scale(0.015625)"/>
       <path id="DejaVuSans-72" d="M 2631 2963 
Q 2534 3019 2420 3045 
Q 2306 3072 2169 3072 
Q 1681 3072 1420 2755 
Q 1159 2438 1159 1844 
L 1159 0 
L 581 0 
L 581 3500 
L 1159 3500 
L 1159 2956 
Q 1341 3275 1631 3429 
Q 1922 3584 2338 3584 
Q 2397 3584 2469 3576 
Q 2541 3569 2628 3553 
L 2631 2963 
z
" transform="scale(0.015625)"/>
       <path id="DejaVuSans-23" d="M 3272 2816 
L 2363 2816 
L 2100 1772 
L 3016 1772 
L 3272 2816 
z
M 2803 4594 
L 2478 3297 
L 3391 3297 
L 3719 4594 
L 4219 4594 
L 3897 3297 
L 4872 3297 
L 4872 2816 
L 3775 2816 
L 3519 1772 
L 4513 1772 
L 4513 1294 
L 3397 1294 
L 3072 0 
L 2572 0 
L 2894 1294 
L 1978 1294 
L 1656 0 
L 1153 0 
L 1478 1294 
L 494 1294 
L 494 1772 
L 1594 1772 
L 1856 2816 
L 850 2816 
L 850 3297 
L 1978 3297 
L 2297 4594 
L 2803 4594 
z
" transform="scale(0.015625)"/>
      </defs>
      <use xlink:href="#DejaVuSans-69"/>
      <use xlink:href="#DejaVuSans-74" x="27.783203"/>
      <use xlink:href="#DejaVuSans-65" x="66.992188"/>
      <use xlink:href="#DejaVuSans-72" x="128.515625"/>
      <use xlink:href="#DejaVuSans-23" x="169.628906"/>
     </g>
    </g>
   </g>
   <g id="matplotlib.axis_2">
    <g id="ytick_1">
     <g id="line2d_12">
      <defs>
       <path id="m07d4e2a6cc" d="M 0 0 
L -3.5 0 
" style="stroke: #000000; stroke-width: 0.8"/>
      </defs>
      <g>
       <use xlink:href="#m07d4e2a6cc" x="57.6" y="245.254111" style="stroke: #000000; stroke-width: 0.8"/>
      </g>
     </g>
     <g id="text_4">
      <!-- $\mathdefault{10^{-2}}$ -->
      <g transform="translate(27.1 249.05333) scale(0.1 -0.1)">
       <defs>
        <path id="DejaVuSans-2212" d="M 678 2272 
L 4684 2272 
L 4684 1741 
L 678 1741 
L 678 2272 
z
" transform="scale(0.015625)"/>
        <path id="DejaVuSans-32" d="M 1228 531 
L 3431 531 
L 3431 0 
L 469 0 
L 469 531 
Q 828 903 1448 1529 
Q 2069 2156 2228 2338 
Q 2531 2678 2651 2914 
Q 2772 3150 2772 3378 
Q 2772 3750 2511 3984 
Q 2250 4219 1831 4219 
Q 1534 4219 1204 4116 
Q 875 4013 500 3803 
L 500 4441 
Q 881 4594 1212 4672 
Q 1544 4750 1819 4750 
Q 2544 4750 2975 4387 
Q 3406 4025 3406 3419 
Q 3406 3131 3298 2873 
Q 3191 2616 2906 2266 
Q 2828 2175 2409 1742 
Q 1991 1309 1228 531 
z
" transform="scale(0.015625)"/>
       </defs>
       <use xlink:href="#DejaVuSans-31" transform="translate(0 0.765625)"/>
       <use xlink:href="#DejaVuSans-30" transform="translate(63.623047 0.765625)"/>
       <use xlink:href="#DejaVuSans-2212" transform="translate(128.203125 39.046875) scale(0.7)"/>
       <use xlink:href="#DejaVuSans-32" transform="translate(186.855469 39.046875) scale(0.7)"/>
      </g>
     </g>
    </g>
    <g id="ytick_2">
     <g id="line2d_13">
      <g>
       <use xlink:href="#m07d4e2a6cc" x="57.6" y="88.622741" style="stroke: #000000; stroke-width: 0.8"/>
      </g>
     </g>
     <g id="text_5">
      <!-- $\mathdefault{10^{-1}}$ -->
      <g transform="translate(27.1 92.421959) scale(0.1 -0.1)">
       <use xlink:href="#DejaVuSans-31" transform="translate(0 0.684375)"/>
       <use xlink:href="#DejaVuSans-30" transform="translate(63.623047 0.684375)"/>
       <use xlink:href="#DejaVuSans-2212" transform="translate(128.203125 38.965625) scale(0.7)"/>
       <use xlink:href="#DejaVuSans-31" transform="translate(186.855469 38.965625) scale(0.7)"/>
      </g>
     </g>
    </g>
    <g id="ytick_3">
     <g id="line2d_14">
      <defs>
       <path id="m1977fbec27" d="M 0 0 
L -2 0 
" style="stroke: #000000; stroke-width: 0.6"/>
      </defs>
      <g>
       <use xlink:href="#m1977fbec27" x="57.6" y="307.584" style="stroke: #000000; stroke-width: 0.6"/>
      </g>
     </g>
    </g>
    <g id="ytick_4">
     <g id="line2d_15">
      <g>
       <use xlink:href="#m1977fbec27" x="57.6" y="292.404852" style="stroke: #000000; stroke-width: 0.6"/>
      </g>
     </g>
    </g>
    <g id="ytick_5">
     <g id="line2d_16">
      <g>
       <use xlink:href="#m1977fbec27" x="57.6" y="280.002585" style="stroke: #000000; stroke-width: 0.6"/>
      </g>
     </g>
    </g>
    <g id="ytick_6">
     <g id="line2d_17">
      <g>
       <use xlink:href="#m1977fbec27" x="57.6" y="269.516617" style="stroke: #000000; stroke-width: 0.6"/>
      </g>
     </g>
    </g>
    <g id="ytick_7">
     <g id="line2d_18">
      <g>
       <use xlink:href="#m1977fbec27" x="57.6" y="260.433259" style="stroke: #000000; stroke-width: 0.6"/>
      </g>
     </g>
    </g>
    <g id="ytick_8">
     <g id="line2d_19">
      <g>
       <use xlink:href="#m1977fbec27" x="57.6" y="252.42117" style="stroke: #000000; stroke-width: 0.6"/>
      </g>
     </g>
    </g>
    <g id="ytick_9">
     <g id="line2d_20">
      <g>
       <use xlink:href="#m1977fbec27" x="57.6" y="198.10337" style="stroke: #000000; stroke-width: 0.6"/>
      </g>
     </g>
    </g>
    <g id="ytick_10">
     <g id="line2d_21">
      <g>
       <use xlink:href="#m1977fbec27" x="57.6" y="170.521955" style="stroke: #000000; stroke-width: 0.6"/>
      </g>
     </g>
    </g>
    <g id="ytick_11">
     <g id="line2d_22">
      <g>
       <use xlink:href="#m1977fbec27" x="57.6" y="150.95263" style="stroke: #000000; stroke-width: 0.6"/>
      </g>
     </g>
    </g>
    <g id="ytick_12">
     <g id="line2d_23">
      <g>
       <use xlink:href="#m1977fbec27" x="57.6" y="135.773481" style="stroke: #000000; stroke-width: 0.6"/>
      </g>
     </g>
    </g>
    <g id="ytick_13">
     <g id="line2d_24">
      <g>
       <use xlink:href="#m1977fbec27" x="57.6" y="123.371214" style="stroke: #000000; stroke-width: 0.6"/>
      </g>
     </g>
    </g>
    <g id="ytick_14">
     <g id="line2d_25">
      <g>
       <use xlink:href="#m1977fbec27" x="57.6" y="112.885247" style="stroke: #000000; stroke-width: 0.6"/>
      </g>
     </g>
    </g>
    <g id="ytick_15">
     <g id="line2d_26">
      <g>
       <use xlink:href="#m1977fbec27" x="57.6" y="103.801889" style="stroke: #000000; stroke-width: 0.6"/>
      </g>
     </g>
    </g>
    <g id="ytick_16">
     <g id="line2d_27">
      <g>
       <use xlink:href="#m1977fbec27" x="57.6" y="95.789799" style="stroke: #000000; stroke-width: 0.6"/>
      </g>
     </g>
    </g>
    <g id="ytick_17">
     <g id="line2d_28">
      <g>
       <use xlink:href="#m1977fbec27" x="57.6" y="41.472" style="stroke: #000000; stroke-width: 0.6"/>
      </g>
     </g>
    </g>
    <g id="text_6">
     <!-- loss -->
     <g transform="translate(21.020313 184.185812) rotate(-90) scale(0.1 -0.1)">
      <defs>
       <path id="DejaVuSans-6c" d="M 603 4863 
L 1178 4863 
L 1178 0 
L 603 0 
L 603 4863 
z
" transform="scale(0.015625)"/>
       <path id="DejaVuSans-6f" d="M 1959 3097 
Q 1497 3097 1228 2736 
Q 959 2375 959 1747 
Q 959 1119 1226 758 
Q 1494 397 1959 397 
Q 2419 397 2687 759 
Q 2956 1122 2956 1747 
Q 2956 2369 2687 2733 
Q 2419 3097 1959 3097 
z
M 1959 3584 
Q 2709 3584 3137 3096 
Q 3566 2609 3566 1747 
Q 3566 888 3137 398 
Q 2709 -91 1959 -91 
Q 1206 -91 779 398 
Q 353 888 353 1747 
Q 353 2609 779 3096 
Q 1206 3584 1959 3584 
z
" transform="scale(0.015625)"/>
       <path id="DejaVuSans-73" d="M 2834 3397 
L 2834 2853 
Q 2591 2978 2328 3040 
Q 2066 3103 1784 3103 
Q 1356 3103 1142 2972 
Q 928 2841 928 2578 
Q 928 2378 1081 2264 
Q 1234 2150 1697 2047 
L 1894 2003 
Q 2506 1872 2764 1633 
Q 3022 1394 3022 966 
Q 3022 478 2636 193 
Q 2250 -91 1575 -91 
Q 1294 -91 989 -36 
Q 684 19 347 128 
L 347 722 
Q 666 556 975 473 
Q 1284 391 1588 391 
Q 1994 391 2212 530 
Q 2431 669 2431 922 
Q 2431 1156 2273 1281 
Q 2116 1406 1581 1522 
L 1381 1569 
Q 847 1681 609 1914 
Q 372 2147 372 2553 
Q 372 3047 722 3315 
Q 1072 3584 1716 3584 
Q 2034 3584 2315 3537 
Q 2597 3491 2834 3397 
z
" transform="scale(0.015625)"/>
      </defs>
      <use xlink:href="#DejaVuSans-6c"/>
      <use xlink:href="#DejaVuSans-6f" x="27.783203"/>
      <use xlink:href="#DejaVuSans-73" x="88.964844"/>
      <use xlink:href="#DejaVuSans-73" x="141.064453"/>
     </g>
    </g>
   </g>
   <g id="line2d_29">
    <path d="M -1 100.738271 
L 4.584419 102.96935 
L 15.929398 110.561336 
L 26.287897 106.136103 
L 35.81783 113.289213 
L 44.641988 125.936482 
L 52.857739 142.056648 
L 60.543596 149.231169 
L 67.763791 157.800149 
L 74.57154 160.366605 
L 81.011429 146.559115 
L 87.121183 153.0887 
L 92.933007 160.677687 
L 98.47461 137.168653 
L 103.770008 156.774478 
L 108.84015 135.990281 
L 113.70342 153.770513 
L 118.376041 147.506406 
L 122.872398 137.240255 
L 127.205308 133.777048 
L 131.386237 116.537667 
L 135.425487 131.696538 
L 139.332346 153.131653 
L 143.115218 142.810901 
L 144.100188 84.879477 
L 147.736987 67.735045 
L 151.266113 60.550874 
L 154.693759 57.224639 
L 158.025597 55.620602 
L 161.266839 54.832558 
L 164.422281 54.441948 
L 170.493134 54.15048 
L 181.77933 54.05974 
L 283.348882 54.055885 
L 418.440284 54.066363 
L 418.440284 54.066363 
" clip-path="url(#p1ea49ed14a)" style="fill: none; stroke: #1f77b4; stroke-opacity: 0.4; stroke-linecap: square"/>
   </g>
   <g id="line2d_30">
    <path d="M -1 76.68208 
L 4.584419 70.372059 
L 15.929398 72.532428 
L 26.287897 89.229489 
L 35.81783 86.444213 
L 44.641988 104.355943 
L 52.857739 110.990538 
L 60.543596 101.49278 
L 67.763791 106.112531 
L 74.57154 90.227715 
L 81.011429 65.730172 
L 87.121183 52.70205 
L 92.933007 84.289018 
L 98.47461 98.887766 
L 103.770008 114.132823 
L 108.84015 81.938058 
L 113.70342 87.000606 
L 118.376041 102.72911 
L 122.872398 123.701792 
L 127.205308 117.832547 
L 131.386237 95.352132 
L 135.425487 117.878091 
L 139.332346 100.497579 
L 143.115218 107.616754 
L 144.100188 125.722907 
L 147.736987 141.019897 
L 151.266113 151.196041 
L 154.693759 157.267109 
L 158.025597 160.768257 
L 161.266839 162.981352 
L 164.422281 164.36046 
L 167.496349 165.50656 
L 170.493134 165.903899 
L 173.416428 165.748801 
L 179.056366 166.795975 
L 184.441483 167.078874 
L 187.045482 167.136732 
L 189.593813 167.482352 
L 192.088807 167.338896 
L 194.532651 167.491913 
L 196.9274 167.814647 
L 199.274988 167.658432 
L 201.577236 167.722898 
L 203.835863 168.198769 
L 206.052491 168.142628 
L 208.228653 168.577282 
L 212.465308 168.717027 
L 216.556548 169.154086 
L 218.550691 169.037248 
L 222.44161 169.666289 
L 224.340458 169.494119 
L 226.209535 169.523262 
L 226.701121 168.331039 
L 228.533829 168.983127 
L 230.338788 169.485122 
L 232.116824 169.437485 
L 233.86873 170.618668 
L 235.595263 170.557479 
L 237.297146 170.744827 
L 238.975074 166.615212 
L 240.629712 168.891494 
L 242.261698 170.852732 
L 243.871643 171.522998 
L 245.460135 171.344872 
L 247.027738 172.678449 
L 248.574994 173.268327 
L 250.102425 172.804744 
L 251.610532 173.413095 
L 253.099799 170.880144 
L 254.57069 172.548434 
L 256.023652 172.597627 
L 257.459119 168.92272 
L 260.279215 173.255455 
L 261.664633 173.105617 
L 263.034136 168.534749 
L 264.388083 170.481322 
L 267.050701 173.252812 
L 268.360035 174.424521 
L 269.655144 176.886519 
L 270.936334 176.736804 
L 272.203901 175.399142 
L 273.458132 176.901913 
L 274.699303 177.71225 
L 275.026829 172.841924 
L 276.251858 175.452072 
L 277.464426 175.567204 
L 278.664785 173.955458 
L 279.853177 175.826433 
L 282.194999 178.431707 
L 283.348882 180.14932 
L 284.491703 174.322387 
L 285.623672 171.14011 
L 286.744993 172.643126 
L 287.855865 170.516389 
L 288.956481 175.114446 
L 290.047028 177.397112 
L 291.127689 176.20314 
L 292.198641 168.867893 
L 293.260058 172.773168 
L 294.312107 174.399781 
L 295.354953 174.67288 
L 296.388756 166.136456 
L 297.41367 174.10222 
L 298.429847 169.041865 
L 300.436579 179.279039 
L 301.427417 172.719142 
L 303.384725 178.114519 
L 304.351458 182.853174 
L 305.310414 181.993729 
L 306.261717 182.29908 
L 307.205489 167.490892 
L 308.141848 176.387985 
L 309.07091 179.891241 
L 309.316479 176.277701 
L 310.236466 178.710617 
L 311.149408 169.866329 
L 312.05541 177.40137 
L 312.95458 174.488269 
L 314.732823 180.816678 
L 315.612096 176.599243 
L 316.48493 182.980867 
L 317.351421 186.535113 
L 318.211658 184.130581 
L 319.065733 185.716265 
L 319.913731 174.158594 
L 321.591844 185.417239 
L 322.422124 182.138003 
L 323.246662 177.20954 
L 324.065535 160.975059 
L 324.878822 165.25341 
L 325.686598 175.641013 
L 326.488937 177.667657 
L 327.285912 180.270372 
L 328.077594 185.275076 
L 328.864053 188.602179 
L 329.645358 179.235795 
L 330.421575 165.956363 
L 331.192771 175.580737 
L 331.95901 177.957417 
L 332.720355 176.971738 
L 333.476868 177.857079 
L 334.228611 183.899382 
L 334.975643 172.837419 
L 335.718023 181.541314 
L 335.914443 185.63842 
L 336.651018 186.893013 
L 337.383069 191.196112 
L 338.110652 181.299512 
L 338.833821 186.267721 
L 339.55263 189.641337 
L 340.267131 187.9998 
L 340.977374 190.64703 
L 341.683411 191.339922 
L 342.385291 193.075518 
L 343.083063 192.966937 
L 343.776774 190.432747 
L 344.466472 179.261597 
L 345.152202 187.646915 
L 345.83401 179.554256 
L 346.511941 185.371548 
L 347.186038 189.605097 
L 347.856345 187.155532 
L 348.522904 189.814642 
L 349.185757 177.539958 
L 349.844944 182.932751 
L 350.500506 182.694968 
L 351.800913 192.487101 
L 352.445836 192.765064 
L 353.087288 195.216077 
L 353.725307 196.078832 
L 354.359929 184.506535 
L 354.991191 186.537448 
L 355.619128 185.837597 
L 356.243774 183.665676 
L 356.865165 189.860808 
L 357.483333 193.545847 
L 357.646996 195.983388 
L 358.261134 191.53015 
L 358.872124 177.940066 
L 359.479998 171.573273 
L 360.686526 187.882743 
L 361.285241 177.982997 
L 362.473726 167.386076 
L 363.063554 170.354151 
L 363.650478 182.097182 
L 364.234527 170.139471 
L 364.815728 177.554297 
L 365.394109 163.081608 
L 365.969698 174.442876 
L 366.542521 181.394732 
L 367.112605 183.826847 
L 367.679975 190.113939 
L 368.244657 194.541805 
L 368.806678 197.105874 
L 369.366061 198.098315 
L 369.922832 193.264 
L 370.477014 184.321438 
L 371.028632 167.404483 
L 371.577709 169.752879 
L 372.124269 180.183903 
L 372.668334 173.664379 
L 373.209927 178.54501 
L 373.749071 185.556965 
L 374.285788 185.244036 
L 374.820099 193.244761 
L 375.352026 196.731961 
L 375.88159 197.301995 
L 376.02186 193.526389 
L 376.548463 189.516987 
L 377.072751 187.19384 
L 377.594742 182.42396 
L 378.114458 188.648597 
L 378.631917 192.530582 
L 379.14714 191.316444 
L 379.660146 194.261794 
L 380.170954 193.899135 
L 380.679583 185.490551 
L 381.18605 171.662981 
L 382.192575 189.322004 
L 382.692668 193.849567 
L 383.190672 191.294264 
L 383.686605 183.682965 
L 384.180483 190.200992 
L 384.672323 175.565002 
L 385.162142 177.163606 
L 385.649957 163.437026 
L 386.135784 168.003341 
L 386.619639 181.598984 
L 387.101537 185.775046 
L 387.581496 193.17429 
L 388.05953 160.710575 
L 388.535655 172.215309 
L 389.009886 176.787584 
L 389.482237 164.803192 
L 389.952725 175.329787 
L 390.421363 175.933032 
L 390.888165 179.740416 
L 391.353147 187.926258 
L 391.816322 182.515743 
L 391.939051 188.201161 
L 392.39996 195.054514 
L 392.859094 191.972471 
L 393.316466 194.878856 
L 394.225979 187.434783 
L 394.678146 192.934682 
L 395.128605 136.598177 
L 396.024449 173.001275 
L 396.469858 176.496192 
L 396.91361 185.82915 
L 397.355716 188.243197 
L 397.796188 191.43843 
L 398.235039 181.056237 
L 398.67228 181.890183 
L 399.107924 191.117917 
L 399.541981 188.039241 
L 399.974463 157.742572 
L 400.834749 184.363076 
L 401.262575 181.664058 
L 401.688871 186.008186 
L 402.536917 196.186557 
L 402.958689 189.872372 
L 403.378973 192.429738 
L 404.215122 194.809109 
L 405.045448 202.783596 
L 405.458451 182.662625 
L 405.870029 182.795371 
L 405.979116 190.714416 
L 406.388904 193.622521 
L 406.797287 172.139631 
L 407.204277 184.088587 
L 407.609881 188.476748 
L 408.01411 153.534578 
L 408.416973 170.177771 
L 408.818479 163.512247 
L 409.218638 173.646395 
L 409.617458 166.369413 
L 410.014947 174.346696 
L 410.411116 179.064051 
L 411.199526 196.132534 
L 411.591784 189.136241 
L 411.982756 184.692087 
L 412.372449 185.200913 
L 412.760873 182.617552 
L 413.533944 196.174863 
L 413.918608 195.508377 
L 414.302035 192.442185 
L 414.684232 182.823335 
L 415.065207 166.668235 
L 415.44497 182.284353 
L 416.57705 202.12121 
L 416.952034 196.629716 
L 417.325842 197.213458 
L 417.698482 199.26218 
L 418.06996 202.561991 
L 418.440284 199.891743 
L 418.440284 199.891743 
" clip-path="url(#p1ea49ed14a)" style="fill: none; stroke: #ff7f0e; stroke-opacity: 0.4; stroke-linecap: square"/>
   </g>
   <g id="line2d_31">
    <path d="M -1 45.60798 
L 4.584419 42.518602 
L 15.929398 59.535272 
L 26.287897 70.853374 
L 35.81783 89.152412 
L 44.641988 106.678801 
L 52.857739 115.65505 
L 60.543596 115.65376 
L 67.763791 119.956243 
L 74.57154 117.032404 
L 81.011429 116.460917 
L 87.121183 114.49918 
L 92.933007 78.441697 
L 98.47461 100.829062 
L 103.770008 90.065227 
L 108.84015 106.680816 
L 118.376041 133.12234 
L 122.872398 116.945943 
L 127.205308 110.791975 
L 131.386237 127.748807 
L 135.425487 116.35169 
L 139.332346 95.542303 
L 143.115218 117.195098 
L 144.100188 123.995178 
L 147.736987 135.1516 
L 151.266113 142.861879 
L 154.693759 147.930683 
L 158.025597 151.386477 
L 161.266839 153.790995 
L 164.422281 155.370547 
L 167.496349 156.561156 
L 173.416428 158.205429 
L 176.269748 158.754892 
L 179.056366 159.122515 
L 181.77933 159.683932 
L 184.441483 159.987333 
L 187.045482 160.399458 
L 189.593813 160.678306 
L 192.088807 161.107336 
L 194.532651 161.269489 
L 196.9274 161.567324 
L 201.577236 162.336026 
L 206.052491 162.359847 
L 208.228653 162.796026 
L 210.365801 162.957238 
L 212.465308 163.000595 
L 218.550691 163.847824 
L 220.512024 164.081166 
L 224.340458 164.280642 
L 226.209535 164.403029 
L 226.701121 164.289695 
L 228.533829 163.990421 
L 230.338788 164.93004 
L 232.116824 160.646056 
L 233.86873 163.13249 
L 235.595263 163.745624 
L 237.297146 165.98898 
L 238.975074 166.332431 
L 240.629712 166.945567 
L 242.261698 167.876025 
L 243.871643 168.957574 
L 245.460135 166.717354 
L 247.027738 167.64921 
L 248.574994 165.032372 
L 250.102425 167.830612 
L 251.610532 169.549665 
L 253.099799 168.558518 
L 254.57069 169.810504 
L 256.023652 168.594058 
L 260.279215 170.309259 
L 261.664633 172.155511 
L 263.034136 171.261782 
L 264.388083 172.042104 
L 265.726826 171.993474 
L 267.050701 173.30772 
L 268.360035 172.892031 
L 269.655144 174.282399 
L 270.936334 174.07836 
L 272.203901 174.816858 
L 273.458132 173.726684 
L 275.026829 168.216042 
L 276.251858 172.01426 
L 277.464426 172.629101 
L 278.664785 174.539281 
L 279.853177 158.578321 
L 281.029838 159.053241 
L 282.194999 166.592021 
L 283.348882 163.752332 
L 284.491703 168.517665 
L 285.623672 166.998788 
L 286.744993 172.727633 
L 287.855865 164.112604 
L 288.956481 171.51728 
L 290.047028 172.812403 
L 291.127689 164.596571 
L 292.198641 143.405677 
L 293.260058 152.67922 
L 294.312107 148.397085 
L 295.354953 160.309067 
L 296.388756 168.17505 
L 297.41367 174.188067 
L 298.429847 177.998816 
L 299.437436 177.452496 
L 300.436579 179.861628 
L 301.427417 174.709348 
L 302.410088 178.90132 
L 303.384725 181.591935 
L 304.351458 182.57278 
L 305.310414 169.133489 
L 306.261717 174.123327 
L 307.205489 176.173587 
L 308.141848 178.626168 
L 309.07091 177.260315 
L 309.316479 176.49847 
L 310.236466 180.365866 
L 311.149408 181.494332 
L 312.05541 170.745766 
L 312.95458 178.099366 
L 313.847017 172.568047 
L 314.732823 165.233522 
L 315.612096 163.013748 
L 316.48493 166.459414 
L 317.351421 148.507134 
L 318.211658 163.661824 
L 319.065733 168.795601 
L 320.755741 181.063092 
L 321.591844 161.319692 
L 322.422124 173.265693 
L 323.246662 175.982307 
L 324.065535 181.357478 
L 324.878822 134.809909 
L 325.686598 155.01187 
L 326.488937 152.001147 
L 327.285912 168.665014 
L 328.077594 177.958257 
L 328.864053 183.911847 
L 329.645358 186.496378 
L 330.421575 172.085921 
L 331.192771 180.300111 
L 331.95901 172.234974 
L 332.720355 168.100269 
L 333.476868 179.096737 
L 334.228611 181.331921 
L 334.975643 182.612909 
L 335.718023 184.671443 
L 335.914443 181.006998 
L 336.651018 184.640049 
L 337.383069 182.281762 
L 338.110652 165.594279 
L 338.833821 176.472529 
L 339.55263 184.812586 
L 340.267131 188.267131 
L 340.977374 180.809566 
L 341.683411 182.216399 
L 342.385291 188.897821 
L 343.083063 165.956179 
L 343.776774 176.663422 
L 344.466472 173.674706 
L 345.152202 180.323577 
L 345.83401 172.36722 
L 346.511941 173.391817 
L 347.186038 183.392409 
L 347.856345 187.724134 
L 348.522904 186.49154 
L 349.185757 187.959516 
L 349.844944 164.234314 
L 350.500506 154.045816 
L 351.152483 169.363135 
L 351.800913 179.299567 
L 352.445836 177.069582 
L 353.087288 186.612711 
L 354.359929 191.493679 
L 354.991191 190.704311 
L 355.619128 190.865139 
L 356.865165 185.242214 
L 357.483333 189.805462 
L 357.646996 184.402039 
L 358.261134 189.152315 
L 358.872124 188.984192 
L 359.479998 194.177667 
L 360.084788 187.199248 
L 360.686526 193.364108 
L 361.285241 187.086622 
L 361.880964 188.198021 
L 362.473726 193.715991 
L 363.063554 195.768466 
L 363.650478 198.215273 
L 364.234527 196.653285 
L 364.815728 198.933861 
L 365.394109 194.436155 
L 366.542521 196.667091 
L 367.112605 197.066558 
L 368.244657 200.09389 
L 368.806678 199.597053 
L 369.366061 200.873463 
L 369.922832 197.398734 
L 370.477014 198.205271 
L 371.028632 193.375005 
L 371.577709 197.260939 
L 372.124269 196.819083 
L 372.668334 199.042489 
L 373.209927 200.149355 
L 373.749071 200.163082 
L 374.285788 195.529249 
L 374.820099 198.675488 
L 375.352026 200.814453 
L 375.88159 174.73596 
L 376.02186 141.479169 
L 376.548463 164.357244 
L 377.072751 179.157639 
L 377.594742 188.819706 
L 378.114458 184.715412 
L 379.14714 192.209311 
L 379.660146 186.921434 
L 380.170954 175.550282 
L 380.679583 184.987762 
L 381.18605 190.64154 
L 381.690375 192.144399 
L 382.192575 184.983711 
L 382.692668 184.430226 
L 383.190672 171.944917 
L 383.686605 184.534874 
L 384.180483 180.810764 
L 384.672323 171.100088 
L 385.162142 184.814186 
L 385.649957 182.976122 
L 386.135784 170.590605 
L 386.619639 183.739324 
L 387.101537 192.119978 
L 387.581496 197.784822 
L 388.05953 200.831982 
L 388.535655 199.074107 
L 389.009886 196.261173 
L 389.482237 200.132596 
L 389.952725 168.115872 
L 390.421363 181.588063 
L 390.888165 180.135707 
L 391.353147 182.165536 
L 391.816322 188.407322 
L 391.939051 179.662133 
L 392.39996 191.189733 
L 392.859094 191.300285 
L 393.316466 196.799329 
L 393.77209 197.682936 
L 394.225979 199.250788 
L 394.678146 201.886532 
L 395.128605 182.480993 
L 396.024449 196.481127 
L 396.469858 199.173202 
L 396.91361 198.365896 
L 397.355716 194.370818 
L 397.796188 195.364406 
L 398.235039 199.708253 
L 398.67228 202.790055 
L 399.107924 200.439704 
L 399.541981 199.518698 
L 399.974463 174.525214 
L 400.405382 179.457306 
L 400.834749 191.509388 
L 401.688871 201.391469 
L 402.113648 189.152363 
L 402.536917 169.272882 
L 402.958689 167.583976 
L 403.378973 182.355479 
L 403.797781 191.054629 
L 404.215122 193.627491 
L 404.631008 200.509117 
L 405.045448 195.530216 
L 405.458451 192.29229 
L 405.870029 198.301872 
L 405.979116 182.983185 
L 406.388904 163.795784 
L 406.797287 171.809054 
L 407.204277 170.916995 
L 407.609881 182.773702 
L 408.01411 183.014803 
L 408.416973 189.469523 
L 409.218638 190.908799 
L 410.014947 196.588409 
L 410.411116 197.43341 
L 410.805973 188.483436 
L 411.199526 195.819987 
L 411.982756 170.887463 
L 412.372449 174.038496 
L 412.760873 178.097719 
L 413.148035 177.947482 
L 413.533944 183.459965 
L 413.918608 164.593365 
L 414.302035 178.485531 
L 414.684232 188.265823 
L 415.065207 184.093643 
L 415.44497 193.00176 
L 415.823526 194.213317 
L 416.200883 160.96876 
L 416.57705 175.63235 
L 416.952034 172.127512 
L 417.325842 184.826161 
L 417.698482 188.036456 
L 418.06996 177.411243 
L 418.440284 186.874764 
L 418.440284 186.874764 
" clip-path="url(#p1ea49ed14a)" style="fill: none; stroke: #2ca02c; stroke-opacity: 0.4; stroke-linecap: square"/>
   </g>
   <g id="patch_3">
    <path d="M 57.6 307.584 
L 57.6 41.472 
" style="fill: none; stroke: #000000; stroke-width: 0.8; stroke-linejoin: miter; stroke-linecap: square"/>
   </g>
   <g id="patch_4">
    <path d="M 414.72 307.584 
L 414.72 41.472 
" style="fill: none; stroke: #000000; stroke-width: 0.8; stroke-linejoin: miter; stroke-linecap: square"/>
   </g>
   <g id="patch_5">
    <path d="M 57.6 307.584 
L 414.72 307.584 
" style="fill: none; stroke: #000000; stroke-width: 0.8; stroke-linejoin: miter; stroke-linecap: square"/>
   </g>
   <g id="patch_6">
    <path d="M 57.6 41.472 
L 414.72 41.472 
" style="fill: none; stroke: #000000; stroke-width: 0.8; stroke-linejoin: miter; stroke-linecap: square"/>
   </g>
   <g id="text_7">
    <!-- 2025-02-18-20:10:38 -->
    <g transform="translate(172.178438 35.472) scale(0.12 -0.12)">
     <defs>
      <path id="DejaVuSans-35" d="M 691 4666 
L 3169 4666 
L 3169 4134 
L 1269 4134 
L 1269 2991 
Q 1406 3038 1543 3061 
Q 1681 3084 1819 3084 
Q 2600 3084 3056 2656 
Q 3513 2228 3513 1497 
Q 3513 744 3044 326 
Q 2575 -91 1722 -91 
Q 1428 -91 1123 -41 
Q 819 9 494 109 
L 494 744 
Q 775 591 1075 516 
Q 1375 441 1709 441 
Q 2250 441 2565 725 
Q 2881 1009 2881 1497 
Q 2881 1984 2565 2268 
Q 2250 2553 1709 2553 
Q 1456 2553 1204 2497 
Q 953 2441 691 2322 
L 691 4666 
z
" transform="scale(0.015625)"/>
      <path id="DejaVuSans-2d" d="M 313 2009 
L 1997 2009 
L 1997 1497 
L 313 1497 
L 313 2009 
z
" transform="scale(0.015625)"/>
      <path id="DejaVuSans-38" d="M 2034 2216 
Q 1584 2216 1326 1975 
Q 1069 1734 1069 1313 
Q 1069 891 1326 650 
Q 1584 409 2034 409 
Q 2484 409 2743 651 
Q 3003 894 3003 1313 
Q 3003 1734 2745 1975 
Q 2488 2216 2034 2216 
z
M 1403 2484 
Q 997 2584 770 2862 
Q 544 3141 544 3541 
Q 544 4100 942 4425 
Q 1341 4750 2034 4750 
Q 2731 4750 3128 4425 
Q 3525 4100 3525 3541 
Q 3525 3141 3298 2862 
Q 3072 2584 2669 2484 
Q 3125 2378 3379 2068 
Q 3634 1759 3634 1313 
Q 3634 634 3220 271 
Q 2806 -91 2034 -91 
Q 1263 -91 848 271 
Q 434 634 434 1313 
Q 434 1759 690 2068 
Q 947 2378 1403 2484 
z
M 1172 3481 
Q 1172 3119 1398 2916 
Q 1625 2713 2034 2713 
Q 2441 2713 2670 2916 
Q 2900 3119 2900 3481 
Q 2900 3844 2670 4047 
Q 2441 4250 2034 4250 
Q 1625 4250 1398 4047 
Q 1172 3844 1172 3481 
z
" transform="scale(0.015625)"/>
      <path id="DejaVuSans-3a" d="M 750 794 
L 1409 794 
L 1409 0 
L 750 0 
L 750 794 
z
M 750 3309 
L 1409 3309 
L 1409 2516 
L 750 2516 
L 750 3309 
z
" transform="scale(0.015625)"/>
     </defs>
     <use xlink:href="#DejaVuSans-32"/>
     <use xlink:href="#DejaVuSans-30" x="63.623047"/>
     <use xlink:href="#DejaVuSans-32" x="127.246094"/>
     <use xlink:href="#DejaVuSans-35" x="190.869141"/>
     <use xlink:href="#DejaVuSans-2d" x="254.492188"/>
     <use xlink:href="#DejaVuSans-30" x="290.576172"/>
     <use xlink:href="#DejaVuSans-32" x="354.199219"/>
     <use xlink:href="#DejaVuSans-2d" x="417.822266"/>
     <use xlink:href="#DejaVuSans-31" x="453.90625"/>
     <use xlink:href="#DejaVuSans-38" x="517.529297"/>
     <use xlink:href="#DejaVuSans-2d" x="581.152344"/>
     <use xlink:href="#DejaVuSans-32" x="617.236328"/>
     <use xlink:href="#DejaVuSans-30" x="680.859375"/>
     <use xlink:href="#DejaVuSans-3a" x="744.482422"/>
     <use xlink:href="#DejaVuSans-31" x="778.173828"/>
     <use xlink:href="#DejaVuSans-30" x="841.796875"/>
     <use xlink:href="#DejaVuSans-3a" x="905.419922"/>
     <use xlink:href="#DejaVuSans-33" x="939.111328"/>
     <use xlink:href="#DejaVuSans-38" x="1002.734375"/>
    </g>
   </g>
   <g id="legend_1">
    <g id="patch_7">
     <path d="M 64.6 302.584 
L 190.723438 302.584 
Q 192.723438 302.584 192.723438 300.584 
L 192.723438 256.71525 
Q 192.723438 254.71525 190.723438 254.71525 
L 64.6 254.71525 
Q 62.6 254.71525 62.6 256.71525 
L 62.6 300.584 
Q 62.6 302.584 64.6 302.584 
z
" style="fill: #ffffff; opacity: 0.8; stroke: #cccccc; stroke-linejoin: miter"/>
    </g>
    <g id="line2d_32">
     <path d="M 66.6 262.813687 
L 76.6 262.813687 
L 86.6 262.813687 
" style="fill: none; stroke: #1f77b4; stroke-opacity: 0.4; stroke-linecap: square"/>
    </g>
    <g id="text_8">
     <!-- SchNet eval_loss -->
     <g transform="translate(94.6 266.313687) scale(0.1 -0.1)">
      <defs>
       <path id="DejaVuSans-53" d="M 3425 4513 
L 3425 3897 
Q 3066 4069 2747 4153 
Q 2428 4238 2131 4238 
Q 1616 4238 1336 4038 
Q 1056 3838 1056 3469 
Q 1056 3159 1242 3001 
Q 1428 2844 1947 2747 
L 2328 2669 
Q 3034 2534 3370 2195 
Q 3706 1856 3706 1288 
Q 3706 609 3251 259 
Q 2797 -91 1919 -91 
Q 1588 -91 1214 -16 
Q 841 59 441 206 
L 441 856 
Q 825 641 1194 531 
Q 1563 422 1919 422 
Q 2459 422 2753 634 
Q 3047 847 3047 1241 
Q 3047 1584 2836 1778 
Q 2625 1972 2144 2069 
L 1759 2144 
Q 1053 2284 737 2584 
Q 422 2884 422 3419 
Q 422 4038 858 4394 
Q 1294 4750 2059 4750 
Q 2388 4750 2728 4690 
Q 3069 4631 3425 4513 
z
" transform="scale(0.015625)"/>
       <path id="DejaVuSans-63" d="M 3122 3366 
L 3122 2828 
Q 2878 2963 2633 3030 
Q 2388 3097 2138 3097 
Q 1578 3097 1268 2742 
Q 959 2388 959 1747 
Q 959 1106 1268 751 
Q 1578 397 2138 397 
Q 2388 397 2633 464 
Q 2878 531 3122 666 
L 3122 134 
Q 2881 22 2623 -34 
Q 2366 -91 2075 -91 
Q 1284 -91 818 406 
Q 353 903 353 1747 
Q 353 2603 823 3093 
Q 1294 3584 2113 3584 
Q 2378 3584 2631 3529 
Q 2884 3475 3122 3366 
z
" transform="scale(0.015625)"/>
       <path id="DejaVuSans-68" d="M 3513 2113 
L 3513 0 
L 2938 0 
L 2938 2094 
Q 2938 2591 2744 2837 
Q 2550 3084 2163 3084 
Q 1697 3084 1428 2787 
Q 1159 2491 1159 1978 
L 1159 0 
L 581 0 
L 581 4863 
L 1159 4863 
L 1159 2956 
Q 1366 3272 1645 3428 
Q 1925 3584 2291 3584 
Q 2894 3584 3203 3211 
Q 3513 2838 3513 2113 
z
" transform="scale(0.015625)"/>
       <path id="DejaVuSans-4e" d="M 628 4666 
L 1478 4666 
L 3547 763 
L 3547 4666 
L 4159 4666 
L 4159 0 
L 3309 0 
L 1241 3903 
L 1241 0 
L 628 0 
L 628 4666 
z
" transform="scale(0.015625)"/>
       <path id="DejaVuSans-20" transform="scale(0.015625)"/>
       <path id="DejaVuSans-76" d="M 191 3500 
L 800 3500 
L 1894 563 
L 2988 3500 
L 3597 3500 
L 2284 0 
L 1503 0 
L 191 3500 
z
" transform="scale(0.015625)"/>
       <path id="DejaVuSans-61" d="M 2194 1759 
Q 1497 1759 1228 1600 
Q 959 1441 959 1056 
Q 959 750 1161 570 
Q 1363 391 1709 391 
Q 2188 391 2477 730 
Q 2766 1069 2766 1631 
L 2766 1759 
L 2194 1759 
z
M 3341 1997 
L 3341 0 
L 2766 0 
L 2766 531 
Q 2569 213 2275 61 
Q 1981 -91 1556 -91 
Q 1019 -91 701 211 
Q 384 513 384 1019 
Q 384 1609 779 1909 
Q 1175 2209 1959 2209 
L 2766 2209 
L 2766 2266 
Q 2766 2663 2505 2880 
Q 2244 3097 1772 3097 
Q 1472 3097 1187 3025 
Q 903 2953 641 2809 
L 641 3341 
Q 956 3463 1253 3523 
Q 1550 3584 1831 3584 
Q 2591 3584 2966 3190 
Q 3341 2797 3341 1997 
z
" transform="scale(0.015625)"/>
       <path id="DejaVuSans-5f" d="M 3263 -1063 
L 3263 -1509 
L -63 -1509 
L -63 -1063 
L 3263 -1063 
z
" transform="scale(0.015625)"/>
      </defs>
      <use xlink:href="#DejaVuSans-53"/>
      <use xlink:href="#DejaVuSans-63" x="63.476562"/>
      <use xlink:href="#DejaVuSans-68" x="118.457031"/>
      <use xlink:href="#DejaVuSans-4e" x="181.835938"/>
      <use xlink:href="#DejaVuSans-65" x="256.640625"/>
      <use xlink:href="#DejaVuSans-74" x="318.164062"/>
      <use xlink:href="#DejaVuSans-20" x="357.373047"/>
      <use xlink:href="#DejaVuSans-65" x="389.160156"/>
      <use xlink:href="#DejaVuSans-76" x="450.683594"/>
      <use xlink:href="#DejaVuSans-61" x="509.863281"/>
      <use xlink:href="#DejaVuSans-6c" x="571.142578"/>
      <use xlink:href="#DejaVuSans-5f" x="598.925781"/>
      <use xlink:href="#DejaVuSans-6c" x="648.925781"/>
      <use xlink:href="#DejaVuSans-6f" x="676.708984"/>
      <use xlink:href="#DejaVuSans-73" x="737.890625"/>
      <use xlink:href="#DejaVuSans-73" x="789.990234"/>
     </g>
    </g>
    <g id="line2d_33">
     <path d="M 66.6 277.769937 
L 76.6 277.769937 
L 86.6 277.769937 
" style="fill: none; stroke: #ff7f0e; stroke-opacity: 0.4; stroke-linecap: square"/>
    </g>
    <g id="text_9">
     <!-- MoGIN13 eval_loss -->
     <g transform="translate(94.6 281.269937) scale(0.1 -0.1)">
      <defs>
       <path id="DejaVuSans-4d" d="M 628 4666 
L 1569 4666 
L 2759 1491 
L 3956 4666 
L 4897 4666 
L 4897 0 
L 4281 0 
L 4281 4097 
L 3078 897 
L 2444 897 
L 1241 4097 
L 1241 0 
L 628 0 
L 628 4666 
z
" transform="scale(0.015625)"/>
       <path id="DejaVuSans-47" d="M 3809 666 
L 3809 1919 
L 2778 1919 
L 2778 2438 
L 4434 2438 
L 4434 434 
Q 4069 175 3628 42 
Q 3188 -91 2688 -91 
Q 1594 -91 976 548 
Q 359 1188 359 2328 
Q 359 3472 976 4111 
Q 1594 4750 2688 4750 
Q 3144 4750 3555 4637 
Q 3966 4525 4313 4306 
L 4313 3634 
Q 3963 3931 3569 4081 
Q 3175 4231 2741 4231 
Q 1884 4231 1454 3753 
Q 1025 3275 1025 2328 
Q 1025 1384 1454 906 
Q 1884 428 2741 428 
Q 3075 428 3337 486 
Q 3600 544 3809 666 
z
" transform="scale(0.015625)"/>
       <path id="DejaVuSans-49" d="M 628 4666 
L 1259 4666 
L 1259 0 
L 628 0 
L 628 4666 
z
" transform="scale(0.015625)"/>
      </defs>
      <use xlink:href="#DejaVuSans-4d"/>
      <use xlink:href="#DejaVuSans-6f" x="86.279297"/>
      <use xlink:href="#DejaVuSans-47" x="147.460938"/>
      <use xlink:href="#DejaVuSans-49" x="224.951172"/>
      <use xlink:href="#DejaVuSans-4e" x="254.443359"/>
      <use xlink:href="#DejaVuSans-31" x="329.248047"/>
      <use xlink:href="#DejaVuSans-33" x="392.871094"/>
      <use xlink:href="#DejaVuSans-20" x="456.494141"/>
      <use xlink:href="#DejaVuSans-65" x="488.28125"/>
      <use xlink:href="#DejaVuSans-76" x="549.804688"/>
      <use xlink:href="#DejaVuSans-61" x="608.984375"/>
      <use xlink:href="#DejaVuSans-6c" x="670.263672"/>
      <use xlink:href="#DejaVuSans-5f" x="698.046875"/>
      <use xlink:href="#DejaVuSans-6c" x="748.046875"/>
      <use xlink:href="#DejaVuSans-6f" x="775.830078"/>
      <use xlink:href="#DejaVuSans-73" x="837.011719"/>
      <use xlink:href="#DejaVuSans-73" x="889.111328"/>
     </g>
    </g>
    <g id="line2d_34">
     <path d="M 66.6 292.726187 
L 76.6 292.726187 
L 86.6 292.726187 
" style="fill: none; stroke: #2ca02c; stroke-opacity: 0.4; stroke-linecap: square"/>
    </g>
    <g id="text_10">
     <!-- MoGIN11 eval_loss -->
     <g transform="translate(94.6 296.226187) scale(0.1 -0.1)">
      <use xlink:href="#DejaVuSans-4d"/>
      <use xlink:href="#DejaVuSans-6f" x="86.279297"/>
      <use xlink:href="#DejaVuSans-47" x="147.460938"/>
      <use xlink:href="#DejaVuSans-49" x="224.951172"/>
      <use xlink:href="#DejaVuSans-4e" x="254.443359"/>
      <use xlink:href="#DejaVuSans-31" x="329.248047"/>
      <use xlink:href="#DejaVuSans-31" x="392.871094"/>
      <use xlink:href="#DejaVuSans-20" x="456.494141"/>
      <use xlink:href="#DejaVuSans-65" x="488.28125"/>
      <use xlink:href="#DejaVuSans-76" x="549.804688"/>
      <use xlink:href="#DejaVuSans-61" x="608.984375"/>
      <use xlink:href="#DejaVuSans-6c" x="670.263672"/>
      <use xlink:href="#DejaVuSans-5f" x="698.046875"/>
      <use xlink:href="#DejaVuSans-6c" x="748.046875"/>
      <use xlink:href="#DejaVuSans-6f" x="775.830078"/>
      <use xlink:href="#DejaVuSans-73" x="837.011719"/>
      <use xlink:href="#DejaVuSans-73" x="889.111328"/>
     </g>
    </g>
   </g>
  </g>
 </g>
 <defs>
  <clipPath id="p1ea49ed14a">
   <rect x="57.6" y="41.472" width="357.12" height="266.112"/>
  </clipPath>
 </defs>
</svg>
