<?xml version="1.0" encoding="utf-8" standalone="no"?>
<!DOCTYPE svg PUBLIC "-//W3C//DTD SVG 1.1//EN"
  "http://www.w3.org/Graphics/SVG/1.1/DTD/svg11.dtd">
<svg xmlns:xlink="http://www.w3.org/1999/xlink" width="460.8pt" height="345.6pt" viewBox="0 0 460.8 345.6" xmlns="http://www.w3.org/2000/svg" version="1.1">
 <metadata>
  <rdf:RDF xmlns:dc="http://purl.org/dc/elements/1.1/" xmlns:cc="http://creativecommons.org/ns#" xmlns:rdf="http://www.w3.org/1999/02/22-rdf-syntax-ns#">
   <cc:Work>
    <dc:type rdf:resource="http://purl.org/dc/dcmitype/StillImage"/>
    <dc:date>2025-02-21T00:25:22.782305</dc:date>
    <dc:format>image/svg+xml</dc:format>
    <dc:creator>
     <cc:Agent>
      <dc:title>Matplotlib v3.8.4, https://matplotlib.org/</dc:title>
     </cc:Agent>
    </dc:creator>
   </cc:Work>
  </rdf:RDF>
 </metadata>
 <defs>
  <style type="text/css">*{stroke-linejoin: round; stroke-linecap: butt}</style>
 </defs>
 <g id="figure_1">
  <g id="patch_1">
   <path d="M 0 345.6 
L 460.8 345.6 
L 460.8 0 
L 0 0 
z
" style="fill: #ffffff"/>
  </g>
  <g id="axes_1">
   <g id="patch_2">
    <path d="M 57.6 307.584 
L 414.72 307.584 
L 414.72 41.472 
L 57.6 41.472 
z
" style="fill: #ffffff"/>
   </g>
   <g id="matplotlib.axis_1">
    <g id="xtick_1">
     <g id="line2d_1">
      <defs>
       <path id="mc83e3c9e3d" d="M 0 0 
L 0 3.5 
" style="stroke: #000000; stroke-width: 0.8"/>
      </defs>
      <g>
       <use xlink:href="#mc83e3c9e3d" x="57.6" y="307.584" style="stroke: #000000; stroke-width: 0.8"/>
      </g>
     </g>
     <g id="text_1">
      <!-- $\mathdefault{10^{3}}$ -->
      <g transform="translate(48.8 322.182437) scale(0.1 -0.1)">
       <defs>
        <path id="DejaVuSans-31" d="M 794 531 
L 1825 531 
L 1825 4091 
L 703 3866 
L 703 4441 
L 1819 4666 
L 2450 4666 
L 2450 531 
L 3481 531 
L 3481 0 
L 794 0 
L 794 531 
z
" transform="scale(0.015625)"/>
        <path id="DejaVuSans-30" d="M 2034 4250 
Q 1547 4250 1301 3770 
Q 1056 3291 1056 2328 
Q 1056 1369 1301 889 
Q 1547 409 2034 409 
Q 2525 409 2770 889 
Q 3016 1369 3016 2328 
Q 3016 3291 2770 3770 
Q 2525 4250 2034 4250 
z
M 2034 4750 
Q 2819 4750 3233 4129 
Q 3647 3509 3647 2328 
Q 3647 1150 3233 529 
Q 2819 -91 2034 -91 
Q 1250 -91 836 529 
Q 422 1150 422 2328 
Q 422 3509 836 4129 
Q 1250 4750 2034 4750 
z
" transform="scale(0.015625)"/>
        <path id="DejaVuSans-33" d="M 2597 2516 
Q 3050 2419 3304 2112 
Q 3559 1806 3559 1356 
Q 3559 666 3084 287 
Q 2609 -91 1734 -91 
Q 1441 -91 1130 -33 
Q 819 25 488 141 
L 488 750 
Q 750 597 1062 519 
Q 1375 441 1716 441 
Q 2309 441 2620 675 
Q 2931 909 2931 1356 
Q 2931 1769 2642 2001 
Q 2353 2234 1838 2234 
L 1294 2234 
L 1294 2753 
L 1863 2753 
Q 2328 2753 2575 2939 
Q 2822 3125 2822 3475 
Q 2822 3834 2567 4026 
Q 2313 4219 1838 4219 
Q 1578 4219 1281 4162 
Q 984 4106 628 3988 
L 628 4550 
Q 988 4650 1302 4700 
Q 1616 4750 1894 4750 
Q 2613 4750 3031 4423 
Q 3450 4097 3450 3541 
Q 3450 3153 3228 2886 
Q 3006 2619 2597 2516 
z
" transform="scale(0.015625)"/>
       </defs>
       <use xlink:href="#DejaVuSans-31" transform="translate(0 0.765625)"/>
       <use xlink:href="#DejaVuSans-30" transform="translate(63.623047 0.765625)"/>
       <use xlink:href="#DejaVuSans-33" transform="translate(128.203125 39.046875) scale(0.7)"/>
      </g>
     </g>
    </g>
    <g id="xtick_2">
     <g id="line2d_2">
      <g>
       <use xlink:href="#mc83e3c9e3d" x="332.090213" y="307.584" style="stroke: #000000; stroke-width: 0.8"/>
      </g>
     </g>
     <g id="text_2">
      <!-- $\mathdefault{10^{4}}$ -->
      <g transform="translate(323.290213 322.182437) scale(0.1 -0.1)">
       <defs>
        <path id="DejaVuSans-34" d="M 2419 4116 
L 825 1625 
L 2419 1625 
L 2419 4116 
z
M 2253 4666 
L 3047 4666 
L 3047 1625 
L 3713 1625 
L 3713 1100 
L 3047 1100 
L 3047 0 
L 2419 0 
L 2419 1100 
L 313 1100 
L 313 1709 
L 2253 4666 
z
" transform="scale(0.015625)"/>
       </defs>
       <use xlink:href="#DejaVuSans-31" transform="translate(0 0.684375)"/>
       <use xlink:href="#DejaVuSans-30" transform="translate(63.623047 0.684375)"/>
       <use xlink:href="#DejaVuSans-34" transform="translate(128.203125 38.965625) scale(0.7)"/>
      </g>
     </g>
    </g>
    <g id="xtick_3">
     <g id="line2d_3">
      <defs>
       <path id="m1689bdd04e" d="M 0 0 
L 0 2 
" style="stroke: #000000; stroke-width: 0.6"/>
      </defs>
      <g>
       <use xlink:href="#m1689bdd04e" x="140.229787" y="307.584" style="stroke: #000000; stroke-width: 0.6"/>
      </g>
     </g>
    </g>
    <g id="xtick_4">
     <g id="line2d_4">
      <g>
       <use xlink:href="#m1689bdd04e" x="188.565115" y="307.584" style="stroke: #000000; stroke-width: 0.6"/>
      </g>
     </g>
    </g>
    <g id="xtick_5">
     <g id="line2d_5">
      <g>
       <use xlink:href="#m1689bdd04e" x="222.859575" y="307.584" style="stroke: #000000; stroke-width: 0.6"/>
      </g>
     </g>
    </g>
    <g id="xtick_6">
     <g id="line2d_6">
      <g>
       <use xlink:href="#m1689bdd04e" x="249.460425" y="307.584" style="stroke: #000000; stroke-width: 0.6"/>
      </g>
     </g>
    </g>
    <g id="xtick_7">
     <g id="line2d_7">
      <g>
       <use xlink:href="#m1689bdd04e" x="271.194902" y="307.584" style="stroke: #000000; stroke-width: 0.6"/>
      </g>
     </g>
    </g>
    <g id="xtick_8">
     <g id="line2d_8">
      <g>
       <use xlink:href="#m1689bdd04e" x="289.571141" y="307.584" style="stroke: #000000; stroke-width: 0.6"/>
      </g>
     </g>
    </g>
    <g id="xtick_9">
     <g id="line2d_9">
      <g>
       <use xlink:href="#m1689bdd04e" x="305.489362" y="307.584" style="stroke: #000000; stroke-width: 0.6"/>
      </g>
     </g>
    </g>
    <g id="xtick_10">
     <g id="line2d_10">
      <g>
       <use xlink:href="#m1689bdd04e" x="319.530229" y="307.584" style="stroke: #000000; stroke-width: 0.6"/>
      </g>
     </g>
    </g>
    <g id="xtick_11">
     <g id="line2d_11">
      <g>
       <use xlink:href="#m1689bdd04e" x="414.72" y="307.584" style="stroke: #000000; stroke-width: 0.6"/>
      </g>
     </g>
    </g>
    <g id="text_3">
     <!-- iter# -->
     <g transform="translate(223.488906 335.860562) scale(0.1 -0.1)">
      <defs>
       <path id="DejaVuSans-69" d="M 603 3500 
L 1178 3500 
L 1178 0 
L 603 0 
L 603 3500 
z
M 603 4863 
L 1178 4863 
L 1178 4134 
L 603 4134 
L 603 4863 
z
" transform="scale(0.015625)"/>
       <path id="DejaVuSans-74" d="M 1172 4494 
L 1172 3500 
L 2356 3500 
L 2356 3053 
L 1172 3053 
L 1172 1153 
Q 1172 725 1289 603 
Q 1406 481 1766 481 
L 2356 481 
L 2356 0 
L 1766 0 
Q 1100 0 847 248 
Q 594 497 594 1153 
L 594 3053 
L 172 3053 
L 172 3500 
L 594 3500 
L 594 4494 
L 1172 4494 
z
" transform="scale(0.015625)"/>
       <path id="DejaVuSans-65" d="M 3597 1894 
L 3597 1613 
L 953 1613 
Q 991 1019 1311 708 
Q 1631 397 2203 397 
Q 2534 397 2845 478 
Q 3156 559 3463 722 
L 3463 178 
Q 3153 47 2828 -22 
Q 2503 -91 2169 -91 
Q 1331 -91 842 396 
Q 353 884 353 1716 
Q 353 2575 817 3079 
Q 1281 3584 2069 3584 
Q 2775 3584 3186 3129 
Q 3597 2675 3597 1894 
z
M 3022 2063 
Q 3016 2534 2758 2815 
Q 2500 3097 2075 3097 
Q 1594 3097 1305 2825 
Q 1016 2553 972 2059 
L 3022 2063 
z
" transform="scale(0.015625)"/>
       <path id="DejaVuSans-72" d="M 2631 2963 
Q 2534 3019 2420 3045 
Q 2306 3072 2169 3072 
Q 1681 3072 1420 2755 
Q 1159 2438 1159 1844 
L 1159 0 
L 581 0 
L 581 3500 
L 1159 3500 
L 1159 2956 
Q 1341 3275 1631 3429 
Q 1922 3584 2338 3584 
Q 2397 3584 2469 3576 
Q 2541 3569 2628 3553 
L 2631 2963 
z
" transform="scale(0.015625)"/>
       <path id="DejaVuSans-23" d="M 3272 2816 
L 2363 2816 
L 2100 1772 
L 3016 1772 
L 3272 2816 
z
M 2803 4594 
L 2478 3297 
L 3391 3297 
L 3719 4594 
L 4219 4594 
L 3897 3297 
L 4872 3297 
L 4872 2816 
L 3775 2816 
L 3519 1772 
L 4513 1772 
L 4513 1294 
L 3397 1294 
L 3072 0 
L 2572 0 
L 2894 1294 
L 1978 1294 
L 1656 0 
L 1153 0 
L 1478 1294 
L 494 1294 
L 494 1772 
L 1594 1772 
L 1856 2816 
L 850 2816 
L 850 3297 
L 1978 3297 
L 2297 4594 
L 2803 4594 
z
" transform="scale(0.015625)"/>
      </defs>
      <use xlink:href="#DejaVuSans-69"/>
      <use xlink:href="#DejaVuSans-74" x="27.783203"/>
      <use xlink:href="#DejaVuSans-65" x="66.992188"/>
      <use xlink:href="#DejaVuSans-72" x="128.515625"/>
      <use xlink:href="#DejaVuSans-23" x="169.628906"/>
     </g>
    </g>
   </g>
   <g id="matplotlib.axis_2">
    <g id="ytick_1">
     <g id="line2d_12">
      <defs>
       <path id="med1770eca1" d="M 0 0 
L -3.5 0 
" style="stroke: #000000; stroke-width: 0.8"/>
      </defs>
      <g>
       <use xlink:href="#med1770eca1" x="57.6" y="245.254111" style="stroke: #000000; stroke-width: 0.8"/>
      </g>
     </g>
     <g id="text_4">
      <!-- $\mathdefault{10^{-2}}$ -->
      <g transform="translate(27.1 249.05333) scale(0.1 -0.1)">
       <defs>
        <path id="DejaVuSans-2212" d="M 678 2272 
L 4684 2272 
L 4684 1741 
L 678 1741 
L 678 2272 
z
" transform="scale(0.015625)"/>
        <path id="DejaVuSans-32" d="M 1228 531 
L 3431 531 
L 3431 0 
L 469 0 
L 469 531 
Q 828 903 1448 1529 
Q 2069 2156 2228 2338 
Q 2531 2678 2651 2914 
Q 2772 3150 2772 3378 
Q 2772 3750 2511 3984 
Q 2250 4219 1831 4219 
Q 1534 4219 1204 4116 
Q 875 4013 500 3803 
L 500 4441 
Q 881 4594 1212 4672 
Q 1544 4750 1819 4750 
Q 2544 4750 2975 4387 
Q 3406 4025 3406 3419 
Q 3406 3131 3298 2873 
Q 3191 2616 2906 2266 
Q 2828 2175 2409 1742 
Q 1991 1309 1228 531 
z
" transform="scale(0.015625)"/>
       </defs>
       <use xlink:href="#DejaVuSans-31" transform="translate(0 0.765625)"/>
       <use xlink:href="#DejaVuSans-30" transform="translate(63.623047 0.765625)"/>
       <use xlink:href="#DejaVuSans-2212" transform="translate(128.203125 39.046875) scale(0.7)"/>
       <use xlink:href="#DejaVuSans-32" transform="translate(186.855469 39.046875) scale(0.7)"/>
      </g>
     </g>
    </g>
    <g id="ytick_2">
     <g id="line2d_13">
      <g>
       <use xlink:href="#med1770eca1" x="57.6" y="88.622741" style="stroke: #000000; stroke-width: 0.8"/>
      </g>
     </g>
     <g id="text_5">
      <!-- $\mathdefault{10^{-1}}$ -->
      <g transform="translate(27.1 92.421959) scale(0.1 -0.1)">
       <use xlink:href="#DejaVuSans-31" transform="translate(0 0.684375)"/>
       <use xlink:href="#DejaVuSans-30" transform="translate(63.623047 0.684375)"/>
       <use xlink:href="#DejaVuSans-2212" transform="translate(128.203125 38.965625) scale(0.7)"/>
       <use xlink:href="#DejaVuSans-31" transform="translate(186.855469 38.965625) scale(0.7)"/>
      </g>
     </g>
    </g>
    <g id="ytick_3">
     <g id="line2d_14">
      <defs>
       <path id="ma76b478c46" d="M 0 0 
L -2 0 
" style="stroke: #000000; stroke-width: 0.6"/>
      </defs>
      <g>
       <use xlink:href="#ma76b478c46" x="57.6" y="307.584" style="stroke: #000000; stroke-width: 0.6"/>
      </g>
     </g>
    </g>
    <g id="ytick_4">
     <g id="line2d_15">
      <g>
       <use xlink:href="#ma76b478c46" x="57.6" y="292.404852" style="stroke: #000000; stroke-width: 0.6"/>
      </g>
     </g>
    </g>
    <g id="ytick_5">
     <g id="line2d_16">
      <g>
       <use xlink:href="#ma76b478c46" x="57.6" y="280.002585" style="stroke: #000000; stroke-width: 0.6"/>
      </g>
     </g>
    </g>
    <g id="ytick_6">
     <g id="line2d_17">
      <g>
       <use xlink:href="#ma76b478c46" x="57.6" y="269.516617" style="stroke: #000000; stroke-width: 0.6"/>
      </g>
     </g>
    </g>
    <g id="ytick_7">
     <g id="line2d_18">
      <g>
       <use xlink:href="#ma76b478c46" x="57.6" y="260.433259" style="stroke: #000000; stroke-width: 0.6"/>
      </g>
     </g>
    </g>
    <g id="ytick_8">
     <g id="line2d_19">
      <g>
       <use xlink:href="#ma76b478c46" x="57.6" y="252.42117" style="stroke: #000000; stroke-width: 0.6"/>
      </g>
     </g>
    </g>
    <g id="ytick_9">
     <g id="line2d_20">
      <g>
       <use xlink:href="#ma76b478c46" x="57.6" y="198.10337" style="stroke: #000000; stroke-width: 0.6"/>
      </g>
     </g>
    </g>
    <g id="ytick_10">
     <g id="line2d_21">
      <g>
       <use xlink:href="#ma76b478c46" x="57.6" y="170.521955" style="stroke: #000000; stroke-width: 0.6"/>
      </g>
     </g>
    </g>
    <g id="ytick_11">
     <g id="line2d_22">
      <g>
       <use xlink:href="#ma76b478c46" x="57.6" y="150.95263" style="stroke: #000000; stroke-width: 0.6"/>
      </g>
     </g>
    </g>
    <g id="ytick_12">
     <g id="line2d_23">
      <g>
       <use xlink:href="#ma76b478c46" x="57.6" y="135.773481" style="stroke: #000000; stroke-width: 0.6"/>
      </g>
     </g>
    </g>
    <g id="ytick_13">
     <g id="line2d_24">
      <g>
       <use xlink:href="#ma76b478c46" x="57.6" y="123.371214" style="stroke: #000000; stroke-width: 0.6"/>
      </g>
     </g>
    </g>
    <g id="ytick_14">
     <g id="line2d_25">
      <g>
       <use xlink:href="#ma76b478c46" x="57.6" y="112.885247" style="stroke: #000000; stroke-width: 0.6"/>
      </g>
     </g>
    </g>
    <g id="ytick_15">
     <g id="line2d_26">
      <g>
       <use xlink:href="#ma76b478c46" x="57.6" y="103.801889" style="stroke: #000000; stroke-width: 0.6"/>
      </g>
     </g>
    </g>
    <g id="ytick_16">
     <g id="line2d_27">
      <g>
       <use xlink:href="#ma76b478c46" x="57.6" y="95.789799" style="stroke: #000000; stroke-width: 0.6"/>
      </g>
     </g>
    </g>
    <g id="ytick_17">
     <g id="line2d_28">
      <g>
       <use xlink:href="#ma76b478c46" x="57.6" y="41.472" style="stroke: #000000; stroke-width: 0.6"/>
      </g>
     </g>
    </g>
    <g id="text_6">
     <!-- loss -->
     <g transform="translate(21.020313 184.185812) rotate(-90) scale(0.1 -0.1)">
      <defs>
       <path id="DejaVuSans-6c" d="M 603 4863 
L 1178 4863 
L 1178 0 
L 603 0 
L 603 4863 
z
" transform="scale(0.015625)"/>
       <path id="DejaVuSans-6f" d="M 1959 3097 
Q 1497 3097 1228 2736 
Q 959 2375 959 1747 
Q 959 1119 1226 758 
Q 1494 397 1959 397 
Q 2419 397 2687 759 
Q 2956 1122 2956 1747 
Q 2956 2369 2687 2733 
Q 2419 3097 1959 3097 
z
M 1959 3584 
Q 2709 3584 3137 3096 
Q 3566 2609 3566 1747 
Q 3566 888 3137 398 
Q 2709 -91 1959 -91 
Q 1206 -91 779 398 
Q 353 888 353 1747 
Q 353 2609 779 3096 
Q 1206 3584 1959 3584 
z
" transform="scale(0.015625)"/>
       <path id="DejaVuSans-73" d="M 2834 3397 
L 2834 2853 
Q 2591 2978 2328 3040 
Q 2066 3103 1784 3103 
Q 1356 3103 1142 2972 
Q 928 2841 928 2578 
Q 928 2378 1081 2264 
Q 1234 2150 1697 2047 
L 1894 2003 
Q 2506 1872 2764 1633 
Q 3022 1394 3022 966 
Q 3022 478 2636 193 
Q 2250 -91 1575 -91 
Q 1294 -91 989 -36 
Q 684 19 347 128 
L 347 722 
Q 666 556 975 473 
Q 1284 391 1588 391 
Q 1994 391 2212 530 
Q 2431 669 2431 922 
Q 2431 1156 2273 1281 
Q 2116 1406 1581 1522 
L 1381 1569 
Q 847 1681 609 1914 
Q 372 2147 372 2553 
Q 372 3047 722 3315 
Q 1072 3584 1716 3584 
Q 2034 3584 2315 3537 
Q 2597 3491 2834 3397 
z
" transform="scale(0.015625)"/>
      </defs>
      <use xlink:href="#DejaVuSans-6c"/>
      <use xlink:href="#DejaVuSans-6f" x="27.783203"/>
      <use xlink:href="#DejaVuSans-73" x="88.964844"/>
      <use xlink:href="#DejaVuSans-73" x="141.064453"/>
     </g>
    </g>
   </g>
   <g id="line2d_29">
    <path d="M -1 102.696449 
L 4.584419 106.967456 
L 26.287897 116.953757 
L 35.81783 90.548527 
L 44.641988 112.035922 
L 52.857739 122.17648 
L 60.543596 129.861889 
L 67.763791 116.419121 
L 74.57154 107.51669 
L 81.011429 108.35396 
L 87.121183 97.022036 
L 92.933007 95.831404 
L 98.47461 92.34514 
L 103.770008 101.489835 
L 108.84015 125.829464 
L 113.70342 136.645342 
L 118.376041 130.557755 
L 122.872398 144.994093 
L 127.205308 154.2613 
L 131.386237 137.166748 
L 135.425487 129.045663 
L 139.332346 84.997062 
L 143.115218 74.905527 
L 144.100188 87.111622 
L 147.736987 114.943117 
L 151.266113 108.17345 
L 154.693759 121.553746 
L 158.025597 141.980205 
L 161.266839 155.292781 
L 164.422281 169.480989 
L 167.496349 143.726655 
L 170.493134 142.227539 
L 173.416428 132.265671 
L 176.269748 148.832305 
L 179.056366 134.629072 
L 181.77933 89.832599 
L 184.441483 75.442256 
L 187.045482 94.732283 
L 189.593813 121.367037 
L 192.088807 144.578848 
L 194.532651 146.49735 
L 196.9274 101.160284 
L 199.274988 130.345478 
L 201.577236 127.839671 
L 203.835863 97.425201 
L 206.052491 114.10935 
L 208.228653 82.754514 
L 210.365801 105.102432 
L 212.465308 88.302657 
L 214.528479 113.286427 
L 216.556548 100.779604 
L 218.550691 103.113031 
L 220.512024 136.000772 
L 222.44161 125.178738 
L 224.340458 140.553278 
L 226.209535 113.155041 
L 226.701121 137.710941 
L 228.533829 133.44478 
L 230.338788 131.06099 
L 232.116824 122.507298 
L 233.86873 148.595341 
L 235.595263 79.955721 
L 237.297146 94.607398 
L 238.975074 125.695949 
L 240.629712 143.213589 
L 242.261698 135.418678 
L 243.871643 107.186473 
L 245.460135 109.196956 
L 247.027738 111.433405 
L 248.574994 132.713665 
L 250.102425 101.256579 
L 251.610532 86.641515 
L 253.099799 93.984596 
L 254.57069 80.906993 
L 256.023652 114.929633 
L 257.459119 137.469163 
L 258.877506 125.550319 
L 260.279215 158.376855 
L 261.664633 166.261646 
L 263.034136 56.701921 
L 264.388083 92.008601 
L 265.726826 89.108758 
L 267.050701 123.694426 
L 268.360035 131.880686 
L 269.655144 123.908881 
L 270.936334 143.099756 
L 272.203901 124.369409 
L 273.458132 131.452548 
L 274.699303 143.068286 
L 275.026829 171.030244 
L 276.251858 177.620434 
L 277.464426 197.654423 
L 278.664785 171.419962 
L 279.853177 179.57204 
L 281.029838 127.312793 
L 282.194999 126.523937 
L 283.348882 138.504782 
L 284.491703 118.396602 
L 285.623672 131.777702 
L 286.744993 108.449674 
L 287.855865 87.750173 
L 288.956481 119.372224 
L 290.047028 146.138434 
L 291.127689 146.566649 
L 292.198641 168.365425 
L 293.260058 138.469137 
L 294.312107 125.753645 
L 295.354953 150.894806 
L 296.388756 141.328966 
L 297.41367 104.822362 
L 298.429847 133.821976 
L 299.437436 136.372442 
L 300.436579 112.518375 
L 301.427417 110.627141 
L 302.410088 125.814247 
L 303.384725 153.078184 
L 304.351458 88.827426 
L 305.310414 104.255947 
L 306.261717 136.709456 
L 307.205489 123.079485 
L 308.141848 123.382718 
L 309.07091 113.624639 
L 309.316479 128.481255 
L 310.236466 160.730846 
L 311.149408 143.943336 
L 312.05541 174.185543 
L 312.95458 185.58499 
L 313.847017 186.890566 
L 314.732823 118.555574 
L 315.612096 133.289857 
L 316.48493 128.072964 
L 317.351421 107.84283 
L 318.211658 126.431475 
L 319.065733 158.709162 
L 319.913731 171.483104 
L 320.755741 162.588861 
L 321.591844 172.751863 
L 322.422124 158.371129 
L 323.246662 188.048643 
L 324.065535 150.43575 
L 324.878822 151.267406 
L 325.686598 142.78008 
L 326.488937 126.371412 
L 327.285912 146.246577 
L 328.077594 137.614968 
L 328.864053 122.551673 
L 329.645358 125.123087 
L 330.421575 125.671934 
L 331.192771 150.948652 
L 331.95901 158.129053 
L 332.720355 138.142851 
L 333.476868 132.55504 
L 334.228611 144.990458 
L 334.975643 166.281192 
L 335.718023 168.224362 
L 335.914443 194.717109 
L 336.651018 185.980766 
L 337.383069 193.491871 
L 338.110652 202.106946 
L 338.833821 134.548811 
L 339.55263 114.898705 
L 340.267131 148.532198 
L 340.977374 159.133428 
L 341.683411 174.863021 
L 342.385291 118.140173 
L 343.083063 127.05228 
L 345.152202 175.255636 
L 345.83401 120.886171 
L 347.186038 183.452573 
L 347.856345 167.275132 
L 348.522904 184.052425 
L 349.185757 143.56315 
L 349.844944 116.346632 
L 350.500506 142.180947 
L 351.152483 156.531505 
L 351.800913 119.327371 
L 352.445836 152.608903 
L 353.087288 121.911121 
L 353.725307 156.358256 
L 354.991191 185.260698 
L 355.619128 198.089804 
L 356.243774 200.192833 
L 356.865165 191.141278 
L 357.483333 158.134709 
L 357.646996 186.639335 
L 358.872124 217.991601 
L 359.479998 208.102855 
L 360.084788 185.18116 
L 360.686526 198.412361 
L 361.285241 186.076243 
L 361.880964 107.619886 
L 363.063554 182.111451 
L 363.650478 175.776361 
L 364.234527 186.416769 
L 364.815728 181.813014 
L 365.394109 160.684663 
L 366.542521 198.695398 
L 367.112605 177.479147 
L 368.244657 221.135548 
L 368.806678 186.427117 
L 369.366061 191.586947 
L 370.477014 153.814558 
L 371.028632 160.342273 
L 371.577709 147.013845 
L 372.124269 165.940452 
L 372.668334 179.530763 
L 373.209927 155.788205 
L 374.285788 185.465077 
L 374.820099 207.225961 
L 375.352026 203.103898 
L 375.88159 174.737767 
L 376.548463 210.549748 
L 377.072751 203.65262 
L 377.594742 166.107481 
L 378.114458 173.581376 
L 378.631917 146.615431 
L 379.14714 169.520969 
L 379.660146 163.33098 
L 380.679583 209.344608 
L 381.18605 211.311344 
L 381.690375 170.481614 
L 382.692668 203.358677 
L 383.190672 231.028966 
L 383.686605 181.640612 
L 384.180483 190.661532 
L 384.672323 214.597727 
L 385.162142 206.89435 
L 385.649957 108.063333 
L 386.135784 117.406784 
L 386.619639 142.617557 
L 387.101537 156.790364 
L 387.581496 157.642003 
L 388.535655 196.981713 
L 389.009886 191.575489 
L 389.482237 148.884211 
L 390.421363 210.648791 
L 390.888165 166.268329 
L 391.816322 218.22659 
L 391.939051 237.278032 
L 392.39996 225.648501 
L 392.859094 196.715281 
L 393.316466 194.911306 
L 393.77209 171.731237 
L 394.225979 173.835612 
L 394.678146 190.18814 
L 395.128605 195.103717 
L 396.024449 230.460518 
L 396.469858 222.889557 
L 396.91361 208.909782 
L 397.355716 162.215607 
L 398.235039 196.108382 
L 398.67228 157.734159 
L 399.974463 243.785013 
L 400.405382 214.803103 
L 400.834749 195.41714 
L 401.262575 209.912623 
L 401.688871 174.106455 
L 402.113648 186.954949 
L 402.536917 169.206954 
L 402.958689 172.574446 
L 403.797781 223.044782 
L 404.215122 242.340511 
L 405.045448 266.048285 
L 405.458451 194.273831 
L 405.870029 175.819077 
L 405.979116 189.180275 
L 406.388904 177.97782 
L 406.797287 214.147362 
L 407.204277 234.641615 
L 407.609881 244.479206 
L 408.01411 217.066898 
L 408.416973 219.083721 
L 408.818479 195.66598 
L 409.218638 198.545334 
L 409.617458 160.728069 
L 410.014947 157.344079 
L 410.411116 193.592886 
L 410.805973 194.735155 
L 411.199526 214.386906 
L 411.591784 184.442048 
L 411.982756 201.144838 
L 412.372449 226.548345 
L 412.760873 190.097316 
L 413.148035 201.638191 
L 413.918608 167.440697 
L 414.302035 182.393549 
L 414.684232 157.517293 
L 415.065207 159.115888 
L 415.44497 173.419996 
L 416.200883 227.005956 
L 416.57705 228.703905 
L 416.952034 187.012213 
L 418.06996 235.739637 
L 418.440284 249.764485 
L 418.538458 209.443389 
L 418.907332 240.716496 
L 419.275068 253.197243 
L 419.641673 249.910216 
L 420.007155 237.866314 
L 420.734772 160.548579 
L 421.096923 193.237972 
L 421.457976 197.359273 
L 421.817939 230.147508 
L 422.534621 174.351135 
L 422.891353 201.036918 
L 423.24702 170.269702 
L 423.601629 196.96796 
L 423.955187 210.707845 
L 424.307699 241.500964 
L 424.659172 241.753128 
L 425.009611 210.045978 
L 425.359024 236.862084 
L 425.707415 250.716094 
L 426.054791 252.853066 
L 426.401157 219.547099 
L 426.746521 200.55625 
L 427.776647 231.380965 
L 428.458486 196.176625 
L 428.797948 217.084585 
L 429.136447 214.339386 
L 429.473987 199.367552 
L 429.810574 211.052383 
L 429.89982 230.966264 
L 430.235209 185.63264 
L 430.903169 242.221533 
L 431.23575 216.353411 
L 431.567406 232.840989 
L 431.898142 239.42643 
L 432.227963 186.55786 
L 432.556874 208.20657 
L 433.211986 258.891369 
L 433.538197 237.293361 
L 433.863517 246.47886 
L 434.187952 246.848214 
L 434.834186 212.081322 
L 435.155994 231.569033 
L 435.476935 235.509564 
L 435.797015 248.635547 
L 436.116237 204.499421 
L 436.434607 208.915616 
L 436.752129 237.770006 
L 437.068808 213.540643 
L 437.699652 250.509696 
L 438.013827 226.649461 
L 438.327175 220.363253 
L 438.639703 171.035448 
L 438.951413 190.59329 
L 439.26231 194.20862 
L 439.572399 229.326116 
L 439.881683 235.349534 
L 440.190166 218.47509 
L 440.271973 226.981261 
L 440.57945 244.158477 
L 440.886136 209.114458 
L 441.192034 238.483052 
L 441.49715 237.996506 
L 441.801487 212.454327 
L 442.105048 218.693934 
L 442.407839 169.572918 
L 442.709863 193.499044 
L 443.011123 205.496148 
L 443.311624 185.747801 
L 443.611369 202.08325 
L 443.910363 231.876452 
L 444.208608 232.134445 
L 444.80287 161.748354 
L 445.394184 225.311608 
L 445.688745 226.463514 
L 445.982579 240.394723 
L 446.275691 266.899773 
L 446.568085 262.707439 
L 446.859763 184.988126 
L 447.150728 195.444916 
L 447.440986 199.583582 
L 447.730538 185.963958 
L 448.019389 221.891689 
L 448.307542 203.786342 
L 448.595 214.563257 
L 449.167844 268.396833 
L 449.453237 285.933675 
L 449.737949 277.001831 
L 449.813461 222.992463 
L 450.380494 263.254606 
L 450.663002 267.808655 
L 451.506532 198.9286 
L 451.786387 234.076531 
L 452.344135 207.226287 
L 452.622033 204.328052 
L 453.175893 261.206275 
L 453.451862 270.67607 
L 453.727192 229.255037 
L 454.001889 252.087864 
L 454.275954 257.279481 
L 454.54939 282.947044 
L 454.8222 286.744701 
L 455.094388 237.445986 
L 455.365955 221.697874 
L 455.636906 244.907355 
L 455.907241 232.893604 
L 456.176965 174.117005 
L 456.982495 245.497355 
L 457.2498 192.114869 
L 457.516507 198.861481 
L 457.782619 174.47961 
L 458.048137 206.746049 
L 458.577407 243.593837 
L 458.647525 264.446957 
L 458.911126 266.292337 
L 459.174146 281.972874 
L 459.436587 236.536613 
L 459.698451 241.017825 
L 459.959741 238.56194 
L 460.48061 264.950705 
L 460.740194 263.853217 
L 460.999213 245.922358 
L 461.257671 212.80155 
L 461.772911 269.328405 
L 461.8 267.27153 
" clip-path="url(#pff9fe1bed2)" style="fill: none; stroke: #1f77b4; stroke-opacity: 0.4; stroke-linecap: square"/>
   </g>
   <g id="line2d_30">
    <path d="M -1 58.310811 
L 4.584419 37.153253 
L 15.929398 45.986984 
L 26.287897 60.480177 
L 35.81783 94.302273 
L 44.641988 123.024115 
L 52.857739 95.441817 
L 60.543596 58.803204 
L 67.763791 87.304528 
L 74.57154 102.255638 
L 81.011429 108.723824 
L 87.121183 135.373143 
L 92.933007 154.08351 
L 98.47461 137.070243 
L 103.770008 118.173471 
L 108.84015 118.746836 
L 113.70342 142.410521 
L 118.376041 160.658603 
L 122.872398 152.763462 
L 127.205308 87.632628 
L 131.386237 111.452206 
L 135.425487 118.365883 
L 139.332346 118.586638 
L 143.115218 135.356498 
L 144.100188 131.621557 
L 147.736987 148.217388 
L 151.266113 165.668412 
L 154.693759 144.339669 
L 158.025597 126.17356 
L 161.266839 152.222774 
L 164.422281 133.380391 
L 167.496349 154.390635 
L 170.493134 134.740767 
L 173.416428 149.758973 
L 176.269748 136.610281 
L 179.056366 134.166584 
L 181.77933 147.07096 
L 184.441483 113.442534 
L 187.045482 139.678466 
L 189.593813 160.947722 
L 192.088807 176.309553 
L 194.532651 151.820379 
L 196.9274 162.841007 
L 199.274988 155.343013 
L 201.577236 163.850759 
L 203.835863 163.978848 
L 206.052491 167.842747 
L 208.228653 183.632623 
L 210.365801 175.148745 
L 212.465308 177.026808 
L 214.528479 167.571753 
L 216.556548 179.958572 
L 218.550691 185.399868 
L 220.512024 148.152099 
L 222.44161 129.674142 
L 224.340458 159.365066 
L 226.209535 161.758663 
L 226.701121 114.853513 
L 228.533829 105.538426 
L 230.338788 134.305794 
L 232.116824 149.621248 
L 233.86873 163.161888 
L 235.595263 184.760231 
L 237.297146 149.609768 
L 238.975074 122.334872 
L 240.629712 148.811644 
L 242.261698 168.964485 
L 243.871643 183.036237 
L 245.460135 148.744394 
L 247.027738 106.684348 
L 248.574994 122.055811 
L 250.102425 147.22725 
L 251.610532 169.63942 
L 253.099799 176.440486 
L 254.57069 194.322937 
L 256.023652 147.372563 
L 258.877506 169.471236 
L 260.279215 145.961272 
L 261.664633 127.531117 
L 263.034136 144.083097 
L 264.388083 171.915592 
L 265.726826 188.660512 
L 267.050701 206.736921 
L 268.360035 209.25142 
L 269.655144 153.550861 
L 270.936334 114.873356 
L 272.203901 148.020626 
L 273.458132 141.195039 
L 274.699303 162.503183 
L 275.026829 176.177097 
L 276.251858 143.769656 
L 277.464426 149.089603 
L 278.664785 174.605805 
L 279.853177 194.819354 
L 281.029838 210.261978 
L 282.194999 216.833318 
L 283.348882 199.283352 
L 284.491703 154.245599 
L 285.623672 166.157578 
L 286.744993 175.519113 
L 287.855865 193.091913 
L 288.956481 200.572813 
L 290.047028 160.366264 
L 291.127689 163.076694 
L 292.198641 166.440046 
L 293.260058 159.894987 
L 295.354953 201.58944 
L 296.388756 212.597154 
L 297.41367 153.469711 
L 298.429847 126.219927 
L 299.437436 158.538641 
L 300.436579 177.455418 
L 301.427417 191.045009 
L 302.410088 198.235727 
L 303.384725 209.559988 
L 304.351458 185.07521 
L 305.310414 175.291128 
L 306.261717 142.435371 
L 307.205489 145.420013 
L 308.141848 167.032954 
L 309.07091 168.860171 
L 309.316479 175.180752 
L 310.236466 162.795674 
L 311.149408 124.224078 
L 312.05541 154.886089 
L 312.95458 176.654952 
L 313.847017 150.032034 
L 314.732823 149.993748 
L 315.612096 158.99943 
L 316.48493 163.111967 
L 317.351421 178.000251 
L 318.211658 170.601867 
L 319.065733 159.297302 
L 320.755741 169.549976 
L 321.591844 182.780844 
L 322.422124 153.397031 
L 323.246662 179.890113 
L 324.065535 192.349975 
L 324.878822 170.341042 
L 326.488937 202.394164 
L 328.077594 165.205906 
L 328.864053 141.246761 
L 329.645358 172.658408 
L 330.421575 189.024351 
L 331.192771 157.815239 
L 331.95901 185.524419 
L 332.720355 189.054944 
L 333.476868 174.760907 
L 334.228611 189.49121 
L 334.975643 159.406055 
L 335.718023 177.311894 
L 335.914443 190.879486 
L 336.651018 205.755183 
L 337.383069 150.395838 
L 338.110652 155.520057 
L 338.833821 169.62833 
L 339.55263 195.031713 
L 340.267131 163.64449 
L 340.977374 186.504662 
L 341.683411 189.064718 
L 342.385291 208.08021 
L 343.083063 172.934064 
L 343.776774 197.217637 
L 344.466472 210.574502 
L 345.152202 193.143093 
L 345.83401 195.861116 
L 346.511941 213.521207 
L 347.186038 219.647228 
L 347.856345 154.2856 
L 348.522904 148.907736 
L 349.185757 152.145143 
L 349.844944 164.788529 
L 350.500506 142.782872 
L 351.152483 165.934514 
L 351.800913 155.146878 
L 352.445836 183.659624 
L 353.087288 186.254511 
L 353.725307 168.355333 
L 354.359929 183.731208 
L 354.991191 189.026355 
L 355.619128 160.597474 
L 356.243774 184.426872 
L 356.865165 202.605185 
L 357.483333 195.661997 
L 358.261134 177.927825 
L 358.872124 202.806061 
L 359.479998 203.081982 
L 360.084788 173.336209 
L 360.686526 195.924772 
L 361.285241 182.107321 
L 361.880964 196.791975 
L 362.473726 202.721683 
L 363.063554 204.064494 
L 363.650478 188.480147 
L 364.234527 181.336312 
L 364.815728 156.138324 
L 365.394109 151.611109 
L 365.969698 177.53505 
L 366.542521 179.884255 
L 367.112605 192.229053 
L 367.679975 208.782331 
L 368.244657 216.074497 
L 368.806678 203.739508 
L 370.477014 233.129581 
L 371.028632 186.68406 
L 372.124269 220.725356 
L 372.668334 180.146778 
L 373.209927 199.458538 
L 373.749071 203.31885 
L 374.285788 208.83593 
L 374.820099 161.027401 
L 375.352026 156.613265 
L 375.88159 185.377022 
L 376.02186 200.316046 
L 376.548463 209.199184 
L 377.072751 190.518861 
L 377.594742 188.186832 
L 378.114458 164.545256 
L 378.631917 173.260434 
L 379.14714 187.820155 
L 379.660146 209.240068 
L 380.170954 217.966255 
L 380.679583 220.229083 
L 381.18605 159.378642 
L 381.690375 184.610168 
L 382.192575 159.350137 
L 382.692668 181.483841 
L 383.190672 193.395445 
L 383.686605 213.551206 
L 384.180483 216.507785 
L 384.672323 223.54299 
L 385.162142 213.210835 
L 385.649957 213.306461 
L 386.135784 226.600459 
L 386.619639 194.435224 
L 387.101537 204.151533 
L 387.581496 209.258102 
L 388.05953 215.654836 
L 388.535655 185.875717 
L 389.009886 209.205461 
L 389.482237 220.029362 
L 389.952725 185.406418 
L 390.421363 193.639393 
L 390.888165 187.766297 
L 391.353147 210.225201 
L 391.816322 220.821012 
L 391.939051 185.164972 
L 392.39996 190.28203 
L 392.859094 201.627307 
L 393.316466 144.985792 
L 394.225979 194.362235 
L 394.678146 189.201735 
L 395.128605 211.367962 
L 395.577368 211.720608 
L 396.024449 189.064183 
L 396.469858 212.086056 
L 396.91361 220.595052 
L 397.355716 223.214403 
L 398.235039 229.500218 
L 398.67228 188.242185 
L 399.107924 210.55102 
L 399.974463 232.987919 
L 400.405382 218.975204 
L 400.834749 187.468288 
L 401.262575 190.223497 
L 401.688871 167.892845 
L 402.113648 167.694326 
L 402.536917 151.146428 
L 402.958689 167.715949 
L 403.378973 155.201864 
L 403.797781 174.780137 
L 404.215122 202.838518 
L 404.631008 206.595851 
L 405.045448 224.468584 
L 405.458451 220.668465 
L 405.870029 187.919769 
L 405.979116 205.489486 
L 406.388904 190.325802 
L 406.797287 213.513358 
L 407.204277 196.495019 
L 407.609881 208.623359 
L 408.01411 175.982554 
L 408.818479 205.688181 
L 409.218638 226.695451 
L 409.617458 205.080972 
L 410.014947 202.739633 
L 410.411116 221.738792 
L 410.805973 212.488571 
L 411.199526 185.314057 
L 411.982756 224.854947 
L 412.372449 211.041029 
L 412.760873 223.742716 
L 413.148035 158.692094 
L 413.918608 212.716768 
L 414.302035 204.07863 
L 414.684232 225.39639 
L 415.065207 186.260737 
L 415.44497 176.573781 
L 415.823526 205.555067 
L 416.200883 224.139424 
L 416.57705 236.075906 
L 416.952034 175.185323 
L 417.325842 203.109034 
L 417.698482 212.070612 
L 418.06996 231.011983 
L 418.440284 235.13488 
L 418.538458 182.636752 
L 419.275068 222.605523 
L 419.641673 217.245374 
L 420.007155 217.628471 
L 420.371519 229.194551 
L 420.734772 201.295968 
L 421.096923 225.680442 
L 421.457976 242.175979 
L 421.817939 215.850755 
L 422.176819 224.098886 
L 422.534621 229.688865 
L 422.891353 241.498571 
L 423.24702 197.575682 
L 423.601629 219.541809 
L 423.955187 228.087941 
L 424.307699 200.923582 
L 424.659172 202.225942 
L 425.009611 220.507549 
L 425.359024 201.068595 
L 425.707415 207.110463 
L 426.054791 225.136954 
L 426.401157 230.480485 
L 426.746521 213.180971 
L 427.090886 205.191796 
L 427.776647 221.822528 
L 428.118054 227.782419 
L 428.458486 231.371167 
L 428.797948 241.974642 
L 429.136447 242.103753 
L 429.473987 234.67586 
L 429.810574 231.988024 
L 429.89982 210.983495 
L 430.235209 212.110456 
L 430.569657 223.626908 
L 430.903169 208.200722 
L 431.23575 229.225153 
L 431.567406 199.296879 
L 431.898142 216.910774 
L 432.227963 224.468258 
L 432.556874 193.84254 
L 432.88488 192.375458 
L 433.211986 199.068999 
L 433.863517 232.904496 
L 434.187952 240.269314 
L 434.511507 204.11115 
L 434.834186 223.137309 
L 435.155994 183.922936 
L 435.476935 190.512646 
L 436.116237 221.170011 
L 436.434607 228.922988 
L 436.752129 223.186056 
L 437.068808 241.318574 
L 437.384647 242.09886 
L 438.013827 246.554021 
L 438.327175 247.968928 
L 438.639703 232.227236 
L 439.26231 245.449384 
L 439.572399 216.542876 
L 440.271973 247.472227 
L 440.57945 229.624987 
L 440.886136 235.874379 
L 441.49715 199.488884 
L 441.801487 214.422502 
L 442.105048 220.993493 
L 442.407839 224.568463 
L 443.611369 264.810073 
L 443.910363 260.608358 
L 444.208608 246.559596 
L 444.506109 199.725853 
L 444.80287 222.84309 
L 445.098893 233.33275 
L 445.394184 223.430465 
L 445.688745 237.634827 
L 445.982579 232.222169 
L 446.275691 236.969815 
L 446.568085 234.497684 
L 446.859763 238.300534 
L 447.150728 218.171428 
L 447.730538 244.395087 
L 448.019389 237.365328 
L 448.307542 247.687003 
L 448.595 227.235092 
L 448.881766 236.871151 
L 449.167844 200.090099 
L 449.813461 253.157029 
L 450.097315 224.257402 
L 450.380494 218.760063 
L 450.663002 230.519451 
L 450.944843 235.738513 
L 451.226018 247.927758 
L 451.506532 254.722613 
L 451.786387 220.313949 
L 452.065587 232.093515 
L 452.344135 225.068003 
L 452.899285 251.10499 
L 453.175893 252.705307 
L 453.451862 258.659855 
L 453.727192 246.431813 
L 454.001889 252.708496 
L 454.275954 251.938436 
L 454.54939 225.487291 
L 455.094388 256.815667 
L 455.365955 203.679039 
L 455.907241 239.584828 
L 456.176965 246.798038 
L 456.446081 207.717386 
L 456.71459 231.624088 
L 456.982495 220.067515 
L 457.2498 239.103335 
L 457.516507 233.897944 
L 457.782619 242.119061 
L 458.048137 227.389707 
L 458.577407 240.286206 
L 458.647525 253.815408 
L 458.911126 251.252836 
L 459.174146 260.915074 
L 459.436587 256.849418 
L 459.698451 259.77892 
L 459.959741 244.682014 
L 460.22046 192.526256 
L 460.48061 193.922728 
L 460.740194 219.490821 
L 460.999213 203.24672 
L 461.515569 244.373467 
L 461.772911 253.612389 
L 461.8 252.823191 
" clip-path="url(#pff9fe1bed2)" style="fill: none; stroke: #ff7f0e; stroke-opacity: 0.4; stroke-linecap: square"/>
   </g>
   <g id="line2d_31">
    <path d="M -1 117.727621 
L 4.584419 128.513331 
L 15.929398 88.819008 
L 26.287897 116.563082 
L 35.81783 135.138307 
L 44.641988 150.113591 
L 52.857739 157.585489 
L 60.543596 160.576478 
L 67.763791 120.465959 
L 74.57154 121.677427 
L 81.011429 142.669443 
L 87.121183 130.219758 
L 92.933007 128.890212 
L 98.47461 136.585062 
L 103.770008 150.200529 
L 108.84015 113.84032 
L 113.70342 125.503529 
L 118.376041 116.741975 
L 122.872398 125.849093 
L 127.205308 144.068383 
L 131.386237 109.647518 
L 135.425487 139.539333 
L 139.332346 119.904631 
L 143.115218 129.858949 
L 144.100188 150.855235 
L 147.736987 158.852922 
L 151.266113 175.243549 
L 154.693759 159.637768 
L 158.025597 113.0625 
L 161.266839 125.185104 
L 164.422281 145.803094 
L 167.496349 137.291015 
L 170.493134 154.739457 
L 173.416428 103.31707 
L 176.269748 133.237309 
L 179.056366 133.731824 
L 181.77933 155.667444 
L 184.441483 170.995357 
L 187.045482 170.116087 
L 189.593813 135.523839 
L 192.088807 133.706528 
L 194.532651 155.24257 
L 196.9274 170.215567 
L 199.274988 177.933614 
L 201.577236 183.156387 
L 203.835863 183.573283 
L 206.052491 175.116768 
L 208.228653 191.530453 
L 210.365801 189.892382 
L 212.465308 190.444021 
L 214.528479 167.297575 
L 216.556548 180.55816 
L 218.550691 187.809495 
L 220.512024 182.459495 
L 222.44161 162.786759 
L 224.340458 138.465222 
L 226.209535 152.074414 
L 226.701121 169.374352 
L 228.533829 166.696333 
L 232.116824 193.872375 
L 235.595263 163.585389 
L 237.297146 180.549115 
L 238.975074 183.383242 
L 240.629712 193.677282 
L 242.261698 197.52436 
L 243.871643 191.263065 
L 245.460135 114.546887 
L 247.027738 115.719757 
L 248.574994 113.361261 
L 250.102425 139.732013 
L 251.610532 159.744378 
L 253.099799 152.665376 
L 254.57069 132.349317 
L 256.023652 157.329954 
L 257.459119 168.958522 
L 258.877506 161.09118 
L 260.279215 173.344322 
L 261.664633 177.160043 
L 263.034136 159.044456 
L 264.388083 183.354638 
L 265.726826 147.995853 
L 267.050701 162.638487 
L 268.360035 184.353168 
L 269.655144 164.242899 
L 270.936334 165.045805 
L 272.203901 184.180931 
L 273.458132 165.900289 
L 274.699303 173.296247 
L 275.026829 181.056286 
L 276.251858 141.836036 
L 277.464426 148.117775 
L 278.664785 132.133544 
L 279.853177 151.361988 
L 281.029838 164.720602 
L 282.194999 110.988645 
L 283.348882 144.586987 
L 284.491703 141.309195 
L 286.744993 183.355228 
L 287.855865 154.343039 
L 288.956481 174.726778 
L 290.047028 144.893269 
L 291.127689 166.147795 
L 292.198641 183.512937 
L 293.260058 174.374358 
L 294.312107 183.674522 
L 295.354953 189.245548 
L 296.388756 203.55202 
L 297.41367 208.157854 
L 298.429847 159.949945 
L 299.437436 171.32505 
L 300.436579 177.211709 
L 301.427417 164.44146 
L 302.410088 135.653348 
L 303.384725 164.059537 
L 304.351458 169.876228 
L 305.310414 191.907604 
L 306.261717 197.00788 
L 307.205489 148.395537 
L 308.141848 175.204831 
L 309.07091 149.969329 
L 309.316479 153.063746 
L 310.236466 181.240169 
L 311.149408 160.30905 
L 312.05541 187.776497 
L 312.95458 205.848348 
L 313.847017 211.081683 
L 314.732823 160.809958 
L 315.612096 147.312743 
L 316.48493 166.924664 
L 317.351421 192.337663 
L 318.211658 197.361909 
L 319.065733 167.733317 
L 319.913731 164.313522 
L 320.755741 153.898085 
L 321.591844 175.582589 
L 322.422124 185.81428 
L 323.246662 184.736855 
L 324.065535 187.850848 
L 324.878822 188.398104 
L 325.686598 208.387405 
L 326.488937 177.342796 
L 327.285912 200.083555 
L 328.077594 208.790131 
L 328.864053 209.490077 
L 329.645358 184.363278 
L 330.421575 202.622897 
L 331.192771 189.173497 
L 331.95901 202.606141 
L 332.720355 203.187917 
L 334.228611 140.301869 
L 334.975643 152.719949 
L 335.718023 181.48487 
L 335.914443 159.280548 
L 336.651018 177.013772 
L 337.383069 168.795749 
L 338.110652 186.720401 
L 338.833821 184.903207 
L 339.55263 188.93008 
L 340.267131 200.129845 
L 340.977374 199.733819 
L 341.683411 182.098815 
L 342.385291 204.215448 
L 343.083063 217.432961 
L 343.776774 189.685644 
L 344.466472 207.837766 
L 345.152202 219.245865 
L 345.83401 221.05507 
L 346.511941 204.847484 
L 347.186038 212.816172 
L 347.856345 143.995823 
L 348.522904 167.09904 
L 349.185757 159.051666 
L 349.844944 167.47419 
L 350.500506 189.290964 
L 351.152483 168.028531 
L 351.800913 165.691838 
L 352.445836 139.392274 
L 353.087288 172.181947 
L 353.725307 199.071736 
L 354.359929 148.757455 
L 354.991191 164.470784 
L 355.619128 183.497236 
L 356.243774 179.651848 
L 356.865165 195.885491 
L 357.483333 207.668145 
L 357.646996 191.229255 
L 358.261134 182.772218 
L 358.872124 190.494848 
L 359.479998 203.352509 
L 360.084788 207.917665 
L 360.686526 197.845065 
L 361.880964 225.547538 
L 362.473726 155.317448 
L 363.063554 172.76435 
L 364.234527 151.693915 
L 364.815728 177.843376 
L 365.394109 159.703322 
L 365.969698 157.971622 
L 366.542521 149.300694 
L 367.112605 174.281709 
L 367.679975 186.879363 
L 368.244657 168.814741 
L 368.806678 193.027208 
L 369.366061 202.536784 
L 370.477014 232.918304 
L 371.577709 165.773132 
L 372.668334 216.120449 
L 373.209927 207.654448 
L 373.749071 190.994096 
L 374.285788 207.174188 
L 374.820099 151.071744 
L 375.352026 124.660481 
L 376.02186 158.292231 
L 376.548463 168.810331 
L 377.072751 195.845065 
L 377.594742 205.954481 
L 378.114458 223.76897 
L 378.631917 234.86808 
L 379.14714 193.57984 
L 379.660146 193.559383 
L 380.170954 212.975335 
L 380.679583 218.560487 
L 381.18605 163.223146 
L 381.690375 188.2912 
L 382.192575 198.934772 
L 382.692668 194.10927 
L 383.190672 181.676926 
L 383.686605 179.056326 
L 384.180483 190.246187 
L 384.672323 172.616889 
L 385.162142 187.525172 
L 385.649957 177.96428 
L 386.135784 176.652337 
L 386.619639 200.82901 
L 387.101537 199.769652 
L 387.581496 223.453903 
L 388.05953 199.446148 
L 388.535655 219.384459 
L 389.009886 211.849521 
L 389.952725 230.568878 
L 390.421363 196.987808 
L 390.888165 220.720147 
L 391.353147 238.0607 
L 391.816322 218.482246 
L 391.939051 233.90122 
L 392.39996 238.986378 
L 392.859094 248.082839 
L 393.316466 198.485441 
L 393.77209 210.109783 
L 394.225979 227.19817 
L 394.678146 214.688046 
L 395.128605 187.470593 
L 395.577368 194.012691 
L 396.024449 215.575061 
L 396.469858 223.178115 
L 396.91361 225.681849 
L 397.355716 208.304305 
L 397.796188 224.719136 
L 398.235039 236.856477 
L 399.107924 248.044914 
L 399.541981 240.940086 
L 399.974463 220.776364 
L 400.405382 224.488472 
L 400.834749 223.349855 
L 401.262575 240.61768 
L 401.688871 234.042458 
L 402.113648 216.348773 
L 402.536917 228.799805 
L 402.958689 232.158517 
L 403.378973 208.93312 
L 403.797781 226.322399 
L 404.215122 229.980701 
L 404.631008 196.554476 
L 405.045448 211.722141 
L 405.458451 234.683249 
L 405.870029 213.097585 
L 405.979116 217.500833 
L 406.388904 213.705089 
L 406.797287 190.08886 
L 407.609881 234.753341 
L 408.01411 234.262414 
L 408.416973 223.179355 
L 409.218638 185.061051 
L 409.617458 181.493611 
L 410.014947 213.181728 
L 410.411116 212.861578 
L 410.805973 154.165926 
L 411.199526 169.691476 
L 411.591784 202.137238 
L 411.982756 188.006042 
L 412.372449 197.221435 
L 413.148035 240.160581 
L 413.533944 186.863855 
L 413.918608 217.318144 
L 414.302035 190.960022 
L 415.065207 237.270408 
L 415.44497 223.407228 
L 415.823526 216.186919 
L 416.200883 196.839935 
L 416.57705 218.46211 
L 417.325842 245.178767 
L 417.698482 241.59579 
L 418.06996 248.613454 
L 418.440284 225.660433 
L 418.538458 210.149988 
L 418.907332 220.801397 
L 419.275068 221.825762 
L 419.641673 198.811565 
L 420.007155 211.098967 
L 420.371519 235.891057 
L 420.734772 243.035467 
L 421.096923 240.847601 
L 421.457976 226.235224 
L 421.817939 224.994038 
L 422.176819 247.941323 
L 422.534621 254.701387 
L 422.891353 256.609314 
L 423.24702 251.15062 
L 423.601629 258.015745 
L 423.955187 204.050924 
L 424.307699 211.410803 
L 424.659172 206.421529 
L 425.009611 214.138411 
L 425.359024 235.76763 
L 425.707415 248.707181 
L 426.054791 249.483861 
L 426.401157 250.90647 
L 426.746521 260.169409 
L 427.090886 246.059741 
L 427.43426 243.139991 
L 428.118054 258.372774 
L 428.458486 257.42137 
L 429.136447 228.333527 
L 429.473987 222.989262 
L 429.810574 231.503521 
L 429.89982 186.219409 
L 430.235209 217.384089 
L 430.569657 204.519818 
L 430.903169 228.451894 
L 431.23575 225.202682 
L 431.567406 248.0091 
L 431.898142 246.091912 
L 432.227963 218.164534 
L 432.556874 237.304646 
L 432.88488 237.028639 
L 433.211986 200.35533 
L 433.538197 216.023687 
L 434.187952 257.718357 
L 434.511507 255.469847 
L 434.834186 234.578644 
L 435.155994 231.996548 
L 435.476935 247.463508 
L 435.797015 172.048211 
L 436.752129 246.153316 
L 437.068808 233.157404 
L 437.384647 250.026385 
L 437.699652 230.413772 
L 438.013827 243.088855 
L 438.327175 233.510846 
L 438.639703 247.015613 
L 439.26231 200.056361 
L 439.572399 190.749581 
L 439.881683 223.317073 
L 440.190166 241.719543 
L 440.271973 236.622831 
L 440.886136 269.679052 
L 441.192034 239.445416 
L 441.49715 225.900246 
L 441.801487 232.323186 
L 442.105048 226.832374 
L 442.407839 235.779012 
L 442.709863 237.778494 
L 443.011123 251.309439 
L 443.311624 243.910949 
L 443.611369 253.613347 
L 443.910363 255.980931 
L 444.208608 264.769774 
L 444.506109 252.940021 
L 444.80287 260.438021 
L 445.098893 227.861669 
L 445.394184 226.312337 
L 445.688745 242.1325 
L 445.982579 216.297421 
L 446.568085 250.359567 
L 446.859763 267.450844 
L 447.150728 251.325742 
L 447.440986 253.333152 
L 447.730538 214.471041 
L 448.019389 228.897069 
L 448.307542 237.549421 
L 448.595 228.435008 
L 448.881766 213.02509 
L 449.167844 231.329687 
L 449.453237 230.051002 
L 449.737949 246.940549 
L 449.813461 244.494766 
L 450.097315 265.999797 
L 450.663002 286.056714 
L 451.226018 278.479312 
L 451.506532 271.84012 
L 451.786387 247.158201 
L 452.065587 254.893075 
L 452.344135 243.105929 
L 452.899285 263.740801 
L 453.175893 266.333923 
L 453.727192 280.170627 
L 454.001889 279.488222 
L 454.275954 253.796988 
L 454.54939 271.927637 
L 454.8222 281.287654 
L 455.094388 249.872397 
L 455.365955 238.253181 
L 455.907241 271.1874 
L 456.176965 284.412434 
L 456.446081 275.345168 
L 456.71459 277.564684 
L 457.2498 226.320161 
L 457.516507 249.957702 
L 457.782619 229.108586 
L 458.048137 244.857305 
L 458.313066 238.302878 
L 458.577407 245.382357 
L 458.647525 207.236799 
L 458.911126 236.355902 
L 459.174146 242.434409 
L 459.436587 261.512467 
L 459.698451 252.16775 
L 459.959741 272.084966 
L 460.22046 264.277779 
L 460.48061 262.106779 
L 460.740194 222.821815 
L 461.257671 264.674594 
L 461.515569 268.532214 
L 461.8 278.039667 
L 461.8 278.039667 
" clip-path="url(#pff9fe1bed2)" style="fill: none; stroke: #2ca02c; stroke-opacity: 0.4; stroke-linecap: square"/>
   </g>
   <g id="patch_3">
    <path d="M 57.6 307.584 
L 57.6 41.472 
" style="fill: none; stroke: #000000; stroke-width: 0.8; stroke-linejoin: miter; stroke-linecap: square"/>
   </g>
   <g id="patch_4">
    <path d="M 414.72 307.584 
L 414.72 41.472 
" style="fill: none; stroke: #000000; stroke-width: 0.8; stroke-linejoin: miter; stroke-linecap: square"/>
   </g>
   <g id="patch_5">
    <path d="M 57.6 307.584 
L 414.72 307.584 
" style="fill: none; stroke: #000000; stroke-width: 0.8; stroke-linejoin: miter; stroke-linecap: square"/>
   </g>
   <g id="patch_6">
    <path d="M 57.6 41.472 
L 414.72 41.472 
" style="fill: none; stroke: #000000; stroke-width: 0.8; stroke-linejoin: miter; stroke-linecap: square"/>
   </g>
   <g id="text_7">
    <!-- 2025-02-21-00:25:22 -->
    <g transform="translate(172.178438 35.472) scale(0.12 -0.12)">
     <defs>
      <path id="DejaVuSans-35" d="M 691 4666 
L 3169 4666 
L 3169 4134 
L 1269 4134 
L 1269 2991 
Q 1406 3038 1543 3061 
Q 1681 3084 1819 3084 
Q 2600 3084 3056 2656 
Q 3513 2228 3513 1497 
Q 3513 744 3044 326 
Q 2575 -91 1722 -91 
Q 1428 -91 1123 -41 
Q 819 9 494 109 
L 494 744 
Q 775 591 1075 516 
Q 1375 441 1709 441 
Q 2250 441 2565 725 
Q 2881 1009 2881 1497 
Q 2881 1984 2565 2268 
Q 2250 2553 1709 2553 
Q 1456 2553 1204 2497 
Q 953 2441 691 2322 
L 691 4666 
z
" transform="scale(0.015625)"/>
      <path id="DejaVuSans-2d" d="M 313 2009 
L 1997 2009 
L 1997 1497 
L 313 1497 
L 313 2009 
z
" transform="scale(0.015625)"/>
      <path id="DejaVuSans-3a" d="M 750 794 
L 1409 794 
L 1409 0 
L 750 0 
L 750 794 
z
M 750 3309 
L 1409 3309 
L 1409 2516 
L 750 2516 
L 750 3309 
z
" transform="scale(0.015625)"/>
     </defs>
     <use xlink:href="#DejaVuSans-32"/>
     <use xlink:href="#DejaVuSans-30" x="63.623047"/>
     <use xlink:href="#DejaVuSans-32" x="127.246094"/>
     <use xlink:href="#DejaVuSans-35" x="190.869141"/>
     <use xlink:href="#DejaVuSans-2d" x="254.492188"/>
     <use xlink:href="#DejaVuSans-30" x="290.576172"/>
     <use xlink:href="#DejaVuSans-32" x="354.199219"/>
     <use xlink:href="#DejaVuSans-2d" x="417.822266"/>
     <use xlink:href="#DejaVuSans-32" x="453.90625"/>
     <use xlink:href="#DejaVuSans-31" x="517.529297"/>
     <use xlink:href="#DejaVuSans-2d" x="581.152344"/>
     <use xlink:href="#DejaVuSans-30" x="617.236328"/>
     <use xlink:href="#DejaVuSans-30" x="680.859375"/>
     <use xlink:href="#DejaVuSans-3a" x="744.482422"/>
     <use xlink:href="#DejaVuSans-32" x="778.173828"/>
     <use xlink:href="#DejaVuSans-35" x="841.796875"/>
     <use xlink:href="#DejaVuSans-3a" x="905.419922"/>
     <use xlink:href="#DejaVuSans-32" x="939.111328"/>
     <use xlink:href="#DejaVuSans-32" x="1002.734375"/>
    </g>
   </g>
   <g id="legend_1">
    <g id="patch_7">
     <path d="M 64.6 302.584 
L 190.723438 302.584 
Q 192.723438 302.584 192.723438 300.584 
L 192.723438 256.71525 
Q 192.723438 254.71525 190.723438 254.71525 
L 64.6 254.71525 
Q 62.6 254.71525 62.6 256.71525 
L 62.6 300.584 
Q 62.6 302.584 64.6 302.584 
z
" style="fill: #ffffff; opacity: 0.8; stroke: #cccccc; stroke-linejoin: miter"/>
    </g>
    <g id="line2d_32">
     <path d="M 66.6 262.813687 
L 76.6 262.813687 
L 86.6 262.813687 
" style="fill: none; stroke: #1f77b4; stroke-opacity: 0.4; stroke-linecap: square"/>
    </g>
    <g id="text_8">
     <!-- SchNet eval_loss -->
     <g transform="translate(94.6 266.313687) scale(0.1 -0.1)">
      <defs>
       <path id="DejaVuSans-53" d="M 3425 4513 
L 3425 3897 
Q 3066 4069 2747 4153 
Q 2428 4238 2131 4238 
Q 1616 4238 1336 4038 
Q 1056 3838 1056 3469 
Q 1056 3159 1242 3001 
Q 1428 2844 1947 2747 
L 2328 2669 
Q 3034 2534 3370 2195 
Q 3706 1856 3706 1288 
Q 3706 609 3251 259 
Q 2797 -91 1919 -91 
Q 1588 -91 1214 -16 
Q 841 59 441 206 
L 441 856 
Q 825 641 1194 531 
Q 1563 422 1919 422 
Q 2459 422 2753 634 
Q 3047 847 3047 1241 
Q 3047 1584 2836 1778 
Q 2625 1972 2144 2069 
L 1759 2144 
Q 1053 2284 737 2584 
Q 422 2884 422 3419 
Q 422 4038 858 4394 
Q 1294 4750 2059 4750 
Q 2388 4750 2728 4690 
Q 3069 4631 3425 4513 
z
" transform="scale(0.015625)"/>
       <path id="DejaVuSans-63" d="M 3122 3366 
L 3122 2828 
Q 2878 2963 2633 3030 
Q 2388 3097 2138 3097 
Q 1578 3097 1268 2742 
Q 959 2388 959 1747 
Q 959 1106 1268 751 
Q 1578 397 2138 397 
Q 2388 397 2633 464 
Q 2878 531 3122 666 
L 3122 134 
Q 2881 22 2623 -34 
Q 2366 -91 2075 -91 
Q 1284 -91 818 406 
Q 353 903 353 1747 
Q 353 2603 823 3093 
Q 1294 3584 2113 3584 
Q 2378 3584 2631 3529 
Q 2884 3475 3122 3366 
z
" transform="scale(0.015625)"/>
       <path id="DejaVuSans-68" d="M 3513 2113 
L 3513 0 
L 2938 0 
L 2938 2094 
Q 2938 2591 2744 2837 
Q 2550 3084 2163 3084 
Q 1697 3084 1428 2787 
Q 1159 2491 1159 1978 
L 1159 0 
L 581 0 
L 581 4863 
L 1159 4863 
L 1159 2956 
Q 1366 3272 1645 3428 
Q 1925 3584 2291 3584 
Q 2894 3584 3203 3211 
Q 3513 2838 3513 2113 
z
" transform="scale(0.015625)"/>
       <path id="DejaVuSans-4e" d="M 628 4666 
L 1478 4666 
L 3547 763 
L 3547 4666 
L 4159 4666 
L 4159 0 
L 3309 0 
L 1241 3903 
L 1241 0 
L 628 0 
L 628 4666 
z
" transform="scale(0.015625)"/>
       <path id="DejaVuSans-20" transform="scale(0.015625)"/>
       <path id="DejaVuSans-76" d="M 191 3500 
L 800 3500 
L 1894 563 
L 2988 3500 
L 3597 3500 
L 2284 0 
L 1503 0 
L 191 3500 
z
" transform="scale(0.015625)"/>
       <path id="DejaVuSans-61" d="M 2194 1759 
Q 1497 1759 1228 1600 
Q 959 1441 959 1056 
Q 959 750 1161 570 
Q 1363 391 1709 391 
Q 2188 391 2477 730 
Q 2766 1069 2766 1631 
L 2766 1759 
L 2194 1759 
z
M 3341 1997 
L 3341 0 
L 2766 0 
L 2766 531 
Q 2569 213 2275 61 
Q 1981 -91 1556 -91 
Q 1019 -91 701 211 
Q 384 513 384 1019 
Q 384 1609 779 1909 
Q 1175 2209 1959 2209 
L 2766 2209 
L 2766 2266 
Q 2766 2663 2505 2880 
Q 2244 3097 1772 3097 
Q 1472 3097 1187 3025 
Q 903 2953 641 2809 
L 641 3341 
Q 956 3463 1253 3523 
Q 1550 3584 1831 3584 
Q 2591 3584 2966 3190 
Q 3341 2797 3341 1997 
z
" transform="scale(0.015625)"/>
       <path id="DejaVuSans-5f" d="M 3263 -1063 
L 3263 -1509 
L -63 -1509 
L -63 -1063 
L 3263 -1063 
z
" transform="scale(0.015625)"/>
      </defs>
      <use xlink:href="#DejaVuSans-53"/>
      <use xlink:href="#DejaVuSans-63" x="63.476562"/>
      <use xlink:href="#DejaVuSans-68" x="118.457031"/>
      <use xlink:href="#DejaVuSans-4e" x="181.835938"/>
      <use xlink:href="#DejaVuSans-65" x="256.640625"/>
      <use xlink:href="#DejaVuSans-74" x="318.164062"/>
      <use xlink:href="#DejaVuSans-20" x="357.373047"/>
      <use xlink:href="#DejaVuSans-65" x="389.160156"/>
      <use xlink:href="#DejaVuSans-76" x="450.683594"/>
      <use xlink:href="#DejaVuSans-61" x="509.863281"/>
      <use xlink:href="#DejaVuSans-6c" x="571.142578"/>
      <use xlink:href="#DejaVuSans-5f" x="598.925781"/>
      <use xlink:href="#DejaVuSans-6c" x="648.925781"/>
      <use xlink:href="#DejaVuSans-6f" x="676.708984"/>
      <use xlink:href="#DejaVuSans-73" x="737.890625"/>
      <use xlink:href="#DejaVuSans-73" x="789.990234"/>
     </g>
    </g>
    <g id="line2d_33">
     <path d="M 66.6 277.769937 
L 76.6 277.769937 
L 86.6 277.769937 
" style="fill: none; stroke: #ff7f0e; stroke-opacity: 0.4; stroke-linecap: square"/>
    </g>
    <g id="text_9">
     <!-- M220 eval_loss -->
     <g transform="translate(94.6 281.269937) scale(0.1 -0.1)">
      <defs>
       <path id="DejaVuSans-4d" d="M 628 4666 
L 1569 4666 
L 2759 1491 
L 3956 4666 
L 4897 4666 
L 4897 0 
L 4281 0 
L 4281 4097 
L 3078 897 
L 2444 897 
L 1241 4097 
L 1241 0 
L 628 0 
L 628 4666 
z
" transform="scale(0.015625)"/>
      </defs>
      <use xlink:href="#DejaVuSans-4d"/>
      <use xlink:href="#DejaVuSans-32" x="86.279297"/>
      <use xlink:href="#DejaVuSans-32" x="149.902344"/>
      <use xlink:href="#DejaVuSans-30" x="213.525391"/>
      <use xlink:href="#DejaVuSans-20" x="277.148438"/>
      <use xlink:href="#DejaVuSans-65" x="308.935547"/>
      <use xlink:href="#DejaVuSans-76" x="370.458984"/>
      <use xlink:href="#DejaVuSans-61" x="429.638672"/>
      <use xlink:href="#DejaVuSans-6c" x="490.917969"/>
      <use xlink:href="#DejaVuSans-5f" x="518.701172"/>
      <use xlink:href="#DejaVuSans-6c" x="568.701172"/>
      <use xlink:href="#DejaVuSans-6f" x="596.484375"/>
      <use xlink:href="#DejaVuSans-73" x="657.666016"/>
      <use xlink:href="#DejaVuSans-73" x="709.765625"/>
     </g>
    </g>
    <g id="line2d_34">
     <path d="M 66.6 292.726187 
L 76.6 292.726187 
L 86.6 292.726187 
" style="fill: none; stroke: #2ca02c; stroke-opacity: 0.4; stroke-linecap: square"/>
    </g>
    <g id="text_10">
     <!-- MoGIN14 eval_loss -->
     <g transform="translate(94.6 296.226187) scale(0.1 -0.1)">
      <defs>
       <path id="DejaVuSans-47" d="M 3809 666 
L 3809 1919 
L 2778 1919 
L 2778 2438 
L 4434 2438 
L 4434 434 
Q 4069 175 3628 42 
Q 3188 -91 2688 -91 
Q 1594 -91 976 548 
Q 359 1188 359 2328 
Q 359 3472 976 4111 
Q 1594 4750 2688 4750 
Q 3144 4750 3555 4637 
Q 3966 4525 4313 4306 
L 4313 3634 
Q 3963 3931 3569 4081 
Q 3175 4231 2741 4231 
Q 1884 4231 1454 3753 
Q 1025 3275 1025 2328 
Q 1025 1384 1454 906 
Q 1884 428 2741 428 
Q 3075 428 3337 486 
Q 3600 544 3809 666 
z
" transform="scale(0.015625)"/>
       <path id="DejaVuSans-49" d="M 628 4666 
L 1259 4666 
L 1259 0 
L 628 0 
L 628 4666 
z
" transform="scale(0.015625)"/>
      </defs>
      <use xlink:href="#DejaVuSans-4d"/>
      <use xlink:href="#DejaVuSans-6f" x="86.279297"/>
      <use xlink:href="#DejaVuSans-47" x="147.460938"/>
      <use xlink:href="#DejaVuSans-49" x="224.951172"/>
      <use xlink:href="#DejaVuSans-4e" x="254.443359"/>
      <use xlink:href="#DejaVuSans-31" x="329.248047"/>
      <use xlink:href="#DejaVuSans-34" x="392.871094"/>
      <use xlink:href="#DejaVuSans-20" x="456.494141"/>
      <use xlink:href="#DejaVuSans-65" x="488.28125"/>
      <use xlink:href="#DejaVuSans-76" x="549.804688"/>
      <use xlink:href="#DejaVuSans-61" x="608.984375"/>
      <use xlink:href="#DejaVuSans-6c" x="670.263672"/>
      <use xlink:href="#DejaVuSans-5f" x="698.046875"/>
      <use xlink:href="#DejaVuSans-6c" x="748.046875"/>
      <use xlink:href="#DejaVuSans-6f" x="775.830078"/>
      <use xlink:href="#DejaVuSans-73" x="837.011719"/>
      <use xlink:href="#DejaVuSans-73" x="889.111328"/>
     </g>
    </g>
   </g>
  </g>
 </g>
 <defs>
  <clipPath id="pff9fe1bed2">
   <rect x="57.6" y="41.472" width="357.12" height="266.112"/>
  </clipPath>
 </defs>
</svg>
