<?xml version="1.0" encoding="utf-8" standalone="no"?>
<!DOCTYPE svg PUBLIC "-//W3C//DTD SVG 1.1//EN"
  "http://www.w3.org/Graphics/SVG/1.1/DTD/svg11.dtd">
<svg xmlns:xlink="http://www.w3.org/1999/xlink" width="460.8pt" height="345.6pt" viewBox="0 0 460.8 345.6" xmlns="http://www.w3.org/2000/svg" version="1.1">
 <metadata>
  <rdf:RDF xmlns:dc="http://purl.org/dc/elements/1.1/" xmlns:cc="http://creativecommons.org/ns#" xmlns:rdf="http://www.w3.org/1999/02/22-rdf-syntax-ns#">
   <cc:Work>
    <dc:type rdf:resource="http://purl.org/dc/dcmitype/StillImage"/>
    <dc:date>2025-02-21T09:06:50.701576</dc:date>
    <dc:format>image/svg+xml</dc:format>
    <dc:creator>
     <cc:Agent>
      <dc:title>Matplotlib v3.8.4, https://matplotlib.org/</dc:title>
     </cc:Agent>
    </dc:creator>
   </cc:Work>
  </rdf:RDF>
 </metadata>
 <defs>
  <style type="text/css">*{stroke-linejoin: round; stroke-linecap: butt}</style>
 </defs>
 <g id="figure_1">
  <g id="patch_1">
   <path d="M 0 345.6 
L 460.8 345.6 
L 460.8 0 
L 0 0 
z
" style="fill: #ffffff"/>
  </g>
  <g id="axes_1">
   <g id="patch_2">
    <path d="M 57.6 307.584 
L 414.72 307.584 
L 414.72 41.472 
L 57.6 41.472 
z
" style="fill: #ffffff"/>
   </g>
   <g id="matplotlib.axis_1">
    <g id="xtick_1">
     <g id="line2d_1">
      <defs>
       <path id="m57374f6ef9" d="M 0 0 
L 0 3.5 
" style="stroke: #000000; stroke-width: 0.8"/>
      </defs>
      <g>
       <use xlink:href="#m57374f6ef9" x="57.6" y="307.584" style="stroke: #000000; stroke-width: 0.8"/>
      </g>
     </g>
     <g id="text_1">
      <!-- $\mathdefault{10^{3}}$ -->
      <g transform="translate(48.8 322.182437) scale(0.1 -0.1)">
       <defs>
        <path id="DejaVuSans-31" d="M 794 531 
L 1825 531 
L 1825 4091 
L 703 3866 
L 703 4441 
L 1819 4666 
L 2450 4666 
L 2450 531 
L 3481 531 
L 3481 0 
L 794 0 
L 794 531 
z
" transform="scale(0.015625)"/>
        <path id="DejaVuSans-30" d="M 2034 4250 
Q 1547 4250 1301 3770 
Q 1056 3291 1056 2328 
Q 1056 1369 1301 889 
Q 1547 409 2034 409 
Q 2525 409 2770 889 
Q 3016 1369 3016 2328 
Q 3016 3291 2770 3770 
Q 2525 4250 2034 4250 
z
M 2034 4750 
Q 2819 4750 3233 4129 
Q 3647 3509 3647 2328 
Q 3647 1150 3233 529 
Q 2819 -91 2034 -91 
Q 1250 -91 836 529 
Q 422 1150 422 2328 
Q 422 3509 836 4129 
Q 1250 4750 2034 4750 
z
" transform="scale(0.015625)"/>
        <path id="DejaVuSans-33" d="M 2597 2516 
Q 3050 2419 3304 2112 
Q 3559 1806 3559 1356 
Q 3559 666 3084 287 
Q 2609 -91 1734 -91 
Q 1441 -91 1130 -33 
Q 819 25 488 141 
L 488 750 
Q 750 597 1062 519 
Q 1375 441 1716 441 
Q 2309 441 2620 675 
Q 2931 909 2931 1356 
Q 2931 1769 2642 2001 
Q 2353 2234 1838 2234 
L 1294 2234 
L 1294 2753 
L 1863 2753 
Q 2328 2753 2575 2939 
Q 2822 3125 2822 3475 
Q 2822 3834 2567 4026 
Q 2313 4219 1838 4219 
Q 1578 4219 1281 4162 
Q 984 4106 628 3988 
L 628 4550 
Q 988 4650 1302 4700 
Q 1616 4750 1894 4750 
Q 2613 4750 3031 4423 
Q 3450 4097 3450 3541 
Q 3450 3153 3228 2886 
Q 3006 2619 2597 2516 
z
" transform="scale(0.015625)"/>
       </defs>
       <use xlink:href="#DejaVuSans-31" transform="translate(0 0.765625)"/>
       <use xlink:href="#DejaVuSans-30" transform="translate(63.623047 0.765625)"/>
       <use xlink:href="#DejaVuSans-33" transform="translate(128.203125 39.046875) scale(0.7)"/>
      </g>
     </g>
    </g>
    <g id="xtick_2">
     <g id="line2d_2">
      <g>
       <use xlink:href="#m57374f6ef9" x="267.797943" y="307.584" style="stroke: #000000; stroke-width: 0.8"/>
      </g>
     </g>
     <g id="text_2">
      <!-- $\mathdefault{10^{4}}$ -->
      <g transform="translate(258.997943 322.182437) scale(0.1 -0.1)">
       <defs>
        <path id="DejaVuSans-34" d="M 2419 4116 
L 825 1625 
L 2419 1625 
L 2419 4116 
z
M 2253 4666 
L 3047 4666 
L 3047 1625 
L 3713 1625 
L 3713 1100 
L 3047 1100 
L 3047 0 
L 2419 0 
L 2419 1100 
L 313 1100 
L 313 1709 
L 2253 4666 
z
" transform="scale(0.015625)"/>
       </defs>
       <use xlink:href="#DejaVuSans-31" transform="translate(0 0.684375)"/>
       <use xlink:href="#DejaVuSans-30" transform="translate(63.623047 0.684375)"/>
       <use xlink:href="#DejaVuSans-34" transform="translate(128.203125 38.965625) scale(0.7)"/>
      </g>
     </g>
    </g>
    <g id="xtick_3">
     <g id="line2d_3">
      <defs>
       <path id="me56efeaf34" d="M 0 0 
L 0 2 
" style="stroke: #000000; stroke-width: 0.6"/>
      </defs>
      <g>
       <use xlink:href="#me56efeaf34" x="120.875886" y="307.584" style="stroke: #000000; stroke-width: 0.6"/>
      </g>
     </g>
    </g>
    <g id="xtick_4">
     <g id="line2d_4">
      <g>
       <use xlink:href="#me56efeaf34" x="157.889906" y="307.584" style="stroke: #000000; stroke-width: 0.6"/>
      </g>
     </g>
    </g>
    <g id="xtick_5">
     <g id="line2d_5">
      <g>
       <use xlink:href="#me56efeaf34" x="184.151772" y="307.584" style="stroke: #000000; stroke-width: 0.6"/>
      </g>
     </g>
    </g>
    <g id="xtick_6">
     <g id="line2d_6">
      <g>
       <use xlink:href="#me56efeaf34" x="204.522057" y="307.584" style="stroke: #000000; stroke-width: 0.6"/>
      </g>
     </g>
    </g>
    <g id="xtick_7">
     <g id="line2d_7">
      <g>
       <use xlink:href="#me56efeaf34" x="221.165792" y="307.584" style="stroke: #000000; stroke-width: 0.6"/>
      </g>
     </g>
    </g>
    <g id="xtick_8">
     <g id="line2d_8">
      <g>
       <use xlink:href="#me56efeaf34" x="235.23787" y="307.584" style="stroke: #000000; stroke-width: 0.6"/>
      </g>
     </g>
    </g>
    <g id="xtick_9">
     <g id="line2d_9">
      <g>
       <use xlink:href="#me56efeaf34" x="247.427658" y="307.584" style="stroke: #000000; stroke-width: 0.6"/>
      </g>
     </g>
    </g>
    <g id="xtick_10">
     <g id="line2d_10">
      <g>
       <use xlink:href="#me56efeaf34" x="258.179813" y="307.584" style="stroke: #000000; stroke-width: 0.6"/>
      </g>
     </g>
    </g>
    <g id="xtick_11">
     <g id="line2d_11">
      <g>
       <use xlink:href="#me56efeaf34" x="331.073829" y="307.584" style="stroke: #000000; stroke-width: 0.6"/>
      </g>
     </g>
    </g>
    <g id="xtick_12">
     <g id="line2d_12">
      <g>
       <use xlink:href="#me56efeaf34" x="368.087849" y="307.584" style="stroke: #000000; stroke-width: 0.6"/>
      </g>
     </g>
    </g>
    <g id="xtick_13">
     <g id="line2d_13">
      <g>
       <use xlink:href="#me56efeaf34" x="394.349715" y="307.584" style="stroke: #000000; stroke-width: 0.6"/>
      </g>
     </g>
    </g>
    <g id="xtick_14">
     <g id="line2d_14">
      <g>
       <use xlink:href="#me56efeaf34" x="414.72" y="307.584" style="stroke: #000000; stroke-width: 0.6"/>
      </g>
     </g>
    </g>
    <g id="text_3">
     <!-- iter# -->
     <g transform="translate(223.488906 335.860562) scale(0.1 -0.1)">
      <defs>
       <path id="DejaVuSans-69" d="M 603 3500 
L 1178 3500 
L 1178 0 
L 603 0 
L 603 3500 
z
M 603 4863 
L 1178 4863 
L 1178 4134 
L 603 4134 
L 603 4863 
z
" transform="scale(0.015625)"/>
       <path id="DejaVuSans-74" d="M 1172 4494 
L 1172 3500 
L 2356 3500 
L 2356 3053 
L 1172 3053 
L 1172 1153 
Q 1172 725 1289 603 
Q 1406 481 1766 481 
L 2356 481 
L 2356 0 
L 1766 0 
Q 1100 0 847 248 
Q 594 497 594 1153 
L 594 3053 
L 172 3053 
L 172 3500 
L 594 3500 
L 594 4494 
L 1172 4494 
z
" transform="scale(0.015625)"/>
       <path id="DejaVuSans-65" d="M 3597 1894 
L 3597 1613 
L 953 1613 
Q 991 1019 1311 708 
Q 1631 397 2203 397 
Q 2534 397 2845 478 
Q 3156 559 3463 722 
L 3463 178 
Q 3153 47 2828 -22 
Q 2503 -91 2169 -91 
Q 1331 -91 842 396 
Q 353 884 353 1716 
Q 353 2575 817 3079 
Q 1281 3584 2069 3584 
Q 2775 3584 3186 3129 
Q 3597 2675 3597 1894 
z
M 3022 2063 
Q 3016 2534 2758 2815 
Q 2500 3097 2075 3097 
Q 1594 3097 1305 2825 
Q 1016 2553 972 2059 
L 3022 2063 
z
" transform="scale(0.015625)"/>
       <path id="DejaVuSans-72" d="M 2631 2963 
Q 2534 3019 2420 3045 
Q 2306 3072 2169 3072 
Q 1681 3072 1420 2755 
Q 1159 2438 1159 1844 
L 1159 0 
L 581 0 
L 581 3500 
L 1159 3500 
L 1159 2956 
Q 1341 3275 1631 3429 
Q 1922 3584 2338 3584 
Q 2397 3584 2469 3576 
Q 2541 3569 2628 3553 
L 2631 2963 
z
" transform="scale(0.015625)"/>
       <path id="DejaVuSans-23" d="M 3272 2816 
L 2363 2816 
L 2100 1772 
L 3016 1772 
L 3272 2816 
z
M 2803 4594 
L 2478 3297 
L 3391 3297 
L 3719 4594 
L 4219 4594 
L 3897 3297 
L 4872 3297 
L 4872 2816 
L 3775 2816 
L 3519 1772 
L 4513 1772 
L 4513 1294 
L 3397 1294 
L 3072 0 
L 2572 0 
L 2894 1294 
L 1978 1294 
L 1656 0 
L 1153 0 
L 1478 1294 
L 494 1294 
L 494 1772 
L 1594 1772 
L 1856 2816 
L 850 2816 
L 850 3297 
L 1978 3297 
L 2297 4594 
L 2803 4594 
z
" transform="scale(0.015625)"/>
      </defs>
      <use xlink:href="#DejaVuSans-69"/>
      <use xlink:href="#DejaVuSans-74" x="27.783203"/>
      <use xlink:href="#DejaVuSans-65" x="66.992188"/>
      <use xlink:href="#DejaVuSans-72" x="128.515625"/>
      <use xlink:href="#DejaVuSans-23" x="169.628906"/>
     </g>
    </g>
   </g>
   <g id="matplotlib.axis_2">
    <g id="ytick_1">
     <g id="line2d_15">
      <defs>
       <path id="m25f131f18f" d="M 0 0 
L -3.5 0 
" style="stroke: #000000; stroke-width: 0.8"/>
      </defs>
      <g>
       <use xlink:href="#m25f131f18f" x="57.6" y="302.395368" style="stroke: #000000; stroke-width: 0.8"/>
      </g>
     </g>
     <g id="text_4">
      <!-- $\mathdefault{10^{-3}}$ -->
      <g transform="translate(27.1 306.194586) scale(0.1 -0.1)">
       <defs>
        <path id="DejaVuSans-2212" d="M 678 2272 
L 4684 2272 
L 4684 1741 
L 678 1741 
L 678 2272 
z
" transform="scale(0.015625)"/>
       </defs>
       <use xlink:href="#DejaVuSans-31" transform="translate(0 0.765625)"/>
       <use xlink:href="#DejaVuSans-30" transform="translate(63.623047 0.765625)"/>
       <use xlink:href="#DejaVuSans-2212" transform="translate(128.203125 39.046875) scale(0.7)"/>
       <use xlink:href="#DejaVuSans-33" transform="translate(186.855469 39.046875) scale(0.7)"/>
      </g>
     </g>
    </g>
    <g id="ytick_2">
     <g id="line2d_16">
      <g>
       <use xlink:href="#m25f131f18f" x="57.6" y="189.001206" style="stroke: #000000; stroke-width: 0.8"/>
      </g>
     </g>
     <g id="text_5">
      <!-- $\mathdefault{10^{-2}}$ -->
      <g transform="translate(27.1 192.800425) scale(0.1 -0.1)">
       <defs>
        <path id="DejaVuSans-32" d="M 1228 531 
L 3431 531 
L 3431 0 
L 469 0 
L 469 531 
Q 828 903 1448 1529 
Q 2069 2156 2228 2338 
Q 2531 2678 2651 2914 
Q 2772 3150 2772 3378 
Q 2772 3750 2511 3984 
Q 2250 4219 1831 4219 
Q 1534 4219 1204 4116 
Q 875 4013 500 3803 
L 500 4441 
Q 881 4594 1212 4672 
Q 1544 4750 1819 4750 
Q 2544 4750 2975 4387 
Q 3406 4025 3406 3419 
Q 3406 3131 3298 2873 
Q 3191 2616 2906 2266 
Q 2828 2175 2409 1742 
Q 1991 1309 1228 531 
z
" transform="scale(0.015625)"/>
       </defs>
       <use xlink:href="#DejaVuSans-31" transform="translate(0 0.765625)"/>
       <use xlink:href="#DejaVuSans-30" transform="translate(63.623047 0.765625)"/>
       <use xlink:href="#DejaVuSans-2212" transform="translate(128.203125 39.046875) scale(0.7)"/>
       <use xlink:href="#DejaVuSans-32" transform="translate(186.855469 39.046875) scale(0.7)"/>
      </g>
     </g>
    </g>
    <g id="ytick_3">
     <g id="line2d_17">
      <g>
       <use xlink:href="#m25f131f18f" x="57.6" y="75.607044" style="stroke: #000000; stroke-width: 0.8"/>
      </g>
     </g>
     <g id="text_6">
      <!-- $\mathdefault{10^{-1}}$ -->
      <g transform="translate(27.1 79.406263) scale(0.1 -0.1)">
       <use xlink:href="#DejaVuSans-31" transform="translate(0 0.684375)"/>
       <use xlink:href="#DejaVuSans-30" transform="translate(63.623047 0.684375)"/>
       <use xlink:href="#DejaVuSans-2212" transform="translate(128.203125 38.965625) scale(0.7)"/>
       <use xlink:href="#DejaVuSans-31" transform="translate(186.855469 38.965625) scale(0.7)"/>
      </g>
     </g>
    </g>
    <g id="ytick_4">
     <g id="line2d_18">
      <defs>
       <path id="m8b79a140fb" d="M 0 0 
L -2 0 
" style="stroke: #000000; stroke-width: 0.6"/>
      </defs>
      <g>
       <use xlink:href="#m8b79a140fb" x="57.6" y="307.584" style="stroke: #000000; stroke-width: 0.6"/>
      </g>
     </g>
    </g>
    <g id="ytick_5">
     <g id="line2d_19">
      <g>
       <use xlink:href="#m8b79a140fb" x="57.6" y="268.260324" style="stroke: #000000; stroke-width: 0.6"/>
      </g>
     </g>
    </g>
    <g id="ytick_6">
     <g id="line2d_20">
      <g>
       <use xlink:href="#m8b79a140fb" x="57.6" y="248.292603" style="stroke: #000000; stroke-width: 0.6"/>
      </g>
     </g>
    </g>
    <g id="ytick_7">
     <g id="line2d_21">
      <g>
       <use xlink:href="#m8b79a140fb" x="57.6" y="234.12528" style="stroke: #000000; stroke-width: 0.6"/>
      </g>
     </g>
    </g>
    <g id="ytick_8">
     <g id="line2d_22">
      <g>
       <use xlink:href="#m8b79a140fb" x="57.6" y="223.13625" style="stroke: #000000; stroke-width: 0.6"/>
      </g>
     </g>
    </g>
    <g id="ytick_9">
     <g id="line2d_23">
      <g>
       <use xlink:href="#m8b79a140fb" x="57.6" y="214.157559" style="stroke: #000000; stroke-width: 0.6"/>
      </g>
     </g>
    </g>
    <g id="ytick_10">
     <g id="line2d_24">
      <g>
       <use xlink:href="#m8b79a140fb" x="57.6" y="206.566184" style="stroke: #000000; stroke-width: 0.6"/>
      </g>
     </g>
    </g>
    <g id="ytick_11">
     <g id="line2d_25">
      <g>
       <use xlink:href="#m8b79a140fb" x="57.6" y="199.990236" style="stroke: #000000; stroke-width: 0.6"/>
      </g>
     </g>
    </g>
    <g id="ytick_12">
     <g id="line2d_26">
      <g>
       <use xlink:href="#m8b79a140fb" x="57.6" y="194.189838" style="stroke: #000000; stroke-width: 0.6"/>
      </g>
     </g>
    </g>
    <g id="ytick_13">
     <g id="line2d_27">
      <g>
       <use xlink:href="#m8b79a140fb" x="57.6" y="154.866162" style="stroke: #000000; stroke-width: 0.6"/>
      </g>
     </g>
    </g>
    <g id="ytick_14">
     <g id="line2d_28">
      <g>
       <use xlink:href="#m8b79a140fb" x="57.6" y="134.898441" style="stroke: #000000; stroke-width: 0.6"/>
      </g>
     </g>
    </g>
    <g id="ytick_15">
     <g id="line2d_29">
      <g>
       <use xlink:href="#m8b79a140fb" x="57.6" y="120.731118" style="stroke: #000000; stroke-width: 0.6"/>
      </g>
     </g>
    </g>
    <g id="ytick_16">
     <g id="line2d_30">
      <g>
       <use xlink:href="#m8b79a140fb" x="57.6" y="109.742088" style="stroke: #000000; stroke-width: 0.6"/>
      </g>
     </g>
    </g>
    <g id="ytick_17">
     <g id="line2d_31">
      <g>
       <use xlink:href="#m8b79a140fb" x="57.6" y="100.763397" style="stroke: #000000; stroke-width: 0.6"/>
      </g>
     </g>
    </g>
    <g id="ytick_18">
     <g id="line2d_32">
      <g>
       <use xlink:href="#m8b79a140fb" x="57.6" y="93.172022" style="stroke: #000000; stroke-width: 0.6"/>
      </g>
     </g>
    </g>
    <g id="ytick_19">
     <g id="line2d_33">
      <g>
       <use xlink:href="#m8b79a140fb" x="57.6" y="86.596074" style="stroke: #000000; stroke-width: 0.6"/>
      </g>
     </g>
    </g>
    <g id="ytick_20">
     <g id="line2d_34">
      <g>
       <use xlink:href="#m8b79a140fb" x="57.6" y="80.795676" style="stroke: #000000; stroke-width: 0.6"/>
      </g>
     </g>
    </g>
    <g id="ytick_21">
     <g id="line2d_35">
      <g>
       <use xlink:href="#m8b79a140fb" x="57.6" y="41.472" style="stroke: #000000; stroke-width: 0.6"/>
      </g>
     </g>
    </g>
    <g id="text_7">
     <!-- loss -->
     <g transform="translate(21.020313 184.185812) rotate(-90) scale(0.1 -0.1)">
      <defs>
       <path id="DejaVuSans-6c" d="M 603 4863 
L 1178 4863 
L 1178 0 
L 603 0 
L 603 4863 
z
" transform="scale(0.015625)"/>
       <path id="DejaVuSans-6f" d="M 1959 3097 
Q 1497 3097 1228 2736 
Q 959 2375 959 1747 
Q 959 1119 1226 758 
Q 1494 397 1959 397 
Q 2419 397 2687 759 
Q 2956 1122 2956 1747 
Q 2956 2369 2687 2733 
Q 2419 3097 1959 3097 
z
M 1959 3584 
Q 2709 3584 3137 3096 
Q 3566 2609 3566 1747 
Q 3566 888 3137 398 
Q 2709 -91 1959 -91 
Q 1206 -91 779 398 
Q 353 888 353 1747 
Q 353 2609 779 3096 
Q 1206 3584 1959 3584 
z
" transform="scale(0.015625)"/>
       <path id="DejaVuSans-73" d="M 2834 3397 
L 2834 2853 
Q 2591 2978 2328 3040 
Q 2066 3103 1784 3103 
Q 1356 3103 1142 2972 
Q 928 2841 928 2578 
Q 928 2378 1081 2264 
Q 1234 2150 1697 2047 
L 1894 2003 
Q 2506 1872 2764 1633 
Q 3022 1394 3022 966 
Q 3022 478 2636 193 
Q 2250 -91 1575 -91 
Q 1294 -91 989 -36 
Q 684 19 347 128 
L 347 722 
Q 666 556 975 473 
Q 1284 391 1588 391 
Q 1994 391 2212 530 
Q 2431 669 2431 922 
Q 2431 1156 2273 1281 
Q 2116 1406 1581 1522 
L 1381 1569 
Q 847 1681 609 1914 
Q 372 2147 372 2553 
Q 372 3047 722 3315 
Q 1072 3584 1716 3584 
Q 2034 3584 2315 3537 
Q 2597 3491 2834 3397 
z
" transform="scale(0.015625)"/>
      </defs>
      <use xlink:href="#DejaVuSans-6c"/>
      <use xlink:href="#DejaVuSans-6f" x="27.783203"/>
      <use xlink:href="#DejaVuSans-73" x="88.964844"/>
      <use xlink:href="#DejaVuSans-73" x="141.064453"/>
     </g>
    </g>
   </g>
   <g id="line2d_36">
    <path d="M 80.531803 -1 
L 84.657159 1.762539 
L 88.900784 5.190501 
L 92.955871 7.660753 
L 96.838463 11.13202 
L 100.562638 14.00524 
L 104.140817 17.219104 
L 107.584018 19.794606 
L 114.103709 25.992197 
L 117.196869 28.459123 
L 123.085479 34.281383 
L 123.839744 36.836014 
L 126.624717 39.082701 
L 129.327236 40.338237 
L 131.952044 42.733933 
L 134.503485 43.858619 
L 136.985549 45.536231 
L 139.40191 48.132277 
L 141.755957 50.048934 
L 146.289409 54.030005 
L 148.474413 53.555028 
L 150.608337 53.701443 
L 152.693517 55.35129 
L 154.732129 56.738378 
L 156.726208 59.268101 
L 160.588264 62.287841 
L 162.459701 62.495133 
L 164.293541 64.908583 
L 166.091267 66.543994 
L 167.854273 68.516208 
L 169.583875 68.690432 
L 171.281314 69.299071 
L 172.947767 70.908262 
L 174.584343 72.161916 
L 176.192095 72.256078 
L 177.77202 73.702658 
L 179.325067 75.596306 
L 180.852133 77.758372 
L 182.354074 77.073933 
L 183.831704 76.746083 
L 185.285796 77.183583 
L 186.71709 78.16529 
L 187.093535 76.936402 
L 189.879171 81.616786 
L 191.240749 80.863102 
L 192.582316 82.044831 
L 193.904452 83.519348 
L 196.49263 84.429376 
L 197.759712 84.754537 
L 199.009447 86.756277 
L 200.242303 87.490725 
L 201.458732 86.981979 
L 202.659164 88.153651 
L 203.844015 88.988288 
L 205.013685 89.353394 
L 206.168557 90.970327 
L 207.309001 90.743927 
L 208.435374 92.377291 
L 209.548017 94.475524 
L 210.647263 93.774855 
L 211.733429 92.490733 
L 212.806824 89.798153 
L 213.867744 91.260669 
L 214.916475 91.295198 
L 216.978472 95.027469 
L 217.992263 95.696264 
L 218.99492 97.726695 
L 219.986683 95.33029 
L 220.967787 96.996833 
L 221.938459 95.555469 
L 222.898919 94.692348 
L 223.849378 96.118078 
L 224.100189 97.303899 
L 225.038286 97.03762 
L 225.966842 93.619104 
L 226.886047 95.941063 
L 228.697148 99.634498 
L 229.5894 99.422454 
L 230.473015 101.034116 
L 231.34816 102.039549 
L 232.214994 101.45421 
L 233.073675 102.725437 
L 233.924353 103.482147 
L 234.767178 104.883599 
L 236.429836 108.220738 
L 238.062753 109.837863 
L 238.868387 109.846446 
L 239.666973 108.762665 
L 240.458634 105.661009 
L 241.243488 101.419258 
L 242.021652 101.847746 
L 242.793239 97.984129 
L 243.558358 97.42287 
L 244.317119 92.912676 
L 245.069624 91.201604 
L 245.815977 92.647884 
L 246.556278 92.973947 
L 247.290623 94.254184 
L 248.019108 95.915937 
L 248.741826 97.086246 
L 249.458867 96.844406 
L 250.170319 96.168595 
L 250.358371 98.21612 
L 251.062874 99.798274 
L 251.761983 101.848055 
L 252.455778 102.734595 
L 253.14434 103.108958 
L 253.827747 102.607803 
L 254.506076 104.143201 
L 255.179401 106.51061 
L 255.847797 106.440861 
L 256.511334 107.160889 
L 257.170083 105.594066 
L 257.824112 106.042751 
L 258.473489 106.279638 
L 259.118279 107.527363 
L 259.758547 102.773137 
L 260.394356 102.410813 
L 261.65284 106.777606 
L 262.275635 107.684014 
L 262.89421 104.865968 
L 263.508622 106.27143 
L 264.118926 107.313157 
L 264.725177 106.013171 
L 265.327428 106.893532 
L 266.520141 100.163073 
L 267.697471 103.673284 
L 268.280491 104.490695 
L 268.85981 106.338451 
L 269.435477 105.067976 
L 270.007536 104.541511 
L 270.576032 103.792 
L 270.726446 104.993967 
L 271.290497 106.034648 
L 271.851084 108.109397 
L 272.408249 106.845013 
L 273.512481 111.165189 
L 274.059628 111.434511 
L 274.603516 113.454705 
L 275.681664 110.257676 
L 276.216001 110.916441 
L 276.747228 111.79809 
L 277.275382 113.702967 
L 277.800497 113.83875 
L 278.322609 114.854101 
L 278.841752 114.691794 
L 279.35796 113.634499 
L 279.871265 114.147595 
L 280.381699 112.934469 
L 280.889296 112.145543 
L 281.394085 112.994767 
L 281.896099 108.415255 
L 282.891919 110.747232 
L 283.385785 111.412586 
L 283.876994 113.802717 
L 284.365573 115.337805 
L 284.851552 117.75297 
L 285.334957 119.415362 
L 285.815815 119.844439 
L 286.77 122.727977 
L 287.243378 124.49876 
L 287.368708 126.631622 
L 288.30688 129.911665 
L 288.772376 131.452491 
L 289.23551 133.373162 
L 289.696305 134.711437 
L 290.154787 132.416207 
L 290.610978 133.490558 
L 291.0649 133.556287 
L 291.516576 134.108474 
L 291.966028 132.142047 
L 292.413279 133.185602 
L 292.858349 127.056843 
L 293.301259 128.913051 
L 293.742031 131.259063 
L 294.180685 132.901526 
L 294.617241 134.098326 
L 295.051719 131.558802 
L 295.484139 131.784554 
L 295.914521 133.854495 
L 296.342883 131.744762 
L 296.769245 133.09359 
L 297.193624 128.787962 
L 297.616039 126.63345 
L 298.036509 126.085506 
L 298.455052 126.156752 
L 298.871683 125.754419 
L 299.286423 127.422453 
L 299.699286 117.357493 
L 301.332317 125.589875 
L 301.439733 127.080973 
L 302.644207 133.828334 
L 303.438451 138.344395 
L 304.225844 137.213013 
L 304.617008 138.655086 
L 305.006503 140.56894 
L 305.394344 138.732019 
L 305.780543 138.601205 
L 306.165116 137.266673 
L 306.548075 137.494317 
L 306.929435 139.47239 
L 307.687408 140.5493 
L 308.064047 142.563747 
L 308.439138 143.33978 
L 308.812695 141.936678 
L 309.18473 142.814086 
L 309.92428 139.082825 
L 310.291821 139.508921 
L 310.657888 140.436014 
L 311.022493 142.401262 
L 311.385647 142.053588 
L 311.747363 136.776776 
L 312.10765 135.228157 
L 312.466522 136.151258 
L 312.823988 138.275766 
L 313.18006 139.675396 
L 313.534748 139.900539 
L 313.628731 139.200555 
L 313.981684 140.303433 
L 314.683522 143.593253 
L 315.032427 144.780364 
L 315.380005 146.748878 
L 315.726264 147.333111 
L 316.071214 143.435527 
L 316.414866 141.807896 
L 316.757229 141.356275 
L 317.438127 144.853366 
L 317.776681 145.291161 
L 318.113984 145.349984 
L 318.450046 144.450812 
L 318.784874 142.43057 
L 319.45087 146.378173 
L 319.782055 138.630326 
L 321.094907 144.916035 
L 321.420191 145.152054 
L 321.74432 144.199417 
L 322.067302 144.282114 
L 322.389145 140.957287 
L 323.347923 144.691716 
L 323.665291 144.502779 
L 323.98156 143.680221 
L 324.296736 143.175523 
L 324.694077 146.216289 
L 325.629072 152.684282 
L 325.938621 154.45337 
L 326.247124 152.179759 
L 326.554588 153.584706 
L 327.166426 157.013824 
L 327.470814 155.290213 
L 327.77419 156.360957 
L 328.076562 156.7955 
L 328.678317 159.560354 
L 328.977714 153.847629 
L 329.276131 152.581206 
L 329.573577 153.647491 
L 329.870056 155.760314 
L 330.165576 155.637638 
L 330.460142 157.602406 
L 330.753761 135.278684 
L 331.046438 136.407687 
L 331.33818 136.479389 
L 332.495913 145.083591 
L 332.783066 145.363037 
L 333.069319 147.307301 
L 333.354678 147.223055 
L 333.639147 146.922815 
L 333.922732 148.42709 
L 333.997911 149.867654 
L 334.280386 151.459269 
L 334.56199 153.85677 
L 334.842727 153.914077 
L 335.679796 159.932991 
L 335.957121 159.17206 
L 336.233607 159.579751 
L 336.509258 160.450863 
L 337.331252 165.580035 
L 337.603614 164.847938 
L 337.875165 166.244328 
L 338.145911 162.637795 
L 338.415856 162.045396 
L 338.685005 163.322471 
L 338.953363 165.482385 
L 339.220935 166.148841 
L 339.487724 165.384299 
L 339.753736 156.497127 
L 340.018976 152.76938 
L 340.283446 152.898526 
L 340.547153 154.561014 
L 340.8101 154.255054 
L 341.072292 154.999658 
L 341.594428 156.807666 
L 341.85438 152.031495 
L 342.113594 153.022204 
L 342.372074 153.162596 
L 342.629824 154.866136 
L 342.698167 156.122908 
L 342.954999 157.760233 
L 343.211111 158.191139 
L 343.466506 157.491378 
L 343.721189 158.154754 
L 344.228433 162.376815 
L 344.481002 160.526191 
L 344.732874 161.80148 
L 344.984053 158.711582 
L 345.234543 158.612324 
L 345.484347 157.109038 
L 345.73347 158.578463 
L 345.981914 158.730191 
L 346.229685 159.748673 
L 346.476784 158.754649 
L 346.723217 159.106485 
L 346.968986 159.727927 
L 347.214095 161.338977 
L 347.458548 161.91555 
L 347.702348 161.904147 
L 347.945499 162.671746 
L 348.188003 160.656574 
L 348.429865 160.205812 
L 348.911676 162.474623 
L 349.151631 159.282857 
L 349.390957 158.196276 
L 349.629657 160.009641 
L 349.867734 160.419067 
L 350.105193 160.162663 
L 350.342035 161.345205 
L 351.34547 169.020711 
L 351.57912 169.266517 
L 351.812174 171.301579 
L 352.044634 170.760634 
L 353.198138 179.811183 
L 353.4271 179.327437 
L 353.655489 174.514182 
L 353.883308 173.235471 
L 354.11056 175.058651 
L 354.337248 174.819465 
L 354.563374 173.56183 
L 354.788942 174.797924 
L 355.013953 174.073213 
L 355.238411 174.879388 
L 355.462319 173.867511 
L 355.685679 174.119613 
L 355.908494 173.483136 
L 356.352498 174.794733 
L 356.573693 173.18418 
L 356.794353 168.739743 
L 357.014481 169.09377 
L 357.23408 168.127709 
L 357.453152 168.302218 
L 357.671699 168.890328 
L 357.889724 170.82964 
L 357.94755 172.744812 
L 358.164918 169.78472 
L 358.38177 171.351352 
L 358.598108 172.045017 
L 358.813934 173.908347 
L 359.029251 173.501918 
L 359.458369 176.286085 
L 359.672173 173.905633 
L 359.885478 168.105313 
L 360.098286 156.683893 
L 360.310599 155.562839 
L 361.154946 164.355166 
L 361.364818 164.882355 
L 361.991555 170.546145 
L 362.199515 170.471477 
L 362.407002 172.39401 
L 362.614019 170.146658 
L 362.820567 171.159118 
L 363.026649 173.099234 
L 363.232266 171.527767 
L 363.642118 174.030447 
L 363.846355 173.301664 
L 364.050137 171.728519 
L 364.456341 175.396162 
L 364.658767 175.723502 
L 364.712461 177.721382 
L 365.517235 185.477108 
L 365.717325 186.219774 
L 365.916977 187.643804 
L 366.116193 185.892897 
L 366.314976 185.214468 
L 366.711248 187.62589 
L 366.90874 183.744498 
L 367.302448 185.21925 
L 367.498667 182.026592 
L 367.889844 184.437094 
L 368.473485 186.087278 
L 369.245914 192.95625 
L 369.438004 185.752762 
L 369.62969 184.275022 
L 369.820976 185.348787 
L 370.011861 184.582599 
L 370.202348 184.593983 
L 370.392438 186.455131 
L 370.582133 186.972382 
L 370.771435 188.643059 
L 370.960345 188.303382 
L 371.010458 187.865734 
L 371.574546 193.147315 
L 371.761803 190.561143 
L 371.948676 190.906978 
L 372.32128 186.188618 
L 372.507013 188.316958 
L 372.692369 188.394363 
L 372.87735 186.368948 
L 373.061956 186.268563 
L 373.430053 185.513138 
L 373.613546 183.869284 
L 373.796671 184.653162 
L 373.979429 173.720562 
L 374.343852 176.244955 
L 374.887773 181.247756 
L 375.068362 181.639596 
L 375.248595 182.988861 
L 375.607996 178.870064 
L 375.787168 180.96038 
L 376.322582 183.453394 
L 376.854873 188.247202 
L 376.901854 189.834511 
L 377.606422 191.69735 
L 377.781717 193.095161 
L 377.956676 193.038281 
L 378.131301 190.977297 
L 378.305593 191.829199 
L 378.479552 191.675773 
L 378.65318 190.576265 
L 378.826479 191.284417 
L 378.999449 189.546733 
L 379.172093 174.624672 
L 379.34441 175.143793 
L 380.030445 181.901936 
L 380.201152 181.692252 
L 380.880802 187.746139 
L 381.049927 188.523635 
L 381.218739 187.629891 
L 381.38724 184.412206 
L 381.723311 186.810051 
L 381.890884 186.621078 
L 382.058149 185.98236 
L 382.225109 186.425319 
L 382.391764 185.919668 
L 382.43598 188.146306 
L 382.76822 190.887389 
L 383.264322 195.688074 
L 383.429092 195.764333 
L 383.593566 194.428938 
L 383.757743 195.136974 
L 383.921626 194.813669 
L 384.085215 195.863268 
L 384.411516 199.767199 
L 384.736656 201.119689 
L 384.898792 200.415102 
L 385.544473 207.09503 
L 385.705182 202.463688 
L 385.865609 202.790082 
L 386.025754 204.30532 
L 386.185619 201.728714 
L 386.345204 203.037704 
L 386.504511 201.581188 
L 386.663541 201.678152 
L 386.822293 201.982199 
L 387.138973 201.161169 
L 387.611943 204.97492 
L 387.653702 202.904445 
L 387.810744 203.061213 
L 388.124019 206.155912 
L 388.280254 207.875993 
L 388.436223 202.998493 
L 388.591925 204.609299 
L 388.747363 203.028161 
L 389.057445 205.567449 
L 389.366478 199.134183 
L 389.520604 199.997951 
L 389.981424 204.940131 
L 390.134515 204.066001 
L 390.28735 203.927173 
L 390.439929 205.107001 
L 390.592254 203.586672 
L 390.744325 203.524278 
L 390.896144 199.332487 
L 391.04771 198.917938 
L 391.350089 195.762259 
L 391.500904 195.650757 
L 391.651471 194.901536 
L 391.801789 189.742928 
L 391.95186 190.691425 
L 392.101685 190.147701 
L 392.251264 190.827832 
L 392.589251 195.25544 
L 392.738034 194.993623 
L 393.034875 198.70927 
L 393.330754 202.195965 
L 393.478335 200.670038 
L 393.625677 202.133958 
L 393.772782 201.296161 
L 394.066283 204.197225 
L 394.358843 205.786511 
L 394.504772 204.809599 
L 394.795933 207.015002 
L 394.941165 206.337218 
L 395.086167 204.6695 
L 395.375482 207.130637 
L 395.663883 208.905783 
L 395.951376 210.676147 
L 396.094783 205.525865 
L 396.237966 206.378054 
L 396.523659 209.621165 
L 396.666171 208.68625 
L 396.950529 211.168954 
L 397.092377 206.875081 
L 397.234004 206.614284 
L 397.271587 208.173615 
L 397.554069 210.618202 
L 397.694982 212.055982 
L 397.835679 212.330443 
L 398.535927 219.039515 
L 398.675334 211.201209 
L 398.814529 212.953575 
L 399.092283 209.231115 
L 399.230844 209.573231 
L 399.507336 211.43922 
L 399.645269 211.81867 
L 399.782994 202.113398 
L 399.920511 202.74772 
L 400.057822 204.616616 
L 400.194926 203.176557 
L 400.468518 205.390852 
L 400.605007 203.821148 
L 400.741293 204.028066 
L 401.148932 207.44078 
L 401.284409 208.06021 
L 401.55476 206.377897 
L 401.860053 210.711792 
L 401.994479 210.029834 
L 402.262739 213.418986 
L 402.396573 212.615979 
L 402.530212 210.0764 
L 403.062819 214.923833 
L 403.195487 212.55923 
L 403.327962 214.245018 
L 403.592337 212.470397 
L 403.855949 214.172705 
L 404.249944 218.062497 
L 404.642247 214.596513 
L 405.032871 218.703809 
L 405.162708 216.247708 
L 405.292361 217.969395 
L 405.42183 214.713141 
L 405.551116 215.559336 
L 405.680218 212.699674 
L 405.937878 215.270967 
L 406.100553 218.487227 
L 406.484999 220.959433 
L 406.612789 220.322917 
L 407.249068 225.750436 
L 407.375793 225.212846 
L 407.502343 226.890785 
L 407.628718 226.246884 
L 407.880943 223.124374 
L 408.006795 224.098867 
L 408.383313 220.205969 
L 408.633465 222.458059 
L 408.758284 222.410658 
L 408.882933 223.540542 
L 409.007412 223.02499 
L 409.131721 221.660526 
L 409.255862 223.327889 
L 409.379834 221.658865 
L 409.503637 222.268521 
L 409.627273 221.805799 
L 409.750742 222.053048 
L 409.874044 222.692579 
L 410.02986 219.095273 
L 410.520573 223.46074 
L 410.642841 217.835541 
L 410.886885 219.409544 
L 411.130279 221.435066 
L 411.251733 221.153976 
L 411.373025 222.552673 
L 411.494157 220.457179 
L 411.735939 223.100365 
L 411.85659 222.345219 
L 412.217591 227.191319 
L 412.457467 225.171094 
L 412.577169 226.47098 
L 412.696714 223.163856 
L 413.054414 226.772743 
L 413.173336 226.313542 
L 413.292104 227.996688 
L 413.410717 227.562165 
L 413.647483 229.811219 
L 413.765635 225.970896 
L 413.914954 226.837737 
L 414.385274 232.778289 
L 414.502476 233.167104 
L 414.73643 230.086794 
L 414.73643 230.086794 
" clip-path="url(#p2dce725dce)" style="fill: none; stroke: #1f77b4; stroke-opacity: 0.4; stroke-linecap: square"/>
   </g>
   <g id="line2d_37">
    <path d="M 53.968492 62.762625 
L 59.854134 64.992906 
L 65.383184 68.43382 
L 70.596393 71.169755 
L 75.527904 74.099421 
L 80.206606 75.996127 
L 84.657159 78.776852 
L 88.900784 81.226839 
L 92.955871 82.858117 
L 96.838463 85.477652 
L 100.562638 86.74587 
L 104.140817 88.082575 
L 107.584018 90.50403 
L 110.902055 92.634339 
L 114.103709 93.624359 
L 117.196869 94.893894 
L 120.188647 91.601345 
L 123.085479 93.501307 
L 123.839744 95.503237 
L 126.624717 97.528669 
L 131.952044 100.560783 
L 134.503485 102.405312 
L 136.985549 102.040139 
L 139.40191 103.7639 
L 141.755957 102.413198 
L 144.050822 104.044085 
L 146.289409 105.897582 
L 148.474413 107.205097 
L 150.608337 105.119162 
L 152.693517 104.452114 
L 154.732129 106.174939 
L 156.726208 107.367383 
L 158.677659 109.291513 
L 166.091267 115.690361 
L 167.854273 115.945095 
L 169.583875 117.684723 
L 171.281314 119.150014 
L 172.947767 118.837602 
L 174.584343 120.197131 
L 176.192095 120.279419 
L 179.325067 123.097276 
L 180.852133 123.876815 
L 182.354074 124.515023 
L 183.831704 123.263231 
L 185.285796 124.226006 
L 186.71709 125.593051 
L 187.093535 125.011753 
L 188.496978 125.01177 
L 189.879171 125.761488 
L 191.240749 126.763471 
L 192.582316 126.804833 
L 193.904452 127.398121 
L 195.207713 128.41586 
L 197.759712 129.218487 
L 199.009447 130.345341 
L 200.242303 131.047683 
L 201.458732 130.659702 
L 202.659164 131.74956 
L 203.844015 130.056591 
L 205.013685 131.172006 
L 206.168557 131.762796 
L 207.309001 132.74342 
L 208.435374 134.125692 
L 210.647263 135.569087 
L 211.733429 133.075462 
L 212.806824 133.231502 
L 213.867744 134.472523 
L 214.916475 135.184183 
L 216.978472 136.125885 
L 217.992263 132.479613 
L 218.99492 133.666842 
L 219.986683 133.520494 
L 221.938459 128.710644 
L 222.898919 130.135902 
L 223.849378 126.304613 
L 224.100189 126.487564 
L 225.038286 127.395524 
L 227.796089 131.482936 
L 228.697148 132.080353 
L 229.5894 133.318743 
L 230.473015 133.554108 
L 231.34816 134.155459 
L 232.214994 134.939314 
L 233.073675 136.092015 
L 233.924353 135.616211 
L 234.767178 136.680964 
L 235.602292 138.062797 
L 236.429836 138.808326 
L 237.249946 137.898534 
L 238.062753 138.401112 
L 238.868387 138.288421 
L 241.243488 141.401374 
L 242.021652 140.50934 
L 242.793239 139.371165 
L 244.317119 140.870355 
L 245.069624 138.326153 
L 245.815977 137.905586 
L 246.556278 139.303738 
L 247.290623 139.591781 
L 248.741826 141.321211 
L 249.458867 140.054369 
L 250.170319 140.172443 
L 250.358371 140.587603 
L 251.062874 140.302233 
L 251.761983 141.942797 
L 252.455778 139.375215 
L 253.14434 141.146778 
L 254.506076 143.278531 
L 255.179401 143.965388 
L 256.511334 147.54198 
L 257.170083 148.648004 
L 257.824112 150.369948 
L 258.473489 151.586455 
L 259.118279 151.883345 
L 259.758547 153.464964 
L 260.394356 150.850663 
L 261.025766 151.553942 
L 261.65284 151.35744 
L 262.275635 152.306521 
L 262.89421 153.865842 
L 263.508622 152.532355 
L 264.118926 153.904995 
L 264.725177 148.07714 
L 265.327428 144.492843 
L 266.520141 142.97446 
L 267.110704 143.64017 
L 267.697471 142.601019 
L 268.85981 146.529079 
L 269.435477 146.655571 
L 270.007536 148.587972 
L 270.576032 148.614458 
L 270.726446 149.156712 
L 271.290497 147.055933 
L 271.851084 148.921874 
L 272.408249 148.354238 
L 272.962035 150.321427 
L 273.512481 150.326533 
L 274.059628 152.295604 
L 275.144182 153.217039 
L 276.216001 153.892666 
L 276.747228 155.312479 
L 277.800497 159.137276 
L 278.322609 159.798624 
L 278.841752 161.691479 
L 279.35796 162.562828 
L 279.871265 164.121232 
L 280.381699 165.067762 
L 280.889296 165.398828 
L 281.394085 166.291342 
L 282.395367 169.392306 
L 282.891919 167.152896 
L 283.385785 168.513769 
L 283.876994 165.857345 
L 284.365573 164.894948 
L 285.334957 167.965297 
L 285.815815 167.772402 
L 286.294154 169.458561 
L 286.77 169.964953 
L 287.243378 168.266705 
L 287.368708 169.60957 
L 287.838999 171.046025 
L 288.772376 171.739261 
L 289.696305 175.046047 
L 290.154787 173.737234 
L 290.610978 168.327595 
L 291.0649 165.154386 
L 292.413279 169.466287 
L 292.858349 169.88102 
L 293.301259 170.845156 
L 293.742031 169.011764 
L 294.180685 170.758231 
L 294.617241 167.237705 
L 295.484139 169.524591 
L 295.914521 171.449993 
L 296.342883 171.822469 
L 296.769245 169.8621 
L 297.193624 170.801831 
L 297.616039 170.136841 
L 298.036509 171.279539 
L 298.455052 171.316802 
L 298.871683 170.41547 
L 299.286423 169.087083 
L 300.519453 173.313933 
L 300.926789 168.40251 
L 301.439733 171.093022 
L 301.842993 171.71786 
L 302.244479 171.51512 
L 302.644207 171.907888 
L 303.042193 173.338839 
L 303.438451 174.268573 
L 303.832996 175.514931 
L 304.225844 176.373218 
L 304.617008 176.895828 
L 305.006503 175.526255 
L 305.780543 177.40931 
L 306.165116 177.497553 
L 306.548075 178.832418 
L 306.929435 180.690426 
L 307.309208 180.471574 
L 307.687408 182.322524 
L 308.064047 183.397923 
L 308.439138 181.132121 
L 308.812695 182.742551 
L 309.18473 183.466524 
L 309.555254 183.674356 
L 309.92428 181.47327 
L 310.291821 183.215225 
L 310.657888 181.42974 
L 311.022493 181.222779 
L 311.385647 181.882037 
L 311.747363 181.643098 
L 312.10765 182.593606 
L 312.466522 175.108998 
L 312.823988 176.892583 
L 313.18006 177.968901 
L 313.534748 179.951348 
L 313.628731 181.508342 
L 313.981684 182.171881 
L 314.333277 184.061771 
L 315.032427 186.075825 
L 315.380005 186.580624 
L 315.726264 186.394112 
L 316.071214 187.968856 
L 316.414866 188.925679 
L 316.757229 186.526037 
L 317.098313 185.167289 
L 317.438127 185.780876 
L 318.113984 188.276732 
L 318.450046 184.592198 
L 319.11848 187.302566 
L 319.45087 188.689922 
L 319.782055 187.795676 
L 320.112042 189.297564 
L 320.440841 185.361592 
L 320.768459 187.095439 
L 321.094907 187.206847 
L 321.420191 186.564018 
L 321.74432 188.229423 
L 322.067302 182.497933 
L 322.389145 181.267097 
L 322.709858 180.697227 
L 323.029448 179.036103 
L 323.347923 179.42342 
L 323.665291 178.447496 
L 323.98156 179.297535 
L 325.006808 177.344411 
L 325.629072 180.629686 
L 325.938621 180.632388 
L 326.247124 176.987782 
L 326.554588 178.310078 
L 326.861019 178.692197 
L 327.470814 180.711962 
L 327.77419 180.127193 
L 328.377935 181.68497 
L 328.678317 183.215263 
L 328.977714 184.147869 
L 329.276131 184.255909 
L 329.573577 180.414338 
L 330.165576 182.719354 
L 330.460142 182.887521 
L 331.046438 185.930138 
L 331.628993 187.925158 
L 331.918882 185.208071 
L 332.207853 185.234632 
L 332.495913 187.091623 
L 332.783066 187.297512 
L 333.069319 186.188598 
L 333.354678 187.446572 
L 333.639147 185.920218 
L 333.922732 187.480506 
L 333.997911 189.020305 
L 334.280386 189.746039 
L 334.842727 192.315407 
L 335.122603 194.21813 
L 335.401625 193.007644 
L 335.957121 195.063699 
L 336.233607 195.649906 
L 336.509258 193.857795 
L 336.78408 194.556421 
L 337.331252 197.535006 
L 337.603614 198.82836 
L 337.875165 199.32744 
L 338.145911 199.574857 
L 338.415856 200.097085 
L 338.685005 201.212622 
L 338.953363 194.940809 
L 339.487724 192.777685 
L 339.753736 190.991903 
L 340.283446 192.739668 
L 340.547153 192.488308 
L 341.072292 195.752128 
L 341.333733 194.819411 
L 341.594428 194.967546 
L 341.85438 194.307079 
L 342.372074 197.213065 
L 342.629824 197.096935 
L 342.698167 198.895363 
L 342.954999 199.139799 
L 343.211111 200.755034 
L 343.466506 198.902218 
L 343.721189 200.220084 
L 343.975164 197.010501 
L 344.228433 197.425975 
L 344.984053 201.761997 
L 345.234543 202.357883 
L 345.484347 202.501576 
L 345.73347 200.476195 
L 345.981914 201.438534 
L 346.723217 205.639688 
L 346.968986 206.288985 
L 347.214095 203.769175 
L 347.458548 204.115095 
L 347.702348 203.010619 
L 347.945499 204.504998 
L 348.188003 202.545164 
L 348.671088 205.211667 
L 348.911676 205.550877 
L 349.151631 203.363228 
L 349.390957 202.929906 
L 349.867734 205.589813 
L 350.105193 202.400719 
L 350.876368 206.821238 
L 351.34547 208.794007 
L 351.57912 207.606179 
L 352.044634 209.678143 
L 352.276504 209.862126 
L 352.507786 209.749107 
L 352.738484 211.081187 
L 352.9686 211.754407 
L 353.198138 211.784948 
L 353.4271 205.474791 
L 353.883308 208.540943 
L 354.337248 209.531318 
L 354.788942 212.201377 
L 355.238411 211.727227 
L 355.462319 204.392341 
L 355.685679 204.277992 
L 355.908494 206.007167 
L 356.130766 204.153486 
L 356.352498 204.407919 
L 357.014481 206.243641 
L 357.671699 210.174368 
L 357.889724 209.819188 
L 357.94755 211.386579 
L 358.164918 210.86525 
L 358.38177 210.800559 
L 358.598108 210.120036 
L 358.813934 210.318381 
L 359.029251 209.116415 
L 359.244062 209.850138 
L 359.458369 211.563086 
L 359.672173 210.729163 
L 359.885478 211.007088 
L 360.098286 211.890276 
L 360.522419 214.817675 
L 360.94459 216.38549 
L 361.154946 217.631671 
L 361.574209 209.153099 
L 361.78312 205.471812 
L 362.407002 208.331985 
L 362.614019 206.803745 
L 362.820567 207.236891 
L 363.026649 207.150545 
L 363.232266 208.446304 
L 363.437422 207.058704 
L 363.642118 206.519203 
L 363.846355 207.385739 
L 364.050137 207.380244 
L 364.456341 207.829997 
L 364.658767 209.20875 
L 364.712461 210.832402 
L 365.115735 213.581037 
L 365.316706 215.155102 
L 365.517235 215.708105 
L 365.717325 215.586022 
L 365.916977 216.070792 
L 367.302448 222.053842 
L 367.498667 218.408105 
L 367.694465 218.163472 
L 367.889844 207.18217 
L 368.084806 207.12835 
L 368.473485 208.908573 
L 368.667206 208.267615 
L 368.860516 207.024986 
L 369.053418 208.658313 
L 369.245914 208.322229 
L 369.820976 212.922518 
L 370.011861 213.541622 
L 370.202348 213.236173 
L 370.392438 214.605304 
L 370.582133 213.565869 
L 370.771435 215.239819 
L 370.960345 213.466866 
L 371.010458 213.490052 
L 371.198875 212.598284 
L 371.574546 214.764456 
L 371.948676 210.57574 
L 372.135168 211.078433 
L 372.692369 215.827218 
L 373.061956 213.832403 
L 373.430053 214.986688 
L 373.613546 212.834504 
L 373.796671 213.816243 
L 373.979429 212.74504 
L 374.706826 218.969049 
L 374.887773 216.327884 
L 375.068362 215.75797 
L 375.248595 216.321097 
L 375.428472 216.133089 
L 375.607996 215.346675 
L 375.965988 217.830386 
L 376.144459 216.767751 
L 376.500357 219.808234 
L 376.677787 218.054371 
L 376.901854 220.886738 
L 377.078507 219.488681 
L 377.606422 223.156061 
L 377.781717 221.794546 
L 377.956676 222.471872 
L 378.131301 219.389508 
L 378.479552 219.842328 
L 378.999449 222.580659 
L 379.172093 220.746247 
L 379.34441 220.910589 
L 379.688072 222.997554 
L 379.859419 224.42523 
L 380.030445 224.532179 
L 380.371539 226.55002 
L 380.541609 226.070693 
L 380.711363 221.301274 
L 380.880802 222.399366 
L 381.049927 222.36345 
L 381.218739 219.793217 
L 381.38724 219.184592 
L 381.890884 221.224407 
L 382.225109 224.115236 
L 382.391764 224.301599 
L 382.43598 222.748776 
L 382.602251 223.866258 
L 382.76822 219.693517 
L 383.593566 225.957432 
L 383.757743 223.93742 
L 383.921626 223.36422 
L 384.898792 228.393696 
L 385.060641 228.231835 
L 385.222203 228.227695 
L 385.38348 225.920378 
L 385.544473 226.412094 
L 385.705182 227.650322 
L 386.025754 226.107922 
L 386.663541 230.734793 
L 386.822293 226.538561 
L 387.138973 228.61875 
L 387.454558 230.769506 
L 387.611943 228.204562 
L 387.653702 229.226421 
L 387.810744 229.897926 
L 388.280254 233.268222 
L 388.747363 235.466781 
L 388.902536 232.831551 
L 389.057445 233.654601 
L 389.212093 233.093317 
L 389.366478 233.199123 
L 389.520604 232.211075 
L 389.981424 235.545478 
L 390.134515 234.875558 
L 390.28735 234.748788 
L 390.592254 236.932158 
L 390.744325 237.437674 
L 390.896144 236.162387 
L 391.04771 237.414974 
L 391.199025 237.535365 
L 391.350089 234.053866 
L 391.651471 235.695609 
L 391.801789 236.769005 
L 391.95186 232.92959 
L 392.101685 232.525834 
L 392.251264 233.53233 
L 392.400599 233.184856 
L 392.54969 232.526978 
L 392.589251 231.154367 
L 392.886575 233.492517 
L 393.034875 232.447528 
L 393.625677 237.230922 
L 393.772782 238.508792 
L 393.91965 237.130979 
L 394.504772 240.651173 
L 394.795933 238.791145 
L 395.086167 235.140129 
L 395.519796 238.303263 
L 395.663883 239.421028 
L 395.951376 233.314544 
L 396.094783 233.178948 
L 396.237966 227.984824 
L 396.523659 229.719051 
L 396.666171 225.786117 
L 396.808461 226.56701 
L 396.950529 226.647551 
L 397.092377 227.361473 
L 397.234004 225.353063 
L 397.271587 225.6609 
L 397.694982 227.636621 
L 397.976159 229.761153 
L 398.116423 229.775034 
L 398.675334 234.767427 
L 399.230844 237.319557 
L 399.369195 236.271126 
L 399.507336 236.736088 
L 399.782994 238.658958 
L 399.920511 237.877771 
L 400.194926 237.722134 
L 400.605007 240.620983 
L 400.741293 239.18243 
L 401.013255 240.610697 
L 401.148932 237.913308 
L 401.284409 237.577583 
L 401.419684 238.701391 
L 401.55476 238.88356 
L 401.689636 238.383484 
L 401.725429 234.478853 
L 401.860053 235.119088 
L 401.994479 233.818799 
L 402.796904 240.353511 
L 402.929959 238.254668 
L 403.327962 240.684323 
L 403.460245 241.13662 
L 403.592337 242.446423 
L 403.724238 241.705938 
L 404.118801 244.600659 
L 404.249944 245.569963 
L 404.380899 242.638783 
L 404.772641 244.993509 
L 404.902848 245.506757 
L 405.032871 246.488356 
L 405.162708 246.232676 
L 405.292361 243.427694 
L 405.551116 244.707284 
L 405.680218 244.396515 
L 405.809139 245.024833 
L 405.972043 244.359351 
L 406.100553 244.605302 
L 406.228881 245.449968 
L 406.35703 241.968463 
L 406.484999 242.693989 
L 406.612789 239.875499 
L 406.7404 241.316301 
L 406.867833 241.440619 
L 407.122166 242.938413 
L 407.502343 245.411007 
L 407.754917 244.320166 
L 407.880943 244.141001 
L 408.132473 244.564412 
L 408.257979 245.103553 
L 408.383313 244.703224 
L 408.508474 243.436229 
L 408.758284 239.269321 
L 409.255862 241.472037 
L 409.503637 241.78936 
L 409.627273 239.717443 
L 410.02986 242.657915 
L 410.152786 241.113228 
L 410.520573 244.054029 
L 410.642841 243.993611 
L 410.886885 245.993699 
L 411.008663 245.808807 
L 411.130279 244.968138 
L 411.494157 247.89877 
L 411.615128 248.081195 
L 411.735939 247.857888 
L 411.85659 248.132982 
L 412.097416 249.549392 
L 412.217591 249.654753 
L 412.337607 250.325824 
L 412.577169 249.073143 
L 412.696714 247.436255 
L 412.816103 248.178896 
L 413.054414 244.235172 
L 413.292104 246.310647 
L 413.410717 246.254861 
L 413.529177 246.473081 
L 413.647483 246.346164 
L 413.883636 244.100023 
L 414.032761 245.895986 
L 414.150417 245.77734 
L 414.385274 247.047842 
L 414.502476 247.146776 
L 414.73643 249.336828 
L 414.73643 249.336828 
" clip-path="url(#p2dce725dce)" style="fill: none; stroke: #ff7f0e; stroke-opacity: 0.4; stroke-linecap: square"/>
   </g>
   <g id="line2d_38">
    <path d="M 53.968492 65.712911 
L 59.854134 68.335443 
L 65.383184 69.440591 
L 70.596393 68.844455 
L 75.527904 72.253988 
L 80.206606 70.07903 
L 84.657159 72.286597 
L 88.900784 75.27353 
L 92.955871 77.086474 
L 96.838463 75.510945 
L 104.140817 79.643746 
L 107.584018 80.252452 
L 110.902055 82.473703 
L 114.103709 80.887593 
L 117.196869 83.050258 
L 120.188647 85.452157 
L 123.085479 82.615348 
L 123.839744 80.763032 
L 129.327236 85.684297 
L 131.952044 87.40095 
L 134.503485 87.063161 
L 136.985549 89.086681 
L 139.40191 90.071125 
L 141.755957 92.452196 
L 144.050822 92.95537 
L 148.474413 97.33126 
L 150.608337 93.792011 
L 152.693517 94.101189 
L 154.732129 92.612664 
L 156.726208 94.498011 
L 158.677659 96.106526 
L 160.588264 95.429199 
L 162.459701 97.022309 
L 164.293541 99.007373 
L 166.091267 99.929463 
L 167.854273 102.08844 
L 169.583875 100.369215 
L 171.281314 102.439728 
L 172.947767 104.248334 
L 174.584343 105.277615 
L 176.192095 104.821723 
L 179.325067 108.283892 
L 180.852133 102.75036 
L 182.354074 104.531101 
L 183.831704 103.897425 
L 185.285796 103.019642 
L 186.71709 103.815463 
L 187.093535 103.623412 
L 188.496978 105.694624 
L 189.879171 106.495067 
L 191.240749 108.299932 
L 192.582316 105.386301 
L 193.904452 107.324282 
L 196.49263 109.574473 
L 197.759712 109.975758 
L 199.009447 110.778763 
L 200.242303 111.714821 
L 201.458732 109.184192 
L 202.659164 111.232805 
L 203.844015 110.395797 
L 205.013685 112.203912 
L 206.168557 109.541545 
L 207.309001 110.779696 
L 208.435374 108.91024 
L 209.548017 110.756938 
L 210.647263 111.403276 
L 211.733429 111.544019 
L 213.867744 115.071407 
L 214.916475 115.603781 
L 215.953296 117.072381 
L 216.978472 118.223266 
L 217.992263 118.629764 
L 218.99492 113.391319 
L 219.986683 114.151431 
L 220.967787 115.164805 
L 221.938459 113.354266 
L 222.898919 115.043005 
L 224.100189 108.934041 
L 225.038286 110.459302 
L 227.796089 116.464904 
L 228.697148 113.987435 
L 229.5894 113.835156 
L 230.473015 111.673396 
L 231.34816 113.159735 
L 232.214994 113.227649 
L 233.073675 115.02693 
L 233.924353 115.091593 
L 234.767178 116.898566 
L 235.602292 113.501774 
L 237.249946 117.37468 
L 238.062753 111.742459 
L 238.868387 111.971076 
L 239.666973 112.996594 
L 241.243488 116.232795 
L 242.021652 118.314347 
L 242.793239 118.500752 
L 243.558358 118.891435 
L 244.317119 120.41184 
L 245.069624 117.87662 
L 245.815977 117.592787 
L 246.556278 119.571087 
L 247.290623 117.422422 
L 248.019108 111.825563 
L 249.458867 115.107345 
L 250.170319 117.122972 
L 250.358371 119.096841 
L 251.761983 122.964918 
L 252.455778 123.883963 
L 253.827747 125.040018 
L 254.506076 125.387688 
L 255.179401 120.841685 
L 255.847797 121.461116 
L 257.824112 127.159009 
L 258.473489 126.01583 
L 259.118279 126.462415 
L 259.758547 127.657244 
L 260.394356 121.652362 
L 261.025766 123.379634 
L 261.65284 124.233501 
L 262.275635 126.213054 
L 262.89421 126.123932 
L 263.508622 127.694828 
L 264.118926 129.571666 
L 264.725177 128.874223 
L 265.327428 130.330592 
L 265.925733 131.099873 
L 266.520141 128.025685 
L 267.110704 128.191428 
L 268.280491 131.67507 
L 268.85981 130.787928 
L 269.435477 129.017878 
L 270.007536 130.313839 
L 270.576032 128.129596 
L 270.726446 128.173799 
L 271.290497 128.978536 
L 272.408249 132.443495 
L 272.962035 130.662529 
L 273.512481 132.399461 
L 274.059628 131.761907 
L 274.603516 132.076819 
L 275.144182 133.761135 
L 275.681664 131.464276 
L 276.216001 132.761637 
L 276.747228 131.851923 
L 277.275382 132.994453 
L 277.800497 129.135102 
L 278.322609 126.30528 
L 278.841752 127.570874 
L 279.35796 126.923572 
L 279.871265 128.305543 
L 280.381699 130.14065 
L 280.889296 131.290028 
L 281.394085 130.41291 
L 281.896099 128.451469 
L 282.395367 129.813372 
L 282.891919 131.753937 
L 283.385785 131.609423 
L 283.876994 131.713615 
L 284.365573 130.101428 
L 284.851552 131.747411 
L 285.334957 130.382819 
L 286.294154 134.388306 
L 286.77 135.890724 
L 287.368708 128.435901 
L 287.838999 128.707717 
L 288.30688 127.410528 
L 288.772376 126.759595 
L 289.23551 127.742918 
L 289.696305 127.128773 
L 290.154787 127.467777 
L 290.610978 128.396345 
L 291.0649 130.195851 
L 291.516576 130.055939 
L 291.966028 132.036055 
L 292.413279 132.717738 
L 293.301259 134.417222 
L 294.180685 137.499863 
L 294.617241 134.060093 
L 295.051719 134.466284 
L 295.484139 133.76365 
L 296.342883 137.277909 
L 296.769245 134.801493 
L 298.036509 138.636982 
L 298.455052 136.797941 
L 299.286423 138.501219 
L 299.699286 136.42319 
L 300.11029 137.485648 
L 300.926789 141.132842 
L 301.332317 136.728466 
L 301.439733 137.600649 
L 301.842993 138.942983 
L 302.244479 141.047372 
L 303.042193 143.796778 
L 303.832996 142.479562 
L 304.225844 142.018034 
L 304.617008 136.202825 
L 305.394344 140.148953 
L 305.780543 140.322054 
L 306.548075 143.725776 
L 306.929435 139.502232 
L 307.309208 139.905697 
L 307.687408 141.740687 
L 308.064047 139.722562 
L 308.439138 140.457528 
L 309.555254 143.867868 
L 309.92428 144.285309 
L 310.291821 146.213589 
L 310.657888 144.537541 
L 311.022493 146.052436 
L 311.385647 145.158534 
L 311.747363 146.438698 
L 312.10765 142.357313 
L 312.466522 142.358414 
L 313.534748 146.612376 
L 313.628731 146.681922 
L 313.981684 147.187835 
L 314.333277 145.10713 
L 314.683522 143.923765 
L 315.032427 144.1753 
L 315.380005 143.83834 
L 315.726264 144.867355 
L 316.414866 143.269053 
L 316.757229 145.331979 
L 317.438127 139.687743 
L 317.776681 138.472829 
L 318.113984 140.294548 
L 318.450046 141.364859 
L 318.784874 140.500589 
L 319.45087 144.084902 
L 319.782055 141.636443 
L 320.112042 142.750073 
L 320.768459 146.725799 
L 321.094907 145.720322 
L 321.420191 146.622574 
L 322.389145 151.373117 
L 322.709858 150.833347 
L 323.029448 152.524887 
L 323.347923 153.543617 
L 323.665291 152.295805 
L 323.98156 152.35192 
L 324.380272 150.870148 
L 325.006808 152.600361 
L 325.31847 153.096631 
L 325.629072 154.938685 
L 325.938621 156.005692 
L 326.247124 155.078537 
L 326.554588 156.753561 
L 326.861019 156.532454 
L 327.166426 157.770986 
L 327.77419 159.184828 
L 328.076562 159.815621 
L 328.377935 160.984491 
L 328.678317 160.913599 
L 329.276131 163.302642 
L 329.573577 164.423621 
L 329.870056 164.937225 
L 330.165576 166.275923 
L 330.460142 166.935092 
L 330.753761 168.087524 
L 331.046438 165.048614 
L 331.33818 166.284204 
L 331.628993 163.67122 
L 331.918882 163.54163 
L 332.207853 163.917641 
L 332.495913 165.093065 
L 332.783066 164.576265 
L 333.922732 169.836593 
L 333.997911 171.286933 
L 334.280386 171.123731 
L 334.56199 170.50052 
L 334.842727 170.422839 
L 335.122603 172.12928 
L 335.401625 171.344457 
L 335.679796 167.134274 
L 335.957121 168.936852 
L 336.233607 169.097699 
L 336.509258 168.85464 
L 336.78408 169.81553 
L 337.603614 173.722598 
L 337.875165 174.580757 
L 338.145911 173.654384 
L 339.220935 178.878596 
L 339.753736 178.850527 
L 340.018976 177.967634 
L 340.283446 178.508424 
L 340.547153 177.475464 
L 341.072292 179.869559 
L 341.333733 179.735105 
L 341.594428 181.018528 
L 341.85438 178.006664 
L 342.113594 178.303423 
L 342.372074 178.789167 
L 342.629824 179.947587 
L 342.698167 180.768499 
L 342.954999 181.918193 
L 343.211111 182.102281 
L 343.466506 183.607573 
L 343.721189 183.703006 
L 343.975164 184.950767 
L 344.228433 185.272799 
L 344.481002 182.243277 
L 344.984053 184.618972 
L 345.234543 184.219297 
L 345.484347 185.244512 
L 345.73347 183.400857 
L 346.229685 185.771799 
L 346.723217 179.54125 
L 346.968986 179.141633 
L 347.214095 179.982413 
L 347.458548 180.314832 
L 347.702348 176.196602 
L 347.945499 176.966311 
L 348.429865 179.995182 
L 348.671088 180.88506 
L 349.629657 186.42923 
L 349.867734 186.799281 
L 350.105193 186.658251 
L 350.342035 187.36888 
L 350.64091 187.726396 
L 351.11122 189.914757 
L 351.34547 190.509789 
L 351.812174 192.913691 
L 352.044634 192.322828 
L 352.276504 193.453654 
L 352.507786 193.619521 
L 352.738484 187.424737 
L 353.4271 191.748966 
L 353.655489 192.376688 
L 353.883308 192.138724 
L 354.11056 189.524105 
L 354.788942 192.440196 
L 355.013953 187.191624 
L 355.238411 188.638802 
L 355.462319 187.286459 
L 355.685679 186.951182 
L 355.908494 188.480345 
L 356.130766 188.11701 
L 356.352498 189.739353 
L 356.573693 189.295578 
L 356.794353 188.535816 
L 357.014481 185.282955 
L 357.23408 186.458896 
L 357.453152 183.640353 
L 357.671699 183.418952 
L 357.889724 182.515398 
L 357.94755 184.193856 
L 358.813934 188.839937 
L 359.029251 189.418868 
L 359.244062 189.549827 
L 359.458369 189.331814 
L 359.672173 190.233969 
L 359.885478 190.296943 
L 360.098286 189.043747 
L 360.310599 189.732344 
L 360.733748 192.471591 
L 360.94459 191.709429 
L 361.78312 182.859307 
L 361.991555 184.509642 
L 362.199515 184.471063 
L 362.614019 187.334103 
L 362.820567 186.784296 
L 363.026649 186.733536 
L 363.232266 188.046397 
L 363.437422 188.488378 
L 363.642118 190.126865 
L 364.253465 191.274667 
L 364.456341 192.042079 
L 364.658767 192.268059 
L 364.712461 193.341365 
L 364.914321 193.546193 
L 365.115735 193.92983 
L 365.717325 197.612026 
L 365.916977 198.181996 
L 366.116193 197.480431 
L 366.314976 198.142274 
L 366.513327 197.782956 
L 366.711248 198.162211 
L 367.105806 200.509045 
L 367.302448 200.091103 
L 367.498667 200.278185 
L 367.889844 202.09178 
L 368.084806 200.857943 
L 368.279353 201.698858 
L 368.473485 201.08164 
L 368.667206 201.254917 
L 368.860516 199.326308 
L 369.053418 200.655679 
L 369.245914 196.625309 
L 369.62969 198.78554 
L 370.011861 200.577862 
L 370.202348 200.821492 
L 370.392438 201.250956 
L 370.582133 202.659311 
L 370.771435 202.356344 
L 371.198875 199.656438 
L 371.574546 200.973615 
L 371.761803 200.912358 
L 371.948676 200.386847 
L 372.135168 201.402386 
L 372.507013 199.505594 
L 372.692369 200.830817 
L 372.87735 199.170847 
L 373.061956 200.670584 
L 373.24619 200.086925 
L 373.430053 200.325485 
L 373.796671 202.77828 
L 374.343852 200.145213 
L 374.525519 196.585623 
L 374.706826 198.035068 
L 374.887773 197.717358 
L 375.068362 194.85499 
L 375.248595 194.415894 
L 375.428472 195.08417 
L 376.500357 201.824506 
L 376.677787 202.169474 
L 376.901854 201.862101 
L 377.078507 202.540459 
L 377.606422 206.534116 
L 377.781717 207.072853 
L 377.956676 207.051454 
L 378.131301 204.911222 
L 378.305593 204.99521 
L 378.479552 205.793185 
L 378.65318 205.61678 
L 378.826479 206.880948 
L 378.999449 206.704898 
L 379.34441 206.960645 
L 379.859419 208.400149 
L 380.030445 208.347363 
L 380.201152 207.976712 
L 380.371539 208.691467 
L 380.541609 207.120467 
L 381.049927 209.929744 
L 381.218739 207.656816 
L 381.38724 209.229699 
L 381.55543 205.960372 
L 381.723311 207.118959 
L 381.890884 207.471195 
L 382.391764 209.52132 
L 382.43598 210.568316 
L 382.933887 213.604921 
L 383.264322 216.195092 
L 383.757743 207.633835 
L 384.085215 208.183505 
L 384.574231 211.696578 
L 384.736656 207.951992 
L 384.898792 209.219129 
L 385.060641 209.518296 
L 385.544473 212.814762 
L 385.705182 211.315347 
L 385.865609 211.058882 
L 386.025754 208.223827 
L 386.185619 209.563685 
L 386.345204 208.712317 
L 386.663541 210.835785 
L 386.822293 210.4649 
L 387.138973 211.656025 
L 387.611943 212.577496 
L 387.653702 213.87345 
L 387.810744 212.906934 
L 387.967516 212.818749 
L 388.280254 214.026055 
L 388.436223 215.186321 
L 388.591925 215.465966 
L 388.902536 216.834354 
L 389.212093 218.7185 
L 389.366478 219.110396 
L 389.674469 215.953531 
L 389.828075 217.264944 
L 389.981424 216.658438 
L 390.439929 219.769052 
L 390.592254 220.480239 
L 390.744325 218.715884 
L 390.896144 219.020779 
L 391.350089 218.12261 
L 391.651471 220.151614 
L 391.801789 219.432987 
L 392.400599 222.367229 
L 392.54969 222.810988 
L 392.589251 220.948381 
L 392.886575 223.01086 
L 393.034875 222.206406 
L 393.182935 222.143049 
L 393.330754 218.685211 
L 393.478335 218.653844 
L 393.625677 218.456228 
L 394.066283 220.384239 
L 394.358843 218.048641 
L 394.504772 218.560598 
L 394.795933 220.346994 
L 394.941165 221.229128 
L 395.086167 220.001423 
L 395.375482 221.99871 
L 395.519796 222.049158 
L 395.663883 221.113003 
L 395.807742 218.590267 
L 395.951376 218.32742 
L 396.094783 219.207654 
L 396.237966 217.191238 
L 396.523659 219.740735 
L 396.666171 219.569722 
L 396.808461 220.986005 
L 397.234004 217.973476 
L 397.271587 219.385797 
L 397.554069 221.842263 
L 397.694982 216.341778 
L 397.976159 218.71879 
L 398.116423 216.229649 
L 398.675334 221.393623 
L 398.814529 220.499734 
L 399.230844 222.158946 
L 399.369195 219.738081 
L 399.507336 219.430632 
L 399.782994 221.438151 
L 400.057822 221.665707 
L 400.194926 222.62573 
L 400.331824 222.097837 
L 400.468518 220.172253 
L 400.605007 220.316249 
L 400.741293 220.844996 
L 400.877375 219.134049 
L 401.013255 220.114317 
L 401.148932 215.349698 
L 401.419684 218.199725 
L 401.689636 216.770688 
L 401.860053 218.934396 
L 401.994479 220.091423 
L 402.262739 217.393692 
L 402.396573 218.708763 
L 402.530212 218.587161 
L 402.796904 221.11096 
L 402.929959 220.307698 
L 403.195487 222.775078 
L 403.327962 221.344839 
L 403.460245 217.750108 
L 403.592337 218.969046 
L 403.724238 219.129217 
L 403.855949 217.21878 
L 403.98747 218.506036 
L 404.118801 218.471061 
L 404.249944 219.44196 
L 404.380899 219.131974 
L 404.511667 219.431973 
L 404.772641 221.426427 
L 404.902848 221.205884 
L 405.032871 219.603686 
L 405.162708 219.776311 
L 405.292361 220.847366 
L 405.42183 220.047867 
L 405.551116 220.818008 
L 405.809139 223.77885 
L 405.937878 223.6164 
L 406.100553 225.702628 
L 406.228881 224.95032 
L 406.484999 227.39769 
L 406.612789 224.257818 
L 406.867833 226.391779 
L 406.995088 226.598058 
L 407.249068 228.292938 
L 407.375793 228.507574 
L 407.502343 228.138725 
L 407.628718 229.328375 
L 407.754917 229.435066 
L 408.006795 230.731473 
L 408.132473 231.939661 
L 408.257979 228.035907 
L 408.383313 227.622269 
L 408.633465 228.848923 
L 408.758284 227.409998 
L 408.882933 227.46365 
L 409.007412 227.019645 
L 409.131721 226.098392 
L 409.255862 226.933302 
L 409.379834 226.451977 
L 409.750742 228.406905 
L 409.874044 226.657887 
L 410.398142 230.849416 
L 410.520573 228.071046 
L 410.642841 227.854165 
L 410.764944 218.843409 
L 410.886885 219.60792 
L 411.251733 222.953965 
L 411.373025 223.914212 
L 411.494157 223.774617 
L 411.615128 224.223626 
L 411.977082 226.945709 
L 412.097416 225.971667 
L 413.292104 233.73576 
L 413.410717 231.369402 
L 413.529177 231.997912 
L 413.883636 234.583401 
L 413.914954 234.704162 
L 414.150417 236.539866 
L 414.267921 236.939853 
L 414.385274 237.948543 
L 414.502476 234.556148 
L 414.619528 234.602541 
L 414.73643 235.051125 
L 414.73643 235.051125 
" clip-path="url(#p2dce725dce)" style="fill: none; stroke: #2ca02c; stroke-opacity: 0.4; stroke-linecap: square"/>
   </g>
   <g id="line2d_39">
    <path d="M 53.968492 72.963814 
L 59.854134 74.799262 
L 65.383184 76.205459 
L 70.596393 74.105166 
L 75.527904 77.140731 
L 80.206606 75.149802 
L 84.657159 77.6002 
L 88.900784 80.422659 
L 92.955871 81.215344 
L 96.838463 83.587055 
L 100.562638 85.999335 
L 104.140817 88.060194 
L 107.584018 89.568217 
L 110.902055 90.447744 
L 117.196869 93.265751 
L 120.188647 93.685646 
L 123.085479 95.136155 
L 123.839744 96.014061 
L 126.624717 98.194838 
L 129.327236 98.702732 
L 131.952044 99.406032 
L 134.503485 99.425718 
L 136.985549 100.984018 
L 139.40191 102.740417 
L 141.755957 103.954292 
L 144.050822 105.321556 
L 148.474413 109.323825 
L 150.608337 109.247427 
L 152.693517 107.488009 
L 154.732129 108.631837 
L 156.726208 110.424769 
L 158.677659 111.54693 
L 160.588264 111.312303 
L 162.459701 113.046893 
L 164.293541 114.460139 
L 166.091267 113.572394 
L 167.854273 112.394584 
L 169.583875 108.979072 
L 172.947767 112.488248 
L 174.584343 113.150115 
L 176.192095 114.504992 
L 179.325067 117.484755 
L 180.852133 115.176414 
L 182.354074 117.077718 
L 183.831704 118.512146 
L 186.71709 115.92932 
L 187.093535 115.786262 
L 188.496978 117.56699 
L 189.879171 117.891609 
L 191.240749 118.803487 
L 192.582316 118.24386 
L 193.904452 119.789224 
L 195.207713 120.023326 
L 196.49263 121.764265 
L 197.759712 123.673225 
L 199.009447 124.870482 
L 200.242303 122.197566 
L 201.458732 122.295274 
L 202.659164 123.322908 
L 203.844015 119.363395 
L 206.168557 122.730672 
L 207.309001 123.395909 
L 208.435374 124.671066 
L 209.548017 122.981429 
L 210.647263 124.631659 
L 211.733429 125.139972 
L 213.867744 128.282945 
L 214.916475 124.38997 
L 215.953296 118.568747 
L 217.992263 121.443801 
L 218.99492 122.202427 
L 221.938459 126.328454 
L 222.898919 126.970955 
L 224.100189 122.650281 
L 225.038286 124.523413 
L 225.966842 125.997971 
L 226.886047 125.805828 
L 228.697148 127.648925 
L 229.5894 127.77258 
L 230.473015 126.219518 
L 231.34816 127.830726 
L 232.214994 125.652162 
L 233.073675 126.950435 
L 234.767178 129.857598 
L 236.429836 132.627238 
L 237.249946 133.245031 
L 238.062753 127.410593 
L 238.868387 126.247966 
L 239.666973 126.762155 
L 240.458634 128.393076 
L 241.243488 129.443447 
L 242.021652 128.858759 
L 242.793239 128.936808 
L 243.558358 129.131322 
L 244.317119 130.743206 
L 245.069624 131.490696 
L 245.815977 131.466132 
L 246.556278 133.00127 
L 247.290623 132.578592 
L 248.019108 124.447906 
L 248.741826 126.150622 
L 249.458867 125.852663 
L 250.170319 125.955515 
L 250.358371 127.272898 
L 251.062874 125.857781 
L 251.761983 127.732709 
L 252.455778 128.344534 
L 253.14434 129.389012 
L 253.827747 131.019587 
L 254.506076 132.088805 
L 255.179401 133.862539 
L 255.847797 134.13791 
L 256.511334 135.655643 
L 257.170083 132.728495 
L 257.824112 133.90386 
L 258.473489 128.994936 
L 259.118279 126.285402 
L 259.758547 127.378112 
L 260.394356 125.104012 
L 261.025766 126.644472 
L 261.65284 127.371922 
L 262.275635 129.132781 
L 262.89421 130.544397 
L 263.508622 131.630807 
L 264.118926 132.381555 
L 264.725177 132.413953 
L 265.327428 130.264211 
L 266.520141 130.844596 
L 267.110704 130.201641 
L 267.697471 131.317247 
L 268.280491 133.08128 
L 268.85981 134.256929 
L 269.435477 133.488661 
L 270.007536 133.20347 
L 270.576032 131.893307 
L 270.726446 133.222534 
L 271.851084 130.707869 
L 272.408249 132.329282 
L 272.962035 132.800813 
L 273.512481 132.477338 
L 274.059628 131.621645 
L 275.144182 134.829351 
L 275.681664 131.922597 
L 276.216001 133.788357 
L 276.747228 133.93569 
L 277.275382 134.974716 
L 277.800497 131.231945 
L 278.322609 130.450021 
L 278.841752 132.032676 
L 279.35796 131.175722 
L 279.871265 132.720067 
L 280.889296 134.376448 
L 281.394085 132.928743 
L 281.896099 133.122721 
L 282.395367 134.389103 
L 282.891919 133.337271 
L 283.385785 134.392556 
L 283.876994 136.135734 
L 284.365573 134.989973 
L 284.851552 136.772733 
L 285.334957 136.46918 
L 286.294154 139.862622 
L 286.77 140.279528 
L 287.243378 139.990942 
L 287.368708 135.998839 
L 287.838999 136.584067 
L 288.30688 135.702015 
L 288.772376 131.584031 
L 289.23551 131.708706 
L 289.696305 133.059399 
L 290.610978 134.645611 
L 291.0649 136.501346 
L 291.516576 137.773039 
L 291.966028 138.167848 
L 292.413279 135.441236 
L 292.858349 137.10848 
L 293.301259 135.581581 
L 293.742031 136.94458 
L 294.180685 138.868164 
L 294.617241 134.921261 
L 295.484139 135.047858 
L 296.342883 138.544563 
L 296.769245 136.191738 
L 297.193624 137.837451 
L 297.616039 137.372203 
L 298.036509 138.508828 
L 298.455052 137.735098 
L 298.871683 138.418646 
L 299.286423 140.101116 
L 299.699286 140.249518 
L 300.11029 139.993144 
L 300.926789 143.520722 
L 301.332317 138.097433 
L 301.439733 135.043234 
L 301.842993 134.514899 
L 302.644207 138.371081 
L 303.042193 137.942987 
L 303.438451 136.947552 
L 303.832996 135.130199 
L 304.225844 134.295309 
L 304.617008 134.143037 
L 305.006503 134.680744 
L 305.394344 136.733941 
L 305.780543 137.181246 
L 306.165116 137.90519 
L 306.548075 139.309218 
L 306.929435 135.314143 
L 307.687408 138.323015 
L 308.439138 135.657108 
L 308.812695 136.443198 
L 309.18473 137.683468 
L 309.555254 138.463402 
L 309.92428 137.530908 
L 310.291821 139.167296 
L 310.657888 139.415443 
L 311.022493 141.307595 
L 311.385647 140.957871 
L 311.747363 140.934394 
L 312.10765 138.38835 
L 312.466522 138.311948 
L 312.823988 139.285244 
L 313.18006 139.765556 
L 313.534748 141.1119 
L 313.628731 140.353163 
L 313.981684 141.575045 
L 314.333277 141.367133 
L 315.032427 143.589534 
L 315.380005 142.44661 
L 315.726264 142.626973 
L 316.071214 141.623451 
L 316.414866 141.17757 
L 316.757229 142.648801 
L 317.776681 135.811838 
L 318.113984 137.152285 
L 318.450046 137.959768 
L 318.784874 137.161154 
L 319.45087 140.074243 
L 319.782055 137.454768 
L 320.768459 141.785846 
L 321.094907 141.744322 
L 321.420191 143.6682 
L 321.74432 143.423967 
L 322.067302 143.893104 
L 322.389145 145.76518 
L 322.709858 141.514421 
L 323.347923 145.108552 
L 323.665291 146.624435 
L 323.98156 145.309646 
L 324.296736 147.081039 
L 324.380272 145.48522 
L 324.694077 145.990921 
L 325.006808 145.268737 
L 325.31847 145.356821 
L 325.629072 145.820717 
L 325.938621 144.092844 
L 326.554588 147.717567 
L 326.861019 147.160821 
L 327.470814 147.905252 
L 327.77419 144.201957 
L 328.076562 144.457181 
L 328.377935 146.081497 
L 328.678317 147.083244 
L 328.977714 148.871562 
L 329.276131 148.351259 
L 329.573577 150.206941 
L 329.870056 151.282991 
L 330.165576 152.915342 
L 330.460142 153.428861 
L 330.753761 149.853991 
L 331.046438 149.621614 
L 331.628993 152.523933 
L 331.918882 153.115558 
L 332.207853 149.431332 
L 332.495913 150.811138 
L 332.783066 150.120762 
L 333.069319 151.481031 
L 333.354678 150.037196 
L 333.922732 153.046307 
L 334.280386 150.217925 
L 334.56199 151.607571 
L 334.842727 150.971543 
L 335.401625 154.561098 
L 335.679796 153.24355 
L 335.957121 153.008177 
L 336.233607 154.059151 
L 336.509258 154.189209 
L 336.78408 153.992456 
L 337.331252 156.927772 
L 337.603614 157.158467 
L 337.875165 157.641026 
L 338.145911 159.253305 
L 338.415856 158.313359 
L 338.953363 161.366079 
L 339.487724 156.885977 
L 339.753736 157.920846 
L 340.018976 155.686719 
L 340.283446 156.437452 
L 340.547153 157.823464 
L 340.8101 158.392594 
L 341.594428 162.575653 
L 341.85438 161.84181 
L 342.113594 163.398591 
L 342.372074 164.08621 
L 342.629824 165.552804 
L 342.954999 159.802293 
L 343.211111 161.439065 
L 343.466506 159.341823 
L 343.721189 160.792263 
L 343.975164 160.247861 
L 344.228433 161.146479 
L 344.481002 162.831877 
L 344.984053 163.899208 
L 345.234543 160.330457 
L 345.484347 158.456091 
L 345.73347 159.806713 
L 345.981914 159.73211 
L 346.229685 156.261718 
L 346.476784 157.880174 
L 346.723217 156.994152 
L 346.968986 158.793533 
L 347.214095 158.44927 
L 347.458548 159.834848 
L 347.702348 158.671564 
L 347.945499 160.273345 
L 348.188003 159.647381 
L 348.429865 159.698381 
L 348.671088 158.491369 
L 349.390957 162.888624 
L 349.629657 163.068982 
L 350.342035 158.095698 
L 350.578264 159.457445 
L 350.64091 161.045578 
L 351.11122 163.725862 
L 351.34547 162.235999 
L 351.57912 158.29375 
L 352.044634 161.24503 
L 352.276504 160.675614 
L 352.738484 164.233015 
L 352.9686 161.313565 
L 353.198138 156.018899 
L 353.4271 156.315152 
L 354.11056 161.457902 
L 354.337248 160.684027 
L 354.788942 163.623867 
L 355.013953 160.501536 
L 355.238411 161.451886 
L 355.462319 161.436855 
L 355.685679 161.546276 
L 356.130766 164.311728 
L 356.352498 164.033878 
L 356.573693 164.757074 
L 356.794353 164.474849 
L 357.014481 166.079046 
L 357.23408 166.853437 
L 357.453152 165.330353 
L 357.671699 167.137682 
L 357.94755 161.216546 
L 358.598108 164.086684 
L 358.813934 163.87797 
L 359.029251 163.884332 
L 359.244062 164.405151 
L 359.458369 161.503814 
L 359.672173 160.972027 
L 359.885478 161.259181 
L 360.098286 158.091407 
L 360.310599 158.591177 
L 360.733748 160.276067 
L 361.154946 157.327385 
L 361.364818 158.157146 
L 361.574209 156.586368 
L 361.991555 159.636059 
L 362.199515 159.145888 
L 362.407002 158.164486 
L 362.614019 160.189746 
L 362.820567 160.977598 
L 363.026649 162.379689 
L 363.232266 161.539334 
L 363.437422 161.662025 
L 363.642118 162.904473 
L 363.846355 162.374303 
L 364.253465 165.338039 
L 364.456341 165.042646 
L 364.658767 166.094383 
L 364.914321 165.153141 
L 365.115735 166.990352 
L 365.316706 167.795718 
L 365.517235 166.935871 
L 365.717325 167.433524 
L 366.314976 172.626054 
L 366.513327 171.725955 
L 366.711248 170.123604 
L 366.90874 171.827944 
L 367.302448 173.280384 
L 367.498667 174.530644 
L 367.694465 173.145439 
L 368.084806 167.876133 
L 368.279353 169.552552 
L 368.473485 168.764136 
L 368.667206 168.68024 
L 368.860516 170.128614 
L 369.053418 170.422841 
L 369.245914 172.340883 
L 369.438004 168.425205 
L 369.62969 169.596204 
L 369.820976 171.635501 
L 370.011861 172.187989 
L 370.202348 170.679346 
L 370.392438 170.685035 
L 370.582133 169.969433 
L 370.771435 168.094936 
L 370.960345 169.339675 
L 371.010458 171.281343 
L 371.198875 168.924127 
L 371.386903 170.976748 
L 371.574546 170.562598 
L 371.948676 173.250812 
L 372.135168 173.381045 
L 372.32128 173.76128 
L 372.507013 175.136017 
L 372.692369 175.223405 
L 373.061956 178.349863 
L 373.24619 176.557195 
L 373.430053 175.978656 
L 373.613546 177.698585 
L 373.796671 178.322149 
L 373.979429 177.971597 
L 374.161823 178.710055 
L 374.525519 174.393187 
L 374.706826 176.253698 
L 374.887773 171.264121 
L 375.068362 170.273636 
L 375.428472 171.943541 
L 375.607996 170.945589 
L 376.854873 179.926943 
L 376.901854 178.728464 
L 377.078507 180.35222 
L 377.254818 177.520242 
L 377.430789 172.07513 
L 377.606422 173.453441 
L 377.781717 173.450255 
L 378.305593 178.239817 
L 378.479552 177.414178 
L 378.826479 180.434494 
L 378.999449 180.06043 
L 379.172093 179.157059 
L 379.859419 185.689771 
L 380.201152 187.969164 
L 380.541609 181.63577 
L 380.711363 183.543956 
L 380.880802 180.582634 
L 381.049927 180.680291 
L 381.218739 179.980144 
L 381.890884 185.705628 
L 382.058149 187.431373 
L 382.391764 183.086942 
L 382.43598 184.336904 
L 382.602251 184.315961 
L 382.76822 184.798559 
L 382.933887 184.606341 
L 383.099254 183.030955 
L 383.264322 183.508966 
L 383.429092 180.019528 
L 384.085215 186.527462 
L 384.248512 186.059861 
L 384.411516 184.045186 
L 384.574231 184.699997 
L 384.736656 180.275728 
L 385.060641 183.772485 
L 385.222203 182.543337 
L 385.38348 182.988479 
L 385.705182 185.426744 
L 385.865609 180.587228 
L 386.025754 181.776665 
L 386.185619 181.287445 
L 386.504511 181.782341 
L 386.663541 182.843684 
L 386.822293 182.831634 
L 387.296902 187.364429 
L 387.454558 186.46633 
L 387.611943 188.224152 
L 387.653702 186.47082 
L 387.810744 184.702283 
L 388.124019 188.142899 
L 388.280254 186.184733 
L 388.902536 192.858711 
L 389.057445 193.551605 
L 389.212093 195.210661 
L 389.520604 193.837016 
L 389.674469 192.096415 
L 389.828075 192.560134 
L 389.981424 192.603174 
L 390.134515 189.642362 
L 390.439929 191.533366 
L 390.592254 190.504753 
L 390.744325 191.240024 
L 390.896144 190.746563 
L 391.04771 186.097979 
L 391.350089 188.942854 
L 391.651471 191.830184 
L 392.101685 194.712497 
L 392.400599 187.561831 
L 392.54969 187.705047 
L 392.589251 185.904123 
L 392.738034 185.881379 
L 392.886575 187.235257 
L 393.034875 185.284038 
L 393.330754 188.070273 
L 393.625677 191.084448 
L 393.772782 192.821635 
L 393.91965 189.401183 
L 394.066283 189.12162 
L 394.358843 191.616758 
L 394.504772 190.249689 
L 395.230939 196.775356 
L 395.375482 195.974884 
L 395.519796 193.719709 
L 395.663883 194.76242 
L 395.807742 194.768796 
L 396.237966 199.340166 
L 396.523659 195.215382 
L 396.666171 195.161534 
L 397.554069 204.75104 
L 397.694982 203.017142 
L 398.116423 206.382317 
L 398.256472 202.951681 
L 398.675334 206.096056 
L 399.092283 208.905185 
L 399.369195 200.610706 
L 399.507336 200.046324 
L 400.057822 205.731622 
L 400.194926 204.855628 
L 400.468518 207.26763 
L 400.605007 206.568584 
L 401.013255 207.933034 
L 401.148932 207.97357 
L 401.419684 206.17248 
L 401.689636 208.6357 
L 401.725429 207.84355 
L 401.994479 209.942216 
L 402.128707 208.767083 
L 402.796904 213.865902 
L 402.929959 208.253757 
L 403.460245 212.030489 
L 403.592337 209.270538 
L 403.724238 210.407184 
L 403.855949 209.44128 
L 404.642247 216.673707 
L 404.772641 212.539015 
L 404.902848 213.772405 
L 405.032871 211.061842 
L 405.292361 212.579013 
L 405.551116 213.053419 
L 405.680218 211.9855 
L 406.228881 215.715276 
L 406.35703 212.594518 
L 406.484999 213.931462 
L 406.612789 212.602658 
L 406.7404 212.631872 
L 406.867833 213.869887 
L 406.995088 213.884722 
L 407.628718 218.359526 
L 407.754917 214.877512 
L 407.880943 216.079482 
L 408.006795 215.669126 
L 408.257979 217.964727 
L 408.383313 217.844051 
L 408.633465 219.540947 
L 408.758284 219.486395 
L 408.882933 219.835268 
L 409.007412 219.449221 
L 409.255862 220.650291 
L 409.503637 219.089408 
L 409.627273 220.328219 
L 409.750742 220.045966 
L 409.874044 218.222297 
L 410.02986 220.316881 
L 410.275546 218.220546 
L 410.398142 218.977809 
L 410.520573 217.786819 
L 410.642841 218.929412 
L 410.764944 216.169331 
L 411.008663 217.834237 
L 411.130279 217.363892 
L 411.494157 220.44061 
L 411.615128 217.007805 
L 411.735939 216.88322 
L 411.977082 218.430489 
L 412.097416 218.64144 
L 412.217591 219.119636 
L 412.457467 221.319201 
L 412.577169 217.534261 
L 412.816103 219.059828 
L 412.935336 219.645507 
L 413.173336 221.501907 
L 413.292104 222.288339 
L 413.410717 218.353868 
L 413.883636 221.799854 
L 413.914954 221.29979 
L 414.150417 223.132006 
L 414.267921 220.742644 
L 414.385274 221.497861 
L 414.502476 221.267654 
L 414.619528 222.445698 
L 414.73643 220.61841 
L 414.73643 220.61841 
" clip-path="url(#p2dce725dce)" style="fill: none; stroke: #d62728; stroke-opacity: 0.4; stroke-linecap: square"/>
   </g>
   <g id="patch_3">
    <path d="M 57.6 307.584 
L 57.6 41.472 
" style="fill: none; stroke: #000000; stroke-width: 0.8; stroke-linejoin: miter; stroke-linecap: square"/>
   </g>
   <g id="patch_4">
    <path d="M 414.72 307.584 
L 414.72 41.472 
" style="fill: none; stroke: #000000; stroke-width: 0.8; stroke-linejoin: miter; stroke-linecap: square"/>
   </g>
   <g id="patch_5">
    <path d="M 57.6 307.584 
L 414.72 307.584 
" style="fill: none; stroke: #000000; stroke-width: 0.8; stroke-linejoin: miter; stroke-linecap: square"/>
   </g>
   <g id="patch_6">
    <path d="M 57.6 41.472 
L 414.72 41.472 
" style="fill: none; stroke: #000000; stroke-width: 0.8; stroke-linejoin: miter; stroke-linecap: square"/>
   </g>
   <g id="text_8">
    <!-- 2025-02-21-09:06:50 zoomed in + ewm(16.0).mean() -->
    <g transform="translate(74.128125 35.472) scale(0.12 -0.12)">
     <defs>
      <path id="DejaVuSans-35" d="M 691 4666 
L 3169 4666 
L 3169 4134 
L 1269 4134 
L 1269 2991 
Q 1406 3038 1543 3061 
Q 1681 3084 1819 3084 
Q 2600 3084 3056 2656 
Q 3513 2228 3513 1497 
Q 3513 744 3044 326 
Q 2575 -91 1722 -91 
Q 1428 -91 1123 -41 
Q 819 9 494 109 
L 494 744 
Q 775 591 1075 516 
Q 1375 441 1709 441 
Q 2250 441 2565 725 
Q 2881 1009 2881 1497 
Q 2881 1984 2565 2268 
Q 2250 2553 1709 2553 
Q 1456 2553 1204 2497 
Q 953 2441 691 2322 
L 691 4666 
z
" transform="scale(0.015625)"/>
      <path id="DejaVuSans-2d" d="M 313 2009 
L 1997 2009 
L 1997 1497 
L 313 1497 
L 313 2009 
z
" transform="scale(0.015625)"/>
      <path id="DejaVuSans-39" d="M 703 97 
L 703 672 
Q 941 559 1184 500 
Q 1428 441 1663 441 
Q 2288 441 2617 861 
Q 2947 1281 2994 2138 
Q 2813 1869 2534 1725 
Q 2256 1581 1919 1581 
Q 1219 1581 811 2004 
Q 403 2428 403 3163 
Q 403 3881 828 4315 
Q 1253 4750 1959 4750 
Q 2769 4750 3195 4129 
Q 3622 3509 3622 2328 
Q 3622 1225 3098 567 
Q 2575 -91 1691 -91 
Q 1453 -91 1209 -44 
Q 966 3 703 97 
z
M 1959 2075 
Q 2384 2075 2632 2365 
Q 2881 2656 2881 3163 
Q 2881 3666 2632 3958 
Q 2384 4250 1959 4250 
Q 1534 4250 1286 3958 
Q 1038 3666 1038 3163 
Q 1038 2656 1286 2365 
Q 1534 2075 1959 2075 
z
" transform="scale(0.015625)"/>
      <path id="DejaVuSans-3a" d="M 750 794 
L 1409 794 
L 1409 0 
L 750 0 
L 750 794 
z
M 750 3309 
L 1409 3309 
L 1409 2516 
L 750 2516 
L 750 3309 
z
" transform="scale(0.015625)"/>
      <path id="DejaVuSans-36" d="M 2113 2584 
Q 1688 2584 1439 2293 
Q 1191 2003 1191 1497 
Q 1191 994 1439 701 
Q 1688 409 2113 409 
Q 2538 409 2786 701 
Q 3034 994 3034 1497 
Q 3034 2003 2786 2293 
Q 2538 2584 2113 2584 
z
M 3366 4563 
L 3366 3988 
Q 3128 4100 2886 4159 
Q 2644 4219 2406 4219 
Q 1781 4219 1451 3797 
Q 1122 3375 1075 2522 
Q 1259 2794 1537 2939 
Q 1816 3084 2150 3084 
Q 2853 3084 3261 2657 
Q 3669 2231 3669 1497 
Q 3669 778 3244 343 
Q 2819 -91 2113 -91 
Q 1303 -91 875 529 
Q 447 1150 447 2328 
Q 447 3434 972 4092 
Q 1497 4750 2381 4750 
Q 2619 4750 2861 4703 
Q 3103 4656 3366 4563 
z
" transform="scale(0.015625)"/>
      <path id="DejaVuSans-20" transform="scale(0.015625)"/>
      <path id="DejaVuSans-7a" d="M 353 3500 
L 3084 3500 
L 3084 2975 
L 922 459 
L 3084 459 
L 3084 0 
L 275 0 
L 275 525 
L 2438 3041 
L 353 3041 
L 353 3500 
z
" transform="scale(0.015625)"/>
      <path id="DejaVuSans-6d" d="M 3328 2828 
Q 3544 3216 3844 3400 
Q 4144 3584 4550 3584 
Q 5097 3584 5394 3201 
Q 5691 2819 5691 2113 
L 5691 0 
L 5113 0 
L 5113 2094 
Q 5113 2597 4934 2840 
Q 4756 3084 4391 3084 
Q 3944 3084 3684 2787 
Q 3425 2491 3425 1978 
L 3425 0 
L 2847 0 
L 2847 2094 
Q 2847 2600 2669 2842 
Q 2491 3084 2119 3084 
Q 1678 3084 1418 2786 
Q 1159 2488 1159 1978 
L 1159 0 
L 581 0 
L 581 3500 
L 1159 3500 
L 1159 2956 
Q 1356 3278 1631 3431 
Q 1906 3584 2284 3584 
Q 2666 3584 2933 3390 
Q 3200 3197 3328 2828 
z
" transform="scale(0.015625)"/>
      <path id="DejaVuSans-64" d="M 2906 2969 
L 2906 4863 
L 3481 4863 
L 3481 0 
L 2906 0 
L 2906 525 
Q 2725 213 2448 61 
Q 2172 -91 1784 -91 
Q 1150 -91 751 415 
Q 353 922 353 1747 
Q 353 2572 751 3078 
Q 1150 3584 1784 3584 
Q 2172 3584 2448 3432 
Q 2725 3281 2906 2969 
z
M 947 1747 
Q 947 1113 1208 752 
Q 1469 391 1925 391 
Q 2381 391 2643 752 
Q 2906 1113 2906 1747 
Q 2906 2381 2643 2742 
Q 2381 3103 1925 3103 
Q 1469 3103 1208 2742 
Q 947 2381 947 1747 
z
" transform="scale(0.015625)"/>
      <path id="DejaVuSans-6e" d="M 3513 2113 
L 3513 0 
L 2938 0 
L 2938 2094 
Q 2938 2591 2744 2837 
Q 2550 3084 2163 3084 
Q 1697 3084 1428 2787 
Q 1159 2491 1159 1978 
L 1159 0 
L 581 0 
L 581 3500 
L 1159 3500 
L 1159 2956 
Q 1366 3272 1645 3428 
Q 1925 3584 2291 3584 
Q 2894 3584 3203 3211 
Q 3513 2838 3513 2113 
z
" transform="scale(0.015625)"/>
      <path id="DejaVuSans-2b" d="M 2944 4013 
L 2944 2272 
L 4684 2272 
L 4684 1741 
L 2944 1741 
L 2944 0 
L 2419 0 
L 2419 1741 
L 678 1741 
L 678 2272 
L 2419 2272 
L 2419 4013 
L 2944 4013 
z
" transform="scale(0.015625)"/>
      <path id="DejaVuSans-77" d="M 269 3500 
L 844 3500 
L 1563 769 
L 2278 3500 
L 2956 3500 
L 3675 769 
L 4391 3500 
L 4966 3500 
L 4050 0 
L 3372 0 
L 2619 2869 
L 1863 0 
L 1184 0 
L 269 3500 
z
" transform="scale(0.015625)"/>
      <path id="DejaVuSans-28" d="M 1984 4856 
Q 1566 4138 1362 3434 
Q 1159 2731 1159 2009 
Q 1159 1288 1364 580 
Q 1569 -128 1984 -844 
L 1484 -844 
Q 1016 -109 783 600 
Q 550 1309 550 2009 
Q 550 2706 781 3412 
Q 1013 4119 1484 4856 
L 1984 4856 
z
" transform="scale(0.015625)"/>
      <path id="DejaVuSans-2e" d="M 684 794 
L 1344 794 
L 1344 0 
L 684 0 
L 684 794 
z
" transform="scale(0.015625)"/>
      <path id="DejaVuSans-29" d="M 513 4856 
L 1013 4856 
Q 1481 4119 1714 3412 
Q 1947 2706 1947 2009 
Q 1947 1309 1714 600 
Q 1481 -109 1013 -844 
L 513 -844 
Q 928 -128 1133 580 
Q 1338 1288 1338 2009 
Q 1338 2731 1133 3434 
Q 928 4138 513 4856 
z
" transform="scale(0.015625)"/>
      <path id="DejaVuSans-61" d="M 2194 1759 
Q 1497 1759 1228 1600 
Q 959 1441 959 1056 
Q 959 750 1161 570 
Q 1363 391 1709 391 
Q 2188 391 2477 730 
Q 2766 1069 2766 1631 
L 2766 1759 
L 2194 1759 
z
M 3341 1997 
L 3341 0 
L 2766 0 
L 2766 531 
Q 2569 213 2275 61 
Q 1981 -91 1556 -91 
Q 1019 -91 701 211 
Q 384 513 384 1019 
Q 384 1609 779 1909 
Q 1175 2209 1959 2209 
L 2766 2209 
L 2766 2266 
Q 2766 2663 2505 2880 
Q 2244 3097 1772 3097 
Q 1472 3097 1187 3025 
Q 903 2953 641 2809 
L 641 3341 
Q 956 3463 1253 3523 
Q 1550 3584 1831 3584 
Q 2591 3584 2966 3190 
Q 3341 2797 3341 1997 
z
" transform="scale(0.015625)"/>
     </defs>
     <use xlink:href="#DejaVuSans-32"/>
     <use xlink:href="#DejaVuSans-30" x="63.623047"/>
     <use xlink:href="#DejaVuSans-32" x="127.246094"/>
     <use xlink:href="#DejaVuSans-35" x="190.869141"/>
     <use xlink:href="#DejaVuSans-2d" x="254.492188"/>
     <use xlink:href="#DejaVuSans-30" x="290.576172"/>
     <use xlink:href="#DejaVuSans-32" x="354.199219"/>
     <use xlink:href="#DejaVuSans-2d" x="417.822266"/>
     <use xlink:href="#DejaVuSans-32" x="453.90625"/>
     <use xlink:href="#DejaVuSans-31" x="517.529297"/>
     <use xlink:href="#DejaVuSans-2d" x="581.152344"/>
     <use xlink:href="#DejaVuSans-30" x="617.236328"/>
     <use xlink:href="#DejaVuSans-39" x="680.859375"/>
     <use xlink:href="#DejaVuSans-3a" x="744.482422"/>
     <use xlink:href="#DejaVuSans-30" x="778.173828"/>
     <use xlink:href="#DejaVuSans-36" x="841.796875"/>
     <use xlink:href="#DejaVuSans-3a" x="905.419922"/>
     <use xlink:href="#DejaVuSans-35" x="939.111328"/>
     <use xlink:href="#DejaVuSans-30" x="1002.734375"/>
     <use xlink:href="#DejaVuSans-20" x="1066.357422"/>
     <use xlink:href="#DejaVuSans-7a" x="1098.144531"/>
     <use xlink:href="#DejaVuSans-6f" x="1150.634766"/>
     <use xlink:href="#DejaVuSans-6f" x="1211.816406"/>
     <use xlink:href="#DejaVuSans-6d" x="1272.998047"/>
     <use xlink:href="#DejaVuSans-65" x="1370.410156"/>
     <use xlink:href="#DejaVuSans-64" x="1431.933594"/>
     <use xlink:href="#DejaVuSans-20" x="1495.410156"/>
     <use xlink:href="#DejaVuSans-69" x="1527.197266"/>
     <use xlink:href="#DejaVuSans-6e" x="1554.980469"/>
     <use xlink:href="#DejaVuSans-20" x="1618.359375"/>
     <use xlink:href="#DejaVuSans-2b" x="1650.146484"/>
     <use xlink:href="#DejaVuSans-20" x="1733.935547"/>
     <use xlink:href="#DejaVuSans-65" x="1765.722656"/>
     <use xlink:href="#DejaVuSans-77" x="1827.246094"/>
     <use xlink:href="#DejaVuSans-6d" x="1909.033203"/>
     <use xlink:href="#DejaVuSans-28" x="2006.445312"/>
     <use xlink:href="#DejaVuSans-31" x="2045.458984"/>
     <use xlink:href="#DejaVuSans-36" x="2109.082031"/>
     <use xlink:href="#DejaVuSans-2e" x="2172.705078"/>
     <use xlink:href="#DejaVuSans-30" x="2204.492188"/>
     <use xlink:href="#DejaVuSans-29" x="2268.115234"/>
     <use xlink:href="#DejaVuSans-2e" x="2307.128906"/>
     <use xlink:href="#DejaVuSans-6d" x="2338.916016"/>
     <use xlink:href="#DejaVuSans-65" x="2436.328125"/>
     <use xlink:href="#DejaVuSans-61" x="2497.851562"/>
     <use xlink:href="#DejaVuSans-6e" x="2559.130859"/>
     <use xlink:href="#DejaVuSans-28" x="2622.509766"/>
     <use xlink:href="#DejaVuSans-29" x="2661.523438"/>
    </g>
   </g>
   <g id="legend_1">
    <g id="patch_7">
     <path d="M 64.6 302.584 
L 190.723438 302.584 
Q 192.723438 302.584 192.723438 300.584 
L 192.723438 241.759 
Q 192.723438 239.759 190.723438 239.759 
L 64.6 239.759 
Q 62.6 239.759 62.6 241.759 
L 62.6 300.584 
Q 62.6 302.584 64.6 302.584 
z
" style="fill: #ffffff; opacity: 0.8; stroke: #cccccc; stroke-linejoin: miter"/>
    </g>
    <g id="line2d_40">
     <path d="M 66.6 247.857437 
L 76.6 247.857437 
L 86.6 247.857437 
" style="fill: none; stroke: #1f77b4; stroke-opacity: 0.4; stroke-linecap: square"/>
    </g>
    <g id="text_9">
     <!-- SchNet eval_loss -->
     <g transform="translate(94.6 251.357437) scale(0.1 -0.1)">
      <defs>
       <path id="DejaVuSans-53" d="M 3425 4513 
L 3425 3897 
Q 3066 4069 2747 4153 
Q 2428 4238 2131 4238 
Q 1616 4238 1336 4038 
Q 1056 3838 1056 3469 
Q 1056 3159 1242 3001 
Q 1428 2844 1947 2747 
L 2328 2669 
Q 3034 2534 3370 2195 
Q 3706 1856 3706 1288 
Q 3706 609 3251 259 
Q 2797 -91 1919 -91 
Q 1588 -91 1214 -16 
Q 841 59 441 206 
L 441 856 
Q 825 641 1194 531 
Q 1563 422 1919 422 
Q 2459 422 2753 634 
Q 3047 847 3047 1241 
Q 3047 1584 2836 1778 
Q 2625 1972 2144 2069 
L 1759 2144 
Q 1053 2284 737 2584 
Q 422 2884 422 3419 
Q 422 4038 858 4394 
Q 1294 4750 2059 4750 
Q 2388 4750 2728 4690 
Q 3069 4631 3425 4513 
z
" transform="scale(0.015625)"/>
       <path id="DejaVuSans-63" d="M 3122 3366 
L 3122 2828 
Q 2878 2963 2633 3030 
Q 2388 3097 2138 3097 
Q 1578 3097 1268 2742 
Q 959 2388 959 1747 
Q 959 1106 1268 751 
Q 1578 397 2138 397 
Q 2388 397 2633 464 
Q 2878 531 3122 666 
L 3122 134 
Q 2881 22 2623 -34 
Q 2366 -91 2075 -91 
Q 1284 -91 818 406 
Q 353 903 353 1747 
Q 353 2603 823 3093 
Q 1294 3584 2113 3584 
Q 2378 3584 2631 3529 
Q 2884 3475 3122 3366 
z
" transform="scale(0.015625)"/>
       <path id="DejaVuSans-68" d="M 3513 2113 
L 3513 0 
L 2938 0 
L 2938 2094 
Q 2938 2591 2744 2837 
Q 2550 3084 2163 3084 
Q 1697 3084 1428 2787 
Q 1159 2491 1159 1978 
L 1159 0 
L 581 0 
L 581 4863 
L 1159 4863 
L 1159 2956 
Q 1366 3272 1645 3428 
Q 1925 3584 2291 3584 
Q 2894 3584 3203 3211 
Q 3513 2838 3513 2113 
z
" transform="scale(0.015625)"/>
       <path id="DejaVuSans-4e" d="M 628 4666 
L 1478 4666 
L 3547 763 
L 3547 4666 
L 4159 4666 
L 4159 0 
L 3309 0 
L 1241 3903 
L 1241 0 
L 628 0 
L 628 4666 
z
" transform="scale(0.015625)"/>
       <path id="DejaVuSans-76" d="M 191 3500 
L 800 3500 
L 1894 563 
L 2988 3500 
L 3597 3500 
L 2284 0 
L 1503 0 
L 191 3500 
z
" transform="scale(0.015625)"/>
       <path id="DejaVuSans-5f" d="M 3263 -1063 
L 3263 -1509 
L -63 -1509 
L -63 -1063 
L 3263 -1063 
z
" transform="scale(0.015625)"/>
      </defs>
      <use xlink:href="#DejaVuSans-53"/>
      <use xlink:href="#DejaVuSans-63" x="63.476562"/>
      <use xlink:href="#DejaVuSans-68" x="118.457031"/>
      <use xlink:href="#DejaVuSans-4e" x="181.835938"/>
      <use xlink:href="#DejaVuSans-65" x="256.640625"/>
      <use xlink:href="#DejaVuSans-74" x="318.164062"/>
      <use xlink:href="#DejaVuSans-20" x="357.373047"/>
      <use xlink:href="#DejaVuSans-65" x="389.160156"/>
      <use xlink:href="#DejaVuSans-76" x="450.683594"/>
      <use xlink:href="#DejaVuSans-61" x="509.863281"/>
      <use xlink:href="#DejaVuSans-6c" x="571.142578"/>
      <use xlink:href="#DejaVuSans-5f" x="598.925781"/>
      <use xlink:href="#DejaVuSans-6c" x="648.925781"/>
      <use xlink:href="#DejaVuSans-6f" x="676.708984"/>
      <use xlink:href="#DejaVuSans-73" x="737.890625"/>
      <use xlink:href="#DejaVuSans-73" x="789.990234"/>
     </g>
    </g>
    <g id="line2d_41">
     <path d="M 66.6 262.813687 
L 76.6 262.813687 
L 86.6 262.813687 
" style="fill: none; stroke: #ff7f0e; stroke-opacity: 0.4; stroke-linecap: square"/>
    </g>
    <g id="text_10">
     <!-- M220 eval_loss -->
     <g transform="translate(94.6 266.313687) scale(0.1 -0.1)">
      <defs>
       <path id="DejaVuSans-4d" d="M 628 4666 
L 1569 4666 
L 2759 1491 
L 3956 4666 
L 4897 4666 
L 4897 0 
L 4281 0 
L 4281 4097 
L 3078 897 
L 2444 897 
L 1241 4097 
L 1241 0 
L 628 0 
L 628 4666 
z
" transform="scale(0.015625)"/>
      </defs>
      <use xlink:href="#DejaVuSans-4d"/>
      <use xlink:href="#DejaVuSans-32" x="86.279297"/>
      <use xlink:href="#DejaVuSans-32" x="149.902344"/>
      <use xlink:href="#DejaVuSans-30" x="213.525391"/>
      <use xlink:href="#DejaVuSans-20" x="277.148438"/>
      <use xlink:href="#DejaVuSans-65" x="308.935547"/>
      <use xlink:href="#DejaVuSans-76" x="370.458984"/>
      <use xlink:href="#DejaVuSans-61" x="429.638672"/>
      <use xlink:href="#DejaVuSans-6c" x="490.917969"/>
      <use xlink:href="#DejaVuSans-5f" x="518.701172"/>
      <use xlink:href="#DejaVuSans-6c" x="568.701172"/>
      <use xlink:href="#DejaVuSans-6f" x="596.484375"/>
      <use xlink:href="#DejaVuSans-73" x="657.666016"/>
      <use xlink:href="#DejaVuSans-73" x="709.765625"/>
     </g>
    </g>
    <g id="line2d_42">
     <path d="M 66.6 277.769937 
L 76.6 277.769937 
L 86.6 277.769937 
" style="fill: none; stroke: #2ca02c; stroke-opacity: 0.4; stroke-linecap: square"/>
    </g>
    <g id="text_11">
     <!-- MoGIN14 eval_loss -->
     <g transform="translate(94.6 281.269937) scale(0.1 -0.1)">
      <defs>
       <path id="DejaVuSans-47" d="M 3809 666 
L 3809 1919 
L 2778 1919 
L 2778 2438 
L 4434 2438 
L 4434 434 
Q 4069 175 3628 42 
Q 3188 -91 2688 -91 
Q 1594 -91 976 548 
Q 359 1188 359 2328 
Q 359 3472 976 4111 
Q 1594 4750 2688 4750 
Q 3144 4750 3555 4637 
Q 3966 4525 4313 4306 
L 4313 3634 
Q 3963 3931 3569 4081 
Q 3175 4231 2741 4231 
Q 1884 4231 1454 3753 
Q 1025 3275 1025 2328 
Q 1025 1384 1454 906 
Q 1884 428 2741 428 
Q 3075 428 3337 486 
Q 3600 544 3809 666 
z
" transform="scale(0.015625)"/>
       <path id="DejaVuSans-49" d="M 628 4666 
L 1259 4666 
L 1259 0 
L 628 0 
L 628 4666 
z
" transform="scale(0.015625)"/>
      </defs>
      <use xlink:href="#DejaVuSans-4d"/>
      <use xlink:href="#DejaVuSans-6f" x="86.279297"/>
      <use xlink:href="#DejaVuSans-47" x="147.460938"/>
      <use xlink:href="#DejaVuSans-49" x="224.951172"/>
      <use xlink:href="#DejaVuSans-4e" x="254.443359"/>
      <use xlink:href="#DejaVuSans-31" x="329.248047"/>
      <use xlink:href="#DejaVuSans-34" x="392.871094"/>
      <use xlink:href="#DejaVuSans-20" x="456.494141"/>
      <use xlink:href="#DejaVuSans-65" x="488.28125"/>
      <use xlink:href="#DejaVuSans-76" x="549.804688"/>
      <use xlink:href="#DejaVuSans-61" x="608.984375"/>
      <use xlink:href="#DejaVuSans-6c" x="670.263672"/>
      <use xlink:href="#DejaVuSans-5f" x="698.046875"/>
      <use xlink:href="#DejaVuSans-6c" x="748.046875"/>
      <use xlink:href="#DejaVuSans-6f" x="775.830078"/>
      <use xlink:href="#DejaVuSans-73" x="837.011719"/>
      <use xlink:href="#DejaVuSans-73" x="889.111328"/>
     </g>
    </g>
    <g id="line2d_43">
     <path d="M 66.6 292.726187 
L 76.6 292.726187 
L 86.6 292.726187 
" style="fill: none; stroke: #d62728; stroke-opacity: 0.4; stroke-linecap: square"/>
    </g>
    <g id="text_12">
     <!-- MoGIN16 eval_loss -->
     <g transform="translate(94.6 296.226187) scale(0.1 -0.1)">
      <use xlink:href="#DejaVuSans-4d"/>
      <use xlink:href="#DejaVuSans-6f" x="86.279297"/>
      <use xlink:href="#DejaVuSans-47" x="147.460938"/>
      <use xlink:href="#DejaVuSans-49" x="224.951172"/>
      <use xlink:href="#DejaVuSans-4e" x="254.443359"/>
      <use xlink:href="#DejaVuSans-31" x="329.248047"/>
      <use xlink:href="#DejaVuSans-36" x="392.871094"/>
      <use xlink:href="#DejaVuSans-20" x="456.494141"/>
      <use xlink:href="#DejaVuSans-65" x="488.28125"/>
      <use xlink:href="#DejaVuSans-76" x="549.804688"/>
      <use xlink:href="#DejaVuSans-61" x="608.984375"/>
      <use xlink:href="#DejaVuSans-6c" x="670.263672"/>
      <use xlink:href="#DejaVuSans-5f" x="698.046875"/>
      <use xlink:href="#DejaVuSans-6c" x="748.046875"/>
      <use xlink:href="#DejaVuSans-6f" x="775.830078"/>
      <use xlink:href="#DejaVuSans-73" x="837.011719"/>
      <use xlink:href="#DejaVuSans-73" x="889.111328"/>
     </g>
    </g>
   </g>
  </g>
 </g>
 <defs>
  <clipPath id="p2dce725dce">
   <rect x="57.6" y="41.472" width="357.12" height="266.112"/>
  </clipPath>
 </defs>
</svg>
