<?xml version="1.0" encoding="utf-8" standalone="no"?>
<!DOCTYPE svg PUBLIC "-//W3C//DTD SVG 1.1//EN"
  "http://www.w3.org/Graphics/SVG/1.1/DTD/svg11.dtd">
<svg xmlns:xlink="http://www.w3.org/1999/xlink" width="460.8pt" height="345.6pt" viewBox="0 0 460.8 345.6" xmlns="http://www.w3.org/2000/svg" version="1.1">
 <metadata>
  <rdf:RDF xmlns:dc="http://purl.org/dc/elements/1.1/" xmlns:cc="http://creativecommons.org/ns#" xmlns:rdf="http://www.w3.org/1999/02/22-rdf-syntax-ns#">
   <cc:Work>
    <dc:type rdf:resource="http://purl.org/dc/dcmitype/StillImage"/>
    <dc:date>2025-02-21T00:26:25.111613</dc:date>
    <dc:format>image/svg+xml</dc:format>
    <dc:creator>
     <cc:Agent>
      <dc:title>Matplotlib v3.8.4, https://matplotlib.org/</dc:title>
     </cc:Agent>
    </dc:creator>
   </cc:Work>
  </rdf:RDF>
 </metadata>
 <defs>
  <style type="text/css">*{stroke-linejoin: round; stroke-linecap: butt}</style>
 </defs>
 <g id="figure_1">
  <g id="patch_1">
   <path d="M 0 345.6 
L 460.8 345.6 
L 460.8 0 
L 0 0 
z
" style="fill: #ffffff"/>
  </g>
  <g id="axes_1">
   <g id="patch_2">
    <path d="M 57.6 307.584 
L 414.72 307.584 
L 414.72 41.472 
L 57.6 41.472 
z
" style="fill: #ffffff"/>
   </g>
   <g id="matplotlib.axis_1">
    <g id="xtick_1">
     <g id="line2d_1">
      <defs>
       <path id="m6c38f6dbec" d="M 0 0 
L 0 3.5 
" style="stroke: #000000; stroke-width: 0.8"/>
      </defs>
      <g>
       <use xlink:href="#m6c38f6dbec" x="57.6" y="307.584" style="stroke: #000000; stroke-width: 0.8"/>
      </g>
     </g>
     <g id="text_1">
      <!-- $\mathdefault{10^{3}}$ -->
      <g transform="translate(48.8 322.182437) scale(0.1 -0.1)">
       <defs>
        <path id="DejaVuSans-31" d="M 794 531 
L 1825 531 
L 1825 4091 
L 703 3866 
L 703 4441 
L 1819 4666 
L 2450 4666 
L 2450 531 
L 3481 531 
L 3481 0 
L 794 0 
L 794 531 
z
" transform="scale(0.015625)"/>
        <path id="DejaVuSans-30" d="M 2034 4250 
Q 1547 4250 1301 3770 
Q 1056 3291 1056 2328 
Q 1056 1369 1301 889 
Q 1547 409 2034 409 
Q 2525 409 2770 889 
Q 3016 1369 3016 2328 
Q 3016 3291 2770 3770 
Q 2525 4250 2034 4250 
z
M 2034 4750 
Q 2819 4750 3233 4129 
Q 3647 3509 3647 2328 
Q 3647 1150 3233 529 
Q 2819 -91 2034 -91 
Q 1250 -91 836 529 
Q 422 1150 422 2328 
Q 422 3509 836 4129 
Q 1250 4750 2034 4750 
z
" transform="scale(0.015625)"/>
        <path id="DejaVuSans-33" d="M 2597 2516 
Q 3050 2419 3304 2112 
Q 3559 1806 3559 1356 
Q 3559 666 3084 287 
Q 2609 -91 1734 -91 
Q 1441 -91 1130 -33 
Q 819 25 488 141 
L 488 750 
Q 750 597 1062 519 
Q 1375 441 1716 441 
Q 2309 441 2620 675 
Q 2931 909 2931 1356 
Q 2931 1769 2642 2001 
Q 2353 2234 1838 2234 
L 1294 2234 
L 1294 2753 
L 1863 2753 
Q 2328 2753 2575 2939 
Q 2822 3125 2822 3475 
Q 2822 3834 2567 4026 
Q 2313 4219 1838 4219 
Q 1578 4219 1281 4162 
Q 984 4106 628 3988 
L 628 4550 
Q 988 4650 1302 4700 
Q 1616 4750 1894 4750 
Q 2613 4750 3031 4423 
Q 3450 4097 3450 3541 
Q 3450 3153 3228 2886 
Q 3006 2619 2597 2516 
z
" transform="scale(0.015625)"/>
       </defs>
       <use xlink:href="#DejaVuSans-31" transform="translate(0 0.765625)"/>
       <use xlink:href="#DejaVuSans-30" transform="translate(63.623047 0.765625)"/>
       <use xlink:href="#DejaVuSans-33" transform="translate(128.203125 39.046875) scale(0.7)"/>
      </g>
     </g>
    </g>
    <g id="xtick_2">
     <g id="line2d_2">
      <g>
       <use xlink:href="#m6c38f6dbec" x="267.797943" y="307.584" style="stroke: #000000; stroke-width: 0.8"/>
      </g>
     </g>
     <g id="text_2">
      <!-- $\mathdefault{10^{4}}$ -->
      <g transform="translate(258.997943 322.182437) scale(0.1 -0.1)">
       <defs>
        <path id="DejaVuSans-34" d="M 2419 4116 
L 825 1625 
L 2419 1625 
L 2419 4116 
z
M 2253 4666 
L 3047 4666 
L 3047 1625 
L 3713 1625 
L 3713 1100 
L 3047 1100 
L 3047 0 
L 2419 0 
L 2419 1100 
L 313 1100 
L 313 1709 
L 2253 4666 
z
" transform="scale(0.015625)"/>
       </defs>
       <use xlink:href="#DejaVuSans-31" transform="translate(0 0.684375)"/>
       <use xlink:href="#DejaVuSans-30" transform="translate(63.623047 0.684375)"/>
       <use xlink:href="#DejaVuSans-34" transform="translate(128.203125 38.965625) scale(0.7)"/>
      </g>
     </g>
    </g>
    <g id="xtick_3">
     <g id="line2d_3">
      <defs>
       <path id="m1ad02ceeaa" d="M 0 0 
L 0 2 
" style="stroke: #000000; stroke-width: 0.6"/>
      </defs>
      <g>
       <use xlink:href="#m1ad02ceeaa" x="120.875886" y="307.584" style="stroke: #000000; stroke-width: 0.6"/>
      </g>
     </g>
    </g>
    <g id="xtick_4">
     <g id="line2d_4">
      <g>
       <use xlink:href="#m1ad02ceeaa" x="157.889906" y="307.584" style="stroke: #000000; stroke-width: 0.6"/>
      </g>
     </g>
    </g>
    <g id="xtick_5">
     <g id="line2d_5">
      <g>
       <use xlink:href="#m1ad02ceeaa" x="184.151772" y="307.584" style="stroke: #000000; stroke-width: 0.6"/>
      </g>
     </g>
    </g>
    <g id="xtick_6">
     <g id="line2d_6">
      <g>
       <use xlink:href="#m1ad02ceeaa" x="204.522057" y="307.584" style="stroke: #000000; stroke-width: 0.6"/>
      </g>
     </g>
    </g>
    <g id="xtick_7">
     <g id="line2d_7">
      <g>
       <use xlink:href="#m1ad02ceeaa" x="221.165792" y="307.584" style="stroke: #000000; stroke-width: 0.6"/>
      </g>
     </g>
    </g>
    <g id="xtick_8">
     <g id="line2d_8">
      <g>
       <use xlink:href="#m1ad02ceeaa" x="235.23787" y="307.584" style="stroke: #000000; stroke-width: 0.6"/>
      </g>
     </g>
    </g>
    <g id="xtick_9">
     <g id="line2d_9">
      <g>
       <use xlink:href="#m1ad02ceeaa" x="247.427658" y="307.584" style="stroke: #000000; stroke-width: 0.6"/>
      </g>
     </g>
    </g>
    <g id="xtick_10">
     <g id="line2d_10">
      <g>
       <use xlink:href="#m1ad02ceeaa" x="258.179813" y="307.584" style="stroke: #000000; stroke-width: 0.6"/>
      </g>
     </g>
    </g>
    <g id="xtick_11">
     <g id="line2d_11">
      <g>
       <use xlink:href="#m1ad02ceeaa" x="331.073829" y="307.584" style="stroke: #000000; stroke-width: 0.6"/>
      </g>
     </g>
    </g>
    <g id="xtick_12">
     <g id="line2d_12">
      <g>
       <use xlink:href="#m1ad02ceeaa" x="368.087849" y="307.584" style="stroke: #000000; stroke-width: 0.6"/>
      </g>
     </g>
    </g>
    <g id="xtick_13">
     <g id="line2d_13">
      <g>
       <use xlink:href="#m1ad02ceeaa" x="394.349715" y="307.584" style="stroke: #000000; stroke-width: 0.6"/>
      </g>
     </g>
    </g>
    <g id="xtick_14">
     <g id="line2d_14">
      <g>
       <use xlink:href="#m1ad02ceeaa" x="414.72" y="307.584" style="stroke: #000000; stroke-width: 0.6"/>
      </g>
     </g>
    </g>
    <g id="text_3">
     <!-- iter# -->
     <g transform="translate(223.488906 335.860562) scale(0.1 -0.1)">
      <defs>
       <path id="DejaVuSans-69" d="M 603 3500 
L 1178 3500 
L 1178 0 
L 603 0 
L 603 3500 
z
M 603 4863 
L 1178 4863 
L 1178 4134 
L 603 4134 
L 603 4863 
z
" transform="scale(0.015625)"/>
       <path id="DejaVuSans-74" d="M 1172 4494 
L 1172 3500 
L 2356 3500 
L 2356 3053 
L 1172 3053 
L 1172 1153 
Q 1172 725 1289 603 
Q 1406 481 1766 481 
L 2356 481 
L 2356 0 
L 1766 0 
Q 1100 0 847 248 
Q 594 497 594 1153 
L 594 3053 
L 172 3053 
L 172 3500 
L 594 3500 
L 594 4494 
L 1172 4494 
z
" transform="scale(0.015625)"/>
       <path id="DejaVuSans-65" d="M 3597 1894 
L 3597 1613 
L 953 1613 
Q 991 1019 1311 708 
Q 1631 397 2203 397 
Q 2534 397 2845 478 
Q 3156 559 3463 722 
L 3463 178 
Q 3153 47 2828 -22 
Q 2503 -91 2169 -91 
Q 1331 -91 842 396 
Q 353 884 353 1716 
Q 353 2575 817 3079 
Q 1281 3584 2069 3584 
Q 2775 3584 3186 3129 
Q 3597 2675 3597 1894 
z
M 3022 2063 
Q 3016 2534 2758 2815 
Q 2500 3097 2075 3097 
Q 1594 3097 1305 2825 
Q 1016 2553 972 2059 
L 3022 2063 
z
" transform="scale(0.015625)"/>
       <path id="DejaVuSans-72" d="M 2631 2963 
Q 2534 3019 2420 3045 
Q 2306 3072 2169 3072 
Q 1681 3072 1420 2755 
Q 1159 2438 1159 1844 
L 1159 0 
L 581 0 
L 581 3500 
L 1159 3500 
L 1159 2956 
Q 1341 3275 1631 3429 
Q 1922 3584 2338 3584 
Q 2397 3584 2469 3576 
Q 2541 3569 2628 3553 
L 2631 2963 
z
" transform="scale(0.015625)"/>
       <path id="DejaVuSans-23" d="M 3272 2816 
L 2363 2816 
L 2100 1772 
L 3016 1772 
L 3272 2816 
z
M 2803 4594 
L 2478 3297 
L 3391 3297 
L 3719 4594 
L 4219 4594 
L 3897 3297 
L 4872 3297 
L 4872 2816 
L 3775 2816 
L 3519 1772 
L 4513 1772 
L 4513 1294 
L 3397 1294 
L 3072 0 
L 2572 0 
L 2894 1294 
L 1978 1294 
L 1656 0 
L 1153 0 
L 1478 1294 
L 494 1294 
L 494 1772 
L 1594 1772 
L 1856 2816 
L 850 2816 
L 850 3297 
L 1978 3297 
L 2297 4594 
L 2803 4594 
z
" transform="scale(0.015625)"/>
      </defs>
      <use xlink:href="#DejaVuSans-69"/>
      <use xlink:href="#DejaVuSans-74" x="27.783203"/>
      <use xlink:href="#DejaVuSans-65" x="66.992188"/>
      <use xlink:href="#DejaVuSans-72" x="128.515625"/>
      <use xlink:href="#DejaVuSans-23" x="169.628906"/>
     </g>
    </g>
   </g>
   <g id="matplotlib.axis_2">
    <g id="ytick_1">
     <g id="line2d_15">
      <defs>
       <path id="mdefeee1b55" d="M 0 0 
L -3.5 0 
" style="stroke: #000000; stroke-width: 0.8"/>
      </defs>
      <g>
       <use xlink:href="#mdefeee1b55" x="57.6" y="245.254111" style="stroke: #000000; stroke-width: 0.8"/>
      </g>
     </g>
     <g id="text_4">
      <!-- $\mathdefault{10^{-2}}$ -->
      <g transform="translate(27.1 249.05333) scale(0.1 -0.1)">
       <defs>
        <path id="DejaVuSans-2212" d="M 678 2272 
L 4684 2272 
L 4684 1741 
L 678 1741 
L 678 2272 
z
" transform="scale(0.015625)"/>
        <path id="DejaVuSans-32" d="M 1228 531 
L 3431 531 
L 3431 0 
L 469 0 
L 469 531 
Q 828 903 1448 1529 
Q 2069 2156 2228 2338 
Q 2531 2678 2651 2914 
Q 2772 3150 2772 3378 
Q 2772 3750 2511 3984 
Q 2250 4219 1831 4219 
Q 1534 4219 1204 4116 
Q 875 4013 500 3803 
L 500 4441 
Q 881 4594 1212 4672 
Q 1544 4750 1819 4750 
Q 2544 4750 2975 4387 
Q 3406 4025 3406 3419 
Q 3406 3131 3298 2873 
Q 3191 2616 2906 2266 
Q 2828 2175 2409 1742 
Q 1991 1309 1228 531 
z
" transform="scale(0.015625)"/>
       </defs>
       <use xlink:href="#DejaVuSans-31" transform="translate(0 0.765625)"/>
       <use xlink:href="#DejaVuSans-30" transform="translate(63.623047 0.765625)"/>
       <use xlink:href="#DejaVuSans-2212" transform="translate(128.203125 39.046875) scale(0.7)"/>
       <use xlink:href="#DejaVuSans-32" transform="translate(186.855469 39.046875) scale(0.7)"/>
      </g>
     </g>
    </g>
    <g id="ytick_2">
     <g id="line2d_16">
      <g>
       <use xlink:href="#mdefeee1b55" x="57.6" y="88.622741" style="stroke: #000000; stroke-width: 0.8"/>
      </g>
     </g>
     <g id="text_5">
      <!-- $\mathdefault{10^{-1}}$ -->
      <g transform="translate(27.1 92.421959) scale(0.1 -0.1)">
       <use xlink:href="#DejaVuSans-31" transform="translate(0 0.684375)"/>
       <use xlink:href="#DejaVuSans-30" transform="translate(63.623047 0.684375)"/>
       <use xlink:href="#DejaVuSans-2212" transform="translate(128.203125 38.965625) scale(0.7)"/>
       <use xlink:href="#DejaVuSans-31" transform="translate(186.855469 38.965625) scale(0.7)"/>
      </g>
     </g>
    </g>
    <g id="ytick_3">
     <g id="line2d_17">
      <defs>
       <path id="m2967847e50" d="M 0 0 
L -2 0 
" style="stroke: #000000; stroke-width: 0.6"/>
      </defs>
      <g>
       <use xlink:href="#m2967847e50" x="57.6" y="307.584" style="stroke: #000000; stroke-width: 0.6"/>
      </g>
     </g>
    </g>
    <g id="ytick_4">
     <g id="line2d_18">
      <g>
       <use xlink:href="#m2967847e50" x="57.6" y="292.404852" style="stroke: #000000; stroke-width: 0.6"/>
      </g>
     </g>
    </g>
    <g id="ytick_5">
     <g id="line2d_19">
      <g>
       <use xlink:href="#m2967847e50" x="57.6" y="280.002585" style="stroke: #000000; stroke-width: 0.6"/>
      </g>
     </g>
    </g>
    <g id="ytick_6">
     <g id="line2d_20">
      <g>
       <use xlink:href="#m2967847e50" x="57.6" y="269.516617" style="stroke: #000000; stroke-width: 0.6"/>
      </g>
     </g>
    </g>
    <g id="ytick_7">
     <g id="line2d_21">
      <g>
       <use xlink:href="#m2967847e50" x="57.6" y="260.433259" style="stroke: #000000; stroke-width: 0.6"/>
      </g>
     </g>
    </g>
    <g id="ytick_8">
     <g id="line2d_22">
      <g>
       <use xlink:href="#m2967847e50" x="57.6" y="252.42117" style="stroke: #000000; stroke-width: 0.6"/>
      </g>
     </g>
    </g>
    <g id="ytick_9">
     <g id="line2d_23">
      <g>
       <use xlink:href="#m2967847e50" x="57.6" y="198.10337" style="stroke: #000000; stroke-width: 0.6"/>
      </g>
     </g>
    </g>
    <g id="ytick_10">
     <g id="line2d_24">
      <g>
       <use xlink:href="#m2967847e50" x="57.6" y="170.521955" style="stroke: #000000; stroke-width: 0.6"/>
      </g>
     </g>
    </g>
    <g id="ytick_11">
     <g id="line2d_25">
      <g>
       <use xlink:href="#m2967847e50" x="57.6" y="150.95263" style="stroke: #000000; stroke-width: 0.6"/>
      </g>
     </g>
    </g>
    <g id="ytick_12">
     <g id="line2d_26">
      <g>
       <use xlink:href="#m2967847e50" x="57.6" y="135.773481" style="stroke: #000000; stroke-width: 0.6"/>
      </g>
     </g>
    </g>
    <g id="ytick_13">
     <g id="line2d_27">
      <g>
       <use xlink:href="#m2967847e50" x="57.6" y="123.371214" style="stroke: #000000; stroke-width: 0.6"/>
      </g>
     </g>
    </g>
    <g id="ytick_14">
     <g id="line2d_28">
      <g>
       <use xlink:href="#m2967847e50" x="57.6" y="112.885247" style="stroke: #000000; stroke-width: 0.6"/>
      </g>
     </g>
    </g>
    <g id="ytick_15">
     <g id="line2d_29">
      <g>
       <use xlink:href="#m2967847e50" x="57.6" y="103.801889" style="stroke: #000000; stroke-width: 0.6"/>
      </g>
     </g>
    </g>
    <g id="ytick_16">
     <g id="line2d_30">
      <g>
       <use xlink:href="#m2967847e50" x="57.6" y="95.789799" style="stroke: #000000; stroke-width: 0.6"/>
      </g>
     </g>
    </g>
    <g id="ytick_17">
     <g id="line2d_31">
      <g>
       <use xlink:href="#m2967847e50" x="57.6" y="41.472" style="stroke: #000000; stroke-width: 0.6"/>
      </g>
     </g>
    </g>
    <g id="text_6">
     <!-- loss -->
     <g transform="translate(21.020313 184.185812) rotate(-90) scale(0.1 -0.1)">
      <defs>
       <path id="DejaVuSans-6c" d="M 603 4863 
L 1178 4863 
L 1178 0 
L 603 0 
L 603 4863 
z
" transform="scale(0.015625)"/>
       <path id="DejaVuSans-6f" d="M 1959 3097 
Q 1497 3097 1228 2736 
Q 959 2375 959 1747 
Q 959 1119 1226 758 
Q 1494 397 1959 397 
Q 2419 397 2687 759 
Q 2956 1122 2956 1747 
Q 2956 2369 2687 2733 
Q 2419 3097 1959 3097 
z
M 1959 3584 
Q 2709 3584 3137 3096 
Q 3566 2609 3566 1747 
Q 3566 888 3137 398 
Q 2709 -91 1959 -91 
Q 1206 -91 779 398 
Q 353 888 353 1747 
Q 353 2609 779 3096 
Q 1206 3584 1959 3584 
z
" transform="scale(0.015625)"/>
       <path id="DejaVuSans-73" d="M 2834 3397 
L 2834 2853 
Q 2591 2978 2328 3040 
Q 2066 3103 1784 3103 
Q 1356 3103 1142 2972 
Q 928 2841 928 2578 
Q 928 2378 1081 2264 
Q 1234 2150 1697 2047 
L 1894 2003 
Q 2506 1872 2764 1633 
Q 3022 1394 3022 966 
Q 3022 478 2636 193 
Q 2250 -91 1575 -91 
Q 1294 -91 989 -36 
Q 684 19 347 128 
L 347 722 
Q 666 556 975 473 
Q 1284 391 1588 391 
Q 1994 391 2212 530 
Q 2431 669 2431 922 
Q 2431 1156 2273 1281 
Q 2116 1406 1581 1522 
L 1381 1569 
Q 847 1681 609 1914 
Q 372 2147 372 2553 
Q 372 3047 722 3315 
Q 1072 3584 1716 3584 
Q 2034 3584 2315 3537 
Q 2597 3491 2834 3397 
z
" transform="scale(0.015625)"/>
      </defs>
      <use xlink:href="#DejaVuSans-6c"/>
      <use xlink:href="#DejaVuSans-6f" x="27.783203"/>
      <use xlink:href="#DejaVuSans-73" x="88.964844"/>
      <use xlink:href="#DejaVuSans-73" x="141.064453"/>
     </g>
    </g>
   </g>
   <g id="line2d_32">
    <path d="M 66.383004 -1 
L 70.596393 3.844329 
L 75.527904 9.819423 
L 80.206606 14.863464 
L 84.657159 19.915189 
L 88.900784 24.507974 
L 92.955871 29.682424 
L 100.562638 41.534267 
L 104.140817 46.437982 
L 110.902055 57.688097 
L 117.196869 65.813556 
L 120.188647 65.078796 
L 123.085479 65.176981 
L 123.839744 67.92185 
L 126.624717 72.92526 
L 129.327236 75.18622 
L 131.952044 79.148742 
L 136.985549 88.792573 
L 139.40191 93.813853 
L 141.755957 96.180537 
L 144.050822 99.278235 
L 146.289409 101.193892 
L 148.474413 105.338993 
L 150.608337 106.779697 
L 152.693517 101.354822 
L 154.732129 96.86092 
L 156.726208 98.803568 
L 158.677659 102.829905 
L 160.588264 107.201294 
L 162.459701 110.096825 
L 164.293541 105.899525 
L 166.091267 110.242085 
L 167.854273 111.497766 
L 169.583875 107.436142 
L 171.281314 109.617218 
L 172.947767 103.489451 
L 174.584343 106.040296 
L 176.192095 102.521163 
L 177.77202 105.860405 
L 179.325067 104.275519 
L 180.852133 104.388862 
L 182.354074 109.286807 
L 183.831704 109.858796 
L 185.285796 113.190165 
L 186.71709 111.162401 
L 187.093535 115.098565 
L 189.879171 117.330881 
L 191.240749 117.106927 
L 192.582316 121.352379 
L 193.904452 109.948551 
L 195.207713 110.247354 
L 196.49263 114.49189 
L 197.759712 117.899073 
L 199.009447 118.792155 
L 200.242303 115.242273 
L 201.458732 114.871073 
L 202.659164 114.767955 
L 203.844015 118.024882 
L 206.168557 108.904025 
L 207.309001 108.268014 
L 208.435374 103.741345 
L 209.548017 108.230056 
L 210.647263 112.079117 
L 211.733429 112.375502 
L 212.806824 117.558979 
L 213.867744 121.18799 
L 214.916475 101.713616 
L 215.953296 105.735382 
L 216.978472 103.723325 
L 217.992263 108.517784 
L 218.99492 110.918488 
L 219.986683 111.430527 
L 220.967787 115.095004 
L 221.938459 114.586302 
L 222.898919 116.500761 
L 223.849378 119.337956 
L 224.100189 124.27543 
L 225.038286 128.025455 
L 225.966842 132.920765 
L 226.886047 134.487774 
L 227.796089 137.978435 
L 228.697148 133.220269 
L 229.5894 132.505603 
L 230.473015 134.137541 
L 231.34816 130.624931 
L 232.214994 132.065809 
L 233.073675 127.141073 
L 233.924353 119.80537 
L 235.602292 127.552161 
L 236.429836 129.107381 
L 237.249946 133.254677 
L 238.868387 129.998664 
L 239.666973 133.770781 
L 240.458634 133.695198 
L 241.243488 126.854832 
L 242.021652 130.521341 
L 242.793239 131.251728 
L 243.558358 127.016623 
L 244.317119 125.142145 
L 245.069624 126.753591 
L 245.815977 130.934406 
L 246.556278 119.612531 
L 247.290623 120.020694 
L 248.019108 124.466481 
L 248.741826 123.204891 
L 249.458867 123.248606 
L 250.170319 121.382606 
L 250.358371 123.384444 
L 251.062874 128.339486 
L 251.761983 128.532165 
L 252.455778 133.502122 
L 253.827747 140.780001 
L 254.506076 133.374679 
L 255.179401 134.881003 
L 255.847797 133.735174 
L 256.511334 128.731537 
L 257.170083 130.553194 
L 257.824112 135.292862 
L 258.473489 138.677511 
L 259.118279 139.989583 
L 259.758547 143.036081 
L 260.394356 143.344349 
L 261.025766 148.248835 
L 261.65284 145.940589 
L 262.275635 146.478834 
L 262.89421 145.376341 
L 263.508622 141.730005 
L 264.118926 144.132898 
L 264.725177 142.714871 
L 265.327428 139.030641 
L 266.520141 136.777847 
L 267.110704 140.289516 
L 267.697471 142.27439 
L 268.280491 140.244813 
L 268.85981 138.97066 
L 269.435477 140.650332 
L 270.007536 144.244208 
L 270.576032 146.236253 
L 270.726446 150.9946 
L 271.290497 153.066754 
L 272.408249 159.858615 
L 273.512481 145.113295 
L 274.059628 149.304152 
L 274.603516 151.061253 
L 275.144182 154.08717 
L 275.681664 144.548967 
L 276.216001 143.858165 
L 276.747228 145.484823 
L 277.275382 147.621807 
L 277.800497 151.058546 
L 278.322609 142.822567 
L 278.841752 146.72382 
L 279.35796 151.662449 
L 279.871265 151.890615 
L 280.381699 155.386821 
L 280.889296 151.053401 
L 281.394085 143.927176 
L 281.896099 146.755447 
L 282.395367 148.873906 
L 282.891919 141.861891 
L 283.385785 146.235708 
L 283.876994 140.60549 
L 284.365573 145.274791 
L 285.334957 151.850512 
L 286.294154 158.798996 
L 286.77 160.68601 
L 287.243378 158.033828 
L 287.368708 162.408225 
L 288.772376 172.462778 
L 289.23551 172.051228 
L 289.696305 175.002249 
L 290.154787 175.05976 
L 290.610978 156.082412 
L 291.516576 165.673656 
L 291.966028 166.054182 
L 292.413279 168.47264 
L 292.858349 169.245655 
L 293.301259 166.596041 
L 294.180685 173.063194 
L 294.617241 171.908942 
L 295.484139 180.04146 
L 295.914521 178.366378 
L 296.342883 179.876556 
L 296.769245 177.636668 
L 297.193624 173.037395 
L 297.616039 172.521166 
L 298.036509 168.244079 
L 298.871683 172.128774 
L 299.286423 168.24591 
L 299.699286 169.995776 
L 300.11029 172.468372 
L 300.519453 176.45568 
L 300.926789 178.237452 
L 301.332317 175.737531 
L 301.842993 181.455275 
L 302.244479 182.759205 
L 302.644207 177.873216 
L 303.042193 178.236393 
L 303.438451 171.681526 
L 303.832996 174.079436 
L 304.225844 172.411535 
L 304.617008 175.432962 
L 305.006503 179.611812 
L 305.394344 182.073157 
L 305.780543 177.754866 
L 306.548075 183.217124 
L 306.929435 188.043318 
L 307.309208 184.045677 
L 307.687408 185.428429 
L 308.064047 189.396993 
L 308.439138 190.293494 
L 308.812695 165.164531 
L 309.18473 160.846958 
L 309.555254 162.595654 
L 309.92428 163.612394 
L 310.291821 163.131857 
L 311.022493 169.853685 
L 311.385647 171.214366 
L 311.747363 165.092846 
L 312.466522 174.419283 
L 312.823988 170.411733 
L 313.18006 174.018198 
L 313.534748 178.781375 
L 313.628731 183.343903 
L 313.981684 185.727081 
L 314.333277 184.832528 
L 314.683522 185.548332 
L 315.032427 182.058668 
L 315.380005 181.485739 
L 315.726264 183.744123 
L 316.071214 185.100774 
L 316.757229 192.510578 
L 317.098313 194.345824 
L 317.438127 194.610807 
L 317.776681 186.408949 
L 318.113984 187.347249 
L 318.450046 189.839458 
L 318.784874 182.272231 
L 319.782055 195.479525 
L 320.112042 195.393962 
L 320.440841 193.880078 
L 320.768459 196.384411 
L 321.094907 190.719179 
L 321.420191 191.733649 
L 321.74432 187.465049 
L 322.067302 186.351568 
L 322.709858 194.028564 
L 323.665291 206.820693 
L 324.296736 196.25223 
L 324.380272 197.068798 
L 324.694077 193.897156 
L 325.31847 202.815397 
L 325.629072 206.25469 
L 325.938621 205.418982 
L 326.247124 206.708787 
L 326.554588 203.573621 
L 326.861019 203.387332 
L 327.166426 193.769222 
L 327.470814 189.044625 
L 327.77419 193.669306 
L 328.076562 193.86883 
L 328.377935 197.085945 
L 328.678317 193.279317 
L 328.977714 195.524381 
L 329.276131 199.688429 
L 329.573577 195.905455 
L 329.870056 197.474219 
L 330.165576 194.699894 
L 330.460142 189.725787 
L 330.753761 190.7226 
L 331.046438 184.080229 
L 331.33818 181.596467 
L 331.628993 182.443934 
L 332.495913 193.763533 
L 332.783066 190.089984 
L 333.354678 196.19442 
L 333.922732 203.801092 
L 333.997911 201.778382 
L 334.56199 210.477901 
L 334.842727 213.08431 
L 335.122603 214.285928 
L 335.401625 209.239579 
L 335.679796 198.370284 
L 335.957121 202.100457 
L 336.233607 202.068199 
L 336.509258 206.85907 
L 336.78408 204.498606 
L 337.058076 198.004731 
L 337.331252 201.188869 
L 337.603614 194.432599 
L 338.685005 207.440019 
L 338.953363 205.483496 
L 339.487724 213.443741 
L 339.753736 216.33418 
L 340.018976 214.364629 
L 340.283446 211.202078 
L 340.547153 212.387553 
L 341.072292 216.359427 
L 341.333733 214.223773 
L 341.594428 210.819036 
L 341.85438 213.442533 
L 342.113594 213.282328 
L 342.372074 210.439894 
L 342.629824 211.654667 
L 342.698167 214.839881 
L 342.954999 207.331914 
L 343.466506 215.537798 
L 343.721189 213.703586 
L 344.228433 218.810848 
L 344.481002 210.252848 
L 344.732874 212.488374 
L 345.234543 221.048938 
L 345.484347 221.0377 
L 345.981914 225.467832 
L 346.229685 224.619348 
L 346.476784 221.700962 
L 346.723217 224.361826 
L 346.968986 225.621221 
L 347.214095 228.390248 
L 347.458548 221.912532 
L 347.702348 221.117359 
L 347.945499 225.134246 
L 348.188003 221.86742 
L 348.671088 228.0135 
L 349.151631 224.926903 
L 349.390957 211.769827 
L 349.629657 212.325883 
L 349.867734 210.894426 
L 350.105193 215.716033 
L 350.342035 217.724794 
L 350.578264 216.460774 
L 350.876368 221.328598 
L 351.11122 217.25722 
L 351.34547 221.487623 
L 351.57912 222.798161 
L 351.812174 219.604882 
L 352.044634 220.125574 
L 352.276504 207.806538 
L 352.507786 209.599277 
L 352.738484 210.487451 
L 352.9686 205.705412 
L 353.198138 207.152815 
L 353.4271 211.538584 
L 353.655489 213.191329 
L 353.883308 208.496024 
L 354.11056 198.241927 
L 354.337248 201.324461 
L 354.563374 206.17567 
L 354.788942 207.869701 
L 355.013953 211.170119 
L 355.462319 219.045267 
L 355.685679 208.878167 
L 355.908494 208.780029 
L 356.130766 208.330408 
L 356.352498 204.475387 
L 356.573693 209.375533 
L 356.794353 207.308827 
L 357.014481 208.907212 
L 357.889724 226.081071 
L 357.94755 222.351963 
L 358.598108 232.833383 
L 358.813934 231.971272 
L 359.244062 222.240345 
L 359.458369 226.899186 
L 360.098286 219.560083 
L 360.733748 231.667594 
L 360.94459 228.592786 
L 361.78312 242.589175 
L 362.199515 235.449288 
L 362.407002 238.507937 
L 362.614019 236.907576 
L 362.820567 220.633112 
L 363.026649 221.449925 
L 363.437422 228.260965 
L 363.642118 218.881017 
L 363.846355 217.641694 
L 364.050137 209.195392 
L 365.115735 230.659378 
L 365.316706 228.444024 
L 365.517235 229.85218 
L 365.717325 230.404693 
L 366.314976 238.437004 
L 366.513327 237.800752 
L 366.711248 231.877373 
L 367.105806 239.882839 
L 367.302448 239.394405 
L 367.694465 231.260283 
L 367.889844 229.826862 
L 368.084806 231.044588 
L 368.279353 230.735692 
L 368.473485 224.904059 
L 368.667206 228.241048 
L 368.860516 223.318501 
L 369.438004 233.118727 
L 369.62969 234.456556 
L 370.011861 240.76797 
L 370.202348 241.57658 
L 370.582133 248.634002 
L 370.771435 247.862483 
L 371.010458 249.480182 
L 371.198875 252.662603 
L 371.386903 252.54775 
L 371.574546 254.682893 
L 371.761803 258.210287 
L 371.948676 257.73706 
L 372.135168 258.49098 
L 372.32128 260.041644 
L 372.692369 246.108599 
L 372.87735 244.836393 
L 373.430053 256.843034 
L 373.613546 256.732654 
L 373.796671 258.446289 
L 373.979429 256.350885 
L 374.343852 261.697984 
L 374.525519 261.853268 
L 374.706826 257.021026 
L 374.887773 255.470755 
L 375.068362 256.479804 
L 375.248595 253.372476 
L 375.607996 255.585856 
L 375.965988 259.804934 
L 376.144459 263.148035 
L 376.322582 261.926943 
L 376.500357 264.774964 
L 376.677787 247.000387 
L 376.854873 247.639583 
L 376.901854 250.085764 
L 377.430789 258.387444 
L 377.606422 254.517599 
L 377.781717 240.736488 
L 377.956676 241.357368 
L 378.479552 251.203906 
L 378.826479 255.725345 
L 378.999449 255.578362 
L 379.34441 244.890273 
L 379.516403 245.359951 
L 379.688072 246.971592 
L 380.030445 255.643868 
L 380.201152 252.874023 
L 380.371539 256.449158 
L 380.541609 255.551988 
L 381.049927 261.122875 
L 381.218739 260.517652 
L 381.38724 258.30134 
L 381.55543 259.63903 
L 381.890884 255.977266 
L 382.058149 258.085705 
L 382.225109 256.352 
L 382.602251 267.325483 
L 382.76822 261.757776 
L 383.264322 271.204367 
L 383.921626 276.7548 
L 384.248512 261.607799 
L 384.574231 268.677381 
L 384.736656 269.390419 
L 385.222203 279.850553 
L 385.38348 279.791897 
L 385.865609 260.667266 
L 386.025754 263.517514 
L 386.185619 256.858238 
L 386.504511 254.116391 
L 386.822293 247.814551 
L 386.980771 239.859966 
L 387.138973 241.633512 
L 387.454558 246.817468 
L 387.653702 251.388587 
L 388.591925 269.95396 
L 388.902536 277.334102 
L 389.212093 268.711334 
L 389.366478 269.533273 
L 389.674469 275.679772 
L 389.828075 274.514698 
L 390.134515 280.524038 
L 390.28735 279.047475 
L 390.592254 284.487922 
L 390.744325 279.645139 
L 390.896144 269.290355 
L 391.04771 271.429083 
L 391.199025 265.776432 
L 391.500904 272.163184 
L 391.651471 271.47321 
L 391.801789 272.138703 
L 391.95186 274.585869 
L 392.101685 272.588356 
L 392.251264 273.034308 
L 392.400599 271.179757 
L 392.738034 278.748946 
L 392.886575 279.907723 
L 393.330754 287.310243 
L 393.478335 291.232034 
L 393.625677 284.107196 
L 393.91965 287.481099 
L 394.066283 286.27105 
L 394.21268 278.41826 
L 394.358843 276.979253 
L 394.504772 280.223448 
L 394.650468 278.732638 
L 394.941165 271.53058 
L 395.086167 274.188892 
L 395.230939 265.327036 
L 395.663883 270.239618 
L 395.807742 267.917046 
L 395.951376 271.706401 
L 396.237966 263.233985 
L 396.380924 264.369871 
L 396.523659 261.415759 
L 397.234004 281.598181 
L 397.412937 276.794654 
L 397.835679 283.25652 
L 398.116423 273.414888 
L 398.535927 282.244984 
L 398.675334 274.383543 
L 398.814529 274.809248 
L 398.953511 277.295619 
L 399.092283 269.010884 
L 399.369195 275.678739 
L 399.507336 277.01933 
L 399.782994 283.107025 
L 400.057822 286.599042 
L 400.194926 285.547049 
L 400.331824 287.533567 
L 400.468518 285.119172 
L 400.605007 280.491681 
L 400.877375 286.591853 
L 401.419684 297.963106 
L 401.689636 290.533283 
L 401.725429 279.644704 
L 401.860053 275.800686 
L 401.994479 268.440876 
L 402.262739 272.955127 
L 402.396573 270.582029 
L 402.663655 275.158349 
L 402.796904 274.811622 
L 402.929959 272.949246 
L 403.327962 280.854774 
L 403.460245 272.511738 
L 403.592337 276.092822 
L 403.724238 274.663153 
L 404.118801 283.230201 
L 404.249944 282.94505 
L 404.380899 267.815044 
L 404.642247 266.481138 
L 404.902848 271.514744 
L 405.032871 271.160924 
L 405.162708 264.447226 
L 405.292361 265.395895 
L 405.551116 271.521563 
L 405.680218 272.225887 
L 405.937878 278.623311 
L 406.100553 286.667964 
L 406.228881 285.943113 
L 406.35703 281.429789 
L 406.7404 289.493096 
L 406.867833 290.119555 
L 407.375793 301.970369 
L 407.502343 300.53647 
L 407.628718 296.034076 
L 407.754917 296.975359 
L 408.006795 303.005916 
L 408.257979 298.454688 
L 408.383313 298.731442 
L 408.633465 301.877312 
L 408.758284 277.035154 
L 408.882933 280.566507 
L 409.007412 271.956327 
L 409.379834 282.489362 
L 409.627273 288.341856 
L 409.750742 283.375077 
L 410.02986 289.590311 
L 410.152786 285.184193 
L 410.275546 285.136147 
L 410.398142 283.013992 
L 411.008663 296.780575 
L 411.130279 295.260905 
L 411.373025 298.200639 
L 411.494157 297.647476 
L 411.735939 291.263375 
L 411.977082 297.643486 
L 412.097416 297.071559 
L 412.217591 295.83544 
L 412.337607 297.94068 
L 412.457467 297.685991 
L 412.696714 292.541882 
L 412.816103 293.72344 
L 412.935336 293.250193 
L 413.054414 294.994607 
L 413.173336 293.183082 
L 413.292104 294.331273 
L 413.647483 300.695629 
L 413.765635 296.165671 
L 413.914954 276.792559 
L 414.150417 284.252058 
L 414.267921 281.937404 
L 414.267921 281.937404 
" clip-path="url(#pb00e7c4ee3)" style="fill: none; stroke: #1f77b4; stroke-opacity: 0.4; stroke-linecap: square"/>
   </g>
   <g id="line2d_33">
    <path d="M -1 46.532216 
L 7.399647 50.835272 
L 17.001955 43.301246 
L 25.689665 44.880023 
L 33.621951 48.396702 
L 40.919743 55.642144 
L 47.677069 62.69234 
L 53.968492 64.099053 
L 59.854134 60.123052 
L 65.383184 65.440808 
L 70.596393 69.720206 
L 75.527904 73.395896 
L 84.657159 84.974474 
L 88.900784 88.051599 
L 92.955871 89.456332 
L 96.838463 91.921587 
L 100.562638 96.978852 
L 104.140817 102.039694 
L 107.584018 105.261769 
L 110.902055 98.397846 
L 114.103709 101.902356 
L 117.196869 103.881158 
L 120.188647 105.172339 
L 123.085479 108.739299 
L 123.839744 110.351051 
L 126.624717 114.211176 
L 129.327236 118.61955 
L 131.952044 119.455683 
L 134.503485 118.708195 
L 136.985549 123.120724 
L 139.40191 122.691629 
L 141.755957 126.5847 
L 144.050822 125.898123 
L 146.289409 128.918559 
L 148.474413 128.605002 
L 150.608337 128.893973 
L 152.693517 131.409689 
L 154.732129 126.521586 
L 156.726208 130.138406 
L 160.588264 137.819627 
L 162.459701 137.44629 
L 164.293541 140.195482 
L 166.091267 140.921904 
L 167.854273 143.335655 
L 169.583875 144.991551 
L 171.281314 147.05507 
L 172.947767 150.681215 
L 174.584343 152.06277 
L 176.192095 154.120455 
L 177.77202 154.574478 
L 179.325067 157.417834 
L 180.852133 159.895887 
L 182.354074 155.750155 
L 183.831704 150.870887 
L 185.285796 154.696925 
L 186.71709 155.512713 
L 187.093535 145.59503 
L 188.496978 139.483025 
L 189.879171 142.580223 
L 191.240749 144.629379 
L 192.582316 147.191925 
L 193.904452 151.270487 
L 195.207713 148.610621 
L 196.49263 142.928108 
L 200.242303 152.943072 
L 201.458732 150.007334 
L 202.659164 139.893382 
L 203.844015 140.077613 
L 205.013685 143.262216 
L 206.168557 146.989196 
L 207.309001 149.635835 
L 208.435374 153.69801 
L 209.548017 149.823344 
L 210.647263 151.607683 
L 211.733429 153.879292 
L 212.806824 151.141009 
L 213.867744 146.649072 
L 214.916475 148.198222 
L 217.992263 160.292344 
L 218.99492 163.661333 
L 219.986683 158.834005 
L 220.967787 148.865031 
L 221.938459 152.833078 
L 222.898919 151.003292 
L 223.849378 153.949253 
L 224.100189 156.722016 
L 225.038286 152.710092 
L 225.966842 152.90287 
L 227.796089 160.732671 
L 229.5894 168.508303 
L 230.473015 169.877962 
L 231.34816 164.713145 
L 232.214994 166.014117 
L 233.073675 167.633123 
L 233.924353 170.894573 
L 234.767178 173.598873 
L 235.602292 169.072526 
L 236.429836 168.777881 
L 237.249946 168.886148 
L 238.062753 167.38159 
L 238.868387 170.251928 
L 240.458634 177.471882 
L 241.243488 170.152859 
L 242.021652 161.254639 
L 242.793239 165.019276 
L 245.069624 173.152846 
L 245.815977 176.450387 
L 247.290623 174.696634 
L 248.019108 167.528793 
L 248.741826 165.566296 
L 249.458867 168.004878 
L 250.170319 168.248841 
L 250.358371 169.401486 
L 251.062874 167.658994 
L 251.761983 157.812519 
L 253.14434 164.489118 
L 253.827747 160.657578 
L 254.506076 159.612025 
L 255.179401 160.444441 
L 255.847797 161.055567 
L 256.511334 163.647279 
L 257.170083 163.672914 
L 257.824112 162.266946 
L 258.473489 162.943741 
L 259.118279 163.957004 
L 259.758547 166.505847 
L 260.394356 162.671541 
L 261.025766 166.443372 
L 261.65284 169.310931 
L 262.275635 167.738484 
L 263.508622 173.990028 
L 264.118926 173.647061 
L 264.725177 171.149252 
L 265.327428 165.157692 
L 265.925733 169.169732 
L 266.520141 172.051597 
L 267.110704 167.934015 
L 267.697471 171.854893 
L 268.280491 173.51237 
L 268.85981 172.481986 
L 269.435477 175.062839 
L 270.007536 170.815407 
L 270.576032 173.109459 
L 270.726446 175.628424 
L 271.290497 178.888796 
L 271.851084 170.922014 
L 272.408249 169.9642 
L 272.962035 171.380555 
L 273.512481 175.284054 
L 274.059628 171.523661 
L 274.603516 174.805744 
L 275.144182 176.181302 
L 275.681664 179.840748 
L 276.216001 176.501323 
L 277.275382 183.337856 
L 277.800497 182.958765 
L 278.322609 184.247859 
L 279.35796 190.425 
L 279.871265 180.374639 
L 280.381699 176.126284 
L 280.889296 173.975647 
L 281.394085 174.529484 
L 281.896099 168.409809 
L 282.395367 170.823051 
L 282.891919 168.132365 
L 283.385785 172.068913 
L 283.876994 173.441885 
L 284.365573 171.449407 
L 284.851552 173.821119 
L 285.334957 175.480221 
L 285.815815 171.460004 
L 286.77 178.175915 
L 287.243378 179.120168 
L 287.368708 179.95786 
L 287.838999 178.576774 
L 288.30688 182.450461 
L 288.772376 184.106888 
L 289.23551 180.573118 
L 289.696305 183.843316 
L 290.154787 182.53007 
L 291.0649 186.831766 
L 291.516576 188.327713 
L 292.413279 185.883609 
L 292.858349 179.807148 
L 293.301259 176.129506 
L 293.742031 179.131292 
L 294.180685 179.414859 
L 294.617241 181.528392 
L 295.484139 187.565613 
L 295.914521 188.067537 
L 296.769245 193.785281 
L 297.193624 197.077294 
L 297.616039 192.639525 
L 298.455052 198.411611 
L 298.871683 193.086726 
L 299.286423 195.531744 
L 299.699286 196.529963 
L 300.11029 198.005207 
L 300.519453 188.812921 
L 300.926789 184.580004 
L 301.332317 187.95093 
L 301.439733 190.284692 
L 301.842993 192.473938 
L 302.244479 190.786439 
L 302.644207 190.33054 
L 303.042193 185.039195 
L 303.438451 184.875381 
L 303.832996 186.571756 
L 304.617008 192.747643 
L 305.006503 194.978762 
L 305.394344 185.281376 
L 305.780543 188.081479 
L 306.165116 182.169464 
L 307.687408 192.148298 
L 308.064047 194.914594 
L 308.439138 195.71171 
L 308.812695 197.142775 
L 309.18473 200.25186 
L 309.555254 197.229946 
L 310.657888 201.793664 
L 311.022493 197.529319 
L 311.747363 203.081585 
L 312.10765 198.225523 
L 312.466522 198.646646 
L 312.823988 196.994025 
L 313.534748 202.583406 
L 313.628731 197.699303 
L 313.981684 197.525881 
L 314.333277 198.959433 
L 314.683522 185.227918 
L 315.032427 187.181678 
L 315.380005 190.245282 
L 315.726264 189.693163 
L 316.071214 193.201662 
L 316.414866 194.716722 
L 316.757229 192.320053 
L 317.438127 198.336231 
L 318.450046 204.901179 
L 318.784874 199.789549 
L 319.782055 208.151604 
L 320.112042 208.079425 
L 320.440841 202.982769 
L 320.768459 202.022086 
L 321.094907 195.461552 
L 321.420191 192.387581 
L 321.74432 185.179913 
L 322.067302 185.575872 
L 322.389145 180.653578 
L 322.709858 182.365679 
L 323.029448 186.428542 
L 323.347923 188.301779 
L 323.665291 192.045008 
L 323.98156 193.975566 
L 324.296736 190.888022 
L 324.380272 193.606668 
L 324.694077 192.022941 
L 325.006808 195.623085 
L 325.31847 194.362266 
L 325.629072 196.545206 
L 325.938621 191.375424 
L 326.247124 192.56511 
L 326.554588 195.089392 
L 326.861019 198.898207 
L 327.166426 197.905651 
L 327.470814 198.135365 
L 327.77419 201.435538 
L 328.076562 201.695126 
L 328.377935 197.549145 
L 328.977714 203.744033 
L 329.276131 203.353273 
L 329.573577 205.944327 
L 329.870056 193.355813 
L 330.460142 199.983403 
L 330.753761 199.651141 
L 331.046438 203.252196 
L 331.628993 194.85533 
L 332.495913 205.245895 
L 332.783066 196.682097 
L 333.069319 200.184052 
L 333.354678 201.92887 
L 333.922732 207.94585 
L 333.997911 200.73041 
L 334.56199 206.272379 
L 334.842727 206.796864 
L 335.122603 207.7435 
L 335.401625 210.299626 
L 335.679796 207.124779 
L 336.233607 214.168227 
L 336.509258 212.40631 
L 337.058076 215.785206 
L 337.331252 218.592278 
L 337.603614 212.617228 
L 338.145911 217.16265 
L 338.415856 213.037933 
L 338.685005 212.118968 
L 338.953363 214.565396 
L 339.220935 211.408192 
L 339.487724 211.617056 
L 340.018976 216.050747 
L 340.547153 212.701339 
L 341.072292 215.052869 
L 341.594428 218.0885 
L 342.113594 222.40235 
L 342.629824 223.457768 
L 342.698167 220.313424 
L 342.954999 219.640754 
L 343.211111 221.083783 
L 343.466506 218.334303 
L 343.721189 221.217723 
L 343.975164 216.031131 
L 344.481002 219.178502 
L 344.732874 213.387839 
L 344.984053 211.011998 
L 345.234543 210.588624 
L 345.981914 218.252551 
L 346.229685 213.831528 
L 346.476784 216.411081 
L 346.723217 208.710052 
L 346.968986 207.643719 
L 347.214095 209.169983 
L 347.702348 213.488756 
L 347.945499 213.877783 
L 348.429865 219.244472 
L 349.151631 225.421714 
L 349.390957 224.856889 
L 349.867734 228.638417 
L 350.105193 224.977801 
L 350.342035 226.794671 
L 350.64091 231.123387 
L 350.876368 229.545233 
L 351.11122 230.645682 
L 351.34547 227.95669 
L 351.57912 222.604249 
L 351.812174 223.532364 
L 352.276504 224.337274 
L 352.738484 228.3088 
L 353.4271 236.017942 
L 353.655489 235.917531 
L 353.883308 226.952223 
L 354.337248 230.608031 
L 354.563374 229.007846 
L 354.788942 231.039438 
L 355.013953 230.682131 
L 355.238411 231.642417 
L 355.462319 231.684996 
L 355.685679 232.586647 
L 355.908494 229.252143 
L 356.352498 233.196334 
L 356.573693 232.993194 
L 356.794353 235.041521 
L 357.014481 232.535205 
L 357.23408 233.811962 
L 357.453152 226.062136 
L 357.889724 231.31638 
L 357.94755 233.887836 
L 358.38177 228.842972 
L 358.813934 231.093473 
L 359.244062 235.607567 
L 359.458369 231.125551 
L 359.672173 232.377029 
L 359.885478 231.013675 
L 360.733748 239.099644 
L 360.94459 238.818631 
L 361.364818 241.374768 
L 361.574209 237.352738 
L 361.991555 242.17096 
L 362.199515 232.311919 
L 362.820567 237.40004 
L 363.026649 230.227803 
L 363.232266 232.958834 
L 363.437422 230.544053 
L 363.642118 233.082819 
L 363.846355 232.707379 
L 364.050137 234.214777 
L 364.253465 232.259447 
L 364.658767 234.247245 
L 364.712461 236.86343 
L 364.914321 237.864758 
L 365.115735 240.359898 
L 365.316706 241.417725 
L 365.517235 243.109237 
L 365.717325 242.056085 
L 365.916977 229.755729 
L 366.116193 225.801795 
L 366.314976 228.343282 
L 366.513327 223.836833 
L 367.302448 232.548111 
L 367.498667 233.776299 
L 367.694465 229.60507 
L 367.889844 232.407547 
L 368.084806 232.556922 
L 368.279353 231.815358 
L 368.473485 220.26924 
L 369.053418 228.306731 
L 369.245914 230.460596 
L 369.438004 223.971202 
L 369.820976 228.352753 
L 370.011861 225.445578 
L 370.202348 227.299726 
L 370.392438 230.445144 
L 370.582133 231.445316 
L 370.771435 228.369978 
L 371.010458 232.86348 
L 371.198875 232.803985 
L 371.574546 235.846739 
L 371.761803 239.070742 
L 371.948676 238.960835 
L 372.135168 240.563917 
L 372.32128 238.972772 
L 372.507013 241.128118 
L 372.87735 234.084161 
L 373.24619 239.545425 
L 373.613546 232.558665 
L 373.796671 232.69052 
L 374.706826 244.05467 
L 374.887773 231.896561 
L 375.068362 234.624716 
L 375.248595 233.35723 
L 375.428472 235.702746 
L 375.607996 233.954414 
L 375.787168 234.642721 
L 376.144459 228.810839 
L 376.500357 234.856807 
L 376.677787 234.392547 
L 376.854873 235.926477 
L 376.901854 238.194212 
L 377.254818 243.331184 
L 377.430789 242.044311 
L 377.606422 245.20338 
L 377.781717 236.30729 
L 377.956676 235.268083 
L 378.131301 235.902816 
L 378.305593 238.305899 
L 378.479552 238.377676 
L 379.688072 253.189359 
L 380.030445 252.132132 
L 380.201152 252.424494 
L 380.541609 253.292261 
L 380.711363 250.327882 
L 380.880802 252.808057 
L 381.218739 244.200888 
L 381.38724 244.400008 
L 381.55543 246.625795 
L 381.723311 246.832988 
L 382.058149 245.029776 
L 382.225109 247.270466 
L 382.391764 246.752227 
L 382.43598 247.314496 
L 382.602251 246.874615 
L 382.76822 248.682022 
L 382.933887 247.87091 
L 383.099254 248.005025 
L 383.593566 254.071141 
L 383.757743 251.713798 
L 383.921626 252.764335 
L 384.248512 256.300907 
L 384.411516 250.066011 
L 384.736656 247.170499 
L 385.060641 251.621296 
L 385.222203 250.357759 
L 385.705182 256.678222 
L 385.865609 242.529482 
L 386.025754 243.442553 
L 386.185619 245.458748 
L 386.504511 242.386225 
L 386.663541 243.514659 
L 386.822293 243.434027 
L 387.611943 252.74669 
L 387.653702 251.843182 
L 387.810744 247.865044 
L 388.124019 253.05082 
L 388.280254 249.493607 
L 388.747363 257.096543 
L 388.902536 256.57017 
L 389.057445 258.301303 
L 389.212093 256.836762 
L 389.520604 252.304824 
L 389.828075 255.759626 
L 389.981424 256.441343 
L 390.134515 255.883991 
L 390.28735 257.92092 
L 390.439929 254.354668 
L 390.592254 254.479612 
L 390.744325 253.482771 
L 390.896144 256.199338 
L 391.04771 254.589053 
L 391.199025 254.28065 
L 391.350089 254.901584 
L 391.500904 253.112791 
L 392.101685 259.573725 
L 392.251264 260.200882 
L 392.400599 262.52107 
L 392.54969 262.21974 
L 392.738034 264.432626 
L 392.886575 258.783638 
L 393.182935 261.364401 
L 393.330754 258.962135 
L 393.478335 260.155528 
L 393.772782 259.313479 
L 394.21268 265.021382 
L 394.358843 265.536413 
L 394.504772 267.342585 
L 394.650468 264.76944 
L 394.941165 267.403393 
L 395.086167 264.707437 
L 395.230939 258.363251 
L 395.375482 257.184665 
L 395.663883 260.90781 
L 395.807742 258.504641 
L 395.951376 260.008303 
L 396.094783 258.08045 
L 396.237966 259.012853 
L 396.380924 259.11503 
L 396.523659 261.778862 
L 396.666171 260.23411 
L 397.092377 266.951295 
L 397.234004 262.008255 
L 397.271587 264.154274 
L 397.412937 263.924263 
L 397.694982 268.002631 
L 397.835679 260.513121 
L 397.976159 261.777589 
L 398.116423 261.836527 
L 398.396306 262.40442 
L 398.535927 261.690286 
L 398.675334 262.807024 
L 398.953511 257.020563 
L 399.092283 256.436554 
L 399.230844 256.6602 
L 399.369195 255.262809 
L 399.920511 263.816155 
L 400.057822 261.835335 
L 400.194926 262.389927 
L 400.468518 266.824506 
L 400.605007 263.193206 
L 400.741293 264.603669 
L 400.877375 264.085317 
L 401.013255 261.651909 
L 401.148932 263.593626 
L 401.284409 263.457552 
L 401.419684 262.935671 
L 401.725429 253.741461 
L 401.860053 253.955496 
L 401.994479 256.755189 
L 402.128707 257.172608 
L 402.396573 259.900707 
L 402.796904 265.058266 
L 402.929959 263.36476 
L 403.062819 263.507888 
L 403.327962 266.779468 
L 403.592337 270.402822 
L 403.724238 269.021333 
L 403.98747 272.458229 
L 404.118801 270.338487 
L 404.249944 262.062609 
L 404.511667 264.188664 
L 404.642247 262.069761 
L 404.902848 265.399392 
L 405.162708 264.750715 
L 405.42183 268.872334 
L 405.551116 267.429783 
L 405.680218 269.747659 
L 405.937878 268.938507 
L 406.100553 267.373661 
L 406.228881 267.3832 
L 406.612789 272.122908 
L 406.7404 269.741384 
L 406.867833 270.472894 
L 406.995088 268.807888 
L 407.122166 260.463394 
L 407.628718 266.600301 
L 407.754917 268.687045 
L 407.880943 267.402759 
L 408.006795 267.643911 
L 408.257979 270.701002 
L 408.383313 270.63478 
L 408.633465 271.513074 
L 408.758284 271.309089 
L 408.882933 271.565853 
L 409.007412 272.164299 
L 409.131721 271.437838 
L 409.379834 272.536614 
L 409.874044 275.642365 
L 409.99718 275.501198 
L 410.02986 276.664401 
L 410.152786 276.549727 
L 410.275546 277.177062 
L 410.398142 278.579619 
L 410.642841 269.41172 
L 410.886885 273.477561 
L 411.008663 272.491938 
L 411.130279 274.31741 
L 411.251733 273.660104 
L 411.85659 279.413638 
L 411.977082 276.50091 
L 412.097416 278.26779 
L 412.217591 277.896098 
L 412.337607 278.569062 
L 412.457467 277.08398 
L 412.577169 277.155758 
L 412.696714 276.969323 
L 412.816103 277.070386 
L 413.292104 282.170325 
L 413.410717 283.307604 
L 413.529177 278.712616 
L 413.647483 279.259142 
L 413.765635 280.425134 
L 413.914954 277.831495 
L 414.267921 282.216859 
L 414.267921 282.216859 
" clip-path="url(#pb00e7c4ee3)" style="fill: none; stroke: #ff7f0e; stroke-opacity: 0.4; stroke-linecap: square"/>
   </g>
   <g id="line2d_34">
    <path d="M -1 36.570937 
L 7.399647 42.797243 
L 17.001955 51.279068 
L 25.689665 52.836635 
L 40.919743 67.046137 
L 59.854134 85.515465 
L 65.383184 86.543274 
L 70.596393 89.675753 
L 75.527904 95.015654 
L 80.206606 97.227226 
L 84.657159 99.81386 
L 88.900784 103.293925 
L 92.955871 107.623167 
L 96.838463 105.672024 
L 100.562638 108.375384 
L 104.140817 108.43477 
L 107.584018 110.710102 
L 110.902055 114.619984 
L 114.103709 111.397515 
L 117.196869 116.150403 
L 120.188647 114.969121 
L 123.085479 117.090423 
L 123.839744 121.143613 
L 126.624717 124.409044 
L 129.327236 128.732084 
L 131.952044 130.245952 
L 134.503485 124.60527 
L 136.985549 125.897168 
L 139.40191 129.253874 
L 141.755957 129.297592 
L 144.050822 132.609565 
L 146.289409 124.58657 
L 148.474413 128.501481 
L 150.608337 129.009769 
L 154.732129 136.440652 
L 156.726208 138.874524 
L 158.677659 136.006619 
L 160.588264 135.623122 
L 166.091267 145.394039 
L 167.854273 148.39398 
L 169.583875 150.975443 
L 171.281314 152.335983 
L 172.947767 156.111755 
L 176.192095 160.892804 
L 177.77202 159.829988 
L 180.852133 164.946353 
L 182.354074 165.999142 
L 183.831704 164.094534 
L 185.285796 158.758903 
L 186.71709 159.638715 
L 187.093535 162.062017 
L 188.496978 162.246818 
L 189.879171 164.856703 
L 191.240749 167.933766 
L 192.582316 167.745344 
L 193.904452 166.083388 
L 195.207713 168.73758 
L 196.49263 170.163624 
L 197.759712 172.735994 
L 199.009447 174.910376 
L 200.242303 175.810711 
L 201.458732 158.790105 
L 203.844015 148.530019 
L 206.168557 153.711587 
L 207.309001 152.998564 
L 208.435374 148.7748 
L 209.548017 152.001678 
L 210.647263 154.303745 
L 211.733429 154.279733 
L 212.806824 156.758603 
L 213.867744 158.651829 
L 214.916475 157.263915 
L 215.953296 161.153921 
L 216.978472 156.925981 
L 217.992263 158.816011 
L 218.99492 162.444765 
L 219.986683 161.078297 
L 220.967787 161.499271 
L 221.938459 164.76965 
L 222.898919 163.451053 
L 223.849378 164.914632 
L 224.100189 166.837419 
L 225.038286 160.483204 
L 225.966842 159.96986 
L 226.886047 155.073473 
L 228.697148 158.779066 
L 229.5894 146.782452 
L 230.473015 150.774045 
L 231.34816 149.527963 
L 232.214994 152.396516 
L 233.073675 156.240926 
L 233.924353 153.898793 
L 234.767178 157.199475 
L 235.602292 153.447473 
L 237.249946 159.765489 
L 238.062753 160.335887 
L 239.666973 165.209716 
L 240.458634 168.790716 
L 241.243488 171.817118 
L 242.021652 167.069878 
L 243.558358 169.762723 
L 244.317119 168.13458 
L 245.069624 161.268406 
L 245.815977 164.677348 
L 246.556278 165.650738 
L 247.290623 169.336956 
L 248.019108 171.767194 
L 248.741826 165.115534 
L 249.458867 168.632896 
L 250.358371 163.532985 
L 251.062874 167.510515 
L 251.761983 165.044328 
L 253.14434 172.903189 
L 253.827747 175.906728 
L 254.506076 170.552948 
L 255.179401 166.586146 
L 255.847797 168.705775 
L 256.511334 172.609512 
L 257.170083 174.862117 
L 257.824112 171.822964 
L 258.473489 170.770764 
L 259.118279 167.963547 
L 259.758547 170.75088 
L 260.394356 172.814618 
L 261.025766 173.733416 
L 262.275635 176.287898 
L 262.89421 180.033174 
L 263.508622 177.475012 
L 264.118926 181.07813 
L 264.725177 183.761459 
L 265.327428 185.782509 
L 265.925733 183.733193 
L 266.520141 186.740553 
L 267.110704 185.892714 
L 267.697471 188.339289 
L 268.280491 189.606424 
L 268.85981 185.304279 
L 269.435477 175.610173 
L 270.007536 174.874299 
L 270.576032 178.495044 
L 270.726446 174.322853 
L 271.290497 176.363329 
L 271.851084 174.86571 
L 272.408249 177.470158 
L 272.962035 177.965944 
L 273.512481 179.218965 
L 274.059628 181.714637 
L 274.603516 183.141043 
L 275.144182 181.628479 
L 276.216001 188.407693 
L 276.747228 186.516492 
L 277.800497 192.610634 
L 278.322609 194.8708 
L 278.841752 194.582818 
L 279.35796 196.65596 
L 279.871265 182.479028 
L 280.381699 184.063997 
L 280.889296 180.418645 
L 281.394085 180.109116 
L 281.896099 182.993292 
L 282.395367 179.494654 
L 282.891919 177.867307 
L 283.385785 170.130443 
L 284.365573 178.243203 
L 284.851552 170.374584 
L 285.334957 171.577104 
L 285.815815 174.299884 
L 286.294154 174.453785 
L 287.243378 180.441508 
L 287.368708 180.21589 
L 287.838999 179.749289 
L 288.30688 181.305397 
L 289.23551 186.169871 
L 289.696305 186.428765 
L 290.610978 192.889928 
L 291.0649 182.284449 
L 291.516576 183.444989 
L 291.966028 180.171244 
L 292.413279 175.700012 
L 292.858349 178.768889 
L 293.301259 174.961185 
L 293.742031 173.034689 
L 294.180685 169.497266 
L 294.617241 172.542138 
L 295.051719 174.772552 
L 295.484139 172.665206 
L 295.914521 176.321333 
L 296.342883 178.981506 
L 297.193624 186.755629 
L 297.616039 185.914382 
L 298.036509 180.695278 
L 298.871683 188.22592 
L 299.286423 189.225748 
L 299.699286 188.085161 
L 300.11029 190.910434 
L 300.926789 169.174472 
L 301.332317 171.896175 
L 301.439733 171.00148 
L 301.842993 171.872523 
L 302.244479 175.95052 
L 302.644207 178.854665 
L 303.438451 186.843299 
L 303.832996 184.905805 
L 304.225844 185.646896 
L 305.006503 191.710245 
L 305.394344 183.745784 
L 305.780543 186.790034 
L 306.165116 188.703978 
L 306.548075 188.785265 
L 306.929435 186.981481 
L 307.309208 185.962453 
L 307.687408 187.393041 
L 308.064047 184.213806 
L 308.439138 185.973483 
L 308.812695 184.309132 
L 309.18473 183.445678 
L 309.555254 186.974171 
L 309.92428 187.962515 
L 310.291821 192.130038 
L 310.657888 191.116762 
L 311.022493 194.702374 
L 311.385647 195.581972 
L 312.10765 201.200648 
L 312.466522 198.304766 
L 313.18006 205.696358 
L 313.534748 205.474762 
L 313.628731 208.698094 
L 314.333277 214.448092 
L 314.683522 208.989611 
L 315.032427 210.235552 
L 315.380005 213.033401 
L 315.726264 212.173596 
L 316.071214 206.755439 
L 316.414866 206.236274 
L 316.757229 209.099599 
L 317.438127 212.284012 
L 317.776681 210.458031 
L 319.11848 220.79228 
L 319.45087 221.930949 
L 319.782055 220.232952 
L 320.112042 220.937409 
L 320.440841 221.053906 
L 320.768459 224.002926 
L 321.094907 224.360807 
L 321.420191 222.03466 
L 321.74432 223.766476 
L 322.067302 224.768219 
L 322.389145 220.996311 
L 322.709858 223.161759 
L 323.029448 224.066686 
L 323.347923 217.694599 
L 323.665291 218.822858 
L 323.98156 222.155807 
L 324.296736 219.410189 
L 324.380272 219.659917 
L 324.694077 218.734174 
L 325.006808 212.982411 
L 325.31847 215.347885 
L 325.629072 218.799844 
L 325.938621 220.032897 
L 326.247124 219.4274 
L 326.554588 215.550178 
L 327.166426 206.535851 
L 327.470814 210.555647 
L 327.77419 210.733929 
L 328.076562 196.177424 
L 328.377935 195.576474 
L 328.678317 199.699631 
L 328.977714 197.208348 
L 329.276131 198.112509 
L 329.870056 205.752517 
L 330.165576 199.623623 
L 330.460142 203.861643 
L 330.753761 200.26552 
L 331.33818 207.743824 
L 331.628993 208.111048 
L 331.918882 208.250413 
L 332.207853 205.372378 
L 333.354678 216.465539 
L 333.639147 219.270532 
L 333.922732 218.220849 
L 333.997911 216.056951 
L 334.280386 217.46567 
L 334.56199 217.939255 
L 334.842727 213.713872 
L 335.122603 214.751663 
L 335.679796 220.889419 
L 335.957121 222.331066 
L 336.233607 221.551745 
L 336.509258 221.750891 
L 337.058076 228.145862 
L 337.331252 230.413448 
L 337.603614 231.698913 
L 337.875165 234.173359 
L 338.145911 225.969989 
L 338.415856 225.37201 
L 338.685005 222.854669 
L 338.953363 222.853707 
L 339.487724 228.647443 
L 340.018976 232.083611 
L 340.283446 234.826952 
L 340.547153 234.786191 
L 340.8101 235.272793 
L 341.594428 240.705492 
L 341.85438 239.481973 
L 342.372074 235.176145 
L 342.629824 235.705438 
L 342.698167 223.945275 
L 342.954999 227.361061 
L 343.211111 223.513583 
L 343.466506 226.433279 
L 343.721189 226.027894 
L 343.975164 229.611253 
L 344.228433 230.817565 
L 344.481002 227.146301 
L 344.732874 229.785402 
L 344.984053 230.390202 
L 345.234543 223.329341 
L 345.484347 224.42032 
L 346.229685 232.931865 
L 346.476784 231.498827 
L 346.723217 231.315499 
L 346.968986 233.916525 
L 347.214095 216.802307 
L 347.458548 218.907199 
L 347.945499 225.717139 
L 348.188003 225.394593 
L 348.429865 228.55734 
L 348.671088 227.229614 
L 348.911676 229.558257 
L 349.151631 229.14226 
L 349.390957 231.661509 
L 349.629657 228.232828 
L 350.105193 218.050437 
L 350.64091 225.782074 
L 351.11122 233.023863 
L 351.57912 229.847554 
L 351.812174 230.663918 
L 352.044634 229.803724 
L 352.507786 231.879766 
L 352.738484 234.488441 
L 352.9686 234.733928 
L 353.655489 241.281127 
L 353.883308 241.423687 
L 354.11056 243.508205 
L 354.337248 239.093513 
L 354.563374 237.662379 
L 354.788942 239.599211 
L 355.013953 234.515159 
L 355.685679 242.477146 
L 355.908494 242.086633 
L 356.130766 243.194965 
L 356.352498 236.211519 
L 356.794353 238.018867 
L 357.014481 236.214588 
L 357.23408 232.06873 
L 357.453152 233.95747 
L 357.671699 233.471714 
L 358.164918 240.356368 
L 358.813934 249.422051 
L 359.244062 252.564086 
L 359.458369 250.061721 
L 359.672173 251.188633 
L 359.885478 249.326149 
L 360.733748 256.060589 
L 361.154946 260.039501 
L 361.364818 257.366239 
L 361.78312 262.499918 
L 362.199515 255.218611 
L 362.820567 262.623805 
L 363.026649 263.039769 
L 363.232266 264.408099 
L 363.437422 261.491435 
L 363.642118 254.172807 
L 363.846355 256.552388 
L 364.050137 251.247725 
L 364.253465 252.418307 
L 364.456341 250.325714 
L 364.658767 250.589495 
L 364.712461 240.796666 
L 364.914321 243.979791 
L 365.115735 244.430499 
L 365.316706 247.4262 
L 365.517235 247.10303 
L 365.717325 250.546518 
L 366.116193 251.891791 
L 366.314976 244.81615 
L 367.694465 261.104446 
L 367.889844 260.327161 
L 368.473485 267.140498 
L 368.667206 268.432902 
L 368.860516 254.401934 
L 369.053418 256.185531 
L 369.438004 261.537712 
L 369.62969 263.743067 
L 369.820976 264.328529 
L 370.011861 264.402449 
L 370.202348 258.426835 
L 370.771435 265.165852 
L 371.010458 259.993485 
L 371.386903 265.290154 
L 371.574546 265.368821 
L 371.948676 255.321403 
L 372.135168 257.305459 
L 372.32128 257.686988 
L 372.692369 252.157538 
L 373.061956 257.621602 
L 373.24619 260.354408 
L 373.430053 259.331645 
L 374.343852 270.631669 
L 374.525519 270.2339 
L 374.706826 267.602344 
L 375.068362 271.032013 
L 375.248595 271.669416 
L 375.428472 274.454095 
L 375.607996 275.26079 
L 375.787168 274.270942 
L 375.965988 276.148464 
L 376.144459 276.675582 
L 376.322582 270.445515 
L 376.500357 268.604806 
L 376.901854 272.380717 
L 377.078507 272.635511 
L 377.254818 263.764147 
L 377.430789 265.146578 
L 377.781717 268.767894 
L 377.956676 268.405427 
L 378.305593 262.844661 
L 378.826479 270.954005 
L 378.999449 269.091031 
L 379.172093 268.636399 
L 379.34441 269.476953 
L 379.688072 274.375242 
L 379.859419 270.859422 
L 380.030445 270.45903 
L 380.201152 273.117065 
L 380.371539 269.930637 
L 380.711363 271.333186 
L 380.880802 271.431002 
L 381.55543 279.236668 
L 381.890884 282.628013 
L 382.391764 271.291279 
L 382.43598 273.67129 
L 382.602251 274.144273 
L 382.933887 277.724157 
L 383.099254 274.580383 
L 383.264322 266.907322 
L 383.429092 266.192619 
L 384.085215 277.048315 
L 384.248512 263.054047 
L 385.060641 274.655079 
L 385.222203 274.419768 
L 385.38348 277.198447 
L 385.544473 276.664218 
L 385.705182 277.225126 
L 385.865609 277.016528 
L 386.025754 274.831375 
L 386.185619 276.824147 
L 386.345204 275.371885 
L 386.504511 276.228535 
L 386.663541 271.100305 
L 386.822293 272.983924 
L 386.980771 269.738359 
L 387.138973 269.326969 
L 387.296902 269.60929 
L 387.454558 271.503507 
L 387.611943 269.472598 
L 387.653702 270.909896 
L 387.810744 272.02498 
L 388.436223 279.997877 
L 388.591925 281.156094 
L 388.747363 279.603511 
L 388.902536 280.082468 
L 389.057445 282.178985 
L 389.212093 280.955891 
L 389.520604 284.382715 
L 389.674469 284.086365 
L 389.981424 274.805951 
L 390.134515 274.627461 
L 390.28735 266.88944 
L 390.592254 271.735176 
L 390.744325 274.874952 
L 390.896144 275.433432 
L 391.04771 269.552626 
L 391.199025 271.196808 
L 391.350089 271.24035 
L 391.500904 270.808764 
L 391.651471 268.83741 
L 391.95186 272.477547 
L 392.251264 265.241473 
L 392.54969 271.431872 
L 392.589251 270.732474 
L 392.738034 272.987201 
L 392.886575 269.322868 
L 393.330754 275.318913 
L 393.625677 276.636315 
L 394.066283 284.566207 
L 394.21268 284.426486 
L 394.358843 286.25476 
L 394.504772 279.765223 
L 394.650468 280.039149 
L 395.086167 283.651975 
L 395.375482 286.746227 
L 395.519796 285.55712 
L 395.663883 287.779205 
L 395.951376 277.728661 
L 396.094783 279.503463 
L 396.237966 279.211083 
L 396.380924 280.139939 
L 396.808461 285.378145 
L 396.950529 277.724677 
L 397.234004 282.385578 
L 397.271587 281.519721 
L 397.976159 294.243509 
L 398.116423 293.561034 
L 398.256472 293.810636 
L 398.396306 295.003711 
L 398.675334 299.373856 
L 398.814529 298.233799 
L 399.507336 304.302066 
L 399.645269 302.352319 
L 399.782994 303.980903 
L 399.920511 304.277549 
L 400.057822 305.211756 
L 400.194926 303.965628 
L 400.741293 308.192288 
L 400.877375 295.357955 
L 401.013255 295.5905 
L 401.419684 298.371812 
L 401.689636 300.689181 
L 401.860053 298.923455 
L 401.994479 299.190686 
L 402.128707 298.409922 
L 402.262739 299.632598 
L 402.396573 297.631196 
L 402.530212 299.734701 
L 402.796904 296.128659 
L 403.062819 295.728798 
L 403.327962 299.534771 
L 403.460245 299.420096 
L 403.724238 302.108291 
L 403.855949 302.177093 
L 403.98747 298.701693 
L 404.118801 300.277381 
L 404.249944 299.63384 
L 404.642247 300.693955 
L 404.772641 301.902471 
L 404.902848 293.632801 
L 405.42183 301.368893 
L 405.551116 300.862923 
L 405.680218 298.033583 
L 406.228881 305.94514 
L 406.484999 309.19898 
L 406.612789 308.725341 
L 406.867833 305.402991 
L 406.995088 302.753454 
L 407.122166 303.676313 
L 407.249068 299.224155 
L 407.754917 303.504963 
L 407.880943 303.702291 
L 408.006795 305.337255 
L 408.132473 300.732821 
L 408.508474 304.581591 
L 408.633465 301.725138 
L 408.758284 301.835256 
L 408.882933 297.462126 
L 409.007412 297.707262 
L 409.131721 295.32398 
L 409.503637 301.34528 
L 409.627273 297.324915 
L 409.750742 298.532329 
L 409.874044 289.273779 
L 410.152786 293.625176 
L 410.520573 300.13383 
L 410.642841 300.40971 
L 410.764944 298.91206 
L 410.886885 299.790932 
L 411.494157 308.432143 
L 411.615128 305.541591 
L 411.735939 305.582266 
L 412.217591 301.716891 
L 412.337607 303.533569 
L 412.457467 302.795132 
L 412.577169 294.711694 
L 413.054414 304.430377 
L 413.173336 304.487736 
L 413.292104 300.657685 
L 413.410717 302.99339 
L 413.529177 302.875343 
L 413.647483 303.438671 
L 413.765635 304.968293 
L 413.883636 304.816088 
L 414.032761 308.645001 
L 414.267921 301.33303 
L 414.267921 301.33303 
" clip-path="url(#pb00e7c4ee3)" style="fill: none; stroke: #2ca02c; stroke-opacity: 0.4; stroke-linecap: square"/>
   </g>
   <g id="patch_3">
    <path d="M 57.6 307.584 
L 57.6 41.472 
" style="fill: none; stroke: #000000; stroke-width: 0.8; stroke-linejoin: miter; stroke-linecap: square"/>
   </g>
   <g id="patch_4">
    <path d="M 414.72 307.584 
L 414.72 41.472 
" style="fill: none; stroke: #000000; stroke-width: 0.8; stroke-linejoin: miter; stroke-linecap: square"/>
   </g>
   <g id="patch_5">
    <path d="M 57.6 307.584 
L 414.72 307.584 
" style="fill: none; stroke: #000000; stroke-width: 0.8; stroke-linejoin: miter; stroke-linecap: square"/>
   </g>
   <g id="patch_6">
    <path d="M 57.6 41.472 
L 414.72 41.472 
" style="fill: none; stroke: #000000; stroke-width: 0.8; stroke-linejoin: miter; stroke-linecap: square"/>
   </g>
   <g id="text_7">
    <!-- 2025-02-21-00:26:25 -->
    <g transform="translate(172.178438 35.472) scale(0.12 -0.12)">
     <defs>
      <path id="DejaVuSans-35" d="M 691 4666 
L 3169 4666 
L 3169 4134 
L 1269 4134 
L 1269 2991 
Q 1406 3038 1543 3061 
Q 1681 3084 1819 3084 
Q 2600 3084 3056 2656 
Q 3513 2228 3513 1497 
Q 3513 744 3044 326 
Q 2575 -91 1722 -91 
Q 1428 -91 1123 -41 
Q 819 9 494 109 
L 494 744 
Q 775 591 1075 516 
Q 1375 441 1709 441 
Q 2250 441 2565 725 
Q 2881 1009 2881 1497 
Q 2881 1984 2565 2268 
Q 2250 2553 1709 2553 
Q 1456 2553 1204 2497 
Q 953 2441 691 2322 
L 691 4666 
z
" transform="scale(0.015625)"/>
      <path id="DejaVuSans-2d" d="M 313 2009 
L 1997 2009 
L 1997 1497 
L 313 1497 
L 313 2009 
z
" transform="scale(0.015625)"/>
      <path id="DejaVuSans-3a" d="M 750 794 
L 1409 794 
L 1409 0 
L 750 0 
L 750 794 
z
M 750 3309 
L 1409 3309 
L 1409 2516 
L 750 2516 
L 750 3309 
z
" transform="scale(0.015625)"/>
      <path id="DejaVuSans-36" d="M 2113 2584 
Q 1688 2584 1439 2293 
Q 1191 2003 1191 1497 
Q 1191 994 1439 701 
Q 1688 409 2113 409 
Q 2538 409 2786 701 
Q 3034 994 3034 1497 
Q 3034 2003 2786 2293 
Q 2538 2584 2113 2584 
z
M 3366 4563 
L 3366 3988 
Q 3128 4100 2886 4159 
Q 2644 4219 2406 4219 
Q 1781 4219 1451 3797 
Q 1122 3375 1075 2522 
Q 1259 2794 1537 2939 
Q 1816 3084 2150 3084 
Q 2853 3084 3261 2657 
Q 3669 2231 3669 1497 
Q 3669 778 3244 343 
Q 2819 -91 2113 -91 
Q 1303 -91 875 529 
Q 447 1150 447 2328 
Q 447 3434 972 4092 
Q 1497 4750 2381 4750 
Q 2619 4750 2861 4703 
Q 3103 4656 3366 4563 
z
" transform="scale(0.015625)"/>
     </defs>
     <use xlink:href="#DejaVuSans-32"/>
     <use xlink:href="#DejaVuSans-30" x="63.623047"/>
     <use xlink:href="#DejaVuSans-32" x="127.246094"/>
     <use xlink:href="#DejaVuSans-35" x="190.869141"/>
     <use xlink:href="#DejaVuSans-2d" x="254.492188"/>
     <use xlink:href="#DejaVuSans-30" x="290.576172"/>
     <use xlink:href="#DejaVuSans-32" x="354.199219"/>
     <use xlink:href="#DejaVuSans-2d" x="417.822266"/>
     <use xlink:href="#DejaVuSans-32" x="453.90625"/>
     <use xlink:href="#DejaVuSans-31" x="517.529297"/>
     <use xlink:href="#DejaVuSans-2d" x="581.152344"/>
     <use xlink:href="#DejaVuSans-30" x="617.236328"/>
     <use xlink:href="#DejaVuSans-30" x="680.859375"/>
     <use xlink:href="#DejaVuSans-3a" x="744.482422"/>
     <use xlink:href="#DejaVuSans-32" x="778.173828"/>
     <use xlink:href="#DejaVuSans-36" x="841.796875"/>
     <use xlink:href="#DejaVuSans-3a" x="905.419922"/>
     <use xlink:href="#DejaVuSans-32" x="939.111328"/>
     <use xlink:href="#DejaVuSans-35" x="1002.734375"/>
    </g>
   </g>
   <g id="legend_1">
    <g id="patch_7">
     <path d="M 281.596563 94.34075 
L 407.72 94.34075 
Q 409.72 94.34075 409.72 92.34075 
L 409.72 48.472 
Q 409.72 46.472 407.72 46.472 
L 281.596563 46.472 
Q 279.596563 46.472 279.596563 48.472 
L 279.596563 92.34075 
Q 279.596563 94.34075 281.596563 94.34075 
z
" style="fill: #ffffff; opacity: 0.8; stroke: #cccccc; stroke-linejoin: miter"/>
    </g>
    <g id="line2d_35">
     <path d="M 283.596563 54.570438 
L 293.596563 54.570438 
L 303.596563 54.570438 
" style="fill: none; stroke: #1f77b4; stroke-opacity: 0.4; stroke-linecap: square"/>
    </g>
    <g id="text_8">
     <!-- SchNet eval_loss -->
     <g transform="translate(311.596563 58.070438) scale(0.1 -0.1)">
      <defs>
       <path id="DejaVuSans-53" d="M 3425 4513 
L 3425 3897 
Q 3066 4069 2747 4153 
Q 2428 4238 2131 4238 
Q 1616 4238 1336 4038 
Q 1056 3838 1056 3469 
Q 1056 3159 1242 3001 
Q 1428 2844 1947 2747 
L 2328 2669 
Q 3034 2534 3370 2195 
Q 3706 1856 3706 1288 
Q 3706 609 3251 259 
Q 2797 -91 1919 -91 
Q 1588 -91 1214 -16 
Q 841 59 441 206 
L 441 856 
Q 825 641 1194 531 
Q 1563 422 1919 422 
Q 2459 422 2753 634 
Q 3047 847 3047 1241 
Q 3047 1584 2836 1778 
Q 2625 1972 2144 2069 
L 1759 2144 
Q 1053 2284 737 2584 
Q 422 2884 422 3419 
Q 422 4038 858 4394 
Q 1294 4750 2059 4750 
Q 2388 4750 2728 4690 
Q 3069 4631 3425 4513 
z
" transform="scale(0.015625)"/>
       <path id="DejaVuSans-63" d="M 3122 3366 
L 3122 2828 
Q 2878 2963 2633 3030 
Q 2388 3097 2138 3097 
Q 1578 3097 1268 2742 
Q 959 2388 959 1747 
Q 959 1106 1268 751 
Q 1578 397 2138 397 
Q 2388 397 2633 464 
Q 2878 531 3122 666 
L 3122 134 
Q 2881 22 2623 -34 
Q 2366 -91 2075 -91 
Q 1284 -91 818 406 
Q 353 903 353 1747 
Q 353 2603 823 3093 
Q 1294 3584 2113 3584 
Q 2378 3584 2631 3529 
Q 2884 3475 3122 3366 
z
" transform="scale(0.015625)"/>
       <path id="DejaVuSans-68" d="M 3513 2113 
L 3513 0 
L 2938 0 
L 2938 2094 
Q 2938 2591 2744 2837 
Q 2550 3084 2163 3084 
Q 1697 3084 1428 2787 
Q 1159 2491 1159 1978 
L 1159 0 
L 581 0 
L 581 4863 
L 1159 4863 
L 1159 2956 
Q 1366 3272 1645 3428 
Q 1925 3584 2291 3584 
Q 2894 3584 3203 3211 
Q 3513 2838 3513 2113 
z
" transform="scale(0.015625)"/>
       <path id="DejaVuSans-4e" d="M 628 4666 
L 1478 4666 
L 3547 763 
L 3547 4666 
L 4159 4666 
L 4159 0 
L 3309 0 
L 1241 3903 
L 1241 0 
L 628 0 
L 628 4666 
z
" transform="scale(0.015625)"/>
       <path id="DejaVuSans-20" transform="scale(0.015625)"/>
       <path id="DejaVuSans-76" d="M 191 3500 
L 800 3500 
L 1894 563 
L 2988 3500 
L 3597 3500 
L 2284 0 
L 1503 0 
L 191 3500 
z
" transform="scale(0.015625)"/>
       <path id="DejaVuSans-61" d="M 2194 1759 
Q 1497 1759 1228 1600 
Q 959 1441 959 1056 
Q 959 750 1161 570 
Q 1363 391 1709 391 
Q 2188 391 2477 730 
Q 2766 1069 2766 1631 
L 2766 1759 
L 2194 1759 
z
M 3341 1997 
L 3341 0 
L 2766 0 
L 2766 531 
Q 2569 213 2275 61 
Q 1981 -91 1556 -91 
Q 1019 -91 701 211 
Q 384 513 384 1019 
Q 384 1609 779 1909 
Q 1175 2209 1959 2209 
L 2766 2209 
L 2766 2266 
Q 2766 2663 2505 2880 
Q 2244 3097 1772 3097 
Q 1472 3097 1187 3025 
Q 903 2953 641 2809 
L 641 3341 
Q 956 3463 1253 3523 
Q 1550 3584 1831 3584 
Q 2591 3584 2966 3190 
Q 3341 2797 3341 1997 
z
" transform="scale(0.015625)"/>
       <path id="DejaVuSans-5f" d="M 3263 -1063 
L 3263 -1509 
L -63 -1509 
L -63 -1063 
L 3263 -1063 
z
" transform="scale(0.015625)"/>
      </defs>
      <use xlink:href="#DejaVuSans-53"/>
      <use xlink:href="#DejaVuSans-63" x="63.476562"/>
      <use xlink:href="#DejaVuSans-68" x="118.457031"/>
      <use xlink:href="#DejaVuSans-4e" x="181.835938"/>
      <use xlink:href="#DejaVuSans-65" x="256.640625"/>
      <use xlink:href="#DejaVuSans-74" x="318.164062"/>
      <use xlink:href="#DejaVuSans-20" x="357.373047"/>
      <use xlink:href="#DejaVuSans-65" x="389.160156"/>
      <use xlink:href="#DejaVuSans-76" x="450.683594"/>
      <use xlink:href="#DejaVuSans-61" x="509.863281"/>
      <use xlink:href="#DejaVuSans-6c" x="571.142578"/>
      <use xlink:href="#DejaVuSans-5f" x="598.925781"/>
      <use xlink:href="#DejaVuSans-6c" x="648.925781"/>
      <use xlink:href="#DejaVuSans-6f" x="676.708984"/>
      <use xlink:href="#DejaVuSans-73" x="737.890625"/>
      <use xlink:href="#DejaVuSans-73" x="789.990234"/>
     </g>
    </g>
    <g id="line2d_36">
     <path d="M 283.596563 69.526688 
L 293.596563 69.526688 
L 303.596563 69.526688 
" style="fill: none; stroke: #ff7f0e; stroke-opacity: 0.4; stroke-linecap: square"/>
    </g>
    <g id="text_9">
     <!-- M220 eval_loss -->
     <g transform="translate(311.596563 73.026688) scale(0.1 -0.1)">
      <defs>
       <path id="DejaVuSans-4d" d="M 628 4666 
L 1569 4666 
L 2759 1491 
L 3956 4666 
L 4897 4666 
L 4897 0 
L 4281 0 
L 4281 4097 
L 3078 897 
L 2444 897 
L 1241 4097 
L 1241 0 
L 628 0 
L 628 4666 
z
" transform="scale(0.015625)"/>
      </defs>
      <use xlink:href="#DejaVuSans-4d"/>
      <use xlink:href="#DejaVuSans-32" x="86.279297"/>
      <use xlink:href="#DejaVuSans-32" x="149.902344"/>
      <use xlink:href="#DejaVuSans-30" x="213.525391"/>
      <use xlink:href="#DejaVuSans-20" x="277.148438"/>
      <use xlink:href="#DejaVuSans-65" x="308.935547"/>
      <use xlink:href="#DejaVuSans-76" x="370.458984"/>
      <use xlink:href="#DejaVuSans-61" x="429.638672"/>
      <use xlink:href="#DejaVuSans-6c" x="490.917969"/>
      <use xlink:href="#DejaVuSans-5f" x="518.701172"/>
      <use xlink:href="#DejaVuSans-6c" x="568.701172"/>
      <use xlink:href="#DejaVuSans-6f" x="596.484375"/>
      <use xlink:href="#DejaVuSans-73" x="657.666016"/>
      <use xlink:href="#DejaVuSans-73" x="709.765625"/>
     </g>
    </g>
    <g id="line2d_37">
     <path d="M 283.596563 84.482938 
L 293.596563 84.482938 
L 303.596563 84.482938 
" style="fill: none; stroke: #2ca02c; stroke-opacity: 0.4; stroke-linecap: square"/>
    </g>
    <g id="text_10">
     <!-- MoGIN14 eval_loss -->
     <g transform="translate(311.596563 87.982938) scale(0.1 -0.1)">
      <defs>
       <path id="DejaVuSans-47" d="M 3809 666 
L 3809 1919 
L 2778 1919 
L 2778 2438 
L 4434 2438 
L 4434 434 
Q 4069 175 3628 42 
Q 3188 -91 2688 -91 
Q 1594 -91 976 548 
Q 359 1188 359 2328 
Q 359 3472 976 4111 
Q 1594 4750 2688 4750 
Q 3144 4750 3555 4637 
Q 3966 4525 4313 4306 
L 4313 3634 
Q 3963 3931 3569 4081 
Q 3175 4231 2741 4231 
Q 1884 4231 1454 3753 
Q 1025 3275 1025 2328 
Q 1025 1384 1454 906 
Q 1884 428 2741 428 
Q 3075 428 3337 486 
Q 3600 544 3809 666 
z
" transform="scale(0.015625)"/>
       <path id="DejaVuSans-49" d="M 628 4666 
L 1259 4666 
L 1259 0 
L 628 0 
L 628 4666 
z
" transform="scale(0.015625)"/>
      </defs>
      <use xlink:href="#DejaVuSans-4d"/>
      <use xlink:href="#DejaVuSans-6f" x="86.279297"/>
      <use xlink:href="#DejaVuSans-47" x="147.460938"/>
      <use xlink:href="#DejaVuSans-49" x="224.951172"/>
      <use xlink:href="#DejaVuSans-4e" x="254.443359"/>
      <use xlink:href="#DejaVuSans-31" x="329.248047"/>
      <use xlink:href="#DejaVuSans-34" x="392.871094"/>
      <use xlink:href="#DejaVuSans-20" x="456.494141"/>
      <use xlink:href="#DejaVuSans-65" x="488.28125"/>
      <use xlink:href="#DejaVuSans-76" x="549.804688"/>
      <use xlink:href="#DejaVuSans-61" x="608.984375"/>
      <use xlink:href="#DejaVuSans-6c" x="670.263672"/>
      <use xlink:href="#DejaVuSans-5f" x="698.046875"/>
      <use xlink:href="#DejaVuSans-6c" x="748.046875"/>
      <use xlink:href="#DejaVuSans-6f" x="775.830078"/>
      <use xlink:href="#DejaVuSans-73" x="837.011719"/>
      <use xlink:href="#DejaVuSans-73" x="889.111328"/>
     </g>
    </g>
   </g>
  </g>
 </g>
 <defs>
  <clipPath id="pb00e7c4ee3">
   <rect x="57.6" y="41.472" width="357.12" height="266.112"/>
  </clipPath>
 </defs>
</svg>
