<?xml version="1.0" encoding="utf-8" standalone="no"?>
<!DOCTYPE svg PUBLIC "-//W3C//DTD SVG 1.1//EN"
  "http://www.w3.org/Graphics/SVG/1.1/DTD/svg11.dtd">
<svg xmlns:xlink="http://www.w3.org/1999/xlink" width="460.8pt" height="345.6pt" viewBox="0 0 460.8 345.6" xmlns="http://www.w3.org/2000/svg" version="1.1">
 <metadata>
  <rdf:RDF xmlns:dc="http://purl.org/dc/elements/1.1/" xmlns:cc="http://creativecommons.org/ns#" xmlns:rdf="http://www.w3.org/1999/02/22-rdf-syntax-ns#">
   <cc:Work>
    <dc:type rdf:resource="http://purl.org/dc/dcmitype/StillImage"/>
    <dc:date>2025-02-18T14:18:02.154851</dc:date>
    <dc:format>image/svg+xml</dc:format>
    <dc:creator>
     <cc:Agent>
      <dc:title>Matplotlib v3.8.4, https://matplotlib.org/</dc:title>
     </cc:Agent>
    </dc:creator>
   </cc:Work>
  </rdf:RDF>
 </metadata>
 <defs>
  <style type="text/css">*{stroke-linejoin: round; stroke-linecap: butt}</style>
 </defs>
 <g id="figure_1">
  <g id="patch_1">
   <path d="M 0 345.6 
L 460.8 345.6 
L 460.8 0 
L 0 0 
z
" style="fill: #ffffff"/>
  </g>
  <g id="axes_1">
   <g id="patch_2">
    <path d="M 57.6 307.584 
L 414.72 307.584 
L 414.72 41.472 
L 57.6 41.472 
z
" style="fill: #ffffff"/>
   </g>
   <g id="matplotlib.axis_1">
    <g id="xtick_1">
     <g id="line2d_1">
      <defs>
       <path id="m45da6d2aa0" d="M 0 0 
L 0 3.5 
" style="stroke: #000000; stroke-width: 0.8"/>
      </defs>
      <g>
       <use xlink:href="#m45da6d2aa0" x="144.569149" y="307.584" style="stroke: #000000; stroke-width: 0.8"/>
      </g>
     </g>
     <g id="text_1">
      <!-- $\mathdefault{10^{4}}$ -->
      <g transform="translate(135.769149 322.182437) scale(0.1 -0.1)">
       <defs>
        <path id="DejaVuSans-31" d="M 794 531 
L 1825 531 
L 1825 4091 
L 703 3866 
L 703 4441 
L 1819 4666 
L 2450 4666 
L 2450 531 
L 3481 531 
L 3481 0 
L 794 0 
L 794 531 
z
" transform="scale(0.015625)"/>
        <path id="DejaVuSans-30" d="M 2034 4250 
Q 1547 4250 1301 3770 
Q 1056 3291 1056 2328 
Q 1056 1369 1301 889 
Q 1547 409 2034 409 
Q 2525 409 2770 889 
Q 3016 1369 3016 2328 
Q 3016 3291 2770 3770 
Q 2525 4250 2034 4250 
z
M 2034 4750 
Q 2819 4750 3233 4129 
Q 3647 3509 3647 2328 
Q 3647 1150 3233 529 
Q 2819 -91 2034 -91 
Q 1250 -91 836 529 
Q 422 1150 422 2328 
Q 422 3509 836 4129 
Q 1250 4750 2034 4750 
z
" transform="scale(0.015625)"/>
        <path id="DejaVuSans-34" d="M 2419 4116 
L 825 1625 
L 2419 1625 
L 2419 4116 
z
M 2253 4666 
L 3047 4666 
L 3047 1625 
L 3713 1625 
L 3713 1100 
L 3047 1100 
L 3047 0 
L 2419 0 
L 2419 1100 
L 313 1100 
L 313 1709 
L 2253 4666 
z
" transform="scale(0.015625)"/>
       </defs>
       <use xlink:href="#DejaVuSans-31" transform="translate(0 0.684375)"/>
       <use xlink:href="#DejaVuSans-30" transform="translate(63.623047 0.684375)"/>
       <use xlink:href="#DejaVuSans-34" transform="translate(128.203125 38.965625) scale(0.7)"/>
      </g>
     </g>
    </g>
    <g id="xtick_2">
     <g id="line2d_2">
      <defs>
       <path id="m4302970825" d="M 0 0 
L 0 2 
" style="stroke: #000000; stroke-width: 0.6"/>
      </defs>
      <g>
       <use xlink:href="#m4302970825" x="57.6" y="307.584" style="stroke: #000000; stroke-width: 0.6"/>
      </g>
     </g>
     <g id="text_2">
      <!-- $\mathdefault{8\times10^{3}}$ -->
      <g transform="translate(39.5 320.582437) scale(0.1 -0.1)">
       <defs>
        <path id="DejaVuSans-38" d="M 2034 2216 
Q 1584 2216 1326 1975 
Q 1069 1734 1069 1313 
Q 1069 891 1326 650 
Q 1584 409 2034 409 
Q 2484 409 2743 651 
Q 3003 894 3003 1313 
Q 3003 1734 2745 1975 
Q 2488 2216 2034 2216 
z
M 1403 2484 
Q 997 2584 770 2862 
Q 544 3141 544 3541 
Q 544 4100 942 4425 
Q 1341 4750 2034 4750 
Q 2731 4750 3128 4425 
Q 3525 4100 3525 3541 
Q 3525 3141 3298 2862 
Q 3072 2584 2669 2484 
Q 3125 2378 3379 2068 
Q 3634 1759 3634 1313 
Q 3634 634 3220 271 
Q 2806 -91 2034 -91 
Q 1263 -91 848 271 
Q 434 634 434 1313 
Q 434 1759 690 2068 
Q 947 2378 1403 2484 
z
M 1172 3481 
Q 1172 3119 1398 2916 
Q 1625 2713 2034 2713 
Q 2441 2713 2670 2916 
Q 2900 3119 2900 3481 
Q 2900 3844 2670 4047 
Q 2441 4250 2034 4250 
Q 1625 4250 1398 4047 
Q 1172 3844 1172 3481 
z
" transform="scale(0.015625)"/>
        <path id="DejaVuSans-d7" d="M 4488 3438 
L 3059 2003 
L 4488 575 
L 4116 197 
L 2681 1631 
L 1247 197 
L 878 575 
L 2303 2003 
L 878 3438 
L 1247 3816 
L 2681 2381 
L 4116 3816 
L 4488 3438 
z
" transform="scale(0.015625)"/>
        <path id="DejaVuSans-33" d="M 2597 2516 
Q 3050 2419 3304 2112 
Q 3559 1806 3559 1356 
Q 3559 666 3084 287 
Q 2609 -91 1734 -91 
Q 1441 -91 1130 -33 
Q 819 25 488 141 
L 488 750 
Q 750 597 1062 519 
Q 1375 441 1716 441 
Q 2309 441 2620 675 
Q 2931 909 2931 1356 
Q 2931 1769 2642 2001 
Q 2353 2234 1838 2234 
L 1294 2234 
L 1294 2753 
L 1863 2753 
Q 2328 2753 2575 2939 
Q 2822 3125 2822 3475 
Q 2822 3834 2567 4026 
Q 2313 4219 1838 4219 
Q 1578 4219 1281 4162 
Q 984 4106 628 3988 
L 628 4550 
Q 988 4650 1302 4700 
Q 1616 4750 1894 4750 
Q 2613 4750 3031 4423 
Q 3450 4097 3450 3541 
Q 3450 3153 3228 2886 
Q 3006 2619 2597 2516 
z
" transform="scale(0.015625)"/>
       </defs>
       <use xlink:href="#DejaVuSans-38" transform="translate(0 0.765625)"/>
       <use xlink:href="#DejaVuSans-d7" transform="translate(83.105469 0.765625)"/>
       <use xlink:href="#DejaVuSans-31" transform="translate(186.376953 0.765625)"/>
       <use xlink:href="#DejaVuSans-30" transform="translate(250 0.765625)"/>
       <use xlink:href="#DejaVuSans-33" transform="translate(314.580078 39.046875) scale(0.7)"/>
      </g>
     </g>
    </g>
    <g id="xtick_3">
     <g id="line2d_3">
      <g>
       <use xlink:href="#m4302970825" x="103.505384" y="307.584" style="stroke: #000000; stroke-width: 0.6"/>
      </g>
     </g>
     <g id="text_3">
      <!-- $\mathdefault{9\times10^{3}}$ -->
      <g transform="translate(85.405384 320.582437) scale(0.1 -0.1)">
       <defs>
        <path id="DejaVuSans-39" d="M 703 97 
L 703 672 
Q 941 559 1184 500 
Q 1428 441 1663 441 
Q 2288 441 2617 861 
Q 2947 1281 2994 2138 
Q 2813 1869 2534 1725 
Q 2256 1581 1919 1581 
Q 1219 1581 811 2004 
Q 403 2428 403 3163 
Q 403 3881 828 4315 
Q 1253 4750 1959 4750 
Q 2769 4750 3195 4129 
Q 3622 3509 3622 2328 
Q 3622 1225 3098 567 
Q 2575 -91 1691 -91 
Q 1453 -91 1209 -44 
Q 966 3 703 97 
z
M 1959 2075 
Q 2384 2075 2632 2365 
Q 2881 2656 2881 3163 
Q 2881 3666 2632 3958 
Q 2384 4250 1959 4250 
Q 1534 4250 1286 3958 
Q 1038 3666 1038 3163 
Q 1038 2656 1286 2365 
Q 1534 2075 1959 2075 
z
" transform="scale(0.015625)"/>
       </defs>
       <use xlink:href="#DejaVuSans-39" transform="translate(0 0.765625)"/>
       <use xlink:href="#DejaVuSans-d7" transform="translate(83.105469 0.765625)"/>
       <use xlink:href="#DejaVuSans-31" transform="translate(186.376953 0.765625)"/>
       <use xlink:href="#DejaVuSans-30" transform="translate(250 0.765625)"/>
       <use xlink:href="#DejaVuSans-33" transform="translate(314.580078 39.046875) scale(0.7)"/>
      </g>
     </g>
    </g>
    <g id="xtick_4">
     <g id="line2d_4">
      <g>
       <use xlink:href="#m4302970825" x="414.72" y="307.584" style="stroke: #000000; stroke-width: 0.6"/>
      </g>
     </g>
     <g id="text_4">
      <!-- $\mathdefault{2\times10^{4}}$ -->
      <g transform="translate(396.62 320.582437) scale(0.1 -0.1)">
       <defs>
        <path id="DejaVuSans-32" d="M 1228 531 
L 3431 531 
L 3431 0 
L 469 0 
L 469 531 
Q 828 903 1448 1529 
Q 2069 2156 2228 2338 
Q 2531 2678 2651 2914 
Q 2772 3150 2772 3378 
Q 2772 3750 2511 3984 
Q 2250 4219 1831 4219 
Q 1534 4219 1204 4116 
Q 875 4013 500 3803 
L 500 4441 
Q 881 4594 1212 4672 
Q 1544 4750 1819 4750 
Q 2544 4750 2975 4387 
Q 3406 4025 3406 3419 
Q 3406 3131 3298 2873 
Q 3191 2616 2906 2266 
Q 2828 2175 2409 1742 
Q 1991 1309 1228 531 
z
" transform="scale(0.015625)"/>
       </defs>
       <use xlink:href="#DejaVuSans-32" transform="translate(0 0.684375)"/>
       <use xlink:href="#DejaVuSans-d7" transform="translate(83.105469 0.684375)"/>
       <use xlink:href="#DejaVuSans-31" transform="translate(186.376953 0.684375)"/>
       <use xlink:href="#DejaVuSans-30" transform="translate(250 0.684375)"/>
       <use xlink:href="#DejaVuSans-34" transform="translate(314.580078 38.965625) scale(0.7)"/>
      </g>
     </g>
    </g>
    <g id="text_5">
     <!-- iter# -->
     <g transform="translate(223.488906 335.860562) scale(0.1 -0.1)">
      <defs>
       <path id="DejaVuSans-69" d="M 603 3500 
L 1178 3500 
L 1178 0 
L 603 0 
L 603 3500 
z
M 603 4863 
L 1178 4863 
L 1178 4134 
L 603 4134 
L 603 4863 
z
" transform="scale(0.015625)"/>
       <path id="DejaVuSans-74" d="M 1172 4494 
L 1172 3500 
L 2356 3500 
L 2356 3053 
L 1172 3053 
L 1172 1153 
Q 1172 725 1289 603 
Q 1406 481 1766 481 
L 2356 481 
L 2356 0 
L 1766 0 
Q 1100 0 847 248 
Q 594 497 594 1153 
L 594 3053 
L 172 3053 
L 172 3500 
L 594 3500 
L 594 4494 
L 1172 4494 
z
" transform="scale(0.015625)"/>
       <path id="DejaVuSans-65" d="M 3597 1894 
L 3597 1613 
L 953 1613 
Q 991 1019 1311 708 
Q 1631 397 2203 397 
Q 2534 397 2845 478 
Q 3156 559 3463 722 
L 3463 178 
Q 3153 47 2828 -22 
Q 2503 -91 2169 -91 
Q 1331 -91 842 396 
Q 353 884 353 1716 
Q 353 2575 817 3079 
Q 1281 3584 2069 3584 
Q 2775 3584 3186 3129 
Q 3597 2675 3597 1894 
z
M 3022 2063 
Q 3016 2534 2758 2815 
Q 2500 3097 2075 3097 
Q 1594 3097 1305 2825 
Q 1016 2553 972 2059 
L 3022 2063 
z
" transform="scale(0.015625)"/>
       <path id="DejaVuSans-72" d="M 2631 2963 
Q 2534 3019 2420 3045 
Q 2306 3072 2169 3072 
Q 1681 3072 1420 2755 
Q 1159 2438 1159 1844 
L 1159 0 
L 581 0 
L 581 3500 
L 1159 3500 
L 1159 2956 
Q 1341 3275 1631 3429 
Q 1922 3584 2338 3584 
Q 2397 3584 2469 3576 
Q 2541 3569 2628 3553 
L 2631 2963 
z
" transform="scale(0.015625)"/>
       <path id="DejaVuSans-23" d="M 3272 2816 
L 2363 2816 
L 2100 1772 
L 3016 1772 
L 3272 2816 
z
M 2803 4594 
L 2478 3297 
L 3391 3297 
L 3719 4594 
L 4219 4594 
L 3897 3297 
L 4872 3297 
L 4872 2816 
L 3775 2816 
L 3519 1772 
L 4513 1772 
L 4513 1294 
L 3397 1294 
L 3072 0 
L 2572 0 
L 2894 1294 
L 1978 1294 
L 1656 0 
L 1153 0 
L 1478 1294 
L 494 1294 
L 494 1772 
L 1594 1772 
L 1856 2816 
L 850 2816 
L 850 3297 
L 1978 3297 
L 2297 4594 
L 2803 4594 
z
" transform="scale(0.015625)"/>
      </defs>
      <use xlink:href="#DejaVuSans-69"/>
      <use xlink:href="#DejaVuSans-74" x="27.783203"/>
      <use xlink:href="#DejaVuSans-65" x="66.992188"/>
      <use xlink:href="#DejaVuSans-72" x="128.515625"/>
      <use xlink:href="#DejaVuSans-23" x="169.628906"/>
     </g>
    </g>
   </g>
   <g id="matplotlib.axis_2">
    <g id="ytick_1">
     <g id="line2d_5">
      <defs>
       <path id="mda3f4888a3" d="M 0 0 
L -3.5 0 
" style="stroke: #000000; stroke-width: 0.8"/>
      </defs>
      <g>
       <use xlink:href="#mda3f4888a3" x="57.6" y="282.09531" style="stroke: #000000; stroke-width: 0.8"/>
      </g>
     </g>
     <g id="text_6">
      <!-- $\mathdefault{10^{-2}}$ -->
      <g transform="translate(27.1 285.894529) scale(0.1 -0.1)">
       <defs>
        <path id="DejaVuSans-2212" d="M 678 2272 
L 4684 2272 
L 4684 1741 
L 678 1741 
L 678 2272 
z
" transform="scale(0.015625)"/>
       </defs>
       <use xlink:href="#DejaVuSans-31" transform="translate(0 0.765625)"/>
       <use xlink:href="#DejaVuSans-30" transform="translate(63.623047 0.765625)"/>
       <use xlink:href="#DejaVuSans-2212" transform="translate(128.203125 39.046875) scale(0.7)"/>
       <use xlink:href="#DejaVuSans-32" transform="translate(186.855469 39.046875) scale(0.7)"/>
      </g>
     </g>
    </g>
    <g id="ytick_2">
     <g id="line2d_6">
      <g>
       <use xlink:href="#mda3f4888a3" x="57.6" y="210.222266" style="stroke: #000000; stroke-width: 0.8"/>
      </g>
     </g>
     <g id="text_7">
      <!-- $\mathdefault{10^{-1}}$ -->
      <g transform="translate(27.1 214.021484) scale(0.1 -0.1)">
       <use xlink:href="#DejaVuSans-31" transform="translate(0 0.684375)"/>
       <use xlink:href="#DejaVuSans-30" transform="translate(63.623047 0.684375)"/>
       <use xlink:href="#DejaVuSans-2212" transform="translate(128.203125 38.965625) scale(0.7)"/>
       <use xlink:href="#DejaVuSans-31" transform="translate(186.855469 38.965625) scale(0.7)"/>
      </g>
     </g>
    </g>
    <g id="ytick_3">
     <g id="line2d_7">
      <g>
       <use xlink:href="#mda3f4888a3" x="57.6" y="138.349221" style="stroke: #000000; stroke-width: 0.8"/>
      </g>
     </g>
     <g id="text_8">
      <!-- $\mathdefault{10^{0}}$ -->
      <g transform="translate(33 142.14844) scale(0.1 -0.1)">
       <use xlink:href="#DejaVuSans-31" transform="translate(0 0.765625)"/>
       <use xlink:href="#DejaVuSans-30" transform="translate(63.623047 0.765625)"/>
       <use xlink:href="#DejaVuSans-30" transform="translate(128.203125 39.046875) scale(0.7)"/>
      </g>
     </g>
    </g>
    <g id="ytick_4">
     <g id="line2d_8">
      <g>
       <use xlink:href="#mda3f4888a3" x="57.6" y="66.476176" style="stroke: #000000; stroke-width: 0.8"/>
      </g>
     </g>
     <g id="text_9">
      <!-- $\mathdefault{10^{1}}$ -->
      <g transform="translate(33 70.275395) scale(0.1 -0.1)">
       <use xlink:href="#DejaVuSans-31" transform="translate(0 0.684375)"/>
       <use xlink:href="#DejaVuSans-30" transform="translate(63.623047 0.684375)"/>
       <use xlink:href="#DejaVuSans-31" transform="translate(128.203125 38.965625) scale(0.7)"/>
      </g>
     </g>
    </g>
    <g id="ytick_5">
     <g id="line2d_9">
      <defs>
       <path id="m27b20797be" d="M 0 0 
L -2 0 
" style="stroke: #000000; stroke-width: 0.6"/>
      </defs>
      <g>
       <use xlink:href="#m27b20797be" x="57.6" y="303.731253" style="stroke: #000000; stroke-width: 0.6"/>
      </g>
     </g>
    </g>
    <g id="ytick_6">
     <g id="line2d_10">
      <g>
       <use xlink:href="#m27b20797be" x="57.6" y="298.040255" style="stroke: #000000; stroke-width: 0.6"/>
      </g>
     </g>
    </g>
    <g id="ytick_7">
     <g id="line2d_11">
      <g>
       <use xlink:href="#m27b20797be" x="57.6" y="293.228586" style="stroke: #000000; stroke-width: 0.6"/>
      </g>
     </g>
    </g>
    <g id="ytick_8">
     <g id="line2d_12">
      <g>
       <use xlink:href="#m27b20797be" x="57.6" y="289.060528" style="stroke: #000000; stroke-width: 0.6"/>
      </g>
     </g>
    </g>
    <g id="ytick_9">
     <g id="line2d_13">
      <g>
       <use xlink:href="#m27b20797be" x="57.6" y="285.384041" style="stroke: #000000; stroke-width: 0.6"/>
      </g>
     </g>
    </g>
    <g id="ytick_10">
     <g id="line2d_14">
      <g>
       <use xlink:href="#m27b20797be" x="57.6" y="260.459368" style="stroke: #000000; stroke-width: 0.6"/>
      </g>
     </g>
    </g>
    <g id="ytick_11">
     <g id="line2d_15">
      <g>
       <use xlink:href="#m27b20797be" x="57.6" y="247.803153" style="stroke: #000000; stroke-width: 0.6"/>
      </g>
     </g>
    </g>
    <g id="ytick_12">
     <g id="line2d_16">
      <g>
       <use xlink:href="#m27b20797be" x="57.6" y="238.823426" style="stroke: #000000; stroke-width: 0.6"/>
      </g>
     </g>
    </g>
    <g id="ytick_13">
     <g id="line2d_17">
      <g>
       <use xlink:href="#m27b20797be" x="57.6" y="231.858208" style="stroke: #000000; stroke-width: 0.6"/>
      </g>
     </g>
    </g>
    <g id="ytick_14">
     <g id="line2d_18">
      <g>
       <use xlink:href="#m27b20797be" x="57.6" y="226.167211" style="stroke: #000000; stroke-width: 0.6"/>
      </g>
     </g>
    </g>
    <g id="ytick_15">
     <g id="line2d_19">
      <g>
       <use xlink:href="#m27b20797be" x="57.6" y="221.355541" style="stroke: #000000; stroke-width: 0.6"/>
      </g>
     </g>
    </g>
    <g id="ytick_16">
     <g id="line2d_20">
      <g>
       <use xlink:href="#m27b20797be" x="57.6" y="217.187483" style="stroke: #000000; stroke-width: 0.6"/>
      </g>
     </g>
    </g>
    <g id="ytick_17">
     <g id="line2d_21">
      <g>
       <use xlink:href="#m27b20797be" x="57.6" y="213.510996" style="stroke: #000000; stroke-width: 0.6"/>
      </g>
     </g>
    </g>
    <g id="ytick_18">
     <g id="line2d_22">
      <g>
       <use xlink:href="#m27b20797be" x="57.6" y="188.586323" style="stroke: #000000; stroke-width: 0.6"/>
      </g>
     </g>
    </g>
    <g id="ytick_19">
     <g id="line2d_23">
      <g>
       <use xlink:href="#m27b20797be" x="57.6" y="175.930108" style="stroke: #000000; stroke-width: 0.6"/>
      </g>
     </g>
    </g>
    <g id="ytick_20">
     <g id="line2d_24">
      <g>
       <use xlink:href="#m27b20797be" x="57.6" y="166.950381" style="stroke: #000000; stroke-width: 0.6"/>
      </g>
     </g>
    </g>
    <g id="ytick_21">
     <g id="line2d_25">
      <g>
       <use xlink:href="#m27b20797be" x="57.6" y="159.985163" style="stroke: #000000; stroke-width: 0.6"/>
      </g>
     </g>
    </g>
    <g id="ytick_22">
     <g id="line2d_26">
      <g>
       <use xlink:href="#m27b20797be" x="57.6" y="154.294166" style="stroke: #000000; stroke-width: 0.6"/>
      </g>
     </g>
    </g>
    <g id="ytick_23">
     <g id="line2d_27">
      <g>
       <use xlink:href="#m27b20797be" x="57.6" y="149.482496" style="stroke: #000000; stroke-width: 0.6"/>
      </g>
     </g>
    </g>
    <g id="ytick_24">
     <g id="line2d_28">
      <g>
       <use xlink:href="#m27b20797be" x="57.6" y="145.314439" style="stroke: #000000; stroke-width: 0.6"/>
      </g>
     </g>
    </g>
    <g id="ytick_25">
     <g id="line2d_29">
      <g>
       <use xlink:href="#m27b20797be" x="57.6" y="141.637951" style="stroke: #000000; stroke-width: 0.6"/>
      </g>
     </g>
    </g>
    <g id="ytick_26">
     <g id="line2d_30">
      <g>
       <use xlink:href="#m27b20797be" x="57.6" y="116.713279" style="stroke: #000000; stroke-width: 0.6"/>
      </g>
     </g>
    </g>
    <g id="ytick_27">
     <g id="line2d_31">
      <g>
       <use xlink:href="#m27b20797be" x="57.6" y="104.057064" style="stroke: #000000; stroke-width: 0.6"/>
      </g>
     </g>
    </g>
    <g id="ytick_28">
     <g id="line2d_32">
      <g>
       <use xlink:href="#m27b20797be" x="57.6" y="95.077336" style="stroke: #000000; stroke-width: 0.6"/>
      </g>
     </g>
    </g>
    <g id="ytick_29">
     <g id="line2d_33">
      <g>
       <use xlink:href="#m27b20797be" x="57.6" y="88.112118" style="stroke: #000000; stroke-width: 0.6"/>
      </g>
     </g>
    </g>
    <g id="ytick_30">
     <g id="line2d_34">
      <g>
       <use xlink:href="#m27b20797be" x="57.6" y="82.421121" style="stroke: #000000; stroke-width: 0.6"/>
      </g>
     </g>
    </g>
    <g id="ytick_31">
     <g id="line2d_35">
      <g>
       <use xlink:href="#m27b20797be" x="57.6" y="77.609452" style="stroke: #000000; stroke-width: 0.6"/>
      </g>
     </g>
    </g>
    <g id="ytick_32">
     <g id="line2d_36">
      <g>
       <use xlink:href="#m27b20797be" x="57.6" y="73.441394" style="stroke: #000000; stroke-width: 0.6"/>
      </g>
     </g>
    </g>
    <g id="ytick_33">
     <g id="line2d_37">
      <g>
       <use xlink:href="#m27b20797be" x="57.6" y="69.764906" style="stroke: #000000; stroke-width: 0.6"/>
      </g>
     </g>
    </g>
    <g id="ytick_34">
     <g id="line2d_38">
      <g>
       <use xlink:href="#m27b20797be" x="57.6" y="44.840234" style="stroke: #000000; stroke-width: 0.6"/>
      </g>
     </g>
    </g>
    <g id="text_10">
     <!-- loss -->
     <g transform="translate(21.020313 184.185812) rotate(-90) scale(0.1 -0.1)">
      <defs>
       <path id="DejaVuSans-6c" d="M 603 4863 
L 1178 4863 
L 1178 0 
L 603 0 
L 603 4863 
z
" transform="scale(0.015625)"/>
       <path id="DejaVuSans-6f" d="M 1959 3097 
Q 1497 3097 1228 2736 
Q 959 2375 959 1747 
Q 959 1119 1226 758 
Q 1494 397 1959 397 
Q 2419 397 2687 759 
Q 2956 1122 2956 1747 
Q 2956 2369 2687 2733 
Q 2419 3097 1959 3097 
z
M 1959 3584 
Q 2709 3584 3137 3096 
Q 3566 2609 3566 1747 
Q 3566 888 3137 398 
Q 2709 -91 1959 -91 
Q 1206 -91 779 398 
Q 353 888 353 1747 
Q 353 2609 779 3096 
Q 1206 3584 1959 3584 
z
" transform="scale(0.015625)"/>
       <path id="DejaVuSans-73" d="M 2834 3397 
L 2834 2853 
Q 2591 2978 2328 3040 
Q 2066 3103 1784 3103 
Q 1356 3103 1142 2972 
Q 928 2841 928 2578 
Q 928 2378 1081 2264 
Q 1234 2150 1697 2047 
L 1894 2003 
Q 2506 1872 2764 1633 
Q 3022 1394 3022 966 
Q 3022 478 2636 193 
Q 2250 -91 1575 -91 
Q 1294 -91 989 -36 
Q 684 19 347 128 
L 347 722 
Q 666 556 975 473 
Q 1284 391 1588 391 
Q 1994 391 2212 530 
Q 2431 669 2431 922 
Q 2431 1156 2273 1281 
Q 2116 1406 1581 1522 
L 1381 1569 
Q 847 1681 609 1914 
Q 372 2147 372 2553 
Q 372 3047 722 3315 
Q 1072 3584 1716 3584 
Q 2034 3584 2315 3537 
Q 2597 3491 2834 3397 
z
" transform="scale(0.015625)"/>
      </defs>
      <use xlink:href="#DejaVuSans-6c"/>
      <use xlink:href="#DejaVuSans-6f" x="27.783203"/>
      <use xlink:href="#DejaVuSans-73" x="88.964844"/>
      <use xlink:href="#DejaVuSans-73" x="141.064453"/>
     </g>
    </g>
   </g>
   <g id="line2d_39">
    <path d="M -1 257.694117 
L -0.051174 259.263791 
L 3.547192 253.023453 
L 7.11264 262.583917 
L 10.645766 258.842929 
L 14.147151 252.482413 
L 17.61736 260.334813 
L 21.056944 264.120138 
L 24.466437 261.474245 
L 27.846364 252.648372 
L 31.19723 266.113331 
L 34.519533 262.034671 
L 37.813755 262.199855 
L 41.080366 258.607571 
L 44.319827 257.30366 
L 47.532583 255.445209 
L 50.719072 254.942069 
L 53.87972 263.844523 
L 57.014943 242.490763 
L 60.125147 250.368933 
L 63.210727 258.853644 
L 66.27207 240.674934 
L 69.309555 260.545754 
L 70.112423 224.051452 
L 73.12024 215.656569 
L 76.105022 246.014158 
L 79.067119 244.607845 
L 82.006873 250.493381 
L 87.820685 259.437395 
L 90.69539 259.628488 
L 93.549046 260.342933 
L 96.38196 259.588695 
L 99.194432 249.966154 
L 101.986753 262.883723 
L 104.759211 240.545086 
L 107.512086 262.019889 
L 110.245653 256.603326 
L 112.960181 265.521137 
L 115.655934 266.728185 
L 118.333169 267.047697 
L 123.633091 257.693467 
L 126.256268 266.885551 
L 128.861908 255.756673 
L 131.450244 256.536393 
L 134.021503 248.959621 
L 136.575911 272.474819 
L 139.113685 269.71167 
L 141.635042 265.697832 
L 144.140193 268.849131 
L 146.629344 268.473789 
L 149.102699 263.204598 
L 151.560456 265.792027 
L 154.002812 253.996228 
L 156.429958 265.208375 
L 157.072136 265.175662 
L 159.480302 263.115873 
L 161.873679 257.314566 
L 164.252448 266.269666 
L 166.616787 273.50304 
L 168.96687 277.680532 
L 171.302866 278.265819 
L 173.624945 257.189004 
L 175.933272 242.514489 
L 178.228007 257.664986 
L 180.50931 236.644391 
L 182.777338 272.747179 
L 185.032244 276.414513 
L 187.274178 275.883282 
L 189.503291 267.70284 
L 191.719726 271.77673 
L 193.923629 229.379836 
L 196.115138 255.539619 
L 198.294394 270.54052 
L 200.461533 271.488226 
L 202.616688 235.413243 
L 204.759991 252.910213 
L 206.891572 261.515517 
L 209.011558 264.012666 
L 211.120075 245.073556 
L 213.217247 258.202878 
L 215.303194 248.320914 
L 217.378037 260.692591 
L 219.441892 245.027942 
L 221.494876 243.283096 
L 223.537103 243.755947 
L 225.568684 265.251805 
L 227.589731 277.205319 
L 228.124814 265.469292 
L 230.132683 256.362229 
L 232.130261 263.211706 
L 234.117652 255.125944 
L 236.094961 233.1989 
L 238.062289 206.969745 
L 240.019737 227.402776 
L 241.967402 272.984752 
L 243.905383 261.255725 
L 245.833775 260.54813 
L 247.752672 271.307718 
L 249.662168 269.814858 
L 251.562355 265.289243 
L 253.453322 227.025439 
L 255.335159 254.296743 
L 257.207953 212.648967 
L 259.071791 221.736398 
L 260.926759 244.529697 
L 262.772939 231.755982 
L 264.610416 254.069156 
L 266.43927 198.727374 
L 268.259583 262.08894 
L 270.071433 270.375025 
L 271.8749 244.151836 
L 273.670059 273.313559 
L 275.456988 247.131968 
L 277.235762 279.523164 
L 279.006454 242.467673 
L 280.769138 279.14999 
L 282.523886 274.213144 
L 284.270769 254.57848 
L 286.009857 274.205437 
L 287.741219 207.907603 
L 288.199823 229.210518 
L 289.921505 257.785492 
L 291.635616 262.913934 
L 293.342221 265.925989 
L 295.041386 269.586199 
L 296.733175 272.027094 
L 298.417652 273.596412 
L 300.09488 275.85787 
L 301.764922 277.893931 
L 303.427837 279.695293 
L 306.732534 282.495773 
L 308.374433 283.731269 
L 310.009445 284.669674 
L 311.637626 285.922662 
L 313.259033 286.446202 
L 314.873724 287.67483 
L 319.678041 289.843504 
L 321.266409 290.104183 
L 322.84833 291.460469 
L 324.423856 291.572052 
L 325.993039 292.576182 
L 327.55593 292.658055 
L 329.112578 293.477832 
L 330.663034 293.978594 
L 332.207346 294.338794 
L 335.277733 294.600381 
L 336.803904 295.213442 
L 338.324122 295.213425 
L 339.838433 295.488 
L 340.239684 283.350137 
L 341.746585 192.404778 
L 343.247682 216.101347 
L 344.74302 213.949627 
L 346.232643 218.964973 
L 347.716593 229.751593 
L 349.194915 247.922993 
L 350.667651 231.568358 
L 352.134843 251.101671 
L 353.596532 222.484648 
L 355.05276 255.315553 
L 356.503568 258.676487 
L 357.948994 258.904131 
L 359.38908 243.720514 
L 360.823864 249.684949 
L 362.253386 248.787268 
L 363.677684 255.797702 
L 365.096796 230.429964 
L 366.510759 265.10968 
L 367.919611 253.446875 
L 369.323389 263.750367 
L 370.722129 253.565759 
L 372.115866 251.38129 
L 373.504638 248.353977 
L 374.888478 260.851586 
L 376.267423 242.324322 
L 377.641505 220.80568 
L 379.010761 221.214356 
L 380.375223 219.453607 
L 381.734924 225.178794 
L 383.089898 244.734373 
L 384.440178 257.460925 
L 385.785797 244.321518 
L 386.142447 233.490741 
L 387.482211 273.220263 
L 388.817385 274.388619 
L 390.148001 275.248918 
L 391.474089 275.935248 
L 392.795681 276.256048 
L 394.112806 276.820185 
L 395.425496 277.055131 
L 396.733779 277.477368 
L 398.037685 277.712437 
L 399.337243 278.132423 
L 400.632482 278.385911 
L 401.923432 278.091552 
L 403.210119 278.563303 
L 404.492572 278.662374 
L 405.77082 278.884738 
L 407.044889 278.615503 
L 408.314806 279.161147 
L 410.842295 279.274476 
L 412.099919 279.682062 
L 414.603059 279.837465 
L 415.848626 279.071798 
L 417.090224 279.86214 
L 418.32788 279.949701 
L 419.561619 280.194508 
L 422.01744 279.983609 
L 423.239573 280.509468 
L 424.457885 280.58812 
L 425.6724 280.498841 
L 426.883143 280.171824 
L 426.883143 280.171824 
" clip-path="url(#p7dd5ffe089)" style="fill: none; stroke: #1f77b4; stroke-opacity: 0.9; stroke-linecap: square"/>
   </g>
   <g id="line2d_40">
    <path d="M -1 248.36694 
L -0.051174 248.337048 
L 3.547192 248.089211 
L 7.11264 245.269938 
L 10.645766 245.022634 
L 14.147151 247.560613 
L 17.61736 248.688579 
L 21.056944 248.287534 
L 24.466437 249.090721 
L 31.19723 247.445312 
L 34.519533 242.282236 
L 37.813755 249.743082 
L 41.080366 245.288821 
L 44.319827 248.7829 
L 47.532583 250.00148 
L 50.719072 245.384233 
L 53.87972 247.180841 
L 57.014943 247.622551 
L 60.125147 248.769588 
L 63.210727 249.416462 
L 66.27207 250.51483 
L 69.309555 250.381187 
L 70.112423 249.395234 
L 73.12024 247.181949 
L 76.105022 248.35081 
L 79.067119 250.451059 
L 82.006873 247.641109 
L 84.92462 250.024106 
L 87.820685 249.242086 
L 90.69539 251.009541 
L 93.549046 249.029314 
L 96.38196 248.453541 
L 99.194432 251.833963 
L 101.986753 251.844168 
L 104.759211 252.369011 
L 107.512086 251.824897 
L 110.245653 247.446316 
L 112.960181 250.724908 
L 115.655934 249.778498 
L 118.333169 248.550439 
L 120.992139 252.238192 
L 123.633091 247.548146 
L 126.256268 252.427872 
L 128.861908 237.296353 
L 131.450244 250.950773 
L 134.021503 250.913451 
L 136.575911 247.210855 
L 139.113685 248.669381 
L 141.635042 252.582543 
L 144.140193 252.012085 
L 146.629344 252.076461 
L 149.102699 252.288697 
L 151.560456 253.60191 
L 154.002812 253.206462 
L 156.429958 253.490338 
L 157.072136 254.113952 
L 159.480302 248.691263 
L 161.873679 239.193682 
L 164.252448 242.313162 
L 166.616787 253.079198 
L 168.96687 252.010094 
L 171.302866 253.594585 
L 173.624945 247.47175 
L 175.933272 253.200859 
L 178.228007 254.541417 
L 180.50931 245.158837 
L 182.777338 254.538993 
L 185.032244 255.151157 
L 187.274178 236.626547 
L 189.503291 253.114534 
L 191.719726 245.092619 
L 193.923629 241.604978 
L 198.294394 253.042184 
L 200.461533 251.303587 
L 202.616688 251.448177 
L 204.759991 248.426321 
L 206.891572 253.898564 
L 209.011558 247.020949 
L 211.120075 247.689935 
L 213.217247 256.319876 
L 215.303194 254.627687 
L 217.378037 249.002785 
L 219.441892 240.186745 
L 221.494876 245.684341 
L 223.537103 255.252208 
L 225.568684 256.099666 
L 227.589731 247.701799 
L 228.124814 254.754057 
L 230.132683 253.909998 
L 232.130261 255.235642 
L 234.117652 254.07007 
L 238.062289 257.987476 
L 240.019737 254.808737 
L 241.967402 256.270518 
L 243.905383 255.05706 
L 247.752672 256.626272 
L 249.662168 256.23134 
L 251.562355 252.367557 
L 253.453322 252.571945 
L 255.335159 256.994249 
L 259.071791 253.92375 
L 260.926759 256.136312 
L 262.772939 253.016039 
L 264.610416 251.951711 
L 266.43927 256.117345 
L 268.259583 250.828386 
L 270.071433 253.78395 
L 271.8749 252.360088 
L 273.670059 256.745395 
L 275.456988 251.169141 
L 277.235762 247.167363 
L 279.006454 240.541283 
L 280.769138 257.534304 
L 282.523886 251.933867 
L 284.270769 248.686466 
L 286.009857 257.654568 
L 287.741219 259.108334 
L 288.199823 256.637366 
L 289.921505 256.91033 
L 291.635616 253.27549 
L 293.342221 255.827236 
L 295.041386 257.74315 
L 296.733175 250.902071 
L 298.417652 232.929399 
L 300.09488 250.921164 
L 301.764922 243.821567 
L 303.427837 254.622353 
L 305.083688 243.888036 
L 306.732534 253.088962 
L 308.374433 257.593093 
L 310.009445 228.338319 
L 311.637626 255.034522 
L 313.259033 244.497319 
L 314.873724 253.252356 
L 316.481752 256.314892 
L 318.083173 254.172044 
L 319.678041 257.979981 
L 321.266409 255.678247 
L 322.84833 250.461187 
L 324.423856 257.86692 
L 325.993039 258.769431 
L 327.55593 259.975598 
L 329.112578 254.402497 
L 330.663034 256.286348 
L 332.207346 252.515566 
L 333.745563 256.288632 
L 335.277733 258.008037 
L 336.803904 258.14906 
L 338.324122 252.265905 
L 339.838433 255.55591 
L 340.239684 259.533096 
L 341.746585 257.092287 
L 343.247682 257.19756 
L 344.74302 260.237954 
L 346.232643 257.560268 
L 347.716593 259.328821 
L 349.194915 245.447537 
L 350.667651 261.496344 
L 352.134843 251.338049 
L 353.596532 256.566207 
L 355.05276 255.35199 
L 356.503568 259.032862 
L 357.948994 256.111623 
L 359.38908 255.715288 
L 360.823864 260.915476 
L 362.253386 249.273977 
L 363.677684 245.769425 
L 365.096796 259.629901 
L 366.510759 260.582159 
L 367.919611 234.058274 
L 369.323389 257.075378 
L 370.722129 254.646475 
L 372.115866 261.349233 
L 373.504638 258.441139 
L 374.888478 256.795662 
L 376.267423 259.960872 
L 377.641505 257.103269 
L 379.010761 228.448159 
L 380.375223 245.85496 
L 381.734924 242.688148 
L 383.089898 259.131095 
L 384.440178 258.426138 
L 385.785797 252.36472 
L 386.142447 233.37725 
L 387.482211 255.265903 
L 388.817385 254.934676 
L 390.148001 248.828044 
L 391.474089 251.234301 
L 392.795681 261.233605 
L 394.112806 259.583058 
L 395.425496 257.742705 
L 396.733779 256.616632 
L 398.037685 249.34655 
L 399.337243 255.071608 
L 400.632482 231.369355 
L 401.923432 259.707394 
L 403.210119 255.235201 
L 404.492572 246.376558 
L 405.77082 259.819753 
L 407.044889 260.371734 
L 408.314806 259.538453 
L 409.5806 257.576443 
L 410.842295 259.458387 
L 412.099919 257.429017 
L 413.353499 245.770562 
L 414.603059 250.627731 
L 415.848626 257.629027 
L 417.090224 249.819888 
L 418.32788 258.467798 
L 419.561619 257.820751 
L 420.791464 261.739698 
L 424.457885 254.963611 
L 425.6724 257.257728 
L 426.883143 257.211015 
L 426.883143 257.211015 
" clip-path="url(#p7dd5ffe089)" style="fill: none; stroke: #ff7f0e; stroke-opacity: 0.9; stroke-linecap: square"/>
   </g>
   <g id="line2d_41">
    <path d="M -1 251.505822 
L -0.051174 250.275098 
L 3.547192 250.917841 
L 7.11264 256.223844 
L 10.645766 246.30544 
L 14.147151 254.876199 
L 17.61736 252.756158 
L 21.056944 256.554923 
L 24.466437 255.852146 
L 31.19723 257.387384 
L 34.519533 255.787814 
L 37.813755 251.048666 
L 41.080366 255.0687 
L 44.319827 251.145398 
L 47.532583 255.468222 
L 50.719072 251.1119 
L 53.87972 248.251788 
L 57.014943 252.519868 
L 60.125147 255.961129 
L 63.210727 256.713967 
L 66.27207 258.218902 
L 69.309555 255.64123 
L 70.112423 256.818984 
L 73.12024 244.349884 
L 76.105022 257.872343 
L 79.067119 254.467959 
L 82.006873 252.619212 
L 84.92462 255.942368 
L 87.820685 253.497487 
L 90.69539 258.325819 
L 93.549046 246.805794 
L 96.38196 259.451662 
L 99.194432 243.619577 
L 101.986753 258.989853 
L 104.759211 258.776468 
L 107.512086 257.526808 
L 110.245653 258.968631 
L 112.960181 259.297517 
L 115.655934 260.048079 
L 118.333169 257.95183 
L 120.992139 259.444418 
L 123.633091 255.967331 
L 126.256268 245.9711 
L 128.861908 259.492744 
L 131.450244 259.035292 
L 134.021503 258.005193 
L 136.575911 257.23345 
L 139.113685 249.802868 
L 141.635042 259.391615 
L 144.140193 260.062057 
L 146.629344 257.553259 
L 149.102699 254.29169 
L 151.560456 260.758519 
L 154.002812 252.329173 
L 156.429958 255.044138 
L 157.072136 246.231697 
L 159.480302 262.517713 
L 161.873679 260.453927 
L 164.252448 262.763858 
L 166.616787 259.567832 
L 168.96687 262.140828 
L 171.302866 261.208827 
L 173.624945 246.498933 
L 175.933272 259.859027 
L 178.228007 259.599767 
L 180.50931 261.98082 
L 182.777338 254.852203 
L 185.032244 258.387129 
L 189.503291 257.258381 
L 191.719726 262.966031 
L 193.923629 261.418917 
L 196.115138 260.918751 
L 198.294394 261.08115 
L 200.461533 262.22105 
L 202.616688 262.360344 
L 204.759991 263.571365 
L 206.891572 263.763915 
L 209.011558 252.049304 
L 211.120075 262.941974 
L 213.217247 261.735994 
L 215.303194 262.972546 
L 217.378037 258.453674 
L 219.441892 253.229253 
L 221.494876 262.493952 
L 223.537103 255.701811 
L 225.568684 263.125304 
L 227.589731 260.853226 
L 228.124814 251.686515 
L 230.132683 248.968458 
L 232.130261 253.689333 
L 234.117652 261.501841 
L 236.094961 245.03842 
L 238.062289 253.795299 
L 240.019737 243.570889 
L 241.967402 261.895099 
L 243.905383 257.157412 
L 245.833775 243.960897 
L 247.752672 257.109444 
L 249.662168 248.699664 
L 251.562355 261.119422 
L 253.453322 263.205528 
L 255.335159 256.671 
L 257.207953 248.01538 
L 259.071791 260.215268 
L 260.926759 259.010128 
L 262.772939 246.010772 
L 264.610416 226.546964 
L 266.43927 255.325917 
L 268.259583 241.016332 
L 270.071433 260.417974 
L 271.8749 246.484926 
L 273.670059 254.40233 
L 275.456988 257.13271 
L 277.235762 263.846499 
L 279.006454 260.588212 
L 280.769138 264.701162 
L 282.523886 264.051236 
L 284.270769 257.899978 
L 286.009857 264.687731 
L 287.741219 255.821617 
L 288.199823 256.537872 
L 289.921505 266.341272 
L 291.635616 265.604061 
L 293.342221 266.692747 
L 295.041386 265.755596 
L 296.733175 262.469467 
L 298.417652 266.161075 
L 300.09488 265.590143 
L 301.764922 266.929753 
L 303.427837 266.587739 
L 305.083688 266.042795 
L 306.732534 265.793862 
L 308.374433 263.911696 
L 310.009445 265.268851 
L 311.637626 262.079563 
L 313.259033 267.23732 
L 314.873724 263.801641 
L 316.481752 267.505373 
L 318.083173 267.171033 
L 319.678041 264.928725 
L 321.266409 264.188199 
L 322.84833 267.223951 
L 324.423856 266.935486 
L 325.993039 254.839937 
L 327.55593 266.500385 
L 329.112578 260.873908 
L 330.663034 265.684106 
L 332.207346 264.046866 
L 333.745563 258.185608 
L 335.277733 265.844728 
L 336.803904 263.042888 
L 338.324122 264.907713 
L 339.838433 255.024438 
L 340.239684 260.527424 
L 341.746585 247.454809 
L 343.247682 260.500478 
L 344.74302 262.139475 
L 346.232643 262.668751 
L 347.716593 262.667228 
L 349.194915 249.953224 
L 350.667651 260.107877 
L 352.134843 260.835111 
L 353.596532 256.278755 
L 355.05276 252.103541 
L 356.503568 255.002636 
L 357.948994 261.81727 
L 359.38908 249.22049 
L 360.823864 264.091677 
L 362.253386 249.833705 
L 363.677684 263.176645 
L 366.510759 259.133009 
L 367.919611 265.594132 
L 369.323389 261.505716 
L 370.722129 264.233705 
L 372.115866 261.092753 
L 373.504638 260.518705 
L 374.888478 254.69895 
L 376.267423 263.382062 
L 377.641505 259.295395 
L 379.010761 248.841061 
L 380.375223 251.494949 
L 381.734924 257.213231 
L 383.089898 259.405662 
L 384.440178 263.056072 
L 385.785797 256.401204 
L 386.142447 262.209235 
L 387.482211 265.366412 
L 388.817385 264.515644 
L 390.148001 263.511987 
L 391.474089 266.130943 
L 392.795681 264.973937 
L 394.112806 266.896075 
L 395.425496 255.443457 
L 396.733779 265.106404 
L 398.037685 259.129106 
L 399.337243 264.492178 
L 400.632482 264.983237 
L 401.923432 264.725112 
L 403.210119 265.253991 
L 404.492572 266.504365 
L 405.77082 263.429741 
L 407.044889 258.813229 
L 408.314806 266.571926 
L 409.5806 267.493743 
L 410.842295 263.19534 
L 412.099919 246.008349 
L 413.353499 263.601918 
L 414.603059 266.516024 
L 415.848626 266.953987 
L 417.090224 261.849174 
L 418.32788 268.424814 
L 419.561619 266.165022 
L 420.791464 260.391682 
L 422.01744 267.538927 
L 423.239573 265.711089 
L 424.457885 268.770564 
L 425.6724 265.224274 
L 426.883143 265.860322 
L 426.883143 265.860322 
" clip-path="url(#p7dd5ffe089)" style="fill: none; stroke: #2ca02c; stroke-opacity: 0.9; stroke-linecap: square"/>
   </g>
   <g id="patch_3">
    <path d="M 57.6 307.584 
L 57.6 41.472 
" style="fill: none; stroke: #000000; stroke-width: 0.8; stroke-linejoin: miter; stroke-linecap: square"/>
   </g>
   <g id="patch_4">
    <path d="M 414.72 307.584 
L 414.72 41.472 
" style="fill: none; stroke: #000000; stroke-width: 0.8; stroke-linejoin: miter; stroke-linecap: square"/>
   </g>
   <g id="patch_5">
    <path d="M 57.6 307.584 
L 414.72 307.584 
" style="fill: none; stroke: #000000; stroke-width: 0.8; stroke-linejoin: miter; stroke-linecap: square"/>
   </g>
   <g id="patch_6">
    <path d="M 57.6 41.472 
L 414.72 41.472 
" style="fill: none; stroke: #000000; stroke-width: 0.8; stroke-linejoin: miter; stroke-linecap: square"/>
   </g>
   <g id="text_11">
    <!-- 2025-02-18-14:18:02 -->
    <g transform="translate(172.178438 35.472) scale(0.12 -0.12)">
     <defs>
      <path id="DejaVuSans-35" d="M 691 4666 
L 3169 4666 
L 3169 4134 
L 1269 4134 
L 1269 2991 
Q 1406 3038 1543 3061 
Q 1681 3084 1819 3084 
Q 2600 3084 3056 2656 
Q 3513 2228 3513 1497 
Q 3513 744 3044 326 
Q 2575 -91 1722 -91 
Q 1428 -91 1123 -41 
Q 819 9 494 109 
L 494 744 
Q 775 591 1075 516 
Q 1375 441 1709 441 
Q 2250 441 2565 725 
Q 2881 1009 2881 1497 
Q 2881 1984 2565 2268 
Q 2250 2553 1709 2553 
Q 1456 2553 1204 2497 
Q 953 2441 691 2322 
L 691 4666 
z
" transform="scale(0.015625)"/>
      <path id="DejaVuSans-2d" d="M 313 2009 
L 1997 2009 
L 1997 1497 
L 313 1497 
L 313 2009 
z
" transform="scale(0.015625)"/>
      <path id="DejaVuSans-3a" d="M 750 794 
L 1409 794 
L 1409 0 
L 750 0 
L 750 794 
z
M 750 3309 
L 1409 3309 
L 1409 2516 
L 750 2516 
L 750 3309 
z
" transform="scale(0.015625)"/>
     </defs>
     <use xlink:href="#DejaVuSans-32"/>
     <use xlink:href="#DejaVuSans-30" x="63.623047"/>
     <use xlink:href="#DejaVuSans-32" x="127.246094"/>
     <use xlink:href="#DejaVuSans-35" x="190.869141"/>
     <use xlink:href="#DejaVuSans-2d" x="254.492188"/>
     <use xlink:href="#DejaVuSans-30" x="290.576172"/>
     <use xlink:href="#DejaVuSans-32" x="354.199219"/>
     <use xlink:href="#DejaVuSans-2d" x="417.822266"/>
     <use xlink:href="#DejaVuSans-31" x="453.90625"/>
     <use xlink:href="#DejaVuSans-38" x="517.529297"/>
     <use xlink:href="#DejaVuSans-2d" x="581.152344"/>
     <use xlink:href="#DejaVuSans-31" x="617.236328"/>
     <use xlink:href="#DejaVuSans-34" x="680.859375"/>
     <use xlink:href="#DejaVuSans-3a" x="744.482422"/>
     <use xlink:href="#DejaVuSans-31" x="778.173828"/>
     <use xlink:href="#DejaVuSans-38" x="841.796875"/>
     <use xlink:href="#DejaVuSans-3a" x="905.419922"/>
     <use xlink:href="#DejaVuSans-30" x="939.111328"/>
     <use xlink:href="#DejaVuSans-32" x="1002.734375"/>
    </g>
   </g>
   <g id="legend_1">
    <g id="patch_7">
     <path d="M 281.596563 94.34075 
L 407.72 94.34075 
Q 409.72 94.34075 409.72 92.34075 
L 409.72 48.472 
Q 409.72 46.472 407.72 46.472 
L 281.596563 46.472 
Q 279.596563 46.472 279.596563 48.472 
L 279.596563 92.34075 
Q 279.596563 94.34075 281.596563 94.34075 
z
" style="fill: #ffffff; opacity: 0.8; stroke: #cccccc; stroke-linejoin: miter"/>
    </g>
    <g id="line2d_42">
     <path d="M 283.596563 54.570438 
L 293.596563 54.570438 
L 303.596563 54.570438 
" style="fill: none; stroke: #1f77b4; stroke-opacity: 0.9; stroke-linecap: square"/>
    </g>
    <g id="text_12">
     <!-- SchNet eval_loss -->
     <g transform="translate(311.596563 58.070438) scale(0.1 -0.1)">
      <defs>
       <path id="DejaVuSans-53" d="M 3425 4513 
L 3425 3897 
Q 3066 4069 2747 4153 
Q 2428 4238 2131 4238 
Q 1616 4238 1336 4038 
Q 1056 3838 1056 3469 
Q 1056 3159 1242 3001 
Q 1428 2844 1947 2747 
L 2328 2669 
Q 3034 2534 3370 2195 
Q 3706 1856 3706 1288 
Q 3706 609 3251 259 
Q 2797 -91 1919 -91 
Q 1588 -91 1214 -16 
Q 841 59 441 206 
L 441 856 
Q 825 641 1194 531 
Q 1563 422 1919 422 
Q 2459 422 2753 634 
Q 3047 847 3047 1241 
Q 3047 1584 2836 1778 
Q 2625 1972 2144 2069 
L 1759 2144 
Q 1053 2284 737 2584 
Q 422 2884 422 3419 
Q 422 4038 858 4394 
Q 1294 4750 2059 4750 
Q 2388 4750 2728 4690 
Q 3069 4631 3425 4513 
z
" transform="scale(0.015625)"/>
       <path id="DejaVuSans-63" d="M 3122 3366 
L 3122 2828 
Q 2878 2963 2633 3030 
Q 2388 3097 2138 3097 
Q 1578 3097 1268 2742 
Q 959 2388 959 1747 
Q 959 1106 1268 751 
Q 1578 397 2138 397 
Q 2388 397 2633 464 
Q 2878 531 3122 666 
L 3122 134 
Q 2881 22 2623 -34 
Q 2366 -91 2075 -91 
Q 1284 -91 818 406 
Q 353 903 353 1747 
Q 353 2603 823 3093 
Q 1294 3584 2113 3584 
Q 2378 3584 2631 3529 
Q 2884 3475 3122 3366 
z
" transform="scale(0.015625)"/>
       <path id="DejaVuSans-68" d="M 3513 2113 
L 3513 0 
L 2938 0 
L 2938 2094 
Q 2938 2591 2744 2837 
Q 2550 3084 2163 3084 
Q 1697 3084 1428 2787 
Q 1159 2491 1159 1978 
L 1159 0 
L 581 0 
L 581 4863 
L 1159 4863 
L 1159 2956 
Q 1366 3272 1645 3428 
Q 1925 3584 2291 3584 
Q 2894 3584 3203 3211 
Q 3513 2838 3513 2113 
z
" transform="scale(0.015625)"/>
       <path id="DejaVuSans-4e" d="M 628 4666 
L 1478 4666 
L 3547 763 
L 3547 4666 
L 4159 4666 
L 4159 0 
L 3309 0 
L 1241 3903 
L 1241 0 
L 628 0 
L 628 4666 
z
" transform="scale(0.015625)"/>
       <path id="DejaVuSans-20" transform="scale(0.015625)"/>
       <path id="DejaVuSans-76" d="M 191 3500 
L 800 3500 
L 1894 563 
L 2988 3500 
L 3597 3500 
L 2284 0 
L 1503 0 
L 191 3500 
z
" transform="scale(0.015625)"/>
       <path id="DejaVuSans-61" d="M 2194 1759 
Q 1497 1759 1228 1600 
Q 959 1441 959 1056 
Q 959 750 1161 570 
Q 1363 391 1709 391 
Q 2188 391 2477 730 
Q 2766 1069 2766 1631 
L 2766 1759 
L 2194 1759 
z
M 3341 1997 
L 3341 0 
L 2766 0 
L 2766 531 
Q 2569 213 2275 61 
Q 1981 -91 1556 -91 
Q 1019 -91 701 211 
Q 384 513 384 1019 
Q 384 1609 779 1909 
Q 1175 2209 1959 2209 
L 2766 2209 
L 2766 2266 
Q 2766 2663 2505 2880 
Q 2244 3097 1772 3097 
Q 1472 3097 1187 3025 
Q 903 2953 641 2809 
L 641 3341 
Q 956 3463 1253 3523 
Q 1550 3584 1831 3584 
Q 2591 3584 2966 3190 
Q 3341 2797 3341 1997 
z
" transform="scale(0.015625)"/>
       <path id="DejaVuSans-5f" d="M 3263 -1063 
L 3263 -1509 
L -63 -1509 
L -63 -1063 
L 3263 -1063 
z
" transform="scale(0.015625)"/>
      </defs>
      <use xlink:href="#DejaVuSans-53"/>
      <use xlink:href="#DejaVuSans-63" x="63.476562"/>
      <use xlink:href="#DejaVuSans-68" x="118.457031"/>
      <use xlink:href="#DejaVuSans-4e" x="181.835938"/>
      <use xlink:href="#DejaVuSans-65" x="256.640625"/>
      <use xlink:href="#DejaVuSans-74" x="318.164062"/>
      <use xlink:href="#DejaVuSans-20" x="357.373047"/>
      <use xlink:href="#DejaVuSans-65" x="389.160156"/>
      <use xlink:href="#DejaVuSans-76" x="450.683594"/>
      <use xlink:href="#DejaVuSans-61" x="509.863281"/>
      <use xlink:href="#DejaVuSans-6c" x="571.142578"/>
      <use xlink:href="#DejaVuSans-5f" x="598.925781"/>
      <use xlink:href="#DejaVuSans-6c" x="648.925781"/>
      <use xlink:href="#DejaVuSans-6f" x="676.708984"/>
      <use xlink:href="#DejaVuSans-73" x="737.890625"/>
      <use xlink:href="#DejaVuSans-73" x="789.990234"/>
     </g>
    </g>
    <g id="line2d_43">
     <path d="M 283.596563 69.526688 
L 293.596563 69.526688 
L 303.596563 69.526688 
" style="fill: none; stroke: #ff7f0e; stroke-opacity: 0.9; stroke-linecap: square"/>
    </g>
    <g id="text_13">
     <!-- MoGIN13 eval_loss -->
     <g transform="translate(311.596563 73.026688) scale(0.1 -0.1)">
      <defs>
       <path id="DejaVuSans-4d" d="M 628 4666 
L 1569 4666 
L 2759 1491 
L 3956 4666 
L 4897 4666 
L 4897 0 
L 4281 0 
L 4281 4097 
L 3078 897 
L 2444 897 
L 1241 4097 
L 1241 0 
L 628 0 
L 628 4666 
z
" transform="scale(0.015625)"/>
       <path id="DejaVuSans-47" d="M 3809 666 
L 3809 1919 
L 2778 1919 
L 2778 2438 
L 4434 2438 
L 4434 434 
Q 4069 175 3628 42 
Q 3188 -91 2688 -91 
Q 1594 -91 976 548 
Q 359 1188 359 2328 
Q 359 3472 976 4111 
Q 1594 4750 2688 4750 
Q 3144 4750 3555 4637 
Q 3966 4525 4313 4306 
L 4313 3634 
Q 3963 3931 3569 4081 
Q 3175 4231 2741 4231 
Q 1884 4231 1454 3753 
Q 1025 3275 1025 2328 
Q 1025 1384 1454 906 
Q 1884 428 2741 428 
Q 3075 428 3337 486 
Q 3600 544 3809 666 
z
" transform="scale(0.015625)"/>
       <path id="DejaVuSans-49" d="M 628 4666 
L 1259 4666 
L 1259 0 
L 628 0 
L 628 4666 
z
" transform="scale(0.015625)"/>
      </defs>
      <use xlink:href="#DejaVuSans-4d"/>
      <use xlink:href="#DejaVuSans-6f" x="86.279297"/>
      <use xlink:href="#DejaVuSans-47" x="147.460938"/>
      <use xlink:href="#DejaVuSans-49" x="224.951172"/>
      <use xlink:href="#DejaVuSans-4e" x="254.443359"/>
      <use xlink:href="#DejaVuSans-31" x="329.248047"/>
      <use xlink:href="#DejaVuSans-33" x="392.871094"/>
      <use xlink:href="#DejaVuSans-20" x="456.494141"/>
      <use xlink:href="#DejaVuSans-65" x="488.28125"/>
      <use xlink:href="#DejaVuSans-76" x="549.804688"/>
      <use xlink:href="#DejaVuSans-61" x="608.984375"/>
      <use xlink:href="#DejaVuSans-6c" x="670.263672"/>
      <use xlink:href="#DejaVuSans-5f" x="698.046875"/>
      <use xlink:href="#DejaVuSans-6c" x="748.046875"/>
      <use xlink:href="#DejaVuSans-6f" x="775.830078"/>
      <use xlink:href="#DejaVuSans-73" x="837.011719"/>
      <use xlink:href="#DejaVuSans-73" x="889.111328"/>
     </g>
    </g>
    <g id="line2d_44">
     <path d="M 283.596563 84.482938 
L 293.596563 84.482938 
L 303.596563 84.482938 
" style="fill: none; stroke: #2ca02c; stroke-opacity: 0.9; stroke-linecap: square"/>
    </g>
    <g id="text_14">
     <!-- MoGIN11 eval_loss -->
     <g transform="translate(311.596563 87.982938) scale(0.1 -0.1)">
      <use xlink:href="#DejaVuSans-4d"/>
      <use xlink:href="#DejaVuSans-6f" x="86.279297"/>
      <use xlink:href="#DejaVuSans-47" x="147.460938"/>
      <use xlink:href="#DejaVuSans-49" x="224.951172"/>
      <use xlink:href="#DejaVuSans-4e" x="254.443359"/>
      <use xlink:href="#DejaVuSans-31" x="329.248047"/>
      <use xlink:href="#DejaVuSans-31" x="392.871094"/>
      <use xlink:href="#DejaVuSans-20" x="456.494141"/>
      <use xlink:href="#DejaVuSans-65" x="488.28125"/>
      <use xlink:href="#DejaVuSans-76" x="549.804688"/>
      <use xlink:href="#DejaVuSans-61" x="608.984375"/>
      <use xlink:href="#DejaVuSans-6c" x="670.263672"/>
      <use xlink:href="#DejaVuSans-5f" x="698.046875"/>
      <use xlink:href="#DejaVuSans-6c" x="748.046875"/>
      <use xlink:href="#DejaVuSans-6f" x="775.830078"/>
      <use xlink:href="#DejaVuSans-73" x="837.011719"/>
      <use xlink:href="#DejaVuSans-73" x="889.111328"/>
     </g>
    </g>
   </g>
  </g>
 </g>
 <defs>
  <clipPath id="p7dd5ffe089">
   <rect x="57.6" y="41.472" width="357.12" height="266.112"/>
  </clipPath>
 </defs>
</svg>
