<?xml version="1.0" encoding="utf-8" standalone="no"?>
<!DOCTYPE svg PUBLIC "-//W3C//DTD SVG 1.1//EN"
  "http://www.w3.org/Graphics/SVG/1.1/DTD/svg11.dtd">
<svg xmlns:xlink="http://www.w3.org/1999/xlink" width="460.8pt" height="345.6pt" viewBox="0 0 460.8 345.6" xmlns="http://www.w3.org/2000/svg" version="1.1">
 <metadata>
  <rdf:RDF xmlns:dc="http://purl.org/dc/elements/1.1/" xmlns:cc="http://creativecommons.org/ns#" xmlns:rdf="http://www.w3.org/1999/02/22-rdf-syntax-ns#">
   <cc:Work>
    <dc:type rdf:resource="http://purl.org/dc/dcmitype/StillImage"/>
    <dc:date>2025-02-21T00:25:38.919168</dc:date>
    <dc:format>image/svg+xml</dc:format>
    <dc:creator>
     <cc:Agent>
      <dc:title>Matplotlib v3.8.4, https://matplotlib.org/</dc:title>
     </cc:Agent>
    </dc:creator>
   </cc:Work>
  </rdf:RDF>
 </metadata>
 <defs>
  <style type="text/css">*{stroke-linejoin: round; stroke-linecap: butt}</style>
 </defs>
 <g id="figure_1">
  <g id="patch_1">
   <path d="M 0 345.6 
L 460.8 345.6 
L 460.8 0 
L 0 0 
z
" style="fill: #ffffff"/>
  </g>
  <g id="axes_1">
   <g id="patch_2">
    <path d="M 57.6 307.584 
L 414.72 307.584 
L 414.72 41.472 
L 57.6 41.472 
z
" style="fill: #ffffff"/>
   </g>
   <g id="matplotlib.axis_1">
    <g id="xtick_1">
     <g id="line2d_1">
      <defs>
       <path id="m5dcee635bc" d="M 0 0 
L 0 3.5 
" style="stroke: #000000; stroke-width: 0.8"/>
      </defs>
      <g>
       <use xlink:href="#m5dcee635bc" x="57.6" y="307.584" style="stroke: #000000; stroke-width: 0.8"/>
      </g>
     </g>
     <g id="text_1">
      <!-- $\mathdefault{10^{3}}$ -->
      <g transform="translate(48.8 322.182437) scale(0.1 -0.1)">
       <defs>
        <path id="DejaVuSans-31" d="M 794 531 
L 1825 531 
L 1825 4091 
L 703 3866 
L 703 4441 
L 1819 4666 
L 2450 4666 
L 2450 531 
L 3481 531 
L 3481 0 
L 794 0 
L 794 531 
z
" transform="scale(0.015625)"/>
        <path id="DejaVuSans-30" d="M 2034 4250 
Q 1547 4250 1301 3770 
Q 1056 3291 1056 2328 
Q 1056 1369 1301 889 
Q 1547 409 2034 409 
Q 2525 409 2770 889 
Q 3016 1369 3016 2328 
Q 3016 3291 2770 3770 
Q 2525 4250 2034 4250 
z
M 2034 4750 
Q 2819 4750 3233 4129 
Q 3647 3509 3647 2328 
Q 3647 1150 3233 529 
Q 2819 -91 2034 -91 
Q 1250 -91 836 529 
Q 422 1150 422 2328 
Q 422 3509 836 4129 
Q 1250 4750 2034 4750 
z
" transform="scale(0.015625)"/>
        <path id="DejaVuSans-33" d="M 2597 2516 
Q 3050 2419 3304 2112 
Q 3559 1806 3559 1356 
Q 3559 666 3084 287 
Q 2609 -91 1734 -91 
Q 1441 -91 1130 -33 
Q 819 25 488 141 
L 488 750 
Q 750 597 1062 519 
Q 1375 441 1716 441 
Q 2309 441 2620 675 
Q 2931 909 2931 1356 
Q 2931 1769 2642 2001 
Q 2353 2234 1838 2234 
L 1294 2234 
L 1294 2753 
L 1863 2753 
Q 2328 2753 2575 2939 
Q 2822 3125 2822 3475 
Q 2822 3834 2567 4026 
Q 2313 4219 1838 4219 
Q 1578 4219 1281 4162 
Q 984 4106 628 3988 
L 628 4550 
Q 988 4650 1302 4700 
Q 1616 4750 1894 4750 
Q 2613 4750 3031 4423 
Q 3450 4097 3450 3541 
Q 3450 3153 3228 2886 
Q 3006 2619 2597 2516 
z
" transform="scale(0.015625)"/>
       </defs>
       <use xlink:href="#DejaVuSans-31" transform="translate(0 0.765625)"/>
       <use xlink:href="#DejaVuSans-30" transform="translate(63.623047 0.765625)"/>
       <use xlink:href="#DejaVuSans-33" transform="translate(128.203125 39.046875) scale(0.7)"/>
      </g>
     </g>
    </g>
    <g id="xtick_2">
     <g id="line2d_2">
      <g>
       <use xlink:href="#m5dcee635bc" x="229.359918" y="307.584" style="stroke: #000000; stroke-width: 0.8"/>
      </g>
     </g>
     <g id="text_2">
      <!-- $\mathdefault{10^{4}}$ -->
      <g transform="translate(220.559918 322.182437) scale(0.1 -0.1)">
       <defs>
        <path id="DejaVuSans-34" d="M 2419 4116 
L 825 1625 
L 2419 1625 
L 2419 4116 
z
M 2253 4666 
L 3047 4666 
L 3047 1625 
L 3713 1625 
L 3713 1100 
L 3047 1100 
L 3047 0 
L 2419 0 
L 2419 1100 
L 313 1100 
L 313 1709 
L 2253 4666 
z
" transform="scale(0.015625)"/>
       </defs>
       <use xlink:href="#DejaVuSans-31" transform="translate(0 0.684375)"/>
       <use xlink:href="#DejaVuSans-30" transform="translate(63.623047 0.684375)"/>
       <use xlink:href="#DejaVuSans-34" transform="translate(128.203125 38.965625) scale(0.7)"/>
      </g>
     </g>
    </g>
    <g id="xtick_3">
     <g id="line2d_3">
      <g>
       <use xlink:href="#m5dcee635bc" x="401.119836" y="307.584" style="stroke: #000000; stroke-width: 0.8"/>
      </g>
     </g>
     <g id="text_3">
      <!-- $\mathdefault{10^{5}}$ -->
      <g transform="translate(392.319836 322.182437) scale(0.1 -0.1)">
       <defs>
        <path id="DejaVuSans-35" d="M 691 4666 
L 3169 4666 
L 3169 4134 
L 1269 4134 
L 1269 2991 
Q 1406 3038 1543 3061 
Q 1681 3084 1819 3084 
Q 2600 3084 3056 2656 
Q 3513 2228 3513 1497 
Q 3513 744 3044 326 
Q 2575 -91 1722 -91 
Q 1428 -91 1123 -41 
Q 819 9 494 109 
L 494 744 
Q 775 591 1075 516 
Q 1375 441 1709 441 
Q 2250 441 2565 725 
Q 2881 1009 2881 1497 
Q 2881 1984 2565 2268 
Q 2250 2553 1709 2553 
Q 1456 2553 1204 2497 
Q 953 2441 691 2322 
L 691 4666 
z
" transform="scale(0.015625)"/>
       </defs>
       <use xlink:href="#DejaVuSans-31" transform="translate(0 0.684375)"/>
       <use xlink:href="#DejaVuSans-30" transform="translate(63.623047 0.684375)"/>
       <use xlink:href="#DejaVuSans-35" transform="translate(128.203125 38.965625) scale(0.7)"/>
      </g>
     </g>
    </g>
    <g id="xtick_4">
     <g id="line2d_4">
      <defs>
       <path id="m43b7531671" d="M 0 0 
L 0 2 
" style="stroke: #000000; stroke-width: 0.6"/>
      </defs>
      <g>
       <use xlink:href="#m43b7531671" x="109.304887" y="307.584" style="stroke: #000000; stroke-width: 0.6"/>
      </g>
     </g>
    </g>
    <g id="xtick_5">
     <g id="line2d_5">
      <g>
       <use xlink:href="#m43b7531671" x="139.550308" y="307.584" style="stroke: #000000; stroke-width: 0.6"/>
      </g>
     </g>
    </g>
    <g id="xtick_6">
     <g id="line2d_6">
      <g>
       <use xlink:href="#m43b7531671" x="161.009775" y="307.584" style="stroke: #000000; stroke-width: 0.6"/>
      </g>
     </g>
    </g>
    <g id="xtick_7">
     <g id="line2d_7">
      <g>
       <use xlink:href="#m43b7531671" x="177.655031" y="307.584" style="stroke: #000000; stroke-width: 0.6"/>
      </g>
     </g>
    </g>
    <g id="xtick_8">
     <g id="line2d_8">
      <g>
       <use xlink:href="#m43b7531671" x="191.255195" y="307.584" style="stroke: #000000; stroke-width: 0.6"/>
      </g>
     </g>
    </g>
    <g id="xtick_9">
     <g id="line2d_9">
      <g>
       <use xlink:href="#m43b7531671" x="202.75397" y="307.584" style="stroke: #000000; stroke-width: 0.6"/>
      </g>
     </g>
    </g>
    <g id="xtick_10">
     <g id="line2d_10">
      <g>
       <use xlink:href="#m43b7531671" x="212.714662" y="307.584" style="stroke: #000000; stroke-width: 0.6"/>
      </g>
     </g>
    </g>
    <g id="xtick_11">
     <g id="line2d_11">
      <g>
       <use xlink:href="#m43b7531671" x="221.500615" y="307.584" style="stroke: #000000; stroke-width: 0.6"/>
      </g>
     </g>
    </g>
    <g id="xtick_12">
     <g id="line2d_12">
      <g>
       <use xlink:href="#m43b7531671" x="281.064805" y="307.584" style="stroke: #000000; stroke-width: 0.6"/>
      </g>
     </g>
    </g>
    <g id="xtick_13">
     <g id="line2d_13">
      <g>
       <use xlink:href="#m43b7531671" x="311.310225" y="307.584" style="stroke: #000000; stroke-width: 0.6"/>
      </g>
     </g>
    </g>
    <g id="xtick_14">
     <g id="line2d_14">
      <g>
       <use xlink:href="#m43b7531671" x="332.769692" y="307.584" style="stroke: #000000; stroke-width: 0.6"/>
      </g>
     </g>
    </g>
    <g id="xtick_15">
     <g id="line2d_15">
      <g>
       <use xlink:href="#m43b7531671" x="349.414948" y="307.584" style="stroke: #000000; stroke-width: 0.6"/>
      </g>
     </g>
    </g>
    <g id="xtick_16">
     <g id="line2d_16">
      <g>
       <use xlink:href="#m43b7531671" x="363.015113" y="307.584" style="stroke: #000000; stroke-width: 0.6"/>
      </g>
     </g>
    </g>
    <g id="xtick_17">
     <g id="line2d_17">
      <g>
       <use xlink:href="#m43b7531671" x="374.513888" y="307.584" style="stroke: #000000; stroke-width: 0.6"/>
      </g>
     </g>
    </g>
    <g id="xtick_18">
     <g id="line2d_18">
      <g>
       <use xlink:href="#m43b7531671" x="384.47458" y="307.584" style="stroke: #000000; stroke-width: 0.6"/>
      </g>
     </g>
    </g>
    <g id="xtick_19">
     <g id="line2d_19">
      <g>
       <use xlink:href="#m43b7531671" x="393.260533" y="307.584" style="stroke: #000000; stroke-width: 0.6"/>
      </g>
     </g>
    </g>
    <g id="text_4">
     <!-- iter# -->
     <g transform="translate(223.488906 335.860562) scale(0.1 -0.1)">
      <defs>
       <path id="DejaVuSans-69" d="M 603 3500 
L 1178 3500 
L 1178 0 
L 603 0 
L 603 3500 
z
M 603 4863 
L 1178 4863 
L 1178 4134 
L 603 4134 
L 603 4863 
z
" transform="scale(0.015625)"/>
       <path id="DejaVuSans-74" d="M 1172 4494 
L 1172 3500 
L 2356 3500 
L 2356 3053 
L 1172 3053 
L 1172 1153 
Q 1172 725 1289 603 
Q 1406 481 1766 481 
L 2356 481 
L 2356 0 
L 1766 0 
Q 1100 0 847 248 
Q 594 497 594 1153 
L 594 3053 
L 172 3053 
L 172 3500 
L 594 3500 
L 594 4494 
L 1172 4494 
z
" transform="scale(0.015625)"/>
       <path id="DejaVuSans-65" d="M 3597 1894 
L 3597 1613 
L 953 1613 
Q 991 1019 1311 708 
Q 1631 397 2203 397 
Q 2534 397 2845 478 
Q 3156 559 3463 722 
L 3463 178 
Q 3153 47 2828 -22 
Q 2503 -91 2169 -91 
Q 1331 -91 842 396 
Q 353 884 353 1716 
Q 353 2575 817 3079 
Q 1281 3584 2069 3584 
Q 2775 3584 3186 3129 
Q 3597 2675 3597 1894 
z
M 3022 2063 
Q 3016 2534 2758 2815 
Q 2500 3097 2075 3097 
Q 1594 3097 1305 2825 
Q 1016 2553 972 2059 
L 3022 2063 
z
" transform="scale(0.015625)"/>
       <path id="DejaVuSans-72" d="M 2631 2963 
Q 2534 3019 2420 3045 
Q 2306 3072 2169 3072 
Q 1681 3072 1420 2755 
Q 1159 2438 1159 1844 
L 1159 0 
L 581 0 
L 581 3500 
L 1159 3500 
L 1159 2956 
Q 1341 3275 1631 3429 
Q 1922 3584 2338 3584 
Q 2397 3584 2469 3576 
Q 2541 3569 2628 3553 
L 2631 2963 
z
" transform="scale(0.015625)"/>
       <path id="DejaVuSans-23" d="M 3272 2816 
L 2363 2816 
L 2100 1772 
L 3016 1772 
L 3272 2816 
z
M 2803 4594 
L 2478 3297 
L 3391 3297 
L 3719 4594 
L 4219 4594 
L 3897 3297 
L 4872 3297 
L 4872 2816 
L 3775 2816 
L 3519 1772 
L 4513 1772 
L 4513 1294 
L 3397 1294 
L 3072 0 
L 2572 0 
L 2894 1294 
L 1978 1294 
L 1656 0 
L 1153 0 
L 1478 1294 
L 494 1294 
L 494 1772 
L 1594 1772 
L 1856 2816 
L 850 2816 
L 850 3297 
L 1978 3297 
L 2297 4594 
L 2803 4594 
z
" transform="scale(0.015625)"/>
      </defs>
      <use xlink:href="#DejaVuSans-69"/>
      <use xlink:href="#DejaVuSans-74" x="27.783203"/>
      <use xlink:href="#DejaVuSans-65" x="66.992188"/>
      <use xlink:href="#DejaVuSans-72" x="128.515625"/>
      <use xlink:href="#DejaVuSans-23" x="169.628906"/>
     </g>
    </g>
   </g>
   <g id="matplotlib.axis_2">
    <g id="ytick_1">
     <g id="line2d_20">
      <defs>
       <path id="mfb3e8572e3" d="M 0 0 
L -3.5 0 
" style="stroke: #000000; stroke-width: 0.8"/>
      </defs>
      <g>
       <use xlink:href="#mfb3e8572e3" x="57.6" y="245.254111" style="stroke: #000000; stroke-width: 0.8"/>
      </g>
     </g>
     <g id="text_5">
      <!-- $\mathdefault{10^{-2}}$ -->
      <g transform="translate(27.1 249.05333) scale(0.1 -0.1)">
       <defs>
        <path id="DejaVuSans-2212" d="M 678 2272 
L 4684 2272 
L 4684 1741 
L 678 1741 
L 678 2272 
z
" transform="scale(0.015625)"/>
        <path id="DejaVuSans-32" d="M 1228 531 
L 3431 531 
L 3431 0 
L 469 0 
L 469 531 
Q 828 903 1448 1529 
Q 2069 2156 2228 2338 
Q 2531 2678 2651 2914 
Q 2772 3150 2772 3378 
Q 2772 3750 2511 3984 
Q 2250 4219 1831 4219 
Q 1534 4219 1204 4116 
Q 875 4013 500 3803 
L 500 4441 
Q 881 4594 1212 4672 
Q 1544 4750 1819 4750 
Q 2544 4750 2975 4387 
Q 3406 4025 3406 3419 
Q 3406 3131 3298 2873 
Q 3191 2616 2906 2266 
Q 2828 2175 2409 1742 
Q 1991 1309 1228 531 
z
" transform="scale(0.015625)"/>
       </defs>
       <use xlink:href="#DejaVuSans-31" transform="translate(0 0.765625)"/>
       <use xlink:href="#DejaVuSans-30" transform="translate(63.623047 0.765625)"/>
       <use xlink:href="#DejaVuSans-2212" transform="translate(128.203125 39.046875) scale(0.7)"/>
       <use xlink:href="#DejaVuSans-32" transform="translate(186.855469 39.046875) scale(0.7)"/>
      </g>
     </g>
    </g>
    <g id="ytick_2">
     <g id="line2d_21">
      <g>
       <use xlink:href="#mfb3e8572e3" x="57.6" y="88.622741" style="stroke: #000000; stroke-width: 0.8"/>
      </g>
     </g>
     <g id="text_6">
      <!-- $\mathdefault{10^{-1}}$ -->
      <g transform="translate(27.1 92.421959) scale(0.1 -0.1)">
       <use xlink:href="#DejaVuSans-31" transform="translate(0 0.684375)"/>
       <use xlink:href="#DejaVuSans-30" transform="translate(63.623047 0.684375)"/>
       <use xlink:href="#DejaVuSans-2212" transform="translate(128.203125 38.965625) scale(0.7)"/>
       <use xlink:href="#DejaVuSans-31" transform="translate(186.855469 38.965625) scale(0.7)"/>
      </g>
     </g>
    </g>
    <g id="ytick_3">
     <g id="line2d_22">
      <defs>
       <path id="m5ed3e25ac1" d="M 0 0 
L -2 0 
" style="stroke: #000000; stroke-width: 0.6"/>
      </defs>
      <g>
       <use xlink:href="#m5ed3e25ac1" x="57.6" y="307.584" style="stroke: #000000; stroke-width: 0.6"/>
      </g>
     </g>
    </g>
    <g id="ytick_4">
     <g id="line2d_23">
      <g>
       <use xlink:href="#m5ed3e25ac1" x="57.6" y="292.404852" style="stroke: #000000; stroke-width: 0.6"/>
      </g>
     </g>
    </g>
    <g id="ytick_5">
     <g id="line2d_24">
      <g>
       <use xlink:href="#m5ed3e25ac1" x="57.6" y="280.002585" style="stroke: #000000; stroke-width: 0.6"/>
      </g>
     </g>
    </g>
    <g id="ytick_6">
     <g id="line2d_25">
      <g>
       <use xlink:href="#m5ed3e25ac1" x="57.6" y="269.516617" style="stroke: #000000; stroke-width: 0.6"/>
      </g>
     </g>
    </g>
    <g id="ytick_7">
     <g id="line2d_26">
      <g>
       <use xlink:href="#m5ed3e25ac1" x="57.6" y="260.433259" style="stroke: #000000; stroke-width: 0.6"/>
      </g>
     </g>
    </g>
    <g id="ytick_8">
     <g id="line2d_27">
      <g>
       <use xlink:href="#m5ed3e25ac1" x="57.6" y="252.42117" style="stroke: #000000; stroke-width: 0.6"/>
      </g>
     </g>
    </g>
    <g id="ytick_9">
     <g id="line2d_28">
      <g>
       <use xlink:href="#m5ed3e25ac1" x="57.6" y="198.10337" style="stroke: #000000; stroke-width: 0.6"/>
      </g>
     </g>
    </g>
    <g id="ytick_10">
     <g id="line2d_29">
      <g>
       <use xlink:href="#m5ed3e25ac1" x="57.6" y="170.521955" style="stroke: #000000; stroke-width: 0.6"/>
      </g>
     </g>
    </g>
    <g id="ytick_11">
     <g id="line2d_30">
      <g>
       <use xlink:href="#m5ed3e25ac1" x="57.6" y="150.95263" style="stroke: #000000; stroke-width: 0.6"/>
      </g>
     </g>
    </g>
    <g id="ytick_12">
     <g id="line2d_31">
      <g>
       <use xlink:href="#m5ed3e25ac1" x="57.6" y="135.773481" style="stroke: #000000; stroke-width: 0.6"/>
      </g>
     </g>
    </g>
    <g id="ytick_13">
     <g id="line2d_32">
      <g>
       <use xlink:href="#m5ed3e25ac1" x="57.6" y="123.371214" style="stroke: #000000; stroke-width: 0.6"/>
      </g>
     </g>
    </g>
    <g id="ytick_14">
     <g id="line2d_33">
      <g>
       <use xlink:href="#m5ed3e25ac1" x="57.6" y="112.885247" style="stroke: #000000; stroke-width: 0.6"/>
      </g>
     </g>
    </g>
    <g id="ytick_15">
     <g id="line2d_34">
      <g>
       <use xlink:href="#m5ed3e25ac1" x="57.6" y="103.801889" style="stroke: #000000; stroke-width: 0.6"/>
      </g>
     </g>
    </g>
    <g id="ytick_16">
     <g id="line2d_35">
      <g>
       <use xlink:href="#m5ed3e25ac1" x="57.6" y="95.789799" style="stroke: #000000; stroke-width: 0.6"/>
      </g>
     </g>
    </g>
    <g id="ytick_17">
     <g id="line2d_36">
      <g>
       <use xlink:href="#m5ed3e25ac1" x="57.6" y="41.472" style="stroke: #000000; stroke-width: 0.6"/>
      </g>
     </g>
    </g>
    <g id="text_7">
     <!-- loss -->
     <g transform="translate(21.020313 184.185812) rotate(-90) scale(0.1 -0.1)">
      <defs>
       <path id="DejaVuSans-6c" d="M 603 4863 
L 1178 4863 
L 1178 0 
L 603 0 
L 603 4863 
z
" transform="scale(0.015625)"/>
       <path id="DejaVuSans-6f" d="M 1959 3097 
Q 1497 3097 1228 2736 
Q 959 2375 959 1747 
Q 959 1119 1226 758 
Q 1494 397 1959 397 
Q 2419 397 2687 759 
Q 2956 1122 2956 1747 
Q 2956 2369 2687 2733 
Q 2419 3097 1959 3097 
z
M 1959 3584 
Q 2709 3584 3137 3096 
Q 3566 2609 3566 1747 
Q 3566 888 3137 398 
Q 2709 -91 1959 -91 
Q 1206 -91 779 398 
Q 353 888 353 1747 
Q 353 2609 779 3096 
Q 1206 3584 1959 3584 
z
" transform="scale(0.015625)"/>
       <path id="DejaVuSans-73" d="M 2834 3397 
L 2834 2853 
Q 2591 2978 2328 3040 
Q 2066 3103 1784 3103 
Q 1356 3103 1142 2972 
Q 928 2841 928 2578 
Q 928 2378 1081 2264 
Q 1234 2150 1697 2047 
L 1894 2003 
Q 2506 1872 2764 1633 
Q 3022 1394 3022 966 
Q 3022 478 2636 193 
Q 2250 -91 1575 -91 
Q 1294 -91 989 -36 
Q 684 19 347 128 
L 347 722 
Q 666 556 975 473 
Q 1284 391 1588 391 
Q 1994 391 2212 530 
Q 2431 669 2431 922 
Q 2431 1156 2273 1281 
Q 2116 1406 1581 1522 
L 1381 1569 
Q 847 1681 609 1914 
Q 372 2147 372 2553 
Q 372 3047 722 3315 
Q 1072 3584 1716 3584 
Q 2034 3584 2315 3537 
Q 2597 3491 2834 3397 
z
" transform="scale(0.015625)"/>
      </defs>
      <use xlink:href="#DejaVuSans-6c"/>
      <use xlink:href="#DejaVuSans-6f" x="27.783203"/>
      <use xlink:href="#DejaVuSans-73" x="88.964844"/>
      <use xlink:href="#DejaVuSans-73" x="141.064453"/>
     </g>
    </g>
   </g>
   <g id="line2d_37">
    <path d="M 64.776892 -1 
L 68.219797 3.844329 
L 72.249503 9.819423 
L 76.07263 14.863464 
L 79.709329 19.915189 
L 83.17694 24.507974 
L 86.49049 29.682424 
L 92.706238 41.534267 
L 95.630091 46.437982 
L 101.15493 57.688097 
L 106.298637 65.813556 
L 108.743321 65.078796 
L 111.110421 65.176981 
L 111.726757 67.92185 
L 114.002454 72.92526 
L 116.210774 75.18622 
L 118.355594 79.148742 
L 122.468644 88.792573 
L 124.443135 93.813853 
L 126.366706 96.180537 
L 128.241919 99.278235 
L 130.071145 101.193892 
L 131.856586 105.338993 
L 133.600289 106.779697 
L 135.30416 101.354822 
L 136.96998 96.86092 
L 138.59941 98.803568 
L 140.194007 102.829905 
L 141.755228 107.201294 
L 143.284443 110.096825 
L 144.782936 105.899525 
L 146.25192 110.242085 
L 147.692532 111.497766 
L 149.105848 107.436142 
L 150.492884 109.617218 
L 151.8546 103.489451 
L 153.191902 106.040296 
L 154.505651 102.521163 
L 155.796662 105.860405 
L 157.065709 104.275519 
L 158.313527 104.388862 
L 159.540815 109.286807 
L 160.748236 109.858796 
L 161.936425 113.190165 
L 163.105984 111.162401 
L 163.41359 115.098565 
L 165.689829 117.330881 
L 166.80242 117.106927 
L 167.89866 121.352379 
L 168.979023 109.948551 
L 170.043962 110.247354 
L 171.093911 114.49189 
L 172.129287 117.899073 
L 173.150488 118.792155 
L 174.157898 115.242273 
L 175.151883 114.871073 
L 176.132797 114.767955 
L 177.10098 118.024882 
L 179.000442 108.904025 
L 179.932338 108.268014 
L 180.852735 103.741345 
L 181.761914 108.230056 
L 182.660145 112.079117 
L 183.547689 112.375502 
L 184.424796 117.558979 
L 185.29171 121.18799 
L 186.148665 101.713616 
L 186.995886 105.735382 
L 187.833593 103.723325 
L 188.661996 108.517784 
L 189.481301 110.918488 
L 190.291705 111.430527 
L 191.093398 115.095004 
L 191.886568 114.586302 
L 192.671392 116.500761 
L 193.448044 119.337956 
L 193.652991 124.27543 
L 194.419542 128.025455 
L 195.178296 132.920765 
L 195.92941 134.487774 
L 196.673037 137.978435 
L 197.409323 133.220269 
L 198.138412 132.505603 
L 198.860445 134.137541 
L 199.575555 130.624931 
L 200.283875 132.065809 
L 200.985532 127.141073 
L 201.680651 119.80537 
L 203.051752 127.552161 
L 203.727967 129.107381 
L 204.398106 133.254677 
L 205.72059 129.998664 
L 206.373142 133.770781 
L 207.020035 133.695198 
L 207.661366 126.854832 
L 208.29723 130.521341 
L 208.92772 131.251728 
L 209.552926 127.016623 
L 210.172934 125.142145 
L 210.787832 126.753591 
L 211.397703 130.934406 
L 212.002628 119.612531 
L 212.602686 120.020694 
L 213.197956 124.466481 
L 213.788514 123.204891 
L 214.374432 123.248606 
L 214.955785 121.382606 
L 215.109448 123.384444 
L 215.685122 128.339486 
L 216.256387 128.532165 
L 216.823311 133.502122 
L 217.944393 140.780001 
L 218.498679 133.374679 
L 219.048876 134.881003 
L 219.595045 133.735174 
L 220.137244 128.731537 
L 220.67553 130.553194 
L 221.20996 135.292862 
L 221.740588 138.677511 
L 222.267468 139.989583 
L 222.790653 143.036081 
L 223.310194 143.344349 
L 223.826141 148.248835 
L 224.338544 145.940589 
L 224.847451 146.478834 
L 225.35291 145.376341 
L 225.854967 141.730005 
L 226.353667 144.132898 
L 226.849056 142.714871 
L 227.341176 139.030641 
L 228.315782 136.777847 
L 228.798351 140.289516 
L 229.277819 142.27439 
L 229.754224 140.244813 
L 230.227606 138.97066 
L 230.698003 140.650332 
L 231.165452 144.244208 
L 231.62999 146.236253 
L 231.752898 150.9946 
L 232.213803 153.066754 
L 233.127157 159.858615 
L 234.029462 145.113295 
L 234.476555 149.304152 
L 234.920984 151.061253 
L 235.36278 154.08717 
L 235.801976 144.548967 
L 236.238601 143.858165 
L 236.672684 145.484823 
L 237.104257 147.621807 
L 237.533347 151.058546 
L 237.959982 142.822567 
L 238.384192 146.72382 
L 238.806003 151.662449 
L 239.225441 151.890615 
L 239.642535 155.386821 
L 240.057309 151.053401 
L 240.46979 143.927176 
L 241.287972 148.873906 
L 241.693721 141.861891 
L 242.097276 146.235708 
L 242.498659 140.60549 
L 242.897894 145.274791 
L 243.690011 151.850512 
L 244.473804 158.798996 
L 244.862634 160.68601 
L 245.249447 158.033828 
L 245.351858 162.408225 
L 246.498843 172.462778 
L 246.877286 172.051228 
L 247.253818 175.002249 
L 247.628459 175.05976 
L 248.001228 156.082412 
L 248.741223 165.673656 
L 249.108486 166.054182 
L 249.473949 168.47264 
L 249.837631 169.245655 
L 250.199548 166.596041 
L 250.918157 173.063194 
L 251.274882 171.908942 
L 251.983255 180.04146 
L 252.334934 178.366378 
L 252.684963 179.876556 
L 253.033358 177.636668 
L 253.380133 173.037395 
L 253.725303 172.521166 
L 254.068883 168.244079 
L 254.751332 172.128774 
L 255.09023 168.24591 
L 255.427595 169.995776 
L 255.763441 172.468372 
L 256.097781 176.45568 
L 256.43063 178.237452 
L 256.762 175.737531 
L 257.179291 181.455275 
L 257.507359 182.759205 
L 257.83399 177.873216 
L 258.159198 178.236393 
L 258.482994 171.681526 
L 258.805391 174.079436 
L 259.1264 172.411535 
L 259.446033 175.432962 
L 259.764303 179.611812 
L 260.081221 182.073157 
L 260.396798 177.754866 
L 261.023974 183.217124 
L 261.335596 188.043318 
L 261.645922 184.045677 
L 261.954962 185.428429 
L 262.262727 189.396993 
L 262.569227 190.293494 
L 262.874473 165.164531 
L 263.178475 160.846958 
L 263.481243 162.595654 
L 263.782787 163.612394 
L 264.083117 163.131857 
L 264.680174 169.853685 
L 264.97692 171.214366 
L 265.27249 165.092846 
L 265.860139 174.419283 
L 266.152237 170.411733 
L 266.733024 178.781375 
L 266.80982 183.343903 
L 267.09823 185.727081 
L 267.385529 184.832528 
L 267.671726 185.548332 
L 267.956828 182.058668 
L 268.240846 181.485739 
L 269.086466 188.674635 
L 269.366223 192.510578 
L 269.644934 194.345824 
L 269.922608 194.610807 
L 270.199252 186.408949 
L 270.474874 187.347249 
L 270.749481 189.839458 
L 271.023081 182.272231 
L 271.837911 195.479525 
L 272.107555 195.393962 
L 272.376227 193.880078 
L 272.643936 196.384411 
L 272.910687 190.719179 
L 273.176488 191.733649 
L 273.441345 187.465049 
L 273.705264 186.351568 
L 274.491467 198.301282 
L 275.011036 206.820693 
L 275.527011 196.25223 
L 275.595272 197.068798 
L 275.851692 193.897156 
L 276.361905 202.815397 
L 276.615709 206.25469 
L 276.868652 205.418982 
L 277.12074 206.708787 
L 277.371979 203.573621 
L 277.622375 203.387332 
L 277.871933 193.769222 
L 278.120659 189.044625 
L 278.368558 193.669306 
L 278.615636 193.86883 
L 278.861899 197.085945 
L 279.107351 193.279317 
L 279.351998 195.524381 
L 279.595845 199.688429 
L 279.838898 195.905455 
L 280.081162 197.474219 
L 280.322641 194.699894 
L 280.563341 189.725787 
L 280.803267 190.7226 
L 281.042423 184.080229 
L 281.280816 181.596467 
L 281.518449 182.443934 
L 282.226839 193.763533 
L 282.461482 190.089984 
L 282.928565 196.19442 
L 283.392741 203.801092 
L 283.454173 201.778382 
L 283.9151 210.477901 
L 284.1445 213.08431 
L 284.373197 214.285928 
L 284.601195 209.239579 
L 284.828498 198.370284 
L 285.05511 202.100457 
L 285.281036 202.068199 
L 285.50628 206.85907 
L 285.730846 204.498606 
L 285.954738 198.004731 
L 286.17796 201.188869 
L 286.400515 194.432599 
L 287.284157 207.440019 
L 287.503442 205.483496 
L 288.157454 216.33418 
L 288.37419 214.364629 
L 288.590298 211.202078 
L 288.805782 212.387553 
L 289.234891 216.359427 
L 289.448524 214.223773 
L 289.661546 210.819036 
L 289.873962 213.442533 
L 290.085774 213.282328 
L 290.296987 210.439894 
L 290.507604 211.654667 
L 290.563449 214.839881 
L 290.773315 207.331914 
L 291.191285 215.537798 
L 291.399395 213.703586 
L 291.813882 218.810848 
L 292.020264 210.252848 
L 292.226078 212.488374 
L 292.636008 221.048938 
L 292.840132 221.0377 
L 293.246711 225.467832 
L 293.449173 224.619348 
L 293.651086 221.700962 
L 294.253568 228.390248 
L 294.453319 221.912532 
L 294.652536 221.117359 
L 294.851223 225.134246 
L 295.049382 221.86742 
L 295.444127 228.0135 
L 295.836795 224.926903 
L 296.032356 211.769827 
L 296.227406 212.325883 
L 296.421947 210.894426 
L 296.615982 215.716033 
L 296.809514 217.724794 
L 297.002545 216.460774 
L 297.246136 221.328598 
L 297.438042 217.25722 
L 297.629456 221.487623 
L 297.820379 222.798161 
L 298.010815 219.604882 
L 298.200766 220.125574 
L 298.390235 207.806538 
L 298.767735 210.487451 
L 298.955771 205.705412 
L 299.143334 207.152815 
L 299.330427 211.538584 
L 299.517051 213.191329 
L 299.70321 208.496024 
L 299.888905 198.241927 
L 300.627098 211.170119 
L 300.993474 219.045267 
L 301.175988 208.878167 
L 301.358058 208.780029 
L 301.539684 208.330408 
L 301.720869 204.475387 
L 301.901615 209.375533 
L 302.081924 207.308827 
L 302.261798 208.907212 
L 302.976989 226.081071 
L 303.02424 222.351963 
L 303.555833 232.833383 
L 303.732193 231.971272 
L 304.083665 222.240345 
L 304.258782 226.899186 
L 304.78168 219.560083 
L 305.300938 231.667594 
L 305.473224 228.592786 
L 306.158416 242.589175 
L 306.498666 235.449288 
L 306.668211 238.507937 
L 306.837371 236.907576 
L 307.006149 220.633112 
L 307.174546 221.449925 
L 307.510203 228.260965 
L 307.677466 218.881017 
L 307.844356 217.641694 
L 308.010873 209.195392 
L 308.881609 230.659378 
L 309.045829 228.444024 
L 309.536331 233.358505 
L 309.86155 238.437004 
L 310.023629 237.800752 
L 310.185357 231.877373 
L 310.507765 239.882839 
L 310.668447 239.394405 
L 310.988778 231.260283 
L 311.148429 229.826862 
L 311.307739 231.044588 
L 311.466709 230.735692 
L 311.625342 224.904059 
L 311.783638 228.241048 
L 311.941598 223.318501 
L 312.413483 233.118727 
L 312.570117 234.456556 
L 312.882401 240.76797 
L 313.038054 241.57658 
L 313.34839 248.634002 
L 313.503075 247.862483 
L 313.698389 249.480182 
L 313.852351 252.662603 
L 314.005995 252.54775 
L 314.312338 258.210287 
L 314.465039 257.73706 
L 314.617428 258.49098 
L 314.769506 260.041644 
L 315.072736 246.108599 
L 315.22389 244.836393 
L 315.675522 256.843034 
L 315.825461 256.732654 
L 315.975098 258.446289 
L 316.124437 256.350885 
L 316.422219 261.697984 
L 316.570666 261.853268 
L 316.866675 255.470755 
L 317.014241 256.479804 
L 317.161515 253.372476 
L 317.455194 255.585856 
L 317.747722 259.804934 
L 317.893556 263.148035 
L 318.039106 261.926943 
L 318.184373 264.774964 
L 318.329357 247.000387 
L 318.47406 247.639583 
L 318.656799 253.447519 
L 318.800868 255.028136 
L 318.94466 258.387444 
L 319.088176 254.517599 
L 319.231416 240.736488 
L 319.374381 241.357368 
L 319.801641 251.203906 
L 320.085127 255.725345 
L 320.226467 255.578362 
L 320.508346 244.890273 
L 320.648887 245.359951 
L 320.789164 246.971592 
L 321.068929 255.643868 
L 321.208418 252.874023 
L 321.347648 256.449158 
L 321.486618 255.551988 
L 321.901982 261.122875 
L 322.039924 260.517652 
L 322.177612 258.30134 
L 322.315046 259.63903 
L 322.589156 255.977266 
L 322.725835 258.085705 
L 322.862263 256.352 
L 323.170439 267.325483 
L 323.306057 261.757776 
L 323.71144 271.204367 
L 324.248545 276.7548 
L 324.515655 261.607799 
L 325.311291 279.850553 
L 325.443076 279.791897 
L 325.83704 260.667266 
L 325.9679 263.517514 
L 326.228934 255.514083 
L 326.359109 254.116391 
L 326.61878 247.814551 
L 326.748277 239.859966 
L 326.877549 241.633512 
L 327.135425 246.817468 
L 327.298152 251.388587 
L 328.064806 269.95396 
L 328.318616 277.334102 
L 328.571566 268.711334 
L 328.69772 269.533273 
L 328.94939 275.679772 
L 329.074907 274.514698 
L 329.325309 280.524038 
L 329.450196 279.047475 
L 329.699343 284.487922 
L 329.823606 279.645139 
L 329.947662 269.290355 
L 330.071512 271.429083 
L 330.195156 265.776432 
L 330.441832 272.163184 
L 330.564865 271.47321 
L 330.687695 272.138703 
L 330.810324 274.585869 
L 330.932751 272.588356 
L 331.054977 273.034308 
L 331.177003 271.179757 
L 331.574112 279.907723 
L 331.937065 287.310243 
L 332.057658 291.232034 
L 332.178057 284.107196 
L 332.418272 287.481099 
L 332.538091 286.27105 
L 332.777152 276.979253 
L 332.896395 280.223448 
L 333.015449 278.732638 
L 333.252987 271.53058 
L 333.371473 274.188892 
L 333.489771 265.327036 
L 333.843544 270.239618 
L 333.961097 267.917046 
L 334.078464 271.706401 
L 334.312647 263.233985 
L 334.429463 264.369871 
L 334.546096 261.415759 
L 335.126544 281.598181 
L 335.272756 276.794654 
L 335.618193 283.25652 
L 335.847598 273.414888 
L 336.190389 282.244984 
L 336.304304 274.383543 
L 336.418045 274.809248 
L 336.531612 277.295619 
L 336.645007 269.010884 
L 337.096871 280.652161 
L 337.433982 286.599042 
L 337.546014 285.547049 
L 337.657879 287.533567 
L 337.881106 280.491681 
L 338.214699 289.153898 
L 338.546806 297.963106 
L 338.767393 290.533283 
L 338.906647 275.800686 
L 339.016491 268.440876 
L 339.235695 272.955127 
L 339.345055 270.582029 
L 339.563298 275.158349 
L 339.67218 274.811622 
L 339.780903 272.949246 
L 340.106125 280.854774 
L 340.214218 272.511738 
L 340.322155 276.092822 
L 340.429936 274.663153 
L 340.752347 283.230201 
L 340.859508 282.94505 
L 341.073371 267.158085 
L 341.180072 266.481138 
L 341.393018 271.514744 
L 341.499264 271.160924 
L 341.605359 264.447226 
L 341.711302 265.395895 
L 341.92274 271.521563 
L 342.028234 272.225887 
L 342.238776 278.623311 
L 342.371704 286.667964 
L 342.476565 285.943113 
L 342.58128 281.429789 
L 342.894545 289.493096 
L 342.998674 290.119555 
L 343.413746 301.970369 
L 343.517154 300.53647 
L 343.620419 296.034076 
L 343.723541 296.975359 
L 343.929359 303.005916 
L 344.13461 298.454688 
L 344.237025 298.731442 
L 344.441432 301.877312 
L 344.543427 277.035154 
L 344.645282 280.566507 
L 344.746998 271.956327 
L 345.051316 282.489362 
L 345.253507 288.341856 
L 345.354398 283.375077 
L 345.582475 289.590311 
L 345.783234 285.136147 
L 345.883411 283.013992 
L 346.382288 296.780575 
L 346.481665 295.260905 
L 346.680021 298.200639 
L 346.779002 297.647476 
L 346.97657 291.263375 
L 347.173617 297.643486 
L 347.271945 297.071559 
L 347.370144 295.83544 
L 347.468214 297.94068 
L 347.566155 297.685991 
L 347.761652 292.541882 
L 347.859209 293.72344 
L 347.956639 293.250193 
L 348.053941 294.994607 
L 348.151117 293.183082 
L 348.248166 294.331273 
L 348.538558 300.695629 
L 348.635105 296.165671 
L 348.757118 276.792559 
L 348.853382 280.619974 
L 348.949522 284.252058 
L 349.045539 281.937404 
L 349.045539 281.937404 
" clip-path="url(#p1d559268fb)" style="fill: none; stroke: #1f77b4; stroke-opacity: 0.4; stroke-linecap: square"/>
   </g>
   <g id="line2d_38">
    <path d="M -1 42.721208 
L 7.809782 45.337179 
L 16.579577 50.835272 
L 24.425951 43.301246 
L 31.524975 44.880023 
L 38.006717 48.396702 
L 43.969992 55.642144 
L 49.491634 62.69234 
L 54.63257 64.099053 
L 59.44193 60.123052 
L 63.959906 65.440808 
L 68.219797 69.720206 
L 72.249503 73.395896 
L 79.709329 84.974474 
L 83.17694 88.051599 
L 86.49049 89.456332 
L 89.663088 91.921587 
L 95.630091 102.039694 
L 98.443649 105.261769 
L 101.15493 98.397846 
L 103.771111 101.902356 
L 106.298637 103.881158 
L 108.743321 105.172339 
L 111.110421 108.739299 
L 111.726757 110.351051 
L 114.002454 114.211176 
L 116.210774 118.61955 
L 118.355594 119.455683 
L 120.440464 118.708195 
L 122.468644 123.120724 
L 124.443135 122.691629 
L 126.366706 126.5847 
L 128.241919 125.898123 
L 130.071145 128.918559 
L 131.856586 128.605002 
L 133.600289 128.893973 
L 135.30416 131.409689 
L 136.96998 126.521586 
L 138.59941 130.138406 
L 141.755228 137.819627 
L 143.284443 137.44629 
L 144.782936 140.195482 
L 146.25192 140.921904 
L 147.692532 143.335655 
L 149.105848 144.991551 
L 150.492884 147.05507 
L 151.8546 150.681215 
L 153.191902 152.06277 
L 154.505651 154.120455 
L 155.796662 154.574478 
L 157.065709 157.417834 
L 158.313527 159.895887 
L 159.540815 155.750155 
L 160.748236 150.870887 
L 161.936425 154.696925 
L 163.105984 155.512713 
L 163.41359 145.59503 
L 164.560391 139.483025 
L 165.689829 142.580223 
L 166.80242 144.629379 
L 167.89866 147.191925 
L 168.979023 151.270487 
L 170.043962 148.610621 
L 171.093911 142.928108 
L 174.157898 152.943072 
L 175.151883 150.007334 
L 176.132797 139.893382 
L 177.10098 140.077613 
L 178.056757 143.262216 
L 179.000442 146.989196 
L 179.932338 149.635835 
L 180.852735 153.69801 
L 181.761914 149.823344 
L 182.660145 151.607683 
L 183.547689 153.879292 
L 184.424796 151.141009 
L 185.29171 146.649072 
L 186.148665 148.198222 
L 188.661996 160.292344 
L 189.481301 163.661333 
L 190.291705 158.834005 
L 191.093398 148.865031 
L 191.886568 152.833078 
L 192.671392 151.003292 
L 193.448044 153.949253 
L 193.652991 156.722016 
L 194.419542 152.710092 
L 195.178296 152.90287 
L 198.138412 168.508303 
L 198.860445 169.877962 
L 199.575555 164.713145 
L 200.283875 166.014117 
L 200.985532 167.633123 
L 202.369352 173.598873 
L 203.051752 169.072526 
L 203.727967 168.777881 
L 204.398106 168.886148 
L 205.062279 167.38159 
L 205.72059 170.251928 
L 207.020035 177.471882 
L 207.661366 170.152859 
L 208.29723 161.254639 
L 208.92772 165.019276 
L 210.787832 173.152846 
L 211.397703 176.450387 
L 212.602686 174.696634 
L 213.197956 167.528793 
L 213.788514 165.566296 
L 214.374432 168.004878 
L 214.955785 168.248841 
L 215.109448 169.401486 
L 215.685122 167.658994 
L 216.256387 157.812519 
L 217.385958 164.489118 
L 217.944393 160.657578 
L 218.498679 159.612025 
L 219.048876 160.444441 
L 219.595045 161.055567 
L 220.137244 163.647279 
L 220.67553 163.672914 
L 221.20996 162.266946 
L 221.740588 162.943741 
L 222.267468 163.957004 
L 222.790653 166.505847 
L 223.310194 162.671541 
L 223.826141 166.443372 
L 224.338544 169.310931 
L 224.847451 167.738484 
L 225.854967 173.990028 
L 226.353667 173.647061 
L 226.849056 171.149252 
L 227.341176 165.157692 
L 227.830071 169.169732 
L 228.315782 172.051597 
L 228.798351 167.934015 
L 229.277819 171.854893 
L 229.754224 173.51237 
L 230.227606 172.481986 
L 230.698003 175.062839 
L 231.165452 170.815407 
L 231.62999 173.109459 
L 231.752898 175.628424 
L 232.213803 178.888796 
L 232.671878 170.922014 
L 233.127157 169.9642 
L 233.579674 171.380555 
L 234.029462 175.284054 
L 234.476555 171.523661 
L 234.920984 174.805744 
L 235.36278 176.181302 
L 235.801976 179.840748 
L 236.238601 176.501323 
L 237.104257 183.337856 
L 237.533347 182.958765 
L 237.959982 184.247859 
L 238.806003 190.425 
L 239.225441 180.374639 
L 239.642535 176.126284 
L 240.057309 173.975647 
L 240.46979 174.529484 
L 240.880003 168.409809 
L 241.287972 170.823051 
L 241.693721 168.132365 
L 242.097276 172.068913 
L 242.498659 173.441885 
L 242.897894 171.449407 
L 243.295004 173.821119 
L 243.690011 175.480221 
L 244.082937 171.460004 
L 244.862634 178.175915 
L 245.249447 179.120168 
L 245.351858 179.95786 
L 245.736149 178.576774 
L 246.118471 182.450461 
L 246.498843 184.106888 
L 246.877286 180.573118 
L 247.253818 183.843316 
L 247.628459 182.53007 
L 248.372143 186.831766 
L 248.741223 188.327713 
L 249.473949 185.883609 
L 249.837631 179.807148 
L 250.199548 176.129506 
L 250.559718 179.131292 
L 250.918157 179.414859 
L 251.274882 181.528392 
L 251.983255 187.565613 
L 252.334934 188.067537 
L 253.033358 193.785281 
L 253.380133 197.077294 
L 253.725303 192.639525 
L 254.410888 198.411611 
L 254.751332 193.086726 
L 255.09023 195.531744 
L 255.427595 196.529963 
L 255.763441 198.005207 
L 256.097781 188.812921 
L 256.43063 184.580004 
L 256.762 187.95093 
L 256.849773 190.284692 
L 257.179291 192.473938 
L 257.507359 190.786439 
L 257.83399 190.33054 
L 258.159198 185.039195 
L 258.482994 184.875381 
L 258.805391 186.571756 
L 259.446033 192.747643 
L 259.764303 194.978762 
L 260.081221 185.281376 
L 260.396798 188.081479 
L 260.711045 182.169464 
L 261.954962 192.148298 
L 262.262727 194.914594 
L 262.569227 195.71171 
L 262.874473 197.142775 
L 263.178475 200.25186 
L 263.481243 197.229946 
L 264.382243 201.793664 
L 264.680174 197.529319 
L 265.27249 203.081585 
L 265.566893 198.225523 
L 265.860139 198.646646 
L 266.152237 196.994025 
L 266.733024 202.583406 
L 266.80982 197.699303 
L 267.09823 197.525881 
L 267.385529 198.959433 
L 267.671726 185.227918 
L 267.956828 187.181678 
L 268.240846 190.245282 
L 268.523786 189.693163 
L 268.805656 193.201662 
L 269.086466 194.716722 
L 269.366223 192.320053 
L 269.922608 198.336231 
L 270.749481 204.901179 
L 271.023081 199.789549 
L 271.837911 208.151604 
L 272.107555 208.079425 
L 272.376227 202.982769 
L 272.643936 202.022086 
L 272.910687 195.461552 
L 273.176488 192.387581 
L 273.441345 185.179913 
L 273.705264 185.575872 
L 273.968254 180.653578 
L 274.230319 182.365679 
L 274.491467 186.428542 
L 274.751704 188.301779 
L 275.011036 192.045008 
L 275.26947 193.975566 
L 275.527011 190.888022 
L 275.595272 193.606668 
L 275.851692 192.022941 
L 276.107235 195.623085 
L 276.361905 194.362266 
L 276.615709 196.545206 
L 276.868652 191.375424 
L 277.12074 192.56511 
L 277.371979 195.089392 
L 277.622375 198.898207 
L 277.871933 197.905651 
L 278.120659 198.135365 
L 278.368558 201.435538 
L 278.615636 201.695126 
L 278.861899 197.549145 
L 279.351998 203.744033 
L 279.595845 203.353273 
L 279.838898 205.944327 
L 280.081162 193.355813 
L 280.563341 199.983403 
L 280.803267 199.651141 
L 281.042423 203.252196 
L 281.518449 194.85533 
L 282.226839 205.245895 
L 282.461482 196.682097 
L 282.695389 200.184052 
L 282.928565 201.92887 
L 283.392741 207.94585 
L 283.454173 200.73041 
L 283.9151 206.272379 
L 284.1445 206.796864 
L 284.373197 207.7435 
L 284.601195 210.299626 
L 284.828498 207.124779 
L 285.281036 214.168227 
L 285.50628 212.40631 
L 285.954738 215.785206 
L 286.17796 218.592278 
L 286.400515 212.617228 
L 286.843645 217.16265 
L 287.064226 213.037933 
L 287.284157 212.118968 
L 287.503442 214.565396 
L 287.722084 211.408192 
L 287.940087 211.617056 
L 288.37419 216.050747 
L 288.805782 212.701339 
L 289.234891 215.052869 
L 289.661546 218.0885 
L 290.085774 222.40235 
L 290.507604 223.457768 
L 290.563449 220.313424 
L 290.773315 219.640754 
L 290.982593 221.083783 
L 291.191285 218.334303 
L 291.399395 221.217723 
L 291.606926 216.031131 
L 292.020264 219.178502 
L 292.226078 213.387839 
L 292.431324 211.011998 
L 292.636008 210.588624 
L 293.246711 218.252551 
L 293.449173 213.831528 
L 293.651086 216.411081 
L 293.852455 208.710052 
L 294.053281 207.643719 
L 294.453319 211.483254 
L 294.652536 213.488756 
L 294.851223 213.877783 
L 295.247015 219.244472 
L 295.836795 225.421714 
L 296.032356 224.856889 
L 296.421947 228.638417 
L 296.615982 224.977801 
L 297.002545 229.586465 
L 297.053735 231.123387 
L 297.246136 229.545233 
L 297.438042 230.645682 
L 297.629456 227.95669 
L 297.820379 222.604249 
L 298.200766 223.949489 
L 298.390235 224.337274 
L 298.767735 228.3088 
L 299.330427 236.017942 
L 299.517051 235.917531 
L 299.70321 226.952223 
L 300.07414 230.608031 
L 300.258915 229.007846 
L 300.443234 231.039438 
L 300.627098 230.682131 
L 300.810511 231.642417 
L 300.993474 231.684996 
L 301.175988 232.586647 
L 301.358058 229.252143 
L 301.720869 233.196334 
L 301.901615 232.993194 
L 302.081924 235.041521 
L 302.261798 232.535205 
L 302.44124 233.811962 
L 302.620251 226.062136 
L 302.976989 231.31638 
L 303.02424 233.887836 
L 303.379056 228.842972 
L 303.908136 233.436635 
L 304.083665 235.607567 
L 304.258782 231.125551 
L 304.433489 232.377029 
L 304.607788 231.013675 
L 305.300938 239.099644 
L 305.473224 238.818631 
L 305.816607 241.374768 
L 305.987707 237.352738 
L 306.328735 242.17096 
L 306.498666 232.311919 
L 307.006149 237.40004 
L 307.174546 230.227803 
L 307.342563 232.958834 
L 307.510203 230.544053 
L 307.677466 233.082819 
L 307.844356 232.707379 
L 308.010873 234.214777 
L 308.177019 232.259447 
L 308.508205 234.247245 
L 308.55208 236.86343 
L 308.717027 237.864758 
L 309.045829 241.417725 
L 309.209689 243.109237 
L 309.373189 242.056085 
L 309.699118 225.801795 
L 309.86155 228.343282 
L 310.023629 223.836833 
L 310.668447 232.548111 
L 310.828785 233.776299 
L 310.988778 229.60507 
L 311.148429 232.407547 
L 311.307739 232.556922 
L 311.466709 231.815358 
L 311.625342 220.26924 
L 312.099225 228.306731 
L 312.256519 230.460596 
L 312.413483 223.971202 
L 312.726422 228.352753 
L 312.882401 225.445578 
L 313.34839 231.445316 
L 313.503075 228.369978 
L 313.698389 232.86348 
L 313.852351 232.803985 
L 314.617428 240.563917 
L 314.769506 238.972772 
L 314.921275 241.128118 
L 315.22389 234.084161 
L 315.525282 239.545425 
L 315.825461 232.558665 
L 315.975098 232.69052 
L 316.718817 244.05467 
L 316.866675 231.896561 
L 317.014241 234.624716 
L 317.161515 233.35723 
L 317.308499 235.702746 
L 317.455194 233.954414 
L 317.601601 234.642721 
L 317.893556 228.810839 
L 318.184373 234.856807 
L 318.329357 234.392547 
L 318.47406 235.926477 
L 318.656799 241.289748 
L 318.800868 243.331184 
L 318.94466 242.044311 
L 319.088176 245.20338 
L 319.231416 236.30729 
L 319.374381 235.268083 
L 319.517073 235.902816 
L 319.659493 238.305899 
L 319.801641 238.377676 
L 320.789164 253.189359 
L 321.068929 252.132132 
L 321.208418 252.424494 
L 321.486618 253.292261 
L 321.62533 250.327882 
L 321.763784 252.808057 
L 322.039924 244.200888 
L 322.177612 244.400008 
L 322.315046 246.625795 
L 322.452227 246.832988 
L 322.725835 245.029776 
L 322.862263 247.270466 
L 322.998443 246.752227 
L 323.034573 247.314496 
L 323.170439 246.874615 
L 323.306057 248.682022 
L 323.44143 247.87091 
L 323.576557 248.005025 
L 323.980476 254.071141 
L 324.114631 251.713798 
L 324.248545 252.764335 
L 324.515655 256.300907 
L 324.781811 248.59545 
L 324.914534 247.170499 
L 325.179273 251.621296 
L 325.311291 250.357759 
L 325.70595 256.678222 
L 325.83704 242.529482 
L 325.9679 243.442553 
L 326.098531 245.458748 
L 326.359109 242.386225 
L 326.489057 243.514659 
L 326.61878 243.434027 
L 327.264029 252.74669 
L 327.298152 251.843182 
L 327.426476 247.865044 
L 327.682464 253.05082 
L 327.810129 249.493607 
L 328.191819 257.096543 
L 328.318616 256.57017 
L 328.445199 258.301303 
L 328.571566 256.836762 
L 328.823661 252.304824 
L 329.074907 255.759626 
L 329.200213 256.441343 
L 329.325309 255.883991 
L 329.450196 257.92092 
L 329.574873 254.354668 
L 329.699343 254.479612 
L 329.823606 253.482771 
L 329.947662 256.199338 
L 330.195156 254.28065 
L 330.318596 254.901584 
L 330.441832 253.112791 
L 330.932751 259.573725 
L 331.054977 260.200882 
L 331.177003 262.52107 
L 331.298831 262.21974 
L 331.452733 264.432626 
L 331.574112 258.783638 
L 331.816277 261.364401 
L 331.937065 258.962135 
L 332.057658 260.155528 
L 332.298261 259.313479 
L 332.657717 265.021382 
L 332.777152 265.536413 
L 332.896395 267.342585 
L 333.015449 264.76944 
L 333.252987 267.403393 
L 333.371473 264.707437 
L 333.607882 257.184665 
L 333.843544 260.90781 
L 333.961097 258.504641 
L 334.078464 260.008303 
L 334.195647 258.08045 
L 334.429463 259.11503 
L 334.546096 261.778862 
L 334.662548 260.23411 
L 335.010815 266.951295 
L 335.126544 262.008255 
L 335.157254 264.154274 
L 335.272756 263.924263 
L 335.503225 268.002631 
L 335.618193 260.513121 
L 335.847598 261.836527 
L 336.076301 262.40442 
L 336.190389 261.690286 
L 336.304304 262.807024 
L 336.531612 257.020563 
L 336.645007 256.436554 
L 336.75823 256.6602 
L 336.871281 255.262809 
L 337.321781 263.816155 
L 337.433982 261.835335 
L 337.546014 262.389927 
L 337.769576 266.824506 
L 337.881106 263.193206 
L 337.992469 264.603669 
L 338.103667 264.085317 
L 338.214699 261.651909 
L 338.325566 263.593626 
L 338.436268 263.457552 
L 338.546806 262.935671 
L 338.796641 253.741461 
L 338.906647 253.955496 
L 339.126173 257.172608 
L 339.345055 259.900707 
L 339.67218 265.058266 
L 339.780903 263.36476 
L 339.889468 263.507888 
L 340.645031 272.458229 
L 340.752347 270.338487 
L 340.859508 262.062609 
L 341.073371 264.188664 
L 341.180072 262.069761 
L 341.393018 265.399392 
L 341.605359 264.750715 
L 341.817096 268.872334 
L 341.92274 267.429783 
L 342.028234 269.747659 
L 342.238776 268.938507 
L 342.371704 267.373661 
L 342.476565 267.3832 
L 342.790269 272.122908 
L 342.894545 269.741384 
L 342.998674 270.472894 
L 343.102659 268.807888 
L 343.206499 260.463394 
L 343.723541 268.687045 
L 343.826521 267.402759 
L 343.929359 267.643911 
L 344.13461 270.701002 
L 344.237025 270.63478 
L 344.441432 271.513074 
L 344.543427 271.309089 
L 344.645282 271.565853 
L 344.746998 272.164299 
L 344.848575 271.437838 
L 345.051316 272.536614 
L 345.455152 275.642365 
L 345.555771 275.501198 
L 345.582475 276.664401 
L 345.682922 276.549727 
L 345.783234 277.177062 
L 345.883411 278.579619 
L 346.083362 269.41172 
L 346.282779 273.477561 
L 346.382288 272.491938 
L 346.481665 274.31741 
L 346.580909 273.660104 
L 347.075159 279.413638 
L 347.173617 276.50091 
L 347.271945 278.26779 
L 347.370144 277.896098 
L 347.468214 278.569062 
L 347.566155 277.08398 
L 347.663968 277.155758 
L 347.761652 276.969323 
L 347.859209 277.070386 
L 348.248166 282.170325 
L 348.345089 283.307604 
L 348.441886 278.712616 
L 348.538558 279.259142 
L 348.635105 280.425134 
L 348.757118 277.831495 
L 349.045539 282.216859 
L 349.045539 282.216859 
" clip-path="url(#p1d559268fb)" style="fill: none; stroke: #ff7f0e; stroke-opacity: 0.4; stroke-linecap: square"/>
   </g>
   <g id="line2d_39">
    <path d="M -1 30.940424 
L 7.809782 34.841779 
L 16.579577 42.797243 
L 24.425951 51.279068 
L 31.524975 52.836635 
L 43.969992 67.046137 
L 59.44193 85.515465 
L 63.959906 86.543274 
L 68.219797 89.675753 
L 72.249503 95.015654 
L 76.07263 97.227226 
L 79.709329 99.81386 
L 83.17694 103.293925 
L 86.49049 107.623167 
L 89.663088 105.672024 
L 92.706238 108.375384 
L 95.630091 108.43477 
L 98.443649 110.710102 
L 101.15493 114.619984 
L 103.771111 111.397515 
L 106.298637 116.150403 
L 108.743321 114.969121 
L 111.110421 117.090423 
L 111.726757 121.143613 
L 114.002454 124.409044 
L 116.210774 128.732084 
L 118.355594 130.245952 
L 120.440464 124.60527 
L 122.468644 125.897168 
L 124.443135 129.253874 
L 126.366706 129.297592 
L 128.241919 132.609565 
L 130.071145 124.58657 
L 131.856586 128.501481 
L 133.600289 129.009769 
L 136.96998 136.440652 
L 138.59941 138.874524 
L 140.194007 136.006619 
L 141.755228 135.623122 
L 146.25192 145.394039 
L 147.692532 148.39398 
L 149.105848 150.975443 
L 150.492884 152.335983 
L 151.8546 156.111755 
L 154.505651 160.892804 
L 155.796662 159.829988 
L 158.313527 164.946353 
L 159.540815 165.999142 
L 160.748236 164.094534 
L 161.936425 158.758903 
L 163.105984 159.638715 
L 163.41359 162.062017 
L 164.560391 162.246818 
L 165.689829 164.856703 
L 166.80242 167.933766 
L 167.89866 167.745344 
L 168.979023 166.083388 
L 170.043962 168.73758 
L 171.093911 170.163624 
L 172.129287 172.735994 
L 173.150488 174.910376 
L 174.157898 175.810711 
L 175.151883 158.790105 
L 177.10098 148.530019 
L 179.000442 153.711587 
L 179.932338 152.998564 
L 180.852735 148.7748 
L 181.761914 152.001678 
L 182.660145 154.303745 
L 183.547689 154.279733 
L 184.424796 156.758603 
L 185.29171 158.651829 
L 186.148665 157.263915 
L 186.995886 161.153921 
L 187.833593 156.925981 
L 188.661996 158.816011 
L 189.481301 162.444765 
L 190.291705 161.078297 
L 191.093398 161.499271 
L 191.886568 164.76965 
L 192.671392 163.451053 
L 193.448044 164.914632 
L 193.652991 166.837419 
L 194.419542 160.483204 
L 195.178296 159.96986 
L 195.92941 155.073473 
L 197.409323 158.779066 
L 198.138412 146.782452 
L 198.860445 150.774045 
L 199.575555 149.527963 
L 200.283875 152.396516 
L 200.985532 156.240926 
L 201.680651 153.898793 
L 202.369352 157.199475 
L 203.051752 153.447473 
L 204.398106 159.765489 
L 205.062279 160.335887 
L 206.373142 165.209716 
L 207.661366 171.817118 
L 208.29723 167.069878 
L 209.552926 169.762723 
L 210.172934 168.13458 
L 210.787832 161.268406 
L 211.397703 164.677348 
L 212.002628 165.650738 
L 212.602686 169.336956 
L 213.197956 171.767194 
L 213.788514 165.115534 
L 214.374432 168.632896 
L 215.109448 163.532985 
L 215.685122 167.510515 
L 216.256387 165.044328 
L 217.385958 172.903189 
L 217.944393 175.906728 
L 218.498679 170.552948 
L 219.048876 166.586146 
L 219.595045 168.705775 
L 220.137244 172.609512 
L 220.67553 174.862117 
L 221.20996 171.822964 
L 221.740588 170.770764 
L 222.267468 167.963547 
L 222.790653 170.75088 
L 223.310194 172.814618 
L 223.826141 173.733416 
L 224.847451 176.287898 
L 225.35291 180.033174 
L 225.854967 177.475012 
L 226.353667 181.07813 
L 226.849056 183.761459 
L 227.341176 185.782509 
L 227.830071 183.733193 
L 228.315782 186.740553 
L 228.798351 185.892714 
L 229.277819 188.339289 
L 229.754224 189.606424 
L 230.227606 185.304279 
L 230.698003 175.610173 
L 231.165452 174.874299 
L 231.62999 178.495044 
L 231.752898 174.322853 
L 232.213803 176.363329 
L 232.671878 174.86571 
L 233.127157 177.470158 
L 233.579674 177.965944 
L 234.029462 179.218965 
L 234.476555 181.714637 
L 234.920984 183.141043 
L 235.36278 181.628479 
L 236.238601 188.407693 
L 236.672684 186.516492 
L 237.533347 192.610634 
L 237.959982 194.8708 
L 238.384192 194.582818 
L 238.806003 196.65596 
L 239.225441 182.479028 
L 239.642535 184.063997 
L 240.057309 180.418645 
L 240.46979 180.109116 
L 240.880003 182.993292 
L 241.287972 179.494654 
L 241.693721 177.867307 
L 242.097276 170.130443 
L 242.897894 178.243203 
L 243.295004 170.374584 
L 243.690011 171.577104 
L 244.082937 174.299884 
L 244.473804 174.453785 
L 245.249447 180.441508 
L 245.351858 180.21589 
L 245.736149 179.749289 
L 246.118471 181.305397 
L 246.877286 186.169871 
L 247.253818 186.428765 
L 248.001228 192.889928 
L 248.372143 182.284449 
L 248.741223 183.444989 
L 249.108486 180.171244 
L 249.473949 175.700012 
L 249.837631 178.768889 
L 250.199548 174.961185 
L 250.559718 173.034689 
L 250.918157 169.497266 
L 251.629909 174.772552 
L 251.983255 172.665206 
L 253.380133 186.755629 
L 253.725303 185.914382 
L 254.068883 180.695278 
L 254.751332 188.22592 
L 255.09023 189.225748 
L 255.427595 188.085161 
L 255.763441 190.910434 
L 256.43063 169.174472 
L 256.762 171.896175 
L 256.849773 171.00148 
L 257.179291 171.872523 
L 258.482994 186.843299 
L 258.805391 184.905805 
L 259.1264 185.646896 
L 259.764303 191.710245 
L 260.081221 183.745784 
L 260.396798 186.790034 
L 260.711045 188.703978 
L 261.023974 188.785265 
L 261.335596 186.981481 
L 261.645922 185.962453 
L 261.954962 187.393041 
L 262.262727 184.213806 
L 262.569227 185.973483 
L 262.874473 184.309132 
L 263.178475 183.445678 
L 263.481243 186.974171 
L 263.782787 187.962515 
L 264.083117 192.130038 
L 264.382243 191.116762 
L 264.680174 194.702374 
L 264.97692 195.581972 
L 265.566893 201.200648 
L 265.860139 198.304766 
L 266.443196 205.696358 
L 266.733024 205.474762 
L 266.80982 208.698094 
L 267.385529 214.448092 
L 267.671726 208.989611 
L 267.956828 210.235552 
L 268.240846 213.033401 
L 268.523786 212.173596 
L 268.805656 206.755439 
L 269.086466 206.236274 
L 269.644934 210.873205 
L 269.922608 212.284012 
L 270.199252 210.458031 
L 271.295681 220.79228 
L 271.567289 221.930949 
L 271.837911 220.232952 
L 272.107555 220.937409 
L 272.376227 221.053906 
L 272.643936 224.002926 
L 272.910687 224.360807 
L 273.176488 222.03466 
L 273.705264 224.768219 
L 273.968254 220.996311 
L 274.230319 223.161759 
L 274.491467 224.066686 
L 274.751704 217.694599 
L 275.011036 218.822858 
L 275.26947 222.155807 
L 275.527011 219.410189 
L 275.595272 219.659917 
L 275.851692 218.734174 
L 276.107235 212.982411 
L 276.361905 215.347885 
L 276.615709 218.799844 
L 276.868652 220.032897 
L 277.12074 219.4274 
L 277.871933 206.535851 
L 278.120659 210.555647 
L 278.368558 210.733929 
L 278.615636 196.177424 
L 278.861899 195.576474 
L 279.107351 199.699631 
L 279.351998 197.208348 
L 279.595845 198.112509 
L 280.081162 205.752517 
L 280.322641 199.623623 
L 280.563341 203.861643 
L 280.803267 200.26552 
L 281.280816 207.743824 
L 281.518449 208.111048 
L 281.755327 208.250413 
L 281.991455 205.372378 
L 283.161014 219.270532 
L 283.392741 218.220849 
L 283.454173 216.056951 
L 283.684993 217.46567 
L 283.9151 217.939255 
L 284.1445 213.713872 
L 284.373197 214.751663 
L 284.828498 220.889419 
L 285.05511 222.331066 
L 285.281036 221.551745 
L 285.50628 221.750891 
L 285.954738 228.145862 
L 286.622409 234.173359 
L 286.843645 225.969989 
L 287.064226 225.37201 
L 287.284157 222.854669 
L 287.503442 222.853707 
L 287.940087 228.647443 
L 288.37419 232.083611 
L 288.590298 234.826952 
L 288.805782 234.786191 
L 289.020645 235.272793 
L 289.661546 240.705492 
L 289.873962 239.481973 
L 290.296987 235.176145 
L 290.507604 235.705438 
L 290.563449 223.945275 
L 290.773315 227.361061 
L 290.982593 223.513583 
L 291.191285 226.433279 
L 291.399395 226.027894 
L 291.606926 229.611253 
L 291.813882 230.817565 
L 292.020264 227.146301 
L 292.226078 229.785402 
L 292.431324 230.390202 
L 292.636008 223.329341 
L 292.840132 224.42032 
L 293.449173 232.931865 
L 293.651086 231.498827 
L 293.852455 231.315499 
L 294.053281 233.916525 
L 294.253568 216.802307 
L 294.453319 218.907199 
L 294.851223 225.717139 
L 295.049382 225.394593 
L 295.247015 228.55734 
L 295.444127 227.229614 
L 295.640719 229.558257 
L 295.836795 229.14226 
L 296.032356 231.661509 
L 296.421947 222.876203 
L 296.615982 218.050437 
L 297.246136 229.407011 
L 297.438042 233.023863 
L 297.820379 229.847554 
L 298.010815 230.663918 
L 298.200766 229.803724 
L 299.143334 236.987863 
L 299.888905 243.508205 
L 300.07414 239.093513 
L 300.258915 237.662379 
L 300.443234 239.599211 
L 300.627098 234.515159 
L 301.175988 242.477146 
L 301.358058 242.086633 
L 301.539684 243.194965 
L 301.720869 236.211519 
L 302.081924 238.018867 
L 302.261798 236.214588 
L 302.44124 232.06873 
L 302.620251 233.95747 
L 302.798833 233.471714 
L 303.201859 240.356368 
L 303.732193 249.422051 
L 304.083665 252.564086 
L 304.258782 250.061721 
L 304.433489 251.188633 
L 304.607788 249.326149 
L 305.300938 256.060589 
L 305.645113 260.039501 
L 305.816607 257.366239 
L 306.158416 262.499918 
L 306.498666 255.218611 
L 307.174546 263.039769 
L 307.342563 264.408099 
L 307.510203 261.491435 
L 307.677466 254.172807 
L 307.844356 256.552388 
L 308.010873 251.247725 
L 308.177019 252.418307 
L 308.342796 250.325714 
L 308.508205 250.589495 
L 308.55208 240.796666 
L 308.717027 243.979791 
L 308.881609 244.430499 
L 309.045829 247.4262 
L 309.209689 247.10303 
L 309.373189 250.546518 
L 309.699118 251.891791 
L 309.86155 244.81615 
L 310.988778 261.104446 
L 311.148429 260.327161 
L 311.625342 267.140498 
L 311.783638 268.432902 
L 311.941598 254.401934 
L 312.099225 256.185531 
L 312.570117 263.743067 
L 312.726422 264.328529 
L 312.882401 264.402449 
L 313.038054 258.426835 
L 313.503075 265.165852 
L 313.698389 259.993485 
L 314.005995 265.290154 
L 314.159324 265.368821 
L 314.465039 255.321403 
L 314.617428 257.305459 
L 314.769506 257.686988 
L 315.072736 252.157538 
L 315.525282 260.354408 
L 315.675522 259.331645 
L 316.422219 270.631669 
L 316.570666 270.2339 
L 316.718817 267.602344 
L 317.014241 271.032013 
L 317.161515 271.669416 
L 317.455194 275.26079 
L 317.601601 274.270942 
L 317.893556 276.675582 
L 318.184373 268.604806 
L 318.656799 272.635511 
L 318.800868 263.764147 
L 319.231416 268.767894 
L 319.374381 268.405427 
L 319.659493 262.844661 
L 320.085127 270.954005 
L 320.367539 268.636399 
L 320.508346 269.476953 
L 320.789164 274.375242 
L 320.929177 270.859422 
L 321.068929 270.45903 
L 321.208418 273.117065 
L 321.347648 269.930637 
L 321.62533 271.333186 
L 321.763784 271.431002 
L 322.452227 280.694913 
L 322.589156 282.628013 
L 322.998443 271.291279 
L 323.034573 273.67129 
L 323.170439 274.144273 
L 323.44143 277.724157 
L 323.576557 274.580383 
L 323.71144 266.907322 
L 323.846079 266.192619 
L 324.382219 277.048315 
L 324.515655 263.054047 
L 325.179273 274.655079 
L 325.311291 274.419768 
L 325.443076 277.198447 
L 325.574629 276.664218 
L 325.70595 277.225126 
L 325.83704 277.016528 
L 325.9679 274.831375 
L 326.098531 276.824147 
L 326.228934 275.371885 
L 326.359109 276.228535 
L 326.489057 271.100305 
L 326.61878 272.983924 
L 326.748277 269.738359 
L 326.877549 269.326969 
L 327.006599 269.60929 
L 327.135425 271.503507 
L 327.264029 269.472598 
L 327.426476 272.02498 
L 328.064806 281.156094 
L 328.191819 279.603511 
L 328.318616 280.082468 
L 328.445199 282.178985 
L 328.571566 280.955891 
L 328.823661 284.382715 
L 328.94939 284.086365 
L 329.200213 274.805951 
L 329.325309 274.627461 
L 329.450196 266.88944 
L 329.699343 271.735176 
L 329.947662 275.433432 
L 330.071512 269.552626 
L 330.195156 271.196808 
L 330.318596 271.24035 
L 330.441832 270.808764 
L 330.564865 268.83741 
L 330.810324 272.477547 
L 331.054977 265.241473 
L 331.298831 271.431872 
L 331.331158 270.732474 
L 331.452733 272.987201 
L 331.574112 269.322868 
L 331.937065 275.318913 
L 332.178057 276.636315 
L 332.538091 284.566207 
L 332.657717 284.426486 
L 332.777152 286.25476 
L 332.896395 279.765223 
L 333.015449 280.039149 
L 333.489771 284.769144 
L 333.607882 286.746227 
L 333.725806 285.55712 
L 333.843544 287.779205 
L 334.078464 277.728661 
L 334.195647 279.503463 
L 334.312647 279.211083 
L 334.429463 280.139939 
L 334.778818 285.378145 
L 334.894907 277.724677 
L 335.732984 294.243509 
L 335.847598 293.561034 
L 335.962037 293.810636 
L 336.076301 295.003711 
L 336.304304 299.373856 
L 336.418045 298.233799 
L 336.984161 304.302066 
L 337.096871 302.352319 
L 337.321781 304.277549 
L 337.433982 305.211756 
L 337.546014 303.965628 
L 337.992469 308.192288 
L 338.103667 295.357955 
L 338.214699 295.5905 
L 338.546806 298.371812 
L 338.767393 300.689181 
L 338.906647 298.923455 
L 339.016491 299.190686 
L 339.126173 298.409922 
L 339.235695 299.632598 
L 339.345055 297.631196 
L 339.454256 299.734701 
L 339.67218 296.128659 
L 339.889468 295.728798 
L 340.106125 299.534771 
L 340.214218 299.420096 
L 340.429936 302.108291 
L 340.537561 302.177093 
L 340.645031 298.701693 
L 340.752347 300.277381 
L 340.859508 299.63384 
L 341.180072 300.693955 
L 341.286621 301.902471 
L 341.393018 293.632801 
L 341.817096 301.368893 
L 341.92274 300.862923 
L 342.028234 298.033583 
L 342.685848 309.19898 
L 342.790269 308.725341 
L 342.998674 305.402991 
L 343.102659 302.753454 
L 343.206499 303.676313 
L 343.310195 299.224155 
L 343.723541 303.504963 
L 343.826521 303.702291 
L 343.929359 305.337255 
L 344.032055 300.732821 
L 344.339299 304.581591 
L 344.645282 297.462126 
L 344.746998 297.707262 
L 344.848575 295.32398 
L 345.15248 301.34528 
L 345.253507 297.324915 
L 345.354398 298.532329 
L 345.455152 289.273779 
L 345.682922 293.625176 
L 345.983453 300.13383 
L 346.083362 300.40971 
L 346.183137 298.91206 
L 346.282779 299.790932 
L 346.779002 308.432143 
L 346.877851 305.541591 
L 346.97657 305.582266 
L 347.370144 301.716891 
L 347.468214 303.533569 
L 347.566155 302.795132 
L 347.663968 294.711694 
L 348.053941 304.430377 
L 348.151117 304.487736 
L 348.248166 300.657685 
L 348.345089 302.99339 
L 348.441886 302.875343 
L 348.538558 303.438671 
L 348.853382 308.645001 
L 349.045539 301.33303 
L 349.045539 301.33303 
" clip-path="url(#p1d559268fb)" style="fill: none; stroke: #2ca02c; stroke-opacity: 0.4; stroke-linecap: square"/>
   </g>
   <g id="patch_3">
    <path d="M 57.6 307.584 
L 57.6 41.472 
" style="fill: none; stroke: #000000; stroke-width: 0.8; stroke-linejoin: miter; stroke-linecap: square"/>
   </g>
   <g id="patch_4">
    <path d="M 414.72 307.584 
L 414.72 41.472 
" style="fill: none; stroke: #000000; stroke-width: 0.8; stroke-linejoin: miter; stroke-linecap: square"/>
   </g>
   <g id="patch_5">
    <path d="M 57.6 307.584 
L 414.72 307.584 
" style="fill: none; stroke: #000000; stroke-width: 0.8; stroke-linejoin: miter; stroke-linecap: square"/>
   </g>
   <g id="patch_6">
    <path d="M 57.6 41.472 
L 414.72 41.472 
" style="fill: none; stroke: #000000; stroke-width: 0.8; stroke-linejoin: miter; stroke-linecap: square"/>
   </g>
   <g id="text_8">
    <!-- 2025-02-21-00:25:38 -->
    <g transform="translate(172.178438 35.472) scale(0.12 -0.12)">
     <defs>
      <path id="DejaVuSans-2d" d="M 313 2009 
L 1997 2009 
L 1997 1497 
L 313 1497 
L 313 2009 
z
" transform="scale(0.015625)"/>
      <path id="DejaVuSans-3a" d="M 750 794 
L 1409 794 
L 1409 0 
L 750 0 
L 750 794 
z
M 750 3309 
L 1409 3309 
L 1409 2516 
L 750 2516 
L 750 3309 
z
" transform="scale(0.015625)"/>
      <path id="DejaVuSans-38" d="M 2034 2216 
Q 1584 2216 1326 1975 
Q 1069 1734 1069 1313 
Q 1069 891 1326 650 
Q 1584 409 2034 409 
Q 2484 409 2743 651 
Q 3003 894 3003 1313 
Q 3003 1734 2745 1975 
Q 2488 2216 2034 2216 
z
M 1403 2484 
Q 997 2584 770 2862 
Q 544 3141 544 3541 
Q 544 4100 942 4425 
Q 1341 4750 2034 4750 
Q 2731 4750 3128 4425 
Q 3525 4100 3525 3541 
Q 3525 3141 3298 2862 
Q 3072 2584 2669 2484 
Q 3125 2378 3379 2068 
Q 3634 1759 3634 1313 
Q 3634 634 3220 271 
Q 2806 -91 2034 -91 
Q 1263 -91 848 271 
Q 434 634 434 1313 
Q 434 1759 690 2068 
Q 947 2378 1403 2484 
z
M 1172 3481 
Q 1172 3119 1398 2916 
Q 1625 2713 2034 2713 
Q 2441 2713 2670 2916 
Q 2900 3119 2900 3481 
Q 2900 3844 2670 4047 
Q 2441 4250 2034 4250 
Q 1625 4250 1398 4047 
Q 1172 3844 1172 3481 
z
" transform="scale(0.015625)"/>
     </defs>
     <use xlink:href="#DejaVuSans-32"/>
     <use xlink:href="#DejaVuSans-30" x="63.623047"/>
     <use xlink:href="#DejaVuSans-32" x="127.246094"/>
     <use xlink:href="#DejaVuSans-35" x="190.869141"/>
     <use xlink:href="#DejaVuSans-2d" x="254.492188"/>
     <use xlink:href="#DejaVuSans-30" x="290.576172"/>
     <use xlink:href="#DejaVuSans-32" x="354.199219"/>
     <use xlink:href="#DejaVuSans-2d" x="417.822266"/>
     <use xlink:href="#DejaVuSans-32" x="453.90625"/>
     <use xlink:href="#DejaVuSans-31" x="517.529297"/>
     <use xlink:href="#DejaVuSans-2d" x="581.152344"/>
     <use xlink:href="#DejaVuSans-30" x="617.236328"/>
     <use xlink:href="#DejaVuSans-30" x="680.859375"/>
     <use xlink:href="#DejaVuSans-3a" x="744.482422"/>
     <use xlink:href="#DejaVuSans-32" x="778.173828"/>
     <use xlink:href="#DejaVuSans-35" x="841.796875"/>
     <use xlink:href="#DejaVuSans-3a" x="905.419922"/>
     <use xlink:href="#DejaVuSans-33" x="939.111328"/>
     <use xlink:href="#DejaVuSans-38" x="1002.734375"/>
    </g>
   </g>
   <g id="legend_1">
    <g id="patch_7">
     <path d="M 281.596563 94.34075 
L 407.72 94.34075 
Q 409.72 94.34075 409.72 92.34075 
L 409.72 48.472 
Q 409.72 46.472 407.72 46.472 
L 281.596563 46.472 
Q 279.596563 46.472 279.596563 48.472 
L 279.596563 92.34075 
Q 279.596563 94.34075 281.596563 94.34075 
z
" style="fill: #ffffff; opacity: 0.8; stroke: #cccccc; stroke-linejoin: miter"/>
    </g>
    <g id="line2d_40">
     <path d="M 283.596563 54.570438 
L 293.596563 54.570438 
L 303.596563 54.570438 
" style="fill: none; stroke: #1f77b4; stroke-opacity: 0.4; stroke-linecap: square"/>
    </g>
    <g id="text_9">
     <!-- SchNet eval_loss -->
     <g transform="translate(311.596563 58.070438) scale(0.1 -0.1)">
      <defs>
       <path id="DejaVuSans-53" d="M 3425 4513 
L 3425 3897 
Q 3066 4069 2747 4153 
Q 2428 4238 2131 4238 
Q 1616 4238 1336 4038 
Q 1056 3838 1056 3469 
Q 1056 3159 1242 3001 
Q 1428 2844 1947 2747 
L 2328 2669 
Q 3034 2534 3370 2195 
Q 3706 1856 3706 1288 
Q 3706 609 3251 259 
Q 2797 -91 1919 -91 
Q 1588 -91 1214 -16 
Q 841 59 441 206 
L 441 856 
Q 825 641 1194 531 
Q 1563 422 1919 422 
Q 2459 422 2753 634 
Q 3047 847 3047 1241 
Q 3047 1584 2836 1778 
Q 2625 1972 2144 2069 
L 1759 2144 
Q 1053 2284 737 2584 
Q 422 2884 422 3419 
Q 422 4038 858 4394 
Q 1294 4750 2059 4750 
Q 2388 4750 2728 4690 
Q 3069 4631 3425 4513 
z
" transform="scale(0.015625)"/>
       <path id="DejaVuSans-63" d="M 3122 3366 
L 3122 2828 
Q 2878 2963 2633 3030 
Q 2388 3097 2138 3097 
Q 1578 3097 1268 2742 
Q 959 2388 959 1747 
Q 959 1106 1268 751 
Q 1578 397 2138 397 
Q 2388 397 2633 464 
Q 2878 531 3122 666 
L 3122 134 
Q 2881 22 2623 -34 
Q 2366 -91 2075 -91 
Q 1284 -91 818 406 
Q 353 903 353 1747 
Q 353 2603 823 3093 
Q 1294 3584 2113 3584 
Q 2378 3584 2631 3529 
Q 2884 3475 3122 3366 
z
" transform="scale(0.015625)"/>
       <path id="DejaVuSans-68" d="M 3513 2113 
L 3513 0 
L 2938 0 
L 2938 2094 
Q 2938 2591 2744 2837 
Q 2550 3084 2163 3084 
Q 1697 3084 1428 2787 
Q 1159 2491 1159 1978 
L 1159 0 
L 581 0 
L 581 4863 
L 1159 4863 
L 1159 2956 
Q 1366 3272 1645 3428 
Q 1925 3584 2291 3584 
Q 2894 3584 3203 3211 
Q 3513 2838 3513 2113 
z
" transform="scale(0.015625)"/>
       <path id="DejaVuSans-4e" d="M 628 4666 
L 1478 4666 
L 3547 763 
L 3547 4666 
L 4159 4666 
L 4159 0 
L 3309 0 
L 1241 3903 
L 1241 0 
L 628 0 
L 628 4666 
z
" transform="scale(0.015625)"/>
       <path id="DejaVuSans-20" transform="scale(0.015625)"/>
       <path id="DejaVuSans-76" d="M 191 3500 
L 800 3500 
L 1894 563 
L 2988 3500 
L 3597 3500 
L 2284 0 
L 1503 0 
L 191 3500 
z
" transform="scale(0.015625)"/>
       <path id="DejaVuSans-61" d="M 2194 1759 
Q 1497 1759 1228 1600 
Q 959 1441 959 1056 
Q 959 750 1161 570 
Q 1363 391 1709 391 
Q 2188 391 2477 730 
Q 2766 1069 2766 1631 
L 2766 1759 
L 2194 1759 
z
M 3341 1997 
L 3341 0 
L 2766 0 
L 2766 531 
Q 2569 213 2275 61 
Q 1981 -91 1556 -91 
Q 1019 -91 701 211 
Q 384 513 384 1019 
Q 384 1609 779 1909 
Q 1175 2209 1959 2209 
L 2766 2209 
L 2766 2266 
Q 2766 2663 2505 2880 
Q 2244 3097 1772 3097 
Q 1472 3097 1187 3025 
Q 903 2953 641 2809 
L 641 3341 
Q 956 3463 1253 3523 
Q 1550 3584 1831 3584 
Q 2591 3584 2966 3190 
Q 3341 2797 3341 1997 
z
" transform="scale(0.015625)"/>
       <path id="DejaVuSans-5f" d="M 3263 -1063 
L 3263 -1509 
L -63 -1509 
L -63 -1063 
L 3263 -1063 
z
" transform="scale(0.015625)"/>
      </defs>
      <use xlink:href="#DejaVuSans-53"/>
      <use xlink:href="#DejaVuSans-63" x="63.476562"/>
      <use xlink:href="#DejaVuSans-68" x="118.457031"/>
      <use xlink:href="#DejaVuSans-4e" x="181.835938"/>
      <use xlink:href="#DejaVuSans-65" x="256.640625"/>
      <use xlink:href="#DejaVuSans-74" x="318.164062"/>
      <use xlink:href="#DejaVuSans-20" x="357.373047"/>
      <use xlink:href="#DejaVuSans-65" x="389.160156"/>
      <use xlink:href="#DejaVuSans-76" x="450.683594"/>
      <use xlink:href="#DejaVuSans-61" x="509.863281"/>
      <use xlink:href="#DejaVuSans-6c" x="571.142578"/>
      <use xlink:href="#DejaVuSans-5f" x="598.925781"/>
      <use xlink:href="#DejaVuSans-6c" x="648.925781"/>
      <use xlink:href="#DejaVuSans-6f" x="676.708984"/>
      <use xlink:href="#DejaVuSans-73" x="737.890625"/>
      <use xlink:href="#DejaVuSans-73" x="789.990234"/>
     </g>
    </g>
    <g id="line2d_41">
     <path d="M 283.596563 69.526688 
L 293.596563 69.526688 
L 303.596563 69.526688 
" style="fill: none; stroke: #ff7f0e; stroke-opacity: 0.4; stroke-linecap: square"/>
    </g>
    <g id="text_10">
     <!-- M220 eval_loss -->
     <g transform="translate(311.596563 73.026688) scale(0.1 -0.1)">
      <defs>
       <path id="DejaVuSans-4d" d="M 628 4666 
L 1569 4666 
L 2759 1491 
L 3956 4666 
L 4897 4666 
L 4897 0 
L 4281 0 
L 4281 4097 
L 3078 897 
L 2444 897 
L 1241 4097 
L 1241 0 
L 628 0 
L 628 4666 
z
" transform="scale(0.015625)"/>
      </defs>
      <use xlink:href="#DejaVuSans-4d"/>
      <use xlink:href="#DejaVuSans-32" x="86.279297"/>
      <use xlink:href="#DejaVuSans-32" x="149.902344"/>
      <use xlink:href="#DejaVuSans-30" x="213.525391"/>
      <use xlink:href="#DejaVuSans-20" x="277.148438"/>
      <use xlink:href="#DejaVuSans-65" x="308.935547"/>
      <use xlink:href="#DejaVuSans-76" x="370.458984"/>
      <use xlink:href="#DejaVuSans-61" x="429.638672"/>
      <use xlink:href="#DejaVuSans-6c" x="490.917969"/>
      <use xlink:href="#DejaVuSans-5f" x="518.701172"/>
      <use xlink:href="#DejaVuSans-6c" x="568.701172"/>
      <use xlink:href="#DejaVuSans-6f" x="596.484375"/>
      <use xlink:href="#DejaVuSans-73" x="657.666016"/>
      <use xlink:href="#DejaVuSans-73" x="709.765625"/>
     </g>
    </g>
    <g id="line2d_42">
     <path d="M 283.596563 84.482938 
L 293.596563 84.482938 
L 303.596563 84.482938 
" style="fill: none; stroke: #2ca02c; stroke-opacity: 0.4; stroke-linecap: square"/>
    </g>
    <g id="text_11">
     <!-- MoGIN14 eval_loss -->
     <g transform="translate(311.596563 87.982938) scale(0.1 -0.1)">
      <defs>
       <path id="DejaVuSans-47" d="M 3809 666 
L 3809 1919 
L 2778 1919 
L 2778 2438 
L 4434 2438 
L 4434 434 
Q 4069 175 3628 42 
Q 3188 -91 2688 -91 
Q 1594 -91 976 548 
Q 359 1188 359 2328 
Q 359 3472 976 4111 
Q 1594 4750 2688 4750 
Q 3144 4750 3555 4637 
Q 3966 4525 4313 4306 
L 4313 3634 
Q 3963 3931 3569 4081 
Q 3175 4231 2741 4231 
Q 1884 4231 1454 3753 
Q 1025 3275 1025 2328 
Q 1025 1384 1454 906 
Q 1884 428 2741 428 
Q 3075 428 3337 486 
Q 3600 544 3809 666 
z
" transform="scale(0.015625)"/>
       <path id="DejaVuSans-49" d="M 628 4666 
L 1259 4666 
L 1259 0 
L 628 0 
L 628 4666 
z
" transform="scale(0.015625)"/>
      </defs>
      <use xlink:href="#DejaVuSans-4d"/>
      <use xlink:href="#DejaVuSans-6f" x="86.279297"/>
      <use xlink:href="#DejaVuSans-47" x="147.460938"/>
      <use xlink:href="#DejaVuSans-49" x="224.951172"/>
      <use xlink:href="#DejaVuSans-4e" x="254.443359"/>
      <use xlink:href="#DejaVuSans-31" x="329.248047"/>
      <use xlink:href="#DejaVuSans-34" x="392.871094"/>
      <use xlink:href="#DejaVuSans-20" x="456.494141"/>
      <use xlink:href="#DejaVuSans-65" x="488.28125"/>
      <use xlink:href="#DejaVuSans-76" x="549.804688"/>
      <use xlink:href="#DejaVuSans-61" x="608.984375"/>
      <use xlink:href="#DejaVuSans-6c" x="670.263672"/>
      <use xlink:href="#DejaVuSans-5f" x="698.046875"/>
      <use xlink:href="#DejaVuSans-6c" x="748.046875"/>
      <use xlink:href="#DejaVuSans-6f" x="775.830078"/>
      <use xlink:href="#DejaVuSans-73" x="837.011719"/>
      <use xlink:href="#DejaVuSans-73" x="889.111328"/>
     </g>
    </g>
   </g>
  </g>
 </g>
 <defs>
  <clipPath id="p1d559268fb">
   <rect x="57.6" y="41.472" width="357.12" height="266.112"/>
  </clipPath>
 </defs>
</svg>
