<?xml version="1.0" encoding="utf-8" standalone="no"?>
<!DOCTYPE svg PUBLIC "-//W3C//DTD SVG 1.1//EN"
  "http://www.w3.org/Graphics/SVG/1.1/DTD/svg11.dtd">
<svg xmlns:xlink="http://www.w3.org/1999/xlink" width="460.8pt" height="345.6pt" viewBox="0 0 460.8 345.6" xmlns="http://www.w3.org/2000/svg" version="1.1">
 <metadata>
  <rdf:RDF xmlns:dc="http://purl.org/dc/elements/1.1/" xmlns:cc="http://creativecommons.org/ns#" xmlns:rdf="http://www.w3.org/1999/02/22-rdf-syntax-ns#">
   <cc:Work>
    <dc:type rdf:resource="http://purl.org/dc/dcmitype/StillImage"/>
    <dc:date>2025-02-18T14:50:43.067196</dc:date>
    <dc:format>image/svg+xml</dc:format>
    <dc:creator>
     <cc:Agent>
      <dc:title>Matplotlib v3.8.4, https://matplotlib.org/</dc:title>
     </cc:Agent>
    </dc:creator>
   </cc:Work>
  </rdf:RDF>
 </metadata>
 <defs>
  <style type="text/css">*{stroke-linejoin: round; stroke-linecap: butt}</style>
 </defs>
 <g id="figure_1">
  <g id="patch_1">
   <path d="M 0 345.6 
L 460.8 345.6 
L 460.8 0 
L 0 0 
z
" style="fill: #ffffff"/>
  </g>
  <g id="axes_1">
   <g id="patch_2">
    <path d="M 57.6 307.584 
L 414.72 307.584 
L 414.72 41.472 
L 57.6 41.472 
z
" style="fill: #ffffff"/>
   </g>
   <g id="matplotlib.axis_1">
    <g id="xtick_1">
     <g id="line2d_1">
      <defs>
       <path id="m6be11d7c69" d="M 0 0 
L 0 3.5 
" style="stroke: #000000; stroke-width: 0.8"/>
      </defs>
      <g>
       <use xlink:href="#m6be11d7c69" x="57.6" y="307.584" style="stroke: #000000; stroke-width: 0.8"/>
      </g>
     </g>
     <g id="text_1">
      <!-- $\mathdefault{10^{4}}$ -->
      <g transform="translate(48.8 322.182437) scale(0.1 -0.1)">
       <defs>
        <path id="DejaVuSans-31" d="M 794 531 
L 1825 531 
L 1825 4091 
L 703 3866 
L 703 4441 
L 1819 4666 
L 2450 4666 
L 2450 531 
L 3481 531 
L 3481 0 
L 794 0 
L 794 531 
z
" transform="scale(0.015625)"/>
        <path id="DejaVuSans-30" d="M 2034 4250 
Q 1547 4250 1301 3770 
Q 1056 3291 1056 2328 
Q 1056 1369 1301 889 
Q 1547 409 2034 409 
Q 2525 409 2770 889 
Q 3016 1369 3016 2328 
Q 3016 3291 2770 3770 
Q 2525 4250 2034 4250 
z
M 2034 4750 
Q 2819 4750 3233 4129 
Q 3647 3509 3647 2328 
Q 3647 1150 3233 529 
Q 2819 -91 2034 -91 
Q 1250 -91 836 529 
Q 422 1150 422 2328 
Q 422 3509 836 4129 
Q 1250 4750 2034 4750 
z
" transform="scale(0.015625)"/>
        <path id="DejaVuSans-34" d="M 2419 4116 
L 825 1625 
L 2419 1625 
L 2419 4116 
z
M 2253 4666 
L 3047 4666 
L 3047 1625 
L 3713 1625 
L 3713 1100 
L 3047 1100 
L 3047 0 
L 2419 0 
L 2419 1100 
L 313 1100 
L 313 1709 
L 2253 4666 
z
" transform="scale(0.015625)"/>
       </defs>
       <use xlink:href="#DejaVuSans-31" transform="translate(0 0.684375)"/>
       <use xlink:href="#DejaVuSans-30" transform="translate(63.623047 0.684375)"/>
       <use xlink:href="#DejaVuSans-34" transform="translate(128.203125 38.965625) scale(0.7)"/>
      </g>
     </g>
    </g>
    <g id="xtick_2">
     <g id="line2d_2">
      <defs>
       <path id="ma6955bc17d" d="M 0 0 
L 0 2 
" style="stroke: #000000; stroke-width: 0.6"/>
      </defs>
      <g>
       <use xlink:href="#ma6955bc17d" x="151.534847" y="307.584" style="stroke: #000000; stroke-width: 0.6"/>
      </g>
     </g>
     <g id="text_2">
      <!-- $\mathdefault{1.2\times10^{4}}$ -->
      <g transform="translate(128.934847 320.582437) scale(0.1 -0.1)">
       <defs>
        <path id="DejaVuSans-2e" d="M 684 794 
L 1344 794 
L 1344 0 
L 684 0 
L 684 794 
z
" transform="scale(0.015625)"/>
        <path id="DejaVuSans-32" d="M 1228 531 
L 3431 531 
L 3431 0 
L 469 0 
L 469 531 
Q 828 903 1448 1529 
Q 2069 2156 2228 2338 
Q 2531 2678 2651 2914 
Q 2772 3150 2772 3378 
Q 2772 3750 2511 3984 
Q 2250 4219 1831 4219 
Q 1534 4219 1204 4116 
Q 875 4013 500 3803 
L 500 4441 
Q 881 4594 1212 4672 
Q 1544 4750 1819 4750 
Q 2544 4750 2975 4387 
Q 3406 4025 3406 3419 
Q 3406 3131 3298 2873 
Q 3191 2616 2906 2266 
Q 2828 2175 2409 1742 
Q 1991 1309 1228 531 
z
" transform="scale(0.015625)"/>
        <path id="DejaVuSans-d7" d="M 4488 3438 
L 3059 2003 
L 4488 575 
L 4116 197 
L 2681 1631 
L 1247 197 
L 878 575 
L 2303 2003 
L 878 3438 
L 1247 3816 
L 2681 2381 
L 4116 3816 
L 4488 3438 
z
" transform="scale(0.015625)"/>
       </defs>
       <use xlink:href="#DejaVuSans-31" transform="translate(0 0.684375)"/>
       <use xlink:href="#DejaVuSans-2e" transform="translate(63.623047 0.684375)"/>
       <use xlink:href="#DejaVuSans-32" transform="translate(89.910156 0.684375)"/>
       <use xlink:href="#DejaVuSans-d7" transform="translate(173.015625 0.684375)"/>
       <use xlink:href="#DejaVuSans-31" transform="translate(276.287109 0.684375)"/>
       <use xlink:href="#DejaVuSans-30" transform="translate(339.910156 0.684375)"/>
       <use xlink:href="#DejaVuSans-34" transform="translate(404.490234 38.965625) scale(0.7)"/>
      </g>
     </g>
    </g>
    <g id="xtick_3">
     <g id="line2d_3">
      <g>
       <use xlink:href="#ma6955bc17d" x="230.955629" y="307.584" style="stroke: #000000; stroke-width: 0.6"/>
      </g>
     </g>
     <g id="text_3">
      <!-- $\mathdefault{1.4\times10^{4}}$ -->
      <g transform="translate(208.055629 320.582437) scale(0.1 -0.1)">
       <use xlink:href="#DejaVuSans-31" transform="translate(0 0.684375)"/>
       <use xlink:href="#DejaVuSans-2e" transform="translate(63.623047 0.684375)"/>
       <use xlink:href="#DejaVuSans-34" transform="translate(95.410156 0.684375)"/>
       <use xlink:href="#DejaVuSans-d7" transform="translate(178.515625 0.684375)"/>
       <use xlink:href="#DejaVuSans-31" transform="translate(281.787109 0.684375)"/>
       <use xlink:href="#DejaVuSans-30" transform="translate(345.410156 0.684375)"/>
       <use xlink:href="#DejaVuSans-34" transform="translate(409.990234 38.965625) scale(0.7)"/>
      </g>
     </g>
    </g>
    <g id="xtick_4">
     <g id="line2d_4">
      <g>
       <use xlink:href="#ma6955bc17d" x="299.753039" y="307.584" style="stroke: #000000; stroke-width: 0.6"/>
      </g>
     </g>
     <g id="text_4">
      <!-- $\mathdefault{1.6\times10^{4}}$ -->
      <g transform="translate(276.853039 320.582437) scale(0.1 -0.1)">
       <defs>
        <path id="DejaVuSans-36" d="M 2113 2584 
Q 1688 2584 1439 2293 
Q 1191 2003 1191 1497 
Q 1191 994 1439 701 
Q 1688 409 2113 409 
Q 2538 409 2786 701 
Q 3034 994 3034 1497 
Q 3034 2003 2786 2293 
Q 2538 2584 2113 2584 
z
M 3366 4563 
L 3366 3988 
Q 3128 4100 2886 4159 
Q 2644 4219 2406 4219 
Q 1781 4219 1451 3797 
Q 1122 3375 1075 2522 
Q 1259 2794 1537 2939 
Q 1816 3084 2150 3084 
Q 2853 3084 3261 2657 
Q 3669 2231 3669 1497 
Q 3669 778 3244 343 
Q 2819 -91 2113 -91 
Q 1303 -91 875 529 
Q 447 1150 447 2328 
Q 447 3434 972 4092 
Q 1497 4750 2381 4750 
Q 2619 4750 2861 4703 
Q 3103 4656 3366 4563 
z
" transform="scale(0.015625)"/>
       </defs>
       <use xlink:href="#DejaVuSans-31" transform="translate(0 0.684375)"/>
       <use xlink:href="#DejaVuSans-2e" transform="translate(63.623047 0.684375)"/>
       <use xlink:href="#DejaVuSans-36" transform="translate(95.410156 0.684375)"/>
       <use xlink:href="#DejaVuSans-d7" transform="translate(178.515625 0.684375)"/>
       <use xlink:href="#DejaVuSans-31" transform="translate(281.787109 0.684375)"/>
       <use xlink:href="#DejaVuSans-30" transform="translate(345.410156 0.684375)"/>
       <use xlink:href="#DejaVuSans-34" transform="translate(409.990234 38.965625) scale(0.7)"/>
      </g>
     </g>
    </g>
    <g id="xtick_5">
     <g id="line2d_5">
      <g>
       <use xlink:href="#ma6955bc17d" x="360.436655" y="307.584" style="stroke: #000000; stroke-width: 0.6"/>
      </g>
     </g>
     <g id="text_5">
      <!-- $\mathdefault{1.8\times10^{4}}$ -->
      <g transform="translate(337.686655 320.582437) scale(0.1 -0.1)">
       <defs>
        <path id="DejaVuSans-38" d="M 2034 2216 
Q 1584 2216 1326 1975 
Q 1069 1734 1069 1313 
Q 1069 891 1326 650 
Q 1584 409 2034 409 
Q 2484 409 2743 651 
Q 3003 894 3003 1313 
Q 3003 1734 2745 1975 
Q 2488 2216 2034 2216 
z
M 1403 2484 
Q 997 2584 770 2862 
Q 544 3141 544 3541 
Q 544 4100 942 4425 
Q 1341 4750 2034 4750 
Q 2731 4750 3128 4425 
Q 3525 4100 3525 3541 
Q 3525 3141 3298 2862 
Q 3072 2584 2669 2484 
Q 3125 2378 3379 2068 
Q 3634 1759 3634 1313 
Q 3634 634 3220 271 
Q 2806 -91 2034 -91 
Q 1263 -91 848 271 
Q 434 634 434 1313 
Q 434 1759 690 2068 
Q 947 2378 1403 2484 
z
M 1172 3481 
Q 1172 3119 1398 2916 
Q 1625 2713 2034 2713 
Q 2441 2713 2670 2916 
Q 2900 3119 2900 3481 
Q 2900 3844 2670 4047 
Q 2441 4250 2034 4250 
Q 1625 4250 1398 4047 
Q 1172 3844 1172 3481 
z
" transform="scale(0.015625)"/>
       </defs>
       <use xlink:href="#DejaVuSans-31" transform="translate(0 0.684375)"/>
       <use xlink:href="#DejaVuSans-2e" transform="translate(63.623047 0.684375)"/>
       <use xlink:href="#DejaVuSans-38" transform="translate(92.785156 0.684375)"/>
       <use xlink:href="#DejaVuSans-d7" transform="translate(175.890625 0.684375)"/>
       <use xlink:href="#DejaVuSans-31" transform="translate(279.162109 0.684375)"/>
       <use xlink:href="#DejaVuSans-30" transform="translate(342.785156 0.684375)"/>
       <use xlink:href="#DejaVuSans-34" transform="translate(407.365234 38.965625) scale(0.7)"/>
      </g>
     </g>
    </g>
    <g id="xtick_6">
     <g id="line2d_6">
      <g>
       <use xlink:href="#ma6955bc17d" x="414.72" y="307.584" style="stroke: #000000; stroke-width: 0.6"/>
      </g>
     </g>
     <g id="text_6">
      <!-- $\mathdefault{2\times10^{4}}$ -->
      <g transform="translate(396.62 320.582437) scale(0.1 -0.1)">
       <use xlink:href="#DejaVuSans-32" transform="translate(0 0.684375)"/>
       <use xlink:href="#DejaVuSans-d7" transform="translate(83.105469 0.684375)"/>
       <use xlink:href="#DejaVuSans-31" transform="translate(186.376953 0.684375)"/>
       <use xlink:href="#DejaVuSans-30" transform="translate(250 0.684375)"/>
       <use xlink:href="#DejaVuSans-34" transform="translate(314.580078 38.965625) scale(0.7)"/>
      </g>
     </g>
    </g>
    <g id="text_7">
     <!-- iter# -->
     <g transform="translate(223.488906 335.860562) scale(0.1 -0.1)">
      <defs>
       <path id="DejaVuSans-69" d="M 603 3500 
L 1178 3500 
L 1178 0 
L 603 0 
L 603 3500 
z
M 603 4863 
L 1178 4863 
L 1178 4134 
L 603 4134 
L 603 4863 
z
" transform="scale(0.015625)"/>
       <path id="DejaVuSans-74" d="M 1172 4494 
L 1172 3500 
L 2356 3500 
L 2356 3053 
L 1172 3053 
L 1172 1153 
Q 1172 725 1289 603 
Q 1406 481 1766 481 
L 2356 481 
L 2356 0 
L 1766 0 
Q 1100 0 847 248 
Q 594 497 594 1153 
L 594 3053 
L 172 3053 
L 172 3500 
L 594 3500 
L 594 4494 
L 1172 4494 
z
" transform="scale(0.015625)"/>
       <path id="DejaVuSans-65" d="M 3597 1894 
L 3597 1613 
L 953 1613 
Q 991 1019 1311 708 
Q 1631 397 2203 397 
Q 2534 397 2845 478 
Q 3156 559 3463 722 
L 3463 178 
Q 3153 47 2828 -22 
Q 2503 -91 2169 -91 
Q 1331 -91 842 396 
Q 353 884 353 1716 
Q 353 2575 817 3079 
Q 1281 3584 2069 3584 
Q 2775 3584 3186 3129 
Q 3597 2675 3597 1894 
z
M 3022 2063 
Q 3016 2534 2758 2815 
Q 2500 3097 2075 3097 
Q 1594 3097 1305 2825 
Q 1016 2553 972 2059 
L 3022 2063 
z
" transform="scale(0.015625)"/>
       <path id="DejaVuSans-72" d="M 2631 2963 
Q 2534 3019 2420 3045 
Q 2306 3072 2169 3072 
Q 1681 3072 1420 2755 
Q 1159 2438 1159 1844 
L 1159 0 
L 581 0 
L 581 3500 
L 1159 3500 
L 1159 2956 
Q 1341 3275 1631 3429 
Q 1922 3584 2338 3584 
Q 2397 3584 2469 3576 
Q 2541 3569 2628 3553 
L 2631 2963 
z
" transform="scale(0.015625)"/>
       <path id="DejaVuSans-23" d="M 3272 2816 
L 2363 2816 
L 2100 1772 
L 3016 1772 
L 3272 2816 
z
M 2803 4594 
L 2478 3297 
L 3391 3297 
L 3719 4594 
L 4219 4594 
L 3897 3297 
L 4872 3297 
L 4872 2816 
L 3775 2816 
L 3519 1772 
L 4513 1772 
L 4513 1294 
L 3397 1294 
L 3072 0 
L 2572 0 
L 2894 1294 
L 1978 1294 
L 1656 0 
L 1153 0 
L 1478 1294 
L 494 1294 
L 494 1772 
L 1594 1772 
L 1856 2816 
L 850 2816 
L 850 3297 
L 1978 3297 
L 2297 4594 
L 2803 4594 
z
" transform="scale(0.015625)"/>
      </defs>
      <use xlink:href="#DejaVuSans-69"/>
      <use xlink:href="#DejaVuSans-74" x="27.783203"/>
      <use xlink:href="#DejaVuSans-65" x="66.992188"/>
      <use xlink:href="#DejaVuSans-72" x="128.515625"/>
      <use xlink:href="#DejaVuSans-23" x="169.628906"/>
     </g>
    </g>
   </g>
   <g id="matplotlib.axis_2">
    <g id="ytick_1">
     <g id="line2d_7">
      <defs>
       <path id="m628845fea9" d="M 0 0 
L -3.5 0 
" style="stroke: #000000; stroke-width: 0.8"/>
      </defs>
      <g>
       <use xlink:href="#m628845fea9" x="57.6" y="245.254111" style="stroke: #000000; stroke-width: 0.8"/>
      </g>
     </g>
     <g id="text_8">
      <!-- $\mathdefault{10^{-2}}$ -->
      <g transform="translate(27.1 249.05333) scale(0.1 -0.1)">
       <defs>
        <path id="DejaVuSans-2212" d="M 678 2272 
L 4684 2272 
L 4684 1741 
L 678 1741 
L 678 2272 
z
" transform="scale(0.015625)"/>
       </defs>
       <use xlink:href="#DejaVuSans-31" transform="translate(0 0.765625)"/>
       <use xlink:href="#DejaVuSans-30" transform="translate(63.623047 0.765625)"/>
       <use xlink:href="#DejaVuSans-2212" transform="translate(128.203125 39.046875) scale(0.7)"/>
       <use xlink:href="#DejaVuSans-32" transform="translate(186.855469 39.046875) scale(0.7)"/>
      </g>
     </g>
    </g>
    <g id="ytick_2">
     <g id="line2d_8">
      <g>
       <use xlink:href="#m628845fea9" x="57.6" y="88.622741" style="stroke: #000000; stroke-width: 0.8"/>
      </g>
     </g>
     <g id="text_9">
      <!-- $\mathdefault{10^{-1}}$ -->
      <g transform="translate(27.1 92.421959) scale(0.1 -0.1)">
       <use xlink:href="#DejaVuSans-31" transform="translate(0 0.684375)"/>
       <use xlink:href="#DejaVuSans-30" transform="translate(63.623047 0.684375)"/>
       <use xlink:href="#DejaVuSans-2212" transform="translate(128.203125 38.965625) scale(0.7)"/>
       <use xlink:href="#DejaVuSans-31" transform="translate(186.855469 38.965625) scale(0.7)"/>
      </g>
     </g>
    </g>
    <g id="ytick_3">
     <g id="line2d_9">
      <defs>
       <path id="m1607698107" d="M 0 0 
L -2 0 
" style="stroke: #000000; stroke-width: 0.6"/>
      </defs>
      <g>
       <use xlink:href="#m1607698107" x="57.6" y="307.584" style="stroke: #000000; stroke-width: 0.6"/>
      </g>
     </g>
    </g>
    <g id="ytick_4">
     <g id="line2d_10">
      <g>
       <use xlink:href="#m1607698107" x="57.6" y="292.404852" style="stroke: #000000; stroke-width: 0.6"/>
      </g>
     </g>
    </g>
    <g id="ytick_5">
     <g id="line2d_11">
      <g>
       <use xlink:href="#m1607698107" x="57.6" y="280.002585" style="stroke: #000000; stroke-width: 0.6"/>
      </g>
     </g>
    </g>
    <g id="ytick_6">
     <g id="line2d_12">
      <g>
       <use xlink:href="#m1607698107" x="57.6" y="269.516617" style="stroke: #000000; stroke-width: 0.6"/>
      </g>
     </g>
    </g>
    <g id="ytick_7">
     <g id="line2d_13">
      <g>
       <use xlink:href="#m1607698107" x="57.6" y="260.433259" style="stroke: #000000; stroke-width: 0.6"/>
      </g>
     </g>
    </g>
    <g id="ytick_8">
     <g id="line2d_14">
      <g>
       <use xlink:href="#m1607698107" x="57.6" y="252.42117" style="stroke: #000000; stroke-width: 0.6"/>
      </g>
     </g>
    </g>
    <g id="ytick_9">
     <g id="line2d_15">
      <g>
       <use xlink:href="#m1607698107" x="57.6" y="198.10337" style="stroke: #000000; stroke-width: 0.6"/>
      </g>
     </g>
    </g>
    <g id="ytick_10">
     <g id="line2d_16">
      <g>
       <use xlink:href="#m1607698107" x="57.6" y="170.521955" style="stroke: #000000; stroke-width: 0.6"/>
      </g>
     </g>
    </g>
    <g id="ytick_11">
     <g id="line2d_17">
      <g>
       <use xlink:href="#m1607698107" x="57.6" y="150.95263" style="stroke: #000000; stroke-width: 0.6"/>
      </g>
     </g>
    </g>
    <g id="ytick_12">
     <g id="line2d_18">
      <g>
       <use xlink:href="#m1607698107" x="57.6" y="135.773481" style="stroke: #000000; stroke-width: 0.6"/>
      </g>
     </g>
    </g>
    <g id="ytick_13">
     <g id="line2d_19">
      <g>
       <use xlink:href="#m1607698107" x="57.6" y="123.371214" style="stroke: #000000; stroke-width: 0.6"/>
      </g>
     </g>
    </g>
    <g id="ytick_14">
     <g id="line2d_20">
      <g>
       <use xlink:href="#m1607698107" x="57.6" y="112.885247" style="stroke: #000000; stroke-width: 0.6"/>
      </g>
     </g>
    </g>
    <g id="ytick_15">
     <g id="line2d_21">
      <g>
       <use xlink:href="#m1607698107" x="57.6" y="103.801889" style="stroke: #000000; stroke-width: 0.6"/>
      </g>
     </g>
    </g>
    <g id="ytick_16">
     <g id="line2d_22">
      <g>
       <use xlink:href="#m1607698107" x="57.6" y="95.789799" style="stroke: #000000; stroke-width: 0.6"/>
      </g>
     </g>
    </g>
    <g id="ytick_17">
     <g id="line2d_23">
      <g>
       <use xlink:href="#m1607698107" x="57.6" y="41.472" style="stroke: #000000; stroke-width: 0.6"/>
      </g>
     </g>
    </g>
    <g id="text_10">
     <!-- loss -->
     <g transform="translate(21.020313 184.185812) rotate(-90) scale(0.1 -0.1)">
      <defs>
       <path id="DejaVuSans-6c" d="M 603 4863 
L 1178 4863 
L 1178 0 
L 603 0 
L 603 4863 
z
" transform="scale(0.015625)"/>
       <path id="DejaVuSans-6f" d="M 1959 3097 
Q 1497 3097 1228 2736 
Q 959 2375 959 1747 
Q 959 1119 1226 758 
Q 1494 397 1959 397 
Q 2419 397 2687 759 
Q 2956 1122 2956 1747 
Q 2956 2369 2687 2733 
Q 2419 3097 1959 3097 
z
M 1959 3584 
Q 2709 3584 3137 3096 
Q 3566 2609 3566 1747 
Q 3566 888 3137 398 
Q 2709 -91 1959 -91 
Q 1206 -91 779 398 
Q 353 888 353 1747 
Q 353 2609 779 3096 
Q 1206 3584 1959 3584 
z
" transform="scale(0.015625)"/>
       <path id="DejaVuSans-73" d="M 2834 3397 
L 2834 2853 
Q 2591 2978 2328 3040 
Q 2066 3103 1784 3103 
Q 1356 3103 1142 2972 
Q 928 2841 928 2578 
Q 928 2378 1081 2264 
Q 1234 2150 1697 2047 
L 1894 2003 
Q 2506 1872 2764 1633 
Q 3022 1394 3022 966 
Q 3022 478 2636 193 
Q 2250 -91 1575 -91 
Q 1294 -91 989 -36 
Q 684 19 347 128 
L 347 722 
Q 666 556 975 473 
Q 1284 391 1588 391 
Q 1994 391 2212 530 
Q 2431 669 2431 922 
Q 2431 1156 2273 1281 
Q 2116 1406 1581 1522 
L 1381 1569 
Q 847 1681 609 1914 
Q 372 2147 372 2553 
Q 372 3047 722 3315 
Q 1072 3584 1716 3584 
Q 2034 3584 2315 3537 
Q 2597 3491 2834 3397 
z
" transform="scale(0.015625)"/>
      </defs>
      <use xlink:href="#DejaVuSans-6c"/>
      <use xlink:href="#DejaVuSans-6f" x="27.783203"/>
      <use xlink:href="#DejaVuSans-73" x="88.964844"/>
      <use xlink:href="#DejaVuSans-73" x="141.064453"/>
     </g>
    </g>
   </g>
   <g id="line2d_24">
    <path d="M -1 187.665711 
L 1.309134 193.204783 
L 4.974124 171.266509 
L 8.613227 184.718864 
L 12.226807 187.16384 
L 15.815218 197.265926 
L 19.378809 204.12983 
L 22.917921 208.168032 
L 26.432888 205.174711 
L 29.924037 198.310393 
L 33.391688 204.859883 
L 36.836157 195.82739 
L 40.257751 192.618462 
L 43.656771 182.128543 
L 47.033514 199.993222 
L 50.38827 208.518197 
L 53.721322 209.016977 
L 57.032951 212.602224 
L 60.32343 214.069451 
L 63.593027 208.894734 
L 66.842006 209.30846 
L 70.070625 195.494836 
L 73.279137 201.665727 
L 74.12805 204.940763 
L 77.311472 204.41468 
L 80.475345 197.514351 
L 83.619907 203.817825 
L 86.745393 214.230029 
L 89.852033 224.093225 
L 92.940052 230.199557 
L 96.009674 207.799214 
L 99.061115 179.112027 
L 102.09459 185.25742 
L 105.110309 162.965689 
L 108.108478 187.109753 
L 111.089302 206.213792 
L 114.052978 217.776887 
L 116.999705 215.805125 
L 119.929673 219.197063 
L 122.843073 161.212799 
L 125.740092 173.046604 
L 128.620911 192.574459 
L 131.485712 205.762786 
L 134.334672 167.758246 
L 137.167965 174.350865 
L 139.985762 186.138104 
L 142.788231 195.281242 
L 145.57554 178.209051 
L 148.34785 185.286102 
L 151.105322 178.1271 
L 153.848115 187.601182 
L 156.576383 175.059425 
L 159.290281 167.485764 
L 161.989957 164.532412 
L 164.675562 183.040352 
L 167.34724 204.046984 
L 168.054582 206.488726 
L 170.70884 197.282255 
L 173.349494 200.606453 
L 175.976683 193.177377 
L 178.590543 160.621637 
L 181.191209 110.178873 
L 183.778814 117.658732 
L 186.353487 152.114149 
L 188.915359 171.874259 
L 191.464554 183.810608 
L 194.001199 200.167039 
L 196.525415 208.71413 
L 199.037325 208.671558 
L 201.537048 154.895389 
L 204.024701 168.16776 
L 206.5004 121.373403 
L 208.96426 117.436609 
L 211.416394 136.603859 
L 213.856912 136.075243 
L 216.285923 155.960204 
L 218.703537 95.156745 
L 221.10986 129.398928 
L 223.504996 160.553984 
L 225.889049 161.551922 
L 228.262121 186.44538 
L 230.624312 177.198364 
L 232.975723 201.495258 
L 235.316451 176.913076 
L 237.646592 201.058896 
L 239.966243 213.235149 
L 242.275496 197.835891 
L 244.574446 211.282902 
L 246.863183 121.044985 
L 247.469423 125.37684 
L 249.745364 150.913905 
L 252.011295 172.232208 
L 254.267304 188.534029 
L 256.513478 201.68122 
L 258.749901 211.6407 
L 260.976659 218.768988 
L 263.193834 224.910033 
L 265.401508 230.274326 
L 267.599763 234.974548 
L 269.788679 238.93103 
L 271.968334 242.433825 
L 274.138807 245.551674 
L 278.452513 250.82123 
L 280.595898 252.750416 
L 282.730402 255.041978 
L 284.8561 257.020581 
L 289.081364 260.438445 
L 291.181072 261.563598 
L 293.272258 263.582616 
L 295.354991 264.734669 
L 297.429338 266.394013 
L 299.495367 267.327153 
L 303.602735 269.904201 
L 305.644205 270.912549 
L 307.677617 271.610156 
L 309.703036 272.056674 
L 311.720524 272.943565 
L 315.731952 273.913915 
L 316.262378 259.723657 
L 318.254393 93.90581 
L 320.238735 97.566238 
L 322.215464 97.154731 
L 324.184638 102.211937 
L 326.146314 115.166496 
L 328.10055 137.442381 
L 330.047401 136.282375 
L 331.986923 153.890126 
L 333.919171 131.923744 
L 335.8442 154.000877 
L 337.762062 171.179596 
L 339.672812 181.934086 
L 341.576502 171.024269 
L 343.473184 172.799797 
L 345.362909 172.733173 
L 347.245729 179.914444 
L 349.121692 152.264503 
L 350.99085 174.649397 
L 352.853251 178.61266 
L 354.708944 190.645956 
L 356.557978 186.757989 
L 358.400399 182.40809 
L 360.236255 176.855613 
L 362.065592 187.013092 
L 363.888458 171.322899 
L 365.704896 135.16881 
L 367.514953 122.939629 
L 369.318674 115.470197 
L 371.116101 118.283014 
L 372.90728 137.314975 
L 374.692253 159.170604 
L 376.471064 161.026524 
L 376.94253 149.317592 
L 378.713601 177.360036 
L 380.478605 198.220167 
L 382.237584 212.399297 
L 383.990577 221.423048 
L 385.737626 226.749502 
L 387.478772 230.163599 
L 389.214053 232.185895 
L 390.943509 233.671526 
L 394.385101 235.641778 
L 396.097315 236.401744 
L 397.803857 236.465246 
L 399.504765 237.008875 
L 402.889827 237.822186 
L 404.574055 237.746373 
L 406.252795 238.300785 
L 409.593953 238.871389 
L 411.256442 239.430861 
L 414.565412 240.053977 
L 416.211962 239.355962 
L 417.853266 239.869732 
L 421.120272 240.665945 
L 422.746039 240.752631 
L 424.366692 240.702359 
L 425.982262 241.248033 
L 427.592783 241.607822 
L 429.198285 241.69134 
L 430.7988 241.376092 
L 430.7988 241.376092 
" clip-path="url(#p123648e7ca)" style="fill: none; stroke: #1f77b4; stroke-opacity: 0.4; stroke-linecap: square"/>
   </g>
   <g id="line2d_25">
    <path d="M -1 176.742192 
L 1.309134 177.723223 
L 4.974124 179.083841 
L 8.613227 179.185072 
L 12.226807 174.301041 
L 15.815218 175.582848 
L 19.378809 175.203764 
L 22.917921 173.660002 
L 26.432888 176.845313 
L 29.924037 173.318848 
L 33.391688 176.86229 
L 36.836157 160.684615 
L 40.257751 168.522044 
L 43.656771 172.769605 
L 47.033514 170.977384 
L 50.38827 171.689775 
L 53.721322 176.156643 
L 57.032951 177.902521 
L 60.32343 178.861742 
L 63.593027 179.575686 
L 66.842006 181.34378 
L 73.279137 182.365173 
L 74.12805 183.313356 
L 77.311472 177.669041 
L 80.475345 163.488092 
L 83.619907 160.978256 
L 86.745393 170.68872 
L 89.852033 175.040606 
L 92.940052 178.971285 
L 96.009674 174.231054 
L 99.061115 178.138927 
L 102.09459 181.58097 
L 105.110309 172.651451 
L 108.108478 178.637334 
L 111.089302 182.471757 
L 114.052978 161.924341 
L 116.999705 171.265587 
L 119.929673 167.859021 
L 122.843073 162.220832 
L 125.740092 165.640483 
L 128.620911 173.302882 
L 131.485712 175.683458 
L 134.334672 177.060246 
L 137.167965 174.420829 
L 139.985762 178.951478 
L 142.788231 173.695848 
L 145.57554 171.964036 
L 148.34785 179.986091 
L 151.105322 182.636566 
L 153.848115 177.720709 
L 156.576383 164.786839 
L 159.290281 165.343361 
L 161.989957 175.210399 
L 164.675562 181.577353 
L 167.34724 175.705825 
L 168.054582 180.505589 
L 170.70884 182.147717 
L 173.349494 184.395168 
L 175.976683 184.287154 
L 178.590543 186.410977 
L 181.191209 189.49067 
L 183.778814 187.614696 
L 186.353487 188.291299 
L 188.915359 187.303701 
L 191.464554 187.710045 
L 194.001199 188.72237 
L 196.525415 188.805794 
L 199.037325 184.509794 
L 201.537048 182.688386 
L 204.024701 186.506585 
L 206.5004 186.778592 
L 208.96426 185.303869 
L 211.416394 186.972077 
L 216.285923 181.928578 
L 218.703537 185.201976 
L 221.10986 181.038266 
L 223.504996 182.285376 
L 225.889049 181.36291 
L 228.262121 185.548954 
L 230.624312 181.594514 
L 232.975723 175.080649 
L 235.316451 164.12777 
L 237.646592 176.537899 
L 239.966243 178.014531 
L 242.275496 175.173789 
L 244.574446 183.06398 
L 246.863183 188.843065 
L 247.469423 189.307022 
L 249.745364 189.835953 
L 252.011295 186.041569 
L 254.267304 187.018006 
L 256.513478 189.551962 
L 258.749901 183.137085 
L 260.976659 156.962666 
L 263.193834 166.381335 
L 265.401508 164.075344 
L 267.599763 173.898222 
L 269.788679 167.683768 
L 271.968334 174.484395 
L 274.138807 182.617584 
L 276.300175 150.039228 
L 278.452513 165.774573 
L 280.595898 164.535005 
L 282.730402 172.881521 
L 284.8561 180.495941 
L 286.973063 182.420715 
L 289.081364 187.366421 
L 291.181072 187.525014 
L 293.272258 181.689106 
L 295.354991 186.858694 
L 297.429338 190.534589 
L 299.495367 193.71389 
L 301.553144 189.166296 
L 303.602735 189.087702 
L 305.644205 184.813264 
L 307.677617 186.881296 
L 309.703036 189.757754 
L 311.720524 191.39302 
L 313.730142 185.592263 
L 315.731952 186.498697 
L 316.262378 191.12301 
L 318.254393 190.944053 
L 320.238735 190.969513 
L 322.215464 194.213917 
L 324.184638 192.988834 
L 326.146314 194.301303 
L 328.10055 178.320146 
L 330.047401 188.45269 
L 331.986923 183.147061 
L 333.919171 186.306133 
L 335.8442 186.638736 
L 337.762062 190.688455 
L 341.576502 188.701135 
L 343.473184 193.70083 
L 345.362909 182.983589 
L 347.245729 174.013644 
L 349.121692 184.246393 
L 350.99085 190.942732 
L 352.853251 161.195128 
L 354.708944 174.371553 
L 356.557978 179.678814 
L 358.400399 189.101535 
L 360.236255 191.364375 
L 362.065592 190.738906 
L 363.888458 193.805556 
L 365.704896 192.280811 
L 367.514953 153.060354 
L 369.318674 159.347876 
L 371.116101 159.361405 
L 372.90728 174.950531 
L 374.692253 183.669399 
L 376.471064 182.047247 
L 376.94253 157.228592 
L 378.713601 170.414132 
L 380.478605 177.789789 
L 382.237584 175.226072 
L 383.990577 176.598594 
L 385.737626 187.210988 
L 387.478772 191.554154 
L 389.214053 191.867853 
L 390.943509 190.79001 
L 392.667179 181.813958 
L 394.385101 184.049949 
L 396.097315 155.000004 
L 397.803857 172.62066 
L 399.504765 179.304995 
L 401.200076 173.099461 
L 402.889827 183.885238 
L 404.574055 190.537889 
L 406.252795 193.260404 
L 407.926082 192.53673 
L 409.593953 194.208287 
L 411.256442 192.840356 
L 412.913584 178.160041 
L 414.565412 177.41473 
L 416.211962 184.288286 
L 417.853266 179.441382 
L 419.489359 186.226064 
L 421.120272 189.220616 
L 422.746039 194.807013 
L 424.366692 195.45566 
L 425.982262 193.501378 
L 427.592783 189.714089 
L 429.198285 190.416434 
L 430.7988 190.71969 
L 430.7988 190.71969 
" clip-path="url(#p123648e7ca)" style="fill: none; stroke: #ff7f0e; stroke-opacity: 0.4; stroke-linecap: square"/>
   </g>
   <g id="line2d_26">
    <path d="M -1 176.506546 
L 1.309134 182.890348 
L 4.974124 188.418451 
L 8.613227 190.045541 
L 12.226807 192.4076 
L 19.378809 195.569836 
L 22.917921 194.088506 
L 26.432888 194.984036 
L 29.924037 191.567282 
L 33.391688 177.902814 
L 36.836157 186.349974 
L 40.257751 190.537545 
L 43.656771 191.637257 
L 47.033514 191.354643 
L 50.38827 182.619729 
L 53.721322 188.880495 
L 57.032951 192.930751 
L 60.32343 192.347976 
L 63.593027 188.396641 
L 66.842006 193.378986 
L 70.070625 186.572425 
L 73.279137 186.437116 
L 74.12805 176.082211 
L 77.311472 188.052619 
L 83.619907 197.813825 
L 86.745393 196.982122 
L 89.852033 199.332855 
L 92.940052 199.534453 
L 96.009674 181.759226 
L 99.061115 188.862552 
L 102.09459 192.446611 
L 105.110309 196.784998 
L 108.108478 191.11626 
L 111.089302 192.340602 
L 114.052978 192.396771 
L 116.999705 191.75919 
L 119.929673 197.406795 
L 122.843073 198.786366 
L 128.620911 199.201341 
L 131.485712 200.558146 
L 134.334672 201.396901 
L 137.167965 203.118731 
L 139.985762 204.203032 
L 142.788231 190.898614 
L 145.57554 196.914123 
L 148.34785 198.870831 
L 151.105322 201.184811 
L 153.848115 197.356602 
L 156.576383 189.438618 
L 159.290281 195.673158 
L 161.989957 191.588525 
L 164.675562 197.472113 
L 167.34724 198.212828 
L 168.054582 187.921724 
L 170.70884 180.086618 
L 173.349494 181.698536 
L 175.976683 190.397893 
L 178.590543 176.221968 
L 181.191209 179.801786 
L 183.778814 169.923036 
L 186.353487 183.791992 
L 188.915359 187.256745 
L 191.464554 173.550748 
L 194.001199 181.631374 
L 196.525415 176.899617 
L 199.037325 187.28296 
L 201.537048 195.167852 
L 204.024701 192.455655 
L 206.5004 180.876401 
L 208.96426 188.713008 
L 211.416394 191.757696 
L 213.856912 178.031771 
L 216.285923 145.923417 
L 218.703537 163.377524 
L 221.10986 159.447184 
L 223.504996 176.03291 
L 225.889049 171.711963 
L 230.624312 184.117342 
L 232.975723 193.965546 
L 235.316451 196.138981 
L 237.646592 201.512608 
L 239.966243 203.685961 
L 242.275496 197.877239 
L 244.574446 202.434041 
L 246.863183 194.832913 
L 247.469423 192.143995 
L 249.745364 200.886949 
L 252.011295 204.970572 
L 254.267304 208.246229 
L 256.513478 208.94218 
L 258.749901 205.636444 
L 260.976659 208.038734 
L 263.193834 208.658893 
L 265.401508 210.408422 
L 267.599763 210.931582 
L 271.968334 210.163259 
L 274.138807 207.8573 
L 276.300175 208.219965 
L 278.452513 204.847427 
L 280.595898 208.742589 
L 282.730402 207.044164 
L 284.8561 210.175792 
L 286.973063 211.440887 
L 291.181072 207.902833 
L 293.272258 210.329178 
L 295.354991 211.26636 
L 297.429338 197.382144 
L 299.495367 203.97156 
L 301.553144 201.44388 
L 303.602735 205.347822 
L 305.644205 205.63407 
L 307.677617 199.10507 
L 309.703036 204.260795 
L 311.720524 203.996677 
L 313.730142 205.870571 
L 315.731952 195.360543 
L 316.262378 196.790754 
L 318.254393 181.943152 
L 320.238735 189.58398 
L 322.215464 195.402103 
L 324.184638 199.056411 
L 326.146314 200.958307 
L 328.10055 186.871637 
L 330.047401 191.90343 
L 331.986923 195.322339 
L 333.919171 192.083899 
L 335.8442 185.716096 
L 337.762062 185.963414 
L 339.672812 193.09493 
L 341.576502 182.65759 
L 343.473184 193.34039 
L 345.362909 183.523947 
L 347.245729 193.005087 
L 349.121692 196.172695 
L 350.99085 195.691086 
L 352.853251 202.152836 
L 354.708944 201.262493 
L 356.557978 203.748444 
L 358.400399 201.582651 
L 360.236255 199.887047 
L 362.065592 192.341403 
L 363.888458 198.13699 
L 365.704896 196.839731 
L 367.514953 183.7539 
L 369.318674 181.111235 
L 372.90728 190.667744 
L 374.692253 196.900427 
L 376.471064 192.972735 
L 376.94253 197.297882 
L 378.713601 202.804831 
L 380.478605 204.842513 
L 382.237584 204.799182 
L 383.990577 207.572309 
L 385.737626 207.75684 
L 387.478772 209.908645 
L 389.214053 197.594941 
L 390.943509 202.705099 
L 392.667179 198.851396 
L 394.385101 202.752959 
L 396.097315 205.307698 
L 399.504765 207.439955 
L 401.200076 209.331475 
L 402.889827 206.912522 
L 404.574055 200.432248 
L 406.252795 205.706505 
L 407.926082 209.460219 
L 409.593953 206.709558 
L 411.256442 183.747182 
L 412.913584 193.526597 
L 414.565412 201.835553 
L 416.211962 206.846876 
L 417.853266 203.929515 
L 419.489359 209.451789 
L 421.120272 209.992517 
L 422.746039 203.708306 
L 424.366692 208.442832 
L 425.982262 208.993337 
L 427.592783 212.508748 
L 429.198285 210.468376 
L 430.7988 210.170314 
L 430.7988 210.170314 
" clip-path="url(#p123648e7ca)" style="fill: none; stroke: #2ca02c; stroke-opacity: 0.4; stroke-linecap: square"/>
   </g>
   <g id="patch_3">
    <path d="M 57.6 307.584 
L 57.6 41.472 
" style="fill: none; stroke: #000000; stroke-width: 0.8; stroke-linejoin: miter; stroke-linecap: square"/>
   </g>
   <g id="patch_4">
    <path d="M 414.72 307.584 
L 414.72 41.472 
" style="fill: none; stroke: #000000; stroke-width: 0.8; stroke-linejoin: miter; stroke-linecap: square"/>
   </g>
   <g id="patch_5">
    <path d="M 57.6 307.584 
L 414.72 307.584 
" style="fill: none; stroke: #000000; stroke-width: 0.8; stroke-linejoin: miter; stroke-linecap: square"/>
   </g>
   <g id="patch_6">
    <path d="M 57.6 41.472 
L 414.72 41.472 
" style="fill: none; stroke: #000000; stroke-width: 0.8; stroke-linejoin: miter; stroke-linecap: square"/>
   </g>
   <g id="text_11">
    <!-- 2025-02-18-14:50:43 -->
    <g transform="translate(172.178438 35.472) scale(0.12 -0.12)">
     <defs>
      <path id="DejaVuSans-35" d="M 691 4666 
L 3169 4666 
L 3169 4134 
L 1269 4134 
L 1269 2991 
Q 1406 3038 1543 3061 
Q 1681 3084 1819 3084 
Q 2600 3084 3056 2656 
Q 3513 2228 3513 1497 
Q 3513 744 3044 326 
Q 2575 -91 1722 -91 
Q 1428 -91 1123 -41 
Q 819 9 494 109 
L 494 744 
Q 775 591 1075 516 
Q 1375 441 1709 441 
Q 2250 441 2565 725 
Q 2881 1009 2881 1497 
Q 2881 1984 2565 2268 
Q 2250 2553 1709 2553 
Q 1456 2553 1204 2497 
Q 953 2441 691 2322 
L 691 4666 
z
" transform="scale(0.015625)"/>
      <path id="DejaVuSans-2d" d="M 313 2009 
L 1997 2009 
L 1997 1497 
L 313 1497 
L 313 2009 
z
" transform="scale(0.015625)"/>
      <path id="DejaVuSans-3a" d="M 750 794 
L 1409 794 
L 1409 0 
L 750 0 
L 750 794 
z
M 750 3309 
L 1409 3309 
L 1409 2516 
L 750 2516 
L 750 3309 
z
" transform="scale(0.015625)"/>
      <path id="DejaVuSans-33" d="M 2597 2516 
Q 3050 2419 3304 2112 
Q 3559 1806 3559 1356 
Q 3559 666 3084 287 
Q 2609 -91 1734 -91 
Q 1441 -91 1130 -33 
Q 819 25 488 141 
L 488 750 
Q 750 597 1062 519 
Q 1375 441 1716 441 
Q 2309 441 2620 675 
Q 2931 909 2931 1356 
Q 2931 1769 2642 2001 
Q 2353 2234 1838 2234 
L 1294 2234 
L 1294 2753 
L 1863 2753 
Q 2328 2753 2575 2939 
Q 2822 3125 2822 3475 
Q 2822 3834 2567 4026 
Q 2313 4219 1838 4219 
Q 1578 4219 1281 4162 
Q 984 4106 628 3988 
L 628 4550 
Q 988 4650 1302 4700 
Q 1616 4750 1894 4750 
Q 2613 4750 3031 4423 
Q 3450 4097 3450 3541 
Q 3450 3153 3228 2886 
Q 3006 2619 2597 2516 
z
" transform="scale(0.015625)"/>
     </defs>
     <use xlink:href="#DejaVuSans-32"/>
     <use xlink:href="#DejaVuSans-30" x="63.623047"/>
     <use xlink:href="#DejaVuSans-32" x="127.246094"/>
     <use xlink:href="#DejaVuSans-35" x="190.869141"/>
     <use xlink:href="#DejaVuSans-2d" x="254.492188"/>
     <use xlink:href="#DejaVuSans-30" x="290.576172"/>
     <use xlink:href="#DejaVuSans-32" x="354.199219"/>
     <use xlink:href="#DejaVuSans-2d" x="417.822266"/>
     <use xlink:href="#DejaVuSans-31" x="453.90625"/>
     <use xlink:href="#DejaVuSans-38" x="517.529297"/>
     <use xlink:href="#DejaVuSans-2d" x="581.152344"/>
     <use xlink:href="#DejaVuSans-31" x="617.236328"/>
     <use xlink:href="#DejaVuSans-34" x="680.859375"/>
     <use xlink:href="#DejaVuSans-3a" x="744.482422"/>
     <use xlink:href="#DejaVuSans-35" x="778.173828"/>
     <use xlink:href="#DejaVuSans-30" x="841.796875"/>
     <use xlink:href="#DejaVuSans-3a" x="905.419922"/>
     <use xlink:href="#DejaVuSans-34" x="939.111328"/>
     <use xlink:href="#DejaVuSans-33" x="1002.734375"/>
    </g>
   </g>
   <g id="legend_1">
    <g id="patch_7">
     <path d="M 64.6 94.34075 
L 190.723438 94.34075 
Q 192.723438 94.34075 192.723438 92.34075 
L 192.723438 48.472 
Q 192.723438 46.472 190.723438 46.472 
L 64.6 46.472 
Q 62.6 46.472 62.6 48.472 
L 62.6 92.34075 
Q 62.6 94.34075 64.6 94.34075 
z
" style="fill: #ffffff; opacity: 0.8; stroke: #cccccc; stroke-linejoin: miter"/>
    </g>
    <g id="line2d_27">
     <path d="M 66.6 54.570438 
L 76.6 54.570438 
L 86.6 54.570438 
" style="fill: none; stroke: #1f77b4; stroke-opacity: 0.4; stroke-linecap: square"/>
    </g>
    <g id="text_12">
     <!-- SchNet eval_loss -->
     <g transform="translate(94.6 58.070438) scale(0.1 -0.1)">
      <defs>
       <path id="DejaVuSans-53" d="M 3425 4513 
L 3425 3897 
Q 3066 4069 2747 4153 
Q 2428 4238 2131 4238 
Q 1616 4238 1336 4038 
Q 1056 3838 1056 3469 
Q 1056 3159 1242 3001 
Q 1428 2844 1947 2747 
L 2328 2669 
Q 3034 2534 3370 2195 
Q 3706 1856 3706 1288 
Q 3706 609 3251 259 
Q 2797 -91 1919 -91 
Q 1588 -91 1214 -16 
Q 841 59 441 206 
L 441 856 
Q 825 641 1194 531 
Q 1563 422 1919 422 
Q 2459 422 2753 634 
Q 3047 847 3047 1241 
Q 3047 1584 2836 1778 
Q 2625 1972 2144 2069 
L 1759 2144 
Q 1053 2284 737 2584 
Q 422 2884 422 3419 
Q 422 4038 858 4394 
Q 1294 4750 2059 4750 
Q 2388 4750 2728 4690 
Q 3069 4631 3425 4513 
z
" transform="scale(0.015625)"/>
       <path id="DejaVuSans-63" d="M 3122 3366 
L 3122 2828 
Q 2878 2963 2633 3030 
Q 2388 3097 2138 3097 
Q 1578 3097 1268 2742 
Q 959 2388 959 1747 
Q 959 1106 1268 751 
Q 1578 397 2138 397 
Q 2388 397 2633 464 
Q 2878 531 3122 666 
L 3122 134 
Q 2881 22 2623 -34 
Q 2366 -91 2075 -91 
Q 1284 -91 818 406 
Q 353 903 353 1747 
Q 353 2603 823 3093 
Q 1294 3584 2113 3584 
Q 2378 3584 2631 3529 
Q 2884 3475 3122 3366 
z
" transform="scale(0.015625)"/>
       <path id="DejaVuSans-68" d="M 3513 2113 
L 3513 0 
L 2938 0 
L 2938 2094 
Q 2938 2591 2744 2837 
Q 2550 3084 2163 3084 
Q 1697 3084 1428 2787 
Q 1159 2491 1159 1978 
L 1159 0 
L 581 0 
L 581 4863 
L 1159 4863 
L 1159 2956 
Q 1366 3272 1645 3428 
Q 1925 3584 2291 3584 
Q 2894 3584 3203 3211 
Q 3513 2838 3513 2113 
z
" transform="scale(0.015625)"/>
       <path id="DejaVuSans-4e" d="M 628 4666 
L 1478 4666 
L 3547 763 
L 3547 4666 
L 4159 4666 
L 4159 0 
L 3309 0 
L 1241 3903 
L 1241 0 
L 628 0 
L 628 4666 
z
" transform="scale(0.015625)"/>
       <path id="DejaVuSans-20" transform="scale(0.015625)"/>
       <path id="DejaVuSans-76" d="M 191 3500 
L 800 3500 
L 1894 563 
L 2988 3500 
L 3597 3500 
L 2284 0 
L 1503 0 
L 191 3500 
z
" transform="scale(0.015625)"/>
       <path id="DejaVuSans-61" d="M 2194 1759 
Q 1497 1759 1228 1600 
Q 959 1441 959 1056 
Q 959 750 1161 570 
Q 1363 391 1709 391 
Q 2188 391 2477 730 
Q 2766 1069 2766 1631 
L 2766 1759 
L 2194 1759 
z
M 3341 1997 
L 3341 0 
L 2766 0 
L 2766 531 
Q 2569 213 2275 61 
Q 1981 -91 1556 -91 
Q 1019 -91 701 211 
Q 384 513 384 1019 
Q 384 1609 779 1909 
Q 1175 2209 1959 2209 
L 2766 2209 
L 2766 2266 
Q 2766 2663 2505 2880 
Q 2244 3097 1772 3097 
Q 1472 3097 1187 3025 
Q 903 2953 641 2809 
L 641 3341 
Q 956 3463 1253 3523 
Q 1550 3584 1831 3584 
Q 2591 3584 2966 3190 
Q 3341 2797 3341 1997 
z
" transform="scale(0.015625)"/>
       <path id="DejaVuSans-5f" d="M 3263 -1063 
L 3263 -1509 
L -63 -1509 
L -63 -1063 
L 3263 -1063 
z
" transform="scale(0.015625)"/>
      </defs>
      <use xlink:href="#DejaVuSans-53"/>
      <use xlink:href="#DejaVuSans-63" x="63.476562"/>
      <use xlink:href="#DejaVuSans-68" x="118.457031"/>
      <use xlink:href="#DejaVuSans-4e" x="181.835938"/>
      <use xlink:href="#DejaVuSans-65" x="256.640625"/>
      <use xlink:href="#DejaVuSans-74" x="318.164062"/>
      <use xlink:href="#DejaVuSans-20" x="357.373047"/>
      <use xlink:href="#DejaVuSans-65" x="389.160156"/>
      <use xlink:href="#DejaVuSans-76" x="450.683594"/>
      <use xlink:href="#DejaVuSans-61" x="509.863281"/>
      <use xlink:href="#DejaVuSans-6c" x="571.142578"/>
      <use xlink:href="#DejaVuSans-5f" x="598.925781"/>
      <use xlink:href="#DejaVuSans-6c" x="648.925781"/>
      <use xlink:href="#DejaVuSans-6f" x="676.708984"/>
      <use xlink:href="#DejaVuSans-73" x="737.890625"/>
      <use xlink:href="#DejaVuSans-73" x="789.990234"/>
     </g>
    </g>
    <g id="line2d_28">
     <path d="M 66.6 69.526688 
L 76.6 69.526688 
L 86.6 69.526688 
" style="fill: none; stroke: #ff7f0e; stroke-opacity: 0.4; stroke-linecap: square"/>
    </g>
    <g id="text_13">
     <!-- MoGIN13 eval_loss -->
     <g transform="translate(94.6 73.026688) scale(0.1 -0.1)">
      <defs>
       <path id="DejaVuSans-4d" d="M 628 4666 
L 1569 4666 
L 2759 1491 
L 3956 4666 
L 4897 4666 
L 4897 0 
L 4281 0 
L 4281 4097 
L 3078 897 
L 2444 897 
L 1241 4097 
L 1241 0 
L 628 0 
L 628 4666 
z
" transform="scale(0.015625)"/>
       <path id="DejaVuSans-47" d="M 3809 666 
L 3809 1919 
L 2778 1919 
L 2778 2438 
L 4434 2438 
L 4434 434 
Q 4069 175 3628 42 
Q 3188 -91 2688 -91 
Q 1594 -91 976 548 
Q 359 1188 359 2328 
Q 359 3472 976 4111 
Q 1594 4750 2688 4750 
Q 3144 4750 3555 4637 
Q 3966 4525 4313 4306 
L 4313 3634 
Q 3963 3931 3569 4081 
Q 3175 4231 2741 4231 
Q 1884 4231 1454 3753 
Q 1025 3275 1025 2328 
Q 1025 1384 1454 906 
Q 1884 428 2741 428 
Q 3075 428 3337 486 
Q 3600 544 3809 666 
z
" transform="scale(0.015625)"/>
       <path id="DejaVuSans-49" d="M 628 4666 
L 1259 4666 
L 1259 0 
L 628 0 
L 628 4666 
z
" transform="scale(0.015625)"/>
      </defs>
      <use xlink:href="#DejaVuSans-4d"/>
      <use xlink:href="#DejaVuSans-6f" x="86.279297"/>
      <use xlink:href="#DejaVuSans-47" x="147.460938"/>
      <use xlink:href="#DejaVuSans-49" x="224.951172"/>
      <use xlink:href="#DejaVuSans-4e" x="254.443359"/>
      <use xlink:href="#DejaVuSans-31" x="329.248047"/>
      <use xlink:href="#DejaVuSans-33" x="392.871094"/>
      <use xlink:href="#DejaVuSans-20" x="456.494141"/>
      <use xlink:href="#DejaVuSans-65" x="488.28125"/>
      <use xlink:href="#DejaVuSans-76" x="549.804688"/>
      <use xlink:href="#DejaVuSans-61" x="608.984375"/>
      <use xlink:href="#DejaVuSans-6c" x="670.263672"/>
      <use xlink:href="#DejaVuSans-5f" x="698.046875"/>
      <use xlink:href="#DejaVuSans-6c" x="748.046875"/>
      <use xlink:href="#DejaVuSans-6f" x="775.830078"/>
      <use xlink:href="#DejaVuSans-73" x="837.011719"/>
      <use xlink:href="#DejaVuSans-73" x="889.111328"/>
     </g>
    </g>
    <g id="line2d_29">
     <path d="M 66.6 84.482938 
L 76.6 84.482938 
L 86.6 84.482938 
" style="fill: none; stroke: #2ca02c; stroke-opacity: 0.4; stroke-linecap: square"/>
    </g>
    <g id="text_14">
     <!-- MoGIN11 eval_loss -->
     <g transform="translate(94.6 87.982938) scale(0.1 -0.1)">
      <use xlink:href="#DejaVuSans-4d"/>
      <use xlink:href="#DejaVuSans-6f" x="86.279297"/>
      <use xlink:href="#DejaVuSans-47" x="147.460938"/>
      <use xlink:href="#DejaVuSans-49" x="224.951172"/>
      <use xlink:href="#DejaVuSans-4e" x="254.443359"/>
      <use xlink:href="#DejaVuSans-31" x="329.248047"/>
      <use xlink:href="#DejaVuSans-31" x="392.871094"/>
      <use xlink:href="#DejaVuSans-20" x="456.494141"/>
      <use xlink:href="#DejaVuSans-65" x="488.28125"/>
      <use xlink:href="#DejaVuSans-76" x="549.804688"/>
      <use xlink:href="#DejaVuSans-61" x="608.984375"/>
      <use xlink:href="#DejaVuSans-6c" x="670.263672"/>
      <use xlink:href="#DejaVuSans-5f" x="698.046875"/>
      <use xlink:href="#DejaVuSans-6c" x="748.046875"/>
      <use xlink:href="#DejaVuSans-6f" x="775.830078"/>
      <use xlink:href="#DejaVuSans-73" x="837.011719"/>
      <use xlink:href="#DejaVuSans-73" x="889.111328"/>
     </g>
    </g>
   </g>
  </g>
 </g>
 <defs>
  <clipPath id="p123648e7ca">
   <rect x="57.6" y="41.472" width="357.12" height="266.112"/>
  </clipPath>
 </defs>
</svg>
