<?xml version="1.0" encoding="utf-8" standalone="no"?>
<!DOCTYPE svg PUBLIC "-//W3C//DTD SVG 1.1//EN"
  "http://www.w3.org/Graphics/SVG/1.1/DTD/svg11.dtd">
<svg xmlns:xlink="http://www.w3.org/1999/xlink" width="460.8pt" height="345.6pt" viewBox="0 0 460.8 345.6" xmlns="http://www.w3.org/2000/svg" version="1.1">
 <metadata>
  <rdf:RDF xmlns:dc="http://purl.org/dc/elements/1.1/" xmlns:cc="http://creativecommons.org/ns#" xmlns:rdf="http://www.w3.org/1999/02/22-rdf-syntax-ns#">
   <cc:Work>
    <dc:type rdf:resource="http://purl.org/dc/dcmitype/StillImage"/>
    <dc:date>2025-02-21T09:06:55.257923</dc:date>
    <dc:format>image/svg+xml</dc:format>
    <dc:creator>
     <cc:Agent>
      <dc:title>Matplotlib v3.8.4, https://matplotlib.org/</dc:title>
     </cc:Agent>
    </dc:creator>
   </cc:Work>
  </rdf:RDF>
 </metadata>
 <defs>
  <style type="text/css">*{stroke-linejoin: round; stroke-linecap: butt}</style>
 </defs>
 <g id="figure_1">
  <g id="patch_1">
   <path d="M 0 345.6 
L 460.8 345.6 
L 460.8 0 
L 0 0 
z
" style="fill: #ffffff"/>
  </g>
  <g id="axes_1">
   <g id="patch_2">
    <path d="M 57.6 307.584 
L 414.72 307.584 
L 414.72 41.472 
L 57.6 41.472 
z
" style="fill: #ffffff"/>
   </g>
   <g id="matplotlib.axis_1">
    <g id="xtick_1">
     <g id="line2d_1">
      <defs>
       <path id="mef1c7fbd00" d="M 0 0 
L 0 3.5 
" style="stroke: #000000; stroke-width: 0.8"/>
      </defs>
      <g>
       <use xlink:href="#mef1c7fbd00" x="57.6" y="307.584" style="stroke: #000000; stroke-width: 0.8"/>
      </g>
     </g>
     <g id="text_1">
      <!-- $\mathdefault{10^{3}}$ -->
      <g transform="translate(48.8 322.182437) scale(0.1 -0.1)">
       <defs>
        <path id="DejaVuSans-31" d="M 794 531 
L 1825 531 
L 1825 4091 
L 703 3866 
L 703 4441 
L 1819 4666 
L 2450 4666 
L 2450 531 
L 3481 531 
L 3481 0 
L 794 0 
L 794 531 
z
" transform="scale(0.015625)"/>
        <path id="DejaVuSans-30" d="M 2034 4250 
Q 1547 4250 1301 3770 
Q 1056 3291 1056 2328 
Q 1056 1369 1301 889 
Q 1547 409 2034 409 
Q 2525 409 2770 889 
Q 3016 1369 3016 2328 
Q 3016 3291 2770 3770 
Q 2525 4250 2034 4250 
z
M 2034 4750 
Q 2819 4750 3233 4129 
Q 3647 3509 3647 2328 
Q 3647 1150 3233 529 
Q 2819 -91 2034 -91 
Q 1250 -91 836 529 
Q 422 1150 422 2328 
Q 422 3509 836 4129 
Q 1250 4750 2034 4750 
z
" transform="scale(0.015625)"/>
        <path id="DejaVuSans-33" d="M 2597 2516 
Q 3050 2419 3304 2112 
Q 3559 1806 3559 1356 
Q 3559 666 3084 287 
Q 2609 -91 1734 -91 
Q 1441 -91 1130 -33 
Q 819 25 488 141 
L 488 750 
Q 750 597 1062 519 
Q 1375 441 1716 441 
Q 2309 441 2620 675 
Q 2931 909 2931 1356 
Q 2931 1769 2642 2001 
Q 2353 2234 1838 2234 
L 1294 2234 
L 1294 2753 
L 1863 2753 
Q 2328 2753 2575 2939 
Q 2822 3125 2822 3475 
Q 2822 3834 2567 4026 
Q 2313 4219 1838 4219 
Q 1578 4219 1281 4162 
Q 984 4106 628 3988 
L 628 4550 
Q 988 4650 1302 4700 
Q 1616 4750 1894 4750 
Q 2613 4750 3031 4423 
Q 3450 4097 3450 3541 
Q 3450 3153 3228 2886 
Q 3006 2619 2597 2516 
z
" transform="scale(0.015625)"/>
       </defs>
       <use xlink:href="#DejaVuSans-31" transform="translate(0 0.765625)"/>
       <use xlink:href="#DejaVuSans-30" transform="translate(63.623047 0.765625)"/>
       <use xlink:href="#DejaVuSans-33" transform="translate(128.203125 39.046875) scale(0.7)"/>
      </g>
     </g>
    </g>
    <g id="xtick_2">
     <g id="line2d_2">
      <g>
       <use xlink:href="#mef1c7fbd00" x="267.797943" y="307.584" style="stroke: #000000; stroke-width: 0.8"/>
      </g>
     </g>
     <g id="text_2">
      <!-- $\mathdefault{10^{4}}$ -->
      <g transform="translate(258.997943 322.182437) scale(0.1 -0.1)">
       <defs>
        <path id="DejaVuSans-34" d="M 2419 4116 
L 825 1625 
L 2419 1625 
L 2419 4116 
z
M 2253 4666 
L 3047 4666 
L 3047 1625 
L 3713 1625 
L 3713 1100 
L 3047 1100 
L 3047 0 
L 2419 0 
L 2419 1100 
L 313 1100 
L 313 1709 
L 2253 4666 
z
" transform="scale(0.015625)"/>
       </defs>
       <use xlink:href="#DejaVuSans-31" transform="translate(0 0.684375)"/>
       <use xlink:href="#DejaVuSans-30" transform="translate(63.623047 0.684375)"/>
       <use xlink:href="#DejaVuSans-34" transform="translate(128.203125 38.965625) scale(0.7)"/>
      </g>
     </g>
    </g>
    <g id="xtick_3">
     <g id="line2d_3">
      <defs>
       <path id="m4a3a4dd842" d="M 0 0 
L 0 2 
" style="stroke: #000000; stroke-width: 0.6"/>
      </defs>
      <g>
       <use xlink:href="#m4a3a4dd842" x="120.875886" y="307.584" style="stroke: #000000; stroke-width: 0.6"/>
      </g>
     </g>
    </g>
    <g id="xtick_4">
     <g id="line2d_4">
      <g>
       <use xlink:href="#m4a3a4dd842" x="157.889906" y="307.584" style="stroke: #000000; stroke-width: 0.6"/>
      </g>
     </g>
    </g>
    <g id="xtick_5">
     <g id="line2d_5">
      <g>
       <use xlink:href="#m4a3a4dd842" x="184.151772" y="307.584" style="stroke: #000000; stroke-width: 0.6"/>
      </g>
     </g>
    </g>
    <g id="xtick_6">
     <g id="line2d_6">
      <g>
       <use xlink:href="#m4a3a4dd842" x="204.522057" y="307.584" style="stroke: #000000; stroke-width: 0.6"/>
      </g>
     </g>
    </g>
    <g id="xtick_7">
     <g id="line2d_7">
      <g>
       <use xlink:href="#m4a3a4dd842" x="221.165792" y="307.584" style="stroke: #000000; stroke-width: 0.6"/>
      </g>
     </g>
    </g>
    <g id="xtick_8">
     <g id="line2d_8">
      <g>
       <use xlink:href="#m4a3a4dd842" x="235.23787" y="307.584" style="stroke: #000000; stroke-width: 0.6"/>
      </g>
     </g>
    </g>
    <g id="xtick_9">
     <g id="line2d_9">
      <g>
       <use xlink:href="#m4a3a4dd842" x="247.427658" y="307.584" style="stroke: #000000; stroke-width: 0.6"/>
      </g>
     </g>
    </g>
    <g id="xtick_10">
     <g id="line2d_10">
      <g>
       <use xlink:href="#m4a3a4dd842" x="258.179813" y="307.584" style="stroke: #000000; stroke-width: 0.6"/>
      </g>
     </g>
    </g>
    <g id="xtick_11">
     <g id="line2d_11">
      <g>
       <use xlink:href="#m4a3a4dd842" x="331.073829" y="307.584" style="stroke: #000000; stroke-width: 0.6"/>
      </g>
     </g>
    </g>
    <g id="xtick_12">
     <g id="line2d_12">
      <g>
       <use xlink:href="#m4a3a4dd842" x="368.087849" y="307.584" style="stroke: #000000; stroke-width: 0.6"/>
      </g>
     </g>
    </g>
    <g id="xtick_13">
     <g id="line2d_13">
      <g>
       <use xlink:href="#m4a3a4dd842" x="394.349715" y="307.584" style="stroke: #000000; stroke-width: 0.6"/>
      </g>
     </g>
    </g>
    <g id="xtick_14">
     <g id="line2d_14">
      <g>
       <use xlink:href="#m4a3a4dd842" x="414.72" y="307.584" style="stroke: #000000; stroke-width: 0.6"/>
      </g>
     </g>
    </g>
    <g id="text_3">
     <!-- iter# -->
     <g transform="translate(223.488906 335.860562) scale(0.1 -0.1)">
      <defs>
       <path id="DejaVuSans-69" d="M 603 3500 
L 1178 3500 
L 1178 0 
L 603 0 
L 603 3500 
z
M 603 4863 
L 1178 4863 
L 1178 4134 
L 603 4134 
L 603 4863 
z
" transform="scale(0.015625)"/>
       <path id="DejaVuSans-74" d="M 1172 4494 
L 1172 3500 
L 2356 3500 
L 2356 3053 
L 1172 3053 
L 1172 1153 
Q 1172 725 1289 603 
Q 1406 481 1766 481 
L 2356 481 
L 2356 0 
L 1766 0 
Q 1100 0 847 248 
Q 594 497 594 1153 
L 594 3053 
L 172 3053 
L 172 3500 
L 594 3500 
L 594 4494 
L 1172 4494 
z
" transform="scale(0.015625)"/>
       <path id="DejaVuSans-65" d="M 3597 1894 
L 3597 1613 
L 953 1613 
Q 991 1019 1311 708 
Q 1631 397 2203 397 
Q 2534 397 2845 478 
Q 3156 559 3463 722 
L 3463 178 
Q 3153 47 2828 -22 
Q 2503 -91 2169 -91 
Q 1331 -91 842 396 
Q 353 884 353 1716 
Q 353 2575 817 3079 
Q 1281 3584 2069 3584 
Q 2775 3584 3186 3129 
Q 3597 2675 3597 1894 
z
M 3022 2063 
Q 3016 2534 2758 2815 
Q 2500 3097 2075 3097 
Q 1594 3097 1305 2825 
Q 1016 2553 972 2059 
L 3022 2063 
z
" transform="scale(0.015625)"/>
       <path id="DejaVuSans-72" d="M 2631 2963 
Q 2534 3019 2420 3045 
Q 2306 3072 2169 3072 
Q 1681 3072 1420 2755 
Q 1159 2438 1159 1844 
L 1159 0 
L 581 0 
L 581 3500 
L 1159 3500 
L 1159 2956 
Q 1341 3275 1631 3429 
Q 1922 3584 2338 3584 
Q 2397 3584 2469 3576 
Q 2541 3569 2628 3553 
L 2631 2963 
z
" transform="scale(0.015625)"/>
       <path id="DejaVuSans-23" d="M 3272 2816 
L 2363 2816 
L 2100 1772 
L 3016 1772 
L 3272 2816 
z
M 2803 4594 
L 2478 3297 
L 3391 3297 
L 3719 4594 
L 4219 4594 
L 3897 3297 
L 4872 3297 
L 4872 2816 
L 3775 2816 
L 3519 1772 
L 4513 1772 
L 4513 1294 
L 3397 1294 
L 3072 0 
L 2572 0 
L 2894 1294 
L 1978 1294 
L 1656 0 
L 1153 0 
L 1478 1294 
L 494 1294 
L 494 1772 
L 1594 1772 
L 1856 2816 
L 850 2816 
L 850 3297 
L 1978 3297 
L 2297 4594 
L 2803 4594 
z
" transform="scale(0.015625)"/>
      </defs>
      <use xlink:href="#DejaVuSans-69"/>
      <use xlink:href="#DejaVuSans-74" x="27.783203"/>
      <use xlink:href="#DejaVuSans-65" x="66.992188"/>
      <use xlink:href="#DejaVuSans-72" x="128.515625"/>
      <use xlink:href="#DejaVuSans-23" x="169.628906"/>
     </g>
    </g>
   </g>
   <g id="matplotlib.axis_2">
    <g id="ytick_1">
     <g id="line2d_15">
      <defs>
       <path id="m0d99835c02" d="M 0 0 
L -3.5 0 
" style="stroke: #000000; stroke-width: 0.8"/>
      </defs>
      <g>
       <use xlink:href="#m0d99835c02" x="57.6" y="307.584" style="stroke: #000000; stroke-width: 0.8"/>
      </g>
     </g>
     <g id="text_4">
      <!-- $\mathdefault{10^{-3}}$ -->
      <g transform="translate(27.1 311.383219) scale(0.1 -0.1)">
       <defs>
        <path id="DejaVuSans-2212" d="M 678 2272 
L 4684 2272 
L 4684 1741 
L 678 1741 
L 678 2272 
z
" transform="scale(0.015625)"/>
       </defs>
       <use xlink:href="#DejaVuSans-31" transform="translate(0 0.765625)"/>
       <use xlink:href="#DejaVuSans-30" transform="translate(63.623047 0.765625)"/>
       <use xlink:href="#DejaVuSans-2212" transform="translate(128.203125 39.046875) scale(0.7)"/>
       <use xlink:href="#DejaVuSans-33" transform="translate(186.855469 39.046875) scale(0.7)"/>
      </g>
     </g>
    </g>
    <g id="ytick_2">
     <g id="line2d_16">
      <g>
       <use xlink:href="#m0d99835c02" x="57.6" y="191.934921" style="stroke: #000000; stroke-width: 0.8"/>
      </g>
     </g>
     <g id="text_5">
      <!-- $\mathdefault{10^{-2}}$ -->
      <g transform="translate(27.1 195.73414) scale(0.1 -0.1)">
       <defs>
        <path id="DejaVuSans-32" d="M 1228 531 
L 3431 531 
L 3431 0 
L 469 0 
L 469 531 
Q 828 903 1448 1529 
Q 2069 2156 2228 2338 
Q 2531 2678 2651 2914 
Q 2772 3150 2772 3378 
Q 2772 3750 2511 3984 
Q 2250 4219 1831 4219 
Q 1534 4219 1204 4116 
Q 875 4013 500 3803 
L 500 4441 
Q 881 4594 1212 4672 
Q 1544 4750 1819 4750 
Q 2544 4750 2975 4387 
Q 3406 4025 3406 3419 
Q 3406 3131 3298 2873 
Q 3191 2616 2906 2266 
Q 2828 2175 2409 1742 
Q 1991 1309 1228 531 
z
" transform="scale(0.015625)"/>
       </defs>
       <use xlink:href="#DejaVuSans-31" transform="translate(0 0.765625)"/>
       <use xlink:href="#DejaVuSans-30" transform="translate(63.623047 0.765625)"/>
       <use xlink:href="#DejaVuSans-2212" transform="translate(128.203125 39.046875) scale(0.7)"/>
       <use xlink:href="#DejaVuSans-32" transform="translate(186.855469 39.046875) scale(0.7)"/>
      </g>
     </g>
    </g>
    <g id="ytick_3">
     <g id="line2d_17">
      <g>
       <use xlink:href="#m0d99835c02" x="57.6" y="76.285842" style="stroke: #000000; stroke-width: 0.8"/>
      </g>
     </g>
     <g id="text_6">
      <!-- $\mathdefault{10^{-1}}$ -->
      <g transform="translate(27.1 80.085061) scale(0.1 -0.1)">
       <use xlink:href="#DejaVuSans-31" transform="translate(0 0.684375)"/>
       <use xlink:href="#DejaVuSans-30" transform="translate(63.623047 0.684375)"/>
       <use xlink:href="#DejaVuSans-2212" transform="translate(128.203125 38.965625) scale(0.7)"/>
       <use xlink:href="#DejaVuSans-31" transform="translate(186.855469 38.965625) scale(0.7)"/>
      </g>
     </g>
    </g>
    <g id="ytick_4">
     <g id="line2d_18">
      <defs>
       <path id="m192cb50fd0" d="M 0 0 
L -2 0 
" style="stroke: #000000; stroke-width: 0.6"/>
      </defs>
      <g>
       <use xlink:href="#m192cb50fd0" x="57.6" y="272.770158" style="stroke: #000000; stroke-width: 0.6"/>
      </g>
     </g>
    </g>
    <g id="ytick_5">
     <g id="line2d_19">
      <g>
       <use xlink:href="#m192cb50fd0" x="57.6" y="252.405366" style="stroke: #000000; stroke-width: 0.6"/>
      </g>
     </g>
    </g>
    <g id="ytick_6">
     <g id="line2d_20">
      <g>
       <use xlink:href="#m192cb50fd0" x="57.6" y="237.956316" style="stroke: #000000; stroke-width: 0.6"/>
      </g>
     </g>
    </g>
    <g id="ytick_7">
     <g id="line2d_21">
      <g>
       <use xlink:href="#m192cb50fd0" x="57.6" y="226.748763" style="stroke: #000000; stroke-width: 0.6"/>
      </g>
     </g>
    </g>
    <g id="ytick_8">
     <g id="line2d_22">
      <g>
       <use xlink:href="#m192cb50fd0" x="57.6" y="217.591524" style="stroke: #000000; stroke-width: 0.6"/>
      </g>
     </g>
    </g>
    <g id="ytick_9">
     <g id="line2d_23">
      <g>
       <use xlink:href="#m192cb50fd0" x="57.6" y="209.84919" style="stroke: #000000; stroke-width: 0.6"/>
      </g>
     </g>
    </g>
    <g id="ytick_10">
     <g id="line2d_24">
      <g>
       <use xlink:href="#m192cb50fd0" x="57.6" y="203.142475" style="stroke: #000000; stroke-width: 0.6"/>
      </g>
     </g>
    </g>
    <g id="ytick_11">
     <g id="line2d_25">
      <g>
       <use xlink:href="#m192cb50fd0" x="57.6" y="197.226733" style="stroke: #000000; stroke-width: 0.6"/>
      </g>
     </g>
    </g>
    <g id="ytick_12">
     <g id="line2d_26">
      <g>
       <use xlink:href="#m192cb50fd0" x="57.6" y="157.121079" style="stroke: #000000; stroke-width: 0.6"/>
      </g>
     </g>
    </g>
    <g id="ytick_13">
     <g id="line2d_27">
      <g>
       <use xlink:href="#m192cb50fd0" x="57.6" y="136.756287" style="stroke: #000000; stroke-width: 0.6"/>
      </g>
     </g>
    </g>
    <g id="ytick_14">
     <g id="line2d_28">
      <g>
       <use xlink:href="#m192cb50fd0" x="57.6" y="122.307237" style="stroke: #000000; stroke-width: 0.6"/>
      </g>
     </g>
    </g>
    <g id="ytick_15">
     <g id="line2d_29">
      <g>
       <use xlink:href="#m192cb50fd0" x="57.6" y="111.099684" style="stroke: #000000; stroke-width: 0.6"/>
      </g>
     </g>
    </g>
    <g id="ytick_16">
     <g id="line2d_30">
      <g>
       <use xlink:href="#m192cb50fd0" x="57.6" y="101.942445" style="stroke: #000000; stroke-width: 0.6"/>
      </g>
     </g>
    </g>
    <g id="ytick_17">
     <g id="line2d_31">
      <g>
       <use xlink:href="#m192cb50fd0" x="57.6" y="94.200111" style="stroke: #000000; stroke-width: 0.6"/>
      </g>
     </g>
    </g>
    <g id="ytick_18">
     <g id="line2d_32">
      <g>
       <use xlink:href="#m192cb50fd0" x="57.6" y="87.493396" style="stroke: #000000; stroke-width: 0.6"/>
      </g>
     </g>
    </g>
    <g id="ytick_19">
     <g id="line2d_33">
      <g>
       <use xlink:href="#m192cb50fd0" x="57.6" y="81.577653" style="stroke: #000000; stroke-width: 0.6"/>
      </g>
     </g>
    </g>
    <g id="ytick_20">
     <g id="line2d_34">
      <g>
       <use xlink:href="#m192cb50fd0" x="57.6" y="41.472" style="stroke: #000000; stroke-width: 0.6"/>
      </g>
     </g>
    </g>
    <g id="text_7">
     <!-- loss -->
     <g transform="translate(21.020313 184.185812) rotate(-90) scale(0.1 -0.1)">
      <defs>
       <path id="DejaVuSans-6c" d="M 603 4863 
L 1178 4863 
L 1178 0 
L 603 0 
L 603 4863 
z
" transform="scale(0.015625)"/>
       <path id="DejaVuSans-6f" d="M 1959 3097 
Q 1497 3097 1228 2736 
Q 959 2375 959 1747 
Q 959 1119 1226 758 
Q 1494 397 1959 397 
Q 2419 397 2687 759 
Q 2956 1122 2956 1747 
Q 2956 2369 2687 2733 
Q 2419 3097 1959 3097 
z
M 1959 3584 
Q 2709 3584 3137 3096 
Q 3566 2609 3566 1747 
Q 3566 888 3137 398 
Q 2709 -91 1959 -91 
Q 1206 -91 779 398 
Q 353 888 353 1747 
Q 353 2609 779 3096 
Q 1206 3584 1959 3584 
z
" transform="scale(0.015625)"/>
       <path id="DejaVuSans-73" d="M 2834 3397 
L 2834 2853 
Q 2591 2978 2328 3040 
Q 2066 3103 1784 3103 
Q 1356 3103 1142 2972 
Q 928 2841 928 2578 
Q 928 2378 1081 2264 
Q 1234 2150 1697 2047 
L 1894 2003 
Q 2506 1872 2764 1633 
Q 3022 1394 3022 966 
Q 3022 478 2636 193 
Q 2250 -91 1575 -91 
Q 1294 -91 989 -36 
Q 684 19 347 128 
L 347 722 
Q 666 556 975 473 
Q 1284 391 1588 391 
Q 1994 391 2212 530 
Q 2431 669 2431 922 
Q 2431 1156 2273 1281 
Q 2116 1406 1581 1522 
L 1381 1569 
Q 847 1681 609 1914 
Q 372 2147 372 2553 
Q 372 3047 722 3315 
Q 1072 3584 1716 3584 
Q 2034 3584 2315 3537 
Q 2597 3491 2834 3397 
z
" transform="scale(0.015625)"/>
      </defs>
      <use xlink:href="#DejaVuSans-6c"/>
      <use xlink:href="#DejaVuSans-6f" x="27.783203"/>
      <use xlink:href="#DejaVuSans-73" x="88.964844"/>
      <use xlink:href="#DejaVuSans-73" x="141.064453"/>
     </g>
    </g>
   </g>
   <g id="line2d_35">
    <path d="M 81.768445 -1 
L 84.657159 0.972891 
L 88.900784 4.46902 
L 92.955871 6.988394 
L 96.838463 10.528689 
L 100.562638 13.459045 
L 104.140817 16.736819 
L 107.584018 19.363537 
L 114.103709 25.684371 
L 117.196869 28.200354 
L 123.085479 34.138393 
L 123.839744 36.743825 
L 126.624717 39.035188 
L 129.327236 40.315691 
L 131.952044 42.759027 
L 134.503485 43.906079 
L 136.985549 45.617051 
L 139.40191 48.264721 
L 141.755957 50.219492 
L 146.289409 54.279729 
L 148.474413 53.795307 
L 150.608337 53.944633 
L 152.693517 55.627288 
L 154.732129 57.04196 
L 156.726208 59.621988 
L 160.588264 62.701778 
L 162.459701 62.913191 
L 164.293541 65.374634 
L 166.091267 67.042567 
L 167.854273 69.054 
L 169.583875 69.231688 
L 171.281314 69.85243 
L 172.947767 71.493621 
L 174.584343 72.772205 
L 176.192095 72.86824 
L 177.77202 74.343586 
L 179.325067 76.27489 
L 180.852133 78.479951 
L 182.354074 77.781901 
L 183.831704 77.447531 
L 185.285796 77.893732 
L 186.71709 78.894961 
L 187.093535 77.641635 
L 189.879171 82.415092 
L 191.240749 81.64642 
L 192.582316 82.851648 
L 193.904452 84.355488 
L 196.49263 85.283611 
L 197.759712 85.615238 
L 199.009447 87.656784 
L 200.242303 88.405838 
L 201.458732 87.886975 
L 202.659164 89.081947 
L 203.844015 89.93318 
L 205.013685 90.305547 
L 206.168557 91.954633 
L 207.309001 91.723731 
L 208.435374 93.389576 
L 209.548017 95.529534 
L 210.647263 94.814932 
L 211.733429 93.505274 
L 212.806824 90.75915 
L 213.867744 92.250749 
L 214.916475 92.285965 
L 216.978472 96.092454 
L 217.992263 96.774549 
L 218.99492 98.845357 
L 219.986683 96.401298 
L 220.967787 98.100981 
L 221.938459 96.630954 
L 222.898919 95.75067 
L 223.849378 97.204751 
L 224.100189 98.414153 
L 225.038286 98.142579 
L 225.966842 94.656083 
L 226.886047 97.024216 
L 228.697148 100.791097 
L 229.5894 100.574837 
L 230.473015 102.218548 
L 231.34816 103.243975 
L 232.214994 102.646995 
L 233.073675 103.943502 
L 233.924353 104.715259 
L 234.767178 106.14458 
L 236.429836 109.548081 
L 238.062753 111.197363 
L 238.868387 111.206117 
L 239.666973 110.100784 
L 240.458634 106.93745 
L 241.243488 102.611348 
L 242.021652 103.048357 
L 242.793239 99.107909 
L 243.558358 98.53549 
L 244.317119 93.935607 
L 245.069624 92.19051 
L 245.815977 93.66555 
L 246.556278 93.998097 
L 247.290623 95.303792 
L 248.019108 96.99859 
L 248.741826 98.192171 
L 249.458867 97.945523 
L 250.170319 97.256272 
L 250.358371 99.344514 
L 251.062874 100.95813 
L 251.761983 103.048672 
L 252.455778 103.952842 
L 253.14434 104.33465 
L 253.827747 103.823529 
L 254.506076 105.389459 
L 255.179401 107.803945 
L 255.847797 107.732809 
L 256.511334 108.467155 
L 257.170083 106.869175 
L 257.824112 107.326783 
L 258.473489 107.568381 
L 259.118279 108.840917 
L 259.758547 103.99215 
L 260.394356 103.622621 
L 261.65284 108.076251 
L 262.275635 109.000684 
L 262.89421 106.126599 
L 263.508622 107.560009 
L 264.118926 108.622451 
L 264.725177 107.296614 
L 265.327428 108.194482 
L 266.520141 101.330184 
L 267.697471 104.910197 
L 268.280491 105.743863 
L 268.85981 107.628363 
L 269.435477 106.332624 
L 270.007536 105.79569 
L 270.576032 105.031275 
L 270.726446 106.257143 
L 271.290497 107.318519 
L 271.851084 109.434525 
L 272.408249 108.144999 
L 273.512481 112.551083 
L 274.059628 112.825761 
L 274.603516 114.886128 
L 275.681664 111.625524 
L 276.216001 112.297389 
L 276.747228 113.19657 
L 277.275382 115.139327 
L 277.800497 115.27781 
L 278.322609 116.313352 
L 278.841752 116.147818 
L 279.35796 115.069498 
L 279.871265 115.592797 
L 280.381699 114.355547 
L 280.889296 113.550932 
L 281.394085 114.417044 
L 281.896099 109.746465 
L 282.891919 112.124816 
L 283.385785 112.8034 
L 283.876994 115.241061 
L 284.365573 116.806675 
L 284.851552 119.269867 
L 285.334957 120.965317 
L 285.815815 121.402927 
L 286.77 124.343805 
L 287.243378 126.149802 
L 287.368708 128.325077 
L 288.30688 131.670346 
L 288.772376 133.241812 
L 289.23551 135.200677 
L 289.696305 136.565564 
L 290.154787 134.224692 
L 290.610978 135.320407 
L 291.0649 135.387443 
L 291.516576 135.950611 
L 291.966028 133.945081 
L 292.413279 135.009387 
L 292.858349 128.758754 
L 293.301259 130.651874 
L 293.742031 133.044537 
L 294.180685 134.719663 
L 294.617241 135.940261 
L 295.051719 133.350237 
L 295.484139 133.580479 
L 295.914521 135.691581 
L 296.342883 133.539895 
L 296.769245 134.915546 
L 297.193624 130.524297 
L 297.616039 128.326941 
L 298.036509 127.768101 
L 298.455052 127.840764 
L 298.871683 127.43043 
L 299.286423 129.131634 
L 299.699286 118.866525 
L 301.332317 127.262614 
L 301.439733 128.783364 
L 302.644207 135.664901 
L 303.438451 140.270766 
L 304.225844 139.116886 
L 304.617008 140.587635 
L 305.006503 142.539548 
L 305.394344 140.666099 
L 305.780543 140.532683 
L 306.165116 139.171613 
L 306.548075 139.403783 
L 306.929435 141.421192 
L 307.687408 142.519517 
L 308.064047 144.574023 
L 308.439138 145.365488 
L 308.812695 143.934484 
L 309.18473 144.82934 
L 309.92428 141.02388 
L 310.291821 141.45845 
L 310.657888 142.403978 
L 311.022493 144.408306 
L 311.385647 144.053718 
L 311.747363 138.671974 
L 312.10765 137.092559 
L 312.466522 138.034017 
L 312.823988 140.200772 
L 313.18006 141.628235 
L 313.534748 141.857855 
L 313.628731 141.143951 
L 313.981684 142.268761 
L 314.683522 145.624001 
L 315.032427 146.834718 
L 315.380005 148.842378 
L 315.726264 149.438229 
L 316.071214 145.463138 
L 316.414866 143.803141 
L 316.757229 143.34254 
L 317.438127 146.909173 
L 317.776681 147.355673 
L 318.113984 147.415666 
L 318.450046 146.498613 
L 318.784874 144.438197 
L 319.45087 148.464301 
L 319.782055 140.562383 
L 321.094907 146.973087 
L 321.420191 147.213799 
L 321.74432 146.242219 
L 322.067302 146.326561 
L 322.389145 142.935618 
L 323.347923 146.744307 
L 323.665291 146.551614 
L 323.98156 145.712699 
L 324.296736 145.197964 
L 324.694077 148.299198 
L 325.629072 154.895812 
L 325.938621 156.700079 
L 326.247124 154.381255 
L 326.554588 155.814141 
L 327.166426 159.311449 
L 327.470814 157.553563 
L 327.77419 158.645599 
L 328.076562 159.088783 
L 328.678317 161.908618 
L 328.977714 156.082292 
L 329.276131 154.790686 
L 329.573577 155.878174 
L 329.870056 158.033012 
L 330.165576 157.907896 
L 330.460142 159.911735 
L 330.753761 137.144092 
L 331.046438 138.295545 
L 331.33818 138.368673 
L 332.495913 147.143976 
L 332.783066 147.428978 
L 333.069319 149.411905 
L 333.354678 149.325984 
L 333.639147 149.019774 
L 333.922732 150.553962 
L 333.997911 152.023173 
L 334.280386 153.646437 
L 334.56199 156.091614 
L 334.842727 156.150062 
L 335.679796 162.288666 
L 335.957121 161.512603 
L 336.233607 161.928401 
L 336.509258 162.816836 
L 337.331252 168.048005 
L 337.603614 167.30135 
L 337.875165 168.725507 
L 338.145911 165.047257 
L 338.415856 164.443077 
L 338.685005 165.745547 
L 338.953363 167.948412 
L 339.220935 168.628121 
L 339.487724 167.848376 
L 339.753736 158.784477 
L 340.018976 154.982602 
L 340.283446 155.114316 
L 340.547153 156.809863 
L 340.8101 156.497819 
L 341.072292 157.25723 
L 341.594428 159.101191 
L 341.85438 154.230043 
L 342.113594 155.240453 
L 342.372074 155.383637 
L 342.629824 157.121053 
L 342.698167 158.402817 
L 342.954999 160.0727 
L 343.211111 160.512176 
L 343.466506 159.798499 
L 343.721189 160.475067 
L 344.228433 164.781086 
L 344.481002 162.893662 
L 344.732874 164.19431 
L 344.984053 161.042968 
L 345.234543 160.941736 
L 345.484347 159.408556 
L 345.73347 160.907201 
L 345.981914 161.061947 
L 346.229685 162.100682 
L 346.476784 161.086891 
L 346.723217 161.445724 
L 346.968986 162.079524 
L 347.214095 163.72261 
L 347.458548 164.310649 
L 347.702348 164.299019 
L 347.945499 165.081883 
L 348.188003 163.026637 
L 348.429865 162.566912 
L 348.911676 164.88084 
L 349.151631 161.625603 
L 349.390957 160.517414 
L 349.629657 162.36684 
L 349.867734 162.784407 
L 350.105193 162.522905 
L 350.342035 163.728962 
L 351.34547 171.557101 
L 351.57912 171.807795 
L 351.812174 173.883325 
L 352.044634 173.331623 
L 353.198138 182.562148 
L 353.4271 182.068782 
L 353.655489 177.159813 
L 353.883308 175.855674 
L 354.11056 177.715109 
L 354.337248 177.471167 
L 354.563374 176.188523 
L 354.788942 177.449197 
L 355.013953 176.710075 
L 355.238411 177.532281 
L 355.462319 176.500283 
L 355.685679 176.757398 
L 355.908494 176.108264 
L 356.352498 177.445943 
L 356.573693 175.803363 
L 356.794353 171.270546 
L 357.014481 171.631613 
L 357.23408 170.646341 
L 357.453152 170.82432 
L 357.671699 171.424125 
L 357.889724 173.402001 
L 357.94755 175.355258 
L 358.164918 172.336302 
L 358.38177 173.934088 
L 358.598108 174.641547 
L 358.813934 176.541931 
L 359.029251 176.127419 
L 359.458369 178.966952 
L 359.672173 176.539162 
L 359.885478 170.6235 
L 360.098286 158.974957 
L 360.310599 157.83161 
L 361.154946 166.798779 
L 361.364818 167.336451 
L 361.991555 173.112869 
L 362.199515 173.036716 
L 362.407002 174.99748 
L 362.614019 172.705438 
L 362.820567 173.738031 
L 363.026649 175.716728 
L 363.232266 174.114011 
L 363.642118 176.666459 
L 363.846355 175.923183 
L 364.050137 174.318755 
L 364.456341 178.059332 
L 364.658767 178.393181 
L 364.712461 180.430791 
L 365.517235 188.340744 
L 365.717325 189.098179 
L 365.916977 190.550526 
L 366.116193 188.764802 
L 366.314976 188.072882 
L 366.711248 190.532256 
L 366.90874 186.57368 
L 367.302448 188.077758 
L 367.498667 184.821612 
L 367.889844 187.280048 
L 368.473485 188.963048 
L 369.245914 195.968614 
L 369.438004 188.62188 
L 369.62969 187.114753 
L 369.820976 188.209871 
L 370.011861 187.428448 
L 370.202348 187.440057 
L 370.392438 189.338216 
L 370.582133 189.865753 
L 370.771435 191.569652 
L 370.960345 191.22322 
L 371.010458 190.776869 
L 371.574546 196.163478 
L 371.761803 193.525879 
L 371.948676 193.87859 
L 372.32128 189.066403 
L 372.507013 191.237066 
L 372.692369 191.316011 
L 372.87735 189.250319 
L 373.061956 189.147937 
L 373.430053 188.37749 
L 373.613546 186.700948 
L 373.796671 187.500413 
L 373.979429 176.350412 
L 374.343852 178.925003 
L 374.887773 184.027289 
L 375.068362 184.426921 
L 375.248595 185.803017 
L 375.607996 181.602315 
L 375.787168 183.734198 
L 376.322582 186.276787 
L 376.854873 191.165923 
L 376.901854 192.784797 
L 377.606422 194.68468 
L 377.781717 196.110287 
L 377.956676 196.052276 
L 378.131301 193.950308 
L 378.305593 194.81915 
L 378.479552 194.662674 
L 378.65318 193.541301 
L 378.826479 194.263535 
L 378.999449 192.491296 
L 379.172093 177.2725 
L 379.34441 177.801944 
L 380.030445 184.694477 
L 380.201152 184.480624 
L 380.880802 190.654896 
L 381.049927 191.447853 
L 381.218739 190.536337 
L 381.38724 187.254666 
L 381.723311 189.700194 
L 381.890884 189.507463 
L 382.058149 188.856044 
L 382.225109 189.307811 
L 382.391764 188.792104 
L 382.43598 191.063021 
L 382.76822 193.858612 
L 383.264322 198.754761 
L 383.429092 198.832537 
L 383.593566 197.470587 
L 383.757743 198.192702 
L 383.921626 197.862969 
L 384.085215 198.933439 
L 384.411516 202.915003 
L 384.736656 204.294388 
L 384.898792 203.575789 
L 385.544473 210.388553 
L 385.705182 205.665113 
L 385.865609 205.997998 
L 386.025754 207.543368 
L 386.185619 204.915524 
L 386.345204 206.250544 
L 386.504511 204.765064 
L 386.663541 204.863956 
L 386.822293 205.17405 
L 387.138973 204.336693 
L 387.611943 208.226283 
L 387.653702 206.114636 
L 387.810744 206.27452 
L 388.124019 209.430759 
L 388.280254 211.185045 
L 388.436223 206.210553 
L 388.591925 207.853391 
L 388.747363 206.240811 
L 389.057445 208.830595 
L 389.366478 202.269399 
L 389.520604 203.150343 
L 389.981424 208.190802 
L 390.134515 207.299289 
L 390.28735 207.1577 
L 390.439929 208.36099 
L 390.592254 206.810428 
L 390.744325 206.746794 
L 390.896144 202.471647 
L 391.04771 202.048853 
L 391.350089 198.830422 
L 391.500904 198.716703 
L 391.651471 197.952583 
L 391.801789 192.691393 
L 391.95186 193.658751 
L 392.101685 193.104215 
L 392.251264 193.79787 
L 392.589251 198.313525 
L 392.738034 198.046501 
L 393.034875 201.836037 
L 393.330754 205.392066 
L 393.478335 203.835796 
L 393.625677 205.328826 
L 393.772782 204.474369 
L 394.066283 207.433123 
L 394.358843 209.054012 
L 394.504772 208.057674 
L 394.795933 210.306933 
L 394.941165 209.615671 
L 395.086167 207.914789 
L 395.375482 210.424867 
L 395.663883 212.235313 
L 395.951376 214.040882 
L 396.094783 208.788183 
L 396.237966 209.657319 
L 396.523659 212.964921 
L 396.666171 212.011415 
L 396.950529 214.543489 
L 397.092377 210.16423 
L 397.234004 209.898247 
L 397.271587 211.488586 
L 397.554069 213.981785 
L 397.694982 215.448156 
L 397.835679 215.728076 
L 398.535927 222.570562 
L 398.675334 214.576386 
L 398.814529 216.363598 
L 399.092283 212.567115 
L 399.230844 212.916035 
L 399.507336 214.81913 
L 399.645269 215.206125 
L 399.782994 205.307857 
L 399.920511 205.954793 
L 400.057822 207.860854 
L 400.194926 206.392158 
L 400.468518 208.650486 
L 400.605007 207.049567 
L 400.741293 207.2606 
L 401.148932 210.741178 
L 401.284409 211.372926 
L 401.55476 209.657159 
L 401.860053 214.077236 
L 401.994479 213.381717 
L 402.262739 216.838264 
L 402.396573 216.019289 
L 402.530212 213.429209 
L 403.062819 218.373036 
L 403.195487 215.961412 
L 403.327962 217.680722 
L 403.592337 215.870812 
L 403.855949 217.606972 
L 404.249944 221.574115 
L 404.642247 218.039207 
L 405.032871 222.22818 
L 405.162708 219.723238 
L 405.292361 221.479162 
L 405.42183 218.158155 
L 405.551116 219.021177 
L 405.680218 216.104649 
L 405.937878 218.727074 
L 406.100553 222.007291 
L 406.484999 224.528658 
L 406.612789 223.879485 
L 407.249068 229.414934 
L 407.375793 228.866653 
L 407.502343 230.577959 
L 407.628718 229.921253 
L 407.880943 226.73665 
L 408.006795 227.730522 
L 408.383313 223.760211 
L 408.633465 226.057085 
L 408.758284 226.008742 
L 408.882933 227.161094 
L 409.007412 226.63529 
L 409.131721 225.243693 
L 409.255862 226.944213 
L 409.379834 225.241999 
L 409.503637 225.863779 
L 409.627273 225.391855 
L 409.750742 225.644021 
L 409.874044 226.296269 
L 410.02986 222.627429 
L 410.520573 227.079705 
L 410.642841 221.342645 
L 410.886885 222.947949 
L 411.130279 225.013749 
L 411.251733 224.72707 
L 411.373025 226.153581 
L 411.494157 224.016417 
L 411.735939 226.712164 
L 411.85659 225.942001 
L 412.217591 230.884469 
L 412.457467 228.824071 
L 412.577169 230.149806 
L 412.696714 226.776918 
L 413.054414 230.45757 
L 413.173336 229.989237 
L 413.292104 231.705854 
L 413.410717 231.26269 
L 413.647483 233.556468 
L 413.765635 229.639777 
L 413.914954 230.523857 
L 414.385274 236.58254 
L 414.502476 236.979087 
L 414.73643 233.837522 
L 414.73643 233.837522 
" clip-path="url(#p43103fcdff)" style="fill: none; stroke: #1f77b4; stroke-opacity: 0.4; stroke-linecap: square"/>
   </g>
   <g id="line2d_36">
    <path d="M 53.968492 63.186003 
L 59.854134 65.460634 
L 65.383184 68.969973 
L 70.596393 71.760314 
L 75.527904 74.748239 
L 80.206606 76.682662 
L 84.657159 79.518683 
L 88.900784 82.01739 
L 92.955871 83.681107 
L 96.838463 86.352733 
L 100.562638 87.64617 
L 104.140817 89.009457 
L 107.584018 91.479064 
L 110.902055 93.651736 
L 114.103709 94.661442 
L 117.196869 95.956223 
L 120.188647 92.5982 
L 123.085479 94.535944 
L 123.839744 96.577684 
L 126.624717 98.643392 
L 131.952044 101.735803 
L 134.503485 103.617011 
L 136.985549 103.244576 
L 139.40191 105.002615 
L 141.755957 103.625054 
L 144.050822 105.288372 
L 146.289409 107.178727 
L 148.474413 108.512243 
L 150.608337 106.384828 
L 152.693517 105.704515 
L 154.732129 107.4616 
L 156.726208 108.677756 
L 158.677659 110.640149 
L 166.091267 117.166241 
L 167.854273 117.426041 
L 169.583875 119.200262 
L 171.281314 120.694692 
L 172.947767 120.376068 
L 174.584343 121.762632 
L 176.192095 121.846556 
L 179.325067 124.720448 
L 180.852133 125.515489 
L 182.354074 126.166388 
L 183.831704 124.889704 
L 185.285796 125.871624 
L 186.71709 127.265853 
L 187.093535 126.672996 
L 188.496978 126.673013 
L 189.879171 127.43764 
L 191.240749 128.459548 
L 192.582316 128.501733 
L 193.904452 129.106819 
L 195.207713 130.144795 
L 197.759712 130.963383 
L 199.009447 132.112646 
L 200.242303 132.828954 
L 201.458732 132.433258 
L 202.659164 133.544788 
L 203.844015 131.818154 
L 205.013685 132.955749 
L 206.168557 133.558287 
L 207.309001 134.558412 
L 208.435374 135.968172 
L 210.647263 137.440269 
L 211.733429 134.897057 
L 212.806824 135.0562 
L 213.867744 136.321899 
L 214.916475 137.047711 
L 216.978472 138.008139 
L 217.992263 134.289359 
L 218.99492 135.500197 
L 219.986683 135.350939 
L 221.938459 130.445441 
L 222.898919 131.899042 
L 223.849378 127.991565 
L 224.100189 128.178154 
L 225.038286 129.104169 
L 227.796089 133.272863 
L 228.697148 133.88216 
L 229.5894 135.145176 
L 230.473015 135.385221 
L 231.34816 135.99853 
L 232.214994 136.797973 
L 233.073675 137.973596 
L 233.924353 137.48833 
L 234.767178 138.574256 
L 235.602292 139.983568 
L 236.429836 140.743923 
L 237.249946 139.816039 
L 238.062753 140.32861 
L 238.868387 140.213679 
L 241.243488 143.388535 
L 242.021652 142.478762 
L 242.793239 141.317954 
L 244.317119 142.846956 
L 245.069624 140.252161 
L 245.815977 139.823231 
L 246.556278 141.249186 
L 247.290623 141.542957 
L 248.741826 143.306778 
L 249.458867 142.014744 
L 250.170319 142.135167 
L 250.358371 142.558581 
L 251.062874 142.267537 
L 251.761983 143.940725 
L 252.455778 141.322084 
L 253.14434 143.128876 
L 254.506076 145.30302 
L 255.179401 146.003536 
L 256.511334 149.651251 
L 257.170083 150.779269 
L 257.824112 152.535456 
L 258.473489 153.776153 
L 259.118279 154.078947 
L 259.758547 155.692018 
L 260.394356 153.025729 
L 261.025766 153.742994 
L 261.65284 153.542584 
L 262.275635 154.510538 
L 262.89421 156.100868 
L 263.508622 154.740863 
L 264.118926 156.140799 
L 264.725177 150.197053 
L 265.327428 146.54148 
L 266.520141 144.992903 
L 267.110704 145.671851 
L 267.697471 144.612036 
L 268.85981 148.618208 
L 269.435477 148.747215 
L 270.007536 150.718043 
L 270.576032 150.745056 
L 270.726446 151.298093 
L 271.290497 149.155538 
L 271.851084 151.058585 
L 272.408249 150.479661 
L 272.962035 152.48597 
L 273.512481 152.491177 
L 274.059628 154.499404 
L 275.144182 155.439162 
L 276.216001 156.128225 
L 276.747228 157.576272 
L 277.800497 161.477127 
L 278.322609 162.151626 
L 278.841752 164.082122 
L 279.35796 164.970798 
L 279.871265 166.560193 
L 280.381699 167.525545 
L 280.889296 167.863194 
L 281.394085 168.773457 
L 282.395367 171.936085 
L 282.891919 169.652143 
L 283.385785 171.040078 
L 283.876994 168.330829 
L 284.365573 167.349294 
L 285.334957 170.480699 
L 285.815815 170.283968 
L 286.294154 172.003657 
L 286.77 172.52012 
L 287.243378 170.788101 
L 287.368708 172.15767 
L 287.838999 173.622689 
L 288.772376 174.329711 
L 289.696305 177.702254 
L 290.154787 176.367415 
L 290.610978 170.850202 
L 291.0649 167.613892 
L 292.413279 172.011537 
L 292.858349 172.434518 
L 293.301259 173.417826 
L 293.742031 171.547976 
L 294.180685 173.329172 
L 294.617241 169.738639 
L 295.484139 172.071001 
L 295.914521 174.03469 
L 296.342883 174.414574 
L 296.769245 172.415221 
L 297.193624 173.37364 
L 297.616039 172.695425 
L 298.036509 173.860847 
L 298.455052 173.898851 
L 298.871683 172.979596 
L 299.286423 171.624793 
L 300.519453 175.935696 
L 300.926789 170.926607 
L 301.439733 173.670621 
L 301.842993 174.307885 
L 302.244479 174.101112 
L 302.644207 174.501691 
L 303.042193 175.961097 
L 303.438451 176.909319 
L 303.832996 178.180462 
L 304.225844 179.055818 
L 304.617008 179.58882 
L 305.006503 178.192011 
L 305.780543 180.112512 
L 306.165116 180.20251 
L 306.548075 181.56392 
L 306.929435 183.458876 
L 307.309208 183.235671 
L 307.687408 185.123429 
L 308.064047 186.220213 
L 308.439138 183.909354 
L 308.812695 185.551809 
L 309.18473 186.290178 
L 309.555254 186.502144 
L 309.92428 184.257288 
L 310.291821 186.033882 
L 310.657888 184.212891 
L 311.022493 184.001815 
L 311.385647 184.674183 
L 311.747363 184.430492 
L 312.10765 185.399902 
L 312.466522 177.766457 
L 312.823988 179.58551 
L 313.18006 180.683231 
L 313.534748 182.705101 
L 313.628731 184.293056 
L 313.981684 184.969791 
L 314.333277 186.897262 
L 315.032427 188.951367 
L 315.380005 189.466204 
L 315.726264 189.275984 
L 316.071214 190.882042 
L 316.414866 191.857892 
L 316.757229 189.410532 
L 317.098313 188.024764 
L 317.438127 188.650553 
L 318.113984 191.19604 
L 318.450046 187.438237 
L 319.11848 190.202502 
L 319.45087 191.617447 
L 319.782055 190.705418 
L 320.112042 192.237172 
L 320.440841 188.222931 
L 320.768459 189.991256 
L 321.094907 190.10488 
L 321.420191 189.449268 
L 321.74432 191.14779 
L 322.067302 185.302326 
L 322.389145 184.047014 
L 322.709858 183.465812 
L 323.029448 181.771655 
L 323.347923 182.166675 
L 323.665291 181.171343 
L 323.98156 182.038286 
L 325.006808 180.046323 
L 325.629072 183.396928 
L 325.938621 183.399683 
L 326.247124 179.682603 
L 326.554588 181.031192 
L 326.861019 181.42091 
L 327.470814 183.48084 
L 327.77419 182.884442 
L 328.377935 184.473197 
L 328.678317 186.033921 
L 328.977714 186.985072 
L 329.276131 187.09526 
L 329.573577 183.177298 
L 330.165576 185.52815 
L 330.460142 185.699662 
L 331.046438 188.802783 
L 331.628993 190.837475 
L 331.918882 188.066357 
L 332.207853 188.093447 
L 332.495913 189.987365 
L 332.783066 190.197348 
L 333.069319 189.066383 
L 333.354678 190.349372 
L 333.639147 188.792666 
L 333.922732 190.383981 
L 333.997911 191.9544 
L 334.280386 192.694565 
L 334.842727 195.315027 
L 335.122603 197.255587 
L 335.401625 196.021029 
L 335.957121 198.11797 
L 336.233607 198.715835 
L 336.509258 196.888087 
L 336.78408 197.600605 
L 337.331252 200.638421 
L 337.603614 201.957495 
L 337.875165 202.466499 
L 338.145911 202.718836 
L 338.415856 203.251449 
L 338.685005 204.389169 
L 338.953363 197.992637 
L 339.487724 195.786498 
L 339.753736 193.965204 
L 340.283446 195.747725 
L 340.547153 195.491367 
L 341.072292 198.820089 
L 341.333733 197.868825 
L 341.594428 198.019905 
L 341.85438 197.346305 
L 342.372074 200.310078 
L 342.629824 200.191639 
L 342.698167 202.02583 
L 342.954999 202.275126 
L 343.211111 203.922481 
L 343.466506 202.032821 
L 343.721189 203.376894 
L 343.975164 200.103486 
L 344.228433 200.527222 
L 344.984053 204.949468 
L 345.234543 205.557205 
L 345.484347 205.703755 
L 345.73347 203.638098 
L 345.981914 204.619574 
L 346.723217 208.90427 
L 346.968986 209.566479 
L 347.214095 206.99656 
L 347.458548 207.349359 
L 347.702348 206.22292 
L 347.945499 207.747016 
L 348.188003 205.748209 
L 348.671088 208.467738 
L 348.911676 208.813693 
L 349.151631 206.582541 
L 349.390957 206.140603 
L 349.867734 208.853403 
L 350.105193 205.600892 
L 350.876368 210.109316 
L 351.34547 212.121315 
L 351.57912 210.909866 
L 352.044634 213.023033 
L 352.276504 213.210674 
L 352.507786 213.095408 
L 352.738484 214.453976 
L 352.9686 215.140585 
L 353.198138 215.171732 
L 353.4271 208.736094 
L 353.883308 211.863219 
L 354.337248 212.873287 
L 354.788942 215.596443 
L 355.238411 215.112864 
L 355.462319 207.632119 
L 355.685679 207.515496 
L 355.908494 209.279056 
L 356.130766 207.388514 
L 356.352498 207.648006 
L 357.014481 209.520233 
L 357.671699 213.529125 
L 357.889724 213.166882 
L 357.94755 214.765442 
L 358.164918 214.233746 
L 358.38177 214.167769 
L 358.598108 213.473713 
L 358.813934 213.676002 
L 359.029251 212.450134 
L 359.244062 213.198448 
L 359.458369 214.945459 
L 359.672173 214.094952 
L 359.885478 214.378405 
L 360.098286 215.279155 
L 360.522419 218.264767 
L 360.94459 219.86376 
L 361.154946 221.134722 
L 361.574209 212.487548 
L 361.78312 208.733056 
L 362.407002 211.650105 
L 362.614019 210.091475 
L 362.820567 210.533235 
L 363.026649 210.445172 
L 363.232266 211.766697 
L 363.437422 210.351504 
L 363.642118 209.801275 
L 363.846355 210.685042 
L 364.050137 210.679438 
L 364.456341 211.138135 
L 364.658767 212.544305 
L 364.712461 214.200244 
L 365.115735 217.003538 
L 365.316706 218.608904 
L 365.517235 219.172905 
L 365.717325 219.048393 
L 365.916977 219.542803 
L 367.302448 225.644831 
L 367.498667 221.926596 
L 367.694465 221.677097 
L 367.889844 210.477425 
L 368.084806 210.422535 
L 368.473485 212.238159 
L 368.667206 211.584456 
L 368.860516 210.317115 
L 369.053418 211.982923 
L 369.245914 211.640155 
L 369.820976 216.331924 
L 370.011861 216.963339 
L 370.202348 216.651816 
L 370.392438 218.048173 
L 370.582133 216.988069 
L 370.771435 218.695306 
L 370.960345 216.887097 
L 371.010458 216.910744 
L 371.198875 216.001242 
L 371.574546 218.21049 
L 371.948676 213.938479 
L 372.135168 214.451168 
L 372.692369 219.294386 
L 373.061956 217.259903 
L 373.430053 218.437141 
L 373.613546 216.24216 
L 373.796671 217.243421 
L 373.979429 216.150916 
L 374.706826 222.498695 
L 374.887773 219.805008 
L 375.068362 219.223761 
L 375.248595 219.798086 
L 375.428472 219.606339 
L 375.607996 218.804287 
L 375.965988 221.337388 
L 376.144459 220.253622 
L 376.500357 223.354567 
L 376.677787 221.565827 
L 376.901854 224.454518 
L 377.078507 223.028659 
L 377.606422 226.768968 
L 377.781717 225.380378 
L 377.956676 226.071173 
L 378.131301 222.927514 
L 378.479552 223.389339 
L 378.999449 226.182123 
L 379.172093 224.311233 
L 379.34441 224.478844 
L 379.688072 226.607308 
L 379.859419 228.063375 
L 380.030445 228.172451 
L 380.371539 230.230418 
L 380.541609 229.741559 
L 380.711363 224.877297 
L 380.880802 225.997226 
L 381.049927 225.960596 
L 381.218739 223.339252 
L 381.38724 222.718524 
L 381.890884 224.798901 
L 382.225109 227.747216 
L 382.391764 227.937286 
L 382.43598 226.353583 
L 382.602251 227.493287 
L 382.76822 223.237569 
L 383.593566 229.626046 
L 383.757743 227.565864 
L 383.921626 226.981267 
L 384.574231 230.745609 
L 384.736656 230.902637 
L 384.898792 232.110756 
L 385.060641 231.945676 
L 385.222203 231.941454 
L 385.38348 229.588255 
L 385.544473 230.089749 
L 385.705182 231.3526 
L 386.025754 229.779528 
L 386.663541 234.498408 
L 386.822293 230.218731 
L 387.138973 232.340286 
L 387.454558 234.533811 
L 387.611943 231.917862 
L 387.653702 232.960041 
L 387.810744 233.644899 
L 388.280254 237.082216 
L 388.747363 239.324495 
L 388.902536 236.636862 
L 389.057445 237.476278 
L 389.212093 236.903833 
L 389.366478 237.011742 
L 389.520604 236.004046 
L 389.981424 239.404756 
L 390.134515 238.721515 
L 390.28735 238.592224 
L 390.592254 240.819012 
L 390.744325 241.33458 
L 390.896144 240.033933 
L 391.04771 241.311429 
L 391.199025 241.434214 
L 391.350089 237.883483 
L 391.651471 239.557873 
L 391.801789 240.652614 
L 391.95186 236.736849 
L 392.101685 236.325064 
L 392.251264 237.351575 
L 392.400599 236.997191 
L 392.54969 236.326231 
L 392.589251 234.926325 
L 392.886575 237.310971 
L 393.034875 236.245202 
L 393.625677 241.123716 
L 393.772782 242.426998 
L 393.91965 241.021786 
L 394.504772 244.611982 
L 394.795933 242.714966 
L 395.086167 238.991347 
L 395.519796 242.217381 
L 395.663883 243.357374 
L 395.951376 237.129459 
L 396.094783 236.991167 
L 396.237966 231.693753 
L 396.523659 233.462467 
L 396.666171 229.451324 
L 396.808461 230.247746 
L 396.950529 230.329888 
L 397.092377 231.058007 
L 397.234004 229.009659 
L 397.271587 229.323617 
L 397.694982 231.338626 
L 397.976159 233.505406 
L 398.116423 233.519563 
L 398.675334 238.611233 
L 399.230844 241.214114 
L 399.369195 240.144835 
L 399.507336 240.619042 
L 399.782994 242.58015 
L 399.920511 241.783429 
L 400.194926 241.624696 
L 400.605007 244.581192 
L 400.741293 243.114031 
L 401.013255 244.5707 
L 401.148932 241.819673 
L 401.284409 241.477271 
L 401.419684 242.623427 
L 401.55476 242.809218 
L 401.689636 242.299198 
L 401.725429 238.316921 
L 401.860053 238.969887 
L 401.994479 237.643741 
L 402.796904 244.308401 
L 402.929959 242.167821 
L 403.327962 244.645791 
L 403.460245 245.107082 
L 403.592337 246.442931 
L 403.724238 245.687721 
L 404.118801 248.640006 
L 404.249944 249.628584 
L 404.380899 246.639116 
L 404.772641 249.040667 
L 404.902848 249.564122 
L 405.032871 250.56524 
L 405.162708 250.304476 
L 405.292361 247.443716 
L 405.551116 248.74875 
L 405.680218 248.431802 
L 405.809139 249.072614 
L 405.972043 248.393899 
L 406.100553 248.644741 
L 406.228881 249.506204 
L 406.35703 245.955467 
L 406.484999 246.69542 
L 406.612789 243.820882 
L 406.7404 245.290336 
L 406.867833 245.417126 
L 407.122166 246.944705 
L 407.502343 249.466467 
L 407.754917 248.353935 
L 407.880943 248.171207 
L 408.132473 248.603037 
L 408.257979 249.1529 
L 408.383313 248.744611 
L 408.508474 247.45242 
L 408.758284 243.20265 
L 409.255862 245.449169 
L 409.503637 245.772802 
L 409.627273 243.659683 
L 410.02986 246.658629 
L 410.152786 245.083225 
L 410.520573 248.082506 
L 410.642841 248.020886 
L 410.886885 250.060747 
L 411.008663 249.872178 
L 411.130279 249.014792 
L 411.494157 252.003702 
L 411.615128 252.189754 
L 411.735939 251.962006 
L 411.85659 252.242571 
L 412.097416 253.687147 
L 412.217591 253.794604 
L 412.337607 254.479019 
L 412.577169 253.201428 
L 412.696714 251.53199 
L 412.816103 252.289399 
L 413.054414 248.267251 
L 413.292104 250.383998 
L 413.410717 250.327102 
L 413.529177 250.549662 
L 413.647483 250.420221 
L 413.883636 248.129414 
L 414.032761 249.961091 
L 414.150417 249.840086 
L 414.385274 251.135852 
L 414.502476 251.236754 
L 414.73643 253.470357 
L 414.73643 253.470357 
" clip-path="url(#p43103fcdff)" style="fill: none; stroke: #ff7f0e; stroke-opacity: 0.4; stroke-linecap: square"/>
   </g>
   <g id="line2d_37">
    <path d="M 53.968492 66.194957 
L 59.854134 68.869641 
L 65.383184 69.996765 
L 70.596393 69.388775 
L 75.527904 72.866108 
L 80.206606 70.647899 
L 84.657159 72.899365 
L 88.900784 75.945696 
L 92.955871 77.794692 
L 96.838463 76.187831 
L 104.140817 80.402816 
L 107.584018 81.023627 
L 110.902055 83.289049 
L 114.103709 81.671397 
L 117.196869 83.877069 
L 120.188647 86.326731 
L 123.085479 83.433511 
L 123.839744 81.54436 
L 129.327236 86.563488 
L 131.952044 88.314277 
L 134.503485 87.969771 
L 136.985549 90.03353 
L 139.40191 91.03755 
L 141.755957 93.465971 
L 144.050822 93.97915 
L 148.474413 98.442058 
L 150.608337 94.832429 
L 152.693517 95.147754 
L 154.732129 93.62963 
L 156.726208 95.552468 
L 158.677659 97.192969 
L 160.588264 96.502173 
L 162.459701 98.126963 
L 164.293541 100.151502 
L 166.091267 101.091928 
L 167.854273 103.293838 
L 169.583875 101.540425 
L 171.281314 103.652111 
L 172.947767 105.496683 
L 174.584343 106.546431 
L 176.192095 106.081473 
L 179.325067 109.61249 
L 180.852133 103.96892 
L 182.354074 105.785072 
L 183.831704 105.138795 
L 185.285796 104.243557 
L 186.71709 105.055204 
L 187.093535 104.859334 
L 188.496978 106.971733 
L 189.879171 107.788094 
L 191.240749 109.628849 
L 192.582316 106.657279 
L 193.904452 108.633798 
L 196.49263 110.928735 
L 197.759712 111.338 
L 199.009447 112.156974 
L 200.242303 113.111645 
L 201.458732 110.530693 
L 202.659164 112.620044 
L 203.844015 111.766392 
L 205.013685 113.610463 
L 206.168557 110.895153 
L 207.309001 112.157925 
L 208.435374 110.251294 
L 209.548017 112.134714 
L 210.647263 112.793905 
L 211.733429 112.937447 
L 213.867744 116.534979 
L 214.916475 117.07794 
L 215.953296 118.575744 
L 216.978472 119.749515 
L 217.992263 120.164097 
L 218.99492 114.821482 
L 219.986683 115.596709 
L 220.967787 116.630234 
L 221.938459 114.783692 
L 222.898919 116.506012 
L 224.100189 110.275568 
L 225.038286 111.831159 
L 227.796089 117.956187 
L 228.697148 115.429452 
L 229.5894 115.274145 
L 230.473015 113.069397 
L 231.34816 114.585293 
L 232.214994 114.654557 
L 233.073675 116.489618 
L 233.924353 116.555566 
L 234.767178 118.398473 
L 235.602292 114.934133 
L 237.249946 118.884054 
L 238.062753 113.139833 
L 238.868387 113.372996 
L 239.666973 114.418908 
L 241.243488 117.719462 
L 242.021652 119.842408 
L 242.793239 120.03252 
L 243.558358 120.430972 
L 244.317119 121.98161 
L 245.069624 119.395976 
L 245.815977 119.106498 
L 246.556278 121.124138 
L 247.290623 118.932746 
L 248.019108 113.224589 
L 249.458867 116.571632 
L 250.170319 118.627341 
L 250.358371 120.640462 
L 251.761983 124.585458 
L 252.455778 125.522778 
L 253.827747 126.701822 
L 254.506076 127.056407 
L 255.179401 122.420003 
L 255.847797 123.051752 
L 257.824112 128.862951 
L 258.473489 127.69704 
L 259.118279 128.152505 
L 259.758547 129.371094 
L 260.394356 123.246801 
L 261.025766 125.008421 
L 261.65284 125.879268 
L 262.275635 127.898186 
L 262.89421 127.807291 
L 263.508622 129.409425 
L 264.118926 131.323586 
L 264.725177 130.612274 
L 265.327428 132.097604 
L 265.925733 132.882182 
L 266.520141 129.746861 
L 267.110704 129.915901 
L 268.280491 133.468817 
L 268.85981 132.564034 
L 269.435477 130.758785 
L 270.007536 132.080518 
L 270.576032 129.852839 
L 270.726446 129.897921 
L 271.290497 130.71866 
L 272.408249 134.252522 
L 272.962035 132.436142 
L 273.512481 134.207613 
L 274.059628 133.557381 
L 274.603516 133.878555 
L 275.144182 135.596365 
L 275.681664 133.253832 
L 276.216001 134.576992 
L 276.747228 133.649187 
L 277.275382 134.814437 
L 277.800497 130.87834 
L 278.322609 127.992245 
L 278.841752 129.283007 
L 279.35796 128.622833 
L 279.871265 130.032285 
L 280.381699 131.903884 
L 280.889296 133.076118 
L 281.394085 132.181558 
L 281.896099 130.181113 
L 282.395367 131.570098 
L 282.891919 133.549253 
L 283.385785 133.401865 
L 283.876994 133.508129 
L 284.365573 131.863882 
L 284.851552 133.542597 
L 285.334957 132.150869 
L 286.294154 136.236008 
L 286.77 137.768302 
L 287.368708 130.165235 
L 287.838999 130.442457 
L 288.30688 129.119472 
L 288.772376 128.455595 
L 289.23551 129.458472 
L 289.696305 128.832115 
L 290.154787 129.17786 
L 290.610978 130.124893 
L 291.0649 131.960183 
L 291.516576 131.817489 
L 291.966028 133.83698 
L 292.413279 134.532219 
L 293.301259 136.265498 
L 294.180685 139.40944 
L 294.617241 135.901268 
L 295.051719 136.315536 
L 295.484139 135.59893 
L 296.342883 139.183073 
L 296.769245 136.657411 
L 298.036509 140.569171 
L 298.455052 138.69356 
L 299.286423 140.430709 
L 299.699286 138.311357 
L 300.11029 139.394942 
L 300.926789 143.114664 
L 301.332317 138.622703 
L 301.439733 139.51223 
L 301.842993 140.881257 
L 302.244479 143.027493 
L 303.042193 145.831574 
L 303.832996 144.488164 
L 304.225844 144.017458 
L 304.617008 138.08661 
L 305.394344 142.111209 
L 305.780543 142.287753 
L 306.548075 145.75916 
L 306.929435 141.451628 
L 307.309208 141.863116 
L 307.687408 143.734596 
L 308.064047 141.676339 
L 308.439138 142.425921 
L 309.555254 145.904077 
L 309.92428 146.329819 
L 310.291821 148.296445 
L 310.657888 146.587067 
L 311.022493 148.132087 
L 311.385647 147.220408 
L 311.747363 148.52603 
L 312.10765 144.363483 
L 312.466522 144.364607 
L 313.534748 148.703161 
L 313.628731 148.774091 
L 313.981684 149.290063 
L 314.333277 147.167983 
L 314.683522 145.961085 
L 315.032427 146.217623 
L 315.380005 145.873961 
L 315.726264 146.92344 
L 316.414866 145.293354 
L 316.757229 147.397302 
L 317.438127 141.640828 
L 317.776681 140.401754 
L 318.113984 142.259699 
L 318.450046 143.351294 
L 318.784874 142.469837 
L 319.45087 146.125426 
L 319.782055 143.628279 
L 320.112042 144.764054 
L 320.768459 148.81884 
L 321.094907 147.793369 
L 321.420191 148.713562 
L 322.389145 153.558573 
L 322.709858 153.008069 
L 323.029448 154.733247 
L 323.347923 155.772235 
L 323.665291 154.499609 
L 323.98156 154.55684 
L 324.380272 153.045602 
L 325.006808 154.810221 
L 325.31847 155.31636 
L 325.629072 157.195045 
L 325.938621 158.283269 
L 326.247124 157.337677 
L 326.554588 159.046011 
L 326.861019 158.820506 
L 327.166426 160.083667 
L 327.77419 161.525625 
L 328.076562 162.168961 
L 328.377935 163.361075 
L 328.678317 163.288773 
L 329.276131 165.725324 
L 329.573577 166.868595 
L 329.870056 167.392412 
L 330.165576 168.757731 
L 330.460142 169.430008 
L 330.753761 170.605356 
L 331.046438 167.506016 
L 331.33818 168.766176 
L 331.628993 166.101232 
L 331.918882 165.969065 
L 332.207853 166.352553 
L 332.495913 167.551351 
L 332.783066 167.024275 
L 333.922732 172.389208 
L 333.997911 173.868388 
L 334.280386 173.701941 
L 334.56199 173.066337 
L 334.842727 172.987111 
L 335.122603 174.727486 
L 335.401625 173.927056 
L 335.679796 169.63315 
L 335.957121 171.471574 
L 336.233607 171.635619 
L 336.509258 171.387728 
L 336.78408 172.367725 
L 337.603614 176.352488 
L 337.875165 177.227712 
L 338.145911 176.282917 
L 339.220935 181.611016 
L 339.753736 181.582389 
L 340.018976 180.681939 
L 340.283446 181.233483 
L 340.547153 180.179982 
L 341.072292 182.621685 
L 341.333733 182.484558 
L 341.594428 183.793502 
L 341.85438 180.721746 
L 342.113594 181.024405 
L 342.372074 181.519809 
L 342.629824 182.701265 
L 342.698167 183.538501 
L 342.954999 184.711058 
L 343.211111 184.898807 
L 343.466506 186.434032 
L 343.721189 186.531363 
L 343.975164 187.803937 
L 344.228433 188.132372 
L 344.481002 185.042606 
L 344.984053 187.465543 
L 345.234543 187.05792 
L 345.484347 188.103523 
L 345.73347 186.223205 
L 346.229685 188.641295 
L 346.723217 182.286848 
L 346.968986 181.879284 
L 347.214095 182.736783 
L 347.458548 183.075812 
L 347.702348 178.87569 
L 347.945499 179.660704 
L 348.429865 182.749806 
L 348.671088 183.65738 
L 349.629657 189.311799 
L 349.867734 189.689209 
L 350.105193 189.545375 
L 350.342035 190.270135 
L 350.64091 190.63476 
L 351.11122 192.866639 
L 351.34547 193.473503 
L 351.812174 195.925208 
L 352.044634 195.322596 
L 352.276504 196.475909 
L 352.507786 196.645074 
L 352.738484 190.327103 
L 353.4271 194.737322 
L 353.655489 195.377527 
L 353.883308 195.13483 
L 354.11056 192.468218 
L 354.788942 195.442297 
L 355.013953 190.089354 
L 355.238411 191.565311 
L 355.462319 190.186075 
L 355.685679 189.844131 
L 355.908494 191.403702 
L 356.130766 191.033142 
L 356.352498 192.687747 
L 356.573693 192.235146 
L 356.794353 191.460277 
L 357.014481 188.14273 
L 357.23408 189.342056 
L 357.453152 186.467464 
L 357.671699 186.24166 
L 357.889724 185.320139 
L 357.94755 187.031973 
L 358.813934 191.770445 
L 359.029251 192.360889 
L 359.244062 192.494452 
L 359.458369 192.272103 
L 359.672173 193.192199 
L 359.885478 193.256425 
L 360.098286 191.978308 
L 360.310599 192.680599 
L 360.733748 195.474317 
L 360.94459 194.696999 
L 361.78312 185.670886 
L 361.991555 187.354039 
L 362.199515 187.314693 
L 362.614019 190.234666 
L 362.820567 189.673926 
L 363.026649 189.622157 
L 363.232266 190.961125 
L 363.437422 191.411895 
L 363.642118 193.082964 
L 364.253465 194.253591 
L 364.456341 195.036264 
L 364.658767 195.266737 
L 364.712461 196.361387 
L 364.914321 196.570288 
L 365.115735 196.961554 
L 365.717325 200.716973 
L 365.916977 201.298277 
L 366.116193 200.582761 
L 366.314976 201.257765 
L 366.513327 200.891302 
L 366.711248 201.278099 
L 367.105806 203.671601 
L 367.302448 203.245348 
L 367.498667 203.43615 
L 367.889844 205.28581 
L 368.084806 204.027437 
L 368.279353 204.885074 
L 368.473485 204.255582 
L 368.667206 204.432305 
L 368.860516 202.465345 
L 369.053418 203.821151 
L 369.245914 199.710634 
L 369.62969 201.913823 
L 370.011861 203.741787 
L 370.202348 203.990261 
L 370.392438 204.428265 
L 370.582133 205.864626 
L 370.771435 205.555635 
L 371.198875 202.802039 
L 371.574546 204.145409 
L 371.761803 204.082934 
L 371.948676 203.546973 
L 372.135168 204.582706 
L 372.507013 202.648195 
L 372.692369 203.999771 
L 372.87735 202.306792 
L 373.061956 203.836352 
L 373.24619 203.241086 
L 373.430053 203.484391 
L 373.796671 205.985962 
L 374.343852 203.300534 
L 374.525519 199.670159 
L 374.706826 201.148427 
L 374.887773 200.8244 
L 375.068362 197.905112 
L 375.248595 197.457284 
L 375.428472 198.138848 
L 376.500357 205.01322 
L 376.677787 205.365049 
L 376.901854 205.051563 
L 377.078507 205.743411 
L 377.606422 209.816484 
L 377.781717 210.365934 
L 377.956676 210.34411 
L 378.131301 208.161318 
L 378.305593 208.246976 
L 378.479552 209.060819 
L 378.65318 208.880907 
L 378.826479 210.170213 
L 378.999449 209.990663 
L 379.34441 210.251495 
L 379.859419 211.719624 
L 380.030445 211.665789 
L 380.201152 211.287767 
L 380.371539 212.016736 
L 380.541609 210.414495 
L 381.049927 213.279636 
L 381.218739 210.961511 
L 381.38724 212.56567 
L 381.55543 209.231331 
L 381.723311 210.412958 
L 381.890884 210.772198 
L 382.391764 212.863091 
L 382.43598 213.930907 
L 382.933887 217.027897 
L 383.264322 219.669575 
L 383.757743 210.938072 
L 384.085215 211.498673 
L 384.574231 215.081605 
L 384.736656 211.262556 
L 384.898792 212.554891 
L 385.060641 212.860007 
L 385.544473 216.222025 
L 385.705182 214.692794 
L 385.865609 214.431229 
L 386.025754 211.539797 
L 386.185619 212.906298 
L 386.345204 212.038001 
L 386.663541 214.203695 
L 386.822293 213.825435 
L 387.138973 215.040246 
L 387.611943 215.980041 
L 387.653702 217.301765 
L 387.810744 216.316031 
L 387.967516 216.226091 
L 388.280254 217.457406 
L 388.436223 218.640744 
L 388.591925 218.92595 
L 388.902536 220.321549 
L 389.212093 222.243163 
L 389.366478 222.642852 
L 389.674469 219.423211 
L 389.828075 220.760702 
L 389.981424 220.142136 
L 390.439929 223.314606 
L 390.592254 224.039935 
L 390.744325 222.240495 
L 390.896144 222.551453 
L 391.350089 221.635423 
L 391.651471 223.704776 
L 391.801789 222.971858 
L 392.400599 225.964449 
L 392.54969 226.417033 
L 392.589251 224.517387 
L 392.886575 226.620879 
L 393.034875 225.800428 
L 393.182935 225.735812 
L 393.330754 222.209212 
L 393.478335 222.177222 
L 393.625677 221.975675 
L 394.066283 223.942026 
L 394.358843 221.559983 
L 394.504772 222.082121 
L 394.795933 223.904041 
L 394.941165 224.803717 
L 395.086167 223.551598 
L 395.375482 225.588602 
L 395.519796 225.640054 
L 395.663883 224.685283 
L 395.807742 222.11238 
L 395.951376 221.844306 
L 396.094783 222.742045 
L 396.237966 220.685531 
L 396.523659 223.285726 
L 396.666171 223.111312 
L 396.808461 224.555759 
L 397.234004 221.483324 
L 397.271587 222.92373 
L 397.554069 225.429044 
L 397.694982 219.819178 
L 397.976159 222.243459 
L 398.116423 219.704819 
L 398.675334 224.971482 
L 398.814529 224.059818 
L 399.230844 225.752025 
L 399.369195 223.283019 
L 399.507336 222.969456 
L 399.782994 225.016896 
L 400.057822 225.248977 
L 400.194926 226.22809 
L 400.331824 225.689701 
L 400.468518 223.725825 
L 400.605007 223.872684 
L 400.741293 224.411946 
L 400.877375 222.666975 
L 401.013255 223.666737 
L 401.148932 218.80737 
L 401.419684 221.714072 
L 401.689636 220.256617 
L 401.860053 222.463352 
L 401.994479 223.643388 
L 402.262739 220.89201 
L 402.396573 222.233232 
L 402.530212 222.109212 
L 402.796904 224.683199 
L 402.929959 223.863963 
L 403.195487 226.380409 
L 403.327962 224.921729 
L 403.460245 221.255514 
L 403.592337 222.498692 
L 403.724238 222.662047 
L 403.855949 220.71362 
L 403.98747 222.026474 
L 404.118801 221.990804 
L 404.249944 222.981009 
L 404.380899 222.66486 
L 404.511667 222.970824 
L 404.772641 225.004938 
L 404.902848 224.780011 
L 405.032871 223.145951 
L 405.162708 223.322009 
L 405.292361 224.414363 
L 405.42183 223.598965 
L 405.551116 224.384421 
L 405.809139 227.404142 
L 405.937878 227.238461 
L 406.100553 229.366174 
L 406.228881 228.598906 
L 406.484999 231.094945 
L 406.612789 227.892634 
L 406.867833 230.06903 
L 406.995088 230.279411 
L 407.249068 232.007995 
L 407.375793 232.226899 
L 407.502343 231.850715 
L 407.628718 233.064023 
L 407.754917 233.172835 
L 408.006795 234.495022 
L 408.132473 235.727236 
L 408.257979 231.745852 
L 408.383313 231.323989 
L 408.633465 232.575036 
L 408.758284 231.107497 
L 408.882933 231.162216 
L 409.007412 230.709381 
L 409.131721 229.769809 
L 409.255862 230.621322 
L 409.379834 230.130425 
L 409.750742 232.124228 
L 409.874044 230.340429 
L 410.398142 234.61531 
L 410.520573 231.78169 
L 410.642841 231.560497 
L 410.764944 222.370556 
L 410.886885 223.150269 
L 411.251733 226.562853 
L 411.373025 227.542195 
L 411.494157 227.399824 
L 411.615128 227.857762 
L 411.977082 230.633975 
L 412.097416 229.640564 
L 413.292104 237.559051 
L 413.410717 235.145637 
L 413.529177 235.786645 
L 413.883636 238.423548 
L 413.914954 238.546711 
L 414.150417 240.418919 
L 414.267921 240.826859 
L 414.385274 241.855608 
L 414.502476 238.395752 
L 414.619528 238.443068 
L 414.73643 238.900573 
L 414.73643 238.900573 
" clip-path="url(#p43103fcdff)" style="fill: none; stroke: #2ca02c; stroke-opacity: 0.4; stroke-linecap: square"/>
   </g>
   <g id="line2d_38">
    <path d="M 53.968492 73.59005 
L 59.854134 75.461997 
L 65.383184 76.896157 
L 70.596393 74.754098 
L 75.527904 77.850027 
L 80.206606 75.819507 
L 84.657159 78.318633 
L 88.900784 81.197218 
L 92.955871 82.005666 
L 96.838463 84.424541 
L 100.562638 86.88479 
L 104.140817 88.986631 
L 107.584018 90.524642 
L 110.902055 91.421659 
L 117.196869 94.295704 
L 120.188647 94.723949 
L 123.085479 96.203302 
L 123.839744 97.098666 
L 126.624717 99.322809 
L 129.327236 99.840802 
L 131.952044 100.558088 
L 134.503485 100.578166 
L 136.985549 102.167453 
L 139.40191 103.958779 
L 141.755957 105.196793 
L 144.050822 106.591246 
L 148.474413 110.673103 
L 150.608337 110.595185 
L 152.693517 108.80078 
L 154.732129 109.967355 
L 156.726208 111.79594 
L 158.677659 112.940416 
L 160.588264 112.701123 
L 162.459701 114.470207 
L 164.293541 115.911556 
L 166.091267 115.006158 
L 167.854273 113.804926 
L 169.583875 110.321494 
L 172.947767 113.900452 
L 174.584343 114.575481 
L 176.192095 115.957301 
L 179.325067 118.996318 
L 180.852133 116.642075 
L 182.354074 118.581188 
L 183.831704 120.04414 
L 186.71709 117.409953 
L 187.093535 117.26405 
L 188.496978 119.080189 
L 189.879171 119.411263 
L 191.240749 120.341275 
L 192.582316 119.770519 
L 193.904452 121.346614 
L 195.207713 121.585371 
L 196.49263 123.36093 
L 197.759712 125.30785 
L 199.009447 126.528916 
L 200.242303 123.802847 
L 201.458732 123.902498 
L 202.659164 124.950567 
L 203.844015 120.912317 
L 206.168557 124.346554 
L 207.309001 125.02502 
L 208.435374 126.325534 
L 209.548017 124.602298 
L 210.647263 126.285344 
L 211.733429 126.803764 
L 212.806824 128.521499 
L 213.867744 130.009238 
L 214.916475 126.038849 
L 215.953296 120.101867 
L 217.992263 123.034093 
L 218.99492 123.807804 
L 221.938459 128.01588 
L 222.898919 128.671158 
L 224.100189 124.264565 
L 225.038286 126.174945 
L 225.966842 127.678825 
L 226.886047 127.482861 
L 228.697148 129.36261 
L 229.5894 129.488724 
L 230.473015 127.904778 
L 231.34816 129.548026 
L 232.214994 127.326139 
L 233.073675 128.65023 
L 234.767178 131.615204 
L 236.429836 134.43992 
L 237.249946 135.069997 
L 238.062753 129.119538 
L 238.868387 127.933791 
L 239.666973 128.458206 
L 240.458634 130.121559 
L 241.243488 131.192817 
L 242.021652 130.596502 
L 242.793239 130.676103 
L 243.558358 130.874485 
L 244.317119 132.518422 
L 245.069624 133.280777 
L 245.815977 133.255724 
L 246.556278 134.82139 
L 247.290623 134.390306 
L 248.019108 126.097937 
L 248.741826 127.834512 
L 249.458867 127.530628 
L 250.170319 127.635525 
L 250.358371 128.979105 
L 251.062874 127.535848 
L 251.761983 129.44806 
L 252.455778 130.072052 
L 253.14434 131.1373 
L 253.827747 132.8003 
L 254.506076 133.89078 
L 255.179401 135.699786 
L 255.847797 135.980632 
L 256.511334 137.528546 
L 257.170083 134.54319 
L 257.824112 135.741928 
L 258.473489 130.735387 
L 259.118279 127.971972 
L 259.758547 129.086412 
L 260.394356 126.767089 
L 261.025766 128.338182 
L 261.65284 129.080098 
L 262.275635 130.875973 
L 262.89421 132.31566 
L 263.508622 133.423674 
L 264.118926 134.189352 
L 264.725177 134.222393 
L 265.327428 132.029903 
L 266.520141 132.621828 
L 267.110704 131.966088 
L 267.697471 133.103879 
L 268.280491 134.90299 
L 268.85981 136.102018 
L 269.435477 135.318473 
L 270.007536 135.02761 
L 270.576032 133.691394 
L 270.726446 135.047054 
L 271.851084 132.482382 
L 272.408249 134.136039 
L 272.962035 134.616946 
L 273.512481 134.287039 
L 274.059628 133.414329 
L 275.144182 136.685824 
L 275.681664 133.721266 
L 276.216001 135.624128 
L 276.747228 135.774391 
L 277.275382 136.834079 
L 277.800497 133.01688 
L 278.322609 132.219407 
L 278.841752 133.833534 
L 279.35796 132.95954 
L 279.871265 134.534594 
L 280.889296 136.223913 
L 281.394085 134.74742 
L 281.896099 134.945256 
L 282.395367 136.23682 
L 282.891919 135.164072 
L 283.385785 136.240342 
L 283.876994 138.018184 
L 284.365573 136.849639 
L 284.851552 138.66785 
L 285.334957 138.358261 
L 286.294154 141.819184 
L 286.77 142.244381 
L 287.243378 141.950056 
L 287.368708 137.878567 
L 287.838999 138.475433 
L 288.30688 137.575841 
L 288.772376 133.375968 
L 289.23551 133.503122 
L 289.696305 134.880675 
L 290.610978 136.49843 
L 291.0649 138.391067 
L 291.516576 139.688048 
L 291.966028 140.090708 
L 292.413279 137.309875 
L 292.858349 139.010274 
L 293.301259 137.453012 
L 293.742031 138.843115 
L 294.180685 140.80495 
L 294.617241 136.779561 
L 295.484139 136.908676 
L 296.342883 140.474915 
L 296.769245 138.075302 
L 297.193624 139.753741 
L 297.616039 139.279242 
L 298.036509 140.438468 
L 298.455052 139.649353 
L 298.871683 140.346494 
L 299.286423 142.06242 
L 299.699286 142.213773 
L 300.11029 141.952302 
L 300.926789 145.550028 
L 301.332317 140.018893 
L 301.439733 136.903959 
L 301.842993 136.365118 
L 302.644207 140.297982 
L 303.042193 139.861375 
L 303.438451 138.846146 
L 303.832996 136.992654 
L 304.225844 136.141162 
L 304.617008 135.985862 
L 305.006503 136.534261 
L 305.394344 138.628288 
L 305.780543 139.084487 
L 306.165116 139.822828 
L 306.548075 141.254775 
L 306.929435 137.180255 
L 307.687408 140.248961 
L 308.439138 137.530041 
L 308.812695 138.331763 
L 309.18473 139.596696 
L 309.555254 140.392139 
L 309.92428 139.441103 
L 310.291821 141.110031 
L 310.657888 141.363112 
L 311.022493 143.292891 
L 311.385647 142.936212 
L 311.747363 142.912269 
L 312.10765 140.315595 
L 312.466522 140.237674 
L 312.823988 141.230324 
L 313.18006 141.720187 
L 313.534748 143.093305 
L 313.628731 142.319479 
L 313.981684 143.56566 
L 314.333277 143.353613 
L 315.032427 145.620208 
L 315.380005 144.454556 
L 315.726264 144.638506 
L 316.071214 143.615029 
L 316.414866 143.16028 
L 316.757229 144.660768 
L 317.776681 137.687848 
L 318.113984 139.054951 
L 318.450046 139.878491 
L 318.784874 139.063996 
L 319.45087 142.035013 
L 319.782055 139.363448 
L 320.768459 143.780653 
L 321.094907 143.738302 
L 321.420191 145.700438 
L 321.74432 145.451349 
L 322.067302 145.929815 
L 322.389145 147.839119 
L 322.709858 143.503831 
L 323.347923 147.169432 
L 323.665291 148.71546 
L 323.98156 147.374526 
L 324.296736 149.181144 
L 324.380272 147.553591 
L 324.694077 148.069348 
L 325.006808 147.332803 
L 325.31847 147.422639 
L 325.629072 147.895759 
L 325.938621 146.133527 
L 326.554588 149.83033 
L 326.861019 149.262513 
L 327.470814 150.021747 
L 327.77419 146.24481 
L 328.076562 146.505109 
L 328.377935 148.161725 
L 328.678317 149.183393 
L 328.977714 151.007272 
L 329.276131 150.476623 
L 329.573577 152.369206 
L 329.870056 153.466655 
L 330.165576 155.131466 
L 330.460142 155.655197 
L 330.753761 152.009238 
L 331.046438 151.77224 
L 331.628993 154.732273 
L 331.918882 155.335663 
L 332.207853 151.578174 
L 332.495913 152.985418 
L 332.783066 152.281314 
L 333.069319 153.668633 
L 333.354678 152.196086 
L 333.922732 155.265036 
L 334.280386 152.380409 
L 334.56199 153.797689 
L 334.842727 153.149013 
L 335.401625 156.809948 
L 335.679796 155.4662 
L 335.957121 155.226147 
L 336.233607 156.298021 
L 336.509258 156.430665 
L 336.78408 156.229999 
L 337.331252 159.223686 
L 337.603614 159.458968 
L 337.875165 159.951123 
L 338.145911 161.595464 
L 338.415856 160.636826 
L 338.953363 163.750251 
L 339.487724 159.18106 
L 339.753736 160.236508 
L 340.018976 157.957953 
L 340.283446 158.723616 
L 340.547153 160.137189 
L 340.8101 160.717637 
L 341.594428 164.983879 
L 341.85438 164.235442 
L 342.113594 165.823181 
L 342.372074 166.524474 
L 342.629824 168.020232 
L 342.954999 162.155369 
L 343.211111 163.824688 
L 343.466506 161.685742 
L 343.721189 163.165024 
L 343.975164 162.609797 
L 344.228433 163.526285 
L 344.481002 165.245198 
L 344.984053 166.333753 
L 345.234543 162.694035 
L 345.484347 160.782397 
L 345.73347 162.159877 
L 345.981914 162.08379 
L 346.229685 158.544387 
L 346.476784 160.195027 
L 346.723217 159.291386 
L 346.968986 161.126549 
L 347.214095 160.77544 
L 347.458548 162.188571 
L 347.702348 161.002154 
L 347.945499 162.635788 
L 348.188003 161.997376 
L 348.429865 162.04939 
L 348.671088 160.818376 
L 349.390957 165.303074 
L 349.629657 165.487018 
L 350.342035 160.414837 
L 350.578264 161.803663 
L 350.64091 163.423377 
L 351.11122 166.15696 
L 351.34547 164.63747 
L 351.57912 160.616827 
L 352.044634 163.626795 
L 352.276504 163.046056 
L 352.738484 166.674198 
L 352.9686 163.696693 
L 353.198138 158.296739 
L 353.4271 158.598884 
L 354.11056 163.8439 
L 354.337248 163.054636 
L 354.788942 166.052937 
L 355.013953 162.868517 
L 355.238411 163.837765 
L 355.462319 163.822435 
L 355.685679 163.934032 
L 356.130766 166.754477 
L 356.352498 166.471101 
L 356.573693 167.208678 
L 356.794353 166.920841 
L 357.014481 168.556938 
L 357.23408 169.346729 
L 357.453152 167.793358 
L 357.671699 169.636626 
L 357.94755 163.597745 
L 358.598108 166.524957 
L 358.813934 166.312093 
L 359.029251 166.318581 
L 359.244062 166.849757 
L 359.458369 163.890725 
L 359.672173 163.348363 
L 359.885478 163.641227 
L 360.098286 160.410461 
L 360.310599 160.920168 
L 360.733748 162.638564 
L 361.154946 159.631245 
L 361.364818 160.477507 
L 361.574209 158.875492 
L 361.991555 161.985829 
L 362.199515 161.48591 
L 362.407002 160.484992 
L 362.614019 162.550527 
L 362.820567 163.354045 
L 363.026649 164.784018 
L 363.232266 163.926952 
L 363.437422 164.052082 
L 363.642118 165.319237 
L 363.846355 164.778525 
L 364.253465 167.801197 
L 364.456341 167.499929 
L 364.658767 168.57258 
L 364.914321 167.612621 
L 365.115735 169.486367 
L 365.316706 170.307748 
L 365.517235 169.430802 
L 365.717325 169.938351 
L 366.314976 175.234139 
L 366.513327 174.31614 
L 366.711248 172.681926 
L 366.90874 174.420158 
L 367.302448 175.90148 
L 367.498667 177.176602 
L 367.694465 175.763851 
L 368.084806 170.389762 
L 368.279353 172.099518 
L 368.473485 171.295423 
L 368.667206 171.209859 
L 368.860516 172.687036 
L 369.053418 172.987113 
L 369.245914 174.943296 
L 369.438004 170.949752 
L 369.62969 172.144038 
L 369.820976 174.223888 
L 370.011861 174.787363 
L 370.202348 173.248719 
L 370.392438 173.254521 
L 370.582133 172.524689 
L 370.771435 170.612916 
L 370.960345 171.882408 
L 371.010458 173.862687 
L 371.198875 171.458596 
L 371.386903 173.552035 
L 371.574546 173.129649 
L 371.948676 175.87132 
L 372.135168 176.004143 
L 372.32128 176.391939 
L 372.507013 177.794013 
L 372.692369 177.88314 
L 373.061956 181.071769 
L 373.24619 179.243452 
L 373.430053 178.65341 
L 373.613546 180.40754 
L 373.796671 181.043504 
L 373.979429 180.685981 
L 374.161823 181.439124 
L 374.525519 177.036412 
L 374.706826 178.933921 
L 374.887773 173.845123 
L 375.068362 172.834941 
L 375.428472 174.538053 
L 375.607996 173.520256 
L 376.854873 182.68021 
L 376.901854 181.457899 
L 377.078507 183.113944 
L 377.254818 180.225651 
L 377.430789 174.672259 
L 377.606422 176.077979 
L 377.781717 176.074729 
L 378.305593 180.959535 
L 378.479552 180.117477 
L 378.826479 183.197854 
L 378.999449 182.816352 
L 379.172093 181.895017 
L 379.859419 188.557636 
L 380.201152 190.882356 
L 380.541609 184.423018 
L 380.711363 186.36915 
L 380.880802 183.34894 
L 381.049927 183.44854 
L 381.218739 182.734469 
L 381.890884 188.573808 
L 382.058149 190.333871 
L 382.391764 185.903047 
L 382.43598 187.177867 
L 382.602251 187.156507 
L 382.76822 187.648702 
L 382.933887 187.452661 
L 383.099254 185.845947 
L 383.264322 186.333464 
L 383.429092 182.774636 
L 384.085215 189.411985 
L 384.248512 188.935085 
L 384.411516 186.880347 
L 384.574231 187.54818 
L 384.736656 183.035931 
L 385.060641 186.602223 
L 385.222203 185.348633 
L 385.38348 185.802627 
L 385.705182 188.289378 
L 385.865609 183.353625 
L 386.025754 184.566715 
L 386.185619 184.067767 
L 386.504511 184.572505 
L 386.663541 185.654953 
L 386.822293 185.642663 
L 387.296902 190.265596 
L 387.454558 189.349637 
L 387.611943 191.142415 
L 387.653702 189.354216 
L 387.810744 187.550511 
L 388.124019 191.059546 
L 388.280254 189.06244 
L 388.902536 195.869135 
L 389.057445 196.575808 
L 389.212093 198.267856 
L 389.520604 196.866894 
L 389.674469 195.09168 
L 389.828075 195.564621 
L 389.981424 195.608516 
L 390.134515 192.588827 
L 390.439929 194.517435 
L 390.592254 193.468367 
L 390.744325 194.218259 
L 390.896144 193.714985 
L 391.04771 188.973962 
L 391.350089 191.875408 
L 391.651471 194.820155 
L 392.101685 197.759784 
L 392.400599 190.466923 
L 392.54969 190.612987 
L 392.589251 188.776251 
L 392.738034 188.753054 
L 392.886575 190.133855 
L 393.034875 188.143835 
L 393.330754 190.985476 
L 393.625677 194.059589 
L 393.772782 195.831322 
L 393.91965 192.342852 
L 394.066283 192.057729 
L 394.358843 194.602485 
L 394.504772 193.208231 
L 395.230939 199.863665 
L 395.375482 199.047275 
L 395.519796 196.747254 
L 395.663883 197.810701 
L 395.807742 197.817203 
L 396.237966 202.479478 
L 396.523659 198.27267 
L 396.666171 198.217751 
L 397.554069 207.997951 
L 397.694982 206.229573 
L 398.116423 209.661667 
L 398.256472 206.162811 
L 398.675334 209.369714 
L 399.092283 212.234704 
L 399.369195 203.775283 
L 399.507336 203.199679 
L 400.057822 208.998033 
L 400.194926 208.104618 
L 400.468518 210.564585 
L 400.605007 209.851638 
L 401.013255 211.24322 
L 401.148932 211.284563 
L 401.419684 209.447657 
L 401.689636 211.95986 
L 401.725429 211.151957 
L 401.994479 213.292357 
L 402.128707 212.093855 
L 402.796904 217.294068 
L 402.929959 211.570322 
L 403.460245 215.422156 
L 403.592337 212.607322 
L 403.724238 213.766571 
L 403.855949 212.78146 
L 404.642247 220.157708 
L 404.772641 215.940795 
L 404.902848 217.198712 
L 405.032871 214.434247 
L 405.292361 215.981588 
L 405.551116 216.465428 
L 405.680218 215.376273 
L 406.228881 219.180218 
L 406.35703 215.997402 
L 406.484999 217.360931 
L 406.612789 216.005704 
L 406.7404 216.035498 
L 406.867833 217.298132 
L 406.995088 217.313262 
L 407.628718 221.877051 
L 407.754917 218.325794 
L 407.880943 219.551666 
L 408.006795 219.13315 
L 408.257979 221.474401 
L 408.383313 221.351325 
L 408.633465 223.081965 
L 408.758284 223.026328 
L 408.882933 223.382139 
L 409.007412 222.988415 
L 409.255862 224.213369 
L 409.503637 222.621447 
L 409.627273 223.884892 
L 409.750742 223.597026 
L 409.874044 221.737092 
L 410.02986 223.873329 
L 410.275546 221.735307 
L 410.398142 222.507629 
L 410.520573 221.292954 
L 410.642841 222.458269 
L 410.764944 219.643302 
L 411.008663 221.341316 
L 411.130279 220.861618 
L 411.494157 223.999519 
L 411.615128 220.49845 
L 411.735939 220.371387 
L 411.977082 221.949425 
L 412.097416 222.164571 
L 412.217591 222.652276 
L 412.457467 224.89558 
L 412.577169 221.035374 
L 412.816103 222.591279 
L 412.935336 223.188604 
L 413.173336 225.08192 
L 413.292104 225.883991 
L 413.410717 221.87128 
L 413.883636 225.385792 
L 413.914954 224.875784 
L 414.150417 226.744435 
L 414.267921 224.307558 
L 414.385274 225.077793 
L 414.502476 224.843009 
L 414.619528 226.044479 
L 414.73643 224.180854 
L 414.73643 224.180854 
" clip-path="url(#p43103fcdff)" style="fill: none; stroke: #d62728; stroke-opacity: 0.4; stroke-linecap: square"/>
   </g>
   <g id="patch_3">
    <path d="M 57.6 307.584 
L 57.6 41.472 
" style="fill: none; stroke: #000000; stroke-width: 0.8; stroke-linejoin: miter; stroke-linecap: square"/>
   </g>
   <g id="patch_4">
    <path d="M 414.72 307.584 
L 414.72 41.472 
" style="fill: none; stroke: #000000; stroke-width: 0.8; stroke-linejoin: miter; stroke-linecap: square"/>
   </g>
   <g id="patch_5">
    <path d="M 57.6 307.584 
L 414.72 307.584 
" style="fill: none; stroke: #000000; stroke-width: 0.8; stroke-linejoin: miter; stroke-linecap: square"/>
   </g>
   <g id="patch_6">
    <path d="M 57.6 41.472 
L 414.72 41.472 
" style="fill: none; stroke: #000000; stroke-width: 0.8; stroke-linejoin: miter; stroke-linecap: square"/>
   </g>
   <g id="text_8">
    <!-- 2025-02-21-09:06:55 zoomed in + ewm(16.0).mean() -->
    <g transform="translate(74.128125 35.472) scale(0.12 -0.12)">
     <defs>
      <path id="DejaVuSans-35" d="M 691 4666 
L 3169 4666 
L 3169 4134 
L 1269 4134 
L 1269 2991 
Q 1406 3038 1543 3061 
Q 1681 3084 1819 3084 
Q 2600 3084 3056 2656 
Q 3513 2228 3513 1497 
Q 3513 744 3044 326 
Q 2575 -91 1722 -91 
Q 1428 -91 1123 -41 
Q 819 9 494 109 
L 494 744 
Q 775 591 1075 516 
Q 1375 441 1709 441 
Q 2250 441 2565 725 
Q 2881 1009 2881 1497 
Q 2881 1984 2565 2268 
Q 2250 2553 1709 2553 
Q 1456 2553 1204 2497 
Q 953 2441 691 2322 
L 691 4666 
z
" transform="scale(0.015625)"/>
      <path id="DejaVuSans-2d" d="M 313 2009 
L 1997 2009 
L 1997 1497 
L 313 1497 
L 313 2009 
z
" transform="scale(0.015625)"/>
      <path id="DejaVuSans-39" d="M 703 97 
L 703 672 
Q 941 559 1184 500 
Q 1428 441 1663 441 
Q 2288 441 2617 861 
Q 2947 1281 2994 2138 
Q 2813 1869 2534 1725 
Q 2256 1581 1919 1581 
Q 1219 1581 811 2004 
Q 403 2428 403 3163 
Q 403 3881 828 4315 
Q 1253 4750 1959 4750 
Q 2769 4750 3195 4129 
Q 3622 3509 3622 2328 
Q 3622 1225 3098 567 
Q 2575 -91 1691 -91 
Q 1453 -91 1209 -44 
Q 966 3 703 97 
z
M 1959 2075 
Q 2384 2075 2632 2365 
Q 2881 2656 2881 3163 
Q 2881 3666 2632 3958 
Q 2384 4250 1959 4250 
Q 1534 4250 1286 3958 
Q 1038 3666 1038 3163 
Q 1038 2656 1286 2365 
Q 1534 2075 1959 2075 
z
" transform="scale(0.015625)"/>
      <path id="DejaVuSans-3a" d="M 750 794 
L 1409 794 
L 1409 0 
L 750 0 
L 750 794 
z
M 750 3309 
L 1409 3309 
L 1409 2516 
L 750 2516 
L 750 3309 
z
" transform="scale(0.015625)"/>
      <path id="DejaVuSans-36" d="M 2113 2584 
Q 1688 2584 1439 2293 
Q 1191 2003 1191 1497 
Q 1191 994 1439 701 
Q 1688 409 2113 409 
Q 2538 409 2786 701 
Q 3034 994 3034 1497 
Q 3034 2003 2786 2293 
Q 2538 2584 2113 2584 
z
M 3366 4563 
L 3366 3988 
Q 3128 4100 2886 4159 
Q 2644 4219 2406 4219 
Q 1781 4219 1451 3797 
Q 1122 3375 1075 2522 
Q 1259 2794 1537 2939 
Q 1816 3084 2150 3084 
Q 2853 3084 3261 2657 
Q 3669 2231 3669 1497 
Q 3669 778 3244 343 
Q 2819 -91 2113 -91 
Q 1303 -91 875 529 
Q 447 1150 447 2328 
Q 447 3434 972 4092 
Q 1497 4750 2381 4750 
Q 2619 4750 2861 4703 
Q 3103 4656 3366 4563 
z
" transform="scale(0.015625)"/>
      <path id="DejaVuSans-20" transform="scale(0.015625)"/>
      <path id="DejaVuSans-7a" d="M 353 3500 
L 3084 3500 
L 3084 2975 
L 922 459 
L 3084 459 
L 3084 0 
L 275 0 
L 275 525 
L 2438 3041 
L 353 3041 
L 353 3500 
z
" transform="scale(0.015625)"/>
      <path id="DejaVuSans-6d" d="M 3328 2828 
Q 3544 3216 3844 3400 
Q 4144 3584 4550 3584 
Q 5097 3584 5394 3201 
Q 5691 2819 5691 2113 
L 5691 0 
L 5113 0 
L 5113 2094 
Q 5113 2597 4934 2840 
Q 4756 3084 4391 3084 
Q 3944 3084 3684 2787 
Q 3425 2491 3425 1978 
L 3425 0 
L 2847 0 
L 2847 2094 
Q 2847 2600 2669 2842 
Q 2491 3084 2119 3084 
Q 1678 3084 1418 2786 
Q 1159 2488 1159 1978 
L 1159 0 
L 581 0 
L 581 3500 
L 1159 3500 
L 1159 2956 
Q 1356 3278 1631 3431 
Q 1906 3584 2284 3584 
Q 2666 3584 2933 3390 
Q 3200 3197 3328 2828 
z
" transform="scale(0.015625)"/>
      <path id="DejaVuSans-64" d="M 2906 2969 
L 2906 4863 
L 3481 4863 
L 3481 0 
L 2906 0 
L 2906 525 
Q 2725 213 2448 61 
Q 2172 -91 1784 -91 
Q 1150 -91 751 415 
Q 353 922 353 1747 
Q 353 2572 751 3078 
Q 1150 3584 1784 3584 
Q 2172 3584 2448 3432 
Q 2725 3281 2906 2969 
z
M 947 1747 
Q 947 1113 1208 752 
Q 1469 391 1925 391 
Q 2381 391 2643 752 
Q 2906 1113 2906 1747 
Q 2906 2381 2643 2742 
Q 2381 3103 1925 3103 
Q 1469 3103 1208 2742 
Q 947 2381 947 1747 
z
" transform="scale(0.015625)"/>
      <path id="DejaVuSans-6e" d="M 3513 2113 
L 3513 0 
L 2938 0 
L 2938 2094 
Q 2938 2591 2744 2837 
Q 2550 3084 2163 3084 
Q 1697 3084 1428 2787 
Q 1159 2491 1159 1978 
L 1159 0 
L 581 0 
L 581 3500 
L 1159 3500 
L 1159 2956 
Q 1366 3272 1645 3428 
Q 1925 3584 2291 3584 
Q 2894 3584 3203 3211 
Q 3513 2838 3513 2113 
z
" transform="scale(0.015625)"/>
      <path id="DejaVuSans-2b" d="M 2944 4013 
L 2944 2272 
L 4684 2272 
L 4684 1741 
L 2944 1741 
L 2944 0 
L 2419 0 
L 2419 1741 
L 678 1741 
L 678 2272 
L 2419 2272 
L 2419 4013 
L 2944 4013 
z
" transform="scale(0.015625)"/>
      <path id="DejaVuSans-77" d="M 269 3500 
L 844 3500 
L 1563 769 
L 2278 3500 
L 2956 3500 
L 3675 769 
L 4391 3500 
L 4966 3500 
L 4050 0 
L 3372 0 
L 2619 2869 
L 1863 0 
L 1184 0 
L 269 3500 
z
" transform="scale(0.015625)"/>
      <path id="DejaVuSans-28" d="M 1984 4856 
Q 1566 4138 1362 3434 
Q 1159 2731 1159 2009 
Q 1159 1288 1364 580 
Q 1569 -128 1984 -844 
L 1484 -844 
Q 1016 -109 783 600 
Q 550 1309 550 2009 
Q 550 2706 781 3412 
Q 1013 4119 1484 4856 
L 1984 4856 
z
" transform="scale(0.015625)"/>
      <path id="DejaVuSans-2e" d="M 684 794 
L 1344 794 
L 1344 0 
L 684 0 
L 684 794 
z
" transform="scale(0.015625)"/>
      <path id="DejaVuSans-29" d="M 513 4856 
L 1013 4856 
Q 1481 4119 1714 3412 
Q 1947 2706 1947 2009 
Q 1947 1309 1714 600 
Q 1481 -109 1013 -844 
L 513 -844 
Q 928 -128 1133 580 
Q 1338 1288 1338 2009 
Q 1338 2731 1133 3434 
Q 928 4138 513 4856 
z
" transform="scale(0.015625)"/>
      <path id="DejaVuSans-61" d="M 2194 1759 
Q 1497 1759 1228 1600 
Q 959 1441 959 1056 
Q 959 750 1161 570 
Q 1363 391 1709 391 
Q 2188 391 2477 730 
Q 2766 1069 2766 1631 
L 2766 1759 
L 2194 1759 
z
M 3341 1997 
L 3341 0 
L 2766 0 
L 2766 531 
Q 2569 213 2275 61 
Q 1981 -91 1556 -91 
Q 1019 -91 701 211 
Q 384 513 384 1019 
Q 384 1609 779 1909 
Q 1175 2209 1959 2209 
L 2766 2209 
L 2766 2266 
Q 2766 2663 2505 2880 
Q 2244 3097 1772 3097 
Q 1472 3097 1187 3025 
Q 903 2953 641 2809 
L 641 3341 
Q 956 3463 1253 3523 
Q 1550 3584 1831 3584 
Q 2591 3584 2966 3190 
Q 3341 2797 3341 1997 
z
" transform="scale(0.015625)"/>
     </defs>
     <use xlink:href="#DejaVuSans-32"/>
     <use xlink:href="#DejaVuSans-30" x="63.623047"/>
     <use xlink:href="#DejaVuSans-32" x="127.246094"/>
     <use xlink:href="#DejaVuSans-35" x="190.869141"/>
     <use xlink:href="#DejaVuSans-2d" x="254.492188"/>
     <use xlink:href="#DejaVuSans-30" x="290.576172"/>
     <use xlink:href="#DejaVuSans-32" x="354.199219"/>
     <use xlink:href="#DejaVuSans-2d" x="417.822266"/>
     <use xlink:href="#DejaVuSans-32" x="453.90625"/>
     <use xlink:href="#DejaVuSans-31" x="517.529297"/>
     <use xlink:href="#DejaVuSans-2d" x="581.152344"/>
     <use xlink:href="#DejaVuSans-30" x="617.236328"/>
     <use xlink:href="#DejaVuSans-39" x="680.859375"/>
     <use xlink:href="#DejaVuSans-3a" x="744.482422"/>
     <use xlink:href="#DejaVuSans-30" x="778.173828"/>
     <use xlink:href="#DejaVuSans-36" x="841.796875"/>
     <use xlink:href="#DejaVuSans-3a" x="905.419922"/>
     <use xlink:href="#DejaVuSans-35" x="939.111328"/>
     <use xlink:href="#DejaVuSans-35" x="1002.734375"/>
     <use xlink:href="#DejaVuSans-20" x="1066.357422"/>
     <use xlink:href="#DejaVuSans-7a" x="1098.144531"/>
     <use xlink:href="#DejaVuSans-6f" x="1150.634766"/>
     <use xlink:href="#DejaVuSans-6f" x="1211.816406"/>
     <use xlink:href="#DejaVuSans-6d" x="1272.998047"/>
     <use xlink:href="#DejaVuSans-65" x="1370.410156"/>
     <use xlink:href="#DejaVuSans-64" x="1431.933594"/>
     <use xlink:href="#DejaVuSans-20" x="1495.410156"/>
     <use xlink:href="#DejaVuSans-69" x="1527.197266"/>
     <use xlink:href="#DejaVuSans-6e" x="1554.980469"/>
     <use xlink:href="#DejaVuSans-20" x="1618.359375"/>
     <use xlink:href="#DejaVuSans-2b" x="1650.146484"/>
     <use xlink:href="#DejaVuSans-20" x="1733.935547"/>
     <use xlink:href="#DejaVuSans-65" x="1765.722656"/>
     <use xlink:href="#DejaVuSans-77" x="1827.246094"/>
     <use xlink:href="#DejaVuSans-6d" x="1909.033203"/>
     <use xlink:href="#DejaVuSans-28" x="2006.445312"/>
     <use xlink:href="#DejaVuSans-31" x="2045.458984"/>
     <use xlink:href="#DejaVuSans-36" x="2109.082031"/>
     <use xlink:href="#DejaVuSans-2e" x="2172.705078"/>
     <use xlink:href="#DejaVuSans-30" x="2204.492188"/>
     <use xlink:href="#DejaVuSans-29" x="2268.115234"/>
     <use xlink:href="#DejaVuSans-2e" x="2307.128906"/>
     <use xlink:href="#DejaVuSans-6d" x="2338.916016"/>
     <use xlink:href="#DejaVuSans-65" x="2436.328125"/>
     <use xlink:href="#DejaVuSans-61" x="2497.851562"/>
     <use xlink:href="#DejaVuSans-6e" x="2559.130859"/>
     <use xlink:href="#DejaVuSans-28" x="2622.509766"/>
     <use xlink:href="#DejaVuSans-29" x="2661.523438"/>
    </g>
   </g>
   <g id="legend_1">
    <g id="patch_7">
     <path d="M 281.596563 109.297 
L 407.72 109.297 
Q 409.72 109.297 409.72 107.297 
L 409.72 48.472 
Q 409.72 46.472 407.72 46.472 
L 281.596563 46.472 
Q 279.596563 46.472 279.596563 48.472 
L 279.596563 107.297 
Q 279.596563 109.297 281.596563 109.297 
z
" style="fill: #ffffff; opacity: 0.8; stroke: #cccccc; stroke-linejoin: miter"/>
    </g>
    <g id="line2d_39">
     <path d="M 283.596563 54.570437 
L 293.596563 54.570437 
L 303.596563 54.570437 
" style="fill: none; stroke: #1f77b4; stroke-opacity: 0.4; stroke-linecap: square"/>
    </g>
    <g id="text_9">
     <!-- SchNet eval_loss -->
     <g transform="translate(311.596563 58.070437) scale(0.1 -0.1)">
      <defs>
       <path id="DejaVuSans-53" d="M 3425 4513 
L 3425 3897 
Q 3066 4069 2747 4153 
Q 2428 4238 2131 4238 
Q 1616 4238 1336 4038 
Q 1056 3838 1056 3469 
Q 1056 3159 1242 3001 
Q 1428 2844 1947 2747 
L 2328 2669 
Q 3034 2534 3370 2195 
Q 3706 1856 3706 1288 
Q 3706 609 3251 259 
Q 2797 -91 1919 -91 
Q 1588 -91 1214 -16 
Q 841 59 441 206 
L 441 856 
Q 825 641 1194 531 
Q 1563 422 1919 422 
Q 2459 422 2753 634 
Q 3047 847 3047 1241 
Q 3047 1584 2836 1778 
Q 2625 1972 2144 2069 
L 1759 2144 
Q 1053 2284 737 2584 
Q 422 2884 422 3419 
Q 422 4038 858 4394 
Q 1294 4750 2059 4750 
Q 2388 4750 2728 4690 
Q 3069 4631 3425 4513 
z
" transform="scale(0.015625)"/>
       <path id="DejaVuSans-63" d="M 3122 3366 
L 3122 2828 
Q 2878 2963 2633 3030 
Q 2388 3097 2138 3097 
Q 1578 3097 1268 2742 
Q 959 2388 959 1747 
Q 959 1106 1268 751 
Q 1578 397 2138 397 
Q 2388 397 2633 464 
Q 2878 531 3122 666 
L 3122 134 
Q 2881 22 2623 -34 
Q 2366 -91 2075 -91 
Q 1284 -91 818 406 
Q 353 903 353 1747 
Q 353 2603 823 3093 
Q 1294 3584 2113 3584 
Q 2378 3584 2631 3529 
Q 2884 3475 3122 3366 
z
" transform="scale(0.015625)"/>
       <path id="DejaVuSans-68" d="M 3513 2113 
L 3513 0 
L 2938 0 
L 2938 2094 
Q 2938 2591 2744 2837 
Q 2550 3084 2163 3084 
Q 1697 3084 1428 2787 
Q 1159 2491 1159 1978 
L 1159 0 
L 581 0 
L 581 4863 
L 1159 4863 
L 1159 2956 
Q 1366 3272 1645 3428 
Q 1925 3584 2291 3584 
Q 2894 3584 3203 3211 
Q 3513 2838 3513 2113 
z
" transform="scale(0.015625)"/>
       <path id="DejaVuSans-4e" d="M 628 4666 
L 1478 4666 
L 3547 763 
L 3547 4666 
L 4159 4666 
L 4159 0 
L 3309 0 
L 1241 3903 
L 1241 0 
L 628 0 
L 628 4666 
z
" transform="scale(0.015625)"/>
       <path id="DejaVuSans-76" d="M 191 3500 
L 800 3500 
L 1894 563 
L 2988 3500 
L 3597 3500 
L 2284 0 
L 1503 0 
L 191 3500 
z
" transform="scale(0.015625)"/>
       <path id="DejaVuSans-5f" d="M 3263 -1063 
L 3263 -1509 
L -63 -1509 
L -63 -1063 
L 3263 -1063 
z
" transform="scale(0.015625)"/>
      </defs>
      <use xlink:href="#DejaVuSans-53"/>
      <use xlink:href="#DejaVuSans-63" x="63.476562"/>
      <use xlink:href="#DejaVuSans-68" x="118.457031"/>
      <use xlink:href="#DejaVuSans-4e" x="181.835938"/>
      <use xlink:href="#DejaVuSans-65" x="256.640625"/>
      <use xlink:href="#DejaVuSans-74" x="318.164062"/>
      <use xlink:href="#DejaVuSans-20" x="357.373047"/>
      <use xlink:href="#DejaVuSans-65" x="389.160156"/>
      <use xlink:href="#DejaVuSans-76" x="450.683594"/>
      <use xlink:href="#DejaVuSans-61" x="509.863281"/>
      <use xlink:href="#DejaVuSans-6c" x="571.142578"/>
      <use xlink:href="#DejaVuSans-5f" x="598.925781"/>
      <use xlink:href="#DejaVuSans-6c" x="648.925781"/>
      <use xlink:href="#DejaVuSans-6f" x="676.708984"/>
      <use xlink:href="#DejaVuSans-73" x="737.890625"/>
      <use xlink:href="#DejaVuSans-73" x="789.990234"/>
     </g>
    </g>
    <g id="line2d_40">
     <path d="M 283.596563 69.526687 
L 293.596563 69.526687 
L 303.596563 69.526687 
" style="fill: none; stroke: #ff7f0e; stroke-opacity: 0.4; stroke-linecap: square"/>
    </g>
    <g id="text_10">
     <!-- M220 eval_loss -->
     <g transform="translate(311.596563 73.026687) scale(0.1 -0.1)">
      <defs>
       <path id="DejaVuSans-4d" d="M 628 4666 
L 1569 4666 
L 2759 1491 
L 3956 4666 
L 4897 4666 
L 4897 0 
L 4281 0 
L 4281 4097 
L 3078 897 
L 2444 897 
L 1241 4097 
L 1241 0 
L 628 0 
L 628 4666 
z
" transform="scale(0.015625)"/>
      </defs>
      <use xlink:href="#DejaVuSans-4d"/>
      <use xlink:href="#DejaVuSans-32" x="86.279297"/>
      <use xlink:href="#DejaVuSans-32" x="149.902344"/>
      <use xlink:href="#DejaVuSans-30" x="213.525391"/>
      <use xlink:href="#DejaVuSans-20" x="277.148438"/>
      <use xlink:href="#DejaVuSans-65" x="308.935547"/>
      <use xlink:href="#DejaVuSans-76" x="370.458984"/>
      <use xlink:href="#DejaVuSans-61" x="429.638672"/>
      <use xlink:href="#DejaVuSans-6c" x="490.917969"/>
      <use xlink:href="#DejaVuSans-5f" x="518.701172"/>
      <use xlink:href="#DejaVuSans-6c" x="568.701172"/>
      <use xlink:href="#DejaVuSans-6f" x="596.484375"/>
      <use xlink:href="#DejaVuSans-73" x="657.666016"/>
      <use xlink:href="#DejaVuSans-73" x="709.765625"/>
     </g>
    </g>
    <g id="line2d_41">
     <path d="M 283.596563 84.482937 
L 293.596563 84.482937 
L 303.596563 84.482937 
" style="fill: none; stroke: #2ca02c; stroke-opacity: 0.4; stroke-linecap: square"/>
    </g>
    <g id="text_11">
     <!-- MoGIN14 eval_loss -->
     <g transform="translate(311.596563 87.982937) scale(0.1 -0.1)">
      <defs>
       <path id="DejaVuSans-47" d="M 3809 666 
L 3809 1919 
L 2778 1919 
L 2778 2438 
L 4434 2438 
L 4434 434 
Q 4069 175 3628 42 
Q 3188 -91 2688 -91 
Q 1594 -91 976 548 
Q 359 1188 359 2328 
Q 359 3472 976 4111 
Q 1594 4750 2688 4750 
Q 3144 4750 3555 4637 
Q 3966 4525 4313 4306 
L 4313 3634 
Q 3963 3931 3569 4081 
Q 3175 4231 2741 4231 
Q 1884 4231 1454 3753 
Q 1025 3275 1025 2328 
Q 1025 1384 1454 906 
Q 1884 428 2741 428 
Q 3075 428 3337 486 
Q 3600 544 3809 666 
z
" transform="scale(0.015625)"/>
       <path id="DejaVuSans-49" d="M 628 4666 
L 1259 4666 
L 1259 0 
L 628 0 
L 628 4666 
z
" transform="scale(0.015625)"/>
      </defs>
      <use xlink:href="#DejaVuSans-4d"/>
      <use xlink:href="#DejaVuSans-6f" x="86.279297"/>
      <use xlink:href="#DejaVuSans-47" x="147.460938"/>
      <use xlink:href="#DejaVuSans-49" x="224.951172"/>
      <use xlink:href="#DejaVuSans-4e" x="254.443359"/>
      <use xlink:href="#DejaVuSans-31" x="329.248047"/>
      <use xlink:href="#DejaVuSans-34" x="392.871094"/>
      <use xlink:href="#DejaVuSans-20" x="456.494141"/>
      <use xlink:href="#DejaVuSans-65" x="488.28125"/>
      <use xlink:href="#DejaVuSans-76" x="549.804688"/>
      <use xlink:href="#DejaVuSans-61" x="608.984375"/>
      <use xlink:href="#DejaVuSans-6c" x="670.263672"/>
      <use xlink:href="#DejaVuSans-5f" x="698.046875"/>
      <use xlink:href="#DejaVuSans-6c" x="748.046875"/>
      <use xlink:href="#DejaVuSans-6f" x="775.830078"/>
      <use xlink:href="#DejaVuSans-73" x="837.011719"/>
      <use xlink:href="#DejaVuSans-73" x="889.111328"/>
     </g>
    </g>
    <g id="line2d_42">
     <path d="M 283.596563 99.439187 
L 293.596563 99.439187 
L 303.596563 99.439187 
" style="fill: none; stroke: #d62728; stroke-opacity: 0.4; stroke-linecap: square"/>
    </g>
    <g id="text_12">
     <!-- MoGIN16 eval_loss -->
     <g transform="translate(311.596563 102.939187) scale(0.1 -0.1)">
      <use xlink:href="#DejaVuSans-4d"/>
      <use xlink:href="#DejaVuSans-6f" x="86.279297"/>
      <use xlink:href="#DejaVuSans-47" x="147.460938"/>
      <use xlink:href="#DejaVuSans-49" x="224.951172"/>
      <use xlink:href="#DejaVuSans-4e" x="254.443359"/>
      <use xlink:href="#DejaVuSans-31" x="329.248047"/>
      <use xlink:href="#DejaVuSans-36" x="392.871094"/>
      <use xlink:href="#DejaVuSans-20" x="456.494141"/>
      <use xlink:href="#DejaVuSans-65" x="488.28125"/>
      <use xlink:href="#DejaVuSans-76" x="549.804688"/>
      <use xlink:href="#DejaVuSans-61" x="608.984375"/>
      <use xlink:href="#DejaVuSans-6c" x="670.263672"/>
      <use xlink:href="#DejaVuSans-5f" x="698.046875"/>
      <use xlink:href="#DejaVuSans-6c" x="748.046875"/>
      <use xlink:href="#DejaVuSans-6f" x="775.830078"/>
      <use xlink:href="#DejaVuSans-73" x="837.011719"/>
      <use xlink:href="#DejaVuSans-73" x="889.111328"/>
     </g>
    </g>
   </g>
  </g>
 </g>
 <defs>
  <clipPath id="p43103fcdff">
   <rect x="57.6" y="41.472" width="357.12" height="266.112"/>
  </clipPath>
 </defs>
</svg>
