<?xml version="1.0" encoding="utf-8" standalone="no"?>
<!DOCTYPE svg PUBLIC "-//W3C//DTD SVG 1.1//EN"
  "http://www.w3.org/Graphics/SVG/1.1/DTD/svg11.dtd">
<svg xmlns:xlink="http://www.w3.org/1999/xlink" width="460.8pt" height="345.6pt" viewBox="0 0 460.8 345.6" xmlns="http://www.w3.org/2000/svg" version="1.1">
 <metadata>
  <rdf:RDF xmlns:dc="http://purl.org/dc/elements/1.1/" xmlns:cc="http://creativecommons.org/ns#" xmlns:rdf="http://www.w3.org/1999/02/22-rdf-syntax-ns#">
   <cc:Work>
    <dc:type rdf:resource="http://purl.org/dc/dcmitype/StillImage"/>
    <dc:date>2025-02-12T16:31:14.955912</dc:date>
    <dc:format>image/svg+xml</dc:format>
    <dc:creator>
     <cc:Agent>
      <dc:title>Matplotlib v3.8.4, https://matplotlib.org/</dc:title>
     </cc:Agent>
    </dc:creator>
   </cc:Work>
  </rdf:RDF>
 </metadata>
 <defs>
  <style type="text/css">*{stroke-linejoin: round; stroke-linecap: butt}</style>
 </defs>
 <g id="figure_1">
  <g id="patch_1">
   <path d="M 0 345.6 
L 460.8 345.6 
L 460.8 0 
L 0 0 
z
" style="fill: #ffffff"/>
  </g>
  <g id="axes_1">
   <g id="patch_2">
    <path d="M 57.6 307.584 
L 414.72 307.584 
L 414.72 41.472 
L 57.6 41.472 
z
" style="fill: #ffffff"/>
   </g>
   <g id="matplotlib.axis_1">
    <g id="xtick_1">
     <g id="line2d_1">
      <defs>
       <path id="me265ec2dfe" d="M 0 0 
L 0 3.5 
" style="stroke: #000000; stroke-width: 0.8"/>
      </defs>
      <g>
       <use xlink:href="#me265ec2dfe" x="73.832727" y="307.584" style="stroke: #000000; stroke-width: 0.8"/>
      </g>
     </g>
     <g id="text_1">
      <!-- $\mathdefault{10^{0}}$ -->
      <g transform="translate(65.032727 322.182437) scale(0.1 -0.1)">
       <defs>
        <path id="DejaVuSans-31" d="M 794 531 
L 1825 531 
L 1825 4091 
L 703 3866 
L 703 4441 
L 1819 4666 
L 2450 4666 
L 2450 531 
L 3481 531 
L 3481 0 
L 794 0 
L 794 531 
z
" transform="scale(0.015625)"/>
        <path id="DejaVuSans-30" d="M 2034 4250 
Q 1547 4250 1301 3770 
Q 1056 3291 1056 2328 
Q 1056 1369 1301 889 
Q 1547 409 2034 409 
Q 2525 409 2770 889 
Q 3016 1369 3016 2328 
Q 3016 3291 2770 3770 
Q 2525 4250 2034 4250 
z
M 2034 4750 
Q 2819 4750 3233 4129 
Q 3647 3509 3647 2328 
Q 3647 1150 3233 529 
Q 2819 -91 2034 -91 
Q 1250 -91 836 529 
Q 422 1150 422 2328 
Q 422 3509 836 4129 
Q 1250 4750 2034 4750 
z
" transform="scale(0.015625)"/>
       </defs>
       <use xlink:href="#DejaVuSans-31" transform="translate(0 0.765625)"/>
       <use xlink:href="#DejaVuSans-30" transform="translate(63.623047 0.765625)"/>
       <use xlink:href="#DejaVuSans-30" transform="translate(128.203125 39.046875) scale(0.7)"/>
      </g>
     </g>
    </g>
    <g id="xtick_2">
     <g id="line2d_2">
      <g>
       <use xlink:href="#me265ec2dfe" x="163.61414" y="307.584" style="stroke: #000000; stroke-width: 0.8"/>
      </g>
     </g>
     <g id="text_2">
      <!-- $\mathdefault{10^{1}}$ -->
      <g transform="translate(154.81414 322.182437) scale(0.1 -0.1)">
       <use xlink:href="#DejaVuSans-31" transform="translate(0 0.684375)"/>
       <use xlink:href="#DejaVuSans-30" transform="translate(63.623047 0.684375)"/>
       <use xlink:href="#DejaVuSans-31" transform="translate(128.203125 38.965625) scale(0.7)"/>
      </g>
     </g>
    </g>
    <g id="xtick_3">
     <g id="line2d_3">
      <g>
       <use xlink:href="#me265ec2dfe" x="253.395554" y="307.584" style="stroke: #000000; stroke-width: 0.8"/>
      </g>
     </g>
     <g id="text_3">
      <!-- $\mathdefault{10^{2}}$ -->
      <g transform="translate(244.595554 322.182437) scale(0.1 -0.1)">
       <defs>
        <path id="DejaVuSans-32" d="M 1228 531 
L 3431 531 
L 3431 0 
L 469 0 
L 469 531 
Q 828 903 1448 1529 
Q 2069 2156 2228 2338 
Q 2531 2678 2651 2914 
Q 2772 3150 2772 3378 
Q 2772 3750 2511 3984 
Q 2250 4219 1831 4219 
Q 1534 4219 1204 4116 
Q 875 4013 500 3803 
L 500 4441 
Q 881 4594 1212 4672 
Q 1544 4750 1819 4750 
Q 2544 4750 2975 4387 
Q 3406 4025 3406 3419 
Q 3406 3131 3298 2873 
Q 3191 2616 2906 2266 
Q 2828 2175 2409 1742 
Q 1991 1309 1228 531 
z
" transform="scale(0.015625)"/>
       </defs>
       <use xlink:href="#DejaVuSans-31" transform="translate(0 0.765625)"/>
       <use xlink:href="#DejaVuSans-30" transform="translate(63.623047 0.765625)"/>
       <use xlink:href="#DejaVuSans-32" transform="translate(128.203125 39.046875) scale(0.7)"/>
      </g>
     </g>
    </g>
    <g id="xtick_4">
     <g id="line2d_4">
      <g>
       <use xlink:href="#me265ec2dfe" x="343.176967" y="307.584" style="stroke: #000000; stroke-width: 0.8"/>
      </g>
     </g>
     <g id="text_4">
      <!-- $\mathdefault{10^{3}}$ -->
      <g transform="translate(334.376967 322.182437) scale(0.1 -0.1)">
       <defs>
        <path id="DejaVuSans-33" d="M 2597 2516 
Q 3050 2419 3304 2112 
Q 3559 1806 3559 1356 
Q 3559 666 3084 287 
Q 2609 -91 1734 -91 
Q 1441 -91 1130 -33 
Q 819 25 488 141 
L 488 750 
Q 750 597 1062 519 
Q 1375 441 1716 441 
Q 2309 441 2620 675 
Q 2931 909 2931 1356 
Q 2931 1769 2642 2001 
Q 2353 2234 1838 2234 
L 1294 2234 
L 1294 2753 
L 1863 2753 
Q 2328 2753 2575 2939 
Q 2822 3125 2822 3475 
Q 2822 3834 2567 4026 
Q 2313 4219 1838 4219 
Q 1578 4219 1281 4162 
Q 984 4106 628 3988 
L 628 4550 
Q 988 4650 1302 4700 
Q 1616 4750 1894 4750 
Q 2613 4750 3031 4423 
Q 3450 4097 3450 3541 
Q 3450 3153 3228 2886 
Q 3006 2619 2597 2516 
z
" transform="scale(0.015625)"/>
       </defs>
       <use xlink:href="#DejaVuSans-31" transform="translate(0 0.765625)"/>
       <use xlink:href="#DejaVuSans-30" transform="translate(63.623047 0.765625)"/>
       <use xlink:href="#DejaVuSans-33" transform="translate(128.203125 39.046875) scale(0.7)"/>
      </g>
     </g>
    </g>
    <g id="xtick_5">
     <g id="line2d_5">
      <defs>
       <path id="m7af3b4378e" d="M 0 0 
L 0 2 
" style="stroke: #000000; stroke-width: 0.6"/>
      </defs>
      <g>
       <use xlink:href="#m7af3b4378e" x="59.92541" y="307.584" style="stroke: #000000; stroke-width: 0.6"/>
      </g>
     </g>
    </g>
    <g id="xtick_6">
     <g id="line2d_6">
      <g>
       <use xlink:href="#m7af3b4378e" x="65.132009" y="307.584" style="stroke: #000000; stroke-width: 0.6"/>
      </g>
     </g>
    </g>
    <g id="xtick_7">
     <g id="line2d_7">
      <g>
       <use xlink:href="#m7af3b4378e" x="69.724555" y="307.584" style="stroke: #000000; stroke-width: 0.6"/>
      </g>
     </g>
    </g>
    <g id="xtick_8">
     <g id="line2d_8">
      <g>
       <use xlink:href="#m7af3b4378e" x="100.859626" y="307.584" style="stroke: #000000; stroke-width: 0.6"/>
      </g>
     </g>
    </g>
    <g id="xtick_9">
     <g id="line2d_9">
      <g>
       <use xlink:href="#m7af3b4378e" x="116.669348" y="307.584" style="stroke: #000000; stroke-width: 0.6"/>
      </g>
     </g>
    </g>
    <g id="xtick_10">
     <g id="line2d_10">
      <g>
       <use xlink:href="#m7af3b4378e" x="127.886524" y="307.584" style="stroke: #000000; stroke-width: 0.6"/>
      </g>
     </g>
    </g>
    <g id="xtick_11">
     <g id="line2d_11">
      <g>
       <use xlink:href="#m7af3b4378e" x="136.587242" y="307.584" style="stroke: #000000; stroke-width: 0.6"/>
      </g>
     </g>
    </g>
    <g id="xtick_12">
     <g id="line2d_12">
      <g>
       <use xlink:href="#m7af3b4378e" x="143.696246" y="307.584" style="stroke: #000000; stroke-width: 0.6"/>
      </g>
     </g>
    </g>
    <g id="xtick_13">
     <g id="line2d_13">
      <g>
       <use xlink:href="#m7af3b4378e" x="149.706824" y="307.584" style="stroke: #000000; stroke-width: 0.6"/>
      </g>
     </g>
    </g>
    <g id="xtick_14">
     <g id="line2d_14">
      <g>
       <use xlink:href="#m7af3b4378e" x="154.913423" y="307.584" style="stroke: #000000; stroke-width: 0.6"/>
      </g>
     </g>
    </g>
    <g id="xtick_15">
     <g id="line2d_15">
      <g>
       <use xlink:href="#m7af3b4378e" x="159.505968" y="307.584" style="stroke: #000000; stroke-width: 0.6"/>
      </g>
     </g>
    </g>
    <g id="xtick_16">
     <g id="line2d_16">
      <g>
       <use xlink:href="#m7af3b4378e" x="190.641039" y="307.584" style="stroke: #000000; stroke-width: 0.6"/>
      </g>
     </g>
    </g>
    <g id="xtick_17">
     <g id="line2d_17">
      <g>
       <use xlink:href="#m7af3b4378e" x="206.450761" y="307.584" style="stroke: #000000; stroke-width: 0.6"/>
      </g>
     </g>
    </g>
    <g id="xtick_18">
     <g id="line2d_18">
      <g>
       <use xlink:href="#m7af3b4378e" x="217.667937" y="307.584" style="stroke: #000000; stroke-width: 0.6"/>
      </g>
     </g>
    </g>
    <g id="xtick_19">
     <g id="line2d_19">
      <g>
       <use xlink:href="#m7af3b4378e" x="226.368655" y="307.584" style="stroke: #000000; stroke-width: 0.6"/>
      </g>
     </g>
    </g>
    <g id="xtick_20">
     <g id="line2d_20">
      <g>
       <use xlink:href="#m7af3b4378e" x="233.477659" y="307.584" style="stroke: #000000; stroke-width: 0.6"/>
      </g>
     </g>
    </g>
    <g id="xtick_21">
     <g id="line2d_21">
      <g>
       <use xlink:href="#m7af3b4378e" x="239.488237" y="307.584" style="stroke: #000000; stroke-width: 0.6"/>
      </g>
     </g>
    </g>
    <g id="xtick_22">
     <g id="line2d_22">
      <g>
       <use xlink:href="#m7af3b4378e" x="244.694836" y="307.584" style="stroke: #000000; stroke-width: 0.6"/>
      </g>
     </g>
    </g>
    <g id="xtick_23">
     <g id="line2d_23">
      <g>
       <use xlink:href="#m7af3b4378e" x="249.287381" y="307.584" style="stroke: #000000; stroke-width: 0.6"/>
      </g>
     </g>
    </g>
    <g id="xtick_24">
     <g id="line2d_24">
      <g>
       <use xlink:href="#m7af3b4378e" x="280.422452" y="307.584" style="stroke: #000000; stroke-width: 0.6"/>
      </g>
     </g>
    </g>
    <g id="xtick_25">
     <g id="line2d_25">
      <g>
       <use xlink:href="#m7af3b4378e" x="296.232174" y="307.584" style="stroke: #000000; stroke-width: 0.6"/>
      </g>
     </g>
    </g>
    <g id="xtick_26">
     <g id="line2d_26">
      <g>
       <use xlink:href="#m7af3b4378e" x="307.44935" y="307.584" style="stroke: #000000; stroke-width: 0.6"/>
      </g>
     </g>
    </g>
    <g id="xtick_27">
     <g id="line2d_27">
      <g>
       <use xlink:href="#m7af3b4378e" x="316.150068" y="307.584" style="stroke: #000000; stroke-width: 0.6"/>
      </g>
     </g>
    </g>
    <g id="xtick_28">
     <g id="line2d_28">
      <g>
       <use xlink:href="#m7af3b4378e" x="323.259072" y="307.584" style="stroke: #000000; stroke-width: 0.6"/>
      </g>
     </g>
    </g>
    <g id="xtick_29">
     <g id="line2d_29">
      <g>
       <use xlink:href="#m7af3b4378e" x="329.26965" y="307.584" style="stroke: #000000; stroke-width: 0.6"/>
      </g>
     </g>
    </g>
    <g id="xtick_30">
     <g id="line2d_30">
      <g>
       <use xlink:href="#m7af3b4378e" x="334.476249" y="307.584" style="stroke: #000000; stroke-width: 0.6"/>
      </g>
     </g>
    </g>
    <g id="xtick_31">
     <g id="line2d_31">
      <g>
       <use xlink:href="#m7af3b4378e" x="339.068795" y="307.584" style="stroke: #000000; stroke-width: 0.6"/>
      </g>
     </g>
    </g>
    <g id="xtick_32">
     <g id="line2d_32">
      <g>
       <use xlink:href="#m7af3b4378e" x="370.203865" y="307.584" style="stroke: #000000; stroke-width: 0.6"/>
      </g>
     </g>
    </g>
    <g id="xtick_33">
     <g id="line2d_33">
      <g>
       <use xlink:href="#m7af3b4378e" x="386.013587" y="307.584" style="stroke: #000000; stroke-width: 0.6"/>
      </g>
     </g>
    </g>
    <g id="xtick_34">
     <g id="line2d_34">
      <g>
       <use xlink:href="#m7af3b4378e" x="397.230764" y="307.584" style="stroke: #000000; stroke-width: 0.6"/>
      </g>
     </g>
    </g>
    <g id="xtick_35">
     <g id="line2d_35">
      <g>
       <use xlink:href="#m7af3b4378e" x="405.931481" y="307.584" style="stroke: #000000; stroke-width: 0.6"/>
      </g>
     </g>
    </g>
    <g id="xtick_36">
     <g id="line2d_36">
      <g>
       <use xlink:href="#m7af3b4378e" x="413.040486" y="307.584" style="stroke: #000000; stroke-width: 0.6"/>
      </g>
     </g>
    </g>
    <g id="text_5">
     <!-- iter# -->
     <g transform="translate(223.488906 335.860562) scale(0.1 -0.1)">
      <defs>
       <path id="DejaVuSans-69" d="M 603 3500 
L 1178 3500 
L 1178 0 
L 603 0 
L 603 3500 
z
M 603 4863 
L 1178 4863 
L 1178 4134 
L 603 4134 
L 603 4863 
z
" transform="scale(0.015625)"/>
       <path id="DejaVuSans-74" d="M 1172 4494 
L 1172 3500 
L 2356 3500 
L 2356 3053 
L 1172 3053 
L 1172 1153 
Q 1172 725 1289 603 
Q 1406 481 1766 481 
L 2356 481 
L 2356 0 
L 1766 0 
Q 1100 0 847 248 
Q 594 497 594 1153 
L 594 3053 
L 172 3053 
L 172 3500 
L 594 3500 
L 594 4494 
L 1172 4494 
z
" transform="scale(0.015625)"/>
       <path id="DejaVuSans-65" d="M 3597 1894 
L 3597 1613 
L 953 1613 
Q 991 1019 1311 708 
Q 1631 397 2203 397 
Q 2534 397 2845 478 
Q 3156 559 3463 722 
L 3463 178 
Q 3153 47 2828 -22 
Q 2503 -91 2169 -91 
Q 1331 -91 842 396 
Q 353 884 353 1716 
Q 353 2575 817 3079 
Q 1281 3584 2069 3584 
Q 2775 3584 3186 3129 
Q 3597 2675 3597 1894 
z
M 3022 2063 
Q 3016 2534 2758 2815 
Q 2500 3097 2075 3097 
Q 1594 3097 1305 2825 
Q 1016 2553 972 2059 
L 3022 2063 
z
" transform="scale(0.015625)"/>
       <path id="DejaVuSans-72" d="M 2631 2963 
Q 2534 3019 2420 3045 
Q 2306 3072 2169 3072 
Q 1681 3072 1420 2755 
Q 1159 2438 1159 1844 
L 1159 0 
L 581 0 
L 581 3500 
L 1159 3500 
L 1159 2956 
Q 1341 3275 1631 3429 
Q 1922 3584 2338 3584 
Q 2397 3584 2469 3576 
Q 2541 3569 2628 3553 
L 2631 2963 
z
" transform="scale(0.015625)"/>
       <path id="DejaVuSans-23" d="M 3272 2816 
L 2363 2816 
L 2100 1772 
L 3016 1772 
L 3272 2816 
z
M 2803 4594 
L 2478 3297 
L 3391 3297 
L 3719 4594 
L 4219 4594 
L 3897 3297 
L 4872 3297 
L 4872 2816 
L 3775 2816 
L 3519 1772 
L 4513 1772 
L 4513 1294 
L 3397 1294 
L 3072 0 
L 2572 0 
L 2894 1294 
L 1978 1294 
L 1656 0 
L 1153 0 
L 1478 1294 
L 494 1294 
L 494 1772 
L 1594 1772 
L 1856 2816 
L 850 2816 
L 850 3297 
L 1978 3297 
L 2297 4594 
L 2803 4594 
z
" transform="scale(0.015625)"/>
      </defs>
      <use xlink:href="#DejaVuSans-69"/>
      <use xlink:href="#DejaVuSans-74" x="27.783203"/>
      <use xlink:href="#DejaVuSans-65" x="66.992188"/>
      <use xlink:href="#DejaVuSans-72" x="128.515625"/>
      <use xlink:href="#DejaVuSans-23" x="169.628906"/>
     </g>
    </g>
   </g>
   <g id="matplotlib.axis_2">
    <g id="ytick_1">
     <g id="line2d_37">
      <defs>
       <path id="ma71cb126de" d="M 0 0 
L -3.5 0 
" style="stroke: #000000; stroke-width: 0.8"/>
      </defs>
      <g>
       <use xlink:href="#ma71cb126de" x="57.6" y="243.714654" style="stroke: #000000; stroke-width: 0.8"/>
      </g>
     </g>
     <g id="text_6">
      <!-- $\mathdefault{10^{-1}}$ -->
      <g transform="translate(27.1 247.513873) scale(0.1 -0.1)">
       <defs>
        <path id="DejaVuSans-2212" d="M 678 2272 
L 4684 2272 
L 4684 1741 
L 678 1741 
L 678 2272 
z
" transform="scale(0.015625)"/>
       </defs>
       <use xlink:href="#DejaVuSans-31" transform="translate(0 0.684375)"/>
       <use xlink:href="#DejaVuSans-30" transform="translate(63.623047 0.684375)"/>
       <use xlink:href="#DejaVuSans-2212" transform="translate(128.203125 38.965625) scale(0.7)"/>
       <use xlink:href="#DejaVuSans-31" transform="translate(186.855469 38.965625) scale(0.7)"/>
      </g>
     </g>
    </g>
    <g id="ytick_2">
     <g id="line2d_38">
      <g>
       <use xlink:href="#ma71cb126de" x="57.6" y="155.648275" style="stroke: #000000; stroke-width: 0.8"/>
      </g>
     </g>
     <g id="text_7">
      <!-- $\mathdefault{10^{0}}$ -->
      <g transform="translate(33 159.447494) scale(0.1 -0.1)">
       <use xlink:href="#DejaVuSans-31" transform="translate(0 0.765625)"/>
       <use xlink:href="#DejaVuSans-30" transform="translate(63.623047 0.765625)"/>
       <use xlink:href="#DejaVuSans-30" transform="translate(128.203125 39.046875) scale(0.7)"/>
      </g>
     </g>
    </g>
    <g id="ytick_3">
     <g id="line2d_39">
      <g>
       <use xlink:href="#ma71cb126de" x="57.6" y="67.581895" style="stroke: #000000; stroke-width: 0.8"/>
      </g>
     </g>
     <g id="text_8">
      <!-- $\mathdefault{10^{1}}$ -->
      <g transform="translate(33 71.381114) scale(0.1 -0.1)">
       <use xlink:href="#DejaVuSans-31" transform="translate(0 0.684375)"/>
       <use xlink:href="#DejaVuSans-30" transform="translate(63.623047 0.684375)"/>
       <use xlink:href="#DejaVuSans-31" transform="translate(128.203125 38.965625) scale(0.7)"/>
      </g>
     </g>
    </g>
    <g id="ytick_4">
     <g id="line2d_40">
      <defs>
       <path id="mbce6be8b9c" d="M 0 0 
L -2 0 
" style="stroke: #000000; stroke-width: 0.6"/>
      </defs>
      <g>
       <use xlink:href="#mbce6be8b9c" x="57.6" y="305.270412" style="stroke: #000000; stroke-width: 0.6"/>
      </g>
     </g>
    </g>
    <g id="ytick_5">
     <g id="line2d_41">
      <g>
       <use xlink:href="#mbce6be8b9c" x="57.6" y="289.762692" style="stroke: #000000; stroke-width: 0.6"/>
      </g>
     </g>
    </g>
    <g id="ytick_6">
     <g id="line2d_42">
      <g>
       <use xlink:href="#mbce6be8b9c" x="57.6" y="278.75979" style="stroke: #000000; stroke-width: 0.6"/>
      </g>
     </g>
    </g>
    <g id="ytick_7">
     <g id="line2d_43">
      <g>
       <use xlink:href="#mbce6be8b9c" x="57.6" y="270.225276" style="stroke: #000000; stroke-width: 0.6"/>
      </g>
     </g>
    </g>
    <g id="ytick_8">
     <g id="line2d_44">
      <g>
       <use xlink:href="#mbce6be8b9c" x="57.6" y="263.25207" style="stroke: #000000; stroke-width: 0.6"/>
      </g>
     </g>
    </g>
    <g id="ytick_9">
     <g id="line2d_45">
      <g>
       <use xlink:href="#mbce6be8b9c" x="57.6" y="257.356309" style="stroke: #000000; stroke-width: 0.6"/>
      </g>
     </g>
    </g>
    <g id="ytick_10">
     <g id="line2d_46">
      <g>
       <use xlink:href="#mbce6be8b9c" x="57.6" y="252.249168" style="stroke: #000000; stroke-width: 0.6"/>
      </g>
     </g>
    </g>
    <g id="ytick_11">
     <g id="line2d_47">
      <g>
       <use xlink:href="#mbce6be8b9c" x="57.6" y="247.744351" style="stroke: #000000; stroke-width: 0.6"/>
      </g>
     </g>
    </g>
    <g id="ytick_12">
     <g id="line2d_48">
      <g>
       <use xlink:href="#mbce6be8b9c" x="57.6" y="217.204032" style="stroke: #000000; stroke-width: 0.6"/>
      </g>
     </g>
    </g>
    <g id="ytick_13">
     <g id="line2d_49">
      <g>
       <use xlink:href="#mbce6be8b9c" x="57.6" y="201.696313" style="stroke: #000000; stroke-width: 0.6"/>
      </g>
     </g>
    </g>
    <g id="ytick_14">
     <g id="line2d_50">
      <g>
       <use xlink:href="#mbce6be8b9c" x="57.6" y="190.693411" style="stroke: #000000; stroke-width: 0.6"/>
      </g>
     </g>
    </g>
    <g id="ytick_15">
     <g id="line2d_51">
      <g>
       <use xlink:href="#mbce6be8b9c" x="57.6" y="182.158897" style="stroke: #000000; stroke-width: 0.6"/>
      </g>
     </g>
    </g>
    <g id="ytick_16">
     <g id="line2d_52">
      <g>
       <use xlink:href="#mbce6be8b9c" x="57.6" y="175.185691" style="stroke: #000000; stroke-width: 0.6"/>
      </g>
     </g>
    </g>
    <g id="ytick_17">
     <g id="line2d_53">
      <g>
       <use xlink:href="#mbce6be8b9c" x="57.6" y="169.28993" style="stroke: #000000; stroke-width: 0.6"/>
      </g>
     </g>
    </g>
    <g id="ytick_18">
     <g id="line2d_54">
      <g>
       <use xlink:href="#mbce6be8b9c" x="57.6" y="164.182789" style="stroke: #000000; stroke-width: 0.6"/>
      </g>
     </g>
    </g>
    <g id="ytick_19">
     <g id="line2d_55">
      <g>
       <use xlink:href="#mbce6be8b9c" x="57.6" y="159.677971" style="stroke: #000000; stroke-width: 0.6"/>
      </g>
     </g>
    </g>
    <g id="ytick_20">
     <g id="line2d_56">
      <g>
       <use xlink:href="#mbce6be8b9c" x="57.6" y="129.137653" style="stroke: #000000; stroke-width: 0.6"/>
      </g>
     </g>
    </g>
    <g id="ytick_21">
     <g id="line2d_57">
      <g>
       <use xlink:href="#mbce6be8b9c" x="57.6" y="113.629933" style="stroke: #000000; stroke-width: 0.6"/>
      </g>
     </g>
    </g>
    <g id="ytick_22">
     <g id="line2d_58">
      <g>
       <use xlink:href="#mbce6be8b9c" x="57.6" y="102.627031" style="stroke: #000000; stroke-width: 0.6"/>
      </g>
     </g>
    </g>
    <g id="ytick_23">
     <g id="line2d_59">
      <g>
       <use xlink:href="#mbce6be8b9c" x="57.6" y="94.092517" style="stroke: #000000; stroke-width: 0.6"/>
      </g>
     </g>
    </g>
    <g id="ytick_24">
     <g id="line2d_60">
      <g>
       <use xlink:href="#mbce6be8b9c" x="57.6" y="87.119311" style="stroke: #000000; stroke-width: 0.6"/>
      </g>
     </g>
    </g>
    <g id="ytick_25">
     <g id="line2d_61">
      <g>
       <use xlink:href="#mbce6be8b9c" x="57.6" y="81.22355" style="stroke: #000000; stroke-width: 0.6"/>
      </g>
     </g>
    </g>
    <g id="ytick_26">
     <g id="line2d_62">
      <g>
       <use xlink:href="#mbce6be8b9c" x="57.6" y="76.116409" style="stroke: #000000; stroke-width: 0.6"/>
      </g>
     </g>
    </g>
    <g id="ytick_27">
     <g id="line2d_63">
      <g>
       <use xlink:href="#mbce6be8b9c" x="57.6" y="71.611592" style="stroke: #000000; stroke-width: 0.6"/>
      </g>
     </g>
    </g>
    <g id="text_9">
     <!-- MEA loss -->
     <g transform="translate(21.020312 196.668625) rotate(-90) scale(0.1 -0.1)">
      <defs>
       <path id="DejaVuSans-4d" d="M 628 4666 
L 1569 4666 
L 2759 1491 
L 3956 4666 
L 4897 4666 
L 4897 0 
L 4281 0 
L 4281 4097 
L 3078 897 
L 2444 897 
L 1241 4097 
L 1241 0 
L 628 0 
L 628 4666 
z
" transform="scale(0.015625)"/>
       <path id="DejaVuSans-45" d="M 628 4666 
L 3578 4666 
L 3578 4134 
L 1259 4134 
L 1259 2753 
L 3481 2753 
L 3481 2222 
L 1259 2222 
L 1259 531 
L 3634 531 
L 3634 0 
L 628 0 
L 628 4666 
z
" transform="scale(0.015625)"/>
       <path id="DejaVuSans-41" d="M 2188 4044 
L 1331 1722 
L 3047 1722 
L 2188 4044 
z
M 1831 4666 
L 2547 4666 
L 4325 0 
L 3669 0 
L 3244 1197 
L 1141 1197 
L 716 0 
L 50 0 
L 1831 4666 
z
" transform="scale(0.015625)"/>
       <path id="DejaVuSans-20" transform="scale(0.015625)"/>
       <path id="DejaVuSans-6c" d="M 603 4863 
L 1178 4863 
L 1178 0 
L 603 0 
L 603 4863 
z
" transform="scale(0.015625)"/>
       <path id="DejaVuSans-6f" d="M 1959 3097 
Q 1497 3097 1228 2736 
Q 959 2375 959 1747 
Q 959 1119 1226 758 
Q 1494 397 1959 397 
Q 2419 397 2687 759 
Q 2956 1122 2956 1747 
Q 2956 2369 2687 2733 
Q 2419 3097 1959 3097 
z
M 1959 3584 
Q 2709 3584 3137 3096 
Q 3566 2609 3566 1747 
Q 3566 888 3137 398 
Q 2709 -91 1959 -91 
Q 1206 -91 779 398 
Q 353 888 353 1747 
Q 353 2609 779 3096 
Q 1206 3584 1959 3584 
z
" transform="scale(0.015625)"/>
       <path id="DejaVuSans-73" d="M 2834 3397 
L 2834 2853 
Q 2591 2978 2328 3040 
Q 2066 3103 1784 3103 
Q 1356 3103 1142 2972 
Q 928 2841 928 2578 
Q 928 2378 1081 2264 
Q 1234 2150 1697 2047 
L 1894 2003 
Q 2506 1872 2764 1633 
Q 3022 1394 3022 966 
Q 3022 478 2636 193 
Q 2250 -91 1575 -91 
Q 1294 -91 989 -36 
Q 684 19 347 128 
L 347 722 
Q 666 556 975 473 
Q 1284 391 1588 391 
Q 1994 391 2212 530 
Q 2431 669 2431 922 
Q 2431 1156 2273 1281 
Q 2116 1406 1581 1522 
L 1381 1569 
Q 847 1681 609 1914 
Q 372 2147 372 2553 
Q 372 3047 722 3315 
Q 1072 3584 1716 3584 
Q 2034 3584 2315 3537 
Q 2597 3491 2834 3397 
z
" transform="scale(0.015625)"/>
      </defs>
      <use xlink:href="#DejaVuSans-4d"/>
      <use xlink:href="#DejaVuSans-45" x="86.279297"/>
      <use xlink:href="#DejaVuSans-41" x="149.462891"/>
      <use xlink:href="#DejaVuSans-20" x="217.871094"/>
      <use xlink:href="#DejaVuSans-6c" x="249.658203"/>
      <use xlink:href="#DejaVuSans-6f" x="277.441406"/>
      <use xlink:href="#DejaVuSans-73" x="338.623047"/>
      <use xlink:href="#DejaVuSans-73" x="390.722656"/>
     </g>
    </g>
   </g>
   <g id="line2d_64">
    <path d="M 73.832727 53.568 
L 184.30417 125.639675 
L 210.167055 158.803662 
L 225.58092 180.318965 
L 236.59865 188.461175 
L 245.179209 190.439568 
L 252.207901 200.725043 
L 258.161011 205.734418 
L 263.324454 205.470966 
L 267.883401 204.490419 
L 271.964673 205.461737 
L 275.658944 212.996453 
L 279.033292 210.170087 
L 282.13874 215.292882 
L 285.014998 217.625963 
L 287.693584 221.594448 
L 290.199929 224.079007 
L 292.554852 227.869099 
L 294.775613 230.326508 
L 296.876678 235.32652 
L 298.870291 238.731309 
L 300.766912 240.854594 
L 302.575541 246.704711 
L 304.303982 248.137887 
L 305.959045 243.770498 
L 307.546708 252.946408 
L 309.072245 254.42365 
L 310.540336 256.110698 
L 311.955152 252.631946 
L 313.320423 254.111443 
L 314.639503 261.676526 
L 315.915414 256.331268 
L 317.150894 261.545431 
L 318.348426 258.910394 
L 319.510272 259.98342 
L 320.638498 262.85823 
L 321.734994 254.567917 
L 322.801496 259.503423 
L 323.839603 262.70454 
L 324.850786 259.002748 
L 325.836408 259.027928 
L 326.797728 258.777782 
L 327.735916 259.574588 
L 328.65206 264.541233 
L 329.547171 260.561094 
L 330.422194 252.581311 
L 331.278011 256.635442 
L 332.115446 259.881912 
L 332.935272 269.095036 
L 333.738216 260.108578 
L 334.524958 240.734004 
L 335.296139 237.30562 
L 336.052363 249.795928 
L 336.794199 269.198315 
L 337.522184 234.844493 
L 338.236826 266.839311 
L 338.938606 265.619027 
L 339.627977 261.077433 
L 340.305372 239.08872 
L 340.9712 265.714391 
L 341.625848 272.98782 
L 342.269686 252.188026 
L 342.903066 275.692079 
L 343.526321 274.305595 
L 344.139771 260.705219 
L 344.743718 252.867381 
L 345.338453 272.284076 
L 345.924253 253.546744 
L 346.501382 252.352621 
L 347.070093 249.268414 
L 347.630629 238.261458 
L 348.18322 239.722109 
L 348.728089 267.670172 
L 349.265449 256.365113 
L 349.795504 232.603108 
L 350.834475 275.512571 
L 351.34376 270.301613 
L 351.846479 268.413108 
L 352.342798 250.878194 
L 352.83288 274.064006 
L 353.316877 274.214421 
L 353.794941 249.789344 
L 354.267214 267.64256 
L 354.733835 263.980958 
L 355.194938 274.695668 
L 355.650652 276.49388 
L 356.101101 273.277576 
L 356.546406 257.214454 
L 356.986683 256.853349 
L 357.422043 236.40816 
L 357.852596 274.770838 
L 358.278447 259.832142 
L 358.699697 269.457754 
L 359.116445 270.584224 
L 359.528785 269.044589 
L 359.93681 256.71985 
L 360.34061 279.005821 
L 360.740271 267.470603 
L 361.135877 276.479007 
L 361.527509 275.164812 
L 361.915247 272.411073 
L 362.299167 274.487565 
L 362.679344 230.148573 
L 363.05585 238.57378 
L 363.428755 269.438702 
L 363.798127 283.029918 
L 364.164033 259.225005 
L 364.526537 269.429078 
L 364.885702 261.719944 
L 365.241589 249.202769 
L 365.594257 267.388863 
L 365.943763 265.238081 
L 366.290165 271.212527 
L 366.633516 240.404483 
L 366.97387 267.578601 
L 367.311279 261.817686 
L 367.645794 266.899717 
L 367.977462 278.194984 
L 368.306334 247.187831 
L 368.632454 236.142137 
L 368.95587 234.645875 
L 369.276625 242.7293 
L 369.594763 241.698494 
L 370.223356 284.130645 
L 370.533893 282.752406 
L 370.841976 279.612408 
L 371.147644 267.054341 
L 371.450934 266.194387 
L 371.48868 252.307081 
L 371.78934 269.373367 
L 372.087699 248.612952 
L 372.383792 280.312182 
L 372.677653 255.226515 
L 372.969317 253.436121 
L 373.258815 276.720479 
L 373.546179 262.539965 
L 373.831441 256.735227 
L 374.114631 272.879303 
L 374.395779 272.674666 
L 374.674915 267.705943 
L 374.952066 273.120991 
L 375.227261 259.109255 
L 375.500528 260.223146 
L 375.771893 249.598452 
L 376.041382 249.507071 
L 376.309022 270.724253 
L 376.574836 282.054399 
L 376.838851 272.363217 
L 377.101091 247.827439 
L 377.361578 268.859677 
L 377.620337 245.096181 
L 377.87739 276.115771 
L 378.132759 273.124799 
L 378.386467 283.059952 
L 378.638535 237.116927 
L 378.888983 262.646685 
L 379.137833 245.975191 
L 379.385105 287.856591 
L 379.630819 218.532702 
L 379.874994 250.372352 
L 380.11765 264.949418 
L 380.358804 235.556764 
L 380.836685 267.101324 
L 381.073447 220.783629 
L 381.308779 264.903404 
L 381.5427 285.747577 
L 381.775226 280.574731 
L 382.006374 290.45137 
L 382.464598 219.601561 
L 382.691706 210.120761 
L 383.141993 254.612348 
L 383.365201 222.497532 
L 383.80782 248.874724 
L 384.02726 276.098583 
L 384.245471 248.302697 
L 384.462469 240.522445 
L 384.678265 289.197335 
L 384.892873 239.407047 
L 385.106307 276.653291 
L 385.318579 223.737781 
L 385.529701 235.261772 
L 385.739686 262.388326 
L 385.948547 267.059907 
L 386.156295 295.488 
L 386.362942 245.161062 
L 386.772978 281.04498 
L 386.976391 290.614298 
L 387.38006 237.290082 
L 387.779593 287.816068 
L 387.977835 286.073043 
L 388.175074 264.588923 
L 388.37132 274.323804 
L 388.760874 237.761115 
L 389.146574 266.963914 
L 389.338003 271.292931 
L 389.528496 230.439346 
L 389.906714 280.455751 
L 390.094456 215.819017 
L 390.281298 282.678057 
L 390.467249 235.120386 
L 390.836512 282.101382 
L 391.019841 222.430526 
L 391.202311 239.564627 
L 391.383931 270.977787 
L 391.56471 246.483276 
L 391.744654 247.806293 
L 391.923771 225.041146 
L 392.279557 271.785296 
L 392.456239 267.814887 
L 392.807221 224.120556 
L 392.981534 241.917643 
L 393.155071 241.782794 
L 393.327839 286.447341 
L 393.499845 275.676815 
L 393.671096 282.361084 
L 394.011357 253.133575 
L 394.180381 260.116051 
L 394.348675 234.138017 
L 394.516246 254.612124 
L 394.683099 210.491682 
L 394.849242 244.813923 
L 395.01468 211.28081 
L 395.179419 265.338302 
L 395.343465 281.430287 
L 395.6695 264.387148 
L 395.831501 268.570014 
L 395.992832 294.878115 
L 396.153498 293.022622 
L 396.313505 248.927011 
L 396.472857 266.162871 
L 396.631561 270.460953 
L 396.789622 284.401816 
L 396.947045 224.979832 
L 397.103835 229.110116 
L 397.259996 228.430233 
L 397.415535 260.160899 
L 397.570456 250.271924 
L 397.724764 291.984376 
L 397.878463 234.328029 
L 398.031559 242.840931 
L 398.184056 213.551025 
L 398.487273 274.001973 
L 398.487273 274.001973 
" clip-path="url(#p16a21900de)" style="fill: none; stroke: #1f77b4; stroke-width: 1.5; stroke-linecap: square"/>
   </g>
   <g id="line2d_65">
    <path d="M 73.832727 162.261751 
L 184.30417 165.356879 
L 210.167055 164.215861 
L 225.58092 165.18008 
L 236.59865 165.389815 
L 245.179209 164.17336 
L 252.207901 167.449144 
L 258.161011 171.273611 
L 263.324454 175.146879 
L 267.883401 169.050277 
L 271.964673 173.113934 
L 275.658944 160.378002 
L 279.033292 169.51578 
L 282.13874 166.157119 
L 285.014998 169.854815 
L 287.693584 169.46979 
L 290.199929 170.617526 
L 292.554852 169.535873 
L 294.775613 159.293394 
L 296.876678 174.049591 
L 298.870291 175.590438 
L 300.766912 173.96929 
L 302.575541 179.356509 
L 304.303982 175.678277 
L 305.959045 185.768788 
L 307.546708 179.965361 
L 309.072245 183.392254 
L 310.540336 178.614221 
L 311.955152 160.28023 
L 313.320423 159.566643 
L 314.639503 180.641928 
L 315.915414 135.374563 
L 317.150894 144.759449 
L 318.348426 136.064604 
L 319.510272 187.616884 
L 320.638498 161.022881 
L 321.734994 171.261203 
L 322.801496 183.583752 
L 323.839603 176.090888 
L 324.850786 128.286371 
L 325.836408 168.702624 
L 326.797728 152.445587 
L 327.735916 171.579661 
L 328.65206 186.66109 
L 329.547171 156.442164 
L 330.422194 189.410591 
L 331.278011 140.080267 
L 332.115446 150.109138 
L 332.935272 188.717913 
L 333.738216 153.525091 
L 334.524958 127.289154 
L 335.296139 141.533602 
L 336.052363 112.765193 
L 336.794199 116.407978 
L 337.522184 110.948867 
L 338.236826 128.89669 
L 338.938606 188.884716 
L 339.627977 140.727412 
L 340.305372 144.30989 
L 340.9712 152.142201 
L 341.625848 137.311152 
L 342.269686 184.210732 
L 342.903066 157.354654 
L 344.139771 195.571923 
L 344.743718 158.664319 
L 345.338453 160.623939 
L 345.924253 132.749669 
L 346.501382 166.591502 
L 347.070093 132.991624 
L 347.630629 192.322463 
L 348.18322 194.962275 
L 348.728089 173.599183 
L 349.265449 141.62895 
L 349.795504 148.452452 
L 350.31845 143.22961 
L 350.834475 146.999895 
L 351.34376 143.358395 
L 351.846479 150.394566 
L 352.342798 184.931633 
L 352.83288 201.39639 
L 353.316877 141.359339 
L 353.794941 176.761291 
L 354.267214 195.484759 
L 354.733835 129.271565 
L 355.194938 140.493904 
L 355.650652 197.168843 
L 356.101101 146.530503 
L 356.546406 128.553558 
L 356.986683 197.550586 
L 357.422043 167.525757 
L 357.852596 179.81874 
L 358.278447 183.410802 
L 358.699697 169.105153 
L 359.116445 176.310293 
L 359.528785 171.432512 
L 359.93681 132.978457 
L 360.34061 190.336043 
L 361.135877 156.475629 
L 361.527509 153.245044 
L 361.915247 148.852213 
L 362.299167 153.0645 
L 362.679344 185.738095 
L 363.05585 139.082927 
L 363.428755 149.577321 
L 363.798127 204.07731 
L 364.164033 141.698316 
L 364.526537 156.779801 
L 364.885702 197.508121 
L 365.241589 175.876441 
L 365.594257 189.392739 
L 365.943763 186.249964 
L 366.290165 117.8699 
L 366.633516 181.517647 
L 366.97387 188.935581 
L 367.311279 154.227706 
L 367.645794 189.558362 
L 367.977462 173.144975 
L 368.306334 182.29949 
L 368.95587 154.357523 
L 369.276625 195.912306 
L 369.910326 166.667296 
L 370.223356 130.132921 
L 370.841976 172.757055 
L 371.147644 178.14954 
L 371.48868 128.94783 
L 372.087699 164.393022 
L 372.383792 170.166388 
L 372.969317 202.684981 
L 373.258815 200.737587 
L 373.546179 181.193923 
L 373.831441 124.319132 
L 374.114631 123.308289 
L 374.395779 166.412441 
L 374.674915 171.134227 
L 374.952066 191.673165 
L 375.227261 195.160635 
L 375.500528 172.88647 
L 375.771893 171.360242 
L 376.041382 167.71717 
L 376.309022 183.882567 
L 376.574836 186.743164 
L 376.838851 157.022375 
L 377.101091 196.464475 
L 377.361578 171.833892 
L 377.620337 166.51014 
L 377.87739 188.522469 
L 378.132759 185.277329 
L 378.386467 177.8433 
L 378.638535 153.618313 
L 378.888983 184.335377 
L 379.137833 171.042678 
L 379.385105 144.30863 
L 379.630819 160.783246 
L 379.874994 159.00942 
L 380.11765 193.377566 
L 380.358804 182.894083 
L 380.598477 149.260101 
L 380.836685 189.437658 
L 381.073447 201.656419 
L 381.308779 130.763475 
L 381.5427 143.864617 
L 381.775226 193.685085 
L 382.006374 172.039364 
L 382.236159 188.933714 
L 382.464598 178.133146 
L 382.691706 146.09563 
L 382.9175 205.586253 
L 383.141993 172.989129 
L 383.365201 194.770318 
L 383.587139 166.225413 
L 383.80782 161.318249 
L 384.245471 143.306342 
L 384.462469 165.613263 
L 384.678265 173.012763 
L 384.892873 154.586745 
L 385.318579 207.91115 
L 385.529701 195.843747 
L 385.739686 201.076709 
L 385.948547 192.782008 
L 386.156295 207.727114 
L 386.362942 160.419987 
L 386.568499 175.052253 
L 386.772978 171.330273 
L 386.976391 151.360555 
L 387.38006 158.976606 
L 387.580338 155.678479 
L 387.779593 204.894612 
L 387.977835 188.734162 
L 388.175074 205.416366 
L 388.37132 154.470939 
L 388.566583 183.311727 
L 388.760874 183.908044 
L 388.954201 166.496048 
L 389.146574 165.057137 
L 389.338003 151.149569 
L 389.528496 193.094993 
L 389.718064 189.518593 
L 389.906714 210.415879 
L 390.094456 143.439957 
L 390.281298 146.761118 
L 390.467249 212.613869 
L 390.652318 191.737241 
L 390.836512 157.648049 
L 391.019841 156.4571 
L 391.202311 162.630726 
L 391.383931 172.824542 
L 391.56471 200.625655 
L 391.744654 148.64233 
L 391.923771 190.772977 
L 392.10207 151.715166 
L 392.279557 174.728957 
L 392.456239 213.716918 
L 392.632125 195.59452 
L 392.981534 213.026943 
L 393.155071 159.658461 
L 393.327839 208.868381 
L 393.499845 212.598417 
L 393.671096 164.159386 
L 393.841598 178.855777 
L 394.011357 171.131029 
L 394.180381 213.003614 
L 394.516246 144.880924 
L 394.683099 204.181203 
L 394.849242 174.620119 
L 395.01468 185.559223 
L 395.179419 155.766152 
L 395.343465 164.318685 
L 395.506823 136.271333 
L 395.6695 175.590143 
L 395.831501 164.335653 
L 395.992832 161.739541 
L 396.153498 165.439562 
L 396.313505 158.657526 
L 396.472857 193.352017 
L 396.631561 157.575976 
L 396.789622 187.314559 
L 396.947045 171.623923 
L 397.103835 171.147114 
L 397.259996 139.063757 
L 397.415535 208.432329 
L 397.570456 189.050772 
L 397.724764 147.919207 
L 397.878463 172.381037 
L 398.184056 167.331959 
L 398.487273 207.945002 
L 398.487273 207.945002 
" clip-path="url(#p16a21900de)" style="fill: none; stroke: #ff7f0e; stroke-width: 1.5; stroke-linecap: square"/>
   </g>
   <g id="patch_3">
    <path d="M 57.6 307.584 
L 57.6 41.472 
" style="fill: none; stroke: #000000; stroke-width: 0.8; stroke-linejoin: miter; stroke-linecap: square"/>
   </g>
   <g id="patch_4">
    <path d="M 414.72 307.584 
L 414.72 41.472 
" style="fill: none; stroke: #000000; stroke-width: 0.8; stroke-linejoin: miter; stroke-linecap: square"/>
   </g>
   <g id="patch_5">
    <path d="M 57.6 307.584 
L 414.72 307.584 
" style="fill: none; stroke: #000000; stroke-width: 0.8; stroke-linejoin: miter; stroke-linecap: square"/>
   </g>
   <g id="patch_6">
    <path d="M 57.6 41.472 
L 414.72 41.472 
" style="fill: none; stroke: #000000; stroke-width: 0.8; stroke-linejoin: miter; stroke-linecap: square"/>
   </g>
   <g id="text_10">
    <!-- 2025-02-12-16:31:14 -->
    <g transform="translate(172.178438 35.472) scale(0.12 -0.12)">
     <defs>
      <path id="DejaVuSans-35" d="M 691 4666 
L 3169 4666 
L 3169 4134 
L 1269 4134 
L 1269 2991 
Q 1406 3038 1543 3061 
Q 1681 3084 1819 3084 
Q 2600 3084 3056 2656 
Q 3513 2228 3513 1497 
Q 3513 744 3044 326 
Q 2575 -91 1722 -91 
Q 1428 -91 1123 -41 
Q 819 9 494 109 
L 494 744 
Q 775 591 1075 516 
Q 1375 441 1709 441 
Q 2250 441 2565 725 
Q 2881 1009 2881 1497 
Q 2881 1984 2565 2268 
Q 2250 2553 1709 2553 
Q 1456 2553 1204 2497 
Q 953 2441 691 2322 
L 691 4666 
z
" transform="scale(0.015625)"/>
      <path id="DejaVuSans-2d" d="M 313 2009 
L 1997 2009 
L 1997 1497 
L 313 1497 
L 313 2009 
z
" transform="scale(0.015625)"/>
      <path id="DejaVuSans-36" d="M 2113 2584 
Q 1688 2584 1439 2293 
Q 1191 2003 1191 1497 
Q 1191 994 1439 701 
Q 1688 409 2113 409 
Q 2538 409 2786 701 
Q 3034 994 3034 1497 
Q 3034 2003 2786 2293 
Q 2538 2584 2113 2584 
z
M 3366 4563 
L 3366 3988 
Q 3128 4100 2886 4159 
Q 2644 4219 2406 4219 
Q 1781 4219 1451 3797 
Q 1122 3375 1075 2522 
Q 1259 2794 1537 2939 
Q 1816 3084 2150 3084 
Q 2853 3084 3261 2657 
Q 3669 2231 3669 1497 
Q 3669 778 3244 343 
Q 2819 -91 2113 -91 
Q 1303 -91 875 529 
Q 447 1150 447 2328 
Q 447 3434 972 4092 
Q 1497 4750 2381 4750 
Q 2619 4750 2861 4703 
Q 3103 4656 3366 4563 
z
" transform="scale(0.015625)"/>
      <path id="DejaVuSans-3a" d="M 750 794 
L 1409 794 
L 1409 0 
L 750 0 
L 750 794 
z
M 750 3309 
L 1409 3309 
L 1409 2516 
L 750 2516 
L 750 3309 
z
" transform="scale(0.015625)"/>
      <path id="DejaVuSans-34" d="M 2419 4116 
L 825 1625 
L 2419 1625 
L 2419 4116 
z
M 2253 4666 
L 3047 4666 
L 3047 1625 
L 3713 1625 
L 3713 1100 
L 3047 1100 
L 3047 0 
L 2419 0 
L 2419 1100 
L 313 1100 
L 313 1709 
L 2253 4666 
z
" transform="scale(0.015625)"/>
     </defs>
     <use xlink:href="#DejaVuSans-32"/>
     <use xlink:href="#DejaVuSans-30" x="63.623047"/>
     <use xlink:href="#DejaVuSans-32" x="127.246094"/>
     <use xlink:href="#DejaVuSans-35" x="190.869141"/>
     <use xlink:href="#DejaVuSans-2d" x="254.492188"/>
     <use xlink:href="#DejaVuSans-30" x="290.576172"/>
     <use xlink:href="#DejaVuSans-32" x="354.199219"/>
     <use xlink:href="#DejaVuSans-2d" x="417.822266"/>
     <use xlink:href="#DejaVuSans-31" x="453.90625"/>
     <use xlink:href="#DejaVuSans-32" x="517.529297"/>
     <use xlink:href="#DejaVuSans-2d" x="581.152344"/>
     <use xlink:href="#DejaVuSans-31" x="617.236328"/>
     <use xlink:href="#DejaVuSans-36" x="680.859375"/>
     <use xlink:href="#DejaVuSans-3a" x="744.482422"/>
     <use xlink:href="#DejaVuSans-33" x="778.173828"/>
     <use xlink:href="#DejaVuSans-31" x="841.796875"/>
     <use xlink:href="#DejaVuSans-3a" x="905.419922"/>
     <use xlink:href="#DejaVuSans-31" x="939.111328"/>
     <use xlink:href="#DejaVuSans-34" x="1002.734375"/>
    </g>
   </g>
   <g id="legend_1">
    <g id="patch_7">
     <path d="M 261.018438 78.82825 
L 407.72 78.82825 
Q 409.72 78.82825 409.72 76.82825 
L 409.72 48.472 
Q 409.72 46.472 407.72 46.472 
L 261.018438 46.472 
Q 259.018438 46.472 259.018438 48.472 
L 259.018438 76.82825 
Q 259.018438 78.82825 261.018438 78.82825 
z
" style="fill: #ffffff; opacity: 0.8; stroke: #cccccc; stroke-linejoin: miter"/>
    </g>
    <g id="line2d_66">
     <path d="M 263.018438 54.570437 
L 273.018438 54.570437 
L 283.018438 54.570437 
" style="fill: none; stroke: #1f77b4; stroke-width: 1.5; stroke-linecap: square"/>
    </g>
    <g id="text_11">
     <!-- schnet -->
     <g transform="translate(291.018438 58.070437) scale(0.1 -0.1)">
      <defs>
       <path id="DejaVuSans-63" d="M 3122 3366 
L 3122 2828 
Q 2878 2963 2633 3030 
Q 2388 3097 2138 3097 
Q 1578 3097 1268 2742 
Q 959 2388 959 1747 
Q 959 1106 1268 751 
Q 1578 397 2138 397 
Q 2388 397 2633 464 
Q 2878 531 3122 666 
L 3122 134 
Q 2881 22 2623 -34 
Q 2366 -91 2075 -91 
Q 1284 -91 818 406 
Q 353 903 353 1747 
Q 353 2603 823 3093 
Q 1294 3584 2113 3584 
Q 2378 3584 2631 3529 
Q 2884 3475 3122 3366 
z
" transform="scale(0.015625)"/>
       <path id="DejaVuSans-68" d="M 3513 2113 
L 3513 0 
L 2938 0 
L 2938 2094 
Q 2938 2591 2744 2837 
Q 2550 3084 2163 3084 
Q 1697 3084 1428 2787 
Q 1159 2491 1159 1978 
L 1159 0 
L 581 0 
L 581 4863 
L 1159 4863 
L 1159 2956 
Q 1366 3272 1645 3428 
Q 1925 3584 2291 3584 
Q 2894 3584 3203 3211 
Q 3513 2838 3513 2113 
z
" transform="scale(0.015625)"/>
       <path id="DejaVuSans-6e" d="M 3513 2113 
L 3513 0 
L 2938 0 
L 2938 2094 
Q 2938 2591 2744 2837 
Q 2550 3084 2163 3084 
Q 1697 3084 1428 2787 
Q 1159 2491 1159 1978 
L 1159 0 
L 581 0 
L 581 3500 
L 1159 3500 
L 1159 2956 
Q 1366 3272 1645 3428 
Q 1925 3584 2291 3584 
Q 2894 3584 3203 3211 
Q 3513 2838 3513 2113 
z
" transform="scale(0.015625)"/>
      </defs>
      <use xlink:href="#DejaVuSans-73"/>
      <use xlink:href="#DejaVuSans-63" x="52.099609"/>
      <use xlink:href="#DejaVuSans-68" x="107.080078"/>
      <use xlink:href="#DejaVuSans-6e" x="170.458984"/>
      <use xlink:href="#DejaVuSans-65" x="233.837891"/>
      <use xlink:href="#DejaVuSans-74" x="295.361328"/>
     </g>
    </g>
    <g id="line2d_67">
     <path d="M 263.018438 69.248562 
L 273.018438 69.248562 
L 283.018438 69.248562 
" style="fill: none; stroke: #ff7f0e; stroke-width: 1.5; stroke-linecap: square"/>
    </g>
    <g id="text_12">
     <!-- drgin(without softmax) -->
     <g transform="translate(291.018438 72.748562) scale(0.1 -0.1)">
      <defs>
       <path id="DejaVuSans-64" d="M 2906 2969 
L 2906 4863 
L 3481 4863 
L 3481 0 
L 2906 0 
L 2906 525 
Q 2725 213 2448 61 
Q 2172 -91 1784 -91 
Q 1150 -91 751 415 
Q 353 922 353 1747 
Q 353 2572 751 3078 
Q 1150 3584 1784 3584 
Q 2172 3584 2448 3432 
Q 2725 3281 2906 2969 
z
M 947 1747 
Q 947 1113 1208 752 
Q 1469 391 1925 391 
Q 2381 391 2643 752 
Q 2906 1113 2906 1747 
Q 2906 2381 2643 2742 
Q 2381 3103 1925 3103 
Q 1469 3103 1208 2742 
Q 947 2381 947 1747 
z
" transform="scale(0.015625)"/>
       <path id="DejaVuSans-67" d="M 2906 1791 
Q 2906 2416 2648 2759 
Q 2391 3103 1925 3103 
Q 1463 3103 1205 2759 
Q 947 2416 947 1791 
Q 947 1169 1205 825 
Q 1463 481 1925 481 
Q 2391 481 2648 825 
Q 2906 1169 2906 1791 
z
M 3481 434 
Q 3481 -459 3084 -895 
Q 2688 -1331 1869 -1331 
Q 1566 -1331 1297 -1286 
Q 1028 -1241 775 -1147 
L 775 -588 
Q 1028 -725 1275 -790 
Q 1522 -856 1778 -856 
Q 2344 -856 2625 -561 
Q 2906 -266 2906 331 
L 2906 616 
Q 2728 306 2450 153 
Q 2172 0 1784 0 
Q 1141 0 747 490 
Q 353 981 353 1791 
Q 353 2603 747 3093 
Q 1141 3584 1784 3584 
Q 2172 3584 2450 3431 
Q 2728 3278 2906 2969 
L 2906 3500 
L 3481 3500 
L 3481 434 
z
" transform="scale(0.015625)"/>
       <path id="DejaVuSans-28" d="M 1984 4856 
Q 1566 4138 1362 3434 
Q 1159 2731 1159 2009 
Q 1159 1288 1364 580 
Q 1569 -128 1984 -844 
L 1484 -844 
Q 1016 -109 783 600 
Q 550 1309 550 2009 
Q 550 2706 781 3412 
Q 1013 4119 1484 4856 
L 1984 4856 
z
" transform="scale(0.015625)"/>
       <path id="DejaVuSans-77" d="M 269 3500 
L 844 3500 
L 1563 769 
L 2278 3500 
L 2956 3500 
L 3675 769 
L 4391 3500 
L 4966 3500 
L 4050 0 
L 3372 0 
L 2619 2869 
L 1863 0 
L 1184 0 
L 269 3500 
z
" transform="scale(0.015625)"/>
       <path id="DejaVuSans-75" d="M 544 1381 
L 544 3500 
L 1119 3500 
L 1119 1403 
Q 1119 906 1312 657 
Q 1506 409 1894 409 
Q 2359 409 2629 706 
Q 2900 1003 2900 1516 
L 2900 3500 
L 3475 3500 
L 3475 0 
L 2900 0 
L 2900 538 
Q 2691 219 2414 64 
Q 2138 -91 1772 -91 
Q 1169 -91 856 284 
Q 544 659 544 1381 
z
M 1991 3584 
L 1991 3584 
z
" transform="scale(0.015625)"/>
       <path id="DejaVuSans-66" d="M 2375 4863 
L 2375 4384 
L 1825 4384 
Q 1516 4384 1395 4259 
Q 1275 4134 1275 3809 
L 1275 3500 
L 2222 3500 
L 2222 3053 
L 1275 3053 
L 1275 0 
L 697 0 
L 697 3053 
L 147 3053 
L 147 3500 
L 697 3500 
L 697 3744 
Q 697 4328 969 4595 
Q 1241 4863 1831 4863 
L 2375 4863 
z
" transform="scale(0.015625)"/>
       <path id="DejaVuSans-6d" d="M 3328 2828 
Q 3544 3216 3844 3400 
Q 4144 3584 4550 3584 
Q 5097 3584 5394 3201 
Q 5691 2819 5691 2113 
L 5691 0 
L 5113 0 
L 5113 2094 
Q 5113 2597 4934 2840 
Q 4756 3084 4391 3084 
Q 3944 3084 3684 2787 
Q 3425 2491 3425 1978 
L 3425 0 
L 2847 0 
L 2847 2094 
Q 2847 2600 2669 2842 
Q 2491 3084 2119 3084 
Q 1678 3084 1418 2786 
Q 1159 2488 1159 1978 
L 1159 0 
L 581 0 
L 581 3500 
L 1159 3500 
L 1159 2956 
Q 1356 3278 1631 3431 
Q 1906 3584 2284 3584 
Q 2666 3584 2933 3390 
Q 3200 3197 3328 2828 
z
" transform="scale(0.015625)"/>
       <path id="DejaVuSans-61" d="M 2194 1759 
Q 1497 1759 1228 1600 
Q 959 1441 959 1056 
Q 959 750 1161 570 
Q 1363 391 1709 391 
Q 2188 391 2477 730 
Q 2766 1069 2766 1631 
L 2766 1759 
L 2194 1759 
z
M 3341 1997 
L 3341 0 
L 2766 0 
L 2766 531 
Q 2569 213 2275 61 
Q 1981 -91 1556 -91 
Q 1019 -91 701 211 
Q 384 513 384 1019 
Q 384 1609 779 1909 
Q 1175 2209 1959 2209 
L 2766 2209 
L 2766 2266 
Q 2766 2663 2505 2880 
Q 2244 3097 1772 3097 
Q 1472 3097 1187 3025 
Q 903 2953 641 2809 
L 641 3341 
Q 956 3463 1253 3523 
Q 1550 3584 1831 3584 
Q 2591 3584 2966 3190 
Q 3341 2797 3341 1997 
z
" transform="scale(0.015625)"/>
       <path id="DejaVuSans-78" d="M 3513 3500 
L 2247 1797 
L 3578 0 
L 2900 0 
L 1881 1375 
L 863 0 
L 184 0 
L 1544 1831 
L 300 3500 
L 978 3500 
L 1906 2253 
L 2834 3500 
L 3513 3500 
z
" transform="scale(0.015625)"/>
       <path id="DejaVuSans-29" d="M 513 4856 
L 1013 4856 
Q 1481 4119 1714 3412 
Q 1947 2706 1947 2009 
Q 1947 1309 1714 600 
Q 1481 -109 1013 -844 
L 513 -844 
Q 928 -128 1133 580 
Q 1338 1288 1338 2009 
Q 1338 2731 1133 3434 
Q 928 4138 513 4856 
z
" transform="scale(0.015625)"/>
      </defs>
      <use xlink:href="#DejaVuSans-64"/>
      <use xlink:href="#DejaVuSans-72" x="63.476562"/>
      <use xlink:href="#DejaVuSans-67" x="102.839844"/>
      <use xlink:href="#DejaVuSans-69" x="166.316406"/>
      <use xlink:href="#DejaVuSans-6e" x="194.099609"/>
      <use xlink:href="#DejaVuSans-28" x="257.478516"/>
      <use xlink:href="#DejaVuSans-77" x="296.492188"/>
      <use xlink:href="#DejaVuSans-69" x="378.279297"/>
      <use xlink:href="#DejaVuSans-74" x="406.0625"/>
      <use xlink:href="#DejaVuSans-68" x="445.271484"/>
      <use xlink:href="#DejaVuSans-6f" x="508.650391"/>
      <use xlink:href="#DejaVuSans-75" x="569.832031"/>
      <use xlink:href="#DejaVuSans-74" x="633.210938"/>
      <use xlink:href="#DejaVuSans-20" x="672.419922"/>
      <use xlink:href="#DejaVuSans-73" x="704.207031"/>
      <use xlink:href="#DejaVuSans-6f" x="756.306641"/>
      <use xlink:href="#DejaVuSans-66" x="817.488281"/>
      <use xlink:href="#DejaVuSans-74" x="850.943359"/>
      <use xlink:href="#DejaVuSans-6d" x="890.152344"/>
      <use xlink:href="#DejaVuSans-61" x="987.564453"/>
      <use xlink:href="#DejaVuSans-78" x="1048.84375"/>
      <use xlink:href="#DejaVuSans-29" x="1108.023438"/>
     </g>
    </g>
   </g>
  </g>
 </g>
 <defs>
  <clipPath id="p16a21900de">
   <rect x="57.6" y="41.472" width="357.12" height="266.112"/>
  </clipPath>
 </defs>
</svg>
