<?xml version="1.0" encoding="utf-8" standalone="no"?>
<!DOCTYPE svg PUBLIC "-//W3C//DTD SVG 1.1//EN"
  "http://www.w3.org/Graphics/SVG/1.1/DTD/svg11.dtd">
<svg xmlns:xlink="http://www.w3.org/1999/xlink" width="460.8pt" height="345.6pt" viewBox="0 0 460.8 345.6" xmlns="http://www.w3.org/2000/svg" version="1.1">
 <metadata>
  <rdf:RDF xmlns:dc="http://purl.org/dc/elements/1.1/" xmlns:cc="http://creativecommons.org/ns#" xmlns:rdf="http://www.w3.org/1999/02/22-rdf-syntax-ns#">
   <cc:Work>
    <dc:type rdf:resource="http://purl.org/dc/dcmitype/StillImage"/>
    <dc:date>2025-02-21T00:26:17.325536</dc:date>
    <dc:format>image/svg+xml</dc:format>
    <dc:creator>
     <cc:Agent>
      <dc:title>Matplotlib v3.8.4, https://matplotlib.org/</dc:title>
     </cc:Agent>
    </dc:creator>
   </cc:Work>
  </rdf:RDF>
 </metadata>
 <defs>
  <style type="text/css">*{stroke-linejoin: round; stroke-linecap: butt}</style>
 </defs>
 <g id="figure_1">
  <g id="patch_1">
   <path d="M 0 345.6 
L 460.8 345.6 
L 460.8 0 
L 0 0 
z
" style="fill: #ffffff"/>
  </g>
  <g id="axes_1">
   <g id="patch_2">
    <path d="M 57.6 307.584 
L 414.72 307.584 
L 414.72 41.472 
L 57.6 41.472 
z
" style="fill: #ffffff"/>
   </g>
   <g id="matplotlib.axis_1">
    <g id="xtick_1">
     <g id="line2d_1">
      <defs>
       <path id="m23b3d7521c" d="M 0 0 
L 0 3.5 
" style="stroke: #000000; stroke-width: 0.8"/>
      </defs>
      <g>
       <use xlink:href="#m23b3d7521c" x="57.6" y="307.584" style="stroke: #000000; stroke-width: 0.8"/>
      </g>
     </g>
     <g id="text_1">
      <!-- $\mathdefault{10^{0}}$ -->
      <g transform="translate(48.8 322.182437) scale(0.1 -0.1)">
       <defs>
        <path id="DejaVuSans-31" d="M 794 531 
L 1825 531 
L 1825 4091 
L 703 3866 
L 703 4441 
L 1819 4666 
L 2450 4666 
L 2450 531 
L 3481 531 
L 3481 0 
L 794 0 
L 794 531 
z
" transform="scale(0.015625)"/>
        <path id="DejaVuSans-30" d="M 2034 4250 
Q 1547 4250 1301 3770 
Q 1056 3291 1056 2328 
Q 1056 1369 1301 889 
Q 1547 409 2034 409 
Q 2525 409 2770 889 
Q 3016 1369 3016 2328 
Q 3016 3291 2770 3770 
Q 2525 4250 2034 4250 
z
M 2034 4750 
Q 2819 4750 3233 4129 
Q 3647 3509 3647 2328 
Q 3647 1150 3233 529 
Q 2819 -91 2034 -91 
Q 1250 -91 836 529 
Q 422 1150 422 2328 
Q 422 3509 836 4129 
Q 1250 4750 2034 4750 
z
" transform="scale(0.015625)"/>
       </defs>
       <use xlink:href="#DejaVuSans-31" transform="translate(0 0.765625)"/>
       <use xlink:href="#DejaVuSans-30" transform="translate(63.623047 0.765625)"/>
       <use xlink:href="#DejaVuSans-30" transform="translate(128.203125 39.046875) scale(0.7)"/>
      </g>
     </g>
    </g>
    <g id="xtick_2">
     <g id="line2d_2">
      <g>
       <use xlink:href="#m23b3d7521c" x="133.599634" y="307.584" style="stroke: #000000; stroke-width: 0.8"/>
      </g>
     </g>
     <g id="text_2">
      <!-- $\mathdefault{10^{1}}$ -->
      <g transform="translate(124.799634 322.182437) scale(0.1 -0.1)">
       <use xlink:href="#DejaVuSans-31" transform="translate(0 0.684375)"/>
       <use xlink:href="#DejaVuSans-30" transform="translate(63.623047 0.684375)"/>
       <use xlink:href="#DejaVuSans-31" transform="translate(128.203125 38.965625) scale(0.7)"/>
      </g>
     </g>
    </g>
    <g id="xtick_3">
     <g id="line2d_3">
      <g>
       <use xlink:href="#m23b3d7521c" x="209.599268" y="307.584" style="stroke: #000000; stroke-width: 0.8"/>
      </g>
     </g>
     <g id="text_3">
      <!-- $\mathdefault{10^{2}}$ -->
      <g transform="translate(200.799268 322.182437) scale(0.1 -0.1)">
       <defs>
        <path id="DejaVuSans-32" d="M 1228 531 
L 3431 531 
L 3431 0 
L 469 0 
L 469 531 
Q 828 903 1448 1529 
Q 2069 2156 2228 2338 
Q 2531 2678 2651 2914 
Q 2772 3150 2772 3378 
Q 2772 3750 2511 3984 
Q 2250 4219 1831 4219 
Q 1534 4219 1204 4116 
Q 875 4013 500 3803 
L 500 4441 
Q 881 4594 1212 4672 
Q 1544 4750 1819 4750 
Q 2544 4750 2975 4387 
Q 3406 4025 3406 3419 
Q 3406 3131 3298 2873 
Q 3191 2616 2906 2266 
Q 2828 2175 2409 1742 
Q 1991 1309 1228 531 
z
" transform="scale(0.015625)"/>
       </defs>
       <use xlink:href="#DejaVuSans-31" transform="translate(0 0.765625)"/>
       <use xlink:href="#DejaVuSans-30" transform="translate(63.623047 0.765625)"/>
       <use xlink:href="#DejaVuSans-32" transform="translate(128.203125 39.046875) scale(0.7)"/>
      </g>
     </g>
    </g>
    <g id="xtick_4">
     <g id="line2d_4">
      <g>
       <use xlink:href="#m23b3d7521c" x="285.598902" y="307.584" style="stroke: #000000; stroke-width: 0.8"/>
      </g>
     </g>
     <g id="text_4">
      <!-- $\mathdefault{10^{3}}$ -->
      <g transform="translate(276.798902 322.182437) scale(0.1 -0.1)">
       <defs>
        <path id="DejaVuSans-33" d="M 2597 2516 
Q 3050 2419 3304 2112 
Q 3559 1806 3559 1356 
Q 3559 666 3084 287 
Q 2609 -91 1734 -91 
Q 1441 -91 1130 -33 
Q 819 25 488 141 
L 488 750 
Q 750 597 1062 519 
Q 1375 441 1716 441 
Q 2309 441 2620 675 
Q 2931 909 2931 1356 
Q 2931 1769 2642 2001 
Q 2353 2234 1838 2234 
L 1294 2234 
L 1294 2753 
L 1863 2753 
Q 2328 2753 2575 2939 
Q 2822 3125 2822 3475 
Q 2822 3834 2567 4026 
Q 2313 4219 1838 4219 
Q 1578 4219 1281 4162 
Q 984 4106 628 3988 
L 628 4550 
Q 988 4650 1302 4700 
Q 1616 4750 1894 4750 
Q 2613 4750 3031 4423 
Q 3450 4097 3450 3541 
Q 3450 3153 3228 2886 
Q 3006 2619 2597 2516 
z
" transform="scale(0.015625)"/>
       </defs>
       <use xlink:href="#DejaVuSans-31" transform="translate(0 0.765625)"/>
       <use xlink:href="#DejaVuSans-30" transform="translate(63.623047 0.765625)"/>
       <use xlink:href="#DejaVuSans-33" transform="translate(128.203125 39.046875) scale(0.7)"/>
      </g>
     </g>
    </g>
    <g id="xtick_5">
     <g id="line2d_5">
      <g>
       <use xlink:href="#m23b3d7521c" x="361.598536" y="307.584" style="stroke: #000000; stroke-width: 0.8"/>
      </g>
     </g>
     <g id="text_5">
      <!-- $\mathdefault{10^{4}}$ -->
      <g transform="translate(352.798536 322.182437) scale(0.1 -0.1)">
       <defs>
        <path id="DejaVuSans-34" d="M 2419 4116 
L 825 1625 
L 2419 1625 
L 2419 4116 
z
M 2253 4666 
L 3047 4666 
L 3047 1625 
L 3713 1625 
L 3713 1100 
L 3047 1100 
L 3047 0 
L 2419 0 
L 2419 1100 
L 313 1100 
L 313 1709 
L 2253 4666 
z
" transform="scale(0.015625)"/>
       </defs>
       <use xlink:href="#DejaVuSans-31" transform="translate(0 0.684375)"/>
       <use xlink:href="#DejaVuSans-30" transform="translate(63.623047 0.684375)"/>
       <use xlink:href="#DejaVuSans-34" transform="translate(128.203125 38.965625) scale(0.7)"/>
      </g>
     </g>
    </g>
    <g id="xtick_6">
     <g id="line2d_6">
      <defs>
       <path id="m4bd12b5200" d="M 0 0 
L 0 2 
" style="stroke: #000000; stroke-width: 0.6"/>
      </defs>
      <g>
       <use xlink:href="#m4bd12b5200" x="80.478169" y="307.584" style="stroke: #000000; stroke-width: 0.6"/>
      </g>
     </g>
    </g>
    <g id="xtick_7">
     <g id="line2d_7">
      <g>
       <use xlink:href="#m4bd12b5200" x="93.861041" y="307.584" style="stroke: #000000; stroke-width: 0.6"/>
      </g>
     </g>
    </g>
    <g id="xtick_8">
     <g id="line2d_8">
      <g>
       <use xlink:href="#m4bd12b5200" x="103.356339" y="307.584" style="stroke: #000000; stroke-width: 0.6"/>
      </g>
     </g>
    </g>
    <g id="xtick_9">
     <g id="line2d_9">
      <g>
       <use xlink:href="#m4bd12b5200" x="110.721464" y="307.584" style="stroke: #000000; stroke-width: 0.6"/>
      </g>
     </g>
    </g>
    <g id="xtick_10">
     <g id="line2d_10">
      <g>
       <use xlink:href="#m4bd12b5200" x="116.73921" y="307.584" style="stroke: #000000; stroke-width: 0.6"/>
      </g>
     </g>
    </g>
    <g id="xtick_11">
     <g id="line2d_11">
      <g>
       <use xlink:href="#m4bd12b5200" x="121.827142" y="307.584" style="stroke: #000000; stroke-width: 0.6"/>
      </g>
     </g>
    </g>
    <g id="xtick_12">
     <g id="line2d_12">
      <g>
       <use xlink:href="#m4bd12b5200" x="126.234508" y="307.584" style="stroke: #000000; stroke-width: 0.6"/>
      </g>
     </g>
    </g>
    <g id="xtick_13">
     <g id="line2d_13">
      <g>
       <use xlink:href="#m4bd12b5200" x="130.122081" y="307.584" style="stroke: #000000; stroke-width: 0.6"/>
      </g>
     </g>
    </g>
    <g id="xtick_14">
     <g id="line2d_14">
      <g>
       <use xlink:href="#m4bd12b5200" x="156.477803" y="307.584" style="stroke: #000000; stroke-width: 0.6"/>
      </g>
     </g>
    </g>
    <g id="xtick_15">
     <g id="line2d_15">
      <g>
       <use xlink:href="#m4bd12b5200" x="169.860675" y="307.584" style="stroke: #000000; stroke-width: 0.6"/>
      </g>
     </g>
    </g>
    <g id="xtick_16">
     <g id="line2d_16">
      <g>
       <use xlink:href="#m4bd12b5200" x="179.355973" y="307.584" style="stroke: #000000; stroke-width: 0.6"/>
      </g>
     </g>
    </g>
    <g id="xtick_17">
     <g id="line2d_17">
      <g>
       <use xlink:href="#m4bd12b5200" x="186.721098" y="307.584" style="stroke: #000000; stroke-width: 0.6"/>
      </g>
     </g>
    </g>
    <g id="xtick_18">
     <g id="line2d_18">
      <g>
       <use xlink:href="#m4bd12b5200" x="192.738844" y="307.584" style="stroke: #000000; stroke-width: 0.6"/>
      </g>
     </g>
    </g>
    <g id="xtick_19">
     <g id="line2d_19">
      <g>
       <use xlink:href="#m4bd12b5200" x="197.826776" y="307.584" style="stroke: #000000; stroke-width: 0.6"/>
      </g>
     </g>
    </g>
    <g id="xtick_20">
     <g id="line2d_20">
      <g>
       <use xlink:href="#m4bd12b5200" x="202.234142" y="307.584" style="stroke: #000000; stroke-width: 0.6"/>
      </g>
     </g>
    </g>
    <g id="xtick_21">
     <g id="line2d_21">
      <g>
       <use xlink:href="#m4bd12b5200" x="206.121715" y="307.584" style="stroke: #000000; stroke-width: 0.6"/>
      </g>
     </g>
    </g>
    <g id="xtick_22">
     <g id="line2d_22">
      <g>
       <use xlink:href="#m4bd12b5200" x="232.477437" y="307.584" style="stroke: #000000; stroke-width: 0.6"/>
      </g>
     </g>
    </g>
    <g id="xtick_23">
     <g id="line2d_23">
      <g>
       <use xlink:href="#m4bd12b5200" x="245.860308" y="307.584" style="stroke: #000000; stroke-width: 0.6"/>
      </g>
     </g>
    </g>
    <g id="xtick_24">
     <g id="line2d_24">
      <g>
       <use xlink:href="#m4bd12b5200" x="255.355607" y="307.584" style="stroke: #000000; stroke-width: 0.6"/>
      </g>
     </g>
    </g>
    <g id="xtick_25">
     <g id="line2d_25">
      <g>
       <use xlink:href="#m4bd12b5200" x="262.720732" y="307.584" style="stroke: #000000; stroke-width: 0.6"/>
      </g>
     </g>
    </g>
    <g id="xtick_26">
     <g id="line2d_26">
      <g>
       <use xlink:href="#m4bd12b5200" x="268.738478" y="307.584" style="stroke: #000000; stroke-width: 0.6"/>
      </g>
     </g>
    </g>
    <g id="xtick_27">
     <g id="line2d_27">
      <g>
       <use xlink:href="#m4bd12b5200" x="273.826409" y="307.584" style="stroke: #000000; stroke-width: 0.6"/>
      </g>
     </g>
    </g>
    <g id="xtick_28">
     <g id="line2d_28">
      <g>
       <use xlink:href="#m4bd12b5200" x="278.233776" y="307.584" style="stroke: #000000; stroke-width: 0.6"/>
      </g>
     </g>
    </g>
    <g id="xtick_29">
     <g id="line2d_29">
      <g>
       <use xlink:href="#m4bd12b5200" x="282.121349" y="307.584" style="stroke: #000000; stroke-width: 0.6"/>
      </g>
     </g>
    </g>
    <g id="xtick_30">
     <g id="line2d_30">
      <g>
       <use xlink:href="#m4bd12b5200" x="308.477071" y="307.584" style="stroke: #000000; stroke-width: 0.6"/>
      </g>
     </g>
    </g>
    <g id="xtick_31">
     <g id="line2d_31">
      <g>
       <use xlink:href="#m4bd12b5200" x="321.859942" y="307.584" style="stroke: #000000; stroke-width: 0.6"/>
      </g>
     </g>
    </g>
    <g id="xtick_32">
     <g id="line2d_32">
      <g>
       <use xlink:href="#m4bd12b5200" x="331.355241" y="307.584" style="stroke: #000000; stroke-width: 0.6"/>
      </g>
     </g>
    </g>
    <g id="xtick_33">
     <g id="line2d_33">
      <g>
       <use xlink:href="#m4bd12b5200" x="338.720366" y="307.584" style="stroke: #000000; stroke-width: 0.6"/>
      </g>
     </g>
    </g>
    <g id="xtick_34">
     <g id="line2d_34">
      <g>
       <use xlink:href="#m4bd12b5200" x="344.738112" y="307.584" style="stroke: #000000; stroke-width: 0.6"/>
      </g>
     </g>
    </g>
    <g id="xtick_35">
     <g id="line2d_35">
      <g>
       <use xlink:href="#m4bd12b5200" x="349.826043" y="307.584" style="stroke: #000000; stroke-width: 0.6"/>
      </g>
     </g>
    </g>
    <g id="xtick_36">
     <g id="line2d_36">
      <g>
       <use xlink:href="#m4bd12b5200" x="354.23341" y="307.584" style="stroke: #000000; stroke-width: 0.6"/>
      </g>
     </g>
    </g>
    <g id="xtick_37">
     <g id="line2d_37">
      <g>
       <use xlink:href="#m4bd12b5200" x="358.120983" y="307.584" style="stroke: #000000; stroke-width: 0.6"/>
      </g>
     </g>
    </g>
    <g id="xtick_38">
     <g id="line2d_38">
      <g>
       <use xlink:href="#m4bd12b5200" x="384.476705" y="307.584" style="stroke: #000000; stroke-width: 0.6"/>
      </g>
     </g>
    </g>
    <g id="xtick_39">
     <g id="line2d_39">
      <g>
       <use xlink:href="#m4bd12b5200" x="397.859576" y="307.584" style="stroke: #000000; stroke-width: 0.6"/>
      </g>
     </g>
    </g>
    <g id="xtick_40">
     <g id="line2d_40">
      <g>
       <use xlink:href="#m4bd12b5200" x="407.354874" y="307.584" style="stroke: #000000; stroke-width: 0.6"/>
      </g>
     </g>
    </g>
    <g id="xtick_41">
     <g id="line2d_41">
      <g>
       <use xlink:href="#m4bd12b5200" x="414.72" y="307.584" style="stroke: #000000; stroke-width: 0.6"/>
      </g>
     </g>
    </g>
    <g id="text_6">
     <!-- iter# -->
     <g transform="translate(223.488906 335.860562) scale(0.1 -0.1)">
      <defs>
       <path id="DejaVuSans-69" d="M 603 3500 
L 1178 3500 
L 1178 0 
L 603 0 
L 603 3500 
z
M 603 4863 
L 1178 4863 
L 1178 4134 
L 603 4134 
L 603 4863 
z
" transform="scale(0.015625)"/>
       <path id="DejaVuSans-74" d="M 1172 4494 
L 1172 3500 
L 2356 3500 
L 2356 3053 
L 1172 3053 
L 1172 1153 
Q 1172 725 1289 603 
Q 1406 481 1766 481 
L 2356 481 
L 2356 0 
L 1766 0 
Q 1100 0 847 248 
Q 594 497 594 1153 
L 594 3053 
L 172 3053 
L 172 3500 
L 594 3500 
L 594 4494 
L 1172 4494 
z
" transform="scale(0.015625)"/>
       <path id="DejaVuSans-65" d="M 3597 1894 
L 3597 1613 
L 953 1613 
Q 991 1019 1311 708 
Q 1631 397 2203 397 
Q 2534 397 2845 478 
Q 3156 559 3463 722 
L 3463 178 
Q 3153 47 2828 -22 
Q 2503 -91 2169 -91 
Q 1331 -91 842 396 
Q 353 884 353 1716 
Q 353 2575 817 3079 
Q 1281 3584 2069 3584 
Q 2775 3584 3186 3129 
Q 3597 2675 3597 1894 
z
M 3022 2063 
Q 3016 2534 2758 2815 
Q 2500 3097 2075 3097 
Q 1594 3097 1305 2825 
Q 1016 2553 972 2059 
L 3022 2063 
z
" transform="scale(0.015625)"/>
       <path id="DejaVuSans-72" d="M 2631 2963 
Q 2534 3019 2420 3045 
Q 2306 3072 2169 3072 
Q 1681 3072 1420 2755 
Q 1159 2438 1159 1844 
L 1159 0 
L 581 0 
L 581 3500 
L 1159 3500 
L 1159 2956 
Q 1341 3275 1631 3429 
Q 1922 3584 2338 3584 
Q 2397 3584 2469 3576 
Q 2541 3569 2628 3553 
L 2631 2963 
z
" transform="scale(0.015625)"/>
       <path id="DejaVuSans-23" d="M 3272 2816 
L 2363 2816 
L 2100 1772 
L 3016 1772 
L 3272 2816 
z
M 2803 4594 
L 2478 3297 
L 3391 3297 
L 3719 4594 
L 4219 4594 
L 3897 3297 
L 4872 3297 
L 4872 2816 
L 3775 2816 
L 3519 1772 
L 4513 1772 
L 4513 1294 
L 3397 1294 
L 3072 0 
L 2572 0 
L 2894 1294 
L 1978 1294 
L 1656 0 
L 1153 0 
L 1478 1294 
L 494 1294 
L 494 1772 
L 1594 1772 
L 1856 2816 
L 850 2816 
L 850 3297 
L 1978 3297 
L 2297 4594 
L 2803 4594 
z
" transform="scale(0.015625)"/>
      </defs>
      <use xlink:href="#DejaVuSans-69"/>
      <use xlink:href="#DejaVuSans-74" x="27.783203"/>
      <use xlink:href="#DejaVuSans-65" x="66.992188"/>
      <use xlink:href="#DejaVuSans-72" x="128.515625"/>
      <use xlink:href="#DejaVuSans-23" x="169.628906"/>
     </g>
    </g>
   </g>
   <g id="matplotlib.axis_2">
    <g id="ytick_1">
     <g id="line2d_42">
      <defs>
       <path id="mfb77d872da" d="M 0 0 
L -3.5 0 
" style="stroke: #000000; stroke-width: 0.8"/>
      </defs>
      <g>
       <use xlink:href="#mfb77d872da" x="57.6" y="245.254111" style="stroke: #000000; stroke-width: 0.8"/>
      </g>
     </g>
     <g id="text_7">
      <!-- $\mathdefault{10^{-2}}$ -->
      <g transform="translate(27.1 249.05333) scale(0.1 -0.1)">
       <defs>
        <path id="DejaVuSans-2212" d="M 678 2272 
L 4684 2272 
L 4684 1741 
L 678 1741 
L 678 2272 
z
" transform="scale(0.015625)"/>
       </defs>
       <use xlink:href="#DejaVuSans-31" transform="translate(0 0.765625)"/>
       <use xlink:href="#DejaVuSans-30" transform="translate(63.623047 0.765625)"/>
       <use xlink:href="#DejaVuSans-2212" transform="translate(128.203125 39.046875) scale(0.7)"/>
       <use xlink:href="#DejaVuSans-32" transform="translate(186.855469 39.046875) scale(0.7)"/>
      </g>
     </g>
    </g>
    <g id="ytick_2">
     <g id="line2d_43">
      <g>
       <use xlink:href="#mfb77d872da" x="57.6" y="88.622741" style="stroke: #000000; stroke-width: 0.8"/>
      </g>
     </g>
     <g id="text_8">
      <!-- $\mathdefault{10^{-1}}$ -->
      <g transform="translate(27.1 92.421959) scale(0.1 -0.1)">
       <use xlink:href="#DejaVuSans-31" transform="translate(0 0.684375)"/>
       <use xlink:href="#DejaVuSans-30" transform="translate(63.623047 0.684375)"/>
       <use xlink:href="#DejaVuSans-2212" transform="translate(128.203125 38.965625) scale(0.7)"/>
       <use xlink:href="#DejaVuSans-31" transform="translate(186.855469 38.965625) scale(0.7)"/>
      </g>
     </g>
    </g>
    <g id="ytick_3">
     <g id="line2d_44">
      <defs>
       <path id="m712f9eefe0" d="M 0 0 
L -2 0 
" style="stroke: #000000; stroke-width: 0.6"/>
      </defs>
      <g>
       <use xlink:href="#m712f9eefe0" x="57.6" y="307.584" style="stroke: #000000; stroke-width: 0.6"/>
      </g>
     </g>
    </g>
    <g id="ytick_4">
     <g id="line2d_45">
      <g>
       <use xlink:href="#m712f9eefe0" x="57.6" y="292.404852" style="stroke: #000000; stroke-width: 0.6"/>
      </g>
     </g>
    </g>
    <g id="ytick_5">
     <g id="line2d_46">
      <g>
       <use xlink:href="#m712f9eefe0" x="57.6" y="280.002585" style="stroke: #000000; stroke-width: 0.6"/>
      </g>
     </g>
    </g>
    <g id="ytick_6">
     <g id="line2d_47">
      <g>
       <use xlink:href="#m712f9eefe0" x="57.6" y="269.516617" style="stroke: #000000; stroke-width: 0.6"/>
      </g>
     </g>
    </g>
    <g id="ytick_7">
     <g id="line2d_48">
      <g>
       <use xlink:href="#m712f9eefe0" x="57.6" y="260.433259" style="stroke: #000000; stroke-width: 0.6"/>
      </g>
     </g>
    </g>
    <g id="ytick_8">
     <g id="line2d_49">
      <g>
       <use xlink:href="#m712f9eefe0" x="57.6" y="252.42117" style="stroke: #000000; stroke-width: 0.6"/>
      </g>
     </g>
    </g>
    <g id="ytick_9">
     <g id="line2d_50">
      <g>
       <use xlink:href="#m712f9eefe0" x="57.6" y="198.10337" style="stroke: #000000; stroke-width: 0.6"/>
      </g>
     </g>
    </g>
    <g id="ytick_10">
     <g id="line2d_51">
      <g>
       <use xlink:href="#m712f9eefe0" x="57.6" y="170.521955" style="stroke: #000000; stroke-width: 0.6"/>
      </g>
     </g>
    </g>
    <g id="ytick_11">
     <g id="line2d_52">
      <g>
       <use xlink:href="#m712f9eefe0" x="57.6" y="150.95263" style="stroke: #000000; stroke-width: 0.6"/>
      </g>
     </g>
    </g>
    <g id="ytick_12">
     <g id="line2d_53">
      <g>
       <use xlink:href="#m712f9eefe0" x="57.6" y="135.773481" style="stroke: #000000; stroke-width: 0.6"/>
      </g>
     </g>
    </g>
    <g id="ytick_13">
     <g id="line2d_54">
      <g>
       <use xlink:href="#m712f9eefe0" x="57.6" y="123.371214" style="stroke: #000000; stroke-width: 0.6"/>
      </g>
     </g>
    </g>
    <g id="ytick_14">
     <g id="line2d_55">
      <g>
       <use xlink:href="#m712f9eefe0" x="57.6" y="112.885247" style="stroke: #000000; stroke-width: 0.6"/>
      </g>
     </g>
    </g>
    <g id="ytick_15">
     <g id="line2d_56">
      <g>
       <use xlink:href="#m712f9eefe0" x="57.6" y="103.801889" style="stroke: #000000; stroke-width: 0.6"/>
      </g>
     </g>
    </g>
    <g id="ytick_16">
     <g id="line2d_57">
      <g>
       <use xlink:href="#m712f9eefe0" x="57.6" y="95.789799" style="stroke: #000000; stroke-width: 0.6"/>
      </g>
     </g>
    </g>
    <g id="ytick_17">
     <g id="line2d_58">
      <g>
       <use xlink:href="#m712f9eefe0" x="57.6" y="41.472" style="stroke: #000000; stroke-width: 0.6"/>
      </g>
     </g>
    </g>
    <g id="text_9">
     <!-- loss -->
     <g transform="translate(21.020313 184.185812) rotate(-90) scale(0.1 -0.1)">
      <defs>
       <path id="DejaVuSans-6c" d="M 603 4863 
L 1178 4863 
L 1178 0 
L 603 0 
L 603 4863 
z
" transform="scale(0.015625)"/>
       <path id="DejaVuSans-6f" d="M 1959 3097 
Q 1497 3097 1228 2736 
Q 959 2375 959 1747 
Q 959 1119 1226 758 
Q 1494 397 1959 397 
Q 2419 397 2687 759 
Q 2956 1122 2956 1747 
Q 2956 2369 2687 2733 
Q 2419 3097 1959 3097 
z
M 1959 3584 
Q 2709 3584 3137 3096 
Q 3566 2609 3566 1747 
Q 3566 888 3137 398 
Q 2709 -91 1959 -91 
Q 1206 -91 779 398 
Q 353 888 353 1747 
Q 353 2609 779 3096 
Q 1206 3584 1959 3584 
z
" transform="scale(0.015625)"/>
       <path id="DejaVuSans-73" d="M 2834 3397 
L 2834 2853 
Q 2591 2978 2328 3040 
Q 2066 3103 1784 3103 
Q 1356 3103 1142 2972 
Q 928 2841 928 2578 
Q 928 2378 1081 2264 
Q 1234 2150 1697 2047 
L 1894 2003 
Q 2506 1872 2764 1633 
Q 3022 1394 3022 966 
Q 3022 478 2636 193 
Q 2250 -91 1575 -91 
Q 1294 -91 989 -36 
Q 684 19 347 128 
L 347 722 
Q 666 556 975 473 
Q 1284 391 1588 391 
Q 1994 391 2212 530 
Q 2431 669 2431 922 
Q 2431 1156 2273 1281 
Q 2116 1406 1581 1522 
L 1381 1569 
Q 847 1681 609 1914 
Q 372 2147 372 2553 
Q 372 3047 722 3315 
Q 1072 3584 1716 3584 
Q 2034 3584 2315 3537 
Q 2597 3491 2834 3397 
z
" transform="scale(0.015625)"/>
      </defs>
      <use xlink:href="#DejaVuSans-6c"/>
      <use xlink:href="#DejaVuSans-6f" x="27.783203"/>
      <use xlink:href="#DejaVuSans-73" x="88.964844"/>
      <use xlink:href="#DejaVuSans-73" x="141.064453"/>
     </g>
    </g>
   </g>
   <g id="line2d_59">
    <path d="M 288.774504 -1 
L 295.381748 19.915189 
L 296.916083 24.507974 
L 298.382249 29.682424 
L 301.132568 41.534267 
L 302.426303 46.437982 
L 304.870911 57.688097 
L 307.146878 65.813556 
L 308.228592 65.078796 
L 309.275976 65.176981 
L 309.54869 67.92185 
L 310.555631 72.92526 
L 311.53276 75.18622 
L 312.481791 79.148742 
L 315.175382 93.813853 
L 316.026516 96.180537 
L 316.856252 99.278235 
L 317.665641 101.193892 
L 318.455656 105.338993 
L 319.227202 106.779697 
L 319.981124 101.354822 
L 320.718209 96.86092 
L 321.439193 98.803568 
L 323.512207 110.096825 
L 324.175255 105.899525 
L 324.825245 110.242085 
L 325.462681 111.497766 
L 326.088039 107.436142 
L 326.70177 109.617218 
L 327.304296 103.489451 
L 327.89602 106.040296 
L 328.477322 102.521163 
L 329.048564 105.860405 
L 329.610086 104.275519 
L 330.162216 104.388862 
L 330.705261 109.286807 
L 331.239516 109.858796 
L 331.765261 113.190165 
L 332.282763 111.162401 
L 332.418871 115.098565 
L 333.426052 117.330881 
L 333.918347 117.106927 
L 334.403407 121.352379 
L 334.881441 109.948551 
L 335.352651 110.247354 
L 336.275358 117.899073 
L 336.727214 118.792155 
L 337.172969 115.242273 
L 337.612783 114.871073 
L 338.046814 114.767955 
L 338.475212 118.024882 
L 339.315678 108.904025 
L 339.72802 108.268014 
L 340.135274 103.741345 
L 340.935009 112.079117 
L 341.327726 112.375502 
L 341.715825 117.558979 
L 342.099413 121.18799 
L 342.478595 101.713616 
L 342.85347 105.735382 
L 343.224135 103.723325 
L 343.590684 108.517784 
L 343.953206 110.918488 
L 344.311791 111.430527 
L 344.666521 115.095004 
L 345.017479 114.586302 
L 345.364745 116.500761 
L 345.708395 119.337956 
L 345.799079 124.27543 
L 347.135377 137.978435 
L 347.461165 133.220269 
L 347.78377 132.505603 
L 348.103252 134.137541 
L 348.419671 130.624931 
L 348.733086 132.065809 
L 349.043552 127.141073 
L 349.351125 119.80537 
L 349.957805 127.552161 
L 350.257013 129.107381 
L 350.553534 133.254677 
L 351.138701 129.998664 
L 351.42744 133.770781 
L 351.713674 133.695198 
L 351.997448 126.854832 
L 352.278803 130.521341 
L 352.557779 131.251728 
L 352.834418 127.016623 
L 353.108757 125.142145 
L 353.380834 126.753591 
L 353.650687 130.934406 
L 353.918352 119.612531 
L 354.183864 120.020694 
L 354.447256 124.466481 
L 354.708564 123.204891 
L 354.967819 123.248606 
L 355.225053 121.382606 
L 355.547767 128.339486 
L 355.800538 128.532165 
L 356.300346 137.447261 
L 356.54744 140.780001 
L 356.792699 133.374679 
L 357.036148 134.881003 
L 357.277814 133.735174 
L 357.517724 128.731537 
L 357.755903 130.553194 
L 358.227165 138.677511 
L 358.460297 139.989583 
L 358.691794 143.036081 
L 358.921678 143.344349 
L 359.149972 148.248835 
L 359.376698 145.940589 
L 359.601878 146.478834 
L 359.825531 145.376341 
L 360.047679 141.730005 
L 360.268342 144.132898 
L 360.487539 142.714871 
L 360.705291 139.030641 
L 361.136531 136.777847 
L 361.562209 142.27439 
L 361.982467 138.97066 
L 362.190606 140.650332 
L 362.602988 146.236253 
L 362.657372 150.9946 
L 362.861311 153.066754 
L 363.265448 159.858615 
L 363.664697 145.113295 
L 363.862524 149.304152 
L 364.059174 151.061253 
L 364.254658 154.08717 
L 364.448991 144.548967 
L 364.642187 143.858165 
L 365.025219 147.621807 
L 365.215081 151.058546 
L 365.403857 142.822567 
L 365.778201 151.662449 
L 365.963793 151.890615 
L 366.148346 155.386821 
L 366.331874 151.053401 
L 366.514387 143.927176 
L 366.876413 148.873906 
L 367.055947 141.861891 
L 367.23451 146.235708 
L 367.412113 140.60549 
L 367.939257 151.850512 
L 368.286067 158.798996 
L 368.458115 160.68601 
L 368.62927 158.033828 
L 368.674585 162.408225 
L 369.182098 172.462778 
L 369.34955 172.051228 
L 369.516156 175.002249 
L 369.681926 175.05976 
L 369.846867 156.082412 
L 370.174297 165.673656 
L 370.336802 166.054182 
L 370.659431 169.245655 
L 370.819571 166.596041 
L 371.137538 173.063194 
L 371.29538 171.908942 
L 371.608818 180.04146 
L 371.764428 178.366378 
L 371.919307 179.876556 
L 372.073464 177.636668 
L 372.226903 173.037395 
L 372.379633 172.521166 
L 372.531659 168.244079 
L 372.833626 172.128774 
L 372.98358 168.24591 
L 373.28146 172.468372 
L 373.576675 178.237452 
L 373.723298 175.737531 
L 373.762136 176.93129 
L 374.053101 182.759205 
L 374.197628 177.873216 
L 374.341525 178.236393 
L 374.484797 171.681526 
L 374.627449 174.079436 
L 374.769488 172.411535 
L 375.191974 182.073157 
L 375.331609 177.754866 
L 375.609119 183.217124 
L 375.747005 188.043318 
L 375.884316 184.045677 
L 376.021059 185.428429 
L 376.292856 190.293494 
L 376.42792 165.164531 
L 376.562434 160.846958 
L 376.829827 163.612394 
L 376.962716 163.131857 
L 377.358202 171.214366 
L 377.488985 165.092846 
L 377.749006 174.419283 
L 377.878252 170.411733 
L 378.135236 178.781375 
L 378.296831 185.727081 
L 378.423954 184.832528 
L 378.550589 185.548332 
L 378.802411 181.485739 
L 379.176578 188.674635 
L 379.423687 194.345824 
L 379.546551 194.610807 
L 379.668959 186.408949 
L 379.790915 187.347249 
L 379.912422 189.839458 
L 380.033483 182.272231 
L 380.394026 195.479525 
L 380.513337 195.393962 
L 380.632218 193.880078 
L 380.750673 196.384411 
L 380.868704 190.719179 
L 380.986314 191.733649 
L 381.220285 186.351568 
L 381.798058 206.820693 
L 382.026364 196.25223 
L 382.056568 197.068798 
L 382.170028 193.897156 
L 382.508087 206.25469 
L 382.620008 205.418982 
L 382.731551 206.708787 
L 382.953512 203.387332 
L 383.173991 189.044625 
L 383.393007 193.86883 
L 383.501972 197.085945 
L 383.610578 193.279317 
L 383.826726 199.688429 
L 383.934271 195.905455 
L 384.041466 197.474219 
L 384.572285 181.596467 
L 384.677431 182.443934 
L 384.990877 193.763533 
L 385.094701 190.089984 
L 385.404227 199.788032 
L 385.839396 213.08431 
L 385.940589 214.285928 
L 386.041472 209.239579 
L 386.142049 198.370284 
L 386.441951 206.85907 
L 386.541316 204.498606 
L 386.640383 198.004731 
L 386.739153 201.188869 
L 386.837629 194.432599 
L 387.228619 207.440019 
L 387.325647 205.483496 
L 387.615032 216.33418 
L 387.806555 211.202078 
L 387.901901 212.387553 
L 388.091772 216.359427 
L 388.280556 210.819036 
L 388.374545 213.442533 
L 388.468267 213.282328 
L 388.561724 210.439894 
L 388.654916 211.654667 
L 388.679626 214.839881 
L 388.772487 207.331914 
L 388.957429 215.537798 
L 389.049513 213.703586 
L 389.232913 218.810848 
L 389.324232 210.252848 
L 389.506117 216.847302 
L 389.596684 221.048938 
L 389.687004 221.0377 
L 389.866905 225.467832 
L 389.95649 224.619348 
L 390.045832 221.700962 
L 390.312415 228.390248 
L 390.488949 221.117359 
L 390.576863 225.134246 
L 390.664544 221.86742 
L 390.839209 228.0135 
L 391.012955 224.926903 
L 391.099486 211.769827 
L 391.185791 212.325883 
L 391.271871 210.894426 
L 391.44336 217.724794 
L 391.528772 216.460774 
L 391.636555 221.328598 
L 391.721469 217.25722 
L 391.890644 222.798161 
L 391.974907 219.604882 
L 392.058956 220.125574 
L 392.142791 207.806538 
L 392.226414 209.599277 
L 392.309826 210.487451 
L 392.393027 205.705412 
L 392.476019 207.152815 
L 392.64138 213.191329 
L 392.805917 198.241927 
L 392.887878 201.324461 
L 393.294662 219.045267 
L 393.455981 208.780029 
L 393.536347 208.330408 
L 393.616517 204.475387 
L 393.696492 209.375533 
L 393.776275 207.308827 
L 393.855865 208.907212 
L 394.271819 226.297642 
L 394.428444 232.833383 
L 394.506479 231.971272 
L 394.661997 222.240345 
L 394.739482 226.899186 
L 394.970852 219.560083 
L 395.200611 231.667594 
L 395.276844 228.592786 
L 395.580025 242.589175 
L 395.730577 235.449288 
L 395.805597 238.507937 
L 395.880446 236.907576 
L 395.955126 220.633112 
L 396.029637 221.449925 
L 396.178158 228.260965 
L 396.399692 209.195392 
L 396.784972 230.659378 
L 396.857635 228.444024 
L 397.074671 233.358505 
L 397.218572 238.437004 
L 397.290288 237.800752 
L 397.361849 231.877373 
L 397.504507 239.882839 
L 397.575605 239.394405 
L 397.787985 229.826862 
L 397.858476 231.044588 
L 397.928817 230.735692 
L 397.999008 224.904059 
L 398.06905 228.241048 
L 398.138943 223.318501 
L 398.555226 240.76797 
L 398.624099 241.57658 
L 398.761415 248.634002 
L 398.829859 247.862483 
L 398.916281 249.480182 
L 399.187939 258.210287 
L 399.255505 257.73706 
L 399.390225 260.041644 
L 399.591279 244.836393 
L 399.92367 258.446289 
L 399.989749 256.350885 
L 400.187195 261.853268 
L 400.318172 255.470755 
L 400.383466 256.479804 
L 400.448631 253.372476 
L 400.513668 254.231457 
L 400.708014 259.804934 
L 400.901221 264.774964 
L 400.965373 247.000387 
L 401.046387 250.085764 
L 401.23763 258.387444 
L 401.301132 254.517599 
L 401.364513 240.736488 
L 401.427771 241.357368 
L 401.742259 255.725345 
L 401.804799 255.578362 
L 401.929523 244.890273 
L 401.991709 245.359951 
L 402.053779 246.971592 
L 402.177568 255.643868 
L 402.239289 252.874023 
L 402.423762 257.482726 
L 402.546174 261.122875 
L 402.60721 260.517652 
L 402.668133 258.30134 
L 402.728945 259.63903 
L 402.850232 255.977266 
L 403.107436 267.325483 
L 403.167444 261.757776 
L 403.227343 265.604023 
L 403.584472 276.7548 
L 403.702661 261.607799 
L 403.761598 264.996936 
L 404.054711 279.850553 
L 404.113023 279.791897 
L 404.287342 260.667266 
L 404.345245 263.517514 
L 404.518345 254.116391 
L 404.690543 239.859966 
L 404.747743 241.633512 
L 405.103898 259.759282 
L 405.38538 277.334102 
L 405.497305 268.711334 
L 405.553125 269.533273 
L 405.830818 280.524038 
L 405.886077 279.047475 
L 405.996319 284.487922 
L 406.215704 265.776432 
L 406.270323 269.067557 
L 406.324852 272.163184 
L 406.433641 272.138703 
L 406.487901 274.585869 
L 406.542072 272.588356 
L 406.596154 273.034308 
L 406.650148 271.179757 
L 407.039816 291.232034 
L 407.09309 284.107196 
L 407.146278 285.614036 
L 407.19938 287.481099 
L 407.252396 286.27105 
L 407.358175 276.979253 
L 407.410937 280.223448 
L 407.463616 278.732638 
L 407.568721 271.53058 
L 407.621148 274.188892 
L 407.673492 265.327036 
L 407.725753 267.465979 
L 407.830028 270.239618 
L 407.882042 267.917046 
L 407.933975 271.706401 
L 408.037595 263.233985 
L 408.089283 264.369871 
L 408.140891 261.415759 
L 408.397725 281.598181 
L 408.411313 279.407579 
L 408.46242 276.794654 
L 408.513448 279.336183 
L 408.564397 279.932015 
L 408.615267 283.25652 
L 408.716774 273.414888 
L 408.76741 275.775943 
L 408.868451 282.244984 
L 408.918855 274.383543 
L 408.969183 274.809248 
L 409.019433 277.295619 
L 409.069608 269.010884 
L 409.119706 272.702707 
L 409.41871 286.599042 
L 409.468282 285.547049 
L 409.517779 287.533567 
L 409.567203 285.119172 
L 409.616552 280.491681 
L 409.665828 282.712981 
L 409.911108 297.963106 
L 410.118932 268.440876 
L 410.264315 270.582029 
L 410.360881 275.158349 
L 410.409059 274.811622 
L 410.457167 272.949246 
L 410.60107 280.854774 
L 410.648898 272.511738 
L 410.744348 274.663153 
L 410.887007 283.230201 
L 410.934424 282.94505 
L 411.076265 266.481138 
L 411.170489 271.514744 
L 411.2175 271.160924 
L 411.264444 264.447226 
L 411.311322 265.395895 
L 411.603534 286.667964 
L 411.649932 285.943113 
L 411.696266 281.429789 
L 411.742535 284.717733 
L 412.064612 301.970369 
L 412.15606 296.034076 
L 412.201689 296.975359 
L 412.292759 303.005916 
L 412.338199 300.07633 
L 412.383577 298.454688 
L 412.428893 298.731442 
L 412.519339 301.877312 
L 412.654544 271.956327 
L 412.878662 288.341856 
L 412.923304 283.375077 
L 412.967885 286.584125 
L 413.024223 289.590311 
L 413.157379 283.013992 
L 413.50986 298.200639 
L 413.553657 297.647476 
L 413.641076 291.263375 
L 413.684699 294.569083 
L 413.728265 297.643486 
L 413.771773 297.071559 
L 413.815223 295.83544 
L 413.858617 297.94068 
L 413.901953 297.685991 
L 413.988456 292.541882 
L 414.031623 293.72344 
L 414.074733 293.250193 
L 414.160785 293.183082 
L 414.332218 300.695629 
L 414.417602 282.468879 
L 414.428926 276.792559 
L 414.51406 284.252058 
L 414.556545 281.937404 
L 414.556545 281.937404 
" clip-path="url(#pe5b6fac7d9)" style="fill: none; stroke: #1f77b4; stroke-opacity: 0.4; stroke-linecap: square"/>
   </g>
   <g id="line2d_60">
    <path d="M 222.722305 -1 
L 231.301519 11.351023 
L 240.754035 23.194298 
L 248.093465 25.857933 
L 254.094069 32.928717 
L 259.169751 42.385625 
L 263.567928 45.337179 
L 267.448351 50.835272 
L 270.920183 43.301246 
L 274.06133 44.880023 
L 276.929345 48.396702 
L 279.567951 55.642144 
L 282.011145 62.69234 
L 284.285885 64.099053 
L 286.413912 60.123052 
L 288.413007 65.440808 
L 290.297906 69.720206 
L 292.080954 73.395896 
L 295.381748 84.974474 
L 296.916083 88.051599 
L 298.382249 89.456332 
L 299.786047 91.921587 
L 302.426303 102.039694 
L 303.671234 105.261769 
L 304.870911 98.397846 
L 306.028508 101.902356 
L 307.146878 103.881158 
L 308.228592 105.172339 
L 309.275976 108.739299 
L 309.54869 110.351051 
L 310.555631 114.211176 
L 311.53276 118.61955 
L 312.481791 119.455683 
L 313.404296 118.708195 
L 314.301717 123.120724 
L 315.175382 122.691629 
L 316.026516 126.5847 
L 316.856252 125.898123 
L 317.665641 128.918559 
L 318.455656 128.605002 
L 319.227202 128.893973 
L 319.981124 131.409689 
L 320.718209 126.521586 
L 322.144764 133.975148 
L 322.835567 137.819627 
L 323.512207 137.44629 
L 324.175255 140.195482 
L 324.825245 140.921904 
L 325.462681 143.335655 
L 326.088039 144.991551 
L 326.70177 147.05507 
L 327.304296 150.681215 
L 327.89602 152.06277 
L 328.477322 154.120455 
L 329.048564 154.574478 
L 330.162216 159.895887 
L 331.239516 150.870887 
L 331.765261 154.696925 
L 332.282763 155.512713 
L 332.418871 145.59503 
L 332.926303 139.483025 
L 333.426052 142.580223 
L 333.918347 144.629379 
L 334.403407 147.191925 
L 334.881441 151.270487 
L 335.352651 148.610621 
L 335.817229 142.928108 
L 337.172969 152.943072 
L 337.612783 150.007334 
L 338.046814 139.893382 
L 338.475212 140.077613 
L 339.72802 149.635835 
L 340.135274 153.69801 
L 340.537563 149.823344 
L 341.327726 153.879292 
L 341.715825 151.141009 
L 342.099413 146.649072 
L 342.478595 148.198222 
L 343.953206 163.661333 
L 344.311791 158.834005 
L 344.666521 148.865031 
L 345.017479 152.833078 
L 345.364745 151.003292 
L 345.708395 153.949253 
L 345.799079 156.722016 
L 346.138259 152.710092 
L 346.47399 152.90287 
L 347.78377 168.508303 
L 348.103252 169.877962 
L 348.419671 164.713145 
L 349.043552 167.633123 
L 349.655859 173.598873 
L 349.957805 169.072526 
L 350.257013 168.777881 
L 350.553534 168.886148 
L 350.847414 167.38159 
L 351.42744 174.100333 
L 351.713674 177.471882 
L 352.278803 161.254639 
L 352.834418 167.758304 
L 353.650687 176.450387 
L 354.183864 174.696634 
L 354.447256 167.528793 
L 354.708564 165.566296 
L 354.967819 168.004878 
L 355.225053 168.248841 
L 355.293045 169.401486 
L 355.547767 167.658994 
L 355.800538 157.812519 
L 356.300346 164.489118 
L 356.54744 160.657578 
L 356.792699 159.612025 
L 357.277814 161.055567 
L 357.517724 163.647279 
L 357.755903 163.672914 
L 357.992375 162.266946 
L 358.227165 162.943741 
L 358.460297 163.957004 
L 358.691794 166.505847 
L 358.921678 162.671541 
L 359.376698 169.310931 
L 359.601878 167.738484 
L 360.047679 173.990028 
L 360.268342 173.647061 
L 360.487539 171.149252 
L 360.705291 165.157692 
L 361.136531 172.051597 
L 361.350056 167.934015 
L 361.562209 171.854893 
L 361.773007 173.51237 
L 361.982467 172.481986 
L 362.190606 175.062839 
L 362.397441 170.815407 
L 362.602988 173.109459 
L 362.657372 175.628424 
L 362.861311 178.888796 
L 363.063998 170.922014 
L 363.265448 169.9642 
L 363.465676 171.380555 
L 363.664697 175.284054 
L 363.862524 171.523661 
L 364.059174 174.805744 
L 364.254658 176.181302 
L 364.448991 179.840748 
L 364.642187 176.501323 
L 365.025219 183.337856 
L 365.215081 182.958765 
L 365.403857 184.247859 
L 365.778201 190.425 
L 366.148346 176.126284 
L 366.331874 173.975647 
L 366.514387 174.529484 
L 366.695896 168.409809 
L 366.876413 170.823051 
L 367.055947 168.132365 
L 367.23451 172.068913 
L 367.412113 173.441885 
L 367.588765 171.449407 
L 367.939257 175.480221 
L 368.113117 171.460004 
L 368.458115 178.175915 
L 368.674585 179.95786 
L 368.844624 178.576774 
L 369.182098 184.106888 
L 369.34955 180.573118 
L 369.516156 183.843316 
L 369.681926 182.53007 
L 370.174297 188.327713 
L 370.498511 185.883609 
L 370.819571 176.129506 
L 370.978937 179.131292 
L 371.137538 179.414859 
L 371.452471 184.788009 
L 371.608818 187.565613 
L 371.764428 188.067537 
L 372.226903 197.077294 
L 372.379633 192.639525 
L 372.682988 198.411611 
L 372.833626 193.086726 
L 373.132856 196.529963 
L 373.28146 198.005207 
L 373.576675 184.580004 
L 373.907939 192.473938 
L 374.197628 190.33054 
L 374.341525 185.039195 
L 374.484797 184.875381 
L 374.627449 186.571756 
L 375.051745 194.978762 
L 375.191974 185.281376 
L 375.331609 188.081479 
L 375.470656 182.169464 
L 376.562434 200.25186 
L 376.696401 197.229946 
L 377.095072 201.793664 
L 377.2269 197.529319 
L 377.488985 203.081585 
L 377.619252 198.225523 
L 377.749006 198.646646 
L 377.878252 196.994025 
L 378.135236 202.583406 
L 378.169217 197.699303 
L 378.296831 197.525881 
L 378.423954 198.959433 
L 378.550589 185.227918 
L 379.176578 194.716722 
L 379.300364 192.320053 
L 379.668959 200.430761 
L 379.912422 204.901179 
L 380.033483 199.789549 
L 380.394026 208.151604 
L 380.513337 208.079425 
L 381.103507 185.179913 
L 381.220285 185.575872 
L 381.336652 180.653578 
L 381.452609 182.365679 
L 381.798058 192.045008 
L 381.912409 193.975566 
L 382.026364 190.888022 
L 382.056568 193.606668 
L 382.170028 192.022941 
L 382.283099 195.623085 
L 382.395785 194.362266 
L 382.508087 196.545206 
L 382.620008 191.375424 
L 382.731551 192.56511 
L 382.953512 198.898207 
L 383.063936 197.905651 
L 383.173991 198.135365 
L 383.393007 201.695126 
L 383.501972 197.549145 
L 383.718829 203.744033 
L 383.826726 203.353273 
L 383.934271 205.944327 
L 384.041466 193.355813 
L 384.466802 203.252196 
L 384.677431 194.85533 
L 384.990877 205.245895 
L 385.094701 196.682097 
L 385.506761 207.94585 
L 385.533943 200.73041 
L 385.839396 206.796864 
L 385.940589 207.7435 
L 386.041472 210.299626 
L 386.142049 207.124779 
L 386.342286 214.168227 
L 386.441951 212.40631 
L 386.739153 218.592278 
L 386.837629 212.617228 
L 387.033703 217.16265 
L 387.228619 212.118968 
L 387.325647 214.565396 
L 387.422391 211.408192 
L 387.518852 211.617056 
L 387.710932 216.050747 
L 387.901901 212.701339 
L 388.186299 216.595239 
L 388.654916 223.457768 
L 388.772487 219.640754 
L 388.865088 221.083783 
L 388.957429 218.334303 
L 389.049513 221.217723 
L 389.14134 216.031131 
L 389.324232 219.178502 
L 389.506117 211.011998 
L 389.596684 210.588624 
L 389.866905 218.252551 
L 389.95649 213.831528 
L 390.045832 216.411081 
L 390.223793 207.643719 
L 390.576863 213.877783 
L 390.926197 223.429413 
L 391.012955 225.421714 
L 391.099486 224.856889 
L 391.271871 228.638417 
L 391.357727 224.977801 
L 391.551422 231.123387 
L 391.721469 230.645682 
L 391.890644 222.604249 
L 391.974907 223.532364 
L 392.142791 224.337274 
L 392.393027 231.349516 
L 392.558803 236.017942 
L 392.64138 235.917531 
L 392.723751 226.952223 
L 392.805917 229.264661 
L 392.887878 230.608031 
L 392.969637 229.007846 
L 393.051194 231.039438 
L 393.132549 230.682131 
L 393.37542 232.586647 
L 393.455981 229.252143 
L 393.776275 235.041521 
L 393.855865 232.535205 
L 393.935263 233.811962 
L 394.014471 226.062136 
L 394.09349 228.762424 
L 394.193227 233.887836 
L 394.350225 228.842972 
L 394.661997 235.607567 
L 394.739482 231.125551 
L 394.816786 232.377029 
L 394.893909 231.013675 
L 395.200611 239.099644 
L 395.276844 238.818631 
L 395.428782 241.374768 
L 395.50449 237.352738 
L 395.655387 242.17096 
L 395.730577 232.311919 
L 395.805597 233.796177 
L 395.955126 237.40004 
L 396.029637 230.227803 
L 396.103981 232.958834 
L 396.178158 230.544053 
L 396.252168 233.082819 
L 396.326012 232.707379 
L 396.399692 234.214777 
L 396.473208 232.259447 
L 396.54656 233.127786 
L 396.61975 234.247245 
L 396.712148 237.864758 
L 396.930139 243.109237 
L 397.002484 242.056085 
L 397.1467 225.801795 
L 397.218572 228.343282 
L 397.290288 223.836833 
L 397.361849 226.321083 
L 397.64655 233.776299 
L 397.717343 229.60507 
L 397.858476 232.556922 
L 397.928817 231.815358 
L 397.999008 220.26924 
L 398.06905 223.588895 
L 398.278289 230.460596 
L 398.347741 223.971202 
L 398.417048 226.928419 
L 398.486209 228.352753 
L 398.555226 225.445578 
L 398.761415 231.445316 
L 398.829859 228.369978 
L 399.187939 239.070742 
L 399.255505 238.960835 
L 399.322934 240.563917 
L 399.390225 238.972772 
L 399.457379 241.128118 
L 399.591279 234.084161 
L 399.724637 239.545425 
L 399.857459 232.558665 
L 399.92367 232.69052 
L 400.252748 244.05467 
L 400.318172 231.896561 
L 400.383466 234.624716 
L 400.448631 233.35723 
L 400.513668 235.702746 
L 400.772542 228.810839 
L 401.174006 243.331184 
L 401.23763 242.044311 
L 401.301132 245.20338 
L 401.427771 235.268083 
L 401.490909 235.902816 
L 402.053779 253.189359 
L 402.177568 252.132132 
L 402.239289 252.424494 
L 402.362385 253.292261 
L 402.423762 250.327882 
L 402.485025 252.808057 
L 402.60721 244.200888 
L 402.668133 244.400008 
L 402.789644 246.832988 
L 402.910709 245.029776 
L 403.047318 247.314496 
L 403.107436 246.874615 
L 403.167444 248.682022 
L 403.227343 247.87091 
L 403.287133 248.005025 
L 403.465857 254.071141 
L 403.525218 251.713798 
L 403.584472 252.764335 
L 403.702661 256.300907 
L 403.879156 247.170499 
L 403.996296 251.621296 
L 404.054711 250.357759 
L 404.229338 256.678222 
L 404.287342 242.529482 
L 404.345245 243.442553 
L 404.403046 245.458748 
L 404.460746 243.811397 
L 404.518345 242.386225 
L 404.575844 243.514659 
L 404.633243 243.434027 
L 404.918751 252.74669 
L 404.933849 251.843182 
L 404.99063 247.865044 
L 405.047313 250.297231 
L 405.103898 253.05082 
L 405.160387 249.493607 
L 405.216779 252.391045 
L 405.44139 258.301303 
L 405.60885 252.304824 
L 405.664482 254.920224 
L 405.886077 257.92092 
L 406.051302 253.482771 
L 406.106194 256.199338 
L 406.160994 254.589053 
L 406.215704 254.28065 
L 406.270323 254.901584 
L 406.324852 253.112791 
L 406.379291 254.961498 
L 406.650148 262.52107 
L 406.704053 262.21974 
L 406.772152 264.432626 
L 406.825859 258.783638 
L 406.879478 260.456058 
L 406.933011 261.364401 
L 406.986457 258.962135 
L 407.039816 260.155528 
L 407.146278 259.313479 
L 407.410937 267.342585 
L 407.463616 264.76944 
L 407.51621 266.072027 
L 407.568721 267.403393 
L 407.725753 257.184665 
L 407.777932 259.427157 
L 407.830028 260.90781 
L 407.985825 258.08045 
L 408.295231 265.03181 
L 408.346517 266.951295 
L 408.397725 262.008255 
L 408.46242 263.924263 
L 408.564397 268.002631 
L 408.615267 260.513121 
L 408.716774 261.836527 
L 408.817969 262.40442 
L 408.868451 261.690286 
L 408.918855 262.807024 
L 409.069608 256.436554 
L 409.119706 256.6602 
L 409.169729 255.262809 
L 409.369064 263.816155 
L 409.41871 261.835335 
L 409.468282 262.389927 
L 409.567203 266.824506 
L 409.616552 263.193206 
L 409.71503 264.085317 
L 409.764159 261.651909 
L 409.813215 263.593626 
L 409.862198 263.457552 
L 409.911108 262.935671 
L 410.021654 253.741461 
L 410.070329 253.955496 
L 410.264315 259.900707 
L 410.409059 265.058266 
L 410.457167 263.36476 
L 410.505204 263.507888 
L 410.839523 272.458229 
L 410.887007 270.338487 
L 410.934424 262.062609 
L 411.029052 264.188664 
L 411.076265 262.069761 
L 411.123411 264.267597 
L 411.170489 265.399392 
L 411.2175 264.927699 
L 411.264444 264.750715 
L 411.451557 269.747659 
L 411.557069 268.420021 
L 411.603534 267.373661 
L 411.649932 267.3832 
L 411.788739 272.122908 
L 411.97291 260.463394 
L 412.018793 261.853053 
L 412.201689 268.687045 
L 412.247255 267.402759 
L 412.292759 267.643911 
L 412.474147 271.429774 
L 412.519339 271.513074 
L 412.564469 271.309089 
L 412.609537 271.565853 
L 412.654544 272.164299 
L 412.69949 271.437838 
L 412.789198 272.536614 
L 413.024223 276.664401 
L 413.068668 276.549727 
L 413.157379 278.579619 
L 413.245853 269.41172 
L 413.290001 271.5555 
L 413.422092 274.31741 
L 413.466006 273.660104 
L 413.684699 279.413638 
L 413.728265 276.50091 
L 413.815223 277.896098 
L 413.858617 278.569062 
L 413.988456 276.969323 
L 414.031623 277.070386 
L 414.246613 283.307604 
L 414.289443 278.712616 
L 414.374938 280.425134 
L 414.428926 277.831495 
L 414.47152 279.088905 
L 414.556545 282.216859 
L 414.556545 282.216859 
" clip-path="url(#pe5b6fac7d9)" style="fill: none; stroke: #ff7f0e; stroke-opacity: 0.4; stroke-linecap: square"/>
   </g>
   <g id="line2d_61">
    <path d="M 242.867147 -1 
L 248.093465 8.493528 
L 254.094069 20.542571 
L 259.169751 30.439949 
L 263.567928 34.841779 
L 267.448351 42.797243 
L 270.920183 51.279068 
L 274.06133 52.836635 
L 279.567951 67.046137 
L 286.413912 85.515465 
L 288.413007 86.543274 
L 290.297906 89.675753 
L 292.080954 95.015654 
L 293.772596 97.227226 
L 295.381748 99.81386 
L 296.916083 103.293925 
L 298.382249 107.623167 
L 299.786047 105.672024 
L 301.132568 108.375384 
L 302.426303 108.43477 
L 303.671234 110.710102 
L 304.870911 114.619984 
L 306.028508 111.397515 
L 307.146878 116.150403 
L 308.228592 114.969121 
L 309.275976 117.090423 
L 309.54869 121.143613 
L 310.555631 124.409044 
L 311.53276 128.732084 
L 312.481791 130.245952 
L 313.404296 124.60527 
L 314.301717 125.897168 
L 315.175382 129.253874 
L 316.026516 129.297592 
L 316.856252 132.609565 
L 317.665641 124.58657 
L 318.455656 128.501481 
L 319.227202 129.009769 
L 320.718209 136.440652 
L 321.439193 138.874524 
L 322.144764 136.006619 
L 322.835567 135.623122 
L 325.462681 148.39398 
L 326.088039 150.975443 
L 326.70177 152.335983 
L 327.304296 156.111755 
L 328.477322 160.892804 
L 329.048564 159.829988 
L 330.162216 164.946353 
L 330.705261 165.999142 
L 331.239516 164.094534 
L 331.765261 158.758903 
L 332.282763 159.638715 
L 332.418871 162.062017 
L 332.926303 162.246818 
L 333.918347 167.933766 
L 334.403407 167.745344 
L 334.881441 166.083388 
L 335.352651 168.73758 
L 335.817229 170.163624 
L 336.727214 174.910376 
L 337.172969 175.810711 
L 337.612783 158.790105 
L 338.475212 148.530019 
L 339.315678 153.711587 
L 339.72802 152.998564 
L 340.135274 148.7748 
L 340.935009 154.303745 
L 341.327726 154.279733 
L 342.099413 158.651829 
L 342.478595 157.263915 
L 342.85347 161.153921 
L 343.224135 156.925981 
L 343.590684 158.816011 
L 343.953206 162.444765 
L 344.311791 161.078297 
L 344.666521 161.499271 
L 345.017479 164.76965 
L 345.364745 163.451053 
L 345.708395 164.914632 
L 345.799079 166.837419 
L 346.138259 160.483204 
L 346.47399 159.96986 
L 346.80634 155.073473 
L 347.461165 158.779066 
L 347.78377 146.782452 
L 348.103252 150.774045 
L 348.419671 149.527963 
L 349.043552 156.240926 
L 349.351125 153.898793 
L 349.655859 157.199475 
L 349.957805 153.447473 
L 350.553534 159.765489 
L 350.847414 160.335887 
L 351.42744 165.209716 
L 351.997448 171.817118 
L 352.278803 167.069878 
L 352.834418 169.762723 
L 353.108757 168.13458 
L 353.380834 161.268406 
L 353.650687 164.677348 
L 353.918352 165.650738 
L 354.447256 171.767194 
L 354.708564 165.115534 
L 354.967819 168.632896 
L 355.293045 163.532985 
L 355.547767 167.510515 
L 355.800538 165.044328 
L 356.54744 175.906728 
L 357.036148 166.586146 
L 357.277814 168.705775 
L 357.755903 174.862117 
L 357.992375 171.822964 
L 358.227165 170.770764 
L 358.460297 167.963547 
L 358.921678 172.814618 
L 359.149972 173.733416 
L 359.601878 176.287898 
L 359.825531 180.033174 
L 360.047679 177.475012 
L 360.487539 183.761459 
L 360.705291 185.782509 
L 360.921615 183.733193 
L 361.136531 186.740553 
L 361.350056 185.892714 
L 361.773007 189.606424 
L 361.982467 185.304279 
L 362.190606 175.610173 
L 362.397441 174.874299 
L 362.602988 178.495044 
L 362.657372 174.322853 
L 362.861311 176.363329 
L 363.063998 174.86571 
L 363.265448 177.470158 
L 363.465676 177.965944 
L 363.664697 179.218965 
L 364.059174 183.141043 
L 364.254658 181.628479 
L 364.642187 188.407693 
L 364.834259 186.516492 
L 365.403857 194.8708 
L 365.59156 194.582818 
L 365.778201 196.65596 
L 365.963793 182.479028 
L 366.148346 184.063997 
L 366.331874 180.418645 
L 366.514387 180.109116 
L 366.695896 182.993292 
L 367.055947 177.867307 
L 367.23451 170.130443 
L 367.588765 178.243203 
L 367.764476 170.374584 
L 367.939257 171.577104 
L 368.113117 174.299884 
L 368.286067 174.453785 
L 368.62927 180.441508 
L 368.674585 180.21589 
L 368.844624 179.749289 
L 369.013792 181.305397 
L 369.34955 186.169871 
L 369.516156 186.428765 
L 369.846867 192.889928 
L 370.010988 182.284449 
L 370.174297 183.444989 
L 370.498511 175.700012 
L 370.659431 178.768889 
L 371.137538 169.497266 
L 371.452471 174.772552 
L 371.608818 172.665206 
L 372.226903 186.755629 
L 372.379633 185.914382 
L 372.531659 180.695278 
L 372.98358 189.225748 
L 373.132856 188.085161 
L 373.28146 190.910434 
L 373.576675 169.174472 
L 373.723298 171.896175 
L 373.762136 171.00148 
L 373.907939 171.872523 
L 374.484797 186.843299 
L 374.627449 184.905805 
L 374.769488 185.646896 
L 375.051745 191.710245 
L 375.191974 183.745784 
L 375.470656 188.703978 
L 375.609119 188.785265 
L 375.884316 185.962453 
L 376.021059 187.393041 
L 376.157237 184.213806 
L 376.292856 185.973483 
L 376.562434 183.445678 
L 376.962716 192.130038 
L 377.095072 191.116762 
L 377.358202 195.581972 
L 377.619252 201.200648 
L 377.749006 198.304766 
L 378.006994 205.696358 
L 378.135236 205.474762 
L 378.296831 211.27602 
L 378.423954 214.448092 
L 378.550589 208.989611 
L 378.67674 210.235552 
L 378.802411 213.033401 
L 378.927605 212.173596 
L 379.052326 206.755439 
L 379.176578 206.236274 
L 379.546551 212.284012 
L 379.668959 210.458031 
L 380.274282 221.930949 
L 380.394026 220.232952 
L 380.632218 221.053906 
L 380.868704 224.360807 
L 380.986314 222.03466 
L 381.220285 224.768219 
L 381.336652 220.996311 
L 381.568161 224.066686 
L 381.68331 217.694599 
L 381.798058 218.822858 
L 381.912409 222.155807 
L 382.026364 219.410189 
L 382.056568 219.659917 
L 382.170028 218.734174 
L 382.283099 212.982411 
L 382.620008 220.032897 
L 382.731551 219.4274 
L 383.063936 206.535851 
L 383.28368 210.733929 
L 383.501972 195.576474 
L 383.610578 199.699631 
L 383.718829 197.208348 
L 383.826726 198.112509 
L 384.041466 205.752517 
L 384.148315 199.623623 
L 384.254819 203.861643 
L 384.360981 200.26552 
L 384.677431 208.111048 
L 384.782244 208.250413 
L 384.886725 205.372378 
L 385.404227 219.270532 
L 385.506761 218.220849 
L 385.533943 216.056951 
L 385.737892 217.939255 
L 385.839396 213.713872 
L 385.940589 214.751663 
L 386.242319 222.331066 
L 386.342286 221.551745 
L 386.441951 221.750891 
L 386.739153 230.413448 
L 386.935811 234.173359 
L 387.131305 225.37201 
L 387.325647 222.853707 
L 387.806555 234.826952 
L 387.901901 234.786191 
L 387.996973 235.272793 
L 388.280556 240.705492 
L 388.468267 237.154121 
L 388.561724 235.176145 
L 388.654916 235.705438 
L 388.679626 223.945275 
L 388.772487 227.361061 
L 388.865088 223.513583 
L 389.14134 229.611253 
L 389.232913 230.817565 
L 389.324232 227.146301 
L 389.506117 230.390202 
L 389.596684 223.329341 
L 389.687004 224.42032 
L 389.95649 232.931865 
L 390.134932 231.315499 
L 390.223793 233.916525 
L 390.312415 216.802307 
L 390.4008 218.907199 
L 390.751992 228.55734 
L 390.839209 227.229614 
L 391.099486 231.661509 
L 391.357727 218.050437 
L 391.44336 222.146593 
L 391.721469 233.023863 
L 391.806165 231.577329 
L 391.890644 229.847554 
L 391.974907 230.663918 
L 392.058956 229.803724 
L 392.558803 238.680971 
L 392.805917 243.508205 
L 392.969637 237.662379 
L 393.051194 239.599211 
L 393.132549 234.515159 
L 393.536347 243.194965 
L 393.616517 236.211519 
L 393.696492 237.142581 
L 393.776275 238.018867 
L 393.935263 232.06873 
L 394.014471 233.95747 
L 394.09349 233.471714 
L 394.661997 252.564086 
L 394.739482 250.061721 
L 394.816786 251.188633 
L 394.893909 249.326149 
L 395.3529 260.039501 
L 395.428782 257.366239 
L 395.580025 262.499918 
L 395.730577 255.218611 
L 396.103981 264.408099 
L 396.178158 261.491435 
L 396.252168 254.172807 
L 396.326012 256.552388 
L 396.399692 251.247725 
L 396.473208 252.418307 
L 396.54656 250.325714 
L 396.61975 250.589495 
L 396.639163 240.796666 
L 396.712148 243.979791 
L 396.784972 244.430499 
L 397.002484 250.546518 
L 397.1467 251.891791 
L 397.218572 244.81615 
L 397.290288 247.044753 
L 397.64655 258.645484 
L 397.999008 267.140498 
L 398.06905 268.432902 
L 398.138943 254.401934 
L 398.20869 256.185531 
L 398.486209 264.328529 
L 398.555226 264.402449 
L 398.624099 258.426835 
L 398.692828 260.741231 
L 398.829859 265.165852 
L 398.916281 259.993485 
L 398.984406 262.744531 
L 399.120234 265.368821 
L 399.255505 255.321403 
L 399.322934 257.305459 
L 399.390225 257.686988 
L 399.524397 252.157538 
L 399.724637 260.354408 
L 399.791115 259.331645 
L 400.121511 270.631669 
L 400.187195 270.2339 
L 400.252748 267.602344 
L 400.578577 275.26079 
L 400.643359 274.270942 
L 400.772542 276.675582 
L 400.901221 268.604806 
L 401.110258 272.635511 
L 401.174006 263.764147 
L 401.23763 265.146578 
L 401.364513 268.767894 
L 401.427771 268.405427 
L 401.553926 262.844661 
L 401.742259 270.954005 
L 401.86722 268.636399 
L 401.929523 269.476953 
L 402.053779 274.375242 
L 402.177568 270.45903 
L 402.239289 273.117065 
L 402.300894 269.930637 
L 402.362385 270.904115 
L 402.485025 271.431002 
L 402.850232 282.628013 
L 403.031331 271.291279 
L 403.047318 273.67129 
L 403.107436 274.144273 
L 403.227343 277.724157 
L 403.40639 266.192619 
L 403.465857 269.251759 
L 403.643619 277.048315 
L 403.702661 263.054047 
L 403.761598 265.39132 
L 404.113023 277.198447 
L 404.171232 276.664218 
L 404.229338 277.225126 
L 404.287342 277.016528 
L 404.345245 274.831375 
L 404.403046 276.824147 
L 404.747743 269.326969 
L 404.804844 269.60929 
L 404.861846 271.503507 
L 404.918751 269.472598 
L 404.933849 270.909896 
L 405.047313 274.191791 
L 405.273075 281.156094 
L 405.329276 279.603511 
L 405.38538 280.082468 
L 405.60885 284.382715 
L 405.664482 284.086365 
L 405.886077 266.88944 
L 406.106194 275.433432 
L 406.160994 269.552626 
L 406.215704 271.196808 
L 406.270323 271.24035 
L 406.324852 270.808764 
L 406.379291 268.83741 
L 406.487901 272.477547 
L 406.596154 265.241473 
L 406.772152 272.987201 
L 406.825859 269.322868 
L 406.879478 271.6579 
L 407.146278 279.85895 
L 407.358175 286.25476 
L 407.410937 279.765223 
L 407.463616 280.039149 
L 407.830028 287.779205 
L 407.933975 277.728661 
L 407.985825 279.503463 
L 408.037595 279.211083 
L 408.140891 282.404029 
L 408.243864 285.378145 
L 408.295231 277.724677 
L 408.346517 280.327497 
L 408.918855 299.373856 
L 408.969183 298.233799 
L 409.019433 299.386985 
L 409.219676 304.302066 
L 409.269547 302.352319 
L 409.319343 303.980903 
L 409.41871 305.211756 
L 409.468282 303.965628 
L 409.517779 305.126316 
L 409.665828 308.192288 
L 409.71503 295.357955 
L 409.813215 296.465089 
L 410.008713 300.689181 
L 410.021654 299.643306 
L 410.167464 298.409922 
L 410.215925 299.632598 
L 410.312633 299.734701 
L 410.409059 296.128659 
L 410.505204 295.728798 
L 410.744348 302.108291 
L 410.79197 302.177093 
L 410.839523 298.701693 
L 410.934424 299.63384 
L 411.076265 300.693955 
L 411.123411 301.902471 
L 411.170489 293.632801 
L 411.2175 295.660326 
L 411.358133 301.368893 
L 411.404878 300.862923 
L 411.451557 298.033583 
L 411.498169 299.627838 
L 411.742535 309.19898 
L 411.788739 308.725341 
L 411.926964 302.753454 
L 411.97291 303.676313 
L 412.018793 299.224155 
L 412.064612 300.370749 
L 412.292759 305.337255 
L 412.338199 300.732821 
L 412.383577 302.121887 
L 412.474147 304.581591 
L 412.69949 295.32398 
L 412.83396 301.34528 
L 412.967885 289.273779 
L 413.024223 291.016268 
L 413.245853 300.40971 
L 413.290001 298.91206 
L 413.33409 299.790932 
L 413.553657 308.432143 
L 413.728265 303.484306 
L 413.815223 301.716891 
L 413.858617 303.533569 
L 413.901953 302.795132 
L 413.945233 294.711694 
L 413.988456 297.293254 
L 414.160785 304.487736 
L 414.203727 300.657685 
L 414.289443 302.875343 
L 414.374938 304.968293 
L 414.417602 304.816088 
L 414.47152 308.645001 
L 414.51406 302.511087 
L 414.556545 301.33303 
L 414.556545 301.33303 
" clip-path="url(#pe5b6fac7d9)" style="fill: none; stroke: #2ca02c; stroke-opacity: 0.4; stroke-linecap: square"/>
   </g>
   <g id="patch_3">
    <path d="M 57.6 307.584 
L 57.6 41.472 
" style="fill: none; stroke: #000000; stroke-width: 0.8; stroke-linejoin: miter; stroke-linecap: square"/>
   </g>
   <g id="patch_4">
    <path d="M 414.72 307.584 
L 414.72 41.472 
" style="fill: none; stroke: #000000; stroke-width: 0.8; stroke-linejoin: miter; stroke-linecap: square"/>
   </g>
   <g id="patch_5">
    <path d="M 57.6 307.584 
L 414.72 307.584 
" style="fill: none; stroke: #000000; stroke-width: 0.8; stroke-linejoin: miter; stroke-linecap: square"/>
   </g>
   <g id="patch_6">
    <path d="M 57.6 41.472 
L 414.72 41.472 
" style="fill: none; stroke: #000000; stroke-width: 0.8; stroke-linejoin: miter; stroke-linecap: square"/>
   </g>
   <g id="text_10">
    <!-- 2025-02-21-00:26:17 -->
    <g transform="translate(172.178438 35.472) scale(0.12 -0.12)">
     <defs>
      <path id="DejaVuSans-35" d="M 691 4666 
L 3169 4666 
L 3169 4134 
L 1269 4134 
L 1269 2991 
Q 1406 3038 1543 3061 
Q 1681 3084 1819 3084 
Q 2600 3084 3056 2656 
Q 3513 2228 3513 1497 
Q 3513 744 3044 326 
Q 2575 -91 1722 -91 
Q 1428 -91 1123 -41 
Q 819 9 494 109 
L 494 744 
Q 775 591 1075 516 
Q 1375 441 1709 441 
Q 2250 441 2565 725 
Q 2881 1009 2881 1497 
Q 2881 1984 2565 2268 
Q 2250 2553 1709 2553 
Q 1456 2553 1204 2497 
Q 953 2441 691 2322 
L 691 4666 
z
" transform="scale(0.015625)"/>
      <path id="DejaVuSans-2d" d="M 313 2009 
L 1997 2009 
L 1997 1497 
L 313 1497 
L 313 2009 
z
" transform="scale(0.015625)"/>
      <path id="DejaVuSans-3a" d="M 750 794 
L 1409 794 
L 1409 0 
L 750 0 
L 750 794 
z
M 750 3309 
L 1409 3309 
L 1409 2516 
L 750 2516 
L 750 3309 
z
" transform="scale(0.015625)"/>
      <path id="DejaVuSans-36" d="M 2113 2584 
Q 1688 2584 1439 2293 
Q 1191 2003 1191 1497 
Q 1191 994 1439 701 
Q 1688 409 2113 409 
Q 2538 409 2786 701 
Q 3034 994 3034 1497 
Q 3034 2003 2786 2293 
Q 2538 2584 2113 2584 
z
M 3366 4563 
L 3366 3988 
Q 3128 4100 2886 4159 
Q 2644 4219 2406 4219 
Q 1781 4219 1451 3797 
Q 1122 3375 1075 2522 
Q 1259 2794 1537 2939 
Q 1816 3084 2150 3084 
Q 2853 3084 3261 2657 
Q 3669 2231 3669 1497 
Q 3669 778 3244 343 
Q 2819 -91 2113 -91 
Q 1303 -91 875 529 
Q 447 1150 447 2328 
Q 447 3434 972 4092 
Q 1497 4750 2381 4750 
Q 2619 4750 2861 4703 
Q 3103 4656 3366 4563 
z
" transform="scale(0.015625)"/>
      <path id="DejaVuSans-37" d="M 525 4666 
L 3525 4666 
L 3525 4397 
L 1831 0 
L 1172 0 
L 2766 4134 
L 525 4134 
L 525 4666 
z
" transform="scale(0.015625)"/>
     </defs>
     <use xlink:href="#DejaVuSans-32"/>
     <use xlink:href="#DejaVuSans-30" x="63.623047"/>
     <use xlink:href="#DejaVuSans-32" x="127.246094"/>
     <use xlink:href="#DejaVuSans-35" x="190.869141"/>
     <use xlink:href="#DejaVuSans-2d" x="254.492188"/>
     <use xlink:href="#DejaVuSans-30" x="290.576172"/>
     <use xlink:href="#DejaVuSans-32" x="354.199219"/>
     <use xlink:href="#DejaVuSans-2d" x="417.822266"/>
     <use xlink:href="#DejaVuSans-32" x="453.90625"/>
     <use xlink:href="#DejaVuSans-31" x="517.529297"/>
     <use xlink:href="#DejaVuSans-2d" x="581.152344"/>
     <use xlink:href="#DejaVuSans-30" x="617.236328"/>
     <use xlink:href="#DejaVuSans-30" x="680.859375"/>
     <use xlink:href="#DejaVuSans-3a" x="744.482422"/>
     <use xlink:href="#DejaVuSans-32" x="778.173828"/>
     <use xlink:href="#DejaVuSans-36" x="841.796875"/>
     <use xlink:href="#DejaVuSans-3a" x="905.419922"/>
     <use xlink:href="#DejaVuSans-31" x="939.111328"/>
     <use xlink:href="#DejaVuSans-37" x="1002.734375"/>
    </g>
   </g>
   <g id="legend_1">
    <g id="patch_7">
     <path d="M 64.6 94.34075 
L 190.723438 94.34075 
Q 192.723438 94.34075 192.723438 92.34075 
L 192.723438 48.472 
Q 192.723438 46.472 190.723438 46.472 
L 64.6 46.472 
Q 62.6 46.472 62.6 48.472 
L 62.6 92.34075 
Q 62.6 94.34075 64.6 94.34075 
z
" style="fill: #ffffff; opacity: 0.8; stroke: #cccccc; stroke-linejoin: miter"/>
    </g>
    <g id="line2d_62">
     <path d="M 66.6 54.570438 
L 76.6 54.570438 
L 86.6 54.570438 
" style="fill: none; stroke: #1f77b4; stroke-opacity: 0.4; stroke-linecap: square"/>
    </g>
    <g id="text_11">
     <!-- SchNet eval_loss -->
     <g transform="translate(94.6 58.070438) scale(0.1 -0.1)">
      <defs>
       <path id="DejaVuSans-53" d="M 3425 4513 
L 3425 3897 
Q 3066 4069 2747 4153 
Q 2428 4238 2131 4238 
Q 1616 4238 1336 4038 
Q 1056 3838 1056 3469 
Q 1056 3159 1242 3001 
Q 1428 2844 1947 2747 
L 2328 2669 
Q 3034 2534 3370 2195 
Q 3706 1856 3706 1288 
Q 3706 609 3251 259 
Q 2797 -91 1919 -91 
Q 1588 -91 1214 -16 
Q 841 59 441 206 
L 441 856 
Q 825 641 1194 531 
Q 1563 422 1919 422 
Q 2459 422 2753 634 
Q 3047 847 3047 1241 
Q 3047 1584 2836 1778 
Q 2625 1972 2144 2069 
L 1759 2144 
Q 1053 2284 737 2584 
Q 422 2884 422 3419 
Q 422 4038 858 4394 
Q 1294 4750 2059 4750 
Q 2388 4750 2728 4690 
Q 3069 4631 3425 4513 
z
" transform="scale(0.015625)"/>
       <path id="DejaVuSans-63" d="M 3122 3366 
L 3122 2828 
Q 2878 2963 2633 3030 
Q 2388 3097 2138 3097 
Q 1578 3097 1268 2742 
Q 959 2388 959 1747 
Q 959 1106 1268 751 
Q 1578 397 2138 397 
Q 2388 397 2633 464 
Q 2878 531 3122 666 
L 3122 134 
Q 2881 22 2623 -34 
Q 2366 -91 2075 -91 
Q 1284 -91 818 406 
Q 353 903 353 1747 
Q 353 2603 823 3093 
Q 1294 3584 2113 3584 
Q 2378 3584 2631 3529 
Q 2884 3475 3122 3366 
z
" transform="scale(0.015625)"/>
       <path id="DejaVuSans-68" d="M 3513 2113 
L 3513 0 
L 2938 0 
L 2938 2094 
Q 2938 2591 2744 2837 
Q 2550 3084 2163 3084 
Q 1697 3084 1428 2787 
Q 1159 2491 1159 1978 
L 1159 0 
L 581 0 
L 581 4863 
L 1159 4863 
L 1159 2956 
Q 1366 3272 1645 3428 
Q 1925 3584 2291 3584 
Q 2894 3584 3203 3211 
Q 3513 2838 3513 2113 
z
" transform="scale(0.015625)"/>
       <path id="DejaVuSans-4e" d="M 628 4666 
L 1478 4666 
L 3547 763 
L 3547 4666 
L 4159 4666 
L 4159 0 
L 3309 0 
L 1241 3903 
L 1241 0 
L 628 0 
L 628 4666 
z
" transform="scale(0.015625)"/>
       <path id="DejaVuSans-20" transform="scale(0.015625)"/>
       <path id="DejaVuSans-76" d="M 191 3500 
L 800 3500 
L 1894 563 
L 2988 3500 
L 3597 3500 
L 2284 0 
L 1503 0 
L 191 3500 
z
" transform="scale(0.015625)"/>
       <path id="DejaVuSans-61" d="M 2194 1759 
Q 1497 1759 1228 1600 
Q 959 1441 959 1056 
Q 959 750 1161 570 
Q 1363 391 1709 391 
Q 2188 391 2477 730 
Q 2766 1069 2766 1631 
L 2766 1759 
L 2194 1759 
z
M 3341 1997 
L 3341 0 
L 2766 0 
L 2766 531 
Q 2569 213 2275 61 
Q 1981 -91 1556 -91 
Q 1019 -91 701 211 
Q 384 513 384 1019 
Q 384 1609 779 1909 
Q 1175 2209 1959 2209 
L 2766 2209 
L 2766 2266 
Q 2766 2663 2505 2880 
Q 2244 3097 1772 3097 
Q 1472 3097 1187 3025 
Q 903 2953 641 2809 
L 641 3341 
Q 956 3463 1253 3523 
Q 1550 3584 1831 3584 
Q 2591 3584 2966 3190 
Q 3341 2797 3341 1997 
z
" transform="scale(0.015625)"/>
       <path id="DejaVuSans-5f" d="M 3263 -1063 
L 3263 -1509 
L -63 -1509 
L -63 -1063 
L 3263 -1063 
z
" transform="scale(0.015625)"/>
      </defs>
      <use xlink:href="#DejaVuSans-53"/>
      <use xlink:href="#DejaVuSans-63" x="63.476562"/>
      <use xlink:href="#DejaVuSans-68" x="118.457031"/>
      <use xlink:href="#DejaVuSans-4e" x="181.835938"/>
      <use xlink:href="#DejaVuSans-65" x="256.640625"/>
      <use xlink:href="#DejaVuSans-74" x="318.164062"/>
      <use xlink:href="#DejaVuSans-20" x="357.373047"/>
      <use xlink:href="#DejaVuSans-65" x="389.160156"/>
      <use xlink:href="#DejaVuSans-76" x="450.683594"/>
      <use xlink:href="#DejaVuSans-61" x="509.863281"/>
      <use xlink:href="#DejaVuSans-6c" x="571.142578"/>
      <use xlink:href="#DejaVuSans-5f" x="598.925781"/>
      <use xlink:href="#DejaVuSans-6c" x="648.925781"/>
      <use xlink:href="#DejaVuSans-6f" x="676.708984"/>
      <use xlink:href="#DejaVuSans-73" x="737.890625"/>
      <use xlink:href="#DejaVuSans-73" x="789.990234"/>
     </g>
    </g>
    <g id="line2d_63">
     <path d="M 66.6 69.526688 
L 76.6 69.526688 
L 86.6 69.526688 
" style="fill: none; stroke: #ff7f0e; stroke-opacity: 0.4; stroke-linecap: square"/>
    </g>
    <g id="text_12">
     <!-- M220 eval_loss -->
     <g transform="translate(94.6 73.026688) scale(0.1 -0.1)">
      <defs>
       <path id="DejaVuSans-4d" d="M 628 4666 
L 1569 4666 
L 2759 1491 
L 3956 4666 
L 4897 4666 
L 4897 0 
L 4281 0 
L 4281 4097 
L 3078 897 
L 2444 897 
L 1241 4097 
L 1241 0 
L 628 0 
L 628 4666 
z
" transform="scale(0.015625)"/>
      </defs>
      <use xlink:href="#DejaVuSans-4d"/>
      <use xlink:href="#DejaVuSans-32" x="86.279297"/>
      <use xlink:href="#DejaVuSans-32" x="149.902344"/>
      <use xlink:href="#DejaVuSans-30" x="213.525391"/>
      <use xlink:href="#DejaVuSans-20" x="277.148438"/>
      <use xlink:href="#DejaVuSans-65" x="308.935547"/>
      <use xlink:href="#DejaVuSans-76" x="370.458984"/>
      <use xlink:href="#DejaVuSans-61" x="429.638672"/>
      <use xlink:href="#DejaVuSans-6c" x="490.917969"/>
      <use xlink:href="#DejaVuSans-5f" x="518.701172"/>
      <use xlink:href="#DejaVuSans-6c" x="568.701172"/>
      <use xlink:href="#DejaVuSans-6f" x="596.484375"/>
      <use xlink:href="#DejaVuSans-73" x="657.666016"/>
      <use xlink:href="#DejaVuSans-73" x="709.765625"/>
     </g>
    </g>
    <g id="line2d_64">
     <path d="M 66.6 84.482938 
L 76.6 84.482938 
L 86.6 84.482938 
" style="fill: none; stroke: #2ca02c; stroke-opacity: 0.4; stroke-linecap: square"/>
    </g>
    <g id="text_13">
     <!-- MoGIN14 eval_loss -->
     <g transform="translate(94.6 87.982938) scale(0.1 -0.1)">
      <defs>
       <path id="DejaVuSans-47" d="M 3809 666 
L 3809 1919 
L 2778 1919 
L 2778 2438 
L 4434 2438 
L 4434 434 
Q 4069 175 3628 42 
Q 3188 -91 2688 -91 
Q 1594 -91 976 548 
Q 359 1188 359 2328 
Q 359 3472 976 4111 
Q 1594 4750 2688 4750 
Q 3144 4750 3555 4637 
Q 3966 4525 4313 4306 
L 4313 3634 
Q 3963 3931 3569 4081 
Q 3175 4231 2741 4231 
Q 1884 4231 1454 3753 
Q 1025 3275 1025 2328 
Q 1025 1384 1454 906 
Q 1884 428 2741 428 
Q 3075 428 3337 486 
Q 3600 544 3809 666 
z
" transform="scale(0.015625)"/>
       <path id="DejaVuSans-49" d="M 628 4666 
L 1259 4666 
L 1259 0 
L 628 0 
L 628 4666 
z
" transform="scale(0.015625)"/>
      </defs>
      <use xlink:href="#DejaVuSans-4d"/>
      <use xlink:href="#DejaVuSans-6f" x="86.279297"/>
      <use xlink:href="#DejaVuSans-47" x="147.460938"/>
      <use xlink:href="#DejaVuSans-49" x="224.951172"/>
      <use xlink:href="#DejaVuSans-4e" x="254.443359"/>
      <use xlink:href="#DejaVuSans-31" x="329.248047"/>
      <use xlink:href="#DejaVuSans-34" x="392.871094"/>
      <use xlink:href="#DejaVuSans-20" x="456.494141"/>
      <use xlink:href="#DejaVuSans-65" x="488.28125"/>
      <use xlink:href="#DejaVuSans-76" x="549.804688"/>
      <use xlink:href="#DejaVuSans-61" x="608.984375"/>
      <use xlink:href="#DejaVuSans-6c" x="670.263672"/>
      <use xlink:href="#DejaVuSans-5f" x="698.046875"/>
      <use xlink:href="#DejaVuSans-6c" x="748.046875"/>
      <use xlink:href="#DejaVuSans-6f" x="775.830078"/>
      <use xlink:href="#DejaVuSans-73" x="837.011719"/>
      <use xlink:href="#DejaVuSans-73" x="889.111328"/>
     </g>
    </g>
   </g>
  </g>
 </g>
 <defs>
  <clipPath id="pe5b6fac7d9">
   <rect x="57.6" y="41.472" width="357.12" height="266.112"/>
  </clipPath>
 </defs>
</svg>
