<?xml version="1.0" encoding="utf-8" standalone="no"?>
<!DOCTYPE svg PUBLIC "-//W3C//DTD SVG 1.1//EN"
  "http://www.w3.org/Graphics/SVG/1.1/DTD/svg11.dtd">
<svg xmlns:xlink="http://www.w3.org/1999/xlink" width="460.8pt" height="345.6pt" viewBox="0 0 460.8 345.6" xmlns="http://www.w3.org/2000/svg" version="1.1">
 <metadata>
  <rdf:RDF xmlns:dc="http://purl.org/dc/elements/1.1/" xmlns:cc="http://creativecommons.org/ns#" xmlns:rdf="http://www.w3.org/1999/02/22-rdf-syntax-ns#">
   <cc:Work>
    <dc:type rdf:resource="http://purl.org/dc/dcmitype/StillImage"/>
    <dc:date>2025-02-21T09:06:29.704296</dc:date>
    <dc:format>image/svg+xml</dc:format>
    <dc:creator>
     <cc:Agent>
      <dc:title>Matplotlib v3.8.4, https://matplotlib.org/</dc:title>
     </cc:Agent>
    </dc:creator>
   </cc:Work>
  </rdf:RDF>
 </metadata>
 <defs>
  <style type="text/css">*{stroke-linejoin: round; stroke-linecap: butt}</style>
 </defs>
 <g id="figure_1">
  <g id="patch_1">
   <path d="M 0 345.6 
L 460.8 345.6 
L 460.8 0 
L 0 0 
z
" style="fill: #ffffff"/>
  </g>
  <g id="axes_1">
   <g id="patch_2">
    <path d="M 57.6 307.584 
L 414.72 307.584 
L 414.72 41.472 
L 57.6 41.472 
z
" style="fill: #ffffff"/>
   </g>
   <g id="matplotlib.axis_1">
    <g id="xtick_1">
     <g id="line2d_1">
      <defs>
       <path id="m9846fd4353" d="M 0 0 
L 0 3.5 
" style="stroke: #000000; stroke-width: 0.8"/>
      </defs>
      <g>
       <use xlink:href="#m9846fd4353" x="57.6" y="307.584" style="stroke: #000000; stroke-width: 0.8"/>
      </g>
     </g>
     <g id="text_1">
      <!-- $\mathdefault{10^{3}}$ -->
      <g transform="translate(48.8 322.182437) scale(0.1 -0.1)">
       <defs>
        <path id="DejaVuSans-31" d="M 794 531 
L 1825 531 
L 1825 4091 
L 703 3866 
L 703 4441 
L 1819 4666 
L 2450 4666 
L 2450 531 
L 3481 531 
L 3481 0 
L 794 0 
L 794 531 
z
" transform="scale(0.015625)"/>
        <path id="DejaVuSans-30" d="M 2034 4250 
Q 1547 4250 1301 3770 
Q 1056 3291 1056 2328 
Q 1056 1369 1301 889 
Q 1547 409 2034 409 
Q 2525 409 2770 889 
Q 3016 1369 3016 2328 
Q 3016 3291 2770 3770 
Q 2525 4250 2034 4250 
z
M 2034 4750 
Q 2819 4750 3233 4129 
Q 3647 3509 3647 2328 
Q 3647 1150 3233 529 
Q 2819 -91 2034 -91 
Q 1250 -91 836 529 
Q 422 1150 422 2328 
Q 422 3509 836 4129 
Q 1250 4750 2034 4750 
z
" transform="scale(0.015625)"/>
        <path id="DejaVuSans-33" d="M 2597 2516 
Q 3050 2419 3304 2112 
Q 3559 1806 3559 1356 
Q 3559 666 3084 287 
Q 2609 -91 1734 -91 
Q 1441 -91 1130 -33 
Q 819 25 488 141 
L 488 750 
Q 750 597 1062 519 
Q 1375 441 1716 441 
Q 2309 441 2620 675 
Q 2931 909 2931 1356 
Q 2931 1769 2642 2001 
Q 2353 2234 1838 2234 
L 1294 2234 
L 1294 2753 
L 1863 2753 
Q 2328 2753 2575 2939 
Q 2822 3125 2822 3475 
Q 2822 3834 2567 4026 
Q 2313 4219 1838 4219 
Q 1578 4219 1281 4162 
Q 984 4106 628 3988 
L 628 4550 
Q 988 4650 1302 4700 
Q 1616 4750 1894 4750 
Q 2613 4750 3031 4423 
Q 3450 4097 3450 3541 
Q 3450 3153 3228 2886 
Q 3006 2619 2597 2516 
z
" transform="scale(0.015625)"/>
       </defs>
       <use xlink:href="#DejaVuSans-31" transform="translate(0 0.765625)"/>
       <use xlink:href="#DejaVuSans-30" transform="translate(63.623047 0.765625)"/>
       <use xlink:href="#DejaVuSans-33" transform="translate(128.203125 39.046875) scale(0.7)"/>
      </g>
     </g>
    </g>
    <g id="xtick_2">
     <g id="line2d_2">
      <g>
       <use xlink:href="#m9846fd4353" x="267.797943" y="307.584" style="stroke: #000000; stroke-width: 0.8"/>
      </g>
     </g>
     <g id="text_2">
      <!-- $\mathdefault{10^{4}}$ -->
      <g transform="translate(258.997943 322.182437) scale(0.1 -0.1)">
       <defs>
        <path id="DejaVuSans-34" d="M 2419 4116 
L 825 1625 
L 2419 1625 
L 2419 4116 
z
M 2253 4666 
L 3047 4666 
L 3047 1625 
L 3713 1625 
L 3713 1100 
L 3047 1100 
L 3047 0 
L 2419 0 
L 2419 1100 
L 313 1100 
L 313 1709 
L 2253 4666 
z
" transform="scale(0.015625)"/>
       </defs>
       <use xlink:href="#DejaVuSans-31" transform="translate(0 0.684375)"/>
       <use xlink:href="#DejaVuSans-30" transform="translate(63.623047 0.684375)"/>
       <use xlink:href="#DejaVuSans-34" transform="translate(128.203125 38.965625) scale(0.7)"/>
      </g>
     </g>
    </g>
    <g id="xtick_3">
     <g id="line2d_3">
      <defs>
       <path id="m2be07b3775" d="M 0 0 
L 0 2 
" style="stroke: #000000; stroke-width: 0.6"/>
      </defs>
      <g>
       <use xlink:href="#m2be07b3775" x="120.875886" y="307.584" style="stroke: #000000; stroke-width: 0.6"/>
      </g>
     </g>
    </g>
    <g id="xtick_4">
     <g id="line2d_4">
      <g>
       <use xlink:href="#m2be07b3775" x="157.889906" y="307.584" style="stroke: #000000; stroke-width: 0.6"/>
      </g>
     </g>
    </g>
    <g id="xtick_5">
     <g id="line2d_5">
      <g>
       <use xlink:href="#m2be07b3775" x="184.151772" y="307.584" style="stroke: #000000; stroke-width: 0.6"/>
      </g>
     </g>
    </g>
    <g id="xtick_6">
     <g id="line2d_6">
      <g>
       <use xlink:href="#m2be07b3775" x="204.522057" y="307.584" style="stroke: #000000; stroke-width: 0.6"/>
      </g>
     </g>
    </g>
    <g id="xtick_7">
     <g id="line2d_7">
      <g>
       <use xlink:href="#m2be07b3775" x="221.165792" y="307.584" style="stroke: #000000; stroke-width: 0.6"/>
      </g>
     </g>
    </g>
    <g id="xtick_8">
     <g id="line2d_8">
      <g>
       <use xlink:href="#m2be07b3775" x="235.23787" y="307.584" style="stroke: #000000; stroke-width: 0.6"/>
      </g>
     </g>
    </g>
    <g id="xtick_9">
     <g id="line2d_9">
      <g>
       <use xlink:href="#m2be07b3775" x="247.427658" y="307.584" style="stroke: #000000; stroke-width: 0.6"/>
      </g>
     </g>
    </g>
    <g id="xtick_10">
     <g id="line2d_10">
      <g>
       <use xlink:href="#m2be07b3775" x="258.179813" y="307.584" style="stroke: #000000; stroke-width: 0.6"/>
      </g>
     </g>
    </g>
    <g id="xtick_11">
     <g id="line2d_11">
      <g>
       <use xlink:href="#m2be07b3775" x="331.073829" y="307.584" style="stroke: #000000; stroke-width: 0.6"/>
      </g>
     </g>
    </g>
    <g id="xtick_12">
     <g id="line2d_12">
      <g>
       <use xlink:href="#m2be07b3775" x="368.087849" y="307.584" style="stroke: #000000; stroke-width: 0.6"/>
      </g>
     </g>
    </g>
    <g id="xtick_13">
     <g id="line2d_13">
      <g>
       <use xlink:href="#m2be07b3775" x="394.349715" y="307.584" style="stroke: #000000; stroke-width: 0.6"/>
      </g>
     </g>
    </g>
    <g id="xtick_14">
     <g id="line2d_14">
      <g>
       <use xlink:href="#m2be07b3775" x="414.72" y="307.584" style="stroke: #000000; stroke-width: 0.6"/>
      </g>
     </g>
    </g>
    <g id="text_3">
     <!-- iter# -->
     <g transform="translate(223.488906 335.860562) scale(0.1 -0.1)">
      <defs>
       <path id="DejaVuSans-69" d="M 603 3500 
L 1178 3500 
L 1178 0 
L 603 0 
L 603 3500 
z
M 603 4863 
L 1178 4863 
L 1178 4134 
L 603 4134 
L 603 4863 
z
" transform="scale(0.015625)"/>
       <path id="DejaVuSans-74" d="M 1172 4494 
L 1172 3500 
L 2356 3500 
L 2356 3053 
L 1172 3053 
L 1172 1153 
Q 1172 725 1289 603 
Q 1406 481 1766 481 
L 2356 481 
L 2356 0 
L 1766 0 
Q 1100 0 847 248 
Q 594 497 594 1153 
L 594 3053 
L 172 3053 
L 172 3500 
L 594 3500 
L 594 4494 
L 1172 4494 
z
" transform="scale(0.015625)"/>
       <path id="DejaVuSans-65" d="M 3597 1894 
L 3597 1613 
L 953 1613 
Q 991 1019 1311 708 
Q 1631 397 2203 397 
Q 2534 397 2845 478 
Q 3156 559 3463 722 
L 3463 178 
Q 3153 47 2828 -22 
Q 2503 -91 2169 -91 
Q 1331 -91 842 396 
Q 353 884 353 1716 
Q 353 2575 817 3079 
Q 1281 3584 2069 3584 
Q 2775 3584 3186 3129 
Q 3597 2675 3597 1894 
z
M 3022 2063 
Q 3016 2534 2758 2815 
Q 2500 3097 2075 3097 
Q 1594 3097 1305 2825 
Q 1016 2553 972 2059 
L 3022 2063 
z
" transform="scale(0.015625)"/>
       <path id="DejaVuSans-72" d="M 2631 2963 
Q 2534 3019 2420 3045 
Q 2306 3072 2169 3072 
Q 1681 3072 1420 2755 
Q 1159 2438 1159 1844 
L 1159 0 
L 581 0 
L 581 3500 
L 1159 3500 
L 1159 2956 
Q 1341 3275 1631 3429 
Q 1922 3584 2338 3584 
Q 2397 3584 2469 3576 
Q 2541 3569 2628 3553 
L 2631 2963 
z
" transform="scale(0.015625)"/>
       <path id="DejaVuSans-23" d="M 3272 2816 
L 2363 2816 
L 2100 1772 
L 3016 1772 
L 3272 2816 
z
M 2803 4594 
L 2478 3297 
L 3391 3297 
L 3719 4594 
L 4219 4594 
L 3897 3297 
L 4872 3297 
L 4872 2816 
L 3775 2816 
L 3519 1772 
L 4513 1772 
L 4513 1294 
L 3397 1294 
L 3072 0 
L 2572 0 
L 2894 1294 
L 1978 1294 
L 1656 0 
L 1153 0 
L 1478 1294 
L 494 1294 
L 494 1772 
L 1594 1772 
L 1856 2816 
L 850 2816 
L 850 3297 
L 1978 3297 
L 2297 4594 
L 2803 4594 
z
" transform="scale(0.015625)"/>
      </defs>
      <use xlink:href="#DejaVuSans-69"/>
      <use xlink:href="#DejaVuSans-74" x="27.783203"/>
      <use xlink:href="#DejaVuSans-65" x="66.992188"/>
      <use xlink:href="#DejaVuSans-72" x="128.515625"/>
      <use xlink:href="#DejaVuSans-23" x="169.628906"/>
     </g>
    </g>
   </g>
   <g id="matplotlib.axis_2">
    <g id="ytick_1">
     <g id="line2d_15">
      <defs>
       <path id="m68f7fc350d" d="M 0 0 
L -3.5 0 
" style="stroke: #000000; stroke-width: 0.8"/>
      </defs>
      <g>
       <use xlink:href="#m68f7fc350d" x="57.6" y="245.254111" style="stroke: #000000; stroke-width: 0.8"/>
      </g>
     </g>
     <g id="text_4">
      <!-- $\mathdefault{10^{-2}}$ -->
      <g transform="translate(27.1 249.05333) scale(0.1 -0.1)">
       <defs>
        <path id="DejaVuSans-2212" d="M 678 2272 
L 4684 2272 
L 4684 1741 
L 678 1741 
L 678 2272 
z
" transform="scale(0.015625)"/>
        <path id="DejaVuSans-32" d="M 1228 531 
L 3431 531 
L 3431 0 
L 469 0 
L 469 531 
Q 828 903 1448 1529 
Q 2069 2156 2228 2338 
Q 2531 2678 2651 2914 
Q 2772 3150 2772 3378 
Q 2772 3750 2511 3984 
Q 2250 4219 1831 4219 
Q 1534 4219 1204 4116 
Q 875 4013 500 3803 
L 500 4441 
Q 881 4594 1212 4672 
Q 1544 4750 1819 4750 
Q 2544 4750 2975 4387 
Q 3406 4025 3406 3419 
Q 3406 3131 3298 2873 
Q 3191 2616 2906 2266 
Q 2828 2175 2409 1742 
Q 1991 1309 1228 531 
z
" transform="scale(0.015625)"/>
       </defs>
       <use xlink:href="#DejaVuSans-31" transform="translate(0 0.765625)"/>
       <use xlink:href="#DejaVuSans-30" transform="translate(63.623047 0.765625)"/>
       <use xlink:href="#DejaVuSans-2212" transform="translate(128.203125 39.046875) scale(0.7)"/>
       <use xlink:href="#DejaVuSans-32" transform="translate(186.855469 39.046875) scale(0.7)"/>
      </g>
     </g>
    </g>
    <g id="ytick_2">
     <g id="line2d_16">
      <g>
       <use xlink:href="#m68f7fc350d" x="57.6" y="88.622741" style="stroke: #000000; stroke-width: 0.8"/>
      </g>
     </g>
     <g id="text_5">
      <!-- $\mathdefault{10^{-1}}$ -->
      <g transform="translate(27.1 92.421959) scale(0.1 -0.1)">
       <use xlink:href="#DejaVuSans-31" transform="translate(0 0.684375)"/>
       <use xlink:href="#DejaVuSans-30" transform="translate(63.623047 0.684375)"/>
       <use xlink:href="#DejaVuSans-2212" transform="translate(128.203125 38.965625) scale(0.7)"/>
       <use xlink:href="#DejaVuSans-31" transform="translate(186.855469 38.965625) scale(0.7)"/>
      </g>
     </g>
    </g>
    <g id="ytick_3">
     <g id="line2d_17">
      <defs>
       <path id="ma941763c32" d="M 0 0 
L -2 0 
" style="stroke: #000000; stroke-width: 0.6"/>
      </defs>
      <g>
       <use xlink:href="#ma941763c32" x="57.6" y="307.584" style="stroke: #000000; stroke-width: 0.6"/>
      </g>
     </g>
    </g>
    <g id="ytick_4">
     <g id="line2d_18">
      <g>
       <use xlink:href="#ma941763c32" x="57.6" y="292.404852" style="stroke: #000000; stroke-width: 0.6"/>
      </g>
     </g>
    </g>
    <g id="ytick_5">
     <g id="line2d_19">
      <g>
       <use xlink:href="#ma941763c32" x="57.6" y="280.002585" style="stroke: #000000; stroke-width: 0.6"/>
      </g>
     </g>
    </g>
    <g id="ytick_6">
     <g id="line2d_20">
      <g>
       <use xlink:href="#ma941763c32" x="57.6" y="269.516617" style="stroke: #000000; stroke-width: 0.6"/>
      </g>
     </g>
    </g>
    <g id="ytick_7">
     <g id="line2d_21">
      <g>
       <use xlink:href="#ma941763c32" x="57.6" y="260.433259" style="stroke: #000000; stroke-width: 0.6"/>
      </g>
     </g>
    </g>
    <g id="ytick_8">
     <g id="line2d_22">
      <g>
       <use xlink:href="#ma941763c32" x="57.6" y="252.42117" style="stroke: #000000; stroke-width: 0.6"/>
      </g>
     </g>
    </g>
    <g id="ytick_9">
     <g id="line2d_23">
      <g>
       <use xlink:href="#ma941763c32" x="57.6" y="198.10337" style="stroke: #000000; stroke-width: 0.6"/>
      </g>
     </g>
    </g>
    <g id="ytick_10">
     <g id="line2d_24">
      <g>
       <use xlink:href="#ma941763c32" x="57.6" y="170.521955" style="stroke: #000000; stroke-width: 0.6"/>
      </g>
     </g>
    </g>
    <g id="ytick_11">
     <g id="line2d_25">
      <g>
       <use xlink:href="#ma941763c32" x="57.6" y="150.95263" style="stroke: #000000; stroke-width: 0.6"/>
      </g>
     </g>
    </g>
    <g id="ytick_12">
     <g id="line2d_26">
      <g>
       <use xlink:href="#ma941763c32" x="57.6" y="135.773481" style="stroke: #000000; stroke-width: 0.6"/>
      </g>
     </g>
    </g>
    <g id="ytick_13">
     <g id="line2d_27">
      <g>
       <use xlink:href="#ma941763c32" x="57.6" y="123.371214" style="stroke: #000000; stroke-width: 0.6"/>
      </g>
     </g>
    </g>
    <g id="ytick_14">
     <g id="line2d_28">
      <g>
       <use xlink:href="#ma941763c32" x="57.6" y="112.885247" style="stroke: #000000; stroke-width: 0.6"/>
      </g>
     </g>
    </g>
    <g id="ytick_15">
     <g id="line2d_29">
      <g>
       <use xlink:href="#ma941763c32" x="57.6" y="103.801889" style="stroke: #000000; stroke-width: 0.6"/>
      </g>
     </g>
    </g>
    <g id="ytick_16">
     <g id="line2d_30">
      <g>
       <use xlink:href="#ma941763c32" x="57.6" y="95.789799" style="stroke: #000000; stroke-width: 0.6"/>
      </g>
     </g>
    </g>
    <g id="ytick_17">
     <g id="line2d_31">
      <g>
       <use xlink:href="#ma941763c32" x="57.6" y="41.472" style="stroke: #000000; stroke-width: 0.6"/>
      </g>
     </g>
    </g>
    <g id="text_6">
     <!-- loss -->
     <g transform="translate(21.020313 184.185812) rotate(-90) scale(0.1 -0.1)">
      <defs>
       <path id="DejaVuSans-6c" d="M 603 4863 
L 1178 4863 
L 1178 0 
L 603 0 
L 603 4863 
z
" transform="scale(0.015625)"/>
       <path id="DejaVuSans-6f" d="M 1959 3097 
Q 1497 3097 1228 2736 
Q 959 2375 959 1747 
Q 959 1119 1226 758 
Q 1494 397 1959 397 
Q 2419 397 2687 759 
Q 2956 1122 2956 1747 
Q 2956 2369 2687 2733 
Q 2419 3097 1959 3097 
z
M 1959 3584 
Q 2709 3584 3137 3096 
Q 3566 2609 3566 1747 
Q 3566 888 3137 398 
Q 2709 -91 1959 -91 
Q 1206 -91 779 398 
Q 353 888 353 1747 
Q 353 2609 779 3096 
Q 1206 3584 1959 3584 
z
" transform="scale(0.015625)"/>
       <path id="DejaVuSans-73" d="M 2834 3397 
L 2834 2853 
Q 2591 2978 2328 3040 
Q 2066 3103 1784 3103 
Q 1356 3103 1142 2972 
Q 928 2841 928 2578 
Q 928 2378 1081 2264 
Q 1234 2150 1697 2047 
L 1894 2003 
Q 2506 1872 2764 1633 
Q 3022 1394 3022 966 
Q 3022 478 2636 193 
Q 2250 -91 1575 -91 
Q 1294 -91 989 -36 
Q 684 19 347 128 
L 347 722 
Q 666 556 975 473 
Q 1284 391 1588 391 
Q 1994 391 2212 530 
Q 2431 669 2431 922 
Q 2431 1156 2273 1281 
Q 2116 1406 1581 1522 
L 1381 1569 
Q 847 1681 609 1914 
Q 372 2147 372 2553 
Q 372 3047 722 3315 
Q 1072 3584 1716 3584 
Q 2034 3584 2315 3537 
Q 2597 3491 2834 3397 
z
" transform="scale(0.015625)"/>
      </defs>
      <use xlink:href="#DejaVuSans-6c"/>
      <use xlink:href="#DejaVuSans-6f" x="27.783203"/>
      <use xlink:href="#DejaVuSans-73" x="88.964844"/>
      <use xlink:href="#DejaVuSans-73" x="141.064453"/>
     </g>
    </g>
   </g>
   <g id="line2d_32">
    <path d="M 96.382271 -1 
L 96.838463 -0.436619 
L 100.562638 3.532161 
L 104.140817 7.971471 
L 107.584018 11.529013 
L 110.902055 15.790113 
L 114.103709 20.089746 
L 117.196869 23.497311 
L 123.085479 31.5396 
L 123.839744 35.068312 
L 126.624717 38.171661 
L 129.327236 39.905932 
L 131.952044 43.215108 
L 134.503485 44.768638 
L 136.985549 47.085923 
L 139.40191 50.671841 
L 141.755957 53.31932 
L 144.050822 56.198025 
L 146.289409 58.818374 
L 148.474413 58.162288 
L 150.608337 58.364531 
L 152.693517 60.643465 
L 154.732129 62.559449 
L 156.726208 66.053756 
L 160.588264 70.224924 
L 162.459701 70.511256 
L 164.293541 73.844955 
L 166.091267 76.103949 
L 167.854273 78.828168 
L 169.583875 79.068823 
L 171.281314 79.909537 
L 172.947767 82.132312 
L 174.584343 83.863984 
L 176.192095 83.994051 
L 177.77202 85.992212 
L 179.325067 88.607908 
L 180.852133 91.594371 
L 182.354074 90.648955 
L 183.831704 90.196095 
L 185.285796 90.800415 
L 186.71709 92.156447 
L 187.093535 90.458983 
L 189.879171 96.923999 
L 191.240749 95.882934 
L 192.582316 97.515257 
L 193.904452 99.552008 
L 195.207713 100.261125 
L 197.759712 101.258173 
L 199.009447 104.023178 
L 200.242303 105.037671 
L 201.458732 104.33494 
L 202.659164 105.953371 
L 203.844015 107.106254 
L 205.013685 107.610576 
L 206.168557 109.844045 
L 207.309001 109.531319 
L 208.435374 111.787485 
L 209.548017 114.685775 
L 210.647263 113.717941 
L 211.733429 111.944183 
L 212.806824 108.224921 
L 213.867744 110.245094 
L 214.916475 110.29279 
L 216.978472 115.448176 
L 217.992263 116.371983 
L 218.99492 119.176618 
L 219.986683 115.866463 
L 220.967787 118.16846 
L 221.938459 116.177502 
L 222.898919 114.985274 
L 223.849378 116.954634 
L 224.100189 118.592609 
L 225.038286 118.224798 
L 225.966842 113.502801 
L 226.886047 116.710124 
L 228.697148 121.811866 
L 229.5894 121.51897 
L 230.473015 123.745159 
L 231.34816 125.133964 
L 232.214994 124.325434 
L 233.073675 126.08138 
L 233.924353 127.126624 
L 234.767178 129.06245 
L 236.429836 133.672041 
L 238.062753 135.905775 
L 238.868387 135.917631 
L 239.666973 134.420604 
L 240.458634 130.136287 
L 241.243488 124.277155 
L 242.021652 124.869026 
L 242.793239 119.532211 
L 243.558358 118.756944 
L 244.317119 112.527012 
L 245.069624 110.163508 
L 245.815977 112.161255 
L 246.556278 112.611645 
L 247.290623 114.380037 
L 248.019108 116.675417 
L 248.741826 118.291965 
L 249.458867 117.957911 
L 250.170319 117.024413 
L 250.358371 119.85266 
L 251.062874 122.03809 
L 251.761983 124.869452 
L 252.455778 126.09403 
L 253.14434 126.611139 
L 253.827747 125.918893 
L 254.506076 128.039739 
L 255.179401 131.30984 
L 255.847797 131.213496 
L 256.511334 132.20807 
L 257.170083 130.043818 
L 257.824112 130.663587 
L 258.473489 130.990799 
L 259.118279 132.714281 
L 259.758547 126.147268 
L 260.394356 125.64679 
L 261.65284 131.678642 
L 262.275635 132.930664 
L 262.89421 129.038097 
L 263.508622 130.979461 
L 264.118926 132.418398 
L 264.725177 130.622728 
L 265.327428 131.83877 
L 266.520141 122.541987 
L 267.697471 127.390641 
L 268.280491 128.519732 
L 268.85981 131.072037 
L 269.435477 129.31713 
L 270.007536 128.589924 
L 270.576032 127.554625 
L 270.726446 129.214901 
L 271.290497 130.652395 
L 271.851084 133.518245 
L 272.408249 131.771752 
L 273.512481 137.73921 
L 274.059628 138.111225 
L 274.603516 140.901719 
L 275.681664 136.485663 
L 276.216001 137.395615 
L 276.747228 138.613437 
L 277.275382 141.244644 
L 277.800497 141.432201 
L 278.322609 142.834706 
L 278.841752 142.610511 
L 279.35796 141.150069 
L 279.871265 141.858809 
L 280.381699 140.183118 
L 280.889296 139.093374 
L 281.394085 140.266407 
L 281.896099 133.940726 
L 282.891919 137.161887 
L 283.385785 138.080941 
L 283.876994 141.382428 
L 284.365573 143.502846 
L 284.851552 146.838913 
L 285.334957 149.135176 
L 285.815815 149.727861 
L 286.77 153.710891 
L 287.243378 156.156875 
L 287.368708 159.102997 
L 288.30688 163.633721 
L 288.772376 165.762063 
L 289.23551 168.415087 
L 289.696305 170.263646 
L 290.154787 167.093244 
L 290.610978 168.577246 
L 291.0649 168.668037 
L 291.516576 169.430773 
L 291.966028 166.714548 
L 292.413279 168.15601 
L 292.858349 159.690355 
L 293.301259 162.254335 
L 293.742031 165.494881 
L 294.180685 167.763617 
L 294.617241 169.416755 
L 295.051719 165.908911 
L 295.484139 166.220743 
L 295.914521 169.079952 
L 296.342883 166.165778 
L 296.769245 168.028915 
L 297.193624 162.081549 
L 297.616039 159.105522 
L 298.036509 158.348646 
L 298.455052 158.447059 
L 298.871683 157.891316 
L 299.286423 160.195372 
L 299.699286 146.292641 
L 301.332317 157.664031 
L 301.439733 159.723685 
L 302.644207 169.043817 
L 303.438451 175.281851 
L 304.225844 173.719074 
L 304.617008 175.711009 
L 305.006503 178.354616 
L 305.394344 175.817277 
L 305.780543 175.636584 
L 306.165116 173.793194 
L 306.548075 174.107639 
L 306.929435 176.839951 
L 307.687408 178.327487 
L 308.064047 181.110043 
L 308.439138 182.181978 
L 308.812695 180.243873 
L 309.18473 181.455836 
L 309.92428 176.301845 
L 310.291821 176.890412 
L 310.657888 178.171005 
L 311.022493 180.885602 
L 311.385647 180.40536 
L 311.747363 173.1165 
L 312.10765 170.977391 
L 312.466522 172.252471 
L 312.823988 175.187055 
L 313.18006 177.120364 
L 313.534748 177.431354 
L 313.628731 176.464465 
L 313.981684 177.987871 
L 314.683522 182.5321 
L 315.032427 184.171856 
L 315.380005 186.890965 
L 315.726264 187.697966 
L 316.071214 182.314232 
L 316.414866 180.065985 
L 316.757229 179.442163 
L 317.438127 184.272695 
L 317.776681 184.87742 
L 318.113984 184.958673 
L 318.450046 183.716647 
L 318.784874 180.926086 
L 319.45087 186.37891 
L 319.782055 175.676808 
L 321.094907 184.359258 
L 321.420191 184.685271 
L 321.74432 183.369394 
L 322.067302 183.483624 
L 322.389145 178.89104 
L 323.347923 184.049407 
L 323.665291 183.788428 
L 323.98156 182.652229 
L 324.296736 181.955089 
L 324.694077 186.1553 
L 325.629072 195.08954 
L 325.938621 197.533181 
L 326.247124 194.392642 
L 326.554588 196.333295 
L 327.166426 201.069937 
L 327.470814 198.689112 
L 327.77419 200.168131 
L 328.076562 200.768365 
L 328.678317 204.587459 
L 328.977714 196.696471 
L 329.276131 194.947161 
L 329.573577 196.42002 
L 329.870056 199.338462 
L 330.165576 199.16901 
L 330.460142 201.882944 
L 330.753761 171.047185 
L 331.046438 172.606677 
L 331.33818 172.705718 
L 332.495913 184.590704 
L 332.783066 184.976703 
L 333.069319 187.662314 
L 333.354678 187.545946 
L 333.639147 187.131224 
L 333.922732 189.20908 
L 333.997911 191.198931 
L 334.280386 193.397428 
L 334.56199 196.709097 
L 334.842727 196.788256 
L 335.679796 205.102183 
L 335.957121 204.051109 
L 336.233607 204.614252 
L 336.509258 205.817519 
L 337.331252 212.902445 
L 337.603614 211.891199 
L 337.875165 213.820033 
L 338.145911 208.838329 
L 338.415856 208.020047 
L 338.685005 209.784071 
L 338.953363 212.76756 
L 339.220935 213.688136 
L 339.487724 212.632074 
L 339.753736 200.356223 
L 340.018976 195.207086 
L 340.283446 195.385475 
L 340.547153 197.68187 
L 340.8101 197.259247 
L 341.072292 198.287768 
L 341.594428 200.78517 
L 341.85438 194.187845 
L 342.113594 195.556312 
L 342.372074 195.750234 
L 342.629824 198.103335 
L 342.698167 199.839315 
L 342.954999 202.100951 
L 343.211111 202.696162 
L 343.466506 201.729581 
L 343.721189 202.645903 
L 344.228433 208.477836 
L 344.481002 205.921569 
L 344.732874 207.683126 
L 344.984053 203.415049 
L 345.234543 203.277945 
L 345.484347 201.201455 
L 345.73347 203.231172 
L 345.981914 203.440755 
L 346.229685 204.847583 
L 346.476784 203.474538 
L 346.723217 203.960529 
L 346.968986 204.818927 
L 347.214095 207.044271 
L 347.458548 207.840692 
L 347.702348 207.82494 
L 347.945499 208.885225 
L 348.188003 206.101667 
L 348.429865 205.47903 
L 348.911676 208.612939 
L 349.151631 204.204152 
L 349.390957 202.703257 
L 349.629657 205.208059 
L 349.867734 205.773599 
L 350.105193 205.419429 
L 350.342035 207.052873 
L 351.34547 217.655051 
L 351.57912 217.994583 
L 351.812174 220.805614 
L 352.044634 220.058406 
L 353.198138 232.559931 
L 353.4271 231.891732 
L 353.655489 225.243183 
L 353.883308 223.4769 
L 354.11056 225.995258 
L 354.337248 225.664871 
L 354.563374 223.927699 
L 354.788942 225.635116 
L 355.013953 224.634073 
L 355.238411 225.747642 
L 355.462319 224.349937 
L 355.685679 224.698165 
L 355.908494 223.819 
L 356.352498 225.630709 
L 356.573693 223.406051 
L 356.794353 217.26695 
L 357.014481 217.755968 
L 357.23408 216.421547 
L 357.453152 216.662596 
L 357.671699 217.474952 
L 357.889724 220.153725 
L 357.94755 222.799152 
L 358.164918 218.710376 
L 358.38177 220.874366 
L 358.598108 221.832525 
L 358.813934 224.406343 
L 359.029251 223.844942 
L 359.458369 227.690714 
L 359.672173 224.402594 
L 359.885478 216.390612 
L 360.098286 200.614202 
L 360.310599 199.06569 
L 361.154946 211.210533 
L 361.364818 211.938739 
L 361.991555 219.762133 
L 362.199515 219.658994 
L 362.407002 222.314589 
L 362.614019 219.210322 
L 362.820567 220.608833 
L 363.026649 223.288715 
L 363.232266 221.118047 
L 363.642118 224.575001 
L 363.846355 223.568332 
L 364.050137 221.395346 
L 364.456341 226.461463 
L 364.658767 226.913616 
L 364.712461 229.67329 
L 365.517235 240.386275 
L 365.717325 241.41212 
L 365.916977 243.379131 
L 366.116193 240.960604 
L 366.314976 240.02349 
L 366.711248 243.354388 
L 366.90874 237.99302 
L 367.302448 240.030095 
L 367.498667 235.620076 
L 367.889844 238.949702 
L 368.473485 241.229102 
L 369.245914 250.717214 
L 369.438004 240.767035 
L 369.62969 238.725832 
L 369.820976 240.209024 
L 370.011861 239.150689 
L 370.202348 239.166413 
L 370.392438 241.737218 
L 370.582133 242.451697 
L 370.771435 244.759403 
L 370.960345 244.290207 
L 371.010458 243.685684 
L 371.574546 250.981133 
L 371.761803 247.408853 
L 371.948676 247.886554 
L 372.32128 241.369083 
L 372.507013 244.30896 
L 372.692369 244.41588 
L 372.87735 241.618173 
L 373.061956 241.479511 
L 373.430053 240.436042 
L 373.613546 238.165387 
L 373.796671 239.248157 
L 373.979429 224.146956 
L 374.343852 227.6339 
L 374.887773 234.54427 
L 375.068362 235.085519 
L 375.248595 236.949259 
L 375.607996 231.259964 
L 375.787168 234.147318 
L 376.322582 237.590918 
L 376.854873 244.212606 
L 376.901854 246.405156 
L 377.606422 248.978296 
L 377.781717 250.909092 
L 377.956676 250.830524 
L 378.131301 247.983686 
L 378.305593 249.160418 
L 378.479552 248.948491 
L 378.65318 247.429741 
L 378.826479 248.407911 
L 378.999449 246.007648 
L 379.172093 225.395803 
L 379.34441 226.112864 
L 380.030445 235.447888 
L 380.201152 235.158252 
L 380.880802 243.520487 
L 381.049927 244.594442 
L 381.218739 243.359914 
L 381.38724 238.915325 
L 381.723311 242.227469 
L 381.890884 241.96644 
L 382.058149 241.08418 
L 382.225109 241.696039 
L 382.391764 240.997582 
L 382.43598 244.073238 
L 382.76822 247.859497 
L 383.264322 254.490682 
L 383.429092 254.596019 
L 383.593566 252.751439 
L 383.757743 253.729448 
L 383.921626 253.282867 
L 384.085215 254.732678 
L 384.411516 260.125178 
L 384.736656 261.993373 
L 384.898792 261.020127 
L 385.544473 270.247113 
L 385.705182 263.849839 
L 385.865609 264.300688 
L 386.025754 266.393687 
L 386.185619 262.83462 
L 386.345204 264.642727 
L 386.504511 262.630842 
L 386.663541 262.764778 
L 386.822293 263.184759 
L 386.980771 262.301016 
L 387.138973 262.05067 
L 387.611943 267.318604 
L 387.653702 264.458658 
L 387.810744 264.675201 
L 388.124019 268.949909 
L 388.280254 271.325856 
L 388.436223 264.588565 
L 388.591925 266.813572 
L 388.747363 264.629546 
L 389.057445 268.137065 
L 389.366478 259.250793 
L 389.520604 260.443916 
L 389.981424 267.270551 
L 390.134515 266.063114 
L 390.28735 265.871351 
L 390.439929 267.501047 
L 390.592254 265.401017 
L 390.744325 265.314833 
L 390.896144 259.524711 
L 391.04771 258.952094 
L 391.350089 254.593155 
L 391.500904 254.439137 
L 391.651471 253.404238 
L 391.801789 246.278652 
L 391.95186 247.588811 
L 392.101685 246.837765 
L 392.251264 247.77723 
L 392.589251 253.893086 
L 392.738034 253.531438 
L 393.034875 258.663862 
L 393.330754 263.480033 
L 393.478335 261.372271 
L 393.625677 263.394383 
L 393.772782 262.237134 
L 394.066283 266.244374 
L 394.358843 268.439655 
L 394.504772 267.090247 
L 394.795933 270.13657 
L 394.941165 269.200347 
L 395.086167 266.896727 
L 395.375482 270.296296 
L 395.663883 272.748305 
L 395.951376 275.19371 
L 396.094783 268.079625 
L 396.237966 269.256753 
L 396.523659 273.736463 
L 396.666171 272.445065 
L 396.950529 275.874424 
L 397.092377 269.943298 
L 397.234004 269.583059 
L 397.271587 271.736962 
L 397.554069 275.113671 
L 397.694982 277.099676 
L 397.835679 277.47879 
L 398.535927 286.746032 
L 398.675334 275.918978 
L 398.814529 278.339521 
L 399.092283 273.197687 
L 399.230844 273.670253 
L 399.507336 276.247743 
L 399.645269 276.771877 
L 399.782994 263.365984 
L 399.920511 264.242173 
L 400.057822 266.823679 
L 400.194926 264.834525 
L 400.468518 267.893132 
L 400.605007 265.724898 
L 400.741293 266.010714 
L 401.148932 270.724697 
L 401.284409 271.580316 
L 401.55476 269.256537 
L 401.860053 275.242946 
L 401.994479 274.300958 
L 402.262739 278.982394 
L 402.396573 277.8732 
L 402.530212 274.365279 
L 403.062819 281.061039 
L 403.195487 277.794813 
L 403.327962 280.123392 
L 403.592337 277.672108 
L 403.855949 280.023506 
L 404.249944 285.396476 
L 404.642247 280.608912 
L 405.032871 286.28232 
L 405.162708 282.889708 
L 405.292361 285.267875 
L 405.42183 280.770011 
L 405.551116 281.93886 
L 405.680218 277.988808 
L 405.937878 281.540536 
L 406.100553 285.983156 
L 406.484999 289.398014 
L 406.612789 288.518794 
L 407.249068 296.015827 
L 407.375793 295.273254 
L 407.502343 297.590991 
L 407.628718 296.701571 
L 407.880943 292.388447 
L 408.006795 293.734515 
L 408.383313 288.357254 
L 408.633465 291.468067 
L 408.758284 291.402592 
L 408.882933 292.9633 
L 409.007412 292.251169 
L 409.131721 290.366434 
L 409.255862 292.669564 
L 409.379834 290.36414 
L 409.503637 291.206258 
L 409.627273 290.5671 
L 409.750742 290.908625 
L 409.874044 291.79201 
L 410.02986 286.82305 
L 410.520573 292.85307 
L 410.642841 285.082981 
L 410.886885 287.257152 
L 411.130279 290.055006 
L 411.251733 289.666737 
L 411.373025 291.598757 
L 411.494157 288.704251 
L 411.735939 292.355284 
L 411.85659 291.312201 
L 412.217591 298.006119 
L 412.457467 295.215582 
L 412.577169 297.011115 
L 412.696714 292.442985 
L 413.054414 297.427941 
L 413.173336 296.793645 
L 413.292104 299.118576 
L 413.410717 298.518369 
L 413.647483 301.624987 
L 413.765635 296.320349 
L 413.914954 297.517717 
L 414.385274 305.723401 
L 414.502476 306.260472 
L 414.73643 302.005639 
L 414.73643 302.005639 
" clip-path="url(#p7a90dcd4d6)" style="fill: none; stroke: #1f77b4; stroke-opacity: 0.4; stroke-linecap: square"/>
   </g>
   <g id="line2d_33">
    <path d="M 53.968492 70.880743 
L 59.854134 73.96143 
L 65.383184 78.714365 
L 70.596393 82.493513 
L 75.527904 86.540261 
L 80.206606 89.160181 
L 84.657159 93.001196 
L 88.900784 96.385364 
L 92.955871 98.638649 
L 96.838463 102.257013 
L 100.562638 104.008802 
L 104.140817 105.855193 
L 107.584018 109.199949 
L 110.902055 112.142546 
L 114.103709 113.51006 
L 117.196869 115.263669 
L 120.188647 110.715671 
L 123.085479 113.340088 
L 123.839744 116.105355 
L 126.624717 118.903084 
L 131.952044 123.091344 
L 134.503485 125.639192 
L 136.985549 125.134778 
L 139.40191 127.515809 
L 141.755957 125.650085 
L 144.050822 127.902829 
L 146.289409 130.463064 
L 148.474413 132.269135 
L 150.608337 129.387833 
L 152.693517 128.46644 
L 154.732129 130.846178 
L 156.726208 132.493301 
L 158.677659 135.151103 
L 166.091267 143.989831 
L 167.854273 144.341695 
L 169.583875 146.744643 
L 171.281314 148.768651 
L 172.947767 148.337116 
L 174.584343 150.215034 
L 176.192095 150.328698 
L 179.325067 154.221004 
L 180.852133 155.297782 
L 182.354074 156.179338 
L 183.831704 154.450238 
L 185.285796 155.780119 
L 186.71709 157.668418 
L 187.093535 156.865472 
L 188.496978 156.865495 
L 189.879171 157.901081 
L 191.240749 159.28512 
L 192.582316 159.342254 
L 193.904452 160.161763 
L 195.207713 161.567565 
L 197.759712 162.676234 
L 199.009447 164.232758 
L 200.242303 165.202902 
L 201.458732 164.666984 
L 202.659164 166.172405 
L 203.844015 163.833907 
L 205.013685 165.374629 
L 206.168557 166.190688 
L 207.309001 167.545224 
L 208.435374 169.454557 
L 209.548017 170.543542 
L 210.647263 171.448318 
L 211.733429 168.003873 
L 212.806824 168.219412 
L 213.867744 169.933634 
L 214.916475 170.91665 
L 215.953296 171.645805 
L 216.978472 172.217423 
L 217.992263 167.180827 
L 218.99492 168.820747 
L 219.986683 168.618597 
L 220.967787 165.467018 
L 221.938459 161.97475 
L 222.898919 163.94346 
L 223.849378 158.651299 
L 224.100189 158.90401 
L 225.038286 160.158175 
L 227.796089 165.804118 
L 228.697148 166.62933 
L 229.5894 168.339918 
L 230.473015 168.665028 
L 231.34816 169.495674 
L 232.214994 170.578412 
L 233.073675 172.170639 
L 233.924353 171.513411 
L 234.767178 172.984154 
L 235.602292 174.89288 
L 236.429836 175.92268 
L 237.249946 174.665984 
L 238.062753 175.360194 
L 238.868387 175.204535 
L 241.243488 179.504457 
L 242.021652 178.272291 
L 242.793239 176.700129 
L 244.317119 178.77096 
L 245.069624 175.256654 
L 245.815977 174.675725 
L 246.556278 176.606992 
L 247.290623 177.004866 
L 248.741826 179.393728 
L 249.458867 177.64384 
L 250.170319 177.806935 
L 250.358371 178.380395 
L 251.062874 177.986213 
L 251.761983 180.252325 
L 252.455778 176.705723 
L 253.14434 179.152784 
L 254.506076 182.097374 
L 255.179401 183.046129 
L 256.511334 187.986477 
L 257.170083 189.514228 
L 257.824112 191.89275 
L 258.473489 193.57311 
L 259.118279 193.983206 
L 259.758547 196.167896 
L 260.394356 192.556761 
L 261.025766 193.528201 
L 261.65284 193.256773 
L 262.275635 194.567738 
L 262.89421 196.721629 
L 263.508622 194.879682 
L 264.118926 196.77571 
L 264.725177 188.725693 
L 265.327428 183.774704 
L 266.520141 181.677362 
L 267.110704 182.596907 
L 267.697471 181.161527 
L 268.85981 186.587356 
L 269.435477 186.76208 
L 270.007536 189.431306 
L 270.576032 189.467891 
L 270.726446 190.216906 
L 271.290497 187.3151 
L 271.851084 189.892525 
L 272.408249 189.108449 
L 272.962035 191.825728 
L 273.512481 191.832781 
L 274.059628 194.552658 
L 275.144182 195.825437 
L 276.216001 196.758681 
L 276.747228 198.719869 
L 277.800497 204.003061 
L 278.322609 204.91658 
L 278.841752 207.531181 
L 279.35796 208.734776 
L 279.871265 210.887401 
L 280.381699 212.194842 
L 280.889296 212.652144 
L 281.394085 213.884974 
L 282.395367 218.168335 
L 282.891919 215.075038 
L 283.385785 216.954812 
L 283.876994 213.285494 
L 284.365573 211.956134 
L 285.334957 216.197208 
L 285.815815 215.930761 
L 286.294154 218.259853 
L 286.77 218.959333 
L 287.243378 216.613543 
L 287.368708 218.468442 
L 287.838999 220.452617 
L 288.772376 221.410184 
L 289.696305 225.977848 
L 290.154787 224.169985 
L 290.610978 216.69765 
L 291.0649 212.314496 
L 292.413279 218.270525 
L 292.858349 218.843396 
L 293.301259 220.175158 
L 293.742031 217.642693 
L 294.180685 220.055087 
L 294.617241 215.192185 
L 295.484139 218.35106 
L 295.914521 221.010618 
L 296.342883 221.52512 
L 296.769245 218.817262 
L 297.193624 220.115313 
L 297.616039 219.196761 
L 298.036509 220.77517 
L 298.455052 220.826642 
L 298.871683 219.581632 
L 299.286423 217.746731 
L 300.519453 223.585278 
L 300.926789 216.80113 
L 301.439733 220.517535 
L 301.842993 221.380623 
L 302.244479 221.100578 
L 302.644207 221.643108 
L 303.042193 223.619681 
L 303.438451 224.903923 
L 303.832996 226.625517 
L 304.225844 227.81107 
L 304.617008 228.532951 
L 305.006503 226.641159 
L 305.780543 229.242223 
L 306.165116 229.364114 
L 306.548075 231.207963 
L 306.929435 233.77443 
L 307.309208 233.472129 
L 307.687408 236.028847 
L 308.064047 237.514295 
L 308.439138 234.384543 
L 308.812695 236.609031 
L 309.18473 237.609054 
L 309.555254 237.896133 
L 309.92428 234.855773 
L 310.291821 237.261935 
L 310.657888 234.795644 
L 311.022493 234.509769 
L 311.385647 235.420402 
L 311.747363 235.090355 
L 312.10765 236.403293 
L 312.466522 226.064802 
L 312.823988 228.528469 
L 313.18006 230.015187 
L 313.534748 232.753542 
L 313.628731 234.904217 
L 313.981684 235.820764 
L 314.333277 238.431269 
L 315.032427 241.213283 
L 315.380005 241.91056 
L 315.726264 241.652932 
L 316.071214 243.828127 
L 316.414866 245.149786 
L 316.757229 241.835161 
L 317.098313 239.958321 
L 317.438127 240.805869 
L 318.113984 244.253395 
L 318.450046 239.163947 
L 319.11848 242.907779 
L 319.45087 244.824135 
L 319.782055 243.588913 
L 320.112042 245.663471 
L 320.440841 240.226712 
L 320.768459 242.621675 
L 321.094907 242.775563 
L 321.420191 241.887624 
L 321.74432 244.188047 
L 322.067302 236.27114 
L 322.389145 234.570985 
L 322.709858 233.783824 
L 323.029448 231.489313 
L 323.347923 232.024315 
L 323.665291 230.67627 
L 323.98156 231.850429 
L 325.006808 229.15258 
L 325.629072 233.69053 
L 325.938621 233.694262 
L 326.247124 228.659968 
L 326.554588 230.486454 
L 326.861019 231.014276 
L 327.470814 233.804178 
L 327.77419 232.996436 
L 328.377935 235.148194 
L 328.678317 237.261988 
L 328.977714 238.550196 
L 329.276131 238.699432 
L 329.573577 233.39307 
L 330.165576 236.576988 
L 330.460142 236.809278 
L 331.046438 241.012045 
L 331.628993 243.767766 
L 331.918882 240.014653 
L 332.207853 240.051343 
L 332.495913 242.616404 
L 332.783066 242.900799 
L 333.069319 241.369056 
L 333.354678 243.106695 
L 333.639147 240.998343 
L 333.922732 243.153568 
L 333.997911 245.280493 
L 334.280386 246.282949 
L 334.842727 249.832018 
L 335.122603 252.460249 
L 335.401625 250.788204 
L 335.957121 253.628233 
L 336.233607 254.437962 
L 336.509258 251.962519 
L 336.78408 252.92753 
L 337.331252 257.04185 
L 337.603614 258.828361 
L 337.875165 259.51774 
L 338.145911 259.859497 
L 338.415856 260.58085 
L 338.685005 262.121741 
L 338.953363 253.458485 
L 339.487724 250.470563 
L 339.753736 248.003861 
L 340.283446 250.41805 
L 340.547153 250.070846 
L 341.072292 254.57916 
L 341.333733 253.290799 
L 341.594428 253.495417 
L 341.85438 252.583115 
L 342.372074 256.597153 
L 342.629824 256.436743 
L 342.698167 258.920912 
L 342.954999 259.258551 
L 343.211111 261.489675 
L 343.466506 258.93038 
L 343.721189 260.750749 
L 343.975164 256.317351 
L 344.228433 256.891246 
L 344.984053 262.880593 
L 345.234543 263.703691 
L 345.484347 263.902174 
L 345.73347 261.104515 
L 345.981914 262.433794 
L 346.723217 268.236849 
L 346.968986 269.133723 
L 347.214095 265.653108 
L 347.458548 266.130928 
L 347.702348 264.605315 
L 347.945499 266.669501 
L 348.188003 263.962382 
L 348.671088 267.645624 
L 348.911676 268.114174 
L 349.151631 265.092374 
L 349.390957 264.493827 
L 349.867734 268.167956 
L 350.105193 263.76286 
L 350.876368 269.868924 
L 351.34547 272.59391 
L 351.57912 270.953163 
L 352.044634 273.815167 
L 352.276504 274.069303 
L 352.507786 273.91319 
L 352.738484 275.753191 
L 352.9686 276.683111 
L 353.198138 276.725297 
L 353.4271 268.009076 
L 353.883308 272.244353 
L 354.337248 273.612357 
L 354.788942 277.30051 
L 355.238411 276.645568 
L 355.462319 266.513888 
L 355.685679 266.355938 
L 355.908494 268.744447 
L 356.130766 266.183957 
L 356.352498 266.535405 
L 357.014481 269.071089 
L 357.671699 274.500602 
L 357.889724 274.009992 
L 357.94755 276.17503 
L 358.164918 275.454919 
L 358.38177 275.365561 
L 358.598108 274.425554 
L 358.813934 274.699528 
L 359.029251 273.039252 
L 359.244062 274.052744 
L 359.458369 276.41884 
L 359.672173 275.266941 
L 359.885478 275.650839 
L 360.098286 276.870786 
L 360.522419 280.914403 
L 360.94459 283.080027 
L 361.154946 284.801377 
L 361.574209 273.089924 
L 361.78312 268.004961 
L 362.407002 271.955718 
L 362.614019 269.844761 
L 362.820567 270.443066 
L 363.026649 270.323796 
L 363.232266 272.113627 
L 363.437422 270.196935 
L 363.642118 269.451723 
L 363.846355 270.648668 
L 364.050137 270.641078 
L 364.456341 271.262323 
L 364.658767 273.166795 
L 364.712461 275.409545 
L 365.115735 279.206236 
L 365.316706 281.380491 
L 365.517235 282.144355 
L 365.717325 281.975721 
L 365.916977 282.645333 
L 367.302448 290.909722 
L 367.498667 285.873865 
L 367.694465 285.535953 
L 367.889844 270.367479 
L 368.084806 270.293137 
L 368.473485 272.75216 
L 368.667206 271.866805 
L 368.860516 270.150361 
L 369.053418 272.406476 
L 369.245914 271.942243 
L 369.820976 278.296623 
L 370.011861 279.151791 
L 370.202348 278.729875 
L 370.392438 280.621054 
L 370.582133 279.185284 
L 370.771435 281.497511 
L 370.960345 279.048531 
L 371.010458 279.080557 
L 371.198875 277.848758 
L 371.574546 280.840891 
L 371.948676 275.055018 
L 372.135168 275.749388 
L 372.692369 282.308885 
L 373.061956 279.553447 
L 373.430053 281.14786 
L 373.613546 278.175049 
L 373.796671 279.531125 
L 373.979429 278.051472 
L 374.706826 286.648697 
L 374.887773 283.000456 
L 375.068362 282.213233 
L 375.248595 282.99108 
L 375.428472 282.731384 
L 375.607996 281.645111 
L 375.965988 285.075861 
L 376.144459 283.608044 
L 376.500357 287.807863 
L 376.677787 285.385251 
L 376.901854 289.297601 
L 377.078507 287.366464 
L 377.606422 292.432217 
L 377.781717 290.551556 
L 377.956676 291.487146 
L 378.131301 287.229477 
L 378.479552 287.854958 
L 378.999449 291.637414 
L 379.172093 289.103541 
L 379.34441 289.330547 
L 379.688072 292.213271 
L 379.859419 294.18532 
L 380.030445 294.333049 
L 380.371539 297.120293 
L 380.541609 296.458198 
L 380.711363 289.8702 
L 380.880802 291.386995 
L 381.049927 291.337384 
L 381.218739 287.787121 
L 381.38724 286.946427 
L 381.890884 289.764022 
L 382.225109 293.757125 
L 382.391764 294.014549 
L 382.43598 291.869634 
L 382.602251 293.413211 
L 382.76822 287.649404 
L 383.593566 296.301752 
L 383.757743 293.511508 
L 383.921626 292.719748 
L 384.574231 297.818051 
L 384.736656 298.030724 
L 384.898792 299.666962 
L 385.060641 299.443384 
L 385.222203 299.437665 
L 385.38348 296.250568 
L 385.544473 296.929775 
L 385.705182 298.640141 
L 386.025754 296.509623 
L 386.663541 302.90072 
L 386.822293 297.104465 
L 387.138973 299.97783 
L 387.454558 302.948669 
L 387.611943 299.405712 
L 387.653702 300.817206 
L 387.810744 301.744756 
L 388.280254 306.400147 
L 388.747363 309.437016 
L 388.902536 305.796973 
L 389.057445 306.933851 
L 389.212093 306.15855 
L 389.366478 306.304699 
L 389.520604 304.939908 
L 389.981424 309.54572 
L 390.134515 308.62036 
L 390.28735 308.445253 
L 390.592254 311.461142 
L 390.744325 312.15941 
L 390.896144 310.397857 
L 391.04771 312.128055 
L 391.199025 312.294352 
L 391.350089 307.485357 
L 391.651471 309.753096 
L 391.801789 311.235778 
L 391.95186 305.932393 
L 392.101685 305.374685 
L 392.251264 306.764958 
L 392.400599 306.284992 
L 392.54969 305.376265 
L 392.589251 303.480278 
L 392.886575 306.709966 
L 393.034875 305.266521 
L 393.625677 311.873824 
L 393.772782 313.638946 
L 393.91965 311.735773 
L 394.504772 316.598218 
L 394.795933 314.028961 
L 395.086167 308.985812 
L 395.519796 313.355048 
L 395.663883 314.899018 
L 395.951376 306.464131 
L 396.094783 306.276833 
L 396.237966 299.102187 
L 396.523659 301.497676 
L 396.666171 296.065113 
L 396.808461 297.143761 
L 396.950529 297.255012 
L 397.092377 298.241153 
L 397.234004 295.466937 
L 397.271587 295.892151 
L 397.694982 298.621215 
L 397.976159 301.555831 
L 398.116423 301.575005 
L 398.675334 308.470998 
L 399.230844 311.996255 
L 399.369195 310.548058 
L 399.507336 311.190309 
L 399.782994 313.846371 
L 399.920511 312.767317 
L 400.194926 312.552335 
L 400.605007 316.556517 
L 400.741293 314.569442 
L 401.013255 316.542307 
L 401.148932 312.816404 
L 401.284409 312.352667 
L 401.419684 313.904983 
L 401.55476 314.156613 
L 401.689636 313.465858 
L 401.725429 308.072391 
L 401.860053 308.956747 
L 401.994479 307.160658 
L 402.796904 316.187057 
L 402.929959 313.287925 
L 403.327962 316.644008 
L 403.460245 317.268766 
L 403.592337 319.077996 
L 403.724238 318.055165 
L 404.118801 322.053643 
L 404.249944 323.392542 
L 404.380899 319.343703 
L 404.772641 322.596286 
L 404.902848 323.305236 
L 405.032871 324.661119 
L 405.162708 324.307948 
L 405.292361 320.433426 
L 405.551116 322.200923 
L 405.680218 321.771659 
L 405.809139 322.639554 
L 405.972043 321.720324 
L 406.100553 322.060056 
L 406.228881 323.226794 
L 406.35703 318.41779 
L 406.484999 319.419959 
L 406.612789 315.526778 
L 406.7404 317.516959 
L 406.867833 317.688679 
L 407.122166 319.757582 
L 407.502343 323.172976 
L 407.754917 321.666198 
L 407.880943 321.418717 
L 408.132473 322.003574 
L 408.257979 322.74829 
L 408.383313 322.195317 
L 408.508474 320.445216 
L 408.758284 314.689465 
L 409.255862 317.732078 
L 409.503637 318.170396 
L 409.627273 315.308455 
L 410.02986 319.37013 
L 410.152786 317.236454 
L 410.520573 321.298583 
L 410.642841 321.215127 
L 410.886885 323.977849 
L 411.008663 323.722458 
L 411.130279 322.561241 
L 411.494157 326.609325 
L 411.615128 326.861307 
L 411.735939 326.552853 
L 411.85659 326.932841 
L 412.097416 328.889328 
L 412.217591 329.034864 
L 412.337607 329.961814 
L 412.577169 328.231486 
L 412.696714 325.970452 
L 412.816103 326.996263 
L 413.054414 321.548796 
L 413.292104 324.41565 
L 413.410717 324.338592 
L 413.529177 324.64002 
L 413.647483 324.464709 
L 413.883636 321.362114 
L 414.032761 323.842879 
L 414.150417 323.678992 
L 414.385274 325.433937 
L 414.502476 325.570595 
L 414.73643 328.595714 
L 414.73643 328.595714 
" clip-path="url(#p7a90dcd4d6)" style="fill: none; stroke: #ff7f0e; stroke-opacity: 0.4; stroke-linecap: square"/>
   </g>
   <g id="line2d_34">
    <path d="M 53.968492 74.955973 
L 59.854134 78.578478 
L 65.383184 80.105019 
L 70.596393 79.281576 
L 75.527904 83.991164 
L 80.206606 80.986894 
L 84.657159 84.036206 
L 88.900784 88.162058 
L 92.955871 90.666278 
L 96.838463 88.489999 
L 104.140817 94.198637 
L 107.584018 95.039443 
L 110.902055 98.107658 
L 114.103709 95.916763 
L 117.196869 98.904054 
L 120.188647 102.221796 
L 123.085479 98.303313 
L 123.839744 95.744707 
L 129.327236 102.542452 
L 131.952044 104.913664 
L 134.503485 104.447076 
L 136.985549 107.242164 
L 139.40191 108.601977 
L 141.755957 111.890951 
L 144.050822 112.585985 
L 146.289409 115.541643 
L 148.474413 118.630403 
L 150.608337 113.741638 
L 152.693517 114.168705 
L 154.732129 112.112606 
L 156.726208 114.716836 
L 158.677659 116.938678 
L 160.588264 116.003086 
L 162.459701 118.203648 
L 164.293541 120.945618 
L 166.091267 122.219301 
L 167.854273 125.201497 
L 169.583875 122.826731 
L 171.281314 125.686731 
L 172.947767 128.184959 
L 174.584343 129.606704 
L 176.192095 128.97698 
L 179.325067 133.759275 
L 180.852133 126.115806 
L 182.354074 128.575544 
L 183.831704 127.700247 
L 185.285796 126.487766 
L 186.71709 127.587033 
L 187.093535 127.321754 
L 188.496978 130.182719 
L 189.879171 131.288371 
L 191.240749 133.781431 
L 192.582316 129.756833 
L 193.904452 132.433766 
L 196.49263 135.541954 
L 197.759712 136.09625 
L 199.009447 137.205441 
L 200.242303 138.498417 
L 201.458732 135.002859 
L 202.659164 137.832609 
L 203.844015 136.67645 
L 205.013685 139.173999 
L 206.168557 135.496471 
L 207.309001 137.20673 
L 208.435374 134.62445 
L 209.548017 137.175293 
L 210.647263 138.06808 
L 211.733429 138.262488 
L 213.867744 143.13487 
L 214.916475 143.870238 
L 215.953296 145.898816 
L 216.978472 147.488533 
L 217.992263 148.05003 
L 218.99492 140.814165 
L 219.986683 141.864108 
L 220.967787 143.26388 
L 221.938459 140.762984 
L 222.898919 143.095638 
L 224.100189 134.657326 
L 225.038286 136.764169 
L 227.796089 145.059708 
L 228.697148 141.63758 
L 229.5894 141.427237 
L 230.473015 138.441197 
L 231.34816 140.494278 
L 232.214994 140.588087 
L 233.073675 143.073435 
L 233.924353 143.162753 
L 234.767178 145.658725 
L 235.602292 140.966736 
L 237.249946 146.316381 
L 238.062753 138.536594 
L 238.868387 138.852383 
L 239.666973 140.268931 
L 241.243488 144.739096 
L 242.021652 147.614344 
L 242.793239 147.871826 
L 243.558358 148.411476 
L 244.317119 150.511611 
L 245.069624 147.009711 
L 245.815977 146.617652 
L 246.556278 149.350278 
L 247.290623 146.382328 
L 248.019108 138.651385 
L 249.458867 143.184512 
L 250.170319 145.968697 
L 250.358371 148.695203 
L 251.761983 154.038178 
L 252.455778 155.307654 
L 253.827747 156.904514 
L 254.506076 157.384751 
L 255.179401 151.105356 
L 255.847797 151.960976 
L 257.824112 159.831476 
L 258.473489 158.252403 
L 259.118279 158.869271 
L 259.758547 160.519688 
L 260.394356 152.225144 
L 261.025766 154.611025 
L 261.65284 155.790473 
L 262.275635 158.524829 
L 262.89421 158.401725 
L 263.508622 160.571603 
L 264.118926 163.164081 
L 264.725177 162.200703 
L 265.327428 164.212385 
L 265.925733 165.274992 
L 266.520141 161.028616 
L 267.110704 161.257557 
L 267.697471 163.934986 
L 268.280491 166.069512 
L 268.85981 164.844103 
L 269.435477 162.399132 
L 270.007536 164.189244 
L 270.576032 161.172149 
L 270.726446 161.233206 
L 271.290497 162.344789 
L 272.408249 167.130937 
L 272.962035 164.67089 
L 273.512481 167.070114 
L 274.059628 166.189461 
L 274.603516 166.624448 
L 275.144182 168.950994 
L 275.681664 165.778343 
L 276.216001 167.570388 
L 276.747228 166.313799 
L 277.275382 167.891977 
L 277.800497 162.561054 
L 278.322609 158.65222 
L 278.841752 160.400386 
L 279.35796 159.506268 
L 279.871265 161.415184 
L 280.381699 163.950018 
L 280.889296 165.537654 
L 281.394085 164.32609 
L 281.896099 161.616752 
L 282.395367 163.497948 
L 282.891919 166.178451 
L 283.385785 165.978834 
L 283.876994 166.122754 
L 284.365573 163.89584 
L 284.851552 166.169437 
L 285.334957 164.284525 
L 286.294154 169.817305 
L 286.77 171.892596 
L 287.368708 161.595247 
L 287.838999 161.970707 
L 288.30688 160.1789 
L 288.772376 159.279766 
L 289.23551 160.63803 
L 289.696305 159.789712 
L 290.154787 160.257978 
L 290.610978 161.540609 
L 291.0649 164.026266 
L 291.516576 163.833007 
L 291.966028 166.56814 
L 292.413279 167.509749 
L 293.301259 169.857247 
L 294.180685 174.115299 
L 294.617241 169.363945 
L 295.051719 169.925017 
L 295.484139 168.954469 
L 296.342883 173.808715 
L 296.769245 170.388041 
L 298.036509 175.686002 
L 298.455052 173.145735 
L 299.286423 175.498473 
L 299.699286 172.628092 
L 300.11029 174.095664 
L 300.926789 179.133534 
L 301.332317 173.049768 
L 301.439733 174.254515 
L 301.842993 176.108681 
L 302.244479 179.015474 
L 303.042193 182.813229 
L 303.832996 180.993759 
L 304.225844 180.35625 
L 304.617008 172.323701 
L 305.394344 177.774488 
L 305.780543 178.013593 
L 306.548075 182.715154 
L 306.929435 176.881172 
L 307.309208 177.438479 
L 307.687408 179.973151 
L 308.064047 177.185514 
L 308.439138 178.200723 
L 309.555254 182.911426 
L 309.92428 183.488037 
L 310.291821 186.151571 
L 310.657888 183.836446 
L 311.022493 185.92897 
L 311.385647 184.694222 
L 311.747363 186.462514 
L 312.10765 180.824895 
L 312.466522 180.826417 
L 313.534748 186.702414 
L 313.628731 186.798479 
L 313.981684 187.497296 
L 314.333277 184.623219 
L 314.683522 182.988636 
L 315.032427 183.336082 
L 315.380005 182.870638 
L 315.726264 184.292018 
L 316.414866 182.084283 
L 316.757229 184.933802 
L 317.438127 177.137419 
L 317.776681 175.459258 
L 318.113984 177.975598 
L 318.450046 179.454019 
L 318.784874 178.260202 
L 319.45087 183.211214 
L 319.782055 179.829158 
L 320.112042 181.367415 
L 320.768459 186.859086 
L 321.094907 185.470221 
L 321.420191 186.716502 
L 322.389145 193.278427 
L 322.709858 192.532842 
L 323.029448 194.869367 
L 323.347923 196.276539 
L 323.665291 194.552936 
L 323.98156 194.630448 
L 324.380272 192.583677 
L 325.006808 194.973619 
L 325.31847 195.659118 
L 325.629072 198.203547 
L 325.938621 199.677403 
L 326.247124 198.396724 
L 326.554588 200.710435 
L 326.861019 200.40502 
L 327.166426 202.115804 
L 327.77419 204.068745 
L 328.076562 204.940058 
L 328.377935 206.554619 
L 328.678317 206.456696 
L 329.276131 209.756682 
L 329.573577 211.305091 
L 329.870056 212.014532 
L 330.165576 213.863675 
L 330.460142 214.774185 
L 330.753761 216.366039 
L 331.046438 212.168393 
L 331.33818 213.875113 
L 331.628993 210.265798 
L 331.918882 210.086796 
L 332.207853 210.60618 
L 332.495913 212.229794 
L 332.783066 211.515938 
L 333.922732 218.782029 
L 333.997911 220.785384 
L 334.280386 220.559953 
L 334.56199 219.699112 
L 334.842727 219.59181 
L 335.122603 221.948918 
L 335.401625 220.864841 
L 335.679796 215.049315 
L 335.957121 217.539216 
L 336.233607 217.761394 
L 336.509258 217.425658 
L 336.78408 218.752934 
L 337.603614 224.149768 
L 337.875165 225.335144 
L 338.145911 224.055544 
L 339.220935 231.271749 
L 339.753736 231.232977 
L 340.018976 230.013436 
L 340.283446 230.76043 
L 340.547153 229.333602 
L 341.072292 232.640566 
L 341.333733 232.454845 
L 341.594428 234.227637 
L 341.85438 230.067349 
L 342.113594 230.477262 
L 342.372074 231.14822 
L 342.629824 232.748346 
L 342.698167 233.882271 
L 342.954999 235.470345 
L 343.211111 235.724626 
L 343.466506 237.803886 
L 343.721189 237.935708 
L 343.975164 239.65924 
L 344.228433 240.104063 
L 344.481002 235.919383 
L 344.984053 239.200931 
L 345.234543 238.648859 
L 345.484347 240.06499 
L 345.73347 237.518348 
L 346.229685 240.79333 
L 346.723217 232.187073 
L 346.968986 231.635082 
L 347.214095 232.796451 
L 347.458548 233.255621 
L 347.702348 227.567111 
L 347.945499 228.630309 
L 348.429865 232.814089 
L 348.671088 234.043278 
L 349.629657 241.70144 
L 349.867734 242.212592 
L 350.105193 242.017787 
L 350.342035 242.99938 
L 350.64091 243.493216 
L 351.11122 246.516 
L 351.34547 247.337917 
L 351.812174 250.658427 
L 352.044634 249.842269 
L 352.276504 251.404278 
L 352.507786 251.63339 
L 352.738484 243.076535 
L 353.4271 249.049592 
L 353.655489 249.916665 
L 353.883308 249.587965 
L 354.11056 245.976391 
L 354.788942 250.004388 
L 355.013953 242.754535 
L 355.238411 244.753523 
L 355.462319 242.885531 
L 355.685679 242.422413 
L 355.908494 244.534645 
L 356.130766 244.032771 
L 356.352498 246.273714 
L 356.573693 245.660727 
L 356.794353 244.611268 
L 357.014481 240.118091 
L 357.23408 241.742419 
L 357.453152 237.849165 
L 357.671699 237.543343 
L 357.889724 236.295264 
L 357.94755 238.613718 
L 358.813934 245.03135 
L 359.029251 245.831028 
L 359.244062 246.011922 
L 359.458369 245.71078 
L 359.672173 246.956927 
L 359.885478 247.043913 
L 360.098286 245.312873 
L 360.310599 246.264033 
L 360.733748 250.047755 
L 360.94459 248.99498 
L 361.78312 236.770305 
L 361.991555 239.049913 
L 362.199515 238.996624 
L 362.614019 242.951341 
L 362.820567 242.191893 
L 363.026649 242.121779 
L 363.232266 243.935233 
L 363.437422 244.545742 
L 363.642118 246.808984 
L 364.253465 248.394443 
L 364.456341 249.454469 
L 364.658767 249.766615 
L 364.712461 251.249173 
L 364.914321 251.532102 
L 365.115735 252.06202 
L 365.717325 257.148238 
L 365.916977 257.935537 
L 366.116193 256.966466 
L 366.314976 257.88067 
L 366.513327 257.384344 
L 366.711248 257.908209 
L 367.105806 261.149891 
L 367.302448 260.572587 
L 367.498667 260.831003 
L 367.889844 263.336123 
L 368.084806 261.631824 
L 368.279353 262.793379 
L 368.473485 261.940816 
L 368.667206 262.180164 
L 368.860516 259.516176 
L 369.053418 261.352436 
L 369.245914 255.785285 
L 369.62969 258.769213 
L 370.011861 261.244948 
L 370.202348 261.581473 
L 370.392438 262.174693 
L 370.582133 264.120053 
L 370.771435 263.701565 
L 371.198875 259.972184 
L 371.574546 261.791601 
L 371.761803 261.706987 
L 371.948676 260.981099 
L 372.135168 262.383863 
L 372.507013 259.763823 
L 372.692369 261.594354 
L 372.87735 259.301437 
L 373.061956 261.373024 
L 373.24619 260.566816 
L 373.430053 260.89634 
L 373.796671 264.284386 
L 374.343852 260.64733 
L 374.525519 255.730468 
L 374.706826 257.732586 
L 374.887773 257.293734 
L 375.068362 253.339944 
L 375.248595 252.733421 
L 375.428472 253.65651 
L 376.500357 262.966937 
L 376.677787 263.443442 
L 376.901854 263.018867 
L 377.078507 263.955884 
L 377.606422 269.472322 
L 377.781717 270.216479 
L 377.956676 270.186921 
L 378.131301 267.230618 
L 378.305593 267.346631 
L 378.479552 268.448873 
L 378.65318 268.205206 
L 378.826479 269.951401 
L 378.999449 269.708224 
L 379.34441 270.061487 
L 379.859419 272.049873 
L 380.030445 271.97696 
L 380.201152 271.46498 
L 380.371539 272.452272 
L 380.541609 270.282248 
L 381.049927 274.162703 
L 381.218739 271.023108 
L 381.38724 273.195731 
L 381.55543 268.67981 
L 381.723311 270.280166 
L 381.890884 270.76671 
L 382.391764 273.598548 
L 382.43598 275.044764 
L 382.933887 279.239226 
L 383.264322 282.817029 
L 383.757743 270.991363 
L 384.085215 271.750623 
L 384.574231 276.603231 
L 384.736656 271.430834 
L 384.898792 273.181132 
L 385.060641 273.59437 
L 385.544473 278.147779 
L 385.705182 276.076638 
L 385.865609 275.722383 
L 386.025754 271.806321 
L 386.185619 273.657066 
L 386.345204 272.481072 
L 386.663541 275.414218 
L 386.822293 274.901915 
L 387.138973 276.547216 
L 387.611943 277.820044 
L 387.653702 279.610145 
L 387.810744 278.275097 
L 387.967516 278.153287 
L 388.280254 279.820939 
L 388.436223 281.423614 
L 388.591925 281.809888 
L 388.902536 283.700042 
L 389.212093 286.302614 
L 389.366478 286.843939 
L 389.674469 282.483362 
L 389.828075 284.294816 
L 389.981424 283.45705 
L 390.439929 287.753742 
L 390.592254 288.736104 
L 390.744325 286.299 
L 390.896144 286.720152 
L 391.350089 285.47951 
L 391.651471 288.282174 
L 391.801789 287.289534 
L 392.400599 291.342603 
L 392.54969 291.955568 
L 392.589251 289.382749 
L 392.886575 292.231651 
L 393.034875 291.120458 
L 393.182935 291.032944 
L 393.330754 286.256631 
L 393.478335 286.213305 
L 393.625677 285.940337 
L 394.066283 288.603498 
L 394.358843 285.377336 
L 394.504772 286.084503 
L 394.795933 288.552052 
L 394.941165 289.770544 
L 395.086167 288.074715 
L 395.375482 290.833568 
L 395.519796 290.903252 
L 395.663883 289.610141 
L 395.807742 286.125485 
L 395.951376 285.762415 
L 396.094783 286.978282 
L 396.237966 284.193007 
L 396.523659 287.714627 
L 396.666171 287.478407 
L 396.808461 289.434718 
L 397.234004 285.273512 
L 397.271587 287.224351 
L 397.554069 290.617467 
L 397.694982 283.019647 
L 397.976159 286.303014 
L 398.116423 282.864763 
L 398.675334 289.997761 
L 398.814529 288.763032 
L 399.230844 291.054902 
L 399.369195 287.71096 
L 399.507336 287.286281 
L 399.782994 290.059267 
L 399.920511 290.137026 
L 400.057822 290.373591 
L 400.194926 291.69967 
L 400.331824 290.970493 
L 400.468518 288.310683 
L 400.605007 288.509584 
L 400.741293 289.239943 
L 400.877375 286.876611 
L 401.013255 288.230656 
L 401.148932 281.649287 
L 401.419684 285.58603 
L 401.689636 283.6121 
L 401.860053 286.600831 
L 401.994479 288.199032 
L 402.262739 284.472655 
L 402.396573 286.289163 
L 402.530212 286.121194 
L 402.796904 289.607319 
L 402.929959 288.497772 
L 403.195487 291.905965 
L 403.327962 289.930376 
L 403.460245 284.964973 
L 403.592337 286.648693 
L 403.724238 286.869937 
L 403.855949 284.231049 
L 403.98747 286.009136 
L 404.118801 285.960826 
L 404.249944 287.301929 
L 404.380899 286.873746 
L 404.511667 287.288133 
L 404.772641 290.043073 
L 404.902848 289.738438 
L 405.032871 287.525321 
L 405.162708 287.763768 
L 405.292361 289.243217 
L 405.42183 288.138868 
L 405.551116 289.202663 
L 405.809139 293.292476 
L 405.937878 293.068084 
L 406.100553 295.94979 
L 406.228881 294.910627 
L 406.484999 298.29118 
L 406.612789 293.954074 
L 406.867833 296.901714 
L 406.995088 297.186648 
L 407.249068 299.527786 
L 407.375793 299.824262 
L 407.502343 299.314772 
L 407.628718 300.958036 
L 407.754917 301.105407 
L 408.006795 302.896135 
L 408.132473 304.565005 
L 408.257979 299.172748 
L 408.383313 298.60139 
L 408.633465 300.295768 
L 408.758284 298.30818 
L 408.882933 298.38229 
L 409.007412 297.768985 
L 409.131721 296.496459 
L 409.255862 297.649721 
L 409.379834 296.984866 
L 409.750742 299.685209 
L 409.874044 297.269289 
L 410.398142 303.059049 
L 410.520573 299.221286 
L 410.642841 298.921708 
L 410.764944 286.47515 
L 410.886885 287.531169 
L 411.251733 292.153062 
L 411.373025 293.479451 
L 411.494157 293.286629 
L 411.615128 293.906845 
L 411.977082 297.666858 
L 412.097416 296.321414 
L 413.292104 307.045956 
L 413.410717 303.777306 
L 413.529177 304.645467 
L 413.883636 308.216803 
L 413.914954 308.383611 
L 414.150417 310.919269 
L 414.267921 311.47177 
L 414.385274 312.865074 
L 414.502476 308.179158 
L 414.619528 308.243241 
L 414.73643 308.86287 
L 414.73643 308.86287 
" clip-path="url(#p7a90dcd4d6)" style="fill: none; stroke: #2ca02c; stroke-opacity: 0.4; stroke-linecap: square"/>
   </g>
   <g id="line2d_35">
    <path d="M 53.968492 84.971647 
L 59.854134 87.506952 
L 65.383184 89.449332 
L 70.596393 86.548196 
L 75.527904 90.741223 
L 80.206606 87.991152 
L 84.657159 91.375887 
L 88.900784 95.27455 
L 92.955871 96.369486 
L 96.838463 99.645531 
L 100.562638 102.977614 
L 104.140817 105.824279 
L 107.584018 107.90731 
L 110.902055 109.122202 
L 117.196869 113.014715 
L 120.188647 113.594717 
L 123.085479 115.598305 
L 123.839744 116.810956 
L 126.624717 119.823263 
L 129.327236 120.524817 
L 131.952044 121.496286 
L 134.503485 121.523478 
L 136.985549 123.675958 
L 139.40191 126.102072 
L 141.755957 127.778797 
L 144.050822 129.6674 
L 148.474413 135.195735 
L 150.608337 135.090206 
L 152.693517 132.659922 
L 154.732129 134.239892 
L 156.726208 136.716469 
L 158.677659 138.26651 
L 160.588264 137.942419 
L 162.459701 140.338409 
L 164.293541 142.290526 
L 166.091267 141.064284 
L 167.854273 139.437374 
L 169.583875 134.719527 
L 172.947767 139.566752 
L 174.584343 140.48099 
L 176.192095 142.352482 
L 179.325067 146.468428 
L 180.852133 143.279917 
L 182.354074 145.906188 
L 183.831704 147.887564 
L 186.71709 144.319906 
L 187.093535 144.122299 
L 188.496978 146.58202 
L 189.879171 147.030416 
L 191.240749 148.289993 
L 192.582316 147.51698 
L 193.904452 149.651592 
L 195.207713 149.974957 
L 196.49263 152.379717 
L 197.759712 155.016562 
L 199.009447 156.670334 
L 200.242303 152.978235 
L 201.458732 153.113199 
L 202.659164 154.53267 
L 203.844015 149.063394 
L 206.168557 153.714615 
L 207.309001 154.633506 
L 208.435374 156.39488 
L 209.548017 154.060985 
L 210.647263 156.340448 
L 211.733429 157.04258 
L 212.806824 159.369025 
L 213.867744 161.38397 
L 214.916475 156.006603 
L 215.953296 147.965747 
L 217.992263 151.937059 
L 218.99492 152.984949 
L 221.938459 158.684231 
L 222.898919 159.571718 
L 224.100189 153.60357 
L 225.038286 156.190928 
L 225.966842 158.227735 
L 226.886047 157.962327 
L 228.697148 160.508198 
L 229.5894 160.679002 
L 230.473015 158.533758 
L 231.34816 160.759319 
L 232.214994 157.750068 
L 233.073675 159.543373 
L 234.767178 163.559038 
L 236.429836 167.384743 
L 237.249946 168.238099 
L 238.062753 160.17899 
L 238.868387 158.573052 
L 239.666973 159.283302 
L 240.458634 161.536094 
L 241.243488 162.986971 
L 242.021652 162.179342 
L 242.793239 162.287151 
L 243.558358 162.555832 
L 244.317119 164.782328 
L 245.069624 165.814837 
L 245.815977 165.780906 
L 246.556278 167.901393 
L 247.290623 167.317547 
L 248.019108 156.08663 
L 248.741826 158.438592 
L 249.458867 158.027021 
L 250.170319 158.16909 
L 250.358371 159.988792 
L 251.062874 158.034091 
L 251.761983 160.623929 
L 252.455778 161.469043 
L 253.14434 162.911781 
L 253.827747 165.164094 
L 254.506076 166.641005 
L 255.179401 169.091064 
L 255.847797 169.471433 
L 256.511334 171.567878 
L 257.170083 167.524608 
L 257.824112 169.14814 
L 258.473489 162.367443 
L 259.118279 158.624763 
L 259.758547 160.134124 
L 260.394356 156.992908 
L 261.025766 159.120746 
L 261.65284 160.125573 
L 262.275635 162.557848 
L 262.89421 164.507713 
L 263.508622 166.008372 
L 264.118926 167.045381 
L 264.725177 167.090132 
L 265.327428 164.120693 
L 266.520141 164.922378 
L 267.110704 164.034265 
L 267.697471 165.575251 
L 268.280491 168.01191 
L 268.85981 169.635835 
L 269.435477 168.574626 
L 270.007536 168.180691 
L 270.576032 166.370964 
L 270.726446 168.207025 
L 271.851084 164.733517 
L 272.408249 166.973175 
L 272.962035 167.624501 
L 273.512481 167.177685 
L 274.059628 165.995716 
L 275.144182 170.426521 
L 275.681664 166.411421 
L 276.216001 168.988595 
L 276.747228 169.192107 
L 277.275382 170.627314 
L 277.800497 165.457423 
L 278.322609 164.377352 
L 278.841752 166.563473 
L 279.35796 165.379763 
L 279.871265 167.512966 
L 280.889296 169.800925 
L 281.394085 167.801211 
L 281.896099 168.069153 
L 282.395367 169.818406 
L 282.891919 168.36551 
L 283.385785 169.823176 
L 283.876994 172.231028 
L 284.365573 170.648388 
L 284.851552 173.110914 
L 285.334957 172.691617 
L 286.294154 177.378979 
L 286.77 177.954852 
L 287.243378 177.556228 
L 287.368708 172.041935 
L 287.838999 172.85031 
L 288.30688 171.631932 
L 288.772376 165.94376 
L 289.23551 166.115974 
L 289.696305 167.981687 
L 290.610978 170.172721 
L 291.0649 172.736047 
L 291.516576 174.492637 
L 291.966028 175.037987 
L 292.413279 171.271717 
L 292.858349 173.574682 
L 293.301259 171.465577 
L 293.742031 173.348287 
L 294.180685 176.005333 
L 294.617241 170.553477 
L 295.484139 170.728345 
L 296.342883 175.558344 
L 296.769245 172.308386 
L 297.193624 174.581609 
L 297.616039 173.938963 
L 298.036509 175.508982 
L 298.455052 174.440229 
L 298.871683 175.384415 
L 299.286423 177.70841 
L 299.699286 177.913398 
L 300.11029 177.559269 
L 300.926789 182.431913 
L 301.332317 174.940723 
L 301.439733 170.721958 
L 301.842993 169.992168 
L 302.644207 175.318712 
L 303.042193 174.727386 
L 303.438451 173.352393 
L 303.832996 170.842082 
L 304.225844 169.688849 
L 304.617008 169.478516 
L 305.006503 170.22125 
L 305.394344 173.057332 
L 305.780543 173.675194 
L 306.165116 174.675178 
L 306.548075 176.614562 
L 306.929435 171.096164 
L 307.687408 175.252319 
L 308.439138 171.569902 
L 308.812695 172.655728 
L 309.18473 174.368914 
L 309.555254 175.446236 
L 309.92428 174.158182 
L 310.291821 176.418524 
L 310.657888 176.76129 
L 311.022493 179.37492 
L 311.385647 178.891846 
L 311.747363 178.859418 
L 312.10765 175.342567 
L 312.466522 175.237032 
L 312.823988 176.581446 
L 313.18006 177.244901 
L 313.534748 179.104607 
L 313.628731 178.056563 
L 313.981684 179.744349 
L 314.333277 179.45716 
L 315.032427 182.526963 
L 315.380005 180.948242 
L 315.726264 181.197378 
L 316.071214 179.811212 
L 316.414866 179.195316 
L 316.757229 181.227529 
L 317.776681 171.783631 
L 318.113984 173.635191 
L 318.450046 174.750567 
L 318.784874 173.647441 
L 319.45087 177.671291 
L 319.782055 174.05301 
L 320.768459 180.035529 
L 321.094907 179.978171 
L 321.420191 182.635624 
L 321.74432 182.298265 
L 322.067302 182.946284 
L 322.389145 185.532183 
L 322.709858 179.66061 
L 323.347923 184.625182 
L 323.665291 186.719072 
L 323.98156 184.902954 
L 324.296736 187.34978 
L 324.380272 185.145474 
L 324.694077 185.843998 
L 325.006808 184.846446 
L 325.31847 184.968117 
L 325.629072 185.608896 
L 325.938621 183.222185 
L 326.554588 188.229015 
L 326.861019 187.459982 
L 327.470814 188.488265 
L 327.77419 183.372903 
L 328.076562 183.725444 
L 328.377935 185.969111 
L 328.678317 187.352825 
L 328.977714 189.823029 
L 329.276131 189.104334 
L 329.573577 191.667588 
L 329.870056 193.153937 
L 330.165576 195.408703 
L 330.460142 196.118027 
L 330.753761 191.180058 
L 331.046438 190.859075 
L 331.628993 194.868049 
L 331.918882 195.68526 
L 332.207853 190.596239 
L 332.495913 192.502165 
L 332.783066 191.54855 
L 333.069319 193.427489 
L 333.354678 191.433119 
L 333.922732 195.589605 
L 334.280386 191.68276 
L 334.56199 193.602279 
L 334.842727 192.723733 
L 335.401625 197.681985 
L 335.679796 195.862056 
L 335.957121 195.536936 
L 336.233607 196.988647 
L 336.509258 197.168296 
L 336.78408 196.89652 
L 337.331252 200.951073 
L 337.603614 201.269732 
L 337.875165 201.93629 
L 338.145911 204.163332 
L 338.415856 202.864984 
L 338.953363 207.081706 
L 339.487724 200.893341 
L 339.753736 202.322807 
L 340.018976 199.236805 
L 340.283446 200.273794 
L 340.547153 202.188292 
L 340.8101 202.974432 
L 341.594428 208.752492 
L 341.85438 207.738834 
L 342.113594 209.889216 
L 342.372074 210.839024 
L 342.629824 212.86483 
L 342.954999 204.921649 
L 343.211111 207.182522 
L 343.466506 204.285602 
L 343.721189 206.289094 
L 343.975164 205.537113 
L 344.228433 206.778374 
L 344.481002 209.106414 
L 344.984053 210.580718 
L 345.234543 205.651202 
L 345.484347 203.06214 
L 345.73347 204.927755 
L 345.981914 204.824706 
L 346.229685 200.031053 
L 346.476784 202.266626 
L 346.723217 201.042763 
L 346.968986 203.528249 
L 347.214095 203.052718 
L 347.458548 204.966618 
L 347.702348 203.359773 
L 347.945499 205.572314 
L 348.188003 204.707669 
L 348.429865 204.778115 
L 348.671088 203.11087 
L 349.390957 209.184799 
L 349.629657 209.433928 
L 350.342035 202.564329 
L 350.578264 204.445311 
L 350.64091 206.638999 
L 351.11122 210.341275 
L 351.34547 208.283327 
L 351.57912 202.837898 
L 352.044634 206.914502 
L 352.276504 206.127967 
L 352.738484 211.041806 
L 352.9686 207.009169 
L 353.198138 199.695646 
L 353.4271 200.104861 
L 354.11056 207.208541 
L 354.337248 206.139588 
L 354.788942 210.20039 
L 355.013953 205.887514 
L 355.238411 207.200232 
L 355.462319 207.17947 
L 355.685679 207.330613 
L 356.130766 211.150532 
L 356.352498 210.766738 
L 356.573693 211.765688 
L 356.794353 211.375851 
L 357.014481 213.591728 
L 357.23408 214.661395 
L 357.453152 212.557559 
L 357.671699 215.054022 
L 357.94755 206.875157 
L 358.598108 210.839679 
L 358.813934 210.551382 
L 359.029251 210.560169 
L 359.244062 211.279577 
L 359.458369 207.27196 
L 359.672173 206.537402 
L 359.885478 206.934048 
L 360.098286 202.558402 
L 360.310599 203.248734 
L 360.733748 205.576074 
L 361.154946 201.503058 
L 361.364818 202.649207 
L 361.574209 200.479491 
L 361.991555 204.69203 
L 362.199515 204.014956 
L 362.407002 202.659346 
L 362.614019 205.456838 
L 362.820567 206.545098 
L 363.026649 208.481807 
L 363.232266 207.321024 
L 363.437422 207.490496 
L 363.642118 209.206691 
L 363.846355 208.474367 
L 364.253465 212.568176 
L 364.456341 212.160149 
L 364.658767 213.612913 
L 364.914321 212.312775 
L 365.115735 214.850516 
L 365.316706 215.962968 
L 365.517235 214.775261 
L 365.717325 215.462669 
L 366.314976 222.635112 
L 366.513327 221.391804 
L 366.711248 219.178477 
L 366.90874 221.532683 
L 367.105806 222.306038 
L 367.498667 225.265922 
L 367.694465 223.352538 
L 368.084806 216.074045 
L 368.279353 218.389684 
L 368.473485 217.300643 
L 368.667206 217.184758 
L 368.860516 219.185398 
L 369.053418 219.591813 
L 369.245914 222.241204 
L 369.438004 216.832478 
L 369.62969 218.44998 
L 369.820976 221.266861 
L 370.011861 222.030013 
L 370.202348 219.946124 
L 370.392438 219.953982 
L 370.582133 218.965521 
L 370.771435 216.376278 
L 370.960345 218.095636 
L 371.010458 220.777662 
L 371.198875 217.52164 
L 371.386903 220.356925 
L 371.574546 219.784859 
L 371.948676 223.49809 
L 372.135168 223.67798 
L 372.32128 224.203199 
L 372.507013 226.102123 
L 372.692369 226.222834 
L 373.061956 230.54141 
L 373.24619 228.065197 
L 373.430053 227.266062 
L 373.613546 229.641799 
L 373.796671 230.503128 
L 373.979429 230.018911 
L 374.161823 231.038943 
L 374.525519 225.076052 
L 374.706826 227.645977 
L 374.887773 220.753874 
L 375.068362 219.385717 
L 375.248595 221.061443 
L 375.428472 221.692356 
L 375.607996 220.313885 
L 376.854873 232.719831 
L 376.901854 231.064372 
L 377.078507 233.307265 
L 377.254818 229.395454 
L 377.430789 221.87412 
L 377.606422 223.777982 
L 377.781717 223.77358 
L 378.305593 230.389403 
L 378.479552 229.248948 
L 378.826479 233.420911 
L 378.999449 232.904216 
L 379.172093 231.65639 
L 379.859419 240.680025 
L 380.201152 243.828551 
L 380.541609 235.080233 
L 380.711363 237.716011 
L 380.880802 233.625537 
L 381.049927 233.760431 
L 381.218739 232.793317 
L 381.890884 240.701929 
L 382.058149 243.085701 
L 382.391764 237.084737 
L 382.43598 238.811311 
L 382.602251 238.782382 
L 382.76822 239.448995 
L 382.933887 239.183484 
L 383.099254 237.007402 
L 383.264322 237.667679 
L 383.429092 232.847718 
L 384.085215 241.837129 
L 384.248512 241.191231 
L 384.411516 238.40836 
L 384.574231 239.312851 
L 384.736656 233.201607 
L 385.060641 238.031678 
L 385.222203 236.333856 
L 385.38348 236.948731 
L 385.705182 240.316706 
L 385.865609 233.631882 
L 386.025754 235.274852 
L 386.185619 234.599092 
L 386.504511 235.282693 
L 386.663541 236.748725 
L 386.822293 236.732081 
L 387.296902 242.993231 
L 387.454558 241.752687 
L 387.611943 244.180767 
L 387.653702 241.758888 
L 387.810744 239.316008 
L 388.124019 244.068532 
L 388.280254 241.363716 
L 388.902536 250.582484 
L 389.057445 251.539578 
L 389.212093 253.831233 
L 389.520604 251.933816 
L 389.674469 249.529523 
L 389.828075 250.170059 
L 389.981424 250.22951 
L 390.134515 246.139741 
L 390.439929 248.751784 
L 390.592254 247.330961 
L 390.744325 248.346591 
L 390.896144 247.664973 
L 391.04771 241.243884 
L 391.350089 245.173509 
L 391.651471 249.161779 
L 392.101685 253.143118 
L 392.400599 243.265903 
L 392.54969 243.463726 
L 392.589251 240.97611 
L 392.738034 240.944693 
L 392.886575 242.814806 
L 393.034875 240.119586 
L 393.330754 243.968213 
L 393.625677 248.131693 
L 393.772782 250.53127 
L 393.91965 245.8066 
L 394.066283 245.420439 
L 394.358843 248.866973 
L 394.504772 246.978641 
L 395.230939 255.992546 
L 395.375482 254.886854 
L 395.519796 251.77178 
L 395.663883 253.212077 
L 395.807742 253.220884 
L 396.237966 259.535318 
L 396.523659 253.837753 
L 396.666171 253.763373 
L 397.554069 267.009359 
L 397.694982 264.614326 
L 398.116423 269.262642 
L 398.256472 264.523905 
L 398.675334 268.86723 
L 399.092283 272.74748 
L 399.369195 261.290315 
L 399.507336 260.510735 
L 400.057822 268.363837 
L 400.194926 267.153826 
L 400.468518 270.485525 
L 400.605007 269.519932 
L 401.013255 271.404647 
L 401.148932 271.46064 
L 401.419684 268.972795 
L 401.689636 272.375241 
L 401.725429 271.281044 
L 401.994479 274.179931 
L 402.128707 272.55672 
L 402.796904 279.599719 
L 402.929959 271.847662 
L 403.460245 277.064462 
L 403.592337 273.252142 
L 403.724238 274.822192 
L 403.855949 273.487988 
L 404.642247 283.47814 
L 404.772641 277.766891 
L 404.902848 279.470572 
L 405.032871 275.72647 
L 405.292361 277.822139 
L 405.551116 278.477436 
L 405.680218 277.00232 
L 406.228881 282.15426 
L 406.35703 277.843557 
L 406.484999 279.690277 
L 406.612789 277.854801 
L 406.7404 277.895153 
L 406.867833 279.605224 
L 406.995088 279.625716 
L 407.628718 285.806763 
L 407.754917 280.997056 
L 407.880943 282.657337 
L 408.006795 282.090512 
L 408.257979 285.261427 
L 408.383313 285.094736 
L 408.633465 287.43866 
L 408.758284 287.363306 
L 408.882933 287.845205 
L 409.007412 287.311959 
L 409.255862 288.970997 
L 409.503637 286.814949 
L 409.627273 288.526118 
L 409.750742 288.136242 
L 409.874044 285.617207 
L 410.02986 288.510457 
L 410.275546 285.614789 
L 410.398142 286.660797 
L 410.520573 285.015682 
L 410.642841 286.593946 
L 410.764944 282.781446 
L 411.008663 285.081181 
L 411.130279 284.431493 
L 411.494157 288.681365 
L 411.615128 283.93963 
L 411.735939 283.76754 
L 411.977082 285.904784 
L 412.097416 286.196171 
L 412.217591 286.856702 
L 412.457467 289.894962 
L 412.577169 284.666823 
L 412.816103 286.77409 
L 412.935336 287.583088 
L 413.173336 290.147334 
L 413.292104 291.233633 
L 413.410717 285.798947 
L 413.883636 290.558889 
L 413.914954 289.86815 
L 414.150417 292.39899 
L 414.267921 289.098563 
L 414.385274 290.141745 
L 414.502476 289.823761 
L 414.619528 291.450992 
L 414.73643 288.92696 
L 414.73643 288.92696 
" clip-path="url(#p7a90dcd4d6)" style="fill: none; stroke: #d62728; stroke-opacity: 0.4; stroke-linecap: square"/>
   </g>
   <g id="patch_3">
    <path d="M 57.6 307.584 
L 57.6 41.472 
" style="fill: none; stroke: #000000; stroke-width: 0.8; stroke-linejoin: miter; stroke-linecap: square"/>
   </g>
   <g id="patch_4">
    <path d="M 414.72 307.584 
L 414.72 41.472 
" style="fill: none; stroke: #000000; stroke-width: 0.8; stroke-linejoin: miter; stroke-linecap: square"/>
   </g>
   <g id="patch_5">
    <path d="M 57.6 307.584 
L 414.72 307.584 
" style="fill: none; stroke: #000000; stroke-width: 0.8; stroke-linejoin: miter; stroke-linecap: square"/>
   </g>
   <g id="patch_6">
    <path d="M 57.6 41.472 
L 414.72 41.472 
" style="fill: none; stroke: #000000; stroke-width: 0.8; stroke-linejoin: miter; stroke-linecap: square"/>
   </g>
   <g id="text_7">
    <!-- 2025-02-21-09:06:29 zoomed in + ewm(16.0).mean() -->
    <g transform="translate(74.128125 35.472) scale(0.12 -0.12)">
     <defs>
      <path id="DejaVuSans-35" d="M 691 4666 
L 3169 4666 
L 3169 4134 
L 1269 4134 
L 1269 2991 
Q 1406 3038 1543 3061 
Q 1681 3084 1819 3084 
Q 2600 3084 3056 2656 
Q 3513 2228 3513 1497 
Q 3513 744 3044 326 
Q 2575 -91 1722 -91 
Q 1428 -91 1123 -41 
Q 819 9 494 109 
L 494 744 
Q 775 591 1075 516 
Q 1375 441 1709 441 
Q 2250 441 2565 725 
Q 2881 1009 2881 1497 
Q 2881 1984 2565 2268 
Q 2250 2553 1709 2553 
Q 1456 2553 1204 2497 
Q 953 2441 691 2322 
L 691 4666 
z
" transform="scale(0.015625)"/>
      <path id="DejaVuSans-2d" d="M 313 2009 
L 1997 2009 
L 1997 1497 
L 313 1497 
L 313 2009 
z
" transform="scale(0.015625)"/>
      <path id="DejaVuSans-39" d="M 703 97 
L 703 672 
Q 941 559 1184 500 
Q 1428 441 1663 441 
Q 2288 441 2617 861 
Q 2947 1281 2994 2138 
Q 2813 1869 2534 1725 
Q 2256 1581 1919 1581 
Q 1219 1581 811 2004 
Q 403 2428 403 3163 
Q 403 3881 828 4315 
Q 1253 4750 1959 4750 
Q 2769 4750 3195 4129 
Q 3622 3509 3622 2328 
Q 3622 1225 3098 567 
Q 2575 -91 1691 -91 
Q 1453 -91 1209 -44 
Q 966 3 703 97 
z
M 1959 2075 
Q 2384 2075 2632 2365 
Q 2881 2656 2881 3163 
Q 2881 3666 2632 3958 
Q 2384 4250 1959 4250 
Q 1534 4250 1286 3958 
Q 1038 3666 1038 3163 
Q 1038 2656 1286 2365 
Q 1534 2075 1959 2075 
z
" transform="scale(0.015625)"/>
      <path id="DejaVuSans-3a" d="M 750 794 
L 1409 794 
L 1409 0 
L 750 0 
L 750 794 
z
M 750 3309 
L 1409 3309 
L 1409 2516 
L 750 2516 
L 750 3309 
z
" transform="scale(0.015625)"/>
      <path id="DejaVuSans-36" d="M 2113 2584 
Q 1688 2584 1439 2293 
Q 1191 2003 1191 1497 
Q 1191 994 1439 701 
Q 1688 409 2113 409 
Q 2538 409 2786 701 
Q 3034 994 3034 1497 
Q 3034 2003 2786 2293 
Q 2538 2584 2113 2584 
z
M 3366 4563 
L 3366 3988 
Q 3128 4100 2886 4159 
Q 2644 4219 2406 4219 
Q 1781 4219 1451 3797 
Q 1122 3375 1075 2522 
Q 1259 2794 1537 2939 
Q 1816 3084 2150 3084 
Q 2853 3084 3261 2657 
Q 3669 2231 3669 1497 
Q 3669 778 3244 343 
Q 2819 -91 2113 -91 
Q 1303 -91 875 529 
Q 447 1150 447 2328 
Q 447 3434 972 4092 
Q 1497 4750 2381 4750 
Q 2619 4750 2861 4703 
Q 3103 4656 3366 4563 
z
" transform="scale(0.015625)"/>
      <path id="DejaVuSans-20" transform="scale(0.015625)"/>
      <path id="DejaVuSans-7a" d="M 353 3500 
L 3084 3500 
L 3084 2975 
L 922 459 
L 3084 459 
L 3084 0 
L 275 0 
L 275 525 
L 2438 3041 
L 353 3041 
L 353 3500 
z
" transform="scale(0.015625)"/>
      <path id="DejaVuSans-6d" d="M 3328 2828 
Q 3544 3216 3844 3400 
Q 4144 3584 4550 3584 
Q 5097 3584 5394 3201 
Q 5691 2819 5691 2113 
L 5691 0 
L 5113 0 
L 5113 2094 
Q 5113 2597 4934 2840 
Q 4756 3084 4391 3084 
Q 3944 3084 3684 2787 
Q 3425 2491 3425 1978 
L 3425 0 
L 2847 0 
L 2847 2094 
Q 2847 2600 2669 2842 
Q 2491 3084 2119 3084 
Q 1678 3084 1418 2786 
Q 1159 2488 1159 1978 
L 1159 0 
L 581 0 
L 581 3500 
L 1159 3500 
L 1159 2956 
Q 1356 3278 1631 3431 
Q 1906 3584 2284 3584 
Q 2666 3584 2933 3390 
Q 3200 3197 3328 2828 
z
" transform="scale(0.015625)"/>
      <path id="DejaVuSans-64" d="M 2906 2969 
L 2906 4863 
L 3481 4863 
L 3481 0 
L 2906 0 
L 2906 525 
Q 2725 213 2448 61 
Q 2172 -91 1784 -91 
Q 1150 -91 751 415 
Q 353 922 353 1747 
Q 353 2572 751 3078 
Q 1150 3584 1784 3584 
Q 2172 3584 2448 3432 
Q 2725 3281 2906 2969 
z
M 947 1747 
Q 947 1113 1208 752 
Q 1469 391 1925 391 
Q 2381 391 2643 752 
Q 2906 1113 2906 1747 
Q 2906 2381 2643 2742 
Q 2381 3103 1925 3103 
Q 1469 3103 1208 2742 
Q 947 2381 947 1747 
z
" transform="scale(0.015625)"/>
      <path id="DejaVuSans-6e" d="M 3513 2113 
L 3513 0 
L 2938 0 
L 2938 2094 
Q 2938 2591 2744 2837 
Q 2550 3084 2163 3084 
Q 1697 3084 1428 2787 
Q 1159 2491 1159 1978 
L 1159 0 
L 581 0 
L 581 3500 
L 1159 3500 
L 1159 2956 
Q 1366 3272 1645 3428 
Q 1925 3584 2291 3584 
Q 2894 3584 3203 3211 
Q 3513 2838 3513 2113 
z
" transform="scale(0.015625)"/>
      <path id="DejaVuSans-2b" d="M 2944 4013 
L 2944 2272 
L 4684 2272 
L 4684 1741 
L 2944 1741 
L 2944 0 
L 2419 0 
L 2419 1741 
L 678 1741 
L 678 2272 
L 2419 2272 
L 2419 4013 
L 2944 4013 
z
" transform="scale(0.015625)"/>
      <path id="DejaVuSans-77" d="M 269 3500 
L 844 3500 
L 1563 769 
L 2278 3500 
L 2956 3500 
L 3675 769 
L 4391 3500 
L 4966 3500 
L 4050 0 
L 3372 0 
L 2619 2869 
L 1863 0 
L 1184 0 
L 269 3500 
z
" transform="scale(0.015625)"/>
      <path id="DejaVuSans-28" d="M 1984 4856 
Q 1566 4138 1362 3434 
Q 1159 2731 1159 2009 
Q 1159 1288 1364 580 
Q 1569 -128 1984 -844 
L 1484 -844 
Q 1016 -109 783 600 
Q 550 1309 550 2009 
Q 550 2706 781 3412 
Q 1013 4119 1484 4856 
L 1984 4856 
z
" transform="scale(0.015625)"/>
      <path id="DejaVuSans-2e" d="M 684 794 
L 1344 794 
L 1344 0 
L 684 0 
L 684 794 
z
" transform="scale(0.015625)"/>
      <path id="DejaVuSans-29" d="M 513 4856 
L 1013 4856 
Q 1481 4119 1714 3412 
Q 1947 2706 1947 2009 
Q 1947 1309 1714 600 
Q 1481 -109 1013 -844 
L 513 -844 
Q 928 -128 1133 580 
Q 1338 1288 1338 2009 
Q 1338 2731 1133 3434 
Q 928 4138 513 4856 
z
" transform="scale(0.015625)"/>
      <path id="DejaVuSans-61" d="M 2194 1759 
Q 1497 1759 1228 1600 
Q 959 1441 959 1056 
Q 959 750 1161 570 
Q 1363 391 1709 391 
Q 2188 391 2477 730 
Q 2766 1069 2766 1631 
L 2766 1759 
L 2194 1759 
z
M 3341 1997 
L 3341 0 
L 2766 0 
L 2766 531 
Q 2569 213 2275 61 
Q 1981 -91 1556 -91 
Q 1019 -91 701 211 
Q 384 513 384 1019 
Q 384 1609 779 1909 
Q 1175 2209 1959 2209 
L 2766 2209 
L 2766 2266 
Q 2766 2663 2505 2880 
Q 2244 3097 1772 3097 
Q 1472 3097 1187 3025 
Q 903 2953 641 2809 
L 641 3341 
Q 956 3463 1253 3523 
Q 1550 3584 1831 3584 
Q 2591 3584 2966 3190 
Q 3341 2797 3341 1997 
z
" transform="scale(0.015625)"/>
     </defs>
     <use xlink:href="#DejaVuSans-32"/>
     <use xlink:href="#DejaVuSans-30" x="63.623047"/>
     <use xlink:href="#DejaVuSans-32" x="127.246094"/>
     <use xlink:href="#DejaVuSans-35" x="190.869141"/>
     <use xlink:href="#DejaVuSans-2d" x="254.492188"/>
     <use xlink:href="#DejaVuSans-30" x="290.576172"/>
     <use xlink:href="#DejaVuSans-32" x="354.199219"/>
     <use xlink:href="#DejaVuSans-2d" x="417.822266"/>
     <use xlink:href="#DejaVuSans-32" x="453.90625"/>
     <use xlink:href="#DejaVuSans-31" x="517.529297"/>
     <use xlink:href="#DejaVuSans-2d" x="581.152344"/>
     <use xlink:href="#DejaVuSans-30" x="617.236328"/>
     <use xlink:href="#DejaVuSans-39" x="680.859375"/>
     <use xlink:href="#DejaVuSans-3a" x="744.482422"/>
     <use xlink:href="#DejaVuSans-30" x="778.173828"/>
     <use xlink:href="#DejaVuSans-36" x="841.796875"/>
     <use xlink:href="#DejaVuSans-3a" x="905.419922"/>
     <use xlink:href="#DejaVuSans-32" x="939.111328"/>
     <use xlink:href="#DejaVuSans-39" x="1002.734375"/>
     <use xlink:href="#DejaVuSans-20" x="1066.357422"/>
     <use xlink:href="#DejaVuSans-7a" x="1098.144531"/>
     <use xlink:href="#DejaVuSans-6f" x="1150.634766"/>
     <use xlink:href="#DejaVuSans-6f" x="1211.816406"/>
     <use xlink:href="#DejaVuSans-6d" x="1272.998047"/>
     <use xlink:href="#DejaVuSans-65" x="1370.410156"/>
     <use xlink:href="#DejaVuSans-64" x="1431.933594"/>
     <use xlink:href="#DejaVuSans-20" x="1495.410156"/>
     <use xlink:href="#DejaVuSans-69" x="1527.197266"/>
     <use xlink:href="#DejaVuSans-6e" x="1554.980469"/>
     <use xlink:href="#DejaVuSans-20" x="1618.359375"/>
     <use xlink:href="#DejaVuSans-2b" x="1650.146484"/>
     <use xlink:href="#DejaVuSans-20" x="1733.935547"/>
     <use xlink:href="#DejaVuSans-65" x="1765.722656"/>
     <use xlink:href="#DejaVuSans-77" x="1827.246094"/>
     <use xlink:href="#DejaVuSans-6d" x="1909.033203"/>
     <use xlink:href="#DejaVuSans-28" x="2006.445312"/>
     <use xlink:href="#DejaVuSans-31" x="2045.458984"/>
     <use xlink:href="#DejaVuSans-36" x="2109.082031"/>
     <use xlink:href="#DejaVuSans-2e" x="2172.705078"/>
     <use xlink:href="#DejaVuSans-30" x="2204.492188"/>
     <use xlink:href="#DejaVuSans-29" x="2268.115234"/>
     <use xlink:href="#DejaVuSans-2e" x="2307.128906"/>
     <use xlink:href="#DejaVuSans-6d" x="2338.916016"/>
     <use xlink:href="#DejaVuSans-65" x="2436.328125"/>
     <use xlink:href="#DejaVuSans-61" x="2497.851562"/>
     <use xlink:href="#DejaVuSans-6e" x="2559.130859"/>
     <use xlink:href="#DejaVuSans-28" x="2622.509766"/>
     <use xlink:href="#DejaVuSans-29" x="2661.523438"/>
    </g>
   </g>
   <g id="legend_1">
    <g id="patch_7">
     <path d="M 281.596563 109.297 
L 407.72 109.297 
Q 409.72 109.297 409.72 107.297 
L 409.72 48.472 
Q 409.72 46.472 407.72 46.472 
L 281.596563 46.472 
Q 279.596563 46.472 279.596563 48.472 
L 279.596563 107.297 
Q 279.596563 109.297 281.596563 109.297 
z
" style="fill: #ffffff; opacity: 0.8; stroke: #cccccc; stroke-linejoin: miter"/>
    </g>
    <g id="line2d_36">
     <path d="M 283.596563 54.570437 
L 293.596563 54.570437 
L 303.596563 54.570437 
" style="fill: none; stroke: #1f77b4; stroke-opacity: 0.4; stroke-linecap: square"/>
    </g>
    <g id="text_8">
     <!-- SchNet eval_loss -->
     <g transform="translate(311.596563 58.070437) scale(0.1 -0.1)">
      <defs>
       <path id="DejaVuSans-53" d="M 3425 4513 
L 3425 3897 
Q 3066 4069 2747 4153 
Q 2428 4238 2131 4238 
Q 1616 4238 1336 4038 
Q 1056 3838 1056 3469 
Q 1056 3159 1242 3001 
Q 1428 2844 1947 2747 
L 2328 2669 
Q 3034 2534 3370 2195 
Q 3706 1856 3706 1288 
Q 3706 609 3251 259 
Q 2797 -91 1919 -91 
Q 1588 -91 1214 -16 
Q 841 59 441 206 
L 441 856 
Q 825 641 1194 531 
Q 1563 422 1919 422 
Q 2459 422 2753 634 
Q 3047 847 3047 1241 
Q 3047 1584 2836 1778 
Q 2625 1972 2144 2069 
L 1759 2144 
Q 1053 2284 737 2584 
Q 422 2884 422 3419 
Q 422 4038 858 4394 
Q 1294 4750 2059 4750 
Q 2388 4750 2728 4690 
Q 3069 4631 3425 4513 
z
" transform="scale(0.015625)"/>
       <path id="DejaVuSans-63" d="M 3122 3366 
L 3122 2828 
Q 2878 2963 2633 3030 
Q 2388 3097 2138 3097 
Q 1578 3097 1268 2742 
Q 959 2388 959 1747 
Q 959 1106 1268 751 
Q 1578 397 2138 397 
Q 2388 397 2633 464 
Q 2878 531 3122 666 
L 3122 134 
Q 2881 22 2623 -34 
Q 2366 -91 2075 -91 
Q 1284 -91 818 406 
Q 353 903 353 1747 
Q 353 2603 823 3093 
Q 1294 3584 2113 3584 
Q 2378 3584 2631 3529 
Q 2884 3475 3122 3366 
z
" transform="scale(0.015625)"/>
       <path id="DejaVuSans-68" d="M 3513 2113 
L 3513 0 
L 2938 0 
L 2938 2094 
Q 2938 2591 2744 2837 
Q 2550 3084 2163 3084 
Q 1697 3084 1428 2787 
Q 1159 2491 1159 1978 
L 1159 0 
L 581 0 
L 581 4863 
L 1159 4863 
L 1159 2956 
Q 1366 3272 1645 3428 
Q 1925 3584 2291 3584 
Q 2894 3584 3203 3211 
Q 3513 2838 3513 2113 
z
" transform="scale(0.015625)"/>
       <path id="DejaVuSans-4e" d="M 628 4666 
L 1478 4666 
L 3547 763 
L 3547 4666 
L 4159 4666 
L 4159 0 
L 3309 0 
L 1241 3903 
L 1241 0 
L 628 0 
L 628 4666 
z
" transform="scale(0.015625)"/>
       <path id="DejaVuSans-76" d="M 191 3500 
L 800 3500 
L 1894 563 
L 2988 3500 
L 3597 3500 
L 2284 0 
L 1503 0 
L 191 3500 
z
" transform="scale(0.015625)"/>
       <path id="DejaVuSans-5f" d="M 3263 -1063 
L 3263 -1509 
L -63 -1509 
L -63 -1063 
L 3263 -1063 
z
" transform="scale(0.015625)"/>
      </defs>
      <use xlink:href="#DejaVuSans-53"/>
      <use xlink:href="#DejaVuSans-63" x="63.476562"/>
      <use xlink:href="#DejaVuSans-68" x="118.457031"/>
      <use xlink:href="#DejaVuSans-4e" x="181.835938"/>
      <use xlink:href="#DejaVuSans-65" x="256.640625"/>
      <use xlink:href="#DejaVuSans-74" x="318.164062"/>
      <use xlink:href="#DejaVuSans-20" x="357.373047"/>
      <use xlink:href="#DejaVuSans-65" x="389.160156"/>
      <use xlink:href="#DejaVuSans-76" x="450.683594"/>
      <use xlink:href="#DejaVuSans-61" x="509.863281"/>
      <use xlink:href="#DejaVuSans-6c" x="571.142578"/>
      <use xlink:href="#DejaVuSans-5f" x="598.925781"/>
      <use xlink:href="#DejaVuSans-6c" x="648.925781"/>
      <use xlink:href="#DejaVuSans-6f" x="676.708984"/>
      <use xlink:href="#DejaVuSans-73" x="737.890625"/>
      <use xlink:href="#DejaVuSans-73" x="789.990234"/>
     </g>
    </g>
    <g id="line2d_37">
     <path d="M 283.596563 69.526687 
L 293.596563 69.526687 
L 303.596563 69.526687 
" style="fill: none; stroke: #ff7f0e; stroke-opacity: 0.4; stroke-linecap: square"/>
    </g>
    <g id="text_9">
     <!-- M220 eval_loss -->
     <g transform="translate(311.596563 73.026687) scale(0.1 -0.1)">
      <defs>
       <path id="DejaVuSans-4d" d="M 628 4666 
L 1569 4666 
L 2759 1491 
L 3956 4666 
L 4897 4666 
L 4897 0 
L 4281 0 
L 4281 4097 
L 3078 897 
L 2444 897 
L 1241 4097 
L 1241 0 
L 628 0 
L 628 4666 
z
" transform="scale(0.015625)"/>
      </defs>
      <use xlink:href="#DejaVuSans-4d"/>
      <use xlink:href="#DejaVuSans-32" x="86.279297"/>
      <use xlink:href="#DejaVuSans-32" x="149.902344"/>
      <use xlink:href="#DejaVuSans-30" x="213.525391"/>
      <use xlink:href="#DejaVuSans-20" x="277.148438"/>
      <use xlink:href="#DejaVuSans-65" x="308.935547"/>
      <use xlink:href="#DejaVuSans-76" x="370.458984"/>
      <use xlink:href="#DejaVuSans-61" x="429.638672"/>
      <use xlink:href="#DejaVuSans-6c" x="490.917969"/>
      <use xlink:href="#DejaVuSans-5f" x="518.701172"/>
      <use xlink:href="#DejaVuSans-6c" x="568.701172"/>
      <use xlink:href="#DejaVuSans-6f" x="596.484375"/>
      <use xlink:href="#DejaVuSans-73" x="657.666016"/>
      <use xlink:href="#DejaVuSans-73" x="709.765625"/>
     </g>
    </g>
    <g id="line2d_38">
     <path d="M 283.596563 84.482937 
L 293.596563 84.482937 
L 303.596563 84.482937 
" style="fill: none; stroke: #2ca02c; stroke-opacity: 0.4; stroke-linecap: square"/>
    </g>
    <g id="text_10">
     <!-- MoGIN14 eval_loss -->
     <g transform="translate(311.596563 87.982937) scale(0.1 -0.1)">
      <defs>
       <path id="DejaVuSans-47" d="M 3809 666 
L 3809 1919 
L 2778 1919 
L 2778 2438 
L 4434 2438 
L 4434 434 
Q 4069 175 3628 42 
Q 3188 -91 2688 -91 
Q 1594 -91 976 548 
Q 359 1188 359 2328 
Q 359 3472 976 4111 
Q 1594 4750 2688 4750 
Q 3144 4750 3555 4637 
Q 3966 4525 4313 4306 
L 4313 3634 
Q 3963 3931 3569 4081 
Q 3175 4231 2741 4231 
Q 1884 4231 1454 3753 
Q 1025 3275 1025 2328 
Q 1025 1384 1454 906 
Q 1884 428 2741 428 
Q 3075 428 3337 486 
Q 3600 544 3809 666 
z
" transform="scale(0.015625)"/>
       <path id="DejaVuSans-49" d="M 628 4666 
L 1259 4666 
L 1259 0 
L 628 0 
L 628 4666 
z
" transform="scale(0.015625)"/>
      </defs>
      <use xlink:href="#DejaVuSans-4d"/>
      <use xlink:href="#DejaVuSans-6f" x="86.279297"/>
      <use xlink:href="#DejaVuSans-47" x="147.460938"/>
      <use xlink:href="#DejaVuSans-49" x="224.951172"/>
      <use xlink:href="#DejaVuSans-4e" x="254.443359"/>
      <use xlink:href="#DejaVuSans-31" x="329.248047"/>
      <use xlink:href="#DejaVuSans-34" x="392.871094"/>
      <use xlink:href="#DejaVuSans-20" x="456.494141"/>
      <use xlink:href="#DejaVuSans-65" x="488.28125"/>
      <use xlink:href="#DejaVuSans-76" x="549.804688"/>
      <use xlink:href="#DejaVuSans-61" x="608.984375"/>
      <use xlink:href="#DejaVuSans-6c" x="670.263672"/>
      <use xlink:href="#DejaVuSans-5f" x="698.046875"/>
      <use xlink:href="#DejaVuSans-6c" x="748.046875"/>
      <use xlink:href="#DejaVuSans-6f" x="775.830078"/>
      <use xlink:href="#DejaVuSans-73" x="837.011719"/>
      <use xlink:href="#DejaVuSans-73" x="889.111328"/>
     </g>
    </g>
    <g id="line2d_39">
     <path d="M 283.596563 99.439187 
L 293.596563 99.439187 
L 303.596563 99.439187 
" style="fill: none; stroke: #d62728; stroke-opacity: 0.4; stroke-linecap: square"/>
    </g>
    <g id="text_11">
     <!-- MoGIN16 eval_loss -->
     <g transform="translate(311.596563 102.939187) scale(0.1 -0.1)">
      <use xlink:href="#DejaVuSans-4d"/>
      <use xlink:href="#DejaVuSans-6f" x="86.279297"/>
      <use xlink:href="#DejaVuSans-47" x="147.460938"/>
      <use xlink:href="#DejaVuSans-49" x="224.951172"/>
      <use xlink:href="#DejaVuSans-4e" x="254.443359"/>
      <use xlink:href="#DejaVuSans-31" x="329.248047"/>
      <use xlink:href="#DejaVuSans-36" x="392.871094"/>
      <use xlink:href="#DejaVuSans-20" x="456.494141"/>
      <use xlink:href="#DejaVuSans-65" x="488.28125"/>
      <use xlink:href="#DejaVuSans-76" x="549.804688"/>
      <use xlink:href="#DejaVuSans-61" x="608.984375"/>
      <use xlink:href="#DejaVuSans-6c" x="670.263672"/>
      <use xlink:href="#DejaVuSans-5f" x="698.046875"/>
      <use xlink:href="#DejaVuSans-6c" x="748.046875"/>
      <use xlink:href="#DejaVuSans-6f" x="775.830078"/>
      <use xlink:href="#DejaVuSans-73" x="837.011719"/>
      <use xlink:href="#DejaVuSans-73" x="889.111328"/>
     </g>
    </g>
   </g>
  </g>
 </g>
 <defs>
  <clipPath id="p7a90dcd4d6">
   <rect x="57.6" y="41.472" width="357.12" height="266.112"/>
  </clipPath>
 </defs>
</svg>
