<?xml version="1.0" encoding="utf-8" standalone="no"?>
<!DOCTYPE svg PUBLIC "-//W3C//DTD SVG 1.1//EN"
  "http://www.w3.org/Graphics/SVG/1.1/DTD/svg11.dtd">
<svg xmlns:xlink="http://www.w3.org/1999/xlink" width="460.8pt" height="345.6pt" viewBox="0 0 460.8 345.6" xmlns="http://www.w3.org/2000/svg" version="1.1">
 <metadata>
  <rdf:RDF xmlns:dc="http://purl.org/dc/elements/1.1/" xmlns:cc="http://creativecommons.org/ns#" xmlns:rdf="http://www.w3.org/1999/02/22-rdf-syntax-ns#">
   <cc:Work>
    <dc:type rdf:resource="http://purl.org/dc/dcmitype/StillImage"/>
    <dc:date>2025-02-18T14:50:36.057900</dc:date>
    <dc:format>image/svg+xml</dc:format>
    <dc:creator>
     <cc:Agent>
      <dc:title>Matplotlib v3.8.4, https://matplotlib.org/</dc:title>
     </cc:Agent>
    </dc:creator>
   </cc:Work>
  </rdf:RDF>
 </metadata>
 <defs>
  <style type="text/css">*{stroke-linejoin: round; stroke-linecap: butt}</style>
 </defs>
 <g id="figure_1">
  <g id="patch_1">
   <path d="M 0 345.6 
L 460.8 345.6 
L 460.8 0 
L 0 0 
z
" style="fill: #ffffff"/>
  </g>
  <g id="axes_1">
   <g id="patch_2">
    <path d="M 57.6 307.584 
L 414.72 307.584 
L 414.72 41.472 
L 57.6 41.472 
z
" style="fill: #ffffff"/>
   </g>
   <g id="matplotlib.axis_1">
    <g id="xtick_1">
     <g id="line2d_1">
      <defs>
       <path id="mb50493cca9" d="M 0 0 
L 0 3.5 
" style="stroke: #000000; stroke-width: 0.8"/>
      </defs>
      <g>
       <use xlink:href="#mb50493cca9" x="57.6" y="307.584" style="stroke: #000000; stroke-width: 0.8"/>
      </g>
     </g>
     <g id="text_1">
      <!-- $\mathdefault{10^{-1}}$ -->
      <g transform="translate(45.85 322.182437) scale(0.1 -0.1)">
       <defs>
        <path id="DejaVuSans-31" d="M 794 531 
L 1825 531 
L 1825 4091 
L 703 3866 
L 703 4441 
L 1819 4666 
L 2450 4666 
L 2450 531 
L 3481 531 
L 3481 0 
L 794 0 
L 794 531 
z
" transform="scale(0.015625)"/>
        <path id="DejaVuSans-30" d="M 2034 4250 
Q 1547 4250 1301 3770 
Q 1056 3291 1056 2328 
Q 1056 1369 1301 889 
Q 1547 409 2034 409 
Q 2525 409 2770 889 
Q 3016 1369 3016 2328 
Q 3016 3291 2770 3770 
Q 2525 4250 2034 4250 
z
M 2034 4750 
Q 2819 4750 3233 4129 
Q 3647 3509 3647 2328 
Q 3647 1150 3233 529 
Q 2819 -91 2034 -91 
Q 1250 -91 836 529 
Q 422 1150 422 2328 
Q 422 3509 836 4129 
Q 1250 4750 2034 4750 
z
" transform="scale(0.015625)"/>
        <path id="DejaVuSans-2212" d="M 678 2272 
L 4684 2272 
L 4684 1741 
L 678 1741 
L 678 2272 
z
" transform="scale(0.015625)"/>
       </defs>
       <use xlink:href="#DejaVuSans-31" transform="translate(0 0.684375)"/>
       <use xlink:href="#DejaVuSans-30" transform="translate(63.623047 0.684375)"/>
       <use xlink:href="#DejaVuSans-2212" transform="translate(128.203125 38.965625) scale(0.7)"/>
       <use xlink:href="#DejaVuSans-31" transform="translate(186.855469 38.965625) scale(0.7)"/>
      </g>
     </g>
    </g>
    <g id="xtick_2">
     <g id="line2d_2">
      <g>
       <use xlink:href="#mb50493cca9" x="124.96804" y="307.584" style="stroke: #000000; stroke-width: 0.8"/>
      </g>
     </g>
     <g id="text_2">
      <!-- $\mathdefault{10^{0}}$ -->
      <g transform="translate(116.16804 322.182437) scale(0.1 -0.1)">
       <use xlink:href="#DejaVuSans-31" transform="translate(0 0.765625)"/>
       <use xlink:href="#DejaVuSans-30" transform="translate(63.623047 0.765625)"/>
       <use xlink:href="#DejaVuSans-30" transform="translate(128.203125 39.046875) scale(0.7)"/>
      </g>
     </g>
    </g>
    <g id="xtick_3">
     <g id="line2d_3">
      <g>
       <use xlink:href="#mb50493cca9" x="192.33608" y="307.584" style="stroke: #000000; stroke-width: 0.8"/>
      </g>
     </g>
     <g id="text_3">
      <!-- $\mathdefault{10^{1}}$ -->
      <g transform="translate(183.53608 322.182437) scale(0.1 -0.1)">
       <use xlink:href="#DejaVuSans-31" transform="translate(0 0.684375)"/>
       <use xlink:href="#DejaVuSans-30" transform="translate(63.623047 0.684375)"/>
       <use xlink:href="#DejaVuSans-31" transform="translate(128.203125 38.965625) scale(0.7)"/>
      </g>
     </g>
    </g>
    <g id="xtick_4">
     <g id="line2d_4">
      <g>
       <use xlink:href="#mb50493cca9" x="259.70412" y="307.584" style="stroke: #000000; stroke-width: 0.8"/>
      </g>
     </g>
     <g id="text_4">
      <!-- $\mathdefault{10^{2}}$ -->
      <g transform="translate(250.90412 322.182437) scale(0.1 -0.1)">
       <defs>
        <path id="DejaVuSans-32" d="M 1228 531 
L 3431 531 
L 3431 0 
L 469 0 
L 469 531 
Q 828 903 1448 1529 
Q 2069 2156 2228 2338 
Q 2531 2678 2651 2914 
Q 2772 3150 2772 3378 
Q 2772 3750 2511 3984 
Q 2250 4219 1831 4219 
Q 1534 4219 1204 4116 
Q 875 4013 500 3803 
L 500 4441 
Q 881 4594 1212 4672 
Q 1544 4750 1819 4750 
Q 2544 4750 2975 4387 
Q 3406 4025 3406 3419 
Q 3406 3131 3298 2873 
Q 3191 2616 2906 2266 
Q 2828 2175 2409 1742 
Q 1991 1309 1228 531 
z
" transform="scale(0.015625)"/>
       </defs>
       <use xlink:href="#DejaVuSans-31" transform="translate(0 0.765625)"/>
       <use xlink:href="#DejaVuSans-30" transform="translate(63.623047 0.765625)"/>
       <use xlink:href="#DejaVuSans-32" transform="translate(128.203125 39.046875) scale(0.7)"/>
      </g>
     </g>
    </g>
    <g id="xtick_5">
     <g id="line2d_5">
      <g>
       <use xlink:href="#mb50493cca9" x="327.072159" y="307.584" style="stroke: #000000; stroke-width: 0.8"/>
      </g>
     </g>
     <g id="text_5">
      <!-- $\mathdefault{10^{3}}$ -->
      <g transform="translate(318.272159 322.182437) scale(0.1 -0.1)">
       <defs>
        <path id="DejaVuSans-33" d="M 2597 2516 
Q 3050 2419 3304 2112 
Q 3559 1806 3559 1356 
Q 3559 666 3084 287 
Q 2609 -91 1734 -91 
Q 1441 -91 1130 -33 
Q 819 25 488 141 
L 488 750 
Q 750 597 1062 519 
Q 1375 441 1716 441 
Q 2309 441 2620 675 
Q 2931 909 2931 1356 
Q 2931 1769 2642 2001 
Q 2353 2234 1838 2234 
L 1294 2234 
L 1294 2753 
L 1863 2753 
Q 2328 2753 2575 2939 
Q 2822 3125 2822 3475 
Q 2822 3834 2567 4026 
Q 2313 4219 1838 4219 
Q 1578 4219 1281 4162 
Q 984 4106 628 3988 
L 628 4550 
Q 988 4650 1302 4700 
Q 1616 4750 1894 4750 
Q 2613 4750 3031 4423 
Q 3450 4097 3450 3541 
Q 3450 3153 3228 2886 
Q 3006 2619 2597 2516 
z
" transform="scale(0.015625)"/>
       </defs>
       <use xlink:href="#DejaVuSans-31" transform="translate(0 0.765625)"/>
       <use xlink:href="#DejaVuSans-30" transform="translate(63.623047 0.765625)"/>
       <use xlink:href="#DejaVuSans-33" transform="translate(128.203125 39.046875) scale(0.7)"/>
      </g>
     </g>
    </g>
    <g id="xtick_6">
     <g id="line2d_6">
      <g>
       <use xlink:href="#mb50493cca9" x="394.440199" y="307.584" style="stroke: #000000; stroke-width: 0.8"/>
      </g>
     </g>
     <g id="text_6">
      <!-- $\mathdefault{10^{4}}$ -->
      <g transform="translate(385.640199 322.182437) scale(0.1 -0.1)">
       <defs>
        <path id="DejaVuSans-34" d="M 2419 4116 
L 825 1625 
L 2419 1625 
L 2419 4116 
z
M 2253 4666 
L 3047 4666 
L 3047 1625 
L 3713 1625 
L 3713 1100 
L 3047 1100 
L 3047 0 
L 2419 0 
L 2419 1100 
L 313 1100 
L 313 1709 
L 2253 4666 
z
" transform="scale(0.015625)"/>
       </defs>
       <use xlink:href="#DejaVuSans-31" transform="translate(0 0.684375)"/>
       <use xlink:href="#DejaVuSans-30" transform="translate(63.623047 0.684375)"/>
       <use xlink:href="#DejaVuSans-34" transform="translate(128.203125 38.965625) scale(0.7)"/>
      </g>
     </g>
    </g>
    <g id="xtick_7">
     <g id="line2d_7">
      <defs>
       <path id="mfe5c6f23b6" d="M 0 0 
L 0 2 
" style="stroke: #000000; stroke-width: 0.6"/>
      </defs>
      <g>
       <use xlink:href="#mfe5c6f23b6" x="77.879801" y="307.584" style="stroke: #000000; stroke-width: 0.6"/>
      </g>
     </g>
    </g>
    <g id="xtick_8">
     <g id="line2d_8">
      <g>
       <use xlink:href="#mfe5c6f23b6" x="89.742724" y="307.584" style="stroke: #000000; stroke-width: 0.6"/>
      </g>
     </g>
    </g>
    <g id="xtick_9">
     <g id="line2d_9">
      <g>
       <use xlink:href="#mfe5c6f23b6" x="98.159601" y="307.584" style="stroke: #000000; stroke-width: 0.6"/>
      </g>
     </g>
    </g>
    <g id="xtick_10">
     <g id="line2d_10">
      <g>
       <use xlink:href="#mfe5c6f23b6" x="104.688239" y="307.584" style="stroke: #000000; stroke-width: 0.6"/>
      </g>
     </g>
    </g>
    <g id="xtick_11">
     <g id="line2d_11">
      <g>
       <use xlink:href="#mfe5c6f23b6" x="110.022524" y="307.584" style="stroke: #000000; stroke-width: 0.6"/>
      </g>
     </g>
    </g>
    <g id="xtick_12">
     <g id="line2d_12">
      <g>
       <use xlink:href="#mfe5c6f23b6" x="114.532598" y="307.584" style="stroke: #000000; stroke-width: 0.6"/>
      </g>
     </g>
    </g>
    <g id="xtick_13">
     <g id="line2d_13">
      <g>
       <use xlink:href="#mfe5c6f23b6" x="118.439402" y="307.584" style="stroke: #000000; stroke-width: 0.6"/>
      </g>
     </g>
    </g>
    <g id="xtick_14">
     <g id="line2d_14">
      <g>
       <use xlink:href="#mfe5c6f23b6" x="121.885447" y="307.584" style="stroke: #000000; stroke-width: 0.6"/>
      </g>
     </g>
    </g>
    <g id="xtick_15">
     <g id="line2d_15">
      <g>
       <use xlink:href="#mfe5c6f23b6" x="145.247841" y="307.584" style="stroke: #000000; stroke-width: 0.6"/>
      </g>
     </g>
    </g>
    <g id="xtick_16">
     <g id="line2d_16">
      <g>
       <use xlink:href="#mfe5c6f23b6" x="157.110764" y="307.584" style="stroke: #000000; stroke-width: 0.6"/>
      </g>
     </g>
    </g>
    <g id="xtick_17">
     <g id="line2d_17">
      <g>
       <use xlink:href="#mfe5c6f23b6" x="165.527641" y="307.584" style="stroke: #000000; stroke-width: 0.6"/>
      </g>
     </g>
    </g>
    <g id="xtick_18">
     <g id="line2d_18">
      <g>
       <use xlink:href="#mfe5c6f23b6" x="172.056279" y="307.584" style="stroke: #000000; stroke-width: 0.6"/>
      </g>
     </g>
    </g>
    <g id="xtick_19">
     <g id="line2d_19">
      <g>
       <use xlink:href="#mfe5c6f23b6" x="177.390564" y="307.584" style="stroke: #000000; stroke-width: 0.6"/>
      </g>
     </g>
    </g>
    <g id="xtick_20">
     <g id="line2d_20">
      <g>
       <use xlink:href="#mfe5c6f23b6" x="181.900638" y="307.584" style="stroke: #000000; stroke-width: 0.6"/>
      </g>
     </g>
    </g>
    <g id="xtick_21">
     <g id="line2d_21">
      <g>
       <use xlink:href="#mfe5c6f23b6" x="185.807442" y="307.584" style="stroke: #000000; stroke-width: 0.6"/>
      </g>
     </g>
    </g>
    <g id="xtick_22">
     <g id="line2d_22">
      <g>
       <use xlink:href="#mfe5c6f23b6" x="189.253487" y="307.584" style="stroke: #000000; stroke-width: 0.6"/>
      </g>
     </g>
    </g>
    <g id="xtick_23">
     <g id="line2d_23">
      <g>
       <use xlink:href="#mfe5c6f23b6" x="212.61588" y="307.584" style="stroke: #000000; stroke-width: 0.6"/>
      </g>
     </g>
    </g>
    <g id="xtick_24">
     <g id="line2d_24">
      <g>
       <use xlink:href="#mfe5c6f23b6" x="224.478803" y="307.584" style="stroke: #000000; stroke-width: 0.6"/>
      </g>
     </g>
    </g>
    <g id="xtick_25">
     <g id="line2d_25">
      <g>
       <use xlink:href="#mfe5c6f23b6" x="232.895681" y="307.584" style="stroke: #000000; stroke-width: 0.6"/>
      </g>
     </g>
    </g>
    <g id="xtick_26">
     <g id="line2d_26">
      <g>
       <use xlink:href="#mfe5c6f23b6" x="239.424319" y="307.584" style="stroke: #000000; stroke-width: 0.6"/>
      </g>
     </g>
    </g>
    <g id="xtick_27">
     <g id="line2d_27">
      <g>
       <use xlink:href="#mfe5c6f23b6" x="244.758604" y="307.584" style="stroke: #000000; stroke-width: 0.6"/>
      </g>
     </g>
    </g>
    <g id="xtick_28">
     <g id="line2d_28">
      <g>
       <use xlink:href="#mfe5c6f23b6" x="249.268678" y="307.584" style="stroke: #000000; stroke-width: 0.6"/>
      </g>
     </g>
    </g>
    <g id="xtick_29">
     <g id="line2d_29">
      <g>
       <use xlink:href="#mfe5c6f23b6" x="253.175482" y="307.584" style="stroke: #000000; stroke-width: 0.6"/>
      </g>
     </g>
    </g>
    <g id="xtick_30">
     <g id="line2d_30">
      <g>
       <use xlink:href="#mfe5c6f23b6" x="256.621527" y="307.584" style="stroke: #000000; stroke-width: 0.6"/>
      </g>
     </g>
    </g>
    <g id="xtick_31">
     <g id="line2d_31">
      <g>
       <use xlink:href="#mfe5c6f23b6" x="279.98392" y="307.584" style="stroke: #000000; stroke-width: 0.6"/>
      </g>
     </g>
    </g>
    <g id="xtick_32">
     <g id="line2d_32">
      <g>
       <use xlink:href="#mfe5c6f23b6" x="291.846843" y="307.584" style="stroke: #000000; stroke-width: 0.6"/>
      </g>
     </g>
    </g>
    <g id="xtick_33">
     <g id="line2d_33">
      <g>
       <use xlink:href="#mfe5c6f23b6" x="300.263721" y="307.584" style="stroke: #000000; stroke-width: 0.6"/>
      </g>
     </g>
    </g>
    <g id="xtick_34">
     <g id="line2d_34">
      <g>
       <use xlink:href="#mfe5c6f23b6" x="306.792359" y="307.584" style="stroke: #000000; stroke-width: 0.6"/>
      </g>
     </g>
    </g>
    <g id="xtick_35">
     <g id="line2d_35">
      <g>
       <use xlink:href="#mfe5c6f23b6" x="312.126644" y="307.584" style="stroke: #000000; stroke-width: 0.6"/>
      </g>
     </g>
    </g>
    <g id="xtick_36">
     <g id="line2d_36">
      <g>
       <use xlink:href="#mfe5c6f23b6" x="316.636718" y="307.584" style="stroke: #000000; stroke-width: 0.6"/>
      </g>
     </g>
    </g>
    <g id="xtick_37">
     <g id="line2d_37">
      <g>
       <use xlink:href="#mfe5c6f23b6" x="320.543522" y="307.584" style="stroke: #000000; stroke-width: 0.6"/>
      </g>
     </g>
    </g>
    <g id="xtick_38">
     <g id="line2d_38">
      <g>
       <use xlink:href="#mfe5c6f23b6" x="323.989567" y="307.584" style="stroke: #000000; stroke-width: 0.6"/>
      </g>
     </g>
    </g>
    <g id="xtick_39">
     <g id="line2d_39">
      <g>
       <use xlink:href="#mfe5c6f23b6" x="347.35196" y="307.584" style="stroke: #000000; stroke-width: 0.6"/>
      </g>
     </g>
    </g>
    <g id="xtick_40">
     <g id="line2d_40">
      <g>
       <use xlink:href="#mfe5c6f23b6" x="359.214883" y="307.584" style="stroke: #000000; stroke-width: 0.6"/>
      </g>
     </g>
    </g>
    <g id="xtick_41">
     <g id="line2d_41">
      <g>
       <use xlink:href="#mfe5c6f23b6" x="367.631761" y="307.584" style="stroke: #000000; stroke-width: 0.6"/>
      </g>
     </g>
    </g>
    <g id="xtick_42">
     <g id="line2d_42">
      <g>
       <use xlink:href="#mfe5c6f23b6" x="374.160399" y="307.584" style="stroke: #000000; stroke-width: 0.6"/>
      </g>
     </g>
    </g>
    <g id="xtick_43">
     <g id="line2d_43">
      <g>
       <use xlink:href="#mfe5c6f23b6" x="379.494684" y="307.584" style="stroke: #000000; stroke-width: 0.6"/>
      </g>
     </g>
    </g>
    <g id="xtick_44">
     <g id="line2d_44">
      <g>
       <use xlink:href="#mfe5c6f23b6" x="384.004758" y="307.584" style="stroke: #000000; stroke-width: 0.6"/>
      </g>
     </g>
    </g>
    <g id="xtick_45">
     <g id="line2d_45">
      <g>
       <use xlink:href="#mfe5c6f23b6" x="387.911562" y="307.584" style="stroke: #000000; stroke-width: 0.6"/>
      </g>
     </g>
    </g>
    <g id="xtick_46">
     <g id="line2d_46">
      <g>
       <use xlink:href="#mfe5c6f23b6" x="391.357607" y="307.584" style="stroke: #000000; stroke-width: 0.6"/>
      </g>
     </g>
    </g>
    <g id="xtick_47">
     <g id="line2d_47">
      <g>
       <use xlink:href="#mfe5c6f23b6" x="414.72" y="307.584" style="stroke: #000000; stroke-width: 0.6"/>
      </g>
     </g>
    </g>
    <g id="text_7">
     <!-- iter# -->
     <g transform="translate(223.488906 335.860562) scale(0.1 -0.1)">
      <defs>
       <path id="DejaVuSans-69" d="M 603 3500 
L 1178 3500 
L 1178 0 
L 603 0 
L 603 3500 
z
M 603 4863 
L 1178 4863 
L 1178 4134 
L 603 4134 
L 603 4863 
z
" transform="scale(0.015625)"/>
       <path id="DejaVuSans-74" d="M 1172 4494 
L 1172 3500 
L 2356 3500 
L 2356 3053 
L 1172 3053 
L 1172 1153 
Q 1172 725 1289 603 
Q 1406 481 1766 481 
L 2356 481 
L 2356 0 
L 1766 0 
Q 1100 0 847 248 
Q 594 497 594 1153 
L 594 3053 
L 172 3053 
L 172 3500 
L 594 3500 
L 594 4494 
L 1172 4494 
z
" transform="scale(0.015625)"/>
       <path id="DejaVuSans-65" d="M 3597 1894 
L 3597 1613 
L 953 1613 
Q 991 1019 1311 708 
Q 1631 397 2203 397 
Q 2534 397 2845 478 
Q 3156 559 3463 722 
L 3463 178 
Q 3153 47 2828 -22 
Q 2503 -91 2169 -91 
Q 1331 -91 842 396 
Q 353 884 353 1716 
Q 353 2575 817 3079 
Q 1281 3584 2069 3584 
Q 2775 3584 3186 3129 
Q 3597 2675 3597 1894 
z
M 3022 2063 
Q 3016 2534 2758 2815 
Q 2500 3097 2075 3097 
Q 1594 3097 1305 2825 
Q 1016 2553 972 2059 
L 3022 2063 
z
" transform="scale(0.015625)"/>
       <path id="DejaVuSans-72" d="M 2631 2963 
Q 2534 3019 2420 3045 
Q 2306 3072 2169 3072 
Q 1681 3072 1420 2755 
Q 1159 2438 1159 1844 
L 1159 0 
L 581 0 
L 581 3500 
L 1159 3500 
L 1159 2956 
Q 1341 3275 1631 3429 
Q 1922 3584 2338 3584 
Q 2397 3584 2469 3576 
Q 2541 3569 2628 3553 
L 2631 2963 
z
" transform="scale(0.015625)"/>
       <path id="DejaVuSans-23" d="M 3272 2816 
L 2363 2816 
L 2100 1772 
L 3016 1772 
L 3272 2816 
z
M 2803 4594 
L 2478 3297 
L 3391 3297 
L 3719 4594 
L 4219 4594 
L 3897 3297 
L 4872 3297 
L 4872 2816 
L 3775 2816 
L 3519 1772 
L 4513 1772 
L 4513 1294 
L 3397 1294 
L 3072 0 
L 2572 0 
L 2894 1294 
L 1978 1294 
L 1656 0 
L 1153 0 
L 1478 1294 
L 494 1294 
L 494 1772 
L 1594 1772 
L 1856 2816 
L 850 2816 
L 850 3297 
L 1978 3297 
L 2297 4594 
L 2803 4594 
z
" transform="scale(0.015625)"/>
      </defs>
      <use xlink:href="#DejaVuSans-69"/>
      <use xlink:href="#DejaVuSans-74" x="27.783203"/>
      <use xlink:href="#DejaVuSans-65" x="66.992188"/>
      <use xlink:href="#DejaVuSans-72" x="128.515625"/>
      <use xlink:href="#DejaVuSans-23" x="169.628906"/>
     </g>
    </g>
   </g>
   <g id="matplotlib.axis_2">
    <g id="ytick_1">
     <g id="line2d_48">
      <defs>
       <path id="m617b63fc2c" d="M 0 0 
L -3.5 0 
" style="stroke: #000000; stroke-width: 0.8"/>
      </defs>
      <g>
       <use xlink:href="#m617b63fc2c" x="57.6" y="245.254111" style="stroke: #000000; stroke-width: 0.8"/>
      </g>
     </g>
     <g id="text_8">
      <!-- $\mathdefault{10^{-2}}$ -->
      <g transform="translate(27.1 249.05333) scale(0.1 -0.1)">
       <use xlink:href="#DejaVuSans-31" transform="translate(0 0.765625)"/>
       <use xlink:href="#DejaVuSans-30" transform="translate(63.623047 0.765625)"/>
       <use xlink:href="#DejaVuSans-2212" transform="translate(128.203125 39.046875) scale(0.7)"/>
       <use xlink:href="#DejaVuSans-32" transform="translate(186.855469 39.046875) scale(0.7)"/>
      </g>
     </g>
    </g>
    <g id="ytick_2">
     <g id="line2d_49">
      <g>
       <use xlink:href="#m617b63fc2c" x="57.6" y="88.622741" style="stroke: #000000; stroke-width: 0.8"/>
      </g>
     </g>
     <g id="text_9">
      <!-- $\mathdefault{10^{-1}}$ -->
      <g transform="translate(27.1 92.421959) scale(0.1 -0.1)">
       <use xlink:href="#DejaVuSans-31" transform="translate(0 0.684375)"/>
       <use xlink:href="#DejaVuSans-30" transform="translate(63.623047 0.684375)"/>
       <use xlink:href="#DejaVuSans-2212" transform="translate(128.203125 38.965625) scale(0.7)"/>
       <use xlink:href="#DejaVuSans-31" transform="translate(186.855469 38.965625) scale(0.7)"/>
      </g>
     </g>
    </g>
    <g id="ytick_3">
     <g id="line2d_50">
      <defs>
       <path id="m156958f9bf" d="M 0 0 
L -2 0 
" style="stroke: #000000; stroke-width: 0.6"/>
      </defs>
      <g>
       <use xlink:href="#m156958f9bf" x="57.6" y="307.584" style="stroke: #000000; stroke-width: 0.6"/>
      </g>
     </g>
    </g>
    <g id="ytick_4">
     <g id="line2d_51">
      <g>
       <use xlink:href="#m156958f9bf" x="57.6" y="292.404852" style="stroke: #000000; stroke-width: 0.6"/>
      </g>
     </g>
    </g>
    <g id="ytick_5">
     <g id="line2d_52">
      <g>
       <use xlink:href="#m156958f9bf" x="57.6" y="280.002585" style="stroke: #000000; stroke-width: 0.6"/>
      </g>
     </g>
    </g>
    <g id="ytick_6">
     <g id="line2d_53">
      <g>
       <use xlink:href="#m156958f9bf" x="57.6" y="269.516617" style="stroke: #000000; stroke-width: 0.6"/>
      </g>
     </g>
    </g>
    <g id="ytick_7">
     <g id="line2d_54">
      <g>
       <use xlink:href="#m156958f9bf" x="57.6" y="260.433259" style="stroke: #000000; stroke-width: 0.6"/>
      </g>
     </g>
    </g>
    <g id="ytick_8">
     <g id="line2d_55">
      <g>
       <use xlink:href="#m156958f9bf" x="57.6" y="252.42117" style="stroke: #000000; stroke-width: 0.6"/>
      </g>
     </g>
    </g>
    <g id="ytick_9">
     <g id="line2d_56">
      <g>
       <use xlink:href="#m156958f9bf" x="57.6" y="198.10337" style="stroke: #000000; stroke-width: 0.6"/>
      </g>
     </g>
    </g>
    <g id="ytick_10">
     <g id="line2d_57">
      <g>
       <use xlink:href="#m156958f9bf" x="57.6" y="170.521955" style="stroke: #000000; stroke-width: 0.6"/>
      </g>
     </g>
    </g>
    <g id="ytick_11">
     <g id="line2d_58">
      <g>
       <use xlink:href="#m156958f9bf" x="57.6" y="150.95263" style="stroke: #000000; stroke-width: 0.6"/>
      </g>
     </g>
    </g>
    <g id="ytick_12">
     <g id="line2d_59">
      <g>
       <use xlink:href="#m156958f9bf" x="57.6" y="135.773481" style="stroke: #000000; stroke-width: 0.6"/>
      </g>
     </g>
    </g>
    <g id="ytick_13">
     <g id="line2d_60">
      <g>
       <use xlink:href="#m156958f9bf" x="57.6" y="123.371214" style="stroke: #000000; stroke-width: 0.6"/>
      </g>
     </g>
    </g>
    <g id="ytick_14">
     <g id="line2d_61">
      <g>
       <use xlink:href="#m156958f9bf" x="57.6" y="112.885247" style="stroke: #000000; stroke-width: 0.6"/>
      </g>
     </g>
    </g>
    <g id="ytick_15">
     <g id="line2d_62">
      <g>
       <use xlink:href="#m156958f9bf" x="57.6" y="103.801889" style="stroke: #000000; stroke-width: 0.6"/>
      </g>
     </g>
    </g>
    <g id="ytick_16">
     <g id="line2d_63">
      <g>
       <use xlink:href="#m156958f9bf" x="57.6" y="95.789799" style="stroke: #000000; stroke-width: 0.6"/>
      </g>
     </g>
    </g>
    <g id="ytick_17">
     <g id="line2d_64">
      <g>
       <use xlink:href="#m156958f9bf" x="57.6" y="41.472" style="stroke: #000000; stroke-width: 0.6"/>
      </g>
     </g>
    </g>
    <g id="text_10">
     <!-- loss -->
     <g transform="translate(21.020313 184.185812) rotate(-90) scale(0.1 -0.1)">
      <defs>
       <path id="DejaVuSans-6c" d="M 603 4863 
L 1178 4863 
L 1178 0 
L 603 0 
L 603 4863 
z
" transform="scale(0.015625)"/>
       <path id="DejaVuSans-6f" d="M 1959 3097 
Q 1497 3097 1228 2736 
Q 959 2375 959 1747 
Q 959 1119 1226 758 
Q 1494 397 1959 397 
Q 2419 397 2687 759 
Q 2956 1122 2956 1747 
Q 2956 2369 2687 2733 
Q 2419 3097 1959 3097 
z
M 1959 3584 
Q 2709 3584 3137 3096 
Q 3566 2609 3566 1747 
Q 3566 888 3137 398 
Q 2709 -91 1959 -91 
Q 1206 -91 779 398 
Q 353 888 353 1747 
Q 353 2609 779 3096 
Q 1206 3584 1959 3584 
z
" transform="scale(0.015625)"/>
       <path id="DejaVuSans-73" d="M 2834 3397 
L 2834 2853 
Q 2591 2978 2328 3040 
Q 2066 3103 1784 3103 
Q 1356 3103 1142 2972 
Q 928 2841 928 2578 
Q 928 2378 1081 2264 
Q 1234 2150 1697 2047 
L 1894 2003 
Q 2506 1872 2764 1633 
Q 3022 1394 3022 966 
Q 3022 478 2636 193 
Q 2250 -91 1575 -91 
Q 1294 -91 989 -36 
Q 684 19 347 128 
L 347 722 
Q 666 556 975 473 
Q 1284 391 1588 391 
Q 1994 391 2212 530 
Q 2431 669 2431 922 
Q 2431 1156 2273 1281 
Q 2116 1406 1581 1522 
L 1381 1569 
Q 847 1681 609 1914 
Q 372 2147 372 2553 
Q 372 3047 722 3315 
Q 1072 3584 1716 3584 
Q 2034 3584 2315 3537 
Q 2597 3491 2834 3397 
z
" transform="scale(0.015625)"/>
      </defs>
      <use xlink:href="#DejaVuSans-6c"/>
      <use xlink:href="#DejaVuSans-6f" x="27.783203"/>
      <use xlink:href="#DejaVuSans-73" x="88.964844"/>
      <use xlink:href="#DejaVuSans-73" x="141.064453"/>
     </g>
    </g>
   </g>
   <g id="line2d_65">
    <path d="M 295.259691 -1 
L 299.145461 24.672335 
L 303.644677 51.940896 
L 307.543335 74.268157 
L 310.983042 82.42705 
L 314.060563 99.190905 
L 316.844958 102.726259 
L 319.387241 109.747214 
L 321.726169 121.93171 
L 323.891879 99.771176 
L 325.908268 114.788105 
L 327.794605 122.336603 
L 329.566655 106.152862 
L 331.237479 127.462493 
L 332.818018 133.048971 
L 334.317533 118.075907 
L 335.743927 136.330145 
L 337.104001 147.462946 
L 338.403649 120.101247 
L 339.648012 128.384771 
L 340.841603 104.623467 
L 341.988403 127.112538 
L 343.091942 94.53786 
L 344.155366 100.785082 
L 345.18149 115.165628 
L 346.172842 103.392235 
L 347.131701 110.922335 
L 348.06013 112.339715 
L 348.301871 130.748095 
L 349.19445 151.155928 
L 350.060602 165.107958 
L 350.901848 173.58706 
L 351.71958 178.226998 
L 352.515077 180.381585 
L 353.289516 181.997788 
L 354.043983 181.133083 
L 354.779483 181.888887 
L 355.496946 181.844457 
L 357.54945 183.356271 
L 358.202822 183.501397 
L 361.267236 183.426435 
L 361.843404 183.314713 
L 362.408444 183.367433 
L 362.962778 183.261646 
L 363.506804 183.608641 
L 364.040899 183.761882 
L 364.565418 183.007077 
L 365.587063 184.449854 
L 366.084811 184.846593 
L 366.574233 183.605177 
L 367.055602 183.574432 
L 367.52918 183.337379 
L 367.995214 183.429758 
L 368.57459 184.123309 
L 369.024391 182.434361 
L 369.467382 182.01206 
L 369.903764 172.355234 
L 370.333734 174.63251 
L 370.757476 178.189775 
L 371.175169 175.958944 
L 371.99308 178.942958 
L 372.788746 184.09537 
L 373.178609 181.212978 
L 373.943087 186.35749 
L 374.317964 186.58012 
L 374.688099 186.432759 
L 375.053609 184.270374 
L 375.414609 185.693929 
L 375.771209 180.597789 
L 376.123515 184.28892 
L 376.47163 185.887083 
L 376.81565 185.897127 
L 377.155673 187.861855 
L 377.49179 186.503429 
L 377.824089 187.214372 
L 378.477574 179.616252 
L 378.798923 181.847726 
L 379.116782 188.404045 
L 379.431224 189.86471 
L 379.742322 181.877297 
L 380.050148 183.444746 
L 380.435152 152.773807 
L 380.735811 167.310223 
L 381.033411 167.341097 
L 381.328015 179.697653 
L 381.619681 166.079395 
L 381.908469 170.676355 
L 382.194434 172.229951 
L 382.477631 176.545377 
L 382.758113 184.706719 
L 383.035932 189.331069 
L 383.311137 185.779373 
L 383.583778 190.465214 
L 383.853902 186.047058 
L 384.121555 193.879841 
L 384.386781 194.229368 
L 384.649624 187.139521 
L 385.168332 198.828909 
L 385.424277 199.567931 
L 385.678003 189.698385 
L 385.929547 199.275286 
L 386.426239 201.142277 
L 387.395021 188.323278 
L 387.632286 196.362415 
L 387.867642 175.11263 
L 388.10112 175.611226 
L 388.33275 184.446914 
L 388.56256 168.134806 
L 388.79058 181.555566 
L 388.85085 143.155509 
L 389.076642 118.515246 
L 389.523065 149.823994 
L 390.180181 183.423389 
L 390.6102 193.575506 
L 390.822863 194.878004 
L 391.03399 184.350346 
L 391.243606 193.204783 
L 391.45173 171.266509 
L 391.658384 184.718864 
L 391.863588 187.16384 
L 392.26973 204.12983 
L 392.470705 208.168032 
L 392.67031 205.174711 
L 392.868562 198.310393 
L 393.06548 204.859883 
L 393.261081 195.82739 
L 393.455384 192.618462 
L 393.648404 182.128543 
L 394.030666 208.518197 
L 394.21994 209.016977 
L 394.594855 214.069451 
L 394.780526 208.894734 
L 394.965026 209.30846 
L 395.14837 195.494836 
L 395.378779 204.940763 
L 395.559556 204.41468 
L 395.739223 197.514351 
L 395.917794 203.817825 
L 396.447058 230.199557 
L 396.794655 179.112027 
L 396.966917 185.25742 
L 397.138171 162.965689 
L 397.4777 206.213792 
L 397.645999 217.776887 
L 397.813335 215.805125 
L 397.979719 219.197063 
L 398.145163 161.212799 
L 398.473269 192.574459 
L 398.635953 205.762786 
L 398.797737 167.758246 
L 398.958631 174.350865 
L 399.27779 195.281242 
L 399.436073 178.209051 
L 399.593504 185.286102 
L 399.750093 178.1271 
L 399.905848 187.601182 
L 400.214893 167.485764 
L 400.3682 164.532412 
L 400.712592 206.488726 
L 400.86332 197.282255 
L 401.013275 200.606453 
L 401.162465 193.177377 
L 401.458583 110.178873 
L 401.605525 117.658732 
L 401.897215 171.874259 
L 402.329367 208.71413 
L 402.472011 208.671558 
L 402.613963 154.895389 
L 402.75523 168.16776 
L 402.895818 121.373403 
L 403.035733 117.436609 
L 403.174983 136.603859 
L 403.313572 136.075243 
L 403.451509 155.960204 
L 403.588798 95.156745 
L 403.861459 160.553984 
L 403.996842 161.551922 
L 404.131602 186.44538 
L 404.265744 177.198364 
L 404.399274 201.495258 
L 404.532197 176.913076 
L 404.796245 213.235149 
L 404.927381 197.835891 
L 405.057931 211.282902 
L 405.187902 121.044985 
L 405.222329 125.37684 
L 405.60836 188.534029 
L 405.989365 218.768988 
L 406.489774 238.93103 
L 406.981768 250.82123 
L 408.059406 266.394013 
L 409.098758 273.913915 
L 409.12888 259.723657 
L 409.242 93.90581 
L 409.354685 97.566238 
L 409.466938 97.154731 
L 409.578761 102.211937 
L 410.02183 153.890126 
L 410.131557 131.923744 
L 410.45829 181.934086 
L 410.566395 171.024269 
L 410.674102 172.799797 
L 410.781414 172.733173 
L 410.888333 179.914444 
L 410.994864 152.264503 
L 411.206768 178.61266 
L 411.312148 190.645956 
L 411.626027 176.855613 
L 411.72991 187.013092 
L 411.833425 171.322899 
L 412.039363 122.939629 
L 412.141791 115.470197 
L 412.243862 118.283014 
L 412.547955 161.026524 
L 412.574728 149.317592 
L 412.875419 212.399297 
L 413.17305 230.163599 
L 413.467685 234.679488 
L 413.759382 236.465246 
L 414.048199 237.822186 
L 414.143841 237.746373 
L 414.523315 239.430861 
L 414.711221 240.053977 
L 414.804724 239.355962 
L 415.083453 240.665945 
L 415.267807 240.702359 
L 415.54218 241.69134 
L 415.633068 241.376092 
L 415.633068 241.376092 
" clip-path="url(#p165fbe7027)" style="fill: none; stroke: #1f77b4; stroke-opacity: 0.4; stroke-linecap: square"/>
   </g>
   <g id="line2d_66">
    <path d="M 275.617842 -1 
L 278.941556 4.820329 
L 287.320511 23.310542 
L 293.826371 42.766453 
L 299.145461 54.794579 
L 303.644677 56.248079 
L 307.543335 61.77136 
L 310.983042 68.518394 
L 314.060563 65.677838 
L 316.844958 81.25014 
L 319.387241 84.092662 
L 321.726169 98.629306 
L 323.891879 105.902964 
L 325.908268 90.748585 
L 327.794605 96.470848 
L 329.566655 104.408675 
L 331.237479 109.469443 
L 332.818018 109.458885 
L 334.317533 84.235064 
L 335.743927 82.592166 
L 337.104001 97.32484 
L 338.403649 97.641864 
L 339.648012 108.200173 
L 340.841603 104.659198 
L 341.988403 116.610876 
L 343.091942 55.539882 
L 344.155366 85.104102 
L 345.18149 95.828052 
L 347.131701 122.592567 
L 348.06013 132.865559 
L 348.301871 139.381873 
L 349.19445 146.424698 
L 350.060602 150.937842 
L 350.901848 153.647678 
L 351.71958 155.215097 
L 352.515077 155.970791 
L 353.289516 156.212254 
L 354.043983 157.065853 
L 354.779483 157.691657 
L 356.197235 158.416727 
L 356.881154 158.549745 
L 358.202822 158.975179 
L 359.467356 159.463587 
L 360.079702 159.392433 
L 360.679494 159.752459 
L 364.040899 160.691099 
L 364.565418 160.63752 
L 365.587063 161.222819 
L 366.574233 161.285587 
L 367.055602 161.333098 
L 367.52918 161.182142 
L 367.995214 161.579488 
L 368.45394 161.376207 
L 368.57459 160.868068 
L 369.024391 161.283278 
L 369.467382 162.07069 
L 369.903764 161.655724 
L 370.333734 159.963394 
L 370.757476 161.79502 
L 371.175169 162.52087 
L 371.586982 162.928988 
L 371.99308 162.795873 
L 372.393617 163.63133 
L 373.178609 163.533608 
L 373.563345 164.289174 
L 373.943087 164.080828 
L 375.053609 166.085278 
L 375.414609 166.04708 
L 376.123515 165.444176 
L 376.47163 165.244243 
L 377.155673 166.583631 
L 377.49179 166.759588 
L 377.824089 167.217415 
L 378.152656 165.795135 
L 378.477574 165.466024 
L 378.798923 167.139247 
L 379.431224 168.257469 
L 379.742322 167.306367 
L 380.050148 167.93655 
L 380.354768 167.948205 
L 380.435152 167.350748 
L 380.735811 167.640187 
L 381.033411 168.475049 
L 381.328015 165.607256 
L 381.908469 168.303847 
L 382.194434 168.536301 
L 382.477631 169.03595 
L 382.758113 169.873873 
L 383.035932 168.229919 
L 383.311137 170.057146 
L 383.583778 170.866431 
L 383.853902 171.00575 
L 384.121555 167.937334 
L 384.386781 166.177695 
L 384.910128 170.219717 
L 385.168332 170.895249 
L 385.424277 172.100712 
L 385.678003 171.8524 
L 385.929547 170.789077 
L 386.178947 164.362135 
L 386.426239 169.357786 
L 386.671459 167.165943 
L 387.155816 172.529726 
L 387.395021 168.792768 
L 387.632286 168.97901 
L 387.867642 169.551265 
L 388.79058 175.293565 
L 389.076642 171.848816 
L 389.300705 171.782101 
L 389.523065 173.999914 
L 389.743747 172.057397 
L 389.962778 173.689648 
L 390.180181 173.673717 
L 390.395981 175.564608 
L 390.822863 173.143333 
L 391.243606 177.723223 
L 391.45173 179.083841 
L 391.658384 179.185072 
L 391.863588 174.301041 
L 392.067364 175.582848 
L 392.26973 175.203764 
L 392.470705 173.660002 
L 392.67031 176.845313 
L 392.868562 173.318848 
L 393.06548 176.86229 
L 393.261081 160.684615 
L 393.648404 172.769605 
L 393.840159 170.977384 
L 394.030666 171.689775 
L 394.21994 176.156643 
L 394.594855 178.861742 
L 394.780526 179.575686 
L 394.965026 181.34378 
L 395.330572 182.365173 
L 395.378779 183.313356 
L 395.559556 177.669041 
L 395.739223 163.488092 
L 395.917794 160.978256 
L 396.271698 175.040606 
L 396.447058 178.971285 
L 396.621372 174.231054 
L 396.966917 181.58097 
L 397.138171 172.651451 
L 397.4777 182.471757 
L 397.645999 161.924341 
L 397.813335 171.265587 
L 398.145163 162.220832 
L 398.309676 165.640483 
L 398.473269 173.302882 
L 398.797737 177.060246 
L 398.958631 174.420829 
L 399.118646 178.951478 
L 399.436073 171.964036 
L 399.750093 182.636566 
L 399.905848 177.720709 
L 400.060779 164.786839 
L 400.214893 165.343361 
L 400.520707 181.577353 
L 400.672424 175.705825 
L 400.712592 180.505589 
L 401.458583 189.49067 
L 401.605525 187.614696 
L 401.751733 188.291299 
L 401.897215 187.303701 
L 402.041976 187.710045 
L 402.186025 188.72237 
L 402.329367 188.805794 
L 402.613963 182.688386 
L 402.75523 186.506585 
L 402.895818 186.778592 
L 403.035733 185.303869 
L 403.174983 186.972077 
L 403.451509 181.928578 
L 403.588798 185.201976 
L 403.725446 181.038266 
L 403.861459 182.285376 
L 403.996842 181.36291 
L 404.131602 185.548954 
L 404.399274 175.080649 
L 404.532197 164.12777 
L 404.664519 176.537899 
L 404.796245 178.014531 
L 404.927381 175.173789 
L 405.222329 189.307022 
L 405.351573 189.835953 
L 405.480248 186.041569 
L 405.60836 187.018006 
L 405.735914 189.551962 
L 405.862914 183.137085 
L 405.989365 156.962666 
L 406.115272 166.381335 
L 406.240639 164.075344 
L 406.365472 173.898222 
L 406.489774 167.683768 
L 406.736805 182.617584 
L 406.859543 150.039228 
L 406.981768 165.774573 
L 407.103484 164.535005 
L 407.465625 182.420715 
L 407.585349 187.366421 
L 407.704585 187.525014 
L 407.823338 181.689106 
L 408.17673 193.71389 
L 408.293585 189.166296 
L 408.409975 189.087702 
L 408.525904 184.813264 
L 408.870961 191.39302 
L 408.985081 185.592263 
L 409.098758 186.498697 
L 409.12888 191.12301 
L 409.354685 190.969513 
L 409.466938 194.213917 
L 409.578761 192.988834 
L 409.690159 194.301303 
L 409.801135 178.320146 
L 409.911691 188.45269 
L 410.02183 183.147061 
L 410.349784 190.688455 
L 410.566395 188.701135 
L 410.674102 193.70083 
L 410.888333 174.013644 
L 411.101008 190.942732 
L 411.206768 161.195128 
L 411.521774 189.101535 
L 411.626027 191.364375 
L 411.72991 190.738906 
L 411.833425 193.805556 
L 411.936576 192.280811 
L 412.039363 153.060354 
L 412.446941 183.669399 
L 412.547955 182.047247 
L 412.574728 157.228592 
L 412.775531 177.789789 
L 412.875419 175.226072 
L 412.974966 176.598594 
L 413.17305 191.554154 
L 413.271592 191.867853 
L 413.369803 190.79001 
L 413.467685 181.813958 
L 413.565241 184.049949 
L 413.662472 155.000004 
L 413.855971 179.304995 
L 413.952243 173.099461 
L 414.239172 193.260404 
L 414.334193 192.53673 
L 414.428907 194.208287 
L 414.523315 192.840356 
L 414.711221 177.41473 
L 414.804724 184.288286 
L 414.897929 179.441382 
L 415.175775 194.807013 
L 415.267807 195.45566 
L 415.451008 189.714089 
L 415.54218 190.416434 
L 415.633068 190.71969 
L 415.633068 190.71969 
" clip-path="url(#p165fbe7027)" style="fill: none; stroke: #ff7f0e; stroke-opacity: 0.4; stroke-linecap: square"/>
   </g>
   <g id="line2d_67">
    <path d="M 271.488399 -1 
L 278.941556 14.819258 
L 287.320511 21.484852 
L 293.826371 48.092494 
L 299.145461 59.840779 
L 303.644677 77.552304 
L 307.543335 90.569376 
L 310.983042 89.341438 
L 314.060563 89.171809 
L 316.844958 91.658246 
L 319.387241 89.599201 
L 321.726169 101.196381 
L 323.891879 105.408227 
L 325.908268 114.112066 
L 327.794605 110.901658 
L 329.566655 112.80148 
L 331.237479 76.66095 
L 332.818018 78.702741 
L 334.317533 88.887342 
L 335.743927 100.34743 
L 337.104001 108.250842 
L 338.403649 83.438452 
L 339.648012 106.887405 
L 340.841603 112.007201 
L 341.988403 110.794549 
L 343.091942 127.174184 
L 345.18149 94.007501 
L 346.172842 99.377726 
L 347.131701 118.685912 
L 349.19445 149.027595 
L 350.060602 156.743318 
L 350.901848 161.604698 
L 351.71958 164.505121 
L 352.515077 166.523347 
L 353.289516 167.925424 
L 354.779483 169.568782 
L 356.197235 171.031732 
L 359.467356 172.972202 
L 361.267236 173.415559 
L 362.408444 173.967654 
L 362.962778 174.149658 
L 363.506804 174.489752 
L 365.0807 174.603062 
L 366.574233 175.052541 
L 367.055602 174.94032 
L 367.995214 175.48603 
L 368.45394 175.20035 
L 368.57459 173.667047 
L 369.024391 174.001015 
L 369.467382 174.711195 
L 369.903764 174.941949 
L 370.333734 175.83393 
L 370.757476 174.305243 
L 371.175169 175.156278 
L 371.99308 177.700351 
L 372.393617 167.091389 
L 373.178609 175.285177 
L 373.563345 177.165755 
L 373.943087 175.073727 
L 374.317964 176.808025 
L 374.688099 175.724319 
L 375.053609 175.575104 
L 375.414609 178.956828 
L 375.771209 179.34429 
L 376.123515 170.192637 
L 376.47163 175.7989 
L 376.81565 171.910174 
L 377.49179 180.155639 
L 377.824089 180.745074 
L 378.152656 170.777295 
L 378.798923 179.788381 
L 379.116782 182.064002 
L 379.431224 180.014811 
L 379.742322 175.492274 
L 380.050148 179.037356 
L 380.735811 183.114979 
L 381.033411 184.346527 
L 381.328015 183.087685 
L 381.619681 183.845374 
L 381.908469 185.253939 
L 382.194434 185.050649 
L 382.477631 183.072464 
L 382.758113 178.029546 
L 383.035932 182.498634 
L 383.311137 184.312211 
L 383.583778 179.980936 
L 383.853902 178.63222 
L 384.121555 183.560071 
L 384.386781 174.92186 
L 384.649624 180.206296 
L 384.910128 180.758851 
L 385.168332 185.033318 
L 385.929547 189.740834 
L 386.178947 188.82572 
L 386.426239 182.978759 
L 386.671459 184.64623 
L 386.91464 181.139983 
L 387.155816 184.115081 
L 387.395021 180.849031 
L 387.632286 176.013845 
L 387.867642 178.365315 
L 388.33275 186.46171 
L 388.56256 189.757326 
L 388.79058 188.671791 
L 388.85085 189.416751 
L 389.076642 174.931813 
L 389.300705 183.135295 
L 389.523065 184.084147 
L 389.743747 182.533537 
L 389.962778 185.336322 
L 390.180181 184.123282 
L 390.395981 188.628677 
L 390.6102 177.735561 
L 390.822863 186.216434 
L 391.03399 172.685573 
L 391.45173 188.418451 
L 392.26973 195.569836 
L 392.470705 194.088506 
L 392.67031 194.984036 
L 392.868562 191.567282 
L 393.06548 177.902814 
L 393.455384 190.537545 
L 393.648404 191.637257 
L 393.840159 191.354643 
L 394.030666 182.619729 
L 394.407998 192.930751 
L 394.594855 192.347976 
L 394.780526 188.396641 
L 394.965026 193.378986 
L 395.14837 186.572425 
L 395.330572 186.437116 
L 395.378779 176.082211 
L 395.739223 192.887043 
L 395.917794 197.813825 
L 396.095281 196.982122 
L 396.271698 199.332855 
L 396.447058 199.534453 
L 396.621372 181.759226 
L 396.966917 192.446611 
L 397.138171 196.784998 
L 397.308428 191.11626 
L 397.4777 192.340602 
L 397.645999 192.396771 
L 397.813335 191.75919 
L 397.979719 197.406795 
L 398.145163 198.786366 
L 398.473269 199.201341 
L 399.118646 204.203032 
L 399.27779 190.898614 
L 399.593504 198.870831 
L 399.750093 201.184811 
L 399.905848 197.356602 
L 400.060779 189.438618 
L 400.214893 195.673158 
L 400.3682 191.588525 
L 400.520707 197.472113 
L 400.672424 198.212828 
L 400.712592 187.921724 
L 400.86332 180.086618 
L 401.013275 181.698536 
L 401.162465 190.397893 
L 401.310898 176.221968 
L 401.458583 179.801786 
L 401.605525 169.923036 
L 401.897215 187.256745 
L 402.041976 173.550748 
L 402.186025 181.631374 
L 402.329367 176.899617 
L 402.613963 195.167852 
L 402.75523 192.455655 
L 402.895818 180.876401 
L 403.174983 191.757696 
L 403.313572 178.031771 
L 403.451509 145.923417 
L 403.588798 163.377524 
L 403.725446 159.447184 
L 403.861459 176.03291 
L 403.996842 171.711963 
L 404.664519 201.512608 
L 404.796245 203.685961 
L 404.927381 197.877239 
L 405.057931 202.434041 
L 405.222329 192.143995 
L 405.480248 204.970572 
L 405.735914 208.94218 
L 405.862914 205.636444 
L 406.115272 208.658893 
L 406.365472 210.931582 
L 406.61355 210.163259 
L 406.736805 207.8573 
L 406.859543 208.219965 
L 406.981768 204.847427 
L 407.103484 208.742589 
L 407.224697 207.044164 
L 407.465625 211.440887 
L 407.704585 207.902833 
L 407.94161 211.26636 
L 408.059406 197.382144 
L 408.17673 203.97156 
L 408.293585 201.44388 
L 408.525904 205.63407 
L 408.641376 199.10507 
L 408.756394 204.260795 
L 408.870961 203.996677 
L 408.985081 205.870571 
L 409.242 181.943152 
L 409.578761 199.056411 
L 409.690159 200.958307 
L 409.801135 186.871637 
L 410.02183 195.322339 
L 410.240874 185.716096 
L 410.349784 185.963414 
L 410.45829 193.09493 
L 410.566395 182.65759 
L 410.674102 193.34039 
L 410.781414 183.523947 
L 410.994864 196.172695 
L 411.101008 195.691086 
L 411.206768 202.152836 
L 411.312148 201.262493 
L 411.417149 203.748444 
L 411.626027 199.887047 
L 411.72991 192.341403 
L 411.833425 198.13699 
L 411.936576 196.839731 
L 412.141791 181.111235 
L 412.446941 196.900427 
L 412.547955 192.972735 
L 412.675302 202.804831 
L 412.974966 207.572309 
L 413.074176 207.75684 
L 413.17305 209.908645 
L 413.271592 197.594941 
L 413.369803 202.705099 
L 413.467685 198.851396 
L 413.759382 206.345615 
L 413.952243 209.331475 
L 414.048199 206.912522 
L 414.143841 200.432248 
L 414.334193 209.460219 
L 414.428907 206.709558 
L 414.523315 183.747182 
L 414.804724 206.846876 
L 414.897929 203.929515 
L 415.083453 209.992517 
L 415.175775 203.708306 
L 415.451008 212.508748 
L 415.633068 210.170314 
L 415.633068 210.170314 
" clip-path="url(#p165fbe7027)" style="fill: none; stroke: #2ca02c; stroke-opacity: 0.4; stroke-linecap: square"/>
   </g>
   <g id="patch_3">
    <path d="M 57.6 307.584 
L 57.6 41.472 
" style="fill: none; stroke: #000000; stroke-width: 0.8; stroke-linejoin: miter; stroke-linecap: square"/>
   </g>
   <g id="patch_4">
    <path d="M 414.72 307.584 
L 414.72 41.472 
" style="fill: none; stroke: #000000; stroke-width: 0.8; stroke-linejoin: miter; stroke-linecap: square"/>
   </g>
   <g id="patch_5">
    <path d="M 57.6 307.584 
L 414.72 307.584 
" style="fill: none; stroke: #000000; stroke-width: 0.8; stroke-linejoin: miter; stroke-linecap: square"/>
   </g>
   <g id="patch_6">
    <path d="M 57.6 41.472 
L 414.72 41.472 
" style="fill: none; stroke: #000000; stroke-width: 0.8; stroke-linejoin: miter; stroke-linecap: square"/>
   </g>
   <g id="text_11">
    <!-- 2025-02-18-14:50:36 -->
    <g transform="translate(172.178438 35.472) scale(0.12 -0.12)">
     <defs>
      <path id="DejaVuSans-35" d="M 691 4666 
L 3169 4666 
L 3169 4134 
L 1269 4134 
L 1269 2991 
Q 1406 3038 1543 3061 
Q 1681 3084 1819 3084 
Q 2600 3084 3056 2656 
Q 3513 2228 3513 1497 
Q 3513 744 3044 326 
Q 2575 -91 1722 -91 
Q 1428 -91 1123 -41 
Q 819 9 494 109 
L 494 744 
Q 775 591 1075 516 
Q 1375 441 1709 441 
Q 2250 441 2565 725 
Q 2881 1009 2881 1497 
Q 2881 1984 2565 2268 
Q 2250 2553 1709 2553 
Q 1456 2553 1204 2497 
Q 953 2441 691 2322 
L 691 4666 
z
" transform="scale(0.015625)"/>
      <path id="DejaVuSans-2d" d="M 313 2009 
L 1997 2009 
L 1997 1497 
L 313 1497 
L 313 2009 
z
" transform="scale(0.015625)"/>
      <path id="DejaVuSans-38" d="M 2034 2216 
Q 1584 2216 1326 1975 
Q 1069 1734 1069 1313 
Q 1069 891 1326 650 
Q 1584 409 2034 409 
Q 2484 409 2743 651 
Q 3003 894 3003 1313 
Q 3003 1734 2745 1975 
Q 2488 2216 2034 2216 
z
M 1403 2484 
Q 997 2584 770 2862 
Q 544 3141 544 3541 
Q 544 4100 942 4425 
Q 1341 4750 2034 4750 
Q 2731 4750 3128 4425 
Q 3525 4100 3525 3541 
Q 3525 3141 3298 2862 
Q 3072 2584 2669 2484 
Q 3125 2378 3379 2068 
Q 3634 1759 3634 1313 
Q 3634 634 3220 271 
Q 2806 -91 2034 -91 
Q 1263 -91 848 271 
Q 434 634 434 1313 
Q 434 1759 690 2068 
Q 947 2378 1403 2484 
z
M 1172 3481 
Q 1172 3119 1398 2916 
Q 1625 2713 2034 2713 
Q 2441 2713 2670 2916 
Q 2900 3119 2900 3481 
Q 2900 3844 2670 4047 
Q 2441 4250 2034 4250 
Q 1625 4250 1398 4047 
Q 1172 3844 1172 3481 
z
" transform="scale(0.015625)"/>
      <path id="DejaVuSans-3a" d="M 750 794 
L 1409 794 
L 1409 0 
L 750 0 
L 750 794 
z
M 750 3309 
L 1409 3309 
L 1409 2516 
L 750 2516 
L 750 3309 
z
" transform="scale(0.015625)"/>
      <path id="DejaVuSans-36" d="M 2113 2584 
Q 1688 2584 1439 2293 
Q 1191 2003 1191 1497 
Q 1191 994 1439 701 
Q 1688 409 2113 409 
Q 2538 409 2786 701 
Q 3034 994 3034 1497 
Q 3034 2003 2786 2293 
Q 2538 2584 2113 2584 
z
M 3366 4563 
L 3366 3988 
Q 3128 4100 2886 4159 
Q 2644 4219 2406 4219 
Q 1781 4219 1451 3797 
Q 1122 3375 1075 2522 
Q 1259 2794 1537 2939 
Q 1816 3084 2150 3084 
Q 2853 3084 3261 2657 
Q 3669 2231 3669 1497 
Q 3669 778 3244 343 
Q 2819 -91 2113 -91 
Q 1303 -91 875 529 
Q 447 1150 447 2328 
Q 447 3434 972 4092 
Q 1497 4750 2381 4750 
Q 2619 4750 2861 4703 
Q 3103 4656 3366 4563 
z
" transform="scale(0.015625)"/>
     </defs>
     <use xlink:href="#DejaVuSans-32"/>
     <use xlink:href="#DejaVuSans-30" x="63.623047"/>
     <use xlink:href="#DejaVuSans-32" x="127.246094"/>
     <use xlink:href="#DejaVuSans-35" x="190.869141"/>
     <use xlink:href="#DejaVuSans-2d" x="254.492188"/>
     <use xlink:href="#DejaVuSans-30" x="290.576172"/>
     <use xlink:href="#DejaVuSans-32" x="354.199219"/>
     <use xlink:href="#DejaVuSans-2d" x="417.822266"/>
     <use xlink:href="#DejaVuSans-31" x="453.90625"/>
     <use xlink:href="#DejaVuSans-38" x="517.529297"/>
     <use xlink:href="#DejaVuSans-2d" x="581.152344"/>
     <use xlink:href="#DejaVuSans-31" x="617.236328"/>
     <use xlink:href="#DejaVuSans-34" x="680.859375"/>
     <use xlink:href="#DejaVuSans-3a" x="744.482422"/>
     <use xlink:href="#DejaVuSans-35" x="778.173828"/>
     <use xlink:href="#DejaVuSans-30" x="841.796875"/>
     <use xlink:href="#DejaVuSans-3a" x="905.419922"/>
     <use xlink:href="#DejaVuSans-33" x="939.111328"/>
     <use xlink:href="#DejaVuSans-36" x="1002.734375"/>
    </g>
   </g>
   <g id="legend_1">
    <g id="patch_7">
     <path d="M 64.6 94.34075 
L 190.723438 94.34075 
Q 192.723438 94.34075 192.723438 92.34075 
L 192.723438 48.472 
Q 192.723438 46.472 190.723438 46.472 
L 64.6 46.472 
Q 62.6 46.472 62.6 48.472 
L 62.6 92.34075 
Q 62.6 94.34075 64.6 94.34075 
z
" style="fill: #ffffff; opacity: 0.8; stroke: #cccccc; stroke-linejoin: miter"/>
    </g>
    <g id="line2d_68">
     <path d="M 66.6 54.570438 
L 76.6 54.570438 
L 86.6 54.570438 
" style="fill: none; stroke: #1f77b4; stroke-opacity: 0.4; stroke-linecap: square"/>
    </g>
    <g id="text_12">
     <!-- SchNet eval_loss -->
     <g transform="translate(94.6 58.070438) scale(0.1 -0.1)">
      <defs>
       <path id="DejaVuSans-53" d="M 3425 4513 
L 3425 3897 
Q 3066 4069 2747 4153 
Q 2428 4238 2131 4238 
Q 1616 4238 1336 4038 
Q 1056 3838 1056 3469 
Q 1056 3159 1242 3001 
Q 1428 2844 1947 2747 
L 2328 2669 
Q 3034 2534 3370 2195 
Q 3706 1856 3706 1288 
Q 3706 609 3251 259 
Q 2797 -91 1919 -91 
Q 1588 -91 1214 -16 
Q 841 59 441 206 
L 441 856 
Q 825 641 1194 531 
Q 1563 422 1919 422 
Q 2459 422 2753 634 
Q 3047 847 3047 1241 
Q 3047 1584 2836 1778 
Q 2625 1972 2144 2069 
L 1759 2144 
Q 1053 2284 737 2584 
Q 422 2884 422 3419 
Q 422 4038 858 4394 
Q 1294 4750 2059 4750 
Q 2388 4750 2728 4690 
Q 3069 4631 3425 4513 
z
" transform="scale(0.015625)"/>
       <path id="DejaVuSans-63" d="M 3122 3366 
L 3122 2828 
Q 2878 2963 2633 3030 
Q 2388 3097 2138 3097 
Q 1578 3097 1268 2742 
Q 959 2388 959 1747 
Q 959 1106 1268 751 
Q 1578 397 2138 397 
Q 2388 397 2633 464 
Q 2878 531 3122 666 
L 3122 134 
Q 2881 22 2623 -34 
Q 2366 -91 2075 -91 
Q 1284 -91 818 406 
Q 353 903 353 1747 
Q 353 2603 823 3093 
Q 1294 3584 2113 3584 
Q 2378 3584 2631 3529 
Q 2884 3475 3122 3366 
z
" transform="scale(0.015625)"/>
       <path id="DejaVuSans-68" d="M 3513 2113 
L 3513 0 
L 2938 0 
L 2938 2094 
Q 2938 2591 2744 2837 
Q 2550 3084 2163 3084 
Q 1697 3084 1428 2787 
Q 1159 2491 1159 1978 
L 1159 0 
L 581 0 
L 581 4863 
L 1159 4863 
L 1159 2956 
Q 1366 3272 1645 3428 
Q 1925 3584 2291 3584 
Q 2894 3584 3203 3211 
Q 3513 2838 3513 2113 
z
" transform="scale(0.015625)"/>
       <path id="DejaVuSans-4e" d="M 628 4666 
L 1478 4666 
L 3547 763 
L 3547 4666 
L 4159 4666 
L 4159 0 
L 3309 0 
L 1241 3903 
L 1241 0 
L 628 0 
L 628 4666 
z
" transform="scale(0.015625)"/>
       <path id="DejaVuSans-20" transform="scale(0.015625)"/>
       <path id="DejaVuSans-76" d="M 191 3500 
L 800 3500 
L 1894 563 
L 2988 3500 
L 3597 3500 
L 2284 0 
L 1503 0 
L 191 3500 
z
" transform="scale(0.015625)"/>
       <path id="DejaVuSans-61" d="M 2194 1759 
Q 1497 1759 1228 1600 
Q 959 1441 959 1056 
Q 959 750 1161 570 
Q 1363 391 1709 391 
Q 2188 391 2477 730 
Q 2766 1069 2766 1631 
L 2766 1759 
L 2194 1759 
z
M 3341 1997 
L 3341 0 
L 2766 0 
L 2766 531 
Q 2569 213 2275 61 
Q 1981 -91 1556 -91 
Q 1019 -91 701 211 
Q 384 513 384 1019 
Q 384 1609 779 1909 
Q 1175 2209 1959 2209 
L 2766 2209 
L 2766 2266 
Q 2766 2663 2505 2880 
Q 2244 3097 1772 3097 
Q 1472 3097 1187 3025 
Q 903 2953 641 2809 
L 641 3341 
Q 956 3463 1253 3523 
Q 1550 3584 1831 3584 
Q 2591 3584 2966 3190 
Q 3341 2797 3341 1997 
z
" transform="scale(0.015625)"/>
       <path id="DejaVuSans-5f" d="M 3263 -1063 
L 3263 -1509 
L -63 -1509 
L -63 -1063 
L 3263 -1063 
z
" transform="scale(0.015625)"/>
      </defs>
      <use xlink:href="#DejaVuSans-53"/>
      <use xlink:href="#DejaVuSans-63" x="63.476562"/>
      <use xlink:href="#DejaVuSans-68" x="118.457031"/>
      <use xlink:href="#DejaVuSans-4e" x="181.835938"/>
      <use xlink:href="#DejaVuSans-65" x="256.640625"/>
      <use xlink:href="#DejaVuSans-74" x="318.164062"/>
      <use xlink:href="#DejaVuSans-20" x="357.373047"/>
      <use xlink:href="#DejaVuSans-65" x="389.160156"/>
      <use xlink:href="#DejaVuSans-76" x="450.683594"/>
      <use xlink:href="#DejaVuSans-61" x="509.863281"/>
      <use xlink:href="#DejaVuSans-6c" x="571.142578"/>
      <use xlink:href="#DejaVuSans-5f" x="598.925781"/>
      <use xlink:href="#DejaVuSans-6c" x="648.925781"/>
      <use xlink:href="#DejaVuSans-6f" x="676.708984"/>
      <use xlink:href="#DejaVuSans-73" x="737.890625"/>
      <use xlink:href="#DejaVuSans-73" x="789.990234"/>
     </g>
    </g>
    <g id="line2d_69">
     <path d="M 66.6 69.526688 
L 76.6 69.526688 
L 86.6 69.526688 
" style="fill: none; stroke: #ff7f0e; stroke-opacity: 0.4; stroke-linecap: square"/>
    </g>
    <g id="text_13">
     <!-- MoGIN13 eval_loss -->
     <g transform="translate(94.6 73.026688) scale(0.1 -0.1)">
      <defs>
       <path id="DejaVuSans-4d" d="M 628 4666 
L 1569 4666 
L 2759 1491 
L 3956 4666 
L 4897 4666 
L 4897 0 
L 4281 0 
L 4281 4097 
L 3078 897 
L 2444 897 
L 1241 4097 
L 1241 0 
L 628 0 
L 628 4666 
z
" transform="scale(0.015625)"/>
       <path id="DejaVuSans-47" d="M 3809 666 
L 3809 1919 
L 2778 1919 
L 2778 2438 
L 4434 2438 
L 4434 434 
Q 4069 175 3628 42 
Q 3188 -91 2688 -91 
Q 1594 -91 976 548 
Q 359 1188 359 2328 
Q 359 3472 976 4111 
Q 1594 4750 2688 4750 
Q 3144 4750 3555 4637 
Q 3966 4525 4313 4306 
L 4313 3634 
Q 3963 3931 3569 4081 
Q 3175 4231 2741 4231 
Q 1884 4231 1454 3753 
Q 1025 3275 1025 2328 
Q 1025 1384 1454 906 
Q 1884 428 2741 428 
Q 3075 428 3337 486 
Q 3600 544 3809 666 
z
" transform="scale(0.015625)"/>
       <path id="DejaVuSans-49" d="M 628 4666 
L 1259 4666 
L 1259 0 
L 628 0 
L 628 4666 
z
" transform="scale(0.015625)"/>
      </defs>
      <use xlink:href="#DejaVuSans-4d"/>
      <use xlink:href="#DejaVuSans-6f" x="86.279297"/>
      <use xlink:href="#DejaVuSans-47" x="147.460938"/>
      <use xlink:href="#DejaVuSans-49" x="224.951172"/>
      <use xlink:href="#DejaVuSans-4e" x="254.443359"/>
      <use xlink:href="#DejaVuSans-31" x="329.248047"/>
      <use xlink:href="#DejaVuSans-33" x="392.871094"/>
      <use xlink:href="#DejaVuSans-20" x="456.494141"/>
      <use xlink:href="#DejaVuSans-65" x="488.28125"/>
      <use xlink:href="#DejaVuSans-76" x="549.804688"/>
      <use xlink:href="#DejaVuSans-61" x="608.984375"/>
      <use xlink:href="#DejaVuSans-6c" x="670.263672"/>
      <use xlink:href="#DejaVuSans-5f" x="698.046875"/>
      <use xlink:href="#DejaVuSans-6c" x="748.046875"/>
      <use xlink:href="#DejaVuSans-6f" x="775.830078"/>
      <use xlink:href="#DejaVuSans-73" x="837.011719"/>
      <use xlink:href="#DejaVuSans-73" x="889.111328"/>
     </g>
    </g>
    <g id="line2d_70">
     <path d="M 66.6 84.482938 
L 76.6 84.482938 
L 86.6 84.482938 
" style="fill: none; stroke: #2ca02c; stroke-opacity: 0.4; stroke-linecap: square"/>
    </g>
    <g id="text_14">
     <!-- MoGIN11 eval_loss -->
     <g transform="translate(94.6 87.982938) scale(0.1 -0.1)">
      <use xlink:href="#DejaVuSans-4d"/>
      <use xlink:href="#DejaVuSans-6f" x="86.279297"/>
      <use xlink:href="#DejaVuSans-47" x="147.460938"/>
      <use xlink:href="#DejaVuSans-49" x="224.951172"/>
      <use xlink:href="#DejaVuSans-4e" x="254.443359"/>
      <use xlink:href="#DejaVuSans-31" x="329.248047"/>
      <use xlink:href="#DejaVuSans-31" x="392.871094"/>
      <use xlink:href="#DejaVuSans-20" x="456.494141"/>
      <use xlink:href="#DejaVuSans-65" x="488.28125"/>
      <use xlink:href="#DejaVuSans-76" x="549.804688"/>
      <use xlink:href="#DejaVuSans-61" x="608.984375"/>
      <use xlink:href="#DejaVuSans-6c" x="670.263672"/>
      <use xlink:href="#DejaVuSans-5f" x="698.046875"/>
      <use xlink:href="#DejaVuSans-6c" x="748.046875"/>
      <use xlink:href="#DejaVuSans-6f" x="775.830078"/>
      <use xlink:href="#DejaVuSans-73" x="837.011719"/>
      <use xlink:href="#DejaVuSans-73" x="889.111328"/>
     </g>
    </g>
   </g>
  </g>
 </g>
 <defs>
  <clipPath id="p165fbe7027">
   <rect x="57.6" y="41.472" width="357.12" height="266.112"/>
  </clipPath>
 </defs>
</svg>
