<?xml version="1.0" encoding="utf-8" standalone="no"?>
<!DOCTYPE svg PUBLIC "-//W3C//DTD SVG 1.1//EN"
  "http://www.w3.org/Graphics/SVG/1.1/DTD/svg11.dtd">
<svg xmlns:xlink="http://www.w3.org/1999/xlink" width="460.8pt" height="345.6pt" viewBox="0 0 460.8 345.6" xmlns="http://www.w3.org/2000/svg" version="1.1">
 <metadata>
  <rdf:RDF xmlns:dc="http://purl.org/dc/elements/1.1/" xmlns:cc="http://creativecommons.org/ns#" xmlns:rdf="http://www.w3.org/1999/02/22-rdf-syntax-ns#">
   <cc:Work>
    <dc:type rdf:resource="http://purl.org/dc/dcmitype/StillImage"/>
    <dc:date>2025-02-21T09:01:43.082346</dc:date>
    <dc:format>image/svg+xml</dc:format>
    <dc:creator>
     <cc:Agent>
      <dc:title>Matplotlib v3.8.4, https://matplotlib.org/</dc:title>
     </cc:Agent>
    </dc:creator>
   </cc:Work>
  </rdf:RDF>
 </metadata>
 <defs>
  <style type="text/css">*{stroke-linejoin: round; stroke-linecap: butt}</style>
 </defs>
 <g id="figure_1">
  <g id="patch_1">
   <path d="M 0 345.6 
L 460.8 345.6 
L 460.8 0 
L 0 0 
z
" style="fill: #ffffff"/>
  </g>
  <g id="axes_1">
   <g id="patch_2">
    <path d="M 57.6 307.584 
L 414.72 307.584 
L 414.72 41.472 
L 57.6 41.472 
z
" style="fill: #ffffff"/>
   </g>
   <g id="matplotlib.axis_1">
    <g id="xtick_1">
     <g id="line2d_1">
      <defs>
       <path id="m9b88c941f7" d="M 0 0 
L 0 3.5 
" style="stroke: #000000; stroke-width: 0.8"/>
      </defs>
      <g>
       <use xlink:href="#m9b88c941f7" x="57.6" y="307.584" style="stroke: #000000; stroke-width: 0.8"/>
      </g>
     </g>
     <g id="text_1">
      <!-- $\mathdefault{10^{3}}$ -->
      <g transform="translate(48.8 322.182437) scale(0.1 -0.1)">
       <defs>
        <path id="DejaVuSans-31" d="M 794 531 
L 1825 531 
L 1825 4091 
L 703 3866 
L 703 4441 
L 1819 4666 
L 2450 4666 
L 2450 531 
L 3481 531 
L 3481 0 
L 794 0 
L 794 531 
z
" transform="scale(0.015625)"/>
        <path id="DejaVuSans-30" d="M 2034 4250 
Q 1547 4250 1301 3770 
Q 1056 3291 1056 2328 
Q 1056 1369 1301 889 
Q 1547 409 2034 409 
Q 2525 409 2770 889 
Q 3016 1369 3016 2328 
Q 3016 3291 2770 3770 
Q 2525 4250 2034 4250 
z
M 2034 4750 
Q 2819 4750 3233 4129 
Q 3647 3509 3647 2328 
Q 3647 1150 3233 529 
Q 2819 -91 2034 -91 
Q 1250 -91 836 529 
Q 422 1150 422 2328 
Q 422 3509 836 4129 
Q 1250 4750 2034 4750 
z
" transform="scale(0.015625)"/>
        <path id="DejaVuSans-33" d="M 2597 2516 
Q 3050 2419 3304 2112 
Q 3559 1806 3559 1356 
Q 3559 666 3084 287 
Q 2609 -91 1734 -91 
Q 1441 -91 1130 -33 
Q 819 25 488 141 
L 488 750 
Q 750 597 1062 519 
Q 1375 441 1716 441 
Q 2309 441 2620 675 
Q 2931 909 2931 1356 
Q 2931 1769 2642 2001 
Q 2353 2234 1838 2234 
L 1294 2234 
L 1294 2753 
L 1863 2753 
Q 2328 2753 2575 2939 
Q 2822 3125 2822 3475 
Q 2822 3834 2567 4026 
Q 2313 4219 1838 4219 
Q 1578 4219 1281 4162 
Q 984 4106 628 3988 
L 628 4550 
Q 988 4650 1302 4700 
Q 1616 4750 1894 4750 
Q 2613 4750 3031 4423 
Q 3450 4097 3450 3541 
Q 3450 3153 3228 2886 
Q 3006 2619 2597 2516 
z
" transform="scale(0.015625)"/>
       </defs>
       <use xlink:href="#DejaVuSans-31" transform="translate(0 0.765625)"/>
       <use xlink:href="#DejaVuSans-30" transform="translate(63.623047 0.765625)"/>
       <use xlink:href="#DejaVuSans-33" transform="translate(128.203125 39.046875) scale(0.7)"/>
      </g>
     </g>
    </g>
    <g id="xtick_2">
     <g id="line2d_2">
      <g>
       <use xlink:href="#m9b88c941f7" x="267.797943" y="307.584" style="stroke: #000000; stroke-width: 0.8"/>
      </g>
     </g>
     <g id="text_2">
      <!-- $\mathdefault{10^{4}}$ -->
      <g transform="translate(258.997943 322.182437) scale(0.1 -0.1)">
       <defs>
        <path id="DejaVuSans-34" d="M 2419 4116 
L 825 1625 
L 2419 1625 
L 2419 4116 
z
M 2253 4666 
L 3047 4666 
L 3047 1625 
L 3713 1625 
L 3713 1100 
L 3047 1100 
L 3047 0 
L 2419 0 
L 2419 1100 
L 313 1100 
L 313 1709 
L 2253 4666 
z
" transform="scale(0.015625)"/>
       </defs>
       <use xlink:href="#DejaVuSans-31" transform="translate(0 0.684375)"/>
       <use xlink:href="#DejaVuSans-30" transform="translate(63.623047 0.684375)"/>
       <use xlink:href="#DejaVuSans-34" transform="translate(128.203125 38.965625) scale(0.7)"/>
      </g>
     </g>
    </g>
    <g id="xtick_3">
     <g id="line2d_3">
      <defs>
       <path id="m0ed2997de9" d="M 0 0 
L 0 2 
" style="stroke: #000000; stroke-width: 0.6"/>
      </defs>
      <g>
       <use xlink:href="#m0ed2997de9" x="120.875886" y="307.584" style="stroke: #000000; stroke-width: 0.6"/>
      </g>
     </g>
    </g>
    <g id="xtick_4">
     <g id="line2d_4">
      <g>
       <use xlink:href="#m0ed2997de9" x="157.889906" y="307.584" style="stroke: #000000; stroke-width: 0.6"/>
      </g>
     </g>
    </g>
    <g id="xtick_5">
     <g id="line2d_5">
      <g>
       <use xlink:href="#m0ed2997de9" x="184.151772" y="307.584" style="stroke: #000000; stroke-width: 0.6"/>
      </g>
     </g>
    </g>
    <g id="xtick_6">
     <g id="line2d_6">
      <g>
       <use xlink:href="#m0ed2997de9" x="204.522057" y="307.584" style="stroke: #000000; stroke-width: 0.6"/>
      </g>
     </g>
    </g>
    <g id="xtick_7">
     <g id="line2d_7">
      <g>
       <use xlink:href="#m0ed2997de9" x="221.165792" y="307.584" style="stroke: #000000; stroke-width: 0.6"/>
      </g>
     </g>
    </g>
    <g id="xtick_8">
     <g id="line2d_8">
      <g>
       <use xlink:href="#m0ed2997de9" x="235.23787" y="307.584" style="stroke: #000000; stroke-width: 0.6"/>
      </g>
     </g>
    </g>
    <g id="xtick_9">
     <g id="line2d_9">
      <g>
       <use xlink:href="#m0ed2997de9" x="247.427658" y="307.584" style="stroke: #000000; stroke-width: 0.6"/>
      </g>
     </g>
    </g>
    <g id="xtick_10">
     <g id="line2d_10">
      <g>
       <use xlink:href="#m0ed2997de9" x="258.179813" y="307.584" style="stroke: #000000; stroke-width: 0.6"/>
      </g>
     </g>
    </g>
    <g id="xtick_11">
     <g id="line2d_11">
      <g>
       <use xlink:href="#m0ed2997de9" x="331.073829" y="307.584" style="stroke: #000000; stroke-width: 0.6"/>
      </g>
     </g>
    </g>
    <g id="xtick_12">
     <g id="line2d_12">
      <g>
       <use xlink:href="#m0ed2997de9" x="368.087849" y="307.584" style="stroke: #000000; stroke-width: 0.6"/>
      </g>
     </g>
    </g>
    <g id="xtick_13">
     <g id="line2d_13">
      <g>
       <use xlink:href="#m0ed2997de9" x="394.349715" y="307.584" style="stroke: #000000; stroke-width: 0.6"/>
      </g>
     </g>
    </g>
    <g id="xtick_14">
     <g id="line2d_14">
      <g>
       <use xlink:href="#m0ed2997de9" x="414.72" y="307.584" style="stroke: #000000; stroke-width: 0.6"/>
      </g>
     </g>
    </g>
    <g id="text_3">
     <!-- iter# -->
     <g transform="translate(223.488906 335.860562) scale(0.1 -0.1)">
      <defs>
       <path id="DejaVuSans-69" d="M 603 3500 
L 1178 3500 
L 1178 0 
L 603 0 
L 603 3500 
z
M 603 4863 
L 1178 4863 
L 1178 4134 
L 603 4134 
L 603 4863 
z
" transform="scale(0.015625)"/>
       <path id="DejaVuSans-74" d="M 1172 4494 
L 1172 3500 
L 2356 3500 
L 2356 3053 
L 1172 3053 
L 1172 1153 
Q 1172 725 1289 603 
Q 1406 481 1766 481 
L 2356 481 
L 2356 0 
L 1766 0 
Q 1100 0 847 248 
Q 594 497 594 1153 
L 594 3053 
L 172 3053 
L 172 3500 
L 594 3500 
L 594 4494 
L 1172 4494 
z
" transform="scale(0.015625)"/>
       <path id="DejaVuSans-65" d="M 3597 1894 
L 3597 1613 
L 953 1613 
Q 991 1019 1311 708 
Q 1631 397 2203 397 
Q 2534 397 2845 478 
Q 3156 559 3463 722 
L 3463 178 
Q 3153 47 2828 -22 
Q 2503 -91 2169 -91 
Q 1331 -91 842 396 
Q 353 884 353 1716 
Q 353 2575 817 3079 
Q 1281 3584 2069 3584 
Q 2775 3584 3186 3129 
Q 3597 2675 3597 1894 
z
M 3022 2063 
Q 3016 2534 2758 2815 
Q 2500 3097 2075 3097 
Q 1594 3097 1305 2825 
Q 1016 2553 972 2059 
L 3022 2063 
z
" transform="scale(0.015625)"/>
       <path id="DejaVuSans-72" d="M 2631 2963 
Q 2534 3019 2420 3045 
Q 2306 3072 2169 3072 
Q 1681 3072 1420 2755 
Q 1159 2438 1159 1844 
L 1159 0 
L 581 0 
L 581 3500 
L 1159 3500 
L 1159 2956 
Q 1341 3275 1631 3429 
Q 1922 3584 2338 3584 
Q 2397 3584 2469 3576 
Q 2541 3569 2628 3553 
L 2631 2963 
z
" transform="scale(0.015625)"/>
       <path id="DejaVuSans-23" d="M 3272 2816 
L 2363 2816 
L 2100 1772 
L 3016 1772 
L 3272 2816 
z
M 2803 4594 
L 2478 3297 
L 3391 3297 
L 3719 4594 
L 4219 4594 
L 3897 3297 
L 4872 3297 
L 4872 2816 
L 3775 2816 
L 3519 1772 
L 4513 1772 
L 4513 1294 
L 3397 1294 
L 3072 0 
L 2572 0 
L 2894 1294 
L 1978 1294 
L 1656 0 
L 1153 0 
L 1478 1294 
L 494 1294 
L 494 1772 
L 1594 1772 
L 1856 2816 
L 850 2816 
L 850 3297 
L 1978 3297 
L 2297 4594 
L 2803 4594 
z
" transform="scale(0.015625)"/>
      </defs>
      <use xlink:href="#DejaVuSans-69"/>
      <use xlink:href="#DejaVuSans-74" x="27.783203"/>
      <use xlink:href="#DejaVuSans-65" x="66.992188"/>
      <use xlink:href="#DejaVuSans-72" x="128.515625"/>
      <use xlink:href="#DejaVuSans-23" x="169.628906"/>
     </g>
    </g>
   </g>
   <g id="matplotlib.axis_2">
    <g id="ytick_1">
     <g id="line2d_15">
      <defs>
       <path id="m8dbd694c0d" d="M 0 0 
L -3.5 0 
" style="stroke: #000000; stroke-width: 0.8"/>
      </defs>
      <g>
       <use xlink:href="#m8dbd694c0d" x="57.6" y="245.254111" style="stroke: #000000; stroke-width: 0.8"/>
      </g>
     </g>
     <g id="text_4">
      <!-- $\mathdefault{10^{-2}}$ -->
      <g transform="translate(27.1 249.05333) scale(0.1 -0.1)">
       <defs>
        <path id="DejaVuSans-2212" d="M 678 2272 
L 4684 2272 
L 4684 1741 
L 678 1741 
L 678 2272 
z
" transform="scale(0.015625)"/>
        <path id="DejaVuSans-32" d="M 1228 531 
L 3431 531 
L 3431 0 
L 469 0 
L 469 531 
Q 828 903 1448 1529 
Q 2069 2156 2228 2338 
Q 2531 2678 2651 2914 
Q 2772 3150 2772 3378 
Q 2772 3750 2511 3984 
Q 2250 4219 1831 4219 
Q 1534 4219 1204 4116 
Q 875 4013 500 3803 
L 500 4441 
Q 881 4594 1212 4672 
Q 1544 4750 1819 4750 
Q 2544 4750 2975 4387 
Q 3406 4025 3406 3419 
Q 3406 3131 3298 2873 
Q 3191 2616 2906 2266 
Q 2828 2175 2409 1742 
Q 1991 1309 1228 531 
z
" transform="scale(0.015625)"/>
       </defs>
       <use xlink:href="#DejaVuSans-31" transform="translate(0 0.765625)"/>
       <use xlink:href="#DejaVuSans-30" transform="translate(63.623047 0.765625)"/>
       <use xlink:href="#DejaVuSans-2212" transform="translate(128.203125 39.046875) scale(0.7)"/>
       <use xlink:href="#DejaVuSans-32" transform="translate(186.855469 39.046875) scale(0.7)"/>
      </g>
     </g>
    </g>
    <g id="ytick_2">
     <g id="line2d_16">
      <g>
       <use xlink:href="#m8dbd694c0d" x="57.6" y="88.622741" style="stroke: #000000; stroke-width: 0.8"/>
      </g>
     </g>
     <g id="text_5">
      <!-- $\mathdefault{10^{-1}}$ -->
      <g transform="translate(27.1 92.421959) scale(0.1 -0.1)">
       <use xlink:href="#DejaVuSans-31" transform="translate(0 0.684375)"/>
       <use xlink:href="#DejaVuSans-30" transform="translate(63.623047 0.684375)"/>
       <use xlink:href="#DejaVuSans-2212" transform="translate(128.203125 38.965625) scale(0.7)"/>
       <use xlink:href="#DejaVuSans-31" transform="translate(186.855469 38.965625) scale(0.7)"/>
      </g>
     </g>
    </g>
    <g id="ytick_3">
     <g id="line2d_17">
      <defs>
       <path id="m9c0c5ee2bc" d="M 0 0 
L -2 0 
" style="stroke: #000000; stroke-width: 0.6"/>
      </defs>
      <g>
       <use xlink:href="#m9c0c5ee2bc" x="57.6" y="307.584" style="stroke: #000000; stroke-width: 0.6"/>
      </g>
     </g>
    </g>
    <g id="ytick_4">
     <g id="line2d_18">
      <g>
       <use xlink:href="#m9c0c5ee2bc" x="57.6" y="292.404852" style="stroke: #000000; stroke-width: 0.6"/>
      </g>
     </g>
    </g>
    <g id="ytick_5">
     <g id="line2d_19">
      <g>
       <use xlink:href="#m9c0c5ee2bc" x="57.6" y="280.002585" style="stroke: #000000; stroke-width: 0.6"/>
      </g>
     </g>
    </g>
    <g id="ytick_6">
     <g id="line2d_20">
      <g>
       <use xlink:href="#m9c0c5ee2bc" x="57.6" y="269.516617" style="stroke: #000000; stroke-width: 0.6"/>
      </g>
     </g>
    </g>
    <g id="ytick_7">
     <g id="line2d_21">
      <g>
       <use xlink:href="#m9c0c5ee2bc" x="57.6" y="260.433259" style="stroke: #000000; stroke-width: 0.6"/>
      </g>
     </g>
    </g>
    <g id="ytick_8">
     <g id="line2d_22">
      <g>
       <use xlink:href="#m9c0c5ee2bc" x="57.6" y="252.42117" style="stroke: #000000; stroke-width: 0.6"/>
      </g>
     </g>
    </g>
    <g id="ytick_9">
     <g id="line2d_23">
      <g>
       <use xlink:href="#m9c0c5ee2bc" x="57.6" y="198.10337" style="stroke: #000000; stroke-width: 0.6"/>
      </g>
     </g>
    </g>
    <g id="ytick_10">
     <g id="line2d_24">
      <g>
       <use xlink:href="#m9c0c5ee2bc" x="57.6" y="170.521955" style="stroke: #000000; stroke-width: 0.6"/>
      </g>
     </g>
    </g>
    <g id="ytick_11">
     <g id="line2d_25">
      <g>
       <use xlink:href="#m9c0c5ee2bc" x="57.6" y="150.95263" style="stroke: #000000; stroke-width: 0.6"/>
      </g>
     </g>
    </g>
    <g id="ytick_12">
     <g id="line2d_26">
      <g>
       <use xlink:href="#m9c0c5ee2bc" x="57.6" y="135.773481" style="stroke: #000000; stroke-width: 0.6"/>
      </g>
     </g>
    </g>
    <g id="ytick_13">
     <g id="line2d_27">
      <g>
       <use xlink:href="#m9c0c5ee2bc" x="57.6" y="123.371214" style="stroke: #000000; stroke-width: 0.6"/>
      </g>
     </g>
    </g>
    <g id="ytick_14">
     <g id="line2d_28">
      <g>
       <use xlink:href="#m9c0c5ee2bc" x="57.6" y="112.885247" style="stroke: #000000; stroke-width: 0.6"/>
      </g>
     </g>
    </g>
    <g id="ytick_15">
     <g id="line2d_29">
      <g>
       <use xlink:href="#m9c0c5ee2bc" x="57.6" y="103.801889" style="stroke: #000000; stroke-width: 0.6"/>
      </g>
     </g>
    </g>
    <g id="ytick_16">
     <g id="line2d_30">
      <g>
       <use xlink:href="#m9c0c5ee2bc" x="57.6" y="95.789799" style="stroke: #000000; stroke-width: 0.6"/>
      </g>
     </g>
    </g>
    <g id="ytick_17">
     <g id="line2d_31">
      <g>
       <use xlink:href="#m9c0c5ee2bc" x="57.6" y="41.472" style="stroke: #000000; stroke-width: 0.6"/>
      </g>
     </g>
    </g>
    <g id="text_6">
     <!-- loss -->
     <g transform="translate(21.020313 184.185812) rotate(-90) scale(0.1 -0.1)">
      <defs>
       <path id="DejaVuSans-6c" d="M 603 4863 
L 1178 4863 
L 1178 0 
L 603 0 
L 603 4863 
z
" transform="scale(0.015625)"/>
       <path id="DejaVuSans-6f" d="M 1959 3097 
Q 1497 3097 1228 2736 
Q 959 2375 959 1747 
Q 959 1119 1226 758 
Q 1494 397 1959 397 
Q 2419 397 2687 759 
Q 2956 1122 2956 1747 
Q 2956 2369 2687 2733 
Q 2419 3097 1959 3097 
z
M 1959 3584 
Q 2709 3584 3137 3096 
Q 3566 2609 3566 1747 
Q 3566 888 3137 398 
Q 2709 -91 1959 -91 
Q 1206 -91 779 398 
Q 353 888 353 1747 
Q 353 2609 779 3096 
Q 1206 3584 1959 3584 
z
" transform="scale(0.015625)"/>
       <path id="DejaVuSans-73" d="M 2834 3397 
L 2834 2853 
Q 2591 2978 2328 3040 
Q 2066 3103 1784 3103 
Q 1356 3103 1142 2972 
Q 928 2841 928 2578 
Q 928 2378 1081 2264 
Q 1234 2150 1697 2047 
L 1894 2003 
Q 2506 1872 2764 1633 
Q 3022 1394 3022 966 
Q 3022 478 2636 193 
Q 2250 -91 1575 -91 
Q 1294 -91 989 -36 
Q 684 19 347 128 
L 347 722 
Q 666 556 975 473 
Q 1284 391 1588 391 
Q 1994 391 2212 530 
Q 2431 669 2431 922 
Q 2431 1156 2273 1281 
Q 2116 1406 1581 1522 
L 1381 1569 
Q 847 1681 609 1914 
Q 372 2147 372 2553 
Q 372 3047 722 3315 
Q 1072 3584 1716 3584 
Q 2034 3584 2315 3537 
Q 2597 3491 2834 3397 
z
" transform="scale(0.015625)"/>
      </defs>
      <use xlink:href="#DejaVuSans-6c"/>
      <use xlink:href="#DejaVuSans-6f" x="27.783203"/>
      <use xlink:href="#DejaVuSans-73" x="88.964844"/>
      <use xlink:href="#DejaVuSans-73" x="141.064453"/>
     </g>
    </g>
   </g>
   <g id="line2d_32">
    <path d="M 74.315286 -1 
L 80.206606 7.114273 
L 84.657159 11.631028 
L 88.900784 17.420506 
L 92.955871 20.723041 
L 96.838463 26.833022 
L 100.562638 31.354384 
L 104.140817 36.909523 
L 107.584018 40.683784 
L 110.902055 46.010962 
L 114.103709 51.479124 
L 117.196869 55.028444 
L 123.085479 65.01558 
L 123.839744 68.929916 
L 126.624717 71.896413 
L 129.327236 71.778785 
L 131.952044 75.410867 
L 134.503485 75.089806 
L 136.985549 76.65355 
L 139.40191 81.125928 
L 141.755957 83.476561 
L 144.050822 86.394857 
L 146.289409 88.753896 
L 148.474413 83.960947 
L 150.608337 81.544796 
L 152.693517 83.663065 
L 154.732129 85.061187 
L 156.726208 89.771486 
L 158.677659 91.6413 
L 160.588264 93.255154 
L 162.459701 91.366461 
L 164.293541 95.863572 
L 166.091267 98.105976 
L 167.854273 101.324714 
L 169.583875 99.415977 
L 171.281314 98.94229 
L 172.947767 101.326994 
L 174.584343 102.730648 
L 176.192095 101.026923 
L 177.77202 103.111894 
L 179.325067 106.404447 
L 180.852133 110.410616 
L 182.354074 106.639422 
L 183.831704 104.170438 
L 185.285796 103.879833 
L 186.71709 105.049773 
L 187.093535 100.735975 
L 189.879171 110.183334 
L 191.240749 106.982839 
L 192.582316 108.807917 
L 193.904452 111.355409 
L 195.207713 111.465117 
L 196.49263 111.341056 
L 197.759712 111.104864 
L 199.009447 115.047965 
L 200.242303 115.777132 
L 201.458732 113.489969 
L 202.659164 115.431818 
L 203.844015 116.53156 
L 205.013685 116.497863 
L 206.168557 119.546028 
L 207.309001 118.058827 
L 208.435374 121.167674 
L 209.548017 125.387128 
L 210.647263 122.63572 
L 211.733429 118.732481 
L 212.806824 111.936451 
L 213.867744 114.8873 
L 214.916475 114.529973 
L 215.953296 118.608327 
L 216.978472 122.182592 
L 217.992263 123.105454 
L 218.99492 127.259218 
L 219.986683 120.899971 
L 220.967787 124.26273 
L 221.938459 120.389615 
L 222.898919 118.06234 
L 223.849378 120.968592 
L 224.100189 123.27869 
L 225.038286 122.236338 
L 225.966842 114.337645 
L 226.886047 119.332522 
L 228.697148 127.04509 
L 229.5894 126.068452 
L 230.473015 129.331241 
L 231.34816 131.128679 
L 232.214994 129.215128 
L 233.073675 131.673209 
L 233.924353 132.892567 
L 234.767178 135.605863 
L 236.429836 142.165791 
L 238.062753 144.415923 
L 238.868387 143.617239 
L 239.666973 140.338836 
L 240.458634 132.764505 
L 241.243488 123.377224 
L 242.021652 124.363814 
L 242.793239 116.38501 
L 243.558358 115.520266 
L 244.317119 106.784311 
L 245.069624 103.931364 
L 245.815977 107.331163 
L 246.556278 108.409456 
L 247.290623 111.378864 
L 248.019108 115.081055 
L 248.741826 117.68425 
L 249.458867 117.228034 
L 250.170319 115.871013 
L 250.358371 120.32573 
L 251.062874 123.711469 
L 251.761983 128.086641 
L 252.455778 129.773816 
L 253.14434 130.272081 
L 253.827747 128.811452 
L 254.506076 131.982136 
L 255.179401 137.02298 
L 255.847797 136.322761 
L 256.511334 137.495048 
L 257.170083 133.445618 
L 257.824112 134.134182 
L 258.473489 134.341605 
L 259.118279 136.837089 
L 259.758547 126.036135 
L 260.394356 125.275546 
L 261.65284 134.683258 
L 262.275635 136.429837 
L 262.89421 129.908799 
L 263.508622 132.889189 
L 264.118926 135.008707 
L 264.725177 131.918943 
L 265.327428 133.721987 
L 266.520141 119.430196 
L 267.697471 127.175205 
L 268.280491 128.942504 
L 268.85981 132.912915 
L 269.435477 129.984584 
L 270.007536 128.793123 
L 270.576032 127.176979 
L 270.726446 129.781112 
L 271.290497 131.981179 
L 271.851084 136.42357 
L 272.408249 133.370026 
L 273.512481 142.589207 
L 274.059628 142.748102 
L 274.603516 146.963059 
L 275.681664 138.781803 
L 276.216001 140.025654 
L 276.747228 141.742185 
L 277.275382 145.742917 
L 277.800497 145.629498 
L 278.322609 147.544425 
L 278.841752 146.734018 
L 279.35796 143.980079 
L 279.871265 144.858942 
L 280.381699 141.905121 
L 280.889296 140.031406 
L 281.394085 141.790347 
L 281.896099 131.924554 
L 282.891919 137.098765 
L 283.385785 138.52891 
L 283.876994 143.692484 
L 284.365573 146.890776 
L 284.851552 152.05434 
L 285.334957 155.410592 
L 285.815815 155.814269 
L 286.77 161.361727 
L 287.243378 164.869455 
L 287.368708 169.225758 
L 287.838999 172.767538 
L 288.772376 178.05519 
L 289.23551 181.746327 
L 289.696305 183.868821 
L 290.154787 176.758361 
L 290.610978 178.450061 
L 291.0649 177.650965 
L 291.516576 178.117219 
L 291.966028 172.635745 
L 292.413279 174.503479 
L 292.858349 160.215241 
L 293.301259 164.200724 
L 293.742031 169.235695 
L 294.180685 172.611851 
L 294.617241 174.903706 
L 295.051719 168.649939 
L 295.484139 168.896703 
L 295.914521 173.288142 
L 296.342883 168.193867 
L 296.769245 170.989664 
L 297.193624 161.392175 
L 297.616039 156.948863 
L 298.036509 156.008832 
L 298.455052 156.365704 
L 298.871683 155.718734 
L 299.286423 159.402198 
L 299.699286 139.22327 
L 301.332317 157.514291 
L 301.439733 160.731271 
L 302.644207 175.132414 
L 303.438451 184.552694 
L 304.225844 180.212285 
L 304.617008 182.986377 
L 305.006503 186.855855 
L 305.394344 181.705393 
L 305.780543 180.846794 
L 306.165116 177.32935 
L 306.548075 177.510328 
L 306.929435 181.66898 
L 307.687408 183.222273 
L 308.064047 187.415428 
L 308.439138 188.628843 
L 308.812695 184.784435 
L 309.18473 186.360274 
L 309.92428 177.345853 
L 310.291821 178.17493 
L 310.657888 180.081476 
L 311.022493 184.260962 
L 311.385647 183.172418 
L 311.747363 171.578434 
L 312.10765 168.50389 
L 312.466522 170.640432 
L 312.823988 175.274451 
L 313.18006 178.281568 
L 313.534748 178.66395 
L 313.628731 177.037992 
L 313.981684 179.373159 
L 314.683522 186.287312 
L 315.032427 188.621917 
L 315.380005 192.722885 
L 315.726264 193.524826 
L 316.071214 184.207266 
L 316.414866 180.503151 
L 316.757229 179.496005 
L 317.438127 186.987491 
L 317.776681 187.707818 
L 318.113984 187.576038 
L 318.450046 185.356939 
L 318.784874 180.848925 
L 319.45087 189.324327 
L 319.782055 172.585671 
L 321.094907 186.341868 
L 321.420191 186.677302 
L 321.74432 184.417053 
L 322.067302 184.500252 
L 322.389145 177.343862 
L 323.347923 185.482747 
L 323.665291 184.940517 
L 323.98156 183.060184 
L 324.296736 181.942762 
L 324.694077 188.483836 
L 325.629072 202.100355 
L 325.938621 205.631301 
L 326.247124 199.535624 
L 326.554588 202.294169 
L 327.166426 209.115792 
L 327.470814 204.299188 
L 327.77419 206.250756 
L 328.076562 206.68363 
L 328.377935 208.897722 
L 328.678317 211.985545 
L 328.977714 198.326672 
L 329.276131 195.434101 
L 329.573577 197.694774 
L 329.870056 202.22372 
L 330.165576 201.684358 
L 330.460142 205.842529 
L 330.753761 160.592196 
L 331.046438 163.581179 
L 331.33818 164.489562 
L 332.495913 183.637533 
L 332.783066 184.313505 
L 333.069319 188.531774 
L 333.354678 188.270416 
L 333.639147 187.558171 
L 333.922732 190.776788 
L 333.997911 193.800157 
L 334.280386 197.11212 
L 334.56199 202.228538 
L 334.842727 201.839565 
L 335.679796 214.230305 
L 335.957121 211.52466 
L 336.233607 211.774347 
L 336.509258 213.149586 
L 336.78408 217.040492 
L 337.058076 219.194969 
L 337.331252 223.14128 
L 337.603614 220.363984 
L 337.875165 222.920043 
L 338.145911 213.57581 
L 338.415856 211.789424 
L 338.685005 214.328386 
L 338.953363 218.872463 
L 339.220935 219.84453 
L 339.487724 217.49902 
L 339.753736 197.841668 
L 340.018976 190.50919 
L 340.283446 191.182134 
L 340.547153 194.934959 
L 340.8101 194.551538 
L 341.594428 200.395626 
L 341.85438 190.535792 
L 342.113594 192.883417 
L 342.372074 193.41148 
L 342.629824 197.176398 
L 342.698167 199.928088 
L 342.954999 203.452012 
L 343.211111 204.267056 
L 343.466506 202.603477 
L 343.721189 203.961818 
L 344.228433 212.958137 
L 344.481002 208.393893 
L 344.732874 211.00127 
L 344.984053 203.925507 
L 345.234543 203.665724 
L 345.484347 200.431269 
L 345.73347 203.630668 
L 345.981914 203.920166 
L 346.229685 206.077355 
L 346.476784 203.819777 
L 346.723217 204.544366 
L 346.968986 205.832831 
L 347.214095 209.259158 
L 347.458548 210.326982 
L 347.702348 210.072 
L 347.945499 211.561013 
L 348.188003 206.908449 
L 348.429865 205.864512 
L 348.911676 210.648423 
L 349.151631 203.587062 
L 349.390957 201.355743 
L 349.629657 205.316232 
L 349.867734 206.183677 
L 350.105193 205.596724 
L 350.342035 208.127957 
L 351.34547 223.822655 
L 351.57912 223.80886 
L 351.812174 228.020298 
L 352.044634 226.065666 
L 352.9686 241.340202 
L 353.198138 243.849593 
L 353.4271 241.547468 
L 353.655489 229.330056 
L 353.883308 226.088892 
L 354.11056 229.923299 
L 354.337248 229.019457 
L 354.563374 225.92171 
L 354.788942 228.468242 
L 355.013953 226.60618 
L 355.238411 228.199972 
L 355.462319 225.754891 
L 355.685679 226.175133 
L 355.908494 224.658875 
L 356.352498 227.315176 
L 356.573693 223.67663 
L 356.794353 214.352645 
L 357.014481 215.34059 
L 357.23408 213.569578 
L 357.453152 214.182846 
L 357.671699 215.622667 
L 357.889724 219.869026 
L 357.94755 224.011635 
L 358.164918 217.583977 
L 358.38177 221.007931 
L 358.598108 222.484999 
L 358.813934 226.481563 
L 359.029251 225.400439 
L 359.458369 231.164041 
L 359.672173 225.595177 
L 359.885478 213.294822 
L 360.098286 191.315995 
L 360.310599 190.007381 
L 361.154946 209.613112 
L 361.364818 210.861451 
L 361.991555 222.982923 
L 362.199515 222.517427 
L 362.407002 226.568036 
L 362.614019 221.164078 
L 362.820567 223.216134 
L 363.026649 227.315371 
L 363.232266 223.434463 
L 363.642118 228.494151 
L 363.846355 226.496734 
L 364.050137 222.766308 
L 364.456341 230.534183 
L 364.658767 230.89301 
L 364.712461 235.077984 
L 365.316706 247.071846 
L 365.517235 250.76876 
L 365.717325 251.586921 
L 365.916977 254.115437 
L 366.314976 246.4622 
L 366.711248 250.852429 
L 366.90874 241.221319 
L 367.105806 243.22246 
L 367.302448 243.878103 
L 367.498667 236.483976 
L 367.889844 241.488413 
L 368.084806 242.761456 
L 368.279353 243.265403 
L 368.473485 244.386208 
L 369.245914 258.302869 
L 369.438004 241.357971 
L 369.62969 238.150503 
L 369.820976 240.490681 
L 370.011861 238.830218 
L 370.202348 238.883487 
L 370.392438 242.90867 
L 370.582133 243.926323 
L 370.771435 247.464741 
L 370.960345 246.464092 
L 371.010458 245.304317 
L 371.574546 256.367481 
L 371.761803 250.027352 
L 371.948676 250.551228 
L 372.32128 240.137744 
L 372.507013 244.769762 
L 372.692369 244.894075 
L 372.87735 240.547323 
L 373.061956 240.432843 
L 373.430053 239.060134 
L 373.613546 235.767959 
L 373.796671 237.609448 
L 373.979429 216.053663 
L 374.343852 222.254994 
L 374.887773 233.463459 
L 375.068362 234.387205 
L 375.248595 237.325111 
L 375.607996 228.766858 
L 375.787168 233.352205 
L 376.322582 238.763171 
L 376.854873 248.791993 
L 376.901854 252.002606 
L 377.078507 252.669082 
L 377.254818 252.584595 
L 377.430789 254.421375 
L 377.606422 254.221333 
L 377.781717 256.95789 
L 377.956676 256.253677 
L 378.131301 251.076682 
L 378.305593 252.694924 
L 378.479552 252.022912 
L 378.65318 249.308594 
L 378.826479 250.692322 
L 378.999449 246.696163 
L 379.172093 216.732383 
L 379.34441 218.464282 
L 380.030445 233.876331 
L 380.201152 233.579879 
L 380.711363 243.848502 
L 381.049927 247.999538 
L 381.218739 245.697351 
L 381.38724 238.526351 
L 381.723311 243.674042 
L 381.890884 243.130435 
L 382.058149 241.644006 
L 382.225109 242.548023 
L 382.391764 241.381474 
L 382.43598 246.18595 
L 382.76822 251.832585 
L 383.264322 261.41511 
L 383.429092 260.934263 
L 383.593566 257.259516 
L 383.757743 258.449632 
L 383.921626 257.27332 
L 384.085215 259.279852 
L 384.411516 267.348906 
L 384.574231 267.88239 
L 384.736656 269.178311 
L 384.898792 266.846145 
L 385.544473 279.922489 
L 385.705182 268.113316 
L 385.865609 268.453554 
L 386.025754 271.518172 
L 386.185619 265.244118 
L 386.345204 267.930462 
L 386.504511 264.4052 
L 386.663541 264.454043 
L 386.822293 264.963787 
L 387.138973 262.913247 
L 387.611943 270.795944 
L 387.653702 265.901108 
L 387.810744 266.110182 
L 388.124019 272.617526 
L 388.280254 276.174799 
L 388.436223 264.944216 
L 388.591925 268.398805 
L 388.747363 264.836946 
L 389.057445 270.187644 
L 389.212093 259.429781 
L 389.366478 256.539944 
L 389.520604 258.567901 
L 389.981424 269.252219 
L 390.134515 267.163466 
L 390.28735 266.762188 
L 390.439929 269.247002 
L 390.592254 265.793575 
L 390.744325 265.623946 
L 390.896144 256.809555 
L 391.04771 256.200346 
L 391.350089 250.370309 
L 391.500904 250.518739 
L 391.651471 249.353735 
L 391.801789 239.51908 
L 391.95186 241.963147 
L 392.101685 241.381984 
L 392.251264 243.213831 
L 392.589251 253.150535 
L 392.738034 252.665094 
L 393.034875 260.720098 
L 393.330754 268.008516 
L 393.478335 264.157716 
L 393.625677 267.172875 
L 393.772782 264.949586 
L 394.066283 270.852348 
L 394.358843 273.599283 
L 394.504772 270.894236 
L 394.795933 275.145414 
L 394.941165 273.134677 
L 395.086167 269.054593 
L 395.375482 274.076475 
L 395.519796 276.986857 
L 395.663883 277.309384 
L 395.951376 280.438068 
L 396.094783 268.52954 
L 396.237966 270.327576 
L 396.523659 277.16547 
L 396.666171 274.769417 
L 396.950529 279.823876 
L 397.092377 270.042151 
L 397.234004 269.476494 
L 397.271587 272.83943 
L 397.554069 277.939181 
L 397.694982 280.893336 
L 397.835679 281.156954 
L 398.256472 290.348413 
L 398.396306 290.58045 
L 398.535927 294.137287 
L 398.675334 275.889588 
L 398.814529 279.6688 
L 399.092283 271.70677 
L 399.230844 272.558159 
L 399.507336 276.6238 
L 399.645269 277.405376 
L 399.782994 257.463478 
L 399.920511 259.233893 
L 400.057822 263.437026 
L 400.194926 260.820316 
L 400.468518 265.95947 
L 400.605007 262.893471 
L 400.741293 263.571779 
L 401.148932 271.121181 
L 401.284409 272.419055 
L 401.55476 268.765751 
L 401.860053 277.981306 
L 401.994479 276.224038 
L 402.262739 283.311418 
L 402.396573 281.099608 
L 402.530212 275.22644 
L 403.062819 285.112238 
L 403.195487 279.483895 
L 403.327962 283.046884 
L 403.592337 278.751199 
L 403.855949 282.231552 
L 404.249944 290.121054 
L 404.642247 281.534986 
L 405.032871 290.018828 
L 405.162708 284.242359 
L 405.292361 287.899093 
L 405.42183 280.592433 
L 405.551116 282.419168 
L 405.680218 276.326631 
L 405.937878 281.994309 
L 406.100553 288.834661 
L 406.484999 293.488111 
L 406.612789 291.676841 
L 407.122166 301.960121 
L 407.249068 301.85713 
L 407.375793 300.06898 
L 407.502343 303.48025 
L 407.628718 301.443106 
L 407.880943 293.833526 
L 408.006795 295.833943 
L 408.383313 287.185306 
L 408.633465 292.088717 
L 408.758284 291.930057 
L 408.882933 294.326755 
L 409.007412 293.084225 
L 409.131721 290.085227 
L 409.255862 293.689946 
L 409.379834 290.018603 
L 409.503637 291.349755 
L 409.627273 290.349544 
L 409.750742 290.89629 
L 409.874044 292.267293 
L 410.02986 284.75118 
L 410.520573 294.214267 
L 410.642841 282.23137 
L 410.886885 285.950454 
L 411.130279 290.418057 
L 411.251733 289.78295 
L 411.373025 292.786605 
L 411.494157 288.186417 
L 411.735939 293.859748 
L 411.85659 292.084045 
L 412.217591 302.225514 
L 412.457467 297.098993 
L 412.577169 299.793549 
L 412.696714 292.35064 
L 413.054414 299.959669 
L 413.173336 298.714438 
L 413.292104 302.261769 
L 413.410717 301.005239 
L 413.647483 305.490135 
L 413.765635 296.697453 
L 413.914954 298.458002 
L 414.385274 310.719593 
L 414.502476 311.139349 
L 414.73643 303.538658 
L 414.73643 303.538658 
" clip-path="url(#p40acffcc86)" style="fill: none; stroke: #1f77b4; stroke-opacity: 0.4; stroke-linecap: square"/>
   </g>
   <g id="line2d_33">
    <path d="M 53.968492 79.317246 
L 59.854134 82.602772 
L 65.383184 88.340777 
L 70.596393 92.705407 
L 75.527904 97.517039 
L 80.206606 100.203209 
L 84.657159 104.813731 
L 88.900784 108.743187 
L 92.955871 110.910962 
L 96.838463 115.310552 
L 100.562638 116.700574 
L 104.140817 118.304176 
L 107.584018 122.407522 
L 110.902055 125.852791 
L 114.103709 126.667494 
L 117.196869 128.194252 
L 120.188647 119.51188 
L 123.085479 122.789172 
L 123.839744 126.28911 
L 126.624717 129.83487 
L 131.952044 134.553282 
L 134.503485 137.688592 
L 136.985549 135.624618 
L 139.40191 138.565547 
L 141.755957 134.367575 
L 144.050822 137.219641 
L 146.289409 140.572189 
L 148.474413 142.616089 
L 150.608337 136.821352 
L 152.693517 134.614625 
L 154.732129 137.869419 
L 156.726208 139.883408 
L 158.677659 143.565548 
L 162.459701 149.532553 
L 164.293541 152.108833 
L 166.091267 154.957288 
L 167.854273 154.487402 
L 169.583875 157.6671 
L 171.281314 160.143578 
L 172.947767 158.2699 
L 174.584343 160.558854 
L 176.192095 159.743813 
L 179.325067 164.613899 
L 180.852133 165.479615 
L 182.354074 166.0223 
L 183.831704 162.102324 
L 185.285796 163.619261 
L 186.71709 166.08311 
L 187.093535 163.9118 
L 188.496978 163.239212 
L 189.879171 164.36025 
L 191.240749 166.062361 
L 192.582316 165.512295 
L 193.904452 166.291326 
L 195.207713 168.057513 
L 196.49263 168.461572 
L 197.759712 168.696211 
L 199.009447 170.727826 
L 200.242303 171.738827 
L 201.458732 170.223983 
L 202.659164 172.203258 
L 203.844015 167.787886 
L 205.013685 169.928932 
L 206.168557 170.838304 
L 207.309001 172.629805 
L 208.435374 175.319548 
L 209.548017 176.584161 
L 210.647263 177.52641 
L 211.733429 171.30051 
L 212.806824 171.340866 
L 213.867744 173.822274 
L 214.916475 175.060084 
L 215.953296 175.863022 
L 216.978472 176.402152 
L 217.992263 167.989551 
L 218.99492 170.486763 
L 219.986683 170.015394 
L 221.938459 159.765739 
L 222.898919 162.931637 
L 223.849378 155.128414 
L 224.100189 155.813302 
L 225.038286 157.952584 
L 226.886047 164.137012 
L 227.796089 166.880205 
L 228.697148 168.077755 
L 229.5894 170.655545 
L 230.473015 170.959911 
L 231.34816 172.074655 
L 232.214994 173.574047 
L 233.073675 175.872502 
L 233.924353 174.464839 
L 234.767178 176.568503 
L 235.602292 179.353187 
L 236.429836 180.630946 
L 237.249946 178.135333 
L 238.062753 178.938769 
L 238.868387 178.353613 
L 241.243488 184.340465 
L 242.021652 181.868417 
L 242.793239 179.003992 
L 244.317119 181.860385 
L 245.069624 176.002675 
L 245.815977 175.03031 
L 246.556278 178.019486 
L 247.290623 178.517253 
L 248.741826 181.984385 
L 249.458867 178.967431 
L 250.170319 179.102677 
L 250.358371 179.887484 
L 251.062874 179.128732 
L 251.761983 182.613604 
L 252.455778 176.824878 
L 253.14434 180.639214 
L 254.506076 184.993364 
L 255.179401 186.255136 
L 255.847797 190.351204 
L 256.511334 193.654739 
L 257.170083 195.684554 
L 257.824112 199.138333 
L 258.473489 201.331233 
L 259.118279 201.292279 
L 259.758547 204.357967 
L 260.394356 197.464015 
L 261.025766 198.613031 
L 261.65284 197.686507 
L 262.275635 199.434093 
L 262.89421 202.565716 
L 263.508622 198.963902 
L 264.118926 201.704004 
L 264.725177 188.425742 
L 265.327428 180.974986 
L 266.520141 178.391255 
L 267.110704 180.047796 
L 267.697471 178.142872 
L 268.85981 186.760466 
L 269.435477 187.015541 
L 270.007536 191.177402 
L 270.576032 191.074681 
L 270.726446 192.113448 
L 271.290497 187.395112 
L 271.851084 191.417687 
L 272.408249 190.045058 
L 272.962035 194.260902 
L 273.512481 194.047144 
L 274.059628 198.224969 
L 275.144182 199.606876 
L 276.216001 200.427628 
L 276.747228 203.297786 
L 277.800497 211.192158 
L 278.322609 212.067081 
L 278.841752 215.890488 
L 279.35796 217.178797 
L 279.871265 220.132117 
L 280.381699 221.538947 
L 280.889296 221.436523 
L 281.394085 222.744954 
L 282.395367 228.537467 
L 282.891919 222.134045 
L 283.385785 224.683647 
L 283.876994 217.775049 
L 284.365573 215.18681 
L 285.334957 221.447992 
L 285.815815 220.512509 
L 286.294154 223.952264 
L 286.77 224.584773 
L 287.243378 220.190167 
L 287.368708 222.889767 
L 287.838999 225.759257 
L 288.772376 226.368338 
L 289.696305 233.007271 
L 290.154787 229.297413 
L 290.610978 216.860816 
L 291.0649 210.17211 
L 292.413279 219.569923 
L 292.858349 220.353789 
L 293.301259 222.327211 
L 293.742031 218.14401 
L 294.180685 221.889514 
L 294.617241 214.171847 
L 295.484139 219.156733 
L 295.914521 223.284744 
L 296.342883 223.89632 
L 296.769245 219.407644 
L 297.193624 221.386626 
L 297.616039 219.831706 
L 298.036509 222.250083 
L 298.455052 222.195817 
L 298.871683 220.120759 
L 299.286423 217.236362 
L 300.519453 226.28831 
L 300.926789 215.472738 
L 301.439733 221.302686 
L 301.842993 222.583706 
L 302.244479 222.03416 
L 302.644207 222.799656 
L 303.042193 225.822157 
L 303.438451 227.674465 
L 303.832996 230.200186 
L 304.225844 231.799525 
L 304.617008 232.607626 
L 305.006503 229.166672 
L 305.780543 232.846763 
L 306.165116 232.708829 
L 306.548075 235.402809 
L 306.929435 239.256649 
L 307.309208 238.23777 
L 307.687408 242.053416 
L 308.064047 243.989122 
L 308.439138 238.18243 
L 308.812695 241.482567 
L 309.18473 242.681907 
L 309.555254 242.680118 
L 309.92428 237.293158 
L 310.291821 240.951071 
L 310.657888 236.647679 
L 311.022493 236.024903 
L 311.385647 237.32746 
L 311.747363 236.629383 
L 312.10765 238.570938 
L 312.466522 222.589602 
L 312.823988 226.564629 
L 313.18006 228.991439 
L 313.534748 233.303643 
L 313.628731 236.631882 
L 313.981684 237.92826 
L 314.333277 241.931731 
L 315.032427 245.780122 
L 315.380005 246.501063 
L 315.726264 245.647957 
L 316.071214 248.857024 
L 316.414866 250.582284 
L 316.757229 244.648754 
L 317.098313 241.401229 
L 317.438127 242.60894 
L 318.113984 247.716343 
L 318.450046 239.337497 
L 319.11848 245.107415 
L 319.45087 247.980287 
L 319.782055 245.707108 
L 320.112042 248.840186 
L 320.440841 239.981859 
L 320.768459 243.729268 
L 321.094907 243.869357 
L 321.420191 242.381845 
L 321.74432 245.949966 
L 322.067302 233.653137 
L 322.389145 231.365352 
L 322.709858 230.488426 
L 323.029448 227.415346 
L 323.347923 228.560116 
L 323.665291 226.888223 
L 323.98156 228.955881 
L 324.380272 227.698561 
L 324.694077 227.167353 
L 325.006808 226.013949 
L 325.629072 233.296999 
L 325.938621 233.338417 
L 326.247124 225.774027 
L 326.554588 228.765211 
L 326.861019 229.71864 
L 327.470814 234.148494 
L 327.77419 232.867117 
L 328.377935 236.182433 
L 328.678317 239.429802 
L 328.977714 241.290775 
L 329.276131 241.276401 
L 329.573577 232.738232 
L 330.165576 237.716511 
L 330.460142 237.976979 
L 331.046438 244.348315 
L 331.628993 248.161671 
L 331.918882 241.704308 
L 332.207853 241.606962 
L 332.495913 245.556765 
L 332.783066 245.741826 
L 333.069319 243.036402 
L 333.354678 245.64974 
L 333.639147 242.074364 
L 333.922732 245.385946 
L 333.997911 248.598489 
L 334.280386 249.916832 
L 334.842727 255.010139 
L 335.122603 258.931383 
L 335.401625 255.523819 
L 335.957121 259.297554 
L 336.233607 260.117092 
L 336.509258 255.503319 
L 336.78408 256.744127 
L 337.331252 262.725555 
L 337.603614 265.193385 
L 337.875165 265.753105 
L 338.145911 265.736884 
L 338.415856 266.390952 
L 338.685005 268.434497 
L 338.953363 253.847972 
L 339.487724 249.266821 
L 339.753736 245.658652 
L 340.283446 249.661266 
L 340.547153 249.199248 
L 341.072292 256.253745 
L 341.333733 254.074721 
L 341.594428 254.322908 
L 341.85438 252.827001 
L 342.372074 259.009242 
L 342.629824 258.530558 
L 342.698167 262.329122 
L 342.954999 262.559036 
L 343.211111 265.892776 
L 343.466506 261.33525 
L 343.721189 264.041734 
L 343.975164 256.713715 
L 344.228433 257.571318 
L 344.481002 261.037406 
L 344.732874 262.846007 
L 344.984053 266.661456 
L 345.234543 267.651847 
L 345.484347 267.606921 
L 345.73347 262.775638 
L 345.981914 264.734775 
L 346.723217 273.285899 
L 346.968986 274.300027 
L 347.214095 268.144543 
L 347.458548 268.679258 
L 347.702348 266.020422 
L 347.945499 269.170494 
L 348.188003 264.663615 
L 348.671088 270.259552 
L 348.911676 270.769105 
L 349.151631 265.747569 
L 349.390957 264.756867 
L 349.867734 270.373382 
L 350.105193 263.286972 
L 350.876368 272.576053 
L 351.34547 276.441253 
L 351.57912 273.433049 
L 352.044634 277.522423 
L 352.276504 277.590061 
L 352.507786 277.009673 
L 352.738484 279.710778 
L 352.9686 280.862905 
L 353.198138 280.541075 
L 353.4271 266.530639 
L 353.883308 273.206489 
L 354.337248 275.144786 
L 354.788942 280.669889 
L 355.238411 279.041069 
L 355.462319 263.300218 
L 355.685679 263.352485 
L 355.908494 267.196806 
L 356.130766 263.496571 
L 356.352498 264.261159 
L 357.014481 268.541008 
L 357.671699 276.910205 
L 357.889724 275.906274 
L 357.94755 279.196124 
L 358.164918 277.760917 
L 358.38177 277.405662 
L 358.598108 275.73082 
L 358.813934 276.042476 
L 359.029251 273.324949 
L 359.244062 274.877751 
L 359.458369 278.536635 
L 359.672173 276.519155 
L 359.885478 277.008639 
L 360.098286 278.813947 
L 360.522419 284.86652 
L 360.94459 287.656534 
L 361.154946 290.078485 
L 361.364818 276.964536 
L 361.78312 263.789811 
L 362.407002 270.484587 
L 362.614019 267.443258 
L 362.820567 268.555476 
L 363.026649 268.545278 
L 363.232266 271.424527 
L 363.437422 268.573442 
L 363.642118 267.595633 
L 363.846355 269.574895 
L 364.050137 269.660251 
L 364.456341 270.763508 
L 364.658767 273.754752 
L 364.712461 277.22737 
L 365.115735 282.918758 
L 365.316706 286.139518 
L 365.517235 286.955241 
L 365.717325 286.225912 
L 365.916977 286.926979 
L 367.302448 297.240663 
L 367.498667 288.375217 
L 367.694465 287.604831 
L 367.889844 264.678229 
L 368.084806 265.069789 
L 368.473485 269.482773 
L 368.667206 268.467975 
L 368.860516 266.250402 
L 369.053418 269.931231 
L 369.245914 269.459666 
L 369.820976 279.519789 
L 370.011861 280.75593 
L 370.202348 279.94355 
L 370.392438 282.826846 
L 370.582133 280.352187 
L 370.771435 283.910854 
L 371.010458 279.799616 
L 371.198875 277.821498 
L 371.574546 282.43637 
L 371.948676 273.380694 
L 372.135168 274.583317 
L 372.692369 284.806582 
L 373.061956 280.109861 
L 373.430053 282.477662 
L 373.613546 277.735837 
L 373.796671 279.870427 
L 373.979429 277.55598 
L 374.706826 290.73177 
L 374.887773 284.49375 
L 375.068362 283.119624 
L 375.248595 284.257451 
L 375.428472 283.733599 
L 375.607996 281.948076 
L 375.965988 287.194517 
L 376.144459 284.680284 
L 376.500357 291.077472 
L 376.677787 286.904452 
L 376.901854 292.772658 
L 377.078507 289.350176 
L 377.606422 296.773911 
L 377.781717 293.314561 
L 377.956676 294.565176 
L 378.131301 287.548903 
L 378.479552 288.445728 
L 378.999449 294.0257 
L 379.172093 289.805955 
L 379.34441 290.096265 
L 379.688072 294.456191 
L 379.859419 297.417063 
L 380.030445 297.355363 
L 380.371539 301.267656 
L 380.541609 299.801924 
L 380.711363 289.141634 
L 380.880802 291.542902 
L 381.049927 291.451898 
L 381.218739 286.022104 
L 381.38724 284.915712 
L 381.890884 289.588149 
L 382.225109 295.776422 
L 382.391764 295.999512 
L 382.43598 292.443584 
L 382.602251 294.810545 
L 382.76822 285.81517 
L 383.593566 299.230178 
L 383.757743 294.528915 
L 383.921626 293.199479 
L 384.574231 300.786304 
L 384.736656 300.853322 
L 384.898792 303.237023 
L 385.222203 302.245746 
L 385.38348 296.942111 
L 385.544473 297.941359 
L 385.705182 300.547446 
L 386.025754 296.948946 
L 386.663541 306.485307 
L 386.822293 296.988987 
L 387.138973 301.431684 
L 387.454558 305.804584 
L 387.611943 299.938238 
L 387.653702 302.0995 
L 387.810744 303.44591 
L 388.280254 310.241712 
L 388.747363 314.061072 
L 388.902536 307.743511 
L 389.057445 309.376412 
L 389.212093 307.916991 
L 389.366478 307.986617 
L 389.520604 305.687255 
L 389.828075 311.387363 
L 389.981424 312.519926 
L 390.28735 310.286444 
L 390.592254 314.695334 
L 390.744325 315.525157 
L 390.896144 312.38714 
L 391.04771 314.970644 
L 391.199025 314.974395 
L 391.350089 307.179501 
L 391.801789 312.95292 
L 391.95186 304.588771 
L 392.101685 303.865055 
L 392.251264 306.117793 
L 392.400599 305.442371 
L 392.54969 304.134737 
L 392.589251 301.385261 
L 392.886575 306.570906 
L 393.034875 304.369533 
L 393.478335 312.33067 
L 393.772782 317.101259 
L 393.91965 313.724997 
L 394.504772 320.502403 
L 394.941165 312.109874 
L 395.086167 307.756244 
L 395.519796 314.587514 
L 395.663883 316.916254 
L 395.951376 303.828084 
L 396.094783 303.784313 
L 396.237966 293.54448 
L 396.523659 297.870179 
L 396.666171 290.337898 
L 396.950529 292.968361 
L 397.092377 294.790868 
L 397.234004 291.04229 
L 397.271587 292.053045 
L 398.256472 304.625254 
L 398.675334 311.987989 
L 398.814529 313.336368 
L 398.953511 313.578393 
L 399.092283 316.081468 
L 399.230844 316.298732 
L 399.369195 313.541778 
L 399.507336 314.300103 
L 399.782994 317.998624 
L 400.057822 315.306244 
L 400.194926 314.974228 
L 400.605007 320.633232 
L 400.741293 317.039236 
L 401.013255 319.697441 
L 401.148932 313.495539 
L 401.284409 312.711675 
L 401.419684 315.104983 
L 401.55476 315.390595 
L 401.689636 314.195343 
L 401.725429 305.888873 
L 401.860053 307.416234 
L 401.994479 304.853819 
L 402.663655 317.049864 
L 402.796904 318.880102 
L 402.929959 314.044234 
L 403.327962 319.001938 
L 403.460245 319.783307 
L 403.592337 322.465768 
L 403.724238 320.504526 
L 404.118801 326.145329 
L 404.249944 327.961992 
L 404.380899 321.005257 
L 404.772641 325.623652 
L 404.902848 326.487243 
L 405.032871 328.391571 
L 405.162708 327.471146 
L 405.292361 321.036003 
L 405.551116 323.641407 
L 405.680218 322.834117 
L 405.809139 324.102271 
L 405.972043 322.44363 
L 406.100553 322.908438 
L 406.228881 324.663477 
L 406.35703 317.102244 
L 406.484999 318.748455 
L 406.612789 312.933558 
L 406.7404 316.157887 
L 406.867833 316.541098 
L 407.122166 319.831101 
L 407.502343 324.945421 
L 407.754917 322.322519 
L 407.880943 321.877145 
L 408.132473 322.692903 
L 408.257979 323.795105 
L 408.383313 322.834631 
L 408.508474 320.06762 
L 408.758284 311.649072 
L 409.255862 316.97135 
L 409.503637 317.76442 
L 409.627273 313.450466 
L 410.02986 319.918273 
L 410.152786 316.574904 
L 410.520573 322.855765 
L 410.642841 322.58108 
L 410.886885 326.654261 
L 411.008663 325.997972 
L 411.130279 323.947248 
L 411.494157 329.818552 
L 411.615128 329.927385 
L 411.735939 329.146955 
L 411.85659 329.515954 
L 412.097416 332.122021 
L 412.217591 332.05669 
L 412.337607 333.27409 
L 412.696714 326.272245 
L 412.816103 327.843195 
L 412.935336 320.10068 
L 413.054414 319.601128 
L 413.292104 324.25321 
L 413.410717 324.149166 
L 413.529177 324.631589 
L 413.647483 324.361642 
L 413.883636 319.756851 
L 414.032761 323.749063 
L 414.150417 323.504791 
L 414.385274 326.212531 
L 414.502476 326.354908 
L 414.73643 330.925183 
L 414.73643 330.925183 
" clip-path="url(#p40acffcc86)" style="fill: none; stroke: #ff7f0e; stroke-opacity: 0.4; stroke-linecap: square"/>
   </g>
   <g id="line2d_34">
    <path d="M 53.968492 81.937942 
L 59.854134 86.071984 
L 65.383184 87.314537 
L 70.596393 85.352655 
L 75.527904 91.269336 
L 80.206606 86.253062 
L 84.657159 89.966156 
L 88.900784 95.246285 
L 92.955871 98.149837 
L 96.838463 94.194984 
L 104.140817 101.329428 
L 107.584018 101.855876 
L 110.902055 105.799453 
L 114.103709 101.715084 
L 117.196869 105.642586 
L 120.188647 110.074604 
L 123.085479 103.309285 
L 123.839744 99.016807 
L 129.327236 108.508014 
L 131.952044 111.614702 
L 134.503485 110.232588 
L 136.985549 114.053941 
L 139.40191 115.547876 
L 141.755957 120.163667 
L 144.050822 120.482804 
L 146.289409 124.556754 
L 148.474413 128.832785 
L 150.608337 119.818135 
L 152.693517 119.916782 
L 154.732129 116.127483 
L 156.726208 119.849362 
L 158.677659 122.917232 
L 160.588264 120.850036 
L 162.459701 123.914938 
L 164.293541 127.834939 
L 166.091267 129.27111 
L 167.854273 133.564992 
L 169.583875 128.82596 
L 171.281314 132.967559 
L 172.947767 136.457772 
L 174.584343 138.065909 
L 176.192095 136.190025 
L 179.325067 142.816275 
L 180.852133 129.367462 
L 182.354074 132.999014 
L 183.831704 131.180955 
L 185.285796 128.937818 
L 186.71709 130.445434 
L 187.093535 129.761305 
L 188.496978 134.092088 
L 189.879171 135.510732 
L 191.240749 139.184327 
L 192.582316 132.19307 
L 193.904452 136.240971 
L 196.49263 140.524384 
L 197.759712 140.964462 
L 199.009447 142.328451 
L 200.242303 143.979832 
L 201.458732 137.791744 
L 202.659164 142.094095 
L 203.844015 139.827797 
L 205.013685 143.577997 
L 206.168557 137.275634 
L 207.309001 139.821588 
L 208.435374 135.516 
L 209.548017 139.44445 
L 210.647263 140.655258 
L 211.733429 140.725639 
L 213.867744 148.052288 
L 214.916475 148.80287 
L 215.953296 151.707144 
L 216.978472 153.823631 
L 217.992263 154.166121 
L 218.99492 141.893504 
L 219.986683 143.44307 
L 220.967787 145.514237 
L 221.938459 141.376272 
L 222.898919 144.981017 
L 223.849378 133.516243 
L 224.100189 132.101845 
L 225.038286 135.494426 
L 227.796089 148.406766 
L 228.697148 142.656822 
L 229.5894 142.234802 
L 230.473015 137.558603 
L 231.34816 140.795036 
L 232.214994 140.913064 
L 233.073675 144.776117 
L 233.924353 144.76065 
L 234.767178 148.59286 
L 235.602292 140.937693 
L 237.249946 149.248193 
L 238.062753 136.883581 
L 238.868387 137.509748 
L 239.666973 139.791038 
L 241.243488 146.743659 
L 242.021652 151.17839 
L 242.793239 151.264084 
L 243.558358 151.822849 
L 244.317119 154.933504 
L 245.069624 148.872595 
L 245.815977 148.081288 
L 246.556278 152.302692 
L 247.290623 147.321055 
L 248.019108 135.500384 
L 249.458867 142.779914 
L 250.170319 147.143152 
L 250.358371 151.364769 
L 251.761983 159.486328 
L 252.455778 161.09479 
L 253.14434 162.021779 
L 253.827747 162.672554 
L 254.506076 162.930645 
L 255.179401 152.259945 
L 255.847797 153.501627 
L 257.824112 165.472589 
L 258.473489 162.329637 
L 259.118279 162.95805 
L 259.758547 165.290174 
L 260.394356 151.676986 
L 261.025766 155.421673 
L 261.65284 157.199088 
L 262.275635 161.426622 
L 262.89421 160.960015 
L 263.508622 164.22692 
L 264.118926 168.144003 
L 264.725177 166.092346 
L 265.327428 169.034523 
L 265.925733 170.341741 
L 266.520141 162.981586 
L 267.110704 163.165206 
L 267.697471 167.284166 
L 268.280491 170.456192 
L 268.85981 168.049196 
L 269.435477 163.850418 
L 270.007536 166.559499 
L 270.576032 161.589703 
L 270.726446 161.646546 
L 271.290497 163.344119 
L 272.408249 170.66915 
L 272.962035 166.397892 
L 273.512481 170.073234 
L 274.059628 168.383619 
L 274.603516 168.874723 
L 275.144182 172.410628 
L 275.681664 167.025774 
L 276.216001 169.748998 
L 276.747228 167.559558 
L 277.275382 169.941935 
L 277.800497 161.470659 
L 278.322609 155.701803 
L 278.841752 158.57829 
L 279.35796 157.397881 
L 279.871265 160.475502 
L 280.381699 164.467805 
L 280.889296 166.90749 
L 281.394085 164.884484 
L 281.896099 160.660589 
L 282.395367 163.638563 
L 282.891919 167.822222 
L 283.385785 167.356063 
L 283.876994 167.456388 
L 284.365573 163.862785 
L 284.851552 167.410685 
L 285.334957 164.358184 
L 286.294154 172.951956 
L 286.77 176.037017 
L 287.368708 159.612513 
L 287.838999 160.356243 
L 288.30688 157.809437 
L 288.772376 156.679665 
L 289.23551 158.949393 
L 289.696305 157.823491 
L 290.154787 158.706028 
L 290.610978 160.796694 
L 291.0649 164.705213 
L 291.516576 164.342055 
L 291.966028 168.600435 
L 292.413279 169.914516 
L 292.858349 171.864524 
L 293.301259 173.193003 
L 294.180685 179.458198 
L 294.617241 171.242635 
L 295.051719 171.960969 
L 295.484139 170.238494 
L 296.342883 177.646557 
L 296.769245 171.809083 
L 298.036509 179.674168 
L 298.455052 175.208963 
L 299.286423 178.549418 
L 299.699286 173.703704 
L 300.11029 175.920407 
L 300.926789 183.586559 
L 301.332317 173.459962 
L 301.439733 175.30398 
L 301.842993 178.136785 
L 302.244479 182.625288 
L 303.042193 188.114591 
L 303.832996 184.243871 
L 304.225844 182.915965 
L 304.617008 170.252384 
L 305.394344 178.840117 
L 305.780543 179.117745 
L 306.548075 186.303236 
L 306.929435 176.747987 
L 307.309208 177.621765 
L 307.687408 181.573167 
L 308.064047 177.075675 
L 308.439138 178.658727 
L 309.555254 185.741979 
L 309.92428 186.407536 
L 310.291821 190.469071 
L 310.657888 186.3153 
L 311.022493 189.460245 
L 311.385647 187.142406 
L 311.747363 189.762046 
L 312.10765 180.569399 
L 312.466522 180.59493 
L 313.534748 189.572147 
L 313.628731 189.460525 
L 313.981684 190.336684 
L 314.333277 185.517592 
L 314.683522 182.896301 
L 315.032427 183.441737 
L 315.380005 182.71313 
L 315.726264 184.932092 
L 316.414866 181.474634 
L 316.757229 185.94809 
L 317.098313 178.784438 
L 317.438127 174.138828 
L 317.776681 171.929241 
L 318.113984 175.985294 
L 318.450046 178.40101 
L 318.784874 176.685142 
L 319.45087 184.477829 
L 319.782055 179.118714 
L 320.112042 181.552182 
L 320.768459 190.077223 
L 321.094907 187.551565 
L 321.420191 189.350847 
L 322.389145 199.049923 
L 322.709858 197.264773 
L 323.029448 200.710494 
L 323.347923 202.525385 
L 323.665291 199.062695 
L 323.98156 198.767393 
L 324.380272 194.820647 
L 325.006808 198.197649 
L 325.31847 199.00755 
L 325.629072 202.856821 
L 325.938621 204.861042 
L 326.247124 202.265357 
L 326.554588 205.710604 
L 326.861019 204.736773 
L 327.166426 207.155301 
L 327.470814 208.041982 
L 328.377935 212.582518 
L 328.678317 211.848016 
L 328.977714 214.701984 
L 329.573577 218.309493 
L 329.870056 218.849939 
L 330.165576 221.359256 
L 330.460142 222.204714 
L 330.753761 224.233117 
L 331.046438 216.428276 
L 331.33818 218.844211 
L 331.628993 212.516419 
L 331.918882 212.02386 
L 332.207853 212.671025 
L 332.495913 215.078468 
L 332.783066 213.672166 
L 333.922732 224.243654 
L 333.997911 227.091463 
L 334.280386 226.114943 
L 334.56199 224.164225 
L 334.842727 223.57007 
L 335.122603 227.082833 
L 335.401625 224.815071 
L 335.679796 215.21218 
L 335.957121 219.093524 
L 336.233607 219.301644 
L 336.509258 218.631278 
L 336.78408 220.617091 
L 337.603614 228.566723 
L 337.875165 230.107077 
L 338.145911 227.564453 
L 339.220935 237.832416 
L 339.753736 236.582212 
L 340.018976 234.066073 
L 340.283446 234.910283 
L 340.547153 232.207142 
L 341.072292 236.979077 
L 341.333733 236.269192 
L 341.594428 238.820116 
L 341.85438 231.68279 
L 342.113594 232.182781 
L 342.372074 233.089831 
L 342.954999 239.326554 
L 343.211111 239.381008 
L 343.466506 242.447143 
L 343.721189 242.228545 
L 343.975164 244.670535 
L 344.228433 244.935875 
L 344.481002 237.716347 
L 344.984053 242.56127 
L 345.234543 241.35875 
L 345.484347 243.391463 
L 345.73347 239.014147 
L 346.229685 243.873814 
L 346.723217 230.198104 
L 346.968986 229.547557 
L 347.214095 231.487682 
L 347.458548 232.304163 
L 347.702348 223.890493 
L 347.945499 225.786612 
L 348.429865 232.489146 
L 348.671088 234.419367 
L 349.629657 245.986978 
L 349.867734 246.424431 
L 350.105193 245.712422 
L 350.342035 246.968971 
L 350.578264 247.20902 
L 350.64091 247.046101 
L 350.876368 249.853059 
L 351.57912 254.20188 
L 351.812174 256.749704 
L 352.044634 254.810504 
L 352.276504 256.942338 
L 352.507786 256.80143 
L 352.738484 242.681355 
L 353.4271 251.885706 
L 353.655489 253.020038 
L 353.883308 252.203311 
L 354.11056 246.270313 
L 354.788942 252.37161 
L 355.013953 240.929402 
L 355.238411 244.131093 
L 355.462319 241.345021 
L 355.685679 240.783726 
L 355.908494 244.150575 
L 356.130766 243.415272 
L 356.352498 246.936819 
L 356.573693 245.922889 
L 356.794353 244.278275 
L 357.014481 237.512918 
L 357.23408 240.184439 
L 357.453152 234.515255 
L 357.671699 234.360167 
L 357.889724 232.803177 
L 357.94755 236.560951 
L 358.598108 244.718755 
L 359.029251 247.779612 
L 359.244062 247.887297 
L 359.458369 247.238073 
L 359.672173 249.073871 
L 359.885478 249.017012 
L 360.098286 246.10876 
L 360.310599 247.5276 
L 360.733748 253.233027 
L 360.94459 251.247555 
L 361.78312 232.712737 
L 361.991555 236.434855 
L 362.199515 236.58897 
L 362.614019 242.912423 
L 362.820567 241.746417 
L 363.026649 241.679109 
L 363.232266 244.525601 
L 363.437422 245.425097 
L 363.642118 248.917736 
L 364.253465 250.845903 
L 364.456341 252.320009 
L 364.658767 252.556361 
L 364.712461 254.691971 
L 364.914321 254.830072 
L 365.115735 255.381406 
L 365.717325 262.632676 
L 365.916977 263.429381 
L 366.116193 261.307412 
L 366.314976 262.404604 
L 366.513327 261.167871 
L 366.711248 261.668636 
L 367.105806 266.24142 
L 367.302448 264.810321 
L 367.498667 264.837059 
L 367.889844 268.158797 
L 368.084806 264.919666 
L 368.279353 266.499672 
L 368.473485 264.775295 
L 368.667206 264.897244 
L 368.860516 260.425627 
L 369.053418 263.23729 
L 369.245914 254.440164 
L 369.62969 259.164782 
L 370.011861 262.903246 
L 370.202348 263.283301 
L 370.392438 264.067068 
L 370.582133 267.002549 
L 370.771435 266.064542 
L 371.198875 259.86393 
L 371.574546 262.666651 
L 371.761803 262.454376 
L 371.948676 261.256374 
L 372.135168 263.419745 
L 372.32128 260.451577 
L 372.507013 259.270555 
L 372.692369 262.146283 
L 372.87735 258.558827 
L 373.061956 261.822053 
L 373.24619 260.531741 
L 373.430053 261.044628 
L 373.796671 266.254124 
L 374.161823 260.80018 
L 374.343852 260.324282 
L 374.525519 252.927859 
L 374.706826 256.180002 
L 374.887773 255.656502 
L 375.068362 249.911303 
L 375.248595 249.322563 
L 375.607996 253.636974 
L 375.965988 259.124057 
L 376.144459 260.659219 
L 376.500357 265.535448 
L 376.677787 266.061595 
L 376.901854 264.943923 
L 377.078507 266.25851 
L 377.606422 274.32079 
L 377.781717 275.096634 
L 377.956676 274.589488 
L 378.131301 269.397519 
L 378.305593 269.382298 
L 378.479552 270.953516 
L 378.65318 270.333016 
L 378.826479 272.934622 
L 378.999449 272.267299 
L 379.34441 272.369795 
L 379.688072 275.138845 
L 380.030445 274.450187 
L 380.201152 273.405636 
L 380.371539 274.799489 
L 380.541609 271.154432 
L 381.049927 276.937046 
L 381.218739 271.712924 
L 381.38724 275.069688 
L 381.55543 267.873773 
L 381.723311 270.408892 
L 381.890884 271.151889 
L 382.391764 275.375013 
L 382.43598 277.514672 
L 382.76822 281.210949 
L 383.264322 288.543743 
L 383.593566 272.804919 
L 383.757743 269.171193 
L 384.085215 270.612845 
L 384.411516 276.300599 
L 384.574231 278.151559 
L 384.736656 270.018658 
L 384.898792 272.818172 
L 385.060641 273.487682 
L 385.544473 280.399249 
L 385.705182 276.922095 
L 385.865609 276.291906 
L 386.025754 270.235626 
L 386.185619 273.197618 
L 386.345204 271.441212 
L 386.663541 276.047543 
L 386.822293 275.192926 
L 387.138973 277.649223 
L 387.454558 279.485965 
L 387.611943 279.285261 
L 387.653702 281.993711 
L 387.810744 279.65588 
L 387.967516 279.337532 
L 388.280254 281.727291 
L 388.436223 284.110275 
L 388.591925 284.481415 
L 388.902536 287.002355 
L 389.212093 290.559879 
L 389.366478 291.049334 
L 389.674469 283.478304 
L 389.828075 286.246017 
L 389.981424 284.742169 
L 390.28735 289.325357 
L 390.592254 292.312328 
L 390.744325 288.071773 
L 390.896144 288.576352 
L 391.350089 286.2206 
L 391.651471 290.444383 
L 391.801789 288.672699 
L 392.400599 294.402966 
L 392.54969 295.108495 
L 392.589251 290.715499 
L 392.886575 294.955046 
L 393.034875 292.930737 
L 393.182935 292.625656 
L 393.330754 285.084942 
L 393.478335 285.124722 
L 393.625677 284.807641 
L 394.066283 289.013606 
L 394.358843 284.056 
L 394.504772 285.251727 
L 394.795933 289.110314 
L 394.941165 290.96618 
L 395.086167 288.212207 
L 395.375482 292.428582 
L 395.519796 292.392069 
L 395.663883 290.227823 
L 395.807742 284.816378 
L 395.951376 284.383744 
L 396.094783 286.361293 
L 396.237966 282.193285 
L 396.523659 287.816998 
L 396.666171 287.442465 
L 396.808461 290.491825 
L 397.234004 284.05435 
L 397.271587 287.153031 
L 397.554069 292.395738 
L 397.694982 280.570111 
L 397.976159 285.893862 
L 398.116423 280.715583 
L 398.675334 291.903904 
L 398.814529 289.781268 
L 399.230844 293.036673 
L 399.369195 287.6216 
L 399.507336 286.975287 
L 399.782994 291.271537 
L 399.920511 291.282607 
L 400.057822 291.549268 
L 400.194926 293.535096 
L 400.331824 292.214903 
L 400.468518 287.966758 
L 400.605007 288.304176 
L 400.741293 289.45176 
L 400.877375 285.803857 
L 401.013255 287.974386 
L 401.148932 278.109474 
L 401.419684 284.51262 
L 401.689636 281.747335 
L 401.860053 286.574736 
L 401.994479 289.062263 
L 402.262739 283.24104 
L 402.396573 286.133087 
L 402.530212 285.888387 
L 402.796904 291.275529 
L 402.929959 289.377003 
L 403.195487 294.528386 
L 403.327962 291.15087 
L 403.460245 283.393587 
L 403.592337 286.099392 
L 403.724238 286.488862 
L 403.855949 282.507065 
L 403.98747 285.365519 
L 404.118801 285.349771 
L 404.249944 287.471792 
L 404.380899 286.794232 
L 404.511667 287.442258 
L 404.772641 291.678996 
L 404.902848 291.048067 
L 405.032871 287.479045 
L 405.162708 287.851885 
L 405.292361 290.146818 
L 405.42183 288.344553 
L 405.551116 289.981565 
L 405.809139 296.223648 
L 405.937878 295.591643 
L 406.100553 299.703831 
L 406.228881 297.673439 
L 406.484999 302.573716 
L 406.612789 295.213945 
L 406.867833 299.579542 
L 406.995088 299.788643 
L 407.249068 303.025582 
L 407.375793 303.180778 
L 407.502343 302.047158 
L 407.628718 304.447562 
L 407.754917 304.361594 
L 408.006795 306.646039 
L 408.132473 309.028999 
L 408.257979 299.978368 
L 408.383313 299.014268 
L 408.508474 301.364811 
L 408.633465 301.514429 
L 408.758284 298.306117 
L 408.882933 298.420869 
L 409.007412 297.471358 
L 409.131721 295.549293 
L 409.255862 297.402676 
L 409.379834 296.403669 
L 409.750742 300.613652 
L 409.874044 296.785421 
L 410.398142 305.550419 
L 410.520573 299.287863 
L 410.642841 298.818969 
L 410.764944 280.466532 
L 411.008663 286.164237 
L 411.373025 292.459655 
L 411.494157 292.257991 
L 411.615128 293.298557 
L 411.977082 299.101449 
L 412.097416 296.862132 
L 412.577169 303.348564 
L 412.696714 303.315935 
L 413.173336 310.562578 
L 413.292104 311.777573 
L 413.410717 306.033916 
L 413.529177 307.213645 
L 413.765635 310.755793 
L 414.385274 317.805274 
L 414.502476 309.771265 
L 414.619528 309.72617 
L 414.73643 310.569353 
L 414.73643 310.569353 
" clip-path="url(#p40acffcc86)" style="fill: none; stroke: #2ca02c; stroke-opacity: 0.4; stroke-linecap: square"/>
   </g>
   <g id="line2d_35">
    <path d="M 53.968492 92.414818 
L 59.854134 95.012998 
L 65.383184 96.833816 
L 70.596393 91.988124 
L 75.527904 97.195438 
L 80.206606 92.667589 
L 84.657159 96.883516 
L 88.900784 101.848595 
L 92.955871 102.733516 
L 96.838463 106.853767 
L 100.562638 111.064908 
L 104.140817 114.53794 
L 107.584018 116.831132 
L 110.902055 117.786789 
L 117.196869 122.065003 
L 120.188647 122.057713 
L 123.085479 124.362818 
L 126.624717 129.370499 
L 129.327236 129.545818 
L 131.952044 130.213101 
L 134.503485 129.393554 
L 136.985549 132.082084 
L 139.40191 135.205863 
L 141.755957 137.064805 
L 144.050822 139.276634 
L 148.474413 146.624399 
L 150.608337 145.307178 
L 152.693517 140.261303 
L 154.732129 142.11886 
L 156.726208 145.464301 
L 158.677659 147.209341 
L 160.588264 145.798119 
L 162.459701 149.040015 
L 164.293541 151.492159 
L 166.091267 148.540888 
L 167.854273 145.155202 
L 169.583875 137.13986 
L 172.947767 144.233865 
L 174.584343 145.265003 
L 176.192095 147.847135 
L 179.325067 153.517001 
L 180.852133 147.622687 
L 182.354074 151.482521 
L 183.831704 154.222844 
L 186.71709 147.40791 
L 187.093535 146.807822 
L 188.496978 150.482666 
L 189.879171 150.839432 
L 191.240749 152.516386 
L 192.582316 150.876776 
L 193.904452 154.006554 
L 195.207713 154.123073 
L 196.49263 157.665276 
L 197.759712 161.551851 
L 199.009447 163.715736 
L 200.242303 156.942491 
L 201.458732 156.790403 
L 202.659164 158.748382 
L 203.844015 149.688308 
L 206.168557 156.791812 
L 207.309001 157.982638 
L 208.435374 160.523716 
L 209.548017 156.387205 
L 210.647263 159.823814 
L 211.733429 160.63434 
L 212.806824 164.094664 
L 213.867744 166.985073 
L 214.916475 157.757711 
L 215.953296 145.322614 
L 217.992263 151.6816 
L 218.99492 153.320235 
L 221.938459 161.96615 
L 222.898919 163.096171 
L 224.100189 153.328572 
L 225.038286 157.37069 
L 225.966842 160.481626 
L 226.886047 159.852185 
L 227.796089 161.840296 
L 228.697148 163.511776 
L 229.5894 163.507701 
L 230.473015 159.839798 
L 231.34816 163.248528 
L 232.214994 158.278332 
L 233.073675 161.038529 
L 234.767178 167.084159 
L 236.429836 172.632549 
L 237.249946 173.55723 
L 238.062753 160.175377 
L 238.868387 157.711618 
L 239.666973 158.876737 
L 240.458634 162.405235 
L 241.243488 164.606466 
L 242.021652 163.187359 
L 242.793239 163.263945 
L 243.558358 163.595482 
L 244.317119 167.020579 
L 245.069624 168.464732 
L 245.815977 168.165228 
L 246.556278 171.358592 
L 247.290623 170.094952 
L 248.019108 152.632724 
L 248.741826 156.437937 
L 249.458867 155.999301 
L 250.170319 156.394887 
L 250.358371 159.31874 
L 251.062874 156.408704 
L 251.761983 160.509322 
L 252.455778 161.827913 
L 253.14434 164.048385 
L 253.827747 167.511611 
L 254.506076 169.664869 
L 255.179401 173.370214 
L 255.847797 173.593212 
L 256.511334 176.664449 
L 257.170083 169.622851 
L 257.824112 172.027793 
L 258.473489 161.179236 
L 259.118279 155.672887 
L 259.758547 158.190206 
L 260.394356 153.688842 
L 261.025766 157.152447 
L 261.65284 158.847124 
L 262.275635 162.692352 
L 262.89421 165.722861 
L 263.508622 167.983482 
L 264.118926 169.45429 
L 264.725177 169.303167 
L 265.327428 164.431827 
L 266.520141 165.606027 
L 267.110704 164.163565 
L 267.697471 166.552343 
L 268.280491 170.317584 
L 268.85981 172.711356 
L 269.435477 170.725354 
L 270.007536 169.901561 
L 270.576032 166.903304 
L 270.726446 169.734292 
L 271.851084 164.151576 
L 272.408249 167.669477 
L 272.962035 168.624589 
L 273.512481 167.834561 
L 274.059628 165.940699 
L 275.144182 172.804629 
L 275.681664 166.287797 
L 276.216001 170.317262 
L 276.747228 170.515812 
L 277.275382 172.665812 
L 277.800497 164.441822 
L 278.322609 162.893656 
L 278.841752 166.367328 
L 279.35796 164.569077 
L 279.871265 167.931185 
L 280.889296 171.383817 
L 281.394085 168.108238 
L 281.896099 168.496512 
L 282.395367 171.196124 
L 282.891919 168.796482 
L 283.385785 171.036596 
L 283.876994 174.746554 
L 284.365573 172.001938 
L 284.851552 175.79417 
L 285.334957 174.875442 
L 286.294154 181.948754 
L 286.77 182.468835 
L 287.243378 181.392855 
L 287.368708 172.28053 
L 287.838999 173.516227 
L 288.30688 171.565053 
L 288.772376 162.977036 
L 289.23551 163.497394 
L 289.696305 166.534499 
L 290.610978 170.082695 
L 291.0649 174.089218 
L 291.516576 176.750158 
L 291.966028 177.412466 
L 292.413279 171.280357 
L 292.858349 174.872772 
L 293.301259 171.466023 
L 293.742031 174.398031 
L 294.180685 178.513692 
L 294.617241 169.766734 
L 295.484139 170.165181 
L 296.342883 177.695236 
L 296.769245 172.400645 
L 297.193624 175.942684 
L 297.616039 174.809148 
L 298.036509 177.200564 
L 298.455052 175.363226 
L 298.871683 176.761939 
L 299.286423 180.330625 
L 299.699286 180.416395 
L 300.11029 179.620009 
L 300.926789 187.005793 
L 301.439733 168.305909 
L 301.842993 167.43296 
L 302.644207 175.863581 
L 303.042193 174.895537 
L 303.438451 172.762116 
L 303.832996 169.003432 
L 304.225844 167.436989 
L 304.617008 167.323485 
L 305.006503 168.634903 
L 305.394344 173.115812 
L 305.780543 174.068505 
L 306.165116 175.592615 
L 306.548075 178.567799 
L 306.929435 169.830855 
L 307.687408 176.375516 
L 308.439138 170.57126 
L 308.812695 172.324288 
L 309.18473 175.008494 
L 309.555254 176.636853 
L 309.92428 174.515993 
L 310.291821 178.026394 
L 310.657888 178.420658 
L 311.022493 182.445173 
L 311.385647 181.384165 
L 311.747363 181.101977 
L 312.10765 175.377442 
L 312.466522 175.211165 
L 312.823988 177.301868 
L 313.18006 178.274162 
L 313.534748 181.116843 
L 313.628731 179.275088 
L 313.981684 181.833706 
L 314.333277 181.185269 
L 315.032427 185.697117 
L 315.380005 182.875314 
L 315.726264 183.093336 
L 316.071214 180.734525 
L 316.414866 179.688865 
L 316.757229 182.832124 
L 317.098313 178.016048 
L 317.438127 174.821485 
L 317.776681 168.442918 
L 318.113984 171.494333 
L 318.450046 173.368239 
L 318.784874 171.826096 
L 319.45087 178.212343 
L 319.782055 172.610905 
L 320.768459 182.01565 
L 321.094907 181.742243 
L 321.420191 185.834011 
L 321.74432 184.993688 
L 322.067302 185.785335 
L 322.389145 189.722033 
L 322.709858 179.98156 
L 323.347923 187.643231 
L 323.665291 190.764495 
L 323.98156 187.44888 
L 324.296736 191.168835 
L 324.380272 187.26359 
L 324.694077 188.182161 
L 325.006808 186.38258 
L 325.31847 186.433521 
L 325.629072 187.311609 
L 325.938621 183.419203 
L 326.554588 191.161487 
L 326.861019 189.657908 
L 327.470814 190.880114 
L 327.77419 182.670519 
L 328.076562 183.274562 
L 328.377935 186.793263 
L 328.678317 188.892615 
L 328.977714 192.690023 
L 329.276131 191.273993 
L 329.573577 195.198307 
L 329.870056 197.29403 
L 330.165576 200.629004 
L 330.460142 201.316727 
L 330.753761 192.833411 
L 331.046438 192.174992 
L 331.628993 198.224811 
L 331.918882 199.238421 
L 332.207853 190.842521 
L 332.495913 193.798576 
L 332.783066 192.186148 
L 333.069319 195.079638 
L 333.354678 191.803064 
L 333.922732 198.191307 
L 334.280386 191.649799 
L 334.56199 194.641267 
L 334.842727 193.174427 
L 335.401625 200.823636 
L 335.679796 197.62253 
L 335.957121 196.946897 
L 336.233607 199.117934 
L 336.509258 199.20745 
L 336.78408 198.588426 
L 337.331252 204.683516 
L 337.603614 204.853967 
L 337.875165 205.604077 
L 338.145911 208.91439 
L 338.415856 206.343863 
L 338.953363 212.541854 
L 339.487724 201.756077 
L 339.753736 203.925399 
L 340.018976 198.967689 
L 340.283446 200.595616 
L 340.547153 203.561368 
L 340.8101 204.676953 
L 341.594428 213.28219 
L 341.85438 211.201557 
L 342.113594 214.394569 
L 342.372074 215.538182 
L 342.629824 218.463131 
L 342.954999 204.862048 
L 343.211111 208.391081 
L 343.466506 203.784077 
L 343.721189 206.929874 
L 343.975164 205.702819 
L 344.228433 207.620055 
L 344.481002 211.217585 
L 344.732874 211.994118 
L 344.984053 213.167087 
L 345.234543 205.204788 
L 345.484347 201.307333 
L 345.73347 204.30137 
L 345.981914 204.200211 
L 346.229685 197.041474 
L 346.476784 200.654315 
L 346.723217 198.956689 
L 346.968986 202.914343 
L 347.214095 202.242371 
L 347.458548 205.263804 
L 347.702348 202.759526 
L 347.945499 206.236009 
L 348.188003 204.831984 
L 348.429865 204.929757 
L 348.671088 202.351144 
L 349.390957 211.742507 
L 349.629657 211.904793 
L 350.342035 200.943666 
L 350.578264 203.954565 
L 350.64091 207.396845 
L 351.11122 213.027795 
L 351.34547 209.511979 
L 351.57912 201.029465 
L 352.044634 207.491627 
L 352.276504 206.217913 
L 352.738484 213.822055 
L 352.9686 207.207765 
L 353.198138 196.168368 
L 353.4271 197.085678 
L 354.11056 208.343896 
L 354.337248 206.570055 
L 354.788942 212.791121 
L 355.013953 205.777105 
L 355.238411 207.823651 
L 355.462319 207.734388 
L 355.685679 207.919222 
L 356.130766 213.748899 
L 356.352498 212.895517 
L 356.573693 214.294489 
L 356.794353 213.43859 
L 357.014481 216.803145 
L 357.23408 218.238722 
L 357.453152 214.527424 
L 357.671699 218.350724 
L 357.94755 205.417808 
L 358.598108 211.674012 
L 358.813934 211.147732 
L 359.029251 211.106992 
L 359.244062 212.180385 
L 359.458369 205.929442 
L 359.672173 204.938475 
L 359.885478 205.683214 
L 360.098286 199.252343 
L 360.310599 200.569503 
L 360.733748 204.463168 
L 360.94459 200.490002 
L 361.154946 198.662119 
L 361.364818 200.627834 
L 361.574209 197.57112 
L 361.991555 204.335588 
L 362.199515 203.329272 
L 362.407002 201.326249 
L 362.614019 205.739903 
L 362.820567 207.409879 
L 363.026649 210.38346 
L 363.232266 208.377391 
L 363.437422 208.546498 
L 363.642118 211.159393 
L 363.846355 209.821521 
L 364.253465 216.0086 
L 364.456341 215.029576 
L 364.658767 217.111767 
L 364.712461 216.037374 
L 364.914321 214.430745 
L 365.115735 218.315471 
L 365.316706 219.802832 
L 365.517235 217.523148 
L 365.717325 218.374107 
L 366.314976 229.047253 
L 366.711248 222.275348 
L 366.90874 225.820764 
L 367.105806 226.689659 
L 367.498667 230.731145 
L 367.694465 227.0645 
L 368.084806 215.219277 
L 368.279353 218.867133 
L 368.473485 217.137203 
L 368.667206 216.973423 
L 368.860516 220.100829 
L 369.053418 220.653996 
L 369.245914 224.756965 
L 369.438004 216.074411 
L 369.62969 218.633392 
L 369.820976 223.031852 
L 370.011861 224.081003 
L 370.202348 220.611227 
L 370.392438 220.562746 
L 370.582133 218.973264 
L 370.771435 215.011072 
L 370.960345 217.760524 
L 371.010458 221.962383 
L 371.198875 216.809001 
L 371.386903 221.263159 
L 371.574546 220.287517 
L 371.948676 225.955264 
L 372.135168 226.015686 
L 372.32128 226.639169 
L 372.507013 229.471494 
L 372.692369 229.353429 
L 373.061956 235.758463 
L 373.24619 231.212797 
L 373.430053 229.637173 
L 373.613546 233.248195 
L 373.796671 234.314583 
L 373.979429 233.173533 
L 374.161823 234.532401 
L 374.525519 224.707712 
L 374.706826 228.734543 
L 374.887773 218.117603 
L 375.068362 216.321948 
L 375.428472 220.223898 
L 375.607996 218.277929 
L 376.854873 237.29004 
L 376.901854 234.163461 
L 377.078507 237.525652 
L 377.254818 230.847939 
L 377.430789 219.212688 
L 377.606422 222.309612 
L 377.781717 222.435128 
L 378.305593 232.705598 
L 378.479552 230.682843 
L 378.826479 237.009764 
L 378.999449 235.839869 
L 379.172093 233.573249 
L 379.688072 243.925878 
L 380.030445 249.524177 
L 380.201152 251.067891 
L 380.541609 235.87525 
L 380.711363 239.965642 
L 380.880802 233.354935 
L 381.049927 233.587323 
L 381.218739 232.117553 
L 381.890884 244.277946 
L 382.058149 247.852042 
L 382.391764 237.568069 
L 382.43598 240.228891 
L 382.602251 240.053235 
L 382.76822 240.987526 
L 382.933887 240.427832 
L 383.099254 236.924934 
L 383.264322 237.954439 
L 383.429092 230.589866 
L 384.085215 244.617927 
L 384.248512 243.327398 
L 384.411516 238.757115 
L 384.574231 240.134923 
L 384.736656 230.737731 
L 385.060641 238.403067 
L 385.222203 235.75015 
L 385.38348 236.748171 
L 385.705182 241.94539 
L 385.865609 231.518328 
L 386.025754 234.191319 
L 386.185619 233.262437 
L 386.504511 234.51616 
L 386.663541 236.841065 
L 386.822293 236.806912 
L 387.296902 246.345148 
L 387.454558 244.039787 
L 387.611943 247.739498 
L 387.653702 243.525642 
L 387.810744 239.537063 
L 388.124019 246.872376 
L 388.280254 242.323841 
L 388.902536 256.22468 
L 389.057445 257.294052 
L 389.212093 260.618155 
L 389.520604 256.278505 
L 389.674469 251.977885 
L 389.828075 252.777314 
L 389.981424 252.631273 
L 390.134515 245.994991 
L 390.439929 250.042922 
L 390.592254 247.703682 
L 390.744325 249.253743 
L 390.896144 248.107515 
L 391.04771 238.329894 
L 391.350089 244.694679 
L 391.651471 250.881576 
L 392.101685 256.622342 
L 392.400599 240.99301 
L 392.54969 241.493309 
L 392.589251 237.959411 
L 392.738034 238.181568 
L 392.886575 241.232462 
L 393.034875 237.337083 
L 393.330754 243.508131 
L 393.625677 250.012702 
L 393.772782 253.682505 
L 393.91965 245.928657 
L 394.066283 245.320708 
L 394.358843 250.639487 
L 394.504772 247.511909 
L 395.230939 260.820241 
L 395.375482 258.554112 
L 395.519796 253.226737 
L 395.663883 255.376799 
L 395.807742 255.191144 
L 396.237966 264.616973 
L 396.523659 254.745093 
L 396.666171 254.54579 
L 397.554069 273.882548 
L 397.694982 269.22062 
L 397.976159 275.273589 
L 398.116423 275.425612 
L 398.256472 267.070132 
L 398.396306 269.93937 
L 398.535927 270.407847 
L 398.953511 277.93855 
L 399.092283 278.274768 
L 399.369195 259.631691 
L 399.507336 258.605878 
L 400.057822 270.886358 
L 400.194926 268.729272 
L 400.468518 273.700777 
L 400.605007 271.851174 
L 401.013255 274.182289 
L 401.148932 274.01486 
L 401.419684 269.688364 
L 401.689636 274.836652 
L 401.725429 272.869977 
L 401.994479 277.141723 
L 402.128707 274.275992 
L 402.796904 284.200513 
L 402.929959 271.461049 
L 403.460245 279.385131 
L 403.592337 273.190992 
L 403.724238 275.636482 
L 403.855949 273.488891 
L 404.642247 288.257977 
L 404.772641 278.642703 
L 404.902848 281.245702 
L 405.032871 275.248677 
L 405.292361 278.518217 
L 405.551116 279.404985 
L 405.680218 277.025913 
L 406.228881 284.583075 
L 406.35703 277.601518 
L 406.484999 280.48956 
L 406.612789 277.57075 
L 406.7404 277.65866 
L 406.867833 280.332841 
L 406.995088 280.298352 
L 407.628718 289.31765 
L 407.754917 281.363561 
L 407.880943 283.926352 
L 408.006795 282.921142 
L 408.257979 287.696659 
L 408.383313 287.205711 
L 408.633465 290.511035 
L 408.758284 290.104637 
L 408.882933 290.62496 
L 409.007412 289.514282 
L 409.131721 290.221853 
L 409.255862 291.749312 
L 409.503637 287.923118 
L 409.627273 290.525128 
L 409.750742 289.723163 
L 409.874044 285.642442 
L 410.02986 290.079882 
L 410.275546 285.365114 
L 410.398142 287.005711 
L 410.520573 284.43687 
L 410.642841 286.924845 
L 410.764944 281.064679 
L 411.008663 284.811554 
L 411.130279 283.838133 
L 411.494157 290.416767 
L 411.615128 282.90207 
L 411.735939 282.733624 
L 411.977082 286.116103 
L 412.097416 286.548997 
L 412.217591 287.545263 
L 412.457467 292.129864 
L 412.577169 283.778623 
L 412.816103 287.089435 
L 412.935336 288.320411 
L 413.173336 292.13863 
L 413.292104 293.687392 
L 413.410717 284.977583 
L 413.883636 292.346448 
L 413.914954 291.091916 
L 414.150417 294.835046 
L 414.267921 289.41442 
L 414.385274 291.011581 
L 414.502476 290.435523 
L 414.619528 292.932346 
L 414.73643 288.859083 
L 414.73643 288.859083 
" clip-path="url(#p40acffcc86)" style="fill: none; stroke: #d62728; stroke-opacity: 0.4; stroke-linecap: square"/>
   </g>
   <g id="patch_3">
    <path d="M 57.6 307.584 
L 57.6 41.472 
" style="fill: none; stroke: #000000; stroke-width: 0.8; stroke-linejoin: miter; stroke-linecap: square"/>
   </g>
   <g id="patch_4">
    <path d="M 414.72 307.584 
L 414.72 41.472 
" style="fill: none; stroke: #000000; stroke-width: 0.8; stroke-linejoin: miter; stroke-linecap: square"/>
   </g>
   <g id="patch_5">
    <path d="M 57.6 307.584 
L 414.72 307.584 
" style="fill: none; stroke: #000000; stroke-width: 0.8; stroke-linejoin: miter; stroke-linecap: square"/>
   </g>
   <g id="patch_6">
    <path d="M 57.6 41.472 
L 414.72 41.472 
" style="fill: none; stroke: #000000; stroke-width: 0.8; stroke-linejoin: miter; stroke-linecap: square"/>
   </g>
   <g id="text_7">
    <!-- 2025-02-21-09:01:43 -->
    <g transform="translate(172.178438 35.472) scale(0.12 -0.12)">
     <defs>
      <path id="DejaVuSans-35" d="M 691 4666 
L 3169 4666 
L 3169 4134 
L 1269 4134 
L 1269 2991 
Q 1406 3038 1543 3061 
Q 1681 3084 1819 3084 
Q 2600 3084 3056 2656 
Q 3513 2228 3513 1497 
Q 3513 744 3044 326 
Q 2575 -91 1722 -91 
Q 1428 -91 1123 -41 
Q 819 9 494 109 
L 494 744 
Q 775 591 1075 516 
Q 1375 441 1709 441 
Q 2250 441 2565 725 
Q 2881 1009 2881 1497 
Q 2881 1984 2565 2268 
Q 2250 2553 1709 2553 
Q 1456 2553 1204 2497 
Q 953 2441 691 2322 
L 691 4666 
z
" transform="scale(0.015625)"/>
      <path id="DejaVuSans-2d" d="M 313 2009 
L 1997 2009 
L 1997 1497 
L 313 1497 
L 313 2009 
z
" transform="scale(0.015625)"/>
      <path id="DejaVuSans-39" d="M 703 97 
L 703 672 
Q 941 559 1184 500 
Q 1428 441 1663 441 
Q 2288 441 2617 861 
Q 2947 1281 2994 2138 
Q 2813 1869 2534 1725 
Q 2256 1581 1919 1581 
Q 1219 1581 811 2004 
Q 403 2428 403 3163 
Q 403 3881 828 4315 
Q 1253 4750 1959 4750 
Q 2769 4750 3195 4129 
Q 3622 3509 3622 2328 
Q 3622 1225 3098 567 
Q 2575 -91 1691 -91 
Q 1453 -91 1209 -44 
Q 966 3 703 97 
z
M 1959 2075 
Q 2384 2075 2632 2365 
Q 2881 2656 2881 3163 
Q 2881 3666 2632 3958 
Q 2384 4250 1959 4250 
Q 1534 4250 1286 3958 
Q 1038 3666 1038 3163 
Q 1038 2656 1286 2365 
Q 1534 2075 1959 2075 
z
" transform="scale(0.015625)"/>
      <path id="DejaVuSans-3a" d="M 750 794 
L 1409 794 
L 1409 0 
L 750 0 
L 750 794 
z
M 750 3309 
L 1409 3309 
L 1409 2516 
L 750 2516 
L 750 3309 
z
" transform="scale(0.015625)"/>
     </defs>
     <use xlink:href="#DejaVuSans-32"/>
     <use xlink:href="#DejaVuSans-30" x="63.623047"/>
     <use xlink:href="#DejaVuSans-32" x="127.246094"/>
     <use xlink:href="#DejaVuSans-35" x="190.869141"/>
     <use xlink:href="#DejaVuSans-2d" x="254.492188"/>
     <use xlink:href="#DejaVuSans-30" x="290.576172"/>
     <use xlink:href="#DejaVuSans-32" x="354.199219"/>
     <use xlink:href="#DejaVuSans-2d" x="417.822266"/>
     <use xlink:href="#DejaVuSans-32" x="453.90625"/>
     <use xlink:href="#DejaVuSans-31" x="517.529297"/>
     <use xlink:href="#DejaVuSans-2d" x="581.152344"/>
     <use xlink:href="#DejaVuSans-30" x="617.236328"/>
     <use xlink:href="#DejaVuSans-39" x="680.859375"/>
     <use xlink:href="#DejaVuSans-3a" x="744.482422"/>
     <use xlink:href="#DejaVuSans-30" x="778.173828"/>
     <use xlink:href="#DejaVuSans-31" x="841.796875"/>
     <use xlink:href="#DejaVuSans-3a" x="905.419922"/>
     <use xlink:href="#DejaVuSans-34" x="939.111328"/>
     <use xlink:href="#DejaVuSans-33" x="1002.734375"/>
    </g>
   </g>
   <g id="legend_1">
    <g id="patch_7">
     <path d="M 281.596563 109.297 
L 407.72 109.297 
Q 409.72 109.297 409.72 107.297 
L 409.72 48.472 
Q 409.72 46.472 407.72 46.472 
L 281.596563 46.472 
Q 279.596563 46.472 279.596563 48.472 
L 279.596563 107.297 
Q 279.596563 109.297 281.596563 109.297 
z
" style="fill: #ffffff; opacity: 0.8; stroke: #cccccc; stroke-linejoin: miter"/>
    </g>
    <g id="line2d_36">
     <path d="M 283.596563 54.570437 
L 293.596563 54.570437 
L 303.596563 54.570437 
" style="fill: none; stroke: #1f77b4; stroke-opacity: 0.4; stroke-linecap: square"/>
    </g>
    <g id="text_8">
     <!-- SchNet eval_loss -->
     <g transform="translate(311.596563 58.070437) scale(0.1 -0.1)">
      <defs>
       <path id="DejaVuSans-53" d="M 3425 4513 
L 3425 3897 
Q 3066 4069 2747 4153 
Q 2428 4238 2131 4238 
Q 1616 4238 1336 4038 
Q 1056 3838 1056 3469 
Q 1056 3159 1242 3001 
Q 1428 2844 1947 2747 
L 2328 2669 
Q 3034 2534 3370 2195 
Q 3706 1856 3706 1288 
Q 3706 609 3251 259 
Q 2797 -91 1919 -91 
Q 1588 -91 1214 -16 
Q 841 59 441 206 
L 441 856 
Q 825 641 1194 531 
Q 1563 422 1919 422 
Q 2459 422 2753 634 
Q 3047 847 3047 1241 
Q 3047 1584 2836 1778 
Q 2625 1972 2144 2069 
L 1759 2144 
Q 1053 2284 737 2584 
Q 422 2884 422 3419 
Q 422 4038 858 4394 
Q 1294 4750 2059 4750 
Q 2388 4750 2728 4690 
Q 3069 4631 3425 4513 
z
" transform="scale(0.015625)"/>
       <path id="DejaVuSans-63" d="M 3122 3366 
L 3122 2828 
Q 2878 2963 2633 3030 
Q 2388 3097 2138 3097 
Q 1578 3097 1268 2742 
Q 959 2388 959 1747 
Q 959 1106 1268 751 
Q 1578 397 2138 397 
Q 2388 397 2633 464 
Q 2878 531 3122 666 
L 3122 134 
Q 2881 22 2623 -34 
Q 2366 -91 2075 -91 
Q 1284 -91 818 406 
Q 353 903 353 1747 
Q 353 2603 823 3093 
Q 1294 3584 2113 3584 
Q 2378 3584 2631 3529 
Q 2884 3475 3122 3366 
z
" transform="scale(0.015625)"/>
       <path id="DejaVuSans-68" d="M 3513 2113 
L 3513 0 
L 2938 0 
L 2938 2094 
Q 2938 2591 2744 2837 
Q 2550 3084 2163 3084 
Q 1697 3084 1428 2787 
Q 1159 2491 1159 1978 
L 1159 0 
L 581 0 
L 581 4863 
L 1159 4863 
L 1159 2956 
Q 1366 3272 1645 3428 
Q 1925 3584 2291 3584 
Q 2894 3584 3203 3211 
Q 3513 2838 3513 2113 
z
" transform="scale(0.015625)"/>
       <path id="DejaVuSans-4e" d="M 628 4666 
L 1478 4666 
L 3547 763 
L 3547 4666 
L 4159 4666 
L 4159 0 
L 3309 0 
L 1241 3903 
L 1241 0 
L 628 0 
L 628 4666 
z
" transform="scale(0.015625)"/>
       <path id="DejaVuSans-20" transform="scale(0.015625)"/>
       <path id="DejaVuSans-76" d="M 191 3500 
L 800 3500 
L 1894 563 
L 2988 3500 
L 3597 3500 
L 2284 0 
L 1503 0 
L 191 3500 
z
" transform="scale(0.015625)"/>
       <path id="DejaVuSans-61" d="M 2194 1759 
Q 1497 1759 1228 1600 
Q 959 1441 959 1056 
Q 959 750 1161 570 
Q 1363 391 1709 391 
Q 2188 391 2477 730 
Q 2766 1069 2766 1631 
L 2766 1759 
L 2194 1759 
z
M 3341 1997 
L 3341 0 
L 2766 0 
L 2766 531 
Q 2569 213 2275 61 
Q 1981 -91 1556 -91 
Q 1019 -91 701 211 
Q 384 513 384 1019 
Q 384 1609 779 1909 
Q 1175 2209 1959 2209 
L 2766 2209 
L 2766 2266 
Q 2766 2663 2505 2880 
Q 2244 3097 1772 3097 
Q 1472 3097 1187 3025 
Q 903 2953 641 2809 
L 641 3341 
Q 956 3463 1253 3523 
Q 1550 3584 1831 3584 
Q 2591 3584 2966 3190 
Q 3341 2797 3341 1997 
z
" transform="scale(0.015625)"/>
       <path id="DejaVuSans-5f" d="M 3263 -1063 
L 3263 -1509 
L -63 -1509 
L -63 -1063 
L 3263 -1063 
z
" transform="scale(0.015625)"/>
      </defs>
      <use xlink:href="#DejaVuSans-53"/>
      <use xlink:href="#DejaVuSans-63" x="63.476562"/>
      <use xlink:href="#DejaVuSans-68" x="118.457031"/>
      <use xlink:href="#DejaVuSans-4e" x="181.835938"/>
      <use xlink:href="#DejaVuSans-65" x="256.640625"/>
      <use xlink:href="#DejaVuSans-74" x="318.164062"/>
      <use xlink:href="#DejaVuSans-20" x="357.373047"/>
      <use xlink:href="#DejaVuSans-65" x="389.160156"/>
      <use xlink:href="#DejaVuSans-76" x="450.683594"/>
      <use xlink:href="#DejaVuSans-61" x="509.863281"/>
      <use xlink:href="#DejaVuSans-6c" x="571.142578"/>
      <use xlink:href="#DejaVuSans-5f" x="598.925781"/>
      <use xlink:href="#DejaVuSans-6c" x="648.925781"/>
      <use xlink:href="#DejaVuSans-6f" x="676.708984"/>
      <use xlink:href="#DejaVuSans-73" x="737.890625"/>
      <use xlink:href="#DejaVuSans-73" x="789.990234"/>
     </g>
    </g>
    <g id="line2d_37">
     <path d="M 283.596563 69.526687 
L 293.596563 69.526687 
L 303.596563 69.526687 
" style="fill: none; stroke: #ff7f0e; stroke-opacity: 0.4; stroke-linecap: square"/>
    </g>
    <g id="text_9">
     <!-- M220 eval_loss -->
     <g transform="translate(311.596563 73.026687) scale(0.1 -0.1)">
      <defs>
       <path id="DejaVuSans-4d" d="M 628 4666 
L 1569 4666 
L 2759 1491 
L 3956 4666 
L 4897 4666 
L 4897 0 
L 4281 0 
L 4281 4097 
L 3078 897 
L 2444 897 
L 1241 4097 
L 1241 0 
L 628 0 
L 628 4666 
z
" transform="scale(0.015625)"/>
      </defs>
      <use xlink:href="#DejaVuSans-4d"/>
      <use xlink:href="#DejaVuSans-32" x="86.279297"/>
      <use xlink:href="#DejaVuSans-32" x="149.902344"/>
      <use xlink:href="#DejaVuSans-30" x="213.525391"/>
      <use xlink:href="#DejaVuSans-20" x="277.148438"/>
      <use xlink:href="#DejaVuSans-65" x="308.935547"/>
      <use xlink:href="#DejaVuSans-76" x="370.458984"/>
      <use xlink:href="#DejaVuSans-61" x="429.638672"/>
      <use xlink:href="#DejaVuSans-6c" x="490.917969"/>
      <use xlink:href="#DejaVuSans-5f" x="518.701172"/>
      <use xlink:href="#DejaVuSans-6c" x="568.701172"/>
      <use xlink:href="#DejaVuSans-6f" x="596.484375"/>
      <use xlink:href="#DejaVuSans-73" x="657.666016"/>
      <use xlink:href="#DejaVuSans-73" x="709.765625"/>
     </g>
    </g>
    <g id="line2d_38">
     <path d="M 283.596563 84.482937 
L 293.596563 84.482937 
L 303.596563 84.482937 
" style="fill: none; stroke: #2ca02c; stroke-opacity: 0.4; stroke-linecap: square"/>
    </g>
    <g id="text_10">
     <!-- MoGIN14 eval_loss -->
     <g transform="translate(311.596563 87.982937) scale(0.1 -0.1)">
      <defs>
       <path id="DejaVuSans-47" d="M 3809 666 
L 3809 1919 
L 2778 1919 
L 2778 2438 
L 4434 2438 
L 4434 434 
Q 4069 175 3628 42 
Q 3188 -91 2688 -91 
Q 1594 -91 976 548 
Q 359 1188 359 2328 
Q 359 3472 976 4111 
Q 1594 4750 2688 4750 
Q 3144 4750 3555 4637 
Q 3966 4525 4313 4306 
L 4313 3634 
Q 3963 3931 3569 4081 
Q 3175 4231 2741 4231 
Q 1884 4231 1454 3753 
Q 1025 3275 1025 2328 
Q 1025 1384 1454 906 
Q 1884 428 2741 428 
Q 3075 428 3337 486 
Q 3600 544 3809 666 
z
" transform="scale(0.015625)"/>
       <path id="DejaVuSans-49" d="M 628 4666 
L 1259 4666 
L 1259 0 
L 628 0 
L 628 4666 
z
" transform="scale(0.015625)"/>
      </defs>
      <use xlink:href="#DejaVuSans-4d"/>
      <use xlink:href="#DejaVuSans-6f" x="86.279297"/>
      <use xlink:href="#DejaVuSans-47" x="147.460938"/>
      <use xlink:href="#DejaVuSans-49" x="224.951172"/>
      <use xlink:href="#DejaVuSans-4e" x="254.443359"/>
      <use xlink:href="#DejaVuSans-31" x="329.248047"/>
      <use xlink:href="#DejaVuSans-34" x="392.871094"/>
      <use xlink:href="#DejaVuSans-20" x="456.494141"/>
      <use xlink:href="#DejaVuSans-65" x="488.28125"/>
      <use xlink:href="#DejaVuSans-76" x="549.804688"/>
      <use xlink:href="#DejaVuSans-61" x="608.984375"/>
      <use xlink:href="#DejaVuSans-6c" x="670.263672"/>
      <use xlink:href="#DejaVuSans-5f" x="698.046875"/>
      <use xlink:href="#DejaVuSans-6c" x="748.046875"/>
      <use xlink:href="#DejaVuSans-6f" x="775.830078"/>
      <use xlink:href="#DejaVuSans-73" x="837.011719"/>
      <use xlink:href="#DejaVuSans-73" x="889.111328"/>
     </g>
    </g>
    <g id="line2d_39">
     <path d="M 283.596563 99.439187 
L 293.596563 99.439187 
L 303.596563 99.439187 
" style="fill: none; stroke: #d62728; stroke-opacity: 0.4; stroke-linecap: square"/>
    </g>
    <g id="text_11">
     <!-- MoGIN16 eval_loss -->
     <g transform="translate(311.596563 102.939187) scale(0.1 -0.1)">
      <defs>
       <path id="DejaVuSans-36" d="M 2113 2584 
Q 1688 2584 1439 2293 
Q 1191 2003 1191 1497 
Q 1191 994 1439 701 
Q 1688 409 2113 409 
Q 2538 409 2786 701 
Q 3034 994 3034 1497 
Q 3034 2003 2786 2293 
Q 2538 2584 2113 2584 
z
M 3366 4563 
L 3366 3988 
Q 3128 4100 2886 4159 
Q 2644 4219 2406 4219 
Q 1781 4219 1451 3797 
Q 1122 3375 1075 2522 
Q 1259 2794 1537 2939 
Q 1816 3084 2150 3084 
Q 2853 3084 3261 2657 
Q 3669 2231 3669 1497 
Q 3669 778 3244 343 
Q 2819 -91 2113 -91 
Q 1303 -91 875 529 
Q 447 1150 447 2328 
Q 447 3434 972 4092 
Q 1497 4750 2381 4750 
Q 2619 4750 2861 4703 
Q 3103 4656 3366 4563 
z
" transform="scale(0.015625)"/>
      </defs>
      <use xlink:href="#DejaVuSans-4d"/>
      <use xlink:href="#DejaVuSans-6f" x="86.279297"/>
      <use xlink:href="#DejaVuSans-47" x="147.460938"/>
      <use xlink:href="#DejaVuSans-49" x="224.951172"/>
      <use xlink:href="#DejaVuSans-4e" x="254.443359"/>
      <use xlink:href="#DejaVuSans-31" x="329.248047"/>
      <use xlink:href="#DejaVuSans-36" x="392.871094"/>
      <use xlink:href="#DejaVuSans-20" x="456.494141"/>
      <use xlink:href="#DejaVuSans-65" x="488.28125"/>
      <use xlink:href="#DejaVuSans-76" x="549.804688"/>
      <use xlink:href="#DejaVuSans-61" x="608.984375"/>
      <use xlink:href="#DejaVuSans-6c" x="670.263672"/>
      <use xlink:href="#DejaVuSans-5f" x="698.046875"/>
      <use xlink:href="#DejaVuSans-6c" x="748.046875"/>
      <use xlink:href="#DejaVuSans-6f" x="775.830078"/>
      <use xlink:href="#DejaVuSans-73" x="837.011719"/>
      <use xlink:href="#DejaVuSans-73" x="889.111328"/>
     </g>
    </g>
   </g>
  </g>
 </g>
 <defs>
  <clipPath id="p40acffcc86">
   <rect x="57.6" y="41.472" width="357.12" height="266.112"/>
  </clipPath>
 </defs>
</svg>
