<?xml version="1.0" encoding="utf-8" standalone="no"?>
<!DOCTYPE svg PUBLIC "-//W3C//DTD SVG 1.1//EN"
  "http://www.w3.org/Graphics/SVG/1.1/DTD/svg11.dtd">
<svg xmlns:xlink="http://www.w3.org/1999/xlink" width="460.8pt" height="345.6pt" viewBox="0 0 460.8 345.6" xmlns="http://www.w3.org/2000/svg" version="1.1">
 <metadata>
  <rdf:RDF xmlns:dc="http://purl.org/dc/elements/1.1/" xmlns:cc="http://creativecommons.org/ns#" xmlns:rdf="http://www.w3.org/1999/02/22-rdf-syntax-ns#">
   <cc:Work>
    <dc:type rdf:resource="http://purl.org/dc/dcmitype/StillImage"/>
    <dc:date>2025-02-12T19:18:15.339968</dc:date>
    <dc:format>image/svg+xml</dc:format>
    <dc:creator>
     <cc:Agent>
      <dc:title>Matplotlib v3.8.4, https://matplotlib.org/</dc:title>
     </cc:Agent>
    </dc:creator>
   </cc:Work>
  </rdf:RDF>
 </metadata>
 <defs>
  <style type="text/css">*{stroke-linejoin: round; stroke-linecap: butt}</style>
 </defs>
 <g id="figure_1">
  <g id="patch_1">
   <path d="M 0 345.6 
L 460.8 345.6 
L 460.8 0 
L 0 0 
z
" style="fill: #ffffff"/>
  </g>
  <g id="axes_1">
   <g id="patch_2">
    <path d="M 57.6 307.584 
L 414.72 307.584 
L 414.72 41.472 
L 57.6 41.472 
z
" style="fill: #ffffff"/>
   </g>
   <g id="matplotlib.axis_1">
    <g id="xtick_1">
     <g id="line2d_1">
      <defs>
       <path id="m37c2e1f261" d="M 0 0 
L 0 3.5 
" style="stroke: #000000; stroke-width: 0.8"/>
      </defs>
      <g>
       <use xlink:href="#m37c2e1f261" x="73.832727" y="307.584" style="stroke: #000000; stroke-width: 0.8"/>
      </g>
     </g>
     <g id="text_1">
      <!-- $\mathdefault{10^{0}}$ -->
      <g transform="translate(65.032727 322.182437) scale(0.1 -0.1)">
       <defs>
        <path id="DejaVuSans-31" d="M 794 531 
L 1825 531 
L 1825 4091 
L 703 3866 
L 703 4441 
L 1819 4666 
L 2450 4666 
L 2450 531 
L 3481 531 
L 3481 0 
L 794 0 
L 794 531 
z
" transform="scale(0.015625)"/>
        <path id="DejaVuSans-30" d="M 2034 4250 
Q 1547 4250 1301 3770 
Q 1056 3291 1056 2328 
Q 1056 1369 1301 889 
Q 1547 409 2034 409 
Q 2525 409 2770 889 
Q 3016 1369 3016 2328 
Q 3016 3291 2770 3770 
Q 2525 4250 2034 4250 
z
M 2034 4750 
Q 2819 4750 3233 4129 
Q 3647 3509 3647 2328 
Q 3647 1150 3233 529 
Q 2819 -91 2034 -91 
Q 1250 -91 836 529 
Q 422 1150 422 2328 
Q 422 3509 836 4129 
Q 1250 4750 2034 4750 
z
" transform="scale(0.015625)"/>
       </defs>
       <use xlink:href="#DejaVuSans-31" transform="translate(0 0.765625)"/>
       <use xlink:href="#DejaVuSans-30" transform="translate(63.623047 0.765625)"/>
       <use xlink:href="#DejaVuSans-30" transform="translate(128.203125 39.046875) scale(0.7)"/>
      </g>
     </g>
    </g>
    <g id="xtick_2">
     <g id="line2d_2">
      <g>
       <use xlink:href="#m37c2e1f261" x="147.116136" y="307.584" style="stroke: #000000; stroke-width: 0.8"/>
      </g>
     </g>
     <g id="text_2">
      <!-- $\mathdefault{10^{1}}$ -->
      <g transform="translate(138.316136 322.182437) scale(0.1 -0.1)">
       <use xlink:href="#DejaVuSans-31" transform="translate(0 0.684375)"/>
       <use xlink:href="#DejaVuSans-30" transform="translate(63.623047 0.684375)"/>
       <use xlink:href="#DejaVuSans-31" transform="translate(128.203125 38.965625) scale(0.7)"/>
      </g>
     </g>
    </g>
    <g id="xtick_3">
     <g id="line2d_3">
      <g>
       <use xlink:href="#m37c2e1f261" x="220.399544" y="307.584" style="stroke: #000000; stroke-width: 0.8"/>
      </g>
     </g>
     <g id="text_3">
      <!-- $\mathdefault{10^{2}}$ -->
      <g transform="translate(211.599544 322.182437) scale(0.1 -0.1)">
       <defs>
        <path id="DejaVuSans-32" d="M 1228 531 
L 3431 531 
L 3431 0 
L 469 0 
L 469 531 
Q 828 903 1448 1529 
Q 2069 2156 2228 2338 
Q 2531 2678 2651 2914 
Q 2772 3150 2772 3378 
Q 2772 3750 2511 3984 
Q 2250 4219 1831 4219 
Q 1534 4219 1204 4116 
Q 875 4013 500 3803 
L 500 4441 
Q 881 4594 1212 4672 
Q 1544 4750 1819 4750 
Q 2544 4750 2975 4387 
Q 3406 4025 3406 3419 
Q 3406 3131 3298 2873 
Q 3191 2616 2906 2266 
Q 2828 2175 2409 1742 
Q 1991 1309 1228 531 
z
" transform="scale(0.015625)"/>
       </defs>
       <use xlink:href="#DejaVuSans-31" transform="translate(0 0.765625)"/>
       <use xlink:href="#DejaVuSans-30" transform="translate(63.623047 0.765625)"/>
       <use xlink:href="#DejaVuSans-32" transform="translate(128.203125 39.046875) scale(0.7)"/>
      </g>
     </g>
    </g>
    <g id="xtick_4">
     <g id="line2d_4">
      <g>
       <use xlink:href="#m37c2e1f261" x="293.682952" y="307.584" style="stroke: #000000; stroke-width: 0.8"/>
      </g>
     </g>
     <g id="text_4">
      <!-- $\mathdefault{10^{3}}$ -->
      <g transform="translate(284.882952 322.182437) scale(0.1 -0.1)">
       <defs>
        <path id="DejaVuSans-33" d="M 2597 2516 
Q 3050 2419 3304 2112 
Q 3559 1806 3559 1356 
Q 3559 666 3084 287 
Q 2609 -91 1734 -91 
Q 1441 -91 1130 -33 
Q 819 25 488 141 
L 488 750 
Q 750 597 1062 519 
Q 1375 441 1716 441 
Q 2309 441 2620 675 
Q 2931 909 2931 1356 
Q 2931 1769 2642 2001 
Q 2353 2234 1838 2234 
L 1294 2234 
L 1294 2753 
L 1863 2753 
Q 2328 2753 2575 2939 
Q 2822 3125 2822 3475 
Q 2822 3834 2567 4026 
Q 2313 4219 1838 4219 
Q 1578 4219 1281 4162 
Q 984 4106 628 3988 
L 628 4550 
Q 988 4650 1302 4700 
Q 1616 4750 1894 4750 
Q 2613 4750 3031 4423 
Q 3450 4097 3450 3541 
Q 3450 3153 3228 2886 
Q 3006 2619 2597 2516 
z
" transform="scale(0.015625)"/>
       </defs>
       <use xlink:href="#DejaVuSans-31" transform="translate(0 0.765625)"/>
       <use xlink:href="#DejaVuSans-30" transform="translate(63.623047 0.765625)"/>
       <use xlink:href="#DejaVuSans-33" transform="translate(128.203125 39.046875) scale(0.7)"/>
      </g>
     </g>
    </g>
    <g id="xtick_5">
     <g id="line2d_5">
      <g>
       <use xlink:href="#m37c2e1f261" x="366.96636" y="307.584" style="stroke: #000000; stroke-width: 0.8"/>
      </g>
     </g>
     <g id="text_5">
      <!-- $\mathdefault{10^{4}}$ -->
      <g transform="translate(358.16636 322.182437) scale(0.1 -0.1)">
       <defs>
        <path id="DejaVuSans-34" d="M 2419 4116 
L 825 1625 
L 2419 1625 
L 2419 4116 
z
M 2253 4666 
L 3047 4666 
L 3047 1625 
L 3713 1625 
L 3713 1100 
L 3047 1100 
L 3047 0 
L 2419 0 
L 2419 1100 
L 313 1100 
L 313 1709 
L 2253 4666 
z
" transform="scale(0.015625)"/>
       </defs>
       <use xlink:href="#DejaVuSans-31" transform="translate(0 0.684375)"/>
       <use xlink:href="#DejaVuSans-30" transform="translate(63.623047 0.684375)"/>
       <use xlink:href="#DejaVuSans-34" transform="translate(128.203125 38.965625) scale(0.7)"/>
      </g>
     </g>
    </g>
    <g id="xtick_6">
     <g id="line2d_6">
      <defs>
       <path id="mf66c0cd445" d="M 0 0 
L 0 2 
" style="stroke: #000000; stroke-width: 0.6"/>
      </defs>
      <g>
       <use xlink:href="#mf66c0cd445" x="62.480984" y="307.584" style="stroke: #000000; stroke-width: 0.6"/>
      </g>
     </g>
    </g>
    <g id="xtick_7">
     <g id="line2d_7">
      <g>
       <use xlink:href="#mf66c0cd445" x="66.730831" y="307.584" style="stroke: #000000; stroke-width: 0.6"/>
      </g>
     </g>
    </g>
    <g id="xtick_8">
     <g id="line2d_8">
      <g>
       <use xlink:href="#mf66c0cd445" x="70.479462" y="307.584" style="stroke: #000000; stroke-width: 0.6"/>
      </g>
     </g>
    </g>
    <g id="xtick_9">
     <g id="line2d_9">
      <g>
       <use xlink:href="#mf66c0cd445" x="95.893231" y="307.584" style="stroke: #000000; stroke-width: 0.6"/>
      </g>
     </g>
    </g>
    <g id="xtick_10">
     <g id="line2d_10">
      <g>
       <use xlink:href="#mf66c0cd445" x="108.797799" y="307.584" style="stroke: #000000; stroke-width: 0.6"/>
      </g>
     </g>
    </g>
    <g id="xtick_11">
     <g id="line2d_11">
      <g>
       <use xlink:href="#mf66c0cd445" x="117.953735" y="307.584" style="stroke: #000000; stroke-width: 0.6"/>
      </g>
     </g>
    </g>
    <g id="xtick_12">
     <g id="line2d_12">
      <g>
       <use xlink:href="#mf66c0cd445" x="125.055631" y="307.584" style="stroke: #000000; stroke-width: 0.6"/>
      </g>
     </g>
    </g>
    <g id="xtick_13">
     <g id="line2d_13">
      <g>
       <use xlink:href="#mf66c0cd445" x="130.858303" y="307.584" style="stroke: #000000; stroke-width: 0.6"/>
      </g>
     </g>
    </g>
    <g id="xtick_14">
     <g id="line2d_14">
      <g>
       <use xlink:href="#mf66c0cd445" x="135.764392" y="307.584" style="stroke: #000000; stroke-width: 0.6"/>
      </g>
     </g>
    </g>
    <g id="xtick_15">
     <g id="line2d_15">
      <g>
       <use xlink:href="#mf66c0cd445" x="140.014239" y="307.584" style="stroke: #000000; stroke-width: 0.6"/>
      </g>
     </g>
    </g>
    <g id="xtick_16">
     <g id="line2d_16">
      <g>
       <use xlink:href="#mf66c0cd445" x="143.762871" y="307.584" style="stroke: #000000; stroke-width: 0.6"/>
      </g>
     </g>
    </g>
    <g id="xtick_17">
     <g id="line2d_17">
      <g>
       <use xlink:href="#mf66c0cd445" x="169.17664" y="307.584" style="stroke: #000000; stroke-width: 0.6"/>
      </g>
     </g>
    </g>
    <g id="xtick_18">
     <g id="line2d_18">
      <g>
       <use xlink:href="#mf66c0cd445" x="182.081207" y="307.584" style="stroke: #000000; stroke-width: 0.6"/>
      </g>
     </g>
    </g>
    <g id="xtick_19">
     <g id="line2d_19">
      <g>
       <use xlink:href="#mf66c0cd445" x="191.237144" y="307.584" style="stroke: #000000; stroke-width: 0.6"/>
      </g>
     </g>
    </g>
    <g id="xtick_20">
     <g id="line2d_20">
      <g>
       <use xlink:href="#mf66c0cd445" x="198.33904" y="307.584" style="stroke: #000000; stroke-width: 0.6"/>
      </g>
     </g>
    </g>
    <g id="xtick_21">
     <g id="line2d_21">
      <g>
       <use xlink:href="#mf66c0cd445" x="204.141711" y="307.584" style="stroke: #000000; stroke-width: 0.6"/>
      </g>
     </g>
    </g>
    <g id="xtick_22">
     <g id="line2d_22">
      <g>
       <use xlink:href="#mf66c0cd445" x="209.0478" y="307.584" style="stroke: #000000; stroke-width: 0.6"/>
      </g>
     </g>
    </g>
    <g id="xtick_23">
     <g id="line2d_23">
      <g>
       <use xlink:href="#mf66c0cd445" x="213.297648" y="307.584" style="stroke: #000000; stroke-width: 0.6"/>
      </g>
     </g>
    </g>
    <g id="xtick_24">
     <g id="line2d_24">
      <g>
       <use xlink:href="#mf66c0cd445" x="217.046279" y="307.584" style="stroke: #000000; stroke-width: 0.6"/>
      </g>
     </g>
    </g>
    <g id="xtick_25">
     <g id="line2d_25">
      <g>
       <use xlink:href="#mf66c0cd445" x="242.460048" y="307.584" style="stroke: #000000; stroke-width: 0.6"/>
      </g>
     </g>
    </g>
    <g id="xtick_26">
     <g id="line2d_26">
      <g>
       <use xlink:href="#mf66c0cd445" x="255.364615" y="307.584" style="stroke: #000000; stroke-width: 0.6"/>
      </g>
     </g>
    </g>
    <g id="xtick_27">
     <g id="line2d_27">
      <g>
       <use xlink:href="#mf66c0cd445" x="264.520552" y="307.584" style="stroke: #000000; stroke-width: 0.6"/>
      </g>
     </g>
    </g>
    <g id="xtick_28">
     <g id="line2d_28">
      <g>
       <use xlink:href="#mf66c0cd445" x="271.622448" y="307.584" style="stroke: #000000; stroke-width: 0.6"/>
      </g>
     </g>
    </g>
    <g id="xtick_29">
     <g id="line2d_29">
      <g>
       <use xlink:href="#mf66c0cd445" x="277.42512" y="307.584" style="stroke: #000000; stroke-width: 0.6"/>
      </g>
     </g>
    </g>
    <g id="xtick_30">
     <g id="line2d_30">
      <g>
       <use xlink:href="#mf66c0cd445" x="282.331208" y="307.584" style="stroke: #000000; stroke-width: 0.6"/>
      </g>
     </g>
    </g>
    <g id="xtick_31">
     <g id="line2d_31">
      <g>
       <use xlink:href="#mf66c0cd445" x="286.581056" y="307.584" style="stroke: #000000; stroke-width: 0.6"/>
      </g>
     </g>
    </g>
    <g id="xtick_32">
     <g id="line2d_32">
      <g>
       <use xlink:href="#mf66c0cd445" x="290.329687" y="307.584" style="stroke: #000000; stroke-width: 0.6"/>
      </g>
     </g>
    </g>
    <g id="xtick_33">
     <g id="line2d_33">
      <g>
       <use xlink:href="#mf66c0cd445" x="315.743456" y="307.584" style="stroke: #000000; stroke-width: 0.6"/>
      </g>
     </g>
    </g>
    <g id="xtick_34">
     <g id="line2d_34">
      <g>
       <use xlink:href="#mf66c0cd445" x="328.648024" y="307.584" style="stroke: #000000; stroke-width: 0.6"/>
      </g>
     </g>
    </g>
    <g id="xtick_35">
     <g id="line2d_35">
      <g>
       <use xlink:href="#mf66c0cd445" x="337.80396" y="307.584" style="stroke: #000000; stroke-width: 0.6"/>
      </g>
     </g>
    </g>
    <g id="xtick_36">
     <g id="line2d_36">
      <g>
       <use xlink:href="#mf66c0cd445" x="344.905856" y="307.584" style="stroke: #000000; stroke-width: 0.6"/>
      </g>
     </g>
    </g>
    <g id="xtick_37">
     <g id="line2d_37">
      <g>
       <use xlink:href="#mf66c0cd445" x="350.708528" y="307.584" style="stroke: #000000; stroke-width: 0.6"/>
      </g>
     </g>
    </g>
    <g id="xtick_38">
     <g id="line2d_38">
      <g>
       <use xlink:href="#mf66c0cd445" x="355.614617" y="307.584" style="stroke: #000000; stroke-width: 0.6"/>
      </g>
     </g>
    </g>
    <g id="xtick_39">
     <g id="line2d_39">
      <g>
       <use xlink:href="#mf66c0cd445" x="359.864464" y="307.584" style="stroke: #000000; stroke-width: 0.6"/>
      </g>
     </g>
    </g>
    <g id="xtick_40">
     <g id="line2d_40">
      <g>
       <use xlink:href="#mf66c0cd445" x="363.613095" y="307.584" style="stroke: #000000; stroke-width: 0.6"/>
      </g>
     </g>
    </g>
    <g id="xtick_41">
     <g id="line2d_41">
      <g>
       <use xlink:href="#mf66c0cd445" x="389.026864" y="307.584" style="stroke: #000000; stroke-width: 0.6"/>
      </g>
     </g>
    </g>
    <g id="xtick_42">
     <g id="line2d_42">
      <g>
       <use xlink:href="#mf66c0cd445" x="401.931432" y="307.584" style="stroke: #000000; stroke-width: 0.6"/>
      </g>
     </g>
    </g>
    <g id="xtick_43">
     <g id="line2d_43">
      <g>
       <use xlink:href="#mf66c0cd445" x="411.087368" y="307.584" style="stroke: #000000; stroke-width: 0.6"/>
      </g>
     </g>
    </g>
    <g id="text_6">
     <!-- iter# -->
     <g transform="translate(223.488906 335.860562) scale(0.1 -0.1)">
      <defs>
       <path id="DejaVuSans-69" d="M 603 3500 
L 1178 3500 
L 1178 0 
L 603 0 
L 603 3500 
z
M 603 4863 
L 1178 4863 
L 1178 4134 
L 603 4134 
L 603 4863 
z
" transform="scale(0.015625)"/>
       <path id="DejaVuSans-74" d="M 1172 4494 
L 1172 3500 
L 2356 3500 
L 2356 3053 
L 1172 3053 
L 1172 1153 
Q 1172 725 1289 603 
Q 1406 481 1766 481 
L 2356 481 
L 2356 0 
L 1766 0 
Q 1100 0 847 248 
Q 594 497 594 1153 
L 594 3053 
L 172 3053 
L 172 3500 
L 594 3500 
L 594 4494 
L 1172 4494 
z
" transform="scale(0.015625)"/>
       <path id="DejaVuSans-65" d="M 3597 1894 
L 3597 1613 
L 953 1613 
Q 991 1019 1311 708 
Q 1631 397 2203 397 
Q 2534 397 2845 478 
Q 3156 559 3463 722 
L 3463 178 
Q 3153 47 2828 -22 
Q 2503 -91 2169 -91 
Q 1331 -91 842 396 
Q 353 884 353 1716 
Q 353 2575 817 3079 
Q 1281 3584 2069 3584 
Q 2775 3584 3186 3129 
Q 3597 2675 3597 1894 
z
M 3022 2063 
Q 3016 2534 2758 2815 
Q 2500 3097 2075 3097 
Q 1594 3097 1305 2825 
Q 1016 2553 972 2059 
L 3022 2063 
z
" transform="scale(0.015625)"/>
       <path id="DejaVuSans-72" d="M 2631 2963 
Q 2534 3019 2420 3045 
Q 2306 3072 2169 3072 
Q 1681 3072 1420 2755 
Q 1159 2438 1159 1844 
L 1159 0 
L 581 0 
L 581 3500 
L 1159 3500 
L 1159 2956 
Q 1341 3275 1631 3429 
Q 1922 3584 2338 3584 
Q 2397 3584 2469 3576 
Q 2541 3569 2628 3553 
L 2631 2963 
z
" transform="scale(0.015625)"/>
       <path id="DejaVuSans-23" d="M 3272 2816 
L 2363 2816 
L 2100 1772 
L 3016 1772 
L 3272 2816 
z
M 2803 4594 
L 2478 3297 
L 3391 3297 
L 3719 4594 
L 4219 4594 
L 3897 3297 
L 4872 3297 
L 4872 2816 
L 3775 2816 
L 3519 1772 
L 4513 1772 
L 4513 1294 
L 3397 1294 
L 3072 0 
L 2572 0 
L 2894 1294 
L 1978 1294 
L 1656 0 
L 1153 0 
L 1478 1294 
L 494 1294 
L 494 1772 
L 1594 1772 
L 1856 2816 
L 850 2816 
L 850 3297 
L 1978 3297 
L 2297 4594 
L 2803 4594 
z
" transform="scale(0.015625)"/>
      </defs>
      <use xlink:href="#DejaVuSans-69"/>
      <use xlink:href="#DejaVuSans-74" x="27.783203"/>
      <use xlink:href="#DejaVuSans-65" x="66.992188"/>
      <use xlink:href="#DejaVuSans-72" x="128.515625"/>
      <use xlink:href="#DejaVuSans-23" x="169.628906"/>
     </g>
    </g>
   </g>
   <g id="matplotlib.axis_2">
    <g id="ytick_1">
     <g id="line2d_44">
      <defs>
       <path id="mb22e85d207" d="M 0 0 
L -3.5 0 
" style="stroke: #000000; stroke-width: 0.8"/>
      </defs>
      <g>
       <use xlink:href="#mb22e85d207" x="57.6" y="245.392795" style="stroke: #000000; stroke-width: 0.8"/>
      </g>
     </g>
     <g id="text_7">
      <!-- $\mathdefault{10^{-1}}$ -->
      <g transform="translate(27.1 249.192013) scale(0.1 -0.1)">
       <defs>
        <path id="DejaVuSans-2212" d="M 678 2272 
L 4684 2272 
L 4684 1741 
L 678 1741 
L 678 2272 
z
" transform="scale(0.015625)"/>
       </defs>
       <use xlink:href="#DejaVuSans-31" transform="translate(0 0.684375)"/>
       <use xlink:href="#DejaVuSans-30" transform="translate(63.623047 0.684375)"/>
       <use xlink:href="#DejaVuSans-2212" transform="translate(128.203125 38.965625) scale(0.7)"/>
       <use xlink:href="#DejaVuSans-31" transform="translate(186.855469 38.965625) scale(0.7)"/>
      </g>
     </g>
    </g>
    <g id="ytick_2">
     <g id="line2d_45">
      <g>
       <use xlink:href="#mb22e85d207" x="57.6" y="157.634099" style="stroke: #000000; stroke-width: 0.8"/>
      </g>
     </g>
     <g id="text_8">
      <!-- $\mathdefault{10^{0}}$ -->
      <g transform="translate(33 161.433317) scale(0.1 -0.1)">
       <use xlink:href="#DejaVuSans-31" transform="translate(0 0.765625)"/>
       <use xlink:href="#DejaVuSans-30" transform="translate(63.623047 0.765625)"/>
       <use xlink:href="#DejaVuSans-30" transform="translate(128.203125 39.046875) scale(0.7)"/>
      </g>
     </g>
    </g>
    <g id="ytick_3">
     <g id="line2d_46">
      <g>
       <use xlink:href="#mb22e85d207" x="57.6" y="69.875403" style="stroke: #000000; stroke-width: 0.8"/>
      </g>
     </g>
     <g id="text_9">
      <!-- $\mathdefault{10^{1}}$ -->
      <g transform="translate(33 73.674622) scale(0.1 -0.1)">
       <use xlink:href="#DejaVuSans-31" transform="translate(0 0.684375)"/>
       <use xlink:href="#DejaVuSans-30" transform="translate(63.623047 0.684375)"/>
       <use xlink:href="#DejaVuSans-31" transform="translate(128.203125 38.965625) scale(0.7)"/>
      </g>
     </g>
    </g>
    <g id="ytick_4">
     <g id="line2d_47">
      <defs>
       <path id="m75dd99fc9b" d="M 0 0 
L -2 0 
" style="stroke: #000000; stroke-width: 0.6"/>
      </defs>
      <g>
       <use xlink:href="#m75dd99fc9b" x="57.6" y="306.73349" style="stroke: #000000; stroke-width: 0.6"/>
      </g>
     </g>
    </g>
    <g id="ytick_5">
     <g id="line2d_48">
      <g>
       <use xlink:href="#m75dd99fc9b" x="57.6" y="291.279951" style="stroke: #000000; stroke-width: 0.6"/>
      </g>
     </g>
    </g>
    <g id="ytick_6">
     <g id="line2d_49">
      <g>
       <use xlink:href="#m75dd99fc9b" x="57.6" y="280.315491" style="stroke: #000000; stroke-width: 0.6"/>
      </g>
     </g>
    </g>
    <g id="ytick_7">
     <g id="line2d_50">
      <g>
       <use xlink:href="#m75dd99fc9b" x="57.6" y="271.810794" style="stroke: #000000; stroke-width: 0.6"/>
      </g>
     </g>
    </g>
    <g id="ytick_8">
     <g id="line2d_51">
      <g>
       <use xlink:href="#m75dd99fc9b" x="57.6" y="264.861951" style="stroke: #000000; stroke-width: 0.6"/>
      </g>
     </g>
    </g>
    <g id="ytick_9">
     <g id="line2d_52">
      <g>
       <use xlink:href="#m75dd99fc9b" x="57.6" y="258.986788" style="stroke: #000000; stroke-width: 0.6"/>
      </g>
     </g>
    </g>
    <g id="ytick_10">
     <g id="line2d_53">
      <g>
       <use xlink:href="#m75dd99fc9b" x="57.6" y="253.897491" style="stroke: #000000; stroke-width: 0.6"/>
      </g>
     </g>
    </g>
    <g id="ytick_11">
     <g id="line2d_54">
      <g>
       <use xlink:href="#m75dd99fc9b" x="57.6" y="249.408412" style="stroke: #000000; stroke-width: 0.6"/>
      </g>
     </g>
    </g>
    <g id="ytick_12">
     <g id="line2d_55">
      <g>
       <use xlink:href="#m75dd99fc9b" x="57.6" y="218.974795" style="stroke: #000000; stroke-width: 0.6"/>
      </g>
     </g>
    </g>
    <g id="ytick_13">
     <g id="line2d_56">
      <g>
       <use xlink:href="#m75dd99fc9b" x="57.6" y="203.521255" style="stroke: #000000; stroke-width: 0.6"/>
      </g>
     </g>
    </g>
    <g id="ytick_14">
     <g id="line2d_57">
      <g>
       <use xlink:href="#m75dd99fc9b" x="57.6" y="192.556795" style="stroke: #000000; stroke-width: 0.6"/>
      </g>
     </g>
    </g>
    <g id="ytick_15">
     <g id="line2d_58">
      <g>
       <use xlink:href="#m75dd99fc9b" x="57.6" y="184.052099" style="stroke: #000000; stroke-width: 0.6"/>
      </g>
     </g>
    </g>
    <g id="ytick_16">
     <g id="line2d_59">
      <g>
       <use xlink:href="#m75dd99fc9b" x="57.6" y="177.103256" style="stroke: #000000; stroke-width: 0.6"/>
      </g>
     </g>
    </g>
    <g id="ytick_17">
     <g id="line2d_60">
      <g>
       <use xlink:href="#m75dd99fc9b" x="57.6" y="171.228093" style="stroke: #000000; stroke-width: 0.6"/>
      </g>
     </g>
    </g>
    <g id="ytick_18">
     <g id="line2d_61">
      <g>
       <use xlink:href="#m75dd99fc9b" x="57.6" y="166.138795" style="stroke: #000000; stroke-width: 0.6"/>
      </g>
     </g>
    </g>
    <g id="ytick_19">
     <g id="line2d_62">
      <g>
       <use xlink:href="#m75dd99fc9b" x="57.6" y="161.649716" style="stroke: #000000; stroke-width: 0.6"/>
      </g>
     </g>
    </g>
    <g id="ytick_20">
     <g id="line2d_63">
      <g>
       <use xlink:href="#m75dd99fc9b" x="57.6" y="131.216099" style="stroke: #000000; stroke-width: 0.6"/>
      </g>
     </g>
    </g>
    <g id="ytick_21">
     <g id="line2d_64">
      <g>
       <use xlink:href="#m75dd99fc9b" x="57.6" y="115.76256" style="stroke: #000000; stroke-width: 0.6"/>
      </g>
     </g>
    </g>
    <g id="ytick_22">
     <g id="line2d_65">
      <g>
       <use xlink:href="#m75dd99fc9b" x="57.6" y="104.798099" style="stroke: #000000; stroke-width: 0.6"/>
      </g>
     </g>
    </g>
    <g id="ytick_23">
     <g id="line2d_66">
      <g>
       <use xlink:href="#m75dd99fc9b" x="57.6" y="96.293403" style="stroke: #000000; stroke-width: 0.6"/>
      </g>
     </g>
    </g>
    <g id="ytick_24">
     <g id="line2d_67">
      <g>
       <use xlink:href="#m75dd99fc9b" x="57.6" y="89.34456" style="stroke: #000000; stroke-width: 0.6"/>
      </g>
     </g>
    </g>
    <g id="ytick_25">
     <g id="line2d_68">
      <g>
       <use xlink:href="#m75dd99fc9b" x="57.6" y="83.469397" style="stroke: #000000; stroke-width: 0.6"/>
      </g>
     </g>
    </g>
    <g id="ytick_26">
     <g id="line2d_69">
      <g>
       <use xlink:href="#m75dd99fc9b" x="57.6" y="78.380099" style="stroke: #000000; stroke-width: 0.6"/>
      </g>
     </g>
    </g>
    <g id="ytick_27">
     <g id="line2d_70">
      <g>
       <use xlink:href="#m75dd99fc9b" x="57.6" y="73.891021" style="stroke: #000000; stroke-width: 0.6"/>
      </g>
     </g>
    </g>
    <g id="ytick_28">
     <g id="line2d_71">
      <g>
       <use xlink:href="#m75dd99fc9b" x="57.6" y="43.457403" style="stroke: #000000; stroke-width: 0.6"/>
      </g>
     </g>
    </g>
    <g id="text_10">
     <!-- MEA loss -->
     <g transform="translate(21.020312 196.668625) rotate(-90) scale(0.1 -0.1)">
      <defs>
       <path id="DejaVuSans-4d" d="M 628 4666 
L 1569 4666 
L 2759 1491 
L 3956 4666 
L 4897 4666 
L 4897 0 
L 4281 0 
L 4281 4097 
L 3078 897 
L 2444 897 
L 1241 4097 
L 1241 0 
L 628 0 
L 628 4666 
z
" transform="scale(0.015625)"/>
       <path id="DejaVuSans-45" d="M 628 4666 
L 3578 4666 
L 3578 4134 
L 1259 4134 
L 1259 2753 
L 3481 2753 
L 3481 2222 
L 1259 2222 
L 1259 531 
L 3634 531 
L 3634 0 
L 628 0 
L 628 4666 
z
" transform="scale(0.015625)"/>
       <path id="DejaVuSans-41" d="M 2188 4044 
L 1331 1722 
L 3047 1722 
L 2188 4044 
z
M 1831 4666 
L 2547 4666 
L 4325 0 
L 3669 0 
L 3244 1197 
L 1141 1197 
L 716 0 
L 50 0 
L 1831 4666 
z
" transform="scale(0.015625)"/>
       <path id="DejaVuSans-20" transform="scale(0.015625)"/>
       <path id="DejaVuSans-6c" d="M 603 4863 
L 1178 4863 
L 1178 0 
L 603 0 
L 603 4863 
z
" transform="scale(0.015625)"/>
       <path id="DejaVuSans-6f" d="M 1959 3097 
Q 1497 3097 1228 2736 
Q 959 2375 959 1747 
Q 959 1119 1226 758 
Q 1494 397 1959 397 
Q 2419 397 2687 759 
Q 2956 1122 2956 1747 
Q 2956 2369 2687 2733 
Q 2419 3097 1959 3097 
z
M 1959 3584 
Q 2709 3584 3137 3096 
Q 3566 2609 3566 1747 
Q 3566 888 3137 398 
Q 2709 -91 1959 -91 
Q 1206 -91 779 398 
Q 353 888 353 1747 
Q 353 2609 779 3096 
Q 1206 3584 1959 3584 
z
" transform="scale(0.015625)"/>
       <path id="DejaVuSans-73" d="M 2834 3397 
L 2834 2853 
Q 2591 2978 2328 3040 
Q 2066 3103 1784 3103 
Q 1356 3103 1142 2972 
Q 928 2841 928 2578 
Q 928 2378 1081 2264 
Q 1234 2150 1697 2047 
L 1894 2003 
Q 2506 1872 2764 1633 
Q 3022 1394 3022 966 
Q 3022 478 2636 193 
Q 2250 -91 1575 -91 
Q 1294 -91 989 -36 
Q 684 19 347 128 
L 347 722 
Q 666 556 975 473 
Q 1284 391 1588 391 
Q 1994 391 2212 530 
Q 2431 669 2431 922 
Q 2431 1156 2273 1281 
Q 2116 1406 1581 1522 
L 1381 1569 
Q 847 1681 609 1914 
Q 372 2147 372 2553 
Q 372 3047 722 3315 
Q 1072 3584 1716 3584 
Q 2034 3584 2315 3537 
Q 2597 3491 2834 3397 
z
" transform="scale(0.015625)"/>
      </defs>
      <use xlink:href="#DejaVuSans-4d"/>
      <use xlink:href="#DejaVuSans-45" x="86.279297"/>
      <use xlink:href="#DejaVuSans-41" x="149.462891"/>
      <use xlink:href="#DejaVuSans-20" x="217.871094"/>
      <use xlink:href="#DejaVuSans-6c" x="249.658203"/>
      <use xlink:href="#DejaVuSans-6f" x="277.441406"/>
      <use xlink:href="#DejaVuSans-73" x="338.623047"/>
      <use xlink:href="#DejaVuSans-73" x="390.722656"/>
     </g>
    </g>
   </g>
   <g id="line2d_72">
    <path d="M 73.832727 53.568 
L 164.004218 140.659773 
L 185.114604 191.409565 
L 197.696057 189.736797 
L 206.689197 197.085343 
L 213.693014 198.434435 
L 219.430131 199.893333 
L 224.289313 203.666778 
L 228.503935 203.636566 
L 232.225141 205.194608 
L 235.556449 208.359203 
L 238.57187 198.98772 
L 241.326157 213.39451 
L 243.860955 215.168028 
L 246.208679 211.42195 
L 248.395055 219.986577 
L 250.44084 222.263536 
L 252.363029 223.872521 
L 254.175709 228.980235 
L 255.890687 232.608524 
L 257.517959 233.493051 
L 259.066061 236.537666 
L 260.542341 239.105417 
L 261.953168 239.83808 
L 263.304101 240.110036 
L 264.600019 243.986949 
L 265.845227 254.596105 
L 267.043546 258.646572 
L 268.198379 259.969761 
L 269.312771 242.820779 
L 270.38946 262.584068 
L 271.430913 257.736099 
L 272.439365 252.223233 
L 273.416841 262.977132 
L 274.365189 262.082666 
L 275.286095 265.810462 
L 276.181102 257.818337 
L 277.051626 256.561497 
L 277.898973 262.114464 
L 278.724344 270.436545 
L 279.52885 268.58935 
L 280.313521 271.979972 
L 281.07931 264.412075 
L 281.827105 273.744134 
L 282.557733 264.863046 
L 283.271964 272.390585 
L 283.970518 273.559774 
L 284.654068 274.296047 
L 285.323245 254.681795 
L 285.978642 256.91129 
L 286.620814 252.684865 
L 287.250285 268.04938 
L 287.867547 265.067612 
L 288.473065 266.134389 
L 289.067278 270.497143 
L 290.223421 275.691243 
L 290.786116 275.782579 
L 291.339035 265.485655 
L 291.882511 277.634181 
L 292.416863 271.516349 
L 292.942391 256.329163 
L 293.459383 276.038344 
L 293.96811 275.445017 
L 294.468833 272.459313 
L 294.961801 268.339467 
L 295.447249 244.065489 
L 295.925404 272.005034 
L 296.396481 276.688628 
L 296.860688 241.765405 
L 297.769269 270.94228 
L 298.214014 269.446267 
L 298.652631 279.413647 
L 299.085284 275.865744 
L 299.512135 277.772286 
L 299.933336 278.754014 
L 300.349036 259.882999 
L 300.759377 260.639229 
L 301.164494 275.105223 
L 301.564519 262.45735 
L 301.959578 237.90725 
L 302.349794 241.497604 
L 302.735284 235.0633 
L 303.11616 263.035017 
L 303.492532 260.071194 
L 303.864505 264.669099 
L 304.23218 249.018831 
L 304.595657 279.490491 
L 304.95503 257.628323 
L 305.310389 263.037859 
L 305.661825 259.024721 
L 306.009423 264.837655 
L 306.353265 279.188826 
L 306.693432 284.414521 
L 307.030002 260.126795 
L 307.363049 262.251428 
L 307.692648 284.212157 
L 308.018868 282.003912 
L 308.341778 265.49726 
L 308.661445 237.683888 
L 308.977934 281.730103 
L 309.291306 235.992315 
L 309.601622 249.801255 
L 310.213323 283.987817 
L 310.813488 257.606615 
L 311.10938 265.910657 
L 311.402545 268.915588 
L 311.693035 280.15665 
L 312.26618 265.754843 
L 312.548928 252.110392 
L 312.829185 252.665292 
L 313.382404 268.653172 
L 313.655449 268.396642 
L 314.19461 258.789086 
L 314.460804 282.549415 
L 314.724789 251.308014 
L 314.986603 253.075312 
L 315.246281 232.039227 
L 315.503857 240.416167 
L 315.759365 277.450263 
L 316.012839 271.496289 
L 316.264309 283.722062 
L 316.513809 251.878445 
L 316.761367 285.430524 
L 316.792177 282.91977 
L 317.037588 263.108987 
L 317.281121 224.473683 
L 317.522805 227.629867 
L 317.762667 238.05459 
L 318.237036 271.806503 
L 318.704438 264.415443 
L 318.93559 286.005709 
L 319.165075 272.857081 
L 319.392917 277.948276 
L 319.61914 277.79131 
L 319.843766 256.036849 
L 320.066818 268.213082 
L 320.288317 267.41677 
L 320.508286 291.037591 
L 320.943714 280.06261 
L 321.159214 285.917603 
L 321.373265 236.068728 
L 321.585886 267.498675 
L 321.797096 249.052343 
L 322.006913 247.467539 
L 322.215357 280.435713 
L 322.422444 225.062865 
L 322.832619 285.9203 
L 323.035741 266.652284 
L 323.237575 279.885971 
L 323.438137 231.942067 
L 323.637443 286.097407 
L 323.835509 285.332175 
L 324.032349 280.55375 
L 324.22798 234.569197 
L 324.615671 258.340203 
L 324.807759 254.603217 
L 325.188493 284.300919 
L 325.377165 270.720523 
L 325.564726 282.988082 
L 325.751188 271.882554 
L 325.936563 286.368672 
L 326.120865 282.748555 
L 326.304106 295.488 
L 326.667453 270.725101 
L 326.847583 276.145296 
L 327.026699 228.990331 
L 327.381935 276.111909 
L 327.558077 273.12991 
L 327.733249 197.080393 
L 327.733249 197.080393 
" clip-path="url(#p02dc571882)" style="fill: none; stroke: #1f77b4; stroke-width: 1.5; stroke-linecap: square"/>
   </g>
   <g id="line2d_73">
    <path d="M 73.832727 167.277579 
L 164.004218 168.180409 
L 185.114604 170.737692 
L 197.696057 168.747487 
L 206.689197 170.063509 
L 213.693014 169.833016 
L 219.430131 174.627196 
L 224.289313 179.812585 
L 228.503935 175.185023 
L 232.225141 176.679774 
L 235.556449 171.461558 
L 238.57187 179.138683 
L 241.326157 185.170226 
L 243.860955 187.005284 
L 246.208679 184.59689 
L 248.395055 174.167881 
L 250.44084 187.480527 
L 252.363029 189.089107 
L 254.175709 190.037896 
L 255.890687 182.124361 
L 257.517959 190.320938 
L 259.066061 189.628794 
L 260.542341 195.616975 
L 261.953168 197.305824 
L 263.304101 196.065967 
L 264.600019 192.662189 
L 265.845227 179.788028 
L 267.043546 196.167109 
L 268.198379 198.494005 
L 269.312771 201.719485 
L 270.38946 182.866357 
L 271.430913 204.22615 
L 272.439365 207.044175 
L 274.365189 194.163944 
L 275.286095 184.922633 
L 276.181102 201.172001 
L 277.051626 200.05562 
L 277.898973 196.808472 
L 278.724344 207.284634 
L 279.52885 209.249645 
L 280.313521 209.36267 
L 281.07931 210.099422 
L 281.827105 201.146535 
L 282.557733 203.710777 
L 283.271964 184.630834 
L 284.654068 211.087782 
L 285.323245 209.954083 
L 285.978642 207.068535 
L 286.620814 174.165466 
L 287.250285 213.959677 
L 287.867547 215.522428 
L 288.473065 211.495028 
L 289.067278 203.292099 
L 289.650599 191.808047 
L 290.223421 211.064592 
L 290.786116 215.010785 
L 291.339035 195.432675 
L 291.882511 212.570786 
L 292.416863 209.575203 
L 292.942391 216.483951 
L 293.459383 207.527529 
L 293.96811 210.83952 
L 294.468833 219.88939 
L 294.961801 199.042372 
L 295.447249 188.357099 
L 295.925404 206.535218 
L 296.396481 210.788392 
L 296.860688 180.057405 
L 297.31822 208.675287 
L 297.769269 198.772963 
L 298.214014 196.933515 
L 298.652631 201.479364 
L 299.085284 202.426861 
L 299.512135 210.796851 
L 299.933336 206.475085 
L 300.349036 190.028934 
L 300.759377 187.29504 
L 301.164494 211.008805 
L 301.564519 200.370626 
L 302.349794 220.608006 
L 302.735284 220.007932 
L 303.11616 220.728189 
L 303.492532 212.349709 
L 303.864505 218.862459 
L 304.23218 211.08419 
L 304.595657 220.472199 
L 304.95503 204.672295 
L 305.310389 223.212943 
L 305.661825 219.716189 
L 306.009423 207.701408 
L 306.353265 224.714834 
L 306.693432 226.24912 
L 307.030002 219.836176 
L 307.363049 189.788612 
L 307.692648 198.369632 
L 308.018868 186.525035 
L 308.341778 220.710217 
L 308.661445 222.539237 
L 308.977934 217.198733 
L 309.291306 202.221866 
L 309.908942 219.85881 
L 310.213323 202.090337 
L 310.51482 223.435078 
L 310.813488 212.815965 
L 311.10938 207.024317 
L 311.402545 175.370829 
L 311.980898 224.319065 
L 312.26618 220.145298 
L 312.548928 220.290039 
L 312.829185 221.975447 
L 313.106997 182.86959 
L 313.382404 179.244152 
L 313.926171 230.228886 
L 314.19461 198.720235 
L 314.460804 228.756468 
L 314.724789 213.289959 
L 315.246281 227.00841 
L 315.503857 226.831124 
L 315.759365 231.539964 
L 316.012839 201.403761 
L 316.513809 219.975247 
L 316.761367 223.459793 
L 316.792177 213.719434 
L 317.037588 217.360026 
L 317.281121 205.214806 
L 317.522805 227.386695 
L 317.762667 225.767321 
L 318.000735 216.089233 
L 318.237036 227.786914 
L 318.471595 228.90338 
L 318.704438 235.863081 
L 318.93559 203.86631 
L 319.165075 213.855705 
L 319.392917 198.882088 
L 319.843766 227.692356 
L 320.066818 227.091294 
L 320.288317 196.454295 
L 320.508286 229.726086 
L 320.726744 227.379887 
L 320.943714 204.780018 
L 321.159214 214.602404 
L 321.373265 203.715465 
L 321.585886 212.509154 
L 321.797096 177.398881 
L 322.215357 212.90453 
L 322.422444 219.512025 
L 322.628192 220.822775 
L 322.832619 208.06912 
L 323.035741 219.74805 
L 323.237575 224.431478 
L 323.438137 217.947911 
L 323.637443 222.703916 
L 323.835509 202.343475 
L 324.22798 228.331489 
L 324.422416 229.482419 
L 324.615671 228.447638 
L 324.807759 189.860555 
L 324.998695 226.83675 
L 325.188493 227.793727 
L 325.377165 226.291981 
L 325.751188 230.001758 
L 325.936563 198.511972 
L 326.486298 235.454679 
L 326.667453 209.60999 
L 326.847583 231.313295 
L 327.026699 194.617908 
L 327.204812 196.893937 
L 327.381935 220.332095 
L 327.558077 226.286311 
L 327.733249 216.84634 
L 327.907463 216.70841 
L 328.080728 233.223891 
L 328.424454 231.601094 
L 328.764508 215.4533 
L 328.933182 206.296343 
L 329.100966 236.284214 
L 329.267871 231.773328 
L 329.433905 233.565217 
L 329.599077 185.745234 
L 329.926873 234.659027 
L 330.089513 228.960262 
L 330.412321 200.502852 
L 330.572505 227.449198 
L 330.731888 229.505703 
L 330.890476 214.277973 
L 331.205301 238.080911 
L 331.361553 233.728955 
L 331.517042 213.884963 
L 331.671775 232.649345 
L 331.825759 216.024448 
L 331.979002 230.472589 
L 332.131511 196.054427 
L 332.283292 220.937533 
L 332.5847 191.563333 
L 333.031527 214.673254 
L 333.179086 224.166022 
L 333.325964 208.978492 
L 333.617702 228.15439 
L 333.762575 228.256792 
L 333.90679 224.534704 
L 334.050356 229.175775 
L 334.193276 223.627034 
L 334.335558 209.828328 
L 334.618227 230.183548 
L 334.758626 206.715968 
L 334.898408 205.172113 
L 335.037579 225.335876 
L 335.176144 224.776067 
L 335.314108 232.403761 
L 335.451477 198.771679 
L 335.588255 216.93567 
L 335.860061 221.176675 
L 335.995098 188.096316 
L 336.129565 220.300898 
L 336.263467 185.224091 
L 336.52959 224.359893 
L 336.793508 231.764247 
L 336.92465 229.847194 
L 337.055254 220.501594 
L 337.185325 221.865407 
L 337.443882 169.821273 
L 337.700355 212.08782 
L 337.827821 228.997847 
L 337.954778 227.716825 
L 338.081231 219.429537 
L 338.207184 230.680336 
L 338.457603 217.382311 
L 338.582078 219.567326 
L 338.844981 236.621204 
L 338.967953 214.509886 
L 339.090451 223.240659 
L 339.21248 213.278767 
L 339.455143 227.667435 
L 339.575784 190.921003 
L 339.815703 229.977407 
L 339.934987 210.847207 
L 340.172224 232.366934 
L 340.290182 222.125841 
L 340.407705 227.104082 
L 340.757691 193.349943 
L 340.873503 240.130021 
L 340.988895 240.248746 
L 341.103871 232.634567 
L 341.218432 205.833416 
L 341.332583 237.064856 
L 341.446326 200.622612 
L 341.559663 238.901143 
L 341.672599 237.784524 
L 341.897274 209.586885 
L 342.00902 236.315751 
L 342.120375 170.675608 
L 342.341923 199.643419 
L 342.452121 165.525264 
L 342.671379 212.05917 
L 342.99746 195.065047 
L 343.105415 214.105442 
L 343.213006 211.259952 
L 343.320234 197.110378 
L 343.533612 221.737834 
L 343.745569 200.903594 
L 343.956124 225.007177 
L 344.060882 226.152408 
L 344.165295 216.479224 
L 344.373101 226.538457 
L 344.579558 228.736278 
L 344.682287 223.605112 
L 344.784685 196.79912 
L 344.988498 229.112906 
L 345.089917 206.45728 
L 345.191014 224.534954 
L 345.291791 215.449189 
L 345.39225 228.532244 
L 345.492393 226.506116 
L 345.592221 212.343545 
L 345.691738 226.964254 
L 345.790944 195.542862 
L 345.988433 231.518193 
L 346.086721 228.519001 
L 346.184705 227.152469 
L 346.282389 232.379074 
L 346.379774 229.968138 
L 346.766361 212.46967 
L 346.957907 236.247499 
L 347.148308 233.316563 
L 347.243083 200.05862 
L 347.337577 218.216303 
L 347.43179 205.67616 
L 347.525726 237.513584 
L 347.619385 230.432824 
L 347.71277 235.750288 
L 347.805881 234.617662 
L 347.898721 236.729929 
L 347.991291 226.711059 
L 348.175626 240.045956 
L 348.267395 220.905556 
L 348.3589 222.533691 
L 348.450143 217.259556 
L 348.541125 199.429642 
L 348.722312 238.724136 
L 348.81252 231.030181 
L 348.902473 243.246223 
L 348.992173 202.537834 
L 349.170818 243.002031 
L 349.259765 236.54292 
L 349.348465 231.627898 
L 349.436919 235.557328 
L 349.525127 233.87366 
L 349.613091 238.426859 
L 349.700813 219.775491 
L 349.875535 234.285796 
L 350.049302 242.015731 
L 350.135832 227.246425 
L 350.222127 246.203346 
L 350.308188 232.310225 
L 350.394018 245.512141 
L 350.479616 236.023913 
L 350.564985 241.63332 
L 350.650125 227.072178 
L 350.735039 234.241281 
L 350.819726 232.38062 
L 350.904189 226.512577 
L 350.988428 237.163384 
L 351.072445 233.946597 
L 351.15624 242.686547 
L 351.239816 223.96688 
L 351.323173 242.235185 
L 351.406311 238.073872 
L 351.489234 234.150234 
L 351.57194 244.601714 
L 351.654433 241.968445 
L 351.736712 244.845731 
L 351.746982 240.454971 
L 351.829022 244.221208 
L 351.910852 234.763785 
L 352.073883 244.092257 
L 352.155086 207.246557 
L 352.316874 237.684368 
L 352.39746 243.229346 
L 352.477843 207.316225 
L 352.638002 240.989682 
L 352.717781 243.225483 
L 352.797359 229.569907 
L 352.87674 245.418913 
L 352.955923 245.365378 
L 353.034909 224.1474 
L 353.1137 244.327403 
L 353.192296 227.125011 
L 353.270699 247.884379 
L 353.348909 240.392859 
L 353.426928 246.295542 
L 353.582393 233.749821 
L 353.659842 233.784215 
L 353.737102 235.808378 
L 353.814176 192.372179 
L 353.967765 243.586031 
L 354.044283 222.426668 
L 354.120617 244.391858 
L 354.196769 231.991305 
L 354.272739 247.292887 
L 354.348528 237.620118 
L 354.424136 209.315446 
L 354.649891 246.016969 
L 354.724788 204.426585 
L 354.874056 233.521299 
L 354.948428 214.956521 
L 355.096653 249.090207 
L 355.317703 234.594023 
L 355.464222 249.443569 
L 355.53723 235.57227 
L 355.61007 237.835907 
L 355.682744 246.6751 
L 355.827595 227.655452 
L 355.971791 255.04975 
L 356.115336 244.817089 
L 356.186866 252.979638 
L 356.258236 251.549609 
L 356.329447 232.823964 
L 356.400498 247.015713 
L 356.471391 233.299564 
L 356.542127 254.644573 
L 356.612706 251.67025 
L 356.683128 234.356113 
L 356.753395 250.770217 
L 356.823507 245.144886 
L 356.893466 252.400398 
L 356.96327 245.635883 
L 357.032922 245.917934 
L 357.102422 253.235286 
L 357.171771 252.283728 
L 357.240968 247.914776 
L 357.310016 226.950077 
L 357.378914 255.743325 
L 357.447663 224.487604 
L 357.516264 228.367336 
L 357.721184 241.689624 
L 357.789199 223.522331 
L 357.857069 251.06862 
L 357.924794 246.216447 
L 358.127109 256.465947 
L 358.194262 250.501738 
L 358.261275 256.900746 
L 358.328146 249.604535 
L 358.461469 222.242266 
L 358.594235 204.913622 
L 358.72645 183.07707 
L 358.923748 233.50733 
L 358.989244 235.241117 
L 359.054604 216.603826 
L 359.249885 235.347389 
L 359.314713 225.375471 
L 359.37941 238.643878 
L 359.443975 226.955266 
L 359.636888 243.379212 
L 359.700934 244.632911 
L 359.828639 231.444039 
L 359.8923 235.072301 
L 359.955834 239.732654 
L 360.019242 187.558229 
L 360.082523 236.424424 
L 360.145679 206.622095 
L 360.20871 242.114511 
L 360.271616 241.791119 
L 360.397057 238.175599 
L 360.459592 225.676155 
L 360.522005 239.835888 
L 360.584295 238.081192 
L 360.770439 246.669576 
L 360.832245 226.672353 
L 360.963188 248.192043 
L 361.085937 235.092069 
L 361.147135 237.242025 
L 361.208215 233.82336 
L 361.330025 251.911073 
L 361.390755 241.157048 
L 361.51187 251.344559 
L 361.572254 246.210174 
L 361.632525 250.250979 
L 361.692681 251.88925 
L 361.752725 216.463208 
L 361.812655 232.799538 
L 361.872472 251.859228 
L 361.932177 243.119889 
L 361.991771 229.369247 
L 362.051253 255.30699 
L 362.110624 253.193121 
L 362.347006 239.806626 
L 362.405829 240.062097 
L 362.523148 229.382536 
L 362.581646 233.341257 
L 362.640037 221.683289 
L 362.698321 250.43582 
L 362.756498 223.990233 
L 362.814569 230.323201 
L 362.988149 255.257706 
L 363.0458 226.912108 
L 363.103346 251.947047 
L 363.160788 246.947281 
L 363.218127 257.032463 
L 363.332495 236.258406 
L 363.503281 253.192863 
L 363.560007 245.834866 
L 363.616631 254.711279 
L 363.785903 240.717824 
L 363.898253 257.224262 
L 364.010208 240.870637 
L 364.066038 257.454618 
L 364.12177 229.154758 
L 364.177405 243.498393 
L 364.288384 253.011902 
L 364.343728 250.171371 
L 364.45413 259.407664 
L 364.509187 240.456979 
L 364.564149 253.216289 
L 364.619017 260.303139 
L 364.67379 249.287284 
L 364.728469 262.016957 
L 364.783054 236.738762 
L 364.837546 261.421582 
L 365.000463 237.295219 
L 365.162551 258.105072 
L 365.216398 255.069361 
L 365.270153 261.525679 
L 365.323818 211.740567 
L 365.377393 233.660682 
L 365.430877 223.729096 
L 365.484272 258.728104 
L 365.537577 227.983827 
L 365.64392 261.785972 
L 365.802772 228.40674 
L 365.855547 242.23851 
L 365.908235 224.94877 
L 366.013349 247.394293 
L 366.118117 230.391155 
L 366.170372 232.692966 
L 366.274626 250.24131 
L 366.326625 249.642497 
L 366.378539 239.853186 
L 366.430368 247.246332 
L 366.482114 255.005964 
L 366.533775 248.871037 
L 366.636847 222.63214 
L 366.688258 190.033622 
L 366.739586 204.098412 
L 366.994991 247.588584 
L 367.096582 231.744083 
L 367.147257 248.758433 
L 367.19785 245.240052 
L 367.248364 225.445098 
L 367.298797 241.828238 
L 367.449619 254.334927 
L 367.549772 255.096718 
L 367.64961 235.845999 
L 367.798783 247.478558 
L 367.848352 251.697406 
L 367.94726 238.097012 
L 367.996599 258.420474 
L 368.052014 256.770753 
L 368.150291 232.162085 
L 368.199316 244.372551 
L 368.248266 241.791961 
L 368.297141 264.288018 
L 368.345941 259.610737 
L 368.394666 255.668505 
L 368.443316 238.154222 
L 368.491893 250.982467 
L 368.540395 265.275131 
L 368.637178 243.621731 
L 368.781804 261.24915 
L 368.829867 252.240276 
L 368.877857 261.034468 
L 368.925775 260.860535 
L 368.973621 258.180301 
L 369.069098 262.928349 
L 369.116729 232.682031 
L 369.259196 263.546514 
L 369.401029 238.623854 
L 369.495234 259.137241 
L 369.542232 243.650421 
L 369.636021 247.40741 
L 369.682812 266.37295 
L 369.822773 224.030762 
L 369.869291 265.152617 
L 369.91574 251.194034 
L 369.962122 245.913961 
L 370.008436 247.082547 
L 370.054683 256.64018 
L 370.100863 253.708104 
L 370.146976 236.485687 
L 370.193022 255.460098 
L 370.239002 259.441871 
L 370.284915 239.265157 
L 370.330762 240.216902 
L 370.467909 267.28145 
L 370.559013 243.062992 
L 370.649857 265.110613 
L 370.785639 220.720192 
L 370.830771 236.256748 
L 370.965784 261.050133 
L 371.010662 259.299676 
L 371.055476 260.988227 
L 371.100228 228.455401 
L 371.144916 231.22562 
L 371.234105 253.747994 
L 371.278606 241.605162 
L 371.323045 229.584571 
L 371.411737 264.424429 
L 371.455991 248.784724 
L 371.544314 243.490607 
L 371.588383 257.111657 
L 371.67634 255.122976 
L 371.720227 255.54353 
L 371.764054 247.48006 
L 371.807821 251.955321 
L 371.851528 254.222874 
L 371.895174 218.246744 
L 371.938761 256.686969 
L 372.069165 230.922915 
L 372.155805 264.203421 
L 372.199036 259.661392 
L 372.242209 244.26373 
L 372.285324 250.141035 
L 372.32838 263.643639 
L 372.414318 258.920888 
L 372.4572 262.23174 
L 372.585501 223.619303 
L 372.628153 231.505883 
L 372.713287 254.956492 
L 372.755768 243.251935 
L 372.840561 261.927542 
L 372.882873 261.263117 
L 372.967329 248.676265 
L 373.009473 259.00441 
L 373.051561 247.16085 
L 373.093594 224.272655 
L 373.135571 249.207603 
L 373.177493 261.653195 
L 373.21936 239.871633 
L 373.302928 244.170142 
L 373.34463 246.902499 
L 373.386278 239.61156 
L 373.46941 264.174348 
L 373.510895 252.16759 
L 373.552326 239.394406 
L 373.593702 260.492319 
L 373.635026 268.561807 
L 373.717511 265.694124 
L 373.845969 249.297709 
L 373.886966 264.779871 
L 373.92791 235.073951 
L 373.968802 255.341083 
L 374.009641 264.349013 
L 374.050428 256.984428 
L 374.131846 231.906803 
L 374.172477 244.447774 
L 374.294059 269.610776 
L 374.334483 257.942599 
L 374.374856 243.898735 
L 374.455449 250.254889 
L 374.575957 261.489772 
L 374.616025 250.998718 
L 374.656042 263.416971 
L 374.69601 254.458163 
L 374.775795 262.227367 
L 374.85538 264.869424 
L 374.895098 232.65707 
L 374.934766 268.224618 
L 375.013955 250.292891 
L 375.053476 262.108137 
L 375.092948 239.737031 
L 375.132371 260.929742 
L 375.250347 274.105487 
L 375.328756 254.677792 
L 375.367888 258.082286 
L 375.446008 257.953944 
L 375.484996 272.238637 
L 375.56283 251.637854 
L 375.640474 253.22582 
L 375.717928 224.722612 
L 375.833758 268.626852 
L 375.872274 220.309202 
L 375.910744 226.154897 
L 375.949167 273.075527 
L 376.025875 262.968268 
L 376.06416 230.497116 
L 376.140592 257.837068 
L 376.178739 244.781742 
L 376.21684 249.972409 
L 376.292906 269.386591 
L 376.444496 241.627338 
L 376.595366 258.99158 
L 376.632973 264.338704 
L 376.745525 234.479877 
L 376.894979 264.794721 
L 376.932233 273.866141 
L 376.969443 264.710222 
L 377.006611 226.973759 
L 377.043734 244.620796 
L 377.080815 270.568364 
L 377.154846 260.007089 
L 377.191797 268.79531 
L 377.228706 228.22666 
L 377.302394 267.485186 
L 377.412608 256.499786 
L 377.449262 267.61731 
L 377.485873 239.003833 
L 377.558969 254.732799 
L 377.631898 254.889858 
L 377.6683 236.140687 
L 377.813492 260.543425 
L 377.885841 234.280246 
L 377.921954 238.332461 
L 378.030047 260.745061 
L 378.065996 239.983683 
L 378.101905 260.568196 
L 378.137774 265.957831 
L 378.173602 245.000208 
L 378.20939 272.280802 
L 378.245137 259.875175 
L 378.280845 264.062963 
L 378.423276 247.797051 
L 378.529682 267.658414 
L 378.565072 267.13597 
L 378.600423 267.132499 
L 378.635734 277.359075 
L 378.671006 272.231533 
L 378.710641 235.36919 
L 378.780981 259.294069 
L 378.816093 254.354321 
L 378.8862 256.016892 
L 378.956153 230.592468 
L 379.060796 226.588693 
L 379.095601 274.734187 
L 379.130367 255.759685 
L 379.199786 272.635286 
L 379.40714 237.439728 
L 379.475959 233.124413 
L 379.510313 265.125956 
L 379.57891 248.807125 
L 379.613152 265.82347 
L 379.647358 264.941462 
L 379.681528 266.644645 
L 379.71566 270.384122 
L 379.749757 270.281688 
L 379.817839 235.572156 
L 379.851826 269.532132 
L 379.885777 265.809021 
L 380.021218 239.556732 
L 380.054989 274.432795 
L 380.156086 266.652108 
L 380.290384 232.557322 
L 380.424118 271.204747 
L 380.5905 226.06633 
L 380.722981 276.57132 
L 380.789016 269.258758 
L 381.019064 233.514736 
L 381.051792 272.194332 
L 381.117149 247.797568 
L 381.182371 213.182931 
L 381.214933 234.084719 
L 381.279955 267.869207 
L 381.312417 216.379495 
L 381.377241 227.107446 
L 381.506494 278.236651 
L 381.570925 271.054507 
L 381.603091 278.200408 
L 381.731432 223.31314 
L 381.763437 234.721082 
L 381.795409 276.717595 
L 381.891135 271.737842 
L 382.018322 240.160325 
L 382.081725 239.347775 
L 382.176594 272.642738 
L 382.334084 235.111118 
L 382.365488 247.366441 
L 382.396862 272.040699 
L 382.428205 232.509612 
L 382.490798 262.620526 
L 382.522048 263.419111 
L 382.553268 271.606583 
L 382.584457 236.474445 
L 382.646744 272.398117 
L 382.677842 247.465635 
L 382.739946 263.507296 
L 382.770953 256.07716 
L 382.80193 252.948154 
L 382.832876 262.434798 
L 382.863793 249.297624 
L 382.894679 238.516814 
L 382.925536 266.241419 
L 382.956362 280.077203 
L 382.991007 248.556825 
L 383.02177 275.217616 
L 383.113882 242.866432 
L 383.144527 252.456061 
L 383.175142 265.725693 
L 383.205728 247.292421 
L 383.236285 218.568122 
L 383.29731 256.475802 
L 383.327779 268.382977 
L 383.358218 234.523958 
L 383.449363 245.722175 
L 383.479687 267.187382 
L 383.509982 227.629375 
L 383.570485 258.019699 
L 383.600693 266.732955 
L 383.630873 258.743668 
L 383.721242 272.183023 
L 383.751307 231.571408 
L 383.871288 263.154486 
L 383.901212 263.691281 
L 383.931108 255.580503 
L 383.960977 274.771629 
L 383.990817 259.503912 
L 384.080171 273.766974 
L 384.139601 278.914679 
L 384.19892 222.541195 
L 384.317227 266.523692 
L 384.346736 218.605613 
L 384.435097 254.499787 
L 384.464496 275.532902 
L 384.523214 244.952978 
L 384.552532 238.984734 
L 384.669534 267.264674 
L 384.698718 240.01125 
L 384.786109 243.632733 
L 384.844236 261.290614 
L 384.87326 219.024498 
L 384.931229 224.101702 
L 385.017984 270.682942 
L 385.07569 269.538325 
L 385.104504 245.627876 
L 385.190789 251.490994 
L 385.219499 269.950333 
L 385.276841 255.15135 
L 385.305473 221.887516 
L 385.36266 257.504603 
L 385.391216 268.064897 
L 385.419745 257.458974 
L 385.448249 198.502989 
L 385.505181 269.898796 
L 385.533609 269.966041 
L 385.590388 253.873277 
L 385.61874 216.688021 
L 385.675368 270.768285 
L 385.731895 249.648202 
L 385.788322 266.623998 
L 385.816498 278.708614 
L 385.844649 245.174712 
L 385.872775 261.785531 
L 385.900877 228.537156 
L 385.957005 266.994741 
L 386.068966 239.174427 
L 386.124799 247.032616 
L 386.180534 240.026017 
L 386.263954 277.877356 
L 386.291713 252.515228 
L 386.374843 266.477811 
L 386.402504 266.748293 
L 386.430142 259.396656 
L 386.457756 276.763638 
L 386.485346 277.863095 
L 386.677808 247.008991 
L 386.705207 218.32122 
L 386.763354 243.350139 
L 386.79068 266.44402 
L 386.872518 261.566096 
L 386.926961 246.525829 
L 386.954147 263.822482 
L 387.00845 271.174832 
L 387.035566 259.66377 
L 387.06266 249.104959 
L 387.089731 268.780867 
L 387.116778 260.562615 
L 387.143803 261.585508 
L 387.22474 196.00671 
L 387.197784 261.679373 
L 387.251673 256.85278 
L 387.278583 262.715874 
L 387.305471 251.30357 
L 387.359178 259.361433 
L 387.385998 258.959691 
L 387.412795 224.281202 
L 387.439569 266.497794 
L 387.493051 234.191751 
L 387.573105 265.469162 
L 387.546443 217.378994 
L 387.599745 262.776334 
L 387.706083 237.717674 
L 387.732612 262.002645 
L 387.812067 244.965196 
L 387.838508 245.098505 
L 387.864927 244.685769 
L 387.917699 234.980273 
L 387.970384 274.758241 
L 387.996694 242.466268 
L 388.101716 248.971389 
L 388.154097 265.148528 
L 388.180256 248.739752 
L 388.206393 233.861211 
L 388.258602 266.608586 
L 388.284675 268.494998 
L 388.310726 266.550435 
L 388.388752 234.802677 
L 388.440664 257.207615 
L 388.466588 276.703216 
L 388.518373 245.37832 
L 388.544233 246.095995 
L 388.570073 267.632606 
L 388.62169 236.41197 
L 388.647467 230.918556 
L 388.698958 269.148162 
L 388.750367 241.552816 
L 388.827324 276.700584 
L 388.852935 235.164842 
L 388.929645 246.711199 
L 388.980682 267.501157 
L 389.00617 264.890707 
L 389.082512 240.792731 
L 389.107919 253.596763 
L 389.184017 243.79415 
L 389.209343 277.378718 
L 389.234649 247.388236 
L 389.33567 257.840484 
L 389.360876 236.093251 
L 389.386061 269.943403 
L 389.411227 262.95079 
L 389.461498 271.928158 
L 389.536757 240.906221 
L 389.561804 274.656466 
L 389.611838 212.11595 
L 389.636826 275.550132 
L 389.686743 239.643948 
L 389.811193 279.440678 
L 389.88563 223.659182 
L 389.935159 251.046163 
L 390.058643 232.312159 
L 389.98461 275.700255 
L 390.061724 238.16977 
L 390.11098 261.502064 
L 390.160159 259.819948 
L 390.18472 231.116863 
L 390.209262 273.625233 
L 390.25829 272.571243 
L 390.356119 238.529446 
L 390.404921 245.126422 
L 390.429294 263.130938 
L 390.5266 253.27226 
L 390.55088 255.929187 
L 390.575141 282.699019 
L 390.623609 267.673628 
L 390.647815 229.500268 
L 390.696172 273.861571 
L 390.720323 254.633791 
L 390.744456 255.165997 
L 390.768571 263.163841 
L 390.792667 253.300583 
L 390.816745 216.121886 
L 390.840805 263.371061 
L 390.88887 234.741515 
L 390.960832 276.127562 
L 391.008716 251.469447 
L 391.104269 271.664037 
L 391.128112 253.090923 
L 391.175746 279.909624 
L 391.223308 258.53071 
L 391.247062 278.281158 
L 391.31822 266.13024 
L 391.36557 233.696074 
L 391.389218 279.630956 
L 391.436463 267.037787 
L 391.483637 240.510364 
L 391.507199 270.335713 
L 391.530742 257.832156 
L 391.554268 263.927993 
L 391.577777 234.201048 
L 391.624743 273.26756 
L 391.671639 242.134791 
L 391.718467 279.300355 
L 391.741855 225.681342 
L 391.765226 267.224611 
L 391.788579 243.256161 
L 391.858537 269.39009 
L 391.881823 269.883891 
L 391.905091 241.742553 
L 391.928342 271.188518 
L 391.997994 250.857074 
L 392.090627 280.905409 
L 392.136842 235.501704 
L 392.20604 263.961624 
L 392.252088 273.346142 
L 392.29807 238.559904 
L 392.412735 283.025173 
L 392.549789 234.016202 
L 392.572574 272.774009 
L 392.595343 215.160993 
L 392.663552 259.594399 
L 392.708944 254.79845 
L 392.731615 233.234491 
L 392.799533 270.439208 
L 392.82214 279.747261 
L 392.844731 256.476121 
L 392.889865 266.992261 
L 392.957447 244.206531 
L 392.979942 271.085279 
L 393.002421 249.099131 
L 393.024885 270.331613 
L 393.047333 238.753733 
L 393.094981 254.377398 
L 393.11738 244.357738 
L 393.162129 271.293049 
L 393.18448 273.555189 
L 393.229135 237.936911 
L 393.273728 269.821772 
L 393.318258 285.320548 
L 393.362726 262.346689 
L 393.429312 249.569006 
L 393.451476 282.89185 
L 393.53998 234.615282 
L 393.584139 246.118815 
L 393.650264 280.606607 
L 393.716251 261.55433 
L 393.738217 245.807909 
L 393.782102 276.417304 
L 393.825927 262.37227 
L 393.847817 273.168595 
L 393.891552 250.821469 
L 393.935226 234.53094 
L 393.957041 267.723253 
L 394.022397 285.905048 
L 394.000626 258.557218 
L 394.044152 267.109266 
L 394.065892 225.3328 
L 394.131024 271.781381 
L 394.152706 258.031162 
L 394.217661 278.060524 
L 394.196024 247.127774 
L 394.26089 269.055706 
L 394.325625 232.541696 
L 394.304061 275.074157 
L 394.347174 257.258161 
L 394.368709 280.591938 
L 394.433225 250.506557 
L 394.454701 251.082754 
L 394.561866 284.237044 
L 394.625992 241.41646 
L 394.668671 269.233192 
L 394.689989 275.103836 
L 394.753858 226.707295 
L 394.796366 233.467831 
L 394.923551 284.179286 
L 394.944699 273.598999 
L 394.965833 235.032449 
L 395.029151 282.134271 
L 395.050229 247.344995 
L 395.092343 277.262111 
L 395.176405 267.296668 
L 395.239306 278.847663 
L 395.260245 263.804417 
L 395.302083 243.869306 
L 395.322981 278.473552 
L 395.343866 278.068458 
L 395.364736 276.814347 
L 395.406437 282.179149 
L 395.489674 223.632315 
L 395.51045 273.284018 
L 395.614124 269.2929 
L 395.634818 225.843979 
L 395.655499 272.63342 
L 395.717461 236.136317 
L 395.779303 278.1668 
L 395.864139 271.865345 
L 395.884672 227.95009 
L 395.94619 275.579776 
L 395.966669 269.5234 
L 395.987136 247.661225 
L 396.007589 285.191782 
L 396.048456 277.604152 
L 396.089271 287.578932 
L 396.130033 266.582035 
L 396.150395 267.235041 
L 396.252009 263.011687 
L 396.272292 281.830614 
L 396.333066 282.902458 
L 396.353299 279.559493 
L 396.413918 216.119201 
L 396.393725 282.503975 
L 396.474423 226.601279 
L 396.615154 279.213405 
L 396.635208 245.037086 
L 396.715297 276.311263 
L 396.755266 255.374937 
L 396.795185 257.437507 
L 396.815125 282.803729 
L 396.854969 232.534525 
L 396.874873 238.242575 
L 396.894763 237.408036 
L 397.013848 278.660397 
L 397.033652 271.356463 
L 397.053444 271.097316 
L 397.132489 286.816184 
L 397.092991 262.924652 
L 397.152219 278.56466 
L 397.231019 252.757877 
L 397.270346 260.285771 
L 397.309625 244.811607 
L 397.388037 276.766342 
L 397.505293 233.998838 
L 397.622119 278.706937 
L 397.641549 277.820027 
L 397.660966 285.251149 
L 397.699766 266.162439 
L 397.719148 249.339142 
L 397.796558 277.697994 
L 397.931575 224.057184 
L 398.008472 291.653986 
L 398.066022 286.339759 
L 398.085182 291.271465 
L 398.123468 272.617551 
L 398.142594 289.929918 
L 398.257109 251.090707 
L 398.333223 287.569897 
L 398.295189 244.170794 
L 398.371212 259.07986 
L 398.43048 280.177309 
L 398.409156 242.62777 
L 398.468353 268.628678 
L 398.487273 184.527314 
L 398.487273 184.527314 
" clip-path="url(#p02dc571882)" style="fill: none; stroke: #ff7f0e; stroke-width: 1.5; stroke-linecap: square"/>
   </g>
   <g id="patch_3">
    <path d="M 57.6 307.584 
L 57.6 41.472 
" style="fill: none; stroke: #000000; stroke-width: 0.8; stroke-linejoin: miter; stroke-linecap: square"/>
   </g>
   <g id="patch_4">
    <path d="M 414.72 307.584 
L 414.72 41.472 
" style="fill: none; stroke: #000000; stroke-width: 0.8; stroke-linejoin: miter; stroke-linecap: square"/>
   </g>
   <g id="patch_5">
    <path d="M 57.6 307.584 
L 414.72 307.584 
" style="fill: none; stroke: #000000; stroke-width: 0.8; stroke-linejoin: miter; stroke-linecap: square"/>
   </g>
   <g id="patch_6">
    <path d="M 57.6 41.472 
L 414.72 41.472 
" style="fill: none; stroke: #000000; stroke-width: 0.8; stroke-linejoin: miter; stroke-linecap: square"/>
   </g>
   <g id="text_11">
    <!-- 2025-02-12-19:18:15 -->
    <g transform="translate(172.178438 35.472) scale(0.12 -0.12)">
     <defs>
      <path id="DejaVuSans-35" d="M 691 4666 
L 3169 4666 
L 3169 4134 
L 1269 4134 
L 1269 2991 
Q 1406 3038 1543 3061 
Q 1681 3084 1819 3084 
Q 2600 3084 3056 2656 
Q 3513 2228 3513 1497 
Q 3513 744 3044 326 
Q 2575 -91 1722 -91 
Q 1428 -91 1123 -41 
Q 819 9 494 109 
L 494 744 
Q 775 591 1075 516 
Q 1375 441 1709 441 
Q 2250 441 2565 725 
Q 2881 1009 2881 1497 
Q 2881 1984 2565 2268 
Q 2250 2553 1709 2553 
Q 1456 2553 1204 2497 
Q 953 2441 691 2322 
L 691 4666 
z
" transform="scale(0.015625)"/>
      <path id="DejaVuSans-2d" d="M 313 2009 
L 1997 2009 
L 1997 1497 
L 313 1497 
L 313 2009 
z
" transform="scale(0.015625)"/>
      <path id="DejaVuSans-39" d="M 703 97 
L 703 672 
Q 941 559 1184 500 
Q 1428 441 1663 441 
Q 2288 441 2617 861 
Q 2947 1281 2994 2138 
Q 2813 1869 2534 1725 
Q 2256 1581 1919 1581 
Q 1219 1581 811 2004 
Q 403 2428 403 3163 
Q 403 3881 828 4315 
Q 1253 4750 1959 4750 
Q 2769 4750 3195 4129 
Q 3622 3509 3622 2328 
Q 3622 1225 3098 567 
Q 2575 -91 1691 -91 
Q 1453 -91 1209 -44 
Q 966 3 703 97 
z
M 1959 2075 
Q 2384 2075 2632 2365 
Q 2881 2656 2881 3163 
Q 2881 3666 2632 3958 
Q 2384 4250 1959 4250 
Q 1534 4250 1286 3958 
Q 1038 3666 1038 3163 
Q 1038 2656 1286 2365 
Q 1534 2075 1959 2075 
z
" transform="scale(0.015625)"/>
      <path id="DejaVuSans-3a" d="M 750 794 
L 1409 794 
L 1409 0 
L 750 0 
L 750 794 
z
M 750 3309 
L 1409 3309 
L 1409 2516 
L 750 2516 
L 750 3309 
z
" transform="scale(0.015625)"/>
      <path id="DejaVuSans-38" d="M 2034 2216 
Q 1584 2216 1326 1975 
Q 1069 1734 1069 1313 
Q 1069 891 1326 650 
Q 1584 409 2034 409 
Q 2484 409 2743 651 
Q 3003 894 3003 1313 
Q 3003 1734 2745 1975 
Q 2488 2216 2034 2216 
z
M 1403 2484 
Q 997 2584 770 2862 
Q 544 3141 544 3541 
Q 544 4100 942 4425 
Q 1341 4750 2034 4750 
Q 2731 4750 3128 4425 
Q 3525 4100 3525 3541 
Q 3525 3141 3298 2862 
Q 3072 2584 2669 2484 
Q 3125 2378 3379 2068 
Q 3634 1759 3634 1313 
Q 3634 634 3220 271 
Q 2806 -91 2034 -91 
Q 1263 -91 848 271 
Q 434 634 434 1313 
Q 434 1759 690 2068 
Q 947 2378 1403 2484 
z
M 1172 3481 
Q 1172 3119 1398 2916 
Q 1625 2713 2034 2713 
Q 2441 2713 2670 2916 
Q 2900 3119 2900 3481 
Q 2900 3844 2670 4047 
Q 2441 4250 2034 4250 
Q 1625 4250 1398 4047 
Q 1172 3844 1172 3481 
z
" transform="scale(0.015625)"/>
     </defs>
     <use xlink:href="#DejaVuSans-32"/>
     <use xlink:href="#DejaVuSans-30" x="63.623047"/>
     <use xlink:href="#DejaVuSans-32" x="127.246094"/>
     <use xlink:href="#DejaVuSans-35" x="190.869141"/>
     <use xlink:href="#DejaVuSans-2d" x="254.492188"/>
     <use xlink:href="#DejaVuSans-30" x="290.576172"/>
     <use xlink:href="#DejaVuSans-32" x="354.199219"/>
     <use xlink:href="#DejaVuSans-2d" x="417.822266"/>
     <use xlink:href="#DejaVuSans-31" x="453.90625"/>
     <use xlink:href="#DejaVuSans-32" x="517.529297"/>
     <use xlink:href="#DejaVuSans-2d" x="581.152344"/>
     <use xlink:href="#DejaVuSans-31" x="617.236328"/>
     <use xlink:href="#DejaVuSans-39" x="680.859375"/>
     <use xlink:href="#DejaVuSans-3a" x="744.482422"/>
     <use xlink:href="#DejaVuSans-31" x="778.173828"/>
     <use xlink:href="#DejaVuSans-38" x="841.796875"/>
     <use xlink:href="#DejaVuSans-3a" x="905.419922"/>
     <use xlink:href="#DejaVuSans-31" x="939.111328"/>
     <use xlink:href="#DejaVuSans-35" x="1002.734375"/>
    </g>
   </g>
   <g id="legend_1">
    <g id="patch_7">
     <path d="M 261.018438 78.82825 
L 407.72 78.82825 
Q 409.72 78.82825 409.72 76.82825 
L 409.72 48.472 
Q 409.72 46.472 407.72 46.472 
L 261.018438 46.472 
Q 259.018438 46.472 259.018438 48.472 
L 259.018438 76.82825 
Q 259.018438 78.82825 261.018438 78.82825 
z
" style="fill: #ffffff; opacity: 0.8; stroke: #cccccc; stroke-linejoin: miter"/>
    </g>
    <g id="line2d_74">
     <path d="M 263.018438 54.570437 
L 273.018438 54.570437 
L 283.018438 54.570437 
" style="fill: none; stroke: #1f77b4; stroke-width: 1.5; stroke-linecap: square"/>
    </g>
    <g id="text_12">
     <!-- schnet -->
     <g transform="translate(291.018438 58.070437) scale(0.1 -0.1)">
      <defs>
       <path id="DejaVuSans-63" d="M 3122 3366 
L 3122 2828 
Q 2878 2963 2633 3030 
Q 2388 3097 2138 3097 
Q 1578 3097 1268 2742 
Q 959 2388 959 1747 
Q 959 1106 1268 751 
Q 1578 397 2138 397 
Q 2388 397 2633 464 
Q 2878 531 3122 666 
L 3122 134 
Q 2881 22 2623 -34 
Q 2366 -91 2075 -91 
Q 1284 -91 818 406 
Q 353 903 353 1747 
Q 353 2603 823 3093 
Q 1294 3584 2113 3584 
Q 2378 3584 2631 3529 
Q 2884 3475 3122 3366 
z
" transform="scale(0.015625)"/>
       <path id="DejaVuSans-68" d="M 3513 2113 
L 3513 0 
L 2938 0 
L 2938 2094 
Q 2938 2591 2744 2837 
Q 2550 3084 2163 3084 
Q 1697 3084 1428 2787 
Q 1159 2491 1159 1978 
L 1159 0 
L 581 0 
L 581 4863 
L 1159 4863 
L 1159 2956 
Q 1366 3272 1645 3428 
Q 1925 3584 2291 3584 
Q 2894 3584 3203 3211 
Q 3513 2838 3513 2113 
z
" transform="scale(0.015625)"/>
       <path id="DejaVuSans-6e" d="M 3513 2113 
L 3513 0 
L 2938 0 
L 2938 2094 
Q 2938 2591 2744 2837 
Q 2550 3084 2163 3084 
Q 1697 3084 1428 2787 
Q 1159 2491 1159 1978 
L 1159 0 
L 581 0 
L 581 3500 
L 1159 3500 
L 1159 2956 
Q 1366 3272 1645 3428 
Q 1925 3584 2291 3584 
Q 2894 3584 3203 3211 
Q 3513 2838 3513 2113 
z
" transform="scale(0.015625)"/>
      </defs>
      <use xlink:href="#DejaVuSans-73"/>
      <use xlink:href="#DejaVuSans-63" x="52.099609"/>
      <use xlink:href="#DejaVuSans-68" x="107.080078"/>
      <use xlink:href="#DejaVuSans-6e" x="170.458984"/>
      <use xlink:href="#DejaVuSans-65" x="233.837891"/>
      <use xlink:href="#DejaVuSans-74" x="295.361328"/>
     </g>
    </g>
    <g id="line2d_75">
     <path d="M 263.018438 69.248562 
L 273.018438 69.248562 
L 283.018438 69.248562 
" style="fill: none; stroke: #ff7f0e; stroke-width: 1.5; stroke-linecap: square"/>
    </g>
    <g id="text_13">
     <!-- drgin(without softmax) -->
     <g transform="translate(291.018438 72.748562) scale(0.1 -0.1)">
      <defs>
       <path id="DejaVuSans-64" d="M 2906 2969 
L 2906 4863 
L 3481 4863 
L 3481 0 
L 2906 0 
L 2906 525 
Q 2725 213 2448 61 
Q 2172 -91 1784 -91 
Q 1150 -91 751 415 
Q 353 922 353 1747 
Q 353 2572 751 3078 
Q 1150 3584 1784 3584 
Q 2172 3584 2448 3432 
Q 2725 3281 2906 2969 
z
M 947 1747 
Q 947 1113 1208 752 
Q 1469 391 1925 391 
Q 2381 391 2643 752 
Q 2906 1113 2906 1747 
Q 2906 2381 2643 2742 
Q 2381 3103 1925 3103 
Q 1469 3103 1208 2742 
Q 947 2381 947 1747 
z
" transform="scale(0.015625)"/>
       <path id="DejaVuSans-67" d="M 2906 1791 
Q 2906 2416 2648 2759 
Q 2391 3103 1925 3103 
Q 1463 3103 1205 2759 
Q 947 2416 947 1791 
Q 947 1169 1205 825 
Q 1463 481 1925 481 
Q 2391 481 2648 825 
Q 2906 1169 2906 1791 
z
M 3481 434 
Q 3481 -459 3084 -895 
Q 2688 -1331 1869 -1331 
Q 1566 -1331 1297 -1286 
Q 1028 -1241 775 -1147 
L 775 -588 
Q 1028 -725 1275 -790 
Q 1522 -856 1778 -856 
Q 2344 -856 2625 -561 
Q 2906 -266 2906 331 
L 2906 616 
Q 2728 306 2450 153 
Q 2172 0 1784 0 
Q 1141 0 747 490 
Q 353 981 353 1791 
Q 353 2603 747 3093 
Q 1141 3584 1784 3584 
Q 2172 3584 2450 3431 
Q 2728 3278 2906 2969 
L 2906 3500 
L 3481 3500 
L 3481 434 
z
" transform="scale(0.015625)"/>
       <path id="DejaVuSans-28" d="M 1984 4856 
Q 1566 4138 1362 3434 
Q 1159 2731 1159 2009 
Q 1159 1288 1364 580 
Q 1569 -128 1984 -844 
L 1484 -844 
Q 1016 -109 783 600 
Q 550 1309 550 2009 
Q 550 2706 781 3412 
Q 1013 4119 1484 4856 
L 1984 4856 
z
" transform="scale(0.015625)"/>
       <path id="DejaVuSans-77" d="M 269 3500 
L 844 3500 
L 1563 769 
L 2278 3500 
L 2956 3500 
L 3675 769 
L 4391 3500 
L 4966 3500 
L 4050 0 
L 3372 0 
L 2619 2869 
L 1863 0 
L 1184 0 
L 269 3500 
z
" transform="scale(0.015625)"/>
       <path id="DejaVuSans-75" d="M 544 1381 
L 544 3500 
L 1119 3500 
L 1119 1403 
Q 1119 906 1312 657 
Q 1506 409 1894 409 
Q 2359 409 2629 706 
Q 2900 1003 2900 1516 
L 2900 3500 
L 3475 3500 
L 3475 0 
L 2900 0 
L 2900 538 
Q 2691 219 2414 64 
Q 2138 -91 1772 -91 
Q 1169 -91 856 284 
Q 544 659 544 1381 
z
M 1991 3584 
L 1991 3584 
z
" transform="scale(0.015625)"/>
       <path id="DejaVuSans-66" d="M 2375 4863 
L 2375 4384 
L 1825 4384 
Q 1516 4384 1395 4259 
Q 1275 4134 1275 3809 
L 1275 3500 
L 2222 3500 
L 2222 3053 
L 1275 3053 
L 1275 0 
L 697 0 
L 697 3053 
L 147 3053 
L 147 3500 
L 697 3500 
L 697 3744 
Q 697 4328 969 4595 
Q 1241 4863 1831 4863 
L 2375 4863 
z
" transform="scale(0.015625)"/>
       <path id="DejaVuSans-6d" d="M 3328 2828 
Q 3544 3216 3844 3400 
Q 4144 3584 4550 3584 
Q 5097 3584 5394 3201 
Q 5691 2819 5691 2113 
L 5691 0 
L 5113 0 
L 5113 2094 
Q 5113 2597 4934 2840 
Q 4756 3084 4391 3084 
Q 3944 3084 3684 2787 
Q 3425 2491 3425 1978 
L 3425 0 
L 2847 0 
L 2847 2094 
Q 2847 2600 2669 2842 
Q 2491 3084 2119 3084 
Q 1678 3084 1418 2786 
Q 1159 2488 1159 1978 
L 1159 0 
L 581 0 
L 581 3500 
L 1159 3500 
L 1159 2956 
Q 1356 3278 1631 3431 
Q 1906 3584 2284 3584 
Q 2666 3584 2933 3390 
Q 3200 3197 3328 2828 
z
" transform="scale(0.015625)"/>
       <path id="DejaVuSans-61" d="M 2194 1759 
Q 1497 1759 1228 1600 
Q 959 1441 959 1056 
Q 959 750 1161 570 
Q 1363 391 1709 391 
Q 2188 391 2477 730 
Q 2766 1069 2766 1631 
L 2766 1759 
L 2194 1759 
z
M 3341 1997 
L 3341 0 
L 2766 0 
L 2766 531 
Q 2569 213 2275 61 
Q 1981 -91 1556 -91 
Q 1019 -91 701 211 
Q 384 513 384 1019 
Q 384 1609 779 1909 
Q 1175 2209 1959 2209 
L 2766 2209 
L 2766 2266 
Q 2766 2663 2505 2880 
Q 2244 3097 1772 3097 
Q 1472 3097 1187 3025 
Q 903 2953 641 2809 
L 641 3341 
Q 956 3463 1253 3523 
Q 1550 3584 1831 3584 
Q 2591 3584 2966 3190 
Q 3341 2797 3341 1997 
z
" transform="scale(0.015625)"/>
       <path id="DejaVuSans-78" d="M 3513 3500 
L 2247 1797 
L 3578 0 
L 2900 0 
L 1881 1375 
L 863 0 
L 184 0 
L 1544 1831 
L 300 3500 
L 978 3500 
L 1906 2253 
L 2834 3500 
L 3513 3500 
z
" transform="scale(0.015625)"/>
       <path id="DejaVuSans-29" d="M 513 4856 
L 1013 4856 
Q 1481 4119 1714 3412 
Q 1947 2706 1947 2009 
Q 1947 1309 1714 600 
Q 1481 -109 1013 -844 
L 513 -844 
Q 928 -128 1133 580 
Q 1338 1288 1338 2009 
Q 1338 2731 1133 3434 
Q 928 4138 513 4856 
z
" transform="scale(0.015625)"/>
      </defs>
      <use xlink:href="#DejaVuSans-64"/>
      <use xlink:href="#DejaVuSans-72" x="63.476562"/>
      <use xlink:href="#DejaVuSans-67" x="102.839844"/>
      <use xlink:href="#DejaVuSans-69" x="166.316406"/>
      <use xlink:href="#DejaVuSans-6e" x="194.099609"/>
      <use xlink:href="#DejaVuSans-28" x="257.478516"/>
      <use xlink:href="#DejaVuSans-77" x="296.492188"/>
      <use xlink:href="#DejaVuSans-69" x="378.279297"/>
      <use xlink:href="#DejaVuSans-74" x="406.0625"/>
      <use xlink:href="#DejaVuSans-68" x="445.271484"/>
      <use xlink:href="#DejaVuSans-6f" x="508.650391"/>
      <use xlink:href="#DejaVuSans-75" x="569.832031"/>
      <use xlink:href="#DejaVuSans-74" x="633.210938"/>
      <use xlink:href="#DejaVuSans-20" x="672.419922"/>
      <use xlink:href="#DejaVuSans-73" x="704.207031"/>
      <use xlink:href="#DejaVuSans-6f" x="756.306641"/>
      <use xlink:href="#DejaVuSans-66" x="817.488281"/>
      <use xlink:href="#DejaVuSans-74" x="850.943359"/>
      <use xlink:href="#DejaVuSans-6d" x="890.152344"/>
      <use xlink:href="#DejaVuSans-61" x="987.564453"/>
      <use xlink:href="#DejaVuSans-78" x="1048.84375"/>
      <use xlink:href="#DejaVuSans-29" x="1108.023438"/>
     </g>
    </g>
   </g>
  </g>
 </g>
 <defs>
  <clipPath id="p02dc571882">
   <rect x="57.6" y="41.472" width="357.12" height="266.112"/>
  </clipPath>
 </defs>
</svg>
