<?xml version="1.0" encoding="utf-8" standalone="no"?>
<!DOCTYPE svg PUBLIC "-//W3C//DTD SVG 1.1//EN"
  "http://www.w3.org/Graphics/SVG/1.1/DTD/svg11.dtd">
<svg xmlns:xlink="http://www.w3.org/1999/xlink" width="460.8pt" height="345.6pt" viewBox="0 0 460.8 345.6" xmlns="http://www.w3.org/2000/svg" version="1.1">
 <metadata>
  <rdf:RDF xmlns:dc="http://purl.org/dc/elements/1.1/" xmlns:cc="http://creativecommons.org/ns#" xmlns:rdf="http://www.w3.org/1999/02/22-rdf-syntax-ns#">
   <cc:Work>
    <dc:type rdf:resource="http://purl.org/dc/dcmitype/StillImage"/>
    <dc:date>2025-02-18T14:23:01.075867</dc:date>
    <dc:format>image/svg+xml</dc:format>
    <dc:creator>
     <cc:Agent>
      <dc:title>Matplotlib v3.8.4, https://matplotlib.org/</dc:title>
     </cc:Agent>
    </dc:creator>
   </cc:Work>
  </rdf:RDF>
 </metadata>
 <defs>
  <style type="text/css">*{stroke-linejoin: round; stroke-linecap: butt}</style>
 </defs>
 <g id="figure_1">
  <g id="patch_1">
   <path d="M 0 345.6 
L 460.8 345.6 
L 460.8 0 
L 0 0 
z
" style="fill: #ffffff"/>
  </g>
  <g id="axes_1">
   <g id="patch_2">
    <path d="M 57.6 307.584 
L 414.72 307.584 
L 414.72 41.472 
L 57.6 41.472 
z
" style="fill: #ffffff"/>
   </g>
   <g id="matplotlib.axis_1">
    <g id="xtick_1">
     <g id="line2d_1">
      <defs>
       <path id="m85f5386b35" d="M 0 0 
L 0 3.5 
" style="stroke: #000000; stroke-width: 0.8"/>
      </defs>
      <g>
       <use xlink:href="#m85f5386b35" x="57.6" y="307.584" style="stroke: #000000; stroke-width: 0.8"/>
      </g>
     </g>
     <g id="text_1">
      <!-- 0 -->
      <g transform="translate(54.41875 322.182437) scale(0.1 -0.1)">
       <defs>
        <path id="DejaVuSans-30" d="M 2034 4250 
Q 1547 4250 1301 3770 
Q 1056 3291 1056 2328 
Q 1056 1369 1301 889 
Q 1547 409 2034 409 
Q 2525 409 2770 889 
Q 3016 1369 3016 2328 
Q 3016 3291 2770 3770 
Q 2525 4250 2034 4250 
z
M 2034 4750 
Q 2819 4750 3233 4129 
Q 3647 3509 3647 2328 
Q 3647 1150 3233 529 
Q 2819 -91 2034 -91 
Q 1250 -91 836 529 
Q 422 1150 422 2328 
Q 422 3509 836 4129 
Q 1250 4750 2034 4750 
z
" transform="scale(0.015625)"/>
       </defs>
       <use xlink:href="#DejaVuSans-30"/>
      </g>
     </g>
    </g>
    <g id="xtick_2">
     <g id="line2d_2">
      <g>
       <use xlink:href="#m85f5386b35" x="102.24" y="307.584" style="stroke: #000000; stroke-width: 0.8"/>
      </g>
     </g>
     <g id="text_2">
      <!-- 2500 -->
      <g transform="translate(89.515 322.182437) scale(0.1 -0.1)">
       <defs>
        <path id="DejaVuSans-32" d="M 1228 531 
L 3431 531 
L 3431 0 
L 469 0 
L 469 531 
Q 828 903 1448 1529 
Q 2069 2156 2228 2338 
Q 2531 2678 2651 2914 
Q 2772 3150 2772 3378 
Q 2772 3750 2511 3984 
Q 2250 4219 1831 4219 
Q 1534 4219 1204 4116 
Q 875 4013 500 3803 
L 500 4441 
Q 881 4594 1212 4672 
Q 1544 4750 1819 4750 
Q 2544 4750 2975 4387 
Q 3406 4025 3406 3419 
Q 3406 3131 3298 2873 
Q 3191 2616 2906 2266 
Q 2828 2175 2409 1742 
Q 1991 1309 1228 531 
z
" transform="scale(0.015625)"/>
        <path id="DejaVuSans-35" d="M 691 4666 
L 3169 4666 
L 3169 4134 
L 1269 4134 
L 1269 2991 
Q 1406 3038 1543 3061 
Q 1681 3084 1819 3084 
Q 2600 3084 3056 2656 
Q 3513 2228 3513 1497 
Q 3513 744 3044 326 
Q 2575 -91 1722 -91 
Q 1428 -91 1123 -41 
Q 819 9 494 109 
L 494 744 
Q 775 591 1075 516 
Q 1375 441 1709 441 
Q 2250 441 2565 725 
Q 2881 1009 2881 1497 
Q 2881 1984 2565 2268 
Q 2250 2553 1709 2553 
Q 1456 2553 1204 2497 
Q 953 2441 691 2322 
L 691 4666 
z
" transform="scale(0.015625)"/>
       </defs>
       <use xlink:href="#DejaVuSans-32"/>
       <use xlink:href="#DejaVuSans-35" x="63.623047"/>
       <use xlink:href="#DejaVuSans-30" x="127.246094"/>
       <use xlink:href="#DejaVuSans-30" x="190.869141"/>
      </g>
     </g>
    </g>
    <g id="xtick_3">
     <g id="line2d_3">
      <g>
       <use xlink:href="#m85f5386b35" x="146.88" y="307.584" style="stroke: #000000; stroke-width: 0.8"/>
      </g>
     </g>
     <g id="text_3">
      <!-- 5000 -->
      <g transform="translate(134.155 322.182437) scale(0.1 -0.1)">
       <use xlink:href="#DejaVuSans-35"/>
       <use xlink:href="#DejaVuSans-30" x="63.623047"/>
       <use xlink:href="#DejaVuSans-30" x="127.246094"/>
       <use xlink:href="#DejaVuSans-30" x="190.869141"/>
      </g>
     </g>
    </g>
    <g id="xtick_4">
     <g id="line2d_4">
      <g>
       <use xlink:href="#m85f5386b35" x="191.52" y="307.584" style="stroke: #000000; stroke-width: 0.8"/>
      </g>
     </g>
     <g id="text_4">
      <!-- 7500 -->
      <g transform="translate(178.795 322.182437) scale(0.1 -0.1)">
       <defs>
        <path id="DejaVuSans-37" d="M 525 4666 
L 3525 4666 
L 3525 4397 
L 1831 0 
L 1172 0 
L 2766 4134 
L 525 4134 
L 525 4666 
z
" transform="scale(0.015625)"/>
       </defs>
       <use xlink:href="#DejaVuSans-37"/>
       <use xlink:href="#DejaVuSans-35" x="63.623047"/>
       <use xlink:href="#DejaVuSans-30" x="127.246094"/>
       <use xlink:href="#DejaVuSans-30" x="190.869141"/>
      </g>
     </g>
    </g>
    <g id="xtick_5">
     <g id="line2d_5">
      <g>
       <use xlink:href="#m85f5386b35" x="236.16" y="307.584" style="stroke: #000000; stroke-width: 0.8"/>
      </g>
     </g>
     <g id="text_5">
      <!-- 10000 -->
      <g transform="translate(220.25375 322.182437) scale(0.1 -0.1)">
       <defs>
        <path id="DejaVuSans-31" d="M 794 531 
L 1825 531 
L 1825 4091 
L 703 3866 
L 703 4441 
L 1819 4666 
L 2450 4666 
L 2450 531 
L 3481 531 
L 3481 0 
L 794 0 
L 794 531 
z
" transform="scale(0.015625)"/>
       </defs>
       <use xlink:href="#DejaVuSans-31"/>
       <use xlink:href="#DejaVuSans-30" x="63.623047"/>
       <use xlink:href="#DejaVuSans-30" x="127.246094"/>
       <use xlink:href="#DejaVuSans-30" x="190.869141"/>
       <use xlink:href="#DejaVuSans-30" x="254.492188"/>
      </g>
     </g>
    </g>
    <g id="xtick_6">
     <g id="line2d_6">
      <g>
       <use xlink:href="#m85f5386b35" x="280.8" y="307.584" style="stroke: #000000; stroke-width: 0.8"/>
      </g>
     </g>
     <g id="text_6">
      <!-- 12500 -->
      <g transform="translate(264.89375 322.182437) scale(0.1 -0.1)">
       <use xlink:href="#DejaVuSans-31"/>
       <use xlink:href="#DejaVuSans-32" x="63.623047"/>
       <use xlink:href="#DejaVuSans-35" x="127.246094"/>
       <use xlink:href="#DejaVuSans-30" x="190.869141"/>
       <use xlink:href="#DejaVuSans-30" x="254.492188"/>
      </g>
     </g>
    </g>
    <g id="xtick_7">
     <g id="line2d_7">
      <g>
       <use xlink:href="#m85f5386b35" x="325.44" y="307.584" style="stroke: #000000; stroke-width: 0.8"/>
      </g>
     </g>
     <g id="text_7">
      <!-- 15000 -->
      <g transform="translate(309.53375 322.182437) scale(0.1 -0.1)">
       <use xlink:href="#DejaVuSans-31"/>
       <use xlink:href="#DejaVuSans-35" x="63.623047"/>
       <use xlink:href="#DejaVuSans-30" x="127.246094"/>
       <use xlink:href="#DejaVuSans-30" x="190.869141"/>
       <use xlink:href="#DejaVuSans-30" x="254.492188"/>
      </g>
     </g>
    </g>
    <g id="xtick_8">
     <g id="line2d_8">
      <g>
       <use xlink:href="#m85f5386b35" x="370.08" y="307.584" style="stroke: #000000; stroke-width: 0.8"/>
      </g>
     </g>
     <g id="text_8">
      <!-- 17500 -->
      <g transform="translate(354.17375 322.182437) scale(0.1 -0.1)">
       <use xlink:href="#DejaVuSans-31"/>
       <use xlink:href="#DejaVuSans-37" x="63.623047"/>
       <use xlink:href="#DejaVuSans-35" x="127.246094"/>
       <use xlink:href="#DejaVuSans-30" x="190.869141"/>
       <use xlink:href="#DejaVuSans-30" x="254.492188"/>
      </g>
     </g>
    </g>
    <g id="xtick_9">
     <g id="line2d_9">
      <g>
       <use xlink:href="#m85f5386b35" x="414.72" y="307.584" style="stroke: #000000; stroke-width: 0.8"/>
      </g>
     </g>
     <g id="text_9">
      <!-- 20000 -->
      <g transform="translate(398.81375 322.182437) scale(0.1 -0.1)">
       <use xlink:href="#DejaVuSans-32"/>
       <use xlink:href="#DejaVuSans-30" x="63.623047"/>
       <use xlink:href="#DejaVuSans-30" x="127.246094"/>
       <use xlink:href="#DejaVuSans-30" x="190.869141"/>
       <use xlink:href="#DejaVuSans-30" x="254.492188"/>
      </g>
     </g>
    </g>
    <g id="text_10">
     <!-- iter# -->
     <g transform="translate(223.488906 335.860562) scale(0.1 -0.1)">
      <defs>
       <path id="DejaVuSans-69" d="M 603 3500 
L 1178 3500 
L 1178 0 
L 603 0 
L 603 3500 
z
M 603 4863 
L 1178 4863 
L 1178 4134 
L 603 4134 
L 603 4863 
z
" transform="scale(0.015625)"/>
       <path id="DejaVuSans-74" d="M 1172 4494 
L 1172 3500 
L 2356 3500 
L 2356 3053 
L 1172 3053 
L 1172 1153 
Q 1172 725 1289 603 
Q 1406 481 1766 481 
L 2356 481 
L 2356 0 
L 1766 0 
Q 1100 0 847 248 
Q 594 497 594 1153 
L 594 3053 
L 172 3053 
L 172 3500 
L 594 3500 
L 594 4494 
L 1172 4494 
z
" transform="scale(0.015625)"/>
       <path id="DejaVuSans-65" d="M 3597 1894 
L 3597 1613 
L 953 1613 
Q 991 1019 1311 708 
Q 1631 397 2203 397 
Q 2534 397 2845 478 
Q 3156 559 3463 722 
L 3463 178 
Q 3153 47 2828 -22 
Q 2503 -91 2169 -91 
Q 1331 -91 842 396 
Q 353 884 353 1716 
Q 353 2575 817 3079 
Q 1281 3584 2069 3584 
Q 2775 3584 3186 3129 
Q 3597 2675 3597 1894 
z
M 3022 2063 
Q 3016 2534 2758 2815 
Q 2500 3097 2075 3097 
Q 1594 3097 1305 2825 
Q 1016 2553 972 2059 
L 3022 2063 
z
" transform="scale(0.015625)"/>
       <path id="DejaVuSans-72" d="M 2631 2963 
Q 2534 3019 2420 3045 
Q 2306 3072 2169 3072 
Q 1681 3072 1420 2755 
Q 1159 2438 1159 1844 
L 1159 0 
L 581 0 
L 581 3500 
L 1159 3500 
L 1159 2956 
Q 1341 3275 1631 3429 
Q 1922 3584 2338 3584 
Q 2397 3584 2469 3576 
Q 2541 3569 2628 3553 
L 2631 2963 
z
" transform="scale(0.015625)"/>
       <path id="DejaVuSans-23" d="M 3272 2816 
L 2363 2816 
L 2100 1772 
L 3016 1772 
L 3272 2816 
z
M 2803 4594 
L 2478 3297 
L 3391 3297 
L 3719 4594 
L 4219 4594 
L 3897 3297 
L 4872 3297 
L 4872 2816 
L 3775 2816 
L 3519 1772 
L 4513 1772 
L 4513 1294 
L 3397 1294 
L 3072 0 
L 2572 0 
L 2894 1294 
L 1978 1294 
L 1656 0 
L 1153 0 
L 1478 1294 
L 494 1294 
L 494 1772 
L 1594 1772 
L 1856 2816 
L 850 2816 
L 850 3297 
L 1978 3297 
L 2297 4594 
L 2803 4594 
z
" transform="scale(0.015625)"/>
      </defs>
      <use xlink:href="#DejaVuSans-69"/>
      <use xlink:href="#DejaVuSans-74" x="27.783203"/>
      <use xlink:href="#DejaVuSans-65" x="66.992188"/>
      <use xlink:href="#DejaVuSans-72" x="128.515625"/>
      <use xlink:href="#DejaVuSans-23" x="169.628906"/>
     </g>
    </g>
   </g>
   <g id="matplotlib.axis_2">
    <g id="ytick_1">
     <g id="line2d_10">
      <defs>
       <path id="m3443257490" d="M 0 0 
L -3.5 0 
" style="stroke: #000000; stroke-width: 0.8"/>
      </defs>
      <g>
       <use xlink:href="#m3443257490" x="57.6" y="245.254111" style="stroke: #000000; stroke-width: 0.8"/>
      </g>
     </g>
     <g id="text_11">
      <!-- $\mathdefault{10^{-2}}$ -->
      <g transform="translate(27.1 249.05333) scale(0.1 -0.1)">
       <defs>
        <path id="DejaVuSans-2212" d="M 678 2272 
L 4684 2272 
L 4684 1741 
L 678 1741 
L 678 2272 
z
" transform="scale(0.015625)"/>
       </defs>
       <use xlink:href="#DejaVuSans-31" transform="translate(0 0.765625)"/>
       <use xlink:href="#DejaVuSans-30" transform="translate(63.623047 0.765625)"/>
       <use xlink:href="#DejaVuSans-2212" transform="translate(128.203125 39.046875) scale(0.7)"/>
       <use xlink:href="#DejaVuSans-32" transform="translate(186.855469 39.046875) scale(0.7)"/>
      </g>
     </g>
    </g>
    <g id="ytick_2">
     <g id="line2d_11">
      <g>
       <use xlink:href="#m3443257490" x="57.6" y="88.622741" style="stroke: #000000; stroke-width: 0.8"/>
      </g>
     </g>
     <g id="text_12">
      <!-- $\mathdefault{10^{-1}}$ -->
      <g transform="translate(27.1 92.421959) scale(0.1 -0.1)">
       <use xlink:href="#DejaVuSans-31" transform="translate(0 0.684375)"/>
       <use xlink:href="#DejaVuSans-30" transform="translate(63.623047 0.684375)"/>
       <use xlink:href="#DejaVuSans-2212" transform="translate(128.203125 38.965625) scale(0.7)"/>
       <use xlink:href="#DejaVuSans-31" transform="translate(186.855469 38.965625) scale(0.7)"/>
      </g>
     </g>
    </g>
    <g id="ytick_3">
     <g id="line2d_12">
      <defs>
       <path id="m254dda52f3" d="M 0 0 
L -2 0 
" style="stroke: #000000; stroke-width: 0.6"/>
      </defs>
      <g>
       <use xlink:href="#m254dda52f3" x="57.6" y="307.584" style="stroke: #000000; stroke-width: 0.6"/>
      </g>
     </g>
    </g>
    <g id="ytick_4">
     <g id="line2d_13">
      <g>
       <use xlink:href="#m254dda52f3" x="57.6" y="292.404852" style="stroke: #000000; stroke-width: 0.6"/>
      </g>
     </g>
    </g>
    <g id="ytick_5">
     <g id="line2d_14">
      <g>
       <use xlink:href="#m254dda52f3" x="57.6" y="280.002585" style="stroke: #000000; stroke-width: 0.6"/>
      </g>
     </g>
    </g>
    <g id="ytick_6">
     <g id="line2d_15">
      <g>
       <use xlink:href="#m254dda52f3" x="57.6" y="269.516617" style="stroke: #000000; stroke-width: 0.6"/>
      </g>
     </g>
    </g>
    <g id="ytick_7">
     <g id="line2d_16">
      <g>
       <use xlink:href="#m254dda52f3" x="57.6" y="260.433259" style="stroke: #000000; stroke-width: 0.6"/>
      </g>
     </g>
    </g>
    <g id="ytick_8">
     <g id="line2d_17">
      <g>
       <use xlink:href="#m254dda52f3" x="57.6" y="252.42117" style="stroke: #000000; stroke-width: 0.6"/>
      </g>
     </g>
    </g>
    <g id="ytick_9">
     <g id="line2d_18">
      <g>
       <use xlink:href="#m254dda52f3" x="57.6" y="198.10337" style="stroke: #000000; stroke-width: 0.6"/>
      </g>
     </g>
    </g>
    <g id="ytick_10">
     <g id="line2d_19">
      <g>
       <use xlink:href="#m254dda52f3" x="57.6" y="170.521955" style="stroke: #000000; stroke-width: 0.6"/>
      </g>
     </g>
    </g>
    <g id="ytick_11">
     <g id="line2d_20">
      <g>
       <use xlink:href="#m254dda52f3" x="57.6" y="150.95263" style="stroke: #000000; stroke-width: 0.6"/>
      </g>
     </g>
    </g>
    <g id="ytick_12">
     <g id="line2d_21">
      <g>
       <use xlink:href="#m254dda52f3" x="57.6" y="135.773481" style="stroke: #000000; stroke-width: 0.6"/>
      </g>
     </g>
    </g>
    <g id="ytick_13">
     <g id="line2d_22">
      <g>
       <use xlink:href="#m254dda52f3" x="57.6" y="123.371214" style="stroke: #000000; stroke-width: 0.6"/>
      </g>
     </g>
    </g>
    <g id="ytick_14">
     <g id="line2d_23">
      <g>
       <use xlink:href="#m254dda52f3" x="57.6" y="112.885247" style="stroke: #000000; stroke-width: 0.6"/>
      </g>
     </g>
    </g>
    <g id="ytick_15">
     <g id="line2d_24">
      <g>
       <use xlink:href="#m254dda52f3" x="57.6" y="103.801889" style="stroke: #000000; stroke-width: 0.6"/>
      </g>
     </g>
    </g>
    <g id="ytick_16">
     <g id="line2d_25">
      <g>
       <use xlink:href="#m254dda52f3" x="57.6" y="95.789799" style="stroke: #000000; stroke-width: 0.6"/>
      </g>
     </g>
    </g>
    <g id="ytick_17">
     <g id="line2d_26">
      <g>
       <use xlink:href="#m254dda52f3" x="57.6" y="41.472" style="stroke: #000000; stroke-width: 0.6"/>
      </g>
     </g>
    </g>
    <g id="text_13">
     <!-- loss -->
     <g transform="translate(21.020313 184.185812) rotate(-90) scale(0.1 -0.1)">
      <defs>
       <path id="DejaVuSans-6c" d="M 603 4863 
L 1178 4863 
L 1178 0 
L 603 0 
L 603 4863 
z
" transform="scale(0.015625)"/>
       <path id="DejaVuSans-6f" d="M 1959 3097 
Q 1497 3097 1228 2736 
Q 959 2375 959 1747 
Q 959 1119 1226 758 
Q 1494 397 1959 397 
Q 2419 397 2687 759 
Q 2956 1122 2956 1747 
Q 2956 2369 2687 2733 
Q 2419 3097 1959 3097 
z
M 1959 3584 
Q 2709 3584 3137 3096 
Q 3566 2609 3566 1747 
Q 3566 888 3137 398 
Q 2709 -91 1959 -91 
Q 1206 -91 779 398 
Q 353 888 353 1747 
Q 353 2609 779 3096 
Q 1206 3584 1959 3584 
z
" transform="scale(0.015625)"/>
       <path id="DejaVuSans-73" d="M 2834 3397 
L 2834 2853 
Q 2591 2978 2328 3040 
Q 2066 3103 1784 3103 
Q 1356 3103 1142 2972 
Q 928 2841 928 2578 
Q 928 2378 1081 2264 
Q 1234 2150 1697 2047 
L 1894 2003 
Q 2506 1872 2764 1633 
Q 3022 1394 3022 966 
Q 3022 478 2636 193 
Q 2250 -91 1575 -91 
Q 1294 -91 989 -36 
Q 684 19 347 128 
L 347 722 
Q 666 556 975 473 
Q 1284 391 1588 391 
Q 1994 391 2212 530 
Q 2431 669 2431 922 
Q 2431 1156 2273 1281 
Q 2116 1406 1581 1522 
L 1381 1569 
Q 847 1681 609 1914 
Q 372 2147 372 2553 
Q 372 3047 722 3315 
Q 1072 3584 1716 3584 
Q 2034 3584 2315 3537 
Q 2597 3491 2834 3397 
z
" transform="scale(0.015625)"/>
      </defs>
      <use xlink:href="#DejaVuSans-6c"/>
      <use xlink:href="#DejaVuSans-6f" x="27.783203"/>
      <use xlink:href="#DejaVuSans-73" x="88.964844"/>
      <use xlink:href="#DejaVuSans-73" x="141.064453"/>
     </g>
    </g>
   </g>
   <g id="line2d_27">
    <path d="M 78.568583 -1 
L 79.330752 3.459086 
L 80.473536 9.261892 
L 82.759104 22.297941 
L 83.901888 27.175904 
L 85.044672 32.882001 
L 86.187456 36.692701 
L 87.33024 42.555204 
L 88.473024 44.970234 
L 89.615808 49.065208 
L 90.758592 53.894515 
L 91.901376 56.828639 
L 93.04416 60.848866 
L 94.186944 64.436502 
L 94.490496 69.373906 
L 97.918848 85.189 
L 101.3472 99.866188 
L 104.775552 113.105075 
L 108.203904 125.145179 
L 110.489472 132.393229 
L 112.77504 138.988641 
L 115.060608 144.95195 
L 117.346176 150.273654 
L 119.631744 155.028071 
L 120.774528 157.211881 
L 124.20288 162.987232 
L 125.345664 164.740578 
L 128.774016 168.860082 
L 131.059584 171.251981 
L 131.363136 172.348167 
L 133.648704 173.807348 
L 134.791488 172.843465 
L 135.934272 173.21046 
L 137.077056 173.960413 
L 138.21984 173.945705 
L 139.362624 174.363302 
L 140.505408 174.909264 
L 141.648192 175.662983 
L 142.790976 176.622494 
L 143.93376 176.786516 
L 145.076544 177.59985 
L 146.219328 178.569616 
L 148.504896 179.88687 
L 149.64768 180.091772 
L 150.790464 180.704041 
L 151.933248 180.248708 
L 154.218816 181.507402 
L 155.3616 181.895916 
L 156.504384 182.58479 
L 157.647168 182.815975 
L 158.789952 183.265638 
L 159.932736 182.945186 
L 161.07552 182.285191 
L 162.218304 182.453078 
L 163.361088 183.55335 
L 164.503872 184.227024 
L 165.646656 183.306648 
L 166.78944 183.463241 
L 167.932224 176.978398 
L 168.235776 174.277854 
L 169.37856 175.250053 
L 170.521344 174.494906 
L 171.664128 176.110485 
L 172.806912 173.865017 
L 173.949696 174.021523 
L 175.09248 174.003165 
L 176.235264 174.623014 
L 178.520832 177.634053 
L 179.663616 178.054132 
L 180.8064 179.46754 
L 181.949184 179.684981 
L 183.091968 181.485896 
L 184.234752 182.577496 
L 185.377536 182.406459 
L 186.52032 183.672879 
L 187.663104 185.431018 
L 188.805888 186.657315 
L 189.948672 186.131058 
L 191.091456 188.014102 
L 193.377024 190.204054 
L 194.519808 190.546376 
L 195.662592 190.607899 
L 197.94816 189.895078 
L 199.090944 191.173285 
L 200.233728 187.525023 
L 201.376512 186.404789 
L 202.519296 187.110658 
L 203.66208 183.47698 
L 204.804864 184.698102 
L 205.108416 175.265283 
L 206.2512 163.885954 
L 207.393984 164.130297 
L 208.536768 164.078115 
L 209.679552 165.10931 
L 210.822336 166.774884 
L 213.107904 171.039622 
L 214.250688 173.08437 
L 215.393472 174.890115 
L 216.536256 174.921463 
L 217.67904 177.069585 
L 218.821824 174.703934 
L 219.964608 176.748065 
L 221.107392 177.828746 
L 224.535744 184.72764 
L 225.678528 186.150784 
L 226.821312 186.668589 
L 227.964096 188.625923 
L 229.10688 188.555467 
L 230.249664 188.64565 
L 231.392448 187.06968 
L 232.535232 189.726836 
L 233.678016 191.879562 
L 234.8208 193.307001 
L 237.106368 196.735521 
L 238.249152 197.371876 
L 239.391936 198.40663 
L 240.53472 196.965359 
L 241.677504 197.933104 
L 241.981056 198.819353 
L 243.12384 199.26524 
L 244.266624 198.496276 
L 245.409408 199.524599 
L 246.552192 201.581618 
L 248.83776 206.472308 
L 249.980544 204.908336 
L 251.123328 199.194382 
L 252.266112 198.509348 
L 253.408896 191.703772 
L 254.55168 194.133612 
L 256.837248 199.398189 
L 257.980032 200.595139 
L 259.122816 202.337361 
L 260.2656 191.60232 
L 261.408384 191.207638 
L 263.693952 195.546549 
L 264.836736 188.79054 
L 265.97952 188.109692 
L 267.122304 189.140016 
L 268.265088 190.500204 
L 269.407872 187.689961 
L 270.550656 188.171638 
L 271.69344 186.492495 
L 272.836224 187.50923 
L 276.264576 180.275629 
L 277.40736 182.411789 
L 278.550144 185.807767 
L 278.853696 187.619623 
L 279.99648 187.759522 
L 281.139264 189.093162 
L 282.282048 188.851443 
L 283.424832 182.422344 
L 284.567616 164.069752 
L 285.7104 159.592172 
L 286.853184 163.538127 
L 289.138752 168.51481 
L 291.42432 175.091821 
L 292.567104 177.54238 
L 293.709888 170.73762 
L 294.852672 171.892911 
L 295.995456 159.765407 
L 297.13824 154.02873 
L 298.281024 154.82833 
L 299.423808 152.831861 
L 300.566592 155.154324 
L 301.709376 139.515405 
L 302.85216 143.323501 
L 303.994944 147.629211 
L 305.137728 148.859318 
L 306.280512 153.192209 
L 307.423296 154.491111 
L 308.56608 159.056522 
L 309.708864 159.041773 
L 310.851648 163.452197 
L 311.994432 167.354472 
L 313.137216 168.802852 
L 314.28 172.4975 
L 315.726336 154.563389 
L 316.86912 157.24748 
L 319.154688 163.648072 
L 323.725824 177.887157 
L 330.582528 199.545075 
L 334.01088 209.741282 
L 337.439232 219.298772 
L 340.867584 228.100801 
L 343.153152 233.572089 
L 346.581504 241.152815 
L 348.867072 245.647964 
L 351.15264 249.776621 
L 352.295424 251.683779 
L 352.598976 251.339447 
L 353.74176 184.573247 
L 354.884544 171.175407 
L 356.027328 159.881373 
L 357.170112 153.093462 
L 358.312896 150.783042 
L 359.45568 152.376849 
L 360.598464 150.616628 
L 361.741248 152.67926 
L 362.884032 148.301346 
L 365.1696 154.00322 
L 366.312384 156.846816 
L 367.455168 157.267569 
L 368.597952 158.674587 
L 369.740736 159.834122 
L 370.88352 161.960266 
L 372.026304 158.709922 
L 373.169088 161.985734 
L 374.311872 163.637151 
L 375.454656 166.528753 
L 376.59744 167.87765 
L 377.740224 168.7634 
L 378.883008 169.02714 
L 380.025792 171.26485 
L 381.168576 170.009045 
L 382.31136 162.09618 
L 384.596928 149.877047 
L 385.739712 146.711612 
L 386.882496 148.101869 
L 388.02528 151.086341 
L 389.168064 152.082114 
L 389.471616 150.818983 
L 394.042752 167.462287 
L 397.471104 178.885426 
L 399.756672 185.901566 
L 402.04224 192.433464 
L 404.327808 198.364961 
L 406.613376 203.791655 
L 408.898944 208.65798 
L 411.184512 213.049916 
L 413.47008 217.033366 
L 414.612864 218.85097 
L 418.041216 223.515205 
L 420.326784 226.240849 
L 423.755136 229.730487 
L 426.040704 231.617621 
L 426.040704 231.617621 
" clip-path="url(#p39b1d62867)" style="fill: none; stroke: #1f77b4; stroke-opacity: 0.4; stroke-linecap: square"/>
   </g>
   <g id="line2d_28">
    <path d="M 63.818387 -1 
L 64.47456 4.162277 
L 66.760128 17.17248 
L 67.902912 23.26256 
L 69.045696 27.607206 
L 70.18848 33.901195 
L 71.331264 38.793754 
L 72.474048 44.791683 
L 73.616832 50.193665 
L 74.759616 52.927983 
L 79.330752 69.129383 
L 80.473536 68.77999 
L 81.61632 69.948178 
L 82.759104 73.469959 
L 83.901888 75.583406 
L 85.044672 78.969502 
L 86.187456 80.884738 
L 87.33024 84.473471 
L 88.473024 75.539752 
L 89.615808 79.648692 
L 90.758592 81.959117 
L 91.901376 85.132419 
L 94.186944 92.52663 
L 94.490496 96.150333 
L 97.918848 107.145848 
L 100.204416 113.71997 
L 102.489984 119.664433 
L 104.775552 125.081103 
L 107.06112 129.921658 
L 109.346688 134.220976 
L 111.632256 138.033591 
L 113.917824 141.363715 
L 116.203392 144.280792 
L 118.48896 146.860365 
L 120.774528 149.081786 
L 124.20288 151.895262 
L 126.488448 153.437975 
L 128.774016 154.72568 
L 132.50592 156.740229 
L 133.648704 157.275733 
L 134.791488 157.627454 
L 135.934272 157.689486 
L 138.21984 158.656725 
L 141.648192 159.836387 
L 148.504896 161.924304 
L 150.790464 162.675037 
L 157.647168 164.18552 
L 158.789952 164.495794 
L 161.07552 164.546214 
L 163.361088 165.234292 
L 164.503872 165.547248 
L 165.646656 165.621496 
L 168.235776 166.132906 
L 170.521344 166.564018 
L 171.664128 166.21838 
L 175.09248 166.887356 
L 177.378048 167.443576 
L 178.520832 167.368727 
L 180.8064 168.118072 
L 181.949184 168.387786 
L 184.234752 167.7366 
L 185.377536 167.938701 
L 188.805888 169.039483 
L 189.948672 169.268756 
L 191.091456 169.311654 
L 192.23424 168.253591 
L 193.377024 168.819166 
L 194.519808 168.467036 
L 195.662592 168.837466 
L 196.805376 169.40131 
L 197.94816 169.013315 
L 200.233728 169.126538 
L 202.519296 169.843106 
L 205.108416 171.191076 
L 206.2512 171.00467 
L 207.393984 171.068981 
L 208.536768 171.527614 
L 209.679552 171.402958 
L 210.822336 171.753503 
L 211.96512 171.924434 
L 213.107904 172.413644 
L 214.250688 172.484226 
L 215.393472 172.434509 
L 218.821824 174.178755 
L 219.964608 174.627565 
L 221.107392 174.16886 
L 222.250176 174.411723 
L 223.39296 174.449351 
L 224.535744 174.237124 
L 225.678528 174.757035 
L 226.821312 174.307294 
L 227.964096 174.855944 
L 229.10688 171.877724 
L 231.392448 172.794632 
L 232.535232 172.462856 
L 233.678016 172.458023 
L 234.8208 173.186669 
L 241.677504 176.706652 
L 241.981056 177.360922 
L 243.12384 176.90025 
L 244.266624 174.189884 
L 245.409408 172.610705 
L 246.552192 173.414294 
L 247.694976 173.961485 
L 248.83776 174.746813 
L 249.980544 174.281913 
L 251.123328 174.97179 
L 252.266112 175.841137 
L 253.408896 174.755694 
L 255.694464 176.563027 
L 256.837248 173.16517 
L 257.980032 173.930388 
L 259.122816 173.028805 
L 260.2656 171.406795 
L 261.408384 171.207047 
L 262.551168 172.115673 
L 264.836736 173.15191 
L 265.97952 173.035295 
L 267.122304 173.946913 
L 268.265088 173.464269 
L 269.407872 173.168098 
L 270.550656 174.470457 
L 271.69344 175.394158 
L 272.836224 175.185772 
L 273.979008 172.953701 
L 275.121792 172.281809 
L 277.40736 174.72165 
L 278.550144 174.307697 
L 278.853696 175.265682 
L 279.99648 176.001239 
L 281.139264 176.908759 
L 282.282048 177.538528 
L 283.424832 178.473258 
L 284.567616 179.651667 
L 285.7104 180.187287 
L 286.853184 180.940854 
L 289.138752 181.996514 
L 291.42432 183.208783 
L 293.709888 182.767045 
L 294.852672 183.439074 
L 295.995456 183.75968 
L 297.13824 183.768834 
L 298.281024 184.201126 
L 299.423808 183.987026 
L 300.566592 183.572722 
L 301.709376 184.018174 
L 302.85216 183.360829 
L 303.994944 183.378529 
L 305.137728 183.107291 
L 306.280512 183.70662 
L 307.423296 183.153594 
L 308.56608 181.753026 
L 309.708864 178.797445 
L 310.851648 179.876558 
L 311.994432 179.844425 
L 313.137216 179.137682 
L 314.28 180.210823 
L 315.422784 181.441879 
L 315.726336 182.158567 
L 316.86912 182.865345 
L 318.011904 182.827271 
L 319.154688 183.282333 
L 320.297472 184.045122 
L 321.440256 183.401082 
L 322.58304 177.7883 
L 323.725824 177.745317 
L 324.868608 176.136108 
L 326.011392 176.92667 
L 327.154176 175.424853 
L 328.29696 176.000442 
L 329.439744 177.298571 
L 330.582528 171.034537 
L 331.725312 172.287715 
L 332.868096 171.42158 
L 334.01088 172.349333 
L 335.153664 173.710615 
L 336.296448 174.615991 
L 337.439232 176.075154 
L 338.582016 177.052347 
L 339.7248 176.984943 
L 342.010368 179.575333 
L 343.153152 180.99086 
L 344.295936 181.337422 
L 345.43872 182.000184 
L 346.581504 181.889422 
L 347.724288 182.507157 
L 350.009856 184.204119 
L 351.15264 183.834767 
L 352.295424 184.152773 
L 352.598976 185.155039 
L 354.884544 186.115616 
L 356.027328 187.084748 
L 357.170112 187.49891 
L 358.312896 188.200004 
L 359.45568 185.77972 
L 360.598464 186.983604 
L 361.741248 186.139146 
L 362.884032 186.44825 
L 364.026816 186.495785 
L 365.1696 187.225995 
L 367.455168 187.389688 
L 368.597952 188.374562 
L 369.740736 186.904758 
L 370.88352 184.726313 
L 373.169088 186.759595 
L 374.311872 180.999649 
L 375.454656 181.828803 
L 376.59744 182.148892 
L 377.740224 183.594484 
L 378.883008 184.453992 
L 380.025792 184.949946 
L 381.168576 185.962659 
L 382.31136 186.387581 
L 383.454144 178.527379 
L 384.596928 177.317868 
L 385.739712 175.47648 
L 386.882496 177.051674 
L 388.02528 178.4056 
L 389.168064 178.590076 
L 389.471616 173.887115 
L 391.757184 175.901175 
L 392.899968 175.609115 
L 394.042752 175.822974 
L 395.185536 177.684619 
L 396.32832 179.173948 
L 397.471104 180.258989 
L 398.613888 181.067443 
L 399.756672 180.382284 
L 400.899456 180.904682 
L 402.04224 175.143914 
L 403.185024 176.828492 
L 404.327808 177.670466 
L 405.470592 176.671366 
L 407.75616 179.836899 
L 408.898944 181.164526 
L 410.041728 182.067163 
L 411.184512 183.216358 
L 412.327296 183.929042 
L 413.47008 182.099886 
L 414.612864 181.588688 
L 415.755648 182.46689 
L 416.898432 181.744843 
L 418.041216 182.75379 
L 419.184 183.572585 
L 420.326784 184.977131 
L 421.469568 185.91724 
L 422.612352 186.41482 
L 423.755136 186.388566 
L 426.040704 187.178738 
L 426.040704 187.178738 
" clip-path="url(#p39b1d62867)" style="fill: none; stroke: #ff7f0e; stroke-opacity: 0.4; stroke-linecap: square"/>
   </g>
   <g id="line2d_29">
    <path d="M 63.331956 -1 
L 66.760128 25.63942 
L 67.902912 31.973874 
L 70.18848 42.936639 
L 71.331264 47.262136 
L 72.474048 52.781855 
L 74.759616 62.685046 
L 77.045184 70.472519 
L 78.187968 68.366335 
L 79.330752 69.591399 
L 80.473536 72.279385 
L 82.759104 78.860408 
L 83.901888 77.358373 
L 85.044672 81.710415 
L 86.187456 84.532404 
L 87.33024 86.628108 
L 88.473024 90.729717 
L 89.615808 91.36392 
L 90.758592 90.244871 
L 91.901376 91.545445 
L 94.186944 98.838976 
L 94.490496 101.907581 
L 97.918848 113.417634 
L 100.204416 120.452642 
L 102.489984 126.948426 
L 104.775552 132.892901 
L 107.06112 138.319834 
L 109.346688 143.187402 
L 111.632256 147.581062 
L 113.917824 151.456985 
L 116.203392 154.863167 
L 118.48896 157.874395 
L 120.774528 160.520606 
L 123.060096 162.772757 
L 125.345664 164.758114 
L 127.631232 166.428658 
L 129.9168 167.943421 
L 131.059584 168.549689 
L 131.363136 168.871292 
L 135.934272 170.904836 
L 137.077056 171.076037 
L 139.362624 172.032069 
L 140.505408 172.647911 
L 141.648192 171.167708 
L 142.790976 171.648131 
L 145.076544 172.8826 
L 146.219328 172.897275 
L 147.362112 173.395581 
L 149.64768 173.681499 
L 150.790464 174.439084 
L 151.933248 174.903905 
L 153.076032 173.637678 
L 154.218816 174.349593 
L 155.3616 173.769996 
L 156.504384 174.426643 
L 157.647168 175.24738 
L 158.789952 175.779312 
L 159.932736 174.413815 
L 161.07552 174.980893 
L 163.361088 176.51034 
L 164.503872 176.646715 
L 165.646656 176.138148 
L 167.932224 177.265654 
L 168.235776 177.805887 
L 170.521344 178.976567 
L 171.664128 179.232994 
L 172.806912 179.704782 
L 173.949696 180.311195 
L 175.09248 180.711368 
L 176.235264 180.751145 
L 177.378048 180.042487 
L 178.520832 180.669725 
L 179.663616 181.152247 
L 180.8064 180.658522 
L 181.949184 180.347174 
L 183.091968 181.079587 
L 184.234752 179.700376 
L 185.377536 180.24423 
L 186.52032 180.340964 
L 187.663104 181.13208 
L 189.948672 182.423284 
L 191.091456 183.192831 
L 192.23424 183.609493 
L 193.377024 183.040188 
L 194.519808 183.335002 
L 195.662592 182.81334 
L 196.805376 183.202895 
L 197.94816 182.687015 
L 199.090944 181.590451 
L 200.233728 181.518302 
L 202.519296 182.783677 
L 203.66208 183.669038 
L 204.804864 184.017444 
L 205.108416 184.55433 
L 206.2512 182.286599 
L 207.393984 183.151527 
L 208.536768 183.321626 
L 209.679552 183.108904 
L 210.822336 183.56136 
L 211.96512 183.503858 
L 213.107904 184.350603 
L 214.250688 182.729963 
L 215.393472 183.82783 
L 216.536256 181.455092 
L 218.821824 183.570241 
L 219.964608 184.271465 
L 223.39296 186.992897 
L 224.535744 187.487225 
L 225.678528 188.209764 
L 226.821312 188.21923 
L 227.964096 185.935578 
L 229.10688 186.791169 
L 230.249664 187.497807 
L 231.392448 187.959298 
L 232.535232 188.236563 
L 233.678016 186.907968 
L 235.963584 188.48449 
L 237.106368 188.776714 
L 238.249152 188.39222 
L 239.391936 189.271728 
L 240.53472 188.414168 
L 241.677504 188.219427 
L 241.981056 186.004173 
L 243.12384 187.355497 
L 244.266624 188.264422 
L 245.409408 189.488994 
L 246.552192 190.069166 
L 247.694976 191.053334 
L 248.83776 191.798487 
L 249.980544 189.216469 
L 252.266112 190.425685 
L 253.408896 191.354821 
L 254.55168 190.838869 
L 255.694464 191.084195 
L 256.837248 191.207499 
L 257.980032 191.200225 
L 259.122816 192.235981 
L 260.2656 192.922212 
L 262.551168 193.985425 
L 265.97952 196.1419 
L 267.122304 196.925732 
L 268.265088 195.175184 
L 269.407872 195.892376 
L 270.550656 196.331451 
L 271.69344 196.959428 
L 272.836224 196.659654 
L 273.979008 195.226684 
L 275.121792 195.859755 
L 276.264576 195.079744 
L 277.40736 195.837029 
L 278.550144 196.115233 
L 278.853696 194.366951 
L 279.99648 192.129662 
L 281.139264 191.282962 
L 282.282048 192.061104 
L 283.424832 189.039547 
L 284.567616 188.524766 
L 285.7104 185.547215 
L 286.853184 186.832742 
L 287.995968 187.193251 
L 289.138752 184.495026 
L 290.281536 185.044905 
L 291.42432 183.801306 
L 292.567104 185.090914 
L 293.709888 186.614677 
L 294.852672 186.9023 
L 295.995456 185.291129 
L 297.13824 186.320294 
L 298.281024 187.060709 
L 299.423808 184.926397 
L 300.566592 176.548096 
L 301.709376 177.427997 
L 302.85216 175.143549 
L 303.994944 176.93252 
L 305.137728 176.034238 
L 306.280512 176.794405 
L 307.423296 177.958999 
L 308.56608 180.048742 
L 309.708864 181.525768 
L 310.851648 183.507654 
L 311.994432 185.266778 
L 313.137216 185.895592 
L 314.28 187.587104 
L 315.422784 187.624213 
L 315.726336 187.797699 
L 316.86912 189.603602 
L 320.297472 194.176173 
L 321.440256 194.890868 
L 322.58304 196.172943 
L 327.154176 200.483219 
L 328.29696 201.273678 
L 329.439744 201.658117 
L 330.582528 202.259448 
L 331.725312 202.202371 
L 332.868096 203.10626 
L 334.01088 203.310479 
L 336.296448 204.907886 
L 337.439232 205.169573 
L 338.582016 205.265253 
L 340.867584 206.469382 
L 342.010368 204.315121 
L 343.153152 204.918676 
L 344.295936 204.359489 
L 345.43872 204.810194 
L 346.581504 204.910477 
L 347.724288 203.753069 
L 348.867072 204.284425 
L 350.009856 204.234163 
L 351.15264 204.550503 
L 352.598976 202.255261 
L 353.74176 198.570432 
L 354.884544 198.536029 
L 357.170112 199.185547 
L 358.312896 199.516257 
L 359.45568 196.910516 
L 360.598464 196.949211 
L 361.741248 197.126229 
L 362.884032 196.345292 
L 364.026816 194.674031 
L 365.1696 193.859716 
L 366.312384 194.483904 
L 367.455168 192.298484 
L 368.597952 193.437556 
L 369.740736 191.532875 
L 370.88352 192.578345 
L 372.026304 193.178867 
L 373.169088 193.361283 
L 374.311872 194.664962 
L 375.454656 195.165426 
L 376.59744 196.10787 
L 377.740224 196.407934 
L 378.883008 196.571812 
L 380.025792 195.492672 
L 381.168576 196.261782 
L 382.31136 196.198303 
L 383.454144 193.703768 
L 384.596928 192.179824 
L 385.739712 192.074408 
L 386.882496 192.405401 
L 388.02528 193.362973 
L 389.168064 192.979531 
L 389.471616 193.745194 
L 390.6144 194.983951 
L 391.757184 195.988321 
L 392.899968 196.740285 
L 394.042752 197.879533 
L 395.185536 198.735209 
L 396.32832 199.849659 
L 397.471104 198.594438 
L 398.613888 199.416175 
L 399.756672 199.022322 
L 405.470592 202.489394 
L 406.613376 202.676519 
L 407.75616 201.89285 
L 410.041728 203.61444 
L 411.184512 203.65535 
L 412.327296 199.319949 
L 413.47008 199.813103 
L 415.755648 201.747855 
L 416.898432 201.69165 
L 418.041216 202.834495 
L 419.184 203.499824 
L 420.326784 202.976736 
L 421.469568 203.871398 
L 422.612352 204.368346 
L 423.755136 205.364062 
L 426.040704 206.016131 
L 426.040704 206.016131 
" clip-path="url(#p39b1d62867)" style="fill: none; stroke: #2ca02c; stroke-opacity: 0.4; stroke-linecap: square"/>
   </g>
   <g id="patch_3">
    <path d="M 57.6 307.584 
L 57.6 41.472 
" style="fill: none; stroke: #000000; stroke-width: 0.8; stroke-linejoin: miter; stroke-linecap: square"/>
   </g>
   <g id="patch_4">
    <path d="M 414.72 307.584 
L 414.72 41.472 
" style="fill: none; stroke: #000000; stroke-width: 0.8; stroke-linejoin: miter; stroke-linecap: square"/>
   </g>
   <g id="patch_5">
    <path d="M 57.6 307.584 
L 414.72 307.584 
" style="fill: none; stroke: #000000; stroke-width: 0.8; stroke-linejoin: miter; stroke-linecap: square"/>
   </g>
   <g id="patch_6">
    <path d="M 57.6 41.472 
L 414.72 41.472 
" style="fill: none; stroke: #000000; stroke-width: 0.8; stroke-linejoin: miter; stroke-linecap: square"/>
   </g>
   <g id="text_14">
    <!-- 2025-02-18-14:23:01 -->
    <g transform="translate(172.178438 35.472) scale(0.12 -0.12)">
     <defs>
      <path id="DejaVuSans-2d" d="M 313 2009 
L 1997 2009 
L 1997 1497 
L 313 1497 
L 313 2009 
z
" transform="scale(0.015625)"/>
      <path id="DejaVuSans-38" d="M 2034 2216 
Q 1584 2216 1326 1975 
Q 1069 1734 1069 1313 
Q 1069 891 1326 650 
Q 1584 409 2034 409 
Q 2484 409 2743 651 
Q 3003 894 3003 1313 
Q 3003 1734 2745 1975 
Q 2488 2216 2034 2216 
z
M 1403 2484 
Q 997 2584 770 2862 
Q 544 3141 544 3541 
Q 544 4100 942 4425 
Q 1341 4750 2034 4750 
Q 2731 4750 3128 4425 
Q 3525 4100 3525 3541 
Q 3525 3141 3298 2862 
Q 3072 2584 2669 2484 
Q 3125 2378 3379 2068 
Q 3634 1759 3634 1313 
Q 3634 634 3220 271 
Q 2806 -91 2034 -91 
Q 1263 -91 848 271 
Q 434 634 434 1313 
Q 434 1759 690 2068 
Q 947 2378 1403 2484 
z
M 1172 3481 
Q 1172 3119 1398 2916 
Q 1625 2713 2034 2713 
Q 2441 2713 2670 2916 
Q 2900 3119 2900 3481 
Q 2900 3844 2670 4047 
Q 2441 4250 2034 4250 
Q 1625 4250 1398 4047 
Q 1172 3844 1172 3481 
z
" transform="scale(0.015625)"/>
      <path id="DejaVuSans-34" d="M 2419 4116 
L 825 1625 
L 2419 1625 
L 2419 4116 
z
M 2253 4666 
L 3047 4666 
L 3047 1625 
L 3713 1625 
L 3713 1100 
L 3047 1100 
L 3047 0 
L 2419 0 
L 2419 1100 
L 313 1100 
L 313 1709 
L 2253 4666 
z
" transform="scale(0.015625)"/>
      <path id="DejaVuSans-3a" d="M 750 794 
L 1409 794 
L 1409 0 
L 750 0 
L 750 794 
z
M 750 3309 
L 1409 3309 
L 1409 2516 
L 750 2516 
L 750 3309 
z
" transform="scale(0.015625)"/>
      <path id="DejaVuSans-33" d="M 2597 2516 
Q 3050 2419 3304 2112 
Q 3559 1806 3559 1356 
Q 3559 666 3084 287 
Q 2609 -91 1734 -91 
Q 1441 -91 1130 -33 
Q 819 25 488 141 
L 488 750 
Q 750 597 1062 519 
Q 1375 441 1716 441 
Q 2309 441 2620 675 
Q 2931 909 2931 1356 
Q 2931 1769 2642 2001 
Q 2353 2234 1838 2234 
L 1294 2234 
L 1294 2753 
L 1863 2753 
Q 2328 2753 2575 2939 
Q 2822 3125 2822 3475 
Q 2822 3834 2567 4026 
Q 2313 4219 1838 4219 
Q 1578 4219 1281 4162 
Q 984 4106 628 3988 
L 628 4550 
Q 988 4650 1302 4700 
Q 1616 4750 1894 4750 
Q 2613 4750 3031 4423 
Q 3450 4097 3450 3541 
Q 3450 3153 3228 2886 
Q 3006 2619 2597 2516 
z
" transform="scale(0.015625)"/>
     </defs>
     <use xlink:href="#DejaVuSans-32"/>
     <use xlink:href="#DejaVuSans-30" x="63.623047"/>
     <use xlink:href="#DejaVuSans-32" x="127.246094"/>
     <use xlink:href="#DejaVuSans-35" x="190.869141"/>
     <use xlink:href="#DejaVuSans-2d" x="254.492188"/>
     <use xlink:href="#DejaVuSans-30" x="290.576172"/>
     <use xlink:href="#DejaVuSans-32" x="354.199219"/>
     <use xlink:href="#DejaVuSans-2d" x="417.822266"/>
     <use xlink:href="#DejaVuSans-31" x="453.90625"/>
     <use xlink:href="#DejaVuSans-38" x="517.529297"/>
     <use xlink:href="#DejaVuSans-2d" x="581.152344"/>
     <use xlink:href="#DejaVuSans-31" x="617.236328"/>
     <use xlink:href="#DejaVuSans-34" x="680.859375"/>
     <use xlink:href="#DejaVuSans-3a" x="744.482422"/>
     <use xlink:href="#DejaVuSans-32" x="778.173828"/>
     <use xlink:href="#DejaVuSans-33" x="841.796875"/>
     <use xlink:href="#DejaVuSans-3a" x="905.419922"/>
     <use xlink:href="#DejaVuSans-30" x="939.111328"/>
     <use xlink:href="#DejaVuSans-31" x="1002.734375"/>
    </g>
   </g>
   <g id="legend_1">
    <g id="patch_7">
     <path d="M 281.596563 94.34075 
L 407.72 94.34075 
Q 409.72 94.34075 409.72 92.34075 
L 409.72 48.472 
Q 409.72 46.472 407.72 46.472 
L 281.596563 46.472 
Q 279.596563 46.472 279.596563 48.472 
L 279.596563 92.34075 
Q 279.596563 94.34075 281.596563 94.34075 
z
" style="fill: #ffffff; opacity: 0.8; stroke: #cccccc; stroke-linejoin: miter"/>
    </g>
    <g id="line2d_30">
     <path d="M 283.596563 54.570438 
L 293.596563 54.570438 
L 303.596563 54.570438 
" style="fill: none; stroke: #1f77b4; stroke-opacity: 0.4; stroke-linecap: square"/>
    </g>
    <g id="text_15">
     <!-- SchNet eval_loss -->
     <g transform="translate(311.596563 58.070438) scale(0.1 -0.1)">
      <defs>
       <path id="DejaVuSans-53" d="M 3425 4513 
L 3425 3897 
Q 3066 4069 2747 4153 
Q 2428 4238 2131 4238 
Q 1616 4238 1336 4038 
Q 1056 3838 1056 3469 
Q 1056 3159 1242 3001 
Q 1428 2844 1947 2747 
L 2328 2669 
Q 3034 2534 3370 2195 
Q 3706 1856 3706 1288 
Q 3706 609 3251 259 
Q 2797 -91 1919 -91 
Q 1588 -91 1214 -16 
Q 841 59 441 206 
L 441 856 
Q 825 641 1194 531 
Q 1563 422 1919 422 
Q 2459 422 2753 634 
Q 3047 847 3047 1241 
Q 3047 1584 2836 1778 
Q 2625 1972 2144 2069 
L 1759 2144 
Q 1053 2284 737 2584 
Q 422 2884 422 3419 
Q 422 4038 858 4394 
Q 1294 4750 2059 4750 
Q 2388 4750 2728 4690 
Q 3069 4631 3425 4513 
z
" transform="scale(0.015625)"/>
       <path id="DejaVuSans-63" d="M 3122 3366 
L 3122 2828 
Q 2878 2963 2633 3030 
Q 2388 3097 2138 3097 
Q 1578 3097 1268 2742 
Q 959 2388 959 1747 
Q 959 1106 1268 751 
Q 1578 397 2138 397 
Q 2388 397 2633 464 
Q 2878 531 3122 666 
L 3122 134 
Q 2881 22 2623 -34 
Q 2366 -91 2075 -91 
Q 1284 -91 818 406 
Q 353 903 353 1747 
Q 353 2603 823 3093 
Q 1294 3584 2113 3584 
Q 2378 3584 2631 3529 
Q 2884 3475 3122 3366 
z
" transform="scale(0.015625)"/>
       <path id="DejaVuSans-68" d="M 3513 2113 
L 3513 0 
L 2938 0 
L 2938 2094 
Q 2938 2591 2744 2837 
Q 2550 3084 2163 3084 
Q 1697 3084 1428 2787 
Q 1159 2491 1159 1978 
L 1159 0 
L 581 0 
L 581 4863 
L 1159 4863 
L 1159 2956 
Q 1366 3272 1645 3428 
Q 1925 3584 2291 3584 
Q 2894 3584 3203 3211 
Q 3513 2838 3513 2113 
z
" transform="scale(0.015625)"/>
       <path id="DejaVuSans-4e" d="M 628 4666 
L 1478 4666 
L 3547 763 
L 3547 4666 
L 4159 4666 
L 4159 0 
L 3309 0 
L 1241 3903 
L 1241 0 
L 628 0 
L 628 4666 
z
" transform="scale(0.015625)"/>
       <path id="DejaVuSans-20" transform="scale(0.015625)"/>
       <path id="DejaVuSans-76" d="M 191 3500 
L 800 3500 
L 1894 563 
L 2988 3500 
L 3597 3500 
L 2284 0 
L 1503 0 
L 191 3500 
z
" transform="scale(0.015625)"/>
       <path id="DejaVuSans-61" d="M 2194 1759 
Q 1497 1759 1228 1600 
Q 959 1441 959 1056 
Q 959 750 1161 570 
Q 1363 391 1709 391 
Q 2188 391 2477 730 
Q 2766 1069 2766 1631 
L 2766 1759 
L 2194 1759 
z
M 3341 1997 
L 3341 0 
L 2766 0 
L 2766 531 
Q 2569 213 2275 61 
Q 1981 -91 1556 -91 
Q 1019 -91 701 211 
Q 384 513 384 1019 
Q 384 1609 779 1909 
Q 1175 2209 1959 2209 
L 2766 2209 
L 2766 2266 
Q 2766 2663 2505 2880 
Q 2244 3097 1772 3097 
Q 1472 3097 1187 3025 
Q 903 2953 641 2809 
L 641 3341 
Q 956 3463 1253 3523 
Q 1550 3584 1831 3584 
Q 2591 3584 2966 3190 
Q 3341 2797 3341 1997 
z
" transform="scale(0.015625)"/>
       <path id="DejaVuSans-5f" d="M 3263 -1063 
L 3263 -1509 
L -63 -1509 
L -63 -1063 
L 3263 -1063 
z
" transform="scale(0.015625)"/>
      </defs>
      <use xlink:href="#DejaVuSans-53"/>
      <use xlink:href="#DejaVuSans-63" x="63.476562"/>
      <use xlink:href="#DejaVuSans-68" x="118.457031"/>
      <use xlink:href="#DejaVuSans-4e" x="181.835938"/>
      <use xlink:href="#DejaVuSans-65" x="256.640625"/>
      <use xlink:href="#DejaVuSans-74" x="318.164062"/>
      <use xlink:href="#DejaVuSans-20" x="357.373047"/>
      <use xlink:href="#DejaVuSans-65" x="389.160156"/>
      <use xlink:href="#DejaVuSans-76" x="450.683594"/>
      <use xlink:href="#DejaVuSans-61" x="509.863281"/>
      <use xlink:href="#DejaVuSans-6c" x="571.142578"/>
      <use xlink:href="#DejaVuSans-5f" x="598.925781"/>
      <use xlink:href="#DejaVuSans-6c" x="648.925781"/>
      <use xlink:href="#DejaVuSans-6f" x="676.708984"/>
      <use xlink:href="#DejaVuSans-73" x="737.890625"/>
      <use xlink:href="#DejaVuSans-73" x="789.990234"/>
     </g>
    </g>
    <g id="line2d_31">
     <path d="M 283.596563 69.526688 
L 293.596563 69.526688 
L 303.596563 69.526688 
" style="fill: none; stroke: #ff7f0e; stroke-opacity: 0.4; stroke-linecap: square"/>
    </g>
    <g id="text_16">
     <!-- MoGIN13 eval_loss -->
     <g transform="translate(311.596563 73.026688) scale(0.1 -0.1)">
      <defs>
       <path id="DejaVuSans-4d" d="M 628 4666 
L 1569 4666 
L 2759 1491 
L 3956 4666 
L 4897 4666 
L 4897 0 
L 4281 0 
L 4281 4097 
L 3078 897 
L 2444 897 
L 1241 4097 
L 1241 0 
L 628 0 
L 628 4666 
z
" transform="scale(0.015625)"/>
       <path id="DejaVuSans-47" d="M 3809 666 
L 3809 1919 
L 2778 1919 
L 2778 2438 
L 4434 2438 
L 4434 434 
Q 4069 175 3628 42 
Q 3188 -91 2688 -91 
Q 1594 -91 976 548 
Q 359 1188 359 2328 
Q 359 3472 976 4111 
Q 1594 4750 2688 4750 
Q 3144 4750 3555 4637 
Q 3966 4525 4313 4306 
L 4313 3634 
Q 3963 3931 3569 4081 
Q 3175 4231 2741 4231 
Q 1884 4231 1454 3753 
Q 1025 3275 1025 2328 
Q 1025 1384 1454 906 
Q 1884 428 2741 428 
Q 3075 428 3337 486 
Q 3600 544 3809 666 
z
" transform="scale(0.015625)"/>
       <path id="DejaVuSans-49" d="M 628 4666 
L 1259 4666 
L 1259 0 
L 628 0 
L 628 4666 
z
" transform="scale(0.015625)"/>
      </defs>
      <use xlink:href="#DejaVuSans-4d"/>
      <use xlink:href="#DejaVuSans-6f" x="86.279297"/>
      <use xlink:href="#DejaVuSans-47" x="147.460938"/>
      <use xlink:href="#DejaVuSans-49" x="224.951172"/>
      <use xlink:href="#DejaVuSans-4e" x="254.443359"/>
      <use xlink:href="#DejaVuSans-31" x="329.248047"/>
      <use xlink:href="#DejaVuSans-33" x="392.871094"/>
      <use xlink:href="#DejaVuSans-20" x="456.494141"/>
      <use xlink:href="#DejaVuSans-65" x="488.28125"/>
      <use xlink:href="#DejaVuSans-76" x="549.804688"/>
      <use xlink:href="#DejaVuSans-61" x="608.984375"/>
      <use xlink:href="#DejaVuSans-6c" x="670.263672"/>
      <use xlink:href="#DejaVuSans-5f" x="698.046875"/>
      <use xlink:href="#DejaVuSans-6c" x="748.046875"/>
      <use xlink:href="#DejaVuSans-6f" x="775.830078"/>
      <use xlink:href="#DejaVuSans-73" x="837.011719"/>
      <use xlink:href="#DejaVuSans-73" x="889.111328"/>
     </g>
    </g>
    <g id="line2d_32">
     <path d="M 283.596563 84.482938 
L 293.596563 84.482938 
L 303.596563 84.482938 
" style="fill: none; stroke: #2ca02c; stroke-opacity: 0.4; stroke-linecap: square"/>
    </g>
    <g id="text_17">
     <!-- MoGIN11 eval_loss -->
     <g transform="translate(311.596563 87.982938) scale(0.1 -0.1)">
      <use xlink:href="#DejaVuSans-4d"/>
      <use xlink:href="#DejaVuSans-6f" x="86.279297"/>
      <use xlink:href="#DejaVuSans-47" x="147.460938"/>
      <use xlink:href="#DejaVuSans-49" x="224.951172"/>
      <use xlink:href="#DejaVuSans-4e" x="254.443359"/>
      <use xlink:href="#DejaVuSans-31" x="329.248047"/>
      <use xlink:href="#DejaVuSans-31" x="392.871094"/>
      <use xlink:href="#DejaVuSans-20" x="456.494141"/>
      <use xlink:href="#DejaVuSans-65" x="488.28125"/>
      <use xlink:href="#DejaVuSans-76" x="549.804688"/>
      <use xlink:href="#DejaVuSans-61" x="608.984375"/>
      <use xlink:href="#DejaVuSans-6c" x="670.263672"/>
      <use xlink:href="#DejaVuSans-5f" x="698.046875"/>
      <use xlink:href="#DejaVuSans-6c" x="748.046875"/>
      <use xlink:href="#DejaVuSans-6f" x="775.830078"/>
      <use xlink:href="#DejaVuSans-73" x="837.011719"/>
      <use xlink:href="#DejaVuSans-73" x="889.111328"/>
     </g>
    </g>
   </g>
  </g>
 </g>
 <defs>
  <clipPath id="p39b1d62867">
   <rect x="57.6" y="41.472" width="357.12" height="266.112"/>
  </clipPath>
 </defs>
</svg>
