<?xml version="1.0" encoding="utf-8" standalone="no"?>
<!DOCTYPE svg PUBLIC "-//W3C//DTD SVG 1.1//EN"
  "http://www.w3.org/Graphics/SVG/1.1/DTD/svg11.dtd">
<svg xmlns:xlink="http://www.w3.org/1999/xlink" width="460.8pt" height="345.6pt" viewBox="0 0 460.8 345.6" xmlns="http://www.w3.org/2000/svg" version="1.1">
 <metadata>
  <rdf:RDF xmlns:dc="http://purl.org/dc/elements/1.1/" xmlns:cc="http://creativecommons.org/ns#" xmlns:rdf="http://www.w3.org/1999/02/22-rdf-syntax-ns#">
   <cc:Work>
    <dc:type rdf:resource="http://purl.org/dc/dcmitype/StillImage"/>
    <dc:date>2025-02-14T03:51:53.391326</dc:date>
    <dc:format>image/svg+xml</dc:format>
    <dc:creator>
     <cc:Agent>
      <dc:title>Matplotlib v3.8.4, https://matplotlib.org/</dc:title>
     </cc:Agent>
    </dc:creator>
   </cc:Work>
  </rdf:RDF>
 </metadata>
 <defs>
  <style type="text/css">*{stroke-linejoin: round; stroke-linecap: butt}</style>
 </defs>
 <g id="figure_1">
  <g id="patch_1">
   <path d="M 0 345.6 
L 460.8 345.6 
L 460.8 0 
L 0 0 
z
" style="fill: #ffffff"/>
  </g>
  <g id="axes_1">
   <g id="patch_2">
    <path d="M 57.6 307.584 
L 414.72 307.584 
L 414.72 41.472 
L 57.6 41.472 
z
" style="fill: #ffffff"/>
   </g>
   <g id="matplotlib.axis_1">
    <g id="xtick_1">
     <g id="line2d_1">
      <defs>
       <path id="mbd90a54ffc" d="M 0 0 
L 0 3.5 
" style="stroke: #000000; stroke-width: 0.8"/>
      </defs>
      <g>
       <use xlink:href="#mbd90a54ffc" x="73.832727" y="307.584" style="stroke: #000000; stroke-width: 0.8"/>
      </g>
     </g>
     <g id="text_1">
      <!-- $\mathdefault{10^{0}}$ -->
      <g transform="translate(65.032727 322.182437) scale(0.1 -0.1)">
       <defs>
        <path id="DejaVuSans-31" d="M 794 531 
L 1825 531 
L 1825 4091 
L 703 3866 
L 703 4441 
L 1819 4666 
L 2450 4666 
L 2450 531 
L 3481 531 
L 3481 0 
L 794 0 
L 794 531 
z
" transform="scale(0.015625)"/>
        <path id="DejaVuSans-30" d="M 2034 4250 
Q 1547 4250 1301 3770 
Q 1056 3291 1056 2328 
Q 1056 1369 1301 889 
Q 1547 409 2034 409 
Q 2525 409 2770 889 
Q 3016 1369 3016 2328 
Q 3016 3291 2770 3770 
Q 2525 4250 2034 4250 
z
M 2034 4750 
Q 2819 4750 3233 4129 
Q 3647 3509 3647 2328 
Q 3647 1150 3233 529 
Q 2819 -91 2034 -91 
Q 1250 -91 836 529 
Q 422 1150 422 2328 
Q 422 3509 836 4129 
Q 1250 4750 2034 4750 
z
" transform="scale(0.015625)"/>
       </defs>
       <use xlink:href="#DejaVuSans-31" transform="translate(0 0.765625)"/>
       <use xlink:href="#DejaVuSans-30" transform="translate(63.623047 0.765625)"/>
       <use xlink:href="#DejaVuSans-30" transform="translate(128.203125 39.046875) scale(0.7)"/>
      </g>
     </g>
    </g>
    <g id="xtick_2">
     <g id="line2d_2">
      <g>
       <use xlink:href="#mbd90a54ffc" x="161.037927" y="307.584" style="stroke: #000000; stroke-width: 0.8"/>
      </g>
     </g>
     <g id="text_2">
      <!-- $\mathdefault{10^{1}}$ -->
      <g transform="translate(152.237927 322.182437) scale(0.1 -0.1)">
       <use xlink:href="#DejaVuSans-31" transform="translate(0 0.684375)"/>
       <use xlink:href="#DejaVuSans-30" transform="translate(63.623047 0.684375)"/>
       <use xlink:href="#DejaVuSans-31" transform="translate(128.203125 38.965625) scale(0.7)"/>
      </g>
     </g>
    </g>
    <g id="xtick_3">
     <g id="line2d_3">
      <g>
       <use xlink:href="#mbd90a54ffc" x="248.243126" y="307.584" style="stroke: #000000; stroke-width: 0.8"/>
      </g>
     </g>
     <g id="text_3">
      <!-- $\mathdefault{10^{2}}$ -->
      <g transform="translate(239.443126 322.182437) scale(0.1 -0.1)">
       <defs>
        <path id="DejaVuSans-32" d="M 1228 531 
L 3431 531 
L 3431 0 
L 469 0 
L 469 531 
Q 828 903 1448 1529 
Q 2069 2156 2228 2338 
Q 2531 2678 2651 2914 
Q 2772 3150 2772 3378 
Q 2772 3750 2511 3984 
Q 2250 4219 1831 4219 
Q 1534 4219 1204 4116 
Q 875 4013 500 3803 
L 500 4441 
Q 881 4594 1212 4672 
Q 1544 4750 1819 4750 
Q 2544 4750 2975 4387 
Q 3406 4025 3406 3419 
Q 3406 3131 3298 2873 
Q 3191 2616 2906 2266 
Q 2828 2175 2409 1742 
Q 1991 1309 1228 531 
z
" transform="scale(0.015625)"/>
       </defs>
       <use xlink:href="#DejaVuSans-31" transform="translate(0 0.765625)"/>
       <use xlink:href="#DejaVuSans-30" transform="translate(63.623047 0.765625)"/>
       <use xlink:href="#DejaVuSans-32" transform="translate(128.203125 39.046875) scale(0.7)"/>
      </g>
     </g>
    </g>
    <g id="xtick_4">
     <g id="line2d_4">
      <g>
       <use xlink:href="#mbd90a54ffc" x="335.448325" y="307.584" style="stroke: #000000; stroke-width: 0.8"/>
      </g>
     </g>
     <g id="text_4">
      <!-- $\mathdefault{10^{3}}$ -->
      <g transform="translate(326.648325 322.182437) scale(0.1 -0.1)">
       <defs>
        <path id="DejaVuSans-33" d="M 2597 2516 
Q 3050 2419 3304 2112 
Q 3559 1806 3559 1356 
Q 3559 666 3084 287 
Q 2609 -91 1734 -91 
Q 1441 -91 1130 -33 
Q 819 25 488 141 
L 488 750 
Q 750 597 1062 519 
Q 1375 441 1716 441 
Q 2309 441 2620 675 
Q 2931 909 2931 1356 
Q 2931 1769 2642 2001 
Q 2353 2234 1838 2234 
L 1294 2234 
L 1294 2753 
L 1863 2753 
Q 2328 2753 2575 2939 
Q 2822 3125 2822 3475 
Q 2822 3834 2567 4026 
Q 2313 4219 1838 4219 
Q 1578 4219 1281 4162 
Q 984 4106 628 3988 
L 628 4550 
Q 988 4650 1302 4700 
Q 1616 4750 1894 4750 
Q 2613 4750 3031 4423 
Q 3450 4097 3450 3541 
Q 3450 3153 3228 2886 
Q 3006 2619 2597 2516 
z
" transform="scale(0.015625)"/>
       </defs>
       <use xlink:href="#DejaVuSans-31" transform="translate(0 0.765625)"/>
       <use xlink:href="#DejaVuSans-30" transform="translate(63.623047 0.765625)"/>
       <use xlink:href="#DejaVuSans-33" transform="translate(128.203125 39.046875) scale(0.7)"/>
      </g>
     </g>
    </g>
    <g id="xtick_5">
     <g id="line2d_5">
      <defs>
       <path id="m42afa0e97f" d="M 0 0 
L 0 2 
" style="stroke: #000000; stroke-width: 0.6"/>
      </defs>
      <g>
       <use xlink:href="#m42afa0e97f" x="60.324471" y="307.584" style="stroke: #000000; stroke-width: 0.6"/>
      </g>
     </g>
    </g>
    <g id="xtick_6">
     <g id="line2d_6">
      <g>
       <use xlink:href="#m42afa0e97f" x="65.38167" y="307.584" style="stroke: #000000; stroke-width: 0.6"/>
      </g>
     </g>
    </g>
    <g id="xtick_7">
     <g id="line2d_7">
      <g>
       <use xlink:href="#m42afa0e97f" x="69.842436" y="307.584" style="stroke: #000000; stroke-width: 0.6"/>
      </g>
     </g>
    </g>
    <g id="xtick_8">
     <g id="line2d_8">
      <g>
       <use xlink:href="#m42afa0e97f" x="100.084108" y="307.584" style="stroke: #000000; stroke-width: 0.6"/>
      </g>
     </g>
    </g>
    <g id="xtick_9">
     <g id="line2d_9">
      <g>
       <use xlink:href="#m42afa0e97f" x="115.440181" y="307.584" style="stroke: #000000; stroke-width: 0.6"/>
      </g>
     </g>
    </g>
    <g id="xtick_10">
     <g id="line2d_10">
      <g>
       <use xlink:href="#m42afa0e97f" x="126.335489" y="307.584" style="stroke: #000000; stroke-width: 0.6"/>
      </g>
     </g>
    </g>
    <g id="xtick_11">
     <g id="line2d_11">
      <g>
       <use xlink:href="#m42afa0e97f" x="134.786546" y="307.584" style="stroke: #000000; stroke-width: 0.6"/>
      </g>
     </g>
    </g>
    <g id="xtick_12">
     <g id="line2d_12">
      <g>
       <use xlink:href="#m42afa0e97f" x="141.691562" y="307.584" style="stroke: #000000; stroke-width: 0.6"/>
      </g>
     </g>
    </g>
    <g id="xtick_13">
     <g id="line2d_13">
      <g>
       <use xlink:href="#m42afa0e97f" x="147.52967" y="307.584" style="stroke: #000000; stroke-width: 0.6"/>
      </g>
     </g>
    </g>
    <g id="xtick_14">
     <g id="line2d_14">
      <g>
       <use xlink:href="#m42afa0e97f" x="152.58687" y="307.584" style="stroke: #000000; stroke-width: 0.6"/>
      </g>
     </g>
    </g>
    <g id="xtick_15">
     <g id="line2d_15">
      <g>
       <use xlink:href="#m42afa0e97f" x="157.047635" y="307.584" style="stroke: #000000; stroke-width: 0.6"/>
      </g>
     </g>
    </g>
    <g id="xtick_16">
     <g id="line2d_16">
      <g>
       <use xlink:href="#m42afa0e97f" x="187.289307" y="307.584" style="stroke: #000000; stroke-width: 0.6"/>
      </g>
     </g>
    </g>
    <g id="xtick_17">
     <g id="line2d_17">
      <g>
       <use xlink:href="#m42afa0e97f" x="202.645381" y="307.584" style="stroke: #000000; stroke-width: 0.6"/>
      </g>
     </g>
    </g>
    <g id="xtick_18">
     <g id="line2d_18">
      <g>
       <use xlink:href="#m42afa0e97f" x="213.540688" y="307.584" style="stroke: #000000; stroke-width: 0.6"/>
      </g>
     </g>
    </g>
    <g id="xtick_19">
     <g id="line2d_19">
      <g>
       <use xlink:href="#m42afa0e97f" x="221.991745" y="307.584" style="stroke: #000000; stroke-width: 0.6"/>
      </g>
     </g>
    </g>
    <g id="xtick_20">
     <g id="line2d_20">
      <g>
       <use xlink:href="#m42afa0e97f" x="228.896761" y="307.584" style="stroke: #000000; stroke-width: 0.6"/>
      </g>
     </g>
    </g>
    <g id="xtick_21">
     <g id="line2d_21">
      <g>
       <use xlink:href="#m42afa0e97f" x="234.734869" y="307.584" style="stroke: #000000; stroke-width: 0.6"/>
      </g>
     </g>
    </g>
    <g id="xtick_22">
     <g id="line2d_22">
      <g>
       <use xlink:href="#m42afa0e97f" x="239.792069" y="307.584" style="stroke: #000000; stroke-width: 0.6"/>
      </g>
     </g>
    </g>
    <g id="xtick_23">
     <g id="line2d_23">
      <g>
       <use xlink:href="#m42afa0e97f" x="244.252835" y="307.584" style="stroke: #000000; stroke-width: 0.6"/>
      </g>
     </g>
    </g>
    <g id="xtick_24">
     <g id="line2d_24">
      <g>
       <use xlink:href="#m42afa0e97f" x="274.494507" y="307.584" style="stroke: #000000; stroke-width: 0.6"/>
      </g>
     </g>
    </g>
    <g id="xtick_25">
     <g id="line2d_25">
      <g>
       <use xlink:href="#m42afa0e97f" x="289.85058" y="307.584" style="stroke: #000000; stroke-width: 0.6"/>
      </g>
     </g>
    </g>
    <g id="xtick_26">
     <g id="line2d_26">
      <g>
       <use xlink:href="#m42afa0e97f" x="300.745887" y="307.584" style="stroke: #000000; stroke-width: 0.6"/>
      </g>
     </g>
    </g>
    <g id="xtick_27">
     <g id="line2d_27">
      <g>
       <use xlink:href="#m42afa0e97f" x="309.196944" y="307.584" style="stroke: #000000; stroke-width: 0.6"/>
      </g>
     </g>
    </g>
    <g id="xtick_28">
     <g id="line2d_28">
      <g>
       <use xlink:href="#m42afa0e97f" x="316.101961" y="307.584" style="stroke: #000000; stroke-width: 0.6"/>
      </g>
     </g>
    </g>
    <g id="xtick_29">
     <g id="line2d_29">
      <g>
       <use xlink:href="#m42afa0e97f" x="321.940069" y="307.584" style="stroke: #000000; stroke-width: 0.6"/>
      </g>
     </g>
    </g>
    <g id="xtick_30">
     <g id="line2d_30">
      <g>
       <use xlink:href="#m42afa0e97f" x="326.997268" y="307.584" style="stroke: #000000; stroke-width: 0.6"/>
      </g>
     </g>
    </g>
    <g id="xtick_31">
     <g id="line2d_31">
      <g>
       <use xlink:href="#m42afa0e97f" x="331.458034" y="307.584" style="stroke: #000000; stroke-width: 0.6"/>
      </g>
     </g>
    </g>
    <g id="xtick_32">
     <g id="line2d_32">
      <g>
       <use xlink:href="#m42afa0e97f" x="361.699706" y="307.584" style="stroke: #000000; stroke-width: 0.6"/>
      </g>
     </g>
    </g>
    <g id="xtick_33">
     <g id="line2d_33">
      <g>
       <use xlink:href="#m42afa0e97f" x="377.055779" y="307.584" style="stroke: #000000; stroke-width: 0.6"/>
      </g>
     </g>
    </g>
    <g id="xtick_34">
     <g id="line2d_34">
      <g>
       <use xlink:href="#m42afa0e97f" x="387.951087" y="307.584" style="stroke: #000000; stroke-width: 0.6"/>
      </g>
     </g>
    </g>
    <g id="xtick_35">
     <g id="line2d_35">
      <g>
       <use xlink:href="#m42afa0e97f" x="396.402144" y="307.584" style="stroke: #000000; stroke-width: 0.6"/>
      </g>
     </g>
    </g>
    <g id="xtick_36">
     <g id="line2d_36">
      <g>
       <use xlink:href="#m42afa0e97f" x="403.30716" y="307.584" style="stroke: #000000; stroke-width: 0.6"/>
      </g>
     </g>
    </g>
    <g id="xtick_37">
     <g id="line2d_37">
      <g>
       <use xlink:href="#m42afa0e97f" x="409.145268" y="307.584" style="stroke: #000000; stroke-width: 0.6"/>
      </g>
     </g>
    </g>
    <g id="xtick_38">
     <g id="line2d_38">
      <g>
       <use xlink:href="#m42afa0e97f" x="414.202467" y="307.584" style="stroke: #000000; stroke-width: 0.6"/>
      </g>
     </g>
    </g>
    <g id="text_5">
     <!-- iter# -->
     <g transform="translate(223.488906 335.860562) scale(0.1 -0.1)">
      <defs>
       <path id="DejaVuSans-69" d="M 603 3500 
L 1178 3500 
L 1178 0 
L 603 0 
L 603 3500 
z
M 603 4863 
L 1178 4863 
L 1178 4134 
L 603 4134 
L 603 4863 
z
" transform="scale(0.015625)"/>
       <path id="DejaVuSans-74" d="M 1172 4494 
L 1172 3500 
L 2356 3500 
L 2356 3053 
L 1172 3053 
L 1172 1153 
Q 1172 725 1289 603 
Q 1406 481 1766 481 
L 2356 481 
L 2356 0 
L 1766 0 
Q 1100 0 847 248 
Q 594 497 594 1153 
L 594 3053 
L 172 3053 
L 172 3500 
L 594 3500 
L 594 4494 
L 1172 4494 
z
" transform="scale(0.015625)"/>
       <path id="DejaVuSans-65" d="M 3597 1894 
L 3597 1613 
L 953 1613 
Q 991 1019 1311 708 
Q 1631 397 2203 397 
Q 2534 397 2845 478 
Q 3156 559 3463 722 
L 3463 178 
Q 3153 47 2828 -22 
Q 2503 -91 2169 -91 
Q 1331 -91 842 396 
Q 353 884 353 1716 
Q 353 2575 817 3079 
Q 1281 3584 2069 3584 
Q 2775 3584 3186 3129 
Q 3597 2675 3597 1894 
z
M 3022 2063 
Q 3016 2534 2758 2815 
Q 2500 3097 2075 3097 
Q 1594 3097 1305 2825 
Q 1016 2553 972 2059 
L 3022 2063 
z
" transform="scale(0.015625)"/>
       <path id="DejaVuSans-72" d="M 2631 2963 
Q 2534 3019 2420 3045 
Q 2306 3072 2169 3072 
Q 1681 3072 1420 2755 
Q 1159 2438 1159 1844 
L 1159 0 
L 581 0 
L 581 3500 
L 1159 3500 
L 1159 2956 
Q 1341 3275 1631 3429 
Q 1922 3584 2338 3584 
Q 2397 3584 2469 3576 
Q 2541 3569 2628 3553 
L 2631 2963 
z
" transform="scale(0.015625)"/>
       <path id="DejaVuSans-23" d="M 3272 2816 
L 2363 2816 
L 2100 1772 
L 3016 1772 
L 3272 2816 
z
M 2803 4594 
L 2478 3297 
L 3391 3297 
L 3719 4594 
L 4219 4594 
L 3897 3297 
L 4872 3297 
L 4872 2816 
L 3775 2816 
L 3519 1772 
L 4513 1772 
L 4513 1294 
L 3397 1294 
L 3072 0 
L 2572 0 
L 2894 1294 
L 1978 1294 
L 1656 0 
L 1153 0 
L 1478 1294 
L 494 1294 
L 494 1772 
L 1594 1772 
L 1856 2816 
L 850 2816 
L 850 3297 
L 1978 3297 
L 2297 4594 
L 2803 4594 
z
" transform="scale(0.015625)"/>
      </defs>
      <use xlink:href="#DejaVuSans-69"/>
      <use xlink:href="#DejaVuSans-74" x="27.783203"/>
      <use xlink:href="#DejaVuSans-65" x="66.992188"/>
      <use xlink:href="#DejaVuSans-72" x="128.515625"/>
      <use xlink:href="#DejaVuSans-23" x="169.628906"/>
     </g>
    </g>
   </g>
   <g id="matplotlib.axis_2">
    <g id="ytick_1">
     <g id="line2d_39">
      <defs>
       <path id="md6c8a8900b" d="M 0 0 
L -3.5 0 
" style="stroke: #000000; stroke-width: 0.8"/>
      </defs>
      <g>
       <use xlink:href="#md6c8a8900b" x="57.6" y="289.125043" style="stroke: #000000; stroke-width: 0.8"/>
      </g>
     </g>
     <g id="text_6">
      <!-- $\mathdefault{10^{-2}}$ -->
      <g transform="translate(27.1 292.924261) scale(0.1 -0.1)">
       <defs>
        <path id="DejaVuSans-2212" d="M 678 2272 
L 4684 2272 
L 4684 1741 
L 678 1741 
L 678 2272 
z
" transform="scale(0.015625)"/>
       </defs>
       <use xlink:href="#DejaVuSans-31" transform="translate(0 0.765625)"/>
       <use xlink:href="#DejaVuSans-30" transform="translate(63.623047 0.765625)"/>
       <use xlink:href="#DejaVuSans-2212" transform="translate(128.203125 39.046875) scale(0.7)"/>
       <use xlink:href="#DejaVuSans-32" transform="translate(186.855469 39.046875) scale(0.7)"/>
      </g>
     </g>
    </g>
    <g id="ytick_2">
     <g id="line2d_40">
      <g>
       <use xlink:href="#md6c8a8900b" x="57.6" y="233.031728" style="stroke: #000000; stroke-width: 0.8"/>
      </g>
     </g>
     <g id="text_7">
      <!-- $\mathdefault{10^{-1}}$ -->
      <g transform="translate(27.1 236.830947) scale(0.1 -0.1)">
       <use xlink:href="#DejaVuSans-31" transform="translate(0 0.684375)"/>
       <use xlink:href="#DejaVuSans-30" transform="translate(63.623047 0.684375)"/>
       <use xlink:href="#DejaVuSans-2212" transform="translate(128.203125 38.965625) scale(0.7)"/>
       <use xlink:href="#DejaVuSans-31" transform="translate(186.855469 38.965625) scale(0.7)"/>
      </g>
     </g>
    </g>
    <g id="ytick_3">
     <g id="line2d_41">
      <g>
       <use xlink:href="#md6c8a8900b" x="57.6" y="176.938413" style="stroke: #000000; stroke-width: 0.8"/>
      </g>
     </g>
     <g id="text_8">
      <!-- $\mathdefault{10^{0}}$ -->
      <g transform="translate(33 180.737632) scale(0.1 -0.1)">
       <use xlink:href="#DejaVuSans-31" transform="translate(0 0.765625)"/>
       <use xlink:href="#DejaVuSans-30" transform="translate(63.623047 0.765625)"/>
       <use xlink:href="#DejaVuSans-30" transform="translate(128.203125 39.046875) scale(0.7)"/>
      </g>
     </g>
    </g>
    <g id="ytick_4">
     <g id="line2d_42">
      <g>
       <use xlink:href="#md6c8a8900b" x="57.6" y="120.845099" style="stroke: #000000; stroke-width: 0.8"/>
      </g>
     </g>
     <g id="text_9">
      <!-- $\mathdefault{10^{1}}$ -->
      <g transform="translate(33 124.644317) scale(0.1 -0.1)">
       <use xlink:href="#DejaVuSans-31" transform="translate(0 0.684375)"/>
       <use xlink:href="#DejaVuSans-30" transform="translate(63.623047 0.684375)"/>
       <use xlink:href="#DejaVuSans-31" transform="translate(128.203125 38.965625) scale(0.7)"/>
      </g>
     </g>
    </g>
    <g id="ytick_5">
     <g id="line2d_43">
      <g>
       <use xlink:href="#md6c8a8900b" x="57.6" y="64.751784" style="stroke: #000000; stroke-width: 0.8"/>
      </g>
     </g>
     <g id="text_10">
      <!-- $\mathdefault{10^{2}}$ -->
      <g transform="translate(33 68.551003) scale(0.1 -0.1)">
       <use xlink:href="#DejaVuSans-31" transform="translate(0 0.765625)"/>
       <use xlink:href="#DejaVuSans-30" transform="translate(63.623047 0.765625)"/>
       <use xlink:href="#DejaVuSans-32" transform="translate(128.203125 39.046875) scale(0.7)"/>
      </g>
     </g>
    </g>
    <g id="ytick_6">
     <g id="line2d_44">
      <defs>
       <path id="m43a100b3bd" d="M 0 0 
L -2 0 
" style="stroke: #000000; stroke-width: 0.6"/>
      </defs>
      <g>
       <use xlink:href="#m43a100b3bd" x="57.6" y="306.010813" style="stroke: #000000; stroke-width: 0.6"/>
      </g>
     </g>
    </g>
    <g id="ytick_7">
     <g id="line2d_45">
      <g>
       <use xlink:href="#m43a100b3bd" x="57.6" y="301.569274" style="stroke: #000000; stroke-width: 0.6"/>
      </g>
     </g>
    </g>
    <g id="ytick_8">
     <g id="line2d_46">
      <g>
       <use xlink:href="#m43a100b3bd" x="57.6" y="297.814007" style="stroke: #000000; stroke-width: 0.6"/>
      </g>
     </g>
    </g>
    <g id="ytick_9">
     <g id="line2d_47">
      <g>
       <use xlink:href="#m43a100b3bd" x="57.6" y="294.561047" style="stroke: #000000; stroke-width: 0.6"/>
      </g>
     </g>
    </g>
    <g id="ytick_10">
     <g id="line2d_48">
      <g>
       <use xlink:href="#m43a100b3bd" x="57.6" y="291.691732" style="stroke: #000000; stroke-width: 0.6"/>
      </g>
     </g>
    </g>
    <g id="ytick_11">
     <g id="line2d_49">
      <g>
       <use xlink:href="#m43a100b3bd" x="57.6" y="272.239272" style="stroke: #000000; stroke-width: 0.6"/>
      </g>
     </g>
    </g>
    <g id="ytick_12">
     <g id="line2d_50">
      <g>
       <use xlink:href="#m43a100b3bd" x="57.6" y="262.36173" style="stroke: #000000; stroke-width: 0.6"/>
      </g>
     </g>
    </g>
    <g id="ytick_13">
     <g id="line2d_51">
      <g>
       <use xlink:href="#m43a100b3bd" x="57.6" y="255.353502" style="stroke: #000000; stroke-width: 0.6"/>
      </g>
     </g>
    </g>
    <g id="ytick_14">
     <g id="line2d_52">
      <g>
       <use xlink:href="#m43a100b3bd" x="57.6" y="249.917498" style="stroke: #000000; stroke-width: 0.6"/>
      </g>
     </g>
    </g>
    <g id="ytick_15">
     <g id="line2d_53">
      <g>
       <use xlink:href="#m43a100b3bd" x="57.6" y="245.47596" style="stroke: #000000; stroke-width: 0.6"/>
      </g>
     </g>
    </g>
    <g id="ytick_16">
     <g id="line2d_54">
      <g>
       <use xlink:href="#m43a100b3bd" x="57.6" y="241.720692" style="stroke: #000000; stroke-width: 0.6"/>
      </g>
     </g>
    </g>
    <g id="ytick_17">
     <g id="line2d_55">
      <g>
       <use xlink:href="#m43a100b3bd" x="57.6" y="238.467732" style="stroke: #000000; stroke-width: 0.6"/>
      </g>
     </g>
    </g>
    <g id="ytick_18">
     <g id="line2d_56">
      <g>
       <use xlink:href="#m43a100b3bd" x="57.6" y="235.598417" style="stroke: #000000; stroke-width: 0.6"/>
      </g>
     </g>
    </g>
    <g id="ytick_19">
     <g id="line2d_57">
      <g>
       <use xlink:href="#m43a100b3bd" x="57.6" y="216.145958" style="stroke: #000000; stroke-width: 0.6"/>
      </g>
     </g>
    </g>
    <g id="ytick_20">
     <g id="line2d_58">
      <g>
       <use xlink:href="#m43a100b3bd" x="57.6" y="206.268415" style="stroke: #000000; stroke-width: 0.6"/>
      </g>
     </g>
    </g>
    <g id="ytick_21">
     <g id="line2d_59">
      <g>
       <use xlink:href="#m43a100b3bd" x="57.6" y="199.260187" style="stroke: #000000; stroke-width: 0.6"/>
      </g>
     </g>
    </g>
    <g id="ytick_22">
     <g id="line2d_60">
      <g>
       <use xlink:href="#m43a100b3bd" x="57.6" y="193.824184" style="stroke: #000000; stroke-width: 0.6"/>
      </g>
     </g>
    </g>
    <g id="ytick_23">
     <g id="line2d_61">
      <g>
       <use xlink:href="#m43a100b3bd" x="57.6" y="189.382645" style="stroke: #000000; stroke-width: 0.6"/>
      </g>
     </g>
    </g>
    <g id="ytick_24">
     <g id="line2d_62">
      <g>
       <use xlink:href="#m43a100b3bd" x="57.6" y="185.627378" style="stroke: #000000; stroke-width: 0.6"/>
      </g>
     </g>
    </g>
    <g id="ytick_25">
     <g id="line2d_63">
      <g>
       <use xlink:href="#m43a100b3bd" x="57.6" y="182.374417" style="stroke: #000000; stroke-width: 0.6"/>
      </g>
     </g>
    </g>
    <g id="ytick_26">
     <g id="line2d_64">
      <g>
       <use xlink:href="#m43a100b3bd" x="57.6" y="179.505103" style="stroke: #000000; stroke-width: 0.6"/>
      </g>
     </g>
    </g>
    <g id="ytick_27">
     <g id="line2d_65">
      <g>
       <use xlink:href="#m43a100b3bd" x="57.6" y="160.052643" style="stroke: #000000; stroke-width: 0.6"/>
      </g>
     </g>
    </g>
    <g id="ytick_28">
     <g id="line2d_66">
      <g>
       <use xlink:href="#m43a100b3bd" x="57.6" y="150.175101" style="stroke: #000000; stroke-width: 0.6"/>
      </g>
     </g>
    </g>
    <g id="ytick_29">
     <g id="line2d_67">
      <g>
       <use xlink:href="#m43a100b3bd" x="57.6" y="143.166873" style="stroke: #000000; stroke-width: 0.6"/>
      </g>
     </g>
    </g>
    <g id="ytick_30">
     <g id="line2d_68">
      <g>
       <use xlink:href="#m43a100b3bd" x="57.6" y="137.730869" style="stroke: #000000; stroke-width: 0.6"/>
      </g>
     </g>
    </g>
    <g id="ytick_31">
     <g id="line2d_69">
      <g>
       <use xlink:href="#m43a100b3bd" x="57.6" y="133.28933" style="stroke: #000000; stroke-width: 0.6"/>
      </g>
     </g>
    </g>
    <g id="ytick_32">
     <g id="line2d_70">
      <g>
       <use xlink:href="#m43a100b3bd" x="57.6" y="129.534063" style="stroke: #000000; stroke-width: 0.6"/>
      </g>
     </g>
    </g>
    <g id="ytick_33">
     <g id="line2d_71">
      <g>
       <use xlink:href="#m43a100b3bd" x="57.6" y="126.281103" style="stroke: #000000; stroke-width: 0.6"/>
      </g>
     </g>
    </g>
    <g id="ytick_34">
     <g id="line2d_72">
      <g>
       <use xlink:href="#m43a100b3bd" x="57.6" y="123.411788" style="stroke: #000000; stroke-width: 0.6"/>
      </g>
     </g>
    </g>
    <g id="ytick_35">
     <g id="line2d_73">
      <g>
       <use xlink:href="#m43a100b3bd" x="57.6" y="103.959328" style="stroke: #000000; stroke-width: 0.6"/>
      </g>
     </g>
    </g>
    <g id="ytick_36">
     <g id="line2d_74">
      <g>
       <use xlink:href="#m43a100b3bd" x="57.6" y="94.081786" style="stroke: #000000; stroke-width: 0.6"/>
      </g>
     </g>
    </g>
    <g id="ytick_37">
     <g id="line2d_75">
      <g>
       <use xlink:href="#m43a100b3bd" x="57.6" y="87.073558" style="stroke: #000000; stroke-width: 0.6"/>
      </g>
     </g>
    </g>
    <g id="ytick_38">
     <g id="line2d_76">
      <g>
       <use xlink:href="#m43a100b3bd" x="57.6" y="81.637554" style="stroke: #000000; stroke-width: 0.6"/>
      </g>
     </g>
    </g>
    <g id="ytick_39">
     <g id="line2d_77">
      <g>
       <use xlink:href="#m43a100b3bd" x="57.6" y="77.196016" style="stroke: #000000; stroke-width: 0.6"/>
      </g>
     </g>
    </g>
    <g id="ytick_40">
     <g id="line2d_78">
      <g>
       <use xlink:href="#m43a100b3bd" x="57.6" y="73.440748" style="stroke: #000000; stroke-width: 0.6"/>
      </g>
     </g>
    </g>
    <g id="ytick_41">
     <g id="line2d_79">
      <g>
       <use xlink:href="#m43a100b3bd" x="57.6" y="70.187788" style="stroke: #000000; stroke-width: 0.6"/>
      </g>
     </g>
    </g>
    <g id="ytick_42">
     <g id="line2d_80">
      <g>
       <use xlink:href="#m43a100b3bd" x="57.6" y="67.318473" style="stroke: #000000; stroke-width: 0.6"/>
      </g>
     </g>
    </g>
    <g id="ytick_43">
     <g id="line2d_81">
      <g>
       <use xlink:href="#m43a100b3bd" x="57.6" y="47.866014" style="stroke: #000000; stroke-width: 0.6"/>
      </g>
     </g>
    </g>
    <g id="text_11">
     <!-- loss -->
     <g transform="translate(21.020313 184.185812) rotate(-90) scale(0.1 -0.1)">
      <defs>
       <path id="DejaVuSans-6c" d="M 603 4863 
L 1178 4863 
L 1178 0 
L 603 0 
L 603 4863 
z
" transform="scale(0.015625)"/>
       <path id="DejaVuSans-6f" d="M 1959 3097 
Q 1497 3097 1228 2736 
Q 959 2375 959 1747 
Q 959 1119 1226 758 
Q 1494 397 1959 397 
Q 2419 397 2687 759 
Q 2956 1122 2956 1747 
Q 2956 2369 2687 2733 
Q 2419 3097 1959 3097 
z
M 1959 3584 
Q 2709 3584 3137 3096 
Q 3566 2609 3566 1747 
Q 3566 888 3137 398 
Q 2709 -91 1959 -91 
Q 1206 -91 779 398 
Q 353 888 353 1747 
Q 353 2609 779 3096 
Q 1206 3584 1959 3584 
z
" transform="scale(0.015625)"/>
       <path id="DejaVuSans-73" d="M 2834 3397 
L 2834 2853 
Q 2591 2978 2328 3040 
Q 2066 3103 1784 3103 
Q 1356 3103 1142 2972 
Q 928 2841 928 2578 
Q 928 2378 1081 2264 
Q 1234 2150 1697 2047 
L 1894 2003 
Q 2506 1872 2764 1633 
Q 3022 1394 3022 966 
Q 3022 478 2636 193 
Q 2250 -91 1575 -91 
Q 1294 -91 989 -36 
Q 684 19 347 128 
L 347 722 
Q 666 556 975 473 
Q 1284 391 1588 391 
Q 1994 391 2212 530 
Q 2431 669 2431 922 
Q 2431 1156 2273 1281 
Q 2116 1406 1581 1522 
L 1381 1569 
Q 847 1681 609 1914 
Q 372 2147 372 2553 
Q 372 3047 722 3315 
Q 1072 3584 1716 3584 
Q 2034 3584 2315 3537 
Q 2597 3491 2834 3397 
z
" transform="scale(0.015625)"/>
      </defs>
      <use xlink:href="#DejaVuSans-6c"/>
      <use xlink:href="#DejaVuSans-6f" x="27.783203"/>
      <use xlink:href="#DejaVuSans-73" x="88.964844"/>
      <use xlink:href="#DejaVuSans-73" x="141.064453"/>
     </g>
    </g>
   </g>
   <g id="line2d_82">
    <path d="M 73.832727 53.568 
L 100.084108 68.834984 
L 115.440181 96.110185 
L 126.335489 92.794421 
L 134.786546 92.655439 
L 141.691562 92.654374 
L 147.52967 92.826034 
L 152.58687 93.065118 
L 157.047635 93.242807 
L 161.037927 93.338642 
L 164.647584 93.420103 
L 167.942943 93.55702 
L 170.974379 93.752723 
L 173.781051 93.988096 
L 176.394 94.226948 
L 178.83825 94.441187 
L 181.134271 94.629906 
L 183.299016 94.815222 
L 185.34669 95.003212 
L 187.289307 95.213061 
L 189.137124 95.435632 
L 190.898965 95.674465 
L 192.582475 95.914924 
L 194.194324 96.147362 
L 195.740364 96.371246 
L 197.22576 96.585373 
L 198.65509 96.801594 
L 200.032432 97.025432 
L 201.361436 97.257674 
L 202.645381 97.495657 
L 203.887221 97.735215 
L 205.089631 97.975215 
L 206.255038 98.208773 
L 207.385651 98.437094 
L 208.483489 98.664186 
L 209.550397 98.890651 
L 210.588071 99.127111 
L 211.598071 99.359652 
L 212.581833 99.598843 
L 214.475865 100.072583 
L 218.833855 101.242637 
L 221.991745 102.200672 
L 225.601402 103.386713 
L 229.522771 104.824902 
L 233.075944 106.262892 
L 236.324169 107.704964 
L 239.792069 109.376714 
L 243.401726 111.289183 
L 247.089552 113.445447 
L 250.805544 115.836781 
L 254.511611 118.462093 
L 257.887124 121.0775 
L 261.523461 124.160072 
L 265.326594 127.708233 
L 268.782431 131.260579 
L 272.352033 135.275727 
L 275.979902 139.776 
L 279.622651 144.738157 
L 283.24734 150.074824 
L 286.829662 156.026038 
L 290.47659 162.759091 
L 294.029763 169.968801 
L 297.690773 178.069572 
L 301.30976 186.921463 
L 304.868502 196.261858 
L 308.509025 206.381116 
L 312.11167 216.678204 
L 315.721327 228.715239 
L 319.307792 238.666304 
L 322.901629 249.995486 
L 326.520875 260.431375 
L 330.130532 269.700917 
L 333.744152 264.597473 
L 337.332194 271.816623 
L 340.971323 274.41501 
L 344.560144 282.810726 
L 348.164388 277.244 
L 351.776506 269.982808 
L 355.388401 277.467156 
L 358.991957 275.111753 
L 362.616404 284.103825 
L 366.227741 278.899003 
L 369.831288 285.23716 
L 373.442334 271.454027 
L 377.043153 275.986191 
L 380.653958 295.488 
L 384.264659 280.454029 
L 387.875265 281.844951 
L 391.483198 293.844219 
L 395.092071 285.64341 
" clip-path="url(#pf997b2baff)" style="fill: none; stroke-dasharray: 5.55,2.4; stroke-dashoffset: 0; stroke: #1f77b4; stroke-opacity: 0.4; stroke-width: 1.5"/>
   </g>
   <g id="line2d_83">
    <path d="M 73.832727 112.002933 
L 231.928198 202.603147 
L 257.887124 195.938523 
L 273.145208 207.24826 
L 283.991425 219.161815 
L 292.412998 229.223202 
L 299.298345 237.324973 
L 305.122398 241.360302 
L 310.169052 242.865122 
L 314.621614 242.197341 
L 318.605341 248.189742 
L 322.209627 232.549099 
L 325.500509 249.440265 
L 328.528157 248.674096 
L 331.331581 225.609878 
L 333.941715 252.315494 
L 336.383502 251.584808 
L 338.677349 251.130316 
L 340.840162 222.921038 
L 342.886107 235.034596 
L 344.827168 254.380297 
L 346.673577 238.904516 
L 348.434138 249.175446 
L 350.116479 224.287144 
L 351.727257 246.537049 
L 353.272312 239.006343 
L 354.756798 225.497181 
L 356.185285 254.970981 
L 357.561845 252.707204 
L 358.890121 243.471827 
L 360.173385 232.34417 
L 361.41459 243.311663 
L 362.616404 250.241206 
L 362.929327 256.001678 
L 364.084734 225.760407 
L 365.205933 243.36424 
L 366.294891 230.455355 
L 367.353412 226.869996 
L 368.383151 228.967649 
L 369.385631 252.298558 
L 370.362258 230.93288 
L 371.314333 225.390831 
L 372.24306 211.853248 
L 373.149556 242.359655 
L 374.034861 234.18798 
L 374.899944 255.300115 
L 375.745706 242.913966 
L 376.572994 245.862272 
L 377.382595 221.225921 
L 378.175252 265.268588 
L 378.951658 257.394651 
L 379.712467 257.115932 
L 380.458292 241.20949 
L 381.189714 257.146814 
L 381.907277 258.271365 
L 382.611497 232.580776 
L 383.302861 254.110713 
L 383.98183 214.221687 
L 384.648841 219.187825 
L 385.304308 224.862264 
L 385.948623 248.433781 
L 386.58216 256.016725 
L 387.205273 225.09842 
L 387.818299 239.85493 
L 388.421561 228.755866 
L 389.015365 230.282538 
L 389.171541 228.225916 
L 389.75379 253.872796 
L 390.327223 236.75178 
L 390.892103 262.726538 
L 391.448682 241.46515 
L 391.997199 230.119114 
L 392.537885 258.307724 
L 393.070961 231.348279 
L 393.596637 254.170839 
L 394.115117 264.42515 
L 394.626594 235.81334 
L 395.131256 239.447208 
L 395.629282 236.758799 
L 396.120843 255.914539 
L 396.606106 226.617365 
L 397.08523 244.751619 
L 397.558368 221.276074 
L 398.025668 254.928943 
L 398.487273 236.5851 
" clip-path="url(#pf997b2baff)" style="fill: none; stroke: #1f77b4; stroke-opacity: 0.2; stroke-width: 1.5; stroke-linecap: square"/>
   </g>
   <g id="line2d_84">
    <path d="M 73.832727 112.002933 
L 231.928198 202.603147 
L 257.887124 202.603147 
L 273.145208 207.24826 
L 283.991425 219.161815 
L 292.412998 229.223202 
L 299.298345 237.324973 
L 305.122398 241.360302 
L 310.169052 242.865122 
L 314.621614 242.865122 
L 318.605341 248.189742 
L 322.209627 248.189742 
L 325.500509 249.440265 
L 328.528157 249.440265 
L 331.331581 249.440265 
L 333.941715 252.315494 
L 336.383502 252.315494 
L 338.677349 252.315494 
L 340.840162 252.315494 
L 342.886107 252.315494 
L 344.827168 254.380297 
L 346.673577 254.380297 
L 348.434138 254.380297 
L 350.116479 254.380297 
L 351.727257 254.380297 
L 353.272312 254.380297 
L 354.756798 254.380297 
L 356.185285 254.970981 
L 357.561845 254.970981 
L 358.890121 254.970981 
L 360.173385 254.970981 
L 361.41459 254.970981 
L 362.616404 254.970981 
L 362.929327 256.001678 
L 364.084734 256.001678 
L 365.205933 256.001678 
L 366.294891 256.001678 
L 367.353412 256.001678 
L 368.383151 256.001678 
L 369.385631 256.001678 
L 370.362258 256.001678 
L 371.314333 256.001678 
L 372.24306 256.001678 
L 373.149556 256.001678 
L 374.034861 256.001678 
L 374.899944 256.001678 
L 375.745706 256.001678 
L 376.572994 256.001678 
L 377.382595 256.001678 
L 378.175252 265.268588 
L 378.951658 265.268588 
L 379.712467 265.268588 
L 380.458292 265.268588 
L 381.189714 265.268588 
L 381.907277 265.268588 
L 382.611497 265.268588 
L 383.302861 265.268588 
L 383.98183 265.268588 
L 384.648841 265.268588 
L 385.304308 265.268588 
L 385.948623 265.268588 
L 386.58216 265.268588 
L 387.205273 265.268588 
L 387.818299 265.268588 
L 388.421561 265.268588 
L 389.015365 265.268588 
L 389.171541 265.268588 
L 389.75379 265.268588 
L 390.327223 265.268588 
L 390.892103 265.268588 
L 391.448682 265.268588 
L 391.997199 265.268588 
L 392.537885 265.268588 
L 393.070961 265.268588 
L 393.596637 265.268588 
L 394.115117 265.268588 
L 394.626594 265.268588 
L 395.131256 265.268588 
L 395.629282 265.268588 
L 396.120843 265.268588 
L 396.606106 265.268588 
L 397.08523 265.268588 
L 397.558368 265.268588 
L 398.025668 265.268588 
L 398.487273 265.268588 
" clip-path="url(#pf997b2baff)" style="fill: none; stroke: #1f77b4; stroke-opacity: 0.9; stroke-width: 1.5; stroke-linecap: square"/>
   </g>
   <g id="line2d_85">
    <path d="M 73.832727 131.123431 
L 100.084108 130.386264 
L 115.440181 129.973076 
L 126.335489 129.992164 
L 134.786546 130.004493 
L 141.691562 130.009734 
L 147.52967 130.012463 
L 152.58687 130.023884 
L 157.047635 130.026697 
L 161.037927 130.025876 
L 164.647584 130.03892 
L 167.942943 130.048756 
L 170.974379 130.054286 
L 173.781051 130.068847 
L 176.394 130.088676 
L 178.83825 130.103345 
L 181.134271 130.107076 
L 183.299016 130.117871 
L 185.34669 130.116358 
L 187.289307 130.12535 
L 189.137124 130.130402 
L 190.898965 130.145809 
L 192.582475 130.15553 
L 194.194324 130.174843 
L 195.740364 130.188354 
L 197.22576 130.201188 
L 198.65509 130.220233 
L 200.032432 130.227236 
L 201.361436 130.243609 
L 202.645381 130.253585 
L 203.887221 130.259677 
L 205.089631 130.276193 
L 206.255038 130.287388 
L 207.385651 130.295408 
L 208.483489 130.308951 
L 209.550397 130.311716 
L 210.588071 130.325026 
L 211.598071 130.312643 
L 212.581833 130.32347 
L 214.475865 130.333554 
L 218.833855 130.359868 
L 221.991745 130.405368 
L 225.601402 130.446772 
L 229.522771 130.511905 
L 233.075944 130.563811 
L 236.324169 130.631465 
L 239.792069 130.696536 
L 243.401726 130.7723 
L 247.089552 130.858413 
L 250.805544 130.960804 
L 254.511611 131.083549 
L 257.887124 131.188724 
L 261.523461 131.284853 
L 265.326594 131.426359 
L 268.782431 131.556979 
L 272.352033 131.712796 
L 275.979902 131.868018 
L 279.622651 132.030947 
L 283.24734 132.147568 
L 286.829662 132.311644 
L 290.47659 132.461046 
L 294.029763 132.598181 
L 297.690773 132.648605 
L 301.30976 132.703209 
L 304.868502 132.81966 
L 308.509025 132.909773 
L 312.11167 132.937817 
L 315.721327 133.016071 
L 319.307792 133.054849 
L 322.901629 133.042468 
L 326.520875 133.056057 
L 330.130532 133.123545 
L 333.744152 133.146391 
L 337.332194 133.176662 
L 340.971323 133.175215 
L 344.560144 133.211002 
L 348.164388 133.207682 
L 351.776506 133.188209 
L 355.388401 133.197726 
L 358.991957 133.228 
L 362.616404 133.20241 
L 366.227741 133.235046 
L 369.831288 133.245032 
L 373.442334 133.236281 
L 377.043153 133.239422 
L 380.653958 133.257962 
L 384.264659 133.253128 
L 387.875265 133.249533 
L 391.483198 133.253599 
L 395.092071 133.255906 
" clip-path="url(#pf997b2baff)" style="fill: none; stroke-dasharray: 5.55,2.4; stroke-dashoffset: 0; stroke: #ff7f0e; stroke-opacity: 0.4; stroke-width: 1.5"/>
   </g>
   <g id="line2d_86">
    <path d="M 73.832727 183.693624 
L 231.928198 197.427798 
L 257.887124 200.979671 
L 273.145208 208.507509 
L 283.991425 214.560818 
L 292.412998 216.334458 
L 299.298345 210.145033 
L 305.122398 221.760479 
L 310.169052 213.773047 
L 314.621614 218.84828 
L 318.605341 226.197697 
L 322.209627 219.94947 
L 325.500509 224.121182 
L 328.528157 232.517309 
L 331.331581 225.711924 
L 333.941715 231.414303 
L 336.383502 224.72579 
L 338.677349 235.386112 
L 340.840162 217.544089 
L 342.886107 231.624476 
L 344.827168 232.834328 
L 346.673577 233.556007 
L 348.434138 229.644639 
L 350.116479 231.825993 
L 351.727257 234.862405 
L 353.272312 229.041822 
L 354.756798 235.785442 
L 356.185285 235.442354 
L 357.561845 227.752318 
L 358.890121 241.412916 
L 360.173385 230.230202 
L 361.41459 239.404127 
L 362.616404 216.147636 
L 362.929327 239.030803 
L 364.084734 238.500057 
L 365.205933 236.747406 
L 366.294891 235.062245 
L 367.353412 236.27044 
L 368.383151 243.334808 
L 369.385631 243.377031 
L 370.362258 221.959091 
L 371.314333 238.04256 
L 372.24306 236.876054 
L 373.149556 241.198544 
L 374.034861 229.930132 
L 374.899944 223.680036 
L 375.745706 241.915047 
L 376.572994 240.891146 
L 377.382595 237.85022 
L 378.175252 233.529613 
L 378.951658 241.893277 
L 379.712467 244.915363 
L 380.458292 245.157397 
L 381.189714 234.334549 
L 381.907277 247.877109 
L 382.611497 245.72266 
L 383.302861 232.221231 
L 383.98183 245.62952 
L 384.648841 245.77893 
L 385.304308 244.87244 
L 385.948623 245.398898 
L 386.58216 247.733486 
L 387.205273 233.839834 
L 387.818299 236.312677 
L 388.421561 221.44828 
L 389.015365 246.157827 
L 389.171541 238.652426 
L 389.75379 245.077244 
L 390.327223 246.301608 
L 390.892103 246.821289 
L 391.448682 241.815435 
L 391.997199 246.55696 
L 392.537885 240.330842 
L 393.070961 244.669736 
L 393.596637 244.726473 
L 394.115117 231.955206 
L 394.626594 248.216762 
L 395.131256 245.003022 
L 395.629282 239.820576 
L 396.120843 244.188169 
L 396.606106 246.376231 
L 397.08523 248.77645 
L 397.558368 231.794011 
L 398.025668 246.40013 
L 398.487273 243.732046 
" clip-path="url(#pf997b2baff)" style="fill: none; stroke: #ff7f0e; stroke-opacity: 0.2; stroke-width: 1.5; stroke-linecap: square"/>
   </g>
   <g id="line2d_87">
    <path d="M 73.832727 183.693624 
L 231.928198 197.427798 
L 257.887124 200.979671 
L 273.145208 208.507509 
L 283.991425 214.560818 
L 292.412998 216.334458 
L 299.298345 216.334458 
L 305.122398 221.760479 
L 310.169052 221.760479 
L 314.621614 221.760479 
L 318.605341 226.197697 
L 322.209627 226.197697 
L 325.500509 226.197697 
L 328.528157 232.517309 
L 331.331581 232.517309 
L 333.941715 232.517309 
L 336.383502 232.517309 
L 338.677349 235.386112 
L 340.840162 235.386112 
L 342.886107 235.386112 
L 344.827168 235.386112 
L 346.673577 235.386112 
L 348.434138 235.386112 
L 350.116479 235.386112 
L 351.727257 235.386112 
L 353.272312 235.386112 
L 354.756798 235.785442 
L 356.185285 235.785442 
L 357.561845 235.785442 
L 358.890121 241.412916 
L 360.173385 241.412916 
L 361.41459 241.412916 
L 362.616404 241.412916 
L 362.929327 241.412916 
L 364.084734 241.412916 
L 365.205933 241.412916 
L 366.294891 241.412916 
L 367.353412 241.412916 
L 368.383151 243.334808 
L 369.385631 243.377031 
L 370.362258 243.377031 
L 371.314333 243.377031 
L 372.24306 243.377031 
L 373.149556 243.377031 
L 374.034861 243.377031 
L 374.899944 243.377031 
L 375.745706 243.377031 
L 376.572994 243.377031 
L 377.382595 243.377031 
L 378.175252 243.377031 
L 378.951658 243.377031 
L 379.712467 244.915363 
L 380.458292 245.157397 
L 381.189714 245.157397 
L 381.907277 247.877109 
L 382.611497 247.877109 
L 383.302861 247.877109 
L 383.98183 247.877109 
L 384.648841 247.877109 
L 385.304308 247.877109 
L 385.948623 247.877109 
L 386.58216 247.877109 
L 387.205273 247.877109 
L 387.818299 247.877109 
L 388.421561 247.877109 
L 389.015365 247.877109 
L 389.171541 247.877109 
L 389.75379 247.877109 
L 390.327223 247.877109 
L 390.892103 247.877109 
L 391.448682 247.877109 
L 391.997199 247.877109 
L 392.537885 247.877109 
L 393.070961 247.877109 
L 393.596637 247.877109 
L 394.115117 247.877109 
L 394.626594 248.216762 
L 395.131256 248.216762 
L 395.629282 248.216762 
L 396.120843 248.216762 
L 396.606106 248.216762 
L 397.08523 248.77645 
L 397.558368 248.77645 
L 398.025668 248.77645 
L 398.487273 248.77645 
" clip-path="url(#pf997b2baff)" style="fill: none; stroke: #ff7f0e; stroke-opacity: 0.9; stroke-width: 1.5; stroke-linecap: square"/>
   </g>
   <g id="patch_3">
    <path d="M 57.6 307.584 
L 57.6 41.472 
" style="fill: none; stroke: #000000; stroke-width: 0.8; stroke-linejoin: miter; stroke-linecap: square"/>
   </g>
   <g id="patch_4">
    <path d="M 414.72 307.584 
L 414.72 41.472 
" style="fill: none; stroke: #000000; stroke-width: 0.8; stroke-linejoin: miter; stroke-linecap: square"/>
   </g>
   <g id="patch_5">
    <path d="M 57.6 307.584 
L 414.72 307.584 
" style="fill: none; stroke: #000000; stroke-width: 0.8; stroke-linejoin: miter; stroke-linecap: square"/>
   </g>
   <g id="patch_6">
    <path d="M 57.6 41.472 
L 414.72 41.472 
" style="fill: none; stroke: #000000; stroke-width: 0.8; stroke-linejoin: miter; stroke-linecap: square"/>
   </g>
   <g id="text_12">
    <!-- 2025-02-14-03:51:53 -->
    <g transform="translate(172.178438 35.472) scale(0.12 -0.12)">
     <defs>
      <path id="DejaVuSans-35" d="M 691 4666 
L 3169 4666 
L 3169 4134 
L 1269 4134 
L 1269 2991 
Q 1406 3038 1543 3061 
Q 1681 3084 1819 3084 
Q 2600 3084 3056 2656 
Q 3513 2228 3513 1497 
Q 3513 744 3044 326 
Q 2575 -91 1722 -91 
Q 1428 -91 1123 -41 
Q 819 9 494 109 
L 494 744 
Q 775 591 1075 516 
Q 1375 441 1709 441 
Q 2250 441 2565 725 
Q 2881 1009 2881 1497 
Q 2881 1984 2565 2268 
Q 2250 2553 1709 2553 
Q 1456 2553 1204 2497 
Q 953 2441 691 2322 
L 691 4666 
z
" transform="scale(0.015625)"/>
      <path id="DejaVuSans-2d" d="M 313 2009 
L 1997 2009 
L 1997 1497 
L 313 1497 
L 313 2009 
z
" transform="scale(0.015625)"/>
      <path id="DejaVuSans-34" d="M 2419 4116 
L 825 1625 
L 2419 1625 
L 2419 4116 
z
M 2253 4666 
L 3047 4666 
L 3047 1625 
L 3713 1625 
L 3713 1100 
L 3047 1100 
L 3047 0 
L 2419 0 
L 2419 1100 
L 313 1100 
L 313 1709 
L 2253 4666 
z
" transform="scale(0.015625)"/>
      <path id="DejaVuSans-3a" d="M 750 794 
L 1409 794 
L 1409 0 
L 750 0 
L 750 794 
z
M 750 3309 
L 1409 3309 
L 1409 2516 
L 750 2516 
L 750 3309 
z
" transform="scale(0.015625)"/>
     </defs>
     <use xlink:href="#DejaVuSans-32"/>
     <use xlink:href="#DejaVuSans-30" x="63.623047"/>
     <use xlink:href="#DejaVuSans-32" x="127.246094"/>
     <use xlink:href="#DejaVuSans-35" x="190.869141"/>
     <use xlink:href="#DejaVuSans-2d" x="254.492188"/>
     <use xlink:href="#DejaVuSans-30" x="290.576172"/>
     <use xlink:href="#DejaVuSans-32" x="354.199219"/>
     <use xlink:href="#DejaVuSans-2d" x="417.822266"/>
     <use xlink:href="#DejaVuSans-31" x="453.90625"/>
     <use xlink:href="#DejaVuSans-34" x="517.529297"/>
     <use xlink:href="#DejaVuSans-2d" x="581.152344"/>
     <use xlink:href="#DejaVuSans-30" x="617.236328"/>
     <use xlink:href="#DejaVuSans-33" x="680.859375"/>
     <use xlink:href="#DejaVuSans-3a" x="744.482422"/>
     <use xlink:href="#DejaVuSans-35" x="778.173828"/>
     <use xlink:href="#DejaVuSans-31" x="841.796875"/>
     <use xlink:href="#DejaVuSans-3a" x="905.419922"/>
     <use xlink:href="#DejaVuSans-35" x="939.111328"/>
     <use xlink:href="#DejaVuSans-33" x="1002.734375"/>
    </g>
   </g>
   <g id="legend_1">
    <g id="patch_7">
     <path d="M 272.171562 108.74075 
L 407.72 108.74075 
Q 409.72 108.74075 409.72 106.74075 
L 409.72 48.472 
Q 409.72 46.472 407.72 46.472 
L 272.171562 46.472 
Q 270.171562 46.472 270.171562 48.472 
L 270.171562 106.74075 
Q 270.171562 108.74075 272.171562 108.74075 
z
" style="fill: #ffffff; opacity: 0.8; stroke: #cccccc; stroke-linejoin: miter"/>
    </g>
    <g id="line2d_88">
     <path d="M 274.171562 54.570438 
L 284.171562 54.570438 
L 294.171562 54.570438 
" style="fill: none; stroke-dasharray: 5.55,2.4; stroke-dashoffset: 0; stroke: #1f77b4; stroke-opacity: 0.4; stroke-width: 1.5"/>
    </g>
    <g id="text_13">
     <!-- SchNet MEA -->
     <g transform="translate(302.171562 58.070438) scale(0.1 -0.1)">
      <defs>
       <path id="DejaVuSans-53" d="M 3425 4513 
L 3425 3897 
Q 3066 4069 2747 4153 
Q 2428 4238 2131 4238 
Q 1616 4238 1336 4038 
Q 1056 3838 1056 3469 
Q 1056 3159 1242 3001 
Q 1428 2844 1947 2747 
L 2328 2669 
Q 3034 2534 3370 2195 
Q 3706 1856 3706 1288 
Q 3706 609 3251 259 
Q 2797 -91 1919 -91 
Q 1588 -91 1214 -16 
Q 841 59 441 206 
L 441 856 
Q 825 641 1194 531 
Q 1563 422 1919 422 
Q 2459 422 2753 634 
Q 3047 847 3047 1241 
Q 3047 1584 2836 1778 
Q 2625 1972 2144 2069 
L 1759 2144 
Q 1053 2284 737 2584 
Q 422 2884 422 3419 
Q 422 4038 858 4394 
Q 1294 4750 2059 4750 
Q 2388 4750 2728 4690 
Q 3069 4631 3425 4513 
z
" transform="scale(0.015625)"/>
       <path id="DejaVuSans-63" d="M 3122 3366 
L 3122 2828 
Q 2878 2963 2633 3030 
Q 2388 3097 2138 3097 
Q 1578 3097 1268 2742 
Q 959 2388 959 1747 
Q 959 1106 1268 751 
Q 1578 397 2138 397 
Q 2388 397 2633 464 
Q 2878 531 3122 666 
L 3122 134 
Q 2881 22 2623 -34 
Q 2366 -91 2075 -91 
Q 1284 -91 818 406 
Q 353 903 353 1747 
Q 353 2603 823 3093 
Q 1294 3584 2113 3584 
Q 2378 3584 2631 3529 
Q 2884 3475 3122 3366 
z
" transform="scale(0.015625)"/>
       <path id="DejaVuSans-68" d="M 3513 2113 
L 3513 0 
L 2938 0 
L 2938 2094 
Q 2938 2591 2744 2837 
Q 2550 3084 2163 3084 
Q 1697 3084 1428 2787 
Q 1159 2491 1159 1978 
L 1159 0 
L 581 0 
L 581 4863 
L 1159 4863 
L 1159 2956 
Q 1366 3272 1645 3428 
Q 1925 3584 2291 3584 
Q 2894 3584 3203 3211 
Q 3513 2838 3513 2113 
z
" transform="scale(0.015625)"/>
       <path id="DejaVuSans-4e" d="M 628 4666 
L 1478 4666 
L 3547 763 
L 3547 4666 
L 4159 4666 
L 4159 0 
L 3309 0 
L 1241 3903 
L 1241 0 
L 628 0 
L 628 4666 
z
" transform="scale(0.015625)"/>
       <path id="DejaVuSans-20" transform="scale(0.015625)"/>
       <path id="DejaVuSans-4d" d="M 628 4666 
L 1569 4666 
L 2759 1491 
L 3956 4666 
L 4897 4666 
L 4897 0 
L 4281 0 
L 4281 4097 
L 3078 897 
L 2444 897 
L 1241 4097 
L 1241 0 
L 628 0 
L 628 4666 
z
" transform="scale(0.015625)"/>
       <path id="DejaVuSans-45" d="M 628 4666 
L 3578 4666 
L 3578 4134 
L 1259 4134 
L 1259 2753 
L 3481 2753 
L 3481 2222 
L 1259 2222 
L 1259 531 
L 3634 531 
L 3634 0 
L 628 0 
L 628 4666 
z
" transform="scale(0.015625)"/>
       <path id="DejaVuSans-41" d="M 2188 4044 
L 1331 1722 
L 3047 1722 
L 2188 4044 
z
M 1831 4666 
L 2547 4666 
L 4325 0 
L 3669 0 
L 3244 1197 
L 1141 1197 
L 716 0 
L 50 0 
L 1831 4666 
z
" transform="scale(0.015625)"/>
      </defs>
      <use xlink:href="#DejaVuSans-53"/>
      <use xlink:href="#DejaVuSans-63" x="63.476562"/>
      <use xlink:href="#DejaVuSans-68" x="118.457031"/>
      <use xlink:href="#DejaVuSans-4e" x="181.835938"/>
      <use xlink:href="#DejaVuSans-65" x="256.640625"/>
      <use xlink:href="#DejaVuSans-74" x="318.164062"/>
      <use xlink:href="#DejaVuSans-20" x="357.373047"/>
      <use xlink:href="#DejaVuSans-4d" x="389.160156"/>
      <use xlink:href="#DejaVuSans-45" x="475.439453"/>
      <use xlink:href="#DejaVuSans-41" x="538.623047"/>
     </g>
    </g>
    <g id="line2d_89">
     <path d="M 274.171562 69.248563 
L 284.171562 69.248563 
L 294.171562 69.248563 
" style="fill: none; stroke: #1f77b4; stroke-opacity: 0.9; stroke-width: 1.5; stroke-linecap: square"/>
    </g>
    <g id="text_14">
     <!-- schnet eval_loss -->
     <g transform="translate(302.171562 72.748563) scale(0.1 -0.1)">
      <defs>
       <path id="DejaVuSans-6e" d="M 3513 2113 
L 3513 0 
L 2938 0 
L 2938 2094 
Q 2938 2591 2744 2837 
Q 2550 3084 2163 3084 
Q 1697 3084 1428 2787 
Q 1159 2491 1159 1978 
L 1159 0 
L 581 0 
L 581 3500 
L 1159 3500 
L 1159 2956 
Q 1366 3272 1645 3428 
Q 1925 3584 2291 3584 
Q 2894 3584 3203 3211 
Q 3513 2838 3513 2113 
z
" transform="scale(0.015625)"/>
       <path id="DejaVuSans-76" d="M 191 3500 
L 800 3500 
L 1894 563 
L 2988 3500 
L 3597 3500 
L 2284 0 
L 1503 0 
L 191 3500 
z
" transform="scale(0.015625)"/>
       <path id="DejaVuSans-61" d="M 2194 1759 
Q 1497 1759 1228 1600 
Q 959 1441 959 1056 
Q 959 750 1161 570 
Q 1363 391 1709 391 
Q 2188 391 2477 730 
Q 2766 1069 2766 1631 
L 2766 1759 
L 2194 1759 
z
M 3341 1997 
L 3341 0 
L 2766 0 
L 2766 531 
Q 2569 213 2275 61 
Q 1981 -91 1556 -91 
Q 1019 -91 701 211 
Q 384 513 384 1019 
Q 384 1609 779 1909 
Q 1175 2209 1959 2209 
L 2766 2209 
L 2766 2266 
Q 2766 2663 2505 2880 
Q 2244 3097 1772 3097 
Q 1472 3097 1187 3025 
Q 903 2953 641 2809 
L 641 3341 
Q 956 3463 1253 3523 
Q 1550 3584 1831 3584 
Q 2591 3584 2966 3190 
Q 3341 2797 3341 1997 
z
" transform="scale(0.015625)"/>
       <path id="DejaVuSans-5f" d="M 3263 -1063 
L 3263 -1509 
L -63 -1509 
L -63 -1063 
L 3263 -1063 
z
" transform="scale(0.015625)"/>
      </defs>
      <use xlink:href="#DejaVuSans-73"/>
      <use xlink:href="#DejaVuSans-63" x="52.099609"/>
      <use xlink:href="#DejaVuSans-68" x="107.080078"/>
      <use xlink:href="#DejaVuSans-6e" x="170.458984"/>
      <use xlink:href="#DejaVuSans-65" x="233.837891"/>
      <use xlink:href="#DejaVuSans-74" x="295.361328"/>
      <use xlink:href="#DejaVuSans-20" x="334.570312"/>
      <use xlink:href="#DejaVuSans-65" x="366.357422"/>
      <use xlink:href="#DejaVuSans-76" x="427.880859"/>
      <use xlink:href="#DejaVuSans-61" x="487.060547"/>
      <use xlink:href="#DejaVuSans-6c" x="548.339844"/>
      <use xlink:href="#DejaVuSans-5f" x="576.123047"/>
      <use xlink:href="#DejaVuSans-6c" x="626.123047"/>
      <use xlink:href="#DejaVuSans-6f" x="653.90625"/>
      <use xlink:href="#DejaVuSans-73" x="715.087891"/>
      <use xlink:href="#DejaVuSans-73" x="767.1875"/>
     </g>
    </g>
    <g id="line2d_90">
     <path d="M 274.171562 84.204813 
L 284.171562 84.204813 
L 294.171562 84.204813 
" style="fill: none; stroke-dasharray: 5.55,2.4; stroke-dashoffset: 0; stroke: #ff7f0e; stroke-opacity: 0.4; stroke-width: 1.5"/>
    </g>
    <g id="text_15">
     <!-- MoGIN1 running loss -->
     <g transform="translate(302.171562 87.704813) scale(0.1 -0.1)">
      <defs>
       <path id="DejaVuSans-47" d="M 3809 666 
L 3809 1919 
L 2778 1919 
L 2778 2438 
L 4434 2438 
L 4434 434 
Q 4069 175 3628 42 
Q 3188 -91 2688 -91 
Q 1594 -91 976 548 
Q 359 1188 359 2328 
Q 359 3472 976 4111 
Q 1594 4750 2688 4750 
Q 3144 4750 3555 4637 
Q 3966 4525 4313 4306 
L 4313 3634 
Q 3963 3931 3569 4081 
Q 3175 4231 2741 4231 
Q 1884 4231 1454 3753 
Q 1025 3275 1025 2328 
Q 1025 1384 1454 906 
Q 1884 428 2741 428 
Q 3075 428 3337 486 
Q 3600 544 3809 666 
z
" transform="scale(0.015625)"/>
       <path id="DejaVuSans-49" d="M 628 4666 
L 1259 4666 
L 1259 0 
L 628 0 
L 628 4666 
z
" transform="scale(0.015625)"/>
       <path id="DejaVuSans-75" d="M 544 1381 
L 544 3500 
L 1119 3500 
L 1119 1403 
Q 1119 906 1312 657 
Q 1506 409 1894 409 
Q 2359 409 2629 706 
Q 2900 1003 2900 1516 
L 2900 3500 
L 3475 3500 
L 3475 0 
L 2900 0 
L 2900 538 
Q 2691 219 2414 64 
Q 2138 -91 1772 -91 
Q 1169 -91 856 284 
Q 544 659 544 1381 
z
M 1991 3584 
L 1991 3584 
z
" transform="scale(0.015625)"/>
       <path id="DejaVuSans-67" d="M 2906 1791 
Q 2906 2416 2648 2759 
Q 2391 3103 1925 3103 
Q 1463 3103 1205 2759 
Q 947 2416 947 1791 
Q 947 1169 1205 825 
Q 1463 481 1925 481 
Q 2391 481 2648 825 
Q 2906 1169 2906 1791 
z
M 3481 434 
Q 3481 -459 3084 -895 
Q 2688 -1331 1869 -1331 
Q 1566 -1331 1297 -1286 
Q 1028 -1241 775 -1147 
L 775 -588 
Q 1028 -725 1275 -790 
Q 1522 -856 1778 -856 
Q 2344 -856 2625 -561 
Q 2906 -266 2906 331 
L 2906 616 
Q 2728 306 2450 153 
Q 2172 0 1784 0 
Q 1141 0 747 490 
Q 353 981 353 1791 
Q 353 2603 747 3093 
Q 1141 3584 1784 3584 
Q 2172 3584 2450 3431 
Q 2728 3278 2906 2969 
L 2906 3500 
L 3481 3500 
L 3481 434 
z
" transform="scale(0.015625)"/>
      </defs>
      <use xlink:href="#DejaVuSans-4d"/>
      <use xlink:href="#DejaVuSans-6f" x="86.279297"/>
      <use xlink:href="#DejaVuSans-47" x="147.460938"/>
      <use xlink:href="#DejaVuSans-49" x="224.951172"/>
      <use xlink:href="#DejaVuSans-4e" x="254.443359"/>
      <use xlink:href="#DejaVuSans-31" x="329.248047"/>
      <use xlink:href="#DejaVuSans-20" x="392.871094"/>
      <use xlink:href="#DejaVuSans-72" x="424.658203"/>
      <use xlink:href="#DejaVuSans-75" x="465.771484"/>
      <use xlink:href="#DejaVuSans-6e" x="529.150391"/>
      <use xlink:href="#DejaVuSans-6e" x="592.529297"/>
      <use xlink:href="#DejaVuSans-69" x="655.908203"/>
      <use xlink:href="#DejaVuSans-6e" x="683.691406"/>
      <use xlink:href="#DejaVuSans-67" x="747.070312"/>
      <use xlink:href="#DejaVuSans-20" x="810.546875"/>
      <use xlink:href="#DejaVuSans-6c" x="842.333984"/>
      <use xlink:href="#DejaVuSans-6f" x="870.117188"/>
      <use xlink:href="#DejaVuSans-73" x="931.298828"/>
      <use xlink:href="#DejaVuSans-73" x="983.398438"/>
     </g>
    </g>
    <g id="line2d_91">
     <path d="M 274.171562 98.882938 
L 284.171562 98.882938 
L 294.171562 98.882938 
" style="fill: none; stroke: #ff7f0e; stroke-opacity: 0.9; stroke-width: 1.5; stroke-linecap: square"/>
    </g>
    <g id="text_16">
     <!-- MoGIN1 eval_loss -->
     <g transform="translate(302.171562 102.382938) scale(0.1 -0.1)">
      <use xlink:href="#DejaVuSans-4d"/>
      <use xlink:href="#DejaVuSans-6f" x="86.279297"/>
      <use xlink:href="#DejaVuSans-47" x="147.460938"/>
      <use xlink:href="#DejaVuSans-49" x="224.951172"/>
      <use xlink:href="#DejaVuSans-4e" x="254.443359"/>
      <use xlink:href="#DejaVuSans-31" x="329.248047"/>
      <use xlink:href="#DejaVuSans-20" x="392.871094"/>
      <use xlink:href="#DejaVuSans-65" x="424.658203"/>
      <use xlink:href="#DejaVuSans-76" x="486.181641"/>
      <use xlink:href="#DejaVuSans-61" x="545.361328"/>
      <use xlink:href="#DejaVuSans-6c" x="606.640625"/>
      <use xlink:href="#DejaVuSans-5f" x="634.423828"/>
      <use xlink:href="#DejaVuSans-6c" x="684.423828"/>
      <use xlink:href="#DejaVuSans-6f" x="712.207031"/>
      <use xlink:href="#DejaVuSans-73" x="773.388672"/>
      <use xlink:href="#DejaVuSans-73" x="825.488281"/>
     </g>
    </g>
   </g>
  </g>
 </g>
 <defs>
  <clipPath id="pf997b2baff">
   <rect x="57.6" y="41.472" width="357.12" height="266.112"/>
  </clipPath>
 </defs>
</svg>
