<?xml version="1.0" encoding="utf-8" standalone="no"?>
<!DOCTYPE svg PUBLIC "-//W3C//DTD SVG 1.1//EN"
  "http://www.w3.org/Graphics/SVG/1.1/DTD/svg11.dtd">
<svg xmlns:xlink="http://www.w3.org/1999/xlink" width="460.8pt" height="345.6pt" viewBox="0 0 460.8 345.6" xmlns="http://www.w3.org/2000/svg" version="1.1">
 <metadata>
  <rdf:RDF xmlns:dc="http://purl.org/dc/elements/1.1/" xmlns:cc="http://creativecommons.org/ns#" xmlns:rdf="http://www.w3.org/1999/02/22-rdf-syntax-ns#">
   <cc:Work>
    <dc:type rdf:resource="http://purl.org/dc/dcmitype/StillImage"/>
    <dc:date>2025-02-18T14:20:11.953539</dc:date>
    <dc:format>image/svg+xml</dc:format>
    <dc:creator>
     <cc:Agent>
      <dc:title>Matplotlib v3.8.4, https://matplotlib.org/</dc:title>
     </cc:Agent>
    </dc:creator>
   </cc:Work>
  </rdf:RDF>
 </metadata>
 <defs>
  <style type="text/css">*{stroke-linejoin: round; stroke-linecap: butt}</style>
 </defs>
 <g id="figure_1">
  <g id="patch_1">
   <path d="M 0 345.6 
L 460.8 345.6 
L 460.8 0 
L 0 0 
z
" style="fill: #ffffff"/>
  </g>
  <g id="axes_1">
   <g id="patch_2">
    <path d="M 57.6 307.584 
L 414.72 307.584 
L 414.72 41.472 
L 57.6 41.472 
z
" style="fill: #ffffff"/>
   </g>
   <g id="matplotlib.axis_1">
    <g id="xtick_1">
     <g id="line2d_1">
      <defs>
       <path id="mb58d418d56" d="M 0 0 
L 0 3.5 
" style="stroke: #000000; stroke-width: 0.8"/>
      </defs>
      <g>
       <use xlink:href="#mb58d418d56" x="57.6" y="307.584" style="stroke: #000000; stroke-width: 0.8"/>
      </g>
     </g>
     <g id="text_1">
      <!-- 8000 -->
      <g transform="translate(44.875 322.182437) scale(0.1 -0.1)">
       <defs>
        <path id="DejaVuSans-38" d="M 2034 2216 
Q 1584 2216 1326 1975 
Q 1069 1734 1069 1313 
Q 1069 891 1326 650 
Q 1584 409 2034 409 
Q 2484 409 2743 651 
Q 3003 894 3003 1313 
Q 3003 1734 2745 1975 
Q 2488 2216 2034 2216 
z
M 1403 2484 
Q 997 2584 770 2862 
Q 544 3141 544 3541 
Q 544 4100 942 4425 
Q 1341 4750 2034 4750 
Q 2731 4750 3128 4425 
Q 3525 4100 3525 3541 
Q 3525 3141 3298 2862 
Q 3072 2584 2669 2484 
Q 3125 2378 3379 2068 
Q 3634 1759 3634 1313 
Q 3634 634 3220 271 
Q 2806 -91 2034 -91 
Q 1263 -91 848 271 
Q 434 634 434 1313 
Q 434 1759 690 2068 
Q 947 2378 1403 2484 
z
M 1172 3481 
Q 1172 3119 1398 2916 
Q 1625 2713 2034 2713 
Q 2441 2713 2670 2916 
Q 2900 3119 2900 3481 
Q 2900 3844 2670 4047 
Q 2441 4250 2034 4250 
Q 1625 4250 1398 4047 
Q 1172 3844 1172 3481 
z
" transform="scale(0.015625)"/>
        <path id="DejaVuSans-30" d="M 2034 4250 
Q 1547 4250 1301 3770 
Q 1056 3291 1056 2328 
Q 1056 1369 1301 889 
Q 1547 409 2034 409 
Q 2525 409 2770 889 
Q 3016 1369 3016 2328 
Q 3016 3291 2770 3770 
Q 2525 4250 2034 4250 
z
M 2034 4750 
Q 2819 4750 3233 4129 
Q 3647 3509 3647 2328 
Q 3647 1150 3233 529 
Q 2819 -91 2034 -91 
Q 1250 -91 836 529 
Q 422 1150 422 2328 
Q 422 3509 836 4129 
Q 1250 4750 2034 4750 
z
" transform="scale(0.015625)"/>
       </defs>
       <use xlink:href="#DejaVuSans-38"/>
       <use xlink:href="#DejaVuSans-30" x="63.623047"/>
       <use xlink:href="#DejaVuSans-30" x="127.246094"/>
       <use xlink:href="#DejaVuSans-30" x="190.869141"/>
      </g>
     </g>
    </g>
    <g id="xtick_2">
     <g id="line2d_2">
      <g>
       <use xlink:href="#mb58d418d56" x="117.12" y="307.584" style="stroke: #000000; stroke-width: 0.8"/>
      </g>
     </g>
     <g id="text_2">
      <!-- 10000 -->
      <g transform="translate(101.21375 322.182437) scale(0.1 -0.1)">
       <defs>
        <path id="DejaVuSans-31" d="M 794 531 
L 1825 531 
L 1825 4091 
L 703 3866 
L 703 4441 
L 1819 4666 
L 2450 4666 
L 2450 531 
L 3481 531 
L 3481 0 
L 794 0 
L 794 531 
z
" transform="scale(0.015625)"/>
       </defs>
       <use xlink:href="#DejaVuSans-31"/>
       <use xlink:href="#DejaVuSans-30" x="63.623047"/>
       <use xlink:href="#DejaVuSans-30" x="127.246094"/>
       <use xlink:href="#DejaVuSans-30" x="190.869141"/>
       <use xlink:href="#DejaVuSans-30" x="254.492188"/>
      </g>
     </g>
    </g>
    <g id="xtick_3">
     <g id="line2d_3">
      <g>
       <use xlink:href="#mb58d418d56" x="176.64" y="307.584" style="stroke: #000000; stroke-width: 0.8"/>
      </g>
     </g>
     <g id="text_3">
      <!-- 12000 -->
      <g transform="translate(160.73375 322.182437) scale(0.1 -0.1)">
       <defs>
        <path id="DejaVuSans-32" d="M 1228 531 
L 3431 531 
L 3431 0 
L 469 0 
L 469 531 
Q 828 903 1448 1529 
Q 2069 2156 2228 2338 
Q 2531 2678 2651 2914 
Q 2772 3150 2772 3378 
Q 2772 3750 2511 3984 
Q 2250 4219 1831 4219 
Q 1534 4219 1204 4116 
Q 875 4013 500 3803 
L 500 4441 
Q 881 4594 1212 4672 
Q 1544 4750 1819 4750 
Q 2544 4750 2975 4387 
Q 3406 4025 3406 3419 
Q 3406 3131 3298 2873 
Q 3191 2616 2906 2266 
Q 2828 2175 2409 1742 
Q 1991 1309 1228 531 
z
" transform="scale(0.015625)"/>
       </defs>
       <use xlink:href="#DejaVuSans-31"/>
       <use xlink:href="#DejaVuSans-32" x="63.623047"/>
       <use xlink:href="#DejaVuSans-30" x="127.246094"/>
       <use xlink:href="#DejaVuSans-30" x="190.869141"/>
       <use xlink:href="#DejaVuSans-30" x="254.492188"/>
      </g>
     </g>
    </g>
    <g id="xtick_4">
     <g id="line2d_4">
      <g>
       <use xlink:href="#mb58d418d56" x="236.16" y="307.584" style="stroke: #000000; stroke-width: 0.8"/>
      </g>
     </g>
     <g id="text_4">
      <!-- 14000 -->
      <g transform="translate(220.25375 322.182437) scale(0.1 -0.1)">
       <defs>
        <path id="DejaVuSans-34" d="M 2419 4116 
L 825 1625 
L 2419 1625 
L 2419 4116 
z
M 2253 4666 
L 3047 4666 
L 3047 1625 
L 3713 1625 
L 3713 1100 
L 3047 1100 
L 3047 0 
L 2419 0 
L 2419 1100 
L 313 1100 
L 313 1709 
L 2253 4666 
z
" transform="scale(0.015625)"/>
       </defs>
       <use xlink:href="#DejaVuSans-31"/>
       <use xlink:href="#DejaVuSans-34" x="63.623047"/>
       <use xlink:href="#DejaVuSans-30" x="127.246094"/>
       <use xlink:href="#DejaVuSans-30" x="190.869141"/>
       <use xlink:href="#DejaVuSans-30" x="254.492188"/>
      </g>
     </g>
    </g>
    <g id="xtick_5">
     <g id="line2d_5">
      <g>
       <use xlink:href="#mb58d418d56" x="295.68" y="307.584" style="stroke: #000000; stroke-width: 0.8"/>
      </g>
     </g>
     <g id="text_5">
      <!-- 16000 -->
      <g transform="translate(279.77375 322.182437) scale(0.1 -0.1)">
       <defs>
        <path id="DejaVuSans-36" d="M 2113 2584 
Q 1688 2584 1439 2293 
Q 1191 2003 1191 1497 
Q 1191 994 1439 701 
Q 1688 409 2113 409 
Q 2538 409 2786 701 
Q 3034 994 3034 1497 
Q 3034 2003 2786 2293 
Q 2538 2584 2113 2584 
z
M 3366 4563 
L 3366 3988 
Q 3128 4100 2886 4159 
Q 2644 4219 2406 4219 
Q 1781 4219 1451 3797 
Q 1122 3375 1075 2522 
Q 1259 2794 1537 2939 
Q 1816 3084 2150 3084 
Q 2853 3084 3261 2657 
Q 3669 2231 3669 1497 
Q 3669 778 3244 343 
Q 2819 -91 2113 -91 
Q 1303 -91 875 529 
Q 447 1150 447 2328 
Q 447 3434 972 4092 
Q 1497 4750 2381 4750 
Q 2619 4750 2861 4703 
Q 3103 4656 3366 4563 
z
" transform="scale(0.015625)"/>
       </defs>
       <use xlink:href="#DejaVuSans-31"/>
       <use xlink:href="#DejaVuSans-36" x="63.623047"/>
       <use xlink:href="#DejaVuSans-30" x="127.246094"/>
       <use xlink:href="#DejaVuSans-30" x="190.869141"/>
       <use xlink:href="#DejaVuSans-30" x="254.492188"/>
      </g>
     </g>
    </g>
    <g id="xtick_6">
     <g id="line2d_6">
      <g>
       <use xlink:href="#mb58d418d56" x="355.2" y="307.584" style="stroke: #000000; stroke-width: 0.8"/>
      </g>
     </g>
     <g id="text_6">
      <!-- 18000 -->
      <g transform="translate(339.29375 322.182437) scale(0.1 -0.1)">
       <use xlink:href="#DejaVuSans-31"/>
       <use xlink:href="#DejaVuSans-38" x="63.623047"/>
       <use xlink:href="#DejaVuSans-30" x="127.246094"/>
       <use xlink:href="#DejaVuSans-30" x="190.869141"/>
       <use xlink:href="#DejaVuSans-30" x="254.492188"/>
      </g>
     </g>
    </g>
    <g id="xtick_7">
     <g id="line2d_7">
      <g>
       <use xlink:href="#mb58d418d56" x="414.72" y="307.584" style="stroke: #000000; stroke-width: 0.8"/>
      </g>
     </g>
     <g id="text_7">
      <!-- 20000 -->
      <g transform="translate(398.81375 322.182437) scale(0.1 -0.1)">
       <use xlink:href="#DejaVuSans-32"/>
       <use xlink:href="#DejaVuSans-30" x="63.623047"/>
       <use xlink:href="#DejaVuSans-30" x="127.246094"/>
       <use xlink:href="#DejaVuSans-30" x="190.869141"/>
       <use xlink:href="#DejaVuSans-30" x="254.492188"/>
      </g>
     </g>
    </g>
    <g id="text_8">
     <!-- iter# -->
     <g transform="translate(223.488906 335.860562) scale(0.1 -0.1)">
      <defs>
       <path id="DejaVuSans-69" d="M 603 3500 
L 1178 3500 
L 1178 0 
L 603 0 
L 603 3500 
z
M 603 4863 
L 1178 4863 
L 1178 4134 
L 603 4134 
L 603 4863 
z
" transform="scale(0.015625)"/>
       <path id="DejaVuSans-74" d="M 1172 4494 
L 1172 3500 
L 2356 3500 
L 2356 3053 
L 1172 3053 
L 1172 1153 
Q 1172 725 1289 603 
Q 1406 481 1766 481 
L 2356 481 
L 2356 0 
L 1766 0 
Q 1100 0 847 248 
Q 594 497 594 1153 
L 594 3053 
L 172 3053 
L 172 3500 
L 594 3500 
L 594 4494 
L 1172 4494 
z
" transform="scale(0.015625)"/>
       <path id="DejaVuSans-65" d="M 3597 1894 
L 3597 1613 
L 953 1613 
Q 991 1019 1311 708 
Q 1631 397 2203 397 
Q 2534 397 2845 478 
Q 3156 559 3463 722 
L 3463 178 
Q 3153 47 2828 -22 
Q 2503 -91 2169 -91 
Q 1331 -91 842 396 
Q 353 884 353 1716 
Q 353 2575 817 3079 
Q 1281 3584 2069 3584 
Q 2775 3584 3186 3129 
Q 3597 2675 3597 1894 
z
M 3022 2063 
Q 3016 2534 2758 2815 
Q 2500 3097 2075 3097 
Q 1594 3097 1305 2825 
Q 1016 2553 972 2059 
L 3022 2063 
z
" transform="scale(0.015625)"/>
       <path id="DejaVuSans-72" d="M 2631 2963 
Q 2534 3019 2420 3045 
Q 2306 3072 2169 3072 
Q 1681 3072 1420 2755 
Q 1159 2438 1159 1844 
L 1159 0 
L 581 0 
L 581 3500 
L 1159 3500 
L 1159 2956 
Q 1341 3275 1631 3429 
Q 1922 3584 2338 3584 
Q 2397 3584 2469 3576 
Q 2541 3569 2628 3553 
L 2631 2963 
z
" transform="scale(0.015625)"/>
       <path id="DejaVuSans-23" d="M 3272 2816 
L 2363 2816 
L 2100 1772 
L 3016 1772 
L 3272 2816 
z
M 2803 4594 
L 2478 3297 
L 3391 3297 
L 3719 4594 
L 4219 4594 
L 3897 3297 
L 4872 3297 
L 4872 2816 
L 3775 2816 
L 3519 1772 
L 4513 1772 
L 4513 1294 
L 3397 1294 
L 3072 0 
L 2572 0 
L 2894 1294 
L 1978 1294 
L 1656 0 
L 1153 0 
L 1478 1294 
L 494 1294 
L 494 1772 
L 1594 1772 
L 1856 2816 
L 850 2816 
L 850 3297 
L 1978 3297 
L 2297 4594 
L 2803 4594 
z
" transform="scale(0.015625)"/>
      </defs>
      <use xlink:href="#DejaVuSans-69"/>
      <use xlink:href="#DejaVuSans-74" x="27.783203"/>
      <use xlink:href="#DejaVuSans-65" x="66.992188"/>
      <use xlink:href="#DejaVuSans-72" x="128.515625"/>
      <use xlink:href="#DejaVuSans-23" x="169.628906"/>
     </g>
    </g>
   </g>
   <g id="matplotlib.axis_2">
    <g id="ytick_1">
     <g id="line2d_8">
      <defs>
       <path id="mc3721f41bf" d="M 0 0 
L -3.5 0 
" style="stroke: #000000; stroke-width: 0.8"/>
      </defs>
      <g>
       <use xlink:href="#mc3721f41bf" x="57.6" y="245.254111" style="stroke: #000000; stroke-width: 0.8"/>
      </g>
     </g>
     <g id="text_9">
      <!-- $\mathdefault{10^{-2}}$ -->
      <g transform="translate(27.1 249.05333) scale(0.1 -0.1)">
       <defs>
        <path id="DejaVuSans-2212" d="M 678 2272 
L 4684 2272 
L 4684 1741 
L 678 1741 
L 678 2272 
z
" transform="scale(0.015625)"/>
       </defs>
       <use xlink:href="#DejaVuSans-31" transform="translate(0 0.765625)"/>
       <use xlink:href="#DejaVuSans-30" transform="translate(63.623047 0.765625)"/>
       <use xlink:href="#DejaVuSans-2212" transform="translate(128.203125 39.046875) scale(0.7)"/>
       <use xlink:href="#DejaVuSans-32" transform="translate(186.855469 39.046875) scale(0.7)"/>
      </g>
     </g>
    </g>
    <g id="ytick_2">
     <g id="line2d_9">
      <g>
       <use xlink:href="#mc3721f41bf" x="57.6" y="88.622741" style="stroke: #000000; stroke-width: 0.8"/>
      </g>
     </g>
     <g id="text_10">
      <!-- $\mathdefault{10^{-1}}$ -->
      <g transform="translate(27.1 92.421959) scale(0.1 -0.1)">
       <use xlink:href="#DejaVuSans-31" transform="translate(0 0.684375)"/>
       <use xlink:href="#DejaVuSans-30" transform="translate(63.623047 0.684375)"/>
       <use xlink:href="#DejaVuSans-2212" transform="translate(128.203125 38.965625) scale(0.7)"/>
       <use xlink:href="#DejaVuSans-31" transform="translate(186.855469 38.965625) scale(0.7)"/>
      </g>
     </g>
    </g>
    <g id="ytick_3">
     <g id="line2d_10">
      <defs>
       <path id="m73e31fe490" d="M 0 0 
L -2 0 
" style="stroke: #000000; stroke-width: 0.6"/>
      </defs>
      <g>
       <use xlink:href="#m73e31fe490" x="57.6" y="307.584" style="stroke: #000000; stroke-width: 0.6"/>
      </g>
     </g>
    </g>
    <g id="ytick_4">
     <g id="line2d_11">
      <g>
       <use xlink:href="#m73e31fe490" x="57.6" y="292.404852" style="stroke: #000000; stroke-width: 0.6"/>
      </g>
     </g>
    </g>
    <g id="ytick_5">
     <g id="line2d_12">
      <g>
       <use xlink:href="#m73e31fe490" x="57.6" y="280.002585" style="stroke: #000000; stroke-width: 0.6"/>
      </g>
     </g>
    </g>
    <g id="ytick_6">
     <g id="line2d_13">
      <g>
       <use xlink:href="#m73e31fe490" x="57.6" y="269.516617" style="stroke: #000000; stroke-width: 0.6"/>
      </g>
     </g>
    </g>
    <g id="ytick_7">
     <g id="line2d_14">
      <g>
       <use xlink:href="#m73e31fe490" x="57.6" y="260.433259" style="stroke: #000000; stroke-width: 0.6"/>
      </g>
     </g>
    </g>
    <g id="ytick_8">
     <g id="line2d_15">
      <g>
       <use xlink:href="#m73e31fe490" x="57.6" y="252.42117" style="stroke: #000000; stroke-width: 0.6"/>
      </g>
     </g>
    </g>
    <g id="ytick_9">
     <g id="line2d_16">
      <g>
       <use xlink:href="#m73e31fe490" x="57.6" y="198.10337" style="stroke: #000000; stroke-width: 0.6"/>
      </g>
     </g>
    </g>
    <g id="ytick_10">
     <g id="line2d_17">
      <g>
       <use xlink:href="#m73e31fe490" x="57.6" y="170.521955" style="stroke: #000000; stroke-width: 0.6"/>
      </g>
     </g>
    </g>
    <g id="ytick_11">
     <g id="line2d_18">
      <g>
       <use xlink:href="#m73e31fe490" x="57.6" y="150.95263" style="stroke: #000000; stroke-width: 0.6"/>
      </g>
     </g>
    </g>
    <g id="ytick_12">
     <g id="line2d_19">
      <g>
       <use xlink:href="#m73e31fe490" x="57.6" y="135.773481" style="stroke: #000000; stroke-width: 0.6"/>
      </g>
     </g>
    </g>
    <g id="ytick_13">
     <g id="line2d_20">
      <g>
       <use xlink:href="#m73e31fe490" x="57.6" y="123.371214" style="stroke: #000000; stroke-width: 0.6"/>
      </g>
     </g>
    </g>
    <g id="ytick_14">
     <g id="line2d_21">
      <g>
       <use xlink:href="#m73e31fe490" x="57.6" y="112.885247" style="stroke: #000000; stroke-width: 0.6"/>
      </g>
     </g>
    </g>
    <g id="ytick_15">
     <g id="line2d_22">
      <g>
       <use xlink:href="#m73e31fe490" x="57.6" y="103.801889" style="stroke: #000000; stroke-width: 0.6"/>
      </g>
     </g>
    </g>
    <g id="ytick_16">
     <g id="line2d_23">
      <g>
       <use xlink:href="#m73e31fe490" x="57.6" y="95.789799" style="stroke: #000000; stroke-width: 0.6"/>
      </g>
     </g>
    </g>
    <g id="ytick_17">
     <g id="line2d_24">
      <g>
       <use xlink:href="#m73e31fe490" x="57.6" y="41.472" style="stroke: #000000; stroke-width: 0.6"/>
      </g>
     </g>
    </g>
    <g id="text_11">
     <!-- loss -->
     <g transform="translate(21.020313 184.185812) rotate(-90) scale(0.1 -0.1)">
      <defs>
       <path id="DejaVuSans-6c" d="M 603 4863 
L 1178 4863 
L 1178 0 
L 603 0 
L 603 4863 
z
" transform="scale(0.015625)"/>
       <path id="DejaVuSans-6f" d="M 1959 3097 
Q 1497 3097 1228 2736 
Q 959 2375 959 1747 
Q 959 1119 1226 758 
Q 1494 397 1959 397 
Q 2419 397 2687 759 
Q 2956 1122 2956 1747 
Q 2956 2369 2687 2733 
Q 2419 3097 1959 3097 
z
M 1959 3584 
Q 2709 3584 3137 3096 
Q 3566 2609 3566 1747 
Q 3566 888 3137 398 
Q 2709 -91 1959 -91 
Q 1206 -91 779 398 
Q 353 888 353 1747 
Q 353 2609 779 3096 
Q 1206 3584 1959 3584 
z
" transform="scale(0.015625)"/>
       <path id="DejaVuSans-73" d="M 2834 3397 
L 2834 2853 
Q 2591 2978 2328 3040 
Q 2066 3103 1784 3103 
Q 1356 3103 1142 2972 
Q 928 2841 928 2578 
Q 928 2378 1081 2264 
Q 1234 2150 1697 2047 
L 1894 2003 
Q 2506 1872 2764 1633 
Q 3022 1394 3022 966 
Q 3022 478 2636 193 
Q 2250 -91 1575 -91 
Q 1294 -91 989 -36 
Q 684 19 347 128 
L 347 722 
Q 666 556 975 473 
Q 1284 391 1588 391 
Q 1994 391 2212 530 
Q 2431 669 2431 922 
Q 2431 1156 2273 1281 
Q 2116 1406 1581 1522 
L 1381 1569 
Q 847 1681 609 1914 
Q 372 2147 372 2553 
Q 372 3047 722 3315 
Q 1072 3584 1716 3584 
Q 2034 3584 2315 3537 
Q 2597 3491 2834 3397 
z
" transform="scale(0.015625)"/>
      </defs>
      <use xlink:href="#DejaVuSans-6c"/>
      <use xlink:href="#DejaVuSans-6f" x="27.783203"/>
      <use xlink:href="#DejaVuSans-73" x="88.964844"/>
      <use xlink:href="#DejaVuSans-73" x="141.064453"/>
     </g>
    </g>
   </g>
   <g id="line2d_25">
    <path d="M -1 162.794983 
L -0.40224 162.965412 
L 1.5024 163.877059 
L 3.91296 161.504822 
L 5.8176 162.492645 
L 7.72224 162.71879 
L 9.62688 163.956256 
L 11.53152 163.484835 
L 17.24544 165.169898 
L 21.05472 167.410559 
L 22.95936 168.057393 
L 24.864 169.146131 
L 26.76864 169.704501 
L 28.67328 170.967131 
L 30.57792 171.927582 
L 32.48256 172.322901 
L 34.3872 173.347059 
L 36.29184 174.59993 
L 38.19648 175.630612 
L 40.10112 175.881244 
L 42.00576 177.187247 
L 45.81504 179.13471 
L 47.71968 179.777783 
L 49.62432 180.282594 
L 53.4336 180.848069 
L 55.33824 181.841367 
L 57.24288 180.554836 
L 59.14752 180.336234 
L 61.05216 180.953 
L 62.9568 179.461392 
L 64.86144 180.250475 
L 65.36736 175.643324 
L 67.272 169.388112 
L 69.17664 169.253687 
L 71.08128 168.971026 
L 72.98592 169.306747 
L 74.89056 170.02187 
L 82.50912 174.0387 
L 84.41376 174.09528 
L 86.3184 175.239211 
L 88.22304 174.106258 
L 90.12768 175.189621 
L 92.03232 175.815213 
L 97.74624 179.678735 
L 99.65088 180.602213 
L 101.55552 181.10715 
L 103.46016 182.303908 
L 107.26944 182.875835 
L 109.17408 182.373638 
L 111.07872 183.88095 
L 112.98336 185.179144 
L 114.888 186.160977 
L 118.69728 188.443435 
L 120.60192 189.112402 
L 122.50656 189.964795 
L 124.4112 189.669431 
L 126.31584 190.455786 
L 126.82176 191.210581 
L 128.7264 191.763939 
L 130.63104 191.73937 
L 132.53568 192.534545 
L 134.44032 193.820991 
L 138.2496 196.82345 
L 140.15424 196.533256 
L 142.05888 194.188265 
L 143.96352 194.083099 
L 145.86816 190.85148 
L 147.7728 192.138887 
L 151.58208 195.018255 
L 153.48672 195.807669 
L 155.39136 196.876081 
L 157.296 191.705606 
L 159.20064 191.493332 
L 163.00992 193.764228 
L 164.91456 190.312331 
L 166.8192 189.873882 
L 168.72384 190.340117 
L 170.62848 191.003712 
L 172.53312 189.482609 
L 174.43776 189.654472 
L 176.3424 188.679895 
L 178.24704 189.121396 
L 180.15168 187.721289 
L 182.05632 186.157489 
L 183.96096 184.770235 
L 185.8656 185.732613 
L 187.77024 187.413235 
L 188.27616 188.300597 
L 190.1808 188.341963 
L 192.08544 189.015185 
L 193.99008 188.892306 
L 195.89472 185.445007 
L 197.79936 174.662444 
L 199.704 171.36491 
L 201.60864 173.164079 
L 205.41792 175.195523 
L 209.2272 178.320312 
L 211.13184 179.495053 
L 213.03648 175.653208 
L 214.94112 176.056683 
L 216.84576 168.854189 
L 218.7504 164.92337 
L 220.65504 164.849473 
L 222.55968 163.127556 
L 224.46432 163.995199 
L 226.36896 153.852343 
L 228.2736 155.507413 
L 230.17824 157.515581 
L 232.08288 157.747709 
L 233.98752 159.832997 
L 235.89216 160.245104 
L 237.7968 162.513711 
L 239.70144 162.336926 
L 241.60608 164.560068 
L 243.51072 166.555021 
L 245.41536 167.339267 
L 247.32 169.279223 
L 249.73056 159.670452 
L 251.6352 160.915291 
L 255.44448 164.087829 
L 259.25376 167.756369 
L 263.06304 171.626255 
L 268.77696 177.757095 
L 293.53728 204.738386 
L 303.06048 214.567548 
L 310.67904 221.958242 
L 311.18496 222.996069 
L 313.0896 192.74988 
L 314.99424 184.155236 
L 316.89888 176.173114 
L 318.80352 170.766351 
L 320.70816 168.256023 
L 322.6128 168.374256 
L 324.51744 166.363751 
L 326.42208 166.863237 
L 328.32672 163.289995 
L 330.23136 164.246391 
L 334.04064 166.553893 
L 335.94528 166.310893 
L 339.75456 166.957746 
L 341.6592 167.823131 
L 343.56384 165.665288 
L 345.46848 167.189092 
L 347.37312 167.857412 
L 349.27776 169.241899 
L 351.1824 169.840794 
L 353.08704 170.221466 
L 354.99168 170.292191 
L 356.89632 171.415317 
L 358.80096 170.746064 
L 360.7056 166.408629 
L 364.51488 158.80563 
L 366.41952 156.456982 
L 368.32416 156.790719 
L 370.2288 158.099782 
L 372.13344 158.32238 
L 372.63936 157.287103 
L 385.97184 171.767354 
L 393.5904 179.583352 
L 401.20896 186.878295 
L 406.92288 191.992901 
L 412.6368 196.833813 
L 416.44608 199.844812 
L 422.16 204.161275 
L 427.87392 208.158283 
L 431.6832 210.675705 
L 433.58784 211.852821 
L 433.58784 211.852821 
" clip-path="url(#p874e59c0fa)" style="fill: none; stroke: #1f77b4; stroke-opacity: 0.4; stroke-linecap: square"/>
   </g>
   <g id="line2d_26">
    <path d="M -1 158.434387 
L 3.40704 159.404166 
L 3.91296 159.739474 
L 7.72224 160.524931 
L 9.62688 160.63484 
L 26.76864 163.806087 
L 30.57792 163.891306 
L 34.3872 164.544409 
L 42.00576 165.731276 
L 43.9104 165.367428 
L 45.81504 165.787137 
L 47.71968 165.751405 
L 51.52896 166.479475 
L 53.4336 166.420318 
L 57.24288 166.715407 
L 61.05216 167.306402 
L 64.86144 168.09396 
L 65.36736 168.363912 
L 67.272 168.402051 
L 69.17664 168.556438 
L 71.08128 168.906 
L 72.98592 168.96568 
L 78.69984 169.823627 
L 82.50912 170.072654 
L 90.12768 171.669146 
L 92.03232 171.57617 
L 95.8416 171.960459 
L 97.74624 171.969502 
L 99.65088 172.339342 
L 101.55552 172.22437 
L 103.46016 172.60091 
L 105.3648 171.178057 
L 109.17408 171.72823 
L 111.07872 171.607164 
L 112.98336 171.645183 
L 116.79264 172.405113 
L 120.60192 173.082752 
L 126.31584 174.325748 
L 126.82176 174.76807 
L 128.7264 174.656208 
L 130.63104 173.371792 
L 132.53568 172.58798 
L 134.44032 173.008777 
L 136.34496 173.312557 
L 138.2496 173.749927 
L 140.15424 173.556487 
L 143.96352 174.443788 
L 145.86816 173.949881 
L 149.67744 174.975173 
L 151.58208 173.287813 
L 153.48672 173.682472 
L 155.39136 173.222078 
L 157.296 172.355996 
L 159.20064 172.204372 
L 161.10528 172.637727 
L 164.91456 173.145779 
L 166.8192 173.084961 
L 168.72384 173.558967 
L 172.53312 173.177087 
L 174.43776 173.855883 
L 176.3424 174.363198 
L 178.24704 174.304264 
L 180.15168 173.181922 
L 182.05632 172.817113 
L 185.8656 174.07109 
L 187.77024 173.886736 
L 188.27616 174.403923 
L 193.99008 175.741739 
L 195.89472 176.302106 
L 197.79936 177.000187 
L 199.704 177.393951 
L 201.60864 177.902949 
L 205.41792 178.719024 
L 209.2272 179.63687 
L 213.03648 179.734726 
L 214.94112 180.212651 
L 216.84576 180.5232 
L 218.7504 180.678463 
L 220.65504 181.038989 
L 222.55968 181.078911 
L 224.46432 181.005943 
L 226.36896 181.350732 
L 228.2736 181.14292 
L 230.17824 181.2559 
L 232.08288 181.21744 
L 233.98752 181.611332 
L 235.89216 181.427792 
L 237.7968 180.789268 
L 239.70144 179.291399 
L 241.60608 179.834842 
L 243.51072 179.820004 
L 245.41536 179.450173 
L 249.22464 180.64802 
L 249.73056 181.055933 
L 251.6352 181.471668 
L 253.53984 181.51783 
L 255.44448 181.813273 
L 257.34912 182.272867 
L 259.25376 182.026375 
L 261.1584 179.149444 
L 263.06304 179.061054 
L 264.96768 178.134494 
L 266.87232 178.462696 
L 268.77696 177.580874 
L 270.6816 177.78677 
L 272.58624 178.394739 
L 274.49088 174.938587 
L 276.39552 175.43791 
L 278.30016 174.809053 
L 280.2048 175.151836 
L 282.10944 175.753914 
L 284.01408 176.141711 
L 285.91872 176.845202 
L 287.82336 177.323997 
L 289.728 177.275587 
L 293.53728 178.627565 
L 295.44192 179.400413 
L 297.34656 179.652624 
L 299.2512 180.070171 
L 301.15584 180.104353 
L 303.06048 180.503187 
L 306.86976 181.566506 
L 308.7744 181.503114 
L 310.67904 181.773387 
L 311.18496 182.390761 
L 314.99424 183.137073 
L 316.89888 183.761151 
L 318.80352 184.122541 
L 320.70816 184.62894 
L 322.6128 183.578173 
L 324.51744 184.290197 
L 326.42208 183.988804 
L 328.32672 184.246606 
L 330.23136 184.373985 
L 332.136 184.843845 
L 335.94528 185.147616 
L 337.84992 185.750872 
L 339.75456 185.127467 
L 341.6592 184.08931 
L 345.46848 185.218823 
L 347.37312 182.277846 
L 349.27776 182.657332 
L 351.1824 182.787083 
L 353.08704 183.516738 
L 354.99168 183.968812 
L 356.89632 184.249413 
L 358.80096 184.806017 
L 360.7056 185.079321 
L 362.61024 180.985311 
L 364.51488 180.207847 
L 366.41952 179.056912 
L 370.2288 180.3474 
L 372.13344 180.352894 
L 372.63936 177.702587 
L 376.44864 178.467113 
L 378.35328 178.183976 
L 380.25792 178.175174 
L 382.16256 179.062739 
L 384.0672 179.787735 
L 385.97184 180.329483 
L 387.87648 180.74882 
L 389.78112 180.405803 
L 391.68576 180.677909 
L 393.5904 177.619942 
L 395.49504 178.408285 
L 397.39968 178.781814 
L 399.30432 178.195111 
L 405.01824 180.458204 
L 406.92288 180.958334 
L 408.82752 181.600985 
L 410.73216 182.041069 
L 412.6368 181.190531 
L 414.54144 180.968697 
L 416.44608 181.452712 
L 418.35072 181.126827 
L 422.16 182.150287 
L 424.06464 182.934925 
L 425.96928 183.507719 
L 427.87392 183.872072 
L 429.77856 183.977752 
L 433.58784 184.607147 
L 433.58784 184.607147 
" clip-path="url(#p874e59c0fa)" style="fill: none; stroke: #ff7f0e; stroke-opacity: 0.4; stroke-linecap: square"/>
   </g>
   <g id="line2d_27">
    <path d="M -1 169.022748 
L -0.40224 169.056929 
L 3.40704 170.241324 
L 3.91296 170.820151 
L 9.62688 172.456053 
L 15.3408 174.087405 
L 17.24544 174.409354 
L 19.15008 174.357532 
L 22.95936 175.421147 
L 26.76864 175.532451 
L 28.67328 176.114118 
L 30.57792 175.663475 
L 32.48256 176.120703 
L 34.3872 176.360137 
L 38.19648 177.429243 
L 43.9104 178.973044 
L 45.81504 178.906605 
L 47.71968 179.244258 
L 49.62432 179.174895 
L 51.52896 179.538256 
L 53.4336 179.450992 
L 55.33824 179.049706 
L 57.24288 179.132246 
L 61.05216 180.004222 
L 62.9568 180.579603 
L 64.86144 180.898632 
L 65.36736 181.313248 
L 67.272 180.318152 
L 69.17664 180.850703 
L 71.08128 181.044994 
L 72.98592 181.043683 
L 74.89056 181.370873 
L 76.7952 181.444466 
L 78.69984 181.971303 
L 80.60448 181.256109 
L 82.50912 181.887302 
L 84.41376 180.757553 
L 88.22304 181.937894 
L 92.03232 182.91881 
L 95.8416 184.066525 
L 97.74624 184.451394 
L 99.65088 184.954993 
L 101.55552 185.111333 
L 103.46016 184.100784 
L 107.26944 185.08287 
L 111.07872 185.687932 
L 112.98336 185.132148 
L 116.79264 186.114533 
L 118.69728 186.373549 
L 120.60192 186.291046 
L 122.50656 186.835745 
L 124.4112 186.514205 
L 126.31584 186.504085 
L 126.82176 185.442645 
L 128.7264 186.168432 
L 130.63104 186.691372 
L 132.53568 187.390353 
L 134.44032 187.783407 
L 138.2496 188.887837 
L 140.15424 187.712726 
L 143.96352 188.484039 
L 145.86816 189.047402 
L 147.7728 188.893343 
L 151.58208 189.265269 
L 153.48672 189.352815 
L 155.39136 189.966455 
L 159.20064 190.809621 
L 163.00992 191.67253 
L 166.8192 192.696269 
L 168.72384 193.246596 
L 170.62848 192.540793 
L 172.53312 193.02511 
L 176.3424 193.832175 
L 178.24704 193.82742 
L 180.15168 193.234436 
L 182.05632 193.649768 
L 183.96096 193.356136 
L 185.8656 193.823417 
L 187.77024 194.059509 
L 188.27616 193.260576 
L 190.1808 192.149711 
L 192.08544 191.703784 
L 193.99008 192.092603 
L 195.89472 190.49088 
L 197.79936 190.145383 
L 199.704 188.455621 
L 201.60864 189.012607 
L 203.51328 189.101656 
L 205.41792 187.544606 
L 207.32256 187.696283 
L 209.2272 186.888787 
L 211.13184 187.440847 
L 213.03648 188.147704 
L 214.94112 188.227691 
L 216.84576 187.299469 
L 218.7504 187.755003 
L 220.65504 188.080701 
L 222.55968 186.889373 
L 224.46432 182.155912 
L 226.36896 182.375199 
L 228.2736 180.839534 
L 230.17824 181.566142 
L 232.08288 180.834699 
L 233.98752 181.02303 
L 235.89216 181.460312 
L 237.7968 182.43105 
L 239.70144 183.11162 
L 243.51072 184.985017 
L 245.41536 185.325769 
L 247.32 186.226544 
L 249.22464 186.309789 
L 249.73056 186.460971 
L 253.53984 188.342904 
L 257.34912 190.133371 
L 259.25376 190.673335 
L 264.96768 193.076383 
L 268.77696 194.546193 
L 270.6816 195.197281 
L 276.39552 196.47036 
L 278.30016 197.168024 
L 280.2048 197.537693 
L 284.01408 198.842242 
L 289.728 200.138806 
L 291.63264 200.667828 
L 293.53728 199.884411 
L 295.44192 200.385417 
L 297.34656 200.319129 
L 299.2512 200.728892 
L 301.15584 200.967377 
L 303.06048 200.573931 
L 304.96512 200.987678 
L 306.86976 201.115953 
L 308.7744 201.419675 
L 311.18496 200.501282 
L 313.0896 198.675559 
L 314.99424 198.6525 
L 320.70816 199.170122 
L 322.6128 197.815803 
L 326.42208 197.846296 
L 328.32672 197.39751 
L 330.23136 196.453514 
L 332.136 195.929201 
L 334.04064 196.165062 
L 335.94528 194.903342 
L 337.84992 195.393443 
L 339.75456 194.267027 
L 341.6592 194.70129 
L 343.56384 194.922064 
L 345.46848 194.935883 
L 347.37312 195.555054 
L 349.27776 195.777379 
L 351.1824 196.244395 
L 354.99168 196.481582 
L 356.89632 195.919191 
L 358.80096 196.303016 
L 360.7056 196.267774 
L 362.61024 194.94513 
L 364.51488 194.069009 
L 366.41952 193.92113 
L 368.32416 194.009761 
L 370.2288 194.443794 
L 372.13344 194.187755 
L 372.63936 194.536559 
L 376.44864 195.669433 
L 378.35328 196.075678 
L 380.25792 196.696018 
L 382.16256 197.19141 
L 384.0672 197.833125 
L 385.97184 197.285733 
L 387.87648 197.768859 
L 389.78112 197.644523 
L 397.39968 199.32636 
L 399.30432 199.85027 
L 401.20896 200.068042 
L 403.1136 199.793125 
L 406.92288 200.875095 
L 408.82752 201.023688 
L 410.73216 198.923499 
L 412.6368 199.198768 
L 416.44608 200.275887 
L 418.35072 200.316418 
L 420.25536 200.966091 
L 422.16 201.392597 
L 424.06464 201.224946 
L 425.96928 201.76315 
L 427.87392 202.114351 
L 429.77856 202.723537 
L 433.58784 203.299797 
L 433.58784 203.299797 
" clip-path="url(#p874e59c0fa)" style="fill: none; stroke: #2ca02c; stroke-opacity: 0.4; stroke-linecap: square"/>
   </g>
   <g id="patch_3">
    <path d="M 57.6 307.584 
L 57.6 41.472 
" style="fill: none; stroke: #000000; stroke-width: 0.8; stroke-linejoin: miter; stroke-linecap: square"/>
   </g>
   <g id="patch_4">
    <path d="M 414.72 307.584 
L 414.72 41.472 
" style="fill: none; stroke: #000000; stroke-width: 0.8; stroke-linejoin: miter; stroke-linecap: square"/>
   </g>
   <g id="patch_5">
    <path d="M 57.6 307.584 
L 414.72 307.584 
" style="fill: none; stroke: #000000; stroke-width: 0.8; stroke-linejoin: miter; stroke-linecap: square"/>
   </g>
   <g id="patch_6">
    <path d="M 57.6 41.472 
L 414.72 41.472 
" style="fill: none; stroke: #000000; stroke-width: 0.8; stroke-linejoin: miter; stroke-linecap: square"/>
   </g>
   <g id="text_12">
    <!-- 2025-02-18-14:20:11 -->
    <g transform="translate(172.178438 35.472) scale(0.12 -0.12)">
     <defs>
      <path id="DejaVuSans-35" d="M 691 4666 
L 3169 4666 
L 3169 4134 
L 1269 4134 
L 1269 2991 
Q 1406 3038 1543 3061 
Q 1681 3084 1819 3084 
Q 2600 3084 3056 2656 
Q 3513 2228 3513 1497 
Q 3513 744 3044 326 
Q 2575 -91 1722 -91 
Q 1428 -91 1123 -41 
Q 819 9 494 109 
L 494 744 
Q 775 591 1075 516 
Q 1375 441 1709 441 
Q 2250 441 2565 725 
Q 2881 1009 2881 1497 
Q 2881 1984 2565 2268 
Q 2250 2553 1709 2553 
Q 1456 2553 1204 2497 
Q 953 2441 691 2322 
L 691 4666 
z
" transform="scale(0.015625)"/>
      <path id="DejaVuSans-2d" d="M 313 2009 
L 1997 2009 
L 1997 1497 
L 313 1497 
L 313 2009 
z
" transform="scale(0.015625)"/>
      <path id="DejaVuSans-3a" d="M 750 794 
L 1409 794 
L 1409 0 
L 750 0 
L 750 794 
z
M 750 3309 
L 1409 3309 
L 1409 2516 
L 750 2516 
L 750 3309 
z
" transform="scale(0.015625)"/>
     </defs>
     <use xlink:href="#DejaVuSans-32"/>
     <use xlink:href="#DejaVuSans-30" x="63.623047"/>
     <use xlink:href="#DejaVuSans-32" x="127.246094"/>
     <use xlink:href="#DejaVuSans-35" x="190.869141"/>
     <use xlink:href="#DejaVuSans-2d" x="254.492188"/>
     <use xlink:href="#DejaVuSans-30" x="290.576172"/>
     <use xlink:href="#DejaVuSans-32" x="354.199219"/>
     <use xlink:href="#DejaVuSans-2d" x="417.822266"/>
     <use xlink:href="#DejaVuSans-31" x="453.90625"/>
     <use xlink:href="#DejaVuSans-38" x="517.529297"/>
     <use xlink:href="#DejaVuSans-2d" x="581.152344"/>
     <use xlink:href="#DejaVuSans-31" x="617.236328"/>
     <use xlink:href="#DejaVuSans-34" x="680.859375"/>
     <use xlink:href="#DejaVuSans-3a" x="744.482422"/>
     <use xlink:href="#DejaVuSans-32" x="778.173828"/>
     <use xlink:href="#DejaVuSans-30" x="841.796875"/>
     <use xlink:href="#DejaVuSans-3a" x="905.419922"/>
     <use xlink:href="#DejaVuSans-31" x="939.111328"/>
     <use xlink:href="#DejaVuSans-31" x="1002.734375"/>
    </g>
   </g>
   <g id="legend_1">
    <g id="patch_7">
     <path d="M 281.596563 94.34075 
L 407.72 94.34075 
Q 409.72 94.34075 409.72 92.34075 
L 409.72 48.472 
Q 409.72 46.472 407.72 46.472 
L 281.596563 46.472 
Q 279.596563 46.472 279.596563 48.472 
L 279.596563 92.34075 
Q 279.596563 94.34075 281.596563 94.34075 
z
" style="fill: #ffffff; opacity: 0.8; stroke: #cccccc; stroke-linejoin: miter"/>
    </g>
    <g id="line2d_28">
     <path d="M 283.596563 54.570438 
L 293.596563 54.570438 
L 303.596563 54.570438 
" style="fill: none; stroke: #1f77b4; stroke-opacity: 0.4; stroke-linecap: square"/>
    </g>
    <g id="text_13">
     <!-- SchNet eval_loss -->
     <g transform="translate(311.596563 58.070438) scale(0.1 -0.1)">
      <defs>
       <path id="DejaVuSans-53" d="M 3425 4513 
L 3425 3897 
Q 3066 4069 2747 4153 
Q 2428 4238 2131 4238 
Q 1616 4238 1336 4038 
Q 1056 3838 1056 3469 
Q 1056 3159 1242 3001 
Q 1428 2844 1947 2747 
L 2328 2669 
Q 3034 2534 3370 2195 
Q 3706 1856 3706 1288 
Q 3706 609 3251 259 
Q 2797 -91 1919 -91 
Q 1588 -91 1214 -16 
Q 841 59 441 206 
L 441 856 
Q 825 641 1194 531 
Q 1563 422 1919 422 
Q 2459 422 2753 634 
Q 3047 847 3047 1241 
Q 3047 1584 2836 1778 
Q 2625 1972 2144 2069 
L 1759 2144 
Q 1053 2284 737 2584 
Q 422 2884 422 3419 
Q 422 4038 858 4394 
Q 1294 4750 2059 4750 
Q 2388 4750 2728 4690 
Q 3069 4631 3425 4513 
z
" transform="scale(0.015625)"/>
       <path id="DejaVuSans-63" d="M 3122 3366 
L 3122 2828 
Q 2878 2963 2633 3030 
Q 2388 3097 2138 3097 
Q 1578 3097 1268 2742 
Q 959 2388 959 1747 
Q 959 1106 1268 751 
Q 1578 397 2138 397 
Q 2388 397 2633 464 
Q 2878 531 3122 666 
L 3122 134 
Q 2881 22 2623 -34 
Q 2366 -91 2075 -91 
Q 1284 -91 818 406 
Q 353 903 353 1747 
Q 353 2603 823 3093 
Q 1294 3584 2113 3584 
Q 2378 3584 2631 3529 
Q 2884 3475 3122 3366 
z
" transform="scale(0.015625)"/>
       <path id="DejaVuSans-68" d="M 3513 2113 
L 3513 0 
L 2938 0 
L 2938 2094 
Q 2938 2591 2744 2837 
Q 2550 3084 2163 3084 
Q 1697 3084 1428 2787 
Q 1159 2491 1159 1978 
L 1159 0 
L 581 0 
L 581 4863 
L 1159 4863 
L 1159 2956 
Q 1366 3272 1645 3428 
Q 1925 3584 2291 3584 
Q 2894 3584 3203 3211 
Q 3513 2838 3513 2113 
z
" transform="scale(0.015625)"/>
       <path id="DejaVuSans-4e" d="M 628 4666 
L 1478 4666 
L 3547 763 
L 3547 4666 
L 4159 4666 
L 4159 0 
L 3309 0 
L 1241 3903 
L 1241 0 
L 628 0 
L 628 4666 
z
" transform="scale(0.015625)"/>
       <path id="DejaVuSans-20" transform="scale(0.015625)"/>
       <path id="DejaVuSans-76" d="M 191 3500 
L 800 3500 
L 1894 563 
L 2988 3500 
L 3597 3500 
L 2284 0 
L 1503 0 
L 191 3500 
z
" transform="scale(0.015625)"/>
       <path id="DejaVuSans-61" d="M 2194 1759 
Q 1497 1759 1228 1600 
Q 959 1441 959 1056 
Q 959 750 1161 570 
Q 1363 391 1709 391 
Q 2188 391 2477 730 
Q 2766 1069 2766 1631 
L 2766 1759 
L 2194 1759 
z
M 3341 1997 
L 3341 0 
L 2766 0 
L 2766 531 
Q 2569 213 2275 61 
Q 1981 -91 1556 -91 
Q 1019 -91 701 211 
Q 384 513 384 1019 
Q 384 1609 779 1909 
Q 1175 2209 1959 2209 
L 2766 2209 
L 2766 2266 
Q 2766 2663 2505 2880 
Q 2244 3097 1772 3097 
Q 1472 3097 1187 3025 
Q 903 2953 641 2809 
L 641 3341 
Q 956 3463 1253 3523 
Q 1550 3584 1831 3584 
Q 2591 3584 2966 3190 
Q 3341 2797 3341 1997 
z
" transform="scale(0.015625)"/>
       <path id="DejaVuSans-5f" d="M 3263 -1063 
L 3263 -1509 
L -63 -1509 
L -63 -1063 
L 3263 -1063 
z
" transform="scale(0.015625)"/>
      </defs>
      <use xlink:href="#DejaVuSans-53"/>
      <use xlink:href="#DejaVuSans-63" x="63.476562"/>
      <use xlink:href="#DejaVuSans-68" x="118.457031"/>
      <use xlink:href="#DejaVuSans-4e" x="181.835938"/>
      <use xlink:href="#DejaVuSans-65" x="256.640625"/>
      <use xlink:href="#DejaVuSans-74" x="318.164062"/>
      <use xlink:href="#DejaVuSans-20" x="357.373047"/>
      <use xlink:href="#DejaVuSans-65" x="389.160156"/>
      <use xlink:href="#DejaVuSans-76" x="450.683594"/>
      <use xlink:href="#DejaVuSans-61" x="509.863281"/>
      <use xlink:href="#DejaVuSans-6c" x="571.142578"/>
      <use xlink:href="#DejaVuSans-5f" x="598.925781"/>
      <use xlink:href="#DejaVuSans-6c" x="648.925781"/>
      <use xlink:href="#DejaVuSans-6f" x="676.708984"/>
      <use xlink:href="#DejaVuSans-73" x="737.890625"/>
      <use xlink:href="#DejaVuSans-73" x="789.990234"/>
     </g>
    </g>
    <g id="line2d_29">
     <path d="M 283.596563 69.526688 
L 293.596563 69.526688 
L 303.596563 69.526688 
" style="fill: none; stroke: #ff7f0e; stroke-opacity: 0.4; stroke-linecap: square"/>
    </g>
    <g id="text_14">
     <!-- MoGIN13 eval_loss -->
     <g transform="translate(311.596563 73.026688) scale(0.1 -0.1)">
      <defs>
       <path id="DejaVuSans-4d" d="M 628 4666 
L 1569 4666 
L 2759 1491 
L 3956 4666 
L 4897 4666 
L 4897 0 
L 4281 0 
L 4281 4097 
L 3078 897 
L 2444 897 
L 1241 4097 
L 1241 0 
L 628 0 
L 628 4666 
z
" transform="scale(0.015625)"/>
       <path id="DejaVuSans-47" d="M 3809 666 
L 3809 1919 
L 2778 1919 
L 2778 2438 
L 4434 2438 
L 4434 434 
Q 4069 175 3628 42 
Q 3188 -91 2688 -91 
Q 1594 -91 976 548 
Q 359 1188 359 2328 
Q 359 3472 976 4111 
Q 1594 4750 2688 4750 
Q 3144 4750 3555 4637 
Q 3966 4525 4313 4306 
L 4313 3634 
Q 3963 3931 3569 4081 
Q 3175 4231 2741 4231 
Q 1884 4231 1454 3753 
Q 1025 3275 1025 2328 
Q 1025 1384 1454 906 
Q 1884 428 2741 428 
Q 3075 428 3337 486 
Q 3600 544 3809 666 
z
" transform="scale(0.015625)"/>
       <path id="DejaVuSans-49" d="M 628 4666 
L 1259 4666 
L 1259 0 
L 628 0 
L 628 4666 
z
" transform="scale(0.015625)"/>
       <path id="DejaVuSans-33" d="M 2597 2516 
Q 3050 2419 3304 2112 
Q 3559 1806 3559 1356 
Q 3559 666 3084 287 
Q 2609 -91 1734 -91 
Q 1441 -91 1130 -33 
Q 819 25 488 141 
L 488 750 
Q 750 597 1062 519 
Q 1375 441 1716 441 
Q 2309 441 2620 675 
Q 2931 909 2931 1356 
Q 2931 1769 2642 2001 
Q 2353 2234 1838 2234 
L 1294 2234 
L 1294 2753 
L 1863 2753 
Q 2328 2753 2575 2939 
Q 2822 3125 2822 3475 
Q 2822 3834 2567 4026 
Q 2313 4219 1838 4219 
Q 1578 4219 1281 4162 
Q 984 4106 628 3988 
L 628 4550 
Q 988 4650 1302 4700 
Q 1616 4750 1894 4750 
Q 2613 4750 3031 4423 
Q 3450 4097 3450 3541 
Q 3450 3153 3228 2886 
Q 3006 2619 2597 2516 
z
" transform="scale(0.015625)"/>
      </defs>
      <use xlink:href="#DejaVuSans-4d"/>
      <use xlink:href="#DejaVuSans-6f" x="86.279297"/>
      <use xlink:href="#DejaVuSans-47" x="147.460938"/>
      <use xlink:href="#DejaVuSans-49" x="224.951172"/>
      <use xlink:href="#DejaVuSans-4e" x="254.443359"/>
      <use xlink:href="#DejaVuSans-31" x="329.248047"/>
      <use xlink:href="#DejaVuSans-33" x="392.871094"/>
      <use xlink:href="#DejaVuSans-20" x="456.494141"/>
      <use xlink:href="#DejaVuSans-65" x="488.28125"/>
      <use xlink:href="#DejaVuSans-76" x="549.804688"/>
      <use xlink:href="#DejaVuSans-61" x="608.984375"/>
      <use xlink:href="#DejaVuSans-6c" x="670.263672"/>
      <use xlink:href="#DejaVuSans-5f" x="698.046875"/>
      <use xlink:href="#DejaVuSans-6c" x="748.046875"/>
      <use xlink:href="#DejaVuSans-6f" x="775.830078"/>
      <use xlink:href="#DejaVuSans-73" x="837.011719"/>
      <use xlink:href="#DejaVuSans-73" x="889.111328"/>
     </g>
    </g>
    <g id="line2d_30">
     <path d="M 283.596563 84.482938 
L 293.596563 84.482938 
L 303.596563 84.482938 
" style="fill: none; stroke: #2ca02c; stroke-opacity: 0.4; stroke-linecap: square"/>
    </g>
    <g id="text_15">
     <!-- MoGIN11 eval_loss -->
     <g transform="translate(311.596563 87.982938) scale(0.1 -0.1)">
      <use xlink:href="#DejaVuSans-4d"/>
      <use xlink:href="#DejaVuSans-6f" x="86.279297"/>
      <use xlink:href="#DejaVuSans-47" x="147.460938"/>
      <use xlink:href="#DejaVuSans-49" x="224.951172"/>
      <use xlink:href="#DejaVuSans-4e" x="254.443359"/>
      <use xlink:href="#DejaVuSans-31" x="329.248047"/>
      <use xlink:href="#DejaVuSans-31" x="392.871094"/>
      <use xlink:href="#DejaVuSans-20" x="456.494141"/>
      <use xlink:href="#DejaVuSans-65" x="488.28125"/>
      <use xlink:href="#DejaVuSans-76" x="549.804688"/>
      <use xlink:href="#DejaVuSans-61" x="608.984375"/>
      <use xlink:href="#DejaVuSans-6c" x="670.263672"/>
      <use xlink:href="#DejaVuSans-5f" x="698.046875"/>
      <use xlink:href="#DejaVuSans-6c" x="748.046875"/>
      <use xlink:href="#DejaVuSans-6f" x="775.830078"/>
      <use xlink:href="#DejaVuSans-73" x="837.011719"/>
      <use xlink:href="#DejaVuSans-73" x="889.111328"/>
     </g>
    </g>
   </g>
  </g>
 </g>
 <defs>
  <clipPath id="p874e59c0fa">
   <rect x="57.6" y="41.472" width="357.12" height="266.112"/>
  </clipPath>
 </defs>
</svg>
