<?xml version="1.0" encoding="utf-8" standalone="no"?>
<!DOCTYPE svg PUBLIC "-//W3C//DTD SVG 1.1//EN"
  "http://www.w3.org/Graphics/SVG/1.1/DTD/svg11.dtd">
<svg xmlns:xlink="http://www.w3.org/1999/xlink" width="460.8pt" height="345.6pt" viewBox="0 0 460.8 345.6" xmlns="http://www.w3.org/2000/svg" version="1.1">
 <metadata>
  <rdf:RDF xmlns:dc="http://purl.org/dc/elements/1.1/" xmlns:cc="http://creativecommons.org/ns#" xmlns:rdf="http://www.w3.org/1999/02/22-rdf-syntax-ns#">
   <cc:Work>
    <dc:type rdf:resource="http://purl.org/dc/dcmitype/StillImage"/>
    <dc:date>2025-02-18T14:49:51.692819</dc:date>
    <dc:format>image/svg+xml</dc:format>
    <dc:creator>
     <cc:Agent>
      <dc:title>Matplotlib v3.8.4, https://matplotlib.org/</dc:title>
     </cc:Agent>
    </dc:creator>
   </cc:Work>
  </rdf:RDF>
 </metadata>
 <defs>
  <style type="text/css">*{stroke-linejoin: round; stroke-linecap: butt}</style>
 </defs>
 <g id="figure_1">
  <g id="patch_1">
   <path d="M 0 345.6 
L 460.8 345.6 
L 460.8 0 
L 0 0 
z
" style="fill: #ffffff"/>
  </g>
  <g id="axes_1">
   <g id="patch_2">
    <path d="M 57.6 307.584 
L 414.72 307.584 
L 414.72 41.472 
L 57.6 41.472 
z
" style="fill: #ffffff"/>
   </g>
   <g id="matplotlib.axis_1">
    <g id="xtick_1">
     <g id="line2d_1">
      <defs>
       <path id="m0146329f54" d="M 0 0 
L 0 3.5 
" style="stroke: #000000; stroke-width: 0.8"/>
      </defs>
      <g>
       <use xlink:href="#m0146329f54" x="74.656743" y="307.584" style="stroke: #000000; stroke-width: 0.8"/>
      </g>
     </g>
     <g id="text_1">
      <!-- $\mathdefault{10^{0}}$ -->
      <g transform="translate(65.856743 322.182437) scale(0.1 -0.1)">
       <defs>
        <path id="DejaVuSans-31" d="M 794 531 
L 1825 531 
L 1825 4091 
L 703 3866 
L 703 4441 
L 1819 4666 
L 2450 4666 
L 2450 531 
L 3481 531 
L 3481 0 
L 794 0 
L 794 531 
z
" transform="scale(0.015625)"/>
        <path id="DejaVuSans-30" d="M 2034 4250 
Q 1547 4250 1301 3770 
Q 1056 3291 1056 2328 
Q 1056 1369 1301 889 
Q 1547 409 2034 409 
Q 2525 409 2770 889 
Q 3016 1369 3016 2328 
Q 3016 3291 2770 3770 
Q 2525 4250 2034 4250 
z
M 2034 4750 
Q 2819 4750 3233 4129 
Q 3647 3509 3647 2328 
Q 3647 1150 3233 529 
Q 2819 -91 2034 -91 
Q 1250 -91 836 529 
Q 422 1150 422 2328 
Q 422 3509 836 4129 
Q 1250 4750 2034 4750 
z
" transform="scale(0.015625)"/>
       </defs>
       <use xlink:href="#DejaVuSans-31" transform="translate(0 0.765625)"/>
       <use xlink:href="#DejaVuSans-30" transform="translate(63.623047 0.765625)"/>
       <use xlink:href="#DejaVuSans-30" transform="translate(128.203125 39.046875) scale(0.7)"/>
      </g>
     </g>
    </g>
    <g id="xtick_2">
     <g id="line2d_2">
      <g>
       <use xlink:href="#m0146329f54" x="153.722283" y="307.584" style="stroke: #000000; stroke-width: 0.8"/>
      </g>
     </g>
     <g id="text_2">
      <!-- $\mathdefault{10^{1}}$ -->
      <g transform="translate(144.922283 322.182437) scale(0.1 -0.1)">
       <use xlink:href="#DejaVuSans-31" transform="translate(0 0.684375)"/>
       <use xlink:href="#DejaVuSans-30" transform="translate(63.623047 0.684375)"/>
       <use xlink:href="#DejaVuSans-31" transform="translate(128.203125 38.965625) scale(0.7)"/>
      </g>
     </g>
    </g>
    <g id="xtick_3">
     <g id="line2d_3">
      <g>
       <use xlink:href="#m0146329f54" x="232.787822" y="307.584" style="stroke: #000000; stroke-width: 0.8"/>
      </g>
     </g>
     <g id="text_3">
      <!-- $\mathdefault{10^{2}}$ -->
      <g transform="translate(223.987822 322.182437) scale(0.1 -0.1)">
       <defs>
        <path id="DejaVuSans-32" d="M 1228 531 
L 3431 531 
L 3431 0 
L 469 0 
L 469 531 
Q 828 903 1448 1529 
Q 2069 2156 2228 2338 
Q 2531 2678 2651 2914 
Q 2772 3150 2772 3378 
Q 2772 3750 2511 3984 
Q 2250 4219 1831 4219 
Q 1534 4219 1204 4116 
Q 875 4013 500 3803 
L 500 4441 
Q 881 4594 1212 4672 
Q 1544 4750 1819 4750 
Q 2544 4750 2975 4387 
Q 3406 4025 3406 3419 
Q 3406 3131 3298 2873 
Q 3191 2616 2906 2266 
Q 2828 2175 2409 1742 
Q 1991 1309 1228 531 
z
" transform="scale(0.015625)"/>
       </defs>
       <use xlink:href="#DejaVuSans-31" transform="translate(0 0.765625)"/>
       <use xlink:href="#DejaVuSans-30" transform="translate(63.623047 0.765625)"/>
       <use xlink:href="#DejaVuSans-32" transform="translate(128.203125 39.046875) scale(0.7)"/>
      </g>
     </g>
    </g>
    <g id="xtick_4">
     <g id="line2d_4">
      <g>
       <use xlink:href="#m0146329f54" x="311.853362" y="307.584" style="stroke: #000000; stroke-width: 0.8"/>
      </g>
     </g>
     <g id="text_4">
      <!-- $\mathdefault{10^{3}}$ -->
      <g transform="translate(303.053362 322.182437) scale(0.1 -0.1)">
       <defs>
        <path id="DejaVuSans-33" d="M 2597 2516 
Q 3050 2419 3304 2112 
Q 3559 1806 3559 1356 
Q 3559 666 3084 287 
Q 2609 -91 1734 -91 
Q 1441 -91 1130 -33 
Q 819 25 488 141 
L 488 750 
Q 750 597 1062 519 
Q 1375 441 1716 441 
Q 2309 441 2620 675 
Q 2931 909 2931 1356 
Q 2931 1769 2642 2001 
Q 2353 2234 1838 2234 
L 1294 2234 
L 1294 2753 
L 1863 2753 
Q 2328 2753 2575 2939 
Q 2822 3125 2822 3475 
Q 2822 3834 2567 4026 
Q 2313 4219 1838 4219 
Q 1578 4219 1281 4162 
Q 984 4106 628 3988 
L 628 4550 
Q 988 4650 1302 4700 
Q 1616 4750 1894 4750 
Q 2613 4750 3031 4423 
Q 3450 4097 3450 3541 
Q 3450 3153 3228 2886 
Q 3006 2619 2597 2516 
z
" transform="scale(0.015625)"/>
       </defs>
       <use xlink:href="#DejaVuSans-31" transform="translate(0 0.765625)"/>
       <use xlink:href="#DejaVuSans-30" transform="translate(63.623047 0.765625)"/>
       <use xlink:href="#DejaVuSans-33" transform="translate(128.203125 39.046875) scale(0.7)"/>
      </g>
     </g>
    </g>
    <g id="xtick_5">
     <g id="line2d_5">
      <g>
       <use xlink:href="#m0146329f54" x="390.918901" y="307.584" style="stroke: #000000; stroke-width: 0.8"/>
      </g>
     </g>
     <g id="text_5">
      <!-- $\mathdefault{10^{4}}$ -->
      <g transform="translate(382.118901 322.182437) scale(0.1 -0.1)">
       <defs>
        <path id="DejaVuSans-34" d="M 2419 4116 
L 825 1625 
L 2419 1625 
L 2419 4116 
z
M 2253 4666 
L 3047 4666 
L 3047 1625 
L 3713 1625 
L 3713 1100 
L 3047 1100 
L 3047 0 
L 2419 0 
L 2419 1100 
L 313 1100 
L 313 1709 
L 2253 4666 
z
" transform="scale(0.015625)"/>
       </defs>
       <use xlink:href="#DejaVuSans-31" transform="translate(0 0.684375)"/>
       <use xlink:href="#DejaVuSans-30" transform="translate(63.623047 0.684375)"/>
       <use xlink:href="#DejaVuSans-34" transform="translate(128.203125 38.965625) scale(0.7)"/>
      </g>
     </g>
    </g>
    <g id="xtick_6">
     <g id="line2d_6">
      <defs>
       <path id="md37a170aeb" d="M 0 0 
L 0 2 
" style="stroke: #000000; stroke-width: 0.6"/>
      </defs>
      <g>
       <use xlink:href="#md37a170aeb" x="62.409336" y="307.584" style="stroke: #000000; stroke-width: 0.6"/>
      </g>
     </g>
    </g>
    <g id="xtick_7">
     <g id="line2d_7">
      <g>
       <use xlink:href="#md37a170aeb" x="66.994501" y="307.584" style="stroke: #000000; stroke-width: 0.6"/>
      </g>
     </g>
    </g>
    <g id="xtick_8">
     <g id="line2d_8">
      <g>
       <use xlink:href="#md37a170aeb" x="71.038903" y="307.584" style="stroke: #000000; stroke-width: 0.6"/>
      </g>
     </g>
    </g>
    <g id="xtick_9">
     <g id="line2d_9">
      <g>
       <use xlink:href="#md37a170aeb" x="98.457842" y="307.584" style="stroke: #000000; stroke-width: 0.6"/>
      </g>
     </g>
    </g>
    <g id="xtick_10">
     <g id="line2d_10">
      <g>
       <use xlink:href="#md37a170aeb" x="112.380593" y="307.584" style="stroke: #000000; stroke-width: 0.6"/>
      </g>
     </g>
    </g>
    <g id="xtick_11">
     <g id="line2d_11">
      <g>
       <use xlink:href="#md37a170aeb" x="122.258941" y="307.584" style="stroke: #000000; stroke-width: 0.6"/>
      </g>
     </g>
    </g>
    <g id="xtick_12">
     <g id="line2d_12">
      <g>
       <use xlink:href="#md37a170aeb" x="129.921184" y="307.584" style="stroke: #000000; stroke-width: 0.6"/>
      </g>
     </g>
    </g>
    <g id="xtick_13">
     <g id="line2d_13">
      <g>
       <use xlink:href="#md37a170aeb" x="136.181692" y="307.584" style="stroke: #000000; stroke-width: 0.6"/>
      </g>
     </g>
    </g>
    <g id="xtick_14">
     <g id="line2d_14">
      <g>
       <use xlink:href="#md37a170aeb" x="141.474876" y="307.584" style="stroke: #000000; stroke-width: 0.6"/>
      </g>
     </g>
    </g>
    <g id="xtick_15">
     <g id="line2d_15">
      <g>
       <use xlink:href="#md37a170aeb" x="146.06004" y="307.584" style="stroke: #000000; stroke-width: 0.6"/>
      </g>
     </g>
    </g>
    <g id="xtick_16">
     <g id="line2d_16">
      <g>
       <use xlink:href="#md37a170aeb" x="150.104442" y="307.584" style="stroke: #000000; stroke-width: 0.6"/>
      </g>
     </g>
    </g>
    <g id="xtick_17">
     <g id="line2d_17">
      <g>
       <use xlink:href="#md37a170aeb" x="177.523382" y="307.584" style="stroke: #000000; stroke-width: 0.6"/>
      </g>
     </g>
    </g>
    <g id="xtick_18">
     <g id="line2d_18">
      <g>
       <use xlink:href="#md37a170aeb" x="191.446132" y="307.584" style="stroke: #000000; stroke-width: 0.6"/>
      </g>
     </g>
    </g>
    <g id="xtick_19">
     <g id="line2d_19">
      <g>
       <use xlink:href="#md37a170aeb" x="201.324481" y="307.584" style="stroke: #000000; stroke-width: 0.6"/>
      </g>
     </g>
    </g>
    <g id="xtick_20">
     <g id="line2d_20">
      <g>
       <use xlink:href="#md37a170aeb" x="208.986723" y="307.584" style="stroke: #000000; stroke-width: 0.6"/>
      </g>
     </g>
    </g>
    <g id="xtick_21">
     <g id="line2d_21">
      <g>
       <use xlink:href="#md37a170aeb" x="215.247231" y="307.584" style="stroke: #000000; stroke-width: 0.6"/>
      </g>
     </g>
    </g>
    <g id="xtick_22">
     <g id="line2d_22">
      <g>
       <use xlink:href="#md37a170aeb" x="220.540415" y="307.584" style="stroke: #000000; stroke-width: 0.6"/>
      </g>
     </g>
    </g>
    <g id="xtick_23">
     <g id="line2d_23">
      <g>
       <use xlink:href="#md37a170aeb" x="225.12558" y="307.584" style="stroke: #000000; stroke-width: 0.6"/>
      </g>
     </g>
    </g>
    <g id="xtick_24">
     <g id="line2d_24">
      <g>
       <use xlink:href="#md37a170aeb" x="229.169981" y="307.584" style="stroke: #000000; stroke-width: 0.6"/>
      </g>
     </g>
    </g>
    <g id="xtick_25">
     <g id="line2d_25">
      <g>
       <use xlink:href="#md37a170aeb" x="256.588921" y="307.584" style="stroke: #000000; stroke-width: 0.6"/>
      </g>
     </g>
    </g>
    <g id="xtick_26">
     <g id="line2d_26">
      <g>
       <use xlink:href="#md37a170aeb" x="270.511672" y="307.584" style="stroke: #000000; stroke-width: 0.6"/>
      </g>
     </g>
    </g>
    <g id="xtick_27">
     <g id="line2d_27">
      <g>
       <use xlink:href="#md37a170aeb" x="280.39002" y="307.584" style="stroke: #000000; stroke-width: 0.6"/>
      </g>
     </g>
    </g>
    <g id="xtick_28">
     <g id="line2d_28">
      <g>
       <use xlink:href="#md37a170aeb" x="288.052263" y="307.584" style="stroke: #000000; stroke-width: 0.6"/>
      </g>
     </g>
    </g>
    <g id="xtick_29">
     <g id="line2d_29">
      <g>
       <use xlink:href="#md37a170aeb" x="294.312771" y="307.584" style="stroke: #000000; stroke-width: 0.6"/>
      </g>
     </g>
    </g>
    <g id="xtick_30">
     <g id="line2d_30">
      <g>
       <use xlink:href="#md37a170aeb" x="299.605955" y="307.584" style="stroke: #000000; stroke-width: 0.6"/>
      </g>
     </g>
    </g>
    <g id="xtick_31">
     <g id="line2d_31">
      <g>
       <use xlink:href="#md37a170aeb" x="304.191119" y="307.584" style="stroke: #000000; stroke-width: 0.6"/>
      </g>
     </g>
    </g>
    <g id="xtick_32">
     <g id="line2d_32">
      <g>
       <use xlink:href="#md37a170aeb" x="308.235521" y="307.584" style="stroke: #000000; stroke-width: 0.6"/>
      </g>
     </g>
    </g>
    <g id="xtick_33">
     <g id="line2d_33">
      <g>
       <use xlink:href="#md37a170aeb" x="335.654461" y="307.584" style="stroke: #000000; stroke-width: 0.6"/>
      </g>
     </g>
    </g>
    <g id="xtick_34">
     <g id="line2d_34">
      <g>
       <use xlink:href="#md37a170aeb" x="349.577211" y="307.584" style="stroke: #000000; stroke-width: 0.6"/>
      </g>
     </g>
    </g>
    <g id="xtick_35">
     <g id="line2d_35">
      <g>
       <use xlink:href="#md37a170aeb" x="359.45556" y="307.584" style="stroke: #000000; stroke-width: 0.6"/>
      </g>
     </g>
    </g>
    <g id="xtick_36">
     <g id="line2d_36">
      <g>
       <use xlink:href="#md37a170aeb" x="367.117802" y="307.584" style="stroke: #000000; stroke-width: 0.6"/>
      </g>
     </g>
    </g>
    <g id="xtick_37">
     <g id="line2d_37">
      <g>
       <use xlink:href="#md37a170aeb" x="373.37831" y="307.584" style="stroke: #000000; stroke-width: 0.6"/>
      </g>
     </g>
    </g>
    <g id="xtick_38">
     <g id="line2d_38">
      <g>
       <use xlink:href="#md37a170aeb" x="378.671494" y="307.584" style="stroke: #000000; stroke-width: 0.6"/>
      </g>
     </g>
    </g>
    <g id="xtick_39">
     <g id="line2d_39">
      <g>
       <use xlink:href="#md37a170aeb" x="383.256659" y="307.584" style="stroke: #000000; stroke-width: 0.6"/>
      </g>
     </g>
    </g>
    <g id="xtick_40">
     <g id="line2d_40">
      <g>
       <use xlink:href="#md37a170aeb" x="387.30106" y="307.584" style="stroke: #000000; stroke-width: 0.6"/>
      </g>
     </g>
    </g>
    <g id="xtick_41">
     <g id="line2d_41">
      <g>
       <use xlink:href="#md37a170aeb" x="414.72" y="307.584" style="stroke: #000000; stroke-width: 0.6"/>
      </g>
     </g>
    </g>
    <g id="text_6">
     <!-- iter# -->
     <g transform="translate(223.488906 335.860562) scale(0.1 -0.1)">
      <defs>
       <path id="DejaVuSans-69" d="M 603 3500 
L 1178 3500 
L 1178 0 
L 603 0 
L 603 3500 
z
M 603 4863 
L 1178 4863 
L 1178 4134 
L 603 4134 
L 603 4863 
z
" transform="scale(0.015625)"/>
       <path id="DejaVuSans-74" d="M 1172 4494 
L 1172 3500 
L 2356 3500 
L 2356 3053 
L 1172 3053 
L 1172 1153 
Q 1172 725 1289 603 
Q 1406 481 1766 481 
L 2356 481 
L 2356 0 
L 1766 0 
Q 1100 0 847 248 
Q 594 497 594 1153 
L 594 3053 
L 172 3053 
L 172 3500 
L 594 3500 
L 594 4494 
L 1172 4494 
z
" transform="scale(0.015625)"/>
       <path id="DejaVuSans-65" d="M 3597 1894 
L 3597 1613 
L 953 1613 
Q 991 1019 1311 708 
Q 1631 397 2203 397 
Q 2534 397 2845 478 
Q 3156 559 3463 722 
L 3463 178 
Q 3153 47 2828 -22 
Q 2503 -91 2169 -91 
Q 1331 -91 842 396 
Q 353 884 353 1716 
Q 353 2575 817 3079 
Q 1281 3584 2069 3584 
Q 2775 3584 3186 3129 
Q 3597 2675 3597 1894 
z
M 3022 2063 
Q 3016 2534 2758 2815 
Q 2500 3097 2075 3097 
Q 1594 3097 1305 2825 
Q 1016 2553 972 2059 
L 3022 2063 
z
" transform="scale(0.015625)"/>
       <path id="DejaVuSans-72" d="M 2631 2963 
Q 2534 3019 2420 3045 
Q 2306 3072 2169 3072 
Q 1681 3072 1420 2755 
Q 1159 2438 1159 1844 
L 1159 0 
L 581 0 
L 581 3500 
L 1159 3500 
L 1159 2956 
Q 1341 3275 1631 3429 
Q 1922 3584 2338 3584 
Q 2397 3584 2469 3576 
Q 2541 3569 2628 3553 
L 2631 2963 
z
" transform="scale(0.015625)"/>
       <path id="DejaVuSans-23" d="M 3272 2816 
L 2363 2816 
L 2100 1772 
L 3016 1772 
L 3272 2816 
z
M 2803 4594 
L 2478 3297 
L 3391 3297 
L 3719 4594 
L 4219 4594 
L 3897 3297 
L 4872 3297 
L 4872 2816 
L 3775 2816 
L 3519 1772 
L 4513 1772 
L 4513 1294 
L 3397 1294 
L 3072 0 
L 2572 0 
L 2894 1294 
L 1978 1294 
L 1656 0 
L 1153 0 
L 1478 1294 
L 494 1294 
L 494 1772 
L 1594 1772 
L 1856 2816 
L 850 2816 
L 850 3297 
L 1978 3297 
L 2297 4594 
L 2803 4594 
z
" transform="scale(0.015625)"/>
      </defs>
      <use xlink:href="#DejaVuSans-69"/>
      <use xlink:href="#DejaVuSans-74" x="27.783203"/>
      <use xlink:href="#DejaVuSans-65" x="66.992188"/>
      <use xlink:href="#DejaVuSans-72" x="128.515625"/>
      <use xlink:href="#DejaVuSans-23" x="169.628906"/>
     </g>
    </g>
   </g>
   <g id="matplotlib.axis_2">
    <g id="ytick_1">
     <g id="line2d_42">
      <defs>
       <path id="m20446ed4e1" d="M 0 0 
L -3.5 0 
" style="stroke: #000000; stroke-width: 0.8"/>
      </defs>
      <g>
       <use xlink:href="#m20446ed4e1" x="57.6" y="245.254111" style="stroke: #000000; stroke-width: 0.8"/>
      </g>
     </g>
     <g id="text_7">
      <!-- $\mathdefault{10^{-2}}$ -->
      <g transform="translate(27.1 249.05333) scale(0.1 -0.1)">
       <defs>
        <path id="DejaVuSans-2212" d="M 678 2272 
L 4684 2272 
L 4684 1741 
L 678 1741 
L 678 2272 
z
" transform="scale(0.015625)"/>
       </defs>
       <use xlink:href="#DejaVuSans-31" transform="translate(0 0.765625)"/>
       <use xlink:href="#DejaVuSans-30" transform="translate(63.623047 0.765625)"/>
       <use xlink:href="#DejaVuSans-2212" transform="translate(128.203125 39.046875) scale(0.7)"/>
       <use xlink:href="#DejaVuSans-32" transform="translate(186.855469 39.046875) scale(0.7)"/>
      </g>
     </g>
    </g>
    <g id="ytick_2">
     <g id="line2d_43">
      <g>
       <use xlink:href="#m20446ed4e1" x="57.6" y="88.622741" style="stroke: #000000; stroke-width: 0.8"/>
      </g>
     </g>
     <g id="text_8">
      <!-- $\mathdefault{10^{-1}}$ -->
      <g transform="translate(27.1 92.421959) scale(0.1 -0.1)">
       <use xlink:href="#DejaVuSans-31" transform="translate(0 0.684375)"/>
       <use xlink:href="#DejaVuSans-30" transform="translate(63.623047 0.684375)"/>
       <use xlink:href="#DejaVuSans-2212" transform="translate(128.203125 38.965625) scale(0.7)"/>
       <use xlink:href="#DejaVuSans-31" transform="translate(186.855469 38.965625) scale(0.7)"/>
      </g>
     </g>
    </g>
    <g id="ytick_3">
     <g id="line2d_44">
      <defs>
       <path id="mcbcc90a794" d="M 0 0 
L -2 0 
" style="stroke: #000000; stroke-width: 0.6"/>
      </defs>
      <g>
       <use xlink:href="#mcbcc90a794" x="57.6" y="307.584" style="stroke: #000000; stroke-width: 0.6"/>
      </g>
     </g>
    </g>
    <g id="ytick_4">
     <g id="line2d_45">
      <g>
       <use xlink:href="#mcbcc90a794" x="57.6" y="292.404852" style="stroke: #000000; stroke-width: 0.6"/>
      </g>
     </g>
    </g>
    <g id="ytick_5">
     <g id="line2d_46">
      <g>
       <use xlink:href="#mcbcc90a794" x="57.6" y="280.002585" style="stroke: #000000; stroke-width: 0.6"/>
      </g>
     </g>
    </g>
    <g id="ytick_6">
     <g id="line2d_47">
      <g>
       <use xlink:href="#mcbcc90a794" x="57.6" y="269.516617" style="stroke: #000000; stroke-width: 0.6"/>
      </g>
     </g>
    </g>
    <g id="ytick_7">
     <g id="line2d_48">
      <g>
       <use xlink:href="#mcbcc90a794" x="57.6" y="260.433259" style="stroke: #000000; stroke-width: 0.6"/>
      </g>
     </g>
    </g>
    <g id="ytick_8">
     <g id="line2d_49">
      <g>
       <use xlink:href="#mcbcc90a794" x="57.6" y="252.42117" style="stroke: #000000; stroke-width: 0.6"/>
      </g>
     </g>
    </g>
    <g id="ytick_9">
     <g id="line2d_50">
      <g>
       <use xlink:href="#mcbcc90a794" x="57.6" y="198.10337" style="stroke: #000000; stroke-width: 0.6"/>
      </g>
     </g>
    </g>
    <g id="ytick_10">
     <g id="line2d_51">
      <g>
       <use xlink:href="#mcbcc90a794" x="57.6" y="170.521955" style="stroke: #000000; stroke-width: 0.6"/>
      </g>
     </g>
    </g>
    <g id="ytick_11">
     <g id="line2d_52">
      <g>
       <use xlink:href="#mcbcc90a794" x="57.6" y="150.95263" style="stroke: #000000; stroke-width: 0.6"/>
      </g>
     </g>
    </g>
    <g id="ytick_12">
     <g id="line2d_53">
      <g>
       <use xlink:href="#mcbcc90a794" x="57.6" y="135.773481" style="stroke: #000000; stroke-width: 0.6"/>
      </g>
     </g>
    </g>
    <g id="ytick_13">
     <g id="line2d_54">
      <g>
       <use xlink:href="#mcbcc90a794" x="57.6" y="123.371214" style="stroke: #000000; stroke-width: 0.6"/>
      </g>
     </g>
    </g>
    <g id="ytick_14">
     <g id="line2d_55">
      <g>
       <use xlink:href="#mcbcc90a794" x="57.6" y="112.885247" style="stroke: #000000; stroke-width: 0.6"/>
      </g>
     </g>
    </g>
    <g id="ytick_15">
     <g id="line2d_56">
      <g>
       <use xlink:href="#mcbcc90a794" x="57.6" y="103.801889" style="stroke: #000000; stroke-width: 0.6"/>
      </g>
     </g>
    </g>
    <g id="ytick_16">
     <g id="line2d_57">
      <g>
       <use xlink:href="#mcbcc90a794" x="57.6" y="95.789799" style="stroke: #000000; stroke-width: 0.6"/>
      </g>
     </g>
    </g>
    <g id="ytick_17">
     <g id="line2d_58">
      <g>
       <use xlink:href="#mcbcc90a794" x="57.6" y="41.472" style="stroke: #000000; stroke-width: 0.6"/>
      </g>
     </g>
    </g>
    <g id="text_9">
     <!-- loss -->
     <g transform="translate(21.020313 184.185812) rotate(-90) scale(0.1 -0.1)">
      <defs>
       <path id="DejaVuSans-6c" d="M 603 4863 
L 1178 4863 
L 1178 0 
L 603 0 
L 603 4863 
z
" transform="scale(0.015625)"/>
       <path id="DejaVuSans-6f" d="M 1959 3097 
Q 1497 3097 1228 2736 
Q 959 2375 959 1747 
Q 959 1119 1226 758 
Q 1494 397 1959 397 
Q 2419 397 2687 759 
Q 2956 1122 2956 1747 
Q 2956 2369 2687 2733 
Q 2419 3097 1959 3097 
z
M 1959 3584 
Q 2709 3584 3137 3096 
Q 3566 2609 3566 1747 
Q 3566 888 3137 398 
Q 2709 -91 1959 -91 
Q 1206 -91 779 398 
Q 353 888 353 1747 
Q 353 2609 779 3096 
Q 1206 3584 1959 3584 
z
" transform="scale(0.015625)"/>
       <path id="DejaVuSans-73" d="M 2834 3397 
L 2834 2853 
Q 2591 2978 2328 3040 
Q 2066 3103 1784 3103 
Q 1356 3103 1142 2972 
Q 928 2841 928 2578 
Q 928 2378 1081 2264 
Q 1234 2150 1697 2047 
L 1894 2003 
Q 2506 1872 2764 1633 
Q 3022 1394 3022 966 
Q 3022 478 2636 193 
Q 2250 -91 1575 -91 
Q 1294 -91 989 -36 
Q 684 19 347 128 
L 347 722 
Q 666 556 975 473 
Q 1284 391 1588 391 
Q 1994 391 2212 530 
Q 2431 669 2431 922 
Q 2431 1156 2273 1281 
Q 2116 1406 1581 1522 
L 1381 1569 
Q 847 1681 609 1914 
Q 372 2147 372 2553 
Q 372 3047 722 3315 
Q 1072 3584 1716 3584 
Q 2034 3584 2315 3537 
Q 2597 3491 2834 3397 
z
" transform="scale(0.015625)"/>
      </defs>
      <use xlink:href="#DejaVuSans-6c"/>
      <use xlink:href="#DejaVuSans-6f" x="27.783203"/>
      <use xlink:href="#DejaVuSans-73" x="88.964844"/>
      <use xlink:href="#DejaVuSans-73" x="141.064453"/>
     </g>
    </g>
   </g>
   <g id="line2d_59">
    <path d="M 274.517111 -1 
L 279.077591 24.672335 
L 284.358031 51.940896 
L 288.933635 74.268157 
L 292.970598 82.42705 
L 296.582487 99.190905 
L 299.850352 102.726259 
L 302.834066 109.747214 
L 305.579116 121.93171 
L 308.120871 99.771176 
L 310.487377 114.788105 
L 312.70125 122.336603 
L 314.780991 106.152862 
L 316.741929 127.462493 
L 318.596907 133.048971 
L 320.356792 118.075907 
L 322.030858 136.330145 
L 323.62709 147.462946 
L 325.152402 120.101247 
L 326.612832 128.384771 
L 328.013672 104.623467 
L 329.359598 127.112538 
L 330.654751 94.53786 
L 331.902824 100.785082 
L 333.10712 115.165628 
L 334.270606 103.392235 
L 335.395957 110.922335 
L 336.485595 112.339715 
L 336.76931 130.748095 
L 337.816872 151.155928 
L 338.833419 165.107958 
L 339.820736 173.58706 
L 340.780455 178.226998 
L 341.714079 180.381585 
L 342.622988 181.997788 
L 343.508458 181.133083 
L 344.371667 181.888887 
L 345.213707 181.844457 
L 347.622599 183.356271 
L 348.389419 183.501397 
L 351.985926 183.426435 
L 352.662137 183.314713 
L 353.325288 183.367433 
L 353.975874 183.261646 
L 354.614363 183.608641 
L 355.241195 183.761882 
L 355.85679 183.007077 
L 357.055829 184.449854 
L 357.640004 184.846593 
L 358.214407 183.605177 
L 358.779359 183.574432 
L 359.335167 183.337379 
L 359.882121 183.429758 
L 360.420499 183.864791 
L 360.562098 184.123309 
L 361.09 182.434361 
L 361.60991 182.01206 
L 362.122064 172.355234 
L 362.626692 174.63251 
L 363.124011 178.189775 
L 363.61423 175.958944 
L 364.574159 178.942958 
L 365.507981 184.09537 
L 365.965538 181.212978 
L 366.862758 186.35749 
L 367.302727 186.58012 
L 367.73713 186.432759 
L 368.166106 184.270374 
L 368.589788 185.693929 
L 369.008307 180.597789 
L 369.421786 184.28892 
L 369.830345 185.887083 
L 370.234101 185.897127 
L 370.633163 187.861855 
L 371.027642 186.503429 
L 371.41764 187.214372 
L 372.184593 179.616252 
L 372.561741 181.847726 
L 372.93479 188.404045 
L 373.303831 189.86471 
L 373.668947 181.877297 
L 374.030222 183.444746 
L 374.482077 152.773807 
L 374.834941 167.310223 
L 375.184215 167.341097 
L 375.529972 179.697653 
L 375.872283 166.079395 
L 376.211214 170.676355 
L 376.546833 172.229951 
L 376.879203 176.545377 
L 377.208387 184.706719 
L 377.534445 189.331069 
L 377.857436 185.779373 
L 378.177417 190.465214 
L 378.494444 186.047058 
L 378.808571 193.879841 
L 379.11985 194.229368 
L 379.428332 187.139521 
L 380.037106 198.828909 
L 380.337492 199.567931 
L 380.635274 189.698385 
L 380.930495 199.275286 
L 381.513431 201.142277 
L 382.369689 190.64345 
L 382.650428 188.323278 
L 382.928891 196.362415 
L 383.205113 175.11263 
L 383.479132 175.611226 
L 383.75098 184.446914 
L 384.020694 168.134806 
L 384.288305 181.555566 
L 384.359041 143.155509 
L 384.624038 118.515246 
L 385.147976 149.823994 
L 385.919191 183.423389 
L 386.423877 193.575506 
L 386.673465 194.878004 
L 386.921253 184.350346 
L 387.167264 193.204783 
L 387.411526 171.266509 
L 387.654063 184.718864 
L 387.894898 187.16384 
L 388.37156 204.12983 
L 388.607433 208.168032 
L 388.841696 205.174711 
L 389.074372 198.310393 
L 389.305481 204.859883 
L 389.535046 195.82739 
L 389.763086 192.618462 
L 389.989622 182.128543 
L 390.214673 199.993222 
L 390.438258 208.518197 
L 390.660397 209.016977 
L 390.881109 212.602224 
L 391.10041 214.069451 
L 391.31832 208.894734 
L 391.534856 209.30846 
L 391.750035 195.494836 
L 392.020452 204.940763 
L 392.232618 204.41468 
L 392.443482 197.514351 
L 392.653059 203.817825 
L 393.274222 230.199557 
L 393.682174 179.112027 
L 393.884347 185.25742 
L 394.085337 162.965689 
L 394.483821 206.213792 
L 394.681342 217.776887 
L 394.877733 215.805125 
L 395.073008 219.197063 
L 395.267178 161.212799 
L 395.460257 173.046604 
L 395.843187 205.762786 
L 396.033063 167.758246 
L 396.221894 174.350865 
L 396.59647 195.281242 
L 396.782237 178.209051 
L 396.967004 185.286102 
L 397.150782 178.1271 
L 397.333582 187.601182 
L 397.696288 167.485764 
L 397.876214 164.532412 
L 398.280405 206.488726 
L 398.457305 197.282255 
L 398.633297 200.606453 
L 398.808392 193.177377 
L 399.155927 110.178873 
L 399.328384 117.658732 
L 399.670721 171.874259 
L 400.177911 208.71413 
L 400.345323 208.671558 
L 400.511923 154.895389 
L 400.677718 168.16776 
L 400.842717 121.373403 
L 401.006927 117.436609 
L 401.170355 136.603859 
L 401.333009 136.075243 
L 401.494896 155.960204 
L 401.656024 95.156745 
L 401.976028 160.553984 
L 402.134919 161.551922 
L 402.293078 186.44538 
L 402.450512 177.198364 
L 402.607227 201.495258 
L 402.76323 176.913076 
L 403.073126 213.235149 
L 403.227032 197.835891 
L 403.380251 211.282902 
L 403.532789 121.044985 
L 403.573193 125.37684 
L 404.026254 188.534029 
L 404.473415 218.768988 
L 405.060713 238.93103 
L 405.638134 250.82123 
L 406.764639 264.734669 
L 407.17773 268.679753 
L 407.58591 271.610156 
L 407.720898 272.056674 
L 407.989294 273.391365 
L 408.12271 273.913915 
L 408.158061 259.723657 
L 408.290824 93.90581 
L 408.423075 97.566238 
L 408.554819 97.154731 
L 408.686059 102.211937 
L 409.20606 153.890126 
L 409.334839 131.923744 
L 409.718304 181.934086 
L 409.84518 171.024269 
L 409.971589 172.799797 
L 410.097534 172.733173 
L 410.223019 179.914444 
L 410.348047 152.264503 
L 410.596746 178.61266 
L 410.720423 190.645956 
L 411.088803 176.855613 
L 411.210724 187.013092 
L 411.332213 171.322899 
L 411.573909 122.939629 
L 411.694122 115.470197 
L 411.813916 118.283014 
L 412.17081 161.026524 
L 412.202232 149.317592 
L 412.555133 212.399297 
L 412.788402 226.749502 
L 413.020096 232.185895 
L 413.364733 235.641778 
L 413.592584 236.465246 
L 413.93155 237.822186 
L 414.0438 237.746373 
L 414.489163 239.430861 
L 414.709697 240.053977 
L 414.819435 239.355962 
L 415.146561 240.665945 
L 415.362926 240.702359 
L 415.577937 241.607822 
L 415.684939 241.69134 
L 415.791609 241.376092 
L 415.791609 241.376092 
" clip-path="url(#p6dcd3b4388)" style="fill: none; stroke: #1f77b4; stroke-opacity: 0.4; stroke-linecap: square"/>
   </g>
   <g id="line2d_60">
    <path d="M 251.464736 -1 
L 255.365565 4.820329 
L 265.199406 23.310542 
L 272.834916 42.766453 
L 279.077591 54.794579 
L 284.358031 56.248079 
L 288.933635 61.77136 
L 292.970598 68.518394 
L 296.582487 65.677838 
L 299.850352 81.25014 
L 302.834066 84.092662 
L 305.579116 98.629306 
L 308.120871 105.902964 
L 310.487377 90.748585 
L 312.70125 96.470848 
L 314.780991 104.408675 
L 316.741929 109.469443 
L 318.596907 109.458885 
L 320.356792 84.235064 
L 322.030858 82.592166 
L 323.62709 97.32484 
L 325.152402 97.641864 
L 326.612832 108.200173 
L 328.013672 104.659198 
L 329.359598 116.610876 
L 330.654751 55.539882 
L 331.902824 85.104102 
L 333.10712 95.828052 
L 335.395957 122.592567 
L 336.485595 132.865559 
L 336.76931 139.381873 
L 337.816872 146.424698 
L 338.833419 150.937842 
L 339.820736 153.647678 
L 340.780455 155.215097 
L 341.714079 155.970791 
L 342.622988 156.212254 
L 343.508458 157.065853 
L 344.371667 157.691657 
L 346.035592 158.416727 
L 346.838263 158.549745 
L 348.389419 158.975179 
L 349.873522 159.463587 
L 350.592193 159.392433 
L 351.29613 159.752459 
L 355.241195 160.691099 
L 355.85679 160.63752 
L 357.055829 161.222819 
L 358.214407 161.285587 
L 358.779359 161.333098 
L 359.335167 161.182142 
L 359.882121 161.579488 
L 360.420499 161.376207 
L 360.562098 160.868068 
L 361.09 161.283278 
L 361.60991 162.07069 
L 362.122064 161.655724 
L 362.626692 159.963394 
L 363.124011 161.79502 
L 363.61423 162.52087 
L 364.097549 162.928988 
L 364.574159 162.795873 
L 365.044245 163.63133 
L 365.965538 163.533608 
L 366.417079 164.289174 
L 366.862758 164.080828 
L 367.73713 165.414791 
L 368.166106 166.085278 
L 368.589788 166.04708 
L 369.008307 165.664997 
L 369.830345 165.244243 
L 370.633163 166.583631 
L 371.027642 166.759588 
L 371.41764 167.217415 
L 371.803258 165.795135 
L 372.184593 165.466024 
L 372.561741 167.139247 
L 373.303831 168.257469 
L 373.668947 167.306367 
L 374.030222 167.93655 
L 374.387735 167.948205 
L 374.482077 167.350748 
L 374.834941 167.640187 
L 375.184215 168.475049 
L 375.529972 165.607256 
L 376.211214 168.303847 
L 376.546833 168.536301 
L 376.879203 169.03595 
L 377.208387 169.873873 
L 377.534445 168.229919 
L 377.857436 170.057146 
L 378.177417 170.866431 
L 378.494444 171.00575 
L 378.808571 167.937334 
L 379.11985 166.177695 
L 379.734068 170.219717 
L 380.037106 170.895249 
L 380.337492 172.100712 
L 380.635274 171.8524 
L 380.930495 170.789077 
L 381.2232 164.362135 
L 381.513431 169.357786 
L 381.801229 167.165943 
L 382.369689 172.529726 
L 382.650428 168.792768 
L 382.928891 168.97901 
L 383.205113 169.551265 
L 384.288305 175.293565 
L 384.624038 171.848816 
L 384.887006 171.782101 
L 385.147976 173.999914 
L 385.406977 172.057397 
L 385.664039 173.689648 
L 385.919191 173.673717 
L 386.172462 175.564608 
L 386.673465 173.143333 
L 386.921253 176.155003 
L 387.411526 179.083841 
L 387.654063 179.185072 
L 387.894898 174.301041 
L 388.134056 175.582848 
L 388.37156 175.203764 
L 388.607433 173.660002 
L 388.841696 176.845313 
L 389.074372 173.318848 
L 389.305481 176.86229 
L 389.535046 160.684615 
L 389.989622 172.769605 
L 390.214673 170.977384 
L 390.438258 171.689775 
L 390.660397 176.156643 
L 391.10041 178.861742 
L 391.31832 179.575686 
L 391.534856 181.34378 
L 391.963874 182.365173 
L 392.020452 183.313356 
L 392.232618 177.669041 
L 392.443482 163.488092 
L 392.653059 160.978256 
L 392.861364 170.68872 
L 393.274222 178.971285 
L 393.478804 174.231054 
L 393.884347 181.58097 
L 394.085337 172.651451 
L 394.483821 182.471757 
L 394.681342 161.924341 
L 394.877733 171.265587 
L 395.073008 167.859021 
L 395.267178 162.220832 
L 395.460257 165.640483 
L 395.652256 173.302882 
L 396.033063 177.060246 
L 396.221894 174.420829 
L 396.409693 178.951478 
L 396.59647 173.695848 
L 396.782237 171.964036 
L 396.967004 179.986091 
L 397.150782 182.636566 
L 397.333582 177.720709 
L 397.515414 164.786839 
L 397.696288 165.343361 
L 398.055203 181.577353 
L 398.233263 175.705825 
L 398.280405 180.505589 
L 398.633297 184.395168 
L 398.808392 184.287154 
L 399.155927 189.49067 
L 399.328384 187.614696 
L 399.499979 188.291299 
L 399.670721 187.303701 
L 399.840618 187.710045 
L 400.009678 188.72237 
L 400.177911 188.805794 
L 400.511923 182.688386 
L 400.677718 186.506585 
L 400.842717 186.778592 
L 401.006927 185.303869 
L 401.170355 186.972077 
L 401.494896 181.928578 
L 401.656024 185.201976 
L 401.816399 181.038266 
L 401.976028 182.285376 
L 402.134919 181.36291 
L 402.293078 185.548954 
L 402.607227 175.080649 
L 402.76323 164.12777 
L 402.918528 176.537899 
L 403.073126 178.014531 
L 403.227032 175.173789 
L 403.573193 189.307022 
L 403.724879 189.835953 
L 403.875897 186.041569 
L 404.026254 187.018006 
L 404.175956 189.551962 
L 404.325007 183.137085 
L 404.473415 156.962666 
L 404.621184 166.381335 
L 404.768319 164.075344 
L 404.914827 173.898222 
L 405.060713 167.683768 
L 405.350637 182.617584 
L 405.494686 150.039228 
L 405.638134 165.774573 
L 405.780985 164.535005 
L 406.064916 180.495941 
L 406.206006 182.420715 
L 406.346519 187.366421 
L 406.486459 187.525014 
L 406.625831 181.689106 
L 407.040584 193.71389 
L 407.17773 189.166296 
L 407.31433 189.087702 
L 407.450388 184.813264 
L 407.855359 191.39302 
L 407.989294 185.592263 
L 408.12271 186.498697 
L 408.158061 191.12301 
L 408.290824 190.944053 
L 408.423075 190.969513 
L 408.554819 194.213917 
L 408.686059 192.988834 
L 408.816799 194.301303 
L 408.947044 178.320146 
L 409.076796 188.45269 
L 409.20606 183.147061 
L 409.334839 186.306133 
L 409.463138 186.638736 
L 409.590958 190.688455 
L 409.84518 188.701135 
L 409.971589 193.70083 
L 410.223019 174.013644 
L 410.472622 190.942732 
L 410.596746 161.195128 
L 410.966448 189.101535 
L 411.088803 191.364375 
L 411.210724 190.738906 
L 411.332213 193.805556 
L 411.453274 192.280811 
L 411.573909 153.060354 
L 411.694122 159.347876 
L 411.813916 159.361405 
L 412.052257 183.669399 
L 412.17081 182.047247 
L 412.202232 157.228592 
L 412.437902 177.789789 
L 412.555133 175.226072 
L 412.671966 176.598594 
L 412.904445 191.554154 
L 413.020096 191.867853 
L 413.13536 190.79001 
L 413.250238 181.813958 
L 413.364733 184.049949 
L 413.478848 155.000004 
L 413.705945 179.304995 
L 413.818933 173.099461 
L 414.0438 190.537889 
L 414.155683 193.260404 
L 414.267203 192.53673 
L 414.378363 194.208287 
L 414.489163 192.840356 
L 414.709697 177.41473 
L 414.819435 184.288286 
L 414.928824 179.441382 
L 415.254914 194.807013 
L 415.362926 195.45566 
L 415.577937 189.714089 
L 415.684939 190.416434 
L 415.791609 190.71969 
L 415.791609 190.71969 
" clip-path="url(#p6dcd3b4388)" style="fill: none; stroke: #ff7f0e; stroke-opacity: 0.4; stroke-linecap: square"/>
   </g>
   <g id="line2d_61">
    <path d="M 246.618274 -1 
L 255.365565 14.819258 
L 265.199406 21.484852 
L 272.834916 48.092494 
L 279.077591 59.840779 
L 284.358031 77.552304 
L 288.933635 90.569376 
L 292.970598 89.341438 
L 296.582487 89.171809 
L 299.850352 91.658246 
L 302.834066 89.599201 
L 305.579116 101.196381 
L 308.120871 105.408227 
L 310.487377 114.112066 
L 312.70125 110.901658 
L 314.780991 112.80148 
L 316.741929 76.66095 
L 318.596907 78.702741 
L 320.356792 88.887342 
L 322.030858 100.34743 
L 323.62709 108.250842 
L 325.152402 83.438452 
L 326.612832 106.887405 
L 328.013672 112.007201 
L 329.359598 110.794549 
L 330.654751 127.174184 
L 333.10712 94.007501 
L 334.270606 99.377726 
L 335.395957 118.685912 
L 337.816872 149.027595 
L 338.833419 156.743318 
L 339.820736 161.604698 
L 340.780455 164.505121 
L 341.714079 166.523347 
L 342.622988 167.925424 
L 344.371667 169.568782 
L 346.035592 171.031732 
L 349.873522 172.972202 
L 351.985926 173.415559 
L 353.325288 173.967654 
L 353.975874 174.149658 
L 354.614363 174.489752 
L 356.461543 174.603062 
L 358.214407 175.052541 
L 358.779359 174.94032 
L 359.882121 175.48603 
L 360.420499 175.20035 
L 360.562098 173.667047 
L 361.09 174.001015 
L 361.60991 174.711195 
L 362.122064 174.941949 
L 362.626692 175.83393 
L 363.124011 174.305243 
L 363.61423 175.156278 
L 364.574159 177.700351 
L 365.044245 167.091389 
L 365.965538 175.285177 
L 366.417079 177.165755 
L 366.862758 175.073727 
L 367.302727 176.808025 
L 367.73713 175.724319 
L 368.166106 175.575104 
L 368.589788 178.956828 
L 369.008307 179.34429 
L 369.421786 170.192637 
L 369.830345 175.7989 
L 370.234101 171.910174 
L 371.027642 180.155639 
L 371.41764 180.745074 
L 371.803258 170.777295 
L 372.561741 179.788381 
L 372.93479 182.064002 
L 373.303831 180.014811 
L 373.668947 175.492274 
L 374.030222 179.037356 
L 374.387735 181.001517 
L 374.482077 182.21853 
L 374.834941 183.114979 
L 375.184215 184.346527 
L 375.529972 183.087685 
L 375.872283 183.845374 
L 376.211214 185.253939 
L 376.546833 185.050649 
L 376.879203 183.072464 
L 377.208387 178.029546 
L 377.534445 182.498634 
L 377.857436 184.312211 
L 378.177417 179.980936 
L 378.494444 178.63222 
L 378.808571 183.560071 
L 379.11985 174.92186 
L 379.428332 180.206296 
L 379.734068 180.758851 
L 380.037106 185.033318 
L 380.930495 189.740834 
L 381.2232 188.82572 
L 381.513431 182.978759 
L 381.801229 184.64623 
L 382.086636 181.139983 
L 382.369689 184.115081 
L 382.650428 180.849031 
L 382.928891 176.013845 
L 383.205113 178.365315 
L 383.75098 186.46171 
L 384.020694 189.757326 
L 384.288305 188.671791 
L 384.359041 189.416751 
L 384.624038 174.931813 
L 384.887006 183.135295 
L 385.147976 184.084147 
L 385.406977 182.533537 
L 385.664039 185.336322 
L 385.919191 184.123282 
L 386.172462 188.628677 
L 386.423877 177.735561 
L 386.673465 186.216434 
L 386.921253 172.685573 
L 387.411526 188.418451 
L 388.37156 195.569836 
L 388.607433 194.088506 
L 388.841696 194.984036 
L 389.074372 191.567282 
L 389.305481 177.902814 
L 389.535046 186.349974 
L 389.763086 190.537545 
L 389.989622 191.637257 
L 390.214673 191.354643 
L 390.438258 182.619729 
L 390.881109 192.930751 
L 391.10041 192.347976 
L 391.31832 188.396641 
L 391.534856 193.378986 
L 391.750035 186.572425 
L 391.963874 186.437116 
L 392.020452 176.082211 
L 392.232618 188.052619 
L 392.653059 197.813825 
L 392.861364 196.982122 
L 393.068413 199.332855 
L 393.274222 199.534453 
L 393.478804 181.759226 
L 393.884347 192.446611 
L 394.085337 196.784998 
L 394.285157 191.11626 
L 394.483821 192.340602 
L 394.681342 192.396771 
L 394.877733 191.75919 
L 395.073008 197.406795 
L 395.267178 198.786366 
L 395.652256 199.201341 
L 396.409693 204.203032 
L 396.59647 190.898614 
L 396.782237 196.914123 
L 397.150782 201.184811 
L 397.333582 197.356602 
L 397.515414 189.438618 
L 397.696288 195.673158 
L 397.876214 191.588525 
L 398.055203 197.472113 
L 398.233263 198.212828 
L 398.280405 187.921724 
L 398.457305 180.086618 
L 398.633297 181.698536 
L 398.808392 190.397893 
L 398.982599 176.221968 
L 399.155927 179.801786 
L 399.328384 169.923036 
L 399.499979 183.791992 
L 399.670721 187.256745 
L 399.840618 173.550748 
L 400.009678 181.631374 
L 400.177911 176.899617 
L 400.511923 195.167852 
L 400.677718 192.455655 
L 400.842717 180.876401 
L 401.170355 191.757696 
L 401.333009 178.031771 
L 401.494896 145.923417 
L 401.656024 163.377524 
L 401.816399 159.447184 
L 401.976028 176.03291 
L 402.134919 171.711963 
L 402.918528 201.512608 
L 403.073126 203.685961 
L 403.227032 197.877239 
L 403.380251 202.434041 
L 403.573193 192.143995 
L 403.875897 204.970572 
L 404.026254 208.246229 
L 404.175956 208.94218 
L 404.325007 205.636444 
L 404.621184 208.658893 
L 404.914827 210.931582 
L 405.205981 210.163259 
L 405.350637 207.8573 
L 405.494686 208.219965 
L 405.638134 204.847427 
L 405.780985 208.742589 
L 405.923244 207.044164 
L 406.206006 211.440887 
L 406.486459 207.902833 
L 406.764639 211.26636 
L 406.902889 197.382144 
L 407.040584 203.97156 
L 407.17773 201.44388 
L 407.31433 205.347822 
L 407.450388 205.63407 
L 407.58591 199.10507 
L 407.720898 204.260795 
L 407.855359 203.996677 
L 407.989294 205.870571 
L 408.290824 181.943152 
L 408.686059 199.056411 
L 408.816799 200.958307 
L 408.947044 186.871637 
L 409.20606 195.322339 
L 409.334839 192.083899 
L 409.463138 185.716096 
L 409.590958 185.963414 
L 409.718304 193.09493 
L 409.84518 182.65759 
L 409.971589 193.34039 
L 410.097534 183.523947 
L 410.348047 196.172695 
L 410.472622 195.691086 
L 410.596746 202.152836 
L 410.720423 201.262493 
L 410.843656 203.748444 
L 411.088803 199.887047 
L 411.210724 192.341403 
L 411.332213 198.13699 
L 411.453274 196.839731 
L 411.694122 181.111235 
L 412.052257 196.900427 
L 412.17081 192.972735 
L 412.320269 202.804831 
L 412.437902 204.842513 
L 412.555133 204.799182 
L 412.788402 207.75684 
L 412.904445 209.908645 
L 413.020096 197.594941 
L 413.13536 202.705099 
L 413.250238 198.851396 
L 413.478848 205.307698 
L 413.818933 209.331475 
L 413.93155 206.912522 
L 414.0438 200.432248 
L 414.267203 209.460219 
L 414.378363 206.709558 
L 414.489163 183.747182 
L 414.819435 206.846876 
L 414.928824 203.929515 
L 415.146561 209.992517 
L 415.254914 203.708306 
L 415.4706 208.993337 
L 415.577937 212.508748 
L 415.791609 210.170314 
L 415.791609 210.170314 
" clip-path="url(#p6dcd3b4388)" style="fill: none; stroke: #2ca02c; stroke-opacity: 0.4; stroke-linecap: square"/>
   </g>
   <g id="patch_3">
    <path d="M 57.6 307.584 
L 57.6 41.472 
" style="fill: none; stroke: #000000; stroke-width: 0.8; stroke-linejoin: miter; stroke-linecap: square"/>
   </g>
   <g id="patch_4">
    <path d="M 414.72 307.584 
L 414.72 41.472 
" style="fill: none; stroke: #000000; stroke-width: 0.8; stroke-linejoin: miter; stroke-linecap: square"/>
   </g>
   <g id="patch_5">
    <path d="M 57.6 307.584 
L 414.72 307.584 
" style="fill: none; stroke: #000000; stroke-width: 0.8; stroke-linejoin: miter; stroke-linecap: square"/>
   </g>
   <g id="patch_6">
    <path d="M 57.6 41.472 
L 414.72 41.472 
" style="fill: none; stroke: #000000; stroke-width: 0.8; stroke-linejoin: miter; stroke-linecap: square"/>
   </g>
   <g id="text_10">
    <!-- 2025-02-18-14:49:51 -->
    <g transform="translate(172.178438 35.472) scale(0.12 -0.12)">
     <defs>
      <path id="DejaVuSans-35" d="M 691 4666 
L 3169 4666 
L 3169 4134 
L 1269 4134 
L 1269 2991 
Q 1406 3038 1543 3061 
Q 1681 3084 1819 3084 
Q 2600 3084 3056 2656 
Q 3513 2228 3513 1497 
Q 3513 744 3044 326 
Q 2575 -91 1722 -91 
Q 1428 -91 1123 -41 
Q 819 9 494 109 
L 494 744 
Q 775 591 1075 516 
Q 1375 441 1709 441 
Q 2250 441 2565 725 
Q 2881 1009 2881 1497 
Q 2881 1984 2565 2268 
Q 2250 2553 1709 2553 
Q 1456 2553 1204 2497 
Q 953 2441 691 2322 
L 691 4666 
z
" transform="scale(0.015625)"/>
      <path id="DejaVuSans-2d" d="M 313 2009 
L 1997 2009 
L 1997 1497 
L 313 1497 
L 313 2009 
z
" transform="scale(0.015625)"/>
      <path id="DejaVuSans-38" d="M 2034 2216 
Q 1584 2216 1326 1975 
Q 1069 1734 1069 1313 
Q 1069 891 1326 650 
Q 1584 409 2034 409 
Q 2484 409 2743 651 
Q 3003 894 3003 1313 
Q 3003 1734 2745 1975 
Q 2488 2216 2034 2216 
z
M 1403 2484 
Q 997 2584 770 2862 
Q 544 3141 544 3541 
Q 544 4100 942 4425 
Q 1341 4750 2034 4750 
Q 2731 4750 3128 4425 
Q 3525 4100 3525 3541 
Q 3525 3141 3298 2862 
Q 3072 2584 2669 2484 
Q 3125 2378 3379 2068 
Q 3634 1759 3634 1313 
Q 3634 634 3220 271 
Q 2806 -91 2034 -91 
Q 1263 -91 848 271 
Q 434 634 434 1313 
Q 434 1759 690 2068 
Q 947 2378 1403 2484 
z
M 1172 3481 
Q 1172 3119 1398 2916 
Q 1625 2713 2034 2713 
Q 2441 2713 2670 2916 
Q 2900 3119 2900 3481 
Q 2900 3844 2670 4047 
Q 2441 4250 2034 4250 
Q 1625 4250 1398 4047 
Q 1172 3844 1172 3481 
z
" transform="scale(0.015625)"/>
      <path id="DejaVuSans-3a" d="M 750 794 
L 1409 794 
L 1409 0 
L 750 0 
L 750 794 
z
M 750 3309 
L 1409 3309 
L 1409 2516 
L 750 2516 
L 750 3309 
z
" transform="scale(0.015625)"/>
      <path id="DejaVuSans-39" d="M 703 97 
L 703 672 
Q 941 559 1184 500 
Q 1428 441 1663 441 
Q 2288 441 2617 861 
Q 2947 1281 2994 2138 
Q 2813 1869 2534 1725 
Q 2256 1581 1919 1581 
Q 1219 1581 811 2004 
Q 403 2428 403 3163 
Q 403 3881 828 4315 
Q 1253 4750 1959 4750 
Q 2769 4750 3195 4129 
Q 3622 3509 3622 2328 
Q 3622 1225 3098 567 
Q 2575 -91 1691 -91 
Q 1453 -91 1209 -44 
Q 966 3 703 97 
z
M 1959 2075 
Q 2384 2075 2632 2365 
Q 2881 2656 2881 3163 
Q 2881 3666 2632 3958 
Q 2384 4250 1959 4250 
Q 1534 4250 1286 3958 
Q 1038 3666 1038 3163 
Q 1038 2656 1286 2365 
Q 1534 2075 1959 2075 
z
" transform="scale(0.015625)"/>
     </defs>
     <use xlink:href="#DejaVuSans-32"/>
     <use xlink:href="#DejaVuSans-30" x="63.623047"/>
     <use xlink:href="#DejaVuSans-32" x="127.246094"/>
     <use xlink:href="#DejaVuSans-35" x="190.869141"/>
     <use xlink:href="#DejaVuSans-2d" x="254.492188"/>
     <use xlink:href="#DejaVuSans-30" x="290.576172"/>
     <use xlink:href="#DejaVuSans-32" x="354.199219"/>
     <use xlink:href="#DejaVuSans-2d" x="417.822266"/>
     <use xlink:href="#DejaVuSans-31" x="453.90625"/>
     <use xlink:href="#DejaVuSans-38" x="517.529297"/>
     <use xlink:href="#DejaVuSans-2d" x="581.152344"/>
     <use xlink:href="#DejaVuSans-31" x="617.236328"/>
     <use xlink:href="#DejaVuSans-34" x="680.859375"/>
     <use xlink:href="#DejaVuSans-3a" x="744.482422"/>
     <use xlink:href="#DejaVuSans-34" x="778.173828"/>
     <use xlink:href="#DejaVuSans-39" x="841.796875"/>
     <use xlink:href="#DejaVuSans-3a" x="905.419922"/>
     <use xlink:href="#DejaVuSans-35" x="939.111328"/>
     <use xlink:href="#DejaVuSans-31" x="1002.734375"/>
    </g>
   </g>
   <g id="legend_1">
    <g id="patch_7">
     <path d="M 64.6 94.34075 
L 190.723438 94.34075 
Q 192.723438 94.34075 192.723438 92.34075 
L 192.723438 48.472 
Q 192.723438 46.472 190.723438 46.472 
L 64.6 46.472 
Q 62.6 46.472 62.6 48.472 
L 62.6 92.34075 
Q 62.6 94.34075 64.6 94.34075 
z
" style="fill: #ffffff; opacity: 0.8; stroke: #cccccc; stroke-linejoin: miter"/>
    </g>
    <g id="line2d_62">
     <path d="M 66.6 54.570438 
L 76.6 54.570438 
L 86.6 54.570438 
" style="fill: none; stroke: #1f77b4; stroke-opacity: 0.4; stroke-linecap: square"/>
    </g>
    <g id="text_11">
     <!-- SchNet eval_loss -->
     <g transform="translate(94.6 58.070438) scale(0.1 -0.1)">
      <defs>
       <path id="DejaVuSans-53" d="M 3425 4513 
L 3425 3897 
Q 3066 4069 2747 4153 
Q 2428 4238 2131 4238 
Q 1616 4238 1336 4038 
Q 1056 3838 1056 3469 
Q 1056 3159 1242 3001 
Q 1428 2844 1947 2747 
L 2328 2669 
Q 3034 2534 3370 2195 
Q 3706 1856 3706 1288 
Q 3706 609 3251 259 
Q 2797 -91 1919 -91 
Q 1588 -91 1214 -16 
Q 841 59 441 206 
L 441 856 
Q 825 641 1194 531 
Q 1563 422 1919 422 
Q 2459 422 2753 634 
Q 3047 847 3047 1241 
Q 3047 1584 2836 1778 
Q 2625 1972 2144 2069 
L 1759 2144 
Q 1053 2284 737 2584 
Q 422 2884 422 3419 
Q 422 4038 858 4394 
Q 1294 4750 2059 4750 
Q 2388 4750 2728 4690 
Q 3069 4631 3425 4513 
z
" transform="scale(0.015625)"/>
       <path id="DejaVuSans-63" d="M 3122 3366 
L 3122 2828 
Q 2878 2963 2633 3030 
Q 2388 3097 2138 3097 
Q 1578 3097 1268 2742 
Q 959 2388 959 1747 
Q 959 1106 1268 751 
Q 1578 397 2138 397 
Q 2388 397 2633 464 
Q 2878 531 3122 666 
L 3122 134 
Q 2881 22 2623 -34 
Q 2366 -91 2075 -91 
Q 1284 -91 818 406 
Q 353 903 353 1747 
Q 353 2603 823 3093 
Q 1294 3584 2113 3584 
Q 2378 3584 2631 3529 
Q 2884 3475 3122 3366 
z
" transform="scale(0.015625)"/>
       <path id="DejaVuSans-68" d="M 3513 2113 
L 3513 0 
L 2938 0 
L 2938 2094 
Q 2938 2591 2744 2837 
Q 2550 3084 2163 3084 
Q 1697 3084 1428 2787 
Q 1159 2491 1159 1978 
L 1159 0 
L 581 0 
L 581 4863 
L 1159 4863 
L 1159 2956 
Q 1366 3272 1645 3428 
Q 1925 3584 2291 3584 
Q 2894 3584 3203 3211 
Q 3513 2838 3513 2113 
z
" transform="scale(0.015625)"/>
       <path id="DejaVuSans-4e" d="M 628 4666 
L 1478 4666 
L 3547 763 
L 3547 4666 
L 4159 4666 
L 4159 0 
L 3309 0 
L 1241 3903 
L 1241 0 
L 628 0 
L 628 4666 
z
" transform="scale(0.015625)"/>
       <path id="DejaVuSans-20" transform="scale(0.015625)"/>
       <path id="DejaVuSans-76" d="M 191 3500 
L 800 3500 
L 1894 563 
L 2988 3500 
L 3597 3500 
L 2284 0 
L 1503 0 
L 191 3500 
z
" transform="scale(0.015625)"/>
       <path id="DejaVuSans-61" d="M 2194 1759 
Q 1497 1759 1228 1600 
Q 959 1441 959 1056 
Q 959 750 1161 570 
Q 1363 391 1709 391 
Q 2188 391 2477 730 
Q 2766 1069 2766 1631 
L 2766 1759 
L 2194 1759 
z
M 3341 1997 
L 3341 0 
L 2766 0 
L 2766 531 
Q 2569 213 2275 61 
Q 1981 -91 1556 -91 
Q 1019 -91 701 211 
Q 384 513 384 1019 
Q 384 1609 779 1909 
Q 1175 2209 1959 2209 
L 2766 2209 
L 2766 2266 
Q 2766 2663 2505 2880 
Q 2244 3097 1772 3097 
Q 1472 3097 1187 3025 
Q 903 2953 641 2809 
L 641 3341 
Q 956 3463 1253 3523 
Q 1550 3584 1831 3584 
Q 2591 3584 2966 3190 
Q 3341 2797 3341 1997 
z
" transform="scale(0.015625)"/>
       <path id="DejaVuSans-5f" d="M 3263 -1063 
L 3263 -1509 
L -63 -1509 
L -63 -1063 
L 3263 -1063 
z
" transform="scale(0.015625)"/>
      </defs>
      <use xlink:href="#DejaVuSans-53"/>
      <use xlink:href="#DejaVuSans-63" x="63.476562"/>
      <use xlink:href="#DejaVuSans-68" x="118.457031"/>
      <use xlink:href="#DejaVuSans-4e" x="181.835938"/>
      <use xlink:href="#DejaVuSans-65" x="256.640625"/>
      <use xlink:href="#DejaVuSans-74" x="318.164062"/>
      <use xlink:href="#DejaVuSans-20" x="357.373047"/>
      <use xlink:href="#DejaVuSans-65" x="389.160156"/>
      <use xlink:href="#DejaVuSans-76" x="450.683594"/>
      <use xlink:href="#DejaVuSans-61" x="509.863281"/>
      <use xlink:href="#DejaVuSans-6c" x="571.142578"/>
      <use xlink:href="#DejaVuSans-5f" x="598.925781"/>
      <use xlink:href="#DejaVuSans-6c" x="648.925781"/>
      <use xlink:href="#DejaVuSans-6f" x="676.708984"/>
      <use xlink:href="#DejaVuSans-73" x="737.890625"/>
      <use xlink:href="#DejaVuSans-73" x="789.990234"/>
     </g>
    </g>
    <g id="line2d_63">
     <path d="M 66.6 69.526688 
L 76.6 69.526688 
L 86.6 69.526688 
" style="fill: none; stroke: #ff7f0e; stroke-opacity: 0.4; stroke-linecap: square"/>
    </g>
    <g id="text_12">
     <!-- MoGIN13 eval_loss -->
     <g transform="translate(94.6 73.026688) scale(0.1 -0.1)">
      <defs>
       <path id="DejaVuSans-4d" d="M 628 4666 
L 1569 4666 
L 2759 1491 
L 3956 4666 
L 4897 4666 
L 4897 0 
L 4281 0 
L 4281 4097 
L 3078 897 
L 2444 897 
L 1241 4097 
L 1241 0 
L 628 0 
L 628 4666 
z
" transform="scale(0.015625)"/>
       <path id="DejaVuSans-47" d="M 3809 666 
L 3809 1919 
L 2778 1919 
L 2778 2438 
L 4434 2438 
L 4434 434 
Q 4069 175 3628 42 
Q 3188 -91 2688 -91 
Q 1594 -91 976 548 
Q 359 1188 359 2328 
Q 359 3472 976 4111 
Q 1594 4750 2688 4750 
Q 3144 4750 3555 4637 
Q 3966 4525 4313 4306 
L 4313 3634 
Q 3963 3931 3569 4081 
Q 3175 4231 2741 4231 
Q 1884 4231 1454 3753 
Q 1025 3275 1025 2328 
Q 1025 1384 1454 906 
Q 1884 428 2741 428 
Q 3075 428 3337 486 
Q 3600 544 3809 666 
z
" transform="scale(0.015625)"/>
       <path id="DejaVuSans-49" d="M 628 4666 
L 1259 4666 
L 1259 0 
L 628 0 
L 628 4666 
z
" transform="scale(0.015625)"/>
      </defs>
      <use xlink:href="#DejaVuSans-4d"/>
      <use xlink:href="#DejaVuSans-6f" x="86.279297"/>
      <use xlink:href="#DejaVuSans-47" x="147.460938"/>
      <use xlink:href="#DejaVuSans-49" x="224.951172"/>
      <use xlink:href="#DejaVuSans-4e" x="254.443359"/>
      <use xlink:href="#DejaVuSans-31" x="329.248047"/>
      <use xlink:href="#DejaVuSans-33" x="392.871094"/>
      <use xlink:href="#DejaVuSans-20" x="456.494141"/>
      <use xlink:href="#DejaVuSans-65" x="488.28125"/>
      <use xlink:href="#DejaVuSans-76" x="549.804688"/>
      <use xlink:href="#DejaVuSans-61" x="608.984375"/>
      <use xlink:href="#DejaVuSans-6c" x="670.263672"/>
      <use xlink:href="#DejaVuSans-5f" x="698.046875"/>
      <use xlink:href="#DejaVuSans-6c" x="748.046875"/>
      <use xlink:href="#DejaVuSans-6f" x="775.830078"/>
      <use xlink:href="#DejaVuSans-73" x="837.011719"/>
      <use xlink:href="#DejaVuSans-73" x="889.111328"/>
     </g>
    </g>
    <g id="line2d_64">
     <path d="M 66.6 84.482938 
L 76.6 84.482938 
L 86.6 84.482938 
" style="fill: none; stroke: #2ca02c; stroke-opacity: 0.4; stroke-linecap: square"/>
    </g>
    <g id="text_13">
     <!-- MoGIN11 eval_loss -->
     <g transform="translate(94.6 87.982938) scale(0.1 -0.1)">
      <use xlink:href="#DejaVuSans-4d"/>
      <use xlink:href="#DejaVuSans-6f" x="86.279297"/>
      <use xlink:href="#DejaVuSans-47" x="147.460938"/>
      <use xlink:href="#DejaVuSans-49" x="224.951172"/>
      <use xlink:href="#DejaVuSans-4e" x="254.443359"/>
      <use xlink:href="#DejaVuSans-31" x="329.248047"/>
      <use xlink:href="#DejaVuSans-31" x="392.871094"/>
      <use xlink:href="#DejaVuSans-20" x="456.494141"/>
      <use xlink:href="#DejaVuSans-65" x="488.28125"/>
      <use xlink:href="#DejaVuSans-76" x="549.804688"/>
      <use xlink:href="#DejaVuSans-61" x="608.984375"/>
      <use xlink:href="#DejaVuSans-6c" x="670.263672"/>
      <use xlink:href="#DejaVuSans-5f" x="698.046875"/>
      <use xlink:href="#DejaVuSans-6c" x="748.046875"/>
      <use xlink:href="#DejaVuSans-6f" x="775.830078"/>
      <use xlink:href="#DejaVuSans-73" x="837.011719"/>
      <use xlink:href="#DejaVuSans-73" x="889.111328"/>
     </g>
    </g>
   </g>
  </g>
 </g>
 <defs>
  <clipPath id="p6dcd3b4388">
   <rect x="57.6" y="41.472" width="357.12" height="266.112"/>
  </clipPath>
 </defs>
</svg>
