<?xml version="1.0" encoding="utf-8" standalone="no"?>
<!DOCTYPE svg PUBLIC "-//W3C//DTD SVG 1.1//EN"
  "http://www.w3.org/Graphics/SVG/1.1/DTD/svg11.dtd">
<svg xmlns:xlink="http://www.w3.org/1999/xlink" width="460.8pt" height="345.6pt" viewBox="0 0 460.8 345.6" xmlns="http://www.w3.org/2000/svg" version="1.1">
 <metadata>
  <rdf:RDF xmlns:dc="http://purl.org/dc/elements/1.1/" xmlns:cc="http://creativecommons.org/ns#" xmlns:rdf="http://www.w3.org/1999/02/22-rdf-syntax-ns#">
   <cc:Work>
    <dc:type rdf:resource="http://purl.org/dc/dcmitype/StillImage"/>
    <dc:date>2025-02-18T21:59:40.964645</dc:date>
    <dc:format>image/svg+xml</dc:format>
    <dc:creator>
     <cc:Agent>
      <dc:title>Matplotlib v3.8.4, https://matplotlib.org/</dc:title>
     </cc:Agent>
    </dc:creator>
   </cc:Work>
  </rdf:RDF>
 </metadata>
 <defs>
  <style type="text/css">*{stroke-linejoin: round; stroke-linecap: butt}</style>
 </defs>
 <g id="figure_1">
  <g id="patch_1">
   <path d="M 0 345.6 
L 460.8 345.6 
L 460.8 0 
L 0 0 
z
" style="fill: #ffffff"/>
  </g>
  <g id="axes_1">
   <g id="patch_2">
    <path d="M 57.6 307.584 
L 414.72 307.584 
L 414.72 41.472 
L 57.6 41.472 
z
" style="fill: #ffffff"/>
   </g>
   <g id="matplotlib.axis_1">
    <g id="xtick_1">
     <g id="line2d_1">
      <defs>
       <path id="mb4f630b16b" d="M 0 0 
L 0 3.5 
" style="stroke: #000000; stroke-width: 0.8"/>
      </defs>
      <g>
       <use xlink:href="#mb4f630b16b" x="73.832727" y="307.584" style="stroke: #000000; stroke-width: 0.8"/>
      </g>
     </g>
     <g id="text_1">
      <!-- $\mathdefault{10^{0}}$ -->
      <g transform="translate(65.032727 322.182437) scale(0.1 -0.1)">
       <defs>
        <path id="DejaVuSans-31" d="M 794 531 
L 1825 531 
L 1825 4091 
L 703 3866 
L 703 4441 
L 1819 4666 
L 2450 4666 
L 2450 531 
L 3481 531 
L 3481 0 
L 794 0 
L 794 531 
z
" transform="scale(0.015625)"/>
        <path id="DejaVuSans-30" d="M 2034 4250 
Q 1547 4250 1301 3770 
Q 1056 3291 1056 2328 
Q 1056 1369 1301 889 
Q 1547 409 2034 409 
Q 2525 409 2770 889 
Q 3016 1369 3016 2328 
Q 3016 3291 2770 3770 
Q 2525 4250 2034 4250 
z
M 2034 4750 
Q 2819 4750 3233 4129 
Q 3647 3509 3647 2328 
Q 3647 1150 3233 529 
Q 2819 -91 2034 -91 
Q 1250 -91 836 529 
Q 422 1150 422 2328 
Q 422 3509 836 4129 
Q 1250 4750 2034 4750 
z
" transform="scale(0.015625)"/>
       </defs>
       <use xlink:href="#DejaVuSans-31" transform="translate(0 0.765625)"/>
       <use xlink:href="#DejaVuSans-30" transform="translate(63.623047 0.765625)"/>
       <use xlink:href="#DejaVuSans-30" transform="translate(128.203125 39.046875) scale(0.7)"/>
      </g>
     </g>
    </g>
    <g id="xtick_2">
     <g id="line2d_2">
      <g>
       <use xlink:href="#mb4f630b16b" x="150.075249" y="307.584" style="stroke: #000000; stroke-width: 0.8"/>
      </g>
     </g>
     <g id="text_2">
      <!-- $\mathdefault{10^{1}}$ -->
      <g transform="translate(141.275249 322.182437) scale(0.1 -0.1)">
       <use xlink:href="#DejaVuSans-31" transform="translate(0 0.684375)"/>
       <use xlink:href="#DejaVuSans-30" transform="translate(63.623047 0.684375)"/>
       <use xlink:href="#DejaVuSans-31" transform="translate(128.203125 38.965625) scale(0.7)"/>
      </g>
     </g>
    </g>
    <g id="xtick_3">
     <g id="line2d_3">
      <g>
       <use xlink:href="#mb4f630b16b" x="226.317771" y="307.584" style="stroke: #000000; stroke-width: 0.8"/>
      </g>
     </g>
     <g id="text_3">
      <!-- $\mathdefault{10^{2}}$ -->
      <g transform="translate(217.517771 322.182437) scale(0.1 -0.1)">
       <defs>
        <path id="DejaVuSans-32" d="M 1228 531 
L 3431 531 
L 3431 0 
L 469 0 
L 469 531 
Q 828 903 1448 1529 
Q 2069 2156 2228 2338 
Q 2531 2678 2651 2914 
Q 2772 3150 2772 3378 
Q 2772 3750 2511 3984 
Q 2250 4219 1831 4219 
Q 1534 4219 1204 4116 
Q 875 4013 500 3803 
L 500 4441 
Q 881 4594 1212 4672 
Q 1544 4750 1819 4750 
Q 2544 4750 2975 4387 
Q 3406 4025 3406 3419 
Q 3406 3131 3298 2873 
Q 3191 2616 2906 2266 
Q 2828 2175 2409 1742 
Q 1991 1309 1228 531 
z
" transform="scale(0.015625)"/>
       </defs>
       <use xlink:href="#DejaVuSans-31" transform="translate(0 0.765625)"/>
       <use xlink:href="#DejaVuSans-30" transform="translate(63.623047 0.765625)"/>
       <use xlink:href="#DejaVuSans-32" transform="translate(128.203125 39.046875) scale(0.7)"/>
      </g>
     </g>
    </g>
    <g id="xtick_4">
     <g id="line2d_4">
      <g>
       <use xlink:href="#mb4f630b16b" x="302.560292" y="307.584" style="stroke: #000000; stroke-width: 0.8"/>
      </g>
     </g>
     <g id="text_4">
      <!-- $\mathdefault{10^{3}}$ -->
      <g transform="translate(293.760292 322.182437) scale(0.1 -0.1)">
       <defs>
        <path id="DejaVuSans-33" d="M 2597 2516 
Q 3050 2419 3304 2112 
Q 3559 1806 3559 1356 
Q 3559 666 3084 287 
Q 2609 -91 1734 -91 
Q 1441 -91 1130 -33 
Q 819 25 488 141 
L 488 750 
Q 750 597 1062 519 
Q 1375 441 1716 441 
Q 2309 441 2620 675 
Q 2931 909 2931 1356 
Q 2931 1769 2642 2001 
Q 2353 2234 1838 2234 
L 1294 2234 
L 1294 2753 
L 1863 2753 
Q 2328 2753 2575 2939 
Q 2822 3125 2822 3475 
Q 2822 3834 2567 4026 
Q 2313 4219 1838 4219 
Q 1578 4219 1281 4162 
Q 984 4106 628 3988 
L 628 4550 
Q 988 4650 1302 4700 
Q 1616 4750 1894 4750 
Q 2613 4750 3031 4423 
Q 3450 4097 3450 3541 
Q 3450 3153 3228 2886 
Q 3006 2619 2597 2516 
z
" transform="scale(0.015625)"/>
       </defs>
       <use xlink:href="#DejaVuSans-31" transform="translate(0 0.765625)"/>
       <use xlink:href="#DejaVuSans-30" transform="translate(63.623047 0.765625)"/>
       <use xlink:href="#DejaVuSans-33" transform="translate(128.203125 39.046875) scale(0.7)"/>
      </g>
     </g>
    </g>
    <g id="xtick_5">
     <g id="line2d_5">
      <g>
       <use xlink:href="#mb4f630b16b" x="378.802814" y="307.584" style="stroke: #000000; stroke-width: 0.8"/>
      </g>
     </g>
     <g id="text_5">
      <!-- $\mathdefault{10^{4}}$ -->
      <g transform="translate(370.002814 322.182437) scale(0.1 -0.1)">
       <defs>
        <path id="DejaVuSans-34" d="M 2419 4116 
L 825 1625 
L 2419 1625 
L 2419 4116 
z
M 2253 4666 
L 3047 4666 
L 3047 1625 
L 3713 1625 
L 3713 1100 
L 3047 1100 
L 3047 0 
L 2419 0 
L 2419 1100 
L 313 1100 
L 313 1709 
L 2253 4666 
z
" transform="scale(0.015625)"/>
       </defs>
       <use xlink:href="#DejaVuSans-31" transform="translate(0 0.684375)"/>
       <use xlink:href="#DejaVuSans-30" transform="translate(63.623047 0.684375)"/>
       <use xlink:href="#DejaVuSans-34" transform="translate(128.203125 38.965625) scale(0.7)"/>
      </g>
     </g>
    </g>
    <g id="xtick_6">
     <g id="line2d_6">
      <defs>
       <path id="m767c3e7213" d="M 0 0 
L 0 2 
" style="stroke: #000000; stroke-width: 0.6"/>
      </defs>
      <g>
       <use xlink:href="#m767c3e7213" x="62.022611" y="307.584" style="stroke: #000000; stroke-width: 0.6"/>
      </g>
     </g>
    </g>
    <g id="xtick_7">
     <g id="line2d_7">
      <g>
       <use xlink:href="#m767c3e7213" x="66.444064" y="307.584" style="stroke: #000000; stroke-width: 0.6"/>
      </g>
     </g>
    </g>
    <g id="xtick_8">
     <g id="line2d_8">
      <g>
       <use xlink:href="#m767c3e7213" x="70.344061" y="307.584" style="stroke: #000000; stroke-width: 0.6"/>
      </g>
     </g>
    </g>
    <g id="xtick_9">
     <g id="line2d_9">
      <g>
       <use xlink:href="#m767c3e7213" x="96.784013" y="307.584" style="stroke: #000000; stroke-width: 0.6"/>
      </g>
     </g>
    </g>
    <g id="xtick_10">
     <g id="line2d_10">
      <g>
       <use xlink:href="#m767c3e7213" x="110.209655" y="307.584" style="stroke: #000000; stroke-width: 0.6"/>
      </g>
     </g>
    </g>
    <g id="xtick_11">
     <g id="line2d_11">
      <g>
       <use xlink:href="#m767c3e7213" x="119.735299" y="307.584" style="stroke: #000000; stroke-width: 0.6"/>
      </g>
     </g>
    </g>
    <g id="xtick_12">
     <g id="line2d_12">
      <g>
       <use xlink:href="#m767c3e7213" x="127.123963" y="307.584" style="stroke: #000000; stroke-width: 0.6"/>
      </g>
     </g>
    </g>
    <g id="xtick_13">
     <g id="line2d_13">
      <g>
       <use xlink:href="#m767c3e7213" x="133.160941" y="307.584" style="stroke: #000000; stroke-width: 0.6"/>
      </g>
     </g>
    </g>
    <g id="xtick_14">
     <g id="line2d_14">
      <g>
       <use xlink:href="#m767c3e7213" x="138.265133" y="307.584" style="stroke: #000000; stroke-width: 0.6"/>
      </g>
     </g>
    </g>
    <g id="xtick_15">
     <g id="line2d_15">
      <g>
       <use xlink:href="#m767c3e7213" x="142.686585" y="307.584" style="stroke: #000000; stroke-width: 0.6"/>
      </g>
     </g>
    </g>
    <g id="xtick_16">
     <g id="line2d_16">
      <g>
       <use xlink:href="#m767c3e7213" x="146.586582" y="307.584" style="stroke: #000000; stroke-width: 0.6"/>
      </g>
     </g>
    </g>
    <g id="xtick_17">
     <g id="line2d_17">
      <g>
       <use xlink:href="#m767c3e7213" x="173.026535" y="307.584" style="stroke: #000000; stroke-width: 0.6"/>
      </g>
     </g>
    </g>
    <g id="xtick_18">
     <g id="line2d_18">
      <g>
       <use xlink:href="#m767c3e7213" x="186.452176" y="307.584" style="stroke: #000000; stroke-width: 0.6"/>
      </g>
     </g>
    </g>
    <g id="xtick_19">
     <g id="line2d_19">
      <g>
       <use xlink:href="#m767c3e7213" x="195.977821" y="307.584" style="stroke: #000000; stroke-width: 0.6"/>
      </g>
     </g>
    </g>
    <g id="xtick_20">
     <g id="line2d_20">
      <g>
       <use xlink:href="#m767c3e7213" x="203.366485" y="307.584" style="stroke: #000000; stroke-width: 0.6"/>
      </g>
     </g>
    </g>
    <g id="xtick_21">
     <g id="line2d_21">
      <g>
       <use xlink:href="#m767c3e7213" x="209.403462" y="307.584" style="stroke: #000000; stroke-width: 0.6"/>
      </g>
     </g>
    </g>
    <g id="xtick_22">
     <g id="line2d_22">
      <g>
       <use xlink:href="#m767c3e7213" x="214.507654" y="307.584" style="stroke: #000000; stroke-width: 0.6"/>
      </g>
     </g>
    </g>
    <g id="xtick_23">
     <g id="line2d_23">
      <g>
       <use xlink:href="#m767c3e7213" x="218.929107" y="307.584" style="stroke: #000000; stroke-width: 0.6"/>
      </g>
     </g>
    </g>
    <g id="xtick_24">
     <g id="line2d_24">
      <g>
       <use xlink:href="#m767c3e7213" x="222.829104" y="307.584" style="stroke: #000000; stroke-width: 0.6"/>
      </g>
     </g>
    </g>
    <g id="xtick_25">
     <g id="line2d_25">
      <g>
       <use xlink:href="#m767c3e7213" x="249.269056" y="307.584" style="stroke: #000000; stroke-width: 0.6"/>
      </g>
     </g>
    </g>
    <g id="xtick_26">
     <g id="line2d_26">
      <g>
       <use xlink:href="#m767c3e7213" x="262.694698" y="307.584" style="stroke: #000000; stroke-width: 0.6"/>
      </g>
     </g>
    </g>
    <g id="xtick_27">
     <g id="line2d_27">
      <g>
       <use xlink:href="#m767c3e7213" x="272.220342" y="307.584" style="stroke: #000000; stroke-width: 0.6"/>
      </g>
     </g>
    </g>
    <g id="xtick_28">
     <g id="line2d_28">
      <g>
       <use xlink:href="#m767c3e7213" x="279.609006" y="307.584" style="stroke: #000000; stroke-width: 0.6"/>
      </g>
     </g>
    </g>
    <g id="xtick_29">
     <g id="line2d_29">
      <g>
       <use xlink:href="#m767c3e7213" x="285.645984" y="307.584" style="stroke: #000000; stroke-width: 0.6"/>
      </g>
     </g>
    </g>
    <g id="xtick_30">
     <g id="line2d_30">
      <g>
       <use xlink:href="#m767c3e7213" x="290.750176" y="307.584" style="stroke: #000000; stroke-width: 0.6"/>
      </g>
     </g>
    </g>
    <g id="xtick_31">
     <g id="line2d_31">
      <g>
       <use xlink:href="#m767c3e7213" x="295.171628" y="307.584" style="stroke: #000000; stroke-width: 0.6"/>
      </g>
     </g>
    </g>
    <g id="xtick_32">
     <g id="line2d_32">
      <g>
       <use xlink:href="#m767c3e7213" x="299.071626" y="307.584" style="stroke: #000000; stroke-width: 0.6"/>
      </g>
     </g>
    </g>
    <g id="xtick_33">
     <g id="line2d_33">
      <g>
       <use xlink:href="#m767c3e7213" x="325.511578" y="307.584" style="stroke: #000000; stroke-width: 0.6"/>
      </g>
     </g>
    </g>
    <g id="xtick_34">
     <g id="line2d_34">
      <g>
       <use xlink:href="#m767c3e7213" x="338.93722" y="307.584" style="stroke: #000000; stroke-width: 0.6"/>
      </g>
     </g>
    </g>
    <g id="xtick_35">
     <g id="line2d_35">
      <g>
       <use xlink:href="#m767c3e7213" x="348.462864" y="307.584" style="stroke: #000000; stroke-width: 0.6"/>
      </g>
     </g>
    </g>
    <g id="xtick_36">
     <g id="line2d_36">
      <g>
       <use xlink:href="#m767c3e7213" x="355.851528" y="307.584" style="stroke: #000000; stroke-width: 0.6"/>
      </g>
     </g>
    </g>
    <g id="xtick_37">
     <g id="line2d_37">
      <g>
       <use xlink:href="#m767c3e7213" x="361.888506" y="307.584" style="stroke: #000000; stroke-width: 0.6"/>
      </g>
     </g>
    </g>
    <g id="xtick_38">
     <g id="line2d_38">
      <g>
       <use xlink:href="#m767c3e7213" x="366.992698" y="307.584" style="stroke: #000000; stroke-width: 0.6"/>
      </g>
     </g>
    </g>
    <g id="xtick_39">
     <g id="line2d_39">
      <g>
       <use xlink:href="#m767c3e7213" x="371.41415" y="307.584" style="stroke: #000000; stroke-width: 0.6"/>
      </g>
     </g>
    </g>
    <g id="xtick_40">
     <g id="line2d_40">
      <g>
       <use xlink:href="#m767c3e7213" x="375.314147" y="307.584" style="stroke: #000000; stroke-width: 0.6"/>
      </g>
     </g>
    </g>
    <g id="xtick_41">
     <g id="line2d_41">
      <g>
       <use xlink:href="#m767c3e7213" x="401.7541" y="307.584" style="stroke: #000000; stroke-width: 0.6"/>
      </g>
     </g>
    </g>
    <g id="text_6">
     <!-- iter# -->
     <g transform="translate(223.488906 335.860562) scale(0.1 -0.1)">
      <defs>
       <path id="DejaVuSans-69" d="M 603 3500 
L 1178 3500 
L 1178 0 
L 603 0 
L 603 3500 
z
M 603 4863 
L 1178 4863 
L 1178 4134 
L 603 4134 
L 603 4863 
z
" transform="scale(0.015625)"/>
       <path id="DejaVuSans-74" d="M 1172 4494 
L 1172 3500 
L 2356 3500 
L 2356 3053 
L 1172 3053 
L 1172 1153 
Q 1172 725 1289 603 
Q 1406 481 1766 481 
L 2356 481 
L 2356 0 
L 1766 0 
Q 1100 0 847 248 
Q 594 497 594 1153 
L 594 3053 
L 172 3053 
L 172 3500 
L 594 3500 
L 594 4494 
L 1172 4494 
z
" transform="scale(0.015625)"/>
       <path id="DejaVuSans-65" d="M 3597 1894 
L 3597 1613 
L 953 1613 
Q 991 1019 1311 708 
Q 1631 397 2203 397 
Q 2534 397 2845 478 
Q 3156 559 3463 722 
L 3463 178 
Q 3153 47 2828 -22 
Q 2503 -91 2169 -91 
Q 1331 -91 842 396 
Q 353 884 353 1716 
Q 353 2575 817 3079 
Q 1281 3584 2069 3584 
Q 2775 3584 3186 3129 
Q 3597 2675 3597 1894 
z
M 3022 2063 
Q 3016 2534 2758 2815 
Q 2500 3097 2075 3097 
Q 1594 3097 1305 2825 
Q 1016 2553 972 2059 
L 3022 2063 
z
" transform="scale(0.015625)"/>
       <path id="DejaVuSans-72" d="M 2631 2963 
Q 2534 3019 2420 3045 
Q 2306 3072 2169 3072 
Q 1681 3072 1420 2755 
Q 1159 2438 1159 1844 
L 1159 0 
L 581 0 
L 581 3500 
L 1159 3500 
L 1159 2956 
Q 1341 3275 1631 3429 
Q 1922 3584 2338 3584 
Q 2397 3584 2469 3576 
Q 2541 3569 2628 3553 
L 2631 2963 
z
" transform="scale(0.015625)"/>
       <path id="DejaVuSans-23" d="M 3272 2816 
L 2363 2816 
L 2100 1772 
L 3016 1772 
L 3272 2816 
z
M 2803 4594 
L 2478 3297 
L 3391 3297 
L 3719 4594 
L 4219 4594 
L 3897 3297 
L 4872 3297 
L 4872 2816 
L 3775 2816 
L 3519 1772 
L 4513 1772 
L 4513 1294 
L 3397 1294 
L 3072 0 
L 2572 0 
L 2894 1294 
L 1978 1294 
L 1656 0 
L 1153 0 
L 1478 1294 
L 494 1294 
L 494 1772 
L 1594 1772 
L 1856 2816 
L 850 2816 
L 850 3297 
L 1978 3297 
L 2297 4594 
L 2803 4594 
z
" transform="scale(0.015625)"/>
      </defs>
      <use xlink:href="#DejaVuSans-69"/>
      <use xlink:href="#DejaVuSans-74" x="27.783203"/>
      <use xlink:href="#DejaVuSans-65" x="66.992188"/>
      <use xlink:href="#DejaVuSans-72" x="128.515625"/>
      <use xlink:href="#DejaVuSans-23" x="169.628906"/>
     </g>
    </g>
   </g>
   <g id="matplotlib.axis_2">
    <g id="ytick_1">
     <g id="line2d_42">
      <defs>
       <path id="m7a59abdbc8" d="M 0 0 
L -3.5 0 
" style="stroke: #000000; stroke-width: 0.8"/>
      </defs>
      <g>
       <use xlink:href="#m7a59abdbc8" x="57.6" y="274.953558" style="stroke: #000000; stroke-width: 0.8"/>
      </g>
     </g>
     <g id="text_7">
      <!-- $\mathdefault{10^{-3}}$ -->
      <g transform="translate(27.1 278.752777) scale(0.1 -0.1)">
       <defs>
        <path id="DejaVuSans-2212" d="M 678 2272 
L 4684 2272 
L 4684 1741 
L 678 1741 
L 678 2272 
z
" transform="scale(0.015625)"/>
       </defs>
       <use xlink:href="#DejaVuSans-31" transform="translate(0 0.765625)"/>
       <use xlink:href="#DejaVuSans-30" transform="translate(63.623047 0.765625)"/>
       <use xlink:href="#DejaVuSans-2212" transform="translate(128.203125 39.046875) scale(0.7)"/>
       <use xlink:href="#DejaVuSans-33" transform="translate(186.855469 39.046875) scale(0.7)"/>
      </g>
     </g>
    </g>
    <g id="ytick_2">
     <g id="line2d_43">
      <g>
       <use xlink:href="#m7a59abdbc8" x="57.6" y="232.751779" style="stroke: #000000; stroke-width: 0.8"/>
      </g>
     </g>
     <g id="text_8">
      <!-- $\mathdefault{10^{-2}}$ -->
      <g transform="translate(27.1 236.550998) scale(0.1 -0.1)">
       <use xlink:href="#DejaVuSans-31" transform="translate(0 0.765625)"/>
       <use xlink:href="#DejaVuSans-30" transform="translate(63.623047 0.765625)"/>
       <use xlink:href="#DejaVuSans-2212" transform="translate(128.203125 39.046875) scale(0.7)"/>
       <use xlink:href="#DejaVuSans-32" transform="translate(186.855469 39.046875) scale(0.7)"/>
      </g>
     </g>
    </g>
    <g id="ytick_3">
     <g id="line2d_44">
      <g>
       <use xlink:href="#m7a59abdbc8" x="57.6" y="190.55" style="stroke: #000000; stroke-width: 0.8"/>
      </g>
     </g>
     <g id="text_9">
      <!-- $\mathdefault{10^{-1}}$ -->
      <g transform="translate(27.1 194.349219) scale(0.1 -0.1)">
       <use xlink:href="#DejaVuSans-31" transform="translate(0 0.684375)"/>
       <use xlink:href="#DejaVuSans-30" transform="translate(63.623047 0.684375)"/>
       <use xlink:href="#DejaVuSans-2212" transform="translate(128.203125 38.965625) scale(0.7)"/>
       <use xlink:href="#DejaVuSans-31" transform="translate(186.855469 38.965625) scale(0.7)"/>
      </g>
     </g>
    </g>
    <g id="ytick_4">
     <g id="line2d_45">
      <g>
       <use xlink:href="#m7a59abdbc8" x="57.6" y="148.348221" style="stroke: #000000; stroke-width: 0.8"/>
      </g>
     </g>
     <g id="text_10">
      <!-- $\mathdefault{10^{0}}$ -->
      <g transform="translate(33 152.14744) scale(0.1 -0.1)">
       <use xlink:href="#DejaVuSans-31" transform="translate(0 0.765625)"/>
       <use xlink:href="#DejaVuSans-30" transform="translate(63.623047 0.765625)"/>
       <use xlink:href="#DejaVuSans-30" transform="translate(128.203125 39.046875) scale(0.7)"/>
      </g>
     </g>
    </g>
    <g id="ytick_5">
     <g id="line2d_46">
      <g>
       <use xlink:href="#m7a59abdbc8" x="57.6" y="106.146442" style="stroke: #000000; stroke-width: 0.8"/>
      </g>
     </g>
     <g id="text_11">
      <!-- $\mathdefault{10^{1}}$ -->
      <g transform="translate(33 109.945661) scale(0.1 -0.1)">
       <use xlink:href="#DejaVuSans-31" transform="translate(0 0.684375)"/>
       <use xlink:href="#DejaVuSans-30" transform="translate(63.623047 0.684375)"/>
       <use xlink:href="#DejaVuSans-31" transform="translate(128.203125 38.965625) scale(0.7)"/>
      </g>
     </g>
    </g>
    <g id="ytick_6">
     <g id="line2d_47">
      <g>
       <use xlink:href="#m7a59abdbc8" x="57.6" y="63.944663" style="stroke: #000000; stroke-width: 0.8"/>
      </g>
     </g>
     <g id="text_12">
      <!-- $\mathdefault{10^{2}}$ -->
      <g transform="translate(33 67.743881) scale(0.1 -0.1)">
       <use xlink:href="#DejaVuSans-31" transform="translate(0 0.765625)"/>
       <use xlink:href="#DejaVuSans-30" transform="translate(63.623047 0.765625)"/>
       <use xlink:href="#DejaVuSans-32" transform="translate(128.203125 39.046875) scale(0.7)"/>
      </g>
     </g>
    </g>
    <g id="ytick_7">
     <g id="line2d_48">
      <defs>
       <path id="md4b50a98bc" d="M 0 0 
L -2 0 
" style="stroke: #000000; stroke-width: 0.6"/>
      </defs>
      <g>
       <use xlink:href="#md4b50a98bc" x="57.6" y="304.451336" style="stroke: #000000; stroke-width: 0.6"/>
      </g>
     </g>
    </g>
    <g id="ytick_8">
     <g id="line2d_49">
      <g>
       <use xlink:href="#md4b50a98bc" x="57.6" y="297.019972" style="stroke: #000000; stroke-width: 0.6"/>
      </g>
     </g>
    </g>
    <g id="ytick_9">
     <g id="line2d_50">
      <g>
       <use xlink:href="#md4b50a98bc" x="57.6" y="291.747335" style="stroke: #000000; stroke-width: 0.6"/>
      </g>
     </g>
    </g>
    <g id="ytick_10">
     <g id="line2d_51">
      <g>
       <use xlink:href="#md4b50a98bc" x="57.6" y="287.65756" style="stroke: #000000; stroke-width: 0.6"/>
      </g>
     </g>
    </g>
    <g id="ytick_11">
     <g id="line2d_52">
      <g>
       <use xlink:href="#md4b50a98bc" x="57.6" y="284.31597" style="stroke: #000000; stroke-width: 0.6"/>
      </g>
     </g>
    </g>
    <g id="ytick_12">
     <g id="line2d_53">
      <g>
       <use xlink:href="#md4b50a98bc" x="57.6" y="281.490697" style="stroke: #000000; stroke-width: 0.6"/>
      </g>
     </g>
    </g>
    <g id="ytick_13">
     <g id="line2d_54">
      <g>
       <use xlink:href="#md4b50a98bc" x="57.6" y="279.043333" style="stroke: #000000; stroke-width: 0.6"/>
      </g>
     </g>
    </g>
    <g id="ytick_14">
     <g id="line2d_55">
      <g>
       <use xlink:href="#md4b50a98bc" x="57.6" y="276.884606" style="stroke: #000000; stroke-width: 0.6"/>
      </g>
     </g>
    </g>
    <g id="ytick_15">
     <g id="line2d_56">
      <g>
       <use xlink:href="#md4b50a98bc" x="57.6" y="262.249557" style="stroke: #000000; stroke-width: 0.6"/>
      </g>
     </g>
    </g>
    <g id="ytick_16">
     <g id="line2d_57">
      <g>
       <use xlink:href="#md4b50a98bc" x="57.6" y="254.818193" style="stroke: #000000; stroke-width: 0.6"/>
      </g>
     </g>
    </g>
    <g id="ytick_17">
     <g id="line2d_58">
      <g>
       <use xlink:href="#md4b50a98bc" x="57.6" y="249.545556" style="stroke: #000000; stroke-width: 0.6"/>
      </g>
     </g>
    </g>
    <g id="ytick_18">
     <g id="line2d_59">
      <g>
       <use xlink:href="#md4b50a98bc" x="57.6" y="245.455781" style="stroke: #000000; stroke-width: 0.6"/>
      </g>
     </g>
    </g>
    <g id="ytick_19">
     <g id="line2d_60">
      <g>
       <use xlink:href="#md4b50a98bc" x="57.6" y="242.114191" style="stroke: #000000; stroke-width: 0.6"/>
      </g>
     </g>
    </g>
    <g id="ytick_20">
     <g id="line2d_61">
      <g>
       <use xlink:href="#md4b50a98bc" x="57.6" y="239.288918" style="stroke: #000000; stroke-width: 0.6"/>
      </g>
     </g>
    </g>
    <g id="ytick_21">
     <g id="line2d_62">
      <g>
       <use xlink:href="#md4b50a98bc" x="57.6" y="236.841554" style="stroke: #000000; stroke-width: 0.6"/>
      </g>
     </g>
    </g>
    <g id="ytick_22">
     <g id="line2d_63">
      <g>
       <use xlink:href="#md4b50a98bc" x="57.6" y="234.682827" style="stroke: #000000; stroke-width: 0.6"/>
      </g>
     </g>
    </g>
    <g id="ytick_23">
     <g id="line2d_64">
      <g>
       <use xlink:href="#md4b50a98bc" x="57.6" y="220.047778" style="stroke: #000000; stroke-width: 0.6"/>
      </g>
     </g>
    </g>
    <g id="ytick_24">
     <g id="line2d_65">
      <g>
       <use xlink:href="#md4b50a98bc" x="57.6" y="212.616413" style="stroke: #000000; stroke-width: 0.6"/>
      </g>
     </g>
    </g>
    <g id="ytick_25">
     <g id="line2d_66">
      <g>
       <use xlink:href="#md4b50a98bc" x="57.6" y="207.343776" style="stroke: #000000; stroke-width: 0.6"/>
      </g>
     </g>
    </g>
    <g id="ytick_26">
     <g id="line2d_67">
      <g>
       <use xlink:href="#md4b50a98bc" x="57.6" y="203.254002" style="stroke: #000000; stroke-width: 0.6"/>
      </g>
     </g>
    </g>
    <g id="ytick_27">
     <g id="line2d_68">
      <g>
       <use xlink:href="#md4b50a98bc" x="57.6" y="199.912412" style="stroke: #000000; stroke-width: 0.6"/>
      </g>
     </g>
    </g>
    <g id="ytick_28">
     <g id="line2d_69">
      <g>
       <use xlink:href="#md4b50a98bc" x="57.6" y="197.087138" style="stroke: #000000; stroke-width: 0.6"/>
      </g>
     </g>
    </g>
    <g id="ytick_29">
     <g id="line2d_70">
      <g>
       <use xlink:href="#md4b50a98bc" x="57.6" y="194.639775" style="stroke: #000000; stroke-width: 0.6"/>
      </g>
     </g>
    </g>
    <g id="ytick_30">
     <g id="line2d_71">
      <g>
       <use xlink:href="#md4b50a98bc" x="57.6" y="192.481048" style="stroke: #000000; stroke-width: 0.6"/>
      </g>
     </g>
    </g>
    <g id="ytick_31">
     <g id="line2d_72">
      <g>
       <use xlink:href="#md4b50a98bc" x="57.6" y="177.845999" style="stroke: #000000; stroke-width: 0.6"/>
      </g>
     </g>
    </g>
    <g id="ytick_32">
     <g id="line2d_73">
      <g>
       <use xlink:href="#md4b50a98bc" x="57.6" y="170.414634" style="stroke: #000000; stroke-width: 0.6"/>
      </g>
     </g>
    </g>
    <g id="ytick_33">
     <g id="line2d_74">
      <g>
       <use xlink:href="#md4b50a98bc" x="57.6" y="165.141997" style="stroke: #000000; stroke-width: 0.6"/>
      </g>
     </g>
    </g>
    <g id="ytick_34">
     <g id="line2d_75">
      <g>
       <use xlink:href="#md4b50a98bc" x="57.6" y="161.052222" style="stroke: #000000; stroke-width: 0.6"/>
      </g>
     </g>
    </g>
    <g id="ytick_35">
     <g id="line2d_76">
      <g>
       <use xlink:href="#md4b50a98bc" x="57.6" y="157.710633" style="stroke: #000000; stroke-width: 0.6"/>
      </g>
     </g>
    </g>
    <g id="ytick_36">
     <g id="line2d_77">
      <g>
       <use xlink:href="#md4b50a98bc" x="57.6" y="154.885359" style="stroke: #000000; stroke-width: 0.6"/>
      </g>
     </g>
    </g>
    <g id="ytick_37">
     <g id="line2d_78">
      <g>
       <use xlink:href="#md4b50a98bc" x="57.6" y="152.437996" style="stroke: #000000; stroke-width: 0.6"/>
      </g>
     </g>
    </g>
    <g id="ytick_38">
     <g id="line2d_79">
      <g>
       <use xlink:href="#md4b50a98bc" x="57.6" y="150.279269" style="stroke: #000000; stroke-width: 0.6"/>
      </g>
     </g>
    </g>
    <g id="ytick_39">
     <g id="line2d_80">
      <g>
       <use xlink:href="#md4b50a98bc" x="57.6" y="135.64422" style="stroke: #000000; stroke-width: 0.6"/>
      </g>
     </g>
    </g>
    <g id="ytick_40">
     <g id="line2d_81">
      <g>
       <use xlink:href="#md4b50a98bc" x="57.6" y="128.212855" style="stroke: #000000; stroke-width: 0.6"/>
      </g>
     </g>
    </g>
    <g id="ytick_41">
     <g id="line2d_82">
      <g>
       <use xlink:href="#md4b50a98bc" x="57.6" y="122.940218" style="stroke: #000000; stroke-width: 0.6"/>
      </g>
     </g>
    </g>
    <g id="ytick_42">
     <g id="line2d_83">
      <g>
       <use xlink:href="#md4b50a98bc" x="57.6" y="118.850443" style="stroke: #000000; stroke-width: 0.6"/>
      </g>
     </g>
    </g>
    <g id="ytick_43">
     <g id="line2d_84">
      <g>
       <use xlink:href="#md4b50a98bc" x="57.6" y="115.508854" style="stroke: #000000; stroke-width: 0.6"/>
      </g>
     </g>
    </g>
    <g id="ytick_44">
     <g id="line2d_85">
      <g>
       <use xlink:href="#md4b50a98bc" x="57.6" y="112.68358" style="stroke: #000000; stroke-width: 0.6"/>
      </g>
     </g>
    </g>
    <g id="ytick_45">
     <g id="line2d_86">
      <g>
       <use xlink:href="#md4b50a98bc" x="57.6" y="110.236217" style="stroke: #000000; stroke-width: 0.6"/>
      </g>
     </g>
    </g>
    <g id="ytick_46">
     <g id="line2d_87">
      <g>
       <use xlink:href="#md4b50a98bc" x="57.6" y="108.077489" style="stroke: #000000; stroke-width: 0.6"/>
      </g>
     </g>
    </g>
    <g id="ytick_47">
     <g id="line2d_88">
      <g>
       <use xlink:href="#md4b50a98bc" x="57.6" y="93.44244" style="stroke: #000000; stroke-width: 0.6"/>
      </g>
     </g>
    </g>
    <g id="ytick_48">
     <g id="line2d_89">
      <g>
       <use xlink:href="#md4b50a98bc" x="57.6" y="86.011076" style="stroke: #000000; stroke-width: 0.6"/>
      </g>
     </g>
    </g>
    <g id="ytick_49">
     <g id="line2d_90">
      <g>
       <use xlink:href="#md4b50a98bc" x="57.6" y="80.738439" style="stroke: #000000; stroke-width: 0.6"/>
      </g>
     </g>
    </g>
    <g id="ytick_50">
     <g id="line2d_91">
      <g>
       <use xlink:href="#md4b50a98bc" x="57.6" y="76.648664" style="stroke: #000000; stroke-width: 0.6"/>
      </g>
     </g>
    </g>
    <g id="ytick_51">
     <g id="line2d_92">
      <g>
       <use xlink:href="#md4b50a98bc" x="57.6" y="73.307075" style="stroke: #000000; stroke-width: 0.6"/>
      </g>
     </g>
    </g>
    <g id="ytick_52">
     <g id="line2d_93">
      <g>
       <use xlink:href="#md4b50a98bc" x="57.6" y="70.481801" style="stroke: #000000; stroke-width: 0.6"/>
      </g>
     </g>
    </g>
    <g id="ytick_53">
     <g id="line2d_94">
      <g>
       <use xlink:href="#md4b50a98bc" x="57.6" y="68.034438" style="stroke: #000000; stroke-width: 0.6"/>
      </g>
     </g>
    </g>
    <g id="ytick_54">
     <g id="line2d_95">
      <g>
       <use xlink:href="#md4b50a98bc" x="57.6" y="65.87571" style="stroke: #000000; stroke-width: 0.6"/>
      </g>
     </g>
    </g>
    <g id="ytick_55">
     <g id="line2d_96">
      <g>
       <use xlink:href="#md4b50a98bc" x="57.6" y="51.240661" style="stroke: #000000; stroke-width: 0.6"/>
      </g>
     </g>
    </g>
    <g id="ytick_56">
     <g id="line2d_97">
      <g>
       <use xlink:href="#md4b50a98bc" x="57.6" y="43.809297" style="stroke: #000000; stroke-width: 0.6"/>
      </g>
     </g>
    </g>
    <g id="text_13">
     <!-- loss -->
     <g transform="translate(21.020313 184.185812) rotate(-90) scale(0.1 -0.1)">
      <defs>
       <path id="DejaVuSans-6c" d="M 603 4863 
L 1178 4863 
L 1178 0 
L 603 0 
L 603 4863 
z
" transform="scale(0.015625)"/>
       <path id="DejaVuSans-6f" d="M 1959 3097 
Q 1497 3097 1228 2736 
Q 959 2375 959 1747 
Q 959 1119 1226 758 
Q 1494 397 1959 397 
Q 2419 397 2687 759 
Q 2956 1122 2956 1747 
Q 2956 2369 2687 2733 
Q 2419 3097 1959 3097 
z
M 1959 3584 
Q 2709 3584 3137 3096 
Q 3566 2609 3566 1747 
Q 3566 888 3137 398 
Q 2709 -91 1959 -91 
Q 1206 -91 779 398 
Q 353 888 353 1747 
Q 353 2609 779 3096 
Q 1206 3584 1959 3584 
z
" transform="scale(0.015625)"/>
       <path id="DejaVuSans-73" d="M 2834 3397 
L 2834 2853 
Q 2591 2978 2328 3040 
Q 2066 3103 1784 3103 
Q 1356 3103 1142 2972 
Q 928 2841 928 2578 
Q 928 2378 1081 2264 
Q 1234 2150 1697 2047 
L 1894 2003 
Q 2506 1872 2764 1633 
Q 3022 1394 3022 966 
Q 3022 478 2636 193 
Q 2250 -91 1575 -91 
Q 1294 -91 989 -36 
Q 684 19 347 128 
L 347 722 
Q 666 556 975 473 
Q 1284 391 1588 391 
Q 1994 391 2212 530 
Q 2431 669 2431 922 
Q 2431 1156 2273 1281 
Q 2116 1406 1581 1522 
L 1381 1569 
Q 847 1681 609 1914 
Q 372 2147 372 2553 
Q 372 3047 722 3315 
Q 1072 3584 1716 3584 
Q 2034 3584 2315 3537 
Q 2597 3491 2834 3397 
z
" transform="scale(0.015625)"/>
      </defs>
      <use xlink:href="#DejaVuSans-6c"/>
      <use xlink:href="#DejaVuSans-6f" x="27.783203"/>
      <use xlink:href="#DejaVuSans-73" x="88.964844"/>
      <use xlink:href="#DejaVuSans-73" x="141.064453"/>
     </g>
    </g>
   </g>
   <g id="line2d_98">
    <path d="M 73.832727 53.568 
L 96.784013 65.248767 
L 110.209655 85.983711 
L 119.735299 86.319963 
L 127.123963 86.256183 
L 133.160941 86.222164 
L 138.265133 86.324808 
L 142.686585 86.494938 
L 146.586582 86.637316 
L 150.075249 86.70986 
L 153.231132 86.759175 
L 156.112227 86.864634 
L 158.762577 87.017347 
L 161.216419 87.195244 
L 163.500891 87.368907 
L 165.637871 87.530757 
L 167.645256 87.671009 
L 169.537868 87.808794 
L 171.328126 87.954662 
L 173.026535 88.119454 
L 174.64206 88.296054 
L 176.182418 88.475167 
L 177.654291 88.654587 
L 179.063513 88.828504 
L 180.415199 88.998122 
L 181.713863 89.163905 
L 182.96351 89.329367 
L 184.167705 89.500315 
L 185.329638 89.673452 
L 186.452176 89.852796 
L 187.537903 90.032712 
L 188.589157 90.213272 
L 189.608059 90.390778 
L 190.596542 90.564022 
L 191.556369 90.737223 
L 192.489154 90.912561 
L 193.396381 91.089068 
L 194.279412 91.266118 
L 195.139505 91.447329 
L 196.795435 91.804617 
L 200.605577 92.688319 
L 203.366485 93.401451 
L 206.522367 94.299337 
L 209.950776 95.383899 
L 213.057275 96.466796 
L 215.897161 97.544512 
L 218.929107 98.807155 
L 222.084989 100.234476 
L 225.309214 101.852858 
L 228.558064 103.64378 
L 231.798236 105.597754 
L 234.749409 107.556432 
L 237.928618 109.874307 
L 241.253654 112.546127 
L 244.275053 115.219077 
L 247.395916 118.235624 
L 250.567721 121.608145 
L 253.752535 125.296503 
L 256.92156 129.366806 
L 260.053544 133.808136 
L 263.242012 138.790125 
L 266.348511 144.129682 
L 269.549291 150.124345 
L 272.71333 156.720888 
L 275.824698 163.768357 
L 279.007566 171.560301 
L 282.157318 179.860799 
L 285.3132 188.160733 
L 288.448806 196.122711 
L 291.590857 204.865056 
L 294.755123 210.22942 
L 297.911006 213.840079 
L 301.070353 211.004383 
L 304.207338 221.778315 
L 307.388987 226.415798 
L 310.526653 227.327933 
L 313.677802 218.290695 
L 316.835837 222.370724 
L 319.993675 225.261086 
L 323.144223 222.345718 
L 326.313037 230.572326 
L 329.470388 241.264008 
L 332.620929 234.575079 
L 335.778026 248.756099 
L 338.926181 229.371844 
L 342.083067 247.116218 
L 345.239862 236.117462 
L 348.396574 238.00308 
L 351.550949 225.348021 
L 354.706146 254.270308 
L 357.862029 252.386736 
L 361.021877 252.067773 
L 364.175185 245.555734 
L 367.331536 258.189365 
L 370.486567 261.551257 
L 373.642837 224.057991 
L 376.799775 255.311267 
L 379.954698 258.894002 
L 383.109418 295.488 
L 386.265565 166.918859 
L 389.421928 250.898358 
L 392.577592 244.30688 
L 395.733674 218.324663 
" clip-path="url(#p9a656ac3ef)" style="fill: none; stroke-dasharray: 5.55,2.4; stroke-dashoffset: 0; stroke: #1f77b4; stroke-opacity: 0.4; stroke-width: 1.5"/>
   </g>
   <g id="line2d_99">
    <path d="M 73.832727 98.709893 
L 212.053813 166.949683 
L 234.749409 165.549 
L 248.08938 173.504007 
L 257.572106 177.202201 
L 264.934991 185.631584 
L 270.954773 190.143936 
L 276.046676 191.805207 
L 280.458909 199.735924 
L 284.351734 196.494897 
L 287.834661 196.649172 
L 290.985848 199.382855 
L 293.863029 202.352965 
L 296.510067 201.683753 
L 298.961069 193.195615 
L 301.24308 193.771459 
L 303.377907 208.108323 
L 305.383391 201.295356 
L 307.274314 205.711813 
L 309.063061 191.309512 
L 310.760109 190.16477 
L 312.374404 209.591 
L 313.913642 183.336341 
L 315.384494 210.163812 
L 316.792779 195.691201 
L 318.143603 204.813499 
L 319.441472 200.879198 
L 320.690382 209.708681 
L 321.893893 208.364028 
L 323.05519 201.737806 
L 324.177133 208.107686 
L 325.262304 195.008455 
L 326.313037 197.995258 
L 326.586622 196.139509 
L 327.596781 206.265492 
L 328.577033 212.547258 
L 329.529097 214.195139 
L 330.45455 214.555501 
L 333.917539 214.820777 
L 343.794521 215.623978 
L 346.712133 215.959445 
L 348.34677 216.109912 
L 349.39335 216.25164 
L 349.529894 215.852913 
L 350.038947 215.875589 
L 350.540294 210.929938 
L 351.034162 217.459252 
L 351.520772 217.396269 
L 352.000334 216.789548 
L 352.47305 219.041102 
L 352.939112 219.761252 
L 353.398705 220.677544 
L 353.852006 220.199745 
L 354.299185 219.35203 
L 354.740405 214.717612 
L 355.175824 219.571496 
L 355.60559 220.295971 
L 356.02985 209.722344 
L 356.448743 217.584988 
L 356.862402 218.766401 
L 357.270957 220.524657 
L 357.674533 220.639407 
L 358.073249 219.356285 
L 358.46722 219.20677 
L 358.85656 218.85429 
L 359.241374 216.871476 
L 359.621768 220.072251 
L 359.997841 212.226216 
L 360.737411 221.532174 
L 361.101092 219.575362 
L 361.460822 221.226183 
L 361.816686 221.987313 
L 362.168766 220.160594 
L 362.517141 215.988265 
L 362.952863 207.858861 
L 363.293128 208.571917 
L 363.629931 222.740358 
L 363.963344 222.248282 
L 364.293432 212.352712 
L 364.620262 221.218772 
L 364.943898 207.664697 
L 365.264401 211.367214 
L 365.581831 208.167731 
L 365.896247 213.841792 
L 366.207706 225.158942 
L 366.516262 216.462847 
L 366.82197 218.018883 
L 367.12488 210.87511 
L 367.425045 208.748671 
L 367.722513 222.628716 
L 368.017333 210.451373 
L 368.599212 216.411236 
L 368.886362 224.120231 
L 369.171042 197.925965 
L 369.453296 216.961286 
L 369.733164 221.16985 
L 370.010687 215.771071 
L 370.285902 205.500147 
L 370.558849 227.686939 
L 370.829565 211.75958 
L 371.098085 214.071372 
L 371.364445 199.315791 
L 371.62868 209.051894 
L 371.890822 226.118069 
L 372.150906 216.873886 
L 372.408962 221.204201 
L 372.477172 225.322724 
L 372.732708 202.169561 
L 372.986287 224.283377 
L 373.237938 225.684891 
L 373.487692 228.418413 
L 373.735576 223.331021 
L 373.981618 226.019159 
L 374.225845 226.425373 
L 374.468284 229.146369 
L 374.708961 217.994995 
L 374.9479 231.122621 
L 375.185129 217.15613 
L 375.654546 231.895368 
L 375.886782 227.365861 
L 376.117401 228.839678 
L 376.346425 222.310638 
L 376.573876 225.454144 
L 376.799775 216.587478 
L 377.024143 215.912457 
L 377.247001 222.798373 
L 377.468369 220.550462 
L 377.688267 210.233037 
L 377.906714 224.739992 
L 378.12373 230.475148 
L 378.339332 229.392233 
L 378.55354 217.382855 
L 378.766371 218.549344 
L 378.977842 221.717611 
L 379.187972 218.498224 
L 379.396776 225.242839 
L 379.604272 193.651856 
L 379.810476 214.929402 
L 379.865034 202.352748 
L 380.069625 229.866206 
L 380.475054 233.121577 
L 380.875578 234.755505 
L 381.271316 235.567473 
L 381.856193 236.328065 
L 382.048878 235.581828 
L 382.240449 236.143064 
L 383.182022 236.939712 
L 383.367165 236.903164 
L 383.55128 236.704622 
L 383.734376 237.022258 
L 383.916465 236.966589 
L 384.097558 237.038055 
L 384.277667 236.181865 
L 384.456801 237.201678 
L 384.634971 236.971606 
L 384.98846 237.376075 
L 385.1638 237.308039 
L 385.338216 236.57694 
L 385.684315 237.493948 
L 385.856018 237.048714 
L 385.901477 195.728943 
L 386.07206 171.879465 
L 386.241769 196.060536 
L 386.410613 196.247017 
L 386.578599 205.125595 
L 386.912038 210.11444 
L 387.077506 208.074072 
L 387.242152 211.914127 
L 387.405983 211.855615 
L 387.569007 212.454489 
L 387.731233 209.429802 
L 388.053319 214.907018 
L 388.213195 216.399584 
L 388.372302 213.659973 
L 388.530649 215.966289 
L 388.688242 216.331935 
L 388.845088 222.149394 
L 389.15657 207.922323 
L 389.311219 218.746807 
L 389.618366 204.608624 
L 389.770878 213.838403 
L 390.073811 215.106167 
L 390.224244 212.502006 
L 390.373997 213.498618 
L 390.523075 218.748356 
L 390.671486 204.017354 
L 390.819234 202.043795 
L 390.966326 212.016892 
L 391.005288 197.501309 
L 391.151557 221.190605 
L 391.442172 224.607301 
L 391.873367 226.455713 
L 392.439695 227.340119 
L 393.27143 228.074896 
L 393.408044 228.063269 
L 393.679592 228.254418 
L 393.948931 228.268358 
L 394.874731 228.510084 
L 395.263712 228.742384 
L 395.392364 228.755602 
L 395.554476 206.479449 
L 395.809045 221.087237 
L 395.935599 217.970623 
L 396.187266 222.22488 
L 396.312385 215.081748 
L 396.437034 216.799676 
L 396.561215 222.60805 
L 396.684932 207.016996 
L 396.808189 229.867329 
L 397.053334 222.071452 
L 397.17523 230.701921 
L 397.296678 217.70829 
L 397.658373 229.852527 
L 397.778065 219.874553 
L 397.897326 223.328218 
L 398.01616 220.55332 
L 398.134568 229.27521 
L 398.252554 208.196007 
L 398.487273 225.706949 
L 398.487273 225.706949 
" clip-path="url(#p9a656ac3ef)" style="fill: none; stroke: #1f77b4; stroke-opacity: 0.2; stroke-width: 1.5; stroke-linecap: square"/>
   </g>
   <g id="line2d_100">
    <path d="M 73.832727 98.709893 
L 212.053813 166.949683 
L 234.749409 166.949683 
L 248.08938 173.504007 
L 257.572106 177.202201 
L 264.934991 185.631584 
L 270.954773 190.143936 
L 276.046676 191.805207 
L 280.458909 199.735924 
L 290.985848 199.735924 
L 293.863029 202.352965 
L 301.24308 202.352965 
L 303.377907 208.108323 
L 310.760109 208.108323 
L 312.374404 209.591 
L 313.913642 209.591 
L 315.384494 210.163812 
L 327.596781 210.163812 
L 328.577033 212.547258 
L 329.529097 214.195139 
L 330.45455 214.555501 
L 333.917539 214.820777 
L 343.794521 215.623978 
L 346.712133 215.959445 
L 348.34677 216.109912 
L 349.529894 216.25164 
L 350.540294 216.25164 
L 351.034162 217.459252 
L 352.000334 217.459252 
L 352.47305 219.041102 
L 352.939112 219.761252 
L 353.398705 220.677544 
L 360.36969 220.677544 
L 360.737411 221.532174 
L 361.460822 221.532174 
L 361.816686 221.987313 
L 363.293128 221.987313 
L 363.629931 222.740358 
L 365.896247 222.740358 
L 366.207706 225.158942 
L 370.285902 225.158942 
L 370.558849 227.686939 
L 373.237938 227.686939 
L 373.487692 228.418413 
L 374.225845 228.418413 
L 374.468284 229.146369 
L 374.708961 229.146369 
L 374.9479 231.122621 
L 375.420669 231.122621 
L 375.654546 231.895368 
L 380.27296 231.895368 
L 380.675922 234.095334 
L 381.074038 235.247161 
L 381.856193 236.328065 
L 382.620297 236.381398 
L 383.182022 236.939712 
L 384.277667 237.038055 
L 384.456801 237.201678 
L 384.812187 237.212217 
L 384.98846 237.376075 
L 385.511718 237.376075 
L 385.856018 237.493948 
L 398.487273 237.493948 
L 398.487273 237.493948 
" clip-path="url(#p9a656ac3ef)" style="fill: none; stroke: #1f77b4; stroke-opacity: 0.9; stroke-linecap: square"/>
   </g>
   <g id="line2d_101">
    <path d="M 73.832727 130.012549 
L 96.784013 145.259965 
L 110.209655 144.05869 
L 119.735299 136.711384 
L 127.123963 136.731627 
L 133.160941 136.866802 
L 138.265133 137.006711 
L 142.686585 137.072887 
L 146.586582 137.103014 
L 150.075249 137.197768 
L 153.231132 137.339734 
L 156.112227 137.4259 
L 158.762577 137.510899 
L 161.216419 137.622941 
L 163.500891 137.723783 
L 165.637871 137.877291 
L 167.645256 137.988534 
L 169.537868 138.114831 
L 171.328126 138.238254 
L 173.026535 138.404446 
L 174.64206 138.574205 
L 176.182418 138.685459 
L 177.654291 138.839713 
L 179.063513 138.999254 
L 180.415199 139.156334 
L 181.713863 139.299828 
L 182.96351 139.427686 
L 184.167705 139.577769 
L 185.329638 139.711364 
L 186.452176 139.859325 
L 187.537903 139.985487 
L 188.589157 140.149574 
L 189.608059 140.293566 
L 190.596542 140.437474 
L 191.556369 140.58492 
L 192.489154 140.739663 
L 193.396381 140.890836 
L 194.279412 141.019684 
L 195.139505 141.172802 
L 196.795435 141.450363 
L 200.605577 142.182493 
L 203.366485 142.736147 
L 206.522367 143.478345 
L 209.950776 144.459716 
L 213.057275 145.400847 
L 215.897161 146.31777 
L 218.929107 147.445951 
L 222.084989 148.732804 
L 225.309214 150.247085 
L 228.558064 151.917774 
L 231.798236 153.73723 
L 234.749409 155.613774 
L 237.928618 157.90154 
L 241.253654 160.565942 
L 244.275053 163.246659 
L 247.395916 166.182953 
L 250.567721 169.518347 
L 253.752535 173.196662 
L 256.92156 177.239517 
L 260.053544 181.488026 
L 263.242012 186.280868 
L 266.348511 191.150378 
L 269.549291 196.497843 
L 272.71333 202.300217 
L 275.824698 208.477937 
L 279.007566 215.429667 
L 282.157318 220.413408 
L 285.3132 225.459556 
L 288.448806 230.860449 
L 291.590857 226.648151 
L 294.755123 233.068337 
L 297.911006 237.851107 
L 301.070353 229.312787 
L 304.207338 234.300382 
L 307.388987 240.931953 
L 310.526653 240.541467 
L 313.677802 246.208933 
L 316.835837 251.771346 
L 319.993675 250.695035 
L 323.144223 239.770357 
L 326.313037 244.785301 
L 329.470388 265.182857 
L 332.620929 273.740277 
L 335.778026 275.310933 
L 338.926181 273.077813 
L 342.083067 274.812714 
L 345.239862 278.581538 
L 348.396574 273.849334 
L 351.550949 271.432765 
L 354.706146 277.981192 
L 357.862029 274.655077 
L 361.021877 278.133661 
L 364.175185 282.90515 
L 367.331536 287.088812 
L 370.486567 286.936807 
L 373.642837 268.580369 
L 376.799775 273.452426 
L 379.954698 277.147327 
L 383.109418 284.819822 
L 386.265565 284.967305 
L 389.421928 287.259715 
L 392.577592 269.303333 
L 395.733674 283.723575 
" clip-path="url(#p9a656ac3ef)" style="fill: none; stroke-dasharray: 5.55,2.4; stroke-dashoffset: 0; stroke: #ff7f0e; stroke-opacity: 0.4; stroke-width: 1.5"/>
   </g>
   <g id="line2d_102">
    <path d="M 73.832727 139.720317 
L 212.053813 169.214831 
L 234.749409 186.311961 
L 248.08938 195.498136 
L 257.572106 196.308491 
L 264.934991 183.150562 
L 270.954773 191.195193 
L 276.046676 204.045551 
L 280.458909 197.944991 
L 284.351734 205.553642 
L 287.834661 205.31138 
L 290.985848 200.090027 
L 293.863029 194.197818 
L 296.510067 184.488742 
L 298.961069 199.139161 
L 301.24308 199.340208 
L 303.377907 206.559332 
L 305.383391 201.053804 
L 307.274314 196.726854 
L 309.063061 188.166926 
L 310.760109 208.875139 
L 312.374404 210.028319 
L 313.913642 206.362373 
L 315.384494 213.052232 
L 316.792779 193.549294 
L 318.143603 198.835653 
L 319.441472 208.910106 
L 320.690382 200.339887 
L 321.893893 212.887395 
L 323.05519 192.245557 
L 324.177133 204.860306 
L 325.262304 196.503172 
L 326.313037 197.950074 
L 326.586622 209.954224 
L 327.596781 215.196882 
L 328.577033 216.018739 
L 329.529097 216.128099 
L 330.45455 216.517669 
L 331.354839 217.116371 
L 333.08515 216.982839 
L 333.917539 217.439494 
L 334.729514 216.967635 
L 335.522053 217.280682 
L 336.296066 217.856142 
L 337.052397 217.836645 
L 338.515126 217.119085 
L 339.222951 218.124878 
L 339.915962 218.471204 
L 340.594765 216.829793 
L 341.259932 218.529881 
L 341.911999 218.74186 
L 342.551472 218.649123 
L 343.178829 218.894115 
L 343.794521 218.617004 
L 344.398973 218.8849 
L 344.992588 217.530421 
L 345.575748 219.209516 
L 347.266027 219.658772 
L 347.810807 218.289001 
L 348.34677 218.558425 
L 348.874195 219.199914 
L 349.39335 219.564818 
L 350.038947 218.514447 
L 350.540294 219.710438 
L 351.034162 214.321016 
L 351.520772 219.880571 
L 352.000334 220.581984 
L 352.47305 217.239569 
L 352.939112 218.869794 
L 353.398705 218.393405 
L 353.852006 220.848476 
L 354.299185 219.459628 
L 354.740405 217.693522 
L 355.175824 217.07877 
L 355.60559 219.834524 
L 356.02985 218.110947 
L 356.448743 221.256978 
L 356.862402 218.704403 
L 357.270957 221.153169 
L 357.674533 219.41168 
L 358.073249 214.728174 
L 358.46722 220.090104 
L 358.85656 215.483608 
L 359.241374 219.431361 
L 359.621768 218.609175 
L 359.997841 218.884398 
L 360.36969 220.831515 
L 360.737411 214.68857 
L 361.101092 220.084793 
L 361.460822 220.213138 
L 361.816686 212.656615 
L 362.168766 215.693852 
L 362.517141 215.269999 
L 362.86189 215.282861 
L 362.952863 201.657069 
L 363.293128 221.984024 
L 363.629931 222.306898 
L 364.620262 222.366602 
L 365.264401 222.587969 
L 365.581831 222.613539 
L 365.896247 222.417357 
L 366.207706 222.598572 
L 366.516262 222.619021 
L 366.82197 222.798048 
L 367.12488 222.421855 
L 367.425045 222.848007 
L 367.722513 222.956263 
L 368.017333 222.932629 
L 368.309551 222.753361 
L 369.171042 222.952978 
L 371.364445 222.926854 
L 371.62868 222.597091 
L 371.890822 223.065423 
L 372.408962 222.64345 
L 372.477172 207.124383 
L 372.732708 215.993623 
L 372.986287 206.630479 
L 373.237938 217.727163 
L 373.487692 211.647955 
L 373.735576 202.447946 
L 373.981618 220.734095 
L 374.225845 209.927283 
L 374.468284 220.544008 
L 374.708961 215.855596 
L 374.9479 204.113389 
L 375.185129 215.981367 
L 375.420669 214.714767 
L 375.654546 221.728979 
L 375.886782 199.226156 
L 376.117401 222.960318 
L 376.346425 218.58209 
L 376.573876 219.790193 
L 376.799775 213.327438 
L 377.024143 213.936936 
L 377.247001 220.514567 
L 377.468369 215.669538 
L 377.688267 219.56019 
L 377.906714 219.87613 
L 378.12373 218.196633 
L 378.339332 223.180359 
L 378.55354 222.333232 
L 378.766371 218.197333 
L 378.977842 224.419169 
L 379.396776 206.242717 
L 379.604272 219.981453 
L 379.810476 221.00751 
L 379.865034 215.49031 
L 380.069625 223.555655 
L 380.27296 215.63589 
L 380.475054 217.084797 
L 380.675922 224.14697 
L 380.875578 218.585801 
L 381.074038 222.297665 
L 381.271316 215.742565 
L 381.467425 224.767345 
L 381.662379 223.464268 
L 381.856193 208.808327 
L 382.048878 222.75539 
L 382.240449 221.681165 
L 382.430918 222.373496 
L 382.620297 222.589652 
L 382.995837 225.687132 
L 383.182022 222.892778 
L 383.367165 209.093095 
L 383.55128 224.071591 
L 383.734376 223.160831 
L 383.916465 221.06067 
L 384.097558 217.629094 
L 384.456801 215.699961 
L 384.634971 211.226239 
L 385.1638 224.405905 
L 385.338216 225.164342 
L 385.511718 205.59439 
L 385.684315 220.672287 
L 385.901477 222.761837 
L 386.07206 222.6 
L 386.241769 220.241595 
L 386.578599 226.661825 
L 386.745738 225.84194 
L 386.912038 211.779228 
L 387.077506 227.212845 
L 387.242152 226.43096 
L 387.405983 216.783854 
L 387.569007 225.417569 
L 387.731233 219.950678 
L 387.892667 219.30711 
L 388.053319 226.958106 
L 388.213195 226.691827 
L 388.372302 222.202457 
L 388.530649 227.304231 
L 388.688242 223.116427 
L 389.001195 227.333709 
L 389.15657 219.773989 
L 389.465149 225.721981 
L 389.618366 226.251995 
L 389.922691 228.091546 
L 390.073811 222.131904 
L 390.224244 222.862081 
L 390.373997 210.68216 
L 390.523075 227.548938 
L 390.671486 219.984999 
L 390.819234 219.217693 
L 391.005288 227.715493 
L 391.151557 209.67142 
L 391.297183 215.722335 
L 391.442172 217.015749 
L 391.586528 223.529805 
L 391.730258 206.652773 
L 391.873367 223.941233 
L 392.015859 219.458885 
L 392.157742 207.096836 
L 392.299018 210.510386 
L 392.439695 222.818614 
L 392.579777 208.230963 
L 392.719268 225.314816 
L 392.858174 212.802883 
L 392.9965 218.141055 
L 393.13425 216.139046 
L 393.27143 203.28058 
L 393.544096 225.595986 
L 393.679592 211.160714 
L 393.948931 226.118449 
L 394.082783 219.49245 
L 394.216097 226.680873 
L 394.348876 221.257956 
L 394.481125 224.051032 
L 394.612847 223.075988 
L 394.874731 208.552877 
L 395.134559 224.375925 
L 395.263712 225.34416 
L 395.392364 212.518693 
L 395.426453 223.820246 
L 395.554476 217.813343 
L 395.682005 226.947171 
L 395.809045 224.999303 
L 396.061671 210.338057 
L 396.187266 211.189351 
L 396.312385 216.205068 
L 396.437034 228.274317 
L 396.561215 218.01242 
L 396.684932 224.189711 
L 396.808189 224.787849 
L 396.930989 219.224244 
L 397.053334 228.758704 
L 397.17523 227.856147 
L 397.296678 220.750185 
L 397.417683 228.276122 
L 397.538246 223.144129 
L 397.658373 207.555711 
L 397.778065 226.795201 
L 397.897326 210.911605 
L 398.01616 215.883433 
L 398.134568 214.965378 
L 398.487273 227.467965 
L 398.487273 227.467965 
" clip-path="url(#p9a656ac3ef)" style="fill: none; stroke: #ff7f0e; stroke-opacity: 0.2; stroke-width: 1.5; stroke-linecap: square"/>
   </g>
   <g id="line2d_103">
    <path d="M 73.832727 139.720317 
L 212.053813 169.214831 
L 234.749409 186.311961 
L 248.08938 195.498136 
L 257.572106 196.308491 
L 270.954773 196.308491 
L 276.046676 204.045551 
L 280.458909 204.045551 
L 284.351734 205.553642 
L 301.24308 205.553642 
L 303.377907 206.559332 
L 309.063061 206.559332 
L 310.760109 208.875139 
L 312.374404 210.028319 
L 313.913642 210.028319 
L 315.384494 213.052232 
L 326.586622 213.052232 
L 327.596781 215.196882 
L 328.577033 216.018739 
L 329.529097 216.128099 
L 330.45455 216.517669 
L 331.354839 217.116371 
L 333.08515 217.116371 
L 333.917539 217.439494 
L 335.522053 217.439494 
L 336.296066 217.856142 
L 338.515126 217.856142 
L 339.915962 218.471204 
L 341.259932 218.529881 
L 341.911999 218.74186 
L 342.551472 218.74186 
L 343.178829 218.894115 
L 344.992588 218.894115 
L 345.575748 219.209516 
L 347.810807 219.658772 
L 351.034162 219.710438 
L 351.520772 219.880571 
L 352.000334 220.581984 
L 353.398705 220.581984 
L 353.852006 220.848476 
L 356.02985 220.848476 
L 356.448743 221.256978 
L 362.952863 221.256978 
L 363.293128 221.984024 
L 363.629931 222.306898 
L 364.620262 222.393827 
L 365.264401 222.587969 
L 367.425045 222.848007 
L 368.017333 222.956263 
L 378.12373 223.065423 
L 378.55354 223.180359 
L 378.766371 223.180359 
L 378.977842 224.419169 
L 381.271316 224.419169 
L 381.467425 224.767345 
L 382.808599 224.767345 
L 382.995837 225.687132 
L 386.410613 225.687132 
L 386.578599 226.661825 
L 386.912038 226.661825 
L 387.077506 227.212845 
L 388.845088 227.304231 
L 389.465149 227.333709 
L 389.770878 227.350301 
L 389.922691 228.091546 
L 396.312385 228.091546 
L 396.561215 228.274317 
L 396.930989 228.274317 
L 397.053334 228.758704 
L 398.487273 228.758704 
L 398.487273 228.758704 
" clip-path="url(#p9a656ac3ef)" style="fill: none; stroke: #ff7f0e; stroke-opacity: 0.9; stroke-linecap: square"/>
   </g>
   <g id="line2d_104">
    <path d="M 73.832727 129.836037 
L 96.784013 127.870594 
L 110.209655 120.660382 
L 119.735299 129.572104 
L 127.123963 129.696397 
L 133.160941 129.815878 
L 138.265133 129.905479 
L 142.686585 129.98249 
L 146.586582 130.083427 
L 150.075249 130.205427 
L 153.231132 130.363152 
L 156.112227 130.49413 
L 158.762577 130.613943 
L 161.216419 130.735529 
L 163.500891 130.848119 
L 165.637871 131.00533 
L 167.645256 131.125845 
L 169.537868 131.280935 
L 171.328126 131.432397 
L 173.026535 131.576723 
L 174.64206 131.719511 
L 176.182418 131.834995 
L 177.654291 131.992607 
L 179.063513 132.162906 
L 180.415199 132.322762 
L 181.713863 132.455736 
L 182.96351 132.57869 
L 184.167705 132.724556 
L 185.329638 132.863959 
L 186.452176 133.02461 
L 187.537903 133.171331 
L 188.589157 133.335235 
L 189.608059 133.481957 
L 190.596542 133.63766 
L 191.556369 133.794726 
L 192.489154 133.9564 
L 193.396381 134.109417 
L 194.279412 134.250342 
L 195.139505 134.413645 
L 196.795435 134.701598 
L 200.605577 135.449874 
L 203.366485 136.026569 
L 206.522367 136.809192 
L 209.950776 137.79804 
L 213.057275 138.72185 
L 215.897161 139.635166 
L 218.929107 140.735637 
L 222.084989 141.899333 
L 225.309214 143.275844 
L 228.558064 144.795547 
L 231.798236 146.369959 
L 234.749409 147.975935 
L 237.928618 149.980045 
L 241.253654 152.26971 
L 244.275053 154.556301 
L 247.395916 157.226458 
L 250.567721 160.096183 
L 253.752535 163.227542 
L 256.92156 166.819698 
L 260.053544 170.896334 
L 263.242012 175.292538 
L 266.348511 180.053228 
L 269.549291 184.878493 
L 272.71333 190.379892 
L 275.824698 196.261884 
L 279.007566 202.417499 
L 282.157318 208.171426 
L 285.3132 212.483727 
L 288.448806 216.261058 
L 291.590857 216.359238 
L 294.755123 213.393676 
L 297.911006 215.508329 
L 301.070353 214.177376 
L 304.207338 224.117963 
L 307.388987 232.717802 
L 310.526653 226.593322 
L 313.677802 233.349389 
L 316.835837 232.45684 
L 319.993675 236.006771 
L 323.144223 242.828605 
L 326.313037 240.340205 
L 329.470388 219.320222 
L 332.620929 217.516751 
L 335.778026 215.885901 
L 338.926181 214.40951 
L 342.083067 216.686228 
L 345.239862 215.630629 
L 348.396574 216.441089 
L 351.550949 215.704125 
L 354.706146 216.92951 
L 357.862029 216.074948 
L 361.021877 216.819289 
L 364.175185 216.44294 
L 367.331536 215.799963 
L 370.486567 216.509239 
L 373.642837 214.549579 
L 376.799775 216.492849 
L 379.954698 216.617778 
L 383.109418 217.051177 
L 386.265565 217.585699 
L 389.421928 216.532056 
L 392.577592 217.120967 
L 395.733674 216.504049 
" clip-path="url(#p9a656ac3ef)" style="fill: none; stroke-dasharray: 5.55,2.4; stroke-dashoffset: 0; stroke: #2ca02c; stroke-opacity: 0.4; stroke-width: 1.5"/>
   </g>
   <g id="line2d_105">
    <path d="M 73.832727 146.607747 
L 212.053813 169.196955 
L 234.749409 170.297557 
L 248.08938 176.965071 
L 257.572106 178.334965 
L 264.934991 180.939141 
L 270.954773 178.985925 
L 276.046676 178.349509 
L 280.458909 198.475711 
L 284.351734 189.093296 
L 287.834661 195.583029 
L 290.985848 194.103449 
L 293.863029 170.447182 
L 296.510067 194.188947 
L 298.961069 197.4822 
L 301.24308 201.991347 
L 303.377907 203.326525 
L 305.383391 197.579011 
L 307.274314 196.606123 
L 309.063061 200.086564 
L 310.760109 180.375963 
L 312.374404 204.651546 
L 313.913642 204.782616 
L 315.384494 208.0805 
L 316.792779 182.236415 
L 318.143603 192.734499 
L 319.441472 201.154121 
L 320.690382 196.39096 
L 321.893893 199.085511 
L 323.05519 206.953498 
L 324.177133 207.397725 
L 325.262304 188.808156 
L 326.313037 198.556782 
L 326.586622 185.492097 
L 327.596781 183.89697 
L 328.577033 183.772724 
L 329.529097 183.934903 
L 331.354839 183.985977 
L 332.231296 183.751639 
L 333.08515 183.8483 
L 334.729514 183.895107 
L 336.296066 184.004153 
L 337.052397 184.023262 
L 337.791838 183.868808 
L 338.515126 183.951499 
L 339.222951 183.90631 
L 339.915962 184.004178 
L 340.594765 183.778023 
L 342.551472 183.954792 
L 343.178829 184.070954 
L 343.794521 183.875953 
L 344.398973 183.831704 
L 344.992588 184.094996 
L 345.575748 183.878621 
L 346.148815 184.040691 
L 346.712133 183.86243 
L 348.34677 183.9929 
L 348.874195 183.937595 
L 349.529894 184.019597 
L 350.038947 183.722602 
L 351.520772 183.989547 
L 352.47305 183.890689 
L 353.852006 183.913195 
L 354.299185 184.142637 
L 354.740405 183.975499 
L 355.175824 184.139643 
L 355.60559 183.928618 
L 356.02985 184.22655 
L 356.448743 183.878412 
L 356.862402 184.061986 
L 357.270957 183.89725 
L 357.674533 183.96803 
L 358.073249 183.897949 
L 358.46722 184.029954 
L 361.101092 184.098257 
L 361.460822 183.881963 
L 361.816686 183.885574 
L 362.168766 183.71904 
L 362.517141 183.984587 
L 362.952863 183.950394 
L 363.629931 184.115794 
L 363.963344 183.880302 
L 364.620262 183.944252 
L 364.943898 184.13123 
L 365.264401 183.869766 
L 365.581831 184.116144 
L 366.516262 184.014102 
L 367.425045 184.068031 
L 368.017333 183.960277 
L 368.309551 184.156708 
L 368.599212 183.765255 
L 368.886362 184.039957 
L 369.171042 183.873366 
L 369.453296 183.986498 
L 371.098085 183.880027 
L 371.364445 184.062385 
L 371.62868 183.872183 
L 372.408962 183.925387 
L 374.225845 183.8573 
L 374.468284 184.117086 
L 374.708961 183.845975 
L 375.185129 184.314025 
L 375.654546 183.957176 
L 375.886782 184.046914 
L 376.117401 183.847235 
L 376.346425 184.040484 
L 376.573876 183.957961 
L 376.799775 184.137023 
L 377.688267 184.071955 
L 377.906714 183.810737 
L 378.12373 184.125861 
L 378.339332 183.849264 
L 378.55354 184.065318 
L 378.766371 183.855215 
L 379.187972 184.09605 
L 379.396776 184.111542 
L 379.865034 183.957704 
L 380.069625 184.101838 
L 380.27296 183.917227 
L 380.475054 184.090108 
L 380.675922 183.981518 
L 381.074038 184.040961 
L 381.271316 183.81421 
L 381.467425 184.049912 
L 382.240449 184.170003 
L 382.430918 183.902725 
L 382.995837 183.882889 
L 383.182022 183.793958 
L 383.367165 184.007117 
L 383.55128 183.786484 
L 383.734376 184.157015 
L 383.916465 183.927085 
L 384.634971 183.881018 
L 384.812187 184.092049 
L 385.338216 183.900973 
L 385.901477 183.982319 
L 386.07206 183.871538 
L 386.241769 184.060104 
L 386.410613 183.895247 
L 386.578599 184.162469 
L 386.912038 184.14746 
L 387.077506 183.991584 
L 387.242152 184.190843 
L 387.405983 183.844037 
L 387.569007 183.96156 
L 387.892667 183.855279 
L 388.053319 183.820061 
L 388.372302 184.147235 
L 388.530649 183.89611 
L 388.688242 184.042335 
L 389.001195 183.963634 
L 389.15657 184.074991 
L 389.311219 183.913338 
L 389.618366 183.928508 
L 389.770878 184.114888 
L 389.922691 184.094422 
L 390.073811 183.82779 
L 390.224244 183.95953 
L 390.373997 184.247395 
L 390.523075 183.859853 
L 390.819234 184.018955 
L 391.005288 183.93509 
L 391.297183 184.010598 
L 391.442172 183.907619 
L 391.586528 183.942475 
L 391.730258 184.127031 
L 392.015859 183.870335 
L 392.157742 184.05222 
L 392.439695 183.889498 
L 392.579777 184.097742 
L 392.9965 183.922904 
L 393.13425 184.046635 
L 393.544096 183.997151 
L 394.216097 184.094366 
L 394.348876 183.838435 
L 394.481125 183.854876 
L 394.612847 184.116463 
L 394.744048 183.881948 
L 394.874731 184.080747 
L 395.263712 183.933748 
L 395.392364 184.038659 
L 395.426453 183.92957 
L 395.682005 183.976366 
L 396.061671 184.139739 
L 396.312385 183.79252 
L 396.437034 183.782621 
L 396.561215 184.171964 
L 396.684932 183.897417 
L 396.930989 183.969227 
L 397.17523 183.857785 
L 397.296678 184.097992 
L 397.538246 183.910769 
L 397.897326 183.887974 
L 398.01616 184.082031 
L 398.134568 183.898218 
L 398.252554 184.176982 
L 398.487273 183.946241 
L 398.487273 183.946241 
" clip-path="url(#p9a656ac3ef)" style="fill: none; stroke: #2ca02c; stroke-opacity: 0.2; stroke-width: 1.5; stroke-linecap: square"/>
   </g>
   <g id="line2d_106">
    <path d="M 73.832727 146.607747 
L 212.053813 169.196955 
L 234.749409 170.297557 
L 248.08938 176.965071 
L 257.572106 178.334965 
L 264.934991 180.939141 
L 276.046676 180.939141 
L 280.458909 198.475711 
L 298.961069 198.475711 
L 301.24308 201.991347 
L 303.377907 203.326525 
L 310.760109 203.326525 
L 312.374404 204.651546 
L 313.913642 204.782616 
L 315.384494 208.0805 
L 398.487273 208.0805 
L 398.487273 208.0805 
" clip-path="url(#p9a656ac3ef)" style="fill: none; stroke: #2ca02c; stroke-opacity: 0.9; stroke-linecap: square"/>
   </g>
   <g id="patch_3">
    <path d="M 57.6 307.584 
L 57.6 41.472 
" style="fill: none; stroke: #000000; stroke-width: 0.8; stroke-linejoin: miter; stroke-linecap: square"/>
   </g>
   <g id="patch_4">
    <path d="M 414.72 307.584 
L 414.72 41.472 
" style="fill: none; stroke: #000000; stroke-width: 0.8; stroke-linejoin: miter; stroke-linecap: square"/>
   </g>
   <g id="patch_5">
    <path d="M 57.6 307.584 
L 414.72 307.584 
" style="fill: none; stroke: #000000; stroke-width: 0.8; stroke-linejoin: miter; stroke-linecap: square"/>
   </g>
   <g id="patch_6">
    <path d="M 57.6 41.472 
L 414.72 41.472 
" style="fill: none; stroke: #000000; stroke-width: 0.8; stroke-linejoin: miter; stroke-linecap: square"/>
   </g>
   <g id="text_14">
    <!-- 2025-02-18-21:59:40 -->
    <g transform="translate(172.178438 35.472) scale(0.12 -0.12)">
     <defs>
      <path id="DejaVuSans-35" d="M 691 4666 
L 3169 4666 
L 3169 4134 
L 1269 4134 
L 1269 2991 
Q 1406 3038 1543 3061 
Q 1681 3084 1819 3084 
Q 2600 3084 3056 2656 
Q 3513 2228 3513 1497 
Q 3513 744 3044 326 
Q 2575 -91 1722 -91 
Q 1428 -91 1123 -41 
Q 819 9 494 109 
L 494 744 
Q 775 591 1075 516 
Q 1375 441 1709 441 
Q 2250 441 2565 725 
Q 2881 1009 2881 1497 
Q 2881 1984 2565 2268 
Q 2250 2553 1709 2553 
Q 1456 2553 1204 2497 
Q 953 2441 691 2322 
L 691 4666 
z
" transform="scale(0.015625)"/>
      <path id="DejaVuSans-2d" d="M 313 2009 
L 1997 2009 
L 1997 1497 
L 313 1497 
L 313 2009 
z
" transform="scale(0.015625)"/>
      <path id="DejaVuSans-38" d="M 2034 2216 
Q 1584 2216 1326 1975 
Q 1069 1734 1069 1313 
Q 1069 891 1326 650 
Q 1584 409 2034 409 
Q 2484 409 2743 651 
Q 3003 894 3003 1313 
Q 3003 1734 2745 1975 
Q 2488 2216 2034 2216 
z
M 1403 2484 
Q 997 2584 770 2862 
Q 544 3141 544 3541 
Q 544 4100 942 4425 
Q 1341 4750 2034 4750 
Q 2731 4750 3128 4425 
Q 3525 4100 3525 3541 
Q 3525 3141 3298 2862 
Q 3072 2584 2669 2484 
Q 3125 2378 3379 2068 
Q 3634 1759 3634 1313 
Q 3634 634 3220 271 
Q 2806 -91 2034 -91 
Q 1263 -91 848 271 
Q 434 634 434 1313 
Q 434 1759 690 2068 
Q 947 2378 1403 2484 
z
M 1172 3481 
Q 1172 3119 1398 2916 
Q 1625 2713 2034 2713 
Q 2441 2713 2670 2916 
Q 2900 3119 2900 3481 
Q 2900 3844 2670 4047 
Q 2441 4250 2034 4250 
Q 1625 4250 1398 4047 
Q 1172 3844 1172 3481 
z
" transform="scale(0.015625)"/>
      <path id="DejaVuSans-3a" d="M 750 794 
L 1409 794 
L 1409 0 
L 750 0 
L 750 794 
z
M 750 3309 
L 1409 3309 
L 1409 2516 
L 750 2516 
L 750 3309 
z
" transform="scale(0.015625)"/>
      <path id="DejaVuSans-39" d="M 703 97 
L 703 672 
Q 941 559 1184 500 
Q 1428 441 1663 441 
Q 2288 441 2617 861 
Q 2947 1281 2994 2138 
Q 2813 1869 2534 1725 
Q 2256 1581 1919 1581 
Q 1219 1581 811 2004 
Q 403 2428 403 3163 
Q 403 3881 828 4315 
Q 1253 4750 1959 4750 
Q 2769 4750 3195 4129 
Q 3622 3509 3622 2328 
Q 3622 1225 3098 567 
Q 2575 -91 1691 -91 
Q 1453 -91 1209 -44 
Q 966 3 703 97 
z
M 1959 2075 
Q 2384 2075 2632 2365 
Q 2881 2656 2881 3163 
Q 2881 3666 2632 3958 
Q 2384 4250 1959 4250 
Q 1534 4250 1286 3958 
Q 1038 3666 1038 3163 
Q 1038 2656 1286 2365 
Q 1534 2075 1959 2075 
z
" transform="scale(0.015625)"/>
     </defs>
     <use xlink:href="#DejaVuSans-32"/>
     <use xlink:href="#DejaVuSans-30" x="63.623047"/>
     <use xlink:href="#DejaVuSans-32" x="127.246094"/>
     <use xlink:href="#DejaVuSans-35" x="190.869141"/>
     <use xlink:href="#DejaVuSans-2d" x="254.492188"/>
     <use xlink:href="#DejaVuSans-30" x="290.576172"/>
     <use xlink:href="#DejaVuSans-32" x="354.199219"/>
     <use xlink:href="#DejaVuSans-2d" x="417.822266"/>
     <use xlink:href="#DejaVuSans-31" x="453.90625"/>
     <use xlink:href="#DejaVuSans-38" x="517.529297"/>
     <use xlink:href="#DejaVuSans-2d" x="581.152344"/>
     <use xlink:href="#DejaVuSans-32" x="617.236328"/>
     <use xlink:href="#DejaVuSans-31" x="680.859375"/>
     <use xlink:href="#DejaVuSans-3a" x="744.482422"/>
     <use xlink:href="#DejaVuSans-35" x="778.173828"/>
     <use xlink:href="#DejaVuSans-39" x="841.796875"/>
     <use xlink:href="#DejaVuSans-3a" x="905.419922"/>
     <use xlink:href="#DejaVuSans-34" x="939.111328"/>
     <use xlink:href="#DejaVuSans-30" x="1002.734375"/>
    </g>
   </g>
   <g id="legend_1">
    <g id="patch_7">
     <path d="M 281.596563 138.375125 
L 407.72 138.375125 
Q 409.72 138.375125 409.72 136.375125 
L 409.72 48.472 
Q 409.72 46.472 407.72 46.472 
L 281.596563 46.472 
Q 279.596563 46.472 279.596563 48.472 
L 279.596563 136.375125 
Q 279.596563 138.375125 281.596563 138.375125 
z
" style="fill: #ffffff; opacity: 0.8; stroke: #cccccc; stroke-linejoin: miter"/>
    </g>
    <g id="line2d_107">
     <path d="M 283.596563 54.570437 
L 293.596563 54.570437 
L 303.596563 54.570437 
" style="fill: none; stroke-dasharray: 5.55,2.4; stroke-dashoffset: 0; stroke: #1f77b4; stroke-opacity: 0.4; stroke-width: 1.5"/>
    </g>
    <g id="text_15">
     <!-- SchNet MEA -->
     <g transform="translate(311.596563 58.070437) scale(0.1 -0.1)">
      <defs>
       <path id="DejaVuSans-53" d="M 3425 4513 
L 3425 3897 
Q 3066 4069 2747 4153 
Q 2428 4238 2131 4238 
Q 1616 4238 1336 4038 
Q 1056 3838 1056 3469 
Q 1056 3159 1242 3001 
Q 1428 2844 1947 2747 
L 2328 2669 
Q 3034 2534 3370 2195 
Q 3706 1856 3706 1288 
Q 3706 609 3251 259 
Q 2797 -91 1919 -91 
Q 1588 -91 1214 -16 
Q 841 59 441 206 
L 441 856 
Q 825 641 1194 531 
Q 1563 422 1919 422 
Q 2459 422 2753 634 
Q 3047 847 3047 1241 
Q 3047 1584 2836 1778 
Q 2625 1972 2144 2069 
L 1759 2144 
Q 1053 2284 737 2584 
Q 422 2884 422 3419 
Q 422 4038 858 4394 
Q 1294 4750 2059 4750 
Q 2388 4750 2728 4690 
Q 3069 4631 3425 4513 
z
" transform="scale(0.015625)"/>
       <path id="DejaVuSans-63" d="M 3122 3366 
L 3122 2828 
Q 2878 2963 2633 3030 
Q 2388 3097 2138 3097 
Q 1578 3097 1268 2742 
Q 959 2388 959 1747 
Q 959 1106 1268 751 
Q 1578 397 2138 397 
Q 2388 397 2633 464 
Q 2878 531 3122 666 
L 3122 134 
Q 2881 22 2623 -34 
Q 2366 -91 2075 -91 
Q 1284 -91 818 406 
Q 353 903 353 1747 
Q 353 2603 823 3093 
Q 1294 3584 2113 3584 
Q 2378 3584 2631 3529 
Q 2884 3475 3122 3366 
z
" transform="scale(0.015625)"/>
       <path id="DejaVuSans-68" d="M 3513 2113 
L 3513 0 
L 2938 0 
L 2938 2094 
Q 2938 2591 2744 2837 
Q 2550 3084 2163 3084 
Q 1697 3084 1428 2787 
Q 1159 2491 1159 1978 
L 1159 0 
L 581 0 
L 581 4863 
L 1159 4863 
L 1159 2956 
Q 1366 3272 1645 3428 
Q 1925 3584 2291 3584 
Q 2894 3584 3203 3211 
Q 3513 2838 3513 2113 
z
" transform="scale(0.015625)"/>
       <path id="DejaVuSans-4e" d="M 628 4666 
L 1478 4666 
L 3547 763 
L 3547 4666 
L 4159 4666 
L 4159 0 
L 3309 0 
L 1241 3903 
L 1241 0 
L 628 0 
L 628 4666 
z
" transform="scale(0.015625)"/>
       <path id="DejaVuSans-20" transform="scale(0.015625)"/>
       <path id="DejaVuSans-4d" d="M 628 4666 
L 1569 4666 
L 2759 1491 
L 3956 4666 
L 4897 4666 
L 4897 0 
L 4281 0 
L 4281 4097 
L 3078 897 
L 2444 897 
L 1241 4097 
L 1241 0 
L 628 0 
L 628 4666 
z
" transform="scale(0.015625)"/>
       <path id="DejaVuSans-45" d="M 628 4666 
L 3578 4666 
L 3578 4134 
L 1259 4134 
L 1259 2753 
L 3481 2753 
L 3481 2222 
L 1259 2222 
L 1259 531 
L 3634 531 
L 3634 0 
L 628 0 
L 628 4666 
z
" transform="scale(0.015625)"/>
       <path id="DejaVuSans-41" d="M 2188 4044 
L 1331 1722 
L 3047 1722 
L 2188 4044 
z
M 1831 4666 
L 2547 4666 
L 4325 0 
L 3669 0 
L 3244 1197 
L 1141 1197 
L 716 0 
L 50 0 
L 1831 4666 
z
" transform="scale(0.015625)"/>
      </defs>
      <use xlink:href="#DejaVuSans-53"/>
      <use xlink:href="#DejaVuSans-63" x="63.476562"/>
      <use xlink:href="#DejaVuSans-68" x="118.457031"/>
      <use xlink:href="#DejaVuSans-4e" x="181.835938"/>
      <use xlink:href="#DejaVuSans-65" x="256.640625"/>
      <use xlink:href="#DejaVuSans-74" x="318.164062"/>
      <use xlink:href="#DejaVuSans-20" x="357.373047"/>
      <use xlink:href="#DejaVuSans-4d" x="389.160156"/>
      <use xlink:href="#DejaVuSans-45" x="475.439453"/>
      <use xlink:href="#DejaVuSans-41" x="538.623047"/>
     </g>
    </g>
    <g id="line2d_108">
     <path d="M 283.596563 69.248562 
L 293.596563 69.248562 
L 303.596563 69.248562 
" style="fill: none; stroke: #1f77b4; stroke-opacity: 0.9; stroke-linecap: square"/>
    </g>
    <g id="text_16">
     <!-- SchNet eval_loss -->
     <g transform="translate(311.596563 72.748562) scale(0.1 -0.1)">
      <defs>
       <path id="DejaVuSans-76" d="M 191 3500 
L 800 3500 
L 1894 563 
L 2988 3500 
L 3597 3500 
L 2284 0 
L 1503 0 
L 191 3500 
z
" transform="scale(0.015625)"/>
       <path id="DejaVuSans-61" d="M 2194 1759 
Q 1497 1759 1228 1600 
Q 959 1441 959 1056 
Q 959 750 1161 570 
Q 1363 391 1709 391 
Q 2188 391 2477 730 
Q 2766 1069 2766 1631 
L 2766 1759 
L 2194 1759 
z
M 3341 1997 
L 3341 0 
L 2766 0 
L 2766 531 
Q 2569 213 2275 61 
Q 1981 -91 1556 -91 
Q 1019 -91 701 211 
Q 384 513 384 1019 
Q 384 1609 779 1909 
Q 1175 2209 1959 2209 
L 2766 2209 
L 2766 2266 
Q 2766 2663 2505 2880 
Q 2244 3097 1772 3097 
Q 1472 3097 1187 3025 
Q 903 2953 641 2809 
L 641 3341 
Q 956 3463 1253 3523 
Q 1550 3584 1831 3584 
Q 2591 3584 2966 3190 
Q 3341 2797 3341 1997 
z
" transform="scale(0.015625)"/>
       <path id="DejaVuSans-5f" d="M 3263 -1063 
L 3263 -1509 
L -63 -1509 
L -63 -1063 
L 3263 -1063 
z
" transform="scale(0.015625)"/>
      </defs>
      <use xlink:href="#DejaVuSans-53"/>
      <use xlink:href="#DejaVuSans-63" x="63.476562"/>
      <use xlink:href="#DejaVuSans-68" x="118.457031"/>
      <use xlink:href="#DejaVuSans-4e" x="181.835938"/>
      <use xlink:href="#DejaVuSans-65" x="256.640625"/>
      <use xlink:href="#DejaVuSans-74" x="318.164062"/>
      <use xlink:href="#DejaVuSans-20" x="357.373047"/>
      <use xlink:href="#DejaVuSans-65" x="389.160156"/>
      <use xlink:href="#DejaVuSans-76" x="450.683594"/>
      <use xlink:href="#DejaVuSans-61" x="509.863281"/>
      <use xlink:href="#DejaVuSans-6c" x="571.142578"/>
      <use xlink:href="#DejaVuSans-5f" x="598.925781"/>
      <use xlink:href="#DejaVuSans-6c" x="648.925781"/>
      <use xlink:href="#DejaVuSans-6f" x="676.708984"/>
      <use xlink:href="#DejaVuSans-73" x="737.890625"/>
      <use xlink:href="#DejaVuSans-73" x="789.990234"/>
     </g>
    </g>
    <g id="line2d_109">
     <path d="M 283.596563 84.204812 
L 293.596563 84.204812 
L 303.596563 84.204812 
" style="fill: none; stroke-dasharray: 5.55,2.4; stroke-dashoffset: 0; stroke: #ff7f0e; stroke-opacity: 0.4; stroke-width: 1.5"/>
    </g>
    <g id="text_17">
     <!-- MoGIN14 MEA -->
     <g transform="translate(311.596563 87.704812) scale(0.1 -0.1)">
      <defs>
       <path id="DejaVuSans-47" d="M 3809 666 
L 3809 1919 
L 2778 1919 
L 2778 2438 
L 4434 2438 
L 4434 434 
Q 4069 175 3628 42 
Q 3188 -91 2688 -91 
Q 1594 -91 976 548 
Q 359 1188 359 2328 
Q 359 3472 976 4111 
Q 1594 4750 2688 4750 
Q 3144 4750 3555 4637 
Q 3966 4525 4313 4306 
L 4313 3634 
Q 3963 3931 3569 4081 
Q 3175 4231 2741 4231 
Q 1884 4231 1454 3753 
Q 1025 3275 1025 2328 
Q 1025 1384 1454 906 
Q 1884 428 2741 428 
Q 3075 428 3337 486 
Q 3600 544 3809 666 
z
" transform="scale(0.015625)"/>
       <path id="DejaVuSans-49" d="M 628 4666 
L 1259 4666 
L 1259 0 
L 628 0 
L 628 4666 
z
" transform="scale(0.015625)"/>
      </defs>
      <use xlink:href="#DejaVuSans-4d"/>
      <use xlink:href="#DejaVuSans-6f" x="86.279297"/>
      <use xlink:href="#DejaVuSans-47" x="147.460938"/>
      <use xlink:href="#DejaVuSans-49" x="224.951172"/>
      <use xlink:href="#DejaVuSans-4e" x="254.443359"/>
      <use xlink:href="#DejaVuSans-31" x="329.248047"/>
      <use xlink:href="#DejaVuSans-34" x="392.871094"/>
      <use xlink:href="#DejaVuSans-20" x="456.494141"/>
      <use xlink:href="#DejaVuSans-4d" x="488.28125"/>
      <use xlink:href="#DejaVuSans-45" x="574.560547"/>
      <use xlink:href="#DejaVuSans-41" x="637.744141"/>
     </g>
    </g>
    <g id="line2d_110">
     <path d="M 283.596563 98.882937 
L 293.596563 98.882937 
L 303.596563 98.882937 
" style="fill: none; stroke: #ff7f0e; stroke-opacity: 0.9; stroke-linecap: square"/>
    </g>
    <g id="text_18">
     <!-- MoGIN14 eval_loss -->
     <g transform="translate(311.596563 102.382937) scale(0.1 -0.1)">
      <use xlink:href="#DejaVuSans-4d"/>
      <use xlink:href="#DejaVuSans-6f" x="86.279297"/>
      <use xlink:href="#DejaVuSans-47" x="147.460938"/>
      <use xlink:href="#DejaVuSans-49" x="224.951172"/>
      <use xlink:href="#DejaVuSans-4e" x="254.443359"/>
      <use xlink:href="#DejaVuSans-31" x="329.248047"/>
      <use xlink:href="#DejaVuSans-34" x="392.871094"/>
      <use xlink:href="#DejaVuSans-20" x="456.494141"/>
      <use xlink:href="#DejaVuSans-65" x="488.28125"/>
      <use xlink:href="#DejaVuSans-76" x="549.804688"/>
      <use xlink:href="#DejaVuSans-61" x="608.984375"/>
      <use xlink:href="#DejaVuSans-6c" x="670.263672"/>
      <use xlink:href="#DejaVuSans-5f" x="698.046875"/>
      <use xlink:href="#DejaVuSans-6c" x="748.046875"/>
      <use xlink:href="#DejaVuSans-6f" x="775.830078"/>
      <use xlink:href="#DejaVuSans-73" x="837.011719"/>
      <use xlink:href="#DejaVuSans-73" x="889.111328"/>
     </g>
    </g>
    <g id="line2d_111">
     <path d="M 283.596563 113.839187 
L 293.596563 113.839187 
L 303.596563 113.839187 
" style="fill: none; stroke-dasharray: 5.55,2.4; stroke-dashoffset: 0; stroke: #2ca02c; stroke-opacity: 0.4; stroke-width: 1.5"/>
    </g>
    <g id="text_19">
     <!-- MoGIN11 MEA -->
     <g transform="translate(311.596563 117.339187) scale(0.1 -0.1)">
      <use xlink:href="#DejaVuSans-4d"/>
      <use xlink:href="#DejaVuSans-6f" x="86.279297"/>
      <use xlink:href="#DejaVuSans-47" x="147.460938"/>
      <use xlink:href="#DejaVuSans-49" x="224.951172"/>
      <use xlink:href="#DejaVuSans-4e" x="254.443359"/>
      <use xlink:href="#DejaVuSans-31" x="329.248047"/>
      <use xlink:href="#DejaVuSans-31" x="392.871094"/>
      <use xlink:href="#DejaVuSans-20" x="456.494141"/>
      <use xlink:href="#DejaVuSans-4d" x="488.28125"/>
      <use xlink:href="#DejaVuSans-45" x="574.560547"/>
      <use xlink:href="#DejaVuSans-41" x="637.744141"/>
     </g>
    </g>
    <g id="line2d_112">
     <path d="M 283.596563 128.517312 
L 293.596563 128.517312 
L 303.596563 128.517312 
" style="fill: none; stroke: #2ca02c; stroke-opacity: 0.9; stroke-linecap: square"/>
    </g>
    <g id="text_20">
     <!-- MoGIN11 eval_loss -->
     <g transform="translate(311.596563 132.017312) scale(0.1 -0.1)">
      <use xlink:href="#DejaVuSans-4d"/>
      <use xlink:href="#DejaVuSans-6f" x="86.279297"/>
      <use xlink:href="#DejaVuSans-47" x="147.460938"/>
      <use xlink:href="#DejaVuSans-49" x="224.951172"/>
      <use xlink:href="#DejaVuSans-4e" x="254.443359"/>
      <use xlink:href="#DejaVuSans-31" x="329.248047"/>
      <use xlink:href="#DejaVuSans-31" x="392.871094"/>
      <use xlink:href="#DejaVuSans-20" x="456.494141"/>
      <use xlink:href="#DejaVuSans-65" x="488.28125"/>
      <use xlink:href="#DejaVuSans-76" x="549.804688"/>
      <use xlink:href="#DejaVuSans-61" x="608.984375"/>
      <use xlink:href="#DejaVuSans-6c" x="670.263672"/>
      <use xlink:href="#DejaVuSans-5f" x="698.046875"/>
      <use xlink:href="#DejaVuSans-6c" x="748.046875"/>
      <use xlink:href="#DejaVuSans-6f" x="775.830078"/>
      <use xlink:href="#DejaVuSans-73" x="837.011719"/>
      <use xlink:href="#DejaVuSans-73" x="889.111328"/>
     </g>
    </g>
   </g>
  </g>
 </g>
 <defs>
  <clipPath id="p9a656ac3ef">
   <rect x="57.6" y="41.472" width="357.12" height="266.112"/>
  </clipPath>
 </defs>
</svg>
