<?xml version="1.0" encoding="utf-8" standalone="no"?>
<!DOCTYPE svg PUBLIC "-//W3C//DTD SVG 1.1//EN"
  "http://www.w3.org/Graphics/SVG/1.1/DTD/svg11.dtd">
<svg xmlns:xlink="http://www.w3.org/1999/xlink" width="460.8pt" height="345.6pt" viewBox="0 0 460.8 345.6" xmlns="http://www.w3.org/2000/svg" version="1.1">
 <metadata>
  <rdf:RDF xmlns:dc="http://purl.org/dc/elements/1.1/" xmlns:cc="http://creativecommons.org/ns#" xmlns:rdf="http://www.w3.org/1999/02/22-rdf-syntax-ns#">
   <cc:Work>
    <dc:type rdf:resource="http://purl.org/dc/dcmitype/StillImage"/>
    <dc:date>2025-02-18T14:50:01.920552</dc:date>
    <dc:format>image/svg+xml</dc:format>
    <dc:creator>
     <cc:Agent>
      <dc:title>Matplotlib v3.8.4, https://matplotlib.org/</dc:title>
     </cc:Agent>
    </dc:creator>
   </cc:Work>
  </rdf:RDF>
 </metadata>
 <defs>
  <style type="text/css">*{stroke-linejoin: round; stroke-linecap: butt}</style>
 </defs>
 <g id="figure_1">
  <g id="patch_1">
   <path d="M 0 345.6 
L 460.8 345.6 
L 460.8 0 
L 0 0 
z
" style="fill: #ffffff"/>
  </g>
  <g id="axes_1">
   <g id="patch_2">
    <path d="M 57.6 307.584 
L 414.72 307.584 
L 414.72 41.472 
L 57.6 41.472 
z
" style="fill: #ffffff"/>
   </g>
   <g id="matplotlib.axis_1">
    <g id="xtick_1">
     <g id="line2d_1">
      <defs>
       <path id="m9ae4262be4" d="M 0 0 
L 0 3.5 
" style="stroke: #000000; stroke-width: 0.8"/>
      </defs>
      <g>
       <use xlink:href="#m9ae4262be4" x="73.832727" y="307.584" style="stroke: #000000; stroke-width: 0.8"/>
      </g>
     </g>
     <g id="text_1">
      <!-- $\mathdefault{10^{0}}$ -->
      <g transform="translate(65.032727 322.182437) scale(0.1 -0.1)">
       <defs>
        <path id="DejaVuSans-31" d="M 794 531 
L 1825 531 
L 1825 4091 
L 703 3866 
L 703 4441 
L 1819 4666 
L 2450 4666 
L 2450 531 
L 3481 531 
L 3481 0 
L 794 0 
L 794 531 
z
" transform="scale(0.015625)"/>
        <path id="DejaVuSans-30" d="M 2034 4250 
Q 1547 4250 1301 3770 
Q 1056 3291 1056 2328 
Q 1056 1369 1301 889 
Q 1547 409 2034 409 
Q 2525 409 2770 889 
Q 3016 1369 3016 2328 
Q 3016 3291 2770 3770 
Q 2525 4250 2034 4250 
z
M 2034 4750 
Q 2819 4750 3233 4129 
Q 3647 3509 3647 2328 
Q 3647 1150 3233 529 
Q 2819 -91 2034 -91 
Q 1250 -91 836 529 
Q 422 1150 422 2328 
Q 422 3509 836 4129 
Q 1250 4750 2034 4750 
z
" transform="scale(0.015625)"/>
       </defs>
       <use xlink:href="#DejaVuSans-31" transform="translate(0 0.765625)"/>
       <use xlink:href="#DejaVuSans-30" transform="translate(63.623047 0.765625)"/>
       <use xlink:href="#DejaVuSans-30" transform="translate(128.203125 39.046875) scale(0.7)"/>
      </g>
     </g>
    </g>
    <g id="xtick_2">
     <g id="line2d_2">
      <g>
       <use xlink:href="#m9ae4262be4" x="149.078588" y="307.584" style="stroke: #000000; stroke-width: 0.8"/>
      </g>
     </g>
     <g id="text_2">
      <!-- $\mathdefault{10^{1}}$ -->
      <g transform="translate(140.278588 322.182437) scale(0.1 -0.1)">
       <use xlink:href="#DejaVuSans-31" transform="translate(0 0.684375)"/>
       <use xlink:href="#DejaVuSans-30" transform="translate(63.623047 0.684375)"/>
       <use xlink:href="#DejaVuSans-31" transform="translate(128.203125 38.965625) scale(0.7)"/>
      </g>
     </g>
    </g>
    <g id="xtick_3">
     <g id="line2d_3">
      <g>
       <use xlink:href="#m9ae4262be4" x="224.32445" y="307.584" style="stroke: #000000; stroke-width: 0.8"/>
      </g>
     </g>
     <g id="text_3">
      <!-- $\mathdefault{10^{2}}$ -->
      <g transform="translate(215.52445 322.182437) scale(0.1 -0.1)">
       <defs>
        <path id="DejaVuSans-32" d="M 1228 531 
L 3431 531 
L 3431 0 
L 469 0 
L 469 531 
Q 828 903 1448 1529 
Q 2069 2156 2228 2338 
Q 2531 2678 2651 2914 
Q 2772 3150 2772 3378 
Q 2772 3750 2511 3984 
Q 2250 4219 1831 4219 
Q 1534 4219 1204 4116 
Q 875 4013 500 3803 
L 500 4441 
Q 881 4594 1212 4672 
Q 1544 4750 1819 4750 
Q 2544 4750 2975 4387 
Q 3406 4025 3406 3419 
Q 3406 3131 3298 2873 
Q 3191 2616 2906 2266 
Q 2828 2175 2409 1742 
Q 1991 1309 1228 531 
z
" transform="scale(0.015625)"/>
       </defs>
       <use xlink:href="#DejaVuSans-31" transform="translate(0 0.765625)"/>
       <use xlink:href="#DejaVuSans-30" transform="translate(63.623047 0.765625)"/>
       <use xlink:href="#DejaVuSans-32" transform="translate(128.203125 39.046875) scale(0.7)"/>
      </g>
     </g>
    </g>
    <g id="xtick_4">
     <g id="line2d_4">
      <g>
       <use xlink:href="#m9ae4262be4" x="299.570311" y="307.584" style="stroke: #000000; stroke-width: 0.8"/>
      </g>
     </g>
     <g id="text_4">
      <!-- $\mathdefault{10^{3}}$ -->
      <g transform="translate(290.770311 322.182437) scale(0.1 -0.1)">
       <defs>
        <path id="DejaVuSans-33" d="M 2597 2516 
Q 3050 2419 3304 2112 
Q 3559 1806 3559 1356 
Q 3559 666 3084 287 
Q 2609 -91 1734 -91 
Q 1441 -91 1130 -33 
Q 819 25 488 141 
L 488 750 
Q 750 597 1062 519 
Q 1375 441 1716 441 
Q 2309 441 2620 675 
Q 2931 909 2931 1356 
Q 2931 1769 2642 2001 
Q 2353 2234 1838 2234 
L 1294 2234 
L 1294 2753 
L 1863 2753 
Q 2328 2753 2575 2939 
Q 2822 3125 2822 3475 
Q 2822 3834 2567 4026 
Q 2313 4219 1838 4219 
Q 1578 4219 1281 4162 
Q 984 4106 628 3988 
L 628 4550 
Q 988 4650 1302 4700 
Q 1616 4750 1894 4750 
Q 2613 4750 3031 4423 
Q 3450 4097 3450 3541 
Q 3450 3153 3228 2886 
Q 3006 2619 2597 2516 
z
" transform="scale(0.015625)"/>
       </defs>
       <use xlink:href="#DejaVuSans-31" transform="translate(0 0.765625)"/>
       <use xlink:href="#DejaVuSans-30" transform="translate(63.623047 0.765625)"/>
       <use xlink:href="#DejaVuSans-33" transform="translate(128.203125 39.046875) scale(0.7)"/>
      </g>
     </g>
    </g>
    <g id="xtick_5">
     <g id="line2d_5">
      <g>
       <use xlink:href="#m9ae4262be4" x="374.816172" y="307.584" style="stroke: #000000; stroke-width: 0.8"/>
      </g>
     </g>
     <g id="text_5">
      <!-- $\mathdefault{10^{4}}$ -->
      <g transform="translate(366.016172 322.182437) scale(0.1 -0.1)">
       <defs>
        <path id="DejaVuSans-34" d="M 2419 4116 
L 825 1625 
L 2419 1625 
L 2419 4116 
z
M 2253 4666 
L 3047 4666 
L 3047 1625 
L 3713 1625 
L 3713 1100 
L 3047 1100 
L 3047 0 
L 2419 0 
L 2419 1100 
L 313 1100 
L 313 1709 
L 2253 4666 
z
" transform="scale(0.015625)"/>
       </defs>
       <use xlink:href="#DejaVuSans-31" transform="translate(0 0.684375)"/>
       <use xlink:href="#DejaVuSans-30" transform="translate(63.623047 0.684375)"/>
       <use xlink:href="#DejaVuSans-34" transform="translate(128.203125 38.965625) scale(0.7)"/>
      </g>
     </g>
    </g>
    <g id="xtick_6">
     <g id="line2d_6">
      <defs>
       <path id="m4fe62d4f6c" d="M 0 0 
L 0 2 
" style="stroke: #000000; stroke-width: 0.6"/>
      </defs>
      <g>
       <use xlink:href="#m4fe62d4f6c" x="62.176996" y="307.584" style="stroke: #000000; stroke-width: 0.6"/>
      </g>
     </g>
    </g>
    <g id="xtick_7">
     <g id="line2d_7">
      <g>
       <use xlink:href="#m4fe62d4f6c" x="66.54065" y="307.584" style="stroke: #000000; stroke-width: 0.6"/>
      </g>
     </g>
    </g>
    <g id="xtick_8">
     <g id="line2d_8">
      <g>
       <use xlink:href="#m4fe62d4f6c" x="70.389665" y="307.584" style="stroke: #000000; stroke-width: 0.6"/>
      </g>
     </g>
    </g>
    <g id="xtick_9">
     <g id="line2d_9">
      <g>
       <use xlink:href="#m4fe62d4f6c" x="96.483989" y="307.584" style="stroke: #000000; stroke-width: 0.6"/>
      </g>
     </g>
    </g>
    <g id="xtick_10">
     <g id="line2d_10">
      <g>
       <use xlink:href="#m4fe62d4f6c" x="109.734127" y="307.584" style="stroke: #000000; stroke-width: 0.6"/>
      </g>
     </g>
    </g>
    <g id="xtick_11">
     <g id="line2d_11">
      <g>
       <use xlink:href="#m4fe62d4f6c" x="119.13525" y="307.584" style="stroke: #000000; stroke-width: 0.6"/>
      </g>
     </g>
    </g>
    <g id="xtick_12">
     <g id="line2d_12">
      <g>
       <use xlink:href="#m4fe62d4f6c" x="126.427327" y="307.584" style="stroke: #000000; stroke-width: 0.6"/>
      </g>
     </g>
    </g>
    <g id="xtick_13">
     <g id="line2d_13">
      <g>
       <use xlink:href="#m4fe62d4f6c" x="132.385388" y="307.584" style="stroke: #000000; stroke-width: 0.6"/>
      </g>
     </g>
    </g>
    <g id="xtick_14">
     <g id="line2d_14">
      <g>
       <use xlink:href="#m4fe62d4f6c" x="137.422857" y="307.584" style="stroke: #000000; stroke-width: 0.6"/>
      </g>
     </g>
    </g>
    <g id="xtick_15">
     <g id="line2d_15">
      <g>
       <use xlink:href="#m4fe62d4f6c" x="141.786511" y="307.584" style="stroke: #000000; stroke-width: 0.6"/>
      </g>
     </g>
    </g>
    <g id="xtick_16">
     <g id="line2d_16">
      <g>
       <use xlink:href="#m4fe62d4f6c" x="145.635527" y="307.584" style="stroke: #000000; stroke-width: 0.6"/>
      </g>
     </g>
    </g>
    <g id="xtick_17">
     <g id="line2d_17">
      <g>
       <use xlink:href="#m4fe62d4f6c" x="171.72985" y="307.584" style="stroke: #000000; stroke-width: 0.6"/>
      </g>
     </g>
    </g>
    <g id="xtick_18">
     <g id="line2d_18">
      <g>
       <use xlink:href="#m4fe62d4f6c" x="184.979988" y="307.584" style="stroke: #000000; stroke-width: 0.6"/>
      </g>
     </g>
    </g>
    <g id="xtick_19">
     <g id="line2d_19">
      <g>
       <use xlink:href="#m4fe62d4f6c" x="194.381111" y="307.584" style="stroke: #000000; stroke-width: 0.6"/>
      </g>
     </g>
    </g>
    <g id="xtick_20">
     <g id="line2d_20">
      <g>
       <use xlink:href="#m4fe62d4f6c" x="201.673188" y="307.584" style="stroke: #000000; stroke-width: 0.6"/>
      </g>
     </g>
    </g>
    <g id="xtick_21">
     <g id="line2d_21">
      <g>
       <use xlink:href="#m4fe62d4f6c" x="207.631249" y="307.584" style="stroke: #000000; stroke-width: 0.6"/>
      </g>
     </g>
    </g>
    <g id="xtick_22">
     <g id="line2d_22">
      <g>
       <use xlink:href="#m4fe62d4f6c" x="212.668718" y="307.584" style="stroke: #000000; stroke-width: 0.6"/>
      </g>
     </g>
    </g>
    <g id="xtick_23">
     <g id="line2d_23">
      <g>
       <use xlink:href="#m4fe62d4f6c" x="217.032372" y="307.584" style="stroke: #000000; stroke-width: 0.6"/>
      </g>
     </g>
    </g>
    <g id="xtick_24">
     <g id="line2d_24">
      <g>
       <use xlink:href="#m4fe62d4f6c" x="220.881388" y="307.584" style="stroke: #000000; stroke-width: 0.6"/>
      </g>
     </g>
    </g>
    <g id="xtick_25">
     <g id="line2d_25">
      <g>
       <use xlink:href="#m4fe62d4f6c" x="246.975711" y="307.584" style="stroke: #000000; stroke-width: 0.6"/>
      </g>
     </g>
    </g>
    <g id="xtick_26">
     <g id="line2d_26">
      <g>
       <use xlink:href="#m4fe62d4f6c" x="260.225849" y="307.584" style="stroke: #000000; stroke-width: 0.6"/>
      </g>
     </g>
    </g>
    <g id="xtick_27">
     <g id="line2d_27">
      <g>
       <use xlink:href="#m4fe62d4f6c" x="269.626972" y="307.584" style="stroke: #000000; stroke-width: 0.6"/>
      </g>
     </g>
    </g>
    <g id="xtick_28">
     <g id="line2d_28">
      <g>
       <use xlink:href="#m4fe62d4f6c" x="276.919049" y="307.584" style="stroke: #000000; stroke-width: 0.6"/>
      </g>
     </g>
    </g>
    <g id="xtick_29">
     <g id="line2d_29">
      <g>
       <use xlink:href="#m4fe62d4f6c" x="282.877111" y="307.584" style="stroke: #000000; stroke-width: 0.6"/>
      </g>
     </g>
    </g>
    <g id="xtick_30">
     <g id="line2d_30">
      <g>
       <use xlink:href="#m4fe62d4f6c" x="287.914579" y="307.584" style="stroke: #000000; stroke-width: 0.6"/>
      </g>
     </g>
    </g>
    <g id="xtick_31">
     <g id="line2d_31">
      <g>
       <use xlink:href="#m4fe62d4f6c" x="292.278233" y="307.584" style="stroke: #000000; stroke-width: 0.6"/>
      </g>
     </g>
    </g>
    <g id="xtick_32">
     <g id="line2d_32">
      <g>
       <use xlink:href="#m4fe62d4f6c" x="296.127249" y="307.584" style="stroke: #000000; stroke-width: 0.6"/>
      </g>
     </g>
    </g>
    <g id="xtick_33">
     <g id="line2d_33">
      <g>
       <use xlink:href="#m4fe62d4f6c" x="322.221572" y="307.584" style="stroke: #000000; stroke-width: 0.6"/>
      </g>
     </g>
    </g>
    <g id="xtick_34">
     <g id="line2d_34">
      <g>
       <use xlink:href="#m4fe62d4f6c" x="335.47171" y="307.584" style="stroke: #000000; stroke-width: 0.6"/>
      </g>
     </g>
    </g>
    <g id="xtick_35">
     <g id="line2d_35">
      <g>
       <use xlink:href="#m4fe62d4f6c" x="344.872833" y="307.584" style="stroke: #000000; stroke-width: 0.6"/>
      </g>
     </g>
    </g>
    <g id="xtick_36">
     <g id="line2d_36">
      <g>
       <use xlink:href="#m4fe62d4f6c" x="352.164911" y="307.584" style="stroke: #000000; stroke-width: 0.6"/>
      </g>
     </g>
    </g>
    <g id="xtick_37">
     <g id="line2d_37">
      <g>
       <use xlink:href="#m4fe62d4f6c" x="358.122972" y="307.584" style="stroke: #000000; stroke-width: 0.6"/>
      </g>
     </g>
    </g>
    <g id="xtick_38">
     <g id="line2d_38">
      <g>
       <use xlink:href="#m4fe62d4f6c" x="363.160441" y="307.584" style="stroke: #000000; stroke-width: 0.6"/>
      </g>
     </g>
    </g>
    <g id="xtick_39">
     <g id="line2d_39">
      <g>
       <use xlink:href="#m4fe62d4f6c" x="367.524095" y="307.584" style="stroke: #000000; stroke-width: 0.6"/>
      </g>
     </g>
    </g>
    <g id="xtick_40">
     <g id="line2d_40">
      <g>
       <use xlink:href="#m4fe62d4f6c" x="371.37311" y="307.584" style="stroke: #000000; stroke-width: 0.6"/>
      </g>
     </g>
    </g>
    <g id="xtick_41">
     <g id="line2d_41">
      <g>
       <use xlink:href="#m4fe62d4f6c" x="397.467433" y="307.584" style="stroke: #000000; stroke-width: 0.6"/>
      </g>
     </g>
    </g>
    <g id="xtick_42">
     <g id="line2d_42">
      <g>
       <use xlink:href="#m4fe62d4f6c" x="410.717572" y="307.584" style="stroke: #000000; stroke-width: 0.6"/>
      </g>
     </g>
    </g>
    <g id="text_6">
     <!-- iter# -->
     <g transform="translate(223.488906 335.860562) scale(0.1 -0.1)">
      <defs>
       <path id="DejaVuSans-69" d="M 603 3500 
L 1178 3500 
L 1178 0 
L 603 0 
L 603 3500 
z
M 603 4863 
L 1178 4863 
L 1178 4134 
L 603 4134 
L 603 4863 
z
" transform="scale(0.015625)"/>
       <path id="DejaVuSans-74" d="M 1172 4494 
L 1172 3500 
L 2356 3500 
L 2356 3053 
L 1172 3053 
L 1172 1153 
Q 1172 725 1289 603 
Q 1406 481 1766 481 
L 2356 481 
L 2356 0 
L 1766 0 
Q 1100 0 847 248 
Q 594 497 594 1153 
L 594 3053 
L 172 3053 
L 172 3500 
L 594 3500 
L 594 4494 
L 1172 4494 
z
" transform="scale(0.015625)"/>
       <path id="DejaVuSans-65" d="M 3597 1894 
L 3597 1613 
L 953 1613 
Q 991 1019 1311 708 
Q 1631 397 2203 397 
Q 2534 397 2845 478 
Q 3156 559 3463 722 
L 3463 178 
Q 3153 47 2828 -22 
Q 2503 -91 2169 -91 
Q 1331 -91 842 396 
Q 353 884 353 1716 
Q 353 2575 817 3079 
Q 1281 3584 2069 3584 
Q 2775 3584 3186 3129 
Q 3597 2675 3597 1894 
z
M 3022 2063 
Q 3016 2534 2758 2815 
Q 2500 3097 2075 3097 
Q 1594 3097 1305 2825 
Q 1016 2553 972 2059 
L 3022 2063 
z
" transform="scale(0.015625)"/>
       <path id="DejaVuSans-72" d="M 2631 2963 
Q 2534 3019 2420 3045 
Q 2306 3072 2169 3072 
Q 1681 3072 1420 2755 
Q 1159 2438 1159 1844 
L 1159 0 
L 581 0 
L 581 3500 
L 1159 3500 
L 1159 2956 
Q 1341 3275 1631 3429 
Q 1922 3584 2338 3584 
Q 2397 3584 2469 3576 
Q 2541 3569 2628 3553 
L 2631 2963 
z
" transform="scale(0.015625)"/>
       <path id="DejaVuSans-23" d="M 3272 2816 
L 2363 2816 
L 2100 1772 
L 3016 1772 
L 3272 2816 
z
M 2803 4594 
L 2478 3297 
L 3391 3297 
L 3719 4594 
L 4219 4594 
L 3897 3297 
L 4872 3297 
L 4872 2816 
L 3775 2816 
L 3519 1772 
L 4513 1772 
L 4513 1294 
L 3397 1294 
L 3072 0 
L 2572 0 
L 2894 1294 
L 1978 1294 
L 1656 0 
L 1153 0 
L 1478 1294 
L 494 1294 
L 494 1772 
L 1594 1772 
L 1856 2816 
L 850 2816 
L 850 3297 
L 1978 3297 
L 2297 4594 
L 2803 4594 
z
" transform="scale(0.015625)"/>
      </defs>
      <use xlink:href="#DejaVuSans-69"/>
      <use xlink:href="#DejaVuSans-74" x="27.783203"/>
      <use xlink:href="#DejaVuSans-65" x="66.992188"/>
      <use xlink:href="#DejaVuSans-72" x="128.515625"/>
      <use xlink:href="#DejaVuSans-23" x="169.628906"/>
     </g>
    </g>
   </g>
   <g id="matplotlib.axis_2">
    <g id="ytick_1">
     <g id="line2d_43">
      <defs>
       <path id="mb825068b0b" d="M 0 0 
L -3.5 0 
" style="stroke: #000000; stroke-width: 0.8"/>
      </defs>
      <g>
       <use xlink:href="#mb825068b0b" x="57.6" y="282.323799" style="stroke: #000000; stroke-width: 0.8"/>
      </g>
     </g>
     <g id="text_7">
      <!-- $\mathdefault{10^{-2}}$ -->
      <g transform="translate(27.1 286.123018) scale(0.1 -0.1)">
       <defs>
        <path id="DejaVuSans-2212" d="M 678 2272 
L 4684 2272 
L 4684 1741 
L 678 1741 
L 678 2272 
z
" transform="scale(0.015625)"/>
       </defs>
       <use xlink:href="#DejaVuSans-31" transform="translate(0 0.765625)"/>
       <use xlink:href="#DejaVuSans-30" transform="translate(63.623047 0.765625)"/>
       <use xlink:href="#DejaVuSans-2212" transform="translate(128.203125 39.046875) scale(0.7)"/>
       <use xlink:href="#DejaVuSans-32" transform="translate(186.855469 39.046875) scale(0.7)"/>
      </g>
     </g>
    </g>
    <g id="ytick_2">
     <g id="line2d_44">
      <g>
       <use xlink:href="#mb825068b0b" x="57.6" y="210.378893" style="stroke: #000000; stroke-width: 0.8"/>
      </g>
     </g>
     <g id="text_8">
      <!-- $\mathdefault{10^{-1}}$ -->
      <g transform="translate(27.1 214.178112) scale(0.1 -0.1)">
       <use xlink:href="#DejaVuSans-31" transform="translate(0 0.684375)"/>
       <use xlink:href="#DejaVuSans-30" transform="translate(63.623047 0.684375)"/>
       <use xlink:href="#DejaVuSans-2212" transform="translate(128.203125 38.965625) scale(0.7)"/>
       <use xlink:href="#DejaVuSans-31" transform="translate(186.855469 38.965625) scale(0.7)"/>
      </g>
     </g>
    </g>
    <g id="ytick_3">
     <g id="line2d_45">
      <g>
       <use xlink:href="#mb825068b0b" x="57.6" y="138.433988" style="stroke: #000000; stroke-width: 0.8"/>
      </g>
     </g>
     <g id="text_9">
      <!-- $\mathdefault{10^{0}}$ -->
      <g transform="translate(33 142.233206) scale(0.1 -0.1)">
       <use xlink:href="#DejaVuSans-31" transform="translate(0 0.765625)"/>
       <use xlink:href="#DejaVuSans-30" transform="translate(63.623047 0.765625)"/>
       <use xlink:href="#DejaVuSans-30" transform="translate(128.203125 39.046875) scale(0.7)"/>
      </g>
     </g>
    </g>
    <g id="ytick_4">
     <g id="line2d_46">
      <g>
       <use xlink:href="#mb825068b0b" x="57.6" y="66.489082" style="stroke: #000000; stroke-width: 0.8"/>
      </g>
     </g>
     <g id="text_10">
      <!-- $\mathdefault{10^{1}}$ -->
      <g transform="translate(33 70.288301) scale(0.1 -0.1)">
       <use xlink:href="#DejaVuSans-31" transform="translate(0 0.684375)"/>
       <use xlink:href="#DejaVuSans-30" transform="translate(63.623047 0.684375)"/>
       <use xlink:href="#DejaVuSans-31" transform="translate(128.203125 38.965625) scale(0.7)"/>
      </g>
     </g>
    </g>
    <g id="ytick_5">
     <g id="line2d_47">
      <defs>
       <path id="mb5df0e5e3a" d="M 0 0 
L -2 0 
" style="stroke: #000000; stroke-width: 0.6"/>
      </defs>
      <g>
       <use xlink:href="#mb5df0e5e3a" x="57.6" y="303.981373" style="stroke: #000000; stroke-width: 0.6"/>
      </g>
     </g>
    </g>
    <g id="ytick_6">
     <g id="line2d_48">
      <g>
       <use xlink:href="#mb5df0e5e3a" x="57.6" y="298.284686" style="stroke: #000000; stroke-width: 0.6"/>
      </g>
     </g>
    </g>
    <g id="ytick_7">
     <g id="line2d_49">
      <g>
       <use xlink:href="#mb5df0e5e3a" x="57.6" y="293.468206" style="stroke: #000000; stroke-width: 0.6"/>
      </g>
     </g>
    </g>
    <g id="ytick_8">
     <g id="line2d_50">
      <g>
       <use xlink:href="#mb5df0e5e3a" x="57.6" y="289.29598" style="stroke: #000000; stroke-width: 0.6"/>
      </g>
     </g>
    </g>
    <g id="ytick_9">
     <g id="line2d_51">
      <g>
       <use xlink:href="#mb5df0e5e3a" x="57.6" y="285.615817" style="stroke: #000000; stroke-width: 0.6"/>
      </g>
     </g>
    </g>
    <g id="ytick_10">
     <g id="line2d_52">
      <g>
       <use xlink:href="#mb5df0e5e3a" x="57.6" y="260.666224" style="stroke: #000000; stroke-width: 0.6"/>
      </g>
     </g>
    </g>
    <g id="ytick_11">
     <g id="line2d_53">
      <g>
       <use xlink:href="#mb5df0e5e3a" x="57.6" y="247.997355" style="stroke: #000000; stroke-width: 0.6"/>
      </g>
     </g>
    </g>
    <g id="ytick_12">
     <g id="line2d_54">
      <g>
       <use xlink:href="#mb5df0e5e3a" x="57.6" y="239.00865" style="stroke: #000000; stroke-width: 0.6"/>
      </g>
     </g>
    </g>
    <g id="ytick_13">
     <g id="line2d_55">
      <g>
       <use xlink:href="#mb5df0e5e3a" x="57.6" y="232.036468" style="stroke: #000000; stroke-width: 0.6"/>
      </g>
     </g>
    </g>
    <g id="ytick_14">
     <g id="line2d_56">
      <g>
       <use xlink:href="#mb5df0e5e3a" x="57.6" y="226.339781" style="stroke: #000000; stroke-width: 0.6"/>
      </g>
     </g>
    </g>
    <g id="ytick_15">
     <g id="line2d_57">
      <g>
       <use xlink:href="#mb5df0e5e3a" x="57.6" y="221.5233" style="stroke: #000000; stroke-width: 0.6"/>
      </g>
     </g>
    </g>
    <g id="ytick_16">
     <g id="line2d_58">
      <g>
       <use xlink:href="#mb5df0e5e3a" x="57.6" y="217.351075" style="stroke: #000000; stroke-width: 0.6"/>
      </g>
     </g>
    </g>
    <g id="ytick_17">
     <g id="line2d_59">
      <g>
       <use xlink:href="#mb5df0e5e3a" x="57.6" y="213.670912" style="stroke: #000000; stroke-width: 0.6"/>
      </g>
     </g>
    </g>
    <g id="ytick_18">
     <g id="line2d_60">
      <g>
       <use xlink:href="#mb5df0e5e3a" x="57.6" y="188.721319" style="stroke: #000000; stroke-width: 0.6"/>
      </g>
     </g>
    </g>
    <g id="ytick_19">
     <g id="line2d_61">
      <g>
       <use xlink:href="#mb5df0e5e3a" x="57.6" y="176.05245" style="stroke: #000000; stroke-width: 0.6"/>
      </g>
     </g>
    </g>
    <g id="ytick_20">
     <g id="line2d_62">
      <g>
       <use xlink:href="#mb5df0e5e3a" x="57.6" y="167.063744" style="stroke: #000000; stroke-width: 0.6"/>
      </g>
     </g>
    </g>
    <g id="ytick_21">
     <g id="line2d_63">
      <g>
       <use xlink:href="#mb5df0e5e3a" x="57.6" y="160.091562" style="stroke: #000000; stroke-width: 0.6"/>
      </g>
     </g>
    </g>
    <g id="ytick_22">
     <g id="line2d_64">
      <g>
       <use xlink:href="#mb5df0e5e3a" x="57.6" y="154.394875" style="stroke: #000000; stroke-width: 0.6"/>
      </g>
     </g>
    </g>
    <g id="ytick_23">
     <g id="line2d_65">
      <g>
       <use xlink:href="#mb5df0e5e3a" x="57.6" y="149.578395" style="stroke: #000000; stroke-width: 0.6"/>
      </g>
     </g>
    </g>
    <g id="ytick_24">
     <g id="line2d_66">
      <g>
       <use xlink:href="#mb5df0e5e3a" x="57.6" y="145.406169" style="stroke: #000000; stroke-width: 0.6"/>
      </g>
     </g>
    </g>
    <g id="ytick_25">
     <g id="line2d_67">
      <g>
       <use xlink:href="#mb5df0e5e3a" x="57.6" y="141.726006" style="stroke: #000000; stroke-width: 0.6"/>
      </g>
     </g>
    </g>
    <g id="ytick_26">
     <g id="line2d_68">
      <g>
       <use xlink:href="#mb5df0e5e3a" x="57.6" y="116.776413" style="stroke: #000000; stroke-width: 0.6"/>
      </g>
     </g>
    </g>
    <g id="ytick_27">
     <g id="line2d_69">
      <g>
       <use xlink:href="#mb5df0e5e3a" x="57.6" y="104.107544" style="stroke: #000000; stroke-width: 0.6"/>
      </g>
     </g>
    </g>
    <g id="ytick_28">
     <g id="line2d_70">
      <g>
       <use xlink:href="#mb5df0e5e3a" x="57.6" y="95.118838" style="stroke: #000000; stroke-width: 0.6"/>
      </g>
     </g>
    </g>
    <g id="ytick_29">
     <g id="line2d_71">
      <g>
       <use xlink:href="#mb5df0e5e3a" x="57.6" y="88.146657" style="stroke: #000000; stroke-width: 0.6"/>
      </g>
     </g>
    </g>
    <g id="ytick_30">
     <g id="line2d_72">
      <g>
       <use xlink:href="#mb5df0e5e3a" x="57.6" y="82.449969" style="stroke: #000000; stroke-width: 0.6"/>
      </g>
     </g>
    </g>
    <g id="ytick_31">
     <g id="line2d_73">
      <g>
       <use xlink:href="#mb5df0e5e3a" x="57.6" y="77.633489" style="stroke: #000000; stroke-width: 0.6"/>
      </g>
     </g>
    </g>
    <g id="ytick_32">
     <g id="line2d_74">
      <g>
       <use xlink:href="#mb5df0e5e3a" x="57.6" y="73.461264" style="stroke: #000000; stroke-width: 0.6"/>
      </g>
     </g>
    </g>
    <g id="ytick_33">
     <g id="line2d_75">
      <g>
       <use xlink:href="#mb5df0e5e3a" x="57.6" y="69.7811" style="stroke: #000000; stroke-width: 0.6"/>
      </g>
     </g>
    </g>
    <g id="ytick_34">
     <g id="line2d_76">
      <g>
       <use xlink:href="#mb5df0e5e3a" x="57.6" y="44.831507" style="stroke: #000000; stroke-width: 0.6"/>
      </g>
     </g>
    </g>
    <g id="text_11">
     <!-- loss -->
     <g transform="translate(21.020313 184.185812) rotate(-90) scale(0.1 -0.1)">
      <defs>
       <path id="DejaVuSans-6c" d="M 603 4863 
L 1178 4863 
L 1178 0 
L 603 0 
L 603 4863 
z
" transform="scale(0.015625)"/>
       <path id="DejaVuSans-6f" d="M 1959 3097 
Q 1497 3097 1228 2736 
Q 959 2375 959 1747 
Q 959 1119 1226 758 
Q 1494 397 1959 397 
Q 2419 397 2687 759 
Q 2956 1122 2956 1747 
Q 2956 2369 2687 2733 
Q 2419 3097 1959 3097 
z
M 1959 3584 
Q 2709 3584 3137 3096 
Q 3566 2609 3566 1747 
Q 3566 888 3137 398 
Q 2709 -91 1959 -91 
Q 1206 -91 779 398 
Q 353 888 353 1747 
Q 353 2609 779 3096 
Q 1206 3584 1959 3584 
z
" transform="scale(0.015625)"/>
       <path id="DejaVuSans-73" d="M 2834 3397 
L 2834 2853 
Q 2591 2978 2328 3040 
Q 2066 3103 1784 3103 
Q 1356 3103 1142 2972 
Q 928 2841 928 2578 
Q 928 2378 1081 2264 
Q 1234 2150 1697 2047 
L 1894 2003 
Q 2506 1872 2764 1633 
Q 3022 1394 3022 966 
Q 3022 478 2636 193 
Q 2250 -91 1575 -91 
Q 1294 -91 989 -36 
Q 684 19 347 128 
L 347 722 
Q 666 556 975 473 
Q 1284 391 1588 391 
Q 1994 391 2212 530 
Q 2431 669 2431 922 
Q 2431 1156 2273 1281 
Q 2116 1406 1581 1522 
L 1381 1569 
Q 847 1681 609 1914 
Q 372 2147 372 2553 
Q 372 3047 722 3315 
Q 1072 3584 1716 3584 
Q 2034 3584 2315 3537 
Q 2597 3491 2834 3397 
z
" transform="scale(0.015625)"/>
      </defs>
      <use xlink:href="#DejaVuSans-6c"/>
      <use xlink:href="#DejaVuSans-6f" x="27.783203"/>
      <use xlink:href="#DejaVuSans-73" x="88.964844"/>
      <use xlink:href="#DejaVuSans-73" x="141.064453"/>
     </g>
    </g>
   </g>
   <g id="line2d_77">
    <path d="M 73.832727 53.568 
L 210.246954 86.542281 
L 232.645868 110.84419 
L 245.811455 131.033217 
L 255.17022 148.381912 
L 262.436857 164.863179 
L 268.377946 181.004791 
L 273.403287 193.529958 
L 277.757842 203.785456 
L 281.599779 207.53305 
L 285.037177 215.233129 
L 288.14717 216.85701 
L 290.98674 220.081919 
L 293.599176 225.678578 
L 296.018137 215.499662 
L 298.270317 222.397333 
L 300.377237 225.864556 
L 302.356505 218.430939 
L 304.22271 228.219013 
L 305.988074 230.785029 
L 307.662938 223.907506 
L 309.25613 232.292158 
L 310.775247 237.405746 
L 312.226871 224.837799 
L 313.616747 228.642639 
L 314.949913 217.728448 
L 316.230816 228.058269 
L 317.4634 213.095863 
L 318.651178 215.965376 
L 319.797294 222.570739 
L 320.904571 217.16291 
L 321.975557 220.621683 
L 323.012554 221.272723 
L 323.282563 229.728176 
L 324.279517 239.10203 
L 325.246954 245.510564 
L 326.186573 249.405238 
L 327.099928 251.536484 
L 327.988448 252.526142 
L 328.853448 253.268507 
L 329.696141 252.871325 
L 330.517648 253.218486 
L 331.319009 253.198078 
L 334.341301 253.959154 
L 340.265516 254.008414 
L 340.862066 254.078802 
L 341.447921 253.7321 
L 342.589034 254.394805 
L 343.144988 254.577038 
L 343.691641 254.006823 
L 345.278787 253.926248 
L 345.925914 254.244815 
L 346.428314 253.469036 
L 346.923106 253.275062 
L 347.410518 248.839428 
L 347.890767 249.885441 
L 348.364061 251.519386 
L 348.830597 250.494707 
L 349.744152 251.865343 
L 350.632861 254.231981 
L 351.068313 252.908023 
L 351.922188 255.271032 
L 352.340902 255.373292 
L 352.754318 255.305605 
L 353.16257 254.312365 
L 353.565785 254.966241 
L 353.964085 252.625451 
L 354.357589 254.320884 
L 354.74641 255.054962 
L 355.13066 255.059576 
L 355.510444 255.962027 
L 355.885865 255.338066 
L 356.257022 255.664621 
L 356.986924 252.174605 
L 357.345851 253.19958 
L 357.700879 256.211069 
L 358.052091 256.881991 
L 358.399568 253.213162 
L 358.74339 253.933133 
L 359.173416 239.845164 
L 359.509232 246.522122 
L 359.841633 246.536303 
L 360.170687 252.211995 
L 360.49646 245.95677 
L 360.819018 248.068275 
L 361.138423 248.781882 
L 361.454736 250.764071 
L 361.768017 254.51279 
L 362.078323 256.636876 
L 362.38571 255.005488 
L 362.690233 257.157818 
L 362.991944 255.128443 
L 363.290895 258.726246 
L 363.587136 258.886793 
L 363.880716 255.63024 
L 364.460079 260.999483 
L 364.745954 261.338936 
L 365.02935 256.805593 
L 365.310309 261.204516 
L 365.865083 262.062074 
L 366.679975 257.239687 
L 366.947151 256.173971 
L 367.212161 259.866558 
L 367.475039 250.105973 
L 367.73582 250.334991 
L 367.994536 254.393455 
L 368.251219 246.900875 
L 368.505902 253.065383 
L 368.57322 235.427227 
L 368.825416 224.109307 
L 369.324042 238.490238 
L 370.058 253.923323 
L 370.538304 258.586457 
L 370.775834 259.184729 
L 371.011651 254.349098 
L 371.245778 258.416174 
L 371.478239 248.339348 
L 371.709059 254.518369 
L 371.93826 255.64141 
L 372.391894 263.434336 
L 372.616371 265.289188 
L 372.839317 263.914277 
L 373.060752 260.761315 
L 373.280697 263.769668 
L 373.499171 259.620807 
L 373.716195 258.146862 
L 373.931786 253.328566 
L 374.358749 265.450028 
L 374.570157 265.679131 
L 374.780205 267.325929 
L 374.988913 267.999865 
L 375.196295 265.622981 
L 375.40237 265.813017 
L 375.607154 259.468056 
L 375.864506 263.806819 
L 376.066423 263.565175 
L 376.2671 260.395672 
L 376.466552 263.291023 
L 377.057706 275.408846 
L 377.445951 251.943001 
L 377.638357 254.765741 
L 377.829636 244.526563 
L 378.208869 264.391554 
L 378.396848 269.702787 
L 378.583752 268.797105 
L 378.769593 270.355112 
L 378.954383 243.721415 
L 379.138134 249.156993 
L 379.502565 264.184395 
L 379.683267 246.727911 
L 379.862976 249.756074 
L 380.219456 259.369946 
L 380.396248 251.52824 
L 380.572089 254.778916 
L 380.746989 251.490598 
L 380.920958 255.842293 
L 381.266141 246.602753 
L 381.437375 245.246201 
L 381.82204 264.517839 
L 381.990393 260.289064 
L 382.157883 261.815956 
L 382.32452 258.403586 
L 382.655265 220.280192 
L 382.81939 223.715887 
L 383.145189 248.618504 
L 383.627876 265.540025 
L 383.787201 265.52047 
L 383.945752 240.819663 
L 384.103538 246.916012 
L 384.260566 225.422133 
L 384.416842 223.61386 
L 384.572375 232.417882 
L 384.727171 232.175075 
L 384.881238 241.30876 
L 385.034581 213.380133 
L 385.339126 243.418804 
L 385.490341 243.877183 
L 385.640859 255.311403 
L 385.790687 251.064005 
L 385.939832 262.224208 
L 386.088298 250.932965 
L 386.383223 267.616648 
L 386.529694 260.543364 
L 386.675511 266.719929 
L 386.82068 225.271282 
L 386.859132 227.261017 
L 387.290305 256.270774 
L 387.715863 270.158485 
L 388.274789 279.419441 
L 388.824315 284.880923 
L 390.027969 292.033911 
L 391.18886 295.488 
L 391.222503 288.970041 
L 391.348852 212.805546 
L 391.474714 214.486877 
L 391.600093 214.29786 
L 391.724993 216.620768 
L 392.219873 240.357919 
L 392.342431 230.268182 
L 392.707371 253.239247 
L 392.828117 248.228081 
L 392.948419 249.043628 
L 393.06828 249.013026 
L 393.187703 252.311572 
L 393.306691 239.611228 
L 393.543374 251.713629 
L 393.661076 257.240838 
L 394.01166 250.906571 
L 394.127691 255.572168 
L 394.243311 248.36525 
L 394.473331 226.141542 
L 394.587736 222.710635 
L 394.701743 224.002637 
L 395.041395 243.635854 
L 395.071299 238.257634 
L 395.407152 267.232719 
L 395.629151 273.824145 
L 395.959348 277.003613 
L 396.286241 278.257674 
L 396.394483 278.286842 
L 396.717074 278.91012 
L 396.8239 278.875297 
L 397.247748 279.649027 
L 397.457628 279.93524 
L 397.562065 279.614624 
L 397.873387 280.216333 
L 398.0793 280.23306 
L 398.283923 280.648963 
L 398.385756 280.687324 
L 398.487273 280.542523 
L 398.487273 280.542523 
" clip-path="url(#p0723539061)" style="fill: none; stroke: #1f77b4; stroke-opacity: 0.4; stroke-linecap: square"/>
   </g>
   <g id="line2d_78">
    <path d="M 73.832727 123.659117 
L 210.246954 148.221386 
L 232.645868 162.405185 
L 245.811455 171.886243 
L 255.17022 180.379284 
L 262.436857 189.315895 
L 268.377946 194.840729 
L 273.403287 195.50836 
L 277.757842 198.045348 
L 281.599779 201.144438 
L 285.037177 199.839696 
L 288.14717 206.992464 
L 290.98674 208.298109 
L 293.599176 214.975172 
L 296.018137 218.316154 
L 298.270317 211.355349 
L 300.377237 213.983735 
L 302.356505 217.629788 
L 304.22271 219.954332 
L 305.988074 219.949482 
L 307.662938 208.363518 
L 309.25613 207.608892 
L 310.775247 214.375996 
L 312.226871 214.521614 
L 313.616747 219.371322 
L 314.949913 217.74486 
L 316.230816 223.234579 
L 317.4634 195.183066 
L 318.651178 208.76269 
L 319.797294 213.688482 
L 321.975557 225.982127 
L 323.012554 230.700783 
L 323.282563 233.693897 
L 324.279517 236.928852 
L 325.246954 239.001857 
L 326.186573 240.246556 
L 327.099928 240.966513 
L 327.988448 241.313623 
L 328.853448 241.424533 
L 330.517648 242.104062 
L 333.611527 242.620298 
L 339.038717 243.267751 
L 340.265516 243.398538 
L 343.144988 243.715525 
L 344.2293 243.776671 
L 344.758257 243.707333 
L 345.278787 243.889845 
L 345.791156 243.796473 
L 345.925914 243.563071 
L 346.428314 243.753788 
L 346.923106 244.115467 
L 347.410518 243.924862 
L 347.890767 243.14753 
L 348.364061 243.988844 
L 348.830597 244.322246 
L 349.290567 244.509706 
L 349.744152 244.448563 
L 350.191527 244.83231 
L 351.068313 244.787423 
L 351.498039 245.134475 
L 351.922188 245.038776 
L 353.16257 245.959473 
L 353.565785 245.941927 
L 354.357589 245.664998 
L 354.74641 245.573163 
L 355.510444 246.188379 
L 355.885865 246.269201 
L 356.257022 246.479493 
L 356.624011 245.826202 
L 356.986924 245.675033 
L 357.345851 246.443588 
L 358.052091 246.957217 
L 358.399568 246.520351 
L 358.74339 246.809811 
L 359.083631 246.815164 
L 359.173416 246.540736 
L 359.509232 246.673683 
L 359.841633 247.057157 
L 360.170687 245.739904 
L 360.819018 246.97852 
L 361.138423 247.085292 
L 361.454736 247.314794 
L 361.768017 247.699674 
L 362.078323 246.944563 
L 362.38571 247.783856 
L 362.690233 248.155582 
L 362.991944 248.219575 
L 363.290895 246.810171 
L 363.587136 246.001922 
L 364.171682 247.858529 
L 364.460079 248.168819 
L 364.745954 248.72252 
L 365.02935 248.608463 
L 365.310309 248.120051 
L 365.588873 245.167988 
L 365.865083 247.462622 
L 366.138978 246.455851 
L 366.679975 248.919577 
L 366.947151 247.203094 
L 367.212161 247.28864 
L 367.475039 247.551491 
L 368.505902 250.189081 
L 368.825416 248.606817 
L 369.07568 248.576173 
L 369.324042 249.594873 
L 369.570531 248.702624 
L 369.815174 249.45236 
L 370.058 249.445042 
L 370.299034 250.313578 
L 370.775834 249.201423 
L 371.245778 251.305087 
L 371.478239 251.930054 
L 371.709059 251.976552 
L 371.93826 249.733189 
L 372.165864 250.321956 
L 372.391894 250.147833 
L 372.616371 249.438742 
L 372.839317 250.90184 
L 373.060752 249.282042 
L 373.280697 250.909638 
L 373.499171 243.478806 
L 373.931786 249.02976 
L 374.145965 248.206546 
L 374.358749 248.533766 
L 374.570157 250.585515 
L 374.988913 251.828038 
L 375.196295 252.155972 
L 375.40237 252.968104 
L 375.810662 253.437256 
L 375.864506 253.872782 
L 376.066423 251.2802 
L 376.2671 244.766517 
L 376.466552 243.613683 
L 376.861841 250.07289 
L 377.057706 251.878355 
L 377.252405 249.701042 
L 377.638357 253.077051 
L 377.829636 248.975489 
L 378.208869 253.486213 
L 378.396848 244.048245 
L 378.583752 248.338925 
L 378.769593 246.7742 
L 378.954383 244.184431 
L 379.138134 245.755167 
L 379.320857 249.274708 
L 379.683267 251.000564 
L 379.862976 249.78821 
L 380.041702 251.869256 
L 380.219456 249.455208 
L 380.396248 248.659741 
L 380.572089 252.344482 
L 380.746989 253.561914 
L 380.920958 251.303932 
L 381.094005 245.363065 
L 381.266141 245.618691 
L 381.607717 253.07539 
L 381.777175 250.378443 
L 381.82204 252.583101 
L 382.157883 254.369686 
L 382.32452 254.320073 
L 382.655265 256.710184 
L 382.81939 255.8485 
L 382.982695 256.159282 
L 383.145189 255.705652 
L 383.306878 255.892297 
L 383.467771 256.357284 
L 383.627876 256.395603 
L 383.945752 253.585717 
L 384.103538 255.339516 
L 384.260566 255.464456 
L 384.416842 254.787077 
L 384.572375 255.553329 
L 384.881238 253.236717 
L 385.034581 254.740275 
L 385.187208 252.827773 
L 385.339126 253.400604 
L 385.490341 252.976891 
L 385.640859 254.899651 
L 385.939832 250.091283 
L 386.088298 245.060338 
L 386.236094 250.760636 
L 386.383223 251.438892 
L 386.529694 250.134065 
L 386.859132 256.62583 
L 387.003489 256.868782 
L 387.147212 255.125922 
L 387.290305 255.574425 
L 387.432775 256.738338 
L 387.574626 253.791816 
L 387.715863 241.769217 
L 387.856493 246.095459 
L 387.996521 245.036257 
L 388.135951 249.548163 
L 388.274789 246.693701 
L 388.550707 253.553196 
L 388.687797 238.5891 
L 388.824315 245.816758 
L 388.960264 245.247392 
L 389.230479 252.578669 
L 389.364753 253.462768 
L 389.498477 255.734461 
L 389.631657 255.807307 
L 389.764295 253.126721 
L 390.159012 258.65002 
L 390.289532 256.561191 
L 390.419533 256.525091 
L 390.549018 254.561729 
L 390.934425 257.583984 
L 391.06189 254.919544 
L 391.18886 255.335892 
L 391.222503 257.459961 
L 391.474714 257.389456 
L 391.600093 258.879696 
L 391.724993 258.316983 
L 391.849418 258.919835 
L 391.97337 251.579269 
L 392.096854 256.233413 
L 392.219873 253.796398 
L 392.586177 257.260359 
L 392.828117 256.34753 
L 392.948419 258.644022 
L 393.187703 249.60118 
L 393.425247 257.377155 
L 393.543374 243.713298 
L 393.895217 256.531444 
L 394.01166 257.570826 
L 394.127691 257.283532 
L 394.243311 258.692125 
L 394.358523 257.99177 
L 394.473331 239.976783 
L 394.587736 242.864807 
L 394.701743 242.871021 
L 394.92857 254.036322 
L 395.041395 253.291225 
L 395.071299 241.891364 
L 395.295584 251.335662 
L 395.407152 250.15808 
L 395.51834 250.788515 
L 395.739588 257.657997 
L 395.849652 257.802087 
L 395.959348 257.307005 
L 396.068676 253.184069 
L 396.17764 254.211118 
L 396.286241 240.867715 
L 396.502367 252.031636 
L 396.609897 249.181271 
L 396.8239 257.1912 
L 396.930379 258.441722 
L 397.036511 258.10932 
L 397.1423 258.87711 
L 397.247748 258.248783 
L 397.457628 251.163388 
L 397.562065 254.320593 
L 397.666169 252.094283 
L 397.976505 259.152121 
L 398.0793 259.450061 
L 398.283923 256.812807 
L 398.385756 257.135412 
L 398.487273 257.274706 
L 398.487273 257.274706 
" clip-path="url(#p0723539061)" style="fill: none; stroke: #ff7f0e; stroke-opacity: 0.4; stroke-linecap: square"/>
   </g>
   <g id="line2d_79">
    <path d="M 73.832727 124.890754 
L 210.246954 148.997589 
L 232.645868 164.987462 
L 245.811455 176.479013 
L 255.17022 179.540696 
L 262.436857 191.762286 
L 268.377946 197.158582 
L 273.403287 205.293951 
L 277.757842 211.273034 
L 281.599779 210.70901 
L 285.037177 210.631095 
L 288.14717 211.773181 
L 290.98674 210.827407 
L 293.599176 216.154297 
L 296.018137 218.088908 
L 298.270317 222.08681 
L 300.377237 220.612185 
L 302.356505 221.484824 
L 304.22271 204.884528 
L 305.988074 205.822376 
L 307.662938 210.500431 
L 309.25613 215.764351 
L 310.775247 219.394596 
L 312.226871 207.997613 
L 313.616747 218.768334 
L 314.949913 221.119991 
L 316.230816 220.562987 
L 317.4634 228.086584 
L 319.797294 212.852255 
L 320.904571 215.318941 
L 321.975557 224.187698 
L 324.279517 238.12443 
L 325.246954 241.668465 
L 326.186573 243.901424 
L 327.099928 245.233665 
L 327.988448 246.160689 
L 328.853448 246.8047 
L 330.517648 247.559538 
L 332.865082 248.418436 
L 334.341301 248.744132 
L 335.753707 249.122818 
L 339.038717 249.580055 
L 342.023458 249.871915 
L 343.691641 250.078372 
L 344.2293 250.026826 
L 345.278787 250.277485 
L 345.791156 250.146265 
L 345.925914 249.441978 
L 346.428314 249.595379 
L 346.923106 249.921583 
L 347.410518 250.027574 
L 347.890767 250.437285 
L 348.364061 249.735119 
L 349.290567 250.652295 
L 349.744152 251.294581 
L 350.191527 246.421606 
L 351.068313 250.185228 
L 351.498039 251.049027 
L 351.922188 250.088104 
L 352.340902 250.884712 
L 352.754318 250.386937 
L 353.16257 250.318399 
L 353.565785 251.871714 
L 353.964085 252.049685 
L 354.357589 247.846091 
L 354.74641 250.421195 
L 355.13066 248.635001 
L 355.885865 252.422359 
L 356.257022 252.693102 
L 356.624011 248.114639 
L 357.345851 252.253668 
L 357.700879 253.298921 
L 358.052091 252.357673 
L 358.399568 250.280353 
L 358.74339 251.908703 
L 359.083631 252.810893 
L 359.173416 253.369899 
L 359.841633 254.347345 
L 360.170687 253.769125 
L 360.49646 254.117151 
L 360.819018 254.764143 
L 361.138423 254.670766 
L 361.454736 253.762134 
L 361.768017 251.445789 
L 362.078323 253.498559 
L 362.38571 254.331582 
L 362.690233 252.342113 
L 362.991944 251.722613 
L 363.290895 253.986105 
L 363.587136 250.018347 
L 363.880716 252.445627 
L 364.171682 252.699431 
L 364.460079 254.662806 
L 365.310309 256.825091 
L 365.588873 256.404756 
L 365.865083 253.719093 
L 366.138978 254.485006 
L 366.410596 252.874494 
L 366.679975 254.241035 
L 366.947151 252.740852 
L 367.212161 250.519925 
L 367.475039 251.600017 
L 367.994536 255.318904 
L 368.251219 256.832667 
L 368.505902 256.334052 
L 368.57322 256.676231 
L 368.825416 250.022919 
L 369.07568 253.790994 
L 369.324042 254.226827 
L 369.570531 253.514591 
L 369.815174 254.801983 
L 370.058 254.244802 
L 370.299034 256.314248 
L 370.538304 251.310754 
L 370.775834 255.206242 
L 371.011651 248.991162 
L 371.478239 256.217686 
L 372.391894 259.502505 
L 372.616371 258.822091 
L 372.839317 259.233432 
L 373.060752 257.664027 
L 373.280697 251.387578 
L 373.716195 257.191042 
L 373.931786 257.696169 
L 374.145965 257.566356 
L 374.358749 253.554181 
L 374.780205 258.290304 
L 374.988913 258.02262 
L 375.196295 256.207668 
L 375.40237 258.49619 
L 375.607154 255.369758 
L 375.810662 255.307607 
L 375.864506 250.551327 
L 376.066423 256.04965 
L 376.466552 260.533228 
L 376.664794 260.151205 
L 376.861841 261.230959 
L 377.057706 261.323558 
L 377.252405 253.158929 
L 377.638357 258.067926 
L 377.829636 260.060661 
L 378.019803 257.45686 
L 378.208869 258.019233 
L 378.396848 258.045033 
L 378.583752 257.752175 
L 378.769593 260.346269 
L 378.954383 260.979942 
L 379.320857 261.170551 
L 380.041702 263.467959 
L 380.219456 257.35689 
L 380.396248 260.119972 
L 380.746989 262.081611 
L 380.920958 260.323214 
L 381.094005 256.686275 
L 381.266141 259.549964 
L 381.437375 257.673784 
L 381.607717 260.376271 
L 381.777175 260.716501 
L 381.82204 255.989526 
L 381.990393 252.390656 
L 382.157883 253.131052 
L 382.32452 257.126896 
L 382.490311 250.615521 
L 382.655265 252.259825 
L 382.81939 247.722256 
L 382.982695 254.092632 
L 383.145189 255.684084 
L 383.306878 249.388559 
L 383.467771 253.100203 
L 383.627876 250.926783 
L 383.945752 259.317863 
L 384.103538 258.07208 
L 384.260566 252.753424 
L 384.572375 257.751489 
L 384.727171 251.446811 
L 384.881238 236.6986 
L 385.034581 244.71573 
L 385.187208 242.910422 
L 385.339126 250.528682 
L 385.490341 248.543957 
L 386.236094 262.232176 
L 386.383223 263.230455 
L 386.529694 260.562356 
L 386.675511 262.655415 
L 386.859132 257.928927 
L 387.147212 263.82051 
L 387.290305 265.325106 
L 387.432775 265.644774 
L 387.574626 264.126363 
L 387.856493 265.514653 
L 388.135951 266.558559 
L 388.413039 266.205648 
L 388.550707 265.14646 
L 388.687797 265.313042 
L 388.824315 263.763947 
L 388.960264 265.553097 
L 389.095651 264.772966 
L 389.364753 266.792496 
L 389.631657 265.167375 
L 389.896398 266.712331 
L 390.027969 260.334946 
L 390.159012 263.361638 
L 390.289532 262.200608 
L 390.419533 263.993791 
L 390.549018 264.125273 
L 390.677993 261.126331 
L 390.80646 263.494491 
L 390.934425 263.373175 
L 391.06189 264.233903 
L 391.348852 253.243411 
L 391.724993 261.103981 
L 391.849418 261.977572 
L 391.97337 255.507194 
L 392.219873 259.388824 
L 392.342431 257.901323 
L 392.464531 254.976424 
L 392.586177 255.090023 
L 392.707371 258.365716 
L 392.828117 253.571571 
L 392.948419 258.478462 
L 393.06828 253.969512 
L 393.306691 259.779414 
L 393.425247 259.558199 
L 393.543374 262.52625 
L 393.661076 262.117292 
L 393.778356 263.259155 
L 394.01166 261.485514 
L 394.127691 258.019601 
L 394.243311 260.681667 
L 394.358523 260.085801 
L 394.587736 252.86129 
L 394.92857 260.11368 
L 395.041395 258.309589 
L 395.183634 262.825729 
L 395.295584 263.76169 
L 395.407152 263.741786 
L 395.629151 265.100316 
L 395.739588 266.088697 
L 395.849652 260.432689 
L 395.959348 262.779919 
L 396.068676 261.009812 
L 396.286241 263.975361 
L 396.609897 265.823588 
L 396.717074 264.712499 
L 396.8239 261.735939 
L 397.036511 265.882723 
L 397.1423 264.619273 
L 397.247748 254.072049 
L 397.562065 264.682346 
L 397.666169 263.342326 
L 397.873387 266.127222 
L 397.976505 263.240719 
L 398.181771 265.668272 
L 398.283923 267.282993 
L 398.487273 266.208889 
L 398.487273 266.208889 
" clip-path="url(#p0723539061)" style="fill: none; stroke: #2ca02c; stroke-opacity: 0.4; stroke-linecap: square"/>
   </g>
   <g id="patch_3">
    <path d="M 57.6 307.584 
L 57.6 41.472 
" style="fill: none; stroke: #000000; stroke-width: 0.8; stroke-linejoin: miter; stroke-linecap: square"/>
   </g>
   <g id="patch_4">
    <path d="M 414.72 307.584 
L 414.72 41.472 
" style="fill: none; stroke: #000000; stroke-width: 0.8; stroke-linejoin: miter; stroke-linecap: square"/>
   </g>
   <g id="patch_5">
    <path d="M 57.6 307.584 
L 414.72 307.584 
" style="fill: none; stroke: #000000; stroke-width: 0.8; stroke-linejoin: miter; stroke-linecap: square"/>
   </g>
   <g id="patch_6">
    <path d="M 57.6 41.472 
L 414.72 41.472 
" style="fill: none; stroke: #000000; stroke-width: 0.8; stroke-linejoin: miter; stroke-linecap: square"/>
   </g>
   <g id="text_12">
    <!-- 2025-02-18-14:50:01 -->
    <g transform="translate(172.178438 35.472) scale(0.12 -0.12)">
     <defs>
      <path id="DejaVuSans-35" d="M 691 4666 
L 3169 4666 
L 3169 4134 
L 1269 4134 
L 1269 2991 
Q 1406 3038 1543 3061 
Q 1681 3084 1819 3084 
Q 2600 3084 3056 2656 
Q 3513 2228 3513 1497 
Q 3513 744 3044 326 
Q 2575 -91 1722 -91 
Q 1428 -91 1123 -41 
Q 819 9 494 109 
L 494 744 
Q 775 591 1075 516 
Q 1375 441 1709 441 
Q 2250 441 2565 725 
Q 2881 1009 2881 1497 
Q 2881 1984 2565 2268 
Q 2250 2553 1709 2553 
Q 1456 2553 1204 2497 
Q 953 2441 691 2322 
L 691 4666 
z
" transform="scale(0.015625)"/>
      <path id="DejaVuSans-2d" d="M 313 2009 
L 1997 2009 
L 1997 1497 
L 313 1497 
L 313 2009 
z
" transform="scale(0.015625)"/>
      <path id="DejaVuSans-38" d="M 2034 2216 
Q 1584 2216 1326 1975 
Q 1069 1734 1069 1313 
Q 1069 891 1326 650 
Q 1584 409 2034 409 
Q 2484 409 2743 651 
Q 3003 894 3003 1313 
Q 3003 1734 2745 1975 
Q 2488 2216 2034 2216 
z
M 1403 2484 
Q 997 2584 770 2862 
Q 544 3141 544 3541 
Q 544 4100 942 4425 
Q 1341 4750 2034 4750 
Q 2731 4750 3128 4425 
Q 3525 4100 3525 3541 
Q 3525 3141 3298 2862 
Q 3072 2584 2669 2484 
Q 3125 2378 3379 2068 
Q 3634 1759 3634 1313 
Q 3634 634 3220 271 
Q 2806 -91 2034 -91 
Q 1263 -91 848 271 
Q 434 634 434 1313 
Q 434 1759 690 2068 
Q 947 2378 1403 2484 
z
M 1172 3481 
Q 1172 3119 1398 2916 
Q 1625 2713 2034 2713 
Q 2441 2713 2670 2916 
Q 2900 3119 2900 3481 
Q 2900 3844 2670 4047 
Q 2441 4250 2034 4250 
Q 1625 4250 1398 4047 
Q 1172 3844 1172 3481 
z
" transform="scale(0.015625)"/>
      <path id="DejaVuSans-3a" d="M 750 794 
L 1409 794 
L 1409 0 
L 750 0 
L 750 794 
z
M 750 3309 
L 1409 3309 
L 1409 2516 
L 750 2516 
L 750 3309 
z
" transform="scale(0.015625)"/>
     </defs>
     <use xlink:href="#DejaVuSans-32"/>
     <use xlink:href="#DejaVuSans-30" x="63.623047"/>
     <use xlink:href="#DejaVuSans-32" x="127.246094"/>
     <use xlink:href="#DejaVuSans-35" x="190.869141"/>
     <use xlink:href="#DejaVuSans-2d" x="254.492188"/>
     <use xlink:href="#DejaVuSans-30" x="290.576172"/>
     <use xlink:href="#DejaVuSans-32" x="354.199219"/>
     <use xlink:href="#DejaVuSans-2d" x="417.822266"/>
     <use xlink:href="#DejaVuSans-31" x="453.90625"/>
     <use xlink:href="#DejaVuSans-38" x="517.529297"/>
     <use xlink:href="#DejaVuSans-2d" x="581.152344"/>
     <use xlink:href="#DejaVuSans-31" x="617.236328"/>
     <use xlink:href="#DejaVuSans-34" x="680.859375"/>
     <use xlink:href="#DejaVuSans-3a" x="744.482422"/>
     <use xlink:href="#DejaVuSans-35" x="778.173828"/>
     <use xlink:href="#DejaVuSans-30" x="841.796875"/>
     <use xlink:href="#DejaVuSans-3a" x="905.419922"/>
     <use xlink:href="#DejaVuSans-30" x="939.111328"/>
     <use xlink:href="#DejaVuSans-31" x="1002.734375"/>
    </g>
   </g>
   <g id="legend_1">
    <g id="patch_7">
     <path d="M 281.596563 94.34075 
L 407.72 94.34075 
Q 409.72 94.34075 409.72 92.34075 
L 409.72 48.472 
Q 409.72 46.472 407.72 46.472 
L 281.596563 46.472 
Q 279.596563 46.472 279.596563 48.472 
L 279.596563 92.34075 
Q 279.596563 94.34075 281.596563 94.34075 
z
" style="fill: #ffffff; opacity: 0.8; stroke: #cccccc; stroke-linejoin: miter"/>
    </g>
    <g id="line2d_80">
     <path d="M 283.596563 54.570438 
L 293.596563 54.570438 
L 303.596563 54.570438 
" style="fill: none; stroke: #1f77b4; stroke-opacity: 0.4; stroke-linecap: square"/>
    </g>
    <g id="text_13">
     <!-- SchNet eval_loss -->
     <g transform="translate(311.596563 58.070438) scale(0.1 -0.1)">
      <defs>
       <path id="DejaVuSans-53" d="M 3425 4513 
L 3425 3897 
Q 3066 4069 2747 4153 
Q 2428 4238 2131 4238 
Q 1616 4238 1336 4038 
Q 1056 3838 1056 3469 
Q 1056 3159 1242 3001 
Q 1428 2844 1947 2747 
L 2328 2669 
Q 3034 2534 3370 2195 
Q 3706 1856 3706 1288 
Q 3706 609 3251 259 
Q 2797 -91 1919 -91 
Q 1588 -91 1214 -16 
Q 841 59 441 206 
L 441 856 
Q 825 641 1194 531 
Q 1563 422 1919 422 
Q 2459 422 2753 634 
Q 3047 847 3047 1241 
Q 3047 1584 2836 1778 
Q 2625 1972 2144 2069 
L 1759 2144 
Q 1053 2284 737 2584 
Q 422 2884 422 3419 
Q 422 4038 858 4394 
Q 1294 4750 2059 4750 
Q 2388 4750 2728 4690 
Q 3069 4631 3425 4513 
z
" transform="scale(0.015625)"/>
       <path id="DejaVuSans-63" d="M 3122 3366 
L 3122 2828 
Q 2878 2963 2633 3030 
Q 2388 3097 2138 3097 
Q 1578 3097 1268 2742 
Q 959 2388 959 1747 
Q 959 1106 1268 751 
Q 1578 397 2138 397 
Q 2388 397 2633 464 
Q 2878 531 3122 666 
L 3122 134 
Q 2881 22 2623 -34 
Q 2366 -91 2075 -91 
Q 1284 -91 818 406 
Q 353 903 353 1747 
Q 353 2603 823 3093 
Q 1294 3584 2113 3584 
Q 2378 3584 2631 3529 
Q 2884 3475 3122 3366 
z
" transform="scale(0.015625)"/>
       <path id="DejaVuSans-68" d="M 3513 2113 
L 3513 0 
L 2938 0 
L 2938 2094 
Q 2938 2591 2744 2837 
Q 2550 3084 2163 3084 
Q 1697 3084 1428 2787 
Q 1159 2491 1159 1978 
L 1159 0 
L 581 0 
L 581 4863 
L 1159 4863 
L 1159 2956 
Q 1366 3272 1645 3428 
Q 1925 3584 2291 3584 
Q 2894 3584 3203 3211 
Q 3513 2838 3513 2113 
z
" transform="scale(0.015625)"/>
       <path id="DejaVuSans-4e" d="M 628 4666 
L 1478 4666 
L 3547 763 
L 3547 4666 
L 4159 4666 
L 4159 0 
L 3309 0 
L 1241 3903 
L 1241 0 
L 628 0 
L 628 4666 
z
" transform="scale(0.015625)"/>
       <path id="DejaVuSans-20" transform="scale(0.015625)"/>
       <path id="DejaVuSans-76" d="M 191 3500 
L 800 3500 
L 1894 563 
L 2988 3500 
L 3597 3500 
L 2284 0 
L 1503 0 
L 191 3500 
z
" transform="scale(0.015625)"/>
       <path id="DejaVuSans-61" d="M 2194 1759 
Q 1497 1759 1228 1600 
Q 959 1441 959 1056 
Q 959 750 1161 570 
Q 1363 391 1709 391 
Q 2188 391 2477 730 
Q 2766 1069 2766 1631 
L 2766 1759 
L 2194 1759 
z
M 3341 1997 
L 3341 0 
L 2766 0 
L 2766 531 
Q 2569 213 2275 61 
Q 1981 -91 1556 -91 
Q 1019 -91 701 211 
Q 384 513 384 1019 
Q 384 1609 779 1909 
Q 1175 2209 1959 2209 
L 2766 2209 
L 2766 2266 
Q 2766 2663 2505 2880 
Q 2244 3097 1772 3097 
Q 1472 3097 1187 3025 
Q 903 2953 641 2809 
L 641 3341 
Q 956 3463 1253 3523 
Q 1550 3584 1831 3584 
Q 2591 3584 2966 3190 
Q 3341 2797 3341 1997 
z
" transform="scale(0.015625)"/>
       <path id="DejaVuSans-5f" d="M 3263 -1063 
L 3263 -1509 
L -63 -1509 
L -63 -1063 
L 3263 -1063 
z
" transform="scale(0.015625)"/>
      </defs>
      <use xlink:href="#DejaVuSans-53"/>
      <use xlink:href="#DejaVuSans-63" x="63.476562"/>
      <use xlink:href="#DejaVuSans-68" x="118.457031"/>
      <use xlink:href="#DejaVuSans-4e" x="181.835938"/>
      <use xlink:href="#DejaVuSans-65" x="256.640625"/>
      <use xlink:href="#DejaVuSans-74" x="318.164062"/>
      <use xlink:href="#DejaVuSans-20" x="357.373047"/>
      <use xlink:href="#DejaVuSans-65" x="389.160156"/>
      <use xlink:href="#DejaVuSans-76" x="450.683594"/>
      <use xlink:href="#DejaVuSans-61" x="509.863281"/>
      <use xlink:href="#DejaVuSans-6c" x="571.142578"/>
      <use xlink:href="#DejaVuSans-5f" x="598.925781"/>
      <use xlink:href="#DejaVuSans-6c" x="648.925781"/>
      <use xlink:href="#DejaVuSans-6f" x="676.708984"/>
      <use xlink:href="#DejaVuSans-73" x="737.890625"/>
      <use xlink:href="#DejaVuSans-73" x="789.990234"/>
     </g>
    </g>
    <g id="line2d_81">
     <path d="M 283.596563 69.526688 
L 293.596563 69.526688 
L 303.596563 69.526688 
" style="fill: none; stroke: #ff7f0e; stroke-opacity: 0.4; stroke-linecap: square"/>
    </g>
    <g id="text_14">
     <!-- MoGIN13 eval_loss -->
     <g transform="translate(311.596563 73.026688) scale(0.1 -0.1)">
      <defs>
       <path id="DejaVuSans-4d" d="M 628 4666 
L 1569 4666 
L 2759 1491 
L 3956 4666 
L 4897 4666 
L 4897 0 
L 4281 0 
L 4281 4097 
L 3078 897 
L 2444 897 
L 1241 4097 
L 1241 0 
L 628 0 
L 628 4666 
z
" transform="scale(0.015625)"/>
       <path id="DejaVuSans-47" d="M 3809 666 
L 3809 1919 
L 2778 1919 
L 2778 2438 
L 4434 2438 
L 4434 434 
Q 4069 175 3628 42 
Q 3188 -91 2688 -91 
Q 1594 -91 976 548 
Q 359 1188 359 2328 
Q 359 3472 976 4111 
Q 1594 4750 2688 4750 
Q 3144 4750 3555 4637 
Q 3966 4525 4313 4306 
L 4313 3634 
Q 3963 3931 3569 4081 
Q 3175 4231 2741 4231 
Q 1884 4231 1454 3753 
Q 1025 3275 1025 2328 
Q 1025 1384 1454 906 
Q 1884 428 2741 428 
Q 3075 428 3337 486 
Q 3600 544 3809 666 
z
" transform="scale(0.015625)"/>
       <path id="DejaVuSans-49" d="M 628 4666 
L 1259 4666 
L 1259 0 
L 628 0 
L 628 4666 
z
" transform="scale(0.015625)"/>
      </defs>
      <use xlink:href="#DejaVuSans-4d"/>
      <use xlink:href="#DejaVuSans-6f" x="86.279297"/>
      <use xlink:href="#DejaVuSans-47" x="147.460938"/>
      <use xlink:href="#DejaVuSans-49" x="224.951172"/>
      <use xlink:href="#DejaVuSans-4e" x="254.443359"/>
      <use xlink:href="#DejaVuSans-31" x="329.248047"/>
      <use xlink:href="#DejaVuSans-33" x="392.871094"/>
      <use xlink:href="#DejaVuSans-20" x="456.494141"/>
      <use xlink:href="#DejaVuSans-65" x="488.28125"/>
      <use xlink:href="#DejaVuSans-76" x="549.804688"/>
      <use xlink:href="#DejaVuSans-61" x="608.984375"/>
      <use xlink:href="#DejaVuSans-6c" x="670.263672"/>
      <use xlink:href="#DejaVuSans-5f" x="698.046875"/>
      <use xlink:href="#DejaVuSans-6c" x="748.046875"/>
      <use xlink:href="#DejaVuSans-6f" x="775.830078"/>
      <use xlink:href="#DejaVuSans-73" x="837.011719"/>
      <use xlink:href="#DejaVuSans-73" x="889.111328"/>
     </g>
    </g>
    <g id="line2d_82">
     <path d="M 283.596563 84.482938 
L 293.596563 84.482938 
L 303.596563 84.482938 
" style="fill: none; stroke: #2ca02c; stroke-opacity: 0.4; stroke-linecap: square"/>
    </g>
    <g id="text_15">
     <!-- MoGIN11 eval_loss -->
     <g transform="translate(311.596563 87.982938) scale(0.1 -0.1)">
      <use xlink:href="#DejaVuSans-4d"/>
      <use xlink:href="#DejaVuSans-6f" x="86.279297"/>
      <use xlink:href="#DejaVuSans-47" x="147.460938"/>
      <use xlink:href="#DejaVuSans-49" x="224.951172"/>
      <use xlink:href="#DejaVuSans-4e" x="254.443359"/>
      <use xlink:href="#DejaVuSans-31" x="329.248047"/>
      <use xlink:href="#DejaVuSans-31" x="392.871094"/>
      <use xlink:href="#DejaVuSans-20" x="456.494141"/>
      <use xlink:href="#DejaVuSans-65" x="488.28125"/>
      <use xlink:href="#DejaVuSans-76" x="549.804688"/>
      <use xlink:href="#DejaVuSans-61" x="608.984375"/>
      <use xlink:href="#DejaVuSans-6c" x="670.263672"/>
      <use xlink:href="#DejaVuSans-5f" x="698.046875"/>
      <use xlink:href="#DejaVuSans-6c" x="748.046875"/>
      <use xlink:href="#DejaVuSans-6f" x="775.830078"/>
      <use xlink:href="#DejaVuSans-73" x="837.011719"/>
      <use xlink:href="#DejaVuSans-73" x="889.111328"/>
     </g>
    </g>
   </g>
  </g>
 </g>
 <defs>
  <clipPath id="p0723539061">
   <rect x="57.6" y="41.472" width="357.12" height="266.112"/>
  </clipPath>
 </defs>
</svg>
