<?xml version="1.0" encoding="utf-8" standalone="no"?>
<!DOCTYPE svg PUBLIC "-//W3C//DTD SVG 1.1//EN"
  "http://www.w3.org/Graphics/SVG/1.1/DTD/svg11.dtd">
<svg xmlns:xlink="http://www.w3.org/1999/xlink" width="460.8pt" height="345.6pt" viewBox="0 0 460.8 345.6" xmlns="http://www.w3.org/2000/svg" version="1.1">
 <metadata>
  <rdf:RDF xmlns:dc="http://purl.org/dc/elements/1.1/" xmlns:cc="http://creativecommons.org/ns#" xmlns:rdf="http://www.w3.org/1999/02/22-rdf-syntax-ns#">
   <cc:Work>
    <dc:type rdf:resource="http://purl.org/dc/dcmitype/StillImage"/>
    <dc:date>2025-02-21T00:26:22.770311</dc:date>
    <dc:format>image/svg+xml</dc:format>
    <dc:creator>
     <cc:Agent>
      <dc:title>Matplotlib v3.8.4, https://matplotlib.org/</dc:title>
     </cc:Agent>
    </dc:creator>
   </cc:Work>
  </rdf:RDF>
 </metadata>
 <defs>
  <style type="text/css">*{stroke-linejoin: round; stroke-linecap: butt}</style>
 </defs>
 <g id="figure_1">
  <g id="patch_1">
   <path d="M 0 345.6 
L 460.8 345.6 
L 460.8 0 
L 0 0 
z
" style="fill: #ffffff"/>
  </g>
  <g id="axes_1">
   <g id="patch_2">
    <path d="M 57.6 307.584 
L 414.72 307.584 
L 414.72 41.472 
L 57.6 41.472 
z
" style="fill: #ffffff"/>
   </g>
   <g id="matplotlib.axis_1">
    <g id="xtick_1">
     <g id="line2d_1">
      <defs>
       <path id="m57dc850138" d="M 0 0 
L 0 3.5 
" style="stroke: #000000; stroke-width: 0.8"/>
      </defs>
      <g>
       <use xlink:href="#m57dc850138" x="57.6" y="307.584" style="stroke: #000000; stroke-width: 0.8"/>
      </g>
     </g>
     <g id="text_1">
      <!-- $\mathdefault{10^{2}}$ -->
      <g transform="translate(48.8 322.182437) scale(0.1 -0.1)">
       <defs>
        <path id="DejaVuSans-31" d="M 794 531 
L 1825 531 
L 1825 4091 
L 703 3866 
L 703 4441 
L 1819 4666 
L 2450 4666 
L 2450 531 
L 3481 531 
L 3481 0 
L 794 0 
L 794 531 
z
" transform="scale(0.015625)"/>
        <path id="DejaVuSans-30" d="M 2034 4250 
Q 1547 4250 1301 3770 
Q 1056 3291 1056 2328 
Q 1056 1369 1301 889 
Q 1547 409 2034 409 
Q 2525 409 2770 889 
Q 3016 1369 3016 2328 
Q 3016 3291 2770 3770 
Q 2525 4250 2034 4250 
z
M 2034 4750 
Q 2819 4750 3233 4129 
Q 3647 3509 3647 2328 
Q 3647 1150 3233 529 
Q 2819 -91 2034 -91 
Q 1250 -91 836 529 
Q 422 1150 422 2328 
Q 422 3509 836 4129 
Q 1250 4750 2034 4750 
z
" transform="scale(0.015625)"/>
        <path id="DejaVuSans-32" d="M 1228 531 
L 3431 531 
L 3431 0 
L 469 0 
L 469 531 
Q 828 903 1448 1529 
Q 2069 2156 2228 2338 
Q 2531 2678 2651 2914 
Q 2772 3150 2772 3378 
Q 2772 3750 2511 3984 
Q 2250 4219 1831 4219 
Q 1534 4219 1204 4116 
Q 875 4013 500 3803 
L 500 4441 
Q 881 4594 1212 4672 
Q 1544 4750 1819 4750 
Q 2544 4750 2975 4387 
Q 3406 4025 3406 3419 
Q 3406 3131 3298 2873 
Q 3191 2616 2906 2266 
Q 2828 2175 2409 1742 
Q 1991 1309 1228 531 
z
" transform="scale(0.015625)"/>
       </defs>
       <use xlink:href="#DejaVuSans-31" transform="translate(0 0.765625)"/>
       <use xlink:href="#DejaVuSans-30" transform="translate(63.623047 0.765625)"/>
       <use xlink:href="#DejaVuSans-32" transform="translate(128.203125 39.046875) scale(0.7)"/>
      </g>
     </g>
    </g>
    <g id="xtick_2">
     <g id="line2d_2">
      <g>
       <use xlink:href="#m57dc850138" x="189.917143" y="307.584" style="stroke: #000000; stroke-width: 0.8"/>
      </g>
     </g>
     <g id="text_2">
      <!-- $\mathdefault{10^{3}}$ -->
      <g transform="translate(181.117143 322.182437) scale(0.1 -0.1)">
       <defs>
        <path id="DejaVuSans-33" d="M 2597 2516 
Q 3050 2419 3304 2112 
Q 3559 1806 3559 1356 
Q 3559 666 3084 287 
Q 2609 -91 1734 -91 
Q 1441 -91 1130 -33 
Q 819 25 488 141 
L 488 750 
Q 750 597 1062 519 
Q 1375 441 1716 441 
Q 2309 441 2620 675 
Q 2931 909 2931 1356 
Q 2931 1769 2642 2001 
Q 2353 2234 1838 2234 
L 1294 2234 
L 1294 2753 
L 1863 2753 
Q 2328 2753 2575 2939 
Q 2822 3125 2822 3475 
Q 2822 3834 2567 4026 
Q 2313 4219 1838 4219 
Q 1578 4219 1281 4162 
Q 984 4106 628 3988 
L 628 4550 
Q 988 4650 1302 4700 
Q 1616 4750 1894 4750 
Q 2613 4750 3031 4423 
Q 3450 4097 3450 3541 
Q 3450 3153 3228 2886 
Q 3006 2619 2597 2516 
z
" transform="scale(0.015625)"/>
       </defs>
       <use xlink:href="#DejaVuSans-31" transform="translate(0 0.765625)"/>
       <use xlink:href="#DejaVuSans-30" transform="translate(63.623047 0.765625)"/>
       <use xlink:href="#DejaVuSans-33" transform="translate(128.203125 39.046875) scale(0.7)"/>
      </g>
     </g>
    </g>
    <g id="xtick_3">
     <g id="line2d_3">
      <g>
       <use xlink:href="#m57dc850138" x="322.234286" y="307.584" style="stroke: #000000; stroke-width: 0.8"/>
      </g>
     </g>
     <g id="text_3">
      <!-- $\mathdefault{10^{4}}$ -->
      <g transform="translate(313.434286 322.182437) scale(0.1 -0.1)">
       <defs>
        <path id="DejaVuSans-34" d="M 2419 4116 
L 825 1625 
L 2419 1625 
L 2419 4116 
z
M 2253 4666 
L 3047 4666 
L 3047 1625 
L 3713 1625 
L 3713 1100 
L 3047 1100 
L 3047 0 
L 2419 0 
L 2419 1100 
L 313 1100 
L 313 1709 
L 2253 4666 
z
" transform="scale(0.015625)"/>
       </defs>
       <use xlink:href="#DejaVuSans-31" transform="translate(0 0.684375)"/>
       <use xlink:href="#DejaVuSans-30" transform="translate(63.623047 0.684375)"/>
       <use xlink:href="#DejaVuSans-34" transform="translate(128.203125 38.965625) scale(0.7)"/>
      </g>
     </g>
    </g>
    <g id="xtick_4">
     <g id="line2d_4">
      <defs>
       <path id="m6dbb176eb9" d="M 0 0 
L 0 2 
" style="stroke: #000000; stroke-width: 0.6"/>
      </defs>
      <g>
       <use xlink:href="#m6dbb176eb9" x="97.431429" y="307.584" style="stroke: #000000; stroke-width: 0.6"/>
      </g>
     </g>
    </g>
    <g id="xtick_5">
     <g id="line2d_5">
      <g>
       <use xlink:href="#m6dbb176eb9" x="120.731321" y="307.584" style="stroke: #000000; stroke-width: 0.6"/>
      </g>
     </g>
    </g>
    <g id="xtick_6">
     <g id="line2d_6">
      <g>
       <use xlink:href="#m6dbb176eb9" x="137.262858" y="307.584" style="stroke: #000000; stroke-width: 0.6"/>
      </g>
     </g>
    </g>
    <g id="xtick_7">
     <g id="line2d_7">
      <g>
       <use xlink:href="#m6dbb176eb9" x="150.085714" y="307.584" style="stroke: #000000; stroke-width: 0.6"/>
      </g>
     </g>
    </g>
    <g id="xtick_8">
     <g id="line2d_8">
      <g>
       <use xlink:href="#m6dbb176eb9" x="160.56275" y="307.584" style="stroke: #000000; stroke-width: 0.6"/>
      </g>
     </g>
    </g>
    <g id="xtick_9">
     <g id="line2d_9">
      <g>
       <use xlink:href="#m6dbb176eb9" x="169.420958" y="307.584" style="stroke: #000000; stroke-width: 0.6"/>
      </g>
     </g>
    </g>
    <g id="xtick_10">
     <g id="line2d_10">
      <g>
       <use xlink:href="#m6dbb176eb9" x="177.094287" y="307.584" style="stroke: #000000; stroke-width: 0.6"/>
      </g>
     </g>
    </g>
    <g id="xtick_11">
     <g id="line2d_11">
      <g>
       <use xlink:href="#m6dbb176eb9" x="183.862643" y="307.584" style="stroke: #000000; stroke-width: 0.6"/>
      </g>
     </g>
    </g>
    <g id="xtick_12">
     <g id="line2d_12">
      <g>
       <use xlink:href="#m6dbb176eb9" x="229.748572" y="307.584" style="stroke: #000000; stroke-width: 0.6"/>
      </g>
     </g>
    </g>
    <g id="xtick_13">
     <g id="line2d_13">
      <g>
       <use xlink:href="#m6dbb176eb9" x="253.048464" y="307.584" style="stroke: #000000; stroke-width: 0.6"/>
      </g>
     </g>
    </g>
    <g id="xtick_14">
     <g id="line2d_14">
      <g>
       <use xlink:href="#m6dbb176eb9" x="269.580001" y="307.584" style="stroke: #000000; stroke-width: 0.6"/>
      </g>
     </g>
    </g>
    <g id="xtick_15">
     <g id="line2d_15">
      <g>
       <use xlink:href="#m6dbb176eb9" x="282.402857" y="307.584" style="stroke: #000000; stroke-width: 0.6"/>
      </g>
     </g>
    </g>
    <g id="xtick_16">
     <g id="line2d_16">
      <g>
       <use xlink:href="#m6dbb176eb9" x="292.879893" y="307.584" style="stroke: #000000; stroke-width: 0.6"/>
      </g>
     </g>
    </g>
    <g id="xtick_17">
     <g id="line2d_17">
      <g>
       <use xlink:href="#m6dbb176eb9" x="301.738101" y="307.584" style="stroke: #000000; stroke-width: 0.6"/>
      </g>
     </g>
    </g>
    <g id="xtick_18">
     <g id="line2d_18">
      <g>
       <use xlink:href="#m6dbb176eb9" x="309.41143" y="307.584" style="stroke: #000000; stroke-width: 0.6"/>
      </g>
     </g>
    </g>
    <g id="xtick_19">
     <g id="line2d_19">
      <g>
       <use xlink:href="#m6dbb176eb9" x="316.179786" y="307.584" style="stroke: #000000; stroke-width: 0.6"/>
      </g>
     </g>
    </g>
    <g id="xtick_20">
     <g id="line2d_20">
      <g>
       <use xlink:href="#m6dbb176eb9" x="362.065715" y="307.584" style="stroke: #000000; stroke-width: 0.6"/>
      </g>
     </g>
    </g>
    <g id="xtick_21">
     <g id="line2d_21">
      <g>
       <use xlink:href="#m6dbb176eb9" x="385.365607" y="307.584" style="stroke: #000000; stroke-width: 0.6"/>
      </g>
     </g>
    </g>
    <g id="xtick_22">
     <g id="line2d_22">
      <g>
       <use xlink:href="#m6dbb176eb9" x="401.897144" y="307.584" style="stroke: #000000; stroke-width: 0.6"/>
      </g>
     </g>
    </g>
    <g id="xtick_23">
     <g id="line2d_23">
      <g>
       <use xlink:href="#m6dbb176eb9" x="414.72" y="307.584" style="stroke: #000000; stroke-width: 0.6"/>
      </g>
     </g>
    </g>
    <g id="text_4">
     <!-- iter# -->
     <g transform="translate(223.488906 335.860562) scale(0.1 -0.1)">
      <defs>
       <path id="DejaVuSans-69" d="M 603 3500 
L 1178 3500 
L 1178 0 
L 603 0 
L 603 3500 
z
M 603 4863 
L 1178 4863 
L 1178 4134 
L 603 4134 
L 603 4863 
z
" transform="scale(0.015625)"/>
       <path id="DejaVuSans-74" d="M 1172 4494 
L 1172 3500 
L 2356 3500 
L 2356 3053 
L 1172 3053 
L 1172 1153 
Q 1172 725 1289 603 
Q 1406 481 1766 481 
L 2356 481 
L 2356 0 
L 1766 0 
Q 1100 0 847 248 
Q 594 497 594 1153 
L 594 3053 
L 172 3053 
L 172 3500 
L 594 3500 
L 594 4494 
L 1172 4494 
z
" transform="scale(0.015625)"/>
       <path id="DejaVuSans-65" d="M 3597 1894 
L 3597 1613 
L 953 1613 
Q 991 1019 1311 708 
Q 1631 397 2203 397 
Q 2534 397 2845 478 
Q 3156 559 3463 722 
L 3463 178 
Q 3153 47 2828 -22 
Q 2503 -91 2169 -91 
Q 1331 -91 842 396 
Q 353 884 353 1716 
Q 353 2575 817 3079 
Q 1281 3584 2069 3584 
Q 2775 3584 3186 3129 
Q 3597 2675 3597 1894 
z
M 3022 2063 
Q 3016 2534 2758 2815 
Q 2500 3097 2075 3097 
Q 1594 3097 1305 2825 
Q 1016 2553 972 2059 
L 3022 2063 
z
" transform="scale(0.015625)"/>
       <path id="DejaVuSans-72" d="M 2631 2963 
Q 2534 3019 2420 3045 
Q 2306 3072 2169 3072 
Q 1681 3072 1420 2755 
Q 1159 2438 1159 1844 
L 1159 0 
L 581 0 
L 581 3500 
L 1159 3500 
L 1159 2956 
Q 1341 3275 1631 3429 
Q 1922 3584 2338 3584 
Q 2397 3584 2469 3576 
Q 2541 3569 2628 3553 
L 2631 2963 
z
" transform="scale(0.015625)"/>
       <path id="DejaVuSans-23" d="M 3272 2816 
L 2363 2816 
L 2100 1772 
L 3016 1772 
L 3272 2816 
z
M 2803 4594 
L 2478 3297 
L 3391 3297 
L 3719 4594 
L 4219 4594 
L 3897 3297 
L 4872 3297 
L 4872 2816 
L 3775 2816 
L 3519 1772 
L 4513 1772 
L 4513 1294 
L 3397 1294 
L 3072 0 
L 2572 0 
L 2894 1294 
L 1978 1294 
L 1656 0 
L 1153 0 
L 1478 1294 
L 494 1294 
L 494 1772 
L 1594 1772 
L 1856 2816 
L 850 2816 
L 850 3297 
L 1978 3297 
L 2297 4594 
L 2803 4594 
z
" transform="scale(0.015625)"/>
      </defs>
      <use xlink:href="#DejaVuSans-69"/>
      <use xlink:href="#DejaVuSans-74" x="27.783203"/>
      <use xlink:href="#DejaVuSans-65" x="66.992188"/>
      <use xlink:href="#DejaVuSans-72" x="128.515625"/>
      <use xlink:href="#DejaVuSans-23" x="169.628906"/>
     </g>
    </g>
   </g>
   <g id="matplotlib.axis_2">
    <g id="ytick_1">
     <g id="line2d_24">
      <defs>
       <path id="m1548fe2219" d="M 0 0 
L -3.5 0 
" style="stroke: #000000; stroke-width: 0.8"/>
      </defs>
      <g>
       <use xlink:href="#m1548fe2219" x="57.6" y="245.254111" style="stroke: #000000; stroke-width: 0.8"/>
      </g>
     </g>
     <g id="text_5">
      <!-- $\mathdefault{10^{-2}}$ -->
      <g transform="translate(27.1 249.05333) scale(0.1 -0.1)">
       <defs>
        <path id="DejaVuSans-2212" d="M 678 2272 
L 4684 2272 
L 4684 1741 
L 678 1741 
L 678 2272 
z
" transform="scale(0.015625)"/>
       </defs>
       <use xlink:href="#DejaVuSans-31" transform="translate(0 0.765625)"/>
       <use xlink:href="#DejaVuSans-30" transform="translate(63.623047 0.765625)"/>
       <use xlink:href="#DejaVuSans-2212" transform="translate(128.203125 39.046875) scale(0.7)"/>
       <use xlink:href="#DejaVuSans-32" transform="translate(186.855469 39.046875) scale(0.7)"/>
      </g>
     </g>
    </g>
    <g id="ytick_2">
     <g id="line2d_25">
      <g>
       <use xlink:href="#m1548fe2219" x="57.6" y="88.622741" style="stroke: #000000; stroke-width: 0.8"/>
      </g>
     </g>
     <g id="text_6">
      <!-- $\mathdefault{10^{-1}}$ -->
      <g transform="translate(27.1 92.421959) scale(0.1 -0.1)">
       <use xlink:href="#DejaVuSans-31" transform="translate(0 0.684375)"/>
       <use xlink:href="#DejaVuSans-30" transform="translate(63.623047 0.684375)"/>
       <use xlink:href="#DejaVuSans-2212" transform="translate(128.203125 38.965625) scale(0.7)"/>
       <use xlink:href="#DejaVuSans-31" transform="translate(186.855469 38.965625) scale(0.7)"/>
      </g>
     </g>
    </g>
    <g id="ytick_3">
     <g id="line2d_26">
      <defs>
       <path id="mc7d8c901c4" d="M 0 0 
L -2 0 
" style="stroke: #000000; stroke-width: 0.6"/>
      </defs>
      <g>
       <use xlink:href="#mc7d8c901c4" x="57.6" y="307.584" style="stroke: #000000; stroke-width: 0.6"/>
      </g>
     </g>
    </g>
    <g id="ytick_4">
     <g id="line2d_27">
      <g>
       <use xlink:href="#mc7d8c901c4" x="57.6" y="292.404852" style="stroke: #000000; stroke-width: 0.6"/>
      </g>
     </g>
    </g>
    <g id="ytick_5">
     <g id="line2d_28">
      <g>
       <use xlink:href="#mc7d8c901c4" x="57.6" y="280.002585" style="stroke: #000000; stroke-width: 0.6"/>
      </g>
     </g>
    </g>
    <g id="ytick_6">
     <g id="line2d_29">
      <g>
       <use xlink:href="#mc7d8c901c4" x="57.6" y="269.516617" style="stroke: #000000; stroke-width: 0.6"/>
      </g>
     </g>
    </g>
    <g id="ytick_7">
     <g id="line2d_30">
      <g>
       <use xlink:href="#mc7d8c901c4" x="57.6" y="260.433259" style="stroke: #000000; stroke-width: 0.6"/>
      </g>
     </g>
    </g>
    <g id="ytick_8">
     <g id="line2d_31">
      <g>
       <use xlink:href="#mc7d8c901c4" x="57.6" y="252.42117" style="stroke: #000000; stroke-width: 0.6"/>
      </g>
     </g>
    </g>
    <g id="ytick_9">
     <g id="line2d_32">
      <g>
       <use xlink:href="#mc7d8c901c4" x="57.6" y="198.10337" style="stroke: #000000; stroke-width: 0.6"/>
      </g>
     </g>
    </g>
    <g id="ytick_10">
     <g id="line2d_33">
      <g>
       <use xlink:href="#mc7d8c901c4" x="57.6" y="170.521955" style="stroke: #000000; stroke-width: 0.6"/>
      </g>
     </g>
    </g>
    <g id="ytick_11">
     <g id="line2d_34">
      <g>
       <use xlink:href="#mc7d8c901c4" x="57.6" y="150.95263" style="stroke: #000000; stroke-width: 0.6"/>
      </g>
     </g>
    </g>
    <g id="ytick_12">
     <g id="line2d_35">
      <g>
       <use xlink:href="#mc7d8c901c4" x="57.6" y="135.773481" style="stroke: #000000; stroke-width: 0.6"/>
      </g>
     </g>
    </g>
    <g id="ytick_13">
     <g id="line2d_36">
      <g>
       <use xlink:href="#mc7d8c901c4" x="57.6" y="123.371214" style="stroke: #000000; stroke-width: 0.6"/>
      </g>
     </g>
    </g>
    <g id="ytick_14">
     <g id="line2d_37">
      <g>
       <use xlink:href="#mc7d8c901c4" x="57.6" y="112.885247" style="stroke: #000000; stroke-width: 0.6"/>
      </g>
     </g>
    </g>
    <g id="ytick_15">
     <g id="line2d_38">
      <g>
       <use xlink:href="#mc7d8c901c4" x="57.6" y="103.801889" style="stroke: #000000; stroke-width: 0.6"/>
      </g>
     </g>
    </g>
    <g id="ytick_16">
     <g id="line2d_39">
      <g>
       <use xlink:href="#mc7d8c901c4" x="57.6" y="95.789799" style="stroke: #000000; stroke-width: 0.6"/>
      </g>
     </g>
    </g>
    <g id="ytick_17">
     <g id="line2d_40">
      <g>
       <use xlink:href="#mc7d8c901c4" x="57.6" y="41.472" style="stroke: #000000; stroke-width: 0.6"/>
      </g>
     </g>
    </g>
    <g id="text_7">
     <!-- loss -->
     <g transform="translate(21.020313 184.185812) rotate(-90) scale(0.1 -0.1)">
      <defs>
       <path id="DejaVuSans-6c" d="M 603 4863 
L 1178 4863 
L 1178 0 
L 603 0 
L 603 4863 
z
" transform="scale(0.015625)"/>
       <path id="DejaVuSans-6f" d="M 1959 3097 
Q 1497 3097 1228 2736 
Q 959 2375 959 1747 
Q 959 1119 1226 758 
Q 1494 397 1959 397 
Q 2419 397 2687 759 
Q 2956 1122 2956 1747 
Q 2956 2369 2687 2733 
Q 2419 3097 1959 3097 
z
M 1959 3584 
Q 2709 3584 3137 3096 
Q 3566 2609 3566 1747 
Q 3566 888 3137 398 
Q 2709 -91 1959 -91 
Q 1206 -91 779 398 
Q 353 888 353 1747 
Q 353 2609 779 3096 
Q 1206 3584 1959 3584 
z
" transform="scale(0.015625)"/>
       <path id="DejaVuSans-73" d="M 2834 3397 
L 2834 2853 
Q 2591 2978 2328 3040 
Q 2066 3103 1784 3103 
Q 1356 3103 1142 2972 
Q 928 2841 928 2578 
Q 928 2378 1081 2264 
Q 1234 2150 1697 2047 
L 1894 2003 
Q 2506 1872 2764 1633 
Q 3022 1394 3022 966 
Q 3022 478 2636 193 
Q 2250 -91 1575 -91 
Q 1294 -91 989 -36 
Q 684 19 347 128 
L 347 722 
Q 666 556 975 473 
Q 1284 391 1588 391 
Q 1994 391 2212 530 
Q 2431 669 2431 922 
Q 2431 1156 2273 1281 
Q 2116 1406 1581 1522 
L 1381 1569 
Q 847 1681 609 1914 
Q 372 2147 372 2553 
Q 372 3047 722 3315 
Q 1072 3584 1716 3584 
Q 2034 3584 2315 3537 
Q 2597 3491 2834 3397 
z
" transform="scale(0.015625)"/>
      </defs>
      <use xlink:href="#DejaVuSans-6c"/>
      <use xlink:href="#DejaVuSans-6f" x="27.783203"/>
      <use xlink:href="#DejaVuSans-73" x="88.964844"/>
      <use xlink:href="#DejaVuSans-73" x="141.064453"/>
     </g>
    </g>
   </g>
   <g id="line2d_41">
    <path d="M 195.445941 -1 
L 198.09822 3.844329 
L 201.202549 9.819423 
L 204.147737 14.863464 
L 209.62062 24.507974 
L 212.17325 29.682424 
L 216.96162 41.534267 
L 219.214042 46.437982 
L 223.470162 57.688097 
L 227.432674 65.813556 
L 229.315963 65.078796 
L 231.139485 65.176981 
L 231.614286 67.92185 
L 233.367394 72.92526 
L 235.068598 75.18622 
L 236.720884 79.148742 
L 239.889417 88.792573 
L 241.410487 93.813853 
L 242.892332 96.180537 
L 244.336923 99.278235 
L 245.746087 101.193892 
L 247.121521 105.338993 
L 248.464802 106.779697 
L 249.777398 101.354822 
L 251.060681 96.86092 
L 252.31593 98.803568 
L 253.544345 102.829905 
L 254.747049 107.201294 
L 255.925096 110.096825 
L 257.079478 105.899525 
L 258.211125 110.242085 
L 259.320916 111.497766 
L 260.40968 107.436142 
L 261.478199 109.617218 
L 262.527211 103.489451 
L 263.557416 106.040296 
L 264.569477 102.521163 
L 265.564022 105.860405 
L 266.541647 104.275519 
L 267.502917 104.388862 
L 268.448372 109.286807 
L 269.378522 109.858796 
L 270.293856 113.190165 
L 271.194839 111.162401 
L 271.431806 115.098565 
L 273.185332 117.330881 
L 274.042429 117.106927 
L 274.88693 121.352379 
L 275.719199 109.948551 
L 276.539587 110.247354 
L 277.348427 114.49189 
L 278.14604 117.899073 
L 278.932733 118.792155 
L 279.708802 115.242273 
L 280.47453 114.871073 
L 281.230188 114.767955 
L 281.976038 118.024882 
L 283.439309 108.904025 
L 284.157206 108.268014 
L 284.866244 103.741345 
L 286.258602 112.079117 
L 286.942331 112.375502 
L 287.618021 117.558979 
L 288.285857 121.18799 
L 288.946022 101.713616 
L 289.598688 105.735382 
L 290.244024 103.723325 
L 290.882194 108.517784 
L 291.513355 110.918488 
L 292.137658 111.430527 
L 292.755252 115.095004 
L 293.366278 114.586302 
L 293.970876 116.500761 
L 294.569179 119.337956 
L 294.727062 124.27543 
L 295.317583 128.025455 
L 295.902098 132.920765 
L 296.480727 134.487774 
L 297.053587 137.978435 
L 297.620793 133.220269 
L 298.182456 132.505603 
L 298.738681 134.137541 
L 299.289574 130.624931 
L 299.835236 132.065809 
L 300.375766 127.141073 
L 300.911258 119.80537 
L 301.967501 127.552161 
L 302.48843 129.107381 
L 303.00468 133.254677 
L 304.023469 129.998664 
L 304.52617 133.770781 
L 305.024511 133.695198 
L 305.518568 126.854832 
L 306.008413 130.521341 
L 306.494118 131.251728 
L 306.975751 127.016623 
L 307.453382 125.142145 
L 307.927076 126.753591 
L 308.396896 130.934406 
L 308.862907 119.612531 
L 309.325168 120.020694 
L 309.783741 124.466481 
L 310.238684 123.204891 
L 310.690052 123.248606 
L 311.137904 121.382606 
L 311.25628 123.384444 
L 311.699756 128.339486 
L 312.139837 128.532165 
L 313.010014 137.447261 
L 313.440211 140.780001 
L 313.867211 133.374679 
L 314.291062 134.881003 
L 314.711809 133.735174 
L 315.129498 128.731537 
L 315.544173 130.553194 
L 315.955876 135.292862 
L 316.364652 138.677511 
L 316.770539 139.989583 
L 317.173581 143.036081 
L 317.573814 143.344349 
L 317.97128 148.248835 
L 318.366015 145.940589 
L 318.758058 146.478834 
L 319.147444 145.376341 
L 319.534209 141.730005 
L 319.918388 144.132898 
L 320.300016 142.714871 
L 320.679126 139.030641 
L 321.429925 136.777847 
L 321.801677 140.289516 
L 322.17104 142.27439 
L 322.538044 140.244813 
L 322.902719 138.97066 
L 323.265094 140.650332 
L 323.625199 144.244208 
L 323.983061 146.236253 
L 324.077744 150.9946 
L 324.432808 153.066754 
L 325.13642 159.858615 
L 325.831521 145.113295 
L 326.175944 149.304152 
L 326.518314 151.061253 
L 326.858657 154.08717 
L 327.196996 144.548967 
L 327.533355 143.858165 
L 328.200223 147.621807 
L 328.530777 151.058546 
L 328.85944 142.822567 
L 329.511181 151.662449 
L 329.834301 151.890615 
L 330.155613 155.386821 
L 330.475139 151.053401 
L 330.792898 143.927176 
L 331.423193 148.873906 
L 331.735767 141.861891 
L 332.04665 146.235708 
L 332.35586 140.60549 
L 332.969333 148.364402 
L 333.877434 158.798996 
L 334.176974 160.68601 
L 334.47496 158.033828 
L 334.553853 162.408225 
L 335.437446 172.462778 
L 335.728983 172.051228 
L 336.019049 175.002249 
L 336.307658 175.05976 
L 336.594824 156.082412 
L 337.164888 165.673656 
L 337.447813 166.054182 
L 337.729352 168.47264 
L 338.009518 169.245655 
L 338.288325 166.596041 
L 338.841913 173.063194 
L 339.11672 171.908942 
L 339.662422 180.04146 
L 339.933343 178.366378 
L 340.202991 179.876556 
L 340.471381 177.636668 
L 340.738523 173.037395 
L 341.004428 172.521166 
L 341.269109 168.244079 
L 341.794842 172.128774 
L 342.055915 168.24591 
L 342.57453 172.468372 
L 342.832093 176.45568 
L 343.088507 178.237452 
L 343.343781 175.737531 
L 343.665246 181.455275 
L 343.917977 182.759205 
L 344.169601 177.873216 
L 344.420128 178.236393 
L 344.669568 171.681526 
L 344.91793 174.079436 
L 345.165223 172.411535 
L 345.90078 182.073157 
L 346.143888 177.754866 
L 346.62704 183.217124 
L 346.867102 188.043318 
L 347.106165 184.045677 
L 347.344237 185.428429 
L 347.581327 189.396993 
L 347.817443 190.293494 
L 348.052592 165.164531 
L 348.286783 160.846958 
L 348.752322 163.612394 
L 348.983685 163.131857 
L 349.443634 169.853685 
L 349.672235 171.214366 
L 349.899931 165.092846 
L 350.352633 174.419283 
L 350.577654 170.411733 
L 351.025069 178.781375 
L 351.08423 183.343903 
L 351.30641 185.727081 
L 351.527734 184.832528 
L 351.748209 185.548332 
L 351.967841 182.058668 
L 352.186637 181.485739 
L 352.83807 188.674635 
L 353.053583 192.510578 
L 353.268292 194.345824 
L 353.482201 194.610807 
L 353.695316 186.408949 
L 353.907645 187.347249 
L 354.119191 189.839458 
L 354.329962 182.272231 
L 354.957675 195.479525 
L 355.165399 195.393962 
L 355.372373 193.880078 
L 355.578606 196.384411 
L 355.7841 190.719179 
L 355.988863 191.733649 
L 356.192898 187.465049 
L 356.396212 186.351568 
L 357.001872 198.301282 
L 357.402127 206.820693 
L 357.799615 196.25223 
L 357.8522 197.068798 
L 358.049736 193.897156 
L 358.638305 206.25469 
L 358.833162 205.418982 
L 359.027361 206.708787 
L 359.220906 203.573621 
L 359.413801 203.387332 
L 359.797659 189.044625 
L 359.988631 193.669306 
L 360.178971 193.86883 
L 360.368682 197.085945 
L 360.557768 193.279317 
L 360.746235 195.524381 
L 360.934086 199.688429 
L 361.121324 195.905455 
L 361.307954 197.474219 
L 361.493981 194.699894 
L 361.679407 189.725787 
L 361.864236 190.7226 
L 362.048473 184.080229 
L 362.232121 181.596467 
L 362.415184 182.443934 
L 362.9609 193.763533 
L 363.14166 190.089984 
L 363.501483 196.19442 
L 363.859066 203.801092 
L 363.906391 201.778382 
L 364.261471 210.477901 
L 364.614371 214.285928 
L 364.790012 209.239579 
L 364.965117 198.370284 
L 365.13969 202.100457 
L 365.313735 202.068199 
L 365.487254 206.85907 
L 365.660251 204.498606 
L 365.832728 198.004731 
L 366.00469 201.188869 
L 366.176138 194.432599 
L 366.856861 207.440019 
L 367.02579 205.483496 
L 367.529615 216.33418 
L 367.863061 211.202078 
L 368.029062 212.387553 
L 368.359631 216.359427 
L 368.688309 210.819036 
L 368.851946 213.442533 
L 369.015118 213.282328 
L 369.177828 210.439894 
L 369.340079 211.654667 
L 369.3831 214.839881 
L 369.544773 207.331914 
L 369.86676 215.537798 
L 370.02708 213.703586 
L 370.346384 218.810848 
L 370.505373 210.252848 
L 370.663924 212.488374 
L 370.979719 221.048938 
L 371.136967 221.0377 
L 371.45018 225.467832 
L 371.606149 224.619348 
L 371.761695 221.700962 
L 372.225824 228.390248 
L 372.379704 221.912532 
L 372.533173 221.117359 
L 372.686233 225.134246 
L 372.838887 221.86742 
L 373.142984 228.0135 
L 373.44548 224.926903 
L 373.596132 211.769827 
L 373.746391 212.325883 
L 373.896258 210.894426 
L 374.194825 217.724794 
L 374.343528 216.460774 
L 374.531181 221.328598 
L 374.679018 217.25722 
L 374.973556 222.798161 
L 375.12026 219.604882 
L 375.266591 220.125574 
L 375.412551 207.806538 
L 375.703362 210.487451 
L 375.848217 205.705412 
L 375.992709 207.152815 
L 376.280606 213.191329 
L 376.424015 208.496024 
L 376.567068 198.241927 
L 377.135743 211.170119 
L 377.417984 219.045267 
L 377.558586 208.878167 
L 377.698846 208.780029 
L 377.838763 208.330408 
L 377.978341 204.475387 
L 378.117581 209.375533 
L 378.256484 207.308827 
L 378.395052 208.907212 
L 378.946007 226.081071 
L 378.982407 222.351963 
L 379.391926 232.833383 
L 379.527786 231.971272 
L 379.798547 222.240345 
L 379.93345 226.899186 
L 380.336271 219.560083 
L 380.736287 231.667594 
L 380.869009 228.592786 
L 381.396854 242.589175 
L 381.65897 235.449288 
L 381.789581 238.507937 
L 381.919895 236.907576 
L 382.049915 220.633112 
L 382.179641 221.449925 
L 382.438218 228.260965 
L 382.567071 218.881017 
L 382.695637 217.641694 
L 382.823915 209.195392 
L 383.494696 230.659378 
L 383.621205 228.444024 
L 383.999069 233.358505 
L 384.249604 238.437004 
L 384.374464 237.800752 
L 384.499053 231.877373 
L 384.747423 239.882839 
L 384.871206 239.394405 
L 385.240966 229.826862 
L 385.363692 231.044588 
L 385.486156 230.735692 
L 385.608361 224.904059 
L 385.730306 228.241048 
L 385.851992 223.318501 
L 386.215514 233.118727 
L 386.336178 234.456556 
L 386.57675 240.76797 
L 386.696659 241.57658 
L 386.93573 248.634002 
L 387.054893 247.862483 
L 387.205356 249.480182 
L 387.323962 252.662603 
L 387.442323 252.54775 
L 387.678318 258.210287 
L 387.795953 257.73706 
L 387.913347 258.49098 
L 388.030503 260.041644 
L 388.380542 244.836393 
L 388.728462 256.843034 
L 388.843969 256.732654 
L 388.959244 258.446289 
L 389.074288 256.350885 
L 389.303688 261.697984 
L 389.418045 261.853268 
L 389.64608 255.470755 
L 389.759759 256.479804 
L 389.873213 253.372476 
L 390.099452 255.585856 
L 390.661183 264.774964 
L 390.772873 247.000387 
L 390.884346 247.639583 
L 391.025121 253.447519 
L 391.136107 255.028136 
L 391.246878 258.387444 
L 391.357437 254.517599 
L 391.467784 240.736488 
L 391.577918 241.357368 
L 392.016359 253.417372 
L 392.125449 255.725345 
L 392.234332 255.578362 
L 392.451481 244.890273 
L 392.559748 245.359951 
L 392.667812 246.971592 
L 392.883332 255.643868 
L 392.990789 252.874023 
L 393.098046 256.449158 
L 393.205103 255.551988 
L 393.525084 261.122875 
L 393.631349 260.517652 
L 393.737418 258.30134 
L 393.843292 259.63903 
L 394.054456 255.977266 
L 394.159748 258.085705 
L 394.264847 256.352 
L 394.502253 267.325483 
L 394.606729 261.757776 
L 394.919019 271.204367 
L 395.332784 276.7548 
L 395.538555 261.607799 
L 396.151482 279.850553 
L 396.253004 279.791897 
L 396.556499 260.667266 
L 396.657308 263.517514 
L 396.858399 255.514083 
L 396.95868 254.116391 
L 397.158721 247.814551 
L 397.25848 239.859966 
L 397.358067 241.633512 
L 397.780938 254.230938 
L 398.370529 274.009816 
L 398.468209 277.334102 
L 398.663071 268.711334 
L 398.760255 269.533273 
L 398.954132 275.679772 
L 399.050825 274.514698 
L 399.243725 280.524038 
L 399.339933 279.047475 
L 399.531867 284.487922 
L 399.913822 265.776432 
L 400.103851 272.163184 
L 400.198631 271.47321 
L 400.293254 272.138703 
L 400.387723 274.585869 
L 400.482036 272.588356 
L 400.576194 273.034308 
L 400.670198 271.179757 
L 400.976115 279.907723 
L 401.25572 287.310243 
L 401.348621 291.232034 
L 401.441371 284.107196 
L 401.626424 287.481099 
L 401.718727 286.27105 
L 401.90289 276.979253 
L 401.994751 280.223448 
L 402.086465 278.732638 
L 402.269455 271.53058 
L 402.360732 274.188892 
L 402.451865 265.327036 
L 402.724398 270.239618 
L 402.814955 267.917046 
L 402.905371 271.706401 
L 403.085776 263.233985 
L 403.175766 264.369871 
L 403.265616 261.415759 
L 403.71277 281.598181 
L 403.825407 276.794654 
L 404.091518 283.25652 
L 404.268243 273.414888 
L 404.532315 282.244984 
L 404.620071 274.383543 
L 404.707692 274.809248 
L 404.79518 277.295619 
L 404.882535 269.010884 
L 405.31733 283.107025 
L 405.662812 287.533567 
L 405.834777 280.491681 
L 405.920567 282.712981 
L 406.347607 297.963106 
L 406.624814 275.800686 
L 406.709434 268.440876 
L 406.8783 272.955127 
L 406.962547 270.582029 
L 407.130672 275.158349 
L 407.214551 274.811622 
L 407.298307 272.949246 
L 407.548846 280.854774 
L 407.632116 272.511738 
L 407.715267 276.092822 
L 407.798297 274.663153 
L 408.04667 283.230201 
L 408.129223 282.94505 
L 408.293974 267.158085 
L 408.376172 266.481138 
L 408.540218 271.514744 
L 408.622065 271.160924 
L 408.703797 264.447226 
L 408.785412 265.395895 
L 409.110717 275.202334 
L 409.294159 286.667964 
L 409.37494 285.943113 
L 409.455608 281.429789 
L 409.777153 290.119555 
L 410.096908 301.970369 
L 410.176569 300.53647 
L 410.256121 296.034076 
L 410.335562 296.975359 
L 410.494116 303.005916 
L 410.652234 298.454688 
L 410.73113 298.731442 
L 410.888597 301.877312 
L 410.96717 277.035154 
L 411.045635 280.566507 
L 411.123993 271.956327 
L 411.514188 288.341856 
L 411.59191 283.375077 
L 411.767612 289.590311 
L 411.922268 285.136147 
L 411.999441 283.013992 
L 412.383757 296.780575 
L 412.460313 295.260905 
L 412.613119 298.200639 
L 412.68937 297.647476 
L 412.841569 291.263375 
L 412.993366 297.643486 
L 413.069114 297.071559 
L 413.144763 295.83544 
L 413.220312 297.94068 
L 413.295762 297.685991 
L 413.446365 292.541882 
L 413.671533 294.994607 
L 413.746393 293.183082 
L 413.895822 296.865479 
L 414.044863 300.695629 
L 414.119239 296.165671 
L 414.213233 276.792559 
L 414.287391 280.619974 
L 414.361454 284.252058 
L 414.435421 281.937404 
L 414.435421 281.937404 
" clip-path="url(#p2895184310)" style="fill: none; stroke: #1f77b4; stroke-opacity: 0.4; stroke-linecap: square"/>
   </g>
   <g id="line2d_42">
    <path d="M 80.447515 -1 
L 95.384127 11.351023 
L 111.84118 23.194298 
L 124.619299 25.857933 
L 135.066491 32.928717 
L 143.903372 42.385625 
L 151.560701 45.337179 
L 158.316609 50.835272 
L 164.361149 43.301246 
L 169.829961 44.880023 
L 174.823242 48.396702 
L 179.417116 55.642144 
L 183.670774 62.69234 
L 187.631151 64.099053 
L 191.336094 60.123052 
L 194.816566 65.440808 
L 198.09822 69.720206 
L 201.202549 73.395896 
L 206.949308 84.974474 
L 209.62062 88.051599 
L 212.17325 89.456332 
L 214.617296 91.921587 
L 219.214042 102.039694 
L 221.381497 105.261769 
L 223.470162 98.397846 
L 225.485566 101.902356 
L 227.432674 103.881158 
L 229.315963 105.172339 
L 231.139485 108.739299 
L 231.614286 110.351051 
L 233.367394 114.211176 
L 235.068598 118.61955 
L 236.720884 119.455683 
L 238.326986 118.708195 
L 239.889417 123.120724 
L 241.410487 122.691629 
L 242.892332 126.5847 
L 244.336923 125.898123 
L 245.746087 128.918559 
L 247.121521 128.605002 
L 248.464802 128.893973 
L 249.777398 131.409689 
L 251.060681 126.521586 
L 253.544345 133.975148 
L 254.747049 137.819627 
L 255.925096 137.44629 
L 257.079478 140.195482 
L 258.211125 140.921904 
L 259.320916 143.335655 
L 260.40968 144.991551 
L 261.478199 147.05507 
L 262.527211 150.681215 
L 263.557416 152.06277 
L 264.569477 154.120455 
L 265.564022 154.574478 
L 267.502917 159.895887 
L 268.448372 155.750155 
L 269.378522 150.870887 
L 270.293856 154.696925 
L 271.194839 155.512713 
L 271.431806 145.59503 
L 272.315257 139.483025 
L 273.185332 142.580223 
L 274.042429 144.629379 
L 274.88693 147.191925 
L 275.719199 151.270487 
L 276.539587 148.610621 
L 277.348427 142.928108 
L 279.708802 152.943072 
L 280.47453 150.007334 
L 281.230188 139.893382 
L 281.976038 140.077613 
L 282.712331 143.262216 
L 283.439309 146.989196 
L 284.157206 149.635835 
L 284.866244 153.69801 
L 285.56664 149.823344 
L 286.258602 151.607683 
L 286.942331 153.879292 
L 287.618021 151.141009 
L 288.285857 146.649072 
L 288.946022 148.198222 
L 290.882194 160.292344 
L 291.513355 163.661333 
L 292.137658 158.834005 
L 292.755252 148.865031 
L 293.366278 152.833078 
L 293.970876 151.003292 
L 294.569179 153.949253 
L 294.727062 156.722016 
L 295.317583 152.710092 
L 295.902098 152.90287 
L 298.182456 168.508303 
L 298.738681 169.877962 
L 299.289574 164.713145 
L 299.835236 166.014117 
L 300.375766 167.633123 
L 301.441806 173.598873 
L 301.967501 169.072526 
L 302.48843 168.777881 
L 303.00468 168.886148 
L 303.516332 167.38159 
L 304.023469 170.251928 
L 305.024511 177.471882 
L 306.008413 161.254639 
L 306.494118 165.019276 
L 308.396896 176.450387 
L 309.325168 174.696634 
L 309.783741 167.528793 
L 310.238684 165.566296 
L 310.690052 168.004878 
L 311.137904 168.248841 
L 311.25628 169.401486 
L 311.699756 167.658994 
L 312.139837 157.812519 
L 313.010014 164.489118 
L 313.440211 160.657578 
L 313.867211 159.612025 
L 314.711809 161.055567 
L 315.129498 163.647279 
L 315.544173 163.672914 
L 315.955876 162.266946 
L 316.364652 162.943741 
L 316.770539 163.957004 
L 317.173581 166.505847 
L 317.573814 162.671541 
L 318.366015 169.310931 
L 318.758058 167.738484 
L 319.534209 173.990028 
L 319.918388 173.647061 
L 320.300016 171.149252 
L 320.679126 165.157692 
L 321.429925 172.051597 
L 321.801677 167.934015 
L 322.17104 171.854893 
L 322.538044 173.51237 
L 322.902719 172.481986 
L 323.265094 175.062839 
L 323.625199 170.815407 
L 323.983061 173.109459 
L 324.077744 175.628424 
L 324.432808 178.888796 
L 324.785691 170.922014 
L 325.13642 169.9642 
L 325.485021 171.380555 
L 325.831521 175.284054 
L 326.175944 171.523661 
L 326.518314 174.805744 
L 326.858657 176.181302 
L 327.196996 179.840748 
L 327.533355 176.501323 
L 328.200223 183.337856 
L 328.530777 182.958765 
L 328.85944 184.247859 
L 329.511181 190.425 
L 329.834301 180.374639 
L 330.155613 176.126284 
L 330.475139 173.975647 
L 330.792898 174.529484 
L 331.10891 168.409809 
L 331.423193 170.823051 
L 331.735767 168.132365 
L 332.04665 172.068913 
L 332.35586 173.441885 
L 332.663415 171.449407 
L 333.273631 175.480221 
L 333.576326 171.460004 
L 334.176974 178.175915 
L 334.47496 179.120168 
L 334.553853 179.95786 
L 334.849896 178.576774 
L 335.144422 182.450461 
L 335.437446 184.106888 
L 335.728983 180.573118 
L 336.019049 183.843316 
L 336.307658 182.53007 
L 336.880563 186.831766 
L 337.164888 188.327713 
L 337.729352 185.883609 
L 338.288325 176.129506 
L 338.565785 179.131292 
L 338.841913 179.414859 
L 339.11672 181.528392 
L 339.662422 187.565613 
L 339.933343 188.067537 
L 340.471381 193.785281 
L 340.738523 197.077294 
L 341.004428 192.639525 
L 341.532577 198.411611 
L 341.794842 193.086726 
L 342.055915 195.531744 
L 342.315808 196.529963 
L 342.57453 198.005207 
L 342.832093 188.812921 
L 343.088507 184.580004 
L 343.665246 192.473938 
L 343.917977 190.786439 
L 344.169601 190.33054 
L 344.420128 185.039195 
L 344.669568 184.875381 
L 344.91793 186.571756 
L 345.411456 192.747643 
L 345.656639 194.978762 
L 345.90078 185.281376 
L 346.143888 188.081479 
L 346.385972 182.169464 
L 347.817443 195.71171 
L 348.052592 197.142775 
L 348.286783 200.25186 
L 348.520024 197.229946 
L 349.214119 201.793664 
L 349.443634 197.529319 
L 349.899931 203.081585 
L 350.126728 198.225523 
L 350.352633 198.646646 
L 350.577654 196.994025 
L 351.025069 202.583406 
L 351.08423 197.699303 
L 351.30641 197.525881 
L 351.527734 198.959433 
L 351.748209 185.227918 
L 351.967841 187.181678 
L 352.186637 190.245282 
L 352.404603 189.693163 
L 352.621745 193.201662 
L 352.83807 194.716722 
L 353.053583 192.320053 
L 353.482201 198.336231 
L 354.119191 204.901179 
L 354.329962 199.789549 
L 354.957675 208.151604 
L 355.165399 208.079425 
L 355.372373 202.982769 
L 355.578606 202.022086 
L 356.192898 185.179913 
L 356.396212 185.575872 
L 356.598809 180.653578 
L 356.800694 182.365679 
L 357.202348 188.301779 
L 357.601215 193.975566 
L 357.799615 190.888022 
L 357.8522 193.606668 
L 358.049736 192.022941 
L 358.246596 195.623085 
L 358.442784 194.362266 
L 358.638305 196.545206 
L 358.833162 191.375424 
L 359.027361 192.56511 
L 359.413801 198.898207 
L 359.60605 197.905651 
L 359.797659 198.135365 
L 359.988631 201.435538 
L 360.178971 201.695126 
L 360.368682 197.549145 
L 360.746235 203.744033 
L 360.934086 203.353273 
L 361.121324 205.944327 
L 361.307954 193.355813 
L 361.679407 199.983403 
L 361.864236 199.651141 
L 362.048473 203.252196 
L 362.415184 194.85533 
L 362.9609 205.245895 
L 363.14166 196.682097 
L 363.680553 205.465393 
L 363.859066 207.94585 
L 363.906391 200.73041 
L 364.438192 206.796864 
L 364.614371 207.7435 
L 364.790012 210.299626 
L 364.965117 207.124779 
L 365.313735 214.168227 
L 365.487254 212.40631 
L 365.832728 215.785206 
L 366.00469 218.592278 
L 366.176138 212.617228 
L 366.517508 217.16265 
L 366.687435 213.037933 
L 366.856861 212.118968 
L 367.02579 214.565396 
L 367.194223 211.408192 
L 367.362164 211.617056 
L 367.69658 216.050747 
L 368.029062 212.701339 
L 368.359631 215.052869 
L 368.851946 220.703566 
L 369.015118 222.40235 
L 369.340079 223.457768 
L 369.3831 220.313424 
L 369.544773 219.640754 
L 369.705992 221.083783 
L 369.86676 218.334303 
L 370.02708 221.217723 
L 370.186954 216.031131 
L 370.505373 219.178502 
L 370.822038 211.011998 
L 370.979719 210.588624 
L 371.45018 218.252551 
L 371.606149 213.831528 
L 371.761695 216.411081 
L 371.916821 208.710052 
L 372.07153 207.643719 
L 372.379704 211.483254 
L 372.533173 213.488756 
L 372.686233 213.877783 
L 372.991137 219.244472 
L 373.44548 225.421714 
L 373.596132 224.856889 
L 373.896258 228.638417 
L 374.045736 224.977801 
L 374.343528 229.586465 
L 374.382963 231.123387 
L 374.531181 229.545233 
L 374.679018 230.645682 
L 374.826476 227.95669 
L 374.973556 222.604249 
L 375.266591 223.949489 
L 375.412551 224.337274 
L 375.703362 228.3088 
L 376.136837 236.017942 
L 376.280606 235.917531 
L 376.424015 226.952223 
L 376.709765 230.608031 
L 376.852109 229.007846 
L 376.994101 231.039438 
L 377.135743 230.682131 
L 377.277037 231.642417 
L 377.417984 231.684996 
L 377.558586 232.586647 
L 377.698846 229.252143 
L 377.978341 233.196334 
L 378.117581 232.993194 
L 378.256484 235.041521 
L 378.395052 232.535205 
L 378.533287 233.811962 
L 378.67119 226.062136 
L 378.982407 233.887836 
L 379.255744 228.842972 
L 379.663326 233.436635 
L 379.798547 235.607567 
L 379.93345 231.125551 
L 380.068038 232.377029 
L 380.202311 231.013675 
L 380.736287 239.099644 
L 380.869009 238.818631 
L 381.133538 241.374768 
L 381.265347 237.352738 
L 381.528062 242.17096 
L 381.65897 232.311919 
L 382.049915 237.40004 
L 382.179641 230.227803 
L 382.309075 232.958834 
L 382.438218 230.544053 
L 382.567071 233.082819 
L 382.695637 232.707379 
L 382.823915 234.214777 
L 382.951907 232.259447 
L 383.20704 234.247245 
L 383.24084 236.86343 
L 383.367908 237.864758 
L 383.621205 241.417725 
L 383.747436 243.109237 
L 383.87339 242.056085 
L 384.124473 225.801795 
L 384.249604 228.343282 
L 384.374464 223.836833 
L 384.871206 232.548111 
L 384.994724 233.776299 
L 385.117977 229.60507 
L 385.240966 232.407547 
L 385.363692 232.556922 
L 385.486156 231.815358 
L 385.608361 220.26924 
L 385.973422 228.306731 
L 386.094595 230.460596 
L 386.215514 223.971202 
L 386.45659 228.352753 
L 386.57675 225.445578 
L 386.93573 231.445316 
L 387.054893 228.369978 
L 387.442323 234.547523 
L 387.560442 235.846739 
L 387.678318 239.070742 
L 387.795953 238.960835 
L 387.913347 240.563917 
L 388.030503 238.972772 
L 388.147419 241.128118 
L 388.380542 234.084161 
L 388.612722 239.545425 
L 388.843969 232.558665 
L 388.959244 232.69052 
L 389.532176 244.05467 
L 389.64608 231.896561 
L 389.759759 234.624716 
L 389.873213 233.35723 
L 389.986444 235.702746 
L 390.099452 233.954414 
L 390.212238 234.642721 
L 390.437149 228.810839 
L 390.661183 234.856807 
L 390.772873 234.392547 
L 390.884346 235.926477 
L 391.025121 241.289748 
L 391.136107 243.331184 
L 391.246878 242.044311 
L 391.357437 245.20338 
L 391.577918 235.268083 
L 391.687843 235.902816 
L 392.125449 243.164108 
L 392.559748 250.794821 
L 392.667812 253.189359 
L 392.883332 252.132132 
L 393.205103 253.292261 
L 393.311962 250.327882 
L 393.418621 252.808057 
L 393.631349 244.200888 
L 393.737418 244.400008 
L 393.948971 246.832988 
L 394.159748 245.029776 
L 394.264847 247.270466 
L 394.369754 246.752227 
L 394.397588 247.314496 
L 394.502253 246.874615 
L 394.606729 248.682022 
L 394.711014 247.87091 
L 394.815111 248.005025 
L 395.126274 254.071141 
L 395.229622 251.713798 
L 395.435762 254.816129 
L 395.538555 256.300907 
L 395.743591 248.59545 
L 395.845836 247.170499 
L 396.049781 251.621296 
L 396.151482 250.357759 
L 396.455512 256.678222 
L 396.556499 242.529482 
L 396.657308 243.442553 
L 396.757941 245.458748 
L 396.95868 242.386225 
L 397.457481 247.999921 
L 397.655795 252.74669 
L 397.682083 251.843182 
L 397.780938 247.865044 
L 397.978142 253.05082 
L 398.07649 249.493607 
L 398.370529 257.096543 
L 398.468209 256.57017 
L 398.565722 258.301303 
L 398.663071 256.836762 
L 398.857275 252.304824 
L 399.050825 255.759626 
L 399.147356 256.441343 
L 399.243725 255.883991 
L 399.339933 257.92092 
L 399.43598 254.354668 
L 399.531867 254.479612 
L 399.627594 253.482771 
L 399.723161 256.199338 
L 399.913822 254.28065 
L 400.008915 254.901584 
L 400.103851 253.112791 
L 400.670198 262.52107 
L 400.764049 262.21974 
L 400.88261 264.432626 
L 400.976115 258.783638 
L 401.16267 261.364401 
L 401.25572 258.962135 
L 401.348621 260.155528 
L 401.533972 259.313479 
L 401.810882 265.021382 
L 401.90289 265.536413 
L 401.994751 267.342585 
L 402.086465 264.76944 
L 402.269455 267.403393 
L 402.360732 264.707437 
L 402.542853 257.184665 
L 402.724398 260.90781 
L 402.814955 258.504641 
L 402.905371 260.008303 
L 402.995644 258.08045 
L 403.265616 261.778862 
L 403.355326 260.23411 
L 403.623618 266.951295 
L 403.71277 262.008255 
L 403.736428 264.154274 
L 403.825407 263.924263 
L 404.002951 268.002631 
L 404.091518 260.513121 
L 404.179948 261.777589 
L 404.268243 261.836527 
L 404.444426 262.40442 
L 404.532315 261.690286 
L 404.620071 262.807024 
L 404.882535 256.436554 
L 404.969758 256.6602 
L 405.056848 255.262809 
L 405.403895 263.816155 
L 405.49033 261.835335 
L 405.576636 262.389927 
L 405.748859 266.824506 
L 405.834777 263.193206 
L 405.920567 264.603669 
L 406.00623 264.085317 
L 406.091764 261.651909 
L 406.177172 263.593626 
L 406.262453 263.457552 
L 406.347607 262.935671 
L 406.54007 253.741461 
L 406.624814 253.955496 
L 406.8783 259.452964 
L 406.962547 259.900707 
L 407.214551 265.058266 
L 407.298307 263.36476 
L 407.381941 263.507888 
L 407.963998 272.458229 
L 408.04667 270.338487 
L 408.129223 262.062609 
L 408.211657 263.771451 
L 408.293974 264.188664 
L 408.376172 262.069761 
L 408.540218 265.399392 
L 408.703797 264.750715 
L 408.866911 268.872334 
L 408.948295 267.429783 
L 409.029563 269.747659 
L 409.110717 269.391441 
L 409.213264 268.420021 
L 409.294159 267.373661 
L 409.37494 267.3832 
L 409.616605 272.122908 
L 409.696935 269.741384 
L 409.777153 270.472894 
L 409.857258 268.807888 
L 409.937253 260.463394 
L 410.017136 261.853053 
L 410.335562 268.687045 
L 410.414894 267.402759 
L 410.494116 267.643911 
L 410.652234 270.701002 
L 410.73113 270.63478 
L 410.888597 271.513074 
L 410.96717 271.309089 
L 411.123993 272.164299 
L 411.202244 271.437838 
L 411.358428 272.536614 
L 411.669528 275.642365 
L 411.74704 275.501198 
L 411.767612 276.664401 
L 411.844992 276.549727 
L 411.999441 278.579619 
L 412.153476 269.41172 
L 412.307099 273.477561 
L 412.383757 272.491938 
L 412.460313 274.31741 
L 412.536766 273.660104 
L 412.917517 279.413638 
L 412.993366 276.50091 
L 413.069114 278.26779 
L 413.144763 277.896098 
L 413.220312 278.569062 
L 413.295762 277.08398 
L 413.371113 277.155758 
L 413.446365 276.969323 
L 413.521519 277.070386 
L 413.895822 283.307604 
L 413.970391 278.712616 
L 414.044863 279.259142 
L 414.119239 280.425134 
L 414.213233 277.831495 
L 414.435421 282.216859 
L 414.435421 282.216859 
" clip-path="url(#p2895184310)" style="fill: none; stroke: #ff7f0e; stroke-opacity: 0.4; stroke-linecap: square"/>
   </g>
   <g id="line2d_43">
    <path d="M 115.520157 -1 
L 124.619299 8.493528 
L 135.066491 20.542571 
L 143.903372 30.439949 
L 151.560701 34.841779 
L 158.316609 42.797243 
L 164.361149 51.279068 
L 169.829961 52.836635 
L 179.417116 67.046137 
L 191.336094 85.515465 
L 194.816566 86.543274 
L 198.09822 89.675753 
L 201.202549 95.015654 
L 204.147737 97.227226 
L 206.949308 99.81386 
L 209.62062 103.293925 
L 212.17325 107.623167 
L 214.617296 105.672024 
L 216.96162 108.375384 
L 219.214042 108.43477 
L 221.381497 110.710102 
L 223.470162 114.619984 
L 225.485566 111.397515 
L 227.432674 116.150403 
L 229.315963 114.969121 
L 231.139485 117.090423 
L 231.614286 121.143613 
L 233.367394 124.409044 
L 235.068598 128.732084 
L 236.720884 130.245952 
L 238.326986 124.60527 
L 239.889417 125.897168 
L 241.410487 129.253874 
L 242.892332 129.297592 
L 244.336923 132.609565 
L 245.746087 124.58657 
L 247.121521 128.501481 
L 248.464802 129.009769 
L 251.060681 136.440652 
L 252.31593 138.874524 
L 253.544345 136.006619 
L 254.747049 135.623122 
L 258.211125 145.394039 
L 259.320916 148.39398 
L 260.40968 150.975443 
L 261.478199 152.335983 
L 262.527211 156.111755 
L 264.569477 160.892804 
L 265.564022 159.829988 
L 267.502917 164.946353 
L 268.448372 165.999142 
L 269.378522 164.094534 
L 270.293856 158.758903 
L 271.194839 159.638715 
L 271.431806 162.062017 
L 272.315257 162.246818 
L 273.185332 164.856703 
L 274.042429 167.933766 
L 274.88693 167.745344 
L 275.719199 166.083388 
L 276.539587 168.73758 
L 277.348427 170.163624 
L 278.932733 174.910376 
L 279.708802 175.810711 
L 280.47453 158.790105 
L 281.976038 148.530019 
L 283.439309 153.711587 
L 284.157206 152.998564 
L 284.866244 148.7748 
L 285.56664 152.001678 
L 286.258602 154.303745 
L 286.942331 154.279733 
L 287.618021 156.758603 
L 288.285857 158.651829 
L 288.946022 157.263915 
L 289.598688 161.153921 
L 290.244024 156.925981 
L 290.882194 158.816011 
L 291.513355 162.444765 
L 292.137658 161.078297 
L 292.755252 161.499271 
L 293.366278 164.76965 
L 293.970876 163.451053 
L 294.569179 164.914632 
L 294.727062 166.837419 
L 295.317583 160.483204 
L 295.902098 159.96986 
L 296.480727 155.073473 
L 297.620793 158.779066 
L 298.182456 146.782452 
L 298.738681 150.774045 
L 299.289574 149.527963 
L 299.835236 152.396516 
L 300.375766 156.240926 
L 300.911258 153.898793 
L 301.441806 157.199475 
L 301.967501 153.447473 
L 303.00468 159.765489 
L 303.516332 160.335887 
L 304.52617 165.209716 
L 305.518568 171.817118 
L 306.008413 167.069878 
L 306.975751 169.762723 
L 307.453382 168.13458 
L 307.927076 161.268406 
L 308.396896 164.677348 
L 308.862907 165.650738 
L 309.325168 169.336956 
L 309.783741 171.767194 
L 310.238684 165.115534 
L 310.690052 168.632896 
L 311.25628 163.532985 
L 311.699756 167.510515 
L 312.139837 165.044328 
L 313.010014 172.903189 
L 313.440211 175.906728 
L 314.291062 166.586146 
L 314.711809 168.705775 
L 315.129498 172.609512 
L 315.544173 174.862117 
L 315.955876 171.822964 
L 316.364652 170.770764 
L 316.770539 167.963547 
L 317.573814 172.814618 
L 317.97128 173.733416 
L 318.758058 176.287898 
L 319.147444 180.033174 
L 319.534209 177.475012 
L 320.300016 183.761459 
L 320.679126 185.782509 
L 321.055751 183.733193 
L 321.429925 186.740553 
L 321.801677 185.892714 
L 322.17104 188.339289 
L 322.538044 189.606424 
L 322.902719 185.304279 
L 323.265094 175.610173 
L 323.625199 174.874299 
L 323.983061 178.495044 
L 324.077744 174.322853 
L 324.432808 176.363329 
L 324.785691 174.86571 
L 325.13642 177.470158 
L 325.485021 177.965944 
L 325.831521 179.218965 
L 326.175944 181.714637 
L 326.518314 183.141043 
L 326.858657 181.628479 
L 327.533355 188.407693 
L 327.867756 186.516492 
L 328.85944 194.8708 
L 329.186235 194.582818 
L 329.511181 196.65596 
L 329.834301 182.479028 
L 330.155613 184.063997 
L 330.475139 180.418645 
L 330.792898 180.109116 
L 331.10891 182.993292 
L 331.423193 179.494654 
L 331.735767 177.867307 
L 332.04665 170.130443 
L 332.663415 178.243203 
L 332.969333 170.374584 
L 333.273631 171.577104 
L 333.576326 174.299884 
L 333.877434 174.453785 
L 334.47496 180.441508 
L 334.553853 180.21589 
L 334.849896 179.749289 
L 335.144422 181.305397 
L 335.728983 186.169871 
L 336.019049 186.428765 
L 336.594824 192.889928 
L 336.880563 182.284449 
L 337.164888 183.444989 
L 337.729352 175.700012 
L 338.009518 178.768889 
L 338.288325 174.961185 
L 338.565785 173.034689 
L 338.841913 169.497266 
L 339.390219 174.772552 
L 339.662422 172.665206 
L 340.738523 186.755629 
L 341.004428 185.914382 
L 341.269109 180.695278 
L 341.794842 188.22592 
L 342.055915 189.225748 
L 342.315808 188.085161 
L 342.57453 190.910434 
L 343.088507 169.174472 
L 343.343781 171.896175 
L 343.411399 171.00148 
L 343.665246 171.872523 
L 344.669568 186.843299 
L 344.91793 184.905805 
L 345.165223 185.646896 
L 345.656639 191.710245 
L 345.90078 183.745784 
L 346.385972 188.703978 
L 346.62704 188.785265 
L 347.106165 185.962453 
L 347.344237 187.393041 
L 347.581327 184.213806 
L 347.817443 185.973483 
L 348.286783 183.445678 
L 348.520024 186.974171 
L 348.752322 187.962515 
L 348.983685 192.130038 
L 349.214119 191.116762 
L 349.443634 194.702374 
L 349.672235 195.581972 
L 350.126728 201.200648 
L 350.352633 198.304766 
L 350.801797 205.696358 
L 351.025069 205.474762 
L 351.08423 208.698094 
L 351.527734 214.448092 
L 351.748209 208.989611 
L 351.967841 210.235552 
L 352.186637 213.033401 
L 352.404603 212.173596 
L 352.621745 206.755439 
L 352.83807 206.236274 
L 353.268292 210.873205 
L 353.482201 212.284012 
L 353.695316 210.458031 
L 354.539963 220.79228 
L 354.749199 221.930949 
L 354.957675 220.232952 
L 355.165399 220.937409 
L 355.372373 221.053906 
L 355.578606 224.002926 
L 355.7841 224.360807 
L 355.988863 222.03466 
L 356.396212 224.768219 
L 356.598809 220.996311 
L 356.800694 223.161759 
L 357.001872 224.066686 
L 357.202348 217.694599 
L 357.402127 218.822858 
L 357.601215 222.155807 
L 357.799615 219.410189 
L 357.8522 219.659917 
L 358.049736 218.734174 
L 358.246596 212.982411 
L 358.833162 220.032897 
L 359.027361 219.4274 
L 359.60605 206.535851 
L 359.797659 210.555647 
L 359.988631 210.733929 
L 360.178971 196.177424 
L 360.368682 195.576474 
L 360.557768 199.699631 
L 360.746235 197.208348 
L 360.934086 198.112509 
L 361.307954 205.752517 
L 361.493981 199.623623 
L 361.679407 203.861643 
L 361.864236 200.26552 
L 362.232121 207.743824 
L 362.597666 208.250413 
L 362.77957 205.372378 
L 363.680553 219.270532 
L 363.859066 218.220849 
L 363.906391 216.056951 
L 364.084205 217.46567 
L 364.261471 217.939255 
L 364.438192 213.713872 
L 364.614371 214.751663 
L 364.965117 220.889419 
L 365.13969 222.331066 
L 365.313735 221.551745 
L 365.487254 221.750891 
L 365.832728 228.145862 
L 366.347076 234.173359 
L 366.517508 225.969989 
L 366.687435 225.37201 
L 366.856861 222.854669 
L 367.02579 222.853707 
L 367.529615 230.352507 
L 367.863061 234.826952 
L 368.029062 234.786191 
L 368.194584 235.272793 
L 368.688309 240.705492 
L 368.851946 239.481973 
L 369.177828 235.176145 
L 369.340079 235.705438 
L 369.3831 223.945275 
L 369.544773 227.361061 
L 369.705992 223.513583 
L 369.86676 226.433279 
L 370.02708 226.027894 
L 370.346384 230.817565 
L 370.505373 227.146301 
L 370.663924 229.785402 
L 370.822038 230.390202 
L 370.979719 223.329341 
L 371.136967 224.42032 
L 371.606149 232.931865 
L 371.761695 231.498827 
L 371.916821 231.315499 
L 372.07153 233.916525 
L 372.225824 216.802307 
L 372.533173 222.293329 
L 372.686233 225.717139 
L 372.838887 225.394593 
L 372.991137 228.55734 
L 373.142984 227.229614 
L 373.294431 229.558257 
L 373.44548 229.14226 
L 373.596132 231.661509 
L 373.896258 222.876203 
L 374.045736 218.050437 
L 374.679018 233.023863 
L 374.973556 229.847554 
L 375.12026 230.663918 
L 375.266591 229.803724 
L 376.136837 238.680971 
L 376.280606 241.281127 
L 376.424015 241.423687 
L 376.567068 243.508205 
L 376.852109 237.662379 
L 376.994101 239.599211 
L 377.135743 234.515159 
L 377.558586 242.477146 
L 377.698846 242.086633 
L 377.838763 243.194965 
L 377.978341 236.211519 
L 378.256484 238.018867 
L 378.395052 236.214588 
L 378.533287 232.06873 
L 378.67119 233.95747 
L 378.808763 233.471714 
L 379.255744 243.637277 
L 379.663326 251.372486 
L 379.798547 252.564086 
L 379.93345 250.061721 
L 380.068038 251.188633 
L 380.202311 249.326149 
L 380.736287 256.060589 
L 381.001426 260.039501 
L 381.133538 257.366239 
L 381.396854 262.499918 
L 381.65897 255.218611 
L 382.179641 263.039769 
L 382.309075 264.408099 
L 382.438218 261.491435 
L 382.567071 254.172807 
L 382.695637 256.552388 
L 382.823915 251.247725 
L 382.951907 252.418307 
L 383.079615 250.325714 
L 383.20704 250.589495 
L 383.24084 240.796666 
L 383.494696 244.430499 
L 383.621205 247.4262 
L 383.747436 247.10303 
L 383.999069 251.131435 
L 384.124473 251.891791 
L 384.249604 244.81615 
L 385.117977 261.104446 
L 385.240966 260.327161 
L 385.608361 267.140498 
L 385.730306 268.432902 
L 385.851992 254.401934 
L 386.094595 259.384 
L 386.45659 264.328529 
L 386.57675 264.402449 
L 386.696659 258.426835 
L 387.054893 265.165852 
L 387.205356 259.993485 
L 387.442323 265.290154 
L 387.560442 265.368821 
L 387.795953 255.321403 
L 388.030503 257.686988 
L 388.264099 252.157538 
L 388.612722 260.354408 
L 388.728462 259.331645 
L 389.303688 270.631669 
L 389.418045 270.2339 
L 389.532176 267.602344 
L 389.759759 271.032013 
L 389.873213 271.669416 
L 390.099452 275.26079 
L 390.212238 274.270942 
L 390.437149 276.675582 
L 390.661183 268.604806 
L 391.025121 272.635511 
L 391.136107 263.764147 
L 391.467784 268.767894 
L 391.577918 268.405427 
L 391.797557 262.844661 
L 392.125449 270.954005 
L 392.343009 268.636399 
L 392.451481 269.476953 
L 392.667812 274.375242 
L 392.883332 270.45903 
L 392.990789 273.117065 
L 393.098046 269.930637 
L 393.311962 271.333186 
L 393.418621 271.431002 
L 394.054456 282.628013 
L 394.369754 271.291279 
L 394.502253 274.144273 
L 394.711014 277.724157 
L 394.815111 274.580383 
L 395.02274 266.192619 
L 395.435762 277.048315 
L 395.538555 263.054047 
L 396.049781 274.655079 
L 396.151482 274.419768 
L 396.253004 277.198447 
L 396.354347 276.664218 
L 396.455512 277.225126 
L 396.556499 277.016528 
L 396.657308 274.831375 
L 396.757941 276.824147 
L 396.858399 275.371885 
L 396.95868 276.228535 
L 397.058787 271.100305 
L 397.158721 272.983924 
L 397.358067 269.326969 
L 397.457481 269.60929 
L 397.556724 271.503507 
L 397.655795 269.472598 
L 397.682083 270.909896 
L 397.879625 274.191791 
L 398.17467 279.997877 
L 398.272683 281.156094 
L 398.370529 279.603511 
L 398.468209 280.082468 
L 398.565722 282.178985 
L 398.663071 280.955891 
L 398.857275 284.382715 
L 398.954132 284.086365 
L 399.147356 274.805951 
L 399.243725 274.627461 
L 399.339933 266.88944 
L 399.531867 271.735176 
L 399.723161 275.433432 
L 399.818571 269.552626 
L 400.008915 271.24035 
L 400.103851 270.808764 
L 400.198631 268.83741 
L 400.387723 272.477547 
L 400.576194 265.241473 
L 400.88261 272.987201 
L 400.976115 269.322868 
L 401.348621 276.206118 
L 401.441371 276.636315 
L 401.718727 284.566207 
L 401.810882 284.426486 
L 401.90289 286.25476 
L 401.994751 279.765223 
L 402.086465 280.039149 
L 402.451865 284.769144 
L 402.542853 286.746227 
L 402.633697 285.55712 
L 402.724398 287.779205 
L 402.905371 277.728661 
L 402.995644 279.503463 
L 403.085776 279.211083 
L 403.175766 280.139939 
L 403.444896 285.378145 
L 403.534326 277.724677 
L 404.179948 294.243509 
L 404.268243 293.561034 
L 404.356402 293.810636 
L 404.532315 297.546643 
L 404.620071 299.373856 
L 404.707692 298.233799 
L 405.143806 304.302066 
L 405.230634 302.352319 
L 405.49033 305.211756 
L 405.576636 303.965628 
L 405.920567 308.192288 
L 406.00623 295.357955 
L 406.091764 295.5905 
L 406.347607 298.371812 
L 406.517538 300.689181 
L 406.624814 298.923455 
L 406.709434 299.190686 
L 406.793929 298.409922 
L 406.8783 299.632598 
L 406.962547 297.631196 
L 407.046671 299.734701 
L 407.214551 296.128659 
L 407.381941 295.728798 
L 407.548846 299.534771 
L 407.632116 299.420096 
L 407.881207 302.177093 
L 407.963998 298.701693 
L 408.04667 300.277381 
L 408.129223 299.63384 
L 408.376172 300.693955 
L 408.458254 301.902471 
L 408.540218 293.632801 
L 408.622065 295.660326 
L 408.866911 301.368893 
L 408.948295 300.862923 
L 409.029563 298.033583 
L 409.536163 309.19898 
L 409.616605 308.725341 
L 409.777153 305.402991 
L 410.017136 299.224155 
L 410.494116 305.337255 
L 410.573229 300.732821 
L 410.652234 302.121887 
L 410.809917 304.581591 
L 411.045635 297.462126 
L 411.123993 297.707262 
L 411.202244 295.32398 
L 411.436361 301.34528 
L 411.669528 289.273779 
L 411.74704 290.745785 
L 411.767612 291.016268 
L 412.153476 300.40971 
L 412.230339 298.91206 
L 412.383757 301.879122 
L 412.68937 308.432143 
L 412.765519 305.541591 
L 412.841569 305.582266 
L 413.144763 301.716891 
L 413.220312 303.533569 
L 413.295762 302.795132 
L 413.371113 294.711694 
L 413.446365 297.293254 
L 413.671533 304.430377 
L 413.746393 304.487736 
L 413.821156 300.657685 
L 413.895822 302.99339 
L 413.970391 302.875343 
L 414.044863 303.438671 
L 414.287391 308.645001 
L 414.435421 301.33303 
L 414.435421 301.33303 
" clip-path="url(#p2895184310)" style="fill: none; stroke: #2ca02c; stroke-opacity: 0.4; stroke-linecap: square"/>
   </g>
   <g id="patch_3">
    <path d="M 57.6 307.584 
L 57.6 41.472 
" style="fill: none; stroke: #000000; stroke-width: 0.8; stroke-linejoin: miter; stroke-linecap: square"/>
   </g>
   <g id="patch_4">
    <path d="M 414.72 307.584 
L 414.72 41.472 
" style="fill: none; stroke: #000000; stroke-width: 0.8; stroke-linejoin: miter; stroke-linecap: square"/>
   </g>
   <g id="patch_5">
    <path d="M 57.6 307.584 
L 414.72 307.584 
" style="fill: none; stroke: #000000; stroke-width: 0.8; stroke-linejoin: miter; stroke-linecap: square"/>
   </g>
   <g id="patch_6">
    <path d="M 57.6 41.472 
L 414.72 41.472 
" style="fill: none; stroke: #000000; stroke-width: 0.8; stroke-linejoin: miter; stroke-linecap: square"/>
   </g>
   <g id="text_8">
    <!-- 2025-02-21-00:26:22 -->
    <g transform="translate(172.178438 35.472) scale(0.12 -0.12)">
     <defs>
      <path id="DejaVuSans-35" d="M 691 4666 
L 3169 4666 
L 3169 4134 
L 1269 4134 
L 1269 2991 
Q 1406 3038 1543 3061 
Q 1681 3084 1819 3084 
Q 2600 3084 3056 2656 
Q 3513 2228 3513 1497 
Q 3513 744 3044 326 
Q 2575 -91 1722 -91 
Q 1428 -91 1123 -41 
Q 819 9 494 109 
L 494 744 
Q 775 591 1075 516 
Q 1375 441 1709 441 
Q 2250 441 2565 725 
Q 2881 1009 2881 1497 
Q 2881 1984 2565 2268 
Q 2250 2553 1709 2553 
Q 1456 2553 1204 2497 
Q 953 2441 691 2322 
L 691 4666 
z
" transform="scale(0.015625)"/>
      <path id="DejaVuSans-2d" d="M 313 2009 
L 1997 2009 
L 1997 1497 
L 313 1497 
L 313 2009 
z
" transform="scale(0.015625)"/>
      <path id="DejaVuSans-3a" d="M 750 794 
L 1409 794 
L 1409 0 
L 750 0 
L 750 794 
z
M 750 3309 
L 1409 3309 
L 1409 2516 
L 750 2516 
L 750 3309 
z
" transform="scale(0.015625)"/>
      <path id="DejaVuSans-36" d="M 2113 2584 
Q 1688 2584 1439 2293 
Q 1191 2003 1191 1497 
Q 1191 994 1439 701 
Q 1688 409 2113 409 
Q 2538 409 2786 701 
Q 3034 994 3034 1497 
Q 3034 2003 2786 2293 
Q 2538 2584 2113 2584 
z
M 3366 4563 
L 3366 3988 
Q 3128 4100 2886 4159 
Q 2644 4219 2406 4219 
Q 1781 4219 1451 3797 
Q 1122 3375 1075 2522 
Q 1259 2794 1537 2939 
Q 1816 3084 2150 3084 
Q 2853 3084 3261 2657 
Q 3669 2231 3669 1497 
Q 3669 778 3244 343 
Q 2819 -91 2113 -91 
Q 1303 -91 875 529 
Q 447 1150 447 2328 
Q 447 3434 972 4092 
Q 1497 4750 2381 4750 
Q 2619 4750 2861 4703 
Q 3103 4656 3366 4563 
z
" transform="scale(0.015625)"/>
     </defs>
     <use xlink:href="#DejaVuSans-32"/>
     <use xlink:href="#DejaVuSans-30" x="63.623047"/>
     <use xlink:href="#DejaVuSans-32" x="127.246094"/>
     <use xlink:href="#DejaVuSans-35" x="190.869141"/>
     <use xlink:href="#DejaVuSans-2d" x="254.492188"/>
     <use xlink:href="#DejaVuSans-30" x="290.576172"/>
     <use xlink:href="#DejaVuSans-32" x="354.199219"/>
     <use xlink:href="#DejaVuSans-2d" x="417.822266"/>
     <use xlink:href="#DejaVuSans-32" x="453.90625"/>
     <use xlink:href="#DejaVuSans-31" x="517.529297"/>
     <use xlink:href="#DejaVuSans-2d" x="581.152344"/>
     <use xlink:href="#DejaVuSans-30" x="617.236328"/>
     <use xlink:href="#DejaVuSans-30" x="680.859375"/>
     <use xlink:href="#DejaVuSans-3a" x="744.482422"/>
     <use xlink:href="#DejaVuSans-32" x="778.173828"/>
     <use xlink:href="#DejaVuSans-36" x="841.796875"/>
     <use xlink:href="#DejaVuSans-3a" x="905.419922"/>
     <use xlink:href="#DejaVuSans-32" x="939.111328"/>
     <use xlink:href="#DejaVuSans-32" x="1002.734375"/>
    </g>
   </g>
   <g id="legend_1">
    <g id="patch_7">
     <path d="M 281.596563 94.34075 
L 407.72 94.34075 
Q 409.72 94.34075 409.72 92.34075 
L 409.72 48.472 
Q 409.72 46.472 407.72 46.472 
L 281.596563 46.472 
Q 279.596563 46.472 279.596563 48.472 
L 279.596563 92.34075 
Q 279.596563 94.34075 281.596563 94.34075 
z
" style="fill: #ffffff; opacity: 0.8; stroke: #cccccc; stroke-linejoin: miter"/>
    </g>
    <g id="line2d_44">
     <path d="M 283.596563 54.570438 
L 293.596563 54.570438 
L 303.596563 54.570438 
" style="fill: none; stroke: #1f77b4; stroke-opacity: 0.4; stroke-linecap: square"/>
    </g>
    <g id="text_9">
     <!-- SchNet eval_loss -->
     <g transform="translate(311.596563 58.070438) scale(0.1 -0.1)">
      <defs>
       <path id="DejaVuSans-53" d="M 3425 4513 
L 3425 3897 
Q 3066 4069 2747 4153 
Q 2428 4238 2131 4238 
Q 1616 4238 1336 4038 
Q 1056 3838 1056 3469 
Q 1056 3159 1242 3001 
Q 1428 2844 1947 2747 
L 2328 2669 
Q 3034 2534 3370 2195 
Q 3706 1856 3706 1288 
Q 3706 609 3251 259 
Q 2797 -91 1919 -91 
Q 1588 -91 1214 -16 
Q 841 59 441 206 
L 441 856 
Q 825 641 1194 531 
Q 1563 422 1919 422 
Q 2459 422 2753 634 
Q 3047 847 3047 1241 
Q 3047 1584 2836 1778 
Q 2625 1972 2144 2069 
L 1759 2144 
Q 1053 2284 737 2584 
Q 422 2884 422 3419 
Q 422 4038 858 4394 
Q 1294 4750 2059 4750 
Q 2388 4750 2728 4690 
Q 3069 4631 3425 4513 
z
" transform="scale(0.015625)"/>
       <path id="DejaVuSans-63" d="M 3122 3366 
L 3122 2828 
Q 2878 2963 2633 3030 
Q 2388 3097 2138 3097 
Q 1578 3097 1268 2742 
Q 959 2388 959 1747 
Q 959 1106 1268 751 
Q 1578 397 2138 397 
Q 2388 397 2633 464 
Q 2878 531 3122 666 
L 3122 134 
Q 2881 22 2623 -34 
Q 2366 -91 2075 -91 
Q 1284 -91 818 406 
Q 353 903 353 1747 
Q 353 2603 823 3093 
Q 1294 3584 2113 3584 
Q 2378 3584 2631 3529 
Q 2884 3475 3122 3366 
z
" transform="scale(0.015625)"/>
       <path id="DejaVuSans-68" d="M 3513 2113 
L 3513 0 
L 2938 0 
L 2938 2094 
Q 2938 2591 2744 2837 
Q 2550 3084 2163 3084 
Q 1697 3084 1428 2787 
Q 1159 2491 1159 1978 
L 1159 0 
L 581 0 
L 581 4863 
L 1159 4863 
L 1159 2956 
Q 1366 3272 1645 3428 
Q 1925 3584 2291 3584 
Q 2894 3584 3203 3211 
Q 3513 2838 3513 2113 
z
" transform="scale(0.015625)"/>
       <path id="DejaVuSans-4e" d="M 628 4666 
L 1478 4666 
L 3547 763 
L 3547 4666 
L 4159 4666 
L 4159 0 
L 3309 0 
L 1241 3903 
L 1241 0 
L 628 0 
L 628 4666 
z
" transform="scale(0.015625)"/>
       <path id="DejaVuSans-20" transform="scale(0.015625)"/>
       <path id="DejaVuSans-76" d="M 191 3500 
L 800 3500 
L 1894 563 
L 2988 3500 
L 3597 3500 
L 2284 0 
L 1503 0 
L 191 3500 
z
" transform="scale(0.015625)"/>
       <path id="DejaVuSans-61" d="M 2194 1759 
Q 1497 1759 1228 1600 
Q 959 1441 959 1056 
Q 959 750 1161 570 
Q 1363 391 1709 391 
Q 2188 391 2477 730 
Q 2766 1069 2766 1631 
L 2766 1759 
L 2194 1759 
z
M 3341 1997 
L 3341 0 
L 2766 0 
L 2766 531 
Q 2569 213 2275 61 
Q 1981 -91 1556 -91 
Q 1019 -91 701 211 
Q 384 513 384 1019 
Q 384 1609 779 1909 
Q 1175 2209 1959 2209 
L 2766 2209 
L 2766 2266 
Q 2766 2663 2505 2880 
Q 2244 3097 1772 3097 
Q 1472 3097 1187 3025 
Q 903 2953 641 2809 
L 641 3341 
Q 956 3463 1253 3523 
Q 1550 3584 1831 3584 
Q 2591 3584 2966 3190 
Q 3341 2797 3341 1997 
z
" transform="scale(0.015625)"/>
       <path id="DejaVuSans-5f" d="M 3263 -1063 
L 3263 -1509 
L -63 -1509 
L -63 -1063 
L 3263 -1063 
z
" transform="scale(0.015625)"/>
      </defs>
      <use xlink:href="#DejaVuSans-53"/>
      <use xlink:href="#DejaVuSans-63" x="63.476562"/>
      <use xlink:href="#DejaVuSans-68" x="118.457031"/>
      <use xlink:href="#DejaVuSans-4e" x="181.835938"/>
      <use xlink:href="#DejaVuSans-65" x="256.640625"/>
      <use xlink:href="#DejaVuSans-74" x="318.164062"/>
      <use xlink:href="#DejaVuSans-20" x="357.373047"/>
      <use xlink:href="#DejaVuSans-65" x="389.160156"/>
      <use xlink:href="#DejaVuSans-76" x="450.683594"/>
      <use xlink:href="#DejaVuSans-61" x="509.863281"/>
      <use xlink:href="#DejaVuSans-6c" x="571.142578"/>
      <use xlink:href="#DejaVuSans-5f" x="598.925781"/>
      <use xlink:href="#DejaVuSans-6c" x="648.925781"/>
      <use xlink:href="#DejaVuSans-6f" x="676.708984"/>
      <use xlink:href="#DejaVuSans-73" x="737.890625"/>
      <use xlink:href="#DejaVuSans-73" x="789.990234"/>
     </g>
    </g>
    <g id="line2d_45">
     <path d="M 283.596563 69.526688 
L 293.596563 69.526688 
L 303.596563 69.526688 
" style="fill: none; stroke: #ff7f0e; stroke-opacity: 0.4; stroke-linecap: square"/>
    </g>
    <g id="text_10">
     <!-- M220 eval_loss -->
     <g transform="translate(311.596563 73.026688) scale(0.1 -0.1)">
      <defs>
       <path id="DejaVuSans-4d" d="M 628 4666 
L 1569 4666 
L 2759 1491 
L 3956 4666 
L 4897 4666 
L 4897 0 
L 4281 0 
L 4281 4097 
L 3078 897 
L 2444 897 
L 1241 4097 
L 1241 0 
L 628 0 
L 628 4666 
z
" transform="scale(0.015625)"/>
      </defs>
      <use xlink:href="#DejaVuSans-4d"/>
      <use xlink:href="#DejaVuSans-32" x="86.279297"/>
      <use xlink:href="#DejaVuSans-32" x="149.902344"/>
      <use xlink:href="#DejaVuSans-30" x="213.525391"/>
      <use xlink:href="#DejaVuSans-20" x="277.148438"/>
      <use xlink:href="#DejaVuSans-65" x="308.935547"/>
      <use xlink:href="#DejaVuSans-76" x="370.458984"/>
      <use xlink:href="#DejaVuSans-61" x="429.638672"/>
      <use xlink:href="#DejaVuSans-6c" x="490.917969"/>
      <use xlink:href="#DejaVuSans-5f" x="518.701172"/>
      <use xlink:href="#DejaVuSans-6c" x="568.701172"/>
      <use xlink:href="#DejaVuSans-6f" x="596.484375"/>
      <use xlink:href="#DejaVuSans-73" x="657.666016"/>
      <use xlink:href="#DejaVuSans-73" x="709.765625"/>
     </g>
    </g>
    <g id="line2d_46">
     <path d="M 283.596563 84.482938 
L 293.596563 84.482938 
L 303.596563 84.482938 
" style="fill: none; stroke: #2ca02c; stroke-opacity: 0.4; stroke-linecap: square"/>
    </g>
    <g id="text_11">
     <!-- MoGIN14 eval_loss -->
     <g transform="translate(311.596563 87.982938) scale(0.1 -0.1)">
      <defs>
       <path id="DejaVuSans-47" d="M 3809 666 
L 3809 1919 
L 2778 1919 
L 2778 2438 
L 4434 2438 
L 4434 434 
Q 4069 175 3628 42 
Q 3188 -91 2688 -91 
Q 1594 -91 976 548 
Q 359 1188 359 2328 
Q 359 3472 976 4111 
Q 1594 4750 2688 4750 
Q 3144 4750 3555 4637 
Q 3966 4525 4313 4306 
L 4313 3634 
Q 3963 3931 3569 4081 
Q 3175 4231 2741 4231 
Q 1884 4231 1454 3753 
Q 1025 3275 1025 2328 
Q 1025 1384 1454 906 
Q 1884 428 2741 428 
Q 3075 428 3337 486 
Q 3600 544 3809 666 
z
" transform="scale(0.015625)"/>
       <path id="DejaVuSans-49" d="M 628 4666 
L 1259 4666 
L 1259 0 
L 628 0 
L 628 4666 
z
" transform="scale(0.015625)"/>
      </defs>
      <use xlink:href="#DejaVuSans-4d"/>
      <use xlink:href="#DejaVuSans-6f" x="86.279297"/>
      <use xlink:href="#DejaVuSans-47" x="147.460938"/>
      <use xlink:href="#DejaVuSans-49" x="224.951172"/>
      <use xlink:href="#DejaVuSans-4e" x="254.443359"/>
      <use xlink:href="#DejaVuSans-31" x="329.248047"/>
      <use xlink:href="#DejaVuSans-34" x="392.871094"/>
      <use xlink:href="#DejaVuSans-20" x="456.494141"/>
      <use xlink:href="#DejaVuSans-65" x="488.28125"/>
      <use xlink:href="#DejaVuSans-76" x="549.804688"/>
      <use xlink:href="#DejaVuSans-61" x="608.984375"/>
      <use xlink:href="#DejaVuSans-6c" x="670.263672"/>
      <use xlink:href="#DejaVuSans-5f" x="698.046875"/>
      <use xlink:href="#DejaVuSans-6c" x="748.046875"/>
      <use xlink:href="#DejaVuSans-6f" x="775.830078"/>
      <use xlink:href="#DejaVuSans-73" x="837.011719"/>
      <use xlink:href="#DejaVuSans-73" x="889.111328"/>
     </g>
    </g>
   </g>
  </g>
 </g>
 <defs>
  <clipPath id="p2895184310">
   <rect x="57.6" y="41.472" width="357.12" height="266.112"/>
  </clipPath>
 </defs>
</svg>
