<?xml version="1.0" encoding="utf-8" standalone="no"?>
<!DOCTYPE svg PUBLIC "-//W3C//DTD SVG 1.1//EN"
  "http://www.w3.org/Graphics/SVG/1.1/DTD/svg11.dtd">
<svg xmlns:xlink="http://www.w3.org/1999/xlink" width="460.8pt" height="345.6pt" viewBox="0 0 460.8 345.6" xmlns="http://www.w3.org/2000/svg" version="1.1">
 <metadata>
  <rdf:RDF xmlns:dc="http://purl.org/dc/elements/1.1/" xmlns:cc="http://creativecommons.org/ns#" xmlns:rdf="http://www.w3.org/1999/02/22-rdf-syntax-ns#">
   <cc:Work>
    <dc:type rdf:resource="http://purl.org/dc/dcmitype/StillImage"/>
    <dc:date>2025-02-18T14:17:46.346414</dc:date>
    <dc:format>image/svg+xml</dc:format>
    <dc:creator>
     <cc:Agent>
      <dc:title>Matplotlib v3.8.4, https://matplotlib.org/</dc:title>
     </cc:Agent>
    </dc:creator>
   </cc:Work>
  </rdf:RDF>
 </metadata>
 <defs>
  <style type="text/css">*{stroke-linejoin: round; stroke-linecap: butt}</style>
 </defs>
 <g id="figure_1">
  <g id="patch_1">
   <path d="M 0 345.6 
L 460.8 345.6 
L 460.8 0 
L 0 0 
z
" style="fill: #ffffff"/>
  </g>
  <g id="axes_1">
   <g id="patch_2">
    <path d="M 57.6 307.584 
L 414.72 307.584 
L 414.72 41.472 
L 57.6 41.472 
z
" style="fill: #ffffff"/>
   </g>
   <g id="matplotlib.axis_1">
    <g id="xtick_1">
     <g id="line2d_1">
      <defs>
       <path id="ma73d622be7" d="M 0 0 
L 0 3.5 
" style="stroke: #000000; stroke-width: 0.8"/>
      </defs>
      <g>
       <use xlink:href="#ma73d622be7" x="144.569149" y="307.584" style="stroke: #000000; stroke-width: 0.8"/>
      </g>
     </g>
     <g id="text_1">
      <!-- $\mathdefault{10^{4}}$ -->
      <g transform="translate(135.769149 322.182437) scale(0.1 -0.1)">
       <defs>
        <path id="DejaVuSans-31" d="M 794 531 
L 1825 531 
L 1825 4091 
L 703 3866 
L 703 4441 
L 1819 4666 
L 2450 4666 
L 2450 531 
L 3481 531 
L 3481 0 
L 794 0 
L 794 531 
z
" transform="scale(0.015625)"/>
        <path id="DejaVuSans-30" d="M 2034 4250 
Q 1547 4250 1301 3770 
Q 1056 3291 1056 2328 
Q 1056 1369 1301 889 
Q 1547 409 2034 409 
Q 2525 409 2770 889 
Q 3016 1369 3016 2328 
Q 3016 3291 2770 3770 
Q 2525 4250 2034 4250 
z
M 2034 4750 
Q 2819 4750 3233 4129 
Q 3647 3509 3647 2328 
Q 3647 1150 3233 529 
Q 2819 -91 2034 -91 
Q 1250 -91 836 529 
Q 422 1150 422 2328 
Q 422 3509 836 4129 
Q 1250 4750 2034 4750 
z
" transform="scale(0.015625)"/>
        <path id="DejaVuSans-34" d="M 2419 4116 
L 825 1625 
L 2419 1625 
L 2419 4116 
z
M 2253 4666 
L 3047 4666 
L 3047 1625 
L 3713 1625 
L 3713 1100 
L 3047 1100 
L 3047 0 
L 2419 0 
L 2419 1100 
L 313 1100 
L 313 1709 
L 2253 4666 
z
" transform="scale(0.015625)"/>
       </defs>
       <use xlink:href="#DejaVuSans-31" transform="translate(0 0.684375)"/>
       <use xlink:href="#DejaVuSans-30" transform="translate(63.623047 0.684375)"/>
       <use xlink:href="#DejaVuSans-34" transform="translate(128.203125 38.965625) scale(0.7)"/>
      </g>
     </g>
    </g>
    <g id="xtick_2">
     <g id="line2d_2">
      <defs>
       <path id="mb9ff09da6c" d="M 0 0 
L 0 2 
" style="stroke: #000000; stroke-width: 0.6"/>
      </defs>
      <g>
       <use xlink:href="#mb9ff09da6c" x="57.6" y="307.584" style="stroke: #000000; stroke-width: 0.6"/>
      </g>
     </g>
     <g id="text_2">
      <!-- $\mathdefault{8\times10^{3}}$ -->
      <g transform="translate(39.5 320.582437) scale(0.1 -0.1)">
       <defs>
        <path id="DejaVuSans-38" d="M 2034 2216 
Q 1584 2216 1326 1975 
Q 1069 1734 1069 1313 
Q 1069 891 1326 650 
Q 1584 409 2034 409 
Q 2484 409 2743 651 
Q 3003 894 3003 1313 
Q 3003 1734 2745 1975 
Q 2488 2216 2034 2216 
z
M 1403 2484 
Q 997 2584 770 2862 
Q 544 3141 544 3541 
Q 544 4100 942 4425 
Q 1341 4750 2034 4750 
Q 2731 4750 3128 4425 
Q 3525 4100 3525 3541 
Q 3525 3141 3298 2862 
Q 3072 2584 2669 2484 
Q 3125 2378 3379 2068 
Q 3634 1759 3634 1313 
Q 3634 634 3220 271 
Q 2806 -91 2034 -91 
Q 1263 -91 848 271 
Q 434 634 434 1313 
Q 434 1759 690 2068 
Q 947 2378 1403 2484 
z
M 1172 3481 
Q 1172 3119 1398 2916 
Q 1625 2713 2034 2713 
Q 2441 2713 2670 2916 
Q 2900 3119 2900 3481 
Q 2900 3844 2670 4047 
Q 2441 4250 2034 4250 
Q 1625 4250 1398 4047 
Q 1172 3844 1172 3481 
z
" transform="scale(0.015625)"/>
        <path id="DejaVuSans-d7" d="M 4488 3438 
L 3059 2003 
L 4488 575 
L 4116 197 
L 2681 1631 
L 1247 197 
L 878 575 
L 2303 2003 
L 878 3438 
L 1247 3816 
L 2681 2381 
L 4116 3816 
L 4488 3438 
z
" transform="scale(0.015625)"/>
        <path id="DejaVuSans-33" d="M 2597 2516 
Q 3050 2419 3304 2112 
Q 3559 1806 3559 1356 
Q 3559 666 3084 287 
Q 2609 -91 1734 -91 
Q 1441 -91 1130 -33 
Q 819 25 488 141 
L 488 750 
Q 750 597 1062 519 
Q 1375 441 1716 441 
Q 2309 441 2620 675 
Q 2931 909 2931 1356 
Q 2931 1769 2642 2001 
Q 2353 2234 1838 2234 
L 1294 2234 
L 1294 2753 
L 1863 2753 
Q 2328 2753 2575 2939 
Q 2822 3125 2822 3475 
Q 2822 3834 2567 4026 
Q 2313 4219 1838 4219 
Q 1578 4219 1281 4162 
Q 984 4106 628 3988 
L 628 4550 
Q 988 4650 1302 4700 
Q 1616 4750 1894 4750 
Q 2613 4750 3031 4423 
Q 3450 4097 3450 3541 
Q 3450 3153 3228 2886 
Q 3006 2619 2597 2516 
z
" transform="scale(0.015625)"/>
       </defs>
       <use xlink:href="#DejaVuSans-38" transform="translate(0 0.765625)"/>
       <use xlink:href="#DejaVuSans-d7" transform="translate(83.105469 0.765625)"/>
       <use xlink:href="#DejaVuSans-31" transform="translate(186.376953 0.765625)"/>
       <use xlink:href="#DejaVuSans-30" transform="translate(250 0.765625)"/>
       <use xlink:href="#DejaVuSans-33" transform="translate(314.580078 39.046875) scale(0.7)"/>
      </g>
     </g>
    </g>
    <g id="xtick_3">
     <g id="line2d_3">
      <g>
       <use xlink:href="#mb9ff09da6c" x="103.505384" y="307.584" style="stroke: #000000; stroke-width: 0.6"/>
      </g>
     </g>
     <g id="text_3">
      <!-- $\mathdefault{9\times10^{3}}$ -->
      <g transform="translate(85.405384 320.582437) scale(0.1 -0.1)">
       <defs>
        <path id="DejaVuSans-39" d="M 703 97 
L 703 672 
Q 941 559 1184 500 
Q 1428 441 1663 441 
Q 2288 441 2617 861 
Q 2947 1281 2994 2138 
Q 2813 1869 2534 1725 
Q 2256 1581 1919 1581 
Q 1219 1581 811 2004 
Q 403 2428 403 3163 
Q 403 3881 828 4315 
Q 1253 4750 1959 4750 
Q 2769 4750 3195 4129 
Q 3622 3509 3622 2328 
Q 3622 1225 3098 567 
Q 2575 -91 1691 -91 
Q 1453 -91 1209 -44 
Q 966 3 703 97 
z
M 1959 2075 
Q 2384 2075 2632 2365 
Q 2881 2656 2881 3163 
Q 2881 3666 2632 3958 
Q 2384 4250 1959 4250 
Q 1534 4250 1286 3958 
Q 1038 3666 1038 3163 
Q 1038 2656 1286 2365 
Q 1534 2075 1959 2075 
z
" transform="scale(0.015625)"/>
       </defs>
       <use xlink:href="#DejaVuSans-39" transform="translate(0 0.765625)"/>
       <use xlink:href="#DejaVuSans-d7" transform="translate(83.105469 0.765625)"/>
       <use xlink:href="#DejaVuSans-31" transform="translate(186.376953 0.765625)"/>
       <use xlink:href="#DejaVuSans-30" transform="translate(250 0.765625)"/>
       <use xlink:href="#DejaVuSans-33" transform="translate(314.580078 39.046875) scale(0.7)"/>
      </g>
     </g>
    </g>
    <g id="xtick_4">
     <g id="line2d_4">
      <g>
       <use xlink:href="#mb9ff09da6c" x="414.72" y="307.584" style="stroke: #000000; stroke-width: 0.6"/>
      </g>
     </g>
     <g id="text_4">
      <!-- $\mathdefault{2\times10^{4}}$ -->
      <g transform="translate(396.62 320.582437) scale(0.1 -0.1)">
       <defs>
        <path id="DejaVuSans-32" d="M 1228 531 
L 3431 531 
L 3431 0 
L 469 0 
L 469 531 
Q 828 903 1448 1529 
Q 2069 2156 2228 2338 
Q 2531 2678 2651 2914 
Q 2772 3150 2772 3378 
Q 2772 3750 2511 3984 
Q 2250 4219 1831 4219 
Q 1534 4219 1204 4116 
Q 875 4013 500 3803 
L 500 4441 
Q 881 4594 1212 4672 
Q 1544 4750 1819 4750 
Q 2544 4750 2975 4387 
Q 3406 4025 3406 3419 
Q 3406 3131 3298 2873 
Q 3191 2616 2906 2266 
Q 2828 2175 2409 1742 
Q 1991 1309 1228 531 
z
" transform="scale(0.015625)"/>
       </defs>
       <use xlink:href="#DejaVuSans-32" transform="translate(0 0.684375)"/>
       <use xlink:href="#DejaVuSans-d7" transform="translate(83.105469 0.684375)"/>
       <use xlink:href="#DejaVuSans-31" transform="translate(186.376953 0.684375)"/>
       <use xlink:href="#DejaVuSans-30" transform="translate(250 0.684375)"/>
       <use xlink:href="#DejaVuSans-34" transform="translate(314.580078 38.965625) scale(0.7)"/>
      </g>
     </g>
    </g>
    <g id="text_5">
     <!-- iter# -->
     <g transform="translate(223.488906 335.860562) scale(0.1 -0.1)">
      <defs>
       <path id="DejaVuSans-69" d="M 603 3500 
L 1178 3500 
L 1178 0 
L 603 0 
L 603 3500 
z
M 603 4863 
L 1178 4863 
L 1178 4134 
L 603 4134 
L 603 4863 
z
" transform="scale(0.015625)"/>
       <path id="DejaVuSans-74" d="M 1172 4494 
L 1172 3500 
L 2356 3500 
L 2356 3053 
L 1172 3053 
L 1172 1153 
Q 1172 725 1289 603 
Q 1406 481 1766 481 
L 2356 481 
L 2356 0 
L 1766 0 
Q 1100 0 847 248 
Q 594 497 594 1153 
L 594 3053 
L 172 3053 
L 172 3500 
L 594 3500 
L 594 4494 
L 1172 4494 
z
" transform="scale(0.015625)"/>
       <path id="DejaVuSans-65" d="M 3597 1894 
L 3597 1613 
L 953 1613 
Q 991 1019 1311 708 
Q 1631 397 2203 397 
Q 2534 397 2845 478 
Q 3156 559 3463 722 
L 3463 178 
Q 3153 47 2828 -22 
Q 2503 -91 2169 -91 
Q 1331 -91 842 396 
Q 353 884 353 1716 
Q 353 2575 817 3079 
Q 1281 3584 2069 3584 
Q 2775 3584 3186 3129 
Q 3597 2675 3597 1894 
z
M 3022 2063 
Q 3016 2534 2758 2815 
Q 2500 3097 2075 3097 
Q 1594 3097 1305 2825 
Q 1016 2553 972 2059 
L 3022 2063 
z
" transform="scale(0.015625)"/>
       <path id="DejaVuSans-72" d="M 2631 2963 
Q 2534 3019 2420 3045 
Q 2306 3072 2169 3072 
Q 1681 3072 1420 2755 
Q 1159 2438 1159 1844 
L 1159 0 
L 581 0 
L 581 3500 
L 1159 3500 
L 1159 2956 
Q 1341 3275 1631 3429 
Q 1922 3584 2338 3584 
Q 2397 3584 2469 3576 
Q 2541 3569 2628 3553 
L 2631 2963 
z
" transform="scale(0.015625)"/>
       <path id="DejaVuSans-23" d="M 3272 2816 
L 2363 2816 
L 2100 1772 
L 3016 1772 
L 3272 2816 
z
M 2803 4594 
L 2478 3297 
L 3391 3297 
L 3719 4594 
L 4219 4594 
L 3897 3297 
L 4872 3297 
L 4872 2816 
L 3775 2816 
L 3519 1772 
L 4513 1772 
L 4513 1294 
L 3397 1294 
L 3072 0 
L 2572 0 
L 2894 1294 
L 1978 1294 
L 1656 0 
L 1153 0 
L 1478 1294 
L 494 1294 
L 494 1772 
L 1594 1772 
L 1856 2816 
L 850 2816 
L 850 3297 
L 1978 3297 
L 2297 4594 
L 2803 4594 
z
" transform="scale(0.015625)"/>
      </defs>
      <use xlink:href="#DejaVuSans-69"/>
      <use xlink:href="#DejaVuSans-74" x="27.783203"/>
      <use xlink:href="#DejaVuSans-65" x="66.992188"/>
      <use xlink:href="#DejaVuSans-72" x="128.515625"/>
      <use xlink:href="#DejaVuSans-23" x="169.628906"/>
     </g>
    </g>
   </g>
   <g id="matplotlib.axis_2">
    <g id="ytick_1">
     <g id="line2d_5">
      <defs>
       <path id="m7f10b578a7" d="M 0 0 
L -3.5 0 
" style="stroke: #000000; stroke-width: 0.8"/>
      </defs>
      <g>
       <use xlink:href="#m7f10b578a7" x="57.6" y="283.056805" style="stroke: #000000; stroke-width: 0.8"/>
      </g>
     </g>
     <g id="text_6">
      <!-- $\mathdefault{10^{-3}}$ -->
      <g transform="translate(27.1 286.856024) scale(0.1 -0.1)">
       <defs>
        <path id="DejaVuSans-2212" d="M 678 2272 
L 4684 2272 
L 4684 1741 
L 678 1741 
L 678 2272 
z
" transform="scale(0.015625)"/>
       </defs>
       <use xlink:href="#DejaVuSans-31" transform="translate(0 0.765625)"/>
       <use xlink:href="#DejaVuSans-30" transform="translate(63.623047 0.765625)"/>
       <use xlink:href="#DejaVuSans-2212" transform="translate(128.203125 39.046875) scale(0.7)"/>
       <use xlink:href="#DejaVuSans-33" transform="translate(186.855469 39.046875) scale(0.7)"/>
      </g>
     </g>
    </g>
    <g id="ytick_2">
     <g id="line2d_6">
      <g>
       <use xlink:href="#m7f10b578a7" x="57.6" y="239.332636" style="stroke: #000000; stroke-width: 0.8"/>
      </g>
     </g>
     <g id="text_7">
      <!-- $\mathdefault{10^{-2}}$ -->
      <g transform="translate(27.1 243.131855) scale(0.1 -0.1)">
       <use xlink:href="#DejaVuSans-31" transform="translate(0 0.765625)"/>
       <use xlink:href="#DejaVuSans-30" transform="translate(63.623047 0.765625)"/>
       <use xlink:href="#DejaVuSans-2212" transform="translate(128.203125 39.046875) scale(0.7)"/>
       <use xlink:href="#DejaVuSans-32" transform="translate(186.855469 39.046875) scale(0.7)"/>
      </g>
     </g>
    </g>
    <g id="ytick_3">
     <g id="line2d_7">
      <g>
       <use xlink:href="#m7f10b578a7" x="57.6" y="195.608467" style="stroke: #000000; stroke-width: 0.8"/>
      </g>
     </g>
     <g id="text_8">
      <!-- $\mathdefault{10^{-1}}$ -->
      <g transform="translate(27.1 199.407686) scale(0.1 -0.1)">
       <use xlink:href="#DejaVuSans-31" transform="translate(0 0.684375)"/>
       <use xlink:href="#DejaVuSans-30" transform="translate(63.623047 0.684375)"/>
       <use xlink:href="#DejaVuSans-2212" transform="translate(128.203125 38.965625) scale(0.7)"/>
       <use xlink:href="#DejaVuSans-31" transform="translate(186.855469 38.965625) scale(0.7)"/>
      </g>
     </g>
    </g>
    <g id="ytick_4">
     <g id="line2d_8">
      <g>
       <use xlink:href="#m7f10b578a7" x="57.6" y="151.884298" style="stroke: #000000; stroke-width: 0.8"/>
      </g>
     </g>
     <g id="text_9">
      <!-- $\mathdefault{10^{0}}$ -->
      <g transform="translate(33 155.683517) scale(0.1 -0.1)">
       <use xlink:href="#DejaVuSans-31" transform="translate(0 0.765625)"/>
       <use xlink:href="#DejaVuSans-30" transform="translate(63.623047 0.765625)"/>
       <use xlink:href="#DejaVuSans-30" transform="translate(128.203125 39.046875) scale(0.7)"/>
      </g>
     </g>
    </g>
    <g id="ytick_5">
     <g id="line2d_9">
      <g>
       <use xlink:href="#m7f10b578a7" x="57.6" y="108.160129" style="stroke: #000000; stroke-width: 0.8"/>
      </g>
     </g>
     <g id="text_10">
      <!-- $\mathdefault{10^{1}}$ -->
      <g transform="translate(33 111.959348) scale(0.1 -0.1)">
       <use xlink:href="#DejaVuSans-31" transform="translate(0 0.684375)"/>
       <use xlink:href="#DejaVuSans-30" transform="translate(63.623047 0.684375)"/>
       <use xlink:href="#DejaVuSans-31" transform="translate(128.203125 38.965625) scale(0.7)"/>
      </g>
     </g>
    </g>
    <g id="ytick_6">
     <g id="line2d_10">
      <g>
       <use xlink:href="#m7f10b578a7" x="57.6" y="64.43596" style="stroke: #000000; stroke-width: 0.8"/>
      </g>
     </g>
     <g id="text_11">
      <!-- $\mathdefault{10^{2}}$ -->
      <g transform="translate(33 68.235179) scale(0.1 -0.1)">
       <use xlink:href="#DejaVuSans-31" transform="translate(0 0.765625)"/>
       <use xlink:href="#DejaVuSans-30" transform="translate(63.623047 0.765625)"/>
       <use xlink:href="#DejaVuSans-32" transform="translate(128.203125 39.046875) scale(0.7)"/>
      </g>
     </g>
    </g>
    <g id="ytick_7">
     <g id="line2d_11">
      <defs>
       <path id="mb2838b64ee" d="M 0 0 
L -2 0 
" style="stroke: #000000; stroke-width: 0.6"/>
      </defs>
      <g>
       <use xlink:href="#mb2838b64ee" x="57.6" y="305.919243" style="stroke: #000000; stroke-width: 0.6"/>
      </g>
     </g>
    </g>
    <g id="ytick_8">
     <g id="line2d_12">
      <g>
       <use xlink:href="#mb2838b64ee" x="57.6" y="300.456401" style="stroke: #000000; stroke-width: 0.6"/>
      </g>
     </g>
    </g>
    <g id="ytick_9">
     <g id="line2d_13">
      <g>
       <use xlink:href="#mb2838b64ee" x="57.6" y="296.219091" style="stroke: #000000; stroke-width: 0.6"/>
      </g>
     </g>
    </g>
    <g id="ytick_10">
     <g id="line2d_14">
      <g>
       <use xlink:href="#mb2838b64ee" x="57.6" y="292.756957" style="stroke: #000000; stroke-width: 0.6"/>
      </g>
     </g>
    </g>
    <g id="ytick_11">
     <g id="line2d_15">
      <g>
       <use xlink:href="#mb2838b64ee" x="57.6" y="289.829764" style="stroke: #000000; stroke-width: 0.6"/>
      </g>
     </g>
    </g>
    <g id="ytick_12">
     <g id="line2d_16">
      <g>
       <use xlink:href="#mb2838b64ee" x="57.6" y="287.294115" style="stroke: #000000; stroke-width: 0.6"/>
      </g>
     </g>
    </g>
    <g id="ytick_13">
     <g id="line2d_17">
      <g>
       <use xlink:href="#mb2838b64ee" x="57.6" y="285.057513" style="stroke: #000000; stroke-width: 0.6"/>
      </g>
     </g>
    </g>
    <g id="ytick_14">
     <g id="line2d_18">
      <g>
       <use xlink:href="#mb2838b64ee" x="57.6" y="269.894519" style="stroke: #000000; stroke-width: 0.6"/>
      </g>
     </g>
    </g>
    <g id="ytick_15">
     <g id="line2d_19">
      <g>
       <use xlink:href="#mb2838b64ee" x="57.6" y="262.195075" style="stroke: #000000; stroke-width: 0.6"/>
      </g>
     </g>
    </g>
    <g id="ytick_16">
     <g id="line2d_20">
      <g>
       <use xlink:href="#mb2838b64ee" x="57.6" y="256.732232" style="stroke: #000000; stroke-width: 0.6"/>
      </g>
     </g>
    </g>
    <g id="ytick_17">
     <g id="line2d_21">
      <g>
       <use xlink:href="#mb2838b64ee" x="57.6" y="252.494922" style="stroke: #000000; stroke-width: 0.6"/>
      </g>
     </g>
    </g>
    <g id="ytick_18">
     <g id="line2d_22">
      <g>
       <use xlink:href="#mb2838b64ee" x="57.6" y="249.032788" style="stroke: #000000; stroke-width: 0.6"/>
      </g>
     </g>
    </g>
    <g id="ytick_19">
     <g id="line2d_23">
      <g>
       <use xlink:href="#mb2838b64ee" x="57.6" y="246.105595" style="stroke: #000000; stroke-width: 0.6"/>
      </g>
     </g>
    </g>
    <g id="ytick_20">
     <g id="line2d_24">
      <g>
       <use xlink:href="#mb2838b64ee" x="57.6" y="243.569946" style="stroke: #000000; stroke-width: 0.6"/>
      </g>
     </g>
    </g>
    <g id="ytick_21">
     <g id="line2d_25">
      <g>
       <use xlink:href="#mb2838b64ee" x="57.6" y="241.333344" style="stroke: #000000; stroke-width: 0.6"/>
      </g>
     </g>
    </g>
    <g id="ytick_22">
     <g id="line2d_26">
      <g>
       <use xlink:href="#mb2838b64ee" x="57.6" y="226.17035" style="stroke: #000000; stroke-width: 0.6"/>
      </g>
     </g>
    </g>
    <g id="ytick_23">
     <g id="line2d_27">
      <g>
       <use xlink:href="#mb2838b64ee" x="57.6" y="218.470906" style="stroke: #000000; stroke-width: 0.6"/>
      </g>
     </g>
    </g>
    <g id="ytick_24">
     <g id="line2d_28">
      <g>
       <use xlink:href="#mb2838b64ee" x="57.6" y="213.008063" style="stroke: #000000; stroke-width: 0.6"/>
      </g>
     </g>
    </g>
    <g id="ytick_25">
     <g id="line2d_29">
      <g>
       <use xlink:href="#mb2838b64ee" x="57.6" y="208.770753" style="stroke: #000000; stroke-width: 0.6"/>
      </g>
     </g>
    </g>
    <g id="ytick_26">
     <g id="line2d_30">
      <g>
       <use xlink:href="#mb2838b64ee" x="57.6" y="205.308619" style="stroke: #000000; stroke-width: 0.6"/>
      </g>
     </g>
    </g>
    <g id="ytick_27">
     <g id="line2d_31">
      <g>
       <use xlink:href="#mb2838b64ee" x="57.6" y="202.381427" style="stroke: #000000; stroke-width: 0.6"/>
      </g>
     </g>
    </g>
    <g id="ytick_28">
     <g id="line2d_32">
      <g>
       <use xlink:href="#mb2838b64ee" x="57.6" y="199.845777" style="stroke: #000000; stroke-width: 0.6"/>
      </g>
     </g>
    </g>
    <g id="ytick_29">
     <g id="line2d_33">
      <g>
       <use xlink:href="#mb2838b64ee" x="57.6" y="197.609175" style="stroke: #000000; stroke-width: 0.6"/>
      </g>
     </g>
    </g>
    <g id="ytick_30">
     <g id="line2d_34">
      <g>
       <use xlink:href="#mb2838b64ee" x="57.6" y="182.446181" style="stroke: #000000; stroke-width: 0.6"/>
      </g>
     </g>
    </g>
    <g id="ytick_31">
     <g id="line2d_35">
      <g>
       <use xlink:href="#mb2838b64ee" x="57.6" y="174.746737" style="stroke: #000000; stroke-width: 0.6"/>
      </g>
     </g>
    </g>
    <g id="ytick_32">
     <g id="line2d_36">
      <g>
       <use xlink:href="#mb2838b64ee" x="57.6" y="169.283894" style="stroke: #000000; stroke-width: 0.6"/>
      </g>
     </g>
    </g>
    <g id="ytick_33">
     <g id="line2d_37">
      <g>
       <use xlink:href="#mb2838b64ee" x="57.6" y="165.046585" style="stroke: #000000; stroke-width: 0.6"/>
      </g>
     </g>
    </g>
    <g id="ytick_34">
     <g id="line2d_38">
      <g>
       <use xlink:href="#mb2838b64ee" x="57.6" y="161.58445" style="stroke: #000000; stroke-width: 0.6"/>
      </g>
     </g>
    </g>
    <g id="ytick_35">
     <g id="line2d_39">
      <g>
       <use xlink:href="#mb2838b64ee" x="57.6" y="158.657258" style="stroke: #000000; stroke-width: 0.6"/>
      </g>
     </g>
    </g>
    <g id="ytick_36">
     <g id="line2d_40">
      <g>
       <use xlink:href="#mb2838b64ee" x="57.6" y="156.121608" style="stroke: #000000; stroke-width: 0.6"/>
      </g>
     </g>
    </g>
    <g id="ytick_37">
     <g id="line2d_41">
      <g>
       <use xlink:href="#mb2838b64ee" x="57.6" y="153.885006" style="stroke: #000000; stroke-width: 0.6"/>
      </g>
     </g>
    </g>
    <g id="ytick_38">
     <g id="line2d_42">
      <g>
       <use xlink:href="#mb2838b64ee" x="57.6" y="138.722012" style="stroke: #000000; stroke-width: 0.6"/>
      </g>
     </g>
    </g>
    <g id="ytick_39">
     <g id="line2d_43">
      <g>
       <use xlink:href="#mb2838b64ee" x="57.6" y="131.022568" style="stroke: #000000; stroke-width: 0.6"/>
      </g>
     </g>
    </g>
    <g id="ytick_40">
     <g id="line2d_44">
      <g>
       <use xlink:href="#mb2838b64ee" x="57.6" y="125.559725" style="stroke: #000000; stroke-width: 0.6"/>
      </g>
     </g>
    </g>
    <g id="ytick_41">
     <g id="line2d_45">
      <g>
       <use xlink:href="#mb2838b64ee" x="57.6" y="121.322416" style="stroke: #000000; stroke-width: 0.6"/>
      </g>
     </g>
    </g>
    <g id="ytick_42">
     <g id="line2d_46">
      <g>
       <use xlink:href="#mb2838b64ee" x="57.6" y="117.860281" style="stroke: #000000; stroke-width: 0.6"/>
      </g>
     </g>
    </g>
    <g id="ytick_43">
     <g id="line2d_47">
      <g>
       <use xlink:href="#mb2838b64ee" x="57.6" y="114.933089" style="stroke: #000000; stroke-width: 0.6"/>
      </g>
     </g>
    </g>
    <g id="ytick_44">
     <g id="line2d_48">
      <g>
       <use xlink:href="#mb2838b64ee" x="57.6" y="112.397439" style="stroke: #000000; stroke-width: 0.6"/>
      </g>
     </g>
    </g>
    <g id="ytick_45">
     <g id="line2d_49">
      <g>
       <use xlink:href="#mb2838b64ee" x="57.6" y="110.160837" style="stroke: #000000; stroke-width: 0.6"/>
      </g>
     </g>
    </g>
    <g id="ytick_46">
     <g id="line2d_50">
      <g>
       <use xlink:href="#mb2838b64ee" x="57.6" y="94.997843" style="stroke: #000000; stroke-width: 0.6"/>
      </g>
     </g>
    </g>
    <g id="ytick_47">
     <g id="line2d_51">
      <g>
       <use xlink:href="#mb2838b64ee" x="57.6" y="87.298399" style="stroke: #000000; stroke-width: 0.6"/>
      </g>
     </g>
    </g>
    <g id="ytick_48">
     <g id="line2d_52">
      <g>
       <use xlink:href="#mb2838b64ee" x="57.6" y="81.835556" style="stroke: #000000; stroke-width: 0.6"/>
      </g>
     </g>
    </g>
    <g id="ytick_49">
     <g id="line2d_53">
      <g>
       <use xlink:href="#mb2838b64ee" x="57.6" y="77.598247" style="stroke: #000000; stroke-width: 0.6"/>
      </g>
     </g>
    </g>
    <g id="ytick_50">
     <g id="line2d_54">
      <g>
       <use xlink:href="#mb2838b64ee" x="57.6" y="74.136113" style="stroke: #000000; stroke-width: 0.6"/>
      </g>
     </g>
    </g>
    <g id="ytick_51">
     <g id="line2d_55">
      <g>
       <use xlink:href="#mb2838b64ee" x="57.6" y="71.20892" style="stroke: #000000; stroke-width: 0.6"/>
      </g>
     </g>
    </g>
    <g id="ytick_52">
     <g id="line2d_56">
      <g>
       <use xlink:href="#mb2838b64ee" x="57.6" y="68.67327" style="stroke: #000000; stroke-width: 0.6"/>
      </g>
     </g>
    </g>
    <g id="ytick_53">
     <g id="line2d_57">
      <g>
       <use xlink:href="#mb2838b64ee" x="57.6" y="66.436669" style="stroke: #000000; stroke-width: 0.6"/>
      </g>
     </g>
    </g>
    <g id="ytick_54">
     <g id="line2d_58">
      <g>
       <use xlink:href="#mb2838b64ee" x="57.6" y="51.273674" style="stroke: #000000; stroke-width: 0.6"/>
      </g>
     </g>
    </g>
    <g id="ytick_55">
     <g id="line2d_59">
      <g>
       <use xlink:href="#mb2838b64ee" x="57.6" y="43.57423" style="stroke: #000000; stroke-width: 0.6"/>
      </g>
     </g>
    </g>
    <g id="text_12">
     <!-- loss -->
     <g transform="translate(21.020313 184.185812) rotate(-90) scale(0.1 -0.1)">
      <defs>
       <path id="DejaVuSans-6c" d="M 603 4863 
L 1178 4863 
L 1178 0 
L 603 0 
L 603 4863 
z
" transform="scale(0.015625)"/>
       <path id="DejaVuSans-6f" d="M 1959 3097 
Q 1497 3097 1228 2736 
Q 959 2375 959 1747 
Q 959 1119 1226 758 
Q 1494 397 1959 397 
Q 2419 397 2687 759 
Q 2956 1122 2956 1747 
Q 2956 2369 2687 2733 
Q 2419 3097 1959 3097 
z
M 1959 3584 
Q 2709 3584 3137 3096 
Q 3566 2609 3566 1747 
Q 3566 888 3137 398 
Q 2709 -91 1959 -91 
Q 1206 -91 779 398 
Q 353 888 353 1747 
Q 353 2609 779 3096 
Q 1206 3584 1959 3584 
z
" transform="scale(0.015625)"/>
       <path id="DejaVuSans-73" d="M 2834 3397 
L 2834 2853 
Q 2591 2978 2328 3040 
Q 2066 3103 1784 3103 
Q 1356 3103 1142 2972 
Q 928 2841 928 2578 
Q 928 2378 1081 2264 
Q 1234 2150 1697 2047 
L 1894 2003 
Q 2506 1872 2764 1633 
Q 3022 1394 3022 966 
Q 3022 478 2636 193 
Q 2250 -91 1575 -91 
Q 1294 -91 989 -36 
Q 684 19 347 128 
L 347 722 
Q 666 556 975 473 
Q 1284 391 1588 391 
Q 1994 391 2212 530 
Q 2431 669 2431 922 
Q 2431 1156 2273 1281 
Q 2116 1406 1581 1522 
L 1381 1569 
Q 847 1681 609 1914 
Q 372 2147 372 2553 
Q 372 3047 722 3315 
Q 1072 3584 1716 3584 
Q 2034 3584 2315 3537 
Q 2597 3491 2834 3397 
z
" transform="scale(0.015625)"/>
      </defs>
      <use xlink:href="#DejaVuSans-6c"/>
      <use xlink:href="#DejaVuSans-6f" x="27.783203"/>
      <use xlink:href="#DejaVuSans-73" x="88.964844"/>
      <use xlink:href="#DejaVuSans-73" x="141.064453"/>
     </g>
    </g>
   </g>
   <g id="line2d_60">
    <path d="M -1 255.18768 
L 9.545101 253.175004 
L 46.681774 265.558643 
L 83.833023 229.573587 
L 120.992139 243.74379 
L 158.12754 285.527219 
L 195.260546 234.858128 
L 232.410351 253.557133 
L 269.562701 258.713894 
L 306.706824 279.100139 
L 343.855855 183.11858 
L 380.991925 255.559936 
L 418.134756 295.488 
" clip-path="url(#pce87de9f17)" style="fill: none; stroke-dasharray: 5.55,2.4; stroke-dashoffset: 0; stroke: #1f77b4; stroke-opacity: 0.4; stroke-width: 1.5"/>
   </g>
   <g id="line2d_61">
    <path d="M -1 224.488101 
L -0.051174 225.443017 
L 3.547192 221.64669 
L 7.11264 227.462825 
L 10.645766 225.186985 
L 14.147151 221.317547 
L 17.61736 226.094576 
L 21.056944 228.397389 
L 24.466437 226.787753 
L 27.846364 221.418508 
L 31.19723 229.609954 
L 34.519533 227.12869 
L 37.813755 227.22918 
L 41.080366 225.043804 
L 44.319827 224.250566 
L 47.532583 223.119972 
L 50.719072 222.813885 
L 53.87972 228.229718 
L 57.014943 215.239098 
L 60.125147 220.031805 
L 63.210727 225.193503 
L 66.27207 214.134433 
L 69.309555 226.222903 
L 70.112423 204.021491 
L 73.12024 198.914441 
L 76.105022 217.382565 
L 79.067119 216.527031 
L 82.006873 220.107513 
L 87.820685 225.54863 
L 90.69539 225.664882 
L 93.549046 226.099516 
L 96.38196 225.640673 
L 99.194432 219.786773 
L 101.986753 227.645213 
L 104.759211 214.05544 
L 107.512086 227.119697 
L 110.245653 223.824515 
L 112.960181 229.249691 
L 115.655934 229.984002 
L 118.333169 230.178378 
L 123.633091 224.487706 
L 126.256268 230.079736 
L 128.861908 223.309452 
L 131.450244 223.783796 
L 134.021503 219.174446 
L 136.575911 233.479983 
L 139.113685 231.799014 
L 141.635042 229.357184 
L 144.140193 231.274285 
L 146.629344 231.045945 
L 149.102699 227.840418 
L 151.560456 229.414488 
L 154.002812 222.23848 
L 156.429958 229.059421 
L 157.072136 229.03952 
L 159.480302 227.786442 
L 161.873679 224.2572 
L 164.252448 229.705061 
L 166.616787 234.105504 
L 168.96687 236.646893 
L 171.302866 237.002954 
L 173.624945 224.180814 
L 175.933272 215.253532 
L 178.228007 224.47038 
L 180.50931 211.682441 
L 182.777338 233.645674 
L 185.032244 235.876707 
L 187.274178 235.553531 
L 189.503291 230.576936 
L 191.719726 233.055299 
L 193.923629 207.263029 
L 196.115138 223.177407 
L 198.294394 232.303247 
L 200.461533 232.879787 
L 202.616688 210.933469 
L 204.759991 221.5778 
L 206.891572 226.812861 
L 209.011558 228.332009 
L 211.120075 216.810348 
L 213.217247 224.797608 
L 215.303194 218.785887 
L 217.378037 226.312232 
L 219.441892 216.782598 
L 221.494876 215.721116 
L 223.537103 216.008776 
L 225.568684 229.085842 
L 227.589731 236.357796 
L 228.124814 229.218151 
L 230.132683 223.677844 
L 232.130261 227.844742 
L 234.117652 222.925746 
L 236.094961 209.586368 
L 238.062289 193.629787 
L 240.019737 206.060279 
L 241.967402 233.790202 
L 243.905383 226.654816 
L 245.833775 226.224348 
L 247.752672 232.769974 
L 249.662168 231.861789 
L 251.562355 229.108618 
L 253.453322 205.830725 
L 255.335159 222.421299 
L 257.207953 197.084758 
L 259.071791 202.613122 
L 260.926759 216.47949 
L 262.772939 208.708564 
L 264.610416 222.282846 
L 266.43927 188.615517 
L 268.259583 227.161704 
L 270.071433 232.202567 
L 271.8749 216.249617 
L 273.670059 233.990233 
L 275.456988 218.062588 
L 277.235762 237.767864 
L 279.006454 215.225051 
L 280.769138 237.540842 
L 282.523886 234.537498 
L 284.270769 222.592695 
L 286.009857 234.53281 
L 287.741219 194.200336 
L 288.199823 207.160024 
L 289.921505 224.54369 
L 291.635616 227.663592 
L 293.342221 229.495984 
L 295.041386 231.722683 
L 296.733175 233.207608 
L 298.417652 234.162307 
L 301.764922 236.776715 
L 303.427837 237.872579 
L 306.732534 239.576258 
L 308.374433 240.327876 
L 310.009445 240.898757 
L 311.637626 241.661016 
L 313.259033 241.979513 
L 314.873724 242.726952 
L 319.678041 244.046271 
L 321.266409 244.204856 
L 322.84833 245.029956 
L 324.423856 245.097839 
L 325.993039 245.708704 
L 327.55593 245.758511 
L 329.112578 246.257225 
L 332.207346 246.780994 
L 335.277733 246.940131 
L 336.803904 247.313088 
L 338.324122 247.313078 
L 339.838433 247.480116 
L 340.239684 240.096013 
L 341.746585 184.769148 
L 343.247682 199.185023 
L 344.74302 197.876018 
L 346.232643 200.927118 
L 347.716593 207.489188 
L 349.194915 218.54381 
L 350.667651 208.594423 
L 352.134843 220.477568 
L 353.596532 203.068322 
L 355.05276 223.041095 
L 356.503568 225.085729 
L 357.948994 225.224217 
L 359.38908 215.987221 
L 360.823864 219.615702 
L 362.253386 219.069595 
L 363.677684 223.334412 
L 365.096796 207.901877 
L 366.510759 228.99938 
L 367.919611 221.90428 
L 369.323389 228.172438 
L 370.722129 221.976603 
L 372.115866 220.647675 
L 373.504638 218.806001 
L 374.888478 226.408957 
L 376.267423 215.137843 
L 377.641505 202.046917 
L 379.010761 202.295536 
L 380.375223 201.224379 
L 381.734924 204.707313 
L 383.089898 216.604005 
L 384.440178 224.346239 
L 385.785797 216.352843 
L 386.142447 209.76391 
L 387.482211 233.933476 
L 388.817385 234.644248 
L 391.474089 235.585145 
L 392.795681 235.780304 
L 394.112806 236.123499 
L 395.425496 236.266429 
L 399.337243 236.921802 
L 400.632482 237.076012 
L 401.923432 236.896938 
L 403.210119 237.183929 
L 405.77082 237.379475 
L 407.044889 237.215686 
L 408.314806 237.547629 
L 410.842295 237.616573 
L 412.099919 237.86453 
L 414.603059 237.95907 
L 415.848626 237.493274 
L 417.090224 237.974081 
L 420.791464 238.100262 
L 422.01744 238.047976 
L 423.239573 238.367885 
L 425.6724 238.361419 
L 426.883143 238.162478 
L 426.883143 238.162478 
" clip-path="url(#pce87de9f17)" style="fill: none; stroke: #1f77b4; stroke-opacity: 0.9; stroke-linecap: square"/>
   </g>
   <g id="line2d_62">
    <path d="M -1 268.905628 
L 9.545101 268.287114 
L 46.681774 270.885774 
L 83.833023 274.946514 
L 120.992139 274.169528 
L 158.12754 277.204878 
L 195.260546 274.322077 
L 232.410351 277.302266 
L 269.562701 270.23319 
L 306.706824 275.28973 
L 343.855855 282.750259 
L 380.991925 267.675582 
L 418.134756 279.64981 
" clip-path="url(#pce87de9f17)" style="fill: none; stroke-dasharray: 5.55,2.4; stroke-dashoffset: 0; stroke: #ff7f0e; stroke-opacity: 0.4; stroke-width: 1.5"/>
   </g>
   <g id="line2d_63">
    <path d="M -1 218.813887 
L 3.547192 218.64493 
L 7.11264 216.929817 
L 10.645766 216.779369 
L 14.147151 218.323356 
L 17.61736 219.009557 
L 21.056944 218.76558 
L 24.466437 219.254201 
L 31.19723 218.253212 
L 34.519533 215.11224 
L 37.813755 219.651067 
L 41.080366 216.941305 
L 44.319827 219.066937 
L 47.532583 219.808264 
L 50.719072 216.999349 
L 53.87972 218.09232 
L 57.014943 218.361036 
L 60.125147 219.058839 
L 63.210727 219.452367 
L 66.27207 220.120562 
L 69.309555 220.03926 
L 70.112423 219.439453 
L 73.12024 218.092994 
L 76.105022 218.804074 
L 79.067119 220.081767 
L 82.006873 218.372325 
L 84.92462 219.822029 
L 87.820685 219.346284 
L 90.69539 220.421521 
L 93.549046 219.216844 
L 96.38196 218.866571 
L 99.194432 220.92306 
L 101.986753 220.929268 
L 104.759211 221.248558 
L 107.512086 220.917545 
L 110.245653 218.253823 
L 112.960181 220.248364 
L 115.655934 219.672612 
L 118.333169 218.925519 
L 120.992139 221.168974 
L 123.633091 218.315772 
L 126.256268 221.284366 
L 128.861908 212.079065 
L 131.450244 220.385769 
L 134.021503 220.363064 
L 136.575911 218.110579 
L 139.113685 218.997878 
L 141.635042 221.378461 
L 144.140193 221.031422 
L 149.102699 221.199699 
L 151.560456 221.998596 
L 154.002812 221.758024 
L 156.429958 221.930721 
L 157.072136 222.310098 
L 159.480302 219.01119 
L 161.873679 213.23331 
L 164.252448 215.131054 
L 166.616787 221.680602 
L 168.96687 221.03021 
L 171.302866 221.99414 
L 173.624945 218.269295 
L 175.933272 221.754615 
L 178.228007 222.570147 
L 180.50931 216.862229 
L 182.777338 222.568673 
L 185.032244 222.941084 
L 187.274178 211.671586 
L 189.503291 221.702099 
L 191.719726 216.821945 
L 193.923629 214.700228 
L 198.294394 221.658085 
L 200.461533 220.600405 
L 202.616688 220.688366 
L 204.759991 218.850011 
L 206.891572 222.179066 
L 209.011558 217.99505 
L 211.120075 218.402029 
L 213.217247 223.652078 
L 215.303194 222.62263 
L 217.378037 219.200705 
L 219.441892 213.837442 
L 221.494876 217.18192 
L 223.537103 223.002559 
L 225.568684 223.518112 
L 227.589731 218.409247 
L 228.124814 222.699507 
L 230.132683 222.186022 
L 232.130261 222.992481 
L 234.117652 222.283402 
L 238.062289 224.666567 
L 240.019737 222.732772 
L 241.967402 223.622051 
L 243.905383 222.88384 
L 247.752672 223.838475 
L 249.662168 223.598217 
L 251.562355 221.247674 
L 253.453322 221.372013 
L 255.335159 224.062335 
L 259.071791 222.194388 
L 260.926759 223.540406 
L 262.772939 221.642179 
L 264.610416 220.994693 
L 266.43927 223.528867 
L 268.259583 220.311315 
L 270.071433 222.109341 
L 271.8749 221.24313 
L 273.670059 223.910943 
L 275.456988 220.518614 
L 277.235762 218.084121 
L 279.006454 214.053127 
L 280.769138 224.390878 
L 282.523886 220.983837 
L 284.270769 219.008271 
L 286.009857 224.464042 
L 287.741219 225.348444 
L 288.199823 223.845224 
L 289.921505 224.011283 
L 291.635616 221.800017 
L 293.342221 223.352379 
L 295.041386 224.517931 
L 296.733175 220.356141 
L 298.417652 209.422415 
L 300.09488 220.367757 
L 301.764922 216.048696 
L 303.427837 222.619385 
L 305.083688 216.089133 
L 306.732534 221.686542 
L 308.374433 224.426643 
L 310.009445 206.629419 
L 311.637626 222.870129 
L 313.259033 216.459792 
L 314.873724 221.785944 
L 316.481752 223.649046 
L 318.083173 222.345438 
L 319.678041 224.662008 
L 321.266409 223.261741 
L 322.84833 220.087928 
L 324.423856 224.593226 
L 325.993039 225.142272 
L 327.55593 225.876047 
L 329.112578 222.485635 
L 330.663034 223.631681 
L 332.207346 221.337715 
L 333.745563 223.633071 
L 335.277733 224.679075 
L 336.803904 224.764867 
L 338.324122 221.185833 
L 339.838433 223.187317 
L 340.239684 225.606849 
L 341.746585 224.121977 
L 343.247682 224.18602 
L 344.74302 226.035652 
L 346.232643 224.406674 
L 347.716593 225.482578 
L 349.194915 217.03786 
L 350.667651 226.801197 
L 352.134843 220.62137 
L 353.596532 223.801934 
L 355.05276 223.063262 
L 356.503568 225.30253 
L 357.948994 223.525387 
L 359.38908 223.284275 
L 360.823864 226.447824 
L 362.253386 219.365685 
L 363.677684 217.233681 
L 365.096796 225.665741 
L 366.510759 226.24505 
L 367.919611 210.10917 
L 369.323389 224.11169 
L 370.722129 222.63406 
L 372.115866 226.711702 
L 373.504638 224.942554 
L 374.888478 223.941524 
L 376.267423 225.867088 
L 377.641505 224.128657 
L 379.010761 206.69624 
L 380.375223 217.285717 
L 381.734924 215.359178 
L 383.089898 225.362291 
L 384.440178 224.933429 
L 385.785797 221.245948 
L 386.142447 209.694867 
L 387.482211 223.01089 
L 388.817385 222.809388 
L 390.148001 219.094401 
L 391.474089 220.558254 
L 392.795681 226.641359 
L 395.425496 224.51766 
L 396.733779 223.83261 
L 398.037685 219.409836 
L 399.337243 222.892691 
L 400.632482 208.473358 
L 401.923432 225.712884 
L 403.210119 222.992213 
L 404.492572 217.603032 
L 405.77082 225.781238 
L 407.044889 226.117037 
L 408.314806 225.610108 
L 409.5806 224.416514 
L 410.842295 225.5614 
L 412.099919 224.326827 
L 413.353499 217.234373 
L 414.603059 220.189246 
L 415.848626 224.448504 
L 417.090224 219.697792 
L 418.32788 224.958772 
L 419.561619 224.565139 
L 420.791464 226.949242 
L 424.457885 222.82699 
L 425.6724 224.222623 
L 426.883143 224.194205 
L 426.883143 224.194205 
" clip-path="url(#pce87de9f17)" style="fill: none; stroke: #ff7f0e; stroke-opacity: 0.9; stroke-linecap: square"/>
   </g>
   <g id="line2d_64">
    <path d="M -1 275.380191 
L 9.545101 273.155718 
L 46.681774 280.437052 
L 83.833023 280.26206 
L 120.992139 277.339691 
L 158.12754 281.927819 
L 195.260546 283.151638 
L 232.410351 277.953701 
L 269.562701 266.707589 
L 306.706824 286.178062 
L 343.855855 255.080538 
L 380.991925 256.989973 
L 418.134756 289.667479 
" clip-path="url(#pce87de9f17)" style="fill: none; stroke-dasharray: 5.55,2.4; stroke-dashoffset: 0; stroke: #2ca02c; stroke-opacity: 0.4; stroke-width: 1.5"/>
   </g>
   <g id="line2d_65">
    <path d="M -1 220.723435 
L -0.051174 219.974721 
L 3.547192 220.365735 
L 7.11264 223.593657 
L 10.645766 217.559768 
L 14.147151 222.773813 
L 17.61736 221.48408 
L 21.056944 223.79507 
L 24.466437 223.367533 
L 31.19723 224.3015 
L 34.519533 223.328397 
L 37.813755 220.445323 
L 41.080366 222.890922 
L 44.319827 220.50417 
L 47.532583 223.133972 
L 50.719072 220.483791 
L 53.87972 218.743834 
L 57.014943 221.340333 
L 60.125147 223.433833 
L 63.210727 223.891824 
L 66.27207 224.807356 
L 69.309555 223.239222 
L 70.112423 223.955711 
L 73.12024 216.3701 
L 76.105022 224.596526 
L 79.067119 222.525459 
L 82.006873 221.400768 
L 84.92462 223.42242 
L 87.820685 221.93507 
L 90.69539 224.872399 
L 93.549046 217.86416 
L 96.38196 225.557309 
L 99.194432 215.925816 
L 101.986753 225.276366 
L 104.759211 225.146553 
L 107.512086 224.386319 
L 110.245653 225.263455 
L 112.960181 225.463535 
L 115.655934 225.920141 
L 118.333169 224.644882 
L 120.992139 225.552902 
L 123.633091 223.437606 
L 126.256268 217.356371 
L 128.861908 225.582301 
L 131.450244 225.304009 
L 134.021503 224.677346 
L 136.575911 224.207854 
L 139.113685 219.687438 
L 141.635042 225.520779 
L 144.140193 225.928644 
L 146.629344 224.40241 
L 149.102699 222.418225 
L 151.560456 226.352339 
L 154.002812 221.224323 
L 156.429958 222.875979 
L 157.072136 217.514906 
L 159.480302 227.422549 
L 161.873679 226.16704 
L 164.252448 227.572292 
L 166.616787 225.627981 
L 168.96687 227.19327 
L 171.302866 226.626285 
L 173.624945 217.67748 
L 175.933272 225.805131 
L 178.228007 225.647409 
L 180.50931 227.095929 
L 182.777338 222.759215 
L 185.032244 224.909697 
L 189.503291 224.22302 
L 191.719726 227.695285 
L 193.923629 226.754094 
L 196.115138 226.449816 
L 198.294394 226.548612 
L 200.461533 227.242074 
L 202.616688 227.326814 
L 204.759991 228.063542 
L 206.891572 228.18068 
L 209.011558 221.054064 
L 211.120075 227.68065 
L 213.217247 226.946989 
L 215.303194 227.699249 
L 217.378037 224.95018 
L 219.441892 221.771889 
L 221.494876 227.408094 
L 223.537103 223.276076 
L 225.568684 227.792179 
L 227.589731 226.409954 
L 228.124814 220.83336 
L 230.132683 219.179822 
L 232.130261 222.05178 
L 234.117652 226.804541 
L 236.094961 216.788972 
L 238.062289 222.116245 
L 240.019737 215.896196 
L 241.967402 227.043781 
L 243.905383 224.161595 
L 245.833775 216.133458 
L 247.752672 224.132414 
L 249.662168 219.016301 
L 251.562355 226.571896 
L 253.453322 227.840984 
L 255.335159 223.865685 
L 257.207953 218.600014 
L 259.071791 226.021851 
L 260.926759 225.2887 
L 262.772939 217.380506 
L 264.610416 205.539643 
L 266.43927 223.0474 
L 268.259583 214.342124 
L 270.071433 226.145167 
L 271.8749 217.668958 
L 273.670059 222.485533 
L 275.456988 224.146568 
L 277.235762 228.230921 
L 279.006454 226.248733 
L 280.769138 228.750857 
L 282.523886 228.355473 
L 284.270769 224.613337 
L 286.009857 228.742686 
L 287.741219 223.348961 
L 288.199823 223.784696 
L 289.921505 229.748623 
L 291.635616 229.300138 
L 293.342221 229.962443 
L 295.041386 229.392325 
L 296.733175 227.393199 
L 298.417652 229.638999 
L 300.09488 229.291671 
L 301.764922 230.106626 
L 303.427837 229.898561 
L 305.083688 229.567043 
L 306.732534 229.415604 
L 308.374433 228.270583 
L 310.009445 229.096212 
L 311.637626 227.156 
L 313.259033 230.293736 
L 314.873724 228.203631 
L 316.481752 230.456807 
L 318.083173 230.25341 
L 319.678041 228.889296 
L 321.266409 228.438795 
L 322.84833 230.285603 
L 324.423856 230.110114 
L 325.993039 222.751753 
L 327.55593 229.845419 
L 329.112578 226.422536 
L 330.663034 229.348834 
L 332.207346 228.352814 
L 333.745563 224.787101 
L 335.277733 229.446549 
L 336.803904 227.742041 
L 338.324122 228.876513 
L 339.838433 222.863995 
L 340.239684 226.211752 
L 341.746585 218.258989 
L 343.247682 226.195359 
L 344.74302 227.192447 
L 346.232643 227.514434 
L 347.716593 227.513508 
L 349.194915 219.778908 
L 350.667651 225.956519 
L 352.134843 226.398934 
L 355.05276 221.087059 
L 356.503568 222.850732 
L 357.948994 226.996433 
L 359.38908 219.333146 
L 360.823864 228.380075 
L 362.253386 219.706198 
L 363.677684 227.823413 
L 366.510759 225.363455 
L 367.919611 229.294098 
L 369.323389 226.806898 
L 370.722129 228.466478 
L 372.115866 226.555671 
L 373.504638 226.206448 
L 374.888478 222.665983 
L 376.267423 227.948379 
L 377.641505 225.462243 
L 379.010761 219.10232 
L 380.375223 220.71682 
L 381.734924 224.195553 
L 383.089898 225.529325 
L 384.440178 227.750062 
L 385.785797 223.701554 
L 386.142447 227.234886 
L 387.482211 229.155564 
L 390.148001 228.027419 
L 391.474089 229.620668 
L 392.795681 228.9168 
L 394.112806 230.086139 
L 395.425496 223.118906 
L 396.733779 228.997387 
L 398.037685 225.361081 
L 399.337243 228.623721 
L 400.632482 228.922458 
L 401.923432 228.765427 
L 403.210119 229.087172 
L 404.492572 229.84784 
L 405.77082 227.977385 
L 407.044889 225.168916 
L 408.314806 229.888941 
L 409.5806 230.449731 
L 410.842295 227.834786 
L 412.099919 217.379032 
L 413.353499 228.082129 
L 414.603059 229.854934 
L 415.848626 230.121369 
L 417.090224 227.015842 
L 418.32788 231.016151 
L 419.561619 229.6414 
L 420.791464 226.129173 
L 422.01744 230.477219 
L 423.239573 229.365249 
L 424.457885 231.226489 
L 425.6724 229.069094 
L 426.883143 229.456035 
L 426.883143 229.456035 
" clip-path="url(#pce87de9f17)" style="fill: none; stroke: #2ca02c; stroke-opacity: 0.9; stroke-linecap: square"/>
   </g>
   <g id="patch_3">
    <path d="M 57.6 307.584 
L 57.6 41.472 
" style="fill: none; stroke: #000000; stroke-width: 0.8; stroke-linejoin: miter; stroke-linecap: square"/>
   </g>
   <g id="patch_4">
    <path d="M 414.72 307.584 
L 414.72 41.472 
" style="fill: none; stroke: #000000; stroke-width: 0.8; stroke-linejoin: miter; stroke-linecap: square"/>
   </g>
   <g id="patch_5">
    <path d="M 57.6 307.584 
L 414.72 307.584 
" style="fill: none; stroke: #000000; stroke-width: 0.8; stroke-linejoin: miter; stroke-linecap: square"/>
   </g>
   <g id="patch_6">
    <path d="M 57.6 41.472 
L 414.72 41.472 
" style="fill: none; stroke: #000000; stroke-width: 0.8; stroke-linejoin: miter; stroke-linecap: square"/>
   </g>
   <g id="text_13">
    <!-- 2025-02-18-14:17:46 -->
    <g transform="translate(172.178438 35.472) scale(0.12 -0.12)">
     <defs>
      <path id="DejaVuSans-35" d="M 691 4666 
L 3169 4666 
L 3169 4134 
L 1269 4134 
L 1269 2991 
Q 1406 3038 1543 3061 
Q 1681 3084 1819 3084 
Q 2600 3084 3056 2656 
Q 3513 2228 3513 1497 
Q 3513 744 3044 326 
Q 2575 -91 1722 -91 
Q 1428 -91 1123 -41 
Q 819 9 494 109 
L 494 744 
Q 775 591 1075 516 
Q 1375 441 1709 441 
Q 2250 441 2565 725 
Q 2881 1009 2881 1497 
Q 2881 1984 2565 2268 
Q 2250 2553 1709 2553 
Q 1456 2553 1204 2497 
Q 953 2441 691 2322 
L 691 4666 
z
" transform="scale(0.015625)"/>
      <path id="DejaVuSans-2d" d="M 313 2009 
L 1997 2009 
L 1997 1497 
L 313 1497 
L 313 2009 
z
" transform="scale(0.015625)"/>
      <path id="DejaVuSans-3a" d="M 750 794 
L 1409 794 
L 1409 0 
L 750 0 
L 750 794 
z
M 750 3309 
L 1409 3309 
L 1409 2516 
L 750 2516 
L 750 3309 
z
" transform="scale(0.015625)"/>
      <path id="DejaVuSans-37" d="M 525 4666 
L 3525 4666 
L 3525 4397 
L 1831 0 
L 1172 0 
L 2766 4134 
L 525 4134 
L 525 4666 
z
" transform="scale(0.015625)"/>
      <path id="DejaVuSans-36" d="M 2113 2584 
Q 1688 2584 1439 2293 
Q 1191 2003 1191 1497 
Q 1191 994 1439 701 
Q 1688 409 2113 409 
Q 2538 409 2786 701 
Q 3034 994 3034 1497 
Q 3034 2003 2786 2293 
Q 2538 2584 2113 2584 
z
M 3366 4563 
L 3366 3988 
Q 3128 4100 2886 4159 
Q 2644 4219 2406 4219 
Q 1781 4219 1451 3797 
Q 1122 3375 1075 2522 
Q 1259 2794 1537 2939 
Q 1816 3084 2150 3084 
Q 2853 3084 3261 2657 
Q 3669 2231 3669 1497 
Q 3669 778 3244 343 
Q 2819 -91 2113 -91 
Q 1303 -91 875 529 
Q 447 1150 447 2328 
Q 447 3434 972 4092 
Q 1497 4750 2381 4750 
Q 2619 4750 2861 4703 
Q 3103 4656 3366 4563 
z
" transform="scale(0.015625)"/>
     </defs>
     <use xlink:href="#DejaVuSans-32"/>
     <use xlink:href="#DejaVuSans-30" x="63.623047"/>
     <use xlink:href="#DejaVuSans-32" x="127.246094"/>
     <use xlink:href="#DejaVuSans-35" x="190.869141"/>
     <use xlink:href="#DejaVuSans-2d" x="254.492188"/>
     <use xlink:href="#DejaVuSans-30" x="290.576172"/>
     <use xlink:href="#DejaVuSans-32" x="354.199219"/>
     <use xlink:href="#DejaVuSans-2d" x="417.822266"/>
     <use xlink:href="#DejaVuSans-31" x="453.90625"/>
     <use xlink:href="#DejaVuSans-38" x="517.529297"/>
     <use xlink:href="#DejaVuSans-2d" x="581.152344"/>
     <use xlink:href="#DejaVuSans-31" x="617.236328"/>
     <use xlink:href="#DejaVuSans-34" x="680.859375"/>
     <use xlink:href="#DejaVuSans-3a" x="744.482422"/>
     <use xlink:href="#DejaVuSans-31" x="778.173828"/>
     <use xlink:href="#DejaVuSans-37" x="841.796875"/>
     <use xlink:href="#DejaVuSans-3a" x="905.419922"/>
     <use xlink:href="#DejaVuSans-34" x="939.111328"/>
     <use xlink:href="#DejaVuSans-36" x="1002.734375"/>
    </g>
   </g>
   <g id="legend_1">
    <g id="patch_7">
     <path d="M 281.596563 138.375125 
L 407.72 138.375125 
Q 409.72 138.375125 409.72 136.375125 
L 409.72 48.472 
Q 409.72 46.472 407.72 46.472 
L 281.596563 46.472 
Q 279.596563 46.472 279.596563 48.472 
L 279.596563 136.375125 
Q 279.596563 138.375125 281.596563 138.375125 
z
" style="fill: #ffffff; opacity: 0.8; stroke: #cccccc; stroke-linejoin: miter"/>
    </g>
    <g id="line2d_66">
     <path d="M 283.596563 54.570437 
L 293.596563 54.570437 
L 303.596563 54.570437 
" style="fill: none; stroke-dasharray: 5.55,2.4; stroke-dashoffset: 0; stroke: #1f77b4; stroke-opacity: 0.4; stroke-width: 1.5"/>
    </g>
    <g id="text_14">
     <!-- SchNet MEA -->
     <g transform="translate(311.596563 58.070437) scale(0.1 -0.1)">
      <defs>
       <path id="DejaVuSans-53" d="M 3425 4513 
L 3425 3897 
Q 3066 4069 2747 4153 
Q 2428 4238 2131 4238 
Q 1616 4238 1336 4038 
Q 1056 3838 1056 3469 
Q 1056 3159 1242 3001 
Q 1428 2844 1947 2747 
L 2328 2669 
Q 3034 2534 3370 2195 
Q 3706 1856 3706 1288 
Q 3706 609 3251 259 
Q 2797 -91 1919 -91 
Q 1588 -91 1214 -16 
Q 841 59 441 206 
L 441 856 
Q 825 641 1194 531 
Q 1563 422 1919 422 
Q 2459 422 2753 634 
Q 3047 847 3047 1241 
Q 3047 1584 2836 1778 
Q 2625 1972 2144 2069 
L 1759 2144 
Q 1053 2284 737 2584 
Q 422 2884 422 3419 
Q 422 4038 858 4394 
Q 1294 4750 2059 4750 
Q 2388 4750 2728 4690 
Q 3069 4631 3425 4513 
z
" transform="scale(0.015625)"/>
       <path id="DejaVuSans-63" d="M 3122 3366 
L 3122 2828 
Q 2878 2963 2633 3030 
Q 2388 3097 2138 3097 
Q 1578 3097 1268 2742 
Q 959 2388 959 1747 
Q 959 1106 1268 751 
Q 1578 397 2138 397 
Q 2388 397 2633 464 
Q 2878 531 3122 666 
L 3122 134 
Q 2881 22 2623 -34 
Q 2366 -91 2075 -91 
Q 1284 -91 818 406 
Q 353 903 353 1747 
Q 353 2603 823 3093 
Q 1294 3584 2113 3584 
Q 2378 3584 2631 3529 
Q 2884 3475 3122 3366 
z
" transform="scale(0.015625)"/>
       <path id="DejaVuSans-68" d="M 3513 2113 
L 3513 0 
L 2938 0 
L 2938 2094 
Q 2938 2591 2744 2837 
Q 2550 3084 2163 3084 
Q 1697 3084 1428 2787 
Q 1159 2491 1159 1978 
L 1159 0 
L 581 0 
L 581 4863 
L 1159 4863 
L 1159 2956 
Q 1366 3272 1645 3428 
Q 1925 3584 2291 3584 
Q 2894 3584 3203 3211 
Q 3513 2838 3513 2113 
z
" transform="scale(0.015625)"/>
       <path id="DejaVuSans-4e" d="M 628 4666 
L 1478 4666 
L 3547 763 
L 3547 4666 
L 4159 4666 
L 4159 0 
L 3309 0 
L 1241 3903 
L 1241 0 
L 628 0 
L 628 4666 
z
" transform="scale(0.015625)"/>
       <path id="DejaVuSans-20" transform="scale(0.015625)"/>
       <path id="DejaVuSans-4d" d="M 628 4666 
L 1569 4666 
L 2759 1491 
L 3956 4666 
L 4897 4666 
L 4897 0 
L 4281 0 
L 4281 4097 
L 3078 897 
L 2444 897 
L 1241 4097 
L 1241 0 
L 628 0 
L 628 4666 
z
" transform="scale(0.015625)"/>
       <path id="DejaVuSans-45" d="M 628 4666 
L 3578 4666 
L 3578 4134 
L 1259 4134 
L 1259 2753 
L 3481 2753 
L 3481 2222 
L 1259 2222 
L 1259 531 
L 3634 531 
L 3634 0 
L 628 0 
L 628 4666 
z
" transform="scale(0.015625)"/>
       <path id="DejaVuSans-41" d="M 2188 4044 
L 1331 1722 
L 3047 1722 
L 2188 4044 
z
M 1831 4666 
L 2547 4666 
L 4325 0 
L 3669 0 
L 3244 1197 
L 1141 1197 
L 716 0 
L 50 0 
L 1831 4666 
z
" transform="scale(0.015625)"/>
      </defs>
      <use xlink:href="#DejaVuSans-53"/>
      <use xlink:href="#DejaVuSans-63" x="63.476562"/>
      <use xlink:href="#DejaVuSans-68" x="118.457031"/>
      <use xlink:href="#DejaVuSans-4e" x="181.835938"/>
      <use xlink:href="#DejaVuSans-65" x="256.640625"/>
      <use xlink:href="#DejaVuSans-74" x="318.164062"/>
      <use xlink:href="#DejaVuSans-20" x="357.373047"/>
      <use xlink:href="#DejaVuSans-4d" x="389.160156"/>
      <use xlink:href="#DejaVuSans-45" x="475.439453"/>
      <use xlink:href="#DejaVuSans-41" x="538.623047"/>
     </g>
    </g>
    <g id="line2d_67">
     <path d="M 283.596563 69.248562 
L 293.596563 69.248562 
L 303.596563 69.248562 
" style="fill: none; stroke: #1f77b4; stroke-opacity: 0.9; stroke-linecap: square"/>
    </g>
    <g id="text_15">
     <!-- SchNet eval_loss -->
     <g transform="translate(311.596563 72.748562) scale(0.1 -0.1)">
      <defs>
       <path id="DejaVuSans-76" d="M 191 3500 
L 800 3500 
L 1894 563 
L 2988 3500 
L 3597 3500 
L 2284 0 
L 1503 0 
L 191 3500 
z
" transform="scale(0.015625)"/>
       <path id="DejaVuSans-61" d="M 2194 1759 
Q 1497 1759 1228 1600 
Q 959 1441 959 1056 
Q 959 750 1161 570 
Q 1363 391 1709 391 
Q 2188 391 2477 730 
Q 2766 1069 2766 1631 
L 2766 1759 
L 2194 1759 
z
M 3341 1997 
L 3341 0 
L 2766 0 
L 2766 531 
Q 2569 213 2275 61 
Q 1981 -91 1556 -91 
Q 1019 -91 701 211 
Q 384 513 384 1019 
Q 384 1609 779 1909 
Q 1175 2209 1959 2209 
L 2766 2209 
L 2766 2266 
Q 2766 2663 2505 2880 
Q 2244 3097 1772 3097 
Q 1472 3097 1187 3025 
Q 903 2953 641 2809 
L 641 3341 
Q 956 3463 1253 3523 
Q 1550 3584 1831 3584 
Q 2591 3584 2966 3190 
Q 3341 2797 3341 1997 
z
" transform="scale(0.015625)"/>
       <path id="DejaVuSans-5f" d="M 3263 -1063 
L 3263 -1509 
L -63 -1509 
L -63 -1063 
L 3263 -1063 
z
" transform="scale(0.015625)"/>
      </defs>
      <use xlink:href="#DejaVuSans-53"/>
      <use xlink:href="#DejaVuSans-63" x="63.476562"/>
      <use xlink:href="#DejaVuSans-68" x="118.457031"/>
      <use xlink:href="#DejaVuSans-4e" x="181.835938"/>
      <use xlink:href="#DejaVuSans-65" x="256.640625"/>
      <use xlink:href="#DejaVuSans-74" x="318.164062"/>
      <use xlink:href="#DejaVuSans-20" x="357.373047"/>
      <use xlink:href="#DejaVuSans-65" x="389.160156"/>
      <use xlink:href="#DejaVuSans-76" x="450.683594"/>
      <use xlink:href="#DejaVuSans-61" x="509.863281"/>
      <use xlink:href="#DejaVuSans-6c" x="571.142578"/>
      <use xlink:href="#DejaVuSans-5f" x="598.925781"/>
      <use xlink:href="#DejaVuSans-6c" x="648.925781"/>
      <use xlink:href="#DejaVuSans-6f" x="676.708984"/>
      <use xlink:href="#DejaVuSans-73" x="737.890625"/>
      <use xlink:href="#DejaVuSans-73" x="789.990234"/>
     </g>
    </g>
    <g id="line2d_68">
     <path d="M 283.596563 84.204812 
L 293.596563 84.204812 
L 303.596563 84.204812 
" style="fill: none; stroke-dasharray: 5.55,2.4; stroke-dashoffset: 0; stroke: #ff7f0e; stroke-opacity: 0.4; stroke-width: 1.5"/>
    </g>
    <g id="text_16">
     <!-- MoGIN13 MEA -->
     <g transform="translate(311.596563 87.704812) scale(0.1 -0.1)">
      <defs>
       <path id="DejaVuSans-47" d="M 3809 666 
L 3809 1919 
L 2778 1919 
L 2778 2438 
L 4434 2438 
L 4434 434 
Q 4069 175 3628 42 
Q 3188 -91 2688 -91 
Q 1594 -91 976 548 
Q 359 1188 359 2328 
Q 359 3472 976 4111 
Q 1594 4750 2688 4750 
Q 3144 4750 3555 4637 
Q 3966 4525 4313 4306 
L 4313 3634 
Q 3963 3931 3569 4081 
Q 3175 4231 2741 4231 
Q 1884 4231 1454 3753 
Q 1025 3275 1025 2328 
Q 1025 1384 1454 906 
Q 1884 428 2741 428 
Q 3075 428 3337 486 
Q 3600 544 3809 666 
z
" transform="scale(0.015625)"/>
       <path id="DejaVuSans-49" d="M 628 4666 
L 1259 4666 
L 1259 0 
L 628 0 
L 628 4666 
z
" transform="scale(0.015625)"/>
      </defs>
      <use xlink:href="#DejaVuSans-4d"/>
      <use xlink:href="#DejaVuSans-6f" x="86.279297"/>
      <use xlink:href="#DejaVuSans-47" x="147.460938"/>
      <use xlink:href="#DejaVuSans-49" x="224.951172"/>
      <use xlink:href="#DejaVuSans-4e" x="254.443359"/>
      <use xlink:href="#DejaVuSans-31" x="329.248047"/>
      <use xlink:href="#DejaVuSans-33" x="392.871094"/>
      <use xlink:href="#DejaVuSans-20" x="456.494141"/>
      <use xlink:href="#DejaVuSans-4d" x="488.28125"/>
      <use xlink:href="#DejaVuSans-45" x="574.560547"/>
      <use xlink:href="#DejaVuSans-41" x="637.744141"/>
     </g>
    </g>
    <g id="line2d_69">
     <path d="M 283.596563 98.882937 
L 293.596563 98.882937 
L 303.596563 98.882937 
" style="fill: none; stroke: #ff7f0e; stroke-opacity: 0.9; stroke-linecap: square"/>
    </g>
    <g id="text_17">
     <!-- MoGIN13 eval_loss -->
     <g transform="translate(311.596563 102.382937) scale(0.1 -0.1)">
      <use xlink:href="#DejaVuSans-4d"/>
      <use xlink:href="#DejaVuSans-6f" x="86.279297"/>
      <use xlink:href="#DejaVuSans-47" x="147.460938"/>
      <use xlink:href="#DejaVuSans-49" x="224.951172"/>
      <use xlink:href="#DejaVuSans-4e" x="254.443359"/>
      <use xlink:href="#DejaVuSans-31" x="329.248047"/>
      <use xlink:href="#DejaVuSans-33" x="392.871094"/>
      <use xlink:href="#DejaVuSans-20" x="456.494141"/>
      <use xlink:href="#DejaVuSans-65" x="488.28125"/>
      <use xlink:href="#DejaVuSans-76" x="549.804688"/>
      <use xlink:href="#DejaVuSans-61" x="608.984375"/>
      <use xlink:href="#DejaVuSans-6c" x="670.263672"/>
      <use xlink:href="#DejaVuSans-5f" x="698.046875"/>
      <use xlink:href="#DejaVuSans-6c" x="748.046875"/>
      <use xlink:href="#DejaVuSans-6f" x="775.830078"/>
      <use xlink:href="#DejaVuSans-73" x="837.011719"/>
      <use xlink:href="#DejaVuSans-73" x="889.111328"/>
     </g>
    </g>
    <g id="line2d_70">
     <path d="M 283.596563 113.839187 
L 293.596563 113.839187 
L 303.596563 113.839187 
" style="fill: none; stroke-dasharray: 5.55,2.4; stroke-dashoffset: 0; stroke: #2ca02c; stroke-opacity: 0.4; stroke-width: 1.5"/>
    </g>
    <g id="text_18">
     <!-- MoGIN11 MEA -->
     <g transform="translate(311.596563 117.339187) scale(0.1 -0.1)">
      <use xlink:href="#DejaVuSans-4d"/>
      <use xlink:href="#DejaVuSans-6f" x="86.279297"/>
      <use xlink:href="#DejaVuSans-47" x="147.460938"/>
      <use xlink:href="#DejaVuSans-49" x="224.951172"/>
      <use xlink:href="#DejaVuSans-4e" x="254.443359"/>
      <use xlink:href="#DejaVuSans-31" x="329.248047"/>
      <use xlink:href="#DejaVuSans-31" x="392.871094"/>
      <use xlink:href="#DejaVuSans-20" x="456.494141"/>
      <use xlink:href="#DejaVuSans-4d" x="488.28125"/>
      <use xlink:href="#DejaVuSans-45" x="574.560547"/>
      <use xlink:href="#DejaVuSans-41" x="637.744141"/>
     </g>
    </g>
    <g id="line2d_71">
     <path d="M 283.596563 128.517312 
L 293.596563 128.517312 
L 303.596563 128.517312 
" style="fill: none; stroke: #2ca02c; stroke-opacity: 0.9; stroke-linecap: square"/>
    </g>
    <g id="text_19">
     <!-- MoGIN11 eval_loss -->
     <g transform="translate(311.596563 132.017312) scale(0.1 -0.1)">
      <use xlink:href="#DejaVuSans-4d"/>
      <use xlink:href="#DejaVuSans-6f" x="86.279297"/>
      <use xlink:href="#DejaVuSans-47" x="147.460938"/>
      <use xlink:href="#DejaVuSans-49" x="224.951172"/>
      <use xlink:href="#DejaVuSans-4e" x="254.443359"/>
      <use xlink:href="#DejaVuSans-31" x="329.248047"/>
      <use xlink:href="#DejaVuSans-31" x="392.871094"/>
      <use xlink:href="#DejaVuSans-20" x="456.494141"/>
      <use xlink:href="#DejaVuSans-65" x="488.28125"/>
      <use xlink:href="#DejaVuSans-76" x="549.804688"/>
      <use xlink:href="#DejaVuSans-61" x="608.984375"/>
      <use xlink:href="#DejaVuSans-6c" x="670.263672"/>
      <use xlink:href="#DejaVuSans-5f" x="698.046875"/>
      <use xlink:href="#DejaVuSans-6c" x="748.046875"/>
      <use xlink:href="#DejaVuSans-6f" x="775.830078"/>
      <use xlink:href="#DejaVuSans-73" x="837.011719"/>
      <use xlink:href="#DejaVuSans-73" x="889.111328"/>
     </g>
    </g>
   </g>
  </g>
 </g>
 <defs>
  <clipPath id="pce87de9f17">
   <rect x="57.6" y="41.472" width="357.12" height="266.112"/>
  </clipPath>
 </defs>
</svg>
