<?xml version="1.0" encoding="utf-8" standalone="no"?>
<!DOCTYPE svg PUBLIC "-//W3C//DTD SVG 1.1//EN"
  "http://www.w3.org/Graphics/SVG/1.1/DTD/svg11.dtd">
<svg xmlns:xlink="http://www.w3.org/1999/xlink" width="460.8pt" height="345.6pt" viewBox="0 0 460.8 345.6" xmlns="http://www.w3.org/2000/svg" version="1.1">
 <metadata>
  <rdf:RDF xmlns:dc="http://purl.org/dc/elements/1.1/" xmlns:cc="http://creativecommons.org/ns#" xmlns:rdf="http://www.w3.org/1999/02/22-rdf-syntax-ns#">
   <cc:Work>
    <dc:type rdf:resource="http://purl.org/dc/dcmitype/StillImage"/>
    <dc:date>2025-02-18T22:00:17.969472</dc:date>
    <dc:format>image/svg+xml</dc:format>
    <dc:creator>
     <cc:Agent>
      <dc:title>Matplotlib v3.8.4, https://matplotlib.org/</dc:title>
     </cc:Agent>
    </dc:creator>
   </cc:Work>
  </rdf:RDF>
 </metadata>
 <defs>
  <style type="text/css">*{stroke-linejoin: round; stroke-linecap: butt}</style>
 </defs>
 <g id="figure_1">
  <g id="patch_1">
   <path d="M 0 345.6 
L 460.8 345.6 
L 460.8 0 
L 0 0 
z
" style="fill: #ffffff"/>
  </g>
  <g id="axes_1">
   <g id="patch_2">
    <path d="M 57.6 307.584 
L 414.72 307.584 
L 414.72 41.472 
L 57.6 41.472 
z
" style="fill: #ffffff"/>
   </g>
   <g id="matplotlib.axis_1">
    <g id="xtick_1">
     <g id="line2d_1">
      <defs>
       <path id="m6dffc5ea0e" d="M 0 0 
L 0 3.5 
" style="stroke: #000000; stroke-width: 0.8"/>
      </defs>
      <g>
       <use xlink:href="#m6dffc5ea0e" x="73.832727" y="307.584" style="stroke: #000000; stroke-width: 0.8"/>
      </g>
     </g>
     <g id="text_1">
      <!-- $\mathdefault{10^{0}}$ -->
      <g transform="translate(65.032727 322.182437) scale(0.1 -0.1)">
       <defs>
        <path id="DejaVuSans-31" d="M 794 531 
L 1825 531 
L 1825 4091 
L 703 3866 
L 703 4441 
L 1819 4666 
L 2450 4666 
L 2450 531 
L 3481 531 
L 3481 0 
L 794 0 
L 794 531 
z
" transform="scale(0.015625)"/>
        <path id="DejaVuSans-30" d="M 2034 4250 
Q 1547 4250 1301 3770 
Q 1056 3291 1056 2328 
Q 1056 1369 1301 889 
Q 1547 409 2034 409 
Q 2525 409 2770 889 
Q 3016 1369 3016 2328 
Q 3016 3291 2770 3770 
Q 2525 4250 2034 4250 
z
M 2034 4750 
Q 2819 4750 3233 4129 
Q 3647 3509 3647 2328 
Q 3647 1150 3233 529 
Q 2819 -91 2034 -91 
Q 1250 -91 836 529 
Q 422 1150 422 2328 
Q 422 3509 836 4129 
Q 1250 4750 2034 4750 
z
" transform="scale(0.015625)"/>
       </defs>
       <use xlink:href="#DejaVuSans-31" transform="translate(0 0.765625)"/>
       <use xlink:href="#DejaVuSans-30" transform="translate(63.623047 0.765625)"/>
       <use xlink:href="#DejaVuSans-30" transform="translate(128.203125 39.046875) scale(0.7)"/>
      </g>
     </g>
    </g>
    <g id="xtick_2">
     <g id="line2d_2">
      <g>
       <use xlink:href="#m6dffc5ea0e" x="150.075249" y="307.584" style="stroke: #000000; stroke-width: 0.8"/>
      </g>
     </g>
     <g id="text_2">
      <!-- $\mathdefault{10^{1}}$ -->
      <g transform="translate(141.275249 322.182437) scale(0.1 -0.1)">
       <use xlink:href="#DejaVuSans-31" transform="translate(0 0.684375)"/>
       <use xlink:href="#DejaVuSans-30" transform="translate(63.623047 0.684375)"/>
       <use xlink:href="#DejaVuSans-31" transform="translate(128.203125 38.965625) scale(0.7)"/>
      </g>
     </g>
    </g>
    <g id="xtick_3">
     <g id="line2d_3">
      <g>
       <use xlink:href="#m6dffc5ea0e" x="226.317771" y="307.584" style="stroke: #000000; stroke-width: 0.8"/>
      </g>
     </g>
     <g id="text_3">
      <!-- $\mathdefault{10^{2}}$ -->
      <g transform="translate(217.517771 322.182437) scale(0.1 -0.1)">
       <defs>
        <path id="DejaVuSans-32" d="M 1228 531 
L 3431 531 
L 3431 0 
L 469 0 
L 469 531 
Q 828 903 1448 1529 
Q 2069 2156 2228 2338 
Q 2531 2678 2651 2914 
Q 2772 3150 2772 3378 
Q 2772 3750 2511 3984 
Q 2250 4219 1831 4219 
Q 1534 4219 1204 4116 
Q 875 4013 500 3803 
L 500 4441 
Q 881 4594 1212 4672 
Q 1544 4750 1819 4750 
Q 2544 4750 2975 4387 
Q 3406 4025 3406 3419 
Q 3406 3131 3298 2873 
Q 3191 2616 2906 2266 
Q 2828 2175 2409 1742 
Q 1991 1309 1228 531 
z
" transform="scale(0.015625)"/>
       </defs>
       <use xlink:href="#DejaVuSans-31" transform="translate(0 0.765625)"/>
       <use xlink:href="#DejaVuSans-30" transform="translate(63.623047 0.765625)"/>
       <use xlink:href="#DejaVuSans-32" transform="translate(128.203125 39.046875) scale(0.7)"/>
      </g>
     </g>
    </g>
    <g id="xtick_4">
     <g id="line2d_4">
      <g>
       <use xlink:href="#m6dffc5ea0e" x="302.560292" y="307.584" style="stroke: #000000; stroke-width: 0.8"/>
      </g>
     </g>
     <g id="text_4">
      <!-- $\mathdefault{10^{3}}$ -->
      <g transform="translate(293.760292 322.182437) scale(0.1 -0.1)">
       <defs>
        <path id="DejaVuSans-33" d="M 2597 2516 
Q 3050 2419 3304 2112 
Q 3559 1806 3559 1356 
Q 3559 666 3084 287 
Q 2609 -91 1734 -91 
Q 1441 -91 1130 -33 
Q 819 25 488 141 
L 488 750 
Q 750 597 1062 519 
Q 1375 441 1716 441 
Q 2309 441 2620 675 
Q 2931 909 2931 1356 
Q 2931 1769 2642 2001 
Q 2353 2234 1838 2234 
L 1294 2234 
L 1294 2753 
L 1863 2753 
Q 2328 2753 2575 2939 
Q 2822 3125 2822 3475 
Q 2822 3834 2567 4026 
Q 2313 4219 1838 4219 
Q 1578 4219 1281 4162 
Q 984 4106 628 3988 
L 628 4550 
Q 988 4650 1302 4700 
Q 1616 4750 1894 4750 
Q 2613 4750 3031 4423 
Q 3450 4097 3450 3541 
Q 3450 3153 3228 2886 
Q 3006 2619 2597 2516 
z
" transform="scale(0.015625)"/>
       </defs>
       <use xlink:href="#DejaVuSans-31" transform="translate(0 0.765625)"/>
       <use xlink:href="#DejaVuSans-30" transform="translate(63.623047 0.765625)"/>
       <use xlink:href="#DejaVuSans-33" transform="translate(128.203125 39.046875) scale(0.7)"/>
      </g>
     </g>
    </g>
    <g id="xtick_5">
     <g id="line2d_5">
      <g>
       <use xlink:href="#m6dffc5ea0e" x="378.802814" y="307.584" style="stroke: #000000; stroke-width: 0.8"/>
      </g>
     </g>
     <g id="text_5">
      <!-- $\mathdefault{10^{4}}$ -->
      <g transform="translate(370.002814 322.182437) scale(0.1 -0.1)">
       <defs>
        <path id="DejaVuSans-34" d="M 2419 4116 
L 825 1625 
L 2419 1625 
L 2419 4116 
z
M 2253 4666 
L 3047 4666 
L 3047 1625 
L 3713 1625 
L 3713 1100 
L 3047 1100 
L 3047 0 
L 2419 0 
L 2419 1100 
L 313 1100 
L 313 1709 
L 2253 4666 
z
" transform="scale(0.015625)"/>
       </defs>
       <use xlink:href="#DejaVuSans-31" transform="translate(0 0.684375)"/>
       <use xlink:href="#DejaVuSans-30" transform="translate(63.623047 0.684375)"/>
       <use xlink:href="#DejaVuSans-34" transform="translate(128.203125 38.965625) scale(0.7)"/>
      </g>
     </g>
    </g>
    <g id="xtick_6">
     <g id="line2d_6">
      <defs>
       <path id="md550fd6988" d="M 0 0 
L 0 2 
" style="stroke: #000000; stroke-width: 0.6"/>
      </defs>
      <g>
       <use xlink:href="#md550fd6988" x="62.022611" y="307.584" style="stroke: #000000; stroke-width: 0.6"/>
      </g>
     </g>
    </g>
    <g id="xtick_7">
     <g id="line2d_7">
      <g>
       <use xlink:href="#md550fd6988" x="66.444064" y="307.584" style="stroke: #000000; stroke-width: 0.6"/>
      </g>
     </g>
    </g>
    <g id="xtick_8">
     <g id="line2d_8">
      <g>
       <use xlink:href="#md550fd6988" x="70.344061" y="307.584" style="stroke: #000000; stroke-width: 0.6"/>
      </g>
     </g>
    </g>
    <g id="xtick_9">
     <g id="line2d_9">
      <g>
       <use xlink:href="#md550fd6988" x="96.784013" y="307.584" style="stroke: #000000; stroke-width: 0.6"/>
      </g>
     </g>
    </g>
    <g id="xtick_10">
     <g id="line2d_10">
      <g>
       <use xlink:href="#md550fd6988" x="110.209655" y="307.584" style="stroke: #000000; stroke-width: 0.6"/>
      </g>
     </g>
    </g>
    <g id="xtick_11">
     <g id="line2d_11">
      <g>
       <use xlink:href="#md550fd6988" x="119.735299" y="307.584" style="stroke: #000000; stroke-width: 0.6"/>
      </g>
     </g>
    </g>
    <g id="xtick_12">
     <g id="line2d_12">
      <g>
       <use xlink:href="#md550fd6988" x="127.123963" y="307.584" style="stroke: #000000; stroke-width: 0.6"/>
      </g>
     </g>
    </g>
    <g id="xtick_13">
     <g id="line2d_13">
      <g>
       <use xlink:href="#md550fd6988" x="133.160941" y="307.584" style="stroke: #000000; stroke-width: 0.6"/>
      </g>
     </g>
    </g>
    <g id="xtick_14">
     <g id="line2d_14">
      <g>
       <use xlink:href="#md550fd6988" x="138.265133" y="307.584" style="stroke: #000000; stroke-width: 0.6"/>
      </g>
     </g>
    </g>
    <g id="xtick_15">
     <g id="line2d_15">
      <g>
       <use xlink:href="#md550fd6988" x="142.686585" y="307.584" style="stroke: #000000; stroke-width: 0.6"/>
      </g>
     </g>
    </g>
    <g id="xtick_16">
     <g id="line2d_16">
      <g>
       <use xlink:href="#md550fd6988" x="146.586582" y="307.584" style="stroke: #000000; stroke-width: 0.6"/>
      </g>
     </g>
    </g>
    <g id="xtick_17">
     <g id="line2d_17">
      <g>
       <use xlink:href="#md550fd6988" x="173.026535" y="307.584" style="stroke: #000000; stroke-width: 0.6"/>
      </g>
     </g>
    </g>
    <g id="xtick_18">
     <g id="line2d_18">
      <g>
       <use xlink:href="#md550fd6988" x="186.452176" y="307.584" style="stroke: #000000; stroke-width: 0.6"/>
      </g>
     </g>
    </g>
    <g id="xtick_19">
     <g id="line2d_19">
      <g>
       <use xlink:href="#md550fd6988" x="195.977821" y="307.584" style="stroke: #000000; stroke-width: 0.6"/>
      </g>
     </g>
    </g>
    <g id="xtick_20">
     <g id="line2d_20">
      <g>
       <use xlink:href="#md550fd6988" x="203.366485" y="307.584" style="stroke: #000000; stroke-width: 0.6"/>
      </g>
     </g>
    </g>
    <g id="xtick_21">
     <g id="line2d_21">
      <g>
       <use xlink:href="#md550fd6988" x="209.403462" y="307.584" style="stroke: #000000; stroke-width: 0.6"/>
      </g>
     </g>
    </g>
    <g id="xtick_22">
     <g id="line2d_22">
      <g>
       <use xlink:href="#md550fd6988" x="214.507654" y="307.584" style="stroke: #000000; stroke-width: 0.6"/>
      </g>
     </g>
    </g>
    <g id="xtick_23">
     <g id="line2d_23">
      <g>
       <use xlink:href="#md550fd6988" x="218.929107" y="307.584" style="stroke: #000000; stroke-width: 0.6"/>
      </g>
     </g>
    </g>
    <g id="xtick_24">
     <g id="line2d_24">
      <g>
       <use xlink:href="#md550fd6988" x="222.829104" y="307.584" style="stroke: #000000; stroke-width: 0.6"/>
      </g>
     </g>
    </g>
    <g id="xtick_25">
     <g id="line2d_25">
      <g>
       <use xlink:href="#md550fd6988" x="249.269056" y="307.584" style="stroke: #000000; stroke-width: 0.6"/>
      </g>
     </g>
    </g>
    <g id="xtick_26">
     <g id="line2d_26">
      <g>
       <use xlink:href="#md550fd6988" x="262.694698" y="307.584" style="stroke: #000000; stroke-width: 0.6"/>
      </g>
     </g>
    </g>
    <g id="xtick_27">
     <g id="line2d_27">
      <g>
       <use xlink:href="#md550fd6988" x="272.220342" y="307.584" style="stroke: #000000; stroke-width: 0.6"/>
      </g>
     </g>
    </g>
    <g id="xtick_28">
     <g id="line2d_28">
      <g>
       <use xlink:href="#md550fd6988" x="279.609006" y="307.584" style="stroke: #000000; stroke-width: 0.6"/>
      </g>
     </g>
    </g>
    <g id="xtick_29">
     <g id="line2d_29">
      <g>
       <use xlink:href="#md550fd6988" x="285.645984" y="307.584" style="stroke: #000000; stroke-width: 0.6"/>
      </g>
     </g>
    </g>
    <g id="xtick_30">
     <g id="line2d_30">
      <g>
       <use xlink:href="#md550fd6988" x="290.750176" y="307.584" style="stroke: #000000; stroke-width: 0.6"/>
      </g>
     </g>
    </g>
    <g id="xtick_31">
     <g id="line2d_31">
      <g>
       <use xlink:href="#md550fd6988" x="295.171628" y="307.584" style="stroke: #000000; stroke-width: 0.6"/>
      </g>
     </g>
    </g>
    <g id="xtick_32">
     <g id="line2d_32">
      <g>
       <use xlink:href="#md550fd6988" x="299.071626" y="307.584" style="stroke: #000000; stroke-width: 0.6"/>
      </g>
     </g>
    </g>
    <g id="xtick_33">
     <g id="line2d_33">
      <g>
       <use xlink:href="#md550fd6988" x="325.511578" y="307.584" style="stroke: #000000; stroke-width: 0.6"/>
      </g>
     </g>
    </g>
    <g id="xtick_34">
     <g id="line2d_34">
      <g>
       <use xlink:href="#md550fd6988" x="338.93722" y="307.584" style="stroke: #000000; stroke-width: 0.6"/>
      </g>
     </g>
    </g>
    <g id="xtick_35">
     <g id="line2d_35">
      <g>
       <use xlink:href="#md550fd6988" x="348.462864" y="307.584" style="stroke: #000000; stroke-width: 0.6"/>
      </g>
     </g>
    </g>
    <g id="xtick_36">
     <g id="line2d_36">
      <g>
       <use xlink:href="#md550fd6988" x="355.851528" y="307.584" style="stroke: #000000; stroke-width: 0.6"/>
      </g>
     </g>
    </g>
    <g id="xtick_37">
     <g id="line2d_37">
      <g>
       <use xlink:href="#md550fd6988" x="361.888506" y="307.584" style="stroke: #000000; stroke-width: 0.6"/>
      </g>
     </g>
    </g>
    <g id="xtick_38">
     <g id="line2d_38">
      <g>
       <use xlink:href="#md550fd6988" x="366.992698" y="307.584" style="stroke: #000000; stroke-width: 0.6"/>
      </g>
     </g>
    </g>
    <g id="xtick_39">
     <g id="line2d_39">
      <g>
       <use xlink:href="#md550fd6988" x="371.41415" y="307.584" style="stroke: #000000; stroke-width: 0.6"/>
      </g>
     </g>
    </g>
    <g id="xtick_40">
     <g id="line2d_40">
      <g>
       <use xlink:href="#md550fd6988" x="375.314147" y="307.584" style="stroke: #000000; stroke-width: 0.6"/>
      </g>
     </g>
    </g>
    <g id="xtick_41">
     <g id="line2d_41">
      <g>
       <use xlink:href="#md550fd6988" x="401.7541" y="307.584" style="stroke: #000000; stroke-width: 0.6"/>
      </g>
     </g>
    </g>
    <g id="text_6">
     <!-- iter# -->
     <g transform="translate(223.488906 335.860562) scale(0.1 -0.1)">
      <defs>
       <path id="DejaVuSans-69" d="M 603 3500 
L 1178 3500 
L 1178 0 
L 603 0 
L 603 3500 
z
M 603 4863 
L 1178 4863 
L 1178 4134 
L 603 4134 
L 603 4863 
z
" transform="scale(0.015625)"/>
       <path id="DejaVuSans-74" d="M 1172 4494 
L 1172 3500 
L 2356 3500 
L 2356 3053 
L 1172 3053 
L 1172 1153 
Q 1172 725 1289 603 
Q 1406 481 1766 481 
L 2356 481 
L 2356 0 
L 1766 0 
Q 1100 0 847 248 
Q 594 497 594 1153 
L 594 3053 
L 172 3053 
L 172 3500 
L 594 3500 
L 594 4494 
L 1172 4494 
z
" transform="scale(0.015625)"/>
       <path id="DejaVuSans-65" d="M 3597 1894 
L 3597 1613 
L 953 1613 
Q 991 1019 1311 708 
Q 1631 397 2203 397 
Q 2534 397 2845 478 
Q 3156 559 3463 722 
L 3463 178 
Q 3153 47 2828 -22 
Q 2503 -91 2169 -91 
Q 1331 -91 842 396 
Q 353 884 353 1716 
Q 353 2575 817 3079 
Q 1281 3584 2069 3584 
Q 2775 3584 3186 3129 
Q 3597 2675 3597 1894 
z
M 3022 2063 
Q 3016 2534 2758 2815 
Q 2500 3097 2075 3097 
Q 1594 3097 1305 2825 
Q 1016 2553 972 2059 
L 3022 2063 
z
" transform="scale(0.015625)"/>
       <path id="DejaVuSans-72" d="M 2631 2963 
Q 2534 3019 2420 3045 
Q 2306 3072 2169 3072 
Q 1681 3072 1420 2755 
Q 1159 2438 1159 1844 
L 1159 0 
L 581 0 
L 581 3500 
L 1159 3500 
L 1159 2956 
Q 1341 3275 1631 3429 
Q 1922 3584 2338 3584 
Q 2397 3584 2469 3576 
Q 2541 3569 2628 3553 
L 2631 2963 
z
" transform="scale(0.015625)"/>
       <path id="DejaVuSans-23" d="M 3272 2816 
L 2363 2816 
L 2100 1772 
L 3016 1772 
L 3272 2816 
z
M 2803 4594 
L 2478 3297 
L 3391 3297 
L 3719 4594 
L 4219 4594 
L 3897 3297 
L 4872 3297 
L 4872 2816 
L 3775 2816 
L 3519 1772 
L 4513 1772 
L 4513 1294 
L 3397 1294 
L 3072 0 
L 2572 0 
L 2894 1294 
L 1978 1294 
L 1656 0 
L 1153 0 
L 1478 1294 
L 494 1294 
L 494 1772 
L 1594 1772 
L 1856 2816 
L 850 2816 
L 850 3297 
L 1978 3297 
L 2297 4594 
L 2803 4594 
z
" transform="scale(0.015625)"/>
      </defs>
      <use xlink:href="#DejaVuSans-69"/>
      <use xlink:href="#DejaVuSans-74" x="27.783203"/>
      <use xlink:href="#DejaVuSans-65" x="66.992188"/>
      <use xlink:href="#DejaVuSans-72" x="128.515625"/>
      <use xlink:href="#DejaVuSans-23" x="169.628906"/>
     </g>
    </g>
   </g>
   <g id="matplotlib.axis_2">
    <g id="ytick_1">
     <g id="line2d_42">
      <defs>
       <path id="mde129b23b1" d="M 0 0 
L -3.5 0 
" style="stroke: #000000; stroke-width: 0.8"/>
      </defs>
      <g>
       <use xlink:href="#mde129b23b1" x="57.6" y="288.30051" style="stroke: #000000; stroke-width: 0.8"/>
      </g>
     </g>
     <g id="text_7">
      <!-- $\mathdefault{10^{-2}}$ -->
      <g transform="translate(27.1 292.099729) scale(0.1 -0.1)">
       <defs>
        <path id="DejaVuSans-2212" d="M 678 2272 
L 4684 2272 
L 4684 1741 
L 678 1741 
L 678 2272 
z
" transform="scale(0.015625)"/>
       </defs>
       <use xlink:href="#DejaVuSans-31" transform="translate(0 0.765625)"/>
       <use xlink:href="#DejaVuSans-30" transform="translate(63.623047 0.765625)"/>
       <use xlink:href="#DejaVuSans-2212" transform="translate(128.203125 39.046875) scale(0.7)"/>
       <use xlink:href="#DejaVuSans-32" transform="translate(186.855469 39.046875) scale(0.7)"/>
      </g>
     </g>
    </g>
    <g id="ytick_2">
     <g id="line2d_43">
      <g>
       <use xlink:href="#mde129b23b1" x="57.6" y="214.397272" style="stroke: #000000; stroke-width: 0.8"/>
      </g>
     </g>
     <g id="text_8">
      <!-- $\mathdefault{10^{-1}}$ -->
      <g transform="translate(27.1 218.19649) scale(0.1 -0.1)">
       <use xlink:href="#DejaVuSans-31" transform="translate(0 0.684375)"/>
       <use xlink:href="#DejaVuSans-30" transform="translate(63.623047 0.684375)"/>
       <use xlink:href="#DejaVuSans-2212" transform="translate(128.203125 38.965625) scale(0.7)"/>
       <use xlink:href="#DejaVuSans-31" transform="translate(186.855469 38.965625) scale(0.7)"/>
      </g>
     </g>
    </g>
    <g id="ytick_3">
     <g id="line2d_44">
      <g>
       <use xlink:href="#mde129b23b1" x="57.6" y="140.494033" style="stroke: #000000; stroke-width: 0.8"/>
      </g>
     </g>
     <g id="text_9">
      <!-- $\mathdefault{10^{0}}$ -->
      <g transform="translate(33 144.293251) scale(0.1 -0.1)">
       <use xlink:href="#DejaVuSans-31" transform="translate(0 0.765625)"/>
       <use xlink:href="#DejaVuSans-30" transform="translate(63.623047 0.765625)"/>
       <use xlink:href="#DejaVuSans-30" transform="translate(128.203125 39.046875) scale(0.7)"/>
      </g>
     </g>
    </g>
    <g id="ytick_4">
     <g id="line2d_45">
      <g>
       <use xlink:href="#mde129b23b1" x="57.6" y="66.590794" style="stroke: #000000; stroke-width: 0.8"/>
      </g>
     </g>
     <g id="text_10">
      <!-- $\mathdefault{10^{1}}$ -->
      <g transform="translate(33 70.390012) scale(0.1 -0.1)">
       <use xlink:href="#DejaVuSans-31" transform="translate(0 0.684375)"/>
       <use xlink:href="#DejaVuSans-30" transform="translate(63.623047 0.684375)"/>
       <use xlink:href="#DejaVuSans-31" transform="translate(128.203125 38.965625) scale(0.7)"/>
      </g>
     </g>
    </g>
    <g id="ytick_5">
     <g id="line2d_46">
      <defs>
       <path id="m8950543a00" d="M 0 0 
L -2 0 
" style="stroke: #000000; stroke-width: 0.6"/>
      </defs>
      <g>
       <use xlink:href="#m8950543a00" x="57.6" y="304.695852" style="stroke: #000000; stroke-width: 0.6"/>
      </g>
     </g>
    </g>
    <g id="ytick_6">
     <g id="line2d_47">
      <g>
       <use xlink:href="#m8950543a00" x="57.6" y="299.748267" style="stroke: #000000; stroke-width: 0.6"/>
      </g>
     </g>
    </g>
    <g id="ytick_7">
     <g id="line2d_48">
      <g>
       <use xlink:href="#m8950543a00" x="57.6" y="295.462474" style="stroke: #000000; stroke-width: 0.6"/>
      </g>
     </g>
    </g>
    <g id="ytick_8">
     <g id="line2d_49">
      <g>
       <use xlink:href="#m8950543a00" x="57.6" y="291.682137" style="stroke: #000000; stroke-width: 0.6"/>
      </g>
     </g>
    </g>
    <g id="ytick_9">
     <g id="line2d_50">
      <g>
       <use xlink:href="#m8950543a00" x="57.6" y="266.053419" style="stroke: #000000; stroke-width: 0.6"/>
      </g>
     </g>
    </g>
    <g id="ytick_10">
     <g id="line2d_51">
      <g>
       <use xlink:href="#m8950543a00" x="57.6" y="253.039704" style="stroke: #000000; stroke-width: 0.6"/>
      </g>
     </g>
    </g>
    <g id="ytick_11">
     <g id="line2d_52">
      <g>
       <use xlink:href="#m8950543a00" x="57.6" y="243.806327" style="stroke: #000000; stroke-width: 0.6"/>
      </g>
     </g>
    </g>
    <g id="ytick_12">
     <g id="line2d_53">
      <g>
       <use xlink:href="#m8950543a00" x="57.6" y="236.644363" style="stroke: #000000; stroke-width: 0.6"/>
      </g>
     </g>
    </g>
    <g id="ytick_13">
     <g id="line2d_54">
      <g>
       <use xlink:href="#m8950543a00" x="57.6" y="230.792613" style="stroke: #000000; stroke-width: 0.6"/>
      </g>
     </g>
    </g>
    <g id="ytick_14">
     <g id="line2d_55">
      <g>
       <use xlink:href="#m8950543a00" x="57.6" y="225.845028" style="stroke: #000000; stroke-width: 0.6"/>
      </g>
     </g>
    </g>
    <g id="ytick_15">
     <g id="line2d_56">
      <g>
       <use xlink:href="#m8950543a00" x="57.6" y="221.559235" style="stroke: #000000; stroke-width: 0.6"/>
      </g>
     </g>
    </g>
    <g id="ytick_16">
     <g id="line2d_57">
      <g>
       <use xlink:href="#m8950543a00" x="57.6" y="217.778898" style="stroke: #000000; stroke-width: 0.6"/>
      </g>
     </g>
    </g>
    <g id="ytick_17">
     <g id="line2d_58">
      <g>
       <use xlink:href="#m8950543a00" x="57.6" y="192.15018" style="stroke: #000000; stroke-width: 0.6"/>
      </g>
     </g>
    </g>
    <g id="ytick_18">
     <g id="line2d_59">
      <g>
       <use xlink:href="#m8950543a00" x="57.6" y="179.136465" style="stroke: #000000; stroke-width: 0.6"/>
      </g>
     </g>
    </g>
    <g id="ytick_19">
     <g id="line2d_60">
      <g>
       <use xlink:href="#m8950543a00" x="57.6" y="169.903088" style="stroke: #000000; stroke-width: 0.6"/>
      </g>
     </g>
    </g>
    <g id="ytick_20">
     <g id="line2d_61">
      <g>
       <use xlink:href="#m8950543a00" x="57.6" y="162.741124" style="stroke: #000000; stroke-width: 0.6"/>
      </g>
     </g>
    </g>
    <g id="ytick_21">
     <g id="line2d_62">
      <g>
       <use xlink:href="#m8950543a00" x="57.6" y="156.889374" style="stroke: #000000; stroke-width: 0.6"/>
      </g>
     </g>
    </g>
    <g id="ytick_22">
     <g id="line2d_63">
      <g>
       <use xlink:href="#m8950543a00" x="57.6" y="151.941789" style="stroke: #000000; stroke-width: 0.6"/>
      </g>
     </g>
    </g>
    <g id="ytick_23">
     <g id="line2d_64">
      <g>
       <use xlink:href="#m8950543a00" x="57.6" y="147.655996" style="stroke: #000000; stroke-width: 0.6"/>
      </g>
     </g>
    </g>
    <g id="ytick_24">
     <g id="line2d_65">
      <g>
       <use xlink:href="#m8950543a00" x="57.6" y="143.875659" style="stroke: #000000; stroke-width: 0.6"/>
      </g>
     </g>
    </g>
    <g id="ytick_25">
     <g id="line2d_66">
      <g>
       <use xlink:href="#m8950543a00" x="57.6" y="118.246941" style="stroke: #000000; stroke-width: 0.6"/>
      </g>
     </g>
    </g>
    <g id="ytick_26">
     <g id="line2d_67">
      <g>
       <use xlink:href="#m8950543a00" x="57.6" y="105.233227" style="stroke: #000000; stroke-width: 0.6"/>
      </g>
     </g>
    </g>
    <g id="ytick_27">
     <g id="line2d_68">
      <g>
       <use xlink:href="#m8950543a00" x="57.6" y="95.999849" style="stroke: #000000; stroke-width: 0.6"/>
      </g>
     </g>
    </g>
    <g id="ytick_28">
     <g id="line2d_69">
      <g>
       <use xlink:href="#m8950543a00" x="57.6" y="88.837885" style="stroke: #000000; stroke-width: 0.6"/>
      </g>
     </g>
    </g>
    <g id="ytick_29">
     <g id="line2d_70">
      <g>
       <use xlink:href="#m8950543a00" x="57.6" y="82.986135" style="stroke: #000000; stroke-width: 0.6"/>
      </g>
     </g>
    </g>
    <g id="ytick_30">
     <g id="line2d_71">
      <g>
       <use xlink:href="#m8950543a00" x="57.6" y="78.03855" style="stroke: #000000; stroke-width: 0.6"/>
      </g>
     </g>
    </g>
    <g id="ytick_31">
     <g id="line2d_72">
      <g>
       <use xlink:href="#m8950543a00" x="57.6" y="73.752758" style="stroke: #000000; stroke-width: 0.6"/>
      </g>
     </g>
    </g>
    <g id="ytick_32">
     <g id="line2d_73">
      <g>
       <use xlink:href="#m8950543a00" x="57.6" y="69.97242" style="stroke: #000000; stroke-width: 0.6"/>
      </g>
     </g>
    </g>
    <g id="ytick_33">
     <g id="line2d_74">
      <g>
       <use xlink:href="#m8950543a00" x="57.6" y="44.343702" style="stroke: #000000; stroke-width: 0.6"/>
      </g>
     </g>
    </g>
    <g id="text_11">
     <!-- loss -->
     <g transform="translate(21.020313 184.185812) rotate(-90) scale(0.1 -0.1)">
      <defs>
       <path id="DejaVuSans-6c" d="M 603 4863 
L 1178 4863 
L 1178 0 
L 603 0 
L 603 4863 
z
" transform="scale(0.015625)"/>
       <path id="DejaVuSans-6f" d="M 1959 3097 
Q 1497 3097 1228 2736 
Q 959 2375 959 1747 
Q 959 1119 1226 758 
Q 1494 397 1959 397 
Q 2419 397 2687 759 
Q 2956 1122 2956 1747 
Q 2956 2369 2687 2733 
Q 2419 3097 1959 3097 
z
M 1959 3584 
Q 2709 3584 3137 3096 
Q 3566 2609 3566 1747 
Q 3566 888 3137 398 
Q 2709 -91 1959 -91 
Q 1206 -91 779 398 
Q 353 888 353 1747 
Q 353 2609 779 3096 
Q 1206 3584 1959 3584 
z
" transform="scale(0.015625)"/>
       <path id="DejaVuSans-73" d="M 2834 3397 
L 2834 2853 
Q 2591 2978 2328 3040 
Q 2066 3103 1784 3103 
Q 1356 3103 1142 2972 
Q 928 2841 928 2578 
Q 928 2378 1081 2264 
Q 1234 2150 1697 2047 
L 1894 2003 
Q 2506 1872 2764 1633 
Q 3022 1394 3022 966 
Q 3022 478 2636 193 
Q 2250 -91 1575 -91 
Q 1294 -91 989 -36 
Q 684 19 347 128 
L 347 722 
Q 666 556 975 473 
Q 1284 391 1588 391 
Q 1994 391 2212 530 
Q 2431 669 2431 922 
Q 2431 1156 2273 1281 
Q 2116 1406 1581 1522 
L 1381 1569 
Q 847 1681 609 1914 
Q 372 2147 372 2553 
Q 372 3047 722 3315 
Q 1072 3584 1716 3584 
Q 2034 3584 2315 3537 
Q 2597 3491 2834 3397 
z
" transform="scale(0.015625)"/>
      </defs>
      <use xlink:href="#DejaVuSans-6c"/>
      <use xlink:href="#DejaVuSans-6f" x="27.783203"/>
      <use xlink:href="#DejaVuSans-73" x="88.964844"/>
      <use xlink:href="#DejaVuSans-73" x="141.064453"/>
     </g>
    </g>
   </g>
   <g id="line2d_75">
    <path d="M 73.832727 53.568 
L 212.053813 77.957036 
L 234.749409 92.967838 
L 248.08938 104.569488 
L 257.572106 114.225135 
L 264.934991 122.870454 
L 270.954773 130.743829 
L 276.046676 137.994481 
L 280.458909 144.962341 
L 284.351734 151.420026 
L 287.834661 157.523629 
L 290.985848 163.427267 
L 298.961069 179.250188 
L 301.24308 183.600476 
L 303.377907 188.774475 
L 305.383391 193.23701 
L 307.274314 197.822841 
L 309.063061 200.261584 
L 310.760109 202.191647 
L 312.374404 206.612682 
L 313.913642 205.739119 
L 315.384494 210.009849 
L 316.792779 211.909008 
L 318.143603 215.172622 
L 319.441472 217.501657 
L 320.690382 220.981248 
L 321.893893 223.997842 
L 323.05519 225.468022 
L 324.177133 228.027643 
L 325.262304 226.977811 
L 326.313037 227.053796 
L 326.586622 226.556598 
L 327.596781 228.662281 
L 331.354839 239.870784 
L 333.08515 244.165978 
L 334.729514 247.564112 
L 336.296066 250.207952 
L 337.791838 252.237527 
L 339.222951 253.774145 
L 340.594765 254.932462 
L 342.551472 256.185644 
L 344.398973 257.07188 
L 346.712133 257.935316 
L 349.529894 258.698484 
L 350.038947 258.706587 
L 350.540294 257.099369 
L 351.520772 258.370123 
L 352.000334 258.691365 
L 352.939112 260.48354 
L 353.852006 262.257826 
L 354.299185 262.673245 
L 354.740405 261.601024 
L 355.60559 262.856024 
L 356.02985 259.845521 
L 356.448743 260.153701 
L 356.862402 260.734808 
L 357.674533 262.522268 
L 358.46722 263.171975 
L 358.85656 263.302531 
L 359.241374 262.816526 
L 359.621768 263.340402 
L 359.997841 261.228501 
L 360.36969 261.346315 
L 360.737411 262.454317 
L 361.101092 262.89998 
L 361.816686 264.60048 
L 362.168766 264.869736 
L 362.517141 263.803076 
L 362.86189 260.081326 
L 362.952863 256.95225 
L 363.293128 254.837885 
L 363.963344 258.823868 
L 364.293432 257.694777 
L 364.620262 259.211717 
L 364.943898 256.211098 
L 365.264401 255.25347 
L 365.581831 253.354308 
L 365.896247 253.652354 
L 366.207706 256.362609 
L 366.516262 256.906819 
L 366.82197 257.773982 
L 367.425045 254.424777 
L 367.722513 256.612602 
L 368.017333 255.261821 
L 368.309551 255.187795 
L 368.599212 255.894942 
L 368.886362 258.204004 
L 369.171042 250.54075 
L 369.453296 252.019426 
L 369.733164 254.1911 
L 370.010687 254.879799 
L 370.285902 252.008845 
L 370.558849 255.239002 
L 370.829565 254.591993 
L 371.098085 254.755799 
L 371.364445 248.99486 
L 371.62868 248.618038 
L 371.890822 251.898198 
L 372.150906 253.180475 
L 372.408962 255.231049 
L 372.477172 257.818625 
L 372.732708 252.632797 
L 373.735576 262.371573 
L 374.468284 268.309294 
L 374.708961 267.257086 
L 374.9479 269.659067 
L 375.185129 268.041636 
L 375.420669 269.130989 
L 375.654546 271.47952 
L 376.117401 273.914694 
L 376.346425 273.231151 
L 376.573876 273.601623 
L 377.024143 268.537914 
L 377.247001 268.915052 
L 377.468369 268.576218 
L 377.688267 264.333217 
L 377.906714 265.790127 
L 378.339332 270.196772 
L 378.766371 267.637869 
L 378.977842 267.857311 
L 379.187972 267.058856 
L 379.396776 268.273654 
L 379.604272 253.444005 
L 379.810476 254.023657 
L 379.865034 249.982047 
L 381.271316 273.349895 
L 382.048878 282.345472 
L 382.808599 288.139166 
L 383.367165 291.043766 
L 384.097558 293.349566 
L 384.277667 293.507207 
L 384.812187 294.520627 
L 385.1638 295.063771 
L 385.338216 295.052981 
L 385.856018 295.488 
L 386.07206 229.646863 
L 386.410613 227.890938 
L 387.077506 235.4306 
L 387.569007 241.450924 
L 387.892667 243.89437 
L 388.530649 250.257741 
L 388.688242 251.630914 
L 388.845088 254.023954 
L 389.001195 254.602591 
L 389.15657 252.750741 
L 389.311219 254.34475 
L 389.465149 254.189688 
L 389.618366 251.109279 
L 390.073811 253.299864 
L 390.224244 253.222652 
L 390.373997 253.44567 
L 390.523075 254.952865 
L 390.819234 247.917351 
L 390.966326 248.561217 
L 391.005288 243.686622 
L 392.157742 265.049245 
L 392.719268 271.533243 
L 393.27143 275.578707 
L 393.814535 277.97683 
L 394.348876 279.311731 
L 394.874731 280.088201 
L 395.392364 280.689789 
L 395.554476 267.405465 
L 395.682005 266.885777 
L 395.809045 267.048335 
L 395.935599 266.228336 
L 396.187266 267.177433 
L 396.437034 264.437341 
L 396.561215 265.376796 
L 396.684932 260.458996 
L 396.930989 265.053106 
L 397.053334 265.767178 
L 397.17523 268.245111 
L 397.296678 267.107685 
L 397.417683 267.485479 
L 397.658373 271.362847 
L 397.778065 270.356546 
L 397.897326 270.592351 
L 398.01616 269.953794 
L 398.134568 271.698572 
L 398.252554 265.508668 
L 398.487273 267.811834 
L 398.487273 267.811834 
" clip-path="url(#pc47ed2ef13)" style="fill: none; stroke: #1f77b4; stroke-opacity: 0.6; stroke-width: 1.5; stroke-linecap: square"/>
   </g>
   <g id="line2d_76">
    <path d="M 73.832727 125.384952 
L 212.053813 143.785826 
L 234.749409 157.140009 
L 248.08938 167.711664 
L 257.572106 176.147409 
L 264.934991 180.862825 
L 270.954773 186.180306 
L 276.046676 192.315805 
L 280.458909 197.057008 
L 287.834661 206.794814 
L 290.985848 210.16575 
L 293.863029 211.872609 
L 296.510067 210.251304 
L 301.24308 215.332388 
L 303.377907 218.696651 
L 305.383391 220.735469 
L 307.274314 221.462862 
L 309.063061 219.2387 
L 312.374404 225.705343 
L 313.913642 227.953464 
L 315.384494 231.098987 
L 316.792779 228.861582 
L 318.143603 228.869215 
L 319.441472 231.236688 
L 320.690382 231.287549 
L 321.893893 234.09321 
L 323.05519 230.614531 
L 324.177133 231.934024 
L 325.262304 230.630133 
L 326.313037 230.059376 
L 326.586622 232.479471 
L 329.529097 241.089139 
L 331.354839 245.872459 
L 333.08515 249.736294 
L 333.917539 251.420316 
L 336.296066 255.272193 
L 337.052397 256.325539 
L 337.791838 257.153021 
L 338.515126 257.751752 
L 339.915962 259.270687 
L 340.594765 259.459117 
L 341.911999 260.667984 
L 343.794521 261.919662 
L 344.398973 262.259849 
L 344.992588 262.156559 
L 347.266027 263.599633 
L 348.34677 263.486225 
L 349.39335 263.916274 
L 349.529894 264.053282 
L 350.038947 263.938092 
L 350.540294 264.187214 
L 351.034162 262.674392 
L 352.000334 263.774564 
L 352.47305 263.319412 
L 352.939112 263.430298 
L 353.398705 263.384469 
L 353.852006 264.028132 
L 354.299185 264.191891 
L 355.175824 263.292963 
L 355.60559 263.678673 
L 356.02985 263.506918 
L 356.448743 264.238696 
L 356.862402 264.148438 
L 357.270957 264.757485 
L 357.674533 264.787748 
L 358.073249 263.29796 
L 358.46722 263.752571 
L 358.85656 262.731038 
L 359.241374 263.094142 
L 359.997841 263.30702 
L 360.36969 263.957829 
L 360.737411 262.62209 
L 361.460822 263.685119 
L 361.816686 261.662642 
L 362.86189 260.022393 
L 362.952863 253.902793 
L 363.963344 259.689736 
L 364.943898 263.722477 
L 365.581831 265.652718 
L 366.516262 267.585976 
L 367.12488 268.451116 
L 368.017333 269.531794 
L 369.453296 270.412758 
L 370.829565 270.850148 
L 372.150906 270.933598 
L 372.408962 270.877577 
L 372.477172 264.353693 
L 372.732708 263.388246 
L 372.986287 258.838914 
L 373.237938 259.343013 
L 373.487692 257.863584 
L 373.735576 252.805906 
L 373.981618 254.806056 
L 374.225845 253.631962 
L 374.468284 255.498938 
L 374.708961 256.012624 
L 374.9479 252.257662 
L 375.420669 253.825866 
L 375.654546 255.906882 
L 375.886782 249.74317 
L 376.346425 254.053348 
L 376.573876 255.712061 
L 376.799775 255.46974 
L 377.024143 255.450118 
L 377.247001 257.093096 
L 377.468369 257.305043 
L 377.906714 259.594744 
L 378.12373 260.10901 
L 378.55354 262.996172 
L 378.766371 262.965561 
L 378.977842 264.524469 
L 379.187972 262.332369 
L 379.396776 257.886901 
L 380.069625 261.725697 
L 380.27296 261.133731 
L 380.475054 261.088733 
L 380.675922 262.819621 
L 380.875578 262.930911 
L 381.074038 264.005267 
L 381.271316 263.022344 
L 381.662379 265.768913 
L 381.856193 261.60991 
L 382.240449 263.886942 
L 383.182022 268.696722 
L 383.367165 263.868601 
L 383.734376 266.197985 
L 383.916465 266.463839 
L 384.456801 263.541415 
L 384.634971 260.990262 
L 384.812187 260.469078 
L 384.98846 260.765469 
L 385.338216 264.353618 
L 385.511718 259.010456 
L 385.856018 261.703642 
L 385.901477 263.052538 
L 386.07206 264.182988 
L 386.241769 264.54089 
L 386.578599 267.385839 
L 386.745738 268.696842 
L 386.912038 265.131695 
L 387.242152 268.511441 
L 387.405983 266.9963 
L 387.569007 268.260429 
L 387.892667 267.314738 
L 388.213195 270.195241 
L 388.372302 270.133517 
L 388.530649 271.419797 
L 388.688242 271.421031 
L 389.001195 273.190486 
L 389.15657 271.788844 
L 389.311219 271.943663 
L 389.770878 274.131068 
L 389.922691 275.05758 
L 390.224244 273.559471 
L 390.373997 268.128801 
L 390.523075 269.727295 
L 390.819234 268.276204 
L 391.005288 271.186274 
L 391.297183 264.564281 
L 391.442172 263.895106 
L 391.586528 265.131904 
L 391.730258 260.101608 
L 392.015859 262.405969 
L 392.299018 256.659717 
L 392.439695 258.636798 
L 392.579777 256.006853 
L 392.719268 258.517215 
L 392.858174 257.599247 
L 392.9965 258.397143 
L 393.13425 258.530952 
L 393.27143 253.699141 
L 393.408044 254.527143 
L 393.544096 257.227178 
L 393.679592 256.001572 
L 394.216097 263.465597 
L 394.481125 265.520771 
L 394.612847 266.422631 
L 394.874731 259.93005 
L 395.0049 260.465028 
L 395.263712 264.151851 
L 395.392364 261.97395 
L 395.426453 263.52569 
L 395.554476 263.290634 
L 395.809045 266.721534 
L 395.935599 265.579965 
L 396.187266 259.910981 
L 396.312385 259.812421 
L 396.437034 262.456334 
L 396.561215 262.461797 
L 396.808189 265.539189 
L 396.930989 265.382659 
L 397.17523 269.281786 
L 397.296678 268.939973 
L 397.538246 270.740519 
L 397.658373 264.499464 
L 397.778065 266.375714 
L 398.01616 262.26366 
L 398.134568 261.353388 
L 398.252554 261.639521 
L 398.370121 262.246088 
L 398.487273 264.503736 
L 398.487273 264.503736 
" clip-path="url(#pc47ed2ef13)" style="fill: none; stroke: #ff7f0e; stroke-opacity: 0.6; stroke-width: 1.5; stroke-linecap: square"/>
   </g>
   <g id="line2d_77">
    <path d="M 73.832727 137.446135 
L 212.053813 153.123134 
L 234.749409 161.03914 
L 248.08938 167.952609 
L 257.572106 173.206228 
L 264.934991 177.797147 
L 270.954773 180.904472 
L 276.046676 183.176373 
L 280.458909 188.620534 
L 284.351734 192.086764 
L 287.834661 196.173653 
L 290.985848 199.55801 
L 293.863029 194.714127 
L 296.510067 198.113018 
L 298.961069 201.663365 
L 303.377907 209.193668 
L 305.383391 211.620471 
L 307.274314 213.56069 
L 309.063061 215.960382 
L 310.760109 211.71977 
L 315.384494 221.276461 
L 316.792779 216.511566 
L 318.143603 216.79297 
L 319.441472 219.000201 
L 320.690382 219.877369 
L 321.893893 221.281005 
L 324.177133 226.625666 
L 325.262304 223.510896 
L 326.313037 224.280392 
L 326.586622 220.288601 
L 327.596781 216.610553 
L 328.577033 213.78811 
L 329.529097 211.675758 
L 330.45455 210.022547 
L 332.231296 207.593401 
L 333.917539 205.995834 
L 335.522053 204.99333 
L 337.791838 204.073238 
L 339.915962 203.553166 
L 341.911999 203.150932 
L 345.575748 202.938594 
L 348.34677 202.876065 
L 354.299185 202.875064 
L 372.477172 202.831449 
L 373.237938 202.798787 
L 373.981618 202.79626 
L 374.708961 202.805619 
L 375.654546 202.96405 
L 377.688267 202.986192 
L 378.12373 202.958418 
L 378.766371 202.887948 
L 382.995837 202.866023 
L 383.55128 202.789024 
L 383.916465 202.847774 
L 385.511718 202.830776 
L 386.241769 202.889638 
L 386.578599 202.922695 
L 387.242152 203.041807 
L 388.053319 202.828923 
L 388.845088 202.907327 
L 390.224244 202.88304 
L 390.523075 202.915158 
L 394.216097 202.949887 
L 394.612847 202.905798 
L 395.0049 202.91487 
L 395.935599 202.951309 
L 396.187266 202.961578 
L 396.437034 202.836552 
L 396.684932 202.875743 
L 398.252554 202.904984 
L 398.487273 202.919879 
L 398.487273 202.919879 
" clip-path="url(#pc47ed2ef13)" style="fill: none; stroke: #2ca02c; stroke-opacity: 0.6; stroke-width: 1.5; stroke-linecap: square"/>
   </g>
   <g id="patch_3">
    <path d="M 57.6 307.584 
L 57.6 41.472 
" style="fill: none; stroke: #000000; stroke-width: 0.8; stroke-linejoin: miter; stroke-linecap: square"/>
   </g>
   <g id="patch_4">
    <path d="M 414.72 307.584 
L 414.72 41.472 
" style="fill: none; stroke: #000000; stroke-width: 0.8; stroke-linejoin: miter; stroke-linecap: square"/>
   </g>
   <g id="patch_5">
    <path d="M 57.6 307.584 
L 414.72 307.584 
" style="fill: none; stroke: #000000; stroke-width: 0.8; stroke-linejoin: miter; stroke-linecap: square"/>
   </g>
   <g id="patch_6">
    <path d="M 57.6 41.472 
L 414.72 41.472 
" style="fill: none; stroke: #000000; stroke-width: 0.8; stroke-linejoin: miter; stroke-linecap: square"/>
   </g>
   <g id="text_12">
    <!-- 2025-02-18-22:00:17 -->
    <g transform="translate(172.178438 35.472) scale(0.12 -0.12)">
     <defs>
      <path id="DejaVuSans-35" d="M 691 4666 
L 3169 4666 
L 3169 4134 
L 1269 4134 
L 1269 2991 
Q 1406 3038 1543 3061 
Q 1681 3084 1819 3084 
Q 2600 3084 3056 2656 
Q 3513 2228 3513 1497 
Q 3513 744 3044 326 
Q 2575 -91 1722 -91 
Q 1428 -91 1123 -41 
Q 819 9 494 109 
L 494 744 
Q 775 591 1075 516 
Q 1375 441 1709 441 
Q 2250 441 2565 725 
Q 2881 1009 2881 1497 
Q 2881 1984 2565 2268 
Q 2250 2553 1709 2553 
Q 1456 2553 1204 2497 
Q 953 2441 691 2322 
L 691 4666 
z
" transform="scale(0.015625)"/>
      <path id="DejaVuSans-2d" d="M 313 2009 
L 1997 2009 
L 1997 1497 
L 313 1497 
L 313 2009 
z
" transform="scale(0.015625)"/>
      <path id="DejaVuSans-38" d="M 2034 2216 
Q 1584 2216 1326 1975 
Q 1069 1734 1069 1313 
Q 1069 891 1326 650 
Q 1584 409 2034 409 
Q 2484 409 2743 651 
Q 3003 894 3003 1313 
Q 3003 1734 2745 1975 
Q 2488 2216 2034 2216 
z
M 1403 2484 
Q 997 2584 770 2862 
Q 544 3141 544 3541 
Q 544 4100 942 4425 
Q 1341 4750 2034 4750 
Q 2731 4750 3128 4425 
Q 3525 4100 3525 3541 
Q 3525 3141 3298 2862 
Q 3072 2584 2669 2484 
Q 3125 2378 3379 2068 
Q 3634 1759 3634 1313 
Q 3634 634 3220 271 
Q 2806 -91 2034 -91 
Q 1263 -91 848 271 
Q 434 634 434 1313 
Q 434 1759 690 2068 
Q 947 2378 1403 2484 
z
M 1172 3481 
Q 1172 3119 1398 2916 
Q 1625 2713 2034 2713 
Q 2441 2713 2670 2916 
Q 2900 3119 2900 3481 
Q 2900 3844 2670 4047 
Q 2441 4250 2034 4250 
Q 1625 4250 1398 4047 
Q 1172 3844 1172 3481 
z
" transform="scale(0.015625)"/>
      <path id="DejaVuSans-3a" d="M 750 794 
L 1409 794 
L 1409 0 
L 750 0 
L 750 794 
z
M 750 3309 
L 1409 3309 
L 1409 2516 
L 750 2516 
L 750 3309 
z
" transform="scale(0.015625)"/>
      <path id="DejaVuSans-37" d="M 525 4666 
L 3525 4666 
L 3525 4397 
L 1831 0 
L 1172 0 
L 2766 4134 
L 525 4134 
L 525 4666 
z
" transform="scale(0.015625)"/>
     </defs>
     <use xlink:href="#DejaVuSans-32"/>
     <use xlink:href="#DejaVuSans-30" x="63.623047"/>
     <use xlink:href="#DejaVuSans-32" x="127.246094"/>
     <use xlink:href="#DejaVuSans-35" x="190.869141"/>
     <use xlink:href="#DejaVuSans-2d" x="254.492188"/>
     <use xlink:href="#DejaVuSans-30" x="290.576172"/>
     <use xlink:href="#DejaVuSans-32" x="354.199219"/>
     <use xlink:href="#DejaVuSans-2d" x="417.822266"/>
     <use xlink:href="#DejaVuSans-31" x="453.90625"/>
     <use xlink:href="#DejaVuSans-38" x="517.529297"/>
     <use xlink:href="#DejaVuSans-2d" x="581.152344"/>
     <use xlink:href="#DejaVuSans-32" x="617.236328"/>
     <use xlink:href="#DejaVuSans-32" x="680.859375"/>
     <use xlink:href="#DejaVuSans-3a" x="744.482422"/>
     <use xlink:href="#DejaVuSans-30" x="778.173828"/>
     <use xlink:href="#DejaVuSans-30" x="841.796875"/>
     <use xlink:href="#DejaVuSans-3a" x="905.419922"/>
     <use xlink:href="#DejaVuSans-31" x="939.111328"/>
     <use xlink:href="#DejaVuSans-37" x="1002.734375"/>
    </g>
   </g>
   <g id="legend_1">
    <g id="patch_7">
     <path d="M 403.72 54.472 
L 407.72 54.472 
Q 409.72 54.472 409.72 52.472 
L 409.72 48.472 
Q 409.72 46.472 407.72 46.472 
L 403.72 46.472 
Q 401.72 46.472 401.72 48.472 
L 401.72 52.472 
Q 401.72 54.472 403.72 54.472 
z
" style="fill: #ffffff; opacity: 0.8; stroke: #cccccc; stroke-linejoin: miter"/>
    </g>
   </g>
  </g>
 </g>
 <defs>
  <clipPath id="pc47ed2ef13">
   <rect x="57.6" y="41.472" width="357.12" height="266.112"/>
  </clipPath>
 </defs>
</svg>
