<?xml version="1.0" encoding="utf-8" standalone="no"?>
<!DOCTYPE svg PUBLIC "-//W3C//DTD SVG 1.1//EN"
  "http://www.w3.org/Graphics/SVG/1.1/DTD/svg11.dtd">
<svg xmlns:xlink="http://www.w3.org/1999/xlink" width="460.8pt" height="345.6pt" viewBox="0 0 460.8 345.6" xmlns="http://www.w3.org/2000/svg" version="1.1">
 <metadata>
  <rdf:RDF xmlns:dc="http://purl.org/dc/elements/1.1/" xmlns:cc="http://creativecommons.org/ns#" xmlns:rdf="http://www.w3.org/1999/02/22-rdf-syntax-ns#">
   <cc:Work>
    <dc:type rdf:resource="http://purl.org/dc/dcmitype/StillImage"/>
    <dc:date>2025-02-18T14:19:56.056585</dc:date>
    <dc:format>image/svg+xml</dc:format>
    <dc:creator>
     <cc:Agent>
      <dc:title>Matplotlib v3.8.4, https://matplotlib.org/</dc:title>
     </cc:Agent>
    </dc:creator>
   </cc:Work>
  </rdf:RDF>
 </metadata>
 <defs>
  <style type="text/css">*{stroke-linejoin: round; stroke-linecap: butt}</style>
 </defs>
 <g id="figure_1">
  <g id="patch_1">
   <path d="M 0 345.6 
L 460.8 345.6 
L 460.8 0 
L 0 0 
z
" style="fill: #ffffff"/>
  </g>
  <g id="axes_1">
   <g id="patch_2">
    <path d="M 57.6 307.584 
L 414.72 307.584 
L 414.72 41.472 
L 57.6 41.472 
z
" style="fill: #ffffff"/>
   </g>
   <g id="matplotlib.axis_1">
    <g id="xtick_1">
     <g id="line2d_1">
      <defs>
       <path id="m6a9651fb6d" d="M 0 0 
L 0 3.5 
" style="stroke: #000000; stroke-width: 0.8"/>
      </defs>
      <g>
       <use xlink:href="#m6a9651fb6d" x="57.6" y="307.584" style="stroke: #000000; stroke-width: 0.8"/>
      </g>
     </g>
     <g id="text_1">
      <!-- 8000 -->
      <g transform="translate(44.875 322.182437) scale(0.1 -0.1)">
       <defs>
        <path id="DejaVuSans-38" d="M 2034 2216 
Q 1584 2216 1326 1975 
Q 1069 1734 1069 1313 
Q 1069 891 1326 650 
Q 1584 409 2034 409 
Q 2484 409 2743 651 
Q 3003 894 3003 1313 
Q 3003 1734 2745 1975 
Q 2488 2216 2034 2216 
z
M 1403 2484 
Q 997 2584 770 2862 
Q 544 3141 544 3541 
Q 544 4100 942 4425 
Q 1341 4750 2034 4750 
Q 2731 4750 3128 4425 
Q 3525 4100 3525 3541 
Q 3525 3141 3298 2862 
Q 3072 2584 2669 2484 
Q 3125 2378 3379 2068 
Q 3634 1759 3634 1313 
Q 3634 634 3220 271 
Q 2806 -91 2034 -91 
Q 1263 -91 848 271 
Q 434 634 434 1313 
Q 434 1759 690 2068 
Q 947 2378 1403 2484 
z
M 1172 3481 
Q 1172 3119 1398 2916 
Q 1625 2713 2034 2713 
Q 2441 2713 2670 2916 
Q 2900 3119 2900 3481 
Q 2900 3844 2670 4047 
Q 2441 4250 2034 4250 
Q 1625 4250 1398 4047 
Q 1172 3844 1172 3481 
z
" transform="scale(0.015625)"/>
        <path id="DejaVuSans-30" d="M 2034 4250 
Q 1547 4250 1301 3770 
Q 1056 3291 1056 2328 
Q 1056 1369 1301 889 
Q 1547 409 2034 409 
Q 2525 409 2770 889 
Q 3016 1369 3016 2328 
Q 3016 3291 2770 3770 
Q 2525 4250 2034 4250 
z
M 2034 4750 
Q 2819 4750 3233 4129 
Q 3647 3509 3647 2328 
Q 3647 1150 3233 529 
Q 2819 -91 2034 -91 
Q 1250 -91 836 529 
Q 422 1150 422 2328 
Q 422 3509 836 4129 
Q 1250 4750 2034 4750 
z
" transform="scale(0.015625)"/>
       </defs>
       <use xlink:href="#DejaVuSans-38"/>
       <use xlink:href="#DejaVuSans-30" x="63.623047"/>
       <use xlink:href="#DejaVuSans-30" x="127.246094"/>
       <use xlink:href="#DejaVuSans-30" x="190.869141"/>
      </g>
     </g>
    </g>
    <g id="xtick_2">
     <g id="line2d_2">
      <g>
       <use xlink:href="#m6a9651fb6d" x="117.12" y="307.584" style="stroke: #000000; stroke-width: 0.8"/>
      </g>
     </g>
     <g id="text_2">
      <!-- 10000 -->
      <g transform="translate(101.21375 322.182437) scale(0.1 -0.1)">
       <defs>
        <path id="DejaVuSans-31" d="M 794 531 
L 1825 531 
L 1825 4091 
L 703 3866 
L 703 4441 
L 1819 4666 
L 2450 4666 
L 2450 531 
L 3481 531 
L 3481 0 
L 794 0 
L 794 531 
z
" transform="scale(0.015625)"/>
       </defs>
       <use xlink:href="#DejaVuSans-31"/>
       <use xlink:href="#DejaVuSans-30" x="63.623047"/>
       <use xlink:href="#DejaVuSans-30" x="127.246094"/>
       <use xlink:href="#DejaVuSans-30" x="190.869141"/>
       <use xlink:href="#DejaVuSans-30" x="254.492188"/>
      </g>
     </g>
    </g>
    <g id="xtick_3">
     <g id="line2d_3">
      <g>
       <use xlink:href="#m6a9651fb6d" x="176.64" y="307.584" style="stroke: #000000; stroke-width: 0.8"/>
      </g>
     </g>
     <g id="text_3">
      <!-- 12000 -->
      <g transform="translate(160.73375 322.182437) scale(0.1 -0.1)">
       <defs>
        <path id="DejaVuSans-32" d="M 1228 531 
L 3431 531 
L 3431 0 
L 469 0 
L 469 531 
Q 828 903 1448 1529 
Q 2069 2156 2228 2338 
Q 2531 2678 2651 2914 
Q 2772 3150 2772 3378 
Q 2772 3750 2511 3984 
Q 2250 4219 1831 4219 
Q 1534 4219 1204 4116 
Q 875 4013 500 3803 
L 500 4441 
Q 881 4594 1212 4672 
Q 1544 4750 1819 4750 
Q 2544 4750 2975 4387 
Q 3406 4025 3406 3419 
Q 3406 3131 3298 2873 
Q 3191 2616 2906 2266 
Q 2828 2175 2409 1742 
Q 1991 1309 1228 531 
z
" transform="scale(0.015625)"/>
       </defs>
       <use xlink:href="#DejaVuSans-31"/>
       <use xlink:href="#DejaVuSans-32" x="63.623047"/>
       <use xlink:href="#DejaVuSans-30" x="127.246094"/>
       <use xlink:href="#DejaVuSans-30" x="190.869141"/>
       <use xlink:href="#DejaVuSans-30" x="254.492188"/>
      </g>
     </g>
    </g>
    <g id="xtick_4">
     <g id="line2d_4">
      <g>
       <use xlink:href="#m6a9651fb6d" x="236.16" y="307.584" style="stroke: #000000; stroke-width: 0.8"/>
      </g>
     </g>
     <g id="text_4">
      <!-- 14000 -->
      <g transform="translate(220.25375 322.182437) scale(0.1 -0.1)">
       <defs>
        <path id="DejaVuSans-34" d="M 2419 4116 
L 825 1625 
L 2419 1625 
L 2419 4116 
z
M 2253 4666 
L 3047 4666 
L 3047 1625 
L 3713 1625 
L 3713 1100 
L 3047 1100 
L 3047 0 
L 2419 0 
L 2419 1100 
L 313 1100 
L 313 1709 
L 2253 4666 
z
" transform="scale(0.015625)"/>
       </defs>
       <use xlink:href="#DejaVuSans-31"/>
       <use xlink:href="#DejaVuSans-34" x="63.623047"/>
       <use xlink:href="#DejaVuSans-30" x="127.246094"/>
       <use xlink:href="#DejaVuSans-30" x="190.869141"/>
       <use xlink:href="#DejaVuSans-30" x="254.492188"/>
      </g>
     </g>
    </g>
    <g id="xtick_5">
     <g id="line2d_5">
      <g>
       <use xlink:href="#m6a9651fb6d" x="295.68" y="307.584" style="stroke: #000000; stroke-width: 0.8"/>
      </g>
     </g>
     <g id="text_5">
      <!-- 16000 -->
      <g transform="translate(279.77375 322.182437) scale(0.1 -0.1)">
       <defs>
        <path id="DejaVuSans-36" d="M 2113 2584 
Q 1688 2584 1439 2293 
Q 1191 2003 1191 1497 
Q 1191 994 1439 701 
Q 1688 409 2113 409 
Q 2538 409 2786 701 
Q 3034 994 3034 1497 
Q 3034 2003 2786 2293 
Q 2538 2584 2113 2584 
z
M 3366 4563 
L 3366 3988 
Q 3128 4100 2886 4159 
Q 2644 4219 2406 4219 
Q 1781 4219 1451 3797 
Q 1122 3375 1075 2522 
Q 1259 2794 1537 2939 
Q 1816 3084 2150 3084 
Q 2853 3084 3261 2657 
Q 3669 2231 3669 1497 
Q 3669 778 3244 343 
Q 2819 -91 2113 -91 
Q 1303 -91 875 529 
Q 447 1150 447 2328 
Q 447 3434 972 4092 
Q 1497 4750 2381 4750 
Q 2619 4750 2861 4703 
Q 3103 4656 3366 4563 
z
" transform="scale(0.015625)"/>
       </defs>
       <use xlink:href="#DejaVuSans-31"/>
       <use xlink:href="#DejaVuSans-36" x="63.623047"/>
       <use xlink:href="#DejaVuSans-30" x="127.246094"/>
       <use xlink:href="#DejaVuSans-30" x="190.869141"/>
       <use xlink:href="#DejaVuSans-30" x="254.492188"/>
      </g>
     </g>
    </g>
    <g id="xtick_6">
     <g id="line2d_6">
      <g>
       <use xlink:href="#m6a9651fb6d" x="355.2" y="307.584" style="stroke: #000000; stroke-width: 0.8"/>
      </g>
     </g>
     <g id="text_6">
      <!-- 18000 -->
      <g transform="translate(339.29375 322.182437) scale(0.1 -0.1)">
       <use xlink:href="#DejaVuSans-31"/>
       <use xlink:href="#DejaVuSans-38" x="63.623047"/>
       <use xlink:href="#DejaVuSans-30" x="127.246094"/>
       <use xlink:href="#DejaVuSans-30" x="190.869141"/>
       <use xlink:href="#DejaVuSans-30" x="254.492188"/>
      </g>
     </g>
    </g>
    <g id="xtick_7">
     <g id="line2d_7">
      <g>
       <use xlink:href="#m6a9651fb6d" x="414.72" y="307.584" style="stroke: #000000; stroke-width: 0.8"/>
      </g>
     </g>
     <g id="text_7">
      <!-- 20000 -->
      <g transform="translate(398.81375 322.182437) scale(0.1 -0.1)">
       <use xlink:href="#DejaVuSans-32"/>
       <use xlink:href="#DejaVuSans-30" x="63.623047"/>
       <use xlink:href="#DejaVuSans-30" x="127.246094"/>
       <use xlink:href="#DejaVuSans-30" x="190.869141"/>
       <use xlink:href="#DejaVuSans-30" x="254.492188"/>
      </g>
     </g>
    </g>
    <g id="text_8">
     <!-- iter# -->
     <g transform="translate(223.488906 335.860562) scale(0.1 -0.1)">
      <defs>
       <path id="DejaVuSans-69" d="M 603 3500 
L 1178 3500 
L 1178 0 
L 603 0 
L 603 3500 
z
M 603 4863 
L 1178 4863 
L 1178 4134 
L 603 4134 
L 603 4863 
z
" transform="scale(0.015625)"/>
       <path id="DejaVuSans-74" d="M 1172 4494 
L 1172 3500 
L 2356 3500 
L 2356 3053 
L 1172 3053 
L 1172 1153 
Q 1172 725 1289 603 
Q 1406 481 1766 481 
L 2356 481 
L 2356 0 
L 1766 0 
Q 1100 0 847 248 
Q 594 497 594 1153 
L 594 3053 
L 172 3053 
L 172 3500 
L 594 3500 
L 594 4494 
L 1172 4494 
z
" transform="scale(0.015625)"/>
       <path id="DejaVuSans-65" d="M 3597 1894 
L 3597 1613 
L 953 1613 
Q 991 1019 1311 708 
Q 1631 397 2203 397 
Q 2534 397 2845 478 
Q 3156 559 3463 722 
L 3463 178 
Q 3153 47 2828 -22 
Q 2503 -91 2169 -91 
Q 1331 -91 842 396 
Q 353 884 353 1716 
Q 353 2575 817 3079 
Q 1281 3584 2069 3584 
Q 2775 3584 3186 3129 
Q 3597 2675 3597 1894 
z
M 3022 2063 
Q 3016 2534 2758 2815 
Q 2500 3097 2075 3097 
Q 1594 3097 1305 2825 
Q 1016 2553 972 2059 
L 3022 2063 
z
" transform="scale(0.015625)"/>
       <path id="DejaVuSans-72" d="M 2631 2963 
Q 2534 3019 2420 3045 
Q 2306 3072 2169 3072 
Q 1681 3072 1420 2755 
Q 1159 2438 1159 1844 
L 1159 0 
L 581 0 
L 581 3500 
L 1159 3500 
L 1159 2956 
Q 1341 3275 1631 3429 
Q 1922 3584 2338 3584 
Q 2397 3584 2469 3576 
Q 2541 3569 2628 3553 
L 2631 2963 
z
" transform="scale(0.015625)"/>
       <path id="DejaVuSans-23" d="M 3272 2816 
L 2363 2816 
L 2100 1772 
L 3016 1772 
L 3272 2816 
z
M 2803 4594 
L 2478 3297 
L 3391 3297 
L 3719 4594 
L 4219 4594 
L 3897 3297 
L 4872 3297 
L 4872 2816 
L 3775 2816 
L 3519 1772 
L 4513 1772 
L 4513 1294 
L 3397 1294 
L 3072 0 
L 2572 0 
L 2894 1294 
L 1978 1294 
L 1656 0 
L 1153 0 
L 1478 1294 
L 494 1294 
L 494 1772 
L 1594 1772 
L 1856 2816 
L 850 2816 
L 850 3297 
L 1978 3297 
L 2297 4594 
L 2803 4594 
z
" transform="scale(0.015625)"/>
      </defs>
      <use xlink:href="#DejaVuSans-69"/>
      <use xlink:href="#DejaVuSans-74" x="27.783203"/>
      <use xlink:href="#DejaVuSans-65" x="66.992188"/>
      <use xlink:href="#DejaVuSans-72" x="128.515625"/>
      <use xlink:href="#DejaVuSans-23" x="169.628906"/>
     </g>
    </g>
   </g>
   <g id="matplotlib.axis_2">
    <g id="ytick_1">
     <g id="line2d_8">
      <defs>
       <path id="m2f912bd294" d="M 0 0 
L -3.5 0 
" style="stroke: #000000; stroke-width: 0.8"/>
      </defs>
      <g>
       <use xlink:href="#m2f912bd294" x="57.6" y="245.254111" style="stroke: #000000; stroke-width: 0.8"/>
      </g>
     </g>
     <g id="text_9">
      <!-- $\mathdefault{10^{-2}}$ -->
      <g transform="translate(27.1 249.05333) scale(0.1 -0.1)">
       <defs>
        <path id="DejaVuSans-2212" d="M 678 2272 
L 4684 2272 
L 4684 1741 
L 678 1741 
L 678 2272 
z
" transform="scale(0.015625)"/>
       </defs>
       <use xlink:href="#DejaVuSans-31" transform="translate(0 0.765625)"/>
       <use xlink:href="#DejaVuSans-30" transform="translate(63.623047 0.765625)"/>
       <use xlink:href="#DejaVuSans-2212" transform="translate(128.203125 39.046875) scale(0.7)"/>
       <use xlink:href="#DejaVuSans-32" transform="translate(186.855469 39.046875) scale(0.7)"/>
      </g>
     </g>
    </g>
    <g id="ytick_2">
     <g id="line2d_9">
      <g>
       <use xlink:href="#m2f912bd294" x="57.6" y="88.622741" style="stroke: #000000; stroke-width: 0.8"/>
      </g>
     </g>
     <g id="text_10">
      <!-- $\mathdefault{10^{-1}}$ -->
      <g transform="translate(27.1 92.421959) scale(0.1 -0.1)">
       <use xlink:href="#DejaVuSans-31" transform="translate(0 0.684375)"/>
       <use xlink:href="#DejaVuSans-30" transform="translate(63.623047 0.684375)"/>
       <use xlink:href="#DejaVuSans-2212" transform="translate(128.203125 38.965625) scale(0.7)"/>
       <use xlink:href="#DejaVuSans-31" transform="translate(186.855469 38.965625) scale(0.7)"/>
      </g>
     </g>
    </g>
    <g id="ytick_3">
     <g id="line2d_10">
      <defs>
       <path id="mfc78a826eb" d="M 0 0 
L -2 0 
" style="stroke: #000000; stroke-width: 0.6"/>
      </defs>
      <g>
       <use xlink:href="#mfc78a826eb" x="57.6" y="307.584" style="stroke: #000000; stroke-width: 0.6"/>
      </g>
     </g>
    </g>
    <g id="ytick_4">
     <g id="line2d_11">
      <g>
       <use xlink:href="#mfc78a826eb" x="57.6" y="292.404852" style="stroke: #000000; stroke-width: 0.6"/>
      </g>
     </g>
    </g>
    <g id="ytick_5">
     <g id="line2d_12">
      <g>
       <use xlink:href="#mfc78a826eb" x="57.6" y="280.002585" style="stroke: #000000; stroke-width: 0.6"/>
      </g>
     </g>
    </g>
    <g id="ytick_6">
     <g id="line2d_13">
      <g>
       <use xlink:href="#mfc78a826eb" x="57.6" y="269.516617" style="stroke: #000000; stroke-width: 0.6"/>
      </g>
     </g>
    </g>
    <g id="ytick_7">
     <g id="line2d_14">
      <g>
       <use xlink:href="#mfc78a826eb" x="57.6" y="260.433259" style="stroke: #000000; stroke-width: 0.6"/>
      </g>
     </g>
    </g>
    <g id="ytick_8">
     <g id="line2d_15">
      <g>
       <use xlink:href="#mfc78a826eb" x="57.6" y="252.42117" style="stroke: #000000; stroke-width: 0.6"/>
      </g>
     </g>
    </g>
    <g id="ytick_9">
     <g id="line2d_16">
      <g>
       <use xlink:href="#mfc78a826eb" x="57.6" y="198.10337" style="stroke: #000000; stroke-width: 0.6"/>
      </g>
     </g>
    </g>
    <g id="ytick_10">
     <g id="line2d_17">
      <g>
       <use xlink:href="#mfc78a826eb" x="57.6" y="170.521955" style="stroke: #000000; stroke-width: 0.6"/>
      </g>
     </g>
    </g>
    <g id="ytick_11">
     <g id="line2d_18">
      <g>
       <use xlink:href="#mfc78a826eb" x="57.6" y="150.95263" style="stroke: #000000; stroke-width: 0.6"/>
      </g>
     </g>
    </g>
    <g id="ytick_12">
     <g id="line2d_19">
      <g>
       <use xlink:href="#mfc78a826eb" x="57.6" y="135.773481" style="stroke: #000000; stroke-width: 0.6"/>
      </g>
     </g>
    </g>
    <g id="ytick_13">
     <g id="line2d_20">
      <g>
       <use xlink:href="#mfc78a826eb" x="57.6" y="123.371214" style="stroke: #000000; stroke-width: 0.6"/>
      </g>
     </g>
    </g>
    <g id="ytick_14">
     <g id="line2d_21">
      <g>
       <use xlink:href="#mfc78a826eb" x="57.6" y="112.885247" style="stroke: #000000; stroke-width: 0.6"/>
      </g>
     </g>
    </g>
    <g id="ytick_15">
     <g id="line2d_22">
      <g>
       <use xlink:href="#mfc78a826eb" x="57.6" y="103.801889" style="stroke: #000000; stroke-width: 0.6"/>
      </g>
     </g>
    </g>
    <g id="ytick_16">
     <g id="line2d_23">
      <g>
       <use xlink:href="#mfc78a826eb" x="57.6" y="95.789799" style="stroke: #000000; stroke-width: 0.6"/>
      </g>
     </g>
    </g>
    <g id="ytick_17">
     <g id="line2d_24">
      <g>
       <use xlink:href="#mfc78a826eb" x="57.6" y="41.472" style="stroke: #000000; stroke-width: 0.6"/>
      </g>
     </g>
    </g>
    <g id="text_11">
     <!-- loss -->
     <g transform="translate(21.020313 184.185812) rotate(-90) scale(0.1 -0.1)">
      <defs>
       <path id="DejaVuSans-6c" d="M 603 4863 
L 1178 4863 
L 1178 0 
L 603 0 
L 603 4863 
z
" transform="scale(0.015625)"/>
       <path id="DejaVuSans-6f" d="M 1959 3097 
Q 1497 3097 1228 2736 
Q 959 2375 959 1747 
Q 959 1119 1226 758 
Q 1494 397 1959 397 
Q 2419 397 2687 759 
Q 2956 1122 2956 1747 
Q 2956 2369 2687 2733 
Q 2419 3097 1959 3097 
z
M 1959 3584 
Q 2709 3584 3137 3096 
Q 3566 2609 3566 1747 
Q 3566 888 3137 398 
Q 2709 -91 1959 -91 
Q 1206 -91 779 398 
Q 353 888 353 1747 
Q 353 2609 779 3096 
Q 1206 3584 1959 3584 
z
" transform="scale(0.015625)"/>
       <path id="DejaVuSans-73" d="M 2834 3397 
L 2834 2853 
Q 2591 2978 2328 3040 
Q 2066 3103 1784 3103 
Q 1356 3103 1142 2972 
Q 928 2841 928 2578 
Q 928 2378 1081 2264 
Q 1234 2150 1697 2047 
L 1894 2003 
Q 2506 1872 2764 1633 
Q 3022 1394 3022 966 
Q 3022 478 2636 193 
Q 2250 -91 1575 -91 
Q 1294 -91 989 -36 
Q 684 19 347 128 
L 347 722 
Q 666 556 975 473 
Q 1284 391 1588 391 
Q 1994 391 2212 530 
Q 2431 669 2431 922 
Q 2431 1156 2273 1281 
Q 2116 1406 1581 1522 
L 1381 1569 
Q 847 1681 609 1914 
Q 372 2147 372 2553 
Q 372 3047 722 3315 
Q 1072 3584 1716 3584 
Q 2034 3584 2315 3537 
Q 2597 3491 2834 3397 
z
" transform="scale(0.015625)"/>
      </defs>
      <use xlink:href="#DejaVuSans-6c"/>
      <use xlink:href="#DejaVuSans-6f" x="27.783203"/>
      <use xlink:href="#DejaVuSans-73" x="88.964844"/>
      <use xlink:href="#DejaVuSans-73" x="141.064453"/>
     </g>
    </g>
   </g>
   <g id="line2d_25">
    <path d="M -1 184.384099 
L -0.40224 181.877297 
L 1.5024 183.444746 
L 3.40704 153.641629 
L 3.91296 152.773807 
L 5.8176 167.310223 
L 7.72224 167.341097 
L 9.62688 179.697653 
L 11.53152 166.079395 
L 13.43616 170.676355 
L 15.3408 172.229951 
L 17.24544 176.545377 
L 19.15008 184.706719 
L 21.05472 189.331069 
L 22.95936 185.779373 
L 24.864 190.465214 
L 26.76864 186.047058 
L 28.67328 193.879841 
L 30.57792 194.229368 
L 32.48256 187.139521 
L 34.3872 192.275855 
L 36.29184 198.828909 
L 38.19648 199.567931 
L 40.10112 189.698385 
L 42.00576 199.275286 
L 43.9104 200.396446 
L 45.81504 201.142277 
L 47.71968 197.513106 
L 49.62432 194.29705 
L 51.52896 190.64345 
L 53.4336 188.323278 
L 55.33824 196.362415 
L 57.24288 175.11263 
L 59.14752 175.611226 
L 61.05216 184.446914 
L 62.9568 168.134806 
L 64.86144 181.555566 
L 65.36736 143.155509 
L 67.272 118.515246 
L 69.17664 138.40216 
L 76.7952 183.423389 
L 78.69984 189.554137 
L 80.60448 193.575506 
L 82.50912 194.878004 
L 84.41376 184.350346 
L 86.3184 193.204783 
L 88.22304 171.266509 
L 90.12768 184.718864 
L 92.03232 187.16384 
L 93.93696 197.265926 
L 95.8416 204.12983 
L 97.74624 208.168032 
L 99.65088 205.174711 
L 101.55552 198.310393 
L 103.46016 204.859883 
L 105.3648 195.82739 
L 107.26944 192.618462 
L 109.17408 182.128543 
L 111.07872 199.993222 
L 112.98336 208.518197 
L 114.888 209.016977 
L 116.79264 212.602224 
L 118.69728 214.069451 
L 120.60192 208.894734 
L 122.50656 209.30846 
L 124.4112 195.494836 
L 126.31584 201.665727 
L 126.82176 204.940763 
L 128.7264 204.41468 
L 130.63104 197.514351 
L 132.53568 203.817825 
L 136.34496 224.093225 
L 138.2496 230.199557 
L 140.15424 207.799214 
L 142.05888 179.112027 
L 143.96352 185.25742 
L 145.86816 162.965689 
L 147.7728 187.109753 
L 149.67744 206.213792 
L 151.58208 217.776887 
L 153.48672 215.805125 
L 155.39136 219.197063 
L 157.296 161.212799 
L 159.20064 173.046604 
L 161.10528 192.574459 
L 163.00992 205.762786 
L 164.91456 167.758246 
L 166.8192 174.350865 
L 168.72384 186.138104 
L 170.62848 195.281242 
L 172.53312 178.209051 
L 174.43776 185.286102 
L 176.3424 178.1271 
L 178.24704 187.601182 
L 180.15168 175.059425 
L 182.05632 167.485764 
L 183.96096 164.532412 
L 185.8656 183.040352 
L 187.77024 204.046984 
L 188.27616 206.488726 
L 190.1808 197.282255 
L 192.08544 200.606453 
L 193.99008 193.177377 
L 195.89472 160.621637 
L 197.79936 110.178873 
L 199.704 117.658732 
L 201.60864 152.114149 
L 203.51328 171.874259 
L 205.41792 183.810608 
L 207.32256 200.167039 
L 209.2272 208.71413 
L 211.13184 208.671558 
L 213.03648 154.895389 
L 214.94112 168.16776 
L 216.84576 121.373403 
L 218.7504 117.436609 
L 220.65504 136.603859 
L 222.55968 136.075243 
L 224.46432 155.960204 
L 226.36896 95.156745 
L 228.2736 129.398928 
L 230.17824 160.553984 
L 232.08288 161.551922 
L 233.98752 186.44538 
L 235.89216 177.198364 
L 237.7968 201.495258 
L 239.70144 176.913076 
L 241.60608 201.058896 
L 243.51072 213.235149 
L 245.41536 197.835891 
L 247.32 211.282902 
L 249.22464 121.044985 
L 249.73056 125.37684 
L 251.6352 150.913905 
L 253.53984 172.232208 
L 255.44448 188.534029 
L 257.34912 201.68122 
L 259.25376 211.6407 
L 261.1584 218.768988 
L 263.06304 224.910033 
L 264.96768 230.274326 
L 266.87232 234.974548 
L 268.77696 238.93103 
L 270.6816 242.433825 
L 272.58624 245.551674 
L 276.39552 250.82123 
L 278.30016 252.750416 
L 280.2048 255.041978 
L 282.10944 257.020581 
L 285.91872 260.438445 
L 287.82336 261.563598 
L 289.728 263.582616 
L 291.63264 264.734669 
L 293.53728 266.394013 
L 295.44192 267.327153 
L 299.2512 269.904201 
L 301.15584 270.912549 
L 303.06048 271.610156 
L 304.96512 272.056674 
L 306.86976 272.943565 
L 310.67904 273.913915 
L 311.18496 259.723657 
L 313.0896 93.90581 
L 314.99424 97.566238 
L 316.89888 97.154731 
L 318.80352 102.211937 
L 320.70816 115.166496 
L 322.6128 137.442381 
L 324.51744 136.282375 
L 326.42208 153.890126 
L 328.32672 131.923744 
L 330.23136 154.000877 
L 332.136 171.179596 
L 334.04064 181.934086 
L 335.94528 171.024269 
L 337.84992 172.799797 
L 339.75456 172.733173 
L 341.6592 179.914444 
L 343.56384 152.264503 
L 345.46848 174.649397 
L 347.37312 178.61266 
L 349.27776 190.645956 
L 351.1824 186.757989 
L 353.08704 182.40809 
L 354.99168 176.855613 
L 356.89632 187.013092 
L 358.80096 171.322899 
L 360.7056 135.16881 
L 362.61024 122.939629 
L 364.51488 115.470197 
L 366.41952 118.283014 
L 368.32416 137.314975 
L 370.2288 159.170604 
L 372.13344 161.026524 
L 372.63936 149.317592 
L 374.544 177.360036 
L 376.44864 198.220167 
L 378.35328 212.399297 
L 380.25792 221.423048 
L 382.16256 226.749502 
L 384.0672 230.163599 
L 385.97184 232.185895 
L 387.87648 233.671526 
L 391.68576 235.641778 
L 393.5904 236.401744 
L 395.49504 236.465246 
L 397.39968 237.008875 
L 401.20896 237.822186 
L 403.1136 237.746373 
L 405.01824 238.300785 
L 408.82752 238.871389 
L 410.73216 239.430861 
L 414.54144 240.053977 
L 416.44608 239.355962 
L 418.35072 239.869732 
L 422.16 240.665945 
L 424.06464 240.752631 
L 425.96928 240.702359 
L 427.87392 241.248033 
L 429.77856 241.607822 
L 431.6832 241.69134 
L 433.58784 241.376092 
L 433.58784 241.376092 
" clip-path="url(#pd1270c9f45)" style="fill: none; stroke: #1f77b4; stroke-opacity: 0.4; stroke-linecap: square"/>
   </g>
   <g id="line2d_26">
    <path d="M -1 167.604865 
L -0.40224 167.306367 
L 1.5024 167.93655 
L 3.40704 167.948205 
L 3.91296 167.350748 
L 5.8176 167.640187 
L 7.72224 168.475049 
L 9.62688 165.607256 
L 13.43616 168.303847 
L 15.3408 168.536301 
L 17.24544 169.03595 
L 19.15008 169.873873 
L 21.05472 168.229919 
L 22.95936 170.057146 
L 24.864 170.866431 
L 26.76864 171.00575 
L 28.67328 167.937334 
L 30.57792 166.177695 
L 32.48256 168.058793 
L 34.3872 170.219717 
L 36.29184 170.895249 
L 38.19648 172.100712 
L 40.10112 171.8524 
L 42.00576 170.789077 
L 43.9104 164.362135 
L 45.81504 169.357786 
L 47.71968 167.165943 
L 51.52896 172.529726 
L 53.4336 168.792768 
L 55.33824 168.97901 
L 57.24288 169.551265 
L 61.05216 172.538883 
L 62.9568 174.457329 
L 64.86144 175.293565 
L 65.36736 174.639439 
L 67.272 171.848816 
L 69.17664 171.782101 
L 71.08128 173.999914 
L 72.98592 172.057397 
L 74.89056 173.689648 
L 76.7952 173.673717 
L 78.69984 175.564608 
L 82.50912 173.143333 
L 84.41376 176.155003 
L 86.3184 177.723223 
L 88.22304 179.083841 
L 90.12768 179.185072 
L 92.03232 174.301041 
L 93.93696 175.582848 
L 95.8416 175.203764 
L 97.74624 173.660002 
L 99.65088 176.845313 
L 101.55552 173.318848 
L 103.46016 176.86229 
L 105.3648 160.684615 
L 107.26944 168.522044 
L 109.17408 172.769605 
L 111.07872 170.977384 
L 112.98336 171.689775 
L 114.888 176.156643 
L 116.79264 177.902521 
L 118.69728 178.861742 
L 120.60192 179.575686 
L 122.50656 181.34378 
L 126.31584 182.365173 
L 126.82176 183.313356 
L 128.7264 177.669041 
L 130.63104 163.488092 
L 132.53568 160.978256 
L 134.44032 170.68872 
L 136.34496 175.040606 
L 138.2496 178.971285 
L 140.15424 174.231054 
L 142.05888 178.138927 
L 143.96352 181.58097 
L 145.86816 172.651451 
L 147.7728 178.637334 
L 149.67744 182.471757 
L 151.58208 161.924341 
L 153.48672 171.265587 
L 155.39136 167.859021 
L 157.296 162.220832 
L 159.20064 165.640483 
L 161.10528 173.302882 
L 163.00992 175.683458 
L 164.91456 177.060246 
L 166.8192 174.420829 
L 168.72384 178.951478 
L 170.62848 173.695848 
L 172.53312 171.964036 
L 174.43776 179.986091 
L 176.3424 182.636566 
L 178.24704 177.720709 
L 180.15168 164.786839 
L 182.05632 165.343361 
L 183.96096 175.210399 
L 185.8656 181.577353 
L 187.77024 175.705825 
L 188.27616 180.505589 
L 190.1808 182.147717 
L 192.08544 184.395168 
L 193.99008 184.287154 
L 195.89472 186.410977 
L 197.79936 189.49067 
L 199.704 187.614696 
L 201.60864 188.291299 
L 203.51328 187.303701 
L 205.41792 187.710045 
L 207.32256 188.72237 
L 209.2272 188.805794 
L 211.13184 184.509794 
L 213.03648 182.688386 
L 214.94112 186.506585 
L 216.84576 186.778592 
L 218.7504 185.303869 
L 220.65504 186.972077 
L 224.46432 181.928578 
L 226.36896 185.201976 
L 228.2736 181.038266 
L 230.17824 182.285376 
L 232.08288 181.36291 
L 233.98752 185.548954 
L 235.89216 181.594514 
L 237.7968 175.080649 
L 239.70144 164.12777 
L 241.60608 176.537899 
L 243.51072 178.014531 
L 245.41536 175.173789 
L 247.32 183.06398 
L 249.22464 188.843065 
L 249.73056 189.307022 
L 251.6352 189.835953 
L 253.53984 186.041569 
L 255.44448 187.018006 
L 257.34912 189.551962 
L 259.25376 183.137085 
L 261.1584 156.962666 
L 263.06304 166.381335 
L 264.96768 164.075344 
L 266.87232 173.898222 
L 268.77696 167.683768 
L 270.6816 174.484395 
L 272.58624 182.617584 
L 274.49088 150.039228 
L 276.39552 165.774573 
L 278.30016 164.535005 
L 280.2048 172.881521 
L 282.10944 180.495941 
L 284.01408 182.420715 
L 285.91872 187.366421 
L 287.82336 187.525014 
L 289.728 181.689106 
L 291.63264 186.858694 
L 293.53728 190.534589 
L 295.44192 193.71389 
L 297.34656 189.166296 
L 299.2512 189.087702 
L 301.15584 184.813264 
L 303.06048 186.881296 
L 304.96512 189.757754 
L 306.86976 191.39302 
L 308.7744 185.592263 
L 310.67904 186.498697 
L 311.18496 191.12301 
L 313.0896 190.944053 
L 314.99424 190.969513 
L 316.89888 194.213917 
L 318.80352 192.988834 
L 320.70816 194.301303 
L 322.6128 178.320146 
L 324.51744 188.45269 
L 326.42208 183.147061 
L 328.32672 186.306133 
L 330.23136 186.638736 
L 332.136 190.688455 
L 335.94528 188.701135 
L 337.84992 193.70083 
L 339.75456 182.983589 
L 341.6592 174.013644 
L 343.56384 184.246393 
L 345.46848 190.942732 
L 347.37312 161.195128 
L 349.27776 174.371553 
L 351.1824 179.678814 
L 353.08704 189.101535 
L 354.99168 191.364375 
L 356.89632 190.738906 
L 358.80096 193.805556 
L 360.7056 192.280811 
L 362.61024 153.060354 
L 364.51488 159.347876 
L 366.41952 159.361405 
L 368.32416 174.950531 
L 370.2288 183.669399 
L 372.13344 182.047247 
L 372.63936 157.228592 
L 374.544 170.414132 
L 376.44864 177.789789 
L 378.35328 175.226072 
L 380.25792 176.598594 
L 382.16256 187.210988 
L 384.0672 191.554154 
L 385.97184 191.867853 
L 387.87648 190.79001 
L 389.78112 181.813958 
L 391.68576 184.049949 
L 393.5904 155.000004 
L 395.49504 172.62066 
L 397.39968 179.304995 
L 399.30432 173.099461 
L 401.20896 183.885238 
L 403.1136 190.537889 
L 405.01824 193.260404 
L 406.92288 192.53673 
L 408.82752 194.208287 
L 410.73216 192.840356 
L 412.6368 178.160041 
L 414.54144 177.41473 
L 416.44608 184.288286 
L 418.35072 179.441382 
L 420.25536 186.226064 
L 422.16 189.220616 
L 424.06464 194.807013 
L 425.96928 195.45566 
L 427.87392 193.501378 
L 429.77856 189.714089 
L 431.6832 190.416434 
L 433.58784 190.71969 
L 433.58784 190.71969 
" clip-path="url(#pd1270c9f45)" style="fill: none; stroke: #ff7f0e; stroke-opacity: 0.4; stroke-linecap: square"/>
   </g>
   <g id="line2d_27">
    <path d="M -1 176.911646 
L -0.40224 175.492274 
L 1.5024 179.037356 
L 3.40704 181.001517 
L 3.91296 182.21853 
L 5.8176 183.114979 
L 7.72224 184.346527 
L 9.62688 183.087685 
L 11.53152 183.845374 
L 13.43616 185.253939 
L 15.3408 185.050649 
L 17.24544 183.072464 
L 19.15008 178.029546 
L 21.05472 182.498634 
L 22.95936 184.312211 
L 24.864 179.980936 
L 26.76864 178.63222 
L 28.67328 183.560071 
L 30.57792 174.92186 
L 32.48256 180.206296 
L 34.3872 180.758851 
L 36.29184 185.033318 
L 40.10112 188.11292 
L 42.00576 189.740834 
L 43.9104 188.82572 
L 45.81504 182.978759 
L 47.71968 184.64623 
L 49.62432 181.139983 
L 51.52896 184.115081 
L 53.4336 180.849031 
L 55.33824 176.013845 
L 57.24288 178.365315 
L 59.14752 183.151664 
L 62.9568 189.757326 
L 64.86144 188.671791 
L 65.36736 189.416751 
L 67.272 174.931813 
L 69.17664 183.135295 
L 71.08128 184.084147 
L 72.98592 182.533537 
L 74.89056 185.336322 
L 76.7952 184.123282 
L 78.69984 188.628677 
L 80.60448 177.735561 
L 82.50912 186.216434 
L 84.41376 172.685573 
L 86.3184 182.890348 
L 88.22304 188.418451 
L 90.12768 190.045541 
L 92.03232 192.4076 
L 95.8416 195.569836 
L 97.74624 194.088506 
L 99.65088 194.984036 
L 101.55552 191.567282 
L 103.46016 177.902814 
L 105.3648 186.349974 
L 107.26944 190.537545 
L 109.17408 191.637257 
L 111.07872 191.354643 
L 112.98336 182.619729 
L 114.888 188.880495 
L 116.79264 192.930751 
L 118.69728 192.347976 
L 120.60192 188.396641 
L 122.50656 193.378986 
L 124.4112 186.572425 
L 126.31584 186.437116 
L 126.82176 176.082211 
L 128.7264 188.052619 
L 132.53568 197.813825 
L 134.44032 196.982122 
L 136.34496 199.332855 
L 138.2496 199.534453 
L 140.15424 181.759226 
L 142.05888 188.862552 
L 143.96352 192.446611 
L 145.86816 196.784998 
L 147.7728 191.11626 
L 149.67744 192.340602 
L 151.58208 192.396771 
L 153.48672 191.75919 
L 155.39136 197.406795 
L 157.296 198.786366 
L 161.10528 199.201341 
L 163.00992 200.558146 
L 164.91456 201.396901 
L 166.8192 203.118731 
L 168.72384 204.203032 
L 170.62848 190.898614 
L 172.53312 196.914123 
L 174.43776 198.870831 
L 176.3424 201.184811 
L 178.24704 197.356602 
L 180.15168 189.438618 
L 182.05632 195.673158 
L 183.96096 191.588525 
L 185.8656 197.472113 
L 187.77024 198.212828 
L 188.27616 187.921724 
L 190.1808 180.086618 
L 192.08544 181.698536 
L 193.99008 190.397893 
L 195.89472 176.221968 
L 197.79936 179.801786 
L 199.704 169.923036 
L 201.60864 183.791992 
L 203.51328 187.256745 
L 205.41792 173.550748 
L 207.32256 181.631374 
L 209.2272 176.899617 
L 211.13184 187.28296 
L 213.03648 195.167852 
L 214.94112 192.455655 
L 216.84576 180.876401 
L 218.7504 188.713008 
L 220.65504 191.757696 
L 222.55968 178.031771 
L 224.46432 145.923417 
L 226.36896 163.377524 
L 228.2736 159.447184 
L 230.17824 176.03291 
L 232.08288 171.711963 
L 235.89216 184.117342 
L 237.7968 193.965546 
L 239.70144 196.138981 
L 241.60608 201.512608 
L 243.51072 203.685961 
L 245.41536 197.877239 
L 247.32 202.434041 
L 249.22464 194.832913 
L 249.73056 192.143995 
L 251.6352 200.886949 
L 253.53984 204.970572 
L 255.44448 208.246229 
L 257.34912 208.94218 
L 259.25376 205.636444 
L 261.1584 208.038734 
L 263.06304 208.658893 
L 264.96768 210.408422 
L 266.87232 210.931582 
L 270.6816 210.163259 
L 272.58624 207.8573 
L 274.49088 208.219965 
L 276.39552 204.847427 
L 278.30016 208.742589 
L 280.2048 207.044164 
L 282.10944 210.175792 
L 284.01408 211.440887 
L 287.82336 207.902833 
L 289.728 210.329178 
L 291.63264 211.26636 
L 293.53728 197.382144 
L 295.44192 203.97156 
L 297.34656 201.44388 
L 299.2512 205.347822 
L 301.15584 205.63407 
L 303.06048 199.10507 
L 304.96512 204.260795 
L 306.86976 203.996677 
L 308.7744 205.870571 
L 310.67904 195.360543 
L 311.18496 196.790754 
L 313.0896 181.943152 
L 314.99424 189.58398 
L 316.89888 195.402103 
L 318.80352 199.056411 
L 320.70816 200.958307 
L 322.6128 186.871637 
L 324.51744 191.90343 
L 326.42208 195.322339 
L 328.32672 192.083899 
L 330.23136 185.716096 
L 332.136 185.963414 
L 334.04064 193.09493 
L 335.94528 182.65759 
L 337.84992 193.34039 
L 339.75456 183.523947 
L 341.6592 193.005087 
L 343.56384 196.172695 
L 345.46848 195.691086 
L 347.37312 202.152836 
L 349.27776 201.262493 
L 351.1824 203.748444 
L 353.08704 201.582651 
L 354.99168 199.887047 
L 356.89632 192.341403 
L 358.80096 198.13699 
L 360.7056 196.839731 
L 362.61024 183.7539 
L 364.51488 181.111235 
L 368.32416 190.667744 
L 370.2288 196.900427 
L 372.13344 192.972735 
L 372.63936 197.297882 
L 374.544 202.804831 
L 376.44864 204.842513 
L 378.35328 204.799182 
L 380.25792 207.572309 
L 382.16256 207.75684 
L 384.0672 209.908645 
L 385.97184 197.594941 
L 387.87648 202.705099 
L 389.78112 198.851396 
L 391.68576 202.752959 
L 393.5904 205.307698 
L 397.39968 207.439955 
L 399.30432 209.331475 
L 401.20896 206.912522 
L 403.1136 200.432248 
L 405.01824 205.706505 
L 406.92288 209.460219 
L 408.82752 206.709558 
L 410.73216 183.747182 
L 412.6368 193.526597 
L 414.54144 201.835553 
L 416.44608 206.846876 
L 418.35072 203.929515 
L 420.25536 209.451789 
L 422.16 209.992517 
L 424.06464 203.708306 
L 425.96928 208.442832 
L 427.87392 208.993337 
L 429.77856 212.508748 
L 431.6832 210.468376 
L 433.58784 210.170314 
L 433.58784 210.170314 
" clip-path="url(#pd1270c9f45)" style="fill: none; stroke: #2ca02c; stroke-opacity: 0.4; stroke-linecap: square"/>
   </g>
   <g id="patch_3">
    <path d="M 57.6 307.584 
L 57.6 41.472 
" style="fill: none; stroke: #000000; stroke-width: 0.8; stroke-linejoin: miter; stroke-linecap: square"/>
   </g>
   <g id="patch_4">
    <path d="M 414.72 307.584 
L 414.72 41.472 
" style="fill: none; stroke: #000000; stroke-width: 0.8; stroke-linejoin: miter; stroke-linecap: square"/>
   </g>
   <g id="patch_5">
    <path d="M 57.6 307.584 
L 414.72 307.584 
" style="fill: none; stroke: #000000; stroke-width: 0.8; stroke-linejoin: miter; stroke-linecap: square"/>
   </g>
   <g id="patch_6">
    <path d="M 57.6 41.472 
L 414.72 41.472 
" style="fill: none; stroke: #000000; stroke-width: 0.8; stroke-linejoin: miter; stroke-linecap: square"/>
   </g>
   <g id="text_12">
    <!-- 2025-02-18-14:19:56 -->
    <g transform="translate(172.178438 35.472) scale(0.12 -0.12)">
     <defs>
      <path id="DejaVuSans-35" d="M 691 4666 
L 3169 4666 
L 3169 4134 
L 1269 4134 
L 1269 2991 
Q 1406 3038 1543 3061 
Q 1681 3084 1819 3084 
Q 2600 3084 3056 2656 
Q 3513 2228 3513 1497 
Q 3513 744 3044 326 
Q 2575 -91 1722 -91 
Q 1428 -91 1123 -41 
Q 819 9 494 109 
L 494 744 
Q 775 591 1075 516 
Q 1375 441 1709 441 
Q 2250 441 2565 725 
Q 2881 1009 2881 1497 
Q 2881 1984 2565 2268 
Q 2250 2553 1709 2553 
Q 1456 2553 1204 2497 
Q 953 2441 691 2322 
L 691 4666 
z
" transform="scale(0.015625)"/>
      <path id="DejaVuSans-2d" d="M 313 2009 
L 1997 2009 
L 1997 1497 
L 313 1497 
L 313 2009 
z
" transform="scale(0.015625)"/>
      <path id="DejaVuSans-3a" d="M 750 794 
L 1409 794 
L 1409 0 
L 750 0 
L 750 794 
z
M 750 3309 
L 1409 3309 
L 1409 2516 
L 750 2516 
L 750 3309 
z
" transform="scale(0.015625)"/>
      <path id="DejaVuSans-39" d="M 703 97 
L 703 672 
Q 941 559 1184 500 
Q 1428 441 1663 441 
Q 2288 441 2617 861 
Q 2947 1281 2994 2138 
Q 2813 1869 2534 1725 
Q 2256 1581 1919 1581 
Q 1219 1581 811 2004 
Q 403 2428 403 3163 
Q 403 3881 828 4315 
Q 1253 4750 1959 4750 
Q 2769 4750 3195 4129 
Q 3622 3509 3622 2328 
Q 3622 1225 3098 567 
Q 2575 -91 1691 -91 
Q 1453 -91 1209 -44 
Q 966 3 703 97 
z
M 1959 2075 
Q 2384 2075 2632 2365 
Q 2881 2656 2881 3163 
Q 2881 3666 2632 3958 
Q 2384 4250 1959 4250 
Q 1534 4250 1286 3958 
Q 1038 3666 1038 3163 
Q 1038 2656 1286 2365 
Q 1534 2075 1959 2075 
z
" transform="scale(0.015625)"/>
     </defs>
     <use xlink:href="#DejaVuSans-32"/>
     <use xlink:href="#DejaVuSans-30" x="63.623047"/>
     <use xlink:href="#DejaVuSans-32" x="127.246094"/>
     <use xlink:href="#DejaVuSans-35" x="190.869141"/>
     <use xlink:href="#DejaVuSans-2d" x="254.492188"/>
     <use xlink:href="#DejaVuSans-30" x="290.576172"/>
     <use xlink:href="#DejaVuSans-32" x="354.199219"/>
     <use xlink:href="#DejaVuSans-2d" x="417.822266"/>
     <use xlink:href="#DejaVuSans-31" x="453.90625"/>
     <use xlink:href="#DejaVuSans-38" x="517.529297"/>
     <use xlink:href="#DejaVuSans-2d" x="581.152344"/>
     <use xlink:href="#DejaVuSans-31" x="617.236328"/>
     <use xlink:href="#DejaVuSans-34" x="680.859375"/>
     <use xlink:href="#DejaVuSans-3a" x="744.482422"/>
     <use xlink:href="#DejaVuSans-31" x="778.173828"/>
     <use xlink:href="#DejaVuSans-39" x="841.796875"/>
     <use xlink:href="#DejaVuSans-3a" x="905.419922"/>
     <use xlink:href="#DejaVuSans-35" x="939.111328"/>
     <use xlink:href="#DejaVuSans-36" x="1002.734375"/>
    </g>
   </g>
   <g id="legend_1">
    <g id="patch_7">
     <path d="M 64.6 94.34075 
L 190.723438 94.34075 
Q 192.723438 94.34075 192.723438 92.34075 
L 192.723438 48.472 
Q 192.723438 46.472 190.723438 46.472 
L 64.6 46.472 
Q 62.6 46.472 62.6 48.472 
L 62.6 92.34075 
Q 62.6 94.34075 64.6 94.34075 
z
" style="fill: #ffffff; opacity: 0.8; stroke: #cccccc; stroke-linejoin: miter"/>
    </g>
    <g id="line2d_28">
     <path d="M 66.6 54.570438 
L 76.6 54.570438 
L 86.6 54.570438 
" style="fill: none; stroke: #1f77b4; stroke-opacity: 0.4; stroke-linecap: square"/>
    </g>
    <g id="text_13">
     <!-- SchNet eval_loss -->
     <g transform="translate(94.6 58.070438) scale(0.1 -0.1)">
      <defs>
       <path id="DejaVuSans-53" d="M 3425 4513 
L 3425 3897 
Q 3066 4069 2747 4153 
Q 2428 4238 2131 4238 
Q 1616 4238 1336 4038 
Q 1056 3838 1056 3469 
Q 1056 3159 1242 3001 
Q 1428 2844 1947 2747 
L 2328 2669 
Q 3034 2534 3370 2195 
Q 3706 1856 3706 1288 
Q 3706 609 3251 259 
Q 2797 -91 1919 -91 
Q 1588 -91 1214 -16 
Q 841 59 441 206 
L 441 856 
Q 825 641 1194 531 
Q 1563 422 1919 422 
Q 2459 422 2753 634 
Q 3047 847 3047 1241 
Q 3047 1584 2836 1778 
Q 2625 1972 2144 2069 
L 1759 2144 
Q 1053 2284 737 2584 
Q 422 2884 422 3419 
Q 422 4038 858 4394 
Q 1294 4750 2059 4750 
Q 2388 4750 2728 4690 
Q 3069 4631 3425 4513 
z
" transform="scale(0.015625)"/>
       <path id="DejaVuSans-63" d="M 3122 3366 
L 3122 2828 
Q 2878 2963 2633 3030 
Q 2388 3097 2138 3097 
Q 1578 3097 1268 2742 
Q 959 2388 959 1747 
Q 959 1106 1268 751 
Q 1578 397 2138 397 
Q 2388 397 2633 464 
Q 2878 531 3122 666 
L 3122 134 
Q 2881 22 2623 -34 
Q 2366 -91 2075 -91 
Q 1284 -91 818 406 
Q 353 903 353 1747 
Q 353 2603 823 3093 
Q 1294 3584 2113 3584 
Q 2378 3584 2631 3529 
Q 2884 3475 3122 3366 
z
" transform="scale(0.015625)"/>
       <path id="DejaVuSans-68" d="M 3513 2113 
L 3513 0 
L 2938 0 
L 2938 2094 
Q 2938 2591 2744 2837 
Q 2550 3084 2163 3084 
Q 1697 3084 1428 2787 
Q 1159 2491 1159 1978 
L 1159 0 
L 581 0 
L 581 4863 
L 1159 4863 
L 1159 2956 
Q 1366 3272 1645 3428 
Q 1925 3584 2291 3584 
Q 2894 3584 3203 3211 
Q 3513 2838 3513 2113 
z
" transform="scale(0.015625)"/>
       <path id="DejaVuSans-4e" d="M 628 4666 
L 1478 4666 
L 3547 763 
L 3547 4666 
L 4159 4666 
L 4159 0 
L 3309 0 
L 1241 3903 
L 1241 0 
L 628 0 
L 628 4666 
z
" transform="scale(0.015625)"/>
       <path id="DejaVuSans-20" transform="scale(0.015625)"/>
       <path id="DejaVuSans-76" d="M 191 3500 
L 800 3500 
L 1894 563 
L 2988 3500 
L 3597 3500 
L 2284 0 
L 1503 0 
L 191 3500 
z
" transform="scale(0.015625)"/>
       <path id="DejaVuSans-61" d="M 2194 1759 
Q 1497 1759 1228 1600 
Q 959 1441 959 1056 
Q 959 750 1161 570 
Q 1363 391 1709 391 
Q 2188 391 2477 730 
Q 2766 1069 2766 1631 
L 2766 1759 
L 2194 1759 
z
M 3341 1997 
L 3341 0 
L 2766 0 
L 2766 531 
Q 2569 213 2275 61 
Q 1981 -91 1556 -91 
Q 1019 -91 701 211 
Q 384 513 384 1019 
Q 384 1609 779 1909 
Q 1175 2209 1959 2209 
L 2766 2209 
L 2766 2266 
Q 2766 2663 2505 2880 
Q 2244 3097 1772 3097 
Q 1472 3097 1187 3025 
Q 903 2953 641 2809 
L 641 3341 
Q 956 3463 1253 3523 
Q 1550 3584 1831 3584 
Q 2591 3584 2966 3190 
Q 3341 2797 3341 1997 
z
" transform="scale(0.015625)"/>
       <path id="DejaVuSans-5f" d="M 3263 -1063 
L 3263 -1509 
L -63 -1509 
L -63 -1063 
L 3263 -1063 
z
" transform="scale(0.015625)"/>
      </defs>
      <use xlink:href="#DejaVuSans-53"/>
      <use xlink:href="#DejaVuSans-63" x="63.476562"/>
      <use xlink:href="#DejaVuSans-68" x="118.457031"/>
      <use xlink:href="#DejaVuSans-4e" x="181.835938"/>
      <use xlink:href="#DejaVuSans-65" x="256.640625"/>
      <use xlink:href="#DejaVuSans-74" x="318.164062"/>
      <use xlink:href="#DejaVuSans-20" x="357.373047"/>
      <use xlink:href="#DejaVuSans-65" x="389.160156"/>
      <use xlink:href="#DejaVuSans-76" x="450.683594"/>
      <use xlink:href="#DejaVuSans-61" x="509.863281"/>
      <use xlink:href="#DejaVuSans-6c" x="571.142578"/>
      <use xlink:href="#DejaVuSans-5f" x="598.925781"/>
      <use xlink:href="#DejaVuSans-6c" x="648.925781"/>
      <use xlink:href="#DejaVuSans-6f" x="676.708984"/>
      <use xlink:href="#DejaVuSans-73" x="737.890625"/>
      <use xlink:href="#DejaVuSans-73" x="789.990234"/>
     </g>
    </g>
    <g id="line2d_29">
     <path d="M 66.6 69.526688 
L 76.6 69.526688 
L 86.6 69.526688 
" style="fill: none; stroke: #ff7f0e; stroke-opacity: 0.4; stroke-linecap: square"/>
    </g>
    <g id="text_14">
     <!-- MoGIN13 eval_loss -->
     <g transform="translate(94.6 73.026688) scale(0.1 -0.1)">
      <defs>
       <path id="DejaVuSans-4d" d="M 628 4666 
L 1569 4666 
L 2759 1491 
L 3956 4666 
L 4897 4666 
L 4897 0 
L 4281 0 
L 4281 4097 
L 3078 897 
L 2444 897 
L 1241 4097 
L 1241 0 
L 628 0 
L 628 4666 
z
" transform="scale(0.015625)"/>
       <path id="DejaVuSans-47" d="M 3809 666 
L 3809 1919 
L 2778 1919 
L 2778 2438 
L 4434 2438 
L 4434 434 
Q 4069 175 3628 42 
Q 3188 -91 2688 -91 
Q 1594 -91 976 548 
Q 359 1188 359 2328 
Q 359 3472 976 4111 
Q 1594 4750 2688 4750 
Q 3144 4750 3555 4637 
Q 3966 4525 4313 4306 
L 4313 3634 
Q 3963 3931 3569 4081 
Q 3175 4231 2741 4231 
Q 1884 4231 1454 3753 
Q 1025 3275 1025 2328 
Q 1025 1384 1454 906 
Q 1884 428 2741 428 
Q 3075 428 3337 486 
Q 3600 544 3809 666 
z
" transform="scale(0.015625)"/>
       <path id="DejaVuSans-49" d="M 628 4666 
L 1259 4666 
L 1259 0 
L 628 0 
L 628 4666 
z
" transform="scale(0.015625)"/>
       <path id="DejaVuSans-33" d="M 2597 2516 
Q 3050 2419 3304 2112 
Q 3559 1806 3559 1356 
Q 3559 666 3084 287 
Q 2609 -91 1734 -91 
Q 1441 -91 1130 -33 
Q 819 25 488 141 
L 488 750 
Q 750 597 1062 519 
Q 1375 441 1716 441 
Q 2309 441 2620 675 
Q 2931 909 2931 1356 
Q 2931 1769 2642 2001 
Q 2353 2234 1838 2234 
L 1294 2234 
L 1294 2753 
L 1863 2753 
Q 2328 2753 2575 2939 
Q 2822 3125 2822 3475 
Q 2822 3834 2567 4026 
Q 2313 4219 1838 4219 
Q 1578 4219 1281 4162 
Q 984 4106 628 3988 
L 628 4550 
Q 988 4650 1302 4700 
Q 1616 4750 1894 4750 
Q 2613 4750 3031 4423 
Q 3450 4097 3450 3541 
Q 3450 3153 3228 2886 
Q 3006 2619 2597 2516 
z
" transform="scale(0.015625)"/>
      </defs>
      <use xlink:href="#DejaVuSans-4d"/>
      <use xlink:href="#DejaVuSans-6f" x="86.279297"/>
      <use xlink:href="#DejaVuSans-47" x="147.460938"/>
      <use xlink:href="#DejaVuSans-49" x="224.951172"/>
      <use xlink:href="#DejaVuSans-4e" x="254.443359"/>
      <use xlink:href="#DejaVuSans-31" x="329.248047"/>
      <use xlink:href="#DejaVuSans-33" x="392.871094"/>
      <use xlink:href="#DejaVuSans-20" x="456.494141"/>
      <use xlink:href="#DejaVuSans-65" x="488.28125"/>
      <use xlink:href="#DejaVuSans-76" x="549.804688"/>
      <use xlink:href="#DejaVuSans-61" x="608.984375"/>
      <use xlink:href="#DejaVuSans-6c" x="670.263672"/>
      <use xlink:href="#DejaVuSans-5f" x="698.046875"/>
      <use xlink:href="#DejaVuSans-6c" x="748.046875"/>
      <use xlink:href="#DejaVuSans-6f" x="775.830078"/>
      <use xlink:href="#DejaVuSans-73" x="837.011719"/>
      <use xlink:href="#DejaVuSans-73" x="889.111328"/>
     </g>
    </g>
    <g id="line2d_30">
     <path d="M 66.6 84.482938 
L 76.6 84.482938 
L 86.6 84.482938 
" style="fill: none; stroke: #2ca02c; stroke-opacity: 0.4; stroke-linecap: square"/>
    </g>
    <g id="text_15">
     <!-- MoGIN11 eval_loss -->
     <g transform="translate(94.6 87.982938) scale(0.1 -0.1)">
      <use xlink:href="#DejaVuSans-4d"/>
      <use xlink:href="#DejaVuSans-6f" x="86.279297"/>
      <use xlink:href="#DejaVuSans-47" x="147.460938"/>
      <use xlink:href="#DejaVuSans-49" x="224.951172"/>
      <use xlink:href="#DejaVuSans-4e" x="254.443359"/>
      <use xlink:href="#DejaVuSans-31" x="329.248047"/>
      <use xlink:href="#DejaVuSans-31" x="392.871094"/>
      <use xlink:href="#DejaVuSans-20" x="456.494141"/>
      <use xlink:href="#DejaVuSans-65" x="488.28125"/>
      <use xlink:href="#DejaVuSans-76" x="549.804688"/>
      <use xlink:href="#DejaVuSans-61" x="608.984375"/>
      <use xlink:href="#DejaVuSans-6c" x="670.263672"/>
      <use xlink:href="#DejaVuSans-5f" x="698.046875"/>
      <use xlink:href="#DejaVuSans-6c" x="748.046875"/>
      <use xlink:href="#DejaVuSans-6f" x="775.830078"/>
      <use xlink:href="#DejaVuSans-73" x="837.011719"/>
      <use xlink:href="#DejaVuSans-73" x="889.111328"/>
     </g>
    </g>
   </g>
  </g>
 </g>
 <defs>
  <clipPath id="pd1270c9f45">
   <rect x="57.6" y="41.472" width="357.12" height="266.112"/>
  </clipPath>
 </defs>
</svg>
