<?xml version="1.0" encoding="utf-8" standalone="no"?>
<!DOCTYPE svg PUBLIC "-//W3C//DTD SVG 1.1//EN"
  "http://www.w3.org/Graphics/SVG/1.1/DTD/svg11.dtd">
<svg xmlns:xlink="http://www.w3.org/1999/xlink" width="460.8pt" height="345.6pt" viewBox="0 0 460.8 345.6" xmlns="http://www.w3.org/2000/svg" version="1.1">
 <metadata>
  <rdf:RDF xmlns:dc="http://purl.org/dc/elements/1.1/" xmlns:cc="http://creativecommons.org/ns#" xmlns:rdf="http://www.w3.org/1999/02/22-rdf-syntax-ns#">
   <cc:Work>
    <dc:type rdf:resource="http://purl.org/dc/dcmitype/StillImage"/>
    <dc:date>2025-02-19T00:10:41.864272</dc:date>
    <dc:format>image/svg+xml</dc:format>
    <dc:creator>
     <cc:Agent>
      <dc:title>Matplotlib v3.8.4, https://matplotlib.org/</dc:title>
     </cc:Agent>
    </dc:creator>
   </cc:Work>
  </rdf:RDF>
 </metadata>
 <defs>
  <style type="text/css">*{stroke-linejoin: round; stroke-linecap: butt}</style>
 </defs>
 <g id="figure_1">
  <g id="patch_1">
   <path d="M 0 345.6 
L 460.8 345.6 
L 460.8 0 
L 0 0 
z
" style="fill: #ffffff"/>
  </g>
  <g id="axes_1">
   <g id="patch_2">
    <path d="M 57.6 307.584 
L 414.72 307.584 
L 414.72 41.472 
L 57.6 41.472 
z
" style="fill: #ffffff"/>
   </g>
   <g id="matplotlib.axis_1">
    <g id="xtick_1">
     <g id="line2d_1">
      <defs>
       <path id="m2dcf6fb156" d="M 0 0 
L 0 3.5 
" style="stroke: #000000; stroke-width: 0.8"/>
      </defs>
      <g>
       <use xlink:href="#m2dcf6fb156" x="73.832727" y="307.584" style="stroke: #000000; stroke-width: 0.8"/>
      </g>
     </g>
     <g id="text_1">
      <!-- $\mathdefault{10^{0}}$ -->
      <g transform="translate(65.032727 322.182437) scale(0.1 -0.1)">
       <defs>
        <path id="DejaVuSans-31" d="M 794 531 
L 1825 531 
L 1825 4091 
L 703 3866 
L 703 4441 
L 1819 4666 
L 2450 4666 
L 2450 531 
L 3481 531 
L 3481 0 
L 794 0 
L 794 531 
z
" transform="scale(0.015625)"/>
        <path id="DejaVuSans-30" d="M 2034 4250 
Q 1547 4250 1301 3770 
Q 1056 3291 1056 2328 
Q 1056 1369 1301 889 
Q 1547 409 2034 409 
Q 2525 409 2770 889 
Q 3016 1369 3016 2328 
Q 3016 3291 2770 3770 
Q 2525 4250 2034 4250 
z
M 2034 4750 
Q 2819 4750 3233 4129 
Q 3647 3509 3647 2328 
Q 3647 1150 3233 529 
Q 2819 -91 2034 -91 
Q 1250 -91 836 529 
Q 422 1150 422 2328 
Q 422 3509 836 4129 
Q 1250 4750 2034 4750 
z
" transform="scale(0.015625)"/>
       </defs>
       <use xlink:href="#DejaVuSans-31" transform="translate(0 0.765625)"/>
       <use xlink:href="#DejaVuSans-30" transform="translate(63.623047 0.765625)"/>
       <use xlink:href="#DejaVuSans-30" transform="translate(128.203125 39.046875) scale(0.7)"/>
      </g>
     </g>
    </g>
    <g id="xtick_2">
     <g id="line2d_2">
      <g>
       <use xlink:href="#m2dcf6fb156" x="147.404166" y="307.584" style="stroke: #000000; stroke-width: 0.8"/>
      </g>
     </g>
     <g id="text_2">
      <!-- $\mathdefault{10^{1}}$ -->
      <g transform="translate(138.604166 322.182437) scale(0.1 -0.1)">
       <use xlink:href="#DejaVuSans-31" transform="translate(0 0.684375)"/>
       <use xlink:href="#DejaVuSans-30" transform="translate(63.623047 0.684375)"/>
       <use xlink:href="#DejaVuSans-31" transform="translate(128.203125 38.965625) scale(0.7)"/>
      </g>
     </g>
    </g>
    <g id="xtick_3">
     <g id="line2d_3">
      <g>
       <use xlink:href="#m2dcf6fb156" x="220.975604" y="307.584" style="stroke: #000000; stroke-width: 0.8"/>
      </g>
     </g>
     <g id="text_3">
      <!-- $\mathdefault{10^{2}}$ -->
      <g transform="translate(212.175604 322.182437) scale(0.1 -0.1)">
       <defs>
        <path id="DejaVuSans-32" d="M 1228 531 
L 3431 531 
L 3431 0 
L 469 0 
L 469 531 
Q 828 903 1448 1529 
Q 2069 2156 2228 2338 
Q 2531 2678 2651 2914 
Q 2772 3150 2772 3378 
Q 2772 3750 2511 3984 
Q 2250 4219 1831 4219 
Q 1534 4219 1204 4116 
Q 875 4013 500 3803 
L 500 4441 
Q 881 4594 1212 4672 
Q 1544 4750 1819 4750 
Q 2544 4750 2975 4387 
Q 3406 4025 3406 3419 
Q 3406 3131 3298 2873 
Q 3191 2616 2906 2266 
Q 2828 2175 2409 1742 
Q 1991 1309 1228 531 
z
" transform="scale(0.015625)"/>
       </defs>
       <use xlink:href="#DejaVuSans-31" transform="translate(0 0.765625)"/>
       <use xlink:href="#DejaVuSans-30" transform="translate(63.623047 0.765625)"/>
       <use xlink:href="#DejaVuSans-32" transform="translate(128.203125 39.046875) scale(0.7)"/>
      </g>
     </g>
    </g>
    <g id="xtick_4">
     <g id="line2d_4">
      <g>
       <use xlink:href="#m2dcf6fb156" x="294.547042" y="307.584" style="stroke: #000000; stroke-width: 0.8"/>
      </g>
     </g>
     <g id="text_4">
      <!-- $\mathdefault{10^{3}}$ -->
      <g transform="translate(285.747042 322.182437) scale(0.1 -0.1)">
       <defs>
        <path id="DejaVuSans-33" d="M 2597 2516 
Q 3050 2419 3304 2112 
Q 3559 1806 3559 1356 
Q 3559 666 3084 287 
Q 2609 -91 1734 -91 
Q 1441 -91 1130 -33 
Q 819 25 488 141 
L 488 750 
Q 750 597 1062 519 
Q 1375 441 1716 441 
Q 2309 441 2620 675 
Q 2931 909 2931 1356 
Q 2931 1769 2642 2001 
Q 2353 2234 1838 2234 
L 1294 2234 
L 1294 2753 
L 1863 2753 
Q 2328 2753 2575 2939 
Q 2822 3125 2822 3475 
Q 2822 3834 2567 4026 
Q 2313 4219 1838 4219 
Q 1578 4219 1281 4162 
Q 984 4106 628 3988 
L 628 4550 
Q 988 4650 1302 4700 
Q 1616 4750 1894 4750 
Q 2613 4750 3031 4423 
Q 3450 4097 3450 3541 
Q 3450 3153 3228 2886 
Q 3006 2619 2597 2516 
z
" transform="scale(0.015625)"/>
       </defs>
       <use xlink:href="#DejaVuSans-31" transform="translate(0 0.765625)"/>
       <use xlink:href="#DejaVuSans-30" transform="translate(63.623047 0.765625)"/>
       <use xlink:href="#DejaVuSans-33" transform="translate(128.203125 39.046875) scale(0.7)"/>
      </g>
     </g>
    </g>
    <g id="xtick_5">
     <g id="line2d_5">
      <g>
       <use xlink:href="#m2dcf6fb156" x="368.118481" y="307.584" style="stroke: #000000; stroke-width: 0.8"/>
      </g>
     </g>
     <g id="text_5">
      <!-- $\mathdefault{10^{4}}$ -->
      <g transform="translate(359.318481 322.182437) scale(0.1 -0.1)">
       <defs>
        <path id="DejaVuSans-34" d="M 2419 4116 
L 825 1625 
L 2419 1625 
L 2419 4116 
z
M 2253 4666 
L 3047 4666 
L 3047 1625 
L 3713 1625 
L 3713 1100 
L 3047 1100 
L 3047 0 
L 2419 0 
L 2419 1100 
L 313 1100 
L 313 1709 
L 2253 4666 
z
" transform="scale(0.015625)"/>
       </defs>
       <use xlink:href="#DejaVuSans-31" transform="translate(0 0.684375)"/>
       <use xlink:href="#DejaVuSans-30" transform="translate(63.623047 0.684375)"/>
       <use xlink:href="#DejaVuSans-34" transform="translate(128.203125 38.965625) scale(0.7)"/>
      </g>
     </g>
    </g>
    <g id="xtick_6">
     <g id="line2d_6">
      <defs>
       <path id="mdba2eb1f0b" d="M 0 0 
L 0 2 
" style="stroke: #000000; stroke-width: 0.6"/>
      </defs>
      <g>
       <use xlink:href="#mdba2eb1f0b" x="62.436367" y="307.584" style="stroke: #000000; stroke-width: 0.6"/>
      </g>
     </g>
    </g>
    <g id="xtick_7">
     <g id="line2d_7">
      <g>
       <use xlink:href="#mdba2eb1f0b" x="66.702918" y="307.584" style="stroke: #000000; stroke-width: 0.6"/>
      </g>
     </g>
    </g>
    <g id="xtick_8">
     <g id="line2d_8">
      <g>
       <use xlink:href="#mdba2eb1f0b" x="70.466283" y="307.584" style="stroke: #000000; stroke-width: 0.6"/>
      </g>
     </g>
    </g>
    <g id="xtick_9">
     <g id="line2d_9">
      <g>
       <use xlink:href="#mdba2eb1f0b" x="95.979937" y="307.584" style="stroke: #000000; stroke-width: 0.6"/>
      </g>
     </g>
    </g>
    <g id="xtick_10">
     <g id="line2d_10">
      <g>
       <use xlink:href="#mdba2eb1f0b" x="108.935224" y="307.584" style="stroke: #000000; stroke-width: 0.6"/>
      </g>
     </g>
    </g>
    <g id="xtick_11">
     <g id="line2d_11">
      <g>
       <use xlink:href="#mdba2eb1f0b" x="118.127147" y="307.584" style="stroke: #000000; stroke-width: 0.6"/>
      </g>
     </g>
    </g>
    <g id="xtick_12">
     <g id="line2d_12">
      <g>
       <use xlink:href="#mdba2eb1f0b" x="125.256956" y="307.584" style="stroke: #000000; stroke-width: 0.6"/>
      </g>
     </g>
    </g>
    <g id="xtick_13">
     <g id="line2d_13">
      <g>
       <use xlink:href="#mdba2eb1f0b" x="131.082434" y="307.584" style="stroke: #000000; stroke-width: 0.6"/>
      </g>
     </g>
    </g>
    <g id="xtick_14">
     <g id="line2d_14">
      <g>
       <use xlink:href="#mdba2eb1f0b" x="136.007806" y="307.584" style="stroke: #000000; stroke-width: 0.6"/>
      </g>
     </g>
    </g>
    <g id="xtick_15">
     <g id="line2d_15">
      <g>
       <use xlink:href="#mdba2eb1f0b" x="140.274357" y="307.584" style="stroke: #000000; stroke-width: 0.6"/>
      </g>
     </g>
    </g>
    <g id="xtick_16">
     <g id="line2d_16">
      <g>
       <use xlink:href="#mdba2eb1f0b" x="144.037721" y="307.584" style="stroke: #000000; stroke-width: 0.6"/>
      </g>
     </g>
    </g>
    <g id="xtick_17">
     <g id="line2d_17">
      <g>
       <use xlink:href="#mdba2eb1f0b" x="169.551375" y="307.584" style="stroke: #000000; stroke-width: 0.6"/>
      </g>
     </g>
    </g>
    <g id="xtick_18">
     <g id="line2d_18">
      <g>
       <use xlink:href="#mdba2eb1f0b" x="182.506663" y="307.584" style="stroke: #000000; stroke-width: 0.6"/>
      </g>
     </g>
    </g>
    <g id="xtick_19">
     <g id="line2d_19">
      <g>
       <use xlink:href="#mdba2eb1f0b" x="191.698585" y="307.584" style="stroke: #000000; stroke-width: 0.6"/>
      </g>
     </g>
    </g>
    <g id="xtick_20">
     <g id="line2d_20">
      <g>
       <use xlink:href="#mdba2eb1f0b" x="198.828394" y="307.584" style="stroke: #000000; stroke-width: 0.6"/>
      </g>
     </g>
    </g>
    <g id="xtick_21">
     <g id="line2d_21">
      <g>
       <use xlink:href="#mdba2eb1f0b" x="204.653872" y="307.584" style="stroke: #000000; stroke-width: 0.6"/>
      </g>
     </g>
    </g>
    <g id="xtick_22">
     <g id="line2d_22">
      <g>
       <use xlink:href="#mdba2eb1f0b" x="209.579244" y="307.584" style="stroke: #000000; stroke-width: 0.6"/>
      </g>
     </g>
    </g>
    <g id="xtick_23">
     <g id="line2d_23">
      <g>
       <use xlink:href="#mdba2eb1f0b" x="213.845795" y="307.584" style="stroke: #000000; stroke-width: 0.6"/>
      </g>
     </g>
    </g>
    <g id="xtick_24">
     <g id="line2d_24">
      <g>
       <use xlink:href="#mdba2eb1f0b" x="217.60916" y="307.584" style="stroke: #000000; stroke-width: 0.6"/>
      </g>
     </g>
    </g>
    <g id="xtick_25">
     <g id="line2d_25">
      <g>
       <use xlink:href="#mdba2eb1f0b" x="243.122814" y="307.584" style="stroke: #000000; stroke-width: 0.6"/>
      </g>
     </g>
    </g>
    <g id="xtick_26">
     <g id="line2d_26">
      <g>
       <use xlink:href="#mdba2eb1f0b" x="256.078101" y="307.584" style="stroke: #000000; stroke-width: 0.6"/>
      </g>
     </g>
    </g>
    <g id="xtick_27">
     <g id="line2d_27">
      <g>
       <use xlink:href="#mdba2eb1f0b" x="265.270024" y="307.584" style="stroke: #000000; stroke-width: 0.6"/>
      </g>
     </g>
    </g>
    <g id="xtick_28">
     <g id="line2d_28">
      <g>
       <use xlink:href="#mdba2eb1f0b" x="272.399833" y="307.584" style="stroke: #000000; stroke-width: 0.6"/>
      </g>
     </g>
    </g>
    <g id="xtick_29">
     <g id="line2d_29">
      <g>
       <use xlink:href="#mdba2eb1f0b" x="278.225311" y="307.584" style="stroke: #000000; stroke-width: 0.6"/>
      </g>
     </g>
    </g>
    <g id="xtick_30">
     <g id="line2d_30">
      <g>
       <use xlink:href="#mdba2eb1f0b" x="283.150682" y="307.584" style="stroke: #000000; stroke-width: 0.6"/>
      </g>
     </g>
    </g>
    <g id="xtick_31">
     <g id="line2d_31">
      <g>
       <use xlink:href="#mdba2eb1f0b" x="287.417233" y="307.584" style="stroke: #000000; stroke-width: 0.6"/>
      </g>
     </g>
    </g>
    <g id="xtick_32">
     <g id="line2d_32">
      <g>
       <use xlink:href="#mdba2eb1f0b" x="291.180598" y="307.584" style="stroke: #000000; stroke-width: 0.6"/>
      </g>
     </g>
    </g>
    <g id="xtick_33">
     <g id="line2d_33">
      <g>
       <use xlink:href="#mdba2eb1f0b" x="316.694252" y="307.584" style="stroke: #000000; stroke-width: 0.6"/>
      </g>
     </g>
    </g>
    <g id="xtick_34">
     <g id="line2d_34">
      <g>
       <use xlink:href="#mdba2eb1f0b" x="329.649539" y="307.584" style="stroke: #000000; stroke-width: 0.6"/>
      </g>
     </g>
    </g>
    <g id="xtick_35">
     <g id="line2d_35">
      <g>
       <use xlink:href="#mdba2eb1f0b" x="338.841462" y="307.584" style="stroke: #000000; stroke-width: 0.6"/>
      </g>
     </g>
    </g>
    <g id="xtick_36">
     <g id="line2d_36">
      <g>
       <use xlink:href="#mdba2eb1f0b" x="345.971271" y="307.584" style="stroke: #000000; stroke-width: 0.6"/>
      </g>
     </g>
    </g>
    <g id="xtick_37">
     <g id="line2d_37">
      <g>
       <use xlink:href="#mdba2eb1f0b" x="351.796749" y="307.584" style="stroke: #000000; stroke-width: 0.6"/>
      </g>
     </g>
    </g>
    <g id="xtick_38">
     <g id="line2d_38">
      <g>
       <use xlink:href="#mdba2eb1f0b" x="356.722121" y="307.584" style="stroke: #000000; stroke-width: 0.6"/>
      </g>
     </g>
    </g>
    <g id="xtick_39">
     <g id="line2d_39">
      <g>
       <use xlink:href="#mdba2eb1f0b" x="360.988672" y="307.584" style="stroke: #000000; stroke-width: 0.6"/>
      </g>
     </g>
    </g>
    <g id="xtick_40">
     <g id="line2d_40">
      <g>
       <use xlink:href="#mdba2eb1f0b" x="364.752036" y="307.584" style="stroke: #000000; stroke-width: 0.6"/>
      </g>
     </g>
    </g>
    <g id="xtick_41">
     <g id="line2d_41">
      <g>
       <use xlink:href="#mdba2eb1f0b" x="390.265691" y="307.584" style="stroke: #000000; stroke-width: 0.6"/>
      </g>
     </g>
    </g>
    <g id="xtick_42">
     <g id="line2d_42">
      <g>
       <use xlink:href="#mdba2eb1f0b" x="403.220978" y="307.584" style="stroke: #000000; stroke-width: 0.6"/>
      </g>
     </g>
    </g>
    <g id="xtick_43">
     <g id="line2d_43">
      <g>
       <use xlink:href="#mdba2eb1f0b" x="412.4129" y="307.584" style="stroke: #000000; stroke-width: 0.6"/>
      </g>
     </g>
    </g>
    <g id="text_6">
     <!-- iter# -->
     <g transform="translate(223.488906 335.860562) scale(0.1 -0.1)">
      <defs>
       <path id="DejaVuSans-69" d="M 603 3500 
L 1178 3500 
L 1178 0 
L 603 0 
L 603 3500 
z
M 603 4863 
L 1178 4863 
L 1178 4134 
L 603 4134 
L 603 4863 
z
" transform="scale(0.015625)"/>
       <path id="DejaVuSans-74" d="M 1172 4494 
L 1172 3500 
L 2356 3500 
L 2356 3053 
L 1172 3053 
L 1172 1153 
Q 1172 725 1289 603 
Q 1406 481 1766 481 
L 2356 481 
L 2356 0 
L 1766 0 
Q 1100 0 847 248 
Q 594 497 594 1153 
L 594 3053 
L 172 3053 
L 172 3500 
L 594 3500 
L 594 4494 
L 1172 4494 
z
" transform="scale(0.015625)"/>
       <path id="DejaVuSans-65" d="M 3597 1894 
L 3597 1613 
L 953 1613 
Q 991 1019 1311 708 
Q 1631 397 2203 397 
Q 2534 397 2845 478 
Q 3156 559 3463 722 
L 3463 178 
Q 3153 47 2828 -22 
Q 2503 -91 2169 -91 
Q 1331 -91 842 396 
Q 353 884 353 1716 
Q 353 2575 817 3079 
Q 1281 3584 2069 3584 
Q 2775 3584 3186 3129 
Q 3597 2675 3597 1894 
z
M 3022 2063 
Q 3016 2534 2758 2815 
Q 2500 3097 2075 3097 
Q 1594 3097 1305 2825 
Q 1016 2553 972 2059 
L 3022 2063 
z
" transform="scale(0.015625)"/>
       <path id="DejaVuSans-72" d="M 2631 2963 
Q 2534 3019 2420 3045 
Q 2306 3072 2169 3072 
Q 1681 3072 1420 2755 
Q 1159 2438 1159 1844 
L 1159 0 
L 581 0 
L 581 3500 
L 1159 3500 
L 1159 2956 
Q 1341 3275 1631 3429 
Q 1922 3584 2338 3584 
Q 2397 3584 2469 3576 
Q 2541 3569 2628 3553 
L 2631 2963 
z
" transform="scale(0.015625)"/>
       <path id="DejaVuSans-23" d="M 3272 2816 
L 2363 2816 
L 2100 1772 
L 3016 1772 
L 3272 2816 
z
M 2803 4594 
L 2478 3297 
L 3391 3297 
L 3719 4594 
L 4219 4594 
L 3897 3297 
L 4872 3297 
L 4872 2816 
L 3775 2816 
L 3519 1772 
L 4513 1772 
L 4513 1294 
L 3397 1294 
L 3072 0 
L 2572 0 
L 2894 1294 
L 1978 1294 
L 1656 0 
L 1153 0 
L 1478 1294 
L 494 1294 
L 494 1772 
L 1594 1772 
L 1856 2816 
L 850 2816 
L 850 3297 
L 1978 3297 
L 2297 4594 
L 2803 4594 
z
" transform="scale(0.015625)"/>
      </defs>
      <use xlink:href="#DejaVuSans-69"/>
      <use xlink:href="#DejaVuSans-74" x="27.783203"/>
      <use xlink:href="#DejaVuSans-65" x="66.992188"/>
      <use xlink:href="#DejaVuSans-72" x="128.515625"/>
      <use xlink:href="#DejaVuSans-23" x="169.628906"/>
     </g>
    </g>
   </g>
   <g id="matplotlib.axis_2">
    <g id="ytick_1">
     <g id="line2d_44">
      <defs>
       <path id="mcde9dc7944" d="M 0 0 
L -3.5 0 
" style="stroke: #000000; stroke-width: 0.8"/>
      </defs>
      <g>
       <use xlink:href="#mcde9dc7944" x="57.6" y="297.540264" style="stroke: #000000; stroke-width: 0.8"/>
      </g>
     </g>
     <g id="text_7">
      <!-- $\mathdefault{10^{-2}}$ -->
      <g transform="translate(27.1 301.339483) scale(0.1 -0.1)">
       <defs>
        <path id="DejaVuSans-2212" d="M 678 2272 
L 4684 2272 
L 4684 1741 
L 678 1741 
L 678 2272 
z
" transform="scale(0.015625)"/>
       </defs>
       <use xlink:href="#DejaVuSans-31" transform="translate(0 0.765625)"/>
       <use xlink:href="#DejaVuSans-30" transform="translate(63.623047 0.765625)"/>
       <use xlink:href="#DejaVuSans-2212" transform="translate(128.203125 39.046875) scale(0.7)"/>
       <use xlink:href="#DejaVuSans-32" transform="translate(186.855469 39.046875) scale(0.7)"/>
      </g>
     </g>
    </g>
    <g id="ytick_2">
     <g id="line2d_45">
      <g>
       <use xlink:href="#mcde9dc7944" x="57.6" y="221.840457" style="stroke: #000000; stroke-width: 0.8"/>
      </g>
     </g>
     <g id="text_8">
      <!-- $\mathdefault{10^{-1}}$ -->
      <g transform="translate(27.1 225.639676) scale(0.1 -0.1)">
       <use xlink:href="#DejaVuSans-31" transform="translate(0 0.684375)"/>
       <use xlink:href="#DejaVuSans-30" transform="translate(63.623047 0.684375)"/>
       <use xlink:href="#DejaVuSans-2212" transform="translate(128.203125 38.965625) scale(0.7)"/>
       <use xlink:href="#DejaVuSans-31" transform="translate(186.855469 38.965625) scale(0.7)"/>
      </g>
     </g>
    </g>
    <g id="ytick_3">
     <g id="line2d_46">
      <g>
       <use xlink:href="#mcde9dc7944" x="57.6" y="146.14065" style="stroke: #000000; stroke-width: 0.8"/>
      </g>
     </g>
     <g id="text_9">
      <!-- $\mathdefault{10^{0}}$ -->
      <g transform="translate(33 149.939869) scale(0.1 -0.1)">
       <use xlink:href="#DejaVuSans-31" transform="translate(0 0.765625)"/>
       <use xlink:href="#DejaVuSans-30" transform="translate(63.623047 0.765625)"/>
       <use xlink:href="#DejaVuSans-30" transform="translate(128.203125 39.046875) scale(0.7)"/>
      </g>
     </g>
    </g>
    <g id="ytick_4">
     <g id="line2d_47">
      <g>
       <use xlink:href="#mcde9dc7944" x="57.6" y="70.440844" style="stroke: #000000; stroke-width: 0.8"/>
      </g>
     </g>
     <g id="text_10">
      <!-- $\mathdefault{10^{1}}$ -->
      <g transform="translate(33 74.240062) scale(0.1 -0.1)">
       <use xlink:href="#DejaVuSans-31" transform="translate(0 0.684375)"/>
       <use xlink:href="#DejaVuSans-30" transform="translate(63.623047 0.684375)"/>
       <use xlink:href="#DejaVuSans-31" transform="translate(128.203125 38.965625) scale(0.7)"/>
      </g>
     </g>
    </g>
    <g id="ytick_5">
     <g id="line2d_48">
      <defs>
       <path id="mc1d0f366f6" d="M 0 0 
L -2 0 
" style="stroke: #000000; stroke-width: 0.6"/>
      </defs>
      <g>
       <use xlink:href="#mc1d0f366f6" x="57.6" y="304.876333" style="stroke: #000000; stroke-width: 0.6"/>
      </g>
     </g>
    </g>
    <g id="ytick_6">
     <g id="line2d_49">
      <g>
       <use xlink:href="#mc1d0f366f6" x="57.6" y="301.004097" style="stroke: #000000; stroke-width: 0.6"/>
      </g>
     </g>
    </g>
    <g id="ytick_7">
     <g id="line2d_50">
      <g>
       <use xlink:href="#mc1d0f366f6" x="57.6" y="274.752351" style="stroke: #000000; stroke-width: 0.6"/>
      </g>
     </g>
    </g>
    <g id="ytick_8">
     <g id="line2d_51">
      <g>
       <use xlink:href="#mc1d0f366f6" x="57.6" y="261.422277" style="stroke: #000000; stroke-width: 0.6"/>
      </g>
     </g>
    </g>
    <g id="ytick_9">
     <g id="line2d_52">
      <g>
       <use xlink:href="#mc1d0f366f6" x="57.6" y="251.964439" style="stroke: #000000; stroke-width: 0.6"/>
      </g>
     </g>
    </g>
    <g id="ytick_10">
     <g id="line2d_53">
      <g>
       <use xlink:href="#mc1d0f366f6" x="57.6" y="244.62837" style="stroke: #000000; stroke-width: 0.6"/>
      </g>
     </g>
    </g>
    <g id="ytick_11">
     <g id="line2d_54">
      <g>
       <use xlink:href="#mc1d0f366f6" x="57.6" y="238.634365" style="stroke: #000000; stroke-width: 0.6"/>
      </g>
     </g>
    </g>
    <g id="ytick_12">
     <g id="line2d_55">
      <g>
       <use xlink:href="#mc1d0f366f6" x="57.6" y="233.566506" style="stroke: #000000; stroke-width: 0.6"/>
      </g>
     </g>
    </g>
    <g id="ytick_13">
     <g id="line2d_56">
      <g>
       <use xlink:href="#mc1d0f366f6" x="57.6" y="229.176526" style="stroke: #000000; stroke-width: 0.6"/>
      </g>
     </g>
    </g>
    <g id="ytick_14">
     <g id="line2d_57">
      <g>
       <use xlink:href="#mc1d0f366f6" x="57.6" y="225.30429" style="stroke: #000000; stroke-width: 0.6"/>
      </g>
     </g>
    </g>
    <g id="ytick_15">
     <g id="line2d_58">
      <g>
       <use xlink:href="#mc1d0f366f6" x="57.6" y="199.052545" style="stroke: #000000; stroke-width: 0.6"/>
      </g>
     </g>
    </g>
    <g id="ytick_16">
     <g id="line2d_59">
      <g>
       <use xlink:href="#mc1d0f366f6" x="57.6" y="185.72247" style="stroke: #000000; stroke-width: 0.6"/>
      </g>
     </g>
    </g>
    <g id="ytick_17">
     <g id="line2d_60">
      <g>
       <use xlink:href="#mc1d0f366f6" x="57.6" y="176.264632" style="stroke: #000000; stroke-width: 0.6"/>
      </g>
     </g>
    </g>
    <g id="ytick_18">
     <g id="line2d_61">
      <g>
       <use xlink:href="#mc1d0f366f6" x="57.6" y="168.928563" style="stroke: #000000; stroke-width: 0.6"/>
      </g>
     </g>
    </g>
    <g id="ytick_19">
     <g id="line2d_62">
      <g>
       <use xlink:href="#mc1d0f366f6" x="57.6" y="162.934558" style="stroke: #000000; stroke-width: 0.6"/>
      </g>
     </g>
    </g>
    <g id="ytick_20">
     <g id="line2d_63">
      <g>
       <use xlink:href="#mc1d0f366f6" x="57.6" y="157.866699" style="stroke: #000000; stroke-width: 0.6"/>
      </g>
     </g>
    </g>
    <g id="ytick_21">
     <g id="line2d_64">
      <g>
       <use xlink:href="#mc1d0f366f6" x="57.6" y="153.47672" style="stroke: #000000; stroke-width: 0.6"/>
      </g>
     </g>
    </g>
    <g id="ytick_22">
     <g id="line2d_65">
      <g>
       <use xlink:href="#mc1d0f366f6" x="57.6" y="149.604483" style="stroke: #000000; stroke-width: 0.6"/>
      </g>
     </g>
    </g>
    <g id="ytick_23">
     <g id="line2d_66">
      <g>
       <use xlink:href="#mc1d0f366f6" x="57.6" y="123.352738" style="stroke: #000000; stroke-width: 0.6"/>
      </g>
     </g>
    </g>
    <g id="ytick_24">
     <g id="line2d_67">
      <g>
       <use xlink:href="#mc1d0f366f6" x="57.6" y="110.022664" style="stroke: #000000; stroke-width: 0.6"/>
      </g>
     </g>
    </g>
    <g id="ytick_25">
     <g id="line2d_68">
      <g>
       <use xlink:href="#mc1d0f366f6" x="57.6" y="100.564825" style="stroke: #000000; stroke-width: 0.6"/>
      </g>
     </g>
    </g>
    <g id="ytick_26">
     <g id="line2d_69">
      <g>
       <use xlink:href="#mc1d0f366f6" x="57.6" y="93.228756" style="stroke: #000000; stroke-width: 0.6"/>
      </g>
     </g>
    </g>
    <g id="ytick_27">
     <g id="line2d_70">
      <g>
       <use xlink:href="#mc1d0f366f6" x="57.6" y="87.234751" style="stroke: #000000; stroke-width: 0.6"/>
      </g>
     </g>
    </g>
    <g id="ytick_28">
     <g id="line2d_71">
      <g>
       <use xlink:href="#mc1d0f366f6" x="57.6" y="82.166892" style="stroke: #000000; stroke-width: 0.6"/>
      </g>
     </g>
    </g>
    <g id="ytick_29">
     <g id="line2d_72">
      <g>
       <use xlink:href="#mc1d0f366f6" x="57.6" y="77.776913" style="stroke: #000000; stroke-width: 0.6"/>
      </g>
     </g>
    </g>
    <g id="ytick_30">
     <g id="line2d_73">
      <g>
       <use xlink:href="#mc1d0f366f6" x="57.6" y="73.904677" style="stroke: #000000; stroke-width: 0.6"/>
      </g>
     </g>
    </g>
    <g id="ytick_31">
     <g id="line2d_74">
      <g>
       <use xlink:href="#mc1d0f366f6" x="57.6" y="47.652931" style="stroke: #000000; stroke-width: 0.6"/>
      </g>
     </g>
    </g>
    <g id="text_11">
     <!-- loss -->
     <g transform="translate(21.020313 184.185812) rotate(-90) scale(0.1 -0.1)">
      <defs>
       <path id="DejaVuSans-6c" d="M 603 4863 
L 1178 4863 
L 1178 0 
L 603 0 
L 603 4863 
z
" transform="scale(0.015625)"/>
       <path id="DejaVuSans-6f" d="M 1959 3097 
Q 1497 3097 1228 2736 
Q 959 2375 959 1747 
Q 959 1119 1226 758 
Q 1494 397 1959 397 
Q 2419 397 2687 759 
Q 2956 1122 2956 1747 
Q 2956 2369 2687 2733 
Q 2419 3097 1959 3097 
z
M 1959 3584 
Q 2709 3584 3137 3096 
Q 3566 2609 3566 1747 
Q 3566 888 3137 398 
Q 2709 -91 1959 -91 
Q 1206 -91 779 398 
Q 353 888 353 1747 
Q 353 2609 779 3096 
Q 1206 3584 1959 3584 
z
" transform="scale(0.015625)"/>
       <path id="DejaVuSans-73" d="M 2834 3397 
L 2834 2853 
Q 2591 2978 2328 3040 
Q 2066 3103 1784 3103 
Q 1356 3103 1142 2972 
Q 928 2841 928 2578 
Q 928 2378 1081 2264 
Q 1234 2150 1697 2047 
L 1894 2003 
Q 2506 1872 2764 1633 
Q 3022 1394 3022 966 
Q 3022 478 2636 193 
Q 2250 -91 1575 -91 
Q 1294 -91 989 -36 
Q 684 19 347 128 
L 347 722 
Q 666 556 975 473 
Q 1284 391 1588 391 
Q 1994 391 2212 530 
Q 2431 669 2431 922 
Q 2431 1156 2273 1281 
Q 2116 1406 1581 1522 
L 1381 1569 
Q 847 1681 609 1914 
Q 372 2147 372 2553 
Q 372 3047 722 3315 
Q 1072 3584 1716 3584 
Q 2034 3584 2315 3537 
Q 2597 3491 2834 3397 
z
" transform="scale(0.015625)"/>
      </defs>
      <use xlink:href="#DejaVuSans-6c"/>
      <use xlink:href="#DejaVuSans-6f" x="27.783203"/>
      <use xlink:href="#DejaVuSans-73" x="88.964844"/>
      <use xlink:href="#DejaVuSans-73" x="141.064453"/>
     </g>
    </g>
   </g>
   <g id="line2d_75">
    <path d="M 73.832727 53.568 
L 207.211371 78.257025 
L 229.111848 93.962922 
L 241.984466 105.925674 
L 251.134974 115.97658 
L 258.239908 124.879909 
L 268.962306 140.194283 
L 273.21996 147.307193 
L 280.33731 159.551756 
L 283.378097 165.223035 
L 286.154479 170.801939 
L 291.073915 181.732398 
L 293.275977 184.781374 
L 295.336013 189.520582 
L 297.271237 193.499923 
L 299.095914 197.876083 
L 302.459587 206.574551 
L 304.017326 209.586124 
L 305.502638 211.714126 
L 306.92196 214.671964 
L 308.280907 218.201344 
L 309.584407 219.177952 
L 310.836806 220.392681 
L 312.041962 219.847733 
L 313.203309 223.027272 
L 314.323921 224.050053 
L 315.406558 215.590972 
L 316.453712 219.809571 
L 317.467632 222.14608 
L 317.731633 224.812531 
L 318.706402 224.599096 
L 319.652312 226.085471 
L 320.571021 230.290012 
L 322.3328 237.345742 
L 323.178551 235.37137 
L 324.002491 238.34288 
L 324.805718 235.394323 
L 325.589246 237.869766 
L 326.35402 232.137404 
L 327.100915 234.81036 
L 327.83075 230.817013 
L 328.544285 233.01164 
L 329.242233 236.571344 
L 329.925261 238.919238 
L 330.593993 241.802113 
L 331.249014 239.750666 
L 331.890877 222.626207 
L 332.5201 225.003638 
L 333.742548 233.309962 
L 334.33667 236.074459 
L 334.919945 238.190803 
L 335.492764 229.645892 
L 336.055493 229.422606 
L 336.608484 230.327746 
L 337.152066 230.521714 
L 337.686555 225.35274 
L 338.212249 228.262849 
L 338.729435 221.902435 
L 339.238382 221.227466 
L 339.73935 225.636754 
L 339.871109 228.79791 
L 340.846111 236.587611 
L 341.322677 235.915278 
L 341.792239 239.720191 
L 342.255 240.128068 
L 342.711155 240.799477 
L 343.160889 239.505896 
L 343.604381 238.596751 
L 344.041801 230.981586 
L 344.473313 234.980083 
L 344.899076 226.173822 
L 345.319239 230.059005 
L 345.73395 232.336799 
L 346.143346 233.17195 
L 346.547563 232.726303 
L 346.94673 236.639178 
L 347.340972 229.611194 
L 347.730409 226.134506 
L 348.115156 228.764086 
L 348.495325 233.25224 
L 348.871024 227.555637 
L 349.242357 230.153793 
L 349.972322 224.542057 
L 350.331144 221.304202 
L 350.685982 225.53796 
L 351.036922 227.849829 
L 351.384049 227.101651 
L 352.067191 231.084847 
L 352.403361 225.917893 
L 352.736032 225.788608 
L 353.152162 230.849162 
L 353.798897 237.184572 
L 354.117421 237.070327 
L 354.745098 243.723481 
L 355.054373 245.360661 
L 355.360682 248.598485 
L 355.96463 231.557945 
L 356.262377 232.83438 
L 356.557374 235.049418 
L 356.849673 239.144384 
L 357.426368 229.466594 
L 357.710859 233.934192 
L 357.992839 234.628339 
L 358.272353 232.882436 
L 358.549442 231.979269 
L 358.824149 236.241778 
L 359.096514 237.493263 
L 359.366578 241.716996 
L 359.634377 243.595411 
L 359.899951 244.291686 
L 360.163336 240.731918 
L 360.424567 242.167305 
L 360.68368 240.872795 
L 360.940708 240.733048 
L 361.195686 232.696526 
L 361.699616 238.491724 
L 362.014451 239.726789 
L 362.261035 241.498302 
L 362.50573 245.686666 
L 362.748565 246.151766 
L 362.989569 245.859276 
L 363.228769 248.285759 
L 363.701862 250.229304 
L 363.935807 249.660534 
L 364.168052 248.45747 
L 364.398621 248.967415 
L 364.627538 250.786 
L 364.854826 240.340152 
L 365.080509 236.800217 
L 365.748149 246.574616 
L 365.967632 237.380847 
L 366.185616 240.448351 
L 366.617174 235.277144 
L 367.253775 246.792355 
L 367.671237 249.686743 
L 368.287377 253.28443 
L 368.891861 245.351479 
L 369.090841 246.600721 
L 369.143487 243.158773 
L 369.537122 251.372898 
L 369.732135 250.888909 
L 369.925966 248.935898 
L 370.118628 244.178963 
L 370.500501 249.435923 
L 370.877864 236.966129 
L 371.064888 239.937129 
L 371.250823 235.177513 
L 371.435682 234.562295 
L 372.164605 241.8418 
L 372.344267 228.407861 
L 372.700589 234.979185 
L 373.05298 236.969931 
L 373.401527 243.999104 
L 373.574386 246.934205 
L 373.746314 247.880322 
L 373.917321 251.153626 
L 374.256616 243.367543 
L 374.424921 245.287484 
L 375.133056 261.368072 
L 375.29682 258.502797 
L 375.459748 262.688116 
L 375.783133 247.51041 
L 375.943606 248.431016 
L 376.262155 256.702484 
L 376.420246 254.136835 
L 376.577559 246.909245 
L 377.044903 259.410139 
L 377.199178 259.89155 
L 377.352711 251.986948 
L 377.657582 250.598266 
L 377.808934 255.076116 
L 377.959572 242.220053 
L 378.555121 256.38358 
L 378.70229 257.54167 
L 378.994609 249.932598 
L 379.428134 255.470726 
L 379.855856 241.749513 
L 379.893453 242.245342 
L 380.034598 244.470549 
L 380.593025 260.67416 
L 380.731119 263.218522 
L 380.86862 260.26303 
L 381.005532 260.428279 
L 381.277607 267.051247 
L 381.412781 267.285226 
L 381.547385 267.787106 
L 381.814905 272.880158 
L 381.947829 270.489704 
L 382.080203 274.621762 
L 382.212031 261.29017 
L 382.343317 264.255775 
L 382.474065 264.101195 
L 382.733968 264.882844 
L 383.119902 256.96193 
L 383.374625 263.355303 
L 383.501229 256.122823 
L 383.627333 260.334172 
L 383.752942 259.937386 
L 384.126832 250.478641 
L 384.159727 248.042619 
L 384.283264 249.884955 
L 384.528915 255.34372 
L 384.772691 260.832711 
L 384.893885 259.794619 
L 385.014621 260.886401 
L 385.134903 251.278927 
L 385.254734 253.914057 
L 385.374117 252.314516 
L 385.729612 266.500578 
L 385.847237 263.381311 
L 386.313454 273.474134 
L 386.428953 276.071507 
L 386.544036 275.787682 
L 386.658706 256.175353 
L 386.772965 258.816284 
L 386.886818 257.642047 
L 387.000267 257.829066 
L 387.338215 265.941965 
L 387.450075 259.170078 
L 387.561544 260.12656 
L 387.672626 254.636377 
L 387.893639 258.444681 
L 388.032712 265.970406 
L 388.468315 279.980689 
L 388.576294 272.605058 
L 388.791164 277.587521 
L 388.898059 262.868438 
L 389.3221 277.337945 
L 389.427237 278.584186 
L 389.740587 270.226568 
L 389.844358 269.362586 
L 390.153664 280.728439 
L 390.256104 281.236814 
L 390.460004 276.144614 
L 390.763435 284.608057 
L 390.863941 277.049251 
L 391.064011 285.274663 
L 391.28915 273.605578 
L 391.388019 275.315904 
L 391.780464 290.473091 
L 391.877826 289.684115 
L 392.071666 280.092125 
L 392.168147 278.047976 
L 392.264337 280.276142 
L 392.360239 275.838601 
L 392.455853 278.28233 
L 392.551182 274.821432 
L 392.646228 264.196722 
L 392.929681 276.911088 
L 393.023609 274.273574 
L 393.21064 277.140783 
L 393.303747 260.108482 
L 393.489151 267.998512 
L 393.581451 267.30171 
L 393.673486 268.910117 
L 393.765256 268.788089 
L 393.856763 256.669794 
L 393.948008 257.214998 
L 394.038994 257.826813 
L 394.692397 284.373198 
L 394.869937 289.98818 
L 394.958339 264.294859 
L 395.046497 268.524409 
L 395.396715 284.235482 
L 395.483674 282.140636 
L 395.570396 282.315998 
L 395.656883 281.313386 
L 395.743137 278.657996 
L 395.829159 283.188782 
L 396.000511 277.098351 
L 396.085843 268.636088 
L 396.255827 275.950037 
L 396.340482 274.228705 
L 396.424912 267.070191 
L 396.50912 268.360246 
L 396.676873 265.049777 
L 396.84375 272.169396 
L 396.926863 268.08696 
L 397.009761 272.831428 
L 397.092443 269.066814 
L 397.11437 272.097984 
L 397.442753 285.066729 
L 397.605688 280.317609 
L 397.686845 281.395017 
L 397.929085 290.63438 
L 398.009426 291.614711 
L 398.089565 277.46324 
L 398.169504 281.166509 
L 398.328783 284.815836 
L 398.487273 287.456082 
L 398.487273 287.456082 
" clip-path="url(#pae9e6d5e74)" style="fill: none; stroke: #1f77b4; stroke-opacity: 0.9; stroke-linecap: square"/>
   </g>
   <g id="line2d_76">
    <path d="M 73.832727 128.059142 
L 207.211371 147.587438 
L 229.111848 161.150721 
L 241.984466 169.876324 
L 251.134974 178.497856 
L 258.239908 184.72168 
L 264.048792 191.052679 
L 276.976403 204.652285 
L 280.33731 208.796432 
L 283.378097 213.323485 
L 286.154479 217.916141 
L 288.708781 220.478265 
L 291.073915 224.357393 
L 293.275977 226.87879 
L 295.336013 227.350889 
L 297.271237 229.002648 
L 299.095914 230.201645 
L 300.821993 232.304479 
L 302.459587 234.482772 
L 305.502638 236.38141 
L 306.92196 238.063613 
L 308.280907 240.107156 
L 309.584407 242.47495 
L 310.836806 241.543702 
L 312.041962 243.401831 
L 313.203309 244.669268 
L 314.323921 244.085842 
L 315.406558 245.77703 
L 316.453712 248.366211 
L 317.467632 244.813396 
L 317.731633 240.852021 
L 318.706402 238.938323 
L 319.652312 239.051354 
L 320.571021 239.581374 
L 321.464052 242.71306 
L 322.3328 242.809844 
L 323.178551 244.955379 
L 324.002491 247.579422 
L 324.805718 249.658183 
L 325.589246 251.055434 
L 326.35402 250.657816 
L 327.100915 243.190569 
L 327.83075 246.36566 
L 329.242233 247.63706 
L 329.925261 246.846097 
L 330.593993 245.021292 
L 331.249014 248.517267 
L 331.890877 247.049077 
L 332.5201 247.669254 
L 333.13717 250.605936 
L 333.742548 246.711915 
L 334.33667 249.537187 
L 334.919945 250.10651 
L 335.492764 252.371765 
L 336.055493 249.560683 
L 336.608484 250.257803 
L 337.152066 252.704647 
L 337.686555 248.703321 
L 338.212249 250.235859 
L 338.729435 253.521048 
L 339.238382 254.972934 
L 339.73935 250.085385 
L 339.871109 253.229848 
L 340.846111 258.955128 
L 341.322677 260.742286 
L 341.792239 260.693633 
L 342.255 259.719177 
L 342.711155 260.171612 
L 343.160889 250.578825 
L 344.041801 256.173996 
L 344.473313 252.069058 
L 344.899076 253.837551 
L 345.319239 256.521942 
L 345.73395 258.228318 
L 346.143346 257.859091 
L 346.547563 253.336258 
L 346.94673 254.37672 
L 347.340972 256.507615 
L 347.730409 254.370454 
L 348.115156 254.131014 
L 348.495325 255.921051 
L 348.871024 253.881302 
L 349.242357 254.767895 
L 350.331144 262.180795 
L 350.685982 263.769382 
L 351.036922 257.026255 
L 351.727445 262.144195 
L 352.067191 263.831471 
L 352.403361 266.186061 
L 352.736032 265.163679 
L 352.823818 266.988615 
L 353.477166 269.174371 
L 353.798897 262.111946 
L 354.117421 260.284962 
L 354.432801 254.378441 
L 354.745098 254.562 
L 355.054373 258.078248 
L 355.664083 262.813116 
L 355.96463 259.093171 
L 356.262377 250.120614 
L 356.557374 251.023829 
L 356.849673 254.368558 
L 357.139321 256.005865 
L 357.426368 255.675973 
L 357.710859 258.876976 
L 357.992839 257.167075 
L 358.272353 251.997193 
L 358.549442 250.621863 
L 358.824149 253.193131 
L 359.096514 246.356588 
L 359.366578 249.674312 
L 359.634377 250.420875 
L 359.899951 254.440955 
L 360.163336 256.058916 
L 360.424567 256.923614 
L 360.68368 260.308872 
L 360.940708 260.622463 
L 361.195686 261.619187 
L 361.448644 253.893066 
L 361.699616 255.303556 
L 361.948632 258.016472 
L 362.014451 261.305512 
L 362.261035 261.442209 
L 362.748565 262.682931 
L 362.989569 262.003436 
L 363.228769 264.921329 
L 363.466191 260.502031 
L 363.701862 262.353527 
L 363.935807 256.119277 
L 364.168052 256.947378 
L 364.398621 258.652469 
L 364.627538 261.473368 
L 364.854826 258.259934 
L 365.527149 265.700777 
L 365.748149 260.911902 
L 365.967632 263.423917 
L 366.185616 262.741901 
L 366.402124 260.163294 
L 366.830787 266.076231 
L 367.042981 267.113276 
L 367.253775 264.688199 
L 368.083315 273.28127 
L 368.287377 273.891351 
L 368.490145 264.175211 
L 368.691635 267.293445 
L 369.090841 268.721402 
L 369.143487 266.163164 
L 369.537122 267.092969 
L 369.925966 270.724242 
L 370.118628 270.354316 
L 370.310135 263.6894 
L 370.500501 266.340308 
L 370.68974 267.206052 
L 370.877864 269.73851 
L 371.064888 261.903847 
L 371.435682 266.982504 
L 371.619478 267.226168 
L 371.983928 259.278398 
L 372.164605 258.512589 
L 372.344267 258.791158 
L 372.700589 265.351595 
L 373.05298 269.375559 
L 373.227729 265.368257 
L 373.401527 264.35894 
L 373.574386 265.238582 
L 373.746314 257.546848 
L 373.917321 260.366459 
L 374.087419 258.344588 
L 374.256616 259.678272 
L 374.424921 259.938889 
L 374.592345 261.035085 
L 374.758896 263.609071 
L 374.924583 262.205418 
L 375.133056 267.529498 
L 375.29682 267.081077 
L 375.459748 265.549573 
L 375.783133 270.10205 
L 375.943606 268.745724 
L 376.103277 271.831957 
L 376.262155 264.329305 
L 376.577559 269.652961 
L 376.88988 273.148076 
L 377.044903 272.421974 
L 377.199178 272.635878 
L 377.352711 275.163713 
L 377.50551 269.489133 
L 377.808934 274.470163 
L 377.959572 270.769792 
L 378.109503 271.548861 
L 378.258734 271.448547 
L 378.70229 275.991124 
L 378.848784 267.798276 
L 378.994609 268.667127 
L 379.139772 271.266011 
L 379.284278 271.079598 
L 379.428134 272.761822 
L 379.571345 269.56928 
L 380.034598 275.236157 
L 380.175122 272.434796 
L 380.315031 275.382238 
L 380.731119 272.513216 
L 380.86862 272.431812 
L 381.141859 274.794524 
L 381.277607 272.905289 
L 381.681425 280.080389 
L 381.814905 275.543422 
L 381.947829 277.748657 
L 382.080203 275.13543 
L 382.212031 276.35837 
L 382.343317 278.758614 
L 382.474065 278.34736 
L 382.604281 271.244643 
L 382.733968 271.180834 
L 382.991775 275.637491 
L 383.119902 269.872595 
L 383.247517 272.602189 
L 383.374625 269.499561 
L 383.501229 270.160308 
L 383.627333 272.775905 
L 383.752942 268.617245 
L 383.878059 271.597651 
L 384.002688 269.054254 
L 384.126832 270.329103 
L 384.159727 272.713124 
L 384.283264 272.604915 
L 384.528915 270.910048 
L 384.651035 269.092875 
L 384.772691 271.344632 
L 384.893885 267.40072 
L 385.014621 267.7828 
L 385.374117 275.558948 
L 385.611552 266.262982 
L 385.96443 272.828177 
L 386.197536 276.134687 
L 386.313454 274.30732 
L 386.544036 276.197663 
L 386.886818 281.851363 
L 387.000267 282.715871 
L 387.113314 279.272329 
L 387.338215 282.092797 
L 387.561544 278.781304 
L 387.672626 280.84677 
L 387.783324 275.738617 
L 387.893639 278.029307 
L 387.922877 277.421235 
L 388.032712 271.377038 
L 388.251256 276.471126 
L 388.35997 274.104432 
L 388.576294 277.478617 
L 388.898059 280.661201 
L 389.110783 275.989075 
L 389.532029 284.32697 
L 389.636478 277.246939 
L 390.050894 284.718668 
L 390.153664 283.152443 
L 390.358216 279.489614 
L 390.561468 283.537609 
L 390.662611 278.675963 
L 390.763435 280.591864 
L 390.863941 273.545157 
L 391.064011 276.982624 
L 391.163578 279.962511 
L 391.262836 278.645793 
L 391.28915 279.236497 
L 391.486583 284.602308 
L 391.682803 280.567763 
L 391.780464 280.74219 
L 391.877826 281.30609 
L 391.974893 279.395039 
L 392.071666 280.586736 
L 392.168147 275.082463 
L 392.455853 282.405406 
L 392.551182 281.863249 
L 392.646228 280.579859 
L 392.740992 277.129019 
L 392.835475 280.035587 
L 392.929681 279.938992 
L 393.023609 279.454293 
L 393.117261 280.18959 
L 393.21064 275.055907 
L 393.396584 280.590548 
L 393.489151 280.080199 
L 393.581451 282.287856 
L 393.673486 281.195242 
L 393.765256 283.125284 
L 393.856763 278.051645 
L 394.129722 286.503673 
L 394.220192 286.50554 
L 394.310408 285.217502 
L 394.334328 285.494496 
L 394.424222 280.222458 
L 394.692397 286.209061 
L 394.78129 287.148194 
L 394.958339 281.843076 
L 395.046497 280.268328 
L 395.222086 283.703313 
L 395.30952 275.745948 
L 395.396715 278.584911 
L 395.483674 276.876879 
L 395.829159 283.626555 
L 395.91495 283.351482 
L 396.085843 286.085381 
L 396.340482 292.241495 
L 396.424912 286.396588 
L 396.50912 287.84317 
L 396.593107 286.256258 
L 396.760421 289.814946 
L 396.84375 288.555481 
L 396.926863 289.028225 
L 397.092443 291.900054 
L 397.196783 290.541959 
L 397.278983 290.6939 
L 397.524324 284.408298 
L 397.605688 286.698719 
L 397.686845 283.846311 
L 397.767796 284.054642 
L 398.009426 290.191796 
L 398.249243 284.084046 
L 398.487273 291.233086 
L 398.487273 291.233086 
" clip-path="url(#pae9e6d5e74)" style="fill: none; stroke: #ff7f0e; stroke-opacity: 0.9; stroke-linecap: square"/>
   </g>
   <g id="line2d_77">
    <path d="M 73.832727 141.926858 
L 207.211371 160.515635 
L 229.111848 173.058142 
L 251.134974 189.89576 
L 258.239908 196.233379 
L 264.048792 202.319134 
L 268.962306 208.211109 
L 273.21996 209.300926 
L 276.976403 213.485944 
L 280.33731 213.936147 
L 283.378097 218.52066 
L 286.154479 220.819058 
L 288.708781 225.08057 
L 293.275977 229.007003 
L 295.336013 231.298268 
L 297.271237 234.295879 
L 299.095914 235.858341 
L 300.821993 235.474363 
L 302.459587 235.564459 
L 304.017326 236.984511 
L 306.92196 242.881852 
L 308.280907 246.099654 
L 309.584407 246.601737 
L 310.836806 241.30177 
L 312.041962 242.284969 
L 313.203309 242.035213 
L 314.323921 241.104064 
L 315.406558 243.802754 
L 316.453712 245.642075 
L 317.467632 248.275757 
L 317.731633 244.445526 
L 318.706402 247.967698 
L 319.652312 250.334097 
L 320.571021 252.979057 
L 321.464052 251.100858 
L 322.3328 253.343657 
L 324.002491 258.354919 
L 324.805718 248.077377 
L 326.35402 254.868248 
L 327.100915 252.902776 
L 327.83075 254.816565 
L 329.242233 259.810408 
L 329.925261 260.506295 
L 330.593993 261.388731 
L 331.249014 262.890958 
L 331.890877 251.44844 
L 332.5201 246.098521 
L 333.13717 246.992974 
L 333.742548 244.415879 
L 334.33667 246.386507 
L 334.919945 241.026734 
L 335.492764 237.749945 
L 336.055493 237.265471 
L 336.608484 238.498127 
L 337.686555 245.944166 
L 338.212249 246.563316 
L 338.729435 239.49797 
L 339.73935 246.071913 
L 339.871109 249.312449 
L 340.362329 249.987218 
L 341.322677 253.257815 
L 341.792239 256.690326 
L 342.255 257.289989 
L 342.711155 259.581803 
L 343.160889 257.764114 
L 343.604381 256.549561 
L 344.041801 246.533167 
L 344.473313 250.424207 
L 344.899076 247.979439 
L 345.319239 251.674264 
L 345.73395 253.955859 
L 346.143346 254.859319 
L 346.94673 258.405845 
L 347.340972 257.833344 
L 347.730409 259.788093 
L 348.115156 262.717712 
L 348.495325 258.439006 
L 348.871024 260.244383 
L 349.242357 263.218361 
L 349.609424 262.502396 
L 349.972322 261.222342 
L 350.331144 264.049095 
L 350.685982 249.482222 
L 351.036922 251.018974 
L 351.384049 250.117458 
L 351.727445 250.331717 
L 352.067191 246.65459 
L 352.403361 249.697131 
L 352.736032 249.961591 
L 352.823818 248.522301 
L 353.152162 252.435395 
L 353.477166 244.731458 
L 353.798897 242.68559 
L 354.117421 246.905568 
L 354.432801 246.722022 
L 355.054373 253.607245 
L 355.360682 255.465593 
L 355.96463 261.584798 
L 356.262377 255.35655 
L 357.710859 268.939903 
L 357.992839 266.840102 
L 358.272353 268.797186 
L 358.549442 267.962288 
L 358.824149 269.772306 
L 359.096514 264.161542 
L 359.366578 263.935304 
L 359.634377 264.383732 
L 359.899951 263.891927 
L 360.163336 266.081698 
L 360.424567 265.767198 
L 360.68368 263.972177 
L 360.940708 263.211629 
L 361.195686 258.143459 
L 361.448644 257.160784 
L 361.948632 263.792303 
L 362.014451 266.426233 
L 362.50573 271.303539 
L 362.748565 270.629448 
L 362.989569 272.790625 
L 363.228769 273.339279 
L 363.701862 270.000394 
L 363.935807 271.704792 
L 364.168052 267.435403 
L 364.398621 265.592874 
L 364.627538 267.89048 
L 364.854826 266.752584 
L 365.080509 267.672264 
L 365.30461 265.374044 
L 365.527149 261.520741 
L 365.748149 260.551106 
L 366.185616 266.601011 
L 366.402124 265.411221 
L 366.830787 270.220203 
L 367.253775 274.538171 
L 367.463188 273.972679 
L 367.671237 272.051058 
L 367.87794 271.756517 
L 368.287377 272.56468 
L 368.490145 273.922172 
L 369.090841 279.079201 
L 369.143487 266.13117 
L 369.340911 269.210198 
L 369.537122 268.939756 
L 369.732135 262.690543 
L 370.118628 268.365515 
L 370.310135 262.377072 
L 370.500501 260.746451 
L 370.68974 253.439664 
L 370.877864 251.909042 
L 371.064888 248.419144 
L 371.619478 260.026275 
L 371.802222 257.723318 
L 372.164605 259.90722 
L 372.344267 263.671007 
L 372.522925 264.689897 
L 372.87727 270.750794 
L 373.227729 256.473346 
L 373.917321 268.629905 
L 374.087419 267.841944 
L 374.424921 271.697476 
L 374.592345 273.730971 
L 374.924583 271.059658 
L 374.968449 272.875531 
L 375.621849 279.089051 
L 375.783133 278.609296 
L 375.943606 277.48048 
L 376.103277 279.852375 
L 376.262155 277.926649 
L 376.734101 282.957856 
L 376.88988 275.636408 
L 377.50551 271.551845 
L 377.657582 267.4756 
L 377.808934 268.261657 
L 377.959572 271.198324 
L 378.407271 266.032837 
L 378.555121 266.507484 
L 378.70229 268.189288 
L 378.848784 266.682906 
L 378.994609 270.075 
L 379.139772 268.409901 
L 379.284278 269.886181 
L 379.428134 270.021645 
L 379.571345 271.026136 
L 379.713917 274.146979 
L 379.855856 271.126575 
L 379.893453 274.087797 
L 380.034598 274.428095 
L 380.175122 274.454557 
L 380.315031 275.615463 
L 380.45433 277.974355 
L 380.593025 276.162872 
L 380.731119 276.460655 
L 381.005532 280.582632 
L 381.141859 280.342207 
L 381.547385 285.307785 
L 381.681425 286.256051 
L 381.814905 286.067677 
L 381.947829 284.22474 
L 382.080203 275.851174 
L 382.212031 277.723105 
L 382.343317 272.879482 
L 382.474065 274.933502 
L 382.733968 269.604428 
L 382.991775 274.820037 
L 383.247517 272.933553 
L 383.374625 269.957735 
L 383.627333 274.331245 
L 383.752942 273.940189 
L 384.002688 277.518116 
L 384.159727 282.732244 
L 384.283264 278.367634 
L 384.528915 282.485389 
L 384.651035 277.647225 
L 384.772691 278.521686 
L 385.254734 287.566128 
L 385.493055 282.44152 
L 385.729612 285.527217 
L 385.847237 286.845744 
L 385.96443 286.57606 
L 386.081196 287.01619 
L 386.428953 291.924629 
L 386.544036 291.148124 
L 386.658706 287.041421 
L 387.000267 291.955118 
L 387.113314 291.726879 
L 387.338215 293.78572 
L 387.450075 289.896214 
L 387.561544 276.305503 
L 387.672626 279.245527 
L 387.783324 272.915129 
L 388.251256 285.843032 
L 388.468315 283.278328 
L 388.898059 290.022243 
L 389.004598 286.180532 
L 389.110783 289.001108 
L 389.216616 285.900053 
L 389.3221 286.100056 
L 389.427237 285.522273 
L 389.532029 287.479268 
L 389.636478 279.233351 
L 390.050894 288.191398 
L 390.153664 287.296513 
L 390.256104 287.418742 
L 390.763435 293.330597 
L 390.964133 286.885481 
L 391.262836 293.702737 
L 391.28915 288.169006 
L 391.388019 289.879867 
L 391.486583 291.847127 
L 391.584844 282.723105 
L 391.682803 283.461086 
L 391.877826 285.328168 
L 391.974893 280.114975 
L 392.071666 282.475459 
L 392.264337 276.520071 
L 392.646228 283.636196 
L 392.740992 282.194734 
L 392.929681 284.852465 
L 393.023609 284.890296 
L 393.117261 286.925176 
L 393.21064 284.065032 
L 393.396584 289.428845 
L 393.489151 285.509158 
L 393.765256 288.776196 
L 393.856763 283.901687 
L 394.129722 290.906404 
L 394.220192 291.51735 
L 394.424222 284.986521 
L 394.513864 286.395937 
L 394.603255 288.316419 
L 394.692397 287.568739 
L 394.78129 288.097919 
L 394.869937 286.849742 
L 394.958339 288.058578 
L 395.046497 287.717116 
L 395.134412 290.601829 
L 395.222086 290.144978 
L 395.30952 280.637777 
L 395.396715 281.496844 
L 395.483674 280.040578 
L 395.829159 291.012789 
L 396.000511 288.7741 
L 396.170948 292.365796 
L 396.255827 292.698412 
L 396.340482 294.950644 
L 396.424912 289.709616 
L 396.50912 291.455344 
L 396.593107 289.632685 
L 396.760421 294.196009 
L 396.926863 289.861762 
L 397.196783 295.488 
L 397.278983 295.190231 
L 397.442753 291.520319 
L 397.524324 294.289981 
L 397.686845 289.498486 
L 397.767796 290.244113 
L 397.848542 292.677964 
L 398.009426 288.983809 
L 398.089565 290.496721 
L 398.169504 289.48249 
L 398.249243 291.020375 
L 398.328783 284.589148 
L 398.408126 285.502061 
L 398.487273 287.935095 
L 398.487273 287.935095 
" clip-path="url(#pae9e6d5e74)" style="fill: none; stroke: #2ca02c; stroke-opacity: 0.9; stroke-linecap: square"/>
   </g>
   <g id="patch_3">
    <path d="M 57.6 307.584 
L 57.6 41.472 
" style="fill: none; stroke: #000000; stroke-width: 0.8; stroke-linejoin: miter; stroke-linecap: square"/>
   </g>
   <g id="patch_4">
    <path d="M 414.72 307.584 
L 414.72 41.472 
" style="fill: none; stroke: #000000; stroke-width: 0.8; stroke-linejoin: miter; stroke-linecap: square"/>
   </g>
   <g id="patch_5">
    <path d="M 57.6 307.584 
L 414.72 307.584 
" style="fill: none; stroke: #000000; stroke-width: 0.8; stroke-linejoin: miter; stroke-linecap: square"/>
   </g>
   <g id="patch_6">
    <path d="M 57.6 41.472 
L 414.72 41.472 
" style="fill: none; stroke: #000000; stroke-width: 0.8; stroke-linejoin: miter; stroke-linecap: square"/>
   </g>
   <g id="text_12">
    <!-- 2025-02-19-00:10:41 -->
    <g transform="translate(172.178438 35.472) scale(0.12 -0.12)">
     <defs>
      <path id="DejaVuSans-35" d="M 691 4666 
L 3169 4666 
L 3169 4134 
L 1269 4134 
L 1269 2991 
Q 1406 3038 1543 3061 
Q 1681 3084 1819 3084 
Q 2600 3084 3056 2656 
Q 3513 2228 3513 1497 
Q 3513 744 3044 326 
Q 2575 -91 1722 -91 
Q 1428 -91 1123 -41 
Q 819 9 494 109 
L 494 744 
Q 775 591 1075 516 
Q 1375 441 1709 441 
Q 2250 441 2565 725 
Q 2881 1009 2881 1497 
Q 2881 1984 2565 2268 
Q 2250 2553 1709 2553 
Q 1456 2553 1204 2497 
Q 953 2441 691 2322 
L 691 4666 
z
" transform="scale(0.015625)"/>
      <path id="DejaVuSans-2d" d="M 313 2009 
L 1997 2009 
L 1997 1497 
L 313 1497 
L 313 2009 
z
" transform="scale(0.015625)"/>
      <path id="DejaVuSans-39" d="M 703 97 
L 703 672 
Q 941 559 1184 500 
Q 1428 441 1663 441 
Q 2288 441 2617 861 
Q 2947 1281 2994 2138 
Q 2813 1869 2534 1725 
Q 2256 1581 1919 1581 
Q 1219 1581 811 2004 
Q 403 2428 403 3163 
Q 403 3881 828 4315 
Q 1253 4750 1959 4750 
Q 2769 4750 3195 4129 
Q 3622 3509 3622 2328 
Q 3622 1225 3098 567 
Q 2575 -91 1691 -91 
Q 1453 -91 1209 -44 
Q 966 3 703 97 
z
M 1959 2075 
Q 2384 2075 2632 2365 
Q 2881 2656 2881 3163 
Q 2881 3666 2632 3958 
Q 2384 4250 1959 4250 
Q 1534 4250 1286 3958 
Q 1038 3666 1038 3163 
Q 1038 2656 1286 2365 
Q 1534 2075 1959 2075 
z
" transform="scale(0.015625)"/>
      <path id="DejaVuSans-3a" d="M 750 794 
L 1409 794 
L 1409 0 
L 750 0 
L 750 794 
z
M 750 3309 
L 1409 3309 
L 1409 2516 
L 750 2516 
L 750 3309 
z
" transform="scale(0.015625)"/>
     </defs>
     <use xlink:href="#DejaVuSans-32"/>
     <use xlink:href="#DejaVuSans-30" x="63.623047"/>
     <use xlink:href="#DejaVuSans-32" x="127.246094"/>
     <use xlink:href="#DejaVuSans-35" x="190.869141"/>
     <use xlink:href="#DejaVuSans-2d" x="254.492188"/>
     <use xlink:href="#DejaVuSans-30" x="290.576172"/>
     <use xlink:href="#DejaVuSans-32" x="354.199219"/>
     <use xlink:href="#DejaVuSans-2d" x="417.822266"/>
     <use xlink:href="#DejaVuSans-31" x="453.90625"/>
     <use xlink:href="#DejaVuSans-39" x="517.529297"/>
     <use xlink:href="#DejaVuSans-2d" x="581.152344"/>
     <use xlink:href="#DejaVuSans-30" x="617.236328"/>
     <use xlink:href="#DejaVuSans-30" x="680.859375"/>
     <use xlink:href="#DejaVuSans-3a" x="744.482422"/>
     <use xlink:href="#DejaVuSans-31" x="778.173828"/>
     <use xlink:href="#DejaVuSans-30" x="841.796875"/>
     <use xlink:href="#DejaVuSans-3a" x="905.419922"/>
     <use xlink:href="#DejaVuSans-34" x="939.111328"/>
     <use xlink:href="#DejaVuSans-31" x="1002.734375"/>
    </g>
   </g>
   <g id="legend_1">
    <g id="patch_7">
     <path d="M 281.596563 94.34075 
L 407.72 94.34075 
Q 409.72 94.34075 409.72 92.34075 
L 409.72 48.472 
Q 409.72 46.472 407.72 46.472 
L 281.596563 46.472 
Q 279.596563 46.472 279.596563 48.472 
L 279.596563 92.34075 
Q 279.596563 94.34075 281.596563 94.34075 
z
" style="fill: #ffffff; opacity: 0.8; stroke: #cccccc; stroke-linejoin: miter"/>
    </g>
    <g id="line2d_78">
     <path d="M 283.596563 54.570438 
L 293.596563 54.570438 
L 303.596563 54.570438 
" style="fill: none; stroke: #1f77b4; stroke-opacity: 0.9; stroke-linecap: square"/>
    </g>
    <g id="text_13">
     <!-- SchNet eval_loss -->
     <g transform="translate(311.596563 58.070438) scale(0.1 -0.1)">
      <defs>
       <path id="DejaVuSans-53" d="M 3425 4513 
L 3425 3897 
Q 3066 4069 2747 4153 
Q 2428 4238 2131 4238 
Q 1616 4238 1336 4038 
Q 1056 3838 1056 3469 
Q 1056 3159 1242 3001 
Q 1428 2844 1947 2747 
L 2328 2669 
Q 3034 2534 3370 2195 
Q 3706 1856 3706 1288 
Q 3706 609 3251 259 
Q 2797 -91 1919 -91 
Q 1588 -91 1214 -16 
Q 841 59 441 206 
L 441 856 
Q 825 641 1194 531 
Q 1563 422 1919 422 
Q 2459 422 2753 634 
Q 3047 847 3047 1241 
Q 3047 1584 2836 1778 
Q 2625 1972 2144 2069 
L 1759 2144 
Q 1053 2284 737 2584 
Q 422 2884 422 3419 
Q 422 4038 858 4394 
Q 1294 4750 2059 4750 
Q 2388 4750 2728 4690 
Q 3069 4631 3425 4513 
z
" transform="scale(0.015625)"/>
       <path id="DejaVuSans-63" d="M 3122 3366 
L 3122 2828 
Q 2878 2963 2633 3030 
Q 2388 3097 2138 3097 
Q 1578 3097 1268 2742 
Q 959 2388 959 1747 
Q 959 1106 1268 751 
Q 1578 397 2138 397 
Q 2388 397 2633 464 
Q 2878 531 3122 666 
L 3122 134 
Q 2881 22 2623 -34 
Q 2366 -91 2075 -91 
Q 1284 -91 818 406 
Q 353 903 353 1747 
Q 353 2603 823 3093 
Q 1294 3584 2113 3584 
Q 2378 3584 2631 3529 
Q 2884 3475 3122 3366 
z
" transform="scale(0.015625)"/>
       <path id="DejaVuSans-68" d="M 3513 2113 
L 3513 0 
L 2938 0 
L 2938 2094 
Q 2938 2591 2744 2837 
Q 2550 3084 2163 3084 
Q 1697 3084 1428 2787 
Q 1159 2491 1159 1978 
L 1159 0 
L 581 0 
L 581 4863 
L 1159 4863 
L 1159 2956 
Q 1366 3272 1645 3428 
Q 1925 3584 2291 3584 
Q 2894 3584 3203 3211 
Q 3513 2838 3513 2113 
z
" transform="scale(0.015625)"/>
       <path id="DejaVuSans-4e" d="M 628 4666 
L 1478 4666 
L 3547 763 
L 3547 4666 
L 4159 4666 
L 4159 0 
L 3309 0 
L 1241 3903 
L 1241 0 
L 628 0 
L 628 4666 
z
" transform="scale(0.015625)"/>
       <path id="DejaVuSans-20" transform="scale(0.015625)"/>
       <path id="DejaVuSans-76" d="M 191 3500 
L 800 3500 
L 1894 563 
L 2988 3500 
L 3597 3500 
L 2284 0 
L 1503 0 
L 191 3500 
z
" transform="scale(0.015625)"/>
       <path id="DejaVuSans-61" d="M 2194 1759 
Q 1497 1759 1228 1600 
Q 959 1441 959 1056 
Q 959 750 1161 570 
Q 1363 391 1709 391 
Q 2188 391 2477 730 
Q 2766 1069 2766 1631 
L 2766 1759 
L 2194 1759 
z
M 3341 1997 
L 3341 0 
L 2766 0 
L 2766 531 
Q 2569 213 2275 61 
Q 1981 -91 1556 -91 
Q 1019 -91 701 211 
Q 384 513 384 1019 
Q 384 1609 779 1909 
Q 1175 2209 1959 2209 
L 2766 2209 
L 2766 2266 
Q 2766 2663 2505 2880 
Q 2244 3097 1772 3097 
Q 1472 3097 1187 3025 
Q 903 2953 641 2809 
L 641 3341 
Q 956 3463 1253 3523 
Q 1550 3584 1831 3584 
Q 2591 3584 2966 3190 
Q 3341 2797 3341 1997 
z
" transform="scale(0.015625)"/>
       <path id="DejaVuSans-5f" d="M 3263 -1063 
L 3263 -1509 
L -63 -1509 
L -63 -1063 
L 3263 -1063 
z
" transform="scale(0.015625)"/>
      </defs>
      <use xlink:href="#DejaVuSans-53"/>
      <use xlink:href="#DejaVuSans-63" x="63.476562"/>
      <use xlink:href="#DejaVuSans-68" x="118.457031"/>
      <use xlink:href="#DejaVuSans-4e" x="181.835938"/>
      <use xlink:href="#DejaVuSans-65" x="256.640625"/>
      <use xlink:href="#DejaVuSans-74" x="318.164062"/>
      <use xlink:href="#DejaVuSans-20" x="357.373047"/>
      <use xlink:href="#DejaVuSans-65" x="389.160156"/>
      <use xlink:href="#DejaVuSans-76" x="450.683594"/>
      <use xlink:href="#DejaVuSans-61" x="509.863281"/>
      <use xlink:href="#DejaVuSans-6c" x="571.142578"/>
      <use xlink:href="#DejaVuSans-5f" x="598.925781"/>
      <use xlink:href="#DejaVuSans-6c" x="648.925781"/>
      <use xlink:href="#DejaVuSans-6f" x="676.708984"/>
      <use xlink:href="#DejaVuSans-73" x="737.890625"/>
      <use xlink:href="#DejaVuSans-73" x="789.990234"/>
     </g>
    </g>
    <g id="line2d_79">
     <path d="M 283.596563 69.526688 
L 293.596563 69.526688 
L 303.596563 69.526688 
" style="fill: none; stroke: #ff7f0e; stroke-opacity: 0.9; stroke-linecap: square"/>
    </g>
    <g id="text_14">
     <!-- MoGIN14 eval_loss -->
     <g transform="translate(311.596563 73.026688) scale(0.1 -0.1)">
      <defs>
       <path id="DejaVuSans-4d" d="M 628 4666 
L 1569 4666 
L 2759 1491 
L 3956 4666 
L 4897 4666 
L 4897 0 
L 4281 0 
L 4281 4097 
L 3078 897 
L 2444 897 
L 1241 4097 
L 1241 0 
L 628 0 
L 628 4666 
z
" transform="scale(0.015625)"/>
       <path id="DejaVuSans-47" d="M 3809 666 
L 3809 1919 
L 2778 1919 
L 2778 2438 
L 4434 2438 
L 4434 434 
Q 4069 175 3628 42 
Q 3188 -91 2688 -91 
Q 1594 -91 976 548 
Q 359 1188 359 2328 
Q 359 3472 976 4111 
Q 1594 4750 2688 4750 
Q 3144 4750 3555 4637 
Q 3966 4525 4313 4306 
L 4313 3634 
Q 3963 3931 3569 4081 
Q 3175 4231 2741 4231 
Q 1884 4231 1454 3753 
Q 1025 3275 1025 2328 
Q 1025 1384 1454 906 
Q 1884 428 2741 428 
Q 3075 428 3337 486 
Q 3600 544 3809 666 
z
" transform="scale(0.015625)"/>
       <path id="DejaVuSans-49" d="M 628 4666 
L 1259 4666 
L 1259 0 
L 628 0 
L 628 4666 
z
" transform="scale(0.015625)"/>
      </defs>
      <use xlink:href="#DejaVuSans-4d"/>
      <use xlink:href="#DejaVuSans-6f" x="86.279297"/>
      <use xlink:href="#DejaVuSans-47" x="147.460938"/>
      <use xlink:href="#DejaVuSans-49" x="224.951172"/>
      <use xlink:href="#DejaVuSans-4e" x="254.443359"/>
      <use xlink:href="#DejaVuSans-31" x="329.248047"/>
      <use xlink:href="#DejaVuSans-34" x="392.871094"/>
      <use xlink:href="#DejaVuSans-20" x="456.494141"/>
      <use xlink:href="#DejaVuSans-65" x="488.28125"/>
      <use xlink:href="#DejaVuSans-76" x="549.804688"/>
      <use xlink:href="#DejaVuSans-61" x="608.984375"/>
      <use xlink:href="#DejaVuSans-6c" x="670.263672"/>
      <use xlink:href="#DejaVuSans-5f" x="698.046875"/>
      <use xlink:href="#DejaVuSans-6c" x="748.046875"/>
      <use xlink:href="#DejaVuSans-6f" x="775.830078"/>
      <use xlink:href="#DejaVuSans-73" x="837.011719"/>
      <use xlink:href="#DejaVuSans-73" x="889.111328"/>
     </g>
    </g>
    <g id="line2d_80">
     <path d="M 283.596563 84.482938 
L 293.596563 84.482938 
L 303.596563 84.482938 
" style="fill: none; stroke: #2ca02c; stroke-opacity: 0.9; stroke-linecap: square"/>
    </g>
    <g id="text_15">
     <!-- MoGIN14 eval_loss -->
     <g transform="translate(311.596563 87.982938) scale(0.1 -0.1)">
      <use xlink:href="#DejaVuSans-4d"/>
      <use xlink:href="#DejaVuSans-6f" x="86.279297"/>
      <use xlink:href="#DejaVuSans-47" x="147.460938"/>
      <use xlink:href="#DejaVuSans-49" x="224.951172"/>
      <use xlink:href="#DejaVuSans-4e" x="254.443359"/>
      <use xlink:href="#DejaVuSans-31" x="329.248047"/>
      <use xlink:href="#DejaVuSans-34" x="392.871094"/>
      <use xlink:href="#DejaVuSans-20" x="456.494141"/>
      <use xlink:href="#DejaVuSans-65" x="488.28125"/>
      <use xlink:href="#DejaVuSans-76" x="549.804688"/>
      <use xlink:href="#DejaVuSans-61" x="608.984375"/>
      <use xlink:href="#DejaVuSans-6c" x="670.263672"/>
      <use xlink:href="#DejaVuSans-5f" x="698.046875"/>
      <use xlink:href="#DejaVuSans-6c" x="748.046875"/>
      <use xlink:href="#DejaVuSans-6f" x="775.830078"/>
      <use xlink:href="#DejaVuSans-73" x="837.011719"/>
      <use xlink:href="#DejaVuSans-73" x="889.111328"/>
     </g>
    </g>
   </g>
  </g>
 </g>
 <defs>
  <clipPath id="pae9e6d5e74">
   <rect x="57.6" y="41.472" width="357.12" height="266.112"/>
  </clipPath>
 </defs>
</svg>
