<?xml version="1.0" encoding="utf-8" standalone="no"?>
<!DOCTYPE svg PUBLIC "-//W3C//DTD SVG 1.1//EN"
  "http://www.w3.org/Graphics/SVG/1.1/DTD/svg11.dtd">
<svg xmlns:xlink="http://www.w3.org/1999/xlink" width="460.8pt" height="345.6pt" viewBox="0 0 460.8 345.6" xmlns="http://www.w3.org/2000/svg" version="1.1">
 <metadata>
  <rdf:RDF xmlns:dc="http://purl.org/dc/elements/1.1/" xmlns:cc="http://creativecommons.org/ns#" xmlns:rdf="http://www.w3.org/1999/02/22-rdf-syntax-ns#">
   <cc:Work>
    <dc:type rdf:resource="http://purl.org/dc/dcmitype/StillImage"/>
    <dc:date>2025-02-14T05:14:56.906562</dc:date>
    <dc:format>image/svg+xml</dc:format>
    <dc:creator>
     <cc:Agent>
      <dc:title>Matplotlib v3.8.4, https://matplotlib.org/</dc:title>
     </cc:Agent>
    </dc:creator>
   </cc:Work>
  </rdf:RDF>
 </metadata>
 <defs>
  <style type="text/css">*{stroke-linejoin: round; stroke-linecap: butt}</style>
 </defs>
 <g id="figure_1">
  <g id="patch_1">
   <path d="M 0 345.6 
L 460.8 345.6 
L 460.8 0 
L 0 0 
z
" style="fill: #ffffff"/>
  </g>
  <g id="axes_1">
   <g id="patch_2">
    <path d="M 57.6 307.584 
L 414.72 307.584 
L 414.72 41.472 
L 57.6 41.472 
z
" style="fill: #ffffff"/>
   </g>
   <g id="matplotlib.axis_1">
    <g id="xtick_1">
     <g id="line2d_1">
      <defs>
       <path id="mb2c38b083f" d="M 0 0 
L 0 3.5 
" style="stroke: #000000; stroke-width: 0.8"/>
      </defs>
      <g>
       <use xlink:href="#mb2c38b083f" x="73.832727" y="307.584" style="stroke: #000000; stroke-width: 0.8"/>
      </g>
     </g>
     <g id="text_1">
      <!-- $\mathdefault{10^{0}}$ -->
      <g transform="translate(65.032727 322.182437) scale(0.1 -0.1)">
       <defs>
        <path id="DejaVuSans-31" d="M 794 531 
L 1825 531 
L 1825 4091 
L 703 3866 
L 703 4441 
L 1819 4666 
L 2450 4666 
L 2450 531 
L 3481 531 
L 3481 0 
L 794 0 
L 794 531 
z
" transform="scale(0.015625)"/>
        <path id="DejaVuSans-30" d="M 2034 4250 
Q 1547 4250 1301 3770 
Q 1056 3291 1056 2328 
Q 1056 1369 1301 889 
Q 1547 409 2034 409 
Q 2525 409 2770 889 
Q 3016 1369 3016 2328 
Q 3016 3291 2770 3770 
Q 2525 4250 2034 4250 
z
M 2034 4750 
Q 2819 4750 3233 4129 
Q 3647 3509 3647 2328 
Q 3647 1150 3233 529 
Q 2819 -91 2034 -91 
Q 1250 -91 836 529 
Q 422 1150 422 2328 
Q 422 3509 836 4129 
Q 1250 4750 2034 4750 
z
" transform="scale(0.015625)"/>
       </defs>
       <use xlink:href="#DejaVuSans-31" transform="translate(0 0.765625)"/>
       <use xlink:href="#DejaVuSans-30" transform="translate(63.623047 0.765625)"/>
       <use xlink:href="#DejaVuSans-30" transform="translate(128.203125 39.046875) scale(0.7)"/>
      </g>
     </g>
    </g>
    <g id="xtick_2">
     <g id="line2d_2">
      <g>
       <use xlink:href="#mb2c38b083f" x="146.514517" y="307.584" style="stroke: #000000; stroke-width: 0.8"/>
      </g>
     </g>
     <g id="text_2">
      <!-- $\mathdefault{10^{1}}$ -->
      <g transform="translate(137.714517 322.182437) scale(0.1 -0.1)">
       <use xlink:href="#DejaVuSans-31" transform="translate(0 0.684375)"/>
       <use xlink:href="#DejaVuSans-30" transform="translate(63.623047 0.684375)"/>
       <use xlink:href="#DejaVuSans-31" transform="translate(128.203125 38.965625) scale(0.7)"/>
      </g>
     </g>
    </g>
    <g id="xtick_3">
     <g id="line2d_3">
      <g>
       <use xlink:href="#mb2c38b083f" x="219.196306" y="307.584" style="stroke: #000000; stroke-width: 0.8"/>
      </g>
     </g>
     <g id="text_3">
      <!-- $\mathdefault{10^{2}}$ -->
      <g transform="translate(210.396306 322.182437) scale(0.1 -0.1)">
       <defs>
        <path id="DejaVuSans-32" d="M 1228 531 
L 3431 531 
L 3431 0 
L 469 0 
L 469 531 
Q 828 903 1448 1529 
Q 2069 2156 2228 2338 
Q 2531 2678 2651 2914 
Q 2772 3150 2772 3378 
Q 2772 3750 2511 3984 
Q 2250 4219 1831 4219 
Q 1534 4219 1204 4116 
Q 875 4013 500 3803 
L 500 4441 
Q 881 4594 1212 4672 
Q 1544 4750 1819 4750 
Q 2544 4750 2975 4387 
Q 3406 4025 3406 3419 
Q 3406 3131 3298 2873 
Q 3191 2616 2906 2266 
Q 2828 2175 2409 1742 
Q 1991 1309 1228 531 
z
" transform="scale(0.015625)"/>
       </defs>
       <use xlink:href="#DejaVuSans-31" transform="translate(0 0.765625)"/>
       <use xlink:href="#DejaVuSans-30" transform="translate(63.623047 0.765625)"/>
       <use xlink:href="#DejaVuSans-32" transform="translate(128.203125 39.046875) scale(0.7)"/>
      </g>
     </g>
    </g>
    <g id="xtick_4">
     <g id="line2d_4">
      <g>
       <use xlink:href="#mb2c38b083f" x="291.878096" y="307.584" style="stroke: #000000; stroke-width: 0.8"/>
      </g>
     </g>
     <g id="text_4">
      <!-- $\mathdefault{10^{3}}$ -->
      <g transform="translate(283.078096 322.182437) scale(0.1 -0.1)">
       <defs>
        <path id="DejaVuSans-33" d="M 2597 2516 
Q 3050 2419 3304 2112 
Q 3559 1806 3559 1356 
Q 3559 666 3084 287 
Q 2609 -91 1734 -91 
Q 1441 -91 1130 -33 
Q 819 25 488 141 
L 488 750 
Q 750 597 1062 519 
Q 1375 441 1716 441 
Q 2309 441 2620 675 
Q 2931 909 2931 1356 
Q 2931 1769 2642 2001 
Q 2353 2234 1838 2234 
L 1294 2234 
L 1294 2753 
L 1863 2753 
Q 2328 2753 2575 2939 
Q 2822 3125 2822 3475 
Q 2822 3834 2567 4026 
Q 2313 4219 1838 4219 
Q 1578 4219 1281 4162 
Q 984 4106 628 3988 
L 628 4550 
Q 988 4650 1302 4700 
Q 1616 4750 1894 4750 
Q 2613 4750 3031 4423 
Q 3450 4097 3450 3541 
Q 3450 3153 3228 2886 
Q 3006 2619 2597 2516 
z
" transform="scale(0.015625)"/>
       </defs>
       <use xlink:href="#DejaVuSans-31" transform="translate(0 0.765625)"/>
       <use xlink:href="#DejaVuSans-30" transform="translate(63.623047 0.765625)"/>
       <use xlink:href="#DejaVuSans-33" transform="translate(128.203125 39.046875) scale(0.7)"/>
      </g>
     </g>
    </g>
    <g id="xtick_5">
     <g id="line2d_5">
      <g>
       <use xlink:href="#mb2c38b083f" x="364.559886" y="307.584" style="stroke: #000000; stroke-width: 0.8"/>
      </g>
     </g>
     <g id="text_5">
      <!-- $\mathdefault{10^{4}}$ -->
      <g transform="translate(355.759886 322.182437) scale(0.1 -0.1)">
       <defs>
        <path id="DejaVuSans-34" d="M 2419 4116 
L 825 1625 
L 2419 1625 
L 2419 4116 
z
M 2253 4666 
L 3047 4666 
L 3047 1625 
L 3713 1625 
L 3713 1100 
L 3047 1100 
L 3047 0 
L 2419 0 
L 2419 1100 
L 313 1100 
L 313 1709 
L 2253 4666 
z
" transform="scale(0.015625)"/>
       </defs>
       <use xlink:href="#DejaVuSans-31" transform="translate(0 0.684375)"/>
       <use xlink:href="#DejaVuSans-30" transform="translate(63.623047 0.684375)"/>
       <use xlink:href="#DejaVuSans-34" transform="translate(128.203125 38.965625) scale(0.7)"/>
      </g>
     </g>
    </g>
    <g id="xtick_6">
     <g id="line2d_6">
      <defs>
       <path id="m08c9355f37" d="M 0 0 
L 0 2 
" style="stroke: #000000; stroke-width: 0.6"/>
      </defs>
      <g>
       <use xlink:href="#m08c9355f37" x="57.708363" y="307.584" style="stroke: #000000; stroke-width: 0.6"/>
      </g>
     </g>
    </g>
    <g id="xtick_7">
     <g id="line2d_7">
      <g>
       <use xlink:href="#m08c9355f37" x="62.574176" y="307.584" style="stroke: #000000; stroke-width: 0.6"/>
      </g>
     </g>
    </g>
    <g id="xtick_8">
     <g id="line2d_8">
      <g>
       <use xlink:href="#m08c9355f37" x="66.789134" y="307.584" style="stroke: #000000; stroke-width: 0.6"/>
      </g>
     </g>
    </g>
    <g id="xtick_9">
     <g id="line2d_9">
      <g>
       <use xlink:href="#m08c9355f37" x="70.506991" y="307.584" style="stroke: #000000; stroke-width: 0.6"/>
      </g>
     </g>
    </g>
    <g id="xtick_10">
     <g id="line2d_10">
      <g>
       <use xlink:href="#m08c9355f37" x="95.712126" y="307.584" style="stroke: #000000; stroke-width: 0.6"/>
      </g>
     </g>
    </g>
    <g id="xtick_11">
     <g id="line2d_11">
      <g>
       <use xlink:href="#m08c9355f37" x="108.510754" y="307.584" style="stroke: #000000; stroke-width: 0.6"/>
      </g>
     </g>
    </g>
    <g id="xtick_12">
     <g id="line2d_12">
      <g>
       <use xlink:href="#m08c9355f37" x="117.591525" y="307.584" style="stroke: #000000; stroke-width: 0.6"/>
      </g>
     </g>
    </g>
    <g id="xtick_13">
     <g id="line2d_13">
      <g>
       <use xlink:href="#m08c9355f37" x="124.635118" y="307.584" style="stroke: #000000; stroke-width: 0.6"/>
      </g>
     </g>
    </g>
    <g id="xtick_14">
     <g id="line2d_14">
      <g>
       <use xlink:href="#m08c9355f37" x="130.390153" y="307.584" style="stroke: #000000; stroke-width: 0.6"/>
      </g>
     </g>
    </g>
    <g id="xtick_15">
     <g id="line2d_15">
      <g>
       <use xlink:href="#m08c9355f37" x="135.255965" y="307.584" style="stroke: #000000; stroke-width: 0.6"/>
      </g>
     </g>
    </g>
    <g id="xtick_16">
     <g id="line2d_16">
      <g>
       <use xlink:href="#m08c9355f37" x="139.470924" y="307.584" style="stroke: #000000; stroke-width: 0.6"/>
      </g>
     </g>
    </g>
    <g id="xtick_17">
     <g id="line2d_17">
      <g>
       <use xlink:href="#m08c9355f37" x="143.188781" y="307.584" style="stroke: #000000; stroke-width: 0.6"/>
      </g>
     </g>
    </g>
    <g id="xtick_18">
     <g id="line2d_18">
      <g>
       <use xlink:href="#m08c9355f37" x="168.393916" y="307.584" style="stroke: #000000; stroke-width: 0.6"/>
      </g>
     </g>
    </g>
    <g id="xtick_19">
     <g id="line2d_19">
      <g>
       <use xlink:href="#m08c9355f37" x="181.192543" y="307.584" style="stroke: #000000; stroke-width: 0.6"/>
      </g>
     </g>
    </g>
    <g id="xtick_20">
     <g id="line2d_20">
      <g>
       <use xlink:href="#m08c9355f37" x="190.273314" y="307.584" style="stroke: #000000; stroke-width: 0.6"/>
      </g>
     </g>
    </g>
    <g id="xtick_21">
     <g id="line2d_21">
      <g>
       <use xlink:href="#m08c9355f37" x="197.316908" y="307.584" style="stroke: #000000; stroke-width: 0.6"/>
      </g>
     </g>
    </g>
    <g id="xtick_22">
     <g id="line2d_22">
      <g>
       <use xlink:href="#m08c9355f37" x="203.071942" y="307.584" style="stroke: #000000; stroke-width: 0.6"/>
      </g>
     </g>
    </g>
    <g id="xtick_23">
     <g id="line2d_23">
      <g>
       <use xlink:href="#m08c9355f37" x="207.937755" y="307.584" style="stroke: #000000; stroke-width: 0.6"/>
      </g>
     </g>
    </g>
    <g id="xtick_24">
     <g id="line2d_24">
      <g>
       <use xlink:href="#m08c9355f37" x="212.152713" y="307.584" style="stroke: #000000; stroke-width: 0.6"/>
      </g>
     </g>
    </g>
    <g id="xtick_25">
     <g id="line2d_25">
      <g>
       <use xlink:href="#m08c9355f37" x="215.87057" y="307.584" style="stroke: #000000; stroke-width: 0.6"/>
      </g>
     </g>
    </g>
    <g id="xtick_26">
     <g id="line2d_26">
      <g>
       <use xlink:href="#m08c9355f37" x="241.075705" y="307.584" style="stroke: #000000; stroke-width: 0.6"/>
      </g>
     </g>
    </g>
    <g id="xtick_27">
     <g id="line2d_27">
      <g>
       <use xlink:href="#m08c9355f37" x="253.874333" y="307.584" style="stroke: #000000; stroke-width: 0.6"/>
      </g>
     </g>
    </g>
    <g id="xtick_28">
     <g id="line2d_28">
      <g>
       <use xlink:href="#m08c9355f37" x="262.955104" y="307.584" style="stroke: #000000; stroke-width: 0.6"/>
      </g>
     </g>
    </g>
    <g id="xtick_29">
     <g id="line2d_29">
      <g>
       <use xlink:href="#m08c9355f37" x="269.998697" y="307.584" style="stroke: #000000; stroke-width: 0.6"/>
      </g>
     </g>
    </g>
    <g id="xtick_30">
     <g id="line2d_30">
      <g>
       <use xlink:href="#m08c9355f37" x="275.753732" y="307.584" style="stroke: #000000; stroke-width: 0.6"/>
      </g>
     </g>
    </g>
    <g id="xtick_31">
     <g id="line2d_31">
      <g>
       <use xlink:href="#m08c9355f37" x="280.619544" y="307.584" style="stroke: #000000; stroke-width: 0.6"/>
      </g>
     </g>
    </g>
    <g id="xtick_32">
     <g id="line2d_32">
      <g>
       <use xlink:href="#m08c9355f37" x="284.834503" y="307.584" style="stroke: #000000; stroke-width: 0.6"/>
      </g>
     </g>
    </g>
    <g id="xtick_33">
     <g id="line2d_33">
      <g>
       <use xlink:href="#m08c9355f37" x="288.55236" y="307.584" style="stroke: #000000; stroke-width: 0.6"/>
      </g>
     </g>
    </g>
    <g id="xtick_34">
     <g id="line2d_34">
      <g>
       <use xlink:href="#m08c9355f37" x="313.757495" y="307.584" style="stroke: #000000; stroke-width: 0.6"/>
      </g>
     </g>
    </g>
    <g id="xtick_35">
     <g id="line2d_35">
      <g>
       <use xlink:href="#m08c9355f37" x="326.556123" y="307.584" style="stroke: #000000; stroke-width: 0.6"/>
      </g>
     </g>
    </g>
    <g id="xtick_36">
     <g id="line2d_36">
      <g>
       <use xlink:href="#m08c9355f37" x="335.636894" y="307.584" style="stroke: #000000; stroke-width: 0.6"/>
      </g>
     </g>
    </g>
    <g id="xtick_37">
     <g id="line2d_37">
      <g>
       <use xlink:href="#m08c9355f37" x="342.680487" y="307.584" style="stroke: #000000; stroke-width: 0.6"/>
      </g>
     </g>
    </g>
    <g id="xtick_38">
     <g id="line2d_38">
      <g>
       <use xlink:href="#m08c9355f37" x="348.435521" y="307.584" style="stroke: #000000; stroke-width: 0.6"/>
      </g>
     </g>
    </g>
    <g id="xtick_39">
     <g id="line2d_39">
      <g>
       <use xlink:href="#m08c9355f37" x="353.301334" y="307.584" style="stroke: #000000; stroke-width: 0.6"/>
      </g>
     </g>
    </g>
    <g id="xtick_40">
     <g id="line2d_40">
      <g>
       <use xlink:href="#m08c9355f37" x="357.516292" y="307.584" style="stroke: #000000; stroke-width: 0.6"/>
      </g>
     </g>
    </g>
    <g id="xtick_41">
     <g id="line2d_41">
      <g>
       <use xlink:href="#m08c9355f37" x="361.234149" y="307.584" style="stroke: #000000; stroke-width: 0.6"/>
      </g>
     </g>
    </g>
    <g id="xtick_42">
     <g id="line2d_42">
      <g>
       <use xlink:href="#m08c9355f37" x="386.439284" y="307.584" style="stroke: #000000; stroke-width: 0.6"/>
      </g>
     </g>
    </g>
    <g id="xtick_43">
     <g id="line2d_43">
      <g>
       <use xlink:href="#m08c9355f37" x="399.237912" y="307.584" style="stroke: #000000; stroke-width: 0.6"/>
      </g>
     </g>
    </g>
    <g id="xtick_44">
     <g id="line2d_44">
      <g>
       <use xlink:href="#m08c9355f37" x="408.318683" y="307.584" style="stroke: #000000; stroke-width: 0.6"/>
      </g>
     </g>
    </g>
    <g id="text_6">
     <!-- iter# -->
     <g transform="translate(223.488906 335.860562) scale(0.1 -0.1)">
      <defs>
       <path id="DejaVuSans-69" d="M 603 3500 
L 1178 3500 
L 1178 0 
L 603 0 
L 603 3500 
z
M 603 4863 
L 1178 4863 
L 1178 4134 
L 603 4134 
L 603 4863 
z
" transform="scale(0.015625)"/>
       <path id="DejaVuSans-74" d="M 1172 4494 
L 1172 3500 
L 2356 3500 
L 2356 3053 
L 1172 3053 
L 1172 1153 
Q 1172 725 1289 603 
Q 1406 481 1766 481 
L 2356 481 
L 2356 0 
L 1766 0 
Q 1100 0 847 248 
Q 594 497 594 1153 
L 594 3053 
L 172 3053 
L 172 3500 
L 594 3500 
L 594 4494 
L 1172 4494 
z
" transform="scale(0.015625)"/>
       <path id="DejaVuSans-65" d="M 3597 1894 
L 3597 1613 
L 953 1613 
Q 991 1019 1311 708 
Q 1631 397 2203 397 
Q 2534 397 2845 478 
Q 3156 559 3463 722 
L 3463 178 
Q 3153 47 2828 -22 
Q 2503 -91 2169 -91 
Q 1331 -91 842 396 
Q 353 884 353 1716 
Q 353 2575 817 3079 
Q 1281 3584 2069 3584 
Q 2775 3584 3186 3129 
Q 3597 2675 3597 1894 
z
M 3022 2063 
Q 3016 2534 2758 2815 
Q 2500 3097 2075 3097 
Q 1594 3097 1305 2825 
Q 1016 2553 972 2059 
L 3022 2063 
z
" transform="scale(0.015625)"/>
       <path id="DejaVuSans-72" d="M 2631 2963 
Q 2534 3019 2420 3045 
Q 2306 3072 2169 3072 
Q 1681 3072 1420 2755 
Q 1159 2438 1159 1844 
L 1159 0 
L 581 0 
L 581 3500 
L 1159 3500 
L 1159 2956 
Q 1341 3275 1631 3429 
Q 1922 3584 2338 3584 
Q 2397 3584 2469 3576 
Q 2541 3569 2628 3553 
L 2631 2963 
z
" transform="scale(0.015625)"/>
       <path id="DejaVuSans-23" d="M 3272 2816 
L 2363 2816 
L 2100 1772 
L 3016 1772 
L 3272 2816 
z
M 2803 4594 
L 2478 3297 
L 3391 3297 
L 3719 4594 
L 4219 4594 
L 3897 3297 
L 4872 3297 
L 4872 2816 
L 3775 2816 
L 3519 1772 
L 4513 1772 
L 4513 1294 
L 3397 1294 
L 3072 0 
L 2572 0 
L 2894 1294 
L 1978 1294 
L 1656 0 
L 1153 0 
L 1478 1294 
L 494 1294 
L 494 1772 
L 1594 1772 
L 1856 2816 
L 850 2816 
L 850 3297 
L 1978 3297 
L 2297 4594 
L 2803 4594 
z
" transform="scale(0.015625)"/>
      </defs>
      <use xlink:href="#DejaVuSans-69"/>
      <use xlink:href="#DejaVuSans-74" x="27.783203"/>
      <use xlink:href="#DejaVuSans-65" x="66.992188"/>
      <use xlink:href="#DejaVuSans-72" x="128.515625"/>
      <use xlink:href="#DejaVuSans-23" x="169.628906"/>
     </g>
    </g>
   </g>
   <g id="matplotlib.axis_2">
    <g id="ytick_1">
     <g id="line2d_45">
      <defs>
       <path id="ma620a6f83c" d="M 0 0 
L -3.5 0 
" style="stroke: #000000; stroke-width: 0.8"/>
      </defs>
      <g>
       <use xlink:href="#ma620a6f83c" x="57.6" y="301.386289" style="stroke: #000000; stroke-width: 0.8"/>
      </g>
     </g>
     <g id="text_7">
      <!-- $\mathdefault{10^{-3}}$ -->
      <g transform="translate(27.1 305.185508) scale(0.1 -0.1)">
       <defs>
        <path id="DejaVuSans-2212" d="M 678 2272 
L 4684 2272 
L 4684 1741 
L 678 1741 
L 678 2272 
z
" transform="scale(0.015625)"/>
       </defs>
       <use xlink:href="#DejaVuSans-31" transform="translate(0 0.765625)"/>
       <use xlink:href="#DejaVuSans-30" transform="translate(63.623047 0.765625)"/>
       <use xlink:href="#DejaVuSans-2212" transform="translate(128.203125 39.046875) scale(0.7)"/>
       <use xlink:href="#DejaVuSans-33" transform="translate(186.855469 39.046875) scale(0.7)"/>
      </g>
     </g>
    </g>
    <g id="ytick_2">
     <g id="line2d_46">
      <g>
       <use xlink:href="#ma620a6f83c" x="57.6" y="253.401176" style="stroke: #000000; stroke-width: 0.8"/>
      </g>
     </g>
     <g id="text_8">
      <!-- $\mathdefault{10^{-2}}$ -->
      <g transform="translate(27.1 257.200395) scale(0.1 -0.1)">
       <use xlink:href="#DejaVuSans-31" transform="translate(0 0.765625)"/>
       <use xlink:href="#DejaVuSans-30" transform="translate(63.623047 0.765625)"/>
       <use xlink:href="#DejaVuSans-2212" transform="translate(128.203125 39.046875) scale(0.7)"/>
       <use xlink:href="#DejaVuSans-32" transform="translate(186.855469 39.046875) scale(0.7)"/>
      </g>
     </g>
    </g>
    <g id="ytick_3">
     <g id="line2d_47">
      <g>
       <use xlink:href="#ma620a6f83c" x="57.6" y="205.416063" style="stroke: #000000; stroke-width: 0.8"/>
      </g>
     </g>
     <g id="text_9">
      <!-- $\mathdefault{10^{-1}}$ -->
      <g transform="translate(27.1 209.215282) scale(0.1 -0.1)">
       <use xlink:href="#DejaVuSans-31" transform="translate(0 0.684375)"/>
       <use xlink:href="#DejaVuSans-30" transform="translate(63.623047 0.684375)"/>
       <use xlink:href="#DejaVuSans-2212" transform="translate(128.203125 38.965625) scale(0.7)"/>
       <use xlink:href="#DejaVuSans-31" transform="translate(186.855469 38.965625) scale(0.7)"/>
      </g>
     </g>
    </g>
    <g id="ytick_4">
     <g id="line2d_48">
      <g>
       <use xlink:href="#ma620a6f83c" x="57.6" y="157.43095" style="stroke: #000000; stroke-width: 0.8"/>
      </g>
     </g>
     <g id="text_10">
      <!-- $\mathdefault{10^{0}}$ -->
      <g transform="translate(33 161.230169) scale(0.1 -0.1)">
       <use xlink:href="#DejaVuSans-31" transform="translate(0 0.765625)"/>
       <use xlink:href="#DejaVuSans-30" transform="translate(63.623047 0.765625)"/>
       <use xlink:href="#DejaVuSans-30" transform="translate(128.203125 39.046875) scale(0.7)"/>
      </g>
     </g>
    </g>
    <g id="ytick_5">
     <g id="line2d_49">
      <g>
       <use xlink:href="#ma620a6f83c" x="57.6" y="109.445837" style="stroke: #000000; stroke-width: 0.8"/>
      </g>
     </g>
     <g id="text_11">
      <!-- $\mathdefault{10^{1}}$ -->
      <g transform="translate(33 113.245056) scale(0.1 -0.1)">
       <use xlink:href="#DejaVuSans-31" transform="translate(0 0.684375)"/>
       <use xlink:href="#DejaVuSans-30" transform="translate(63.623047 0.684375)"/>
       <use xlink:href="#DejaVuSans-31" transform="translate(128.203125 38.965625) scale(0.7)"/>
      </g>
     </g>
    </g>
    <g id="ytick_6">
     <g id="line2d_50">
      <g>
       <use xlink:href="#ma620a6f83c" x="57.6" y="61.460724" style="stroke: #000000; stroke-width: 0.8"/>
      </g>
     </g>
     <g id="text_12">
      <!-- $\mathdefault{10^{2}}$ -->
      <g transform="translate(33 65.259943) scale(0.1 -0.1)">
       <use xlink:href="#DejaVuSans-31" transform="translate(0 0.765625)"/>
       <use xlink:href="#DejaVuSans-30" transform="translate(63.623047 0.765625)"/>
       <use xlink:href="#DejaVuSans-32" transform="translate(128.203125 39.046875) scale(0.7)"/>
      </g>
     </g>
    </g>
    <g id="ytick_7">
     <g id="line2d_51">
      <defs>
       <path id="m16db82bcc8" d="M 0 0 
L -2 0 
" style="stroke: #000000; stroke-width: 0.6"/>
      </defs>
      <g>
       <use xlink:href="#m16db82bcc8" x="57.6" y="306.036527" style="stroke: #000000; stroke-width: 0.6"/>
      </g>
     </g>
    </g>
    <g id="ytick_8">
     <g id="line2d_52">
      <g>
       <use xlink:href="#m16db82bcc8" x="57.6" y="303.581968" style="stroke: #000000; stroke-width: 0.6"/>
      </g>
     </g>
    </g>
    <g id="ytick_9">
     <g id="line2d_53">
      <g>
       <use xlink:href="#m16db82bcc8" x="57.6" y="286.941331" style="stroke: #000000; stroke-width: 0.6"/>
      </g>
     </g>
    </g>
    <g id="ytick_10">
     <g id="line2d_54">
      <g>
       <use xlink:href="#m16db82bcc8" x="57.6" y="278.491572" style="stroke: #000000; stroke-width: 0.6"/>
      </g>
     </g>
    </g>
    <g id="ytick_11">
     <g id="line2d_55">
      <g>
       <use xlink:href="#m16db82bcc8" x="57.6" y="272.496373" style="stroke: #000000; stroke-width: 0.6"/>
      </g>
     </g>
    </g>
    <g id="ytick_12">
     <g id="line2d_56">
      <g>
       <use xlink:href="#m16db82bcc8" x="57.6" y="267.846135" style="stroke: #000000; stroke-width: 0.6"/>
      </g>
     </g>
    </g>
    <g id="ytick_13">
     <g id="line2d_57">
      <g>
       <use xlink:href="#m16db82bcc8" x="57.6" y="264.046614" style="stroke: #000000; stroke-width: 0.6"/>
      </g>
     </g>
    </g>
    <g id="ytick_14">
     <g id="line2d_58">
      <g>
       <use xlink:href="#m16db82bcc8" x="57.6" y="260.834164" style="stroke: #000000; stroke-width: 0.6"/>
      </g>
     </g>
    </g>
    <g id="ytick_15">
     <g id="line2d_59">
      <g>
       <use xlink:href="#m16db82bcc8" x="57.6" y="258.051414" style="stroke: #000000; stroke-width: 0.6"/>
      </g>
     </g>
    </g>
    <g id="ytick_16">
     <g id="line2d_60">
      <g>
       <use xlink:href="#m16db82bcc8" x="57.6" y="255.596855" style="stroke: #000000; stroke-width: 0.6"/>
      </g>
     </g>
    </g>
    <g id="ytick_17">
     <g id="line2d_61">
      <g>
       <use xlink:href="#m16db82bcc8" x="57.6" y="238.956218" style="stroke: #000000; stroke-width: 0.6"/>
      </g>
     </g>
    </g>
    <g id="ytick_18">
     <g id="line2d_62">
      <g>
       <use xlink:href="#m16db82bcc8" x="57.6" y="230.506459" style="stroke: #000000; stroke-width: 0.6"/>
      </g>
     </g>
    </g>
    <g id="ytick_19">
     <g id="line2d_63">
      <g>
       <use xlink:href="#m16db82bcc8" x="57.6" y="224.51126" style="stroke: #000000; stroke-width: 0.6"/>
      </g>
     </g>
    </g>
    <g id="ytick_20">
     <g id="line2d_64">
      <g>
       <use xlink:href="#m16db82bcc8" x="57.6" y="219.861022" style="stroke: #000000; stroke-width: 0.6"/>
      </g>
     </g>
    </g>
    <g id="ytick_21">
     <g id="line2d_65">
      <g>
       <use xlink:href="#m16db82bcc8" x="57.6" y="216.061501" style="stroke: #000000; stroke-width: 0.6"/>
      </g>
     </g>
    </g>
    <g id="ytick_22">
     <g id="line2d_66">
      <g>
       <use xlink:href="#m16db82bcc8" x="57.6" y="212.849051" style="stroke: #000000; stroke-width: 0.6"/>
      </g>
     </g>
    </g>
    <g id="ytick_23">
     <g id="line2d_67">
      <g>
       <use xlink:href="#m16db82bcc8" x="57.6" y="210.066301" style="stroke: #000000; stroke-width: 0.6"/>
      </g>
     </g>
    </g>
    <g id="ytick_24">
     <g id="line2d_68">
      <g>
       <use xlink:href="#m16db82bcc8" x="57.6" y="207.611742" style="stroke: #000000; stroke-width: 0.6"/>
      </g>
     </g>
    </g>
    <g id="ytick_25">
     <g id="line2d_69">
      <g>
       <use xlink:href="#m16db82bcc8" x="57.6" y="190.971105" style="stroke: #000000; stroke-width: 0.6"/>
      </g>
     </g>
    </g>
    <g id="ytick_26">
     <g id="line2d_70">
      <g>
       <use xlink:href="#m16db82bcc8" x="57.6" y="182.521346" style="stroke: #000000; stroke-width: 0.6"/>
      </g>
     </g>
    </g>
    <g id="ytick_27">
     <g id="line2d_71">
      <g>
       <use xlink:href="#m16db82bcc8" x="57.6" y="176.526147" style="stroke: #000000; stroke-width: 0.6"/>
      </g>
     </g>
    </g>
    <g id="ytick_28">
     <g id="line2d_72">
      <g>
       <use xlink:href="#m16db82bcc8" x="57.6" y="171.875909" style="stroke: #000000; stroke-width: 0.6"/>
      </g>
     </g>
    </g>
    <g id="ytick_29">
     <g id="line2d_73">
      <g>
       <use xlink:href="#m16db82bcc8" x="57.6" y="168.076388" style="stroke: #000000; stroke-width: 0.6"/>
      </g>
     </g>
    </g>
    <g id="ytick_30">
     <g id="line2d_74">
      <g>
       <use xlink:href="#m16db82bcc8" x="57.6" y="164.863938" style="stroke: #000000; stroke-width: 0.6"/>
      </g>
     </g>
    </g>
    <g id="ytick_31">
     <g id="line2d_75">
      <g>
       <use xlink:href="#m16db82bcc8" x="57.6" y="162.081188" style="stroke: #000000; stroke-width: 0.6"/>
      </g>
     </g>
    </g>
    <g id="ytick_32">
     <g id="line2d_76">
      <g>
       <use xlink:href="#m16db82bcc8" x="57.6" y="159.626629" style="stroke: #000000; stroke-width: 0.6"/>
      </g>
     </g>
    </g>
    <g id="ytick_33">
     <g id="line2d_77">
      <g>
       <use xlink:href="#m16db82bcc8" x="57.6" y="142.985992" style="stroke: #000000; stroke-width: 0.6"/>
      </g>
     </g>
    </g>
    <g id="ytick_34">
     <g id="line2d_78">
      <g>
       <use xlink:href="#m16db82bcc8" x="57.6" y="134.536233" style="stroke: #000000; stroke-width: 0.6"/>
      </g>
     </g>
    </g>
    <g id="ytick_35">
     <g id="line2d_79">
      <g>
       <use xlink:href="#m16db82bcc8" x="57.6" y="128.541033" style="stroke: #000000; stroke-width: 0.6"/>
      </g>
     </g>
    </g>
    <g id="ytick_36">
     <g id="line2d_80">
      <g>
       <use xlink:href="#m16db82bcc8" x="57.6" y="123.890796" style="stroke: #000000; stroke-width: 0.6"/>
      </g>
     </g>
    </g>
    <g id="ytick_37">
     <g id="line2d_81">
      <g>
       <use xlink:href="#m16db82bcc8" x="57.6" y="120.091275" style="stroke: #000000; stroke-width: 0.6"/>
      </g>
     </g>
    </g>
    <g id="ytick_38">
     <g id="line2d_82">
      <g>
       <use xlink:href="#m16db82bcc8" x="57.6" y="116.878825" style="stroke: #000000; stroke-width: 0.6"/>
      </g>
     </g>
    </g>
    <g id="ytick_39">
     <g id="line2d_83">
      <g>
       <use xlink:href="#m16db82bcc8" x="57.6" y="114.096075" style="stroke: #000000; stroke-width: 0.6"/>
      </g>
     </g>
    </g>
    <g id="ytick_40">
     <g id="line2d_84">
      <g>
       <use xlink:href="#m16db82bcc8" x="57.6" y="111.641516" style="stroke: #000000; stroke-width: 0.6"/>
      </g>
     </g>
    </g>
    <g id="ytick_41">
     <g id="line2d_85">
      <g>
       <use xlink:href="#m16db82bcc8" x="57.6" y="95.000879" style="stroke: #000000; stroke-width: 0.6"/>
      </g>
     </g>
    </g>
    <g id="ytick_42">
     <g id="line2d_86">
      <g>
       <use xlink:href="#m16db82bcc8" x="57.6" y="86.55112" style="stroke: #000000; stroke-width: 0.6"/>
      </g>
     </g>
    </g>
    <g id="ytick_43">
     <g id="line2d_87">
      <g>
       <use xlink:href="#m16db82bcc8" x="57.6" y="80.55592" style="stroke: #000000; stroke-width: 0.6"/>
      </g>
     </g>
    </g>
    <g id="ytick_44">
     <g id="line2d_88">
      <g>
       <use xlink:href="#m16db82bcc8" x="57.6" y="75.905683" style="stroke: #000000; stroke-width: 0.6"/>
      </g>
     </g>
    </g>
    <g id="ytick_45">
     <g id="line2d_89">
      <g>
       <use xlink:href="#m16db82bcc8" x="57.6" y="72.106161" style="stroke: #000000; stroke-width: 0.6"/>
      </g>
     </g>
    </g>
    <g id="ytick_46">
     <g id="line2d_90">
      <g>
       <use xlink:href="#m16db82bcc8" x="57.6" y="68.893712" style="stroke: #000000; stroke-width: 0.6"/>
      </g>
     </g>
    </g>
    <g id="ytick_47">
     <g id="line2d_91">
      <g>
       <use xlink:href="#m16db82bcc8" x="57.6" y="66.110962" style="stroke: #000000; stroke-width: 0.6"/>
      </g>
     </g>
    </g>
    <g id="ytick_48">
     <g id="line2d_92">
      <g>
       <use xlink:href="#m16db82bcc8" x="57.6" y="63.656403" style="stroke: #000000; stroke-width: 0.6"/>
      </g>
     </g>
    </g>
    <g id="ytick_49">
     <g id="line2d_93">
      <g>
       <use xlink:href="#m16db82bcc8" x="57.6" y="47.015766" style="stroke: #000000; stroke-width: 0.6"/>
      </g>
     </g>
    </g>
    <g id="text_13">
     <!-- loss -->
     <g transform="translate(21.020313 184.185812) rotate(-90) scale(0.1 -0.1)">
      <defs>
       <path id="DejaVuSans-6c" d="M 603 4863 
L 1178 4863 
L 1178 0 
L 603 0 
L 603 4863 
z
" transform="scale(0.015625)"/>
       <path id="DejaVuSans-6f" d="M 1959 3097 
Q 1497 3097 1228 2736 
Q 959 2375 959 1747 
Q 959 1119 1226 758 
Q 1494 397 1959 397 
Q 2419 397 2687 759 
Q 2956 1122 2956 1747 
Q 2956 2369 2687 2733 
Q 2419 3097 1959 3097 
z
M 1959 3584 
Q 2709 3584 3137 3096 
Q 3566 2609 3566 1747 
Q 3566 888 3137 398 
Q 2709 -91 1959 -91 
Q 1206 -91 779 398 
Q 353 888 353 1747 
Q 353 2609 779 3096 
Q 1206 3584 1959 3584 
z
" transform="scale(0.015625)"/>
       <path id="DejaVuSans-73" d="M 2834 3397 
L 2834 2853 
Q 2591 2978 2328 3040 
Q 2066 3103 1784 3103 
Q 1356 3103 1142 2972 
Q 928 2841 928 2578 
Q 928 2378 1081 2264 
Q 1234 2150 1697 2047 
L 1894 2003 
Q 2506 1872 2764 1633 
Q 3022 1394 3022 966 
Q 3022 478 2636 193 
Q 2250 -91 1575 -91 
Q 1294 -91 989 -36 
Q 684 19 347 128 
L 347 722 
Q 666 556 975 473 
Q 1284 391 1588 391 
Q 1994 391 2212 530 
Q 2431 669 2431 922 
Q 2431 1156 2273 1281 
Q 2116 1406 1581 1522 
L 1381 1569 
Q 847 1681 609 1914 
Q 372 2147 372 2553 
Q 372 3047 722 3315 
Q 1072 3584 1716 3584 
Q 2034 3584 2315 3537 
Q 2597 3491 2834 3397 
z
" transform="scale(0.015625)"/>
      </defs>
      <use xlink:href="#DejaVuSans-6c"/>
      <use xlink:href="#DejaVuSans-6f" x="27.783203"/>
      <use xlink:href="#DejaVuSans-73" x="88.964844"/>
      <use xlink:href="#DejaVuSans-73" x="141.064453"/>
     </g>
    </g>
   </g>
   <g id="line2d_94">
    <path d="M 73.832727 53.568 
L 95.712126 71.038913 
L 108.510754 92.832535 
L 117.591525 84.316334 
L 124.635118 84.246716 
L 130.390153 84.272777 
L 135.255965 84.422609 
L 139.470924 84.626498 
L 143.188781 84.790689 
L 146.514517 84.903208 
L 149.523011 85.002698 
L 152.269552 85.12 
L 154.796124 85.28139 
L 157.135364 85.478221 
L 159.313145 85.679576 
L 161.350322 85.875351 
L 163.263957 86.050819 
L 165.068179 86.224778 
L 166.774827 86.394884 
L 168.393916 86.572115 
L 169.933992 86.755801 
L 171.40241 86.955769 
L 172.805543 87.163036 
L 174.14895 87.367235 
L 175.437509 87.565808 
L 176.675522 87.753845 
L 177.866807 87.942326 
L 179.014763 88.131425 
L 180.122431 88.326904 
L 181.192543 88.529385 
L 182.227564 88.734372 
L 183.229721 88.941282 
L 184.201038 89.147872 
L 185.143356 89.350036 
L 186.058356 89.545751 
L 186.947578 89.74617 
L 187.812435 89.947603 
L 188.654226 90.152288 
L 189.47415 90.35625 
L 191.052744 90.76599 
L 194.684942 91.782585 
L 197.316908 92.605656 
L 200.325402 93.627803 
L 203.593695 94.86466 
L 206.555112 96.10127 
L 209.262367 97.331926 
L 212.152713 98.765127 
L 215.161208 100.399251 
L 218.234852 102.240138 
L 221.331972 104.287011 
L 224.420819 106.526634 
L 227.234164 108.762545 
L 230.264896 111.414535 
L 233.434644 114.479322 
L 236.314935 117.536138 
L 239.290045 120.977483 
L 242.313719 124.830801 
L 245.349793 129.056972 
L 248.370816 133.70147 
L 251.356528 138.792314 
L 254.396085 144.412973 
L 257.357503 150.525792 
L 260.408797 157.293653 
L 263.425068 164.837389 
L 266.391126 172.837475 
L 269.425346 181.913605 
L 272.427996 191.523382 
L 275.43649 201.565476 
L 278.425655 209.274392 
L 281.420963 220.204032 
L 284.43745 225.066184 
L 287.445944 236.686492 
L 290.457741 242.451639 
L 293.44822 242.900596 
L 296.481278 241.496278 
L 299.472406 250.351901 
L 302.476388 246.143914 
L 305.486934 250.752025 
L 308.497293 246.554638 
L 311.500702 245.620337 
L 314.521523 245.93455 
L 317.531418 246.787775 
L 320.53482 250.677411 
L 323.544472 238.579833 
L 326.545599 240.356407 
L 329.55505 254.680227 
L 332.564415 263.03395 
L 335.5737 255.763106 
L 338.580757 247.214449 
L 341.588597 246.454276 
L 344.597092 252.929017 
L 347.609367 243.705299 
L 350.615406 257.916112 
L 353.624347 243.270505 
L 356.63203 260.294928 
L 359.640893 268.00196 
L 362.650394 264.903918 
L 365.657974 239.380264 
L 368.66536 254.932011 
L 371.674106 240.413663 
L 374.683059 269.674392 
L 377.691345 285.994004 
L 380.700028 293.342585 
L 383.707662 287.794273 
L 386.715844 279.658594 
L 389.724907 292.800467 
L 392.732885 278.920325 
L 395.742202 295.488 
" clip-path="url(#p3cbc0c1bd9)" style="fill: none; stroke-dasharray: 5.55,2.4; stroke-dashoffset: 0; stroke: #1f77b4; stroke-opacity: 0.4; stroke-width: 1.5"/>
   </g>
   <g id="line2d_95">
    <path d="M 73.832727 103.156158 
L 205.598514 178.166083 
L 227.234164 183.297969 
L 239.951123 186.706927 
L 248.990979 192.583081 
L 256.009999 200.848866 
L 261.74864 205.891126 
L 266.602738 213.723491 
L 270.808907 212.233616 
L 274.519927 217.577975 
L 277.840192 218.356631 
L 280.844209 212.194961 
L 283.587018 202.065417 
L 286.110433 213.902981 
L 288.446966 220.299136 
L 290.622401 224.914108 
L 292.657526 212.193486 
L 294.569349 203.894468 
L 296.371961 194.315079 
L 298.077168 220.065341 
L 299.694959 217.84673 
L 301.233862 203.720449 
L 302.701213 211.028324 
L 304.103373 220.502958 
L 305.445887 213.851081 
L 306.733624 211.915681 
L 307.970879 219.506481 
L 309.161462 196.446167 
L 310.308765 207.62511 
L 311.415826 224.732332 
L 312.485372 206.783153 
L 313.519863 226.229237 
L 314.521523 197.399204 
L 314.782331 213.835792 
L 315.745313 215.723286 
L 316.679784 209.643496 
L 317.587385 221.419501 
L 318.469617 229.632708 
L 319.327859 216.293645 
L 320.163383 227.527359 
L 321.770874 201.395153 
L 322.544928 203.355293 
L 323.300454 190.84614 
L 324.038317 211.492083 
L 324.759326 205.015312 
L 325.464233 226.971411 
L 326.153742 223.760751 
L 326.82851 222.368139 
L 327.489155 231.394738 
L 328.136256 205.852838 
L 328.770358 210.063953 
L 329.391971 213.181272 
L 330.00158 221.025326 
L 330.599638 213.100285 
L 331.186575 199.648133 
L 331.762797 222.480266 
L 332.328689 233.455034 
L 332.884614 197.488253 
L 333.430917 227.583341 
L 333.967926 208.116581 
L 334.495952 209.960403 
L 335.01529 215.994149 
L 335.526221 239.962402 
L 336.029014 225.161283 
L 336.523924 192.24177 
L 336.65409 203.866717 
L 337.13937 208.75243 
L 337.617302 183.962651 
L 338.088105 215.565906 
L 338.551989 213.799106 
L 339.009154 218.113198 
L 339.459793 226.091792 
L 339.904089 204.595542 
L 340.342218 238.690541 
L 340.774348 192.620238 
L 341.200643 225.293483 
L 341.621257 218.217736 
L 342.03634 217.070477 
L 342.446035 233.423631 
L 342.850481 232.201275 
L 343.24981 206.394202 
L 343.64415 190.243222 
L 344.033625 233.063544 
L 344.798447 202.676124 
L 345.174019 232.358595 
L 345.545176 211.847177 
L 345.912018 213.203499 
L 346.274646 211.408625 
L 346.633156 226.101997 
L 346.987639 219.477601 
L 347.338186 204.991425 
L 347.684882 216.047461 
L 348.027812 242.04072 
L 348.367056 226.191503 
L 349.034798 209.799875 
L 349.363446 210.293893 
L 349.450171 220.409077 
L 349.774544 204.89875 
L 350.413459 234.702998 
L 350.728131 166.74835 
L 351.039697 212.232457 
L 351.348218 233.272456 
L 351.653753 224.493798 
L 351.956358 247.958709 
L 352.256091 214.809052 
L 352.553003 206.842117 
L 352.847149 228.141271 
L 353.138579 222.760694 
L 353.427343 237.140203 
L 353.71349 202.0359 
L 353.997065 208.598331 
L 354.278116 229.773225 
L 354.556686 229.986348 
L 355.106558 203.885325 
L 355.647016 223.311848 
L 355.913813 185.661449 
L 356.440737 232.210214 
L 356.959009 186.507319 
L 357.468909 234.553572 
L 357.720803 227.053564 
L 357.970703 238.589058 
L 358.21864 225.10074 
L 358.464644 227.879133 
L 358.529668 207.699547 
L 358.77327 232.084105 
L 359.015006 232.970662 
L 359.254905 214.833318 
L 359.492994 243.856963 
L 359.729301 208.720032 
L 359.963852 228.373739 
L 360.42779 226.230493 
L 360.657226 242.283584 
L 360.885007 219.021128 
L 361.111156 226.443368 
L 361.335696 207.681647 
L 361.55865 232.846484 
L 361.780041 218.399264 
L 361.999889 212.308993 
L 362.218217 224.718177 
L 362.435045 225.812871 
L 362.650394 190.183327 
L 362.864283 208.759826 
L 363.287763 217.168054 
L 363.497391 203.744597 
L 363.705636 215.359035 
L 363.912517 235.857612 
L 364.11805 208.861163 
L 364.322254 221.311001 
L 364.525145 202.757852 
L 364.927056 206.061729 
L 365.126109 220.411607 
L 365.323914 219.820051 
L 365.520487 240.434926 
L 365.572497 193.950066 
L 365.961372 231.720652 
L 366.154027 227.13858 
L 366.345514 240.781077 
L 366.535846 229.691752 
L 366.725038 230.226889 
L 367.100052 208.392008 
L 367.285902 236.237963 
L 367.470663 197.376308 
L 367.65435 228.838485 
L 367.836974 210.646999 
L 368.018547 234.311798 
L 368.37859 225.653933 
L 368.557083 196.467571 
L 368.734573 210.486533 
L 368.91107 210.545435 
L 369.086585 234.720983 
L 369.26113 235.891379 
L 369.607351 223.674899 
L 369.779048 256.383105 
L 370.119665 217.302622 
L 370.288605 237.433743 
L 370.456645 224.890612 
L 370.623796 225.516623 
L 370.790067 171.209269 
L 370.955466 218.29943 
L 371.283686 235.738122 
L 371.327022 209.025253 
L 371.489639 239.637513 
L 371.81238 224.55883 
L 371.972521 204.241043 
L 372.131854 231.209935 
L 372.290387 218.5848 
L 372.448127 216.393782 
L 372.605084 219.006301 
L 372.761263 225.702371 
L 372.916674 211.399246 
L 373.071323 247.442796 
L 373.378367 239.649061 
L 373.530776 249.6864 
L 373.682453 227.720243 
L 373.983637 243.161307 
L 374.133159 202.90146 
L 374.281975 198.386947 
L 374.430093 240.855296 
L 374.57752 238.905701 
L 374.724261 234.857026 
L 374.870322 247.513104 
L 375.015712 249.33587 
L 375.160434 225.004608 
L 375.304496 236.87316 
L 375.447904 206.582588 
L 375.590663 205.745578 
L 375.732779 228.07368 
L 375.874258 230.993712 
L 376.015106 220.191505 
L 376.155329 243.012053 
L 376.192471 241.621119 
L 376.331909 241.358453 
L 376.470734 227.438069 
L 376.608951 247.330586 
L 376.746566 216.2696 
L 376.883583 229.701474 
L 377.020008 222.834753 
L 377.155846 227.50518 
L 377.291102 219.947344 
L 377.425781 233.733163 
L 377.559888 231.250907 
L 377.826404 222.814862 
L 377.958823 221.200027 
L 378.222005 249.76355 
L 378.352778 206.940425 
L 378.483012 204.072876 
L 378.61271 220.60599 
L 378.741878 252.017716 
L 378.998638 210.712184 
L 379.126239 240.956564 
L 379.253327 211.608559 
L 379.379905 243.972833 
L 379.505977 230.623816 
L 379.631548 203.925211 
L 379.8812 241.527389 
L 380.00529 242.492857 
L 380.128894 226.259379 
L 380.252016 239.819786 
L 380.374659 237.51174 
L 380.407156 253.631384 
L 380.5292 236.723345 
L 380.650773 246.64031 
L 380.892523 227.762191 
L 381.012708 254.331116 
L 381.132437 211.819379 
L 381.251713 239.972367 
L 381.37054 224.437452 
L 381.488922 249.612844 
L 381.606861 214.853616 
L 381.724361 251.848235 
L 381.841426 203.353109 
L 382.190036 239.414374 
L 382.420323 212.124255 
L 382.534839 226.120781 
L 382.648941 221.535261 
L 382.762633 211.047219 
L 382.875916 260.773599 
L 382.988794 217.515906 
L 383.10127 223.298411 
L 383.213347 243.728054 
L 383.547209 214.467479 
L 383.767838 239.482489 
L 383.877576 217.466239 
L 383.986935 225.920206 
L 384.124801 208.009817 
L 384.449209 247.706033 
L 384.556608 215.202634 
L 384.770317 243.540861 
L 384.982588 228.83874 
L 385.088191 247.777082 
L 385.193442 239.472565 
L 385.298343 258.449258 
L 385.507104 219.750866 
L 385.61097 257.984141 
L 385.817681 235.300308 
L 385.920531 237.984281 
L 386.023047 212.587974 
L 386.125231 225.957599 
L 386.227085 223.125875 
L 386.328612 211.781364 
L 386.429813 232.005852 
L 386.530691 207.850373 
L 386.631248 213.291125 
L 386.731485 244.769548 
L 386.831405 223.163627 
L 386.93101 249.081394 
L 387.030301 192.081545 
L 387.129281 247.736243 
L 387.227951 239.845479 
L 387.326314 247.177328 
L 387.424372 224.591766 
L 387.450367 243.371806 
L 387.548041 228.659898 
L 387.742486 254.852853 
L 387.839261 217.45926 
L 387.93574 235.289058 
L 388.031926 221.731405 
L 388.223421 253.493275 
L 388.508504 225.034123 
L 388.602963 246.094885 
L 388.697139 242.95415 
L 388.791036 234.420428 
L 388.884654 213.166835 
L 389.071061 249.448821 
L 389.163853 218.361374 
L 389.256373 221.942535 
L 389.348623 238.422962 
L 389.440604 221.425018 
L 389.532318 238.043483 
L 389.623766 224.510045 
L 389.71495 235.972432 
L 389.805871 235.473296 
L 389.896532 240.420588 
L 389.986932 182.081061 
L 390.16696 240.445972 
L 390.256591 242.352604 
L 390.345967 227.429892 
L 390.458723 259.688093 
L 390.54753 235.291483 
L 390.636088 265.185321 
L 390.724398 217.529266 
L 390.812461 241.474704 
L 390.90028 232.162962 
L 390.987855 258.171838 
L 391.075188 230.537119 
L 391.16228 233.702191 
L 391.335745 190.793694 
L 391.59417 246.755386 
L 391.679843 253.573775 
L 391.765285 239.367969 
L 391.850496 240.437833 
L 391.935477 257.367415 
L 392.020231 241.213831 
L 392.189058 255.299026 
L 392.273134 230.197432 
L 392.356987 234.821834 
L 392.440617 243.152949 
L 392.607217 236.364315 
L 392.690188 240.89338 
L 392.855478 231.412425 
L 392.9378 238.396052 
L 393.019908 232.169301 
L 393.183486 258.356706 
L 393.205147 213.452844 
L 393.286564 240.566685 
L 393.36777 210.567439 
L 393.52956 239.060818 
L 393.610144 198.745328 
L 393.850672 241.629727 
L 393.930442 250.254703 
L 394.010011 246.683941 
L 394.08938 263.173241 
L 394.247522 241.921246 
L 394.404876 250.925259 
L 394.561449 221.360414 
L 394.639445 228.602802 
L 394.717249 213.64878 
L 394.949517 247.263222 
L 395.026561 224.903383 
L 395.103418 246.466074 
L 395.180088 239.495562 
L 395.256572 245.315627 
L 395.332872 222.443143 
L 395.408987 235.889521 
L 395.484919 227.115619 
L 395.56067 228.686331 
L 395.711627 260.03253 
L 395.806783 189.804773 
L 395.95657 238.712633 
L 396.031198 240.931231 
L 396.10565 253.401472 
L 396.179927 243.524613 
L 396.254029 244.753116 
L 396.327958 252.054498 
L 396.401714 237.194743 
L 396.548711 261.309768 
L 396.621954 230.148519 
L 396.695027 230.965713 
L 396.913237 248.022299 
L 397.057877 228.685196 
L 397.201857 241.20041 
L 397.273601 224.647404 
L 397.345183 241.569213 
L 397.416603 237.815365 
L 397.487861 243.041349 
L 397.558959 205.095068 
L 397.700677 245.526745 
L 397.771298 220.086733 
L 397.841761 247.656639 
L 397.912067 221.064713 
L 397.982217 228.677642 
L 398.070778 216.37807 
L 398.140576 176.871761 
L 398.349051 258.903175 
L 398.487273 231.968583 
L 398.487273 231.968583 
" clip-path="url(#p3cbc0c1bd9)" style="fill: none; stroke: #1f77b4; stroke-opacity: 0.2; stroke-width: 1.5; stroke-linecap: square"/>
   </g>
   <g id="line2d_96">
    <path d="M 73.832727 103.156158 
L 205.598514 178.166083 
L 227.234164 183.297969 
L 239.951123 186.706927 
L 248.990979 192.583081 
L 256.009999 200.848866 
L 261.74864 205.891126 
L 266.602738 213.723491 
L 270.808907 213.723491 
L 274.519927 217.577975 
L 277.840192 218.356631 
L 286.110433 218.356631 
L 288.446966 220.299136 
L 290.622401 224.914108 
L 312.485372 224.914108 
L 313.519863 226.229237 
L 317.587385 226.229237 
L 318.469617 229.632708 
L 326.82851 229.632708 
L 327.489155 231.394738 
L 331.762797 231.394738 
L 332.328689 233.455034 
L 335.01529 233.455034 
L 335.526221 239.962402 
L 347.684882 239.962402 
L 348.027812 242.04072 
L 351.653753 242.04072 
L 351.956358 247.958709 
L 369.607351 247.958709 
L 369.779048 256.383105 
L 382.762633 256.383105 
L 382.875916 260.773599 
L 390.54753 260.773599 
L 390.724398 265.185321 
L 398.487273 265.185321 
L 398.487273 265.185321 
" clip-path="url(#p3cbc0c1bd9)" style="fill: none; stroke: #1f77b4; stroke-opacity: 0.9; stroke-width: 1.5; stroke-linecap: square"/>
   </g>
   <g id="line2d_97">
    <path d="M 73.832727 146.759296 
L 95.712126 154.991579 
L 108.510754 144.583859 
L 117.591525 143.320027 
L 124.635118 143.307434 
L 130.390153 143.394773 
L 135.255965 143.471528 
L 139.470924 143.555374 
L 143.188781 143.577393 
L 146.514517 143.553134 
L 149.523011 143.537573 
L 152.269552 143.598094 
L 154.796124 143.709783 
L 157.135364 143.801451 
L 159.313145 143.852228 
L 161.350322 143.921091 
L 163.263957 144.010302 
L 165.068179 144.014736 
L 166.774827 144.089142 
L 168.393916 144.209882 
L 169.933992 144.27397 
L 171.40241 144.403865 
L 172.805543 144.501064 
L 174.14895 144.56306 
L 175.437509 144.685335 
L 176.675522 144.751542 
L 177.866807 144.843083 
L 179.014763 144.951893 
L 180.122431 145.04732 
L 181.192543 145.165896 
L 182.227564 145.279852 
L 183.229721 145.372894 
L 184.201038 145.458917 
L 185.143356 145.518997 
L 186.058356 145.594136 
L 186.947578 145.699681 
L 187.812435 145.839096 
L 188.654226 145.922297 
L 189.47415 146.016975 
L 191.052744 146.183986 
L 194.684942 146.591452 
L 197.316908 146.839679 
L 200.325402 147.233097 
L 203.593695 147.758761 
L 206.555112 148.33492 
L 209.262367 148.799402 
L 212.152713 149.249774 
L 215.161208 149.654528 
L 218.234852 150.240743 
L 221.331972 150.919872 
L 224.420819 151.433819 
L 227.234164 152.087421 
L 230.264896 152.740938 
L 233.434644 153.65027 
L 236.314935 154.332366 
L 239.290045 154.879495 
L 242.313719 155.389563 
L 245.349793 155.983578 
L 248.370816 156.577744 
L 251.356528 157.358791 
L 254.396085 159.070203 
L 257.357503 161.834612 
L 260.408797 164.791542 
L 263.425068 168.813826 
L 266.391126 172.376045 
L 269.425346 176.440921 
L 272.427996 180.380837 
L 275.43649 184.172083 
L 278.425655 187.043816 
L 281.420963 190.894323 
L 284.43745 193.69456 
L 287.445944 195.04189 
L 290.457741 195.745029 
L 293.44822 199.474942 
L 296.481278 202.671607 
L 299.472406 204.88226 
L 302.476388 207.59497 
L 305.486934 206.466795 
L 308.497293 209.607284 
L 311.500702 212.357251 
L 314.521523 212.153543 
L 317.531418 214.974434 
L 320.53482 214.512443 
L 323.544472 217.014374 
L 326.545599 218.994336 
L 329.55505 220.06828 
L 332.564415 222.203986 
L 335.5737 225.756719 
L 338.580757 224.546783 
L 341.588597 223.996795 
L 344.597092 230.636789 
L 347.609367 232.444706 
L 350.615406 230.787754 
L 353.624347 232.313289 
L 356.63203 232.9471 
L 359.640893 239.121991 
L 362.650394 235.178979 
L 365.657974 237.28692 
L 368.66536 239.610874 
L 371.674106 244.885304 
L 374.683059 247.891766 
L 377.691345 250.352619 
L 380.700028 252.372627 
L 383.707662 257.32408 
L 386.715844 238.83794 
L 389.724907 258.776742 
L 392.732885 259.033582 
L 395.742202 246.169008 
" clip-path="url(#p3cbc0c1bd9)" style="fill: none; stroke-dasharray: 5.55,2.4; stroke-dashoffset: 0; stroke: #ff7f0e; stroke-opacity: 0.4; stroke-width: 1.5"/>
   </g>
   <g id="line2d_98">
    <path d="M 73.832727 160.402619 
L 205.598514 162.985635 
L 227.234164 163.144456 
L 239.951123 161.62827 
L 248.990979 163.623487 
L 256.009999 168.833547 
L 261.74864 172.464499 
L 266.602738 176.920546 
L 270.808907 170.567252 
L 274.519927 171.759767 
L 277.840192 178.460014 
L 280.844209 179.474193 
L 283.587018 182.256942 
L 286.110433 180.599491 
L 288.446966 187.020923 
L 290.622401 188.14625 
L 292.657526 183.844422 
L 294.569349 189.525341 
L 296.371961 188.551855 
L 298.077168 191.345359 
L 299.694959 194.31874 
L 301.233862 189.40532 
L 302.701213 194.717712 
L 304.103373 188.543024 
L 305.445887 190.771045 
L 306.733624 195.767634 
L 307.970879 197.382039 
L 309.161462 197.368553 
L 310.308765 197.176982 
L 311.415826 196.068991 
L 312.485372 186.393541 
L 313.519863 189.857465 
L 314.521523 193.616063 
L 314.782331 196.66167 
L 315.745313 197.134794 
L 316.679784 201.179671 
L 317.587385 196.915952 
L 318.469617 195.575105 
L 319.327859 199.291226 
L 320.163383 192.884903 
L 320.977361 196.863505 
L 321.770874 197.71726 
L 322.544928 190.949479 
L 324.038317 202.845039 
L 324.759326 196.645716 
L 325.464233 203.084407 
L 326.153742 198.842555 
L 326.82851 201.176318 
L 327.489155 200.053998 
L 328.136256 204.425276 
L 328.770358 198.774437 
L 329.391971 202.875957 
L 330.00158 202.060872 
L 330.599638 202.057877 
L 331.186575 201.610575 
L 331.762797 202.576787 
L 332.328689 199.054154 
L 332.884614 204.626326 
L 333.430917 202.140564 
L 333.967926 197.504681 
L 334.495952 205.174707 
L 335.01529 208.027714 
L 335.526221 205.638466 
L 336.029014 199.495499 
L 336.523924 197.564467 
L 336.65409 204.199582 
L 337.13937 202.662059 
L 338.088105 185.184109 
L 338.551989 197.336429 
L 339.009154 198.910352 
L 339.459793 194.931006 
L 339.904089 197.538238 
L 340.342218 205.228772 
L 340.774348 208.194965 
L 341.200643 186.901968 
L 341.621257 206.142457 
L 342.03634 192.691177 
L 342.446035 207.477029 
L 342.850481 209.647732 
L 343.24981 206.483178 
L 343.64415 201.654763 
L 344.033625 202.911344 
L 344.418352 209.160697 
L 344.798447 204.609143 
L 345.174019 198.31089 
L 345.912018 210.309237 
L 346.274646 207.352715 
L 346.633156 205.828206 
L 346.987639 207.395229 
L 347.338186 206.726839 
L 347.684882 197.700992 
L 348.027812 194.614558 
L 348.367056 195.993283 
L 348.702693 204.573412 
L 349.034798 204.460133 
L 349.363446 205.946646 
L 349.450171 207.270518 
L 349.774544 202.878518 
L 350.095618 203.80426 
L 350.413459 198.07616 
L 350.728131 208.747144 
L 351.039697 201.420791 
L 351.348218 204.547856 
L 351.956358 206.888565 
L 352.256091 210.570621 
L 352.553003 206.741756 
L 352.847149 197.251458 
L 353.138579 207.935582 
L 353.427343 200.396349 
L 353.71349 211.846792 
L 353.997065 201.277304 
L 354.278116 204.007736 
L 354.556686 201.743573 
L 354.83282 208.726512 
L 355.106558 202.765333 
L 355.377944 206.828591 
L 355.647016 208.35192 
L 355.913813 205.788135 
L 356.178375 211.260824 
L 356.440737 209.683491 
L 356.700937 211.420493 
L 356.959009 210.871982 
L 357.214989 197.109329 
L 357.468909 212.176642 
L 357.720803 207.494751 
L 357.970703 212.937379 
L 358.21864 198.469819 
L 358.464644 211.516592 
L 358.529668 198.403221 
L 358.77327 212.340539 
L 359.015006 200.80327 
L 359.254905 213.316861 
L 359.492994 210.05904 
L 359.729301 210.986058 
L 359.963852 209.614982 
L 360.196674 213.69197 
L 360.42779 204.599911 
L 360.657226 202.134246 
L 360.885007 212.697977 
L 361.111156 205.818671 
L 361.335696 210.576887 
L 361.55865 203.305633 
L 361.780041 212.148213 
L 361.999889 213.132715 
L 362.218217 207.55312 
L 362.435045 212.114197 
L 362.650394 204.644909 
L 362.864283 206.851774 
L 363.076733 202.031939 
L 363.287763 212.885451 
L 363.497391 201.406988 
L 363.705636 215.479133 
L 363.912517 214.512817 
L 364.11805 210.599092 
L 364.525145 213.106557 
L 364.72674 210.91522 
L 364.927056 212.067382 
L 365.126109 211.474816 
L 365.520487 204.214361 
L 365.572497 210.007554 
L 365.767533 210.976962 
L 365.961372 205.353606 
L 366.345514 213.852087 
L 366.535846 204.425985 
L 367.100052 214.414613 
L 367.285902 207.371543 
L 367.470663 214.444986 
L 367.65435 215.264312 
L 367.836974 203.988892 
L 368.018547 214.996731 
L 368.199082 214.954375 
L 368.37859 207.84469 
L 368.734573 214.753736 
L 368.91107 214.08779 
L 369.086585 214.663037 
L 369.26113 212.843354 
L 369.434715 216.050572 
L 369.607351 216.513978 
L 369.779048 217.943335 
L 369.949816 211.919211 
L 370.119665 214.492293 
L 370.288605 210.808735 
L 370.456645 215.975094 
L 370.623796 216.210664 
L 370.790067 215.520562 
L 370.955466 198.199761 
L 371.120002 216.788253 
L 371.283686 212.767355 
L 371.327022 216.914569 
L 371.489639 200.345295 
L 371.651422 215.167562 
L 371.972521 217.042077 
L 372.131854 210.679278 
L 372.290387 216.813087 
L 372.448127 213.82038 
L 372.605084 205.810527 
L 372.761263 215.413352 
L 372.916674 215.822232 
L 373.071323 211.287052 
L 373.225218 210.93673 
L 373.378367 216.800823 
L 373.530776 216.150517 
L 373.682453 217.189116 
L 373.833404 216.787419 
L 373.983637 216.825342 
L 374.133159 213.75042 
L 374.281975 218.082197 
L 374.430093 216.988049 
L 374.57752 209.501848 
L 374.724261 213.669488 
L 374.870322 205.748516 
L 375.160434 219.637175 
L 375.304496 218.37103 
L 375.447904 203.35116 
L 375.590663 217.395412 
L 375.732779 218.105089 
L 375.874258 207.783338 
L 376.155329 219.169001 
L 376.192471 213.69042 
L 376.608951 222.072667 
L 376.746566 211.107648 
L 376.883583 218.389092 
L 377.020008 219.10157 
L 377.155846 218.641324 
L 377.425781 211.726759 
L 377.559888 218.619246 
L 377.693427 218.093391 
L 377.826404 223.179159 
L 377.958823 221.558132 
L 378.090688 215.145198 
L 378.222005 217.639408 
L 378.352778 214.677561 
L 378.483012 216.127334 
L 378.61271 220.040042 
L 378.741878 219.489901 
L 378.870519 222.965651 
L 378.998638 222.269892 
L 379.126239 220.516386 
L 379.379905 188.918799 
L 379.505977 217.366578 
L 379.631548 206.670639 
L 379.756621 220.243046 
L 380.00529 208.354455 
L 380.128894 222.01827 
L 380.252016 223.175369 
L 380.374659 222.900723 
L 380.5292 219.154144 
L 380.650773 219.914697 
L 380.77188 219.363941 
L 380.892523 224.627011 
L 381.251713 219.758632 
L 381.37054 222.331379 
L 381.488922 200.824106 
L 381.606861 214.881161 
L 381.958058 217.361614 
L 382.07426 219.739814 
L 382.190036 218.836113 
L 382.30539 201.359092 
L 382.420323 220.604936 
L 382.762633 214.913908 
L 382.875916 219.523291 
L 382.988794 219.476952 
L 383.10127 209.124668 
L 383.325027 222.01459 
L 383.547209 220.395692 
L 383.657716 224.220245 
L 383.877576 217.19872 
L 383.986935 222.70917 
L 384.095916 220.067679 
L 384.124801 216.613169 
L 384.233308 222.976623 
L 384.341443 222.711216 
L 384.556608 211.013689 
L 384.663643 220.390026 
L 384.770317 207.730763 
L 384.876631 224.4722 
L 384.982588 218.976924 
L 385.088191 224.346358 
L 385.298343 219.565288 
L 385.402896 213.094117 
L 385.714494 225.811886 
L 385.817681 222.249577 
L 385.920531 223.209437 
L 386.023047 210.740314 
L 386.125231 215.174716 
L 386.227085 227.908331 
L 386.328612 227.503105 
L 386.429813 199.6938 
L 386.530691 215.305836 
L 386.631248 212.444488 
L 386.831405 217.272582 
L 386.93101 216.131989 
L 387.030301 218.448681 
L 387.129281 204.986168 
L 387.227951 221.078137 
L 387.326314 220.437562 
L 387.424372 220.681138 
L 387.450367 219.059575 
L 387.548041 203.146647 
L 387.742486 220.877587 
L 387.839261 218.496169 
L 387.93574 221.70613 
L 388.031926 221.375693 
L 388.127819 222.370997 
L 388.223421 213.470305 
L 388.413763 223.34408 
L 388.508504 214.672019 
L 388.697139 222.126433 
L 388.791036 207.304635 
L 388.884654 223.41112 
L 388.977995 217.267997 
L 389.163853 221.661789 
L 389.256373 218.677276 
L 389.348623 224.340996 
L 389.440604 221.028599 
L 389.623766 224.381672 
L 389.805871 212.015597 
L 389.896532 223.99893 
L 389.986932 223.241097 
L 390.077074 222.578462 
L 390.16696 220.329652 
L 390.256591 223.360773 
L 390.345967 220.786813 
L 390.435091 212.035345 
L 390.458723 219.059833 
L 390.636088 227.290964 
L 390.724398 224.62023 
L 390.812461 224.747791 
L 390.987855 226.875384 
L 391.075188 224.503485 
L 391.16228 216.526117 
L 391.249132 228.04579 
L 391.335745 225.849323 
L 391.422122 222.379299 
L 391.508263 227.382694 
L 391.59417 225.927303 
L 391.679843 226.25289 
L 391.765285 226.163114 
L 391.850496 217.381964 
L 392.020231 227.601148 
L 392.104757 225.389813 
L 392.189058 227.695558 
L 392.273134 223.497744 
L 392.356987 229.741897 
L 392.440617 229.466881 
L 392.524027 219.190825 
L 392.607217 229.180125 
L 392.690188 221.483257 
L 392.772941 223.871111 
L 392.855478 228.908736 
L 392.9378 227.485334 
L 393.101803 224.267128 
L 393.183486 229.600327 
L 393.205147 229.023637 
L 393.286564 223.771963 
L 393.36777 224.983602 
L 393.52956 229.050082 
L 393.610144 212.159828 
L 393.690524 214.504804 
L 393.850672 227.535332 
L 393.930442 223.61008 
L 394.08938 228.235669 
L 394.16855 226.911948 
L 394.247522 228.579399 
L 394.326297 225.190105 
L 394.561449 229.665129 
L 394.639445 222.424905 
L 394.794861 229.868237 
L 394.949517 227.871618 
L 395.026561 228.125898 
L 395.103418 224.893625 
L 395.256572 231.061605 
L 395.332872 224.216929 
L 395.408987 229.27449 
L 395.56067 223.74562 
L 395.636238 221.972942 
L 395.731621 222.326212 
L 395.881765 225.765291 
L 395.95657 220.05968 
L 396.10565 229.159769 
L 396.179927 226.174713 
L 396.327958 229.871604 
L 396.401714 225.277393 
L 396.475298 231.649527 
L 396.548711 230.189465 
L 396.621954 231.295119 
L 396.840668 228.259994 
L 396.98564 232.648175 
L 397.057877 230.05824 
L 397.201857 232.262178 
L 397.273601 226.498259 
L 397.345183 229.440088 
L 397.416603 224.96283 
L 397.558959 231.353025 
L 397.629898 222.507242 
L 397.771298 230.936805 
L 397.841761 228.44171 
L 397.982217 230.660957 
L 398.052212 230.105841 
L 398.070778 225.809663 
L 398.140576 230.981837 
L 398.210221 229.954217 
L 398.279712 222.899895 
L 398.349051 231.068264 
L 398.418237 228.05496 
L 398.487273 231.395185 
L 398.487273 231.395185 
" clip-path="url(#p3cbc0c1bd9)" style="fill: none; stroke: #ff7f0e; stroke-opacity: 0.2; stroke-width: 1.5; stroke-linecap: square"/>
   </g>
   <g id="line2d_99">
    <path d="M 73.832727 160.402619 
L 205.598514 162.985635 
L 239.951123 163.144456 
L 248.990979 163.623487 
L 256.009999 168.833547 
L 261.74864 172.464499 
L 266.602738 176.920546 
L 274.519927 176.920546 
L 277.840192 178.460014 
L 280.844209 179.474193 
L 283.587018 182.256942 
L 286.110433 182.256942 
L 288.446966 187.020923 
L 290.622401 188.14625 
L 292.657526 188.14625 
L 294.569349 189.525341 
L 296.371961 189.525341 
L 298.077168 191.345359 
L 299.694959 194.31874 
L 301.233862 194.31874 
L 302.701213 194.717712 
L 305.445887 194.717712 
L 306.733624 195.767634 
L 307.970879 197.382039 
L 315.745313 197.382039 
L 316.679784 201.179671 
L 323.300454 201.179671 
L 324.038317 202.845039 
L 324.759326 202.845039 
L 325.464233 203.084407 
L 327.489155 203.084407 
L 328.136256 204.425276 
L 332.328689 204.425276 
L 332.884614 204.626326 
L 333.967926 204.626326 
L 334.495952 205.174707 
L 335.01529 208.027714 
L 340.342218 208.027714 
L 340.774348 208.194965 
L 342.446035 208.194965 
L 342.850481 209.647732 
L 345.545176 209.647732 
L 345.912018 210.309237 
L 351.956358 210.309237 
L 352.256091 210.570621 
L 353.427343 210.570621 
L 353.71349 211.846792 
L 357.214989 211.846792 
L 357.468909 212.176642 
L 357.720803 212.176642 
L 357.970703 212.937379 
L 359.015006 212.937379 
L 359.254905 213.316861 
L 359.963852 213.316861 
L 360.196674 213.69197 
L 363.497391 213.69197 
L 363.705636 215.479133 
L 369.26113 215.479133 
L 369.607351 216.513978 
L 369.779048 217.943335 
L 374.133159 217.943335 
L 374.430093 218.082197 
L 375.015712 218.082197 
L 375.160434 219.637175 
L 376.470734 219.637175 
L 376.608951 222.072667 
L 377.693427 222.072667 
L 377.826404 223.179159 
L 380.77188 223.179159 
L 380.892523 224.627011 
L 385.61097 224.627011 
L 385.817681 225.811886 
L 386.125231 225.811886 
L 386.328612 227.908331 
L 391.16228 227.908331 
L 391.335745 228.04579 
L 392.273134 228.04579 
L 392.440617 229.741897 
L 394.717249 229.741897 
L 394.872284 229.868237 
L 395.103418 229.868237 
L 395.332872 231.061605 
L 396.401714 231.061605 
L 396.548711 231.649527 
L 396.840668 231.649527 
L 397.057877 232.648175 
L 398.487273 232.648175 
L 398.487273 232.648175 
" clip-path="url(#p3cbc0c1bd9)" style="fill: none; stroke: #ff7f0e; stroke-opacity: 0.9; stroke-width: 1.5; stroke-linecap: square"/>
   </g>
   <g id="patch_3">
    <path d="M 57.6 307.584 
L 57.6 41.472 
" style="fill: none; stroke: #000000; stroke-width: 0.8; stroke-linejoin: miter; stroke-linecap: square"/>
   </g>
   <g id="patch_4">
    <path d="M 414.72 307.584 
L 414.72 41.472 
" style="fill: none; stroke: #000000; stroke-width: 0.8; stroke-linejoin: miter; stroke-linecap: square"/>
   </g>
   <g id="patch_5">
    <path d="M 57.6 307.584 
L 414.72 307.584 
" style="fill: none; stroke: #000000; stroke-width: 0.8; stroke-linejoin: miter; stroke-linecap: square"/>
   </g>
   <g id="patch_6">
    <path d="M 57.6 41.472 
L 414.72 41.472 
" style="fill: none; stroke: #000000; stroke-width: 0.8; stroke-linejoin: miter; stroke-linecap: square"/>
   </g>
   <g id="text_14">
    <!-- 2025-02-14-05:14:56 -->
    <g transform="translate(172.178438 35.472) scale(0.12 -0.12)">
     <defs>
      <path id="DejaVuSans-35" d="M 691 4666 
L 3169 4666 
L 3169 4134 
L 1269 4134 
L 1269 2991 
Q 1406 3038 1543 3061 
Q 1681 3084 1819 3084 
Q 2600 3084 3056 2656 
Q 3513 2228 3513 1497 
Q 3513 744 3044 326 
Q 2575 -91 1722 -91 
Q 1428 -91 1123 -41 
Q 819 9 494 109 
L 494 744 
Q 775 591 1075 516 
Q 1375 441 1709 441 
Q 2250 441 2565 725 
Q 2881 1009 2881 1497 
Q 2881 1984 2565 2268 
Q 2250 2553 1709 2553 
Q 1456 2553 1204 2497 
Q 953 2441 691 2322 
L 691 4666 
z
" transform="scale(0.015625)"/>
      <path id="DejaVuSans-2d" d="M 313 2009 
L 1997 2009 
L 1997 1497 
L 313 1497 
L 313 2009 
z
" transform="scale(0.015625)"/>
      <path id="DejaVuSans-3a" d="M 750 794 
L 1409 794 
L 1409 0 
L 750 0 
L 750 794 
z
M 750 3309 
L 1409 3309 
L 1409 2516 
L 750 2516 
L 750 3309 
z
" transform="scale(0.015625)"/>
      <path id="DejaVuSans-36" d="M 2113 2584 
Q 1688 2584 1439 2293 
Q 1191 2003 1191 1497 
Q 1191 994 1439 701 
Q 1688 409 2113 409 
Q 2538 409 2786 701 
Q 3034 994 3034 1497 
Q 3034 2003 2786 2293 
Q 2538 2584 2113 2584 
z
M 3366 4563 
L 3366 3988 
Q 3128 4100 2886 4159 
Q 2644 4219 2406 4219 
Q 1781 4219 1451 3797 
Q 1122 3375 1075 2522 
Q 1259 2794 1537 2939 
Q 1816 3084 2150 3084 
Q 2853 3084 3261 2657 
Q 3669 2231 3669 1497 
Q 3669 778 3244 343 
Q 2819 -91 2113 -91 
Q 1303 -91 875 529 
Q 447 1150 447 2328 
Q 447 3434 972 4092 
Q 1497 4750 2381 4750 
Q 2619 4750 2861 4703 
Q 3103 4656 3366 4563 
z
" transform="scale(0.015625)"/>
     </defs>
     <use xlink:href="#DejaVuSans-32"/>
     <use xlink:href="#DejaVuSans-30" x="63.623047"/>
     <use xlink:href="#DejaVuSans-32" x="127.246094"/>
     <use xlink:href="#DejaVuSans-35" x="190.869141"/>
     <use xlink:href="#DejaVuSans-2d" x="254.492188"/>
     <use xlink:href="#DejaVuSans-30" x="290.576172"/>
     <use xlink:href="#DejaVuSans-32" x="354.199219"/>
     <use xlink:href="#DejaVuSans-2d" x="417.822266"/>
     <use xlink:href="#DejaVuSans-31" x="453.90625"/>
     <use xlink:href="#DejaVuSans-34" x="517.529297"/>
     <use xlink:href="#DejaVuSans-2d" x="581.152344"/>
     <use xlink:href="#DejaVuSans-30" x="617.236328"/>
     <use xlink:href="#DejaVuSans-35" x="680.859375"/>
     <use xlink:href="#DejaVuSans-3a" x="744.482422"/>
     <use xlink:href="#DejaVuSans-31" x="778.173828"/>
     <use xlink:href="#DejaVuSans-34" x="841.796875"/>
     <use xlink:href="#DejaVuSans-3a" x="905.419922"/>
     <use xlink:href="#DejaVuSans-35" x="939.111328"/>
     <use xlink:href="#DejaVuSans-36" x="1002.734375"/>
    </g>
   </g>
   <g id="legend_1">
    <g id="patch_7">
     <path d="M 272.171562 108.74075 
L 407.72 108.74075 
Q 409.72 108.74075 409.72 106.74075 
L 409.72 48.472 
Q 409.72 46.472 407.72 46.472 
L 272.171562 46.472 
Q 270.171562 46.472 270.171562 48.472 
L 270.171562 106.74075 
Q 270.171562 108.74075 272.171562 108.74075 
z
" style="fill: #ffffff; opacity: 0.8; stroke: #cccccc; stroke-linejoin: miter"/>
    </g>
    <g id="line2d_100">
     <path d="M 274.171562 54.570438 
L 284.171562 54.570438 
L 294.171562 54.570438 
" style="fill: none; stroke-dasharray: 5.55,2.4; stroke-dashoffset: 0; stroke: #1f77b4; stroke-opacity: 0.4; stroke-width: 1.5"/>
    </g>
    <g id="text_15">
     <!-- SchNet MEA -->
     <g transform="translate(302.171562 58.070438) scale(0.1 -0.1)">
      <defs>
       <path id="DejaVuSans-53" d="M 3425 4513 
L 3425 3897 
Q 3066 4069 2747 4153 
Q 2428 4238 2131 4238 
Q 1616 4238 1336 4038 
Q 1056 3838 1056 3469 
Q 1056 3159 1242 3001 
Q 1428 2844 1947 2747 
L 2328 2669 
Q 3034 2534 3370 2195 
Q 3706 1856 3706 1288 
Q 3706 609 3251 259 
Q 2797 -91 1919 -91 
Q 1588 -91 1214 -16 
Q 841 59 441 206 
L 441 856 
Q 825 641 1194 531 
Q 1563 422 1919 422 
Q 2459 422 2753 634 
Q 3047 847 3047 1241 
Q 3047 1584 2836 1778 
Q 2625 1972 2144 2069 
L 1759 2144 
Q 1053 2284 737 2584 
Q 422 2884 422 3419 
Q 422 4038 858 4394 
Q 1294 4750 2059 4750 
Q 2388 4750 2728 4690 
Q 3069 4631 3425 4513 
z
" transform="scale(0.015625)"/>
       <path id="DejaVuSans-63" d="M 3122 3366 
L 3122 2828 
Q 2878 2963 2633 3030 
Q 2388 3097 2138 3097 
Q 1578 3097 1268 2742 
Q 959 2388 959 1747 
Q 959 1106 1268 751 
Q 1578 397 2138 397 
Q 2388 397 2633 464 
Q 2878 531 3122 666 
L 3122 134 
Q 2881 22 2623 -34 
Q 2366 -91 2075 -91 
Q 1284 -91 818 406 
Q 353 903 353 1747 
Q 353 2603 823 3093 
Q 1294 3584 2113 3584 
Q 2378 3584 2631 3529 
Q 2884 3475 3122 3366 
z
" transform="scale(0.015625)"/>
       <path id="DejaVuSans-68" d="M 3513 2113 
L 3513 0 
L 2938 0 
L 2938 2094 
Q 2938 2591 2744 2837 
Q 2550 3084 2163 3084 
Q 1697 3084 1428 2787 
Q 1159 2491 1159 1978 
L 1159 0 
L 581 0 
L 581 4863 
L 1159 4863 
L 1159 2956 
Q 1366 3272 1645 3428 
Q 1925 3584 2291 3584 
Q 2894 3584 3203 3211 
Q 3513 2838 3513 2113 
z
" transform="scale(0.015625)"/>
       <path id="DejaVuSans-4e" d="M 628 4666 
L 1478 4666 
L 3547 763 
L 3547 4666 
L 4159 4666 
L 4159 0 
L 3309 0 
L 1241 3903 
L 1241 0 
L 628 0 
L 628 4666 
z
" transform="scale(0.015625)"/>
       <path id="DejaVuSans-20" transform="scale(0.015625)"/>
       <path id="DejaVuSans-4d" d="M 628 4666 
L 1569 4666 
L 2759 1491 
L 3956 4666 
L 4897 4666 
L 4897 0 
L 4281 0 
L 4281 4097 
L 3078 897 
L 2444 897 
L 1241 4097 
L 1241 0 
L 628 0 
L 628 4666 
z
" transform="scale(0.015625)"/>
       <path id="DejaVuSans-45" d="M 628 4666 
L 3578 4666 
L 3578 4134 
L 1259 4134 
L 1259 2753 
L 3481 2753 
L 3481 2222 
L 1259 2222 
L 1259 531 
L 3634 531 
L 3634 0 
L 628 0 
L 628 4666 
z
" transform="scale(0.015625)"/>
       <path id="DejaVuSans-41" d="M 2188 4044 
L 1331 1722 
L 3047 1722 
L 2188 4044 
z
M 1831 4666 
L 2547 4666 
L 4325 0 
L 3669 0 
L 3244 1197 
L 1141 1197 
L 716 0 
L 50 0 
L 1831 4666 
z
" transform="scale(0.015625)"/>
      </defs>
      <use xlink:href="#DejaVuSans-53"/>
      <use xlink:href="#DejaVuSans-63" x="63.476562"/>
      <use xlink:href="#DejaVuSans-68" x="118.457031"/>
      <use xlink:href="#DejaVuSans-4e" x="181.835938"/>
      <use xlink:href="#DejaVuSans-65" x="256.640625"/>
      <use xlink:href="#DejaVuSans-74" x="318.164062"/>
      <use xlink:href="#DejaVuSans-20" x="357.373047"/>
      <use xlink:href="#DejaVuSans-4d" x="389.160156"/>
      <use xlink:href="#DejaVuSans-45" x="475.439453"/>
      <use xlink:href="#DejaVuSans-41" x="538.623047"/>
     </g>
    </g>
    <g id="line2d_101">
     <path d="M 274.171562 69.248563 
L 284.171562 69.248563 
L 294.171562 69.248563 
" style="fill: none; stroke: #1f77b4; stroke-opacity: 0.9; stroke-width: 1.5; stroke-linecap: square"/>
    </g>
    <g id="text_16">
     <!-- schnet eval_loss -->
     <g transform="translate(302.171562 72.748563) scale(0.1 -0.1)">
      <defs>
       <path id="DejaVuSans-6e" d="M 3513 2113 
L 3513 0 
L 2938 0 
L 2938 2094 
Q 2938 2591 2744 2837 
Q 2550 3084 2163 3084 
Q 1697 3084 1428 2787 
Q 1159 2491 1159 1978 
L 1159 0 
L 581 0 
L 581 3500 
L 1159 3500 
L 1159 2956 
Q 1366 3272 1645 3428 
Q 1925 3584 2291 3584 
Q 2894 3584 3203 3211 
Q 3513 2838 3513 2113 
z
" transform="scale(0.015625)"/>
       <path id="DejaVuSans-76" d="M 191 3500 
L 800 3500 
L 1894 563 
L 2988 3500 
L 3597 3500 
L 2284 0 
L 1503 0 
L 191 3500 
z
" transform="scale(0.015625)"/>
       <path id="DejaVuSans-61" d="M 2194 1759 
Q 1497 1759 1228 1600 
Q 959 1441 959 1056 
Q 959 750 1161 570 
Q 1363 391 1709 391 
Q 2188 391 2477 730 
Q 2766 1069 2766 1631 
L 2766 1759 
L 2194 1759 
z
M 3341 1997 
L 3341 0 
L 2766 0 
L 2766 531 
Q 2569 213 2275 61 
Q 1981 -91 1556 -91 
Q 1019 -91 701 211 
Q 384 513 384 1019 
Q 384 1609 779 1909 
Q 1175 2209 1959 2209 
L 2766 2209 
L 2766 2266 
Q 2766 2663 2505 2880 
Q 2244 3097 1772 3097 
Q 1472 3097 1187 3025 
Q 903 2953 641 2809 
L 641 3341 
Q 956 3463 1253 3523 
Q 1550 3584 1831 3584 
Q 2591 3584 2966 3190 
Q 3341 2797 3341 1997 
z
" transform="scale(0.015625)"/>
       <path id="DejaVuSans-5f" d="M 3263 -1063 
L 3263 -1509 
L -63 -1509 
L -63 -1063 
L 3263 -1063 
z
" transform="scale(0.015625)"/>
      </defs>
      <use xlink:href="#DejaVuSans-73"/>
      <use xlink:href="#DejaVuSans-63" x="52.099609"/>
      <use xlink:href="#DejaVuSans-68" x="107.080078"/>
      <use xlink:href="#DejaVuSans-6e" x="170.458984"/>
      <use xlink:href="#DejaVuSans-65" x="233.837891"/>
      <use xlink:href="#DejaVuSans-74" x="295.361328"/>
      <use xlink:href="#DejaVuSans-20" x="334.570312"/>
      <use xlink:href="#DejaVuSans-65" x="366.357422"/>
      <use xlink:href="#DejaVuSans-76" x="427.880859"/>
      <use xlink:href="#DejaVuSans-61" x="487.060547"/>
      <use xlink:href="#DejaVuSans-6c" x="548.339844"/>
      <use xlink:href="#DejaVuSans-5f" x="576.123047"/>
      <use xlink:href="#DejaVuSans-6c" x="626.123047"/>
      <use xlink:href="#DejaVuSans-6f" x="653.90625"/>
      <use xlink:href="#DejaVuSans-73" x="715.087891"/>
      <use xlink:href="#DejaVuSans-73" x="767.1875"/>
     </g>
    </g>
    <g id="line2d_102">
     <path d="M 274.171562 84.204813 
L 284.171562 84.204813 
L 294.171562 84.204813 
" style="fill: none; stroke-dasharray: 5.55,2.4; stroke-dashoffset: 0; stroke: #ff7f0e; stroke-opacity: 0.4; stroke-width: 1.5"/>
    </g>
    <g id="text_17">
     <!-- MoGIN1 running loss -->
     <g transform="translate(302.171562 87.704813) scale(0.1 -0.1)">
      <defs>
       <path id="DejaVuSans-47" d="M 3809 666 
L 3809 1919 
L 2778 1919 
L 2778 2438 
L 4434 2438 
L 4434 434 
Q 4069 175 3628 42 
Q 3188 -91 2688 -91 
Q 1594 -91 976 548 
Q 359 1188 359 2328 
Q 359 3472 976 4111 
Q 1594 4750 2688 4750 
Q 3144 4750 3555 4637 
Q 3966 4525 4313 4306 
L 4313 3634 
Q 3963 3931 3569 4081 
Q 3175 4231 2741 4231 
Q 1884 4231 1454 3753 
Q 1025 3275 1025 2328 
Q 1025 1384 1454 906 
Q 1884 428 2741 428 
Q 3075 428 3337 486 
Q 3600 544 3809 666 
z
" transform="scale(0.015625)"/>
       <path id="DejaVuSans-49" d="M 628 4666 
L 1259 4666 
L 1259 0 
L 628 0 
L 628 4666 
z
" transform="scale(0.015625)"/>
       <path id="DejaVuSans-75" d="M 544 1381 
L 544 3500 
L 1119 3500 
L 1119 1403 
Q 1119 906 1312 657 
Q 1506 409 1894 409 
Q 2359 409 2629 706 
Q 2900 1003 2900 1516 
L 2900 3500 
L 3475 3500 
L 3475 0 
L 2900 0 
L 2900 538 
Q 2691 219 2414 64 
Q 2138 -91 1772 -91 
Q 1169 -91 856 284 
Q 544 659 544 1381 
z
M 1991 3584 
L 1991 3584 
z
" transform="scale(0.015625)"/>
       <path id="DejaVuSans-67" d="M 2906 1791 
Q 2906 2416 2648 2759 
Q 2391 3103 1925 3103 
Q 1463 3103 1205 2759 
Q 947 2416 947 1791 
Q 947 1169 1205 825 
Q 1463 481 1925 481 
Q 2391 481 2648 825 
Q 2906 1169 2906 1791 
z
M 3481 434 
Q 3481 -459 3084 -895 
Q 2688 -1331 1869 -1331 
Q 1566 -1331 1297 -1286 
Q 1028 -1241 775 -1147 
L 775 -588 
Q 1028 -725 1275 -790 
Q 1522 -856 1778 -856 
Q 2344 -856 2625 -561 
Q 2906 -266 2906 331 
L 2906 616 
Q 2728 306 2450 153 
Q 2172 0 1784 0 
Q 1141 0 747 490 
Q 353 981 353 1791 
Q 353 2603 747 3093 
Q 1141 3584 1784 3584 
Q 2172 3584 2450 3431 
Q 2728 3278 2906 2969 
L 2906 3500 
L 3481 3500 
L 3481 434 
z
" transform="scale(0.015625)"/>
      </defs>
      <use xlink:href="#DejaVuSans-4d"/>
      <use xlink:href="#DejaVuSans-6f" x="86.279297"/>
      <use xlink:href="#DejaVuSans-47" x="147.460938"/>
      <use xlink:href="#DejaVuSans-49" x="224.951172"/>
      <use xlink:href="#DejaVuSans-4e" x="254.443359"/>
      <use xlink:href="#DejaVuSans-31" x="329.248047"/>
      <use xlink:href="#DejaVuSans-20" x="392.871094"/>
      <use xlink:href="#DejaVuSans-72" x="424.658203"/>
      <use xlink:href="#DejaVuSans-75" x="465.771484"/>
      <use xlink:href="#DejaVuSans-6e" x="529.150391"/>
      <use xlink:href="#DejaVuSans-6e" x="592.529297"/>
      <use xlink:href="#DejaVuSans-69" x="655.908203"/>
      <use xlink:href="#DejaVuSans-6e" x="683.691406"/>
      <use xlink:href="#DejaVuSans-67" x="747.070312"/>
      <use xlink:href="#DejaVuSans-20" x="810.546875"/>
      <use xlink:href="#DejaVuSans-6c" x="842.333984"/>
      <use xlink:href="#DejaVuSans-6f" x="870.117188"/>
      <use xlink:href="#DejaVuSans-73" x="931.298828"/>
      <use xlink:href="#DejaVuSans-73" x="983.398438"/>
     </g>
    </g>
    <g id="line2d_103">
     <path d="M 274.171562 98.882938 
L 284.171562 98.882938 
L 294.171562 98.882938 
" style="fill: none; stroke: #ff7f0e; stroke-opacity: 0.9; stroke-width: 1.5; stroke-linecap: square"/>
    </g>
    <g id="text_18">
     <!-- MoGIN1 eval_loss -->
     <g transform="translate(302.171562 102.382938) scale(0.1 -0.1)">
      <use xlink:href="#DejaVuSans-4d"/>
      <use xlink:href="#DejaVuSans-6f" x="86.279297"/>
      <use xlink:href="#DejaVuSans-47" x="147.460938"/>
      <use xlink:href="#DejaVuSans-49" x="224.951172"/>
      <use xlink:href="#DejaVuSans-4e" x="254.443359"/>
      <use xlink:href="#DejaVuSans-31" x="329.248047"/>
      <use xlink:href="#DejaVuSans-20" x="392.871094"/>
      <use xlink:href="#DejaVuSans-65" x="424.658203"/>
      <use xlink:href="#DejaVuSans-76" x="486.181641"/>
      <use xlink:href="#DejaVuSans-61" x="545.361328"/>
      <use xlink:href="#DejaVuSans-6c" x="606.640625"/>
      <use xlink:href="#DejaVuSans-5f" x="634.423828"/>
      <use xlink:href="#DejaVuSans-6c" x="684.423828"/>
      <use xlink:href="#DejaVuSans-6f" x="712.207031"/>
      <use xlink:href="#DejaVuSans-73" x="773.388672"/>
      <use xlink:href="#DejaVuSans-73" x="825.488281"/>
     </g>
    </g>
   </g>
  </g>
 </g>
 <defs>
  <clipPath id="p3cbc0c1bd9">
   <rect x="57.6" y="41.472" width="357.12" height="266.112"/>
  </clipPath>
 </defs>
</svg>
