<?xml version="1.0" encoding="utf-8" standalone="no"?>
<!DOCTYPE svg PUBLIC "-//W3C//DTD SVG 1.1//EN"
  "http://www.w3.org/Graphics/SVG/1.1/DTD/svg11.dtd">
<svg xmlns:xlink="http://www.w3.org/1999/xlink" width="460.8pt" height="345.6pt" viewBox="0 0 460.8 345.6" xmlns="http://www.w3.org/2000/svg" version="1.1">
 <metadata>
  <rdf:RDF xmlns:dc="http://purl.org/dc/elements/1.1/" xmlns:cc="http://creativecommons.org/ns#" xmlns:rdf="http://www.w3.org/1999/02/22-rdf-syntax-ns#">
   <cc:Work>
    <dc:type rdf:resource="http://purl.org/dc/dcmitype/StillImage"/>
    <dc:date>2025-02-12T19:24:18.313428</dc:date>
    <dc:format>image/svg+xml</dc:format>
    <dc:creator>
     <cc:Agent>
      <dc:title>Matplotlib v3.8.4, https://matplotlib.org/</dc:title>
     </cc:Agent>
    </dc:creator>
   </cc:Work>
  </rdf:RDF>
 </metadata>
 <defs>
  <style type="text/css">*{stroke-linejoin: round; stroke-linecap: butt}</style>
 </defs>
 <g id="figure_1">
  <g id="patch_1">
   <path d="M 0 345.6 
L 460.8 345.6 
L 460.8 0 
L 0 0 
z
" style="fill: #ffffff"/>
  </g>
  <g id="axes_1">
   <g id="patch_2">
    <path d="M 57.6 307.584 
L 414.72 307.584 
L 414.72 41.472 
L 57.6 41.472 
z
" style="fill: #ffffff"/>
   </g>
   <g id="matplotlib.axis_1">
    <g id="xtick_1">
     <g id="line2d_1">
      <defs>
       <path id="m0a9d844917" d="M 0 0 
L 0 3.5 
" style="stroke: #000000; stroke-width: 0.8"/>
      </defs>
      <g>
       <use xlink:href="#m0a9d844917" x="73.820668" y="307.584" style="stroke: #000000; stroke-width: 0.8"/>
      </g>
     </g>
     <g id="text_1">
      <!-- 0 -->
      <g transform="translate(70.639418 322.182437) scale(0.1 -0.1)">
       <defs>
        <path id="DejaVuSans-30" d="M 2034 4250 
Q 1547 4250 1301 3770 
Q 1056 3291 1056 2328 
Q 1056 1369 1301 889 
Q 1547 409 2034 409 
Q 2525 409 2770 889 
Q 3016 1369 3016 2328 
Q 3016 3291 2770 3770 
Q 2525 4250 2034 4250 
z
M 2034 4750 
Q 2819 4750 3233 4129 
Q 3647 3509 3647 2328 
Q 3647 1150 3233 529 
Q 2819 -91 2034 -91 
Q 1250 -91 836 529 
Q 422 1150 422 2328 
Q 422 3509 836 4129 
Q 1250 4750 2034 4750 
z
" transform="scale(0.015625)"/>
       </defs>
       <use xlink:href="#DejaVuSans-30"/>
      </g>
     </g>
    </g>
    <g id="xtick_2">
     <g id="line2d_2">
      <g>
       <use xlink:href="#m0a9d844917" x="134.116067" y="307.584" style="stroke: #000000; stroke-width: 0.8"/>
      </g>
     </g>
     <g id="text_2">
      <!-- 5000 -->
      <g transform="translate(121.391067 322.182437) scale(0.1 -0.1)">
       <defs>
        <path id="DejaVuSans-35" d="M 691 4666 
L 3169 4666 
L 3169 4134 
L 1269 4134 
L 1269 2991 
Q 1406 3038 1543 3061 
Q 1681 3084 1819 3084 
Q 2600 3084 3056 2656 
Q 3513 2228 3513 1497 
Q 3513 744 3044 326 
Q 2575 -91 1722 -91 
Q 1428 -91 1123 -41 
Q 819 9 494 109 
L 494 744 
Q 775 591 1075 516 
Q 1375 441 1709 441 
Q 2250 441 2565 725 
Q 2881 1009 2881 1497 
Q 2881 1984 2565 2268 
Q 2250 2553 1709 2553 
Q 1456 2553 1204 2497 
Q 953 2441 691 2322 
L 691 4666 
z
" transform="scale(0.015625)"/>
       </defs>
       <use xlink:href="#DejaVuSans-35"/>
       <use xlink:href="#DejaVuSans-30" x="63.623047"/>
       <use xlink:href="#DejaVuSans-30" x="127.246094"/>
       <use xlink:href="#DejaVuSans-30" x="190.869141"/>
      </g>
     </g>
    </g>
    <g id="xtick_3">
     <g id="line2d_3">
      <g>
       <use xlink:href="#m0a9d844917" x="194.411466" y="307.584" style="stroke: #000000; stroke-width: 0.8"/>
      </g>
     </g>
     <g id="text_3">
      <!-- 10000 -->
      <g transform="translate(178.505216 322.182437) scale(0.1 -0.1)">
       <defs>
        <path id="DejaVuSans-31" d="M 794 531 
L 1825 531 
L 1825 4091 
L 703 3866 
L 703 4441 
L 1819 4666 
L 2450 4666 
L 2450 531 
L 3481 531 
L 3481 0 
L 794 0 
L 794 531 
z
" transform="scale(0.015625)"/>
       </defs>
       <use xlink:href="#DejaVuSans-31"/>
       <use xlink:href="#DejaVuSans-30" x="63.623047"/>
       <use xlink:href="#DejaVuSans-30" x="127.246094"/>
       <use xlink:href="#DejaVuSans-30" x="190.869141"/>
       <use xlink:href="#DejaVuSans-30" x="254.492188"/>
      </g>
     </g>
    </g>
    <g id="xtick_4">
     <g id="line2d_4">
      <g>
       <use xlink:href="#m0a9d844917" x="254.706865" y="307.584" style="stroke: #000000; stroke-width: 0.8"/>
      </g>
     </g>
     <g id="text_4">
      <!-- 15000 -->
      <g transform="translate(238.800615 322.182437) scale(0.1 -0.1)">
       <use xlink:href="#DejaVuSans-31"/>
       <use xlink:href="#DejaVuSans-35" x="63.623047"/>
       <use xlink:href="#DejaVuSans-30" x="127.246094"/>
       <use xlink:href="#DejaVuSans-30" x="190.869141"/>
       <use xlink:href="#DejaVuSans-30" x="254.492188"/>
      </g>
     </g>
    </g>
    <g id="xtick_5">
     <g id="line2d_5">
      <g>
       <use xlink:href="#m0a9d844917" x="315.002264" y="307.584" style="stroke: #000000; stroke-width: 0.8"/>
      </g>
     </g>
     <g id="text_5">
      <!-- 20000 -->
      <g transform="translate(299.096014 322.182437) scale(0.1 -0.1)">
       <defs>
        <path id="DejaVuSans-32" d="M 1228 531 
L 3431 531 
L 3431 0 
L 469 0 
L 469 531 
Q 828 903 1448 1529 
Q 2069 2156 2228 2338 
Q 2531 2678 2651 2914 
Q 2772 3150 2772 3378 
Q 2772 3750 2511 3984 
Q 2250 4219 1831 4219 
Q 1534 4219 1204 4116 
Q 875 4013 500 3803 
L 500 4441 
Q 881 4594 1212 4672 
Q 1544 4750 1819 4750 
Q 2544 4750 2975 4387 
Q 3406 4025 3406 3419 
Q 3406 3131 3298 2873 
Q 3191 2616 2906 2266 
Q 2828 2175 2409 1742 
Q 1991 1309 1228 531 
z
" transform="scale(0.015625)"/>
       </defs>
       <use xlink:href="#DejaVuSans-32"/>
       <use xlink:href="#DejaVuSans-30" x="63.623047"/>
       <use xlink:href="#DejaVuSans-30" x="127.246094"/>
       <use xlink:href="#DejaVuSans-30" x="190.869141"/>
       <use xlink:href="#DejaVuSans-30" x="254.492188"/>
      </g>
     </g>
    </g>
    <g id="xtick_6">
     <g id="line2d_6">
      <g>
       <use xlink:href="#m0a9d844917" x="375.297662" y="307.584" style="stroke: #000000; stroke-width: 0.8"/>
      </g>
     </g>
     <g id="text_6">
      <!-- 25000 -->
      <g transform="translate(359.391412 322.182437) scale(0.1 -0.1)">
       <use xlink:href="#DejaVuSans-32"/>
       <use xlink:href="#DejaVuSans-35" x="63.623047"/>
       <use xlink:href="#DejaVuSans-30" x="127.246094"/>
       <use xlink:href="#DejaVuSans-30" x="190.869141"/>
       <use xlink:href="#DejaVuSans-30" x="254.492188"/>
      </g>
     </g>
    </g>
    <g id="text_7">
     <!-- iter# -->
     <g transform="translate(223.488906 335.860562) scale(0.1 -0.1)">
      <defs>
       <path id="DejaVuSans-69" d="M 603 3500 
L 1178 3500 
L 1178 0 
L 603 0 
L 603 3500 
z
M 603 4863 
L 1178 4863 
L 1178 4134 
L 603 4134 
L 603 4863 
z
" transform="scale(0.015625)"/>
       <path id="DejaVuSans-74" d="M 1172 4494 
L 1172 3500 
L 2356 3500 
L 2356 3053 
L 1172 3053 
L 1172 1153 
Q 1172 725 1289 603 
Q 1406 481 1766 481 
L 2356 481 
L 2356 0 
L 1766 0 
Q 1100 0 847 248 
Q 594 497 594 1153 
L 594 3053 
L 172 3053 
L 172 3500 
L 594 3500 
L 594 4494 
L 1172 4494 
z
" transform="scale(0.015625)"/>
       <path id="DejaVuSans-65" d="M 3597 1894 
L 3597 1613 
L 953 1613 
Q 991 1019 1311 708 
Q 1631 397 2203 397 
Q 2534 397 2845 478 
Q 3156 559 3463 722 
L 3463 178 
Q 3153 47 2828 -22 
Q 2503 -91 2169 -91 
Q 1331 -91 842 396 
Q 353 884 353 1716 
Q 353 2575 817 3079 
Q 1281 3584 2069 3584 
Q 2775 3584 3186 3129 
Q 3597 2675 3597 1894 
z
M 3022 2063 
Q 3016 2534 2758 2815 
Q 2500 3097 2075 3097 
Q 1594 3097 1305 2825 
Q 1016 2553 972 2059 
L 3022 2063 
z
" transform="scale(0.015625)"/>
       <path id="DejaVuSans-72" d="M 2631 2963 
Q 2534 3019 2420 3045 
Q 2306 3072 2169 3072 
Q 1681 3072 1420 2755 
Q 1159 2438 1159 1844 
L 1159 0 
L 581 0 
L 581 3500 
L 1159 3500 
L 1159 2956 
Q 1341 3275 1631 3429 
Q 1922 3584 2338 3584 
Q 2397 3584 2469 3576 
Q 2541 3569 2628 3553 
L 2631 2963 
z
" transform="scale(0.015625)"/>
       <path id="DejaVuSans-23" d="M 3272 2816 
L 2363 2816 
L 2100 1772 
L 3016 1772 
L 3272 2816 
z
M 2803 4594 
L 2478 3297 
L 3391 3297 
L 3719 4594 
L 4219 4594 
L 3897 3297 
L 4872 3297 
L 4872 2816 
L 3775 2816 
L 3519 1772 
L 4513 1772 
L 4513 1294 
L 3397 1294 
L 3072 0 
L 2572 0 
L 2894 1294 
L 1978 1294 
L 1656 0 
L 1153 0 
L 1478 1294 
L 494 1294 
L 494 1772 
L 1594 1772 
L 1856 2816 
L 850 2816 
L 850 3297 
L 1978 3297 
L 2297 4594 
L 2803 4594 
z
" transform="scale(0.015625)"/>
      </defs>
      <use xlink:href="#DejaVuSans-69"/>
      <use xlink:href="#DejaVuSans-74" x="27.783203"/>
      <use xlink:href="#DejaVuSans-65" x="66.992188"/>
      <use xlink:href="#DejaVuSans-72" x="128.515625"/>
      <use xlink:href="#DejaVuSans-23" x="169.628906"/>
     </g>
    </g>
   </g>
   <g id="matplotlib.axis_2">
    <g id="ytick_1">
     <g id="line2d_7">
      <defs>
       <path id="md6ecc8cf7b" d="M 0 0 
L -3.5 0 
" style="stroke: #000000; stroke-width: 0.8"/>
      </defs>
      <g>
       <use xlink:href="#md6ecc8cf7b" x="57.6" y="245.392795" style="stroke: #000000; stroke-width: 0.8"/>
      </g>
     </g>
     <g id="text_8">
      <!-- $\mathdefault{10^{-1}}$ -->
      <g transform="translate(27.1 249.192013) scale(0.1 -0.1)">
       <defs>
        <path id="DejaVuSans-2212" d="M 678 2272 
L 4684 2272 
L 4684 1741 
L 678 1741 
L 678 2272 
z
" transform="scale(0.015625)"/>
       </defs>
       <use xlink:href="#DejaVuSans-31" transform="translate(0 0.684375)"/>
       <use xlink:href="#DejaVuSans-30" transform="translate(63.623047 0.684375)"/>
       <use xlink:href="#DejaVuSans-2212" transform="translate(128.203125 38.965625) scale(0.7)"/>
       <use xlink:href="#DejaVuSans-31" transform="translate(186.855469 38.965625) scale(0.7)"/>
      </g>
     </g>
    </g>
    <g id="ytick_2">
     <g id="line2d_8">
      <g>
       <use xlink:href="#md6ecc8cf7b" x="57.6" y="157.634099" style="stroke: #000000; stroke-width: 0.8"/>
      </g>
     </g>
     <g id="text_9">
      <!-- $\mathdefault{10^{0}}$ -->
      <g transform="translate(33 161.433317) scale(0.1 -0.1)">
       <use xlink:href="#DejaVuSans-31" transform="translate(0 0.765625)"/>
       <use xlink:href="#DejaVuSans-30" transform="translate(63.623047 0.765625)"/>
       <use xlink:href="#DejaVuSans-30" transform="translate(128.203125 39.046875) scale(0.7)"/>
      </g>
     </g>
    </g>
    <g id="ytick_3">
     <g id="line2d_9">
      <g>
       <use xlink:href="#md6ecc8cf7b" x="57.6" y="69.875403" style="stroke: #000000; stroke-width: 0.8"/>
      </g>
     </g>
     <g id="text_10">
      <!-- $\mathdefault{10^{1}}$ -->
      <g transform="translate(33 73.674622) scale(0.1 -0.1)">
       <use xlink:href="#DejaVuSans-31" transform="translate(0 0.684375)"/>
       <use xlink:href="#DejaVuSans-30" transform="translate(63.623047 0.684375)"/>
       <use xlink:href="#DejaVuSans-31" transform="translate(128.203125 38.965625) scale(0.7)"/>
      </g>
     </g>
    </g>
    <g id="ytick_4">
     <g id="line2d_10">
      <defs>
       <path id="mc9c7f8a0c5" d="M 0 0 
L -2 0 
" style="stroke: #000000; stroke-width: 0.6"/>
      </defs>
      <g>
       <use xlink:href="#mc9c7f8a0c5" x="57.6" y="306.73349" style="stroke: #000000; stroke-width: 0.6"/>
      </g>
     </g>
    </g>
    <g id="ytick_5">
     <g id="line2d_11">
      <g>
       <use xlink:href="#mc9c7f8a0c5" x="57.6" y="291.279951" style="stroke: #000000; stroke-width: 0.6"/>
      </g>
     </g>
    </g>
    <g id="ytick_6">
     <g id="line2d_12">
      <g>
       <use xlink:href="#mc9c7f8a0c5" x="57.6" y="280.315491" style="stroke: #000000; stroke-width: 0.6"/>
      </g>
     </g>
    </g>
    <g id="ytick_7">
     <g id="line2d_13">
      <g>
       <use xlink:href="#mc9c7f8a0c5" x="57.6" y="271.810794" style="stroke: #000000; stroke-width: 0.6"/>
      </g>
     </g>
    </g>
    <g id="ytick_8">
     <g id="line2d_14">
      <g>
       <use xlink:href="#mc9c7f8a0c5" x="57.6" y="264.861951" style="stroke: #000000; stroke-width: 0.6"/>
      </g>
     </g>
    </g>
    <g id="ytick_9">
     <g id="line2d_15">
      <g>
       <use xlink:href="#mc9c7f8a0c5" x="57.6" y="258.986788" style="stroke: #000000; stroke-width: 0.6"/>
      </g>
     </g>
    </g>
    <g id="ytick_10">
     <g id="line2d_16">
      <g>
       <use xlink:href="#mc9c7f8a0c5" x="57.6" y="253.897491" style="stroke: #000000; stroke-width: 0.6"/>
      </g>
     </g>
    </g>
    <g id="ytick_11">
     <g id="line2d_17">
      <g>
       <use xlink:href="#mc9c7f8a0c5" x="57.6" y="249.408412" style="stroke: #000000; stroke-width: 0.6"/>
      </g>
     </g>
    </g>
    <g id="ytick_12">
     <g id="line2d_18">
      <g>
       <use xlink:href="#mc9c7f8a0c5" x="57.6" y="218.974795" style="stroke: #000000; stroke-width: 0.6"/>
      </g>
     </g>
    </g>
    <g id="ytick_13">
     <g id="line2d_19">
      <g>
       <use xlink:href="#mc9c7f8a0c5" x="57.6" y="203.521255" style="stroke: #000000; stroke-width: 0.6"/>
      </g>
     </g>
    </g>
    <g id="ytick_14">
     <g id="line2d_20">
      <g>
       <use xlink:href="#mc9c7f8a0c5" x="57.6" y="192.556795" style="stroke: #000000; stroke-width: 0.6"/>
      </g>
     </g>
    </g>
    <g id="ytick_15">
     <g id="line2d_21">
      <g>
       <use xlink:href="#mc9c7f8a0c5" x="57.6" y="184.052099" style="stroke: #000000; stroke-width: 0.6"/>
      </g>
     </g>
    </g>
    <g id="ytick_16">
     <g id="line2d_22">
      <g>
       <use xlink:href="#mc9c7f8a0c5" x="57.6" y="177.103256" style="stroke: #000000; stroke-width: 0.6"/>
      </g>
     </g>
    </g>
    <g id="ytick_17">
     <g id="line2d_23">
      <g>
       <use xlink:href="#mc9c7f8a0c5" x="57.6" y="171.228093" style="stroke: #000000; stroke-width: 0.6"/>
      </g>
     </g>
    </g>
    <g id="ytick_18">
     <g id="line2d_24">
      <g>
       <use xlink:href="#mc9c7f8a0c5" x="57.6" y="166.138795" style="stroke: #000000; stroke-width: 0.6"/>
      </g>
     </g>
    </g>
    <g id="ytick_19">
     <g id="line2d_25">
      <g>
       <use xlink:href="#mc9c7f8a0c5" x="57.6" y="161.649716" style="stroke: #000000; stroke-width: 0.6"/>
      </g>
     </g>
    </g>
    <g id="ytick_20">
     <g id="line2d_26">
      <g>
       <use xlink:href="#mc9c7f8a0c5" x="57.6" y="131.216099" style="stroke: #000000; stroke-width: 0.6"/>
      </g>
     </g>
    </g>
    <g id="ytick_21">
     <g id="line2d_27">
      <g>
       <use xlink:href="#mc9c7f8a0c5" x="57.6" y="115.76256" style="stroke: #000000; stroke-width: 0.6"/>
      </g>
     </g>
    </g>
    <g id="ytick_22">
     <g id="line2d_28">
      <g>
       <use xlink:href="#mc9c7f8a0c5" x="57.6" y="104.798099" style="stroke: #000000; stroke-width: 0.6"/>
      </g>
     </g>
    </g>
    <g id="ytick_23">
     <g id="line2d_29">
      <g>
       <use xlink:href="#mc9c7f8a0c5" x="57.6" y="96.293403" style="stroke: #000000; stroke-width: 0.6"/>
      </g>
     </g>
    </g>
    <g id="ytick_24">
     <g id="line2d_30">
      <g>
       <use xlink:href="#mc9c7f8a0c5" x="57.6" y="89.34456" style="stroke: #000000; stroke-width: 0.6"/>
      </g>
     </g>
    </g>
    <g id="ytick_25">
     <g id="line2d_31">
      <g>
       <use xlink:href="#mc9c7f8a0c5" x="57.6" y="83.469397" style="stroke: #000000; stroke-width: 0.6"/>
      </g>
     </g>
    </g>
    <g id="ytick_26">
     <g id="line2d_32">
      <g>
       <use xlink:href="#mc9c7f8a0c5" x="57.6" y="78.380099" style="stroke: #000000; stroke-width: 0.6"/>
      </g>
     </g>
    </g>
    <g id="ytick_27">
     <g id="line2d_33">
      <g>
       <use xlink:href="#mc9c7f8a0c5" x="57.6" y="73.891021" style="stroke: #000000; stroke-width: 0.6"/>
      </g>
     </g>
    </g>
    <g id="ytick_28">
     <g id="line2d_34">
      <g>
       <use xlink:href="#mc9c7f8a0c5" x="57.6" y="43.457403" style="stroke: #000000; stroke-width: 0.6"/>
      </g>
     </g>
    </g>
    <g id="text_11">
     <!-- MEA loss -->
     <g transform="translate(21.020312 196.668625) rotate(-90) scale(0.1 -0.1)">
      <defs>
       <path id="DejaVuSans-4d" d="M 628 4666 
L 1569 4666 
L 2759 1491 
L 3956 4666 
L 4897 4666 
L 4897 0 
L 4281 0 
L 4281 4097 
L 3078 897 
L 2444 897 
L 1241 4097 
L 1241 0 
L 628 0 
L 628 4666 
z
" transform="scale(0.015625)"/>
       <path id="DejaVuSans-45" d="M 628 4666 
L 3578 4666 
L 3578 4134 
L 1259 4134 
L 1259 2753 
L 3481 2753 
L 3481 2222 
L 1259 2222 
L 1259 531 
L 3634 531 
L 3634 0 
L 628 0 
L 628 4666 
z
" transform="scale(0.015625)"/>
       <path id="DejaVuSans-41" d="M 2188 4044 
L 1331 1722 
L 3047 1722 
L 2188 4044 
z
M 1831 4666 
L 2547 4666 
L 4325 0 
L 3669 0 
L 3244 1197 
L 1141 1197 
L 716 0 
L 50 0 
L 1831 4666 
z
" transform="scale(0.015625)"/>
       <path id="DejaVuSans-20" transform="scale(0.015625)"/>
       <path id="DejaVuSans-6c" d="M 603 4863 
L 1178 4863 
L 1178 0 
L 603 0 
L 603 4863 
z
" transform="scale(0.015625)"/>
       <path id="DejaVuSans-6f" d="M 1959 3097 
Q 1497 3097 1228 2736 
Q 959 2375 959 1747 
Q 959 1119 1226 758 
Q 1494 397 1959 397 
Q 2419 397 2687 759 
Q 2956 1122 2956 1747 
Q 2956 2369 2687 2733 
Q 2419 3097 1959 3097 
z
M 1959 3584 
Q 2709 3584 3137 3096 
Q 3566 2609 3566 1747 
Q 3566 888 3137 398 
Q 2709 -91 1959 -91 
Q 1206 -91 779 398 
Q 353 888 353 1747 
Q 353 2609 779 3096 
Q 1206 3584 1959 3584 
z
" transform="scale(0.015625)"/>
       <path id="DejaVuSans-73" d="M 2834 3397 
L 2834 2853 
Q 2591 2978 2328 3040 
Q 2066 3103 1784 3103 
Q 1356 3103 1142 2972 
Q 928 2841 928 2578 
Q 928 2378 1081 2264 
Q 1234 2150 1697 2047 
L 1894 2003 
Q 2506 1872 2764 1633 
Q 3022 1394 3022 966 
Q 3022 478 2636 193 
Q 2250 -91 1575 -91 
Q 1294 -91 989 -36 
Q 684 19 347 128 
L 347 722 
Q 666 556 975 473 
Q 1284 391 1588 391 
Q 1994 391 2212 530 
Q 2431 669 2431 922 
Q 2431 1156 2273 1281 
Q 2116 1406 1581 1522 
L 1381 1569 
Q 847 1681 609 1914 
Q 372 2147 372 2553 
Q 372 3047 722 3315 
Q 1072 3584 1716 3584 
Q 2034 3584 2315 3537 
Q 2597 3491 2834 3397 
z
" transform="scale(0.015625)"/>
      </defs>
      <use xlink:href="#DejaVuSans-4d"/>
      <use xlink:href="#DejaVuSans-45" x="86.279297"/>
      <use xlink:href="#DejaVuSans-41" x="149.462891"/>
      <use xlink:href="#DejaVuSans-20" x="217.871094"/>
      <use xlink:href="#DejaVuSans-6c" x="249.658203"/>
      <use xlink:href="#DejaVuSans-6f" x="277.441406"/>
      <use xlink:href="#DejaVuSans-73" x="338.623047"/>
      <use xlink:href="#DejaVuSans-73" x="390.722656"/>
     </g>
    </g>
   </g>
   <g id="line2d_35">
    <path d="M 73.832727 53.568 
L 74.218618 191.409565 
L 74.411563 189.736797 
L 74.604508 197.085343 
L 74.990399 199.893333 
L 75.183344 203.666778 
L 75.376289 203.636566 
L 75.569235 205.194608 
L 75.76218 208.359203 
L 75.955125 198.98772 
L 76.148071 213.39451 
L 76.341016 215.168028 
L 76.533961 211.42195 
L 76.726906 219.986577 
L 77.112797 223.872521 
L 77.498688 232.608524 
L 77.691633 233.493051 
L 78.077523 239.105417 
L 78.270469 239.83808 
L 78.463414 240.110036 
L 78.656359 243.986949 
L 78.849304 254.596105 
L 79.04225 258.646572 
L 79.235195 259.969761 
L 79.42814 242.820779 
L 79.621086 262.584068 
L 80.006976 252.223233 
L 80.199921 262.977132 
L 80.392867 262.082666 
L 80.585812 265.810462 
L 80.778757 257.818337 
L 80.971702 256.561497 
L 81.357593 270.436545 
L 81.550538 268.58935 
L 81.743484 271.979972 
L 81.936429 264.412075 
L 82.129374 273.744134 
L 82.322319 264.863046 
L 82.515265 272.390585 
L 82.901155 274.296047 
L 83.094101 254.681795 
L 83.287046 256.91129 
L 83.479991 252.684865 
L 83.672936 268.04938 
L 83.865882 265.067612 
L 84.058827 266.134389 
L 84.444717 272.984522 
L 84.637663 275.691243 
L 84.830608 275.782579 
L 85.023553 265.485655 
L 85.216499 277.634181 
L 85.409444 271.516349 
L 85.602389 256.329163 
L 85.795334 276.038344 
L 85.98828 275.445017 
L 86.37417 268.339467 
L 86.567116 244.065489 
L 86.760061 272.005034 
L 86.953006 276.688628 
L 87.145951 241.765405 
L 87.531842 270.94228 
L 87.724787 269.446267 
L 87.917732 279.413647 
L 88.110678 275.865744 
L 88.496568 278.754014 
L 88.689514 259.882999 
L 88.882459 260.639229 
L 89.075404 275.105223 
L 89.268349 262.45735 
L 89.461295 237.90725 
L 89.65424 241.497604 
L 89.847185 235.0633 
L 90.04013 263.035017 
L 90.233076 260.071194 
L 90.426021 264.669099 
L 90.618966 249.018831 
L 90.811912 279.490491 
L 91.004857 257.628323 
L 91.197802 263.037859 
L 91.390747 259.024721 
L 91.583693 264.837655 
L 91.776638 279.188826 
L 91.969583 284.414521 
L 92.162529 260.126795 
L 92.355474 262.251428 
L 92.548419 284.212157 
L 92.741364 282.003912 
L 92.93431 265.49726 
L 93.127255 237.683888 
L 93.3202 281.730103 
L 93.513145 235.992315 
L 94.091981 283.987817 
L 94.477872 257.606615 
L 94.670817 265.910657 
L 94.863762 268.915588 
L 95.056708 280.15665 
L 95.635543 252.110392 
L 95.828489 252.665292 
L 96.214379 268.653172 
L 96.407325 268.396642 
L 96.793215 258.789086 
L 96.98616 282.549415 
L 97.179106 251.308014 
L 97.372051 253.075312 
L 97.564996 232.039227 
L 97.757942 240.416167 
L 97.950887 277.450263 
L 98.143832 271.496289 
L 98.336777 283.722062 
L 98.529723 251.878445 
L 98.722668 285.430524 
L 98.746786 282.91977 
L 98.939731 263.108987 
L 99.132677 224.473683 
L 99.325622 227.629867 
L 99.518567 238.05459 
L 99.904458 271.806503 
L 100.290348 264.415443 
L 100.483294 286.005709 
L 100.676239 272.857081 
L 100.869184 277.948276 
L 101.062129 277.79131 
L 101.255075 256.036849 
L 101.44802 268.213082 
L 101.640965 267.41677 
L 101.83391 291.037591 
L 102.219801 280.06261 
L 102.412746 285.917603 
L 102.605692 236.068728 
L 102.798637 267.498675 
L 102.991582 249.052343 
L 103.184527 247.467539 
L 103.377473 280.435713 
L 103.570418 225.062865 
L 103.956309 285.9203 
L 104.149254 266.652284 
L 104.342199 279.885971 
L 104.535144 231.942067 
L 104.72809 286.097407 
L 104.921035 285.332175 
L 105.11398 280.55375 
L 105.306925 234.569197 
L 105.692816 258.340203 
L 105.885761 254.603217 
L 106.271652 284.300919 
L 106.464597 270.720523 
L 106.657542 282.988082 
L 106.850488 271.882554 
L 107.043433 286.368672 
L 107.236378 282.748555 
L 107.429324 295.488 
L 107.815214 270.725101 
L 108.008159 276.145296 
L 108.201105 228.990331 
L 108.586995 276.111909 
L 108.77994 273.12991 
L 108.972886 197.080393 
L 108.972886 197.080393 
" clip-path="url(#pb26ebe7d2d)" style="fill: none; stroke: #1f77b4; stroke-width: 1.5; stroke-linecap: square"/>
   </g>
   <g id="line2d_36">
    <path d="M 73.832727 167.277579 
L 74.025673 168.180409 
L 74.218618 170.737692 
L 74.411563 168.747487 
L 74.604508 170.063509 
L 74.797454 169.833016 
L 75.183344 179.812585 
L 75.376289 175.185023 
L 75.569235 176.679774 
L 75.76218 171.461558 
L 76.148071 185.170226 
L 76.341016 187.005284 
L 76.533961 184.59689 
L 76.726906 174.167881 
L 76.919852 187.480527 
L 77.305742 190.037896 
L 77.498688 182.124361 
L 77.691633 190.320938 
L 77.884578 189.628794 
L 78.077523 195.616975 
L 78.270469 197.305824 
L 78.463414 196.065967 
L 78.656359 192.662189 
L 78.849304 179.788028 
L 79.04225 196.167109 
L 79.42814 201.719485 
L 79.621086 182.866357 
L 79.814031 204.22615 
L 80.006976 207.044175 
L 80.585812 184.922633 
L 80.778757 201.172001 
L 80.971702 200.05562 
L 81.164648 196.808472 
L 81.357593 207.284634 
L 81.550538 209.249645 
L 81.743484 209.36267 
L 81.936429 210.099422 
L 82.129374 201.146535 
L 82.322319 203.710777 
L 82.515265 184.630834 
L 82.901155 211.087782 
L 83.094101 209.954083 
L 83.287046 207.068535 
L 83.479991 174.165466 
L 83.672936 213.959677 
L 83.865882 215.522428 
L 84.058827 211.495028 
L 84.444717 191.808047 
L 84.637663 211.064592 
L 84.830608 215.010785 
L 85.023553 195.432675 
L 85.216499 212.570786 
L 85.409444 209.575203 
L 85.602389 216.483951 
L 85.795334 207.527529 
L 85.98828 210.83952 
L 86.181225 219.88939 
L 86.567116 188.357099 
L 86.760061 206.535218 
L 86.953006 210.788392 
L 87.145951 180.057405 
L 87.338897 208.675287 
L 87.531842 198.772963 
L 87.724787 196.933515 
L 87.917732 201.479364 
L 88.110678 202.426861 
L 88.303623 210.796851 
L 88.496568 206.475085 
L 88.689514 190.028934 
L 88.882459 187.29504 
L 89.075404 211.008805 
L 89.268349 200.370626 
L 89.65424 220.608006 
L 89.847185 220.007932 
L 90.04013 220.728189 
L 90.233076 212.349709 
L 90.426021 218.862459 
L 90.618966 211.08419 
L 90.811912 220.472199 
L 91.004857 204.672295 
L 91.197802 223.212943 
L 91.390747 219.716189 
L 91.583693 207.701408 
L 91.776638 224.714834 
L 91.969583 226.24912 
L 92.162529 219.836176 
L 92.355474 189.788612 
L 92.548419 198.369632 
L 92.741364 186.525035 
L 92.93431 220.710217 
L 93.127255 222.539237 
L 93.3202 217.198733 
L 93.513145 202.221866 
L 93.899036 219.85881 
L 94.091981 202.090337 
L 94.284927 223.435078 
L 94.670817 207.024317 
L 94.863762 175.370829 
L 95.249653 224.319065 
L 95.442598 220.145298 
L 95.635543 220.290039 
L 95.828489 221.975447 
L 96.021434 182.86959 
L 96.214379 179.244152 
L 96.60027 230.228886 
L 96.793215 198.720235 
L 96.98616 228.756468 
L 97.179106 213.289959 
L 97.564996 227.00841 
L 97.757942 226.831124 
L 97.950887 231.539964 
L 98.143832 201.403761 
L 98.529723 219.975247 
L 98.722668 223.459793 
L 98.746786 213.719434 
L 98.939731 217.360026 
L 99.132677 205.214806 
L 99.325622 227.386695 
L 99.518567 225.767321 
L 99.711512 216.089233 
L 99.904458 227.786914 
L 100.097403 228.90338 
L 100.290348 235.863081 
L 100.483294 203.86631 
L 100.676239 213.855705 
L 100.869184 198.882088 
L 101.255075 227.692356 
L 101.44802 227.091294 
L 101.640965 196.454295 
L 101.83391 229.726086 
L 102.026856 227.379887 
L 102.219801 204.780018 
L 102.412746 214.602404 
L 102.605692 203.715465 
L 102.798637 212.509154 
L 102.991582 177.398881 
L 103.377473 212.90453 
L 103.570418 219.512025 
L 103.763363 220.822775 
L 103.956309 208.06912 
L 104.149254 219.74805 
L 104.342199 224.431478 
L 104.535144 217.947911 
L 104.72809 222.703916 
L 104.921035 202.343475 
L 105.306925 228.331489 
L 105.499871 229.482419 
L 105.692816 228.447638 
L 105.885761 189.860555 
L 106.078707 226.83675 
L 106.271652 227.793727 
L 106.464597 226.291981 
L 106.850488 230.001758 
L 107.043433 198.511972 
L 107.429324 215.759358 
L 107.622269 235.454679 
L 107.815214 209.60999 
L 108.008159 231.313295 
L 108.201105 194.617908 
L 108.39405 196.893937 
L 108.586995 220.332095 
L 108.77994 226.286311 
L 108.972886 216.84634 
L 109.165831 216.70841 
L 109.358776 233.223891 
L 109.744667 231.601094 
L 109.937612 219.857973 
L 110.130557 215.4533 
L 110.323503 206.296343 
L 110.516448 236.284214 
L 110.709393 231.773328 
L 110.902338 233.565217 
L 111.095284 185.745234 
L 111.481174 234.659027 
L 111.67412 228.960262 
L 111.867065 208.090943 
L 112.06001 200.502852 
L 112.252955 227.449198 
L 112.445901 229.505703 
L 112.638846 214.277973 
L 113.024737 238.080911 
L 113.217682 233.728955 
L 113.410627 213.884963 
L 113.603572 232.649345 
L 113.796518 216.024448 
L 113.989463 230.472589 
L 114.182408 196.054427 
L 114.375353 220.937533 
L 114.761244 191.563333 
L 115.147135 214.200475 
L 115.34008 214.673254 
L 115.533025 224.166022 
L 115.72597 208.978492 
L 115.918916 223.5148 
L 116.111861 228.15439 
L 116.304806 228.256792 
L 116.497751 224.534704 
L 116.690697 229.175775 
L 116.883642 223.627034 
L 117.076587 209.828328 
L 117.462478 230.183548 
L 117.655423 206.715968 
L 117.848368 205.172113 
L 118.041314 225.335876 
L 118.234259 224.776067 
L 118.427204 232.403761 
L 118.62015 198.771679 
L 118.813095 216.93567 
L 119.198985 221.176675 
L 119.391931 188.096316 
L 119.584876 220.300898 
L 119.777821 185.224091 
L 119.970766 213.383638 
L 120.356657 230.190427 
L 120.549602 231.764247 
L 120.742548 229.847194 
L 120.935493 220.501594 
L 121.128438 221.865407 
L 121.514329 169.821273 
L 121.707274 202.535525 
L 121.900219 212.08782 
L 122.093164 228.997847 
L 122.28611 227.716825 
L 122.479055 219.429537 
L 122.672 230.680336 
L 122.864946 219.001047 
L 123.057891 217.382311 
L 123.250836 219.567326 
L 123.660845 236.621204 
L 123.85379 214.509886 
L 124.046735 223.240659 
L 124.239681 213.278767 
L 124.432626 218.555484 
L 124.625571 227.667435 
L 124.818517 190.921003 
L 125.204407 229.977407 
L 125.397352 210.847207 
L 125.590298 227.259145 
L 125.783243 232.366934 
L 125.976188 222.125841 
L 126.169133 227.104082 
L 126.362079 215.346838 
L 126.555024 212.041652 
L 126.747969 193.349943 
L 126.940915 240.130021 
L 127.13386 240.248746 
L 127.326805 232.634567 
L 127.51975 205.833416 
L 127.712696 237.064856 
L 127.905641 200.622612 
L 128.098586 238.901143 
L 128.291531 237.784524 
L 128.677422 209.586885 
L 128.870367 236.315751 
L 129.063313 170.675608 
L 129.449203 199.643419 
L 129.642148 165.525264 
L 129.835094 204.287299 
L 130.028039 212.05917 
L 130.606875 195.065047 
L 130.79982 214.105442 
L 130.992765 211.259952 
L 131.185711 197.110378 
L 131.378656 219.724005 
L 131.571601 221.737834 
L 131.957492 200.903594 
L 132.150437 221.998548 
L 132.343382 225.007177 
L 132.536328 226.152408 
L 132.729273 216.479224 
L 132.922218 225.411654 
L 133.501054 228.736278 
L 133.693999 223.605112 
L 133.886945 196.79912 
L 134.07989 221.763355 
L 134.272835 229.112906 
L 134.46578 206.45728 
L 134.658726 224.534954 
L 134.851671 215.449189 
L 135.044616 228.532244 
L 135.237561 226.506116 
L 135.430507 212.343545 
L 135.623452 226.964254 
L 135.816397 195.542862 
L 136.009343 209.109991 
L 136.202288 231.518193 
L 136.588178 227.152469 
L 136.781124 232.379074 
L 136.974069 229.968138 
L 137.552905 214.052875 
L 137.74585 212.46967 
L 138.131741 236.247499 
L 138.324686 235.221998 
L 138.517631 233.316563 
L 138.710576 200.05862 
L 138.903522 218.216303 
L 139.096467 205.67616 
L 139.289412 237.513584 
L 139.482358 230.432824 
L 139.675303 235.750288 
L 139.868248 234.617662 
L 140.061193 236.729929 
L 140.254139 226.711059 
L 140.447084 236.234446 
L 140.640029 240.045956 
L 140.832974 220.905556 
L 141.02592 222.533691 
L 141.218865 217.259556 
L 141.41181 199.429642 
L 141.797701 238.724136 
L 141.990646 231.030181 
L 142.183591 243.246223 
L 142.376537 202.537834 
L 142.569482 215.798187 
L 142.762427 243.002031 
L 143.148318 231.627898 
L 143.341263 235.557328 
L 143.534208 233.87366 
L 143.727154 238.426859 
L 143.920099 219.775491 
L 144.113044 231.871521 
L 144.498935 237.102322 
L 144.69188 242.015731 
L 144.884825 227.246425 
L 145.077771 246.203346 
L 145.270716 232.310225 
L 145.463661 245.512141 
L 145.656606 236.023913 
L 145.849552 241.63332 
L 146.042497 227.072178 
L 146.235442 234.241281 
L 146.428387 232.38062 
L 146.621333 226.512577 
L 146.814278 237.163384 
L 147.007223 233.946597 
L 147.200169 242.686547 
L 147.393114 223.96688 
L 147.586059 242.235185 
L 147.97195 234.150234 
L 148.164895 244.601714 
L 148.35784 241.968445 
L 148.550786 244.845731 
L 148.574904 240.454971 
L 148.767849 244.221208 
L 148.960794 234.763785 
L 149.153739 242.722301 
L 149.346685 244.092257 
L 149.53963 207.246557 
L 149.732575 235.431819 
L 149.925521 237.684368 
L 150.118466 243.229346 
L 150.311411 207.316225 
L 150.504356 239.293412 
L 150.890247 243.225483 
L 151.083192 229.569907 
L 151.276138 245.418913 
L 151.469083 245.365378 
L 151.662028 224.1474 
L 151.854973 244.327403 
L 152.047919 227.125011 
L 152.240864 247.884379 
L 152.433809 240.392859 
L 152.626754 246.295542 
L 153.012645 233.749821 
L 153.20559 233.784215 
L 153.398536 235.808378 
L 153.591481 192.372179 
L 153.784426 242.925344 
L 153.977371 243.586031 
L 154.170317 222.426668 
L 154.363262 244.391858 
L 154.556207 231.991305 
L 154.749153 247.292887 
L 154.942098 237.620118 
L 155.135043 209.315446 
L 155.713879 246.016969 
L 155.906824 204.426585 
L 156.099769 231.119855 
L 156.292715 233.521299 
L 156.48566 214.956521 
L 156.871551 249.090207 
L 157.064496 240.076852 
L 157.257441 239.814651 
L 157.450386 234.594023 
L 157.643332 246.312003 
L 157.836277 249.443569 
L 158.029222 235.57227 
L 158.222167 237.835907 
L 158.415113 246.6751 
L 158.801003 227.655452 
L 158.993949 247.908193 
L 159.186894 255.04975 
L 159.379839 251.250329 
L 159.572784 244.817089 
L 159.76573 252.979638 
L 159.958675 251.549609 
L 160.15162 232.823964 
L 160.344566 247.015713 
L 160.537511 233.299564 
L 160.730456 254.644573 
L 160.923401 251.67025 
L 161.116347 234.356113 
L 161.309292 250.770217 
L 161.502237 245.144886 
L 161.695182 252.400398 
L 161.888128 245.635883 
L 162.081073 245.917934 
L 162.274018 253.235286 
L 162.466964 252.283728 
L 162.659909 247.914776 
L 162.852854 226.950077 
L 163.045799 255.743325 
L 163.238745 224.487604 
L 163.624635 232.819198 
L 163.81758 232.857458 
L 164.010526 241.689624 
L 164.203471 223.522331 
L 164.396416 251.06862 
L 164.589362 246.216447 
L 164.782307 252.318952 
L 164.975252 253.867577 
L 165.168197 256.465947 
L 165.361143 250.501738 
L 165.554088 256.900746 
L 165.747033 249.604535 
L 165.939979 223.320392 
L 166.132924 222.242266 
L 166.518814 204.913622 
L 166.71176 183.754018 
L 166.904705 183.07707 
L 167.09765 214.51249 
L 167.483541 233.50733 
L 167.676486 235.241117 
L 167.869431 216.603826 
L 168.062377 230.898443 
L 168.255322 225.319143 
L 168.448267 235.347389 
L 168.641212 225.375471 
L 168.834158 238.643878 
L 169.027103 226.955266 
L 169.220048 235.877153 
L 169.412993 235.985503 
L 169.605939 243.379212 
L 169.798884 244.632911 
L 169.991829 240.33604 
L 170.184775 231.444039 
L 170.570665 239.732654 
L 170.76361 187.558229 
L 170.956556 236.424424 
L 171.149501 206.622095 
L 171.342446 242.114511 
L 171.535392 241.791119 
L 171.921282 238.175599 
L 172.114227 225.676155 
L 172.307173 239.835888 
L 172.500118 238.081192 
L 172.693063 241.07658 
L 172.886008 241.160166 
L 173.078954 246.669576 
L 173.271899 226.672353 
L 173.488962 248.046627 
L 173.681908 248.192043 
L 173.874853 238.647306 
L 174.067798 235.092069 
L 174.260744 237.242025 
L 174.453689 233.82336 
L 174.646634 247.596216 
L 174.839579 251.911073 
L 175.032525 241.157048 
L 175.22547 251.14571 
L 175.418415 251.344559 
L 175.61136 246.210174 
L 175.804306 250.250979 
L 175.997251 251.88925 
L 176.190196 216.463208 
L 176.576087 251.859228 
L 176.961977 229.369247 
L 177.154923 255.30699 
L 177.347868 253.193121 
L 177.540813 247.458326 
L 177.733759 246.760389 
L 177.926704 241.513805 
L 178.119649 239.806626 
L 178.312594 240.062097 
L 178.50554 231.570586 
L 178.698485 229.382536 
L 178.89143 233.341257 
L 179.084375 221.683289 
L 179.277321 250.43582 
L 179.470266 223.990233 
L 179.663211 230.323201 
L 179.856157 249.230428 
L 180.049102 242.100746 
L 180.242047 255.257706 
L 180.434992 226.912108 
L 180.627938 251.947047 
L 180.820883 246.947281 
L 181.013828 257.032463 
L 181.399719 236.258406 
L 181.978555 253.192863 
L 182.1715 245.834866 
L 182.364445 254.711279 
L 182.55739 245.305784 
L 182.750336 250.858955 
L 182.943281 240.717824 
L 183.136226 245.090576 
L 183.329172 257.224262 
L 183.522117 243.660161 
L 183.715062 240.870637 
L 183.908007 257.454618 
L 184.100953 229.154758 
L 184.486843 251.879613 
L 184.679788 253.011902 
L 184.872734 250.171371 
L 185.065679 257.877552 
L 185.258624 259.407664 
L 185.45157 240.456979 
L 185.83746 260.303139 
L 186.030405 249.287284 
L 186.223351 262.016957 
L 186.416296 236.738762 
L 186.609241 261.421582 
L 186.802187 255.756006 
L 186.995132 259.06041 
L 187.188077 237.295219 
L 187.381022 257.594168 
L 187.573968 251.967267 
L 187.766913 258.105072 
L 187.959858 255.069361 
L 188.152803 261.525679 
L 188.345749 211.740567 
L 188.538694 233.660682 
L 188.731639 223.729096 
L 188.924585 258.728104 
L 189.11753 227.983827 
L 189.50342 261.785972 
L 189.696366 234.401877 
L 189.889311 244.952501 
L 190.082256 228.40674 
L 190.275201 242.23851 
L 190.468147 224.94877 
L 190.661092 244.817909 
L 190.854037 247.394293 
L 191.046983 241.996756 
L 191.239928 230.391155 
L 191.432873 232.692966 
L 191.625818 245.048229 
L 191.818764 250.24131 
L 192.011709 249.642497 
L 192.204654 239.853186 
L 192.590545 255.005964 
L 192.78349 248.871037 
L 192.976435 238.838981 
L 193.169381 222.63214 
L 193.362326 190.033622 
L 194.134107 244.119084 
L 194.327052 240.235266 
L 194.519998 247.588584 
L 194.712943 243.56696 
L 194.905888 231.744083 
L 195.098833 248.758433 
L 195.291779 245.240052 
L 195.484724 225.445098 
L 195.870615 251.825972 
L 196.06356 251.4782 
L 196.256505 254.334927 
L 196.44945 250.298878 
L 196.642396 255.096718 
L 196.835341 250.207367 
L 197.028286 235.845999 
L 197.221231 246.192252 
L 197.414177 237.3204 
L 197.607122 247.478558 
L 197.800067 251.697406 
L 198.185958 238.097012 
L 198.378903 258.420474 
L 198.403021 258.264905 
L 198.595967 256.770753 
L 198.981857 232.162085 
L 199.174802 244.372551 
L 199.367748 241.791961 
L 199.560693 264.288018 
L 199.946583 255.668505 
L 200.139529 238.154222 
L 200.525419 265.275131 
L 200.718365 245.334872 
L 200.91131 243.621731 
L 201.104255 254.835947 
L 201.2972 244.923013 
L 201.490146 261.24915 
L 201.683091 252.240276 
L 201.876036 261.034468 
L 202.068982 260.860535 
L 202.261927 258.180301 
L 202.454872 240.080891 
L 202.647817 262.928349 
L 202.840763 232.682031 
L 203.033708 251.006913 
L 203.419598 263.546514 
L 203.612544 254.218893 
L 203.805489 260.111867 
L 203.998434 238.623854 
L 204.19138 259.000368 
L 204.384325 259.137241 
L 204.57727 243.650421 
L 204.770215 258.756585 
L 204.963161 247.40741 
L 205.156106 266.37295 
L 205.349051 237.679847 
L 205.541996 249.687132 
L 205.734942 224.030762 
L 205.927887 265.152617 
L 206.120832 251.194034 
L 206.313778 245.913961 
L 206.506723 247.082547 
L 206.699668 256.64018 
L 206.892613 253.708104 
L 207.085559 236.485687 
L 207.278504 255.460098 
L 207.471449 259.441871 
L 207.664395 239.265157 
L 207.85734 240.216902 
L 208.050285 260.368484 
L 208.24323 265.506917 
L 208.436176 267.28145 
L 208.629121 246.886746 
L 208.822066 243.062992 
L 209.207957 265.110613 
L 209.400902 248.751423 
L 209.593847 251.217848 
L 209.786793 220.720192 
L 209.979738 236.256748 
L 210.172683 260.757119 
L 210.365628 249.428956 
L 210.558574 261.050133 
L 210.751519 259.299676 
L 210.944464 260.988227 
L 211.137409 228.455401 
L 211.330355 231.22562 
L 211.716245 253.747994 
L 212.102136 229.584571 
L 212.488026 264.424429 
L 212.680972 248.784724 
L 213.066862 243.490607 
L 213.259808 257.111657 
L 213.452753 245.685768 
L 213.645698 255.122976 
L 213.838643 255.54353 
L 214.031589 247.48006 
L 214.417479 254.222874 
L 214.610424 218.246744 
L 214.80337 256.686969 
L 214.996315 243.261813 
L 215.18926 250.032107 
L 215.382206 230.922915 
L 215.575151 258.255261 
L 215.768096 264.203421 
L 215.961041 259.661392 
L 216.153987 244.26373 
L 216.346932 250.141035 
L 216.539877 263.643639 
L 216.732822 253.152718 
L 217.118713 262.23174 
L 217.311658 241.683602 
L 217.504604 244.615957 
L 217.697549 223.619303 
L 217.890494 231.505883 
L 218.083439 254.074832 
L 218.276385 254.956492 
L 218.46933 243.251935 
L 218.855221 261.927542 
L 219.048166 261.263117 
L 219.241111 252.250409 
L 219.434056 248.676265 
L 219.627002 259.00441 
L 219.819947 247.16085 
L 220.012892 224.272655 
L 220.398783 261.653195 
L 220.591728 239.871633 
L 220.784673 246.000268 
L 220.977619 244.170142 
L 221.170564 246.902499 
L 221.363509 239.61156 
L 221.556454 260.426703 
L 221.7494 264.174348 
L 222.13529 239.394406 
L 222.328236 260.492319 
L 222.521181 268.561807 
L 222.714126 261.143285 
L 222.907071 265.694124 
L 223.100017 255.814105 
L 223.292962 258.565727 
L 223.31708 260.740151 
L 223.510025 249.297709 
L 223.702971 264.779871 
L 223.895916 235.073951 
L 224.281806 264.349013 
L 224.474752 256.984428 
L 224.860642 231.906803 
L 225.246533 253.30507 
L 225.439478 257.507514 
L 225.632423 269.610776 
L 226.018314 243.898735 
L 226.211259 256.244663 
L 226.404204 250.254889 
L 226.59715 253.695441 
L 226.790095 259.402705 
L 226.98304 261.489772 
L 227.175986 250.998718 
L 227.368931 263.416971 
L 227.561876 254.458163 
L 227.947767 262.227367 
L 228.140712 252.249307 
L 228.333657 264.869424 
L 228.526603 232.65707 
L 228.719548 268.224618 
L 228.912493 246.288669 
L 229.105438 250.292891 
L 229.298384 262.108137 
L 229.491329 239.737031 
L 229.684274 260.929742 
L 229.877219 267.024867 
L 230.070165 269.105912 
L 230.26311 274.105487 
L 230.649001 254.677792 
L 230.841946 258.082286 
L 231.034891 265.168549 
L 231.227836 257.953944 
L 231.420782 272.238637 
L 231.806672 251.637854 
L 231.999617 258.261458 
L 232.192563 253.22582 
L 232.578453 224.722612 
L 232.771399 261.309511 
L 233.157289 268.626852 
L 233.350234 220.309202 
L 233.54318 226.154897 
L 233.736125 273.075527 
L 233.92907 269.432035 
L 234.122016 262.968268 
L 234.314961 230.497116 
L 234.507906 253.047167 
L 234.700851 257.837068 
L 234.893797 244.781742 
L 235.086742 249.972409 
L 235.279687 264.113402 
L 235.472632 269.386591 
L 235.665578 244.671826 
L 235.858523 241.654537 
L 236.051468 257.642359 
L 236.244414 241.627338 
L 236.437359 253.681687 
L 236.630304 253.706811 
L 236.823249 251.061805 
L 237.20914 264.338704 
L 237.402085 245.058546 
L 237.59503 247.03403 
L 237.787976 234.479877 
L 237.980921 260.579082 
L 238.173866 236.187901 
L 238.366812 258.976109 
L 238.752702 273.866141 
L 238.945647 264.710222 
L 239.138593 226.973759 
L 239.524483 270.568364 
L 239.717429 251.422492 
L 240.103319 268.79531 
L 240.296264 228.22666 
L 240.48921 267.03059 
L 240.682155 267.485186 
L 240.8751 260.506974 
L 241.068045 265.59228 
L 241.260991 256.499786 
L 241.453936 267.61731 
L 241.646881 239.003833 
L 241.839827 250.60429 
L 242.032772 254.732799 
L 242.225717 240.702452 
L 242.418662 254.889858 
L 242.611608 236.140687 
L 242.804553 252.474549 
L 242.997498 259.066093 
L 243.383389 260.543425 
L 243.576334 238.913424 
L 243.769279 234.280246 
L 243.962225 238.332461 
L 244.15517 252.738329 
L 244.348115 245.836974 
L 244.54106 260.745061 
L 244.734006 239.983683 
L 244.926951 260.568196 
L 245.119896 265.957831 
L 245.312842 245.000208 
L 245.505787 272.280802 
L 245.698732 259.875175 
L 245.891677 264.062963 
L 246.084623 250.134114 
L 246.277568 259.95723 
L 246.663458 247.797051 
L 246.856404 264.447903 
L 247.049349 267.074118 
L 247.242294 267.658414 
L 247.43524 267.13597 
L 247.628185 267.132499 
L 247.82113 277.359075 
L 248.014075 272.231533 
L 248.231139 235.36919 
L 248.424084 260.812165 
L 248.617029 259.294069 
L 248.809975 254.354321 
L 249.00292 233.390891 
L 249.195865 256.016892 
L 249.388811 233.496094 
L 249.581756 230.592468 
L 249.774701 263.065408 
L 249.967646 252.372017 
L 250.160592 226.588693 
L 250.353537 274.734187 
L 250.546482 255.759685 
L 250.739427 269.178184 
L 250.932373 272.635286 
L 251.125318 263.556158 
L 251.318263 266.290992 
L 251.511209 254.087465 
L 251.704154 264.587633 
L 251.897099 239.630118 
L 252.090044 237.439728 
L 252.28299 259.860786 
L 252.475935 233.124413 
L 252.66888 265.125956 
L 252.861825 253.376896 
L 253.054771 248.807125 
L 253.247716 265.82347 
L 253.440661 264.941462 
L 253.633607 266.644645 
L 253.826552 270.384122 
L 254.019497 270.281688 
L 254.212442 243.852699 
L 254.405388 235.572156 
L 254.598333 269.532132 
L 254.791278 265.809021 
L 254.984224 245.251517 
L 255.177169 264.253273 
L 255.370114 261.108044 
L 255.563059 239.556732 
L 255.756005 274.432795 
L 255.94895 270.963384 
L 256.141895 256.840224 
L 256.33484 266.652108 
L 256.527786 256.533286 
L 256.913676 250.767958 
L 257.106622 232.557322 
L 257.299567 252.231536 
L 257.492512 259.652532 
L 257.685457 252.232824 
L 257.878403 271.204747 
L 258.071348 256.308912 
L 258.264293 261.909707 
L 258.457238 228.209686 
L 258.650184 249.431084 
L 258.843129 226.06633 
L 259.61491 276.57132 
L 259.807855 266.959811 
L 260.000801 269.258758 
L 260.193746 261.70275 
L 260.386691 269.121643 
L 260.579637 240.856081 
L 260.772582 244.241456 
L 260.965527 240.061366 
L 261.158472 239.555552 
L 261.351418 233.514736 
L 261.544363 272.194332 
L 262.316144 213.182931 
L 262.89498 267.869207 
L 263.087925 216.379495 
L 263.28087 235.464123 
L 263.473816 227.107446 
L 263.666761 276.18617 
L 263.859706 247.482154 
L 264.245597 278.236651 
L 264.631487 271.054507 
L 264.824433 278.200408 
L 265.017378 251.101455 
L 265.210323 244.370383 
L 265.403268 260.780286 
L 265.596214 223.31314 
L 265.789159 234.721082 
L 265.982104 276.717595 
L 266.367995 256.37667 
L 266.56094 271.737842 
L 266.753885 253.720606 
L 266.946831 260.78379 
L 267.332721 240.160325 
L 267.525666 254.697394 
L 267.718612 239.347775 
L 267.911557 263.107966 
L 268.104502 256.576555 
L 268.297448 272.642738 
L 268.490393 262.990251 
L 268.683338 263.252614 
L 268.876283 265.889124 
L 269.069229 260.22886 
L 269.262174 235.111118 
L 269.455119 247.366441 
L 269.648065 272.040699 
L 269.84101 232.509612 
L 270.033955 255.076972 
L 270.2269 262.620526 
L 270.419846 263.419111 
L 270.612791 271.606583 
L 270.805736 236.474445 
L 271.191627 272.398117 
L 271.384572 247.465635 
L 271.577517 261.292058 
L 271.770463 263.507296 
L 271.963408 256.07716 
L 272.156353 252.948154 
L 272.349298 262.434798 
L 272.735189 238.516814 
L 273.121079 280.077203 
L 273.338143 248.556825 
L 273.531088 275.217616 
L 273.724033 255.248982 
L 273.916979 268.46809 
L 274.109924 242.866432 
L 274.495815 265.725693 
L 274.881705 218.568122 
L 275.460541 268.382977 
L 275.653486 234.523958 
L 276.039377 264.163656 
L 276.232322 245.722175 
L 276.425267 267.187382 
L 276.618213 227.629375 
L 276.811158 251.960499 
L 277.197048 266.732955 
L 277.389994 258.743668 
L 277.582939 239.082961 
L 277.96883 272.183023 
L 278.161775 231.571408 
L 278.35472 257.513044 
L 278.547665 243.106716 
L 278.740611 259.354056 
L 278.933556 263.154486 
L 279.126501 263.691281 
L 279.319446 255.580503 
L 279.512392 274.771629 
L 279.705337 259.503912 
L 279.898282 266.254025 
L 280.091228 263.654048 
L 280.284173 273.766974 
L 280.477118 243.403489 
L 280.670063 278.914679 
L 280.863009 269.030009 
L 281.055954 222.541195 
L 281.248899 262.806353 
L 281.441845 265.677947 
L 281.63479 249.238873 
L 281.827735 266.523692 
L 282.02068 218.605613 
L 282.213626 254.135736 
L 282.406571 250.977282 
L 282.599516 254.499787 
L 282.792461 275.532902 
L 283.178352 244.952978 
L 283.371297 238.984734 
L 283.564243 266.423512 
L 283.757188 251.587174 
L 283.950133 256.269141 
L 284.143078 267.264674 
L 284.336024 240.01125 
L 284.528969 258.431355 
L 284.721914 258.817136 
L 284.914859 243.632733 
L 285.107805 259.790006 
L 285.30075 261.290614 
L 285.493695 219.024498 
L 285.686641 245.239995 
L 285.879586 224.101702 
L 286.072531 261.964672 
L 286.265476 257.168415 
L 286.458422 270.682942 
L 286.651367 253.71849 
L 286.844312 269.538325 
L 287.037258 245.627876 
L 287.230203 253.537349 
L 287.423148 266.130335 
L 287.616093 251.490994 
L 287.809039 269.950333 
L 288.001984 267.076866 
L 288.194929 255.15135 
L 288.387874 221.887516 
L 288.58082 256.69101 
L 288.773765 257.504603 
L 288.96671 268.064897 
L 289.159656 257.458974 
L 289.352601 198.502989 
L 289.545546 269.808446 
L 289.931437 269.966041 
L 290.124382 265.540779 
L 290.317327 253.873277 
L 290.510273 216.688021 
L 290.896163 270.768285 
L 291.089108 265.470624 
L 291.282054 249.648202 
L 291.474999 261.75087 
L 291.667944 266.623998 
L 291.860889 278.708614 
L 292.053835 245.174712 
L 292.24678 261.785531 
L 292.439725 228.537156 
L 292.632671 255.544631 
L 292.825616 266.994741 
L 293.018561 262.404781 
L 293.211506 261.472431 
L 293.404452 255.405753 
L 293.597397 239.174427 
L 293.790342 255.243517 
L 293.983287 247.032616 
L 294.176233 274.271279 
L 294.369178 240.026017 
L 294.755069 271.257248 
L 294.948014 277.877356 
L 295.140959 252.515228 
L 295.52685 273.003535 
L 295.719795 266.477811 
L 295.91274 266.748293 
L 296.105686 259.396656 
L 296.298631 276.763638 
L 296.491576 277.863095 
L 296.684521 273.138927 
L 296.877467 249.952999 
L 297.070412 247.913638 
L 297.263357 261.056189 
L 297.456302 249.293918 
L 297.649248 251.975582 
L 297.842193 247.008991 
L 298.035138 218.32122 
L 298.059256 229.337156 
L 298.252202 224.065333 
L 298.638092 266.44402 
L 298.831038 253.996237 
L 299.023983 265.73281 
L 299.216928 261.566096 
L 299.602819 246.525829 
L 299.795764 263.822482 
L 300.181654 271.174832 
L 300.567545 249.104959 
L 300.76049 268.780867 
L 300.953436 260.562615 
L 301.146381 261.585508 
L 301.339326 248.711621 
L 301.532271 261.679373 
L 301.725217 196.00671 
L 301.918162 256.85278 
L 302.111107 262.715874 
L 302.304053 251.30357 
L 302.689943 259.361433 
L 302.882888 258.959691 
L 303.075834 224.281202 
L 303.268779 266.497794 
L 303.461724 239.314418 
L 303.654669 234.191751 
L 303.847615 258.77494 
L 304.04056 217.378994 
L 304.233505 265.469162 
L 304.426451 262.776334 
L 304.619396 245.139018 
L 304.812341 256.225827 
L 305.005286 258.955982 
L 305.198232 237.717674 
L 305.391177 262.002645 
L 305.584122 261.565657 
L 305.777067 247.627717 
L 305.970013 244.965196 
L 306.162958 245.098505 
L 306.355903 244.685769 
L 306.548849 272.961947 
L 306.741794 234.980273 
L 306.934739 237.320983 
L 307.127684 274.758241 
L 307.32063 242.466268 
L 307.513575 268.849773 
L 307.70652 243.626399 
L 307.899466 268.946934 
L 308.092411 248.971389 
L 308.478301 265.148528 
L 308.864192 233.861211 
L 309.250082 266.608586 
L 309.443028 268.494998 
L 309.635973 266.550435 
L 309.828918 257.521733 
L 310.021864 256.198409 
L 310.214809 234.802677 
L 310.600699 257.207615 
L 310.793645 276.703216 
L 310.98659 265.769085 
L 311.179535 245.37832 
L 311.37248 246.095995 
L 311.565426 267.632606 
L 311.758371 243.944618 
L 312.144262 230.918556 
L 312.337207 258.386393 
L 312.530152 269.148162 
L 312.916043 241.552816 
L 313.108988 246.396416 
L 313.494879 276.700584 
L 313.687824 235.164842 
L 313.880769 259.159314 
L 314.073714 239.107001 
L 314.459605 252.59282 
L 314.65255 267.501157 
L 314.845495 264.890707 
L 315.038441 244.216569 
L 315.231386 262.579476 
L 315.424331 240.792731 
L 316.003167 277.059159 
L 316.196112 243.79415 
L 316.389058 277.378718 
L 316.582003 247.388236 
L 316.774948 276.762814 
L 316.967894 255.779362 
L 317.160839 276.178781 
L 317.546729 236.093251 
L 317.739675 269.943403 
L 317.93262 262.95079 
L 318.31851 271.928158 
L 318.511456 248.194317 
L 318.704401 255.749533 
L 318.897346 240.906221 
L 319.090292 274.656466 
L 319.283237 262.162313 
L 319.476182 212.11595 
L 319.669127 275.550132 
L 319.862073 269.968952 
L 320.055018 239.643948 
L 320.247963 265.400231 
L 320.440908 249.704325 
L 320.633854 250.698196 
L 321.019744 279.440678 
L 321.21269 231.671228 
L 321.405635 224.535789 
L 321.59858 223.659182 
L 321.984471 251.046163 
L 322.177416 232.966722 
L 322.370361 275.700255 
L 322.563307 266.954949 
L 322.949197 232.312159 
L 322.973315 238.16977 
L 323.359206 261.502064 
L 323.552151 255.587871 
L 323.745096 259.819948 
L 323.938042 231.116863 
L 324.130987 273.625233 
L 324.323932 254.579443 
L 324.516877 272.571243 
L 324.902768 255.793096 
L 325.095713 269.633931 
L 325.288659 238.529446 
L 325.674549 245.126422 
L 325.867494 263.130938 
L 326.06044 246.842988 
L 326.253385 255.886774 
L 326.44633 246.5789 
L 326.639275 253.27226 
L 326.832221 255.929187 
L 327.025166 282.699019 
L 327.218111 281.992026 
L 327.411057 267.673628 
L 327.604002 229.500268 
L 327.796947 267.649001 
L 327.989892 273.861571 
L 328.182838 254.633791 
L 328.375783 255.165997 
L 328.568728 263.163841 
L 328.761674 253.300583 
L 328.954619 216.121886 
L 329.147564 263.371061 
L 329.340509 231.901154 
L 329.533455 234.741515 
L 329.7264 271.611368 
L 329.919345 270.648646 
L 330.11229 276.127562 
L 330.305236 270.739367 
L 330.498181 251.469447 
L 330.691126 266.967776 
L 330.884072 252.467758 
L 331.077017 253.913575 
L 331.269962 271.664037 
L 331.462907 253.090923 
L 331.655853 261.757771 
L 331.848798 279.909624 
L 332.041743 261.808856 
L 332.234688 258.53071 
L 332.427634 278.281158 
L 332.620579 269.143599 
L 332.813524 275.294879 
L 333.199415 254.975551 
L 333.39236 233.696074 
L 333.585305 279.630956 
L 333.778251 276.219855 
L 333.971196 267.037787 
L 334.164141 244.631269 
L 334.357087 240.510364 
L 334.550032 270.335713 
L 334.742977 257.832156 
L 334.935922 263.927993 
L 335.128868 234.201048 
L 335.514758 273.26756 
L 335.900649 242.134791 
L 336.093594 275.913529 
L 336.286539 279.300355 
L 336.479485 225.681342 
L 336.67243 267.224611 
L 336.865375 243.256161 
L 337.05832 256.367841 
L 337.251266 256.046113 
L 337.444211 269.39009 
L 337.637156 269.883891 
L 337.830102 241.742553 
L 338.023047 271.188518 
L 338.215992 264.639823 
L 338.408937 270.241524 
L 338.601883 250.857074 
L 338.794828 267.645551 
L 338.987773 265.584583 
L 339.180718 254.01443 
L 339.373664 280.905409 
L 339.566609 239.259423 
L 339.759554 235.501704 
L 339.9525 260.600554 
L 340.145445 264.717155 
L 340.33839 263.961624 
L 340.531335 250.074029 
L 340.724281 273.346142 
L 340.917226 242.509613 
L 341.110171 238.559904 
L 341.303116 279.517685 
L 341.496062 245.209482 
L 341.689007 248.41347 
L 342.074898 283.025173 
L 342.267843 265.876407 
L 342.460788 276.304623 
L 342.653733 235.408985 
L 342.846679 268.075333 
L 343.039624 269.12729 
L 343.232569 234.016202 
L 343.425515 272.774009 
L 343.61846 215.160993 
L 343.811405 263.5854 
L 344.00435 272.115588 
L 344.197296 259.594399 
L 344.583186 254.79845 
L 344.776131 233.234491 
L 344.969077 243.337615 
L 345.162022 237.054991 
L 345.354967 270.439208 
L 345.547913 279.747261 
L 345.740858 256.476121 
L 345.933803 274.757532 
L 346.126748 266.992261 
L 346.319694 250.126908 
L 346.512639 252.203821 
L 346.705584 244.206531 
L 346.898529 271.085279 
L 347.091475 249.099131 
L 347.28442 270.331613 
L 347.477365 238.753733 
L 347.670311 244.004606 
L 347.863256 255.612161 
L 347.887374 254.377398 
L 348.080319 244.357738 
L 348.273265 252.362646 
L 348.46621 271.293049 
L 348.659155 273.555189 
L 348.8521 263.524457 
L 349.045046 237.936911 
L 349.237991 247.988836 
L 349.623882 280.499904 
L 349.816827 285.320548 
L 350.009772 265.735091 
L 350.202717 262.346689 
L 350.588608 273.296546 
L 350.781553 249.569006 
L 350.974498 282.89185 
L 351.167444 251.841527 
L 351.360389 268.401762 
L 351.553334 259.846788 
L 351.74628 234.615282 
L 351.939225 250.785072 
L 352.13217 246.118815 
L 352.325115 251.547473 
L 352.711006 280.606607 
L 352.903951 255.682533 
L 353.096896 265.16103 
L 353.289842 261.55433 
L 353.482787 245.807909 
L 353.675732 252.479052 
L 353.868678 276.417304 
L 354.061623 260.119151 
L 354.254568 262.37227 
L 354.447513 273.168595 
L 355.026349 235.279341 
L 355.219295 234.53094 
L 355.41224 267.723253 
L 355.605185 276.453833 
L 355.79813 258.557218 
L 355.991076 285.905048 
L 356.184021 267.109266 
L 356.376966 225.3328 
L 356.569911 258.243671 
L 356.762857 252.763838 
L 356.955802 271.781381 
L 357.148747 258.031162 
L 357.341693 267.761655 
L 357.534638 247.127774 
L 357.727583 278.060524 
L 357.920528 262.349604 
L 358.113474 269.055706 
L 358.306419 241.005553 
L 358.499364 275.074157 
L 358.69231 232.541696 
L 359.0782 280.591938 
L 359.271145 254.480362 
L 359.464091 256.166069 
L 359.657036 250.506557 
L 359.849981 251.082754 
L 360.042926 282.973106 
L 360.235872 280.004657 
L 360.621762 279.150231 
L 360.814708 284.237044 
L 361.007653 257.208521 
L 361.393543 241.41646 
L 361.586489 264.199244 
L 361.972379 275.103836 
L 362.165324 245.515958 
L 362.35827 274.176003 
L 362.551215 226.707295 
L 362.74416 228.601068 
L 362.937106 233.467831 
L 363.322996 266.629361 
L 363.515941 234.514061 
L 363.708887 269.571647 
L 364.094777 284.179286 
L 364.287723 273.598999 
L 364.480668 235.032449 
L 364.673613 270.808854 
L 364.866558 274.628843 
L 365.059504 282.134271 
L 365.252449 247.344995 
L 365.638339 277.262111 
L 365.831285 257.450495 
L 366.217175 263.249057 
L 366.410121 267.296668 
L 366.603066 278.558219 
L 366.796011 264.222296 
L 366.988956 278.847663 
L 367.374847 248.720197 
L 367.567792 243.869306 
L 367.760737 278.473552 
L 367.953683 278.068458 
L 368.146628 276.814347 
L 368.339573 254.051627 
L 368.532519 282.179149 
L 368.725464 247.409898 
L 368.918409 250.949816 
L 369.3043 223.632315 
L 369.497245 273.284018 
L 369.883136 243.625133 
L 370.269026 269.314798 
L 370.461971 269.2929 
L 370.654917 225.843979 
L 370.847862 272.63342 
L 371.040807 233.27672 
L 371.233752 245.76956 
L 371.426698 236.136317 
L 371.619643 244.538736 
L 371.812588 245.125847 
L 372.005534 278.1668 
L 372.198479 254.831888 
L 372.391424 262.483419 
L 372.584369 250.737989 
L 372.777315 258.671419 
L 372.801433 271.865345 
L 372.994378 227.95009 
L 373.573214 275.579776 
L 373.766159 269.5234 
L 373.959104 247.661225 
L 374.15205 285.191782 
L 374.53794 277.604152 
L 374.730886 287.176832 
L 374.923831 287.578932 
L 375.116776 271.801722 
L 375.309721 266.582035 
L 375.502667 267.235041 
L 375.695612 278.133466 
L 375.888557 269.577361 
L 376.081503 280.554254 
L 376.274448 279.394322 
L 376.467393 263.011687 
L 376.660338 281.830614 
L 376.853284 281.187654 
L 377.046229 282.481707 
L 377.239174 282.902458 
L 377.432119 279.559493 
L 377.625065 220.823389 
L 377.81801 282.503975 
L 378.010955 216.119201 
L 378.203901 257.042746 
L 378.396846 255.128284 
L 378.589791 226.601279 
L 378.782736 252.294093 
L 379.168627 270.413284 
L 379.361572 250.952415 
L 379.554517 273.283424 
L 379.747463 265.669653 
L 379.940408 279.213405 
L 380.133353 245.037086 
L 380.326299 250.186088 
L 380.519244 271.799403 
L 380.712189 268.142711 
L 380.905134 276.311263 
L 381.291025 255.374937 
L 381.48397 276.185482 
L 381.676916 257.437507 
L 381.869861 282.803729 
L 382.062806 272.971088 
L 382.255751 232.534525 
L 382.448697 238.242575 
L 382.641642 237.408036 
L 382.834587 256.046717 
L 383.027532 254.686151 
L 383.220478 243.129776 
L 383.413423 262.764417 
L 383.606368 258.310142 
L 383.799314 278.660397 
L 383.992259 271.356463 
L 384.185204 271.097316 
L 384.378149 285.323438 
L 384.571095 262.924652 
L 384.956985 286.816184 
L 385.535821 266.18199 
L 385.728766 262.800017 
L 385.921712 252.757877 
L 386.114657 258.774412 
L 386.307602 260.285771 
L 386.500547 274.340646 
L 386.693493 244.811607 
L 386.886438 274.74767 
L 387.272329 275.063381 
L 387.465274 276.766342 
L 387.658219 254.455984 
L 387.851164 249.812166 
L 388.04411 253.995696 
L 388.237055 276.214907 
L 388.43 267.917852 
L 388.622945 233.998838 
L 388.815891 260.811441 
L 389.008836 248.136494 
L 389.201781 255.087096 
L 389.587672 276.055018 
L 389.780617 278.706937 
L 389.973562 277.820027 
L 390.166508 285.251149 
L 390.359453 283.704747 
L 390.745344 249.339142 
L 390.938289 271.475885 
L 391.131234 273.215049 
L 391.324179 277.159979 
L 391.517125 277.697994 
L 391.71007 269.52612 
L 391.903015 276.924414 
L 392.09596 273.255861 
L 392.288906 266.701766 
L 392.481851 268.548117 
L 392.674796 271.482382 
L 392.867742 224.057184 
L 393.060687 262.681666 
L 393.253632 259.101679 
L 393.446577 249.283696 
L 393.639523 291.653986 
L 393.832468 259.410117 
L 394.025413 290.28614 
L 394.218358 286.339759 
L 394.411304 291.271465 
L 394.797194 272.617551 
L 394.99014 289.929918 
L 395.183085 257.069952 
L 395.37603 286.047545 
L 395.568975 287.326293 
L 395.761921 260.978476 
L 395.954866 275.912132 
L 396.147811 251.090707 
L 396.340757 268.321508 
L 396.533702 244.170794 
L 396.726647 282.703663 
L 396.919592 287.569897 
L 397.305483 259.07986 
L 397.498428 266.885965 
L 397.691373 242.62777 
L 397.715492 265.479533 
L 397.908437 280.177309 
L 398.101382 246.214857 
L 398.294327 268.628678 
L 398.487273 184.527314 
L 398.487273 184.527314 
" clip-path="url(#pb26ebe7d2d)" style="fill: none; stroke: #ff7f0e; stroke-width: 1.5; stroke-linecap: square"/>
   </g>
   <g id="patch_3">
    <path d="M 57.6 307.584 
L 57.6 41.472 
" style="fill: none; stroke: #000000; stroke-width: 0.8; stroke-linejoin: miter; stroke-linecap: square"/>
   </g>
   <g id="patch_4">
    <path d="M 414.72 307.584 
L 414.72 41.472 
" style="fill: none; stroke: #000000; stroke-width: 0.8; stroke-linejoin: miter; stroke-linecap: square"/>
   </g>
   <g id="patch_5">
    <path d="M 57.6 307.584 
L 414.72 307.584 
" style="fill: none; stroke: #000000; stroke-width: 0.8; stroke-linejoin: miter; stroke-linecap: square"/>
   </g>
   <g id="patch_6">
    <path d="M 57.6 41.472 
L 414.72 41.472 
" style="fill: none; stroke: #000000; stroke-width: 0.8; stroke-linejoin: miter; stroke-linecap: square"/>
   </g>
   <g id="text_12">
    <!-- 2025-02-12-19:24:18 -->
    <g transform="translate(172.178438 35.472) scale(0.12 -0.12)">
     <defs>
      <path id="DejaVuSans-2d" d="M 313 2009 
L 1997 2009 
L 1997 1497 
L 313 1497 
L 313 2009 
z
" transform="scale(0.015625)"/>
      <path id="DejaVuSans-39" d="M 703 97 
L 703 672 
Q 941 559 1184 500 
Q 1428 441 1663 441 
Q 2288 441 2617 861 
Q 2947 1281 2994 2138 
Q 2813 1869 2534 1725 
Q 2256 1581 1919 1581 
Q 1219 1581 811 2004 
Q 403 2428 403 3163 
Q 403 3881 828 4315 
Q 1253 4750 1959 4750 
Q 2769 4750 3195 4129 
Q 3622 3509 3622 2328 
Q 3622 1225 3098 567 
Q 2575 -91 1691 -91 
Q 1453 -91 1209 -44 
Q 966 3 703 97 
z
M 1959 2075 
Q 2384 2075 2632 2365 
Q 2881 2656 2881 3163 
Q 2881 3666 2632 3958 
Q 2384 4250 1959 4250 
Q 1534 4250 1286 3958 
Q 1038 3666 1038 3163 
Q 1038 2656 1286 2365 
Q 1534 2075 1959 2075 
z
" transform="scale(0.015625)"/>
      <path id="DejaVuSans-3a" d="M 750 794 
L 1409 794 
L 1409 0 
L 750 0 
L 750 794 
z
M 750 3309 
L 1409 3309 
L 1409 2516 
L 750 2516 
L 750 3309 
z
" transform="scale(0.015625)"/>
      <path id="DejaVuSans-34" d="M 2419 4116 
L 825 1625 
L 2419 1625 
L 2419 4116 
z
M 2253 4666 
L 3047 4666 
L 3047 1625 
L 3713 1625 
L 3713 1100 
L 3047 1100 
L 3047 0 
L 2419 0 
L 2419 1100 
L 313 1100 
L 313 1709 
L 2253 4666 
z
" transform="scale(0.015625)"/>
      <path id="DejaVuSans-38" d="M 2034 2216 
Q 1584 2216 1326 1975 
Q 1069 1734 1069 1313 
Q 1069 891 1326 650 
Q 1584 409 2034 409 
Q 2484 409 2743 651 
Q 3003 894 3003 1313 
Q 3003 1734 2745 1975 
Q 2488 2216 2034 2216 
z
M 1403 2484 
Q 997 2584 770 2862 
Q 544 3141 544 3541 
Q 544 4100 942 4425 
Q 1341 4750 2034 4750 
Q 2731 4750 3128 4425 
Q 3525 4100 3525 3541 
Q 3525 3141 3298 2862 
Q 3072 2584 2669 2484 
Q 3125 2378 3379 2068 
Q 3634 1759 3634 1313 
Q 3634 634 3220 271 
Q 2806 -91 2034 -91 
Q 1263 -91 848 271 
Q 434 634 434 1313 
Q 434 1759 690 2068 
Q 947 2378 1403 2484 
z
M 1172 3481 
Q 1172 3119 1398 2916 
Q 1625 2713 2034 2713 
Q 2441 2713 2670 2916 
Q 2900 3119 2900 3481 
Q 2900 3844 2670 4047 
Q 2441 4250 2034 4250 
Q 1625 4250 1398 4047 
Q 1172 3844 1172 3481 
z
" transform="scale(0.015625)"/>
     </defs>
     <use xlink:href="#DejaVuSans-32"/>
     <use xlink:href="#DejaVuSans-30" x="63.623047"/>
     <use xlink:href="#DejaVuSans-32" x="127.246094"/>
     <use xlink:href="#DejaVuSans-35" x="190.869141"/>
     <use xlink:href="#DejaVuSans-2d" x="254.492188"/>
     <use xlink:href="#DejaVuSans-30" x="290.576172"/>
     <use xlink:href="#DejaVuSans-32" x="354.199219"/>
     <use xlink:href="#DejaVuSans-2d" x="417.822266"/>
     <use xlink:href="#DejaVuSans-31" x="453.90625"/>
     <use xlink:href="#DejaVuSans-32" x="517.529297"/>
     <use xlink:href="#DejaVuSans-2d" x="581.152344"/>
     <use xlink:href="#DejaVuSans-31" x="617.236328"/>
     <use xlink:href="#DejaVuSans-39" x="680.859375"/>
     <use xlink:href="#DejaVuSans-3a" x="744.482422"/>
     <use xlink:href="#DejaVuSans-32" x="778.173828"/>
     <use xlink:href="#DejaVuSans-34" x="841.796875"/>
     <use xlink:href="#DejaVuSans-3a" x="905.419922"/>
     <use xlink:href="#DejaVuSans-31" x="939.111328"/>
     <use xlink:href="#DejaVuSans-38" x="1002.734375"/>
    </g>
   </g>
   <g id="legend_1">
    <g id="patch_7">
     <path d="M 261.018438 78.82825 
L 407.72 78.82825 
Q 409.72 78.82825 409.72 76.82825 
L 409.72 48.472 
Q 409.72 46.472 407.72 46.472 
L 261.018438 46.472 
Q 259.018438 46.472 259.018438 48.472 
L 259.018438 76.82825 
Q 259.018438 78.82825 261.018438 78.82825 
z
" style="fill: #ffffff; opacity: 0.8; stroke: #cccccc; stroke-linejoin: miter"/>
    </g>
    <g id="line2d_37">
     <path d="M 263.018438 54.570437 
L 273.018438 54.570437 
L 283.018438 54.570437 
" style="fill: none; stroke: #1f77b4; stroke-width: 1.5; stroke-linecap: square"/>
    </g>
    <g id="text_13">
     <!-- schnet -->
     <g transform="translate(291.018438 58.070437) scale(0.1 -0.1)">
      <defs>
       <path id="DejaVuSans-63" d="M 3122 3366 
L 3122 2828 
Q 2878 2963 2633 3030 
Q 2388 3097 2138 3097 
Q 1578 3097 1268 2742 
Q 959 2388 959 1747 
Q 959 1106 1268 751 
Q 1578 397 2138 397 
Q 2388 397 2633 464 
Q 2878 531 3122 666 
L 3122 134 
Q 2881 22 2623 -34 
Q 2366 -91 2075 -91 
Q 1284 -91 818 406 
Q 353 903 353 1747 
Q 353 2603 823 3093 
Q 1294 3584 2113 3584 
Q 2378 3584 2631 3529 
Q 2884 3475 3122 3366 
z
" transform="scale(0.015625)"/>
       <path id="DejaVuSans-68" d="M 3513 2113 
L 3513 0 
L 2938 0 
L 2938 2094 
Q 2938 2591 2744 2837 
Q 2550 3084 2163 3084 
Q 1697 3084 1428 2787 
Q 1159 2491 1159 1978 
L 1159 0 
L 581 0 
L 581 4863 
L 1159 4863 
L 1159 2956 
Q 1366 3272 1645 3428 
Q 1925 3584 2291 3584 
Q 2894 3584 3203 3211 
Q 3513 2838 3513 2113 
z
" transform="scale(0.015625)"/>
       <path id="DejaVuSans-6e" d="M 3513 2113 
L 3513 0 
L 2938 0 
L 2938 2094 
Q 2938 2591 2744 2837 
Q 2550 3084 2163 3084 
Q 1697 3084 1428 2787 
Q 1159 2491 1159 1978 
L 1159 0 
L 581 0 
L 581 3500 
L 1159 3500 
L 1159 2956 
Q 1366 3272 1645 3428 
Q 1925 3584 2291 3584 
Q 2894 3584 3203 3211 
Q 3513 2838 3513 2113 
z
" transform="scale(0.015625)"/>
      </defs>
      <use xlink:href="#DejaVuSans-73"/>
      <use xlink:href="#DejaVuSans-63" x="52.099609"/>
      <use xlink:href="#DejaVuSans-68" x="107.080078"/>
      <use xlink:href="#DejaVuSans-6e" x="170.458984"/>
      <use xlink:href="#DejaVuSans-65" x="233.837891"/>
      <use xlink:href="#DejaVuSans-74" x="295.361328"/>
     </g>
    </g>
    <g id="line2d_38">
     <path d="M 263.018438 69.248562 
L 273.018438 69.248562 
L 283.018438 69.248562 
" style="fill: none; stroke: #ff7f0e; stroke-width: 1.5; stroke-linecap: square"/>
    </g>
    <g id="text_14">
     <!-- drgin(without softmax) -->
     <g transform="translate(291.018438 72.748562) scale(0.1 -0.1)">
      <defs>
       <path id="DejaVuSans-64" d="M 2906 2969 
L 2906 4863 
L 3481 4863 
L 3481 0 
L 2906 0 
L 2906 525 
Q 2725 213 2448 61 
Q 2172 -91 1784 -91 
Q 1150 -91 751 415 
Q 353 922 353 1747 
Q 353 2572 751 3078 
Q 1150 3584 1784 3584 
Q 2172 3584 2448 3432 
Q 2725 3281 2906 2969 
z
M 947 1747 
Q 947 1113 1208 752 
Q 1469 391 1925 391 
Q 2381 391 2643 752 
Q 2906 1113 2906 1747 
Q 2906 2381 2643 2742 
Q 2381 3103 1925 3103 
Q 1469 3103 1208 2742 
Q 947 2381 947 1747 
z
" transform="scale(0.015625)"/>
       <path id="DejaVuSans-67" d="M 2906 1791 
Q 2906 2416 2648 2759 
Q 2391 3103 1925 3103 
Q 1463 3103 1205 2759 
Q 947 2416 947 1791 
Q 947 1169 1205 825 
Q 1463 481 1925 481 
Q 2391 481 2648 825 
Q 2906 1169 2906 1791 
z
M 3481 434 
Q 3481 -459 3084 -895 
Q 2688 -1331 1869 -1331 
Q 1566 -1331 1297 -1286 
Q 1028 -1241 775 -1147 
L 775 -588 
Q 1028 -725 1275 -790 
Q 1522 -856 1778 -856 
Q 2344 -856 2625 -561 
Q 2906 -266 2906 331 
L 2906 616 
Q 2728 306 2450 153 
Q 2172 0 1784 0 
Q 1141 0 747 490 
Q 353 981 353 1791 
Q 353 2603 747 3093 
Q 1141 3584 1784 3584 
Q 2172 3584 2450 3431 
Q 2728 3278 2906 2969 
L 2906 3500 
L 3481 3500 
L 3481 434 
z
" transform="scale(0.015625)"/>
       <path id="DejaVuSans-28" d="M 1984 4856 
Q 1566 4138 1362 3434 
Q 1159 2731 1159 2009 
Q 1159 1288 1364 580 
Q 1569 -128 1984 -844 
L 1484 -844 
Q 1016 -109 783 600 
Q 550 1309 550 2009 
Q 550 2706 781 3412 
Q 1013 4119 1484 4856 
L 1984 4856 
z
" transform="scale(0.015625)"/>
       <path id="DejaVuSans-77" d="M 269 3500 
L 844 3500 
L 1563 769 
L 2278 3500 
L 2956 3500 
L 3675 769 
L 4391 3500 
L 4966 3500 
L 4050 0 
L 3372 0 
L 2619 2869 
L 1863 0 
L 1184 0 
L 269 3500 
z
" transform="scale(0.015625)"/>
       <path id="DejaVuSans-75" d="M 544 1381 
L 544 3500 
L 1119 3500 
L 1119 1403 
Q 1119 906 1312 657 
Q 1506 409 1894 409 
Q 2359 409 2629 706 
Q 2900 1003 2900 1516 
L 2900 3500 
L 3475 3500 
L 3475 0 
L 2900 0 
L 2900 538 
Q 2691 219 2414 64 
Q 2138 -91 1772 -91 
Q 1169 -91 856 284 
Q 544 659 544 1381 
z
M 1991 3584 
L 1991 3584 
z
" transform="scale(0.015625)"/>
       <path id="DejaVuSans-66" d="M 2375 4863 
L 2375 4384 
L 1825 4384 
Q 1516 4384 1395 4259 
Q 1275 4134 1275 3809 
L 1275 3500 
L 2222 3500 
L 2222 3053 
L 1275 3053 
L 1275 0 
L 697 0 
L 697 3053 
L 147 3053 
L 147 3500 
L 697 3500 
L 697 3744 
Q 697 4328 969 4595 
Q 1241 4863 1831 4863 
L 2375 4863 
z
" transform="scale(0.015625)"/>
       <path id="DejaVuSans-6d" d="M 3328 2828 
Q 3544 3216 3844 3400 
Q 4144 3584 4550 3584 
Q 5097 3584 5394 3201 
Q 5691 2819 5691 2113 
L 5691 0 
L 5113 0 
L 5113 2094 
Q 5113 2597 4934 2840 
Q 4756 3084 4391 3084 
Q 3944 3084 3684 2787 
Q 3425 2491 3425 1978 
L 3425 0 
L 2847 0 
L 2847 2094 
Q 2847 2600 2669 2842 
Q 2491 3084 2119 3084 
Q 1678 3084 1418 2786 
Q 1159 2488 1159 1978 
L 1159 0 
L 581 0 
L 581 3500 
L 1159 3500 
L 1159 2956 
Q 1356 3278 1631 3431 
Q 1906 3584 2284 3584 
Q 2666 3584 2933 3390 
Q 3200 3197 3328 2828 
z
" transform="scale(0.015625)"/>
       <path id="DejaVuSans-61" d="M 2194 1759 
Q 1497 1759 1228 1600 
Q 959 1441 959 1056 
Q 959 750 1161 570 
Q 1363 391 1709 391 
Q 2188 391 2477 730 
Q 2766 1069 2766 1631 
L 2766 1759 
L 2194 1759 
z
M 3341 1997 
L 3341 0 
L 2766 0 
L 2766 531 
Q 2569 213 2275 61 
Q 1981 -91 1556 -91 
Q 1019 -91 701 211 
Q 384 513 384 1019 
Q 384 1609 779 1909 
Q 1175 2209 1959 2209 
L 2766 2209 
L 2766 2266 
Q 2766 2663 2505 2880 
Q 2244 3097 1772 3097 
Q 1472 3097 1187 3025 
Q 903 2953 641 2809 
L 641 3341 
Q 956 3463 1253 3523 
Q 1550 3584 1831 3584 
Q 2591 3584 2966 3190 
Q 3341 2797 3341 1997 
z
" transform="scale(0.015625)"/>
       <path id="DejaVuSans-78" d="M 3513 3500 
L 2247 1797 
L 3578 0 
L 2900 0 
L 1881 1375 
L 863 0 
L 184 0 
L 1544 1831 
L 300 3500 
L 978 3500 
L 1906 2253 
L 2834 3500 
L 3513 3500 
z
" transform="scale(0.015625)"/>
       <path id="DejaVuSans-29" d="M 513 4856 
L 1013 4856 
Q 1481 4119 1714 3412 
Q 1947 2706 1947 2009 
Q 1947 1309 1714 600 
Q 1481 -109 1013 -844 
L 513 -844 
Q 928 -128 1133 580 
Q 1338 1288 1338 2009 
Q 1338 2731 1133 3434 
Q 928 4138 513 4856 
z
" transform="scale(0.015625)"/>
      </defs>
      <use xlink:href="#DejaVuSans-64"/>
      <use xlink:href="#DejaVuSans-72" x="63.476562"/>
      <use xlink:href="#DejaVuSans-67" x="102.839844"/>
      <use xlink:href="#DejaVuSans-69" x="166.316406"/>
      <use xlink:href="#DejaVuSans-6e" x="194.099609"/>
      <use xlink:href="#DejaVuSans-28" x="257.478516"/>
      <use xlink:href="#DejaVuSans-77" x="296.492188"/>
      <use xlink:href="#DejaVuSans-69" x="378.279297"/>
      <use xlink:href="#DejaVuSans-74" x="406.0625"/>
      <use xlink:href="#DejaVuSans-68" x="445.271484"/>
      <use xlink:href="#DejaVuSans-6f" x="508.650391"/>
      <use xlink:href="#DejaVuSans-75" x="569.832031"/>
      <use xlink:href="#DejaVuSans-74" x="633.210938"/>
      <use xlink:href="#DejaVuSans-20" x="672.419922"/>
      <use xlink:href="#DejaVuSans-73" x="704.207031"/>
      <use xlink:href="#DejaVuSans-6f" x="756.306641"/>
      <use xlink:href="#DejaVuSans-66" x="817.488281"/>
      <use xlink:href="#DejaVuSans-74" x="850.943359"/>
      <use xlink:href="#DejaVuSans-6d" x="890.152344"/>
      <use xlink:href="#DejaVuSans-61" x="987.564453"/>
      <use xlink:href="#DejaVuSans-78" x="1048.84375"/>
      <use xlink:href="#DejaVuSans-29" x="1108.023438"/>
     </g>
    </g>
   </g>
  </g>
 </g>
 <defs>
  <clipPath id="pb26ebe7d2d">
   <rect x="57.6" y="41.472" width="357.12" height="266.112"/>
  </clipPath>
 </defs>
</svg>
