<?xml version="1.0" encoding="utf-8" standalone="no"?>
<!DOCTYPE svg PUBLIC "-//W3C//DTD SVG 1.1//EN"
  "http://www.w3.org/Graphics/SVG/1.1/DTD/svg11.dtd">
<svg xmlns:xlink="http://www.w3.org/1999/xlink" width="460.8pt" height="345.6pt" viewBox="0 0 460.8 345.6" xmlns="http://www.w3.org/2000/svg" version="1.1">
 <metadata>
  <rdf:RDF xmlns:dc="http://purl.org/dc/elements/1.1/" xmlns:cc="http://creativecommons.org/ns#" xmlns:rdf="http://www.w3.org/1999/02/22-rdf-syntax-ns#">
   <cc:Work>
    <dc:type rdf:resource="http://purl.org/dc/dcmitype/StillImage"/>
    <dc:date>2025-02-12T16:30:37.881610</dc:date>
    <dc:format>image/svg+xml</dc:format>
    <dc:creator>
     <cc:Agent>
      <dc:title>Matplotlib v3.8.4, https://matplotlib.org/</dc:title>
     </cc:Agent>
    </dc:creator>
   </cc:Work>
  </rdf:RDF>
 </metadata>
 <defs>
  <style type="text/css">*{stroke-linejoin: round; stroke-linecap: butt}</style>
 </defs>
 <g id="figure_1">
  <g id="patch_1">
   <path d="M 0 345.6 
L 460.8 345.6 
L 460.8 0 
L 0 0 
z
" style="fill: #ffffff"/>
  </g>
  <g id="axes_1">
   <g id="patch_2">
    <path d="M 57.6 307.584 
L 414.72 307.584 
L 414.72 41.472 
L 57.6 41.472 
z
" style="fill: #ffffff"/>
   </g>
   <g id="matplotlib.axis_1">
    <g id="xtick_1">
     <g id="line2d_1">
      <defs>
       <path id="mfbbf661726" d="M 0 0 
L 0 3.5 
" style="stroke: #000000; stroke-width: 0.8"/>
      </defs>
      <g>
       <use xlink:href="#mfbbf661726" x="73.754118" y="307.584" style="stroke: #000000; stroke-width: 0.8"/>
      </g>
     </g>
     <g id="text_1">
      <!-- 0 -->
      <g transform="translate(70.572868 322.182437) scale(0.1 -0.1)">
       <defs>
        <path id="DejaVuSans-30" d="M 2034 4250 
Q 1547 4250 1301 3770 
Q 1056 3291 1056 2328 
Q 1056 1369 1301 889 
Q 1547 409 2034 409 
Q 2525 409 2770 889 
Q 3016 1369 3016 2328 
Q 3016 3291 2770 3770 
Q 2525 4250 2034 4250 
z
M 2034 4750 
Q 2819 4750 3233 4129 
Q 3647 3509 3647 2328 
Q 3647 1150 3233 529 
Q 2819 -91 2034 -91 
Q 1250 -91 836 529 
Q 422 1150 422 2328 
Q 422 3509 836 4129 
Q 1250 4750 2034 4750 
z
" transform="scale(0.015625)"/>
       </defs>
       <use xlink:href="#DejaVuSans-30"/>
      </g>
     </g>
    </g>
    <g id="xtick_2">
     <g id="line2d_2">
      <g>
       <use xlink:href="#mfbbf661726" x="152.362967" y="307.584" style="stroke: #000000; stroke-width: 0.8"/>
      </g>
     </g>
     <g id="text_2">
      <!-- 1000 -->
      <g transform="translate(139.637967 322.182437) scale(0.1 -0.1)">
       <defs>
        <path id="DejaVuSans-31" d="M 794 531 
L 1825 531 
L 1825 4091 
L 703 3866 
L 703 4441 
L 1819 4666 
L 2450 4666 
L 2450 531 
L 3481 531 
L 3481 0 
L 794 0 
L 794 531 
z
" transform="scale(0.015625)"/>
       </defs>
       <use xlink:href="#DejaVuSans-31"/>
       <use xlink:href="#DejaVuSans-30" x="63.623047"/>
       <use xlink:href="#DejaVuSans-30" x="127.246094"/>
       <use xlink:href="#DejaVuSans-30" x="190.869141"/>
      </g>
     </g>
    </g>
    <g id="xtick_3">
     <g id="line2d_3">
      <g>
       <use xlink:href="#mfbbf661726" x="230.971816" y="307.584" style="stroke: #000000; stroke-width: 0.8"/>
      </g>
     </g>
     <g id="text_3">
      <!-- 2000 -->
      <g transform="translate(218.246816 322.182437) scale(0.1 -0.1)">
       <defs>
        <path id="DejaVuSans-32" d="M 1228 531 
L 3431 531 
L 3431 0 
L 469 0 
L 469 531 
Q 828 903 1448 1529 
Q 2069 2156 2228 2338 
Q 2531 2678 2651 2914 
Q 2772 3150 2772 3378 
Q 2772 3750 2511 3984 
Q 2250 4219 1831 4219 
Q 1534 4219 1204 4116 
Q 875 4013 500 3803 
L 500 4441 
Q 881 4594 1212 4672 
Q 1544 4750 1819 4750 
Q 2544 4750 2975 4387 
Q 3406 4025 3406 3419 
Q 3406 3131 3298 2873 
Q 3191 2616 2906 2266 
Q 2828 2175 2409 1742 
Q 1991 1309 1228 531 
z
" transform="scale(0.015625)"/>
       </defs>
       <use xlink:href="#DejaVuSans-32"/>
       <use xlink:href="#DejaVuSans-30" x="63.623047"/>
       <use xlink:href="#DejaVuSans-30" x="127.246094"/>
       <use xlink:href="#DejaVuSans-30" x="190.869141"/>
      </g>
     </g>
    </g>
    <g id="xtick_4">
     <g id="line2d_4">
      <g>
       <use xlink:href="#mfbbf661726" x="309.580665" y="307.584" style="stroke: #000000; stroke-width: 0.8"/>
      </g>
     </g>
     <g id="text_4">
      <!-- 3000 -->
      <g transform="translate(296.855665 322.182437) scale(0.1 -0.1)">
       <defs>
        <path id="DejaVuSans-33" d="M 2597 2516 
Q 3050 2419 3304 2112 
Q 3559 1806 3559 1356 
Q 3559 666 3084 287 
Q 2609 -91 1734 -91 
Q 1441 -91 1130 -33 
Q 819 25 488 141 
L 488 750 
Q 750 597 1062 519 
Q 1375 441 1716 441 
Q 2309 441 2620 675 
Q 2931 909 2931 1356 
Q 2931 1769 2642 2001 
Q 2353 2234 1838 2234 
L 1294 2234 
L 1294 2753 
L 1863 2753 
Q 2328 2753 2575 2939 
Q 2822 3125 2822 3475 
Q 2822 3834 2567 4026 
Q 2313 4219 1838 4219 
Q 1578 4219 1281 4162 
Q 984 4106 628 3988 
L 628 4550 
Q 988 4650 1302 4700 
Q 1616 4750 1894 4750 
Q 2613 4750 3031 4423 
Q 3450 4097 3450 3541 
Q 3450 3153 3228 2886 
Q 3006 2619 2597 2516 
z
" transform="scale(0.015625)"/>
       </defs>
       <use xlink:href="#DejaVuSans-33"/>
       <use xlink:href="#DejaVuSans-30" x="63.623047"/>
       <use xlink:href="#DejaVuSans-30" x="127.246094"/>
       <use xlink:href="#DejaVuSans-30" x="190.869141"/>
      </g>
     </g>
    </g>
    <g id="xtick_5">
     <g id="line2d_5">
      <g>
       <use xlink:href="#mfbbf661726" x="388.189514" y="307.584" style="stroke: #000000; stroke-width: 0.8"/>
      </g>
     </g>
     <g id="text_5">
      <!-- 4000 -->
      <g transform="translate(375.464514 322.182437) scale(0.1 -0.1)">
       <defs>
        <path id="DejaVuSans-34" d="M 2419 4116 
L 825 1625 
L 2419 1625 
L 2419 4116 
z
M 2253 4666 
L 3047 4666 
L 3047 1625 
L 3713 1625 
L 3713 1100 
L 3047 1100 
L 3047 0 
L 2419 0 
L 2419 1100 
L 313 1100 
L 313 1709 
L 2253 4666 
z
" transform="scale(0.015625)"/>
       </defs>
       <use xlink:href="#DejaVuSans-34"/>
       <use xlink:href="#DejaVuSans-30" x="63.623047"/>
       <use xlink:href="#DejaVuSans-30" x="127.246094"/>
       <use xlink:href="#DejaVuSans-30" x="190.869141"/>
      </g>
     </g>
    </g>
    <g id="text_6">
     <!-- iter# -->
     <g transform="translate(223.488906 335.860562) scale(0.1 -0.1)">
      <defs>
       <path id="DejaVuSans-69" d="M 603 3500 
L 1178 3500 
L 1178 0 
L 603 0 
L 603 3500 
z
M 603 4863 
L 1178 4863 
L 1178 4134 
L 603 4134 
L 603 4863 
z
" transform="scale(0.015625)"/>
       <path id="DejaVuSans-74" d="M 1172 4494 
L 1172 3500 
L 2356 3500 
L 2356 3053 
L 1172 3053 
L 1172 1153 
Q 1172 725 1289 603 
Q 1406 481 1766 481 
L 2356 481 
L 2356 0 
L 1766 0 
Q 1100 0 847 248 
Q 594 497 594 1153 
L 594 3053 
L 172 3053 
L 172 3500 
L 594 3500 
L 594 4494 
L 1172 4494 
z
" transform="scale(0.015625)"/>
       <path id="DejaVuSans-65" d="M 3597 1894 
L 3597 1613 
L 953 1613 
Q 991 1019 1311 708 
Q 1631 397 2203 397 
Q 2534 397 2845 478 
Q 3156 559 3463 722 
L 3463 178 
Q 3153 47 2828 -22 
Q 2503 -91 2169 -91 
Q 1331 -91 842 396 
Q 353 884 353 1716 
Q 353 2575 817 3079 
Q 1281 3584 2069 3584 
Q 2775 3584 3186 3129 
Q 3597 2675 3597 1894 
z
M 3022 2063 
Q 3016 2534 2758 2815 
Q 2500 3097 2075 3097 
Q 1594 3097 1305 2825 
Q 1016 2553 972 2059 
L 3022 2063 
z
" transform="scale(0.015625)"/>
       <path id="DejaVuSans-72" d="M 2631 2963 
Q 2534 3019 2420 3045 
Q 2306 3072 2169 3072 
Q 1681 3072 1420 2755 
Q 1159 2438 1159 1844 
L 1159 0 
L 581 0 
L 581 3500 
L 1159 3500 
L 1159 2956 
Q 1341 3275 1631 3429 
Q 1922 3584 2338 3584 
Q 2397 3584 2469 3576 
Q 2541 3569 2628 3553 
L 2631 2963 
z
" transform="scale(0.015625)"/>
       <path id="DejaVuSans-23" d="M 3272 2816 
L 2363 2816 
L 2100 1772 
L 3016 1772 
L 3272 2816 
z
M 2803 4594 
L 2478 3297 
L 3391 3297 
L 3719 4594 
L 4219 4594 
L 3897 3297 
L 4872 3297 
L 4872 2816 
L 3775 2816 
L 3519 1772 
L 4513 1772 
L 4513 1294 
L 3397 1294 
L 3072 0 
L 2572 0 
L 2894 1294 
L 1978 1294 
L 1656 0 
L 1153 0 
L 1478 1294 
L 494 1294 
L 494 1772 
L 1594 1772 
L 1856 2816 
L 850 2816 
L 850 3297 
L 1978 3297 
L 2297 4594 
L 2803 4594 
z
" transform="scale(0.015625)"/>
      </defs>
      <use xlink:href="#DejaVuSans-69"/>
      <use xlink:href="#DejaVuSans-74" x="27.783203"/>
      <use xlink:href="#DejaVuSans-65" x="66.992188"/>
      <use xlink:href="#DejaVuSans-72" x="128.515625"/>
      <use xlink:href="#DejaVuSans-23" x="169.628906"/>
     </g>
    </g>
   </g>
   <g id="matplotlib.axis_2">
    <g id="ytick_1">
     <g id="line2d_6">
      <defs>
       <path id="ma344540e81" d="M 0 0 
L -3.5 0 
" style="stroke: #000000; stroke-width: 0.8"/>
      </defs>
      <g>
       <use xlink:href="#ma344540e81" x="57.6" y="243.714654" style="stroke: #000000; stroke-width: 0.8"/>
      </g>
     </g>
     <g id="text_7">
      <!-- $\mathdefault{10^{-1}}$ -->
      <g transform="translate(27.1 247.513873) scale(0.1 -0.1)">
       <defs>
        <path id="DejaVuSans-2212" d="M 678 2272 
L 4684 2272 
L 4684 1741 
L 678 1741 
L 678 2272 
z
" transform="scale(0.015625)"/>
       </defs>
       <use xlink:href="#DejaVuSans-31" transform="translate(0 0.684375)"/>
       <use xlink:href="#DejaVuSans-30" transform="translate(63.623047 0.684375)"/>
       <use xlink:href="#DejaVuSans-2212" transform="translate(128.203125 38.965625) scale(0.7)"/>
       <use xlink:href="#DejaVuSans-31" transform="translate(186.855469 38.965625) scale(0.7)"/>
      </g>
     </g>
    </g>
    <g id="ytick_2">
     <g id="line2d_7">
      <g>
       <use xlink:href="#ma344540e81" x="57.6" y="155.648275" style="stroke: #000000; stroke-width: 0.8"/>
      </g>
     </g>
     <g id="text_8">
      <!-- $\mathdefault{10^{0}}$ -->
      <g transform="translate(33 159.447494) scale(0.1 -0.1)">
       <use xlink:href="#DejaVuSans-31" transform="translate(0 0.765625)"/>
       <use xlink:href="#DejaVuSans-30" transform="translate(63.623047 0.765625)"/>
       <use xlink:href="#DejaVuSans-30" transform="translate(128.203125 39.046875) scale(0.7)"/>
      </g>
     </g>
    </g>
    <g id="ytick_3">
     <g id="line2d_8">
      <g>
       <use xlink:href="#ma344540e81" x="57.6" y="67.581895" style="stroke: #000000; stroke-width: 0.8"/>
      </g>
     </g>
     <g id="text_9">
      <!-- $\mathdefault{10^{1}}$ -->
      <g transform="translate(33 71.381114) scale(0.1 -0.1)">
       <use xlink:href="#DejaVuSans-31" transform="translate(0 0.684375)"/>
       <use xlink:href="#DejaVuSans-30" transform="translate(63.623047 0.684375)"/>
       <use xlink:href="#DejaVuSans-31" transform="translate(128.203125 38.965625) scale(0.7)"/>
      </g>
     </g>
    </g>
    <g id="ytick_4">
     <g id="line2d_9">
      <defs>
       <path id="mc9c3edadbf" d="M 0 0 
L -2 0 
" style="stroke: #000000; stroke-width: 0.6"/>
      </defs>
      <g>
       <use xlink:href="#mc9c3edadbf" x="57.6" y="305.270412" style="stroke: #000000; stroke-width: 0.6"/>
      </g>
     </g>
    </g>
    <g id="ytick_5">
     <g id="line2d_10">
      <g>
       <use xlink:href="#mc9c3edadbf" x="57.6" y="289.762692" style="stroke: #000000; stroke-width: 0.6"/>
      </g>
     </g>
    </g>
    <g id="ytick_6">
     <g id="line2d_11">
      <g>
       <use xlink:href="#mc9c3edadbf" x="57.6" y="278.75979" style="stroke: #000000; stroke-width: 0.6"/>
      </g>
     </g>
    </g>
    <g id="ytick_7">
     <g id="line2d_12">
      <g>
       <use xlink:href="#mc9c3edadbf" x="57.6" y="270.225276" style="stroke: #000000; stroke-width: 0.6"/>
      </g>
     </g>
    </g>
    <g id="ytick_8">
     <g id="line2d_13">
      <g>
       <use xlink:href="#mc9c3edadbf" x="57.6" y="263.25207" style="stroke: #000000; stroke-width: 0.6"/>
      </g>
     </g>
    </g>
    <g id="ytick_9">
     <g id="line2d_14">
      <g>
       <use xlink:href="#mc9c3edadbf" x="57.6" y="257.356309" style="stroke: #000000; stroke-width: 0.6"/>
      </g>
     </g>
    </g>
    <g id="ytick_10">
     <g id="line2d_15">
      <g>
       <use xlink:href="#mc9c3edadbf" x="57.6" y="252.249168" style="stroke: #000000; stroke-width: 0.6"/>
      </g>
     </g>
    </g>
    <g id="ytick_11">
     <g id="line2d_16">
      <g>
       <use xlink:href="#mc9c3edadbf" x="57.6" y="247.744351" style="stroke: #000000; stroke-width: 0.6"/>
      </g>
     </g>
    </g>
    <g id="ytick_12">
     <g id="line2d_17">
      <g>
       <use xlink:href="#mc9c3edadbf" x="57.6" y="217.204032" style="stroke: #000000; stroke-width: 0.6"/>
      </g>
     </g>
    </g>
    <g id="ytick_13">
     <g id="line2d_18">
      <g>
       <use xlink:href="#mc9c3edadbf" x="57.6" y="201.696313" style="stroke: #000000; stroke-width: 0.6"/>
      </g>
     </g>
    </g>
    <g id="ytick_14">
     <g id="line2d_19">
      <g>
       <use xlink:href="#mc9c3edadbf" x="57.6" y="190.693411" style="stroke: #000000; stroke-width: 0.6"/>
      </g>
     </g>
    </g>
    <g id="ytick_15">
     <g id="line2d_20">
      <g>
       <use xlink:href="#mc9c3edadbf" x="57.6" y="182.158897" style="stroke: #000000; stroke-width: 0.6"/>
      </g>
     </g>
    </g>
    <g id="ytick_16">
     <g id="line2d_21">
      <g>
       <use xlink:href="#mc9c3edadbf" x="57.6" y="175.185691" style="stroke: #000000; stroke-width: 0.6"/>
      </g>
     </g>
    </g>
    <g id="ytick_17">
     <g id="line2d_22">
      <g>
       <use xlink:href="#mc9c3edadbf" x="57.6" y="169.28993" style="stroke: #000000; stroke-width: 0.6"/>
      </g>
     </g>
    </g>
    <g id="ytick_18">
     <g id="line2d_23">
      <g>
       <use xlink:href="#mc9c3edadbf" x="57.6" y="164.182789" style="stroke: #000000; stroke-width: 0.6"/>
      </g>
     </g>
    </g>
    <g id="ytick_19">
     <g id="line2d_24">
      <g>
       <use xlink:href="#mc9c3edadbf" x="57.6" y="159.677971" style="stroke: #000000; stroke-width: 0.6"/>
      </g>
     </g>
    </g>
    <g id="ytick_20">
     <g id="line2d_25">
      <g>
       <use xlink:href="#mc9c3edadbf" x="57.6" y="129.137653" style="stroke: #000000; stroke-width: 0.6"/>
      </g>
     </g>
    </g>
    <g id="ytick_21">
     <g id="line2d_26">
      <g>
       <use xlink:href="#mc9c3edadbf" x="57.6" y="113.629933" style="stroke: #000000; stroke-width: 0.6"/>
      </g>
     </g>
    </g>
    <g id="ytick_22">
     <g id="line2d_27">
      <g>
       <use xlink:href="#mc9c3edadbf" x="57.6" y="102.627031" style="stroke: #000000; stroke-width: 0.6"/>
      </g>
     </g>
    </g>
    <g id="ytick_23">
     <g id="line2d_28">
      <g>
       <use xlink:href="#mc9c3edadbf" x="57.6" y="94.092517" style="stroke: #000000; stroke-width: 0.6"/>
      </g>
     </g>
    </g>
    <g id="ytick_24">
     <g id="line2d_29">
      <g>
       <use xlink:href="#mc9c3edadbf" x="57.6" y="87.119311" style="stroke: #000000; stroke-width: 0.6"/>
      </g>
     </g>
    </g>
    <g id="ytick_25">
     <g id="line2d_30">
      <g>
       <use xlink:href="#mc9c3edadbf" x="57.6" y="81.22355" style="stroke: #000000; stroke-width: 0.6"/>
      </g>
     </g>
    </g>
    <g id="ytick_26">
     <g id="line2d_31">
      <g>
       <use xlink:href="#mc9c3edadbf" x="57.6" y="76.116409" style="stroke: #000000; stroke-width: 0.6"/>
      </g>
     </g>
    </g>
    <g id="ytick_27">
     <g id="line2d_32">
      <g>
       <use xlink:href="#mc9c3edadbf" x="57.6" y="71.611592" style="stroke: #000000; stroke-width: 0.6"/>
      </g>
     </g>
    </g>
    <g id="text_10">
     <!-- MEA loss -->
     <g transform="translate(21.020312 196.668625) rotate(-90) scale(0.1 -0.1)">
      <defs>
       <path id="DejaVuSans-4d" d="M 628 4666 
L 1569 4666 
L 2759 1491 
L 3956 4666 
L 4897 4666 
L 4897 0 
L 4281 0 
L 4281 4097 
L 3078 897 
L 2444 897 
L 1241 4097 
L 1241 0 
L 628 0 
L 628 4666 
z
" transform="scale(0.015625)"/>
       <path id="DejaVuSans-45" d="M 628 4666 
L 3578 4666 
L 3578 4134 
L 1259 4134 
L 1259 2753 
L 3481 2753 
L 3481 2222 
L 1259 2222 
L 1259 531 
L 3634 531 
L 3634 0 
L 628 0 
L 628 4666 
z
" transform="scale(0.015625)"/>
       <path id="DejaVuSans-41" d="M 2188 4044 
L 1331 1722 
L 3047 1722 
L 2188 4044 
z
M 1831 4666 
L 2547 4666 
L 4325 0 
L 3669 0 
L 3244 1197 
L 1141 1197 
L 716 0 
L 50 0 
L 1831 4666 
z
" transform="scale(0.015625)"/>
       <path id="DejaVuSans-20" transform="scale(0.015625)"/>
       <path id="DejaVuSans-6c" d="M 603 4863 
L 1178 4863 
L 1178 0 
L 603 0 
L 603 4863 
z
" transform="scale(0.015625)"/>
       <path id="DejaVuSans-6f" d="M 1959 3097 
Q 1497 3097 1228 2736 
Q 959 2375 959 1747 
Q 959 1119 1226 758 
Q 1494 397 1959 397 
Q 2419 397 2687 759 
Q 2956 1122 2956 1747 
Q 2956 2369 2687 2733 
Q 2419 3097 1959 3097 
z
M 1959 3584 
Q 2709 3584 3137 3096 
Q 3566 2609 3566 1747 
Q 3566 888 3137 398 
Q 2709 -91 1959 -91 
Q 1206 -91 779 398 
Q 353 888 353 1747 
Q 353 2609 779 3096 
Q 1206 3584 1959 3584 
z
" transform="scale(0.015625)"/>
       <path id="DejaVuSans-73" d="M 2834 3397 
L 2834 2853 
Q 2591 2978 2328 3040 
Q 2066 3103 1784 3103 
Q 1356 3103 1142 2972 
Q 928 2841 928 2578 
Q 928 2378 1081 2264 
Q 1234 2150 1697 2047 
L 1894 2003 
Q 2506 1872 2764 1633 
Q 3022 1394 3022 966 
Q 3022 478 2636 193 
Q 2250 -91 1575 -91 
Q 1294 -91 989 -36 
Q 684 19 347 128 
L 347 722 
Q 666 556 975 473 
Q 1284 391 1588 391 
Q 1994 391 2212 530 
Q 2431 669 2431 922 
Q 2431 1156 2273 1281 
Q 2116 1406 1581 1522 
L 1381 1569 
Q 847 1681 609 1914 
Q 372 2147 372 2553 
Q 372 3047 722 3315 
Q 1072 3584 1716 3584 
Q 2034 3584 2315 3537 
Q 2597 3491 2834 3397 
z
" transform="scale(0.015625)"/>
      </defs>
      <use xlink:href="#DejaVuSans-4d"/>
      <use xlink:href="#DejaVuSans-45" x="86.279297"/>
      <use xlink:href="#DejaVuSans-41" x="149.462891"/>
      <use xlink:href="#DejaVuSans-20" x="217.871094"/>
      <use xlink:href="#DejaVuSans-6c" x="249.658203"/>
      <use xlink:href="#DejaVuSans-6f" x="277.441406"/>
      <use xlink:href="#DejaVuSans-73" x="338.623047"/>
      <use xlink:href="#DejaVuSans-73" x="390.722656"/>
     </g>
    </g>
   </g>
   <g id="line2d_33">
    <path d="M 73.832727 53.568 
L 75.090469 125.639675 
L 76.34821 158.803662 
L 77.605952 180.318965 
L 78.863694 188.461175 
L 80.121435 190.439568 
L 81.379177 200.725043 
L 82.636918 205.734418 
L 83.89466 205.470966 
L 85.152401 204.490419 
L 86.410143 205.461737 
L 87.667885 212.996453 
L 88.925626 210.170087 
L 90.183368 215.292882 
L 91.441109 217.625963 
L 92.698851 221.594448 
L 93.956593 224.079007 
L 95.214334 227.869099 
L 96.472076 230.326508 
L 97.729817 235.32652 
L 98.987559 238.731309 
L 100.2453 240.854594 
L 101.503042 246.704711 
L 102.760784 248.137887 
L 104.018525 243.770498 
L 105.276267 252.946408 
L 106.534008 254.42365 
L 107.79175 256.110698 
L 109.049492 252.631946 
L 110.307233 254.111443 
L 111.564975 261.676526 
L 112.822716 256.331268 
L 114.080458 261.545431 
L 115.338199 258.910394 
L 116.595941 259.98342 
L 117.853683 262.85823 
L 119.111424 254.567917 
L 120.369166 259.503423 
L 121.626907 262.70454 
L 122.884649 259.002748 
L 124.14239 259.027928 
L 125.400132 258.777782 
L 126.657874 259.574588 
L 127.915615 264.541233 
L 129.173357 260.561094 
L 130.431098 252.581311 
L 131.68884 256.635442 
L 132.946582 259.881912 
L 134.204323 269.095036 
L 135.462065 260.108578 
L 136.719806 240.734004 
L 137.977548 237.30562 
L 139.235289 249.795928 
L 140.493031 269.198315 
L 141.750773 234.844493 
L 143.008514 266.839311 
L 144.266256 265.619027 
L 145.523997 261.077433 
L 146.781739 239.08872 
L 148.039481 265.714391 
L 149.297222 272.98782 
L 150.554964 252.188026 
L 151.812705 275.692079 
L 153.070447 274.305595 
L 154.328188 260.705219 
L 155.58593 252.867381 
L 156.843672 272.284076 
L 158.101413 253.546744 
L 159.359155 252.352621 
L 160.616896 249.268414 
L 161.874638 238.261458 
L 163.132379 239.722109 
L 164.390121 267.670172 
L 165.647863 256.365113 
L 166.905604 232.603108 
L 168.163346 252.897635 
L 169.421087 275.512571 
L 170.678829 270.301613 
L 171.936571 268.413108 
L 173.194312 250.878194 
L 174.452054 274.064006 
L 175.709795 274.214421 
L 176.967537 249.789344 
L 178.225278 267.64256 
L 179.48302 263.980958 
L 180.740762 274.695668 
L 181.998503 276.49388 
L 183.256245 273.277576 
L 184.513986 257.214454 
L 185.771728 256.853349 
L 187.02947 236.40816 
L 188.287211 274.770838 
L 189.544953 259.832142 
L 190.802694 269.457754 
L 192.060436 270.584224 
L 193.318177 269.044589 
L 194.575919 256.71985 
L 195.833661 279.005821 
L 197.091402 267.470603 
L 198.349144 276.479007 
L 199.606885 275.164812 
L 200.864627 272.411073 
L 202.122368 274.487565 
L 203.38011 230.148573 
L 204.637852 238.57378 
L 205.895593 269.438702 
L 207.153335 283.029918 
L 208.411076 259.225005 
L 209.668818 269.429078 
L 210.92656 261.719944 
L 212.184301 249.202769 
L 213.442043 267.388863 
L 214.699784 265.238081 
L 215.957526 271.212527 
L 217.215267 240.404483 
L 218.473009 267.578601 
L 219.730751 261.817686 
L 220.988492 266.899717 
L 222.246234 278.194984 
L 223.503975 247.187831 
L 224.761717 236.142137 
L 226.019459 234.645875 
L 227.2772 242.7293 
L 228.534942 241.698494 
L 229.792683 264.727022 
L 231.050425 284.130645 
L 232.308166 282.752406 
L 233.565908 279.612408 
L 234.82365 267.054341 
L 236.081391 266.194387 
L 236.238609 252.307081 
L 237.49635 269.373367 
L 238.754092 248.612952 
L 240.011834 280.312182 
L 241.269575 255.226515 
L 242.527317 253.436121 
L 243.785058 276.720479 
L 245.0428 262.539965 
L 246.300541 256.735227 
L 247.558283 272.879303 
L 248.816025 272.674666 
L 250.073766 267.705943 
L 251.331508 273.120991 
L 252.589249 259.109255 
L 253.846991 260.223146 
L 255.104733 249.598452 
L 256.362474 249.507071 
L 257.620216 270.724253 
L 258.877957 282.054399 
L 260.135699 272.363217 
L 261.39344 247.827439 
L 262.651182 268.859677 
L 263.908924 245.096181 
L 265.166665 276.115771 
L 266.424407 273.124799 
L 267.682148 283.059952 
L 268.93989 237.116927 
L 270.197632 262.646685 
L 271.455373 245.975191 
L 272.713115 287.856591 
L 273.970856 218.532702 
L 275.228598 250.372352 
L 276.486339 264.949418 
L 277.744081 235.556764 
L 279.001823 255.975572 
L 280.259564 267.101324 
L 281.517306 220.783629 
L 282.775047 264.903404 
L 284.032789 285.747577 
L 285.29053 280.574731 
L 286.548272 290.45137 
L 287.806014 243.636867 
L 289.063755 219.601561 
L 290.321497 210.120761 
L 291.579238 238.835274 
L 292.83698 254.612348 
L 294.094722 222.497532 
L 295.352463 233.55306 
L 296.610205 248.874724 
L 297.867946 276.098583 
L 299.125688 248.302697 
L 300.383429 240.522445 
L 301.641171 289.197335 
L 302.898913 239.407047 
L 304.156654 276.653291 
L 305.414396 223.737781 
L 306.672137 235.261772 
L 307.929879 262.388326 
L 309.187621 267.059907 
L 310.445362 295.488 
L 311.703104 245.161062 
L 312.960845 265.663055 
L 314.218587 281.04498 
L 315.476328 290.614298 
L 316.73407 257.997982 
L 317.991812 237.290082 
L 319.249553 266.918473 
L 320.507295 287.816068 
L 321.765036 286.073043 
L 323.022778 264.588923 
L 324.280519 274.323804 
L 325.538261 252.242993 
L 326.796003 237.761115 
L 328.053744 254.13412 
L 329.311486 266.963914 
L 330.569227 271.292931 
L 331.826969 230.439346 
L 333.084711 251.069408 
L 334.342452 280.455751 
L 335.600194 215.819017 
L 336.857935 282.678057 
L 338.115677 235.120386 
L 339.373418 268.128665 
L 340.63116 282.101382 
L 341.888902 222.430526 
L 343.146643 239.564627 
L 344.404385 270.977787 
L 345.662126 246.483276 
L 346.919868 247.806293 
L 348.17761 225.041146 
L 349.435351 255.173316 
L 350.693093 271.785296 
L 351.950834 267.814887 
L 353.208576 249.577366 
L 354.466317 224.120556 
L 355.724059 241.917643 
L 356.981801 241.782794 
L 358.239542 286.447341 
L 359.497284 275.676815 
L 360.755025 282.361084 
L 362.012767 263.370325 
L 363.270508 253.133575 
L 364.52825 260.116051 
L 365.785992 234.138017 
L 367.043733 254.612124 
L 368.301475 210.491682 
L 369.559216 244.813923 
L 370.816958 211.28081 
L 372.0747 265.338302 
L 373.332441 281.430287 
L 374.590183 273.858425 
L 375.847924 264.387148 
L 377.105666 268.570014 
L 378.363407 294.878115 
L 379.621149 293.022622 
L 380.878891 248.927011 
L 382.136632 266.162871 
L 383.394374 270.460953 
L 384.652115 284.401816 
L 385.909857 224.979832 
L 387.167599 229.110116 
L 388.42534 228.430233 
L 389.683082 260.160899 
L 390.940823 250.271924 
L 392.198565 291.984376 
L 393.456306 234.328029 
L 394.714048 242.840931 
L 395.97179 213.551025 
L 398.487273 274.001973 
L 398.487273 274.001973 
" clip-path="url(#p0a1972e7c7)" style="fill: none; stroke: #1f77b4; stroke-width: 1.5; stroke-linecap: square"/>
   </g>
   <g id="line2d_34">
    <path d="M 73.832727 162.261751 
L 75.090469 165.356879 
L 76.34821 164.215861 
L 77.605952 165.18008 
L 78.863694 165.389815 
L 80.121435 164.17336 
L 81.379177 167.449144 
L 83.89466 175.146879 
L 85.152401 169.050277 
L 86.410143 173.113934 
L 87.667885 160.378002 
L 88.925626 169.51578 
L 90.183368 166.157119 
L 91.441109 169.854815 
L 92.698851 169.46979 
L 93.956593 170.617526 
L 95.214334 169.535873 
L 96.472076 159.293394 
L 97.729817 174.049591 
L 98.987559 175.590438 
L 100.2453 173.96929 
L 101.503042 179.356509 
L 102.760784 175.678277 
L 104.018525 185.768788 
L 105.276267 179.965361 
L 106.534008 183.392254 
L 107.79175 178.614221 
L 109.049492 160.28023 
L 110.307233 159.566643 
L 111.564975 180.641928 
L 112.822716 135.374563 
L 114.080458 144.759449 
L 115.338199 136.064604 
L 116.595941 187.616884 
L 117.853683 161.022881 
L 119.111424 171.261203 
L 120.369166 183.583752 
L 121.626907 176.090888 
L 122.884649 128.286371 
L 124.14239 168.702624 
L 125.400132 152.445587 
L 126.657874 171.579661 
L 127.915615 186.66109 
L 129.173357 156.442164 
L 130.431098 189.410591 
L 131.68884 140.080267 
L 132.946582 150.109138 
L 134.204323 188.717913 
L 135.462065 153.525091 
L 136.719806 127.289154 
L 137.977548 141.533602 
L 139.235289 112.765193 
L 140.493031 116.407978 
L 141.750773 110.948867 
L 143.008514 128.89669 
L 144.266256 188.884716 
L 145.523997 140.727412 
L 146.781739 144.30989 
L 148.039481 152.142201 
L 149.297222 137.311152 
L 150.554964 184.210732 
L 151.812705 157.354654 
L 153.070447 178.05447 
L 154.328188 195.571923 
L 155.58593 158.664319 
L 156.843672 160.623939 
L 158.101413 132.749669 
L 159.359155 166.591502 
L 160.616896 132.991624 
L 161.874638 192.322463 
L 163.132379 194.962275 
L 164.390121 173.599183 
L 165.647863 141.62895 
L 166.905604 148.452452 
L 168.163346 143.22961 
L 169.421087 146.999895 
L 170.678829 143.358395 
L 171.936571 150.394566 
L 173.194312 184.931633 
L 174.452054 201.39639 
L 175.709795 141.359339 
L 176.967537 176.761291 
L 178.225278 195.484759 
L 179.48302 129.271565 
L 180.740762 140.493904 
L 181.998503 197.168843 
L 183.256245 146.530503 
L 184.513986 128.553558 
L 185.771728 197.550586 
L 187.02947 167.525757 
L 188.287211 179.81874 
L 189.544953 183.410802 
L 190.802694 169.105153 
L 192.060436 176.310293 
L 193.318177 171.432512 
L 194.575919 132.978457 
L 195.833661 190.336043 
L 197.091402 171.969551 
L 198.349144 156.475629 
L 199.606885 153.245044 
L 200.864627 148.852213 
L 202.122368 153.0645 
L 203.38011 185.738095 
L 204.637852 139.082927 
L 205.895593 149.577321 
L 207.153335 204.07731 
L 208.411076 141.698316 
L 209.668818 156.779801 
L 210.92656 197.508121 
L 212.184301 175.876441 
L 213.442043 189.392739 
L 214.699784 186.249964 
L 215.957526 117.8699 
L 217.215267 181.517647 
L 218.473009 188.935581 
L 219.730751 154.227706 
L 220.988492 189.558362 
L 222.246234 173.144975 
L 223.503975 182.29949 
L 224.761717 166.783539 
L 226.019459 154.357523 
L 227.2772 195.912306 
L 229.792683 166.667296 
L 231.050425 130.132921 
L 233.565908 172.757055 
L 234.82365 178.14954 
L 236.238609 128.94783 
L 238.754092 164.393022 
L 240.011834 170.166388 
L 241.269575 185.218345 
L 242.527317 202.684981 
L 243.785058 200.737587 
L 245.0428 181.193923 
L 246.300541 124.319132 
L 247.558283 123.308289 
L 248.816025 166.412441 
L 250.073766 171.134227 
L 251.331508 191.673165 
L 252.589249 195.160635 
L 253.846991 172.88647 
L 255.104733 171.360242 
L 256.362474 167.71717 
L 257.620216 183.882567 
L 258.877957 186.743164 
L 260.135699 157.022375 
L 261.39344 196.464475 
L 262.651182 171.833892 
L 263.908924 166.51014 
L 265.166665 188.522469 
L 266.424407 185.277329 
L 267.682148 177.8433 
L 268.93989 153.618313 
L 270.197632 184.335377 
L 271.455373 171.042678 
L 272.713115 144.30863 
L 273.970856 160.783246 
L 275.228598 159.00942 
L 276.486339 193.377566 
L 277.744081 182.894083 
L 279.001823 149.260101 
L 280.259564 189.437658 
L 281.517306 201.656419 
L 282.775047 130.763475 
L 284.032789 143.864617 
L 285.29053 193.685085 
L 286.548272 172.039364 
L 287.806014 188.933714 
L 289.063755 178.133146 
L 290.321497 146.09563 
L 291.579238 205.586253 
L 292.83698 172.989129 
L 294.094722 194.770318 
L 295.352463 166.225413 
L 296.610205 161.318249 
L 297.867946 152.806112 
L 299.125688 143.306342 
L 300.383429 165.613263 
L 301.641171 173.012763 
L 302.898913 154.586745 
L 304.156654 183.614354 
L 305.414396 207.91115 
L 306.672137 195.843747 
L 307.929879 201.076709 
L 309.187621 192.782008 
L 310.445362 207.727114 
L 311.703104 160.419987 
L 312.960845 175.052253 
L 314.218587 171.330273 
L 315.476328 151.360555 
L 316.73407 154.792471 
L 317.991812 158.976606 
L 319.249553 155.678479 
L 320.507295 204.894612 
L 321.765036 188.734162 
L 323.022778 205.416366 
L 324.280519 154.470939 
L 325.538261 183.311727 
L 326.796003 183.908044 
L 328.053744 166.496048 
L 329.311486 165.057137 
L 330.569227 151.149569 
L 331.826969 193.094993 
L 333.084711 189.518593 
L 334.342452 210.415879 
L 335.600194 143.439957 
L 336.857935 146.761118 
L 338.115677 212.613869 
L 339.373418 191.737241 
L 340.63116 157.648049 
L 341.888902 156.4571 
L 343.146643 162.630726 
L 344.404385 172.824542 
L 345.662126 200.625655 
L 346.919868 148.64233 
L 348.17761 190.772977 
L 349.435351 151.715166 
L 350.693093 174.728957 
L 351.950834 213.716918 
L 353.208576 195.59452 
L 354.466317 205.355665 
L 355.724059 213.026943 
L 356.981801 159.658461 
L 358.239542 208.868381 
L 359.497284 212.598417 
L 360.755025 164.159386 
L 362.012767 178.855777 
L 363.270508 171.131029 
L 364.52825 213.003614 
L 365.785992 165.573244 
L 367.043733 144.880924 
L 368.301475 204.181203 
L 369.559216 174.620119 
L 370.816958 185.559223 
L 372.0747 155.766152 
L 373.332441 164.318685 
L 374.590183 136.271333 
L 375.847924 175.590143 
L 377.105666 164.335653 
L 378.363407 161.739541 
L 379.621149 165.439562 
L 380.878891 158.657526 
L 382.136632 193.352017 
L 383.394374 157.575976 
L 384.652115 187.314559 
L 385.909857 171.623923 
L 387.167599 171.147114 
L 388.42534 139.063757 
L 389.683082 208.432329 
L 390.940823 189.050772 
L 392.198565 147.919207 
L 393.456306 172.381037 
L 394.714048 168.463864 
L 395.97179 167.331959 
L 397.229531 194.497942 
L 398.487273 207.945002 
L 398.487273 207.945002 
" clip-path="url(#p0a1972e7c7)" style="fill: none; stroke: #ff7f0e; stroke-width: 1.5; stroke-linecap: square"/>
   </g>
   <g id="patch_3">
    <path d="M 57.6 307.584 
L 57.6 41.472 
" style="fill: none; stroke: #000000; stroke-width: 0.8; stroke-linejoin: miter; stroke-linecap: square"/>
   </g>
   <g id="patch_4">
    <path d="M 414.72 307.584 
L 414.72 41.472 
" style="fill: none; stroke: #000000; stroke-width: 0.8; stroke-linejoin: miter; stroke-linecap: square"/>
   </g>
   <g id="patch_5">
    <path d="M 57.6 307.584 
L 414.72 307.584 
" style="fill: none; stroke: #000000; stroke-width: 0.8; stroke-linejoin: miter; stroke-linecap: square"/>
   </g>
   <g id="patch_6">
    <path d="M 57.6 41.472 
L 414.72 41.472 
" style="fill: none; stroke: #000000; stroke-width: 0.8; stroke-linejoin: miter; stroke-linecap: square"/>
   </g>
   <g id="text_11">
    <!-- 2025-02-12-16:30:37 -->
    <g transform="translate(172.178438 35.472) scale(0.12 -0.12)">
     <defs>
      <path id="DejaVuSans-35" d="M 691 4666 
L 3169 4666 
L 3169 4134 
L 1269 4134 
L 1269 2991 
Q 1406 3038 1543 3061 
Q 1681 3084 1819 3084 
Q 2600 3084 3056 2656 
Q 3513 2228 3513 1497 
Q 3513 744 3044 326 
Q 2575 -91 1722 -91 
Q 1428 -91 1123 -41 
Q 819 9 494 109 
L 494 744 
Q 775 591 1075 516 
Q 1375 441 1709 441 
Q 2250 441 2565 725 
Q 2881 1009 2881 1497 
Q 2881 1984 2565 2268 
Q 2250 2553 1709 2553 
Q 1456 2553 1204 2497 
Q 953 2441 691 2322 
L 691 4666 
z
" transform="scale(0.015625)"/>
      <path id="DejaVuSans-2d" d="M 313 2009 
L 1997 2009 
L 1997 1497 
L 313 1497 
L 313 2009 
z
" transform="scale(0.015625)"/>
      <path id="DejaVuSans-36" d="M 2113 2584 
Q 1688 2584 1439 2293 
Q 1191 2003 1191 1497 
Q 1191 994 1439 701 
Q 1688 409 2113 409 
Q 2538 409 2786 701 
Q 3034 994 3034 1497 
Q 3034 2003 2786 2293 
Q 2538 2584 2113 2584 
z
M 3366 4563 
L 3366 3988 
Q 3128 4100 2886 4159 
Q 2644 4219 2406 4219 
Q 1781 4219 1451 3797 
Q 1122 3375 1075 2522 
Q 1259 2794 1537 2939 
Q 1816 3084 2150 3084 
Q 2853 3084 3261 2657 
Q 3669 2231 3669 1497 
Q 3669 778 3244 343 
Q 2819 -91 2113 -91 
Q 1303 -91 875 529 
Q 447 1150 447 2328 
Q 447 3434 972 4092 
Q 1497 4750 2381 4750 
Q 2619 4750 2861 4703 
Q 3103 4656 3366 4563 
z
" transform="scale(0.015625)"/>
      <path id="DejaVuSans-3a" d="M 750 794 
L 1409 794 
L 1409 0 
L 750 0 
L 750 794 
z
M 750 3309 
L 1409 3309 
L 1409 2516 
L 750 2516 
L 750 3309 
z
" transform="scale(0.015625)"/>
      <path id="DejaVuSans-37" d="M 525 4666 
L 3525 4666 
L 3525 4397 
L 1831 0 
L 1172 0 
L 2766 4134 
L 525 4134 
L 525 4666 
z
" transform="scale(0.015625)"/>
     </defs>
     <use xlink:href="#DejaVuSans-32"/>
     <use xlink:href="#DejaVuSans-30" x="63.623047"/>
     <use xlink:href="#DejaVuSans-32" x="127.246094"/>
     <use xlink:href="#DejaVuSans-35" x="190.869141"/>
     <use xlink:href="#DejaVuSans-2d" x="254.492188"/>
     <use xlink:href="#DejaVuSans-30" x="290.576172"/>
     <use xlink:href="#DejaVuSans-32" x="354.199219"/>
     <use xlink:href="#DejaVuSans-2d" x="417.822266"/>
     <use xlink:href="#DejaVuSans-31" x="453.90625"/>
     <use xlink:href="#DejaVuSans-32" x="517.529297"/>
     <use xlink:href="#DejaVuSans-2d" x="581.152344"/>
     <use xlink:href="#DejaVuSans-31" x="617.236328"/>
     <use xlink:href="#DejaVuSans-36" x="680.859375"/>
     <use xlink:href="#DejaVuSans-3a" x="744.482422"/>
     <use xlink:href="#DejaVuSans-33" x="778.173828"/>
     <use xlink:href="#DejaVuSans-30" x="841.796875"/>
     <use xlink:href="#DejaVuSans-3a" x="905.419922"/>
     <use xlink:href="#DejaVuSans-33" x="939.111328"/>
     <use xlink:href="#DejaVuSans-37" x="1002.734375"/>
    </g>
   </g>
   <g id="legend_1">
    <g id="patch_7">
     <path d="M 261.018438 78.82825 
L 407.72 78.82825 
Q 409.72 78.82825 409.72 76.82825 
L 409.72 48.472 
Q 409.72 46.472 407.72 46.472 
L 261.018438 46.472 
Q 259.018438 46.472 259.018438 48.472 
L 259.018438 76.82825 
Q 259.018438 78.82825 261.018438 78.82825 
z
" style="fill: #ffffff; opacity: 0.8; stroke: #cccccc; stroke-linejoin: miter"/>
    </g>
    <g id="line2d_35">
     <path d="M 263.018438 54.570437 
L 273.018438 54.570437 
L 283.018438 54.570437 
" style="fill: none; stroke: #1f77b4; stroke-width: 1.5; stroke-linecap: square"/>
    </g>
    <g id="text_12">
     <!-- schnet -->
     <g transform="translate(291.018438 58.070437) scale(0.1 -0.1)">
      <defs>
       <path id="DejaVuSans-63" d="M 3122 3366 
L 3122 2828 
Q 2878 2963 2633 3030 
Q 2388 3097 2138 3097 
Q 1578 3097 1268 2742 
Q 959 2388 959 1747 
Q 959 1106 1268 751 
Q 1578 397 2138 397 
Q 2388 397 2633 464 
Q 2878 531 3122 666 
L 3122 134 
Q 2881 22 2623 -34 
Q 2366 -91 2075 -91 
Q 1284 -91 818 406 
Q 353 903 353 1747 
Q 353 2603 823 3093 
Q 1294 3584 2113 3584 
Q 2378 3584 2631 3529 
Q 2884 3475 3122 3366 
z
" transform="scale(0.015625)"/>
       <path id="DejaVuSans-68" d="M 3513 2113 
L 3513 0 
L 2938 0 
L 2938 2094 
Q 2938 2591 2744 2837 
Q 2550 3084 2163 3084 
Q 1697 3084 1428 2787 
Q 1159 2491 1159 1978 
L 1159 0 
L 581 0 
L 581 4863 
L 1159 4863 
L 1159 2956 
Q 1366 3272 1645 3428 
Q 1925 3584 2291 3584 
Q 2894 3584 3203 3211 
Q 3513 2838 3513 2113 
z
" transform="scale(0.015625)"/>
       <path id="DejaVuSans-6e" d="M 3513 2113 
L 3513 0 
L 2938 0 
L 2938 2094 
Q 2938 2591 2744 2837 
Q 2550 3084 2163 3084 
Q 1697 3084 1428 2787 
Q 1159 2491 1159 1978 
L 1159 0 
L 581 0 
L 581 3500 
L 1159 3500 
L 1159 2956 
Q 1366 3272 1645 3428 
Q 1925 3584 2291 3584 
Q 2894 3584 3203 3211 
Q 3513 2838 3513 2113 
z
" transform="scale(0.015625)"/>
      </defs>
      <use xlink:href="#DejaVuSans-73"/>
      <use xlink:href="#DejaVuSans-63" x="52.099609"/>
      <use xlink:href="#DejaVuSans-68" x="107.080078"/>
      <use xlink:href="#DejaVuSans-6e" x="170.458984"/>
      <use xlink:href="#DejaVuSans-65" x="233.837891"/>
      <use xlink:href="#DejaVuSans-74" x="295.361328"/>
     </g>
    </g>
    <g id="line2d_36">
     <path d="M 263.018438 69.248562 
L 273.018438 69.248562 
L 283.018438 69.248562 
" style="fill: none; stroke: #ff7f0e; stroke-width: 1.5; stroke-linecap: square"/>
    </g>
    <g id="text_13">
     <!-- drgin(without softmax) -->
     <g transform="translate(291.018438 72.748562) scale(0.1 -0.1)">
      <defs>
       <path id="DejaVuSans-64" d="M 2906 2969 
L 2906 4863 
L 3481 4863 
L 3481 0 
L 2906 0 
L 2906 525 
Q 2725 213 2448 61 
Q 2172 -91 1784 -91 
Q 1150 -91 751 415 
Q 353 922 353 1747 
Q 353 2572 751 3078 
Q 1150 3584 1784 3584 
Q 2172 3584 2448 3432 
Q 2725 3281 2906 2969 
z
M 947 1747 
Q 947 1113 1208 752 
Q 1469 391 1925 391 
Q 2381 391 2643 752 
Q 2906 1113 2906 1747 
Q 2906 2381 2643 2742 
Q 2381 3103 1925 3103 
Q 1469 3103 1208 2742 
Q 947 2381 947 1747 
z
" transform="scale(0.015625)"/>
       <path id="DejaVuSans-67" d="M 2906 1791 
Q 2906 2416 2648 2759 
Q 2391 3103 1925 3103 
Q 1463 3103 1205 2759 
Q 947 2416 947 1791 
Q 947 1169 1205 825 
Q 1463 481 1925 481 
Q 2391 481 2648 825 
Q 2906 1169 2906 1791 
z
M 3481 434 
Q 3481 -459 3084 -895 
Q 2688 -1331 1869 -1331 
Q 1566 -1331 1297 -1286 
Q 1028 -1241 775 -1147 
L 775 -588 
Q 1028 -725 1275 -790 
Q 1522 -856 1778 -856 
Q 2344 -856 2625 -561 
Q 2906 -266 2906 331 
L 2906 616 
Q 2728 306 2450 153 
Q 2172 0 1784 0 
Q 1141 0 747 490 
Q 353 981 353 1791 
Q 353 2603 747 3093 
Q 1141 3584 1784 3584 
Q 2172 3584 2450 3431 
Q 2728 3278 2906 2969 
L 2906 3500 
L 3481 3500 
L 3481 434 
z
" transform="scale(0.015625)"/>
       <path id="DejaVuSans-28" d="M 1984 4856 
Q 1566 4138 1362 3434 
Q 1159 2731 1159 2009 
Q 1159 1288 1364 580 
Q 1569 -128 1984 -844 
L 1484 -844 
Q 1016 -109 783 600 
Q 550 1309 550 2009 
Q 550 2706 781 3412 
Q 1013 4119 1484 4856 
L 1984 4856 
z
" transform="scale(0.015625)"/>
       <path id="DejaVuSans-77" d="M 269 3500 
L 844 3500 
L 1563 769 
L 2278 3500 
L 2956 3500 
L 3675 769 
L 4391 3500 
L 4966 3500 
L 4050 0 
L 3372 0 
L 2619 2869 
L 1863 0 
L 1184 0 
L 269 3500 
z
" transform="scale(0.015625)"/>
       <path id="DejaVuSans-75" d="M 544 1381 
L 544 3500 
L 1119 3500 
L 1119 1403 
Q 1119 906 1312 657 
Q 1506 409 1894 409 
Q 2359 409 2629 706 
Q 2900 1003 2900 1516 
L 2900 3500 
L 3475 3500 
L 3475 0 
L 2900 0 
L 2900 538 
Q 2691 219 2414 64 
Q 2138 -91 1772 -91 
Q 1169 -91 856 284 
Q 544 659 544 1381 
z
M 1991 3584 
L 1991 3584 
z
" transform="scale(0.015625)"/>
       <path id="DejaVuSans-66" d="M 2375 4863 
L 2375 4384 
L 1825 4384 
Q 1516 4384 1395 4259 
Q 1275 4134 1275 3809 
L 1275 3500 
L 2222 3500 
L 2222 3053 
L 1275 3053 
L 1275 0 
L 697 0 
L 697 3053 
L 147 3053 
L 147 3500 
L 697 3500 
L 697 3744 
Q 697 4328 969 4595 
Q 1241 4863 1831 4863 
L 2375 4863 
z
" transform="scale(0.015625)"/>
       <path id="DejaVuSans-6d" d="M 3328 2828 
Q 3544 3216 3844 3400 
Q 4144 3584 4550 3584 
Q 5097 3584 5394 3201 
Q 5691 2819 5691 2113 
L 5691 0 
L 5113 0 
L 5113 2094 
Q 5113 2597 4934 2840 
Q 4756 3084 4391 3084 
Q 3944 3084 3684 2787 
Q 3425 2491 3425 1978 
L 3425 0 
L 2847 0 
L 2847 2094 
Q 2847 2600 2669 2842 
Q 2491 3084 2119 3084 
Q 1678 3084 1418 2786 
Q 1159 2488 1159 1978 
L 1159 0 
L 581 0 
L 581 3500 
L 1159 3500 
L 1159 2956 
Q 1356 3278 1631 3431 
Q 1906 3584 2284 3584 
Q 2666 3584 2933 3390 
Q 3200 3197 3328 2828 
z
" transform="scale(0.015625)"/>
       <path id="DejaVuSans-61" d="M 2194 1759 
Q 1497 1759 1228 1600 
Q 959 1441 959 1056 
Q 959 750 1161 570 
Q 1363 391 1709 391 
Q 2188 391 2477 730 
Q 2766 1069 2766 1631 
L 2766 1759 
L 2194 1759 
z
M 3341 1997 
L 3341 0 
L 2766 0 
L 2766 531 
Q 2569 213 2275 61 
Q 1981 -91 1556 -91 
Q 1019 -91 701 211 
Q 384 513 384 1019 
Q 384 1609 779 1909 
Q 1175 2209 1959 2209 
L 2766 2209 
L 2766 2266 
Q 2766 2663 2505 2880 
Q 2244 3097 1772 3097 
Q 1472 3097 1187 3025 
Q 903 2953 641 2809 
L 641 3341 
Q 956 3463 1253 3523 
Q 1550 3584 1831 3584 
Q 2591 3584 2966 3190 
Q 3341 2797 3341 1997 
z
" transform="scale(0.015625)"/>
       <path id="DejaVuSans-78" d="M 3513 3500 
L 2247 1797 
L 3578 0 
L 2900 0 
L 1881 1375 
L 863 0 
L 184 0 
L 1544 1831 
L 300 3500 
L 978 3500 
L 1906 2253 
L 2834 3500 
L 3513 3500 
z
" transform="scale(0.015625)"/>
       <path id="DejaVuSans-29" d="M 513 4856 
L 1013 4856 
Q 1481 4119 1714 3412 
Q 1947 2706 1947 2009 
Q 1947 1309 1714 600 
Q 1481 -109 1013 -844 
L 513 -844 
Q 928 -128 1133 580 
Q 1338 1288 1338 2009 
Q 1338 2731 1133 3434 
Q 928 4138 513 4856 
z
" transform="scale(0.015625)"/>
      </defs>
      <use xlink:href="#DejaVuSans-64"/>
      <use xlink:href="#DejaVuSans-72" x="63.476562"/>
      <use xlink:href="#DejaVuSans-67" x="102.839844"/>
      <use xlink:href="#DejaVuSans-69" x="166.316406"/>
      <use xlink:href="#DejaVuSans-6e" x="194.099609"/>
      <use xlink:href="#DejaVuSans-28" x="257.478516"/>
      <use xlink:href="#DejaVuSans-77" x="296.492188"/>
      <use xlink:href="#DejaVuSans-69" x="378.279297"/>
      <use xlink:href="#DejaVuSans-74" x="406.0625"/>
      <use xlink:href="#DejaVuSans-68" x="445.271484"/>
      <use xlink:href="#DejaVuSans-6f" x="508.650391"/>
      <use xlink:href="#DejaVuSans-75" x="569.832031"/>
      <use xlink:href="#DejaVuSans-74" x="633.210938"/>
      <use xlink:href="#DejaVuSans-20" x="672.419922"/>
      <use xlink:href="#DejaVuSans-73" x="704.207031"/>
      <use xlink:href="#DejaVuSans-6f" x="756.306641"/>
      <use xlink:href="#DejaVuSans-66" x="817.488281"/>
      <use xlink:href="#DejaVuSans-74" x="850.943359"/>
      <use xlink:href="#DejaVuSans-6d" x="890.152344"/>
      <use xlink:href="#DejaVuSans-61" x="987.564453"/>
      <use xlink:href="#DejaVuSans-78" x="1048.84375"/>
      <use xlink:href="#DejaVuSans-29" x="1108.023438"/>
     </g>
    </g>
   </g>
  </g>
 </g>
 <defs>
  <clipPath id="p0a1972e7c7">
   <rect x="57.6" y="41.472" width="357.12" height="266.112"/>
  </clipPath>
 </defs>
</svg>
